<svg xmlns="http://www.w3.org/2000/svg" width="1056" height="1050"><rect width="100%" height="100%" fill="white"/><text x="42" y="854.0" text-anchor="end" font-size="20" fill="black">492</text><text x="42" y="654.0" text-anchor="end" font-size="20" fill="black">493</text><text x="42" y="454.0" text-anchor="end" font-size="20" fill="black">494</text><text x="42" y="254.0" text-anchor="end" font-size="20" fill="black">495</text><text x="42" y="54.0" text-anchor="end" font-size="20" fill="black">496</text><line x1="16472" y1="96.002197265625" x2="16472" y2="326.0009765625" stroke="#ef5350" stroke-width="2"/><rect x="16468" y="228.997802734375" width="8" height="2" fill="#ef5350"/><line x1="16484" y1="166.021728515625" x2="16484" y2="259.222412109375" stroke="#ef5350" stroke-width="2"/><rect x="16480" y="196.002197265625" width="8" height="38.995361328125" fill="#ef5350"/><line x1="16496" y1="188.018798828125" x2="16496" y2="344.000244140625" stroke="#26a69a" stroke-width="2"/><rect x="16492" y="210.99853515625" width="8" height="39.00146484375" fill="#26a69a"/><line x1="16508" y1="226.0009765625" x2="16508" y2="497.998046875" stroke="#ef5350" stroke-width="2"/><rect x="16504" y="250.0" width="8" height="116.021728515625" fill="#ef5350"/><line x1="16520" y1="340.00244140625" x2="16520" y2="436.99951171875" stroke="#26a69a" stroke-width="2"/><rect x="16516" y="387.738037109375" width="8" height="21.2646484375" fill="#26a69a"/><line x1="16532" y1="400.0" x2="16532" y2="465.97900390625" stroke="#ef5350" stroke-width="2"/><rect x="16528" y="407.000732421875" width="8" height="58.978271484375" fill="#ef5350"/><line x1="16544" y1="357.000732421875" x2="16544" y2="465.997314453125" stroke="#26a69a" stroke-width="2"/><rect x="16540" y="357.000732421875" width="8" height="101.0009765625" fill="#26a69a"/><line x1="16556" y1="350.201416015625" x2="16556" y2="445.599365234375" stroke="#ef5350" stroke-width="2"/><rect x="16552" y="363.78173828125" width="8" height="38.720703125" fill="#ef5350"/><line x1="16568" y1="406.280517578125" x2="16568" y2="510.99853515625" stroke="#ef5350" stroke-width="2"/><rect x="16564" y="406.280517578125" width="8" height="73.71826171875" fill="#ef5350"/><line x1="16580" y1="436.56005859375" x2="16580" y2="517.999267578125" stroke="#ef5350" stroke-width="2"/><rect x="16576" y="459.99755859375" width="8" height="24.8046875" fill="#ef5350"/><line x1="16592" y1="473.9990234375" x2="16592" y2="584.100341796875" stroke="#ef5350" stroke-width="2"/><rect x="16588" y="494.000244140625" width="8" height="85.99853515625" fill="#ef5350"/><line x1="16604" y1="590.72265625" x2="16604" y2="734.002685546875" stroke="#ef5350" stroke-width="2"/><rect x="16600" y="605.657958984375" width="8" height="4.339599609375" fill="#ef5350"/><line x1="16616" y1="500.0" x2="16616" y2="638.00048828125" stroke="#26a69a" stroke-width="2"/><rect x="16612" y="509.136962890625" width="8" height="88.861083984375" fill="#26a69a"/><line x1="16628" y1="501.123046875" x2="16628" y2="561.981201171875" stroke="#ef5350" stroke-width="2"/><rect x="16624" y="513.00048828125" width="8" height="48.980712890625" fill="#ef5350"/><line x1="16640" y1="550.0" x2="16640" y2="658.642578125" stroke="#ef5350" stroke-width="2"/><rect x="16636" y="561.99951171875" width="8" height="84.002685546875" fill="#ef5350"/><line x1="16652" y1="602.001953125" x2="16652" y2="646.002197265625" stroke="#ef5350" stroke-width="2"/><rect x="16648" y="619.000244140625" width="8" height="14.94140625" fill="#ef5350"/><line x1="16664" y1="627.50244140625" x2="16664" y2="713.78173828125" stroke="#ef5350" stroke-width="2"/><rect x="16660" y="628.0029296875" width="8" height="67.999267578125" fill="#ef5350"/><line x1="16676" y1="668.07861328125" x2="16676" y2="788.397216796875" stroke="#26a69a" stroke-width="2"/><rect x="16672" y="726.66015625" width="8" height="2" fill="#26a69a"/><line x1="16688" y1="761.99951171875" x2="16688" y2="850.0" stroke="#ef5350" stroke-width="2"/><rect x="16684" y="770.001220703125" width="8" height="41.619873046875" fill="#ef5350"/><line x1="16700" y1="744.0185546875" x2="16700" y2="823.980712890625" stroke="#26a69a" stroke-width="2"/><rect x="16696" y="767.999267578125" width="8" height="23.9990234375" fill="#26a69a"/><line x1="16712" y1="718.017578125" x2="16712" y2="812.359619140625" stroke="#ef5350" stroke-width="2"/><rect x="16708" y="718.017578125" width="8" height="94.342041015625" fill="#ef5350"/><line x1="16724" y1="779.998779296875" x2="16724" y2="835.99853515625" stroke="#26a69a" stroke-width="2"/><rect x="16720" y="791.998291015625" width="8" height="27.362060546875" fill="#26a69a"/><line x1="16736" y1="684.3994140625" x2="16736" y2="768.32275390625" stroke="#26a69a" stroke-width="2"/><rect x="16732" y="702.001953125" width="8" height="51.995849609375" fill="#26a69a"/><line x1="16748" y1="691.998291015625" x2="16748" y2="790.00244140625" stroke="#26a69a" stroke-width="2"/><rect x="16744" y="713.00048828125" width="8" height="6.500244140625" fill="#26a69a"/><line x1="16760" y1="694.000244140625" x2="16760" y2="790.00244140625" stroke="#ef5350" stroke-width="2"/><rect x="16756" y="696.002197265625" width="8" height="80.999755859375" fill="#ef5350"/><line x1="16772" y1="750.0" x2="16772" y2="802.001953125" stroke="#26a69a" stroke-width="2"/><rect x="16768" y="758.02001953125" width="8" height="23.980712890625" fill="#26a69a"/><line x1="16784" y1="719.000244140625" x2="16784" y2="787.982177734375" stroke="#26a69a" stroke-width="2"/><rect x="16780" y="721.9970703125" width="8" height="42.00439453125" fill="#26a69a"/><line x1="16796" y1="723.9990234375" x2="16796" y2="761.99951171875" stroke="#ef5350" stroke-width="2"/><rect x="16792" y="725.0" width="8" height="34.99755859375" fill="#ef5350"/><line x1="16808" y1="726.0009765625" x2="16808" y2="800.0" stroke="#ef5350" stroke-width="2"/><rect x="16804" y="729.998779296875" width="8" height="40.00244140625" fill="#ef5350"/><line x1="16820" y1="744.000244140625" x2="16820" y2="790.00244140625" stroke="#ef5350" stroke-width="2"/><rect x="16816" y="765.997314453125" width="8" height="12.005615234375" fill="#ef5350"/><line x1="16832" y1="788.22021484375" x2="16832" y2="896.002197265625" stroke="#ef5350" stroke-width="2"/><rect x="16828" y="788.22021484375" width="8" height="91.778564453125" fill="#ef5350"/><line x1="16844" y1="778.0029296875" x2="16844" y2="849.981689453125" stroke="#26a69a" stroke-width="2"/><rect x="16840" y="798.9990234375" width="8" height="50.982666015625" fill="#26a69a"/><line x1="16856" y1="796.002197265625" x2="16856" y2="876.0009765625" stroke="#ef5350" stroke-width="2"/><rect x="16852" y="796.002197265625" width="8" height="79.998779296875" fill="#ef5350"/><line x1="16868" y1="821.9970703125" x2="16868" y2="870.001220703125" stroke="#26a69a" stroke-width="2"/><rect x="16864" y="861.99951171875" width="8" height="8.001708984375" fill="#26a69a"/><line x1="16880" y1="852.001953125" x2="16880" y2="892.919921875" stroke="#ef5350" stroke-width="2"/><rect x="16876" y="863.9404296875" width="8" height="12.060546875" fill="#ef5350"/><line x1="16892" y1="867.999267578125" x2="16892" y2="950.0" stroke="#26a69a" stroke-width="2"/><rect x="16888" y="876.0009765625" width="8" height="14.00146484375" fill="#26a69a"/><line x1="16904" y1="829.3212890625" x2="16904" y2="900.6591796875" stroke="#26a69a" stroke-width="2"/><rect x="16900" y="866.44287109375" width="8" height="8.477783203125" fill="#26a69a"/><line x1="16916" y1="850.40283203125" x2="16916" y2="890.00244140625" stroke="#26a69a" stroke-width="2"/><rect x="16912" y="850.40283203125" width="8" height="18.597412109375" fill="#26a69a"/><line x1="16928" y1="794.000244140625" x2="16928" y2="859.99755859375" stroke="#26a69a" stroke-width="2"/><rect x="16924" y="847.998046875" width="8" height="11.58447265625" fill="#26a69a"/><line x1="16940" y1="794.000244140625" x2="16940" y2="890.00244140625" stroke="#26a69a" stroke-width="2"/><rect x="16936" y="796.002197265625" width="8" height="65.997314453125" fill="#26a69a"/><line x1="16952" y1="740.00244140625" x2="16952" y2="815.997314453125" stroke="#26a69a" stroke-width="2"/><rect x="16948" y="765.997314453125" width="8" height="22.003173828125" fill="#26a69a"/><line x1="16964" y1="594.281005859375" x2="16964" y2="805.999755859375" stroke="#26a69a" stroke-width="2"/><rect x="16960" y="621.002197265625" width="8" height="146.9970703125" fill="#26a69a"/><line x1="16976" y1="566.021728515625" x2="16976" y2="691.998291015625" stroke="#ef5350" stroke-width="2"/><rect x="16972" y="628.0029296875" width="8" height="55.975341796875" fill="#ef5350"/><line x1="16988" y1="555.999755859375" x2="16988" y2="685.99853515625" stroke="#26a69a" stroke-width="2"/><rect x="16984" y="558.001708984375" width="8" height="101.995849609375" fill="#26a69a"/><line x1="17000" y1="544.000244140625" x2="17000" y2="596.002197265625" stroke="#ef5350" stroke-width="2"/><rect x="16996" y="567.999267578125" width="8" height="26.019287109375" fill="#ef5350"/><line x1="17012" y1="540.00244140625" x2="17012" y2="629.022216796875" stroke="#ef5350" stroke-width="2"/><rect x="17008" y="576.0009765625" width="8" height="53.021240234375" fill="#ef5350"/><line x1="17024" y1="561.99951171875" x2="17024" y2="607.598876953125" stroke="#ef5350" stroke-width="2"/><rect x="17020" y="596.002197265625" width="8" height="9.99755859375" fill="#ef5350"/><line x1="17036" y1="608.001708984375" x2="17036" y2="769.000244140625" stroke="#ef5350" stroke-width="2"/><rect x="17032" y="608.001708984375" width="8" height="155.2001953125" fill="#ef5350"/><line x1="17048" y1="755.999755859375" x2="17048" y2="870.001220703125" stroke="#ef5350" stroke-width="2"/><rect x="17044" y="801.0009765625" width="8" height="69.000244140625" fill="#ef5350"/><line x1="17060" y1="745.001220703125" x2="17060" y2="876.0009765625" stroke="#26a69a" stroke-width="2"/><rect x="17056" y="778.997802734375" width="8" height="88.983154296875" fill="#26a69a"/><line x1="17072" y1="780.999755859375" x2="17072" y2="854.742431640625" stroke="#ef5350" stroke-width="2"/><rect x="17068" y="780.999755859375" width="8" height="25.0" fill="#ef5350"/><line x1="17084" y1="764.00146484375" x2="17084" y2="820.001220703125" stroke="#ef5350" stroke-width="2"/><rect x="17080" y="802.001953125" width="8" height="11.43798828125" fill="#ef5350"/><line x1="17096" y1="808.3984375" x2="17096" y2="854.278564453125" stroke="#ef5350" stroke-width="2"/><rect x="17092" y="826.0009765625" width="8" height="2.001953125" fill="#ef5350"/><line x1="17108" y1="847.979736328125" x2="17108" y2="1008.001708984375" stroke="#ef5350" stroke-width="2"/><rect x="17104" y="847.979736328125" width="8" height="100.018310546875" fill="#ef5350"/><line x1="17120" y1="912.017822265625" x2="17120" y2="1009.99755859375" stroke="#ef5350" stroke-width="2"/><rect x="17116" y="929.998779296875" width="8" height="15.44189453125" fill="#ef5350"/><line x1="17132" y1="914.00146484375" x2="17132" y2="978.0029296875" stroke="#26a69a" stroke-width="2"/><rect x="17128" y="928.0029296875" width="8" height="27.996826171875" fill="#26a69a"/><line x1="17144" y1="925.0" x2="17144" y2="990.777587890625" stroke="#ef5350" stroke-width="2"/><rect x="17140" y="926.0009765625" width="8" height="42.999267578125" fill="#ef5350"/><line x1="17156" y1="890.00244140625" x2="17156" y2="960.260009765625" stroke="#26a69a" stroke-width="2"/><rect x="17152" y="890.00244140625" width="8" height="65.997314453125" fill="#26a69a"/><line x1="17168" y1="858.660888671875" x2="17168" y2="923.9990234375" stroke="#ef5350" stroke-width="2"/><rect x="17164" y="871.820068359375" width="8" height="45.17822265625" fill="#ef5350"/><line x1="17180" y1="879.998779296875" x2="17180" y2="930.462646484375" stroke="#26a69a" stroke-width="2"/><rect x="17176" y="898.040771484375" width="8" height="11.65771484375" fill="#26a69a"/><line x1="17192" y1="855.999755859375" x2="17192" y2="927.001953125" stroke="#26a69a" stroke-width="2"/><rect x="17188" y="863.56201171875" width="8" height="45.635986328125" fill="#26a69a"/><line x1="17204" y1="820.001220703125" x2="17204" y2="884.002685546875" stroke="#ef5350" stroke-width="2"/><rect x="17200" y="859.99755859375" width="8" height="24.005126953125" fill="#ef5350"/><line x1="17216" y1="852.001953125" x2="17216" y2="902.001953125" stroke="#26a69a" stroke-width="2"/><rect x="17212" y="873.9990234375" width="8" height="2.001953125" fill="#26a69a"/><line x1="17228" y1="868.10302734375" x2="17228" y2="917.120361328125" stroke="#26a69a" stroke-width="2"/><rect x="17224" y="868.10302734375" width="8" height="11.5966796875" fill="#26a69a"/><line x1="17240" y1="803.997802734375" x2="17240" y2="852.001953125" stroke="#26a69a" stroke-width="2"/><rect x="17236" y="835.99853515625" width="8" height="13.00048828125" fill="#26a69a"/><line x1="17252" y1="834.002685546875" x2="17252" y2="940.00244140625" stroke="#ef5350" stroke-width="2"/><rect x="17248" y="836.99951171875" width="8" height="77.001953125" fill="#ef5350"/><line x1="17264" y1="885.99853515625" x2="17264" y2="934.759521484375" stroke="#ef5350" stroke-width="2"/><rect x="17260" y="896.002197265625" width="8" height="27.996826171875" fill="#ef5350"/><line x1="17276" y1="890.00244140625" x2="17276" y2="938.00048828125" stroke="#26a69a" stroke-width="2"/><rect x="17272" y="903.1005859375" width="8" height="21.8994140625" fill="#26a69a"/><line x1="17288" y1="853.802490234375" x2="17288" y2="903.143310546875" stroke="#26a69a" stroke-width="2"/><rect x="17284" y="856.402587890625" width="8" height="33.294677734375" fill="#26a69a"/><line x1="17300" y1="815.997314453125" x2="17300" y2="884.002685546875" stroke="#ef5350" stroke-width="2"/><rect x="17296" y="853.0029296875" width="8" height="4.998779296875" fill="#ef5350"/><line x1="17312" y1="821.002197265625" x2="17312" y2="871.9970703125" stroke="#26a69a" stroke-width="2"/><rect x="17308" y="846.002197265625" width="8" height="13.995361328125" fill="#26a69a"/><line x1="17324" y1="811.4013671875" x2="17324" y2="876.0009765625" stroke="#26a69a" stroke-width="2"/><rect x="17320" y="811.4013671875" width="8" height="38.5986328125" fill="#26a69a"/><line x1="17336" y1="809.99755859375" x2="17336" y2="884.99755859375" stroke="#ef5350" stroke-width="2"/><rect x="17332" y="809.99755859375" width="8" height="75.0" fill="#ef5350"/><line x1="17348" y1="856.01806640625" x2="17348" y2="909.99755859375" stroke="#26a69a" stroke-width="2"/><rect x="17344" y="878.997802734375" width="8" height="2" fill="#26a69a"/><line x1="17360" y1="815.997314453125" x2="17360" y2="897.979736328125" stroke="#26a69a" stroke-width="2"/><rect x="17356" y="839.019775390625" width="8" height="46.978759765625" fill="#26a69a"/><line x1="17372" y1="822.998046875" x2="17372" y2="873.9990234375" stroke="#ef5350" stroke-width="2"/><rect x="17368" y="829.998779296875" width="8" height="31.7626953125" fill="#ef5350"/><line x1="17384" y1="776.0009765625" x2="17384" y2="859.99755859375" stroke="#26a69a" stroke-width="2"/><rect x="17380" y="841.998291015625" width="8" height="11.99951171875" fill="#26a69a"/><line x1="17396" y1="611.99951171875" x2="17396" y2="850.0" stroke="#26a69a" stroke-width="2"/><rect x="17392" y="617.999267578125" width="8" height="210.003662109375" fill="#26a69a"/><rect x="16467" y="860.0" width="10" height="160.0" fill="#ef5350" opacity="0.9"/><rect x="16479" y="993.7578713129113" width="10" height="26.242128687088666" fill="#ef5350" opacity="0.9"/><rect x="16491" y="969.3863926897401" width="10" height="50.61360731025991" fill="#26a69a" opacity="0.9"/><rect x="16503" y="958.5441030254249" width="10" height="61.455896974575126" fill="#ef5350" opacity="0.9"/><rect x="16515" y="977.4234174518252" width="10" height="42.57658254817477" fill="#26a69a" opacity="0.9"/><rect x="16527" y="994.3639032242792" width="10" height="25.63609677572083" fill="#ef5350" opacity="0.9"/><rect x="16539" y="990.3820841816201" width="10" height="29.617915818379856" fill="#26a69a" opacity="0.9"/><rect x="16551" y="985.9646797026656" width="10" height="34.03532029733435" fill="#ef5350" opacity="0.9"/><rect x="16563" y="988.7154964253587" width="10" height="31.28450357464135" fill="#ef5350" opacity="0.9"/><rect x="16575" y="989.4754036267223" width="10" height="30.524596373277745" fill="#ef5350" opacity="0.9"/><rect x="16587" y="994.0277448984423" width="10" height="25.97225510155772" fill="#ef5350" opacity="0.9"/><rect x="16599" y="979.1610245727002" width="10" height="40.83897542729983" fill="#ef5350" opacity="0.9"/><rect x="16611" y="994.2810472988969" width="10" height="25.71895270110315" fill="#26a69a" opacity="0.9"/><rect x="16623" y="951.1462525448605" width="10" height="68.85374745513946" fill="#ef5350" opacity="0.9"/><rect x="16635" y="970.9914303300034" width="10" height="49.00856966999663" fill="#ef5350" opacity="0.9"/><rect x="16647" y="990.5809384025378" width="10" height="29.419061597462246" fill="#ef5350" opacity="0.9"/><rect x="16659" y="980.6761043511198" width="10" height="39.32389564888024" fill="#ef5350" opacity="0.9"/><rect x="16671" y="989.4375266322618" width="10" height="30.56247336773822" fill="#26a69a" opacity="0.9"/><rect x="16683" y="993.3909379290753" width="10" height="26.609062070924665" fill="#ef5350" opacity="0.9"/><rect x="16695" y="995.6801287817811" width="10" height="24.31987121821885" fill="#26a69a" opacity="0.9"/><rect x="16707" y="990.3536764357748" width="10" height="29.646323564225213" fill="#ef5350" opacity="0.9"/><rect x="16719" y="990.4128592396194" width="10" height="29.587140760380635" fill="#26a69a" opacity="0.9"/><rect x="16731" y="994.5248804507362" width="10" height="25.47511954926381" fill="#26a69a" opacity="0.9"/><rect x="16743" y="998.3622934520146" width="10" height="21.63770654798543" fill="#26a69a" opacity="0.9"/><rect x="16755" y="1001.2693527768572" width="10" height="18.730647223142796" fill="#ef5350" opacity="0.9"/><rect x="16767" y="998.9967331092278" width="10" height="21.003266890772238" fill="#26a69a" opacity="0.9"/><rect x="16779" y="990.4223284882345" width="10" height="29.577671511765516" fill="#26a69a" opacity="0.9"/><rect x="16791" y="984.5300885374745" width="10" height="35.46991146252549" fill="#ef5350" opacity="0.9"/><rect x="16803" y="985.1455896974575" width="10" height="34.85441030254253" fill="#ef5350" opacity="0.9"/><rect x="16815" y="960.7693764499787" width="10" height="59.23062355002128" fill="#ef5350" opacity="0.9"/><rect x="16827" y="988.5403153259789" width="10" height="31.459684674021105" fill="#ef5350" opacity="0.9"/><rect x="16839" y="993.3483263103072" width="10" height="26.651673689692757" fill="#26a69a" opacity="0.9"/><rect x="16851" y="1002.5263955305146" width="10" height="17.473604469485394" fill="#ef5350" opacity="0.9"/><rect x="16863" y="972.5727948487288" width="10" height="47.42720515127121" fill="#26a69a" opacity="0.9"/><rect x="16875" y="993.2844088821552" width="10" height="26.715591117844838" fill="#ef5350" opacity="0.9"/><rect x="16887" y="993.6608115146063" width="10" height="26.33918848539372" fill="#26a69a" opacity="0.9"/><rect x="16899" y="994.8989157710336" width="10" height="25.101084228966442" fill="#26a69a" opacity="0.9"/><rect x="16911" y="999.8229250508972" width="10" height="20.177074949102803" fill="#26a69a" opacity="0.9"/><rect x="16923" y="995.8292694474693" width="10" height="24.1707305525307" fill="#26a69a" opacity="0.9"/><rect x="16935" y="999.8868424790493" width="10" height="20.113157520950722" fill="#26a69a" opacity="0.9"/><rect x="16947" y="988.2112589366034" width="10" height="31.78874106339663" fill="#26a69a" opacity="0.9"/><rect x="16959" y="989.444628568723" width="10" height="30.555371431276967" fill="#26a69a" opacity="0.9"/><rect x="16971" y="998.2320912835567" width="10" height="21.767908716443344" fill="#ef5350" opacity="0.9"/><rect x="16983" y="999.74953837413" width="10" height="20.250461625870003" fill="#26a69a" opacity="0.9"/><rect x="16995" y="975.6171582784906" width="10" height="44.38284172150941" fill="#ef5350" opacity="0.9"/><rect x="17007" y="996.3358742483784" width="10" height="23.664125751621555" fill="#ef5350" opacity="0.9"/><rect x="17019" y="995.919227309313" width="10" height="24.080772690687013" fill="#ef5350" opacity="0.9"/><rect x="17031" y="996.5015860991431" width="10" height="23.498413900856917" fill="#ef5350" opacity="0.9"/><rect x="17043" y="998.1729084797122" width="10" height="21.82709152028781" fill="#ef5350" opacity="0.9"/><rect x="17055" y="992.5884191089438" width="10" height="27.411580891056246" fill="#26a69a" opacity="0.9"/><rect x="17067" y="992.4866246863312" width="10" height="27.513375313668803" fill="#ef5350" opacity="0.9"/><rect x="17079" y="995.6422517873207" width="10" height="24.357748212679326" fill="#ef5350" opacity="0.9"/><rect x="17091" y="989.9370294967094" width="10" height="30.062970503290558" fill="#ef5350" opacity="0.9"/><rect x="17103" y="990.1879645850101" width="10" height="29.81203541498985" fill="#ef5350" opacity="0.9"/><rect x="17115" y="989.7121348421002" width="10" height="30.287865157899773" fill="#ef5350" opacity="0.9"/><rect x="17127" y="985.259220680839" width="10" height="34.74077931916099" fill="#26a69a" opacity="0.9"/><rect x="17139" y="998.6179631646229" width="10" height="21.382036835377107" fill="#ef5350" opacity="0.9"/><rect x="17151" y="982.1012262676957" width="10" height="37.898773732304335" fill="#26a69a" opacity="0.9"/><rect x="17163" y="992.3753610151034" width="10" height="27.624638984896592" fill="#ef5350" opacity="0.9"/><rect x="17175" y="998.6392689740069" width="10" height="21.36073102599312" fill="#26a69a" opacity="0.9"/><rect x="17187" y="999.8300269873586" width="10" height="20.169973012641435" fill="#26a69a" opacity="0.9"/><rect x="17199" y="997.5550400075754" width="10" height="22.44495999242463" fill="#ef5350" opacity="0.9"/><rect x="17211" y="995.7322096491644" width="10" height="24.26779035083564" fill="#26a69a" opacity="0.9"/><rect x="17223" y="992.9174754983192" width="10" height="27.082524501680837" fill="#26a69a" opacity="0.9"/><rect x="17235" y="986.7316888404905" width="10" height="33.268311159509494" fill="#26a69a" opacity="0.9"/><rect x="17247" y="993.987500591828" width="10" height="26.012499408171948" fill="#ef5350" opacity="0.9"/><rect x="17259" y="992.0084276312674" width="10" height="27.99157236873259" fill="#ef5350" opacity="0.9"/><rect x="17271" y="963.9794517305052" width="10" height="56.02054826949484" fill="#26a69a" opacity="0.9"/><rect x="17283" y="987.0536432934047" width="10" height="32.94635670659534" fill="#26a69a" opacity="0.9"/><rect x="17295" y="991.3574167889778" width="10" height="28.642583211022156" fill="#ef5350" opacity="0.9"/><rect x="17307" y="986.1777377965059" width="10" height="33.82226220349412" fill="#26a69a" opacity="0.9"/><rect x="17319" y="988.3461957293689" width="10" height="31.6538042706311" fill="#26a69a" opacity="0.9"/><rect x="17331" y="984.5111500402443" width="10" height="35.488849959755726" fill="#ef5350" opacity="0.9"/><rect x="17343" y="943.6229345201458" width="10" height="76.3770654798542" fill="#26a69a" opacity="0.9"/><rect x="17355" y="982.2787746792292" width="10" height="37.72122532077083" fill="#26a69a" opacity="0.9"/><rect x="17367" y="979.3859192273093" width="10" height="40.61408077269073" fill="#ef5350" opacity="0.9"/><rect x="17379" y="977.0186070735288" width="10" height="42.981392926471244" fill="#26a69a" opacity="0.9"/><rect x="17391" y="967.8073954831684" width="10" height="52.19260451683158" fill="#26a69a" opacity="0.9"/><polyline points="320,537.1394856770848,332,561.4117528521774,344,574.8012957353012,356,587.9631235968191,368,605.9668216471209,380,620.4480785884698,392,630.1194111336144,404,642.4887585107626,416,654.6328025290904,428,666.3823384489433,440,686.7267613868421,452,697.4193577726169,464,714.4271309907026,476,728.481643440989,488,742.5311037382698,500,755.2425201977258,512,765.8330298068677,524,773.8872966853819,536,780.945463370108,548,782.3794380268168,560,780.8192357817006,572,765.5985654468395,584,757.8252041170799,596,738.7943950568115,608,725.0062197835405,620,715.8648861657639,632,705.4015404223037,644,710.9063369817818,656,726.0582306695369,668,731.100094675719,680,738.2333957408264,692,745.3959238994344,704,753.2632577840104,716,771.8094281736285,728,788.3457372835778,740,801.6464222744276,752,817.5848814997835,764,824.4817919670709,776,833.2928871145441,788,839.459352292613,800,841.7548436665243,812,845.7784476551296,824,848.4661215391611,836,850.3363030443666,848,848.9708013407267,860,855.1641978648263,872,861.7198955384197,884,865.6609136716611,896,864.779168359189,908,864.1336960377771,920,862.4068866309017,932,857.54921811249,944,860.1633457773801,956,861.957103582813,968,859.7725961359401,980,859.9620131334063,992,858.251182455524,1004,835.3700477053053" fill="none" stroke="#0090ff" stroke-width="2"/><line x1="80" y1="50" x2="80" y2="900" stroke="#666666" stroke-width="0.5" stroke-dasharray="4,4" opacity="0.90"/><line x1="152" y1="50" x2="152" y2="900" stroke="#666666" stroke-width="0.5" stroke-dasharray="4,4" opacity="0.90"/><line x1="224" y1="50" x2="224" y2="900" stroke="#666666" stroke-width="0.5" stroke-dasharray="4,4" opacity="0.90"/><line x1="290" y1="30" x2="290" y2="950" stroke="black" stroke-width="0.7"/><line x1="296" y1="50" x2="296" y2="900" stroke="#666666" stroke-width="0.5" stroke-dasharray="4,4" opacity="0.90"/><line x1="368" y1="50" x2="368" y2="900" stroke="#666666" stroke-width="0.5" stroke-dasharray="4,4" opacity="0.90"/><line x1="440" y1="50" x2="440" y2="900" stroke="#666666" stroke-width="0.5" stroke-dasharray="4,4" opacity="0.90"/><line x1="512" y1="50" x2="512" y2="900" stroke="#666666" stroke-width="0.5" stroke-dasharray="4,4" opacity="0.90"/><line x1="584" y1="50" x2="584" y2="900" stroke="#666666" stroke-width="0.5" stroke-dasharray="4,4" opacity="0.90"/><line x1="656" y1="50" x2="656" y2="900" stroke="#666666" stroke-width="0.5" stroke-dasharray="4,4" opacity="0.90"/><line x1="728" y1="50" x2="728" y2="900" stroke="#666666" stroke-width="0.5" stroke-dasharray="4,4" opacity="0.90"/><line x1="800" y1="50" x2="800" y2="900" stroke="#666666" stroke-width="0.5" stroke-dasharray="4,4" opacity="0.90"/><line x1="872" y1="50" x2="872" y2="900" stroke="#666666" stroke-width="0.5" stroke-dasharray="4,4" opacity="0.90"/><line x1="944" y1="50" x2="944" y2="900" stroke="#666666" stroke-width="0.5" stroke-dasharray="4,4" opacity="0.90"/><text x="80" y="1040" text-anchor="middle" font-size="20" fill="black">14:30</text><text x="152" y="1040" text-anchor="middle" font-size="20" fill="black">15:00</text><text x="224" y="1040" text-anchor="middle" font-size="20" fill="black">15:30</text><text x="296" y="1040" text-anchor="middle" font-size="20" fill="black">16:00</text><text x="368" y="1040" text-anchor="middle" font-size="20" fill="black">16:30</text><text x="440" y="1040" text-anchor="middle" font-size="20" fill="black">17:00</text><text x="512" y="1040" text-anchor="middle" font-size="20" fill="black">17:30</text><text x="584" y="1040" text-anchor="middle" font-size="20" fill="black">18:00</text><text x="656" y="1040" text-anchor="middle" font-size="20" fill="black">18:30</text><text x="728" y="1040" text-anchor="middle" font-size="20" fill="black">19:00</text><text x="800" y="1040" text-anchor="middle" font-size="20" fill="black">19:30</text><text x="872" y="1040" text-anchor="middle" font-size="20" fill="black">20:00</text><text x="944" y="1040" text-anchor="middle" font-size="20" fill="black">20:30</text><text x="1006" y="50" text-anchor="end" font-size="40" fill="#ef5350" font-weight="bold">▼ -0.39% (Mon)</text></svg>