<svg xmlns="http://www.w3.org/2000/svg" width="1056" height="1050"><rect width="100%" height="100%" fill="white"/><text x="42" y="854.0" text-anchor="end" font-size="20" fill="black">457</text><text x="42" y="754.0" text-anchor="end" font-size="20" fill="black">458</text><text x="42" y="654.0" text-anchor="end" font-size="20" fill="black">459</text><text x="42" y="554.0" text-anchor="end" font-size="20" fill="black">460</text><text x="42" y="454.0" text-anchor="end" font-size="20" fill="black">461</text><text x="42" y="354.0" text-anchor="end" font-size="20" fill="black">462</text><text x="42" y="254.0" text-anchor="end" font-size="20" fill="black">463</text><text x="42" y="154.0" text-anchor="end" font-size="20" fill="black">464</text><text x="42" y="54.0" text-anchor="end" font-size="20" fill="black">465</text><line x1="52004" y1="304.0008544921875" x2="52004" y2="592.999267578125" stroke="#26a69a" stroke-width="2"/><rect x="52000" y="315.478515625" width="8" height="27.520751953125" fill="#26a69a"/><line x1="52016" y1="166.0003662109375" x2="52016" y2="423.0010986328125" stroke="#26a69a" stroke-width="2"/><rect x="52012" y="175.0" width="8" height="108.4991455078125" fill="#26a69a"/><line x1="52028" y1="125.0" x2="52028" y2="282.9986572265625" stroke="#26a69a" stroke-width="2"/><rect x="52024" y="157.000732421875" width="8" height="10.498046875" fill="#26a69a"/><line x1="52040" y1="143.6004638671875" x2="52040" y2="245.9991455078125" stroke="#26a69a" stroke-width="2"/><rect x="52036" y="148.0010986328125" width="8" height="6.9976806640625" fill="#26a69a"/><line x1="52052" y1="78.3111572265625" x2="52052" y2="289.00146484375" stroke="#ef5350" stroke-width="2"/><rect x="52048" y="135.99853515625" width="8" height="135.0006103515625" fill="#ef5350"/><line x1="52064" y1="245.001220703125" x2="52064" y2="470.001220703125" stroke="#ef5350" stroke-width="2"/><rect x="52060" y="267.999267578125" width="8" height="182.000732421875" fill="#ef5350"/><line x1="52076" y1="414.4989013671875" x2="52076" y2="614.9993896484375" stroke="#ef5350" stroke-width="2"/><rect x="52072" y="448.0010986328125" width="8" height="125.4974365234375" fill="#ef5350"/><line x1="52088" y1="561.99951171875" x2="52088" y2="686.99951171875" stroke="#ef5350" stroke-width="2"/><rect x="52084" y="561.99951171875" width="8" height="57.000732421875" fill="#ef5350"/><line x1="52100" y1="588.018798828125" x2="52100" y2="838.6505126953125" stroke="#ef5350" stroke-width="2"/><rect x="52096" y="627.9998779296875" width="8" height="210.650634765625" fill="#ef5350"/><line x1="52112" y1="639.00146484375" x2="52112" y2="854.998779296875" stroke="#26a69a" stroke-width="2"/><rect x="52108" y="674.49951171875" width="8" height="157.4005126953125" fill="#26a69a"/><line x1="52124" y1="669.000244140625" x2="52124" y2="777.9998779296875" stroke="#ef5350" stroke-width="2"/><rect x="52120" y="679.998779296875" width="8" height="38.00048828125" fill="#ef5350"/><line x1="52136" y1="620.9991455078125" x2="52136" y2="810.5010986328125" stroke="#ef5350" stroke-width="2"/><rect x="52132" y="722.5006103515625" width="8" height="46.1700439453125" fill="#ef5350"/><line x1="52148" y1="689.00146484375" x2="52148" y2="817.0013427734375" stroke="#ef5350" stroke-width="2"/><rect x="52144" y="752.9998779296875" width="8" height="36.99951171875" fill="#ef5350"/><line x1="52160" y1="617.999267578125" x2="52160" y2="789.4989013671875" stroke="#26a69a" stroke-width="2"/><rect x="52156" y="622.0001220703125" width="8" height="163.5009765625" fill="#26a69a"/><line x1="52172" y1="560.99853515625" x2="52172" y2="698.9990234375" stroke="#26a69a" stroke-width="2"/><rect x="52168" y="607.501220703125" width="8" height="19.4976806640625" fill="#26a69a"/><line x1="52184" y1="586.99951171875" x2="52184" y2="800.0" stroke="#ef5350" stroke-width="2"/><rect x="52180" y="606.0211181640625" width="8" height="188.9678955078125" fill="#ef5350"/><line x1="52196" y1="664.9993896484375" x2="52196" y2="761.99951171875" stroke="#26a69a" stroke-width="2"/><rect x="52192" y="748.49853515625" width="8" height="12.5" fill="#26a69a"/><line x1="52208" y1="695.001220703125" x2="52208" y2="807.000732421875" stroke="#26a69a" stroke-width="2"/><rect x="52204" y="695.001220703125" width="8" height="47.0001220703125" fill="#26a69a"/><line x1="52220" y1="658.9996337890625" x2="52220" y2="755.999755859375" stroke="#ef5350" stroke-width="2"/><rect x="52216" y="691.0003662109375" width="8" height="60.99853515625" fill="#ef5350"/><line x1="52232" y1="732.000732421875" x2="52232" y2="804.998779296875" stroke="#ef5350" stroke-width="2"/><rect x="52228" y="757.9986572265625" width="8" height="41.5008544921875" fill="#ef5350"/><line x1="52244" y1="714.00146484375" x2="52244" y2="803.5003662109375" stroke="#26a69a" stroke-width="2"/><rect x="52240" y="785.99853515625" width="8" height="17.5018310546875" fill="#26a69a"/><line x1="52256" y1="549.49951171875" x2="52256" y2="789.9993896484375" stroke="#26a69a" stroke-width="2"/><rect x="52252" y="567.9901123046875" width="8" height="222.00927734375" fill="#26a69a"/><line x1="52268" y1="447.0001220703125" x2="52268" y2="563.00048828125" stroke="#26a69a" stroke-width="2"/><rect x="52264" y="484.5001220703125" width="8" height="78.5003662109375" fill="#26a69a"/><line x1="52280" y1="367.999267578125" x2="52280" y2="492.0013427734375" stroke="#26a69a" stroke-width="2"/><rect x="52276" y="383.9996337890625" width="8" height="88.00048828125" fill="#26a69a"/><line x1="52292" y1="282.1197509765625" x2="52292" y2="389.00146484375" stroke="#26a69a" stroke-width="2"/><rect x="52288" y="286.99951171875" width="8" height="83.9996337890625" fill="#26a69a"/><line x1="52304" y1="267.999267578125" x2="52304" y2="331.201171875" stroke="#ef5350" stroke-width="2"/><rect x="52300" y="289.00146484375" width="8" height="22.998046875" fill="#ef5350"/><line x1="52316" y1="270.001220703125" x2="52316" y2="367.0013427734375" stroke="#ef5350" stroke-width="2"/><rect x="52312" y="304.8614501953125" width="8" height="34.1400146484375" fill="#ef5350"/><line x1="52328" y1="336.95068359375" x2="52328" y2="427.9998779296875" stroke="#ef5350" stroke-width="2"/><rect x="52324" y="336.95068359375" width="8" height="5.0506591796875" fill="#ef5350"/><line x1="52340" y1="235.0006103515625" x2="52340" y2="333.9996337890625" stroke="#26a69a" stroke-width="2"/><rect x="52336" y="261.99951171875" width="8" height="72.0001220703125" fill="#26a69a"/><line x1="52352" y1="210.99853515625" x2="52352" y2="332.000732421875" stroke="#ef5350" stroke-width="2"/><rect x="52348" y="245.001220703125" width="8" height="27.1484375" fill="#ef5350"/><line x1="52364" y1="267.0013427734375" x2="52364" y2="412.0513916015625" stroke="#ef5350" stroke-width="2"/><rect x="52360" y="267.0013427734375" width="8" height="134.99755859375" fill="#ef5350"/><line x1="52376" y1="336.0107421875" x2="52376" y2="401.9989013671875" stroke="#26a69a" stroke-width="2"/><rect x="52372" y="377.9998779296875" width="8" height="10.0006103515625" fill="#26a69a"/><line x1="52388" y1="357.9986572265625" x2="52388" y2="430.499267578125" stroke="#26a69a" stroke-width="2"/><rect x="52384" y="364.9993896484375" width="8" height="32.501220703125" fill="#26a69a"/><line x1="52400" y1="370.001220703125" x2="52400" y2="414.9993896484375" stroke="#ef5350" stroke-width="2"/><rect x="52396" y="370.001220703125" width="8" height="35.99853515625" fill="#ef5350"/><line x1="52412" y1="276.9989013671875" x2="52412" y2="462.298583984375" stroke="#26a69a" stroke-width="2"/><rect x="52408" y="279.998779296875" width="8" height="129.0008544921875" fill="#26a69a"/><line x1="52424" y1="204.0008544921875" x2="52424" y2="273.0010986328125" stroke="#26a69a" stroke-width="2"/><rect x="52420" y="248.9990234375" width="8" height="18.0023193359375" fill="#26a69a"/><line x1="52436" y1="216.0003662109375" x2="52436" y2="305.999755859375" stroke="#ef5350" stroke-width="2"/><rect x="52432" y="248.0010986328125" width="8" height="55.999755859375" fill="#ef5350"/><line x1="52448" y1="239.9993896484375" x2="52448" y2="314.9993896484375" stroke="#26a69a" stroke-width="2"/><rect x="52444" y="254.0008544921875" width="8" height="56.9976806640625" fill="#26a69a"/><line x1="52460" y1="176.9989013671875" x2="52460" y2="264.9993896484375" stroke="#26a69a" stroke-width="2"/><rect x="52456" y="234.759521484375" width="8" height="19.2413330078125" fill="#26a69a"/><line x1="52472" y1="154.998779296875" x2="52472" y2="313.00048828125" stroke="#ef5350" stroke-width="2"/><rect x="52468" y="223.49853515625" width="8" height="68.5516357421875" fill="#ef5350"/><line x1="52484" y1="211.99951171875" x2="52484" y2="341.0003662109375" stroke="#ef5350" stroke-width="2"/><rect x="52480" y="302.9998779296875" width="8" height="4.998779296875" fill="#ef5350"/><line x1="52496" y1="316.0003662109375" x2="52496" y2="383.9996337890625" stroke="#ef5350" stroke-width="2"/><rect x="52492" y="323.870849609375" width="8" height="28.69873046875" fill="#ef5350"/><line x1="52508" y1="268.0999755859375" x2="52508" y2="357.9986572265625" stroke="#26a69a" stroke-width="2"/><rect x="52504" y="341.0003662109375" width="8" height="7.000732421875" fill="#26a69a"/><line x1="52520" y1="344.000244140625" x2="52520" y2="400.0" stroke="#ef5350" stroke-width="2"/><rect x="52516" y="351.9989013671875" width="8" height="36.0015869140625" fill="#ef5350"/><line x1="52532" y1="367.0013427734375" x2="52532" y2="420.9991455078125" stroke="#26a69a" stroke-width="2"/><rect x="52528" y="386.99951171875" width="8" height="4.0008544921875" fill="#26a69a"/><line x1="52544" y1="379.0008544921875" x2="52544" y2="428.5003662109375" stroke="#ef5350" stroke-width="2"/><rect x="52540" y="395.4986572265625" width="8" height="13.5009765625" fill="#ef5350"/><line x1="52556" y1="407.000732421875" x2="52556" y2="497.0001220703125" stroke="#ef5350" stroke-width="2"/><rect x="52552" y="417.999267578125" width="8" height="55.0018310546875" fill="#ef5350"/><line x1="52568" y1="441.0003662109375" x2="52568" y2="492.999267578125" stroke="#26a69a" stroke-width="2"/><rect x="52564" y="470.001220703125" width="8" height="15.997314453125" fill="#26a69a"/><line x1="52580" y1="402.9998779296875" x2="52580" y2="475.0" stroke="#26a69a" stroke-width="2"/><rect x="52576" y="442.0013427734375" width="8" height="32.4981689453125" fill="#26a69a"/><line x1="52592" y1="443.8690185546875" x2="52592" y2="495.9991455078125" stroke="#ef5350" stroke-width="2"/><rect x="52588" y="443.8690185546875" width="8" height="36.6302490234375" fill="#ef5350"/><line x1="52604" y1="458.4991455078125" x2="52604" y2="519.000244140625" stroke="#26a69a" stroke-width="2"/><rect x="52600" y="479.998779296875" width="8" height="4.0008544921875" fill="#26a69a"/><line x1="52616" y1="473.9990234375" x2="52616" y2="546.990966796875" stroke="#ef5350" stroke-width="2"/><rect x="52612" y="473.9990234375" width="8" height="66.0003662109375" fill="#ef5350"/><line x1="52628" y1="542.0013427734375" x2="52628" y2="587.5" stroke="#ef5350" stroke-width="2"/><rect x="52624" y="542.0013427734375" width="8" height="20.9991455078125" fill="#ef5350"/><line x1="52640" y1="507.501220703125" x2="52640" y2="589.9993896484375" stroke="#26a69a" stroke-width="2"/><rect x="52636" y="529.9285888671875" width="8" height="34.0728759765625" fill="#26a69a"/><line x1="52652" y1="452.9998779296875" x2="52652" y2="552.9998779296875" stroke="#26a69a" stroke-width="2"/><rect x="52648" y="466.1102294921875" width="8" height="79.888916015625" fill="#26a69a"/><line x1="52664" y1="417.999267578125" x2="52664" y2="486.4990234375" stroke="#26a69a" stroke-width="2"/><rect x="52660" y="423.0010986328125" width="8" height="63.4979248046875" fill="#26a69a"/><line x1="52676" y1="314.00146484375" x2="52676" y2="426.9989013671875" stroke="#26a69a" stroke-width="2"/><rect x="52672" y="342.999267578125" width="8" height="80.499267578125" fill="#26a69a"/><line x1="52688" y1="291.0003662109375" x2="52688" y2="344.0399169921875" stroke="#26a69a" stroke-width="2"/><rect x="52684" y="303.900146484375" width="8" height="38.1011962890625" fill="#26a69a"/><line x1="52700" y1="276.9989013671875" x2="52700" y2="325.0" stroke="#ef5350" stroke-width="2"/><rect x="52696" y="296.4996337890625" width="8" height="11.4990234375" fill="#ef5350"/><line x1="52712" y1="307.000732421875" x2="52712" y2="433.9996337890625" stroke="#ef5350" stroke-width="2"/><rect x="52708" y="307.000732421875" width="8" height="123.9990234375" fill="#ef5350"/><line x1="52724" y1="452.9998779296875" x2="52724" y2="588.00048828125" stroke="#ef5350" stroke-width="2"/><rect x="52720" y="452.9998779296875" width="8" height="68.1396484375" fill="#ef5350"/><line x1="52736" y1="477.99072265625" x2="52736" y2="547.0001220703125" stroke="#ef5350" stroke-width="2"/><rect x="52732" y="500.0" width="8" height="23.9990234375" fill="#ef5350"/><line x1="52748" y1="517.498779296875" x2="52748" y2="560.99853515625" stroke="#ef5350" stroke-width="2"/><rect x="52744" y="520.001220703125" width="8" height="29.998779296875" fill="#ef5350"/><line x1="52760" y1="535.0006103515625" x2="52760" y2="575.50048828125" stroke="#ef5350" stroke-width="2"/><rect x="52756" y="548.0010986328125" width="8" height="12.9974365234375" fill="#ef5350"/><line x1="52772" y1="542.999267578125" x2="52772" y2="595.4986572265625" stroke="#ef5350" stroke-width="2"/><rect x="52768" y="557.9986572265625" width="8" height="19.000244140625" fill="#ef5350"/><line x1="52784" y1="552.4993896484375" x2="52784" y2="597.0001220703125" stroke="#26a69a" stroke-width="2"/><rect x="52780" y="560.0006103515625" width="8" height="22.0001220703125" fill="#26a69a"/><line x1="52796" y1="498.9990234375" x2="52796" y2="583.9996337890625" stroke="#26a69a" stroke-width="2"/><rect x="52792" y="501.9989013671875" width="8" height="57.000732421875" fill="#26a69a"/><line x1="52808" y1="382.501220703125" x2="52808" y2="523.0010986328125" stroke="#26a69a" stroke-width="2"/><rect x="52804" y="389.4989013671875" width="8" height="118.499755859375" fill="#26a69a"/><line x1="52820" y1="372.0001220703125" x2="52820" y2="495.9991455078125" stroke="#ef5350" stroke-width="2"/><rect x="52816" y="392.0013427734375" width="8" height="98.9990234375" fill="#ef5350"/><line x1="52832" y1="510.0006103515625" x2="52832" y2="592.498779296875" stroke="#ef5350" stroke-width="2"/><rect x="52828" y="520.001220703125" width="8" height="72.49755859375" fill="#ef5350"/><line x1="52844" y1="582.000732421875" x2="52844" y2="666.5008544921875" stroke="#ef5350" stroke-width="2"/><rect x="52840" y="589.9993896484375" width="8" height="65.4998779296875" fill="#ef5350"/><line x1="52856" y1="648.9990234375" x2="52856" y2="700.0" stroke="#ef5350" stroke-width="2"/><rect x="52852" y="654.998779296875" width="8" height="23.0010986328125" fill="#ef5350"/><line x1="52868" y1="654.998779296875" x2="52868" y2="720.001220703125" stroke="#ef5350" stroke-width="2"/><rect x="52864" y="686.99951171875" width="8" height="23.858642578125" fill="#ef5350"/><line x1="52880" y1="670.3399658203125" x2="52880" y2="726.0009765625" stroke="#26a69a" stroke-width="2"/><rect x="52876" y="673.0010986328125" width="8" height="33.9996337890625" fill="#26a69a"/><line x1="52892" y1="613.00048828125" x2="52892" y2="739.00146484375" stroke="#ef5350" stroke-width="2"/><rect x="52888" y="670.9991455078125" width="8" height="52.9998779296875" fill="#ef5350"/><line x1="52904" y1="705.999755859375" x2="52904" y2="760.0006103515625" stroke="#ef5350" stroke-width="2"/><rect x="52900" y="723.49853515625" width="8" height="5.5023193359375" fill="#ef5350"/><line x1="52916" y1="688.00048828125" x2="52916" y2="786.99951171875" stroke="#26a69a" stroke-width="2"/><rect x="52912" y="694.500732421875" width="8" height="31.500244140625" fill="#26a69a"/><line x1="52928" y1="632.9986572265625" x2="52928" y2="716.32080078125" stroke="#26a69a" stroke-width="2"/><rect x="52924" y="677.9998779296875" width="8" height="22.0001220703125" fill="#26a69a"/><rect x="51999" y="860.0" width="10" height="160.0" fill="#26a69a" opacity="0.9"/><rect x="52011" y="934.5525214443829" width="10" height="85.44747855561707" fill="#26a69a" opacity="0.9"/><rect x="52023" y="976.0214616768124" width="10" height="43.97853832318765" fill="#26a69a" opacity="0.9"/><rect x="52035" y="962.0912596845601" width="10" height="57.9087403154399" fill="#26a69a" opacity="0.9"/><rect x="52047" y="956.2221568898727" width="10" height="63.777843110127264" fill="#ef5350" opacity="0.9"/><rect x="52059" y="957.7487721361373" width="10" height="62.25122786386271" fill="#ef5350" opacity="0.9"/><rect x="52071" y="942.067567100166" width="10" height="77.932432899834" fill="#ef5350" opacity="0.9"/><rect x="52083" y="956.3907719977864" width="10" height="63.60922800221363" fill="#ef5350" opacity="0.9"/><rect x="52095" y="958.8849785556171" width="10" height="61.11502144438293" fill="#ef5350" opacity="0.9"/><rect x="52107" y="944.4489312396237" width="10" height="75.55106876037632" fill="#26a69a" opacity="0.9"/><rect x="52119" y="965.6490384615385" width="10" height="54.35096153846155" fill="#ef5350" opacity="0.9"/><rect x="52131" y="974.8398588821251" width="10" height="45.1601411178749" fill="#ef5350" opacity="0.9"/><rect x="52143" y="956.5152877697842" width="10" height="63.48471223021579" fill="#ef5350" opacity="0.9"/><rect x="52155" y="945.3283238793581" width="10" height="74.6716761206419" fill="#26a69a" opacity="0.9"/><rect x="52167" y="957.050964997233" width="10" height="62.949035002767005" fill="#26a69a" opacity="0.9"/><rect x="52179" y="989.0800532650802" width="10" height="30.91994673491979" fill="#ef5350" opacity="0.9"/><rect x="52191" y="969.6452165190924" width="10" height="50.3547834809076" fill="#26a69a" opacity="0.9"/><rect x="52203" y="984.0527289706696" width="10" height="35.94727102933041" fill="#26a69a" opacity="0.9"/><rect x="52215" y="983.7686773657997" width="10" height="36.231322634200296" fill="#ef5350" opacity="0.9"/><rect x="52227" y="967.2534760653016" width="10" height="52.746523934698416" fill="#ef5350" opacity="0.9"/><rect x="52239" y="974.4248063087991" width="10" height="45.575193691200866" fill="#26a69a" opacity="0.9"/><rect x="52251" y="970.9772758716103" width="10" height="49.022724128389655" fill="#26a69a" opacity="0.9"/><rect x="52263" y="970.2755776148313" width="10" height="49.72442238516874" fill="#26a69a" opacity="0.9"/><rect x="52275" y="975.2471292197012" width="10" height="44.75287078029885" fill="#26a69a" opacity="0.9"/><rect x="52287" y="961.7060390149419" width="10" height="58.293960985058106" fill="#26a69a" opacity="0.9"/><rect x="52299" y="985.3393919479801" width="10" height="34.66060805201994" fill="#ef5350" opacity="0.9"/><rect x="52311" y="976.4715343110128" width="10" height="43.52846568898724" fill="#ef5350" opacity="0.9"/><rect x="52323" y="980.1239969562811" width="10" height="39.876003043718924" fill="#ef5350" opacity="0.9"/><rect x="52335" y="964.926587576093" width="10" height="55.07341242390703" fill="#26a69a" opacity="0.9"/><rect x="52347" y="973.828168234643" width="10" height="46.171831765356956" fill="#ef5350" opacity="0.9"/><rect x="52359" y="917.9530125899281" width="10" height="102.04698741007189" fill="#ef5350" opacity="0.9"/><rect x="52371" y="988.098194521306" width="10" height="31.901805478693973" fill="#26a69a" opacity="0.9"/><rect x="52383" y="987.854351134477" width="10" height="32.14564886552296" fill="#26a69a" opacity="0.9"/><rect x="52395" y="991.6935874377422" width="10" height="28.306412562257833" fill="#ef5350" opacity="0.9"/><rect x="52407" y="987.3238620641948" width="10" height="32.67613793580517" fill="#26a69a" opacity="0.9"/><rect x="52419" y="958.9174045379082" width="10" height="61.08259546209183" fill="#26a69a" opacity="0.9"/><rect x="52431" y="953.6449398173769" width="10" height="66.3550601826231" fill="#ef5350" opacity="0.9"/><rect x="52443" y="994.0645752628666" width="10" height="25.935424737133417" fill="#26a69a" opacity="0.9"/><rect x="52455" y="970.2392605146651" width="10" height="49.76073948533485" fill="#26a69a" opacity="0.9"/><rect x="52467" y="979.1473263696735" width="10" height="40.852673630326535" fill="#ef5350" opacity="0.9"/><rect x="52479" y="935.65500484228" width="10" height="84.34499515771995" fill="#ef5350" opacity="0.9"/><rect x="52491" y="951.6747371333702" width="10" height="68.32526286662983" fill="#ef5350" opacity="0.9"/><rect x="52503" y="999.7520925567238" width="10" height="20.247907443276176" fill="#26a69a" opacity="0.9"/><rect x="52515" y="974.6154710846707" width="10" height="45.38452891532927" fill="#ef5350" opacity="0.9"/><rect x="52527" y="999.5030610127283" width="10" height="20.496938987271733" fill="#26a69a" opacity="0.9"/><rect x="52539" y="983.8024003873824" width="10" height="36.19759961261764" fill="#ef5350" opacity="0.9"/><rect x="52551" y="988.5197322910902" width="10" height="31.480267708909764" fill="#ef5350" opacity="0.9"/><rect x="52563" y="998.6833321804095" width="10" height="21.31666781959052" fill="#26a69a" opacity="0.9"/><rect x="52575" y="997.6521859435528" width="10" height="22.34781405644719" fill="#26a69a" opacity="0.9"/><rect x="52587" y="991.4562292473713" width="10" height="28.54377075262869" fill="#ef5350" opacity="0.9"/><rect x="52599" y="996.7105354178196" width="10" height="23.289464582180358" fill="#26a69a" opacity="0.9"/><rect x="52611" y="992.862219839513" width="10" height="27.137780160486955" fill="#ef5350" opacity="0.9"/><rect x="52623" y="974.8593144714997" width="10" height="45.140685528500285" fill="#ef5350" opacity="0.9"/><rect x="52635" y="994.8168580520199" width="10" height="25.18314194798006" fill="#26a69a" opacity="0.9"/><rect x="52647" y="995.915450332042" width="10" height="24.08454966795796" fill="#26a69a" opacity="0.9"/><rect x="52659" y="991.799944659657" width="10" height="28.200055340343056" fill="#26a69a" opacity="0.9"/><rect x="52671" y="992.3265426120641" width="10" height="27.673457387935855" fill="#26a69a" opacity="0.9"/><rect x="52683" y="983.3990211676812" width="10" height="36.60097883231879" fill="#26a69a" opacity="0.9"/><rect x="52695" y="988.2304925290537" width="10" height="31.769507470946337" fill="#ef5350" opacity="0.9"/><rect x="52707" y="986.5573118428334" width="10" height="33.44268815716657" fill="#ef5350" opacity="0.9"/><rect x="52719" y="986.1370711123409" width="10" height="33.86292888765911" fill="#ef5350" opacity="0.9"/><rect x="52731" y="967.6827960708356" width="10" height="52.31720392916441" fill="#ef5350" opacity="0.9"/><rect x="52743" y="989.1954897620366" width="10" height="30.804510237963427" fill="#ef5350" opacity="0.9"/><rect x="52755" y="973.8748616491422" width="10" height="46.12513835085781" fill="#ef5350" opacity="0.9"/><rect x="52767" y="982.3250726342003" width="10" height="37.674927365799704" fill="#ef5350" opacity="0.9"/><rect x="52779" y="969.8514457664637" width="10" height="50.14855423353629" fill="#26a69a" opacity="0.9"/><rect x="52791" y="969.6270579690095" width="10" height="50.372942030990544" fill="#26a69a" opacity="0.9"/><rect x="52803" y="977.4209670724958" width="10" height="42.57903292750416" fill="#26a69a" opacity="0.9"/><rect x="52815" y="967.8527082180409" width="10" height="52.1472917819591" fill="#ef5350" opacity="0.9"/><rect x="52827" y="979.4404572495849" width="10" height="40.55954275041506" fill="#ef5350" opacity="0.9"/><rect x="52839" y="973.9967833425567" width="10" height="46.00321665744332" fill="#ef5350" opacity="0.9"/><rect x="52851" y="977.0201819313779" width="10" height="42.97981806862208" fill="#ef5350" opacity="0.9"/><rect x="52863" y="971.9928576369673" width="10" height="48.0071423630327" fill="#ef5350" opacity="0.9"/><rect x="52875" y="981.5118289983398" width="10" height="38.48817100166025" fill="#26a69a" opacity="0.9"/><rect x="52887" y="971.3028327338129" width="10" height="48.69716726618708" fill="#ef5350" opacity="0.9"/><rect x="52899" y="888.5776667127836" width="10" height="131.42233328721636" fill="#ef5350" opacity="0.9"/><rect x="52911" y="931.2904676258993" width="10" height="88.70953237410072" fill="#26a69a" opacity="0.9"/><rect x="52923" y="897.3326819313779" width="10" height="122.66731806862208" fill="#26a69a" opacity="0.9"/><polyline points="320,595.9223284040149,332,593.2621173469329,344,582.9038320824964,356,563.9605751021691,368,537.5833309704149,380,516.0991577083507,392,499.2327107688652,404,484.25829476930176,416,463.09079162163016,428,444.90592177224926,440,440.81953887652503,452,434.8367140244477,464,428.1855402743531,476,426.0726084253065,488,412.1608151749797,500,396.6215969142695,512,387.80057382645055,524,375.05774341366305,536,361.6960079918272,548,355.0630711257895,560,350.5807459925336,572,350.77015876258884,584,349.8397023290977,596,353.4740628959696,608,356.66696278385075,620,361.6510266891112,632,372.25579544565335,644,381.56488356540876,656,387.32073682331816,668,396.1948826094897,680,404.1762061035229,692,417.1117473935169,704,431.0059131923481,716,440.42712039947673,728,442.87313078925763,740,440.980556298166,752,431.64900499149894,764,419.482447038439,776,408.8649432468344,788,410.9730206385052,800,421.46506880313837,812,431.23020733974613,824,442.541616164533,836,453.8232274970767,848,465.5542440561362,860,474.54913608427205,872,477.16339944454944,884,468.8143996276551,896,470.9273488260635,908,482.50558029947683,920,498.98116956410945,932,516.0305703608287,944,534.5855783547393,956,547.7680088574118,968,564.5519150078997,980,580.2137187683059,992,591.0981962591222,1004,599.3745468944155" fill="none" stroke="#0090ff" stroke-width="2"/><line x1="80" y1="50" x2="80" y2="900" stroke="#666666" stroke-width="0.5" stroke-dasharray="4,4" opacity="0.90"/><line x1="152" y1="50" x2="152" y2="900" stroke="#666666" stroke-width="0.5" stroke-dasharray="4,4" opacity="0.90"/><line x1="224" y1="50" x2="224" y2="900" stroke="#666666" stroke-width="0.5" stroke-dasharray="4,4" opacity="0.90"/><line x1="290" y1="30" x2="290" y2="950" stroke="black" stroke-width="0.7"/><line x1="296" y1="50" x2="296" y2="900" stroke="#666666" stroke-width="0.5" stroke-dasharray="4,4" opacity="0.90"/><line x1="368" y1="50" x2="368" y2="900" stroke="#666666" stroke-width="0.5" stroke-dasharray="4,4" opacity="0.90"/><line x1="440" y1="50" x2="440" y2="900" stroke="#666666" stroke-width="0.5" stroke-dasharray="4,4" opacity="0.90"/><line x1="512" y1="50" x2="512" y2="900" stroke="#666666" stroke-width="0.5" stroke-dasharray="4,4" opacity="0.90"/><line x1="584" y1="50" x2="584" y2="900" stroke="#666666" stroke-width="0.5" stroke-dasharray="4,4" opacity="0.90"/><line x1="656" y1="50" x2="656" y2="900" stroke="#666666" stroke-width="0.5" stroke-dasharray="4,4" opacity="0.90"/><line x1="728" y1="50" x2="728" y2="900" stroke="#666666" stroke-width="0.5" stroke-dasharray="4,4" opacity="0.90"/><line x1="800" y1="50" x2="800" y2="900" stroke="#666666" stroke-width="0.5" stroke-dasharray="4,4" opacity="0.90"/><line x1="872" y1="50" x2="872" y2="900" stroke="#666666" stroke-width="0.5" stroke-dasharray="4,4" opacity="0.90"/><line x1="944" y1="50" x2="944" y2="900" stroke="#666666" stroke-width="0.5" stroke-dasharray="4,4" opacity="0.90"/><text x="80" y="1040" text-anchor="middle" font-size="20" fill="black">14:30</text><text x="152" y="1040" text-anchor="middle" font-size="20" fill="black">15:00</text><text x="224" y="1040" text-anchor="middle" font-size="20" fill="black">15:30</text><text x="296" y="1040" text-anchor="middle" font-size="20" fill="black">16:00</text><text x="368" y="1040" text-anchor="middle" font-size="20" fill="black">16:30</text><text x="440" y="1040" text-anchor="middle" font-size="20" fill="black">17:00</text><text x="512" y="1040" text-anchor="middle" font-size="20" fill="black">17:30</text><text x="584" y="1040" text-anchor="middle" font-size="20" fill="black">18:00</text><text x="656" y="1040" text-anchor="middle" font-size="20" fill="black">18:30</text><text x="728" y="1040" text-anchor="middle" font-size="20" fill="black">19:00</text><text x="800" y="1040" text-anchor="middle" font-size="20" fill="black">19:30</text><text x="872" y="1040" text-anchor="middle" font-size="20" fill="black">20:00</text><text x="944" y="1040" text-anchor="middle" font-size="20" fill="black">20:30</text><text x="1006" y="50" text-anchor="end" font-size="40" fill="#ef5350" font-weight="bold">▼ -0.72% (Thu)</text></svg>