<svg xmlns="http://www.w3.org/2000/svg" width="1056" height="1050"><rect width="100%" height="100%" fill="white"/><text x="42" y="854.0" text-anchor="end" font-size="20" fill="black">470</text><text x="42" y="796.8571428571429" text-anchor="end" font-size="20" fill="black">471</text><text x="42" y="739.7142857142858" text-anchor="end" font-size="20" fill="black">472</text><text x="42" y="682.5714285714286" text-anchor="end" font-size="20" fill="black">473</text><text x="42" y="625.4285714285714" text-anchor="end" font-size="20" fill="black">474</text><text x="42" y="568.2857142857142" text-anchor="end" font-size="20" fill="black">475</text><text x="42" y="511.14285714285717" text-anchor="end" font-size="20" fill="black">476</text><text x="42" y="454.0" text-anchor="end" font-size="20" fill="black">477</text><text x="42" y="396.8571428571429" text-anchor="end" font-size="20" fill="black">478</text><text x="42" y="339.71428571428567" text-anchor="end" font-size="20" fill="black">479</text><text x="42" y="282.57142857142856" text-anchor="end" font-size="20" fill="black">480</text><text x="42" y="225.42857142857144" text-anchor="end" font-size="20" fill="black">481</text><text x="42" y="168.28571428571433" text-anchor="end" font-size="20" fill="black">482</text><text x="42" y="111.14285714285711" text-anchor="end" font-size="20" fill="black">483</text><text x="42" y="54.0" text-anchor="end" font-size="20" fill="black">484</text><line x1="50132" y1="51.142229352678555" x2="50132" y2="199.4280133928571" stroke="#ef5350" stroke-width="2"/><rect x="50128" y="51.714215959821445" width="8" height="121.142578125" fill="#ef5350"/><line x1="50144" y1="154.65087890625" x2="50144" y2="250.85797991071433" stroke="#ef5350" stroke-width="2"/><rect x="50140" y="170.2863420758929" width="8" height="67.85714285714278" fill="#ef5350"/><line x1="50156" y1="232.85784040178567" x2="50156" y2="348.28578404017856" stroke="#ef5350" stroke-width="2"/><rect x="50152" y="239.71470424107144" width="8" height="77.73611886160711" fill="#ef5350"/><line x1="50168" y1="234.5720563616071" x2="50168" y2="317.42815290178567" stroke="#26a69a" stroke-width="2"/><rect x="50164" y="256.85686383928567" width="8" height="50.857979910714334" fill="#26a69a"/><line x1="50180" y1="263.14348493303567" x2="50180" y2="312.85749162946433" stroke="#ef5350" stroke-width="2"/><rect x="50176" y="263.14348493303567" width="8" height="49.71400669642867" fill="#ef5350"/><line x1="50192" y1="318.29136439732144" x2="50192" y2="395.1433454241071" stroke="#ef5350" stroke-width="2"/><rect x="50188" y="318.29136439732144" width="8" height="74.27978515625" fill="#ef5350"/><line x1="50204" y1="383.14208984375" x2="50204" y2="461.8007114955357" stroke="#ef5350" stroke-width="2"/><rect x="50200" y="394.57135881696433" width="8" height="28.571428571428555" fill="#ef5350"/><line x1="50216" y1="403.71442522321433" x2="50216" y2="492.28515625" stroke="#ef5350" stroke-width="2"/><rect x="50212" y="422.00055803571433" width="8" height="28.5714285714285" fill="#ef5350"/><line x1="50228" y1="439.71470424107144" x2="50228" y2="519.1423688616071" stroke="#ef5350" stroke-width="2"/><rect x="50224" y="447.71379743303567" width="8" height="55.142647879464334" fill="#ef5350"/><line x1="50240" y1="476.2852260044643" x2="50240" y2="512.8574916294642" stroke="#26a69a" stroke-width="2"/><rect x="50236" y="486.572265625" width="8" height="15.867396763392833" fill="#26a69a"/><line x1="50252" y1="460.7142857142857" x2="50252" y2="591.7149135044642" stroke="#ef5350" stroke-width="2"/><rect x="50248" y="492.28515625" width="8" height="96.57156808035711" fill="#ef5350"/><line x1="50264" y1="500.8579799107143" x2="50264" y2="595.1433454241071" stroke="#26a69a" stroke-width="2"/><rect x="50260" y="518.8563755580358" width="8" height="75.14299665178567" fill="#26a69a"/><line x1="50276" y1="504.3544224330357" x2="50276" y2="567.1421595982142" stroke="#ef5350" stroke-width="2"/><rect x="50272" y="512.8574916294642" width="8" height="54.28466796875" fill="#ef5350"/><line x1="50288" y1="530.9884207589286" x2="50288" y2="593.4291294642858" stroke="#26a69a" stroke-width="2"/><rect x="50284" y="530.9884207589286" width="8" height="36.725725446428555" fill="#26a69a"/><line x1="50300" y1="525.4289899553571" x2="50300" y2="557.4288504464286" stroke="#ef5350" stroke-width="2"/><rect x="50296" y="535.7142857142858" width="8" height="11.42926897321422" fill="#ef5350"/><line x1="50312" y1="474.00076729910717" x2="50312" y2="568.2861328125" stroke="#26a69a" stroke-width="2"/><rect x="50308" y="474.00076729910717" width="8" height="73.14278738839283" fill="#26a69a"/><line x1="50324" y1="453.42843191964283" x2="50324" y2="515.1436941964286" stroke="#ef5350" stroke-width="2"/><rect x="50320" y="471.142578125" width="8" height="9.715053013392833" fill="#ef5350"/><line x1="50336" y1="440.2849469866071" x2="50336" y2="481.97719029017856" stroke="#26a69a" stroke-width="2"/><rect x="50332" y="450.57198660714283" width="8" height="21.770368303571445" fill="#26a69a"/><line x1="50348" y1="448.28578404017856" x2="50348" y2="504.28641183035717" stroke="#ef5350" stroke-width="2"/><rect x="50344" y="451.14222935267856" width="8" height="52.57219587053572" fill="#ef5350"/><line x1="50360" y1="492.85714285714283" x2="50360" y2="518.8563755580358" stroke="#ef5350" stroke-width="2"/><rect x="50356" y="503.7144252232143" width="8" height="6.28487723214289" fill="#ef5350"/><line x1="50372" y1="488.28648158482144" x2="50372" y2="536.8565150669642" stroke="#26a69a" stroke-width="2"/><rect x="50368" y="520.5705915178571" width="8" height="7.14285714285711" fill="#26a69a"/><line x1="50384" y1="508.2850864955357" x2="50384" y2="549.4402204241071" stroke="#ef5350" stroke-width="2"/><rect x="50380" y="523.1427873883929" width="8" height="12.57149832589289" fill="#ef5350"/><line x1="50396" y1="534.5720563616071" x2="50396" y2="599.7140066964286" stroke="#ef5350" stroke-width="2"/><rect x="50392" y="535.7142857142858" width="8" height="59.994070870535666" fill="#ef5350"/><line x1="50408" y1="563.9997209821429" x2="50408" y2="603.4284319196429" stroke="#ef5350" stroke-width="2"/><rect x="50404" y="589.1427176339286" width="8" height="14.285714285714334" fill="#ef5350"/><line x1="50420" y1="576.3253348214286" x2="50420" y2="612.8574916294642" stroke="#26a69a" stroke-width="2"/><rect x="50416" y="576.3253348214286" width="8" height="17.103794642857224" fill="#26a69a"/><line x1="50432" y1="563.427734375" x2="50432" y2="607.71484375" stroke="#ef5350" stroke-width="2"/><rect x="50428" y="575.7149832589286" width="8" height="15.999930245535666" fill="#ef5350"/><line x1="50444" y1="575.7149832589286" x2="50444" y2="593.9993722098214" stroke="#26a69a" stroke-width="2"/><rect x="50440" y="580.8576311383929" width="8" height="11.42752511160711" fill="#26a69a"/><line x1="50456" y1="554.0004185267858" x2="50456" y2="595.7135881696429" stroke="#26a69a" stroke-width="2"/><rect x="50452" y="574.2850167410714" width="8" height="9.429059709821445" fill="#26a69a"/><line x1="50468" y1="575.7149832589286" x2="50468" y2="615.1436941964286" stroke="#ef5350" stroke-width="2"/><rect x="50464" y="575.7149832589286" width="8" height="11.427525111607224" fill="#ef5350"/><line x1="50480" y1="578.5714285714286" x2="50480" y2="605.7146344866071" stroke="#ef5350" stroke-width="2"/><rect x="50476" y="584.8563058035714" width="8" height="20.572335379464334" fill="#ef5350"/><line x1="50492" y1="602.5774274553571" x2="50492" y2="623.5421316964286" stroke="#ef5350" stroke-width="2"/><rect x="50488" y="608.2850864955358" width="8" height="6.0006277901784415" fill="#ef5350"/><line x1="50504" y1="606.5708705357142" x2="50504" y2="636.2461635044642" stroke="#26a69a" stroke-width="2"/><rect x="50500" y="606.5708705357142" width="8" height="15.4296875" fill="#26a69a"/><line x1="50516" y1="599.71923828125" x2="50516" y2="698.57177734375" stroke="#ef5350" stroke-width="2"/><rect x="50512" y="602.2862025669642" width="8" height="75.77601841517867" fill="#ef5350"/><line x1="50528" y1="651.7142159598214" x2="50528" y2="688.8567243303571" stroke="#26a69a" stroke-width="2"/><rect x="50524" y="679.4294084821429" width="8" height="5.998883928571331" fill="#26a69a"/><line x1="50540" y1="647.0860072544642" x2="50540" y2="699.1420200892858" stroke="#26a69a" stroke-width="2"/><rect x="50536" y="654.5706612723214" width="8" height="28.287179129464334" fill="#26a69a"/><line x1="50552" y1="639.1427176339286" x2="50552" y2="691.1429268973214" stroke="#ef5350" stroke-width="2"/><rect x="50548" y="649.7140066964286" width="8" height="39.714704241071445" fill="#ef5350"/><line x1="50564" y1="686.0002790178571" x2="50564" y2="735.7142857142858" stroke="#ef5350" stroke-width="2"/><rect x="50560" y="686.0002790178571" width="8" height="49.71400669642867" fill="#ef5350"/><line x1="50576" y1="724.2850167410714" x2="50576" y2="751.1195591517857" stroke="#ef5350" stroke-width="2"/><rect x="50572" y="733.4280831473214" width="8" height="6.28662109375" fill="#ef5350"/><line x1="50588" y1="742.5711495535714" x2="50588" y2="765.9999302455357" stroke="#ef5350" stroke-width="2"/><rect x="50584" y="743.1431361607142" width="8" height="12.57149832589289" fill="#ef5350"/><line x1="50600" y1="708.8623046875" x2="50600" y2="757.4288504464286" stroke="#26a69a" stroke-width="2"/><rect x="50596" y="720.9943498883929" width="8" height="35.29052734375" fill="#26a69a"/><line x1="50612" y1="693.4291294642858" x2="50612" y2="744.3551199776786" stroke="#ef5350" stroke-width="2"/><rect x="50608" y="719.1423688616071" width="8" height="3.4284319196428896" fill="#ef5350"/><line x1="50624" y1="712.2855050223214" x2="50624" y2="737.4285016741071" stroke="#ef5350" stroke-width="2"/><rect x="50620" y="715.7139369419642" width="8" height="16.57191685267867" fill="#ef5350"/><line x1="50636" y1="711.99951171875" x2="50636" y2="740.5709402901786" stroke="#ef5350" stroke-width="2"/><rect x="50632" y="734.7377232142858" width="8" height="4.976981026785666" fill="#ef5350"/><line x1="50648" y1="685.4282924107142" x2="50648" y2="747.7137974330358" stroke="#26a69a" stroke-width="2"/><rect x="50644" y="712.8574916294642" width="8" height="32.571847098214334" fill="#26a69a"/><line x1="50660" y1="718.5721261160714" x2="50660" y2="785.4282924107143" stroke="#ef5350" stroke-width="2"/><rect x="50656" y="719.1423688616071" width="8" height="61.65771484375" fill="#ef5350"/><line x1="50672" y1="745.1433454241071" x2="50672" y2="780.0571986607143" stroke="#26a69a" stroke-width="2"/><rect x="50668" y="745.1433454241071" width="8" height="25.42724609375" fill="#26a69a"/><line x1="50684" y1="745.1433454241071" x2="50684" y2="771.142578125" stroke="#ef5350" stroke-width="2"/><rect x="50680" y="745.1433454241071" width="8" height="22.576032366071445" fill="#ef5350"/><line x1="50696" y1="769.71435546875" x2="50696" y2="798.57177734375" stroke="#26a69a" stroke-width="2"/><rect x="50692" y="769.71435546875" width="8" height="7.71484375" fill="#26a69a"/><line x1="50708" y1="772.2865513392857" x2="50708" y2="818.0001395089286" stroke="#ef5350" stroke-width="2"/><rect x="50704" y="772.2865513392857" width="8" height="30.85588727678578" fill="#ef5350"/><line x1="50720" y1="791.4289202008929" x2="50720" y2="825.9992327008929" stroke="#26a69a" stroke-width="2"/><rect x="50716" y="792.2398158482143" width="8" height="12.046595982142776" fill="#26a69a"/><line x1="50732" y1="797.0005580357143" x2="50732" y2="829.9996512276786" stroke="#ef5350" stroke-width="2"/><rect x="50728" y="797.0005580357143" width="8" height="25.570242745535666" fill="#ef5350"/><line x1="50744" y1="818.5721261160714" x2="50744" y2="841.9991629464286" stroke="#26a69a" stroke-width="2"/><rect x="50740" y="824.8570033482143" width="8" height="2.851213727678555" fill="#26a69a"/><line x1="50756" y1="826.5712193080357" x2="50756" y2="841.4289202008929" stroke="#ef5350" stroke-width="2"/><rect x="50752" y="826.5712193080357" width="8" height="11.000279017857224" fill="#ef5350"/><line x1="50768" y1="813.427734375" x2="50768" y2="850.8579799107143" stroke="#ef5350" stroke-width="2"/><rect x="50764" y="836.8565150669643" width="8" height="14.00146484375" fill="#ef5350"/><line x1="50780" y1="844.8573521205357" x2="50780" y2="878.5714285714286" stroke="#ef5350" stroke-width="2"/><rect x="50776" y="851.7142159598214" width="8" height="19.428362165178555" fill="#ef5350"/><line x1="50792" y1="856.8568638392857" x2="50792" y2="884.85107421875" stroke="#26a69a" stroke-width="2"/><rect x="50788" y="871.142578125" width="8" height="2" fill="#26a69a"/><line x1="50804" y1="770.5705915178571" x2="50804" y2="875.7149832589286" stroke="#26a69a" stroke-width="2"/><rect x="50800" y="772.8567940848214" width="8" height="101.14397321428567" fill="#26a69a"/><line x1="50816" y1="753.5138811383929" x2="50816" y2="786.5652901785714" stroke="#26a69a" stroke-width="2"/><rect x="50812" y="759.14306640625" width="8" height="13.713727678571445" fill="#26a69a"/><line x1="50828" y1="740.6563895089286" x2="50828" y2="775.7149832589286" stroke="#ef5350" stroke-width="2"/><rect x="50824" y="759.7150530133929" width="8" height="14.010184151785666" fill="#ef5350"/><line x1="50840" y1="775.1429966517857" x2="50840" y2="824.2850167410714" stroke="#ef5350" stroke-width="2"/><rect x="50836" y="779.9996512276786" width="8" height="24.286760602678555" fill="#ef5350"/><line x1="50852" y1="777.42919921875" x2="50852" y2="831.7138671875" stroke="#ef5350" stroke-width="2"/><rect x="50848" y="804.2864118303571" width="8" height="25.713239397321445" fill="#ef5350"/><line x1="50864" y1="803.8120814732143" x2="50864" y2="832.8578404017857" stroke="#26a69a" stroke-width="2"/><rect x="50860" y="823.7147739955357" width="8" height="9.14306640625" fill="#26a69a"/><line x1="50876" y1="812.8574916294643" x2="50876" y2="845.4293387276786" stroke="#ef5350" stroke-width="2"/><rect x="50872" y="824.2850167410714" width="8" height="16.85791015625" fill="#ef5350"/><line x1="50888" y1="838.00048828125" x2="50888" y2="863.7137276785714" stroke="#ef5350" stroke-width="2"/><rect x="50884" y="838.00048828125" width="8" height="22.284807477678555" fill="#ef5350"/><line x1="50900" y1="836.0002790178571" x2="50900" y2="878.5714285714286" stroke="#26a69a" stroke-width="2"/><rect x="50896" y="836.0002790178571" width="8" height="27.713448660714334" fill="#26a69a"/><line x1="50912" y1="783.14208984375" x2="50912" y2="838.5149274553571" stroke="#26a69a" stroke-width="2"/><rect x="50908" y="788.4573800223214" width="8" height="48.971121651785666" fill="#26a69a"/><line x1="50924" y1="781.8568638392857" x2="50924" y2="827.6279994419643" stroke="#ef5350" stroke-width="2"/><rect x="50920" y="793.4291294642857" width="8" height="33.71407645089289" fill="#ef5350"/><line x1="50936" y1="811.1432756696429" x2="50936" y2="836.2862723214286" stroke="#26a69a" stroke-width="2"/><rect x="50932" y="825.439453125" width="8" height="2.8459821428571104" fill="#26a69a"/><line x1="50948" y1="799.7140066964286" x2="50948" y2="836.8512834821429" stroke="#26a69a" stroke-width="2"/><rect x="50944" y="799.7140066964286" width="8" height="26.85721261160711" fill="#26a69a"/><line x1="50960" y1="773.7147739955357" x2="50960" y2="818.5721261160714" stroke="#26a69a" stroke-width="2"/><rect x="50956" y="788.2864815848214" width="8" height="15.999930245535666" fill="#26a69a"/><line x1="50972" y1="781.9998604910714" x2="50972" y2="821.4285714285714" stroke="#26a69a" stroke-width="2"/><rect x="50968" y="782.8578404017857" width="8" height="11.713518415178669" fill="#26a69a"/><line x1="50984" y1="765.4279436383929" x2="50984" y2="782.5718470982143" stroke="#26a69a" stroke-width="2"/><rect x="50980" y="777.42919921875" width="8" height="2" fill="#26a69a"/><line x1="50996" y1="708.8570731026786" x2="50996" y2="779.1434151785714" stroke="#26a69a" stroke-width="2"/><rect x="50992" y="709.4290597098214" width="8" height="69.71435546875" fill="#26a69a"/><line x1="51008" y1="685.4282924107142" x2="51008" y2="716.5719168526786" stroke="#26a69a" stroke-width="2"/><rect x="51004" y="691.7079380580358" width="8" height="15.434919084821331" fill="#26a69a"/><line x1="51020" y1="690.5709402901786" x2="51020" y2="736.8565150669642" stroke="#ef5350" stroke-width="2"/><rect x="51016" y="691.7149135044642" width="8" height="22.85679408482156" fill="#ef5350"/><line x1="51032" y1="696.32568359375" x2="51032" y2="722.0005580357142" stroke="#26a69a" stroke-width="2"/><rect x="51028" y="706.0006277901786" width="8" height="10.285295758928555" fill="#26a69a"/><line x1="51044" y1="678.5714285714286" x2="51044" y2="712.8574916294642" stroke="#26a69a" stroke-width="2"/><rect x="51040" y="684.2860630580358" width="8" height="18.2861328125" fill="#26a69a"/><line x1="51056" y1="652.2862025669642" x2="51056" y2="689.4287109375" stroke="#26a69a" stroke-width="2"/><rect x="51052" y="660.8572823660714" width="8" height="21.142578125" fill="#26a69a"/><rect x="50127" y="860.0" width="10" height="160.0" fill="#ef5350" opacity="0.9"/><rect x="50139" y="990.166076056487" width="10" height="29.833923943513014" fill="#ef5350" opacity="0.9"/><rect x="50151" y="957.6765219230973" width="10" height="62.32347807690269" fill="#ef5350" opacity="0.9"/><rect x="50163" y="988.0843073993759" width="10" height="31.915692600624084" fill="#26a69a" opacity="0.9"/><rect x="50175" y="989.7757444332786" width="10" height="30.224255566721354" fill="#ef5350" opacity="0.9"/><rect x="50187" y="951.1963822922727" width="10" height="68.80361770772731" fill="#ef5350" opacity="0.9"/><rect x="50199" y="981.5914740572275" width="10" height="38.408525942772485" fill="#ef5350" opacity="0.9"/><rect x="50211" y="961.97334320622" width="10" height="58.026656793780035" fill="#ef5350" opacity="0.9"/><rect x="50223" y="957.1814671814672" width="10" height="62.818532818532844" fill="#ef5350" opacity="0.9"/><rect x="50235" y="982.5450891204316" width="10" height="37.45491087956839" fill="#26a69a" opacity="0.9"/><rect x="50247" y="961.8003913894324" width="10" height="58.199608610567566" fill="#ef5350" opacity="0.9"/><rect x="50259" y="988.9570000528904" width="10" height="31.042999947109593" fill="#26a69a" opacity="0.9"/><rect x="50271" y="969.448352462051" width="10" height="50.55164753794895" fill="#ef5350" opacity="0.9"/><rect x="50283" y="991.0784365578886" width="10" height="28.921563442111392" fill="#26a69a" opacity="0.9"/><rect x="50295" y="987.7447506214629" width="10" height="32.25524937853709" fill="#ef5350" opacity="0.9"/><rect x="50307" y="975.273179245782" width="10" height="44.72682075421801" fill="#26a69a" opacity="0.9"/><rect x="50319" y="979.4541704130745" width="10" height="40.54582958692549" fill="#ef5350" opacity="0.9"/><rect x="50331" y="984.1191093245887" width="10" height="35.88089067541125" fill="#26a69a" opacity="0.9"/><rect x="50343" y="977.3692283281324" width="10" height="42.63077167186759" fill="#ef5350" opacity="0.9"/><rect x="50355" y="918.5894113291373" width="10" height="101.4105886708627" fill="#ef5350" opacity="0.9"/><rect x="50367" y="991.3862590574919" width="10" height="28.613740942508116" fill="#26a69a" opacity="0.9"/><rect x="50379" y="976.9804834188396" width="10" height="43.01951658116036" fill="#ef5350" opacity="0.9"/><rect x="50391" y="974.2354683450574" width="10" height="45.76453165494263" fill="#ef5350" opacity="0.9"/><rect x="50403" y="981.4835775109748" width="10" height="38.51642248902522" fill="#ef5350" opacity="0.9"/><rect x="50415" y="976.5488972338287" width="10" height="43.45110276617129" fill="#26a69a" opacity="0.9"/><rect x="50427" y="982.5831702544032" width="10" height="37.41682974559683" fill="#ef5350" opacity="0.9"/><rect x="50439" y="959.5282170624637" width="10" height="60.47178293753632" fill="#26a69a" opacity="0.9"/><rect x="50451" y="973.9752472629185" width="10" height="46.024752737081485" fill="#26a69a" opacity="0.9"/><rect x="50463" y="983.4511027661713" width="10" height="36.54889723382871" fill="#ef5350" opacity="0.9"/><rect x="50475" y="987.9557835722219" width="10" height="32.04421642777811" fill="#ef5350" opacity="0.9"/><rect x="50487" y="979.4256095625958" width="10" height="40.57439043740419" fill="#ef5350" opacity="0.9"/><rect x="50499" y="988.5746019992596" width="10" height="31.425398000740415" fill="#26a69a" opacity="0.9"/><rect x="50511" y="978.6259057491934" width="10" height="41.37409425080659" fill="#ef5350" opacity="0.9"/><rect x="50523" y="976.8376791664463" width="10" height="43.162320833553736" fill="#26a69a" opacity="0.9"/><rect x="50535" y="971.5190141217538" width="10" height="48.4809858782462" fill="#26a69a" opacity="0.9"/><rect x="50547" y="993.975776167557" width="10" height="26.024223832443" fill="#ef5350" opacity="0.9"/><rect x="50559" y="987.6067065108161" width="10" height="32.39329348918386" fill="#ef5350" opacity="0.9"/><rect x="50571" y="982.0056063891681" width="10" height="37.994393610831935" fill="#ef5350" opacity="0.9"/><rect x="50583" y="974.9732903157561" width="10" height="45.02670968424388" fill="#ef5350" opacity="0.9"/><rect x="50595" y="989.0601364573968" width="10" height="30.939863542603234" fill="#26a69a" opacity="0.9"/><rect x="50607" y="986.7038662929074" width="10" height="33.29613370709262" fill="#ef5350" opacity="0.9"/><rect x="50619" y="988.411170465965" width="10" height="31.58882953403497" fill="#ef5350" opacity="0.9"/><rect x="50631" y="992.7016448934257" width="10" height="27.298355106574263" fill="#ef5350" opacity="0.9"/><rect x="50643" y="962.3843021103295" width="10" height="57.615697889670514" fill="#26a69a" opacity="0.9"/><rect x="50655" y="976.4679748241392" width="10" height="43.53202517586078" fill="#ef5350" opacity="0.9"/><rect x="50667" y="988.8427566509758" width="10" height="31.157243349024156" fill="#26a69a" opacity="0.9"/><rect x="50679" y="989.8884011212779" width="10" height="30.111598878722134" fill="#ef5350" opacity="0.9"/><rect x="50691" y="976.7266091923626" width="10" height="43.273390807637384" fill="#26a69a" opacity="0.9"/><rect x="50703" y="971.8046226265404" width="10" height="48.195377373459564" fill="#ef5350" opacity="0.9"/><rect x="50715" y="983.6240545829587" width="10" height="36.375945417041294" fill="#26a69a" opacity="0.9"/><rect x="50727" y="989.4219072301264" width="10" height="30.578092769873592" fill="#ef5350" opacity="0.9"/><rect x="50739" y="987.8780345903633" width="10" height="32.12196540963669" fill="#26a69a" opacity="0.9"/><rect x="50751" y="971.9141058867086" width="10" height="48.085894113291374" fill="#ef5350" opacity="0.9"/><rect x="50763" y="964.48035119268" width="10" height="55.51964880731998" fill="#ef5350" opacity="0.9"/><rect x="50775" y="952.88623261226" width="10" height="67.11376738774004" fill="#ef5350" opacity="0.9"/><rect x="50787" y="967.6902734436981" width="10" height="52.30972655630194" fill="#26a69a" opacity="0.9"/><rect x="50799" y="961.6068122917438" width="10" height="58.393187708256164" fill="#26a69a" opacity="0.9"/><rect x="50811" y="970.3384989686359" width="10" height="49.66150103136408" fill="#26a69a" opacity="0.9"/><rect x="50823" y="977.2264240757391" width="10" height="42.773575924260854" fill="#ef5350" opacity="0.9"/><rect x="50835" y="966.39392817475" width="10" height="53.606071825249956" fill="#ef5350" opacity="0.9"/><rect x="50847" y="939.3039614957423" width="10" height="80.69603850425767" fill="#ef5350" opacity="0.9"/><rect x="50859" y="970.5447717776485" width="10" height="49.45522822235148" fill="#26a69a" opacity="0.9"/><rect x="50871" y="975.4683450573862" width="10" height="44.53165494261384" fill="#ef5350" opacity="0.9"/><rect x="50883" y="983.5447188871847" width="10" height="36.45528111281533" fill="#ef5350" opacity="0.9"/><rect x="50895" y="949.2431374623155" width="10" height="70.75686253768447" fill="#26a69a" opacity="0.9"/><rect x="50907" y="979.0765325011901" width="10" height="40.92346749880994" fill="#26a69a" opacity="0.9"/><rect x="50919" y="973.264399428783" width="10" height="46.73560057121699" fill="#ef5350" opacity="0.9"/><rect x="50931" y="972.2013011054107" width="10" height="47.79869889458928" fill="#26a69a" opacity="0.9"/><rect x="50943" y="966.1876553657376" width="10" height="53.812344634262445" fill="#26a69a" opacity="0.9"/><rect x="50955" y="969.4245517533188" width="10" height="50.57544824668116" fill="#26a69a" opacity="0.9"/><rect x="50967" y="956.7720949912731" width="10" height="63.22790500872691" fill="#26a69a" opacity="0.9"/><rect x="50979" y="971.4142910033321" width="10" height="48.585708996667904" fill="#26a69a" opacity="0.9"/><rect x="50991" y="964.6628232929603" width="10" height="55.3371767070397" fill="#26a69a" opacity="0.9"/><rect x="51003" y="921.3137991220183" width="10" height="98.68620087798172" fill="#26a69a" opacity="0.9"/><rect x="51015" y="967.986988945893" width="10" height="52.01301105410698" fill="#ef5350" opacity="0.9"/><rect x="51027" y="965.9401279949225" width="10" height="54.05987200507752" fill="#26a69a" opacity="0.9"/><rect x="51039" y="932.8428624319035" width="10" height="87.15713756809646" fill="#26a69a" opacity="0.9"/><rect x="51051" y="925.561432273761" width="10" height="94.43856772623894" fill="#26a69a" opacity="0.9"/><polyline points="320,444.3262881324374,332,453.0299069497557,344,466.6183307245222,356,479.6478641716768,368,488.855242328795,380,498.65140148838236,392,506.48056621695497,404,512.9381329335372,416,520.0052163084885,428,528.1407805822547,440,536.3450599825812,452,543.0332324162139,464,555.8931360891588,476,567.6584953646787,488,575.9358444987421,500,586.7446889214793,512,600.932269568414,524,614.1496442991411,536,627.6320243169948,548,636.5236743714117,560,644.7186387913948,572,653.0583735536115,584,661.3113574286087,596,666.220513066784,608,677.1328531275977,620,683.6100428701229,632,691.6204557196514,644,699.0579699814718,656,708.9707765180979,668,716.9011612162064,680,726.9649364128782,692,736.2879904067183,704,745.9340387799753,716,755.9267950781402,728,766.8997267968864,740,776.827617399564,752,776.4494437505424,764,774.8012173367995,776,774.6987430347384,788,777.5166162533684,800,782.5150005366368,812,786.4387884851014,824,791.6487064291232,836,798.1855244605348,848,801.7869296564705,860,800.5174487389338,872,803.0532351366707,884,805.1852558974621,896,804.6641845449846,908,803.1044033106842,920,801.176159224123,932,798.9145439855163,944,790.39211691164,956,780.9936236874884,968,774.6677269162319,980,768.1280031899405,992,760.1430565107129,1004,750.6872684969364" fill="none" stroke="#0090ff" stroke-width="2"/><line x1="80" y1="50" x2="80" y2="900" stroke="#666666" stroke-width="0.5" stroke-dasharray="4,4" opacity="0.90"/><line x1="152" y1="50" x2="152" y2="900" stroke="#666666" stroke-width="0.5" stroke-dasharray="4,4" opacity="0.90"/><line x1="224" y1="50" x2="224" y2="900" stroke="#666666" stroke-width="0.5" stroke-dasharray="4,4" opacity="0.90"/><line x1="290" y1="30" x2="290" y2="950" stroke="black" stroke-width="0.7"/><line x1="296" y1="50" x2="296" y2="900" stroke="#666666" stroke-width="0.5" stroke-dasharray="4,4" opacity="0.90"/><line x1="368" y1="50" x2="368" y2="900" stroke="#666666" stroke-width="0.5" stroke-dasharray="4,4" opacity="0.90"/><line x1="440" y1="50" x2="440" y2="900" stroke="#666666" stroke-width="0.5" stroke-dasharray="4,4" opacity="0.90"/><line x1="512" y1="50" x2="512" y2="900" stroke="#666666" stroke-width="0.5" stroke-dasharray="4,4" opacity="0.90"/><line x1="584" y1="50" x2="584" y2="900" stroke="#666666" stroke-width="0.5" stroke-dasharray="4,4" opacity="0.90"/><line x1="656" y1="50" x2="656" y2="900" stroke="#666666" stroke-width="0.5" stroke-dasharray="4,4" opacity="0.90"/><line x1="728" y1="50" x2="728" y2="900" stroke="#666666" stroke-width="0.5" stroke-dasharray="4,4" opacity="0.90"/><line x1="800" y1="50" x2="800" y2="900" stroke="#666666" stroke-width="0.5" stroke-dasharray="4,4" opacity="0.90"/><line x1="872" y1="50" x2="872" y2="900" stroke="#666666" stroke-width="0.5" stroke-dasharray="4,4" opacity="0.90"/><line x1="944" y1="50" x2="944" y2="900" stroke="#666666" stroke-width="0.5" stroke-dasharray="4,4" opacity="0.90"/><text x="80" y="1040" text-anchor="middle" font-size="20" fill="black">14:30</text><text x="152" y="1040" text-anchor="middle" font-size="20" fill="black">15:00</text><text x="224" y="1040" text-anchor="middle" font-size="20" fill="black">15:30</text><text x="296" y="1040" text-anchor="middle" font-size="20" fill="black">16:00</text><text x="368" y="1040" text-anchor="middle" font-size="20" fill="black">16:30</text><text x="440" y="1040" text-anchor="middle" font-size="20" fill="black">17:00</text><text x="512" y="1040" text-anchor="middle" font-size="20" fill="black">17:30</text><text x="584" y="1040" text-anchor="middle" font-size="20" fill="black">18:00</text><text x="656" y="1040" text-anchor="middle" font-size="20" fill="black">18:30</text><text x="728" y="1040" text-anchor="middle" font-size="20" fill="black">19:00</text><text x="800" y="1040" text-anchor="middle" font-size="20" fill="black">19:30</text><text x="872" y="1040" text-anchor="middle" font-size="20" fill="black">20:00</text><text x="944" y="1040" text-anchor="middle" font-size="20" fill="black">20:30</text><text x="1006" y="50" text-anchor="end" font-size="40" fill="#ef5350" font-weight="bold">▼ -2.20% (Tue)</text></svg>