<svg xmlns="http://www.w3.org/2000/svg" width="1056" height="1050"><rect width="100%" height="100%" fill="white"/><text x="42" y="854.0" text-anchor="end" font-size="20" fill="black">690</text><text x="42" y="454.0" text-anchor="end" font-size="20" fill="black">691</text><text x="42" y="54.0" text-anchor="end" font-size="20" fill="black">692</text><line x1="30056" y1="497.998046875" x2="30056" y2="743.994140625" stroke="#ef5350" stroke-width="2"/><rect x="30052" y="665.9912109375" width="8" height="47.998046875" fill="#ef5350"/><line x1="30068" y1="626.0009765625" x2="30068" y2="769.9951171875" stroke="#ef5350" stroke-width="2"/><rect x="30064" y="702.001953125" width="8" height="8.9599609375" fill="#ef5350"/><line x1="30080" y1="686.0107421875" x2="30080" y2="810.009765625" stroke="#ef5350" stroke-width="2"/><rect x="30076" y="710.009765625" width="8" height="87.1826171875" fill="#ef5350"/><line x1="30092" y1="402.001953125" x2="30092" y2="893.994140625" stroke="#26a69a" stroke-width="2"/><rect x="30088" y="435.4736328125" width="8" height="358.5205078125" fill="#26a69a"/><line x1="30104" y1="373.9990234375" x2="30104" y2="506.005859375" stroke="#26a69a" stroke-width="2"/><rect x="30100" y="441.9921875" width="8" height="4.00390625" fill="#26a69a"/><line x1="30116" y1="234.0087890625" x2="30116" y2="421.9970703125" stroke="#26a69a" stroke-width="2"/><rect x="30112" y="406.005859375" width="8" height="11.9873046875" fill="#26a69a"/><line x1="30128" y1="378.0029296875" x2="30128" y2="541.9921875" stroke="#ef5350" stroke-width="2"/><rect x="30124" y="402.001953125" width="8" height="115.9912109375" fill="#ef5350"/><line x1="30140" y1="506.005859375" x2="30140" y2="662.01171875" stroke="#ef5350" stroke-width="2"/><rect x="30136" y="506.005859375" width="8" height="133.984375" fill="#ef5350"/><line x1="30152" y1="626.0009765625" x2="30152" y2="913.9892578125" stroke="#ef5350" stroke-width="2"/><rect x="30148" y="642.2119140625" width="8" height="235.791015625" fill="#ef5350"/><line x1="30164" y1="741.9921875" x2="30164" y2="945.99609375" stroke="#ef5350" stroke-width="2"/><rect x="30160" y="867.9931640625" width="8" height="2.001953125" fill="#ef5350"/><line x1="30176" y1="682.0068359375" x2="30176" y2="913.9892578125" stroke="#26a69a" stroke-width="2"/><rect x="30172" y="806.005859375" width="8" height="83.984375" fill="#26a69a"/><line x1="30188" y1="821.9970703125" x2="30188" y2="908.837890625" stroke="#ef5350" stroke-width="2"/><rect x="30184" y="830.0048828125" width="8" height="43.994140625" fill="#ef5350"/><line x1="30200" y1="850.0" x2="30200" y2="941.9921875" stroke="#ef5350" stroke-width="2"/><rect x="30196" y="865.9912109375" width="8" height="50.0" fill="#ef5350"/><line x1="30212" y1="850.0" x2="30212" y2="958.0078125" stroke="#26a69a" stroke-width="2"/><rect x="30208" y="873.9990234375" width="8" height="43.994140625" fill="#26a69a"/><line x1="30224" y1="850.0" x2="30224" y2="1013.9892578125" stroke="#ef5350" stroke-width="2"/><rect x="30220" y="875.2685546875" width="8" height="50.732421875" fill="#ef5350"/><line x1="30236" y1="834.0087890625" x2="30236" y2="956.005859375" stroke="#26a69a" stroke-width="2"/><rect x="30232" y="841.9921875" width="8" height="92.0166015625" fill="#26a69a"/><line x1="30248" y1="627.83203125" x2="30248" y2="830.0048828125" stroke="#26a69a" stroke-width="2"/><rect x="30244" y="689.990234375" width="8" height="120.0439453125" fill="#26a69a"/><line x1="30260" y1="550.0" x2="30260" y2="669.9951171875" stroke="#26a69a" stroke-width="2"/><rect x="30256" y="597.998046875" width="8" height="71.9970703125" fill="#26a69a"/><line x1="30272" y1="454.00390625" x2="30272" y2="630.0048828125" stroke="#26a69a" stroke-width="2"/><rect x="30268" y="482.0068359375" width="8" height="128.0029296875" fill="#26a69a"/><line x1="30284" y1="437.98828125" x2="30284" y2="560.009765625" stroke="#ef5350" stroke-width="2"/><rect x="30280" y="478.4912109375" width="8" height="71.5087890625" fill="#ef5350"/><line x1="30296" y1="486.0107421875" x2="30296" y2="558.0322265625" stroke="#26a69a" stroke-width="2"/><rect x="30292" y="526.0009765625" width="8" height="12.2314453125" fill="#26a69a"/><line x1="30308" y1="441.9921875" x2="30308" y2="526.0009765625" stroke="#26a69a" stroke-width="2"/><rect x="30304" y="456.005859375" width="8" height="65.9912109375" fill="#26a69a"/><line x1="30320" y1="226.0009765625" x2="30320" y2="454.00390625" stroke="#26a69a" stroke-width="2"/><rect x="30316" y="317.9931640625" width="8" height="136.0107421875" fill="#26a69a"/><line x1="30332" y1="313.9892578125" x2="30332" y2="389.990234375" stroke="#ef5350" stroke-width="2"/><rect x="30328" y="313.9892578125" width="8" height="32.0068359375" fill="#ef5350"/><line x1="30344" y1="334.0087890625" x2="30344" y2="458.0078125" stroke="#ef5350" stroke-width="2"/><rect x="30340" y="356.005859375" width="8" height="81.982421875" fill="#ef5350"/><line x1="30356" y1="406.005859375" x2="30356" y2="626.0009765625" stroke="#ef5350" stroke-width="2"/><rect x="30352" y="410.009765625" width="8" height="191.9921875" fill="#ef5350"/><line x1="30368" y1="586.0107421875" x2="30368" y2="680.0048828125" stroke="#26a69a" stroke-width="2"/><rect x="30364" y="597.998046875" width="8" height="4.00390625" fill="#26a69a"/><line x1="30380" y1="578.0029296875" x2="30380" y2="641.9921875" stroke="#ef5350" stroke-width="2"/><rect x="30376" y="589.990234375" width="8" height="34.0087890625" fill="#ef5350"/><line x1="30392" y1="621.9970703125" x2="30392" y2="721.9970703125" stroke="#ef5350" stroke-width="2"/><rect x="30388" y="621.9970703125" width="8" height="84.0087890625" fill="#ef5350"/><line x1="30404" y1="667.9931640625" x2="30404" y2="760.009765625" stroke="#ef5350" stroke-width="2"/><rect x="30400" y="667.9931640625" width="8" height="90.0146484375" fill="#ef5350"/><line x1="30416" y1="728.0029296875" x2="30416" y2="821.9970703125" stroke="#ef5350" stroke-width="2"/><rect x="30412" y="758.0078125" width="8" height="63.9892578125" fill="#ef5350"/><line x1="30428" y1="737.98828125" x2="30428" y2="802.001953125" stroke="#26a69a" stroke-width="2"/><rect x="30424" y="758.0078125" width="8" height="35.986328125" fill="#26a69a"/><line x1="30440" y1="728.0029296875" x2="30440" y2="834.0087890625" stroke="#ef5350" stroke-width="2"/><rect x="30436" y="750.0" width="8" height="71.9970703125" fill="#ef5350"/><line x1="30452" y1="732.0068359375" x2="30452" y2="902.001953125" stroke="#26a69a" stroke-width="2"/><rect x="30448" y="745.99609375" width="8" height="71.9970703125" fill="#26a69a"/><line x1="30464" y1="682.0068359375" x2="30464" y2="769.9951171875" stroke="#26a69a" stroke-width="2"/><rect x="30460" y="717.9931640625" width="8" height="23.9990234375" fill="#26a69a"/><line x1="30476" y1="684.0087890625" x2="30476" y2="734.0087890625" stroke="#26a69a" stroke-width="2"/><rect x="30472" y="697.998046875" width="8" height="15.9912109375" fill="#26a69a"/><line x1="30488" y1="578.0029296875" x2="30488" y2="702.001953125" stroke="#26a69a" stroke-width="2"/><rect x="30484" y="586.0107421875" width="8" height="107.5439453125" fill="#26a69a"/><line x1="30500" y1="568.84765625" x2="30500" y2="617.28515625" stroke="#ef5350" stroke-width="2"/><rect x="30496" y="589.990234375" width="8" height="16.015625" fill="#ef5350"/><line x1="30512" y1="558.0322265625" x2="30512" y2="693.603515625" stroke="#ef5350" stroke-width="2"/><rect x="30508" y="589.990234375" width="8" height="84.0087890625" fill="#ef5350"/><line x1="30524" y1="662.01171875" x2="30524" y2="760.009765625" stroke="#26a69a" stroke-width="2"/><rect x="30520" y="669.4091796875" width="8" height="20.5810546875" fill="#26a69a"/><line x1="30536" y1="578.0029296875" x2="30536" y2="689.990234375" stroke="#26a69a" stroke-width="2"/><rect x="30532" y="597.998046875" width="8" height="80.0048828125" fill="#26a69a"/><line x1="30548" y1="569.9951171875" x2="30548" y2="621.435546875" stroke="#26a69a" stroke-width="2"/><rect x="30544" y="589.990234375" width="8" height="16.015625" fill="#26a69a"/><line x1="30560" y1="602.001953125" x2="30560" y2="758.0078125" stroke="#ef5350" stroke-width="2"/><rect x="30556" y="602.001953125" width="8" height="47.998046875" fill="#ef5350"/><line x1="30572" y1="542.041015625" x2="30572" y2="641.9921875" stroke="#26a69a" stroke-width="2"/><rect x="30568" y="554.00390625" width="8" height="83.984375" fill="#26a69a"/><line x1="30584" y1="534.0087890625" x2="30584" y2="606.005859375" stroke="#ef5350" stroke-width="2"/><rect x="30580" y="549.51171875" width="8" height="13.8916015625" fill="#ef5350"/><line x1="30596" y1="545.99609375" x2="30596" y2="597.998046875" stroke="#26a69a" stroke-width="2"/><rect x="30592" y="565.9912109375" width="8" height="4.00390625" fill="#26a69a"/><line x1="30608" y1="563.9892578125" x2="30608" y2="630.0048828125" stroke="#ef5350" stroke-width="2"/><rect x="30604" y="563.9892578125" width="8" height="32.7392578125" fill="#ef5350"/><line x1="30620" y1="534.0087890625" x2="30620" y2="608.0078125" stroke="#26a69a" stroke-width="2"/><rect x="30616" y="534.0087890625" width="8" height="73.9990234375" fill="#26a69a"/><line x1="30632" y1="478.0029296875" x2="30632" y2="549.3896484375" stroke="#26a69a" stroke-width="2"/><rect x="30628" y="506.005859375" width="8" height="39.990234375" fill="#26a69a"/><line x1="30644" y1="502.05078125" x2="30644" y2="626.0009765625" stroke="#ef5350" stroke-width="2"/><rect x="30640" y="506.005859375" width="8" height="100.0" fill="#ef5350"/><line x1="30656" y1="573.9990234375" x2="30656" y2="658.0078125" stroke="#26a69a" stroke-width="2"/><rect x="30652" y="574.0478515625" width="8" height="33.9599609375" fill="#26a69a"/><line x1="30668" y1="491.9921875" x2="30668" y2="602.001953125" stroke="#26a69a" stroke-width="2"/><rect x="30664" y="506.005859375" width="8" height="67.9931640625" fill="#26a69a"/><line x1="30680" y1="497.998046875" x2="30680" y2="550.0" stroke="#ef5350" stroke-width="2"/><rect x="30676" y="497.998046875" width="8" height="45.2392578125" fill="#ef5350"/><line x1="30692" y1="513.9892578125" x2="30692" y2="565.9912109375" stroke="#ef5350" stroke-width="2"/><rect x="30688" y="543.2373046875" width="8" height="2" fill="#ef5350"/><line x1="30704" y1="497.998046875" x2="30704" y2="621.9970703125" stroke="#ef5350" stroke-width="2"/><rect x="30700" y="541.9921875" width="8" height="80.0048828125" fill="#ef5350"/><line x1="30716" y1="543.994140625" x2="30716" y2="669.9951171875" stroke="#26a69a" stroke-width="2"/><rect x="30712" y="593.994140625" width="8" height="40.0146484375" fill="#26a69a"/><line x1="30728" y1="493.994140625" x2="30728" y2="639.2333984375" stroke="#26a69a" stroke-width="2"/><rect x="30724" y="510.009765625" width="8" height="91.9921875" fill="#26a69a"/><line x1="30740" y1="502.001953125" x2="30740" y2="573.9990234375" stroke="#26a69a" stroke-width="2"/><rect x="30736" y="502.05078125" width="8" height="3.955078125" fill="#26a69a"/><line x1="30752" y1="501.1962890625" x2="30752" y2="554.00390625" stroke="#ef5350" stroke-width="2"/><rect x="30748" y="508.3984375" width="8" height="33.59375" fill="#ef5350"/><line x1="30764" y1="510.009765625" x2="30764" y2="565.9912109375" stroke="#26a69a" stroke-width="2"/><rect x="30760" y="530.0048828125" width="8" height="2" fill="#26a69a"/><line x1="30776" y1="482.0068359375" x2="30776" y2="560.009765625" stroke="#ef5350" stroke-width="2"/><rect x="30772" y="521.9970703125" width="8" height="8.0078125" fill="#ef5350"/><line x1="30788" y1="528.759765625" x2="30788" y2="593.994140625" stroke="#ef5350" stroke-width="2"/><rect x="30784" y="528.759765625" width="8" height="5.56640625" fill="#ef5350"/><line x1="30800" y1="490.91796875" x2="30800" y2="552.001953125" stroke="#26a69a" stroke-width="2"/><rect x="30796" y="535.595703125" width="8" height="5.615234375" fill="#26a69a"/><line x1="30812" y1="506.005859375" x2="30812" y2="605.95703125" stroke="#ef5350" stroke-width="2"/><rect x="30808" y="530.0048828125" width="8" height="59.9853515625" fill="#ef5350"/><line x1="30824" y1="573.9990234375" x2="30824" y2="682.0068359375" stroke="#ef5350" stroke-width="2"/><rect x="30820" y="597.998046875" width="8" height="32.0068359375" fill="#ef5350"/><line x1="30836" y1="612.01171875" x2="30836" y2="689.990234375" stroke="#ef5350" stroke-width="2"/><rect x="30832" y="620.751953125" width="8" height="5.2490234375" fill="#ef5350"/><line x1="30848" y1="593.994140625" x2="30848" y2="636.0107421875" stroke="#26a69a" stroke-width="2"/><rect x="30844" y="603.4912109375" width="8" height="18.505859375" fill="#26a69a"/><line x1="30860" y1="590.1123046875" x2="30860" y2="730.0048828125" stroke="#ef5350" stroke-width="2"/><rect x="30856" y="606.005859375" width="8" height="95.99609375" fill="#ef5350"/><line x1="30872" y1="665.9912109375" x2="30872" y2="834.0087890625" stroke="#ef5350" stroke-width="2"/><rect x="30868" y="697.998046875" width="8" height="42.041015625" fill="#ef5350"/><line x1="30884" y1="626.0009765625" x2="30884" y2="753.515625" stroke="#26a69a" stroke-width="2"/><rect x="30880" y="650.0" width="8" height="84.0087890625" fill="#26a69a"/><line x1="30896" y1="565.9912109375" x2="30896" y2="658.0078125" stroke="#26a69a" stroke-width="2"/><rect x="30892" y="571.9970703125" width="8" height="73.9990234375" fill="#26a69a"/><line x1="30908" y1="550.0" x2="30908" y2="650.0" stroke="#ef5350" stroke-width="2"/><rect x="30904" y="565.9912109375" width="8" height="70.01953125" fill="#ef5350"/><line x1="30920" y1="562.01171875" x2="30920" y2="641.9921875" stroke="#26a69a" stroke-width="2"/><rect x="30916" y="565.869140625" width="8" height="76.123046875" fill="#26a69a"/><line x1="30932" y1="550.0" x2="30932" y2="597.998046875" stroke="#ef5350" stroke-width="2"/><rect x="30928" y="558.0078125" width="8" height="7.9833984375" fill="#ef5350"/><line x1="30944" y1="517.9931640625" x2="30944" y2="597.998046875" stroke="#ef5350" stroke-width="2"/><rect x="30940" y="550.0" width="8" height="26.0009765625" fill="#ef5350"/><line x1="30956" y1="566.0400390625" x2="30956" y2="669.9951171875" stroke="#ef5350" stroke-width="2"/><rect x="30952" y="569.9951171875" width="8" height="88.0126953125" fill="#ef5350"/><line x1="30968" y1="610.0341796875" x2="30968" y2="749.951171875" stroke="#ef5350" stroke-width="2"/><rect x="30964" y="645.99609375" width="8" height="100.8056640625" fill="#ef5350"/><line x1="30980" y1="713.5986328125" x2="30980" y2="969.9951171875" stroke="#ef5350" stroke-width="2"/><rect x="30976" y="737.98828125" width="8" height="140.0146484375" fill="#ef5350"/><rect x="30051" y="895.6413180797305" width="10" height="124.35868192026953" fill="#ef5350" opacity="0.9"/><rect x="30063" y="988.9291479505896" width="10" height="31.070852049410405" fill="#ef5350" opacity="0.9"/><rect x="30075" y="986.493542953397" width="10" height="33.50645704660303" fill="#ef5350" opacity="0.9"/><rect x="30087" y="971.0061061201573" width="10" height="48.993893879842744" fill="#26a69a" opacity="0.9"/><rect x="30099" y="996.5360050533408" width="10" height="23.463994946659227" fill="#26a69a" opacity="0.9"/><rect x="30111" y="989.4576431779899" width="10" height="30.542356822010106" fill="#26a69a" opacity="0.9"/><rect x="30123" y="964.8320816956766" width="10" height="55.16791830432339" fill="#ef5350" opacity="0.9"/><rect x="30135" y="987.5136861313869" width="10" height="32.48631386861314" fill="#ef5350" opacity="0.9"/><rect x="30147" y="985.3670690623245" width="10" height="34.632930937675496" fill="#ef5350" opacity="0.9"/><rect x="30159" y="989.1070676586188" width="10" height="30.892932341381197" fill="#ef5350" opacity="0.9"/><rect x="30171" y="990.7662478944413" width="10" height="29.233752105558665" fill="#26a69a" opacity="0.9"/><rect x="30183" y="993.5024213924761" width="10" height="26.497578607523906" fill="#ef5350" opacity="0.9"/><rect x="30195" y="998.1478102189781" width="10" height="21.852189781021934" fill="#ef5350" opacity="0.9"/><rect x="30207" y="997.8082888826502" width="10" height="22.19171111734977" fill="#26a69a" opacity="0.9"/><rect x="30219" y="1001.5719750140371" width="10" height="18.428024985962907" fill="#ef5350" opacity="0.9"/><rect x="30231" y="999.881211398091" width="10" height="20.118788601909046" fill="#26a69a" opacity="0.9"/><rect x="30243" y="991.4000210555868" width="10" height="28.599978944413238" fill="#26a69a" opacity="0.9"/><rect x="30255" y="998.8963363279057" width="10" height="21.103663672094285" fill="#26a69a" opacity="0.9"/><rect x="30267" y="989.1744455362156" width="10" height="30.825554463784442" fill="#26a69a" opacity="0.9"/><rect x="30279" y="992.1822361033128" width="10" height="27.81776389668721" fill="#ef5350" opacity="0.9"/><rect x="30291" y="996.3359769792252" width="10" height="23.664023020774835" fill="#26a69a" opacity="0.9"/><rect x="30303" y="996.8023582257159" width="10" height="23.19764177428408" fill="#26a69a" opacity="0.9"/><rect x="30315" y="994.5088784390791" width="10" height="25.491121560920874" fill="#26a69a" opacity="0.9"/><rect x="30327" y="995.4990174059517" width="10" height="24.50098259404831" fill="#ef5350" opacity="0.9"/><rect x="30339" y="995.3916339135317" width="10" height="24.608366086468322" fill="#ef5350" opacity="0.9"/><rect x="30351" y="998.7942167321729" width="10" height="21.205783267827087" fill="#ef5350" opacity="0.9"/><rect x="30363" y="989.7355769230769" width="10" height="30.264423076923094" fill="#26a69a" opacity="0.9"/><rect x="30375" y="989.4923848961257" width="10" height="30.507615103874286" fill="#ef5350" opacity="0.9"/><rect x="30387" y="989.48238349242" width="10" height="30.517616507579987" fill="#ef5350" opacity="0.9"/><rect x="30399" y="1002.055200729927" width="10" height="17.944799270072963" fill="#ef5350" opacity="0.9"/><rect x="30411" y="995.6116647950589" width="10" height="24.388335204941086" fill="#ef5350" opacity="0.9"/><rect x="30423" y="1000.9803130263897" width="10" height="19.019686973610305" fill="#26a69a" opacity="0.9"/><rect x="30435" y="996.0385668163952" width="10" height="23.961433183604754" fill="#ef5350" opacity="0.9"/><rect x="30447" y="995.8759124087592" width="10" height="24.124087591240823" fill="#26a69a" opacity="0.9"/><rect x="30459" y="998.7057832678271" width="10" height="21.294216732172913" fill="#26a69a" opacity="0.9"/><rect x="30471" y="992.6749368332397" width="10" height="27.325063166760287" fill="#26a69a" opacity="0.9"/><rect x="30483" y="999.0479365524986" width="10" height="20.95206344750136" fill="#26a69a" opacity="0.9"/><rect x="30495" y="1001.4219539584503" width="10" height="18.57804604154967" fill="#ef5350" opacity="0.9"/><rect x="30507" y="999.5627456485121" width="10" height="20.437254351487923" fill="#ef5350" opacity="0.9"/><rect x="30519" y="993.4355699045481" width="10" height="26.56443009545194" fill="#26a69a" opacity="0.9"/><rect x="30531" y="1000.5755193711398" width="10" height="19.424480628860238" fill="#26a69a" opacity="0.9"/><rect x="30543" y="983.2925673778776" width="10" height="36.70743262212238" fill="#26a69a" opacity="0.9"/><rect x="30555" y="996.1664795058956" width="10" height="23.83352049410439" fill="#ef5350" opacity="0.9"/><rect x="30567" y="992.2069764177428" width="10" height="27.793023582257206" fill="#26a69a" opacity="0.9"/><rect x="30579" y="1000.5802568781584" width="10" height="19.419743121841634" fill="#ef5350" opacity="0.9"/><rect x="30591" y="998.4194272880404" width="10" height="21.580572711959576" fill="#26a69a" opacity="0.9"/><rect x="30603" y="999.4706274564851" width="10" height="20.52937254351491" fill="#ef5350" opacity="0.9"/><rect x="30615" y="999.0774143739472" width="10" height="20.92258562605275" fill="#26a69a" opacity="0.9"/><rect x="30627" y="994.7562815833801" width="10" height="25.243718416619913" fill="#26a69a" opacity="0.9"/><rect x="30639" y="999.5627456485121" width="10" height="20.437254351487923" fill="#ef5350" opacity="0.9"/><rect x="30651" y="995.0273722627737" width="10" height="24.972627737226276" fill="#26a69a" opacity="0.9"/><rect x="30663" y="997.2455783267827" width="10" height="22.75442167321728" fill="#26a69a" opacity="0.9"/><rect x="30675" y="1000.8866156653565" width="10" height="19.113384334643456" fill="#ef5350" opacity="0.9"/><rect x="30687" y="999.4158829309376" width="10" height="20.58411706906236" fill="#ef5350" opacity="0.9"/><rect x="30699" y="999.7596153846154" width="10" height="20.24038461538464" fill="#ef5350" opacity="0.9"/><rect x="30711" y="994.65310920831" width="10" height="25.346890791690043" fill="#26a69a" opacity="0.9"/><rect x="30723" y="1002.7426656372825" width="10" height="17.25733436271753" fill="#26a69a" opacity="0.9"/><rect x="30735" y="996.2401740595171" width="10" height="23.75982594048287" fill="#26a69a" opacity="0.9"/><rect x="30747" y="999.9217434025828" width="10" height="20.07825659741718" fill="#ef5350" opacity="0.9"/><rect x="30759" y="998.8626473891072" width="10" height="21.137352610892776" fill="#26a69a" opacity="0.9"/><rect x="30771" y="998.2825659741718" width="10" height="21.717434025828197" fill="#ef5350" opacity="0.9"/><rect x="30783" y="998.4683815272319" width="10" height="21.53161847276806" fill="#ef5350" opacity="0.9"/><rect x="30795" y="1002.2731260527794" width="10" height="17.72687394722061" fill="#26a69a" opacity="0.9"/><rect x="30807" y="999.2211187535092" width="10" height="20.778881246490755" fill="#ef5350" opacity="0.9"/><rect x="30819" y="961.7221715328467" width="10" height="58.27782846715331" fill="#ef5350" opacity="0.9"/><rect x="30831" y="1002.1015230207748" width="10" height="17.898476979225165" fill="#ef5350" opacity="0.9"/><rect x="30843" y="999.225329870859" width="10" height="20.774670129140986" fill="#26a69a" opacity="0.9"/><rect x="30855" y="999.923322571589" width="10" height="20.076677428411017" fill="#ef5350" opacity="0.9"/><rect x="30867" y="988.4080221785514" width="10" height="31.59197782144861" fill="#ef5350" opacity="0.9"/><rect x="30879" y="994.8073413812465" width="10" height="25.192658618753512" fill="#26a69a" opacity="0.9"/><rect x="30891" y="993.1123666479506" width="10" height="26.88763335204942" fill="#26a69a" opacity="0.9"/><rect x="30903" y="999.4822080291971" width="10" height="20.517791970802932" fill="#ef5350" opacity="0.9"/><rect x="30915" y="997.4229716451432" width="10" height="22.577028354856793" fill="#26a69a" opacity="0.9"/><rect x="30927" y="995.3132018528917" width="10" height="24.686798147108334" fill="#ef5350" opacity="0.9"/><rect x="30939" y="996.9276389668726" width="10" height="23.072361033127436" fill="#ef5350" opacity="0.9"/><rect x="30951" y="982.1355628860191" width="10" height="37.8644371139809" fill="#ef5350" opacity="0.9"/><rect x="30963" y="975.2219609769792" width="10" height="44.778039023020824" fill="#ef5350" opacity="0.9"/><rect x="30975" y="860.0" width="10" height="160.0" fill="#ef5350" opacity="0.9"/><polyline points="320,682.0525251116123,332,660.5242712319068,344,627.9022610252923,356,601.0540546180891,368,585.5239809639897,380,587.0933116460037,392,588.1318578582977,404,591.5477783896677,416,602.4485480073508,428,617.2637160542763,440,636.7621307455465,452,648.3093385316806,464,664.851027272698,476,672.5791288419714,488,676.9042750534481,500,678.9132057031111,512,670.0653520349533,524,663.9644479721028,536,664.920121825935,548,665.3476511460667,560,658.933403120227,572,652.367387049253,584,652.1419216160211,596,642.7954439620862,608,635.2342893288096,620,628.639710434436,632,625.6005490240113,644,616.8775242657375,656,606.3183180856868,668,606.2885601132621,680,603.2180164417241,692,593.9597157687331,704,589.1290099514663,716,584.830450968002,728,588.3701290008048,740,588.9057491554922,752,581.3918459621163,764,573.8355540847806,776,570.8028525052669,788,566.9173315821354,800,563.4018602707329,812,560.632747090176,824,558.2482667125078,836,561.2713112517667,848,567.8173656860963,860,573.3586619600374,872,576.228428529339,884,588.2068594431985,896,602.667069258132,908,607.1749674239982,920,603.8246915085892,932,606.890029668466,944,602.9832783309757,956,599.4602242935343,968,597.2260102239034,980,603.0147532977935,992,616.7087537277439,1004,641.5939133429674" fill="none" stroke="#0090ff" stroke-width="2"/><line x1="80" y1="50" x2="80" y2="900" stroke="#666666" stroke-width="0.5" stroke-dasharray="4,4" opacity="0.90"/><line x1="152" y1="50" x2="152" y2="900" stroke="#666666" stroke-width="0.5" stroke-dasharray="4,4" opacity="0.90"/><line x1="224" y1="50" x2="224" y2="900" stroke="#666666" stroke-width="0.5" stroke-dasharray="4,4" opacity="0.90"/><line x1="290" y1="30" x2="290" y2="950" stroke="black" stroke-width="0.7"/><line x1="296" y1="50" x2="296" y2="900" stroke="#666666" stroke-width="0.5" stroke-dasharray="4,4" opacity="0.90"/><line x1="368" y1="50" x2="368" y2="900" stroke="#666666" stroke-width="0.5" stroke-dasharray="4,4" opacity="0.90"/><line x1="440" y1="50" x2="440" y2="900" stroke="#666666" stroke-width="0.5" stroke-dasharray="4,4" opacity="0.90"/><line x1="512" y1="50" x2="512" y2="900" stroke="#666666" stroke-width="0.5" stroke-dasharray="4,4" opacity="0.90"/><line x1="584" y1="50" x2="584" y2="900" stroke="#666666" stroke-width="0.5" stroke-dasharray="4,4" opacity="0.90"/><line x1="656" y1="50" x2="656" y2="900" stroke="#666666" stroke-width="0.5" stroke-dasharray="4,4" opacity="0.90"/><line x1="728" y1="50" x2="728" y2="900" stroke="#666666" stroke-width="0.5" stroke-dasharray="4,4" opacity="0.90"/><line x1="800" y1="50" x2="800" y2="900" stroke="#666666" stroke-width="0.5" stroke-dasharray="4,4" opacity="0.90"/><line x1="872" y1="50" x2="872" y2="900" stroke="#666666" stroke-width="0.5" stroke-dasharray="4,4" opacity="0.90"/><line x1="944" y1="50" x2="944" y2="900" stroke="#666666" stroke-width="0.5" stroke-dasharray="4,4" opacity="0.90"/><text x="80" y="1040" text-anchor="middle" font-size="20" fill="black">14:30</text><text x="152" y="1040" text-anchor="middle" font-size="20" fill="black">15:00</text><text x="224" y="1040" text-anchor="middle" font-size="20" fill="black">15:30</text><text x="296" y="1040" text-anchor="middle" font-size="20" fill="black">16:00</text><text x="368" y="1040" text-anchor="middle" font-size="20" fill="black">16:30</text><text x="440" y="1040" text-anchor="middle" font-size="20" fill="black">17:00</text><text x="512" y="1040" text-anchor="middle" font-size="20" fill="black">17:30</text><text x="584" y="1040" text-anchor="middle" font-size="20" fill="black">18:00</text><text x="656" y="1040" text-anchor="middle" font-size="20" fill="black">18:30</text><text x="728" y="1040" text-anchor="middle" font-size="20" fill="black">19:00</text><text x="800" y="1040" text-anchor="middle" font-size="20" fill="black">19:30</text><text x="872" y="1040" text-anchor="middle" font-size="20" fill="black">20:00</text><text x="944" y="1040" text-anchor="middle" font-size="20" fill="black">20:30</text><text x="1006" y="50" text-anchor="end" font-size="40" fill="#ef5350" font-weight="bold">▼ -0.08% (Tue)</text></svg>