<svg xmlns="http://www.w3.org/2000/svg" width="1056" height="1050"><rect width="100%" height="100%" fill="white"/><text x="42" y="854.0" text-anchor="end" font-size="20" fill="black">685</text><text x="42" y="720.6666666666667" text-anchor="end" font-size="20" fill="black">686</text><text x="42" y="587.3333333333334" text-anchor="end" font-size="20" fill="black">687</text><text x="42" y="454.0" text-anchor="end" font-size="20" fill="black">688</text><text x="42" y="320.66666666666674" text-anchor="end" font-size="20" fill="black">689</text><text x="42" y="187.33333333333326" text-anchor="end" font-size="20" fill="black">690</text><text x="42" y="54.0" text-anchor="end" font-size="20" fill="black">691</text><line x1="30992" y1="131.33138020833326" x2="30992" y2="234.00065104166674" stroke="#ef5350" stroke-width="2"/><rect x="30988" y="160.6689453125" width="8" height="46.66341145833326" fill="#ef5350"/><line x1="31004" y1="186.00260416666674" x2="31004" y2="323.9990234375" stroke="#ef5350" stroke-width="2"/><rect x="31000" y="208.6669921875" width="8" height="97.33072916666674" fill="#ef5350"/><line x1="31016" y1="300.66731770833326" x2="31016" y2="348.6653645833333" stroke="#ef5350" stroke-width="2"/><rect x="31012" y="303.33658854166674" width="8" height="37.99641927083326" fill="#ef5350"/><line x1="31028" y1="323.33170572916674" x2="31028" y2="410.0016276041667" stroke="#ef5350" stroke-width="2"/><rect x="31024" y="333.33333333333326" width="8" height="48.39680989583343" fill="#ef5350"/><line x1="31040" y1="262.00358072916674" x2="31040" y2="366.9759114583333" stroke="#26a69a" stroke-width="2"/><rect x="31036" y="264.66471354166674" width="8" height="101.37532552083326" fill="#26a69a"/><line x1="31052" y1="252.66927083333326" x2="31052" y2="337.99641927083326" stroke="#ef5350" stroke-width="2"/><rect x="31048" y="260.6689453125" width="8" height="53.32845052083326" fill="#ef5350"/><line x1="31064" y1="310.33528645833326" x2="31064" y2="367.3177083333333" stroke="#ef5350" stroke-width="2"/><rect x="31060" y="320.67057291666674" width="8" height="26.660156249999943" fill="#ef5350"/><line x1="31076" y1="339.3310546875" x2="31076" y2="374.31640625" stroke="#26a69a" stroke-width="2"/><rect x="31072" y="355.3304036458333" width="8" height="2" fill="#26a69a"/><line x1="31088" y1="347.3307291666667" x2="31088" y2="413.9973958333333" stroke="#ef5350" stroke-width="2"/><rect x="31084" y="355.9977213541667" width="8" height="32.666015625" fill="#ef5350"/><line x1="31100" y1="378.0029296875" x2="31100" y2="460.6689453125" stroke="#ef5350" stroke-width="2"/><rect x="31096" y="387.3372395833333" width="8" height="41.07259114583337" fill="#ef5350"/><line x1="31112" y1="388.6637369791667" x2="31112" y2="439.3310546875" stroke="#26a69a" stroke-width="2"/><rect x="31108" y="411.3362630208333" width="8" height="25.333658854166686" fill="#26a69a"/><line x1="31124" y1="364.6647135416667" x2="31124" y2="413.9973958333333" stroke="#26a69a" stroke-width="2"/><rect x="31120" y="380.6640625" width="8" height="29.337565104166686" fill="#26a69a"/><line x1="31136" y1="367.333984375" x2="31136" y2="421.9970703125" stroke="#ef5350" stroke-width="2"/><rect x="31132" y="379.9967447916667" width="8" height="16.66666666666663" fill="#ef5350"/><line x1="31148" y1="376.6682942708333" x2="31148" y2="432.666015625" stroke="#ef5350" stroke-width="2"/><rect x="31144" y="397.998046875" width="8" height="33.333333333333314" fill="#ef5350"/><line x1="31160" y1="426.0009765625" x2="31160" y2="452.66927083333337" stroke="#26a69a" stroke-width="2"/><rect x="31156" y="429.9967447916667" width="8" height="5.338541666666629" fill="#26a69a"/><line x1="31172" y1="431.3313802083333" x2="31172" y2="472.89225260416663" stroke="#ef5350" stroke-width="2"/><rect x="31168" y="433.3333333333333" width="8" height="29.996744791666686" fill="#ef5350"/><line x1="31184" y1="468.66861979166663" x2="31184" y2="510.6689453125" stroke="#ef5350" stroke-width="2"/><rect x="31180" y="470.00325520833337" width="8" height="35.99446614583326" fill="#ef5350"/><line x1="31196" y1="499.33268229166663" x2="31196" y2="556.6650390625" stroke="#ef5350" stroke-width="2"/><rect x="31192" y="511.33626302083337" width="8" height="23.9990234375" fill="#ef5350"/><line x1="31208" y1="497.998046875" x2="31208" y2="543.3349609375" stroke="#26a69a" stroke-width="2"/><rect x="31204" y="508.6669921875" width="8" height="30.6640625" fill="#26a69a"/><line x1="31220" y1="503.33658854166663" x2="31220" y2="532.666015625" stroke="#ef5350" stroke-width="2"/><rect x="31216" y="507.33235677083337" width="8" height="15.6005859375" fill="#ef5350"/><line x1="31232" y1="496.66341145833337" x2="31232" y2="536.669921875" stroke="#26a69a" stroke-width="2"/><rect x="31228" y="508.6669921875" width="8" height="14.664713541666629" fill="#26a69a"/><line x1="31244" y1="467.333984375" x2="31244" y2="507.33235677083337" stroke="#26a69a" stroke-width="2"/><rect x="31240" y="471.32975260416663" width="8" height="34.66796875" fill="#26a69a"/><line x1="31256" y1="457.99967447916663" x2="31256" y2="487.33723958333337" stroke="#26a69a" stroke-width="2"/><rect x="31252" y="465.99934895833337" width="8" height="2" fill="#26a69a"/><line x1="31268" y1="429.9967447916667" x2="31268" y2="465.99934895833337" stroke="#26a69a" stroke-width="2"/><rect x="31264" y="431.3313802083333" width="8" height="34.66796875000006" fill="#26a69a"/><line x1="31280" y1="428.6702473958333" x2="31280" y2="480.6640625" stroke="#ef5350" stroke-width="2"/><rect x="31276" y="429.9967447916667" width="8" height="41.33300781249994" fill="#ef5350"/><line x1="31292" y1="426.0009765625" x2="31292" y2="479.32942708333337" stroke="#26a69a" stroke-width="2"/><rect x="31288" y="434.0006510416667" width="8" height="35.335286458333314" fill="#26a69a"/><line x1="31304" y1="431.9986979166667" x2="31304" y2="476.0009765625" stroke="#ef5350" stroke-width="2"/><rect x="31300" y="437.9964192708333" width="8" height="18.416341145833314" fill="#ef5350"/><line x1="31316" y1="451.33463541666663" x2="31316" y2="475.33365885416663" stroke="#26a69a" stroke-width="2"/><rect x="31312" y="457.33235677083337" width="8" height="2.001953125" fill="#26a69a"/><line x1="31328" y1="412.6627604166667" x2="31328" y2="459.33430989583337" stroke="#26a69a" stroke-width="2"/><rect x="31324" y="426.6520182291667" width="8" height="28.678385416666686" fill="#26a69a"/><line x1="31340" y1="391.3330078125" x2="31340" y2="424.9348958333333" stroke="#26a69a" stroke-width="2"/><rect x="31336" y="401.3346354166667" width="8" height="22.2900390625" fill="#26a69a"/><line x1="31352" y1="388.6637369791667" x2="31352" y2="413.9973958333333" stroke="#ef5350" stroke-width="2"/><rect x="31348" y="400.9440104166667" width="8" height="3.7190755208333144" fill="#ef5350"/><line x1="31364" y1="394.0022786458333" x2="31364" y2="494.00227864583337" stroke="#ef5350" stroke-width="2"/><rect x="31360" y="405.9977213541667" width="8" height="88.00455729166669" fill="#ef5350"/><line x1="31376" y1="451.33463541666663" x2="31376" y2="495.3369140625" stroke="#26a69a" stroke-width="2"/><rect x="31372" y="454.00390625" width="8" height="37.3291015625" fill="#26a69a"/><line x1="31388" y1="420.4020182291667" x2="31388" y2="459.33430989583337" stroke="#26a69a" stroke-width="2"/><rect x="31384" y="427.3356119791667" width="8" height="27.994791666666686" fill="#26a69a"/><line x1="31400" y1="426.0009765625" x2="31400" y2="462.66276041666663" stroke="#ef5350" stroke-width="2"/><rect x="31396" y="431.3313802083333" width="8" height="30.004882812500057" fill="#ef5350"/><line x1="31412" y1="436.669921875" x2="31412" y2="465.99934895833337" stroke="#26a69a" stroke-width="2"/><rect x="31408" y="449.3326822916667" width="8" height="5.997721354166686" fill="#26a69a"/><line x1="31424" y1="410.0016276041667" x2="31424" y2="457.99967447916663" stroke="#26a69a" stroke-width="2"/><rect x="31420" y="413.9973958333333" width="8" height="34.66796875" fill="#26a69a"/><line x1="31436" y1="407.3323567708333" x2="31436" y2="440.6656901041667" stroke="#ef5350" stroke-width="2"/><rect x="31432" y="418.0013020833333" width="8" height="22.66438802083337" fill="#ef5350"/><line x1="31448" y1="437.9964192708333" x2="31448" y2="463.330078125" stroke="#26a69a" stroke-width="2"/><rect x="31444" y="437.9964192708333" width="8" height="2.6692708333333712" fill="#26a69a"/><line x1="31460" y1="426.0009765625" x2="31460" y2="460.693359375" stroke="#ef5350" stroke-width="2"/><rect x="31456" y="436.669921875" width="8" height="22.66438802083337" fill="#ef5350"/><line x1="31472" y1="457.99967447916663" x2="31472" y2="479.32942708333337" stroke="#26a69a" stroke-width="2"/><rect x="31468" y="460.70963541666663" width="8" height="5.2897135416667425" fill="#26a69a"/><line x1="31484" y1="460.6689453125" x2="31484" y2="492.00032552083337" stroke="#ef5350" stroke-width="2"/><rect x="31480" y="463.32194010416663" width="8" height="12.01171875" fill="#ef5350"/><line x1="31496" y1="457.99967447916663" x2="31496" y2="481.59993489583337" stroke="#26a69a" stroke-width="2"/><rect x="31492" y="458.91927083333337" width="8" height="19.08365885416663" fill="#26a69a"/><line x1="31508" y1="431.34765625" x2="31508" y2="483.33333333333337" stroke="#26a69a" stroke-width="2"/><rect x="31504" y="436.669921875" width="8" height="22.64811197916663" fill="#26a69a"/><line x1="31520" y1="410.0016276041667" x2="31520" y2="444.6695963541667" stroke="#26a69a" stroke-width="2"/><rect x="31516" y="410.0016276041667" width="8" height="26.668294270833314" fill="#26a69a"/><line x1="31532" y1="404.6630859375" x2="31532" y2="448.6653645833333" stroke="#ef5350" stroke-width="2"/><rect x="31528" y="404.6630859375" width="8" height="44.002278645833314" fill="#ef5350"/><line x1="31544" y1="435.3190104166667" x2="31544" y2="451.33463541666663" stroke="#26a69a" stroke-width="2"/><rect x="31540" y="439.3310546875" width="8" height="9.334309895833314" fill="#26a69a"/><line x1="31556" y1="395.3450520833333" x2="31556" y2="443.3349609375" stroke="#26a69a" stroke-width="2"/><rect x="31552" y="399.3326822916667" width="8" height="38.66373697916663" fill="#26a69a"/><line x1="31568" y1="383.3333333333333" x2="31568" y2="415.0634765625" stroke="#26a69a" stroke-width="2"/><rect x="31564" y="387.4267578125" width="8" height="11.905924479166686" fill="#26a69a"/><line x1="31580" y1="376.6682942708333" x2="31580" y2="396.6634114583333" stroke="#ef5350" stroke-width="2"/><rect x="31576" y="386.0026041666667" width="8" height="9.334309895833314" fill="#ef5350"/><line x1="31592" y1="348.681640625" x2="31592" y2="387.3372395833333" stroke="#26a69a" stroke-width="2"/><rect x="31588" y="352.001953125" width="8" height="35.335286458333314" fill="#26a69a"/><line x1="31604" y1="316.68294270833326" x2="31604" y2="357.9996744791667" stroke="#26a69a" stroke-width="2"/><rect x="31600" y="340.6656901041667" width="8" height="10.652669270833314" fill="#26a69a"/><line x1="31616" y1="321.0693359375" x2="31616" y2="345.99609375" stroke="#26a69a" stroke-width="2"/><rect x="31612" y="321.9970703125" width="8" height="13.338216145833258" fill="#26a69a"/><line x1="31628" y1="306.13606770833326" x2="31628" y2="344.0022786458333" stroke="#ef5350" stroke-width="2"/><rect x="31624" y="322.66438802083326" width="8" height="11.442057291666742" fill="#ef5350"/><line x1="31640" y1="286.00260416666674" x2="31640" y2="331.33138020833326" stroke="#26a69a" stroke-width="2"/><rect x="31636" y="307.33235677083326" width="8" height="21.337890625" fill="#26a69a"/><line x1="31652" y1="304.6630859375" x2="31652" y2="326.0009765625" stroke="#ef5350" stroke-width="2"/><rect x="31648" y="306.0302734375" width="8" height="10.636393229166742" fill="#ef5350"/><line x1="31664" y1="311.33626302083326" x2="31664" y2="332.666015625" stroke="#ef5350" stroke-width="2"/><rect x="31660" y="311.33626302083326" width="8" height="17.333984375" fill="#ef5350"/><line x1="31676" y1="324.6826171875" x2="31676" y2="389.3310546875" stroke="#ef5350" stroke-width="2"/><rect x="31672" y="324.6826171875" width="8" height="60.25390625" fill="#ef5350"/><line x1="31688" y1="383.3333333333333" x2="31688" y2="420.6705729166667" stroke="#ef5350" stroke-width="2"/><rect x="31684" y="383.3333333333333" width="8" height="9.334309895833371" fill="#ef5350"/><line x1="31700" y1="397.998046875" x2="31700" y2="444.6695963541667" stroke="#ef5350" stroke-width="2"/><rect x="31696" y="397.998046875" width="8" height="42.667643229166686" fill="#ef5350"/><line x1="31712" y1="429.9967447916667" x2="31712" y2="567.333984375" stroke="#ef5350" stroke-width="2"/><rect x="31708" y="439.3310546875" width="8" height="121.337890625" fill="#ef5350"/><line x1="31724" y1="472.66438802083337" x2="31724" y2="560.6689453125" stroke="#26a69a" stroke-width="2"/><rect x="31720" y="512.6627604166666" width="8" height="48.00618489583337" fill="#26a69a"/><line x1="31736" y1="471.32975260416663" x2="31736" y2="515.33203125" stroke="#26a69a" stroke-width="2"/><rect x="31732" y="504.6630859375" width="8" height="6.673177083333371" fill="#26a69a"/><line x1="31748" y1="497.86783854166663" x2="31748" y2="539.3310546875" stroke="#ef5350" stroke-width="2"/><rect x="31744" y="510.00162760416663" width="8" height="24.66634114583337" fill="#ef5350"/><line x1="31760" y1="524.6663411458334" x2="31760" y2="575.3336588541666" stroke="#ef5350" stroke-width="2"/><rect x="31756" y="532.666015625" width="8" height="33.33333333333337" fill="#ef5350"/><line x1="31772" y1="546.6634114583334" x2="31772" y2="568.9371744791666" stroke="#26a69a" stroke-width="2"/><rect x="31768" y="562.6302083333334" width="8" height="2.0345052083332575" fill="#26a69a"/><line x1="31784" y1="554.00390625" x2="31784" y2="660.6689453125" stroke="#ef5350" stroke-width="2"/><rect x="31780" y="557.9996744791666" width="8" height="78.67024739583337" fill="#ef5350"/><line x1="31796" y1="599.3489583333334" x2="31796" y2="684.66796875" stroke="#ef5350" stroke-width="2"/><rect x="31792" y="629.9967447916666" width="8" height="38.00455729166663" fill="#ef5350"/><line x1="31808" y1="670.0032552083333" x2="31808" y2="721.9970703125" stroke="#ef5350" stroke-width="2"/><rect x="31804" y="670.0032552083333" width="8" height="11.328125" fill="#ef5350"/><line x1="31820" y1="643.3349609375" x2="31820" y2="686.0026041666667" stroke="#26a69a" stroke-width="2"/><rect x="31816" y="660.0016276041667" width="8" height="24.666341145833258" fill="#26a69a"/><line x1="31832" y1="663.330078125" x2="31832" y2="735.3352864583334" stroke="#ef5350" stroke-width="2"/><rect x="31828" y="663.330078125" width="8" height="57.34049479166674" fill="#ef5350"/><line x1="31844" y1="709.3180338541667" x2="31844" y2="772.6643880208334" stroke="#ef5350" stroke-width="2"/><rect x="31840" y="724.6663411458334" width="8" height="30.6640625" fill="#ef5350"/><line x1="31856" y1="655.3304036458333" x2="31856" y2="773.9990234375" stroke="#26a69a" stroke-width="2"/><rect x="31852" y="669.7347005208333" width="8" height="82.93457031250011" fill="#26a69a"/><line x1="31868" y1="621.9970703125" x2="31868" y2="681.9986979166667" stroke="#ef5350" stroke-width="2"/><rect x="31864" y="673.0631510416667" width="8" height="8.935546875" fill="#ef5350"/><line x1="31880" y1="656.6650390625" x2="31880" y2="710.0016276041667" stroke="#26a69a" stroke-width="2"/><rect x="31876" y="659.3343098958333" width="8" height="26.668294270833485" fill="#26a69a"/><line x1="31892" y1="650.6673177083333" x2="31892" y2="743.3349609375" stroke="#ef5350" stroke-width="2"/><rect x="31888" y="659.3343098958333" width="8" height="84.00065104166674" fill="#ef5350"/><line x1="31904" y1="716.6666666666667" x2="31904" y2="779.3294270833334" stroke="#ef5350" stroke-width="2"/><rect x="31900" y="745.99609375" width="8" height="32.0068359375" fill="#ef5350"/><line x1="31916" y1="712.6627604166667" x2="31916" y2="881.9986979166666" stroke="#ef5350" stroke-width="2"/><rect x="31912" y="783.3333333333334" width="8" height="77.33561197916663" fill="#ef5350"/><rect x="30987" y="972.0415698158376" width="10" height="47.95843018416235" fill="#ef5350" opacity="0.9"/><rect x="30999" y="995.5960777785036" width="10" height="24.403922221496373" fill="#ef5350" opacity="0.9"/><rect x="31011" y="1001.8701148722834" width="10" height="18.129885127716648" fill="#ef5350" opacity="0.9"/><rect x="31023" y="996.7776754536623" width="10" height="23.222324546337745" fill="#ef5350" opacity="0.9"/><rect x="31035" y="1003.5726523464418" width="10" height="16.427347653558172" fill="#26a69a" opacity="0.9"/><rect x="31047" y="1004.1609223500454" width="10" height="15.839077649954561" fill="#ef5350" opacity="0.9"/><rect x="31059" y="992.6774872662672" width="10" height="27.322512733732765" fill="#ef5350" opacity="0.9"/><rect x="31071" y="1001.9298585749599" width="10" height="18.070141425040106" fill="#26a69a" opacity="0.9"/><rect x="31083" y="1003.3643396476913" width="10" height="16.63566035230872" fill="#ef5350" opacity="0.9"/><rect x="31095" y="1001.3981712315632" width="10" height="18.601828768436803" fill="#ef5350" opacity="0.9"/><rect x="31107" y="994.8740956784335" width="10" height="25.12590432156651" fill="#26a69a" opacity="0.9"/><rect x="31119" y="1000.2908580544416" width="10" height="19.709141945558372" fill="#26a69a" opacity="0.9"/><rect x="31131" y="999.0751211206107" width="10" height="20.924878879389325" fill="#ef5350" opacity="0.9"/><rect x="31143" y="1003.9440748366268" width="10" height="16.055925163373217" fill="#ef5350" opacity="0.9"/><rect x="31155" y="998.7046469431666" width="10" height="21.29535305683339" fill="#26a69a" opacity="0.9"/><rect x="31167" y="1001.4493801195717" width="10" height="18.550619880428258" fill="#ef5350" opacity="0.9"/><rect x="31179" y="996.0762401296449" width="10" height="23.92375987035507" fill="#ef5350" opacity="0.9"/><rect x="31191" y="996.9271927624771" width="10" height="23.072807237522852" fill="#ef5350" opacity="0.9"/><rect x="31203" y="999.9048947688962" width="10" height="20.095105231103844" fill="#26a69a" opacity="0.9"/><rect x="31215" y="1001.6248179766378" width="10" height="18.375182023362186" fill="#ef5350" opacity="0.9"/><rect x="31227" y="1002.2017082273507" width="10" height="17.79829177264935" fill="#26a69a" opacity="0.9"/><rect x="31239" y="1002.3916868797771" width="10" height="17.608313120222874" fill="#26a69a" opacity="0.9"/><rect x="31251" y="1002.875326377635" width="10" height="17.12467362236498" fill="#26a69a" opacity="0.9"/><rect x="31263" y="1002.9180004509753" width="10" height="17.08199954902466" fill="#26a69a" opacity="0.9"/><rect x="31275" y="1000.0891835448773" width="10" height="19.9108164551227" fill="#ef5350" opacity="0.9"/><rect x="31287" y="992.3961544864676" width="10" height="27.603845513532406" fill="#26a69a" opacity="0.9"/><rect x="31299" y="1005.1680304808789" width="10" height="14.831969519121117" fill="#ef5350" opacity="0.9"/><rect x="31311" y="1006.6281159976145" width="10" height="13.371884002385514" fill="#26a69a" opacity="0.9"/><rect x="31323" y="1003.2224088408036" width="10" height="16.77759115919639" fill="#26a69a" opacity="0.9"/><rect x="31335" y="998.9736516573346" width="10" height="21.026348342665415" fill="#26a69a" opacity="0.9"/><rect x="31347" y="990.6642193173412" width="10" height="29.335780682658765" fill="#ef5350" opacity="0.9"/><rect x="31359" y="964.6014241550007" width="10" height="55.3985758449993" fill="#ef5350" opacity="0.9"/><rect x="31371" y="1004.5140107939063" width="10" height="15.485989206093677" fill="#26a69a" opacity="0.9"/><rect x="31383" y="1000.4321566528354" width="10" height="19.567843347164626" fill="#26a69a" opacity="0.9"/><rect x="31395" y="1003.803408446727" width="10" height="16.196591553273038" fill="#ef5350" opacity="0.9"/><rect x="31407" y="1005.2353606854826" width="10" height="14.764639314517353" fill="#26a69a" opacity="0.9"/><rect x="31419" y="1000.1508238730356" width="10" height="19.84917612696438" fill="#26a69a" opacity="0.9"/><rect x="31431" y="1005.6731650675304" width="10" height="14.326834932469637" fill="#ef5350" opacity="0.9"/><rect x="31443" y="1003.5508411534012" width="10" height="16.449158846598834" fill="#26a69a" opacity="0.9"/><rect x="31455" y="1005.22208430711" width="10" height="14.77791569289002" fill="#ef5350" opacity="0.9"/><rect x="31467" y="999.498384707298" width="10" height="20.501615292702013" fill="#26a69a" opacity="0.9"/><rect x="31479" y="1003.9187864968695" width="10" height="16.08121350313047" fill="#ef5350" opacity="0.9"/><rect x="31491" y="999.2730023792113" width="10" height="20.726997620788666" fill="#26a69a" opacity="0.9"/><rect x="31503" y="1004.7792222571107" width="10" height="15.220777742889254" fill="#26a69a" opacity="0.9"/><rect x="31515" y="1006.2699698858021" width="10" height="13.730030114197916" fill="#26a69a" opacity="0.9"/><rect x="31527" y="1004.6638442069682" width="10" height="15.336155793031821" fill="#ef5350" opacity="0.9"/><rect x="31539" y="1007.0191369511114" width="10" height="12.980863048888637" fill="#26a69a" opacity="0.9"/><rect x="31551" y="1006.038581577023" width="10" height="13.961418422976976" fill="#26a69a" opacity="0.9"/><rect x="31563" y="1003.561904802045" width="10" height="16.438095197955022" fill="#26a69a" opacity="0.9"/><rect x="31575" y="1005.1863645272028" width="10" height="14.81363547279716" fill="#ef5350" opacity="0.9"/><rect x="31587" y="997.3077822758241" width="10" height="22.692217724175862" fill="#26a69a" opacity="0.9"/><rect x="31599" y="1002.4226650959798" width="10" height="17.577334904020177" fill="#26a69a" opacity="0.9"/><rect x="31611" y="1003.8580944814521" width="10" height="16.1419055185479" fill="#26a69a" opacity="0.9"/><rect x="31623" y="1004.7065182803086" width="10" height="15.293481719691385" fill="#ef5350" opacity="0.9"/><rect x="31635" y="1004.1444849292031" width="10" height="15.855515070796855" fill="#26a69a" opacity="0.9"/><rect x="31647" y="1003.9715759061128" width="10" height="16.028424093887224" fill="#ef5350" opacity="0.9"/><rect x="31659" y="1005.1835195889802" width="10" height="14.816480411019825" fill="#ef5350" opacity="0.9"/><rect x="31671" y="1004.2279364504022" width="10" height="15.77206354959776" fill="#ef5350" opacity="0.9"/><rect x="31683" y="1005.9949591909417" width="10" height="14.0050408090583" fill="#ef5350" opacity="0.9"/><rect x="31695" y="1004.8086199520786" width="10" height="15.19138004792137" fill="#ef5350" opacity="0.9"/><rect x="31707" y="999.5135577111523" width="10" height="20.486442288847684" fill="#ef5350" opacity="0.9"/><rect x="31719" y="1002.5399397716042" width="10" height="17.460060228395832" fill="#26a69a" opacity="0.9"/><rect x="31731" y="999.6302001782828" width="10" height="20.36979982171715" fill="#26a69a" opacity="0.9"/><rect x="31743" y="1004.7602560022929" width="10" height="15.239743997707137" fill="#ef5350" opacity="0.9"/><rect x="31755" y="999.6542241010523" width="10" height="20.34577589894775" fill="#ef5350" opacity="0.9"/><rect x="31767" y="1000.2801105100448" width="10" height="19.71988948995522" fill="#26a69a" opacity="0.9"/><rect x="31779" y="1002.5184446828105" width="10" height="17.48155531718953" fill="#ef5350" opacity="0.9"/><rect x="31791" y="997.3564623298569" width="10" height="22.643537670143132" fill="#ef5350" opacity="0.9"/><rect x="31803" y="1000.7014774712503" width="10" height="19.298522528749686" fill="#ef5350" opacity="0.9"/><rect x="31815" y="996.7602897200792" width="10" height="23.239710279920814" fill="#26a69a" opacity="0.9"/><rect x="31827" y="996.8216139439905" width="10" height="23.178386056009458" fill="#ef5350" opacity="0.9"/><rect x="31839" y="996.027876179859" width="10" height="23.97212382014095" fill="#ef5350" opacity="0.9"/><rect x="31851" y="997.4614089398495" width="10" height="22.538591060150452" fill="#26a69a" opacity="0.9"/><rect x="31863" y="1004.0837929137857" width="10" height="15.916207086214285" fill="#ef5350" opacity="0.9"/><rect x="31875" y="997.7010159590498" width="10" height="22.298984040950245" fill="#26a69a" opacity="0.9"/><rect x="31887" y="995.3141127902101" width="10" height="24.68588720978994" fill="#ef5350" opacity="0.9"/><rect x="31899" y="977.5569567168991" width="10" height="42.443043283100906" fill="#ef5350" opacity="0.9"/><rect x="31911" y="860.0" width="10" height="160.0" fill="#ef5350" opacity="0.9"/><polyline points="320,406.77746000743963,332,412.9252973976084,344,417.97996897482034,356,419.2515319494457,368,424.21136248799485,380,425.14367568357255,392,428.1216837533975,404,430.9036526122024,416,430.4987350519089,428,427.721201753305,440,425.52519072323776,452,432.04681814443876,464,434.13796939257736,476,433.49012582939395,488,436.1421388952446,500,437.3983811234666,512,435.1697158577281,524,435.6931419764351,536,435.912501718758,548,438.1431501165783,560,440.2923391927895,572,443.6296077319639,584,445.0857661225655,596,444.2842571466069,608,441.0192448092251,620,441.7474466924735,632,441.51731412057416,644,437.4997301368542,656,432.7308756297801,668,429.16954595671086,680,421.82025140130764,692,414.09124556348615,704,405.3203717300524,716,398.53809302362606,728,389.85183242812127,740,382.88181664132327,752,377.7188100465082,764,378.40621132183213,776,379.7644429320523,788,385.5645617103467,800,402.2411696724703,812,412.75751164810873,824,421.51042348520303,836,432.2873325580379,848,445.0218103104514,860,456.2226101221464,872,473.40806838431797,884,491.9407573080358,896,509.9779594890151,908,524.2659278809393,920,542.9711321700628,932,563.1958246915777,944,573.3423842943618,956,583.6906046393475,968,590.8947670447257,980,605.4128807487965,992,621.8500282667568,1004,644.5946870330166" fill="none" stroke="#0090ff" stroke-width="2"/><line x1="80" y1="50" x2="80" y2="900" stroke="#666666" stroke-width="0.5" stroke-dasharray="4,4" opacity="0.90"/><line x1="152" y1="50" x2="152" y2="900" stroke="#666666" stroke-width="0.5" stroke-dasharray="4,4" opacity="0.90"/><line x1="224" y1="50" x2="224" y2="900" stroke="#666666" stroke-width="0.5" stroke-dasharray="4,4" opacity="0.90"/><line x1="290" y1="30" x2="290" y2="950" stroke="black" stroke-width="0.7"/><line x1="296" y1="50" x2="296" y2="900" stroke="#666666" stroke-width="0.5" stroke-dasharray="4,4" opacity="0.90"/><line x1="368" y1="50" x2="368" y2="900" stroke="#666666" stroke-width="0.5" stroke-dasharray="4,4" opacity="0.90"/><line x1="440" y1="50" x2="440" y2="900" stroke="#666666" stroke-width="0.5" stroke-dasharray="4,4" opacity="0.90"/><line x1="512" y1="50" x2="512" y2="900" stroke="#666666" stroke-width="0.5" stroke-dasharray="4,4" opacity="0.90"/><line x1="584" y1="50" x2="584" y2="900" stroke="#666666" stroke-width="0.5" stroke-dasharray="4,4" opacity="0.90"/><line x1="656" y1="50" x2="656" y2="900" stroke="#666666" stroke-width="0.5" stroke-dasharray="4,4" opacity="0.90"/><line x1="728" y1="50" x2="728" y2="900" stroke="#666666" stroke-width="0.5" stroke-dasharray="4,4" opacity="0.90"/><line x1="800" y1="50" x2="800" y2="900" stroke="#666666" stroke-width="0.5" stroke-dasharray="4,4" opacity="0.90"/><line x1="872" y1="50" x2="872" y2="900" stroke="#666666" stroke-width="0.5" stroke-dasharray="4,4" opacity="0.90"/><line x1="944" y1="50" x2="944" y2="900" stroke="#666666" stroke-width="0.5" stroke-dasharray="4,4" opacity="0.90"/><text x="80" y="1040" text-anchor="middle" font-size="20" fill="black">14:30</text><text x="152" y="1040" text-anchor="middle" font-size="20" fill="black">15:00</text><text x="224" y="1040" text-anchor="middle" font-size="20" fill="black">15:30</text><text x="296" y="1040" text-anchor="middle" font-size="20" fill="black">16:00</text><text x="368" y="1040" text-anchor="middle" font-size="20" fill="black">16:30</text><text x="440" y="1040" text-anchor="middle" font-size="20" fill="black">17:00</text><text x="512" y="1040" text-anchor="middle" font-size="20" fill="black">17:30</text><text x="584" y="1040" text-anchor="middle" font-size="20" fill="black">18:00</text><text x="656" y="1040" text-anchor="middle" font-size="20" fill="black">18:30</text><text x="728" y="1040" text-anchor="middle" font-size="20" fill="black">19:00</text><text x="800" y="1040" text-anchor="middle" font-size="20" fill="black">19:30</text><text x="872" y="1040" text-anchor="middle" font-size="20" fill="black">20:00</text><text x="944" y="1040" text-anchor="middle" font-size="20" fill="black">20:30</text><text x="1006" y="50" text-anchor="end" font-size="40" fill="#ef5350" font-weight="bold">▼ -0.76% (Wed)</text></svg>