<svg xmlns="http://www.w3.org/2000/svg" width="1056" height="1050"><rect width="100%" height="100%" fill="white"/><text x="42" y="854.0" text-anchor="end" font-size="20" fill="black">689</text><text x="42" y="587.3333333333334" text-anchor="end" font-size="20" fill="black">690</text><text x="42" y="320.66666666666674" text-anchor="end" font-size="20" fill="black">691</text><text x="42" y="54.0" text-anchor="end" font-size="20" fill="black">692</text><line x1="15536" y1="581.9986979166666" x2="15536" y2="879.3294270833334" stroke="#26a69a" stroke-width="2"/><rect x="15532" y="718.0013020833333" width="8" height="161.3281250000001" fill="#26a69a"/><line x1="15548" y1="623.33984375" x2="15548" y2="767.333984375" stroke="#ef5350" stroke-width="2"/><rect x="15544" y="708.6588541666667" width="8" height="28.011067708333258" fill="#ef5350"/><line x1="15560" y1="688.671875" x2="15560" y2="908.6588541666666" stroke="#ef5350" stroke-width="2"/><rect x="15556" y="740.673828125" width="8" height="45.32877604166663" fill="#ef5350"/><line x1="15572" y1="583.3333333333334" x2="15572" y2="783.3333333333334" stroke="#26a69a" stroke-width="2"/><rect x="15568" y="583.3333333333334" width="8" height="197.33072916666663" fill="#26a69a"/><line x1="15584" y1="464.12760416666663" x2="15584" y2="665.9993489583333" stroke="#26a69a" stroke-width="2"/><rect x="15580" y="492.65950520833337" width="8" height="85.33528645833326" fill="#26a69a"/><line x1="15596" y1="465.99934895833337" x2="15596" y2="580.6966145833334" stroke="#ef5350" stroke-width="2"/><rect x="15592" y="481.99869791666663" width="8" height="26.66015625" fill="#ef5350"/><line x1="15608" y1="264.63216145833326" x2="15608" y2="538.0045572916666" stroke="#26a69a" stroke-width="2"/><rect x="15604" y="297.998046875" width="8" height="184.00065104166663" fill="#26a69a"/><line x1="15620" y1="193.994140625" x2="15620" y2="306.005859375" stroke="#26a69a" stroke-width="2"/><rect x="15616" y="247.33072916666674" width="8" height="50.66731770833326" fill="#26a69a"/><line x1="15632" y1="129.99674479166674" x2="15632" y2="252.66927083333326" stroke="#26a69a" stroke-width="2"/><rect x="15628" y="140.673828125" width="8" height="106.65690104166674" fill="#26a69a"/><line x1="15644" y1="116.66666666666674" x2="15644" y2="236.669921875" stroke="#ef5350" stroke-width="2"/><rect x="15640" y="132.666015625" width="8" height="79.99674479166674" fill="#ef5350"/><line x1="15656" y1="116.66666666666674" x2="15656" y2="260.53059895833326" stroke="#26a69a" stroke-width="2"/><rect x="15652" y="151.33463541666674" width="8" height="61.328125" fill="#26a69a"/><line x1="15668" y1="161.99544270833326" x2="15668" y2="303.33658854166674" stroke="#ef5350" stroke-width="2"/><rect x="15664" y="167.333984375" width="8" height="58.65885416666674" fill="#ef5350"/><line x1="15680" y1="100.66731770833326" x2="15680" y2="234.00065104166674" stroke="#26a69a" stroke-width="2"/><rect x="15676" y="122.00520833333326" width="8" height="111.99544270833348" fill="#26a69a"/><line x1="15692" y1="103.49934895833326" x2="15692" y2="223.33984375" stroke="#ef5350" stroke-width="2"/><rect x="15688" y="116.66666666666674" width="8" height="101.33463541666652" fill="#ef5350"/><line x1="15704" y1="204.67122395833326" x2="15704" y2="298.16080729166674" stroke="#ef5350" stroke-width="2"/><rect x="15700" y="218.00130208333326" width="8" height="61.328125" fill="#ef5350"/><line x1="15716" y1="155.33854166666674" x2="15716" y2="386.0026041666667" stroke="#26a69a" stroke-width="2"/><rect x="15712" y="204.67122395833326" width="8" height="85.33528645833348" fill="#26a69a"/><line x1="15728" y1="215.33203125" x2="15728" y2="475.32552083333337" stroke="#ef5350" stroke-width="2"/><rect x="15724" y="215.33203125" width="8" height="200.0" fill="#ef5350"/><line x1="15740" y1="423.33984375" x2="15740" y2="658.0078125" stroke="#ef5350" stroke-width="2"/><rect x="15736" y="425.9928385416667" width="8" height="117.33398437499994" fill="#ef5350"/><line x1="15752" y1="434.423828125" x2="15752" y2="586.0026041666666" stroke="#26a69a" stroke-width="2"/><rect x="15748" y="556.6731770833334" width="8" height="5.322265625" fill="#26a69a"/><line x1="15764" y1="487.33723958333337" x2="15764" y2="639.306640625" stroke="#ef5350" stroke-width="2"/><rect x="15760" y="570.0032552083334" width="8" height="55.98958333333326" fill="#ef5350"/><line x1="15776" y1="574.0071614583334" x2="15776" y2="716.6666666666667" stroke="#ef5350" stroke-width="2"/><rect x="15772" y="636.669921875" width="8" height="55.98958333333326" fill="#ef5350"/><line x1="15788" y1="684.66796875" x2="15788" y2="818.0013020833334" stroke="#ef5350" stroke-width="2"/><rect x="15784" y="719.3359375" width="8" height="31.99869791666663" fill="#ef5350"/><line x1="15800" y1="561.9954427083334" x2="15800" y2="796.6634114583334" stroke="#26a69a" stroke-width="2"/><rect x="15796" y="660.6608072916667" width="8" height="98.66536458333326" fill="#26a69a"/><line x1="15812" y1="535.3352864583334" x2="15812" y2="761.9954427083334" stroke="#ef5350" stroke-width="2"/><rect x="15808" y="665.9993489583333" width="8" height="58.691406250000114" fill="#ef5350"/><line x1="15824" y1="759.326171875" x2="15824" y2="971.7122395833334" stroke="#ef5350" stroke-width="2"/><rect x="15820" y="759.326171875" width="8" height="120.00325520833337" fill="#ef5350"/><line x1="15836" y1="791.3411458333334" x2="15836" y2="932.666015625" stroke="#ef5350" stroke-width="2"/><rect x="15832" y="860.6608072916666" width="8" height="34.66796875" fill="#ef5350"/><line x1="15848" y1="828.662109375" x2="15848" y2="996.6634114583333" stroke="#26a69a" stroke-width="2"/><rect x="15844" y="897.998046875" width="8" height="10.660807291666629" fill="#26a69a"/><line x1="15860" y1="802.001953125" x2="15860" y2="920.9309895833334" stroke="#26a69a" stroke-width="2"/><rect x="15856" y="818.75" width="8" height="60.57942708333337" fill="#26a69a"/><line x1="15872" y1="663.3138020833333" x2="15872" y2="859.326171875" stroke="#26a69a" stroke-width="2"/><rect x="15868" y="663.3138020833333" width="8" height="138.68815104166674" fill="#26a69a"/><line x1="15884" y1="564.6647135416666" x2="15884" y2="729.9967447916666" stroke="#ef5350" stroke-width="2"/><rect x="15880" y="674.0071614583333" width="8" height="55.98958333333337" fill="#ef5350"/><line x1="15896" y1="681.9986979166667" x2="15896" y2="828.662109375" stroke="#ef5350" stroke-width="2"/><rect x="15892" y="745.99609375" width="8" height="10.677083333333371" fill="#ef5350"/><line x1="15908" y1="743.310546875" x2="15908" y2="879.3294270833334" stroke="#ef5350" stroke-width="2"/><rect x="15904" y="761.9954427083334" width="8" height="71.54947916666663" fill="#ef5350"/><line x1="15920" y1="815.33203125" x2="15920" y2="924.6744791666666" stroke="#ef5350" stroke-width="2"/><rect x="15916" y="815.33203125" width="8" height="101.33463541666663" fill="#ef5350"/><line x1="15932" y1="850.0" x2="15932" y2="925.9928385416666" stroke="#26a69a" stroke-width="2"/><rect x="15928" y="887.3372395833334" width="8" height="10.660807291666629" fill="#26a69a"/><line x1="15944" y1="834.0006510416666" x2="15944" y2="908.6588541666666" stroke="#26a69a" stroke-width="2"/><rect x="15940" y="844.6451822916666" width="8" height="36.01888020833337" fill="#26a69a"/><line x1="15956" y1="820.6705729166666" x2="15956" y2="903.3365885416666" stroke="#ef5350" stroke-width="2"/><rect x="15952" y="833.5774739583334" width="8" height="67.08984375" fill="#ef5350"/><line x1="15968" y1="865.9993489583334" x2="15968" y2="1003.3365885416667" stroke="#ef5350" stroke-width="2"/><rect x="15964" y="903.3365885416666" width="8" height="87.59765625000011" fill="#ef5350"/><line x1="15980" y1="922.0052083333334" x2="15980" y2="1111.328125" stroke="#26a69a" stroke-width="2"/><rect x="15976" y="948.6653645833334" width="8" height="61.328124999999886" fill="#26a69a"/><line x1="15992" y1="913.9973958333334" x2="15992" y2="1034.0006510416667" stroke="#26a69a" stroke-width="2"/><rect x="15988" y="924.6744791666666" width="8" height="18.92903645833337" fill="#26a69a"/><line x1="16004" y1="847.3307291666666" x2="16004" y2="980.6640625" stroke="#26a69a" stroke-width="2"/><rect x="16000" y="895.3287760416666" width="8" height="40.00651041666674" fill="#26a69a"/><line x1="16016" y1="631.3313802083334" x2="16016" y2="892.9361979166666" stroke="#26a69a" stroke-width="2"/><rect x="16012" y="635.302734375" width="8" height="257.63346354166663" fill="#26a69a"/><line x1="16028" y1="620.6705729166666" x2="16028" y2="729.9967447916666" stroke="#ef5350" stroke-width="2"/><rect x="16024" y="628.662109375" width="8" height="37.33723958333326" fill="#ef5350"/><line x1="16040" y1="618.0013020833334" x2="16040" y2="674.9837239583333" stroke="#26a69a" stroke-width="2"/><rect x="16036" y="625.9928385416666" width="8" height="42.675781250000114" fill="#26a69a"/><line x1="16052" y1="548.6653645833334" x2="16052" y2="644.6451822916666" stroke="#26a69a" stroke-width="2"/><rect x="16048" y="551.3346354166666" width="8" height="69.3359375" fill="#26a69a"/><line x1="16064" y1="554.00390625" x2="16064" y2="664.6647135416667" stroke="#ef5350" stroke-width="2"/><rect x="16060" y="554.00390625" width="8" height="109.326171875" fill="#ef5350"/><line x1="16076" y1="649.5768229166666" x2="16076" y2="727.3274739583334" stroke="#ef5350" stroke-width="2"/><rect x="16072" y="649.5768229166666" width="8" height="48.42122395833337" fill="#ef5350"/><line x1="16088" y1="711.328125" x2="16088" y2="860.6608072916666" stroke="#ef5350" stroke-width="2"/><rect x="16084" y="716.6666666666667" width="8" height="31.99869791666663" fill="#ef5350"/><line x1="16100" y1="570.0032552083334" x2="16100" y2="771.8098958333334" stroke="#26a69a" stroke-width="2"/><rect x="16096" y="588.671875" width="8" height="168.00130208333337" fill="#26a69a"/><line x1="16112" y1="479.32942708333337" x2="16112" y2="596.6634114583334" stroke="#26a69a" stroke-width="2"/><rect x="16108" y="508.65885416666663" width="8" height="74.67447916666674" fill="#26a69a"/><line x1="16124" y1="499.462890625" x2="16124" y2="602.001953125" stroke="#ef5350" stroke-width="2"/><rect x="16120" y="506.005859375" width="8" height="55.98958333333337" fill="#ef5350"/><line x1="16136" y1="561.9954427083334" x2="16136" y2="705.0618489583333" stroke="#ef5350" stroke-width="2"/><rect x="16132" y="561.9954427083334" width="8" height="69.3359375" fill="#ef5350"/><line x1="16148" y1="593.994140625" x2="16148" y2="666.9108072916667" stroke="#26a69a" stroke-width="2"/><rect x="16144" y="593.994140625" width="8" height="29.345703125" fill="#26a69a"/><line x1="16160" y1="582.2591145833334" x2="16160" y2="706.005859375" stroke="#ef5350" stroke-width="2"/><rect x="16156" y="582.2591145833334" width="8" height="54.41080729166663" fill="#ef5350"/><line x1="16172" y1="640.8528645833334" x2="16172" y2="690.0065104166667" stroke="#ef5350" stroke-width="2"/><rect x="16168" y="641.9921875" width="8" height="42.67578125" fill="#ef5350"/><line x1="16184" y1="671.337890625" x2="16184" y2="775.3255208333334" stroke="#ef5350" stroke-width="2"/><rect x="16180" y="676.66015625" width="8" height="48.01432291666663" fill="#ef5350"/><line x1="16196" y1="671.5983072916667" x2="16196" y2="745.1009114583334" stroke="#26a69a" stroke-width="2"/><rect x="16192" y="681.9986979166667" width="8" height="38.21614583333326" fill="#26a69a"/><line x1="16208" y1="625.9928385416666" x2="16208" y2="703.3365885416667" stroke="#26a69a" stroke-width="2"/><rect x="16204" y="639.3391927083334" width="8" height="45.32877604166663" fill="#26a69a"/><line x1="16220" y1="634.0006510416666" x2="16220" y2="793.994140625" stroke="#ef5350" stroke-width="2"/><rect x="16216" y="644.6614583333334" width="8" height="98.66536458333326" fill="#ef5350"/><line x1="16232" y1="708.6588541666667" x2="16232" y2="828.662109375" stroke="#ef5350" stroke-width="2"/><rect x="16228" y="756.6731770833334" width="8" height="45.32877604166663" fill="#ef5350"/><line x1="16244" y1="692.6595052083333" x2="16244" y2="823.33984375" stroke="#26a69a" stroke-width="2"/><rect x="16240" y="751.3346354166666" width="8" height="50.66731770833337" fill="#26a69a"/><line x1="16256" y1="711.328125" x2="16256" y2="828.662109375" stroke="#26a69a" stroke-width="2"/><rect x="16252" y="751.3346354166666" width="8" height="2" fill="#26a69a"/><line x1="16268" y1="732.666015625" x2="16268" y2="815.33203125" stroke="#26a69a" stroke-width="2"/><rect x="16264" y="732.666015625" width="8" height="18.66861979166663" fill="#26a69a"/><line x1="16280" y1="711.328125" x2="16280" y2="850.0" stroke="#ef5350" stroke-width="2"/><rect x="16276" y="735.3352864583334" width="8" height="58.65885416666663" fill="#ef5350"/><line x1="16292" y1="775.3255208333334" x2="16292" y2="844.4498697916666" stroke="#ef5350" stroke-width="2"/><rect x="16288" y="800.927734375" width="8" height="3.3365885416666288" fill="#ef5350"/><line x1="16304" y1="700.6998697916667" x2="16304" y2="815.33203125" stroke="#26a69a" stroke-width="2"/><rect x="16300" y="706.005859375" width="8" height="101.33463541666663" fill="#26a69a"/><line x1="16316" y1="631.3313802083334" x2="16316" y2="719.3359375" stroke="#26a69a" stroke-width="2"/><rect x="16312" y="663.330078125" width="8" height="37.33723958333326" fill="#26a69a"/><line x1="16328" y1="658.0240885416667" x2="16328" y2="754.00390625" stroke="#ef5350" stroke-width="2"/><rect x="16324" y="674.0071614583333" width="8" height="79.96419270833337" fill="#ef5350"/><line x1="16340" y1="721.2076822916667" x2="16340" y2="783.3333333333334" stroke="#ef5350" stroke-width="2"/><rect x="16336" y="762.0279947916666" width="8" height="13.28125" fill="#ef5350"/><line x1="16352" y1="727.3274739583334" x2="16352" y2="844.6614583333334" stroke="#26a69a" stroke-width="2"/><rect x="16348" y="727.3274739583334" width="8" height="56.005859375" fill="#26a69a"/><line x1="16364" y1="658.0078125" x2="16364" y2="743.3268229166666" stroke="#26a69a" stroke-width="2"/><rect x="16360" y="660.6608072916667" width="8" height="77.34374999999989" fill="#26a69a"/><line x1="16376" y1="679.3294270833333" x2="16376" y2="759.326171875" stroke="#ef5350" stroke-width="2"/><rect x="16372" y="679.3294270833333" width="8" height="58.67513020833337" fill="#ef5350"/><line x1="16388" y1="729.9967447916666" x2="16388" y2="799.3326822916666" stroke="#26a69a" stroke-width="2"/><rect x="16384" y="735.3352864583334" width="8" height="2" fill="#26a69a"/><line x1="16400" y1="735.3352864583334" x2="16400" y2="823.33984375" stroke="#ef5350" stroke-width="2"/><rect x="16396" y="735.3352864583334" width="8" height="29.329427083333258" fill="#ef5350"/><line x1="16412" y1="735.3352864583334" x2="16412" y2="796.6634114583334" stroke="#ef5350" stroke-width="2"/><rect x="16408" y="783.3333333333334" width="8" height="10.660807291666629" fill="#ef5350"/><line x1="16424" y1="759.3587239583334" x2="16424" y2="865.9993489583334" stroke="#26a69a" stroke-width="2"/><rect x="16420" y="770.0032552083334" width="8" height="29.329427083333258" fill="#26a69a"/><line x1="16436" y1="770.0032552083334" x2="16436" y2="1036.669921875" stroke="#ef5350" stroke-width="2"/><rect x="16432" y="770.0032552083334" width="8" height="226.6601562499999" fill="#ef5350"/><line x1="16448" y1="865.9993489583334" x2="16448" y2="1106.005859375" stroke="#26a69a" stroke-width="2"/><rect x="16444" y="977.9947916666666" width="8" height="10.677083333333371" fill="#26a69a"/><line x1="16460" y1="729.9967447916666" x2="16460" y2="975.3255208333334" stroke="#26a69a" stroke-width="2"/><rect x="16456" y="836.669921875" width="8" height="130.6640625" fill="#26a69a"/><rect x="15531" y="902.3199727816381" width="10" height="117.68002721836194" fill="#26a69a" opacity="0.9"/><rect x="15543" y="980.9659901333438" width="10" height="39.03400986665622" fill="#ef5350" opacity="0.9"/><rect x="15555" y="987.2949135686151" width="10" height="32.70508643138487" fill="#ef5350" opacity="0.9"/><rect x="15567" y="996.5707481123804" width="10" height="23.429251887619557" fill="#26a69a" opacity="0.9"/><rect x="15579" y="980.2462738324239" width="10" height="39.75372616757613" fill="#26a69a" opacity="0.9"/><rect x="15591" y="984.0359073005404" width="10" height="35.96409269945957" fill="#ef5350" opacity="0.9"/><rect x="15603" y="984.8230152187283" width="10" height="35.1769847812717" fill="#26a69a" opacity="0.9"/><rect x="15615" y="980.1239220612675" width="10" height="39.876077938732465" fill="#26a69a" opacity="0.9"/><rect x="15627" y="989.7125060521598" width="10" height="30.287493947840176" fill="#26a69a" opacity="0.9"/><rect x="15639" y="984.3211766707233" width="10" height="35.678823329276725" fill="#ef5350" opacity="0.9"/><rect x="15651" y="992.2288959551944" width="10" height="27.77110404480561" fill="#26a69a" opacity="0.9"/><rect x="15663" y="988.4222510108742" width="10" height="31.57774898912578" fill="#ef5350" opacity="0.9"/><rect x="15675" y="998.7599942422696" width="10" height="21.240005757730387" fill="#26a69a" opacity="0.9"/><rect x="15687" y="996.0983525039585" width="10" height="23.901647496041505" fill="#ef5350" opacity="0.9"/><rect x="15699" y="999.5634593491147" width="10" height="20.436540650885263" fill="#ef5350" opacity="0.9"/><rect x="15711" y="990.9163951373349" width="10" height="29.083604862665084" fill="#26a69a" opacity="0.9"/><rect x="15723" y="986.9245868174145" width="10" height="33.07541318258552" fill="#ef5350" opacity="0.9"/><rect x="15735" y="957.1394548476164" width="10" height="62.860545152383565" fill="#ef5350" opacity="0.9"/><rect x="15747" y="977.5951006948534" width="10" height="42.404899305146614" fill="#26a69a" opacity="0.9"/><rect x="15759" y="977.5165861892984" width="10" height="42.48341381070156" fill="#ef5350" opacity="0.9"/><rect x="15771" y="988.9927897512399" width="10" height="31.00721024876009" fill="#ef5350" opacity="0.9"/><rect x="15783" y="974.737172692655" width="10" height="45.26282730734499" fill="#ef5350" opacity="0.9"/><rect x="15795" y="985.9287611719599" width="10" height="34.07123882804012" fill="#26a69a" opacity="0.9"/><rect x="15807" y="994.5424567188788" width="10" height="25.45754328112116" fill="#ef5350" opacity="0.9"/><rect x="15819" y="992.3676049150081" width="10" height="27.632395084991913" fill="#ef5350" opacity="0.9"/><rect x="15831" y="998.0062549889425" width="10" height="21.993745011057513" fill="#ef5350" opacity="0.9"/><rect x="15843" y="994.5575053324435" width="10" height="25.442494667556502" fill="#26a69a" opacity="0.9"/><rect x="15855" y="1000.4820790641071" width="10" height="19.517920935892903" fill="#26a69a" opacity="0.9"/><rect x="15867" y="998.5231421505123" width="10" height="21.476857849487715" fill="#26a69a" opacity="0.9"/><rect x="15879" y="984.160876221882" width="10" height="35.83912377811805" fill="#ef5350" opacity="0.9"/><rect x="15891" y="995.391067666418" width="10" height="24.608932333581947" fill="#ef5350" opacity="0.9"/><rect x="15903" y="999.9076145984637" width="10" height="20.092385401536262" fill="#ef5350" opacity="0.9"/><rect x="15915" y="996.8514374697392" width="10" height="23.148562530260847" fill="#ef5350" opacity="0.9"/><rect x="15927" y="1005.0437718368469" width="10" height="14.956228163153128" fill="#26a69a" opacity="0.9"/><rect x="15939" y="1000.0875436736937" width="10" height="19.912456326306256" fill="#26a69a" opacity="0.9"/><rect x="15951" y="1001.2050668027584" width="10" height="18.794933197241562" fill="#ef5350" opacity="0.9"/><rect x="15963" y="1000.8144571376229" width="10" height="19.185542862377133" fill="#ef5350" opacity="0.9"/><rect x="15975" y="989.5404284274853" width="10" height="30.459571572514733" fill="#26a69a" opacity="0.9"/><rect x="15987" y="1001.8757115377066" width="10" height="18.124288462293407" fill="#26a69a" opacity="0.9"/><rect x="15999" y="994.4423507242963" width="10" height="25.55764927570374" fill="#26a69a" opacity="0.9"/><rect x="16011" y="1001.3477014878499" width="10" height="18.652298512150082" fill="#26a69a" opacity="0.9"/><rect x="16023" y="989.7439118543817" width="10" height="30.256088145618264" fill="#ef5350" opacity="0.9"/><rect x="16035" y="976.9702560881456" width="10" height="43.02974391185444" fill="#26a69a" opacity="0.9"/><rect x="16047" y="1000.5560135568379" width="10" height="19.44398644316209" fill="#26a69a" opacity="0.9"/><rect x="16059" y="990.8993836611314" width="10" height="29.100616338868576" fill="#ef5350" opacity="0.9"/><rect x="16071" y="1000.9368089087792" width="10" height="19.0631910912208" fill="#ef5350" opacity="0.9"/><rect x="16083" y="999.06685510148" width="10" height="20.933144898520027" fill="#ef5350" opacity="0.9"/><rect x="16095" y="999.0557322131931" width="10" height="20.944267786806904" fill="#26a69a" opacity="0.9"/><rect x="16107" y="998.4223818683835" width="10" height="21.577618131616532" fill="#26a69a" opacity="0.9"/><rect x="16119" y="999.6014080267996" width="10" height="20.398591973200382" fill="#ef5350" opacity="0.9"/><rect x="16131" y="991.9050236197804" width="10" height="28.094976380219578" fill="#ef5350" opacity="0.9"/><rect x="16143" y="997.1445582904774" width="10" height="22.85544170952255" fill="#26a69a" opacity="0.9"/><rect x="16155" y="994.9553121605884" width="10" height="25.04468783941161" fill="#ef5350" opacity="0.9"/><rect x="16167" y="1001.6892395870137" width="10" height="18.31076041298627" fill="#ef5350" opacity="0.9"/><rect x="16179" y="1001.3176042607205" width="10" height="18.682395739279514" fill="#ef5350" opacity="0.9"/><rect x="16191" y="1000.9930776377603" width="10" height="19.00692236223972" fill="#26a69a" opacity="0.9"/><rect x="16203" y="989.971603920491" width="10" height="30.02839607950898" fill="#26a69a" opacity="0.9"/><rect x="16215" y="989.4010651801253" width="10" height="30.59893481987467" fill="#ef5350" opacity="0.9"/><rect x="16227" y="982.930161347309" width="10" height="37.06983865269103" fill="#ef5350" opacity="0.9"/><rect x="16239" y="987.7987149792591" width="10" height="32.2012850207409" fill="#26a69a" opacity="0.9"/><rect x="16251" y="993.9764979913373" width="10" height="26.023502008662717" fill="#26a69a" opacity="0.9"/><rect x="16263" y="860.0" width="10" height="160.0" fill="#26a69a" opacity="0.9"/><rect x="16275" y="997.2747615121893" width="10" height="22.725238487810657" fill="#ef5350" opacity="0.9"/><rect x="16287" y="984.6450490061372" width="10" height="35.35495099386276" fill="#ef5350" opacity="0.9"/><rect x="16299" y="999.6537510305029" width="10" height="20.346248969497083" fill="#26a69a" opacity="0.9"/><rect x="16311" y="995.9321634672006" width="10" height="24.067836532799447" fill="#26a69a" opacity="0.9"/><rect x="16323" y="1000.0986665619806" width="10" height="19.90133343801938" fill="#ef5350" opacity="0.9"/><rect x="16335" y="988.1376359282377" width="10" height="31.862364071762272" fill="#ef5350" opacity="0.9"/><rect x="16347" y="993.4340936154621" width="10" height="26.565906384537925" fill="#26a69a" opacity="0.9"/><rect x="16359" y="994.7217315065625" width="10" height="25.27826849343751" fill="#26a69a" opacity="0.9"/><rect x="16371" y="990.0710556275271" width="10" height="29.92894437247287" fill="#ef5350" opacity="0.9"/><rect x="16383" y="992.5802483675526" width="10" height="27.4197516324474" fill="#26a69a" opacity="0.9"/><rect x="16395" y="991.0943613499261" width="10" height="28.90563865007391" fill="#ef5350" opacity="0.9"/><rect x="16407" y="997.402347583716" width="10" height="22.59765241628395" fill="#ef5350" opacity="0.9"/><rect x="16419" y="991.1290385898794" width="10" height="28.87096141012057" fill="#26a69a" opacity="0.9"/><rect x="16431" y="970.7002185320405" width="10" height="49.29978146795952" fill="#ef5350" opacity="0.9"/><rect x="16443" y="948.061215142831" width="10" height="71.93878485716903" fill="#26a69a" opacity="0.9"/><rect x="16455" y="887.4238082152344" width="10" height="132.57619178476557" fill="#26a69a" opacity="0.9"/><polyline points="320,430.8874705481382,332,461.4062481546474,344,480.38287283437364,356,503.6502902033135,368,539.429255620477,380,573.3244480415427,392,604.2457431685458,404,624.6747200096252,416,628.3546325880707,428,638.0348337503165,440,649.3337235915533,452,666.8776472375914,464,690.6670776594183,476,709.3975692712168,488,722.2782943207676,500,739.2677251195892,512,763.2359650883396,524,780.8959078973809,536,794.5891051611094,548,804.1833595306647,560,788.0994904682362,572,776.4709055625038,584,762.1396610843173,596,742.0629919731255,608,734.5646192256936,620,731.0820885256362,632,732.7566862454054,644,719.0343232696553,656,698.998564307476,668,685.9506479646977,680,680.7488129402675,692,672.4864631959765,704,669.0753640225619,716,670.5603739966136,728,675.714098298522,740,676.3126315954651,752,672.791351701441,764,679.5090156267179,776,691.1750096741646,788,696.9044978401143,800,702.088320466434,812,705.0004819101257,824,713.4760684544137,836,722.1225688793917,848,720.5876441646978,860,715.1345426371033,872,718.8332865922955,884,724.2119492779542,896,724.5086659141938,908,718.4279174739459,920,720.2923593613377,932,721.7250190848365,944,725.8145137950123,956,732.3078115883314,968,735.8978538378627,980,760.7326688493534,992,781.4242995938608,1004,786.6857874301786" fill="none" stroke="#0090ff" stroke-width="2"/><line x1="80" y1="50" x2="80" y2="900" stroke="#666666" stroke-width="0.5" stroke-dasharray="4,4" opacity="0.90"/><line x1="152" y1="50" x2="152" y2="900" stroke="#666666" stroke-width="0.5" stroke-dasharray="4,4" opacity="0.90"/><line x1="224" y1="50" x2="224" y2="900" stroke="#666666" stroke-width="0.5" stroke-dasharray="4,4" opacity="0.90"/><line x1="290" y1="30" x2="290" y2="950" stroke="black" stroke-width="0.7"/><line x1="296" y1="50" x2="296" y2="900" stroke="#666666" stroke-width="0.5" stroke-dasharray="4,4" opacity="0.90"/><line x1="368" y1="50" x2="368" y2="900" stroke="#666666" stroke-width="0.5" stroke-dasharray="4,4" opacity="0.90"/><line x1="440" y1="50" x2="440" y2="900" stroke="#666666" stroke-width="0.5" stroke-dasharray="4,4" opacity="0.90"/><line x1="512" y1="50" x2="512" y2="900" stroke="#666666" stroke-width="0.5" stroke-dasharray="4,4" opacity="0.90"/><line x1="584" y1="50" x2="584" y2="900" stroke="#666666" stroke-width="0.5" stroke-dasharray="4,4" opacity="0.90"/><line x1="656" y1="50" x2="656" y2="900" stroke="#666666" stroke-width="0.5" stroke-dasharray="4,4" opacity="0.90"/><line x1="728" y1="50" x2="728" y2="900" stroke="#666666" stroke-width="0.5" stroke-dasharray="4,4" opacity="0.90"/><line x1="800" y1="50" x2="800" y2="900" stroke="#666666" stroke-width="0.5" stroke-dasharray="4,4" opacity="0.90"/><line x1="872" y1="50" x2="872" y2="900" stroke="#666666" stroke-width="0.5" stroke-dasharray="4,4" opacity="0.90"/><line x1="944" y1="50" x2="944" y2="900" stroke="#666666" stroke-width="0.5" stroke-dasharray="4,4" opacity="0.90"/><text x="80" y="1040" text-anchor="middle" font-size="20" fill="black">14:30</text><text x="152" y="1040" text-anchor="middle" font-size="20" fill="black">15:00</text><text x="224" y="1040" text-anchor="middle" font-size="20" fill="black">15:30</text><text x="296" y="1040" text-anchor="middle" font-size="20" fill="black">16:00</text><text x="368" y="1040" text-anchor="middle" font-size="20" fill="black">16:30</text><text x="440" y="1040" text-anchor="middle" font-size="20" fill="black">17:00</text><text x="512" y="1040" text-anchor="middle" font-size="20" fill="black">17:30</text><text x="584" y="1040" text-anchor="middle" font-size="20" fill="black">18:00</text><text x="656" y="1040" text-anchor="middle" font-size="20" fill="black">18:30</text><text x="728" y="1040" text-anchor="middle" font-size="20" fill="black">19:00</text><text x="800" y="1040" text-anchor="middle" font-size="20" fill="black">19:30</text><text x="872" y="1040" text-anchor="middle" font-size="20" fill="black">20:00</text><text x="944" y="1040" text-anchor="middle" font-size="20" fill="black">20:30</text><text x="1006" y="50" text-anchor="end" font-size="40" fill="#26a69a" font-weight="bold">▲ +0.02% (Fri)</text></svg>