<svg xmlns="http://www.w3.org/2000/svg" width="1056" height="1050"><rect width="100%" height="100%" fill="white"/><text x="42" y="854.0" text-anchor="end" font-size="20" fill="black">684</text><text x="42" y="787.3333333333334" text-anchor="end" font-size="20" fill="black">685</text><text x="42" y="720.6666666666667" text-anchor="end" font-size="20" fill="black">686</text><text x="42" y="654.0" text-anchor="end" font-size="20" fill="black">687</text><text x="42" y="587.3333333333334" text-anchor="end" font-size="20" fill="black">688</text><text x="42" y="520.6666666666666" text-anchor="end" font-size="20" fill="black">689</text><text x="42" y="454.0" text-anchor="end" font-size="20" fill="black">690</text><text x="42" y="387.3333333333333" text-anchor="end" font-size="20" fill="black">691</text><text x="42" y="320.66666666666674" text-anchor="end" font-size="20" fill="black">692</text><text x="42" y="254.0" text-anchor="end" font-size="20" fill="black">693</text><text x="42" y="187.33333333333326" text-anchor="end" font-size="20" fill="black">694</text><text x="42" y="120.66666666666674" text-anchor="end" font-size="20" fill="black">695</text><text x="42" y="54.0" text-anchor="end" font-size="20" fill="black">696</text><line x1="54392" y1="615.33203125" x2="54392" y2="856.0017903645834" stroke="#26a69a" stroke-width="2"/><rect x="54388" y="661.2019856770833" width="8" height="156.13199869791674" fill="#26a69a"/><line x1="54404" y1="577.9988606770834" x2="54404" y2="677.9988606770833" stroke="#26a69a" stroke-width="2"/><rect x="54400" y="598.6653645833334" width="8" height="59.33430989583337" fill="#26a69a"/><line x1="54416" y1="540.6656901041666" x2="54416" y2="645.44677734375" stroke="#26a69a" stroke-width="2"/><rect x="54412" y="542.0003255208334" width="8" height="51.33463541666663" fill="#26a69a"/><line x1="54428" y1="521.3338216145834" x2="54428" y2="581.0017903645834" stroke="#ef5350" stroke-width="2"/><rect x="54424" y="539.3351236979166" width="8" height="5.330403645833371" fill="#ef5350"/><line x1="54440" y1="480.00081380208337" x2="54440" y2="553.9998372395834" stroke="#ef5350" stroke-width="2"/><rect x="54436" y="534.66796875" width="8" height="17.99723307291663" fill="#ef5350"/><line x1="54452" y1="554.6671549479166" x2="54452" y2="607.3323567708334" stroke="#ef5350" stroke-width="2"/><rect x="54448" y="560.6648763020834" width="8" height="32.67008463541663" fill="#ef5350"/><line x1="54464" y1="572.66845703125" x2="54464" y2="661.99951171875" stroke="#ef5350" stroke-width="2"/><rect x="54460" y="585.99853515625" width="8" height="59.33430989583337" fill="#ef5350"/><line x1="54476" y1="586.8123372395834" x2="54476" y2="685.693359375" stroke="#ef5350" stroke-width="2"/><rect x="54472" y="643.9982096354166" width="8" height="6.001790364583371" fill="#ef5350"/><line x1="54488" y1="550.6673177083334" x2="54488" y2="666.6666666666667" stroke="#ef5350" stroke-width="2"/><rect x="54484" y="647.3347981770834" width="8" height="13.330078124999886" fill="#ef5350"/><line x1="54500" y1="580.0008138020834" x2="54500" y2="704.6671549479167" stroke="#26a69a" stroke-width="2"/><rect x="54496" y="589.9983723958334" width="8" height="70.33691406249989" fill="#26a69a"/><line x1="54512" y1="529.6671549479166" x2="54512" y2="650.6591796875" stroke="#ef5350" stroke-width="2"/><rect x="54508" y="591.3330078125" width="8" height="30.00081380208337" fill="#ef5350"/><line x1="54524" y1="525.3336588541666" x2="54524" y2="636.6658528645834" stroke="#26a69a" stroke-width="2"/><rect x="54520" y="535.3352864583334" width="8" height="86.33219401041663" fill="#26a69a"/><line x1="54536" y1="490.66569010416663" x2="54536" y2="584.0006510416666" stroke="#26a69a" stroke-width="2"/><rect x="54532" y="502.33154296875" width="8" height="33.6669921875" fill="#26a69a"/><line x1="54548" y1="494.66552734375" x2="54548" y2="527.9988606770834" stroke="#ef5350" stroke-width="2"/><rect x="54544" y="505.33447265625" width="8" height="2" fill="#ef5350"/><line x1="54560" y1="463.33414713541663" x2="54560" y2="514.6647135416666" stroke="#26a69a" stroke-width="2"/><rect x="54556" y="488.66780598958337" width="8" height="15.999348958333258" fill="#26a69a"/><line x1="54572" y1="443.3349609375" x2="54572" y2="522.66845703125" stroke="#ef5350" stroke-width="2"/><rect x="54568" y="488.00048828125" width="8" height="28.66617838541663" fill="#ef5350"/><line x1="54584" y1="514.6647135416666" x2="54584" y2="621.3338216145834" stroke="#ef5350" stroke-width="2"/><rect x="54580" y="514.6647135416666" width="8" height="95.3369140625" fill="#ef5350"/><line x1="54596" y1="518.0013020833334" x2="54596" y2="623.046875" stroke="#26a69a" stroke-width="2"/><rect x="54592" y="527.33154296875" width="8" height="83.33333333333337" fill="#26a69a"/><line x1="54608" y1="452.66520182291663" x2="54608" y2="550.0" stroke="#26a69a" stroke-width="2"/><rect x="54604" y="452.66520182291663" width="8" height="75.33365885416674" fill="#26a69a"/><line x1="54620" y1="424.6663411458333" x2="54620" y2="475.33365885416663" stroke="#26a69a" stroke-width="2"/><rect x="54616" y="438.00048828125" width="8" height="11.332194010416686" fill="#26a69a"/><line x1="54632" y1="419.3318684895833" x2="54632" y2="450.0" stroke="#26a69a" stroke-width="2"/><rect x="54628" y="419.9991861979167" width="8" height="17.333984375" fill="#26a69a"/><line x1="54644" y1="410.6648763020833" x2="54644" y2="456.6650390625" stroke="#ef5350" stroke-width="2"/><rect x="54640" y="422.0011393229167" width="8" height="17.9931640625" fill="#ef5350"/><line x1="54656" y1="399.3326822916667" x2="54656" y2="441.3330078125" stroke="#26a69a" stroke-width="2"/><rect x="54652" y="427.33154296875" width="8" height="11.336263020833314" fill="#26a69a"/><line x1="54668" y1="423.3317057291667" x2="54668" y2="473.33170572916663" stroke="#ef5350" stroke-width="2"/><rect x="54664" y="428.6661783854167" width="8" height="9.334309895833314" fill="#ef5350"/><line x1="54680" y1="400.6673177083333" x2="54680" y2="442.0003255208333" stroke="#26a69a" stroke-width="2"/><rect x="54676" y="401.3346354166667" width="8" height="36.665852864583314" fill="#26a69a"/><line x1="54692" y1="379.33349609375" x2="54692" y2="410.0016276041667" stroke="#26a69a" stroke-width="2"/><rect x="54688" y="394.66552734375" width="8" height="5.33447265625" fill="#26a69a"/><line x1="54704" y1="377.33154296875" x2="54704" y2="417.333984375" stroke="#26a69a" stroke-width="2"/><rect x="54700" y="397.998046875" width="8" height="2.001953125" fill="#26a69a"/><line x1="54716" y1="383.3333333333333" x2="54716" y2="407.9996744791667" stroke="#26a69a" stroke-width="2"/><rect x="54712" y="393.3268229166667" width="8" height="3.2267252604166288" fill="#26a69a"/><line x1="54728" y1="378.6661783854167" x2="54728" y2="398.6653645833333" stroke="#ef5350" stroke-width="2"/><rect x="54724" y="390.6656901041667" width="8" height="2" fill="#ef5350"/><line x1="54740" y1="392.6717122395833" x2="54740" y2="449.3326822916667" stroke="#ef5350" stroke-width="2"/><rect x="54736" y="392.6717122395833" width="8" height="19.9951171875" fill="#ef5350"/><line x1="54752" y1="391.3330078125" x2="54752" y2="433.3333333333333" stroke="#26a69a" stroke-width="2"/><rect x="54748" y="392.0003255208333" width="8" height="20.66650390625" fill="#26a69a"/><line x1="54764" y1="353.9998372395833" x2="54764" y2="390.6656901041667" stroke="#26a69a" stroke-width="2"/><rect x="54760" y="368.0013020833333" width="8" height="22.66438802083337" fill="#26a69a"/><line x1="54776" y1="352.001953125" x2="54776" y2="396.66748046875" stroke="#ef5350" stroke-width="2"/><rect x="54772" y="367.333984375" width="8" height="15.33203125" fill="#ef5350"/><line x1="54788" y1="362.6668294270833" x2="54788" y2="403.33251953125" stroke="#26a69a" stroke-width="2"/><rect x="54784" y="376.0009765625" width="8" height="7.332356770833314" fill="#26a69a"/><line x1="54800" y1="375.341796875" x2="54800" y2="394.3318684895833" stroke="#ef5350" stroke-width="2"/><rect x="54796" y="377.9988606770833" width="8" height="5.33447265625" fill="#ef5350"/><line x1="54812" y1="344.66552734375" x2="54812" y2="377.9988606770833" stroke="#26a69a" stroke-width="2"/><rect x="54808" y="345.3328450520833" width="8" height="31.33544921875" fill="#26a69a"/><line x1="54824" y1="318.00130208333326" x2="54824" y2="345.3328450520833" stroke="#26a69a" stroke-width="2"/><rect x="54820" y="331.99869791666674" width="8" height="10.001627604166572" fill="#26a69a"/><line x1="54836" y1="334.66796875" x2="54836" y2="385.99853515625" stroke="#ef5350" stroke-width="2"/><rect x="54832" y="334.66796875" width="8" height="42.66357421875" fill="#ef5350"/><line x1="54848" y1="343.9982096354167" x2="54848" y2="380.0008138020833" stroke="#26a69a" stroke-width="2"/><rect x="54844" y="344.66552734375" width="8" height="33.333333333333314" fill="#26a69a"/><line x1="54860" y1="312.66682942708326" x2="54860" y2="343.9982096354167" stroke="#26a69a" stroke-width="2"/><rect x="54856" y="322.00113932291674" width="8" height="21.997070312499943" fill="#26a69a"/><line x1="54872" y1="276.0009765625" x2="54872" y2="323.33170572916674" stroke="#26a69a" stroke-width="2"/><rect x="54868" y="306.00179036458326" width="8" height="8.662923177083485" fill="#26a69a"/><line x1="54884" y1="297.998046875" x2="54884" y2="314.66471354166674" stroke="#ef5350" stroke-width="2"/><rect x="54880" y="306.6650390625" width="8" height="7.33642578125" fill="#ef5350"/><line x1="54896" y1="277.33154296875" x2="54896" y2="313.33414713541674" stroke="#26a69a" stroke-width="2"/><rect x="54892" y="281.33138020833326" width="8" height="32.002766927083485" fill="#26a69a"/><line x1="54908" y1="278.66617838541674" x2="54908" y2="315.99934895833326" stroke="#ef5350" stroke-width="2"/><rect x="54904" y="281.99869791666674" width="8" height="23.33984375" fill="#ef5350"/><line x1="54920" y1="288.66780598958326" x2="54920" y2="311.99951171875" stroke="#ef5350" stroke-width="2"/><rect x="54916" y="303.33251953125" width="8" height="4.6671549479167425" fill="#ef5350"/><line x1="54932" y1="298.66536458333326" x2="54932" y2="334.66796875" stroke="#26a69a" stroke-width="2"/><rect x="54928" y="300.66731770833326" width="8" height="7.332356770833485" fill="#26a69a"/><line x1="54944" y1="281.33138020833326" x2="54944" y2="317.333984375" stroke="#ef5350" stroke-width="2"/><rect x="54940" y="301.33463541666674" width="8" height="15.999348958333258" fill="#ef5350"/><line x1="54956" y1="311.99951171875" x2="54956" y2="337.33317057291674" stroke="#26a69a" stroke-width="2"/><rect x="54952" y="316.03190104166674" width="8" height="3.299967447916515" fill="#26a69a"/><line x1="54968" y1="297.33479817708326" x2="54968" y2="318.66861979166674" stroke="#26a69a" stroke-width="2"/><rect x="54964" y="313.33414713541674" width="8" height="2" fill="#26a69a"/><line x1="54980" y1="282.666015625" x2="54980" y2="314.68505859375" stroke="#26a69a" stroke-width="2"/><rect x="54976" y="290.66569010416674" width="8" height="24.019368489583258" fill="#26a69a"/><line x1="54992" y1="281.33138020833326" x2="54992" y2="297.33479817708326" stroke="#ef5350" stroke-width="2"/><rect x="54988" y="291.3330078125" width="8" height="2" fill="#ef5350"/><line x1="55004" y1="274.00716145833326" x2="55004" y2="290.66569010416674" stroke="#26a69a" stroke-width="2"/><rect x="55000" y="276.0009765625" width="8" height="13.334147135416742" fill="#26a69a"/><line x1="55016" y1="268.00130208333326" x2="55016" y2="288.00048828125" stroke="#ef5350" stroke-width="2"/><rect x="55012" y="269.99918619791674" width="8" height="17.333984375" fill="#ef5350"/><line x1="55028" y1="282.666015625" x2="55028" y2="314.00146484375" stroke="#ef5350" stroke-width="2"/><rect x="55024" y="287.33317057291674" width="8" height="22.001139322916515" fill="#ef5350"/><line x1="55040" y1="285.99853515625" x2="55040" y2="314.66471354166674" stroke="#26a69a" stroke-width="2"/><rect x="55036" y="289.33512369791674" width="8" height="19.999186197916515" fill="#26a69a"/><line x1="55052" y1="283.6669921875" x2="55052" y2="303.99983723958326" stroke="#ef5350" stroke-width="2"/><rect x="55048" y="288.00048828125" width="8" height="6.5999348958332575" fill="#ef5350"/><line x1="55064" y1="290.66569010416674" x2="55064" y2="316.66666666666674" stroke="#ef5350" stroke-width="2"/><rect x="55060" y="297.33479817708326" width="8" height="19.331868489583485" fill="#ef5350"/><line x1="55076" y1="306.66097005208326" x2="55076" y2="327.33154296875" stroke="#ef5350" stroke-width="2"/><rect x="55072" y="315.99934895833326" width="8" height="2" fill="#ef5350"/><line x1="55088" y1="276.68863932291674" x2="55088" y2="318.00130208333326" stroke="#26a69a" stroke-width="2"/><rect x="55084" y="284.00065104166674" width="8" height="34.000651041666515" fill="#26a69a"/><line x1="55100" y1="278.33251953125" x2="55100" y2="292.00032552083326" stroke="#26a69a" stroke-width="2"/><rect x="55096" y="278.66617838541674" width="8" height="3.33251953125" fill="#26a69a"/><line x1="55112" y1="273.9990234375" x2="55112" y2="296.66748046875" stroke="#ef5350" stroke-width="2"/><rect x="55108" y="277.33154296875" width="8" height="17.333984375" fill="#ef5350"/><line x1="55124" y1="285.99853515625" x2="55124" y2="301.33463541666674" stroke="#26a69a" stroke-width="2"/><rect x="55120" y="297.33479817708326" width="8" height="2" fill="#26a69a"/><line x1="55136" y1="296.00016276041674" x2="55136" y2="316.66666666666674" stroke="#ef5350" stroke-width="2"/><rect x="55132" y="297.33479817708326" width="8" height="15.33203125" fill="#ef5350"/><line x1="55148" y1="260.66487630208326" x2="55148" y2="313.00048828125" stroke="#26a69a" stroke-width="2"/><rect x="55144" y="267.59847005208326" width="8" height="44.40104166666674" fill="#26a69a"/><line x1="55160" y1="261.99951171875" x2="55160" y2="282.666015625" stroke="#ef5350" stroke-width="2"/><rect x="55156" y="270.66650390625" width="8" height="2.6652018229167425" fill="#ef5350"/><line x1="55172" y1="271.33382161458326" x2="55172" y2="292.66764322916674" stroke="#ef5350" stroke-width="2"/><rect x="55168" y="273.33170572916674" width="8" height="14.00146484375" fill="#ef5350"/><line x1="55184" y1="267.333984375" x2="55184" y2="303.33251953125" stroke="#26a69a" stroke-width="2"/><rect x="55180" y="276.0009765625" width="8" height="11.99951171875" fill="#26a69a"/><line x1="55196" y1="257.33235677083326" x2="55196" y2="280.33447265625" stroke="#26a69a" stroke-width="2"/><rect x="55192" y="270.66650390625" width="8" height="5.6681315104167425" fill="#26a69a"/><line x1="55208" y1="269.33186848958326" x2="55208" y2="281.99869791666674" stroke="#ef5350" stroke-width="2"/><rect x="55204" y="271.33382161458326" width="8" height="7.9996744791667425" fill="#ef5350"/><line x1="55220" y1="258.6669921875" x2="55220" y2="280.66813151041674" stroke="#26a69a" stroke-width="2"/><rect x="55216" y="259.66796875" width="8" height="18.998209635416742" fill="#26a69a"/><line x1="55232" y1="234.66796875" x2="55232" y2="263.00048828125" stroke="#26a69a" stroke-width="2"/><rect x="55228" y="243.06640625" width="8" height="18.265787760416742" fill="#26a69a"/><line x1="55244" y1="237.33317057291674" x2="55244" y2="261.99951171875" stroke="#ef5350" stroke-width="2"/><rect x="55240" y="242.66764322916674" width="8" height="15.999348958333258" fill="#ef5350"/><line x1="55256" y1="239.99837239583326" x2="55256" y2="270.66650390625" stroke="#26a69a" stroke-width="2"/><rect x="55252" y="251.33463541666674" width="8" height="7.999674479166515" fill="#26a69a"/><line x1="55268" y1="240.66569010416674" x2="55268" y2="262.00764973958326" stroke="#26a69a" stroke-width="2"/><rect x="55264" y="240.99934895833326" width="8" height="10.6689453125" fill="#26a69a"/><line x1="55280" y1="193.3349609375" x2="55280" y2="243.3349609375" stroke="#26a69a" stroke-width="2"/><rect x="55276" y="193.3349609375" width="8" height="48.66536458333326" fill="#26a69a"/><line x1="55292" y1="167.333984375" x2="55292" y2="196.00016276041674" stroke="#26a69a" stroke-width="2"/><rect x="55288" y="174.66634114583326" width="8" height="18.001302083333485" fill="#26a69a"/><line x1="55304" y1="89.99837239583326" x2="55304" y2="181.99869791666674" stroke="#26a69a" stroke-width="2"/><rect x="55300" y="111.99951171875" width="8" height="62.66682942708326" fill="#26a69a"/><line x1="55316" y1="110.00162760416674" x2="55316" y2="206.00179036458326" stroke="#ef5350" stroke-width="2"/><rect x="55312" y="111.33219401041674" width="8" height="88.00048828125" fill="#ef5350"/><rect x="54387" y="889.6804888307418" width="10" height="130.31951116925825" fill="#26a69a" opacity="0.9"/><rect x="54399" y="948.8892881222669" width="10" height="71.11071187773314" fill="#26a69a" opacity="0.9"/><rect x="54411" y="971.7252377258634" width="10" height="48.274762274136606" fill="#26a69a" opacity="0.9"/><rect x="54423" y="947.1855244552754" width="10" height="72.81447554472459" fill="#ef5350" opacity="0.9"/><rect x="54435" y="980.9481980601485" width="10" height="39.05180193985154" fill="#ef5350" opacity="0.9"/><rect x="54447" y="986.9548051377109" width="10" height="33.04519486228912" fill="#ef5350" opacity="0.9"/><rect x="54459" y="987.5654208471685" width="10" height="32.434579152831475" fill="#ef5350" opacity="0.9"/><rect x="54471" y="988.2080574219716" width="10" height="31.791942578028397" fill="#ef5350" opacity="0.9"/><rect x="54483" y="986.4849544204646" width="10" height="33.515045579535354" fill="#ef5350" opacity="0.9"/><rect x="54495" y="992.7547032627465" width="10" height="27.24529673725351" fill="#26a69a" opacity="0.9"/><rect x="54507" y="985.5909064969596" width="10" height="34.40909350304037" fill="#ef5350" opacity="0.9"/><rect x="54519" y="996.5823063054685" width="10" height="23.417693694531522" fill="#26a69a" opacity="0.9"/><rect x="54531" y="986.6472780150868" width="10" height="33.35272198491316" fill="#26a69a" opacity="0.9"/><rect x="54543" y="991.777591312306" width="10" height="28.222408687694042" fill="#ef5350" opacity="0.9"/><rect x="54555" y="982.3279486144371" width="10" height="37.672051385562895" fill="#26a69a" opacity="0.9"/><rect x="54567" y="977.7981058020117" width="10" height="42.20189419798828" fill="#ef5350" opacity="0.9"/><rect x="54579" y="990.1052144341184" width="10" height="29.894785565881648" fill="#ef5350" opacity="0.9"/><rect x="54591" y="994.6987819389637" width="10" height="25.301218061036252" fill="#26a69a" opacity="0.9"/><rect x="54603" y="983.1199102147617" width="10" height="36.88008978523828" fill="#26a69a" opacity="0.9"/><rect x="54615" y="978.305367035206" width="10" height="41.69463296479398" fill="#26a69a" opacity="0.9"/><rect x="54627" y="982.3682124748219" width="10" height="37.63178752517808" fill="#26a69a" opacity="0.9"/><rect x="54639" y="982.8580366031251" width="10" height="37.14196339687487" fill="#ef5350" opacity="0.9"/><rect x="54651" y="987.0591107287864" width="10" height="32.940889271213564" fill="#26a69a" opacity="0.9"/><rect x="54663" y="980.0294211515253" width="10" height="39.9705788484747" fill="#ef5350" opacity="0.9"/><rect x="54675" y="968.9276920247967" width="10" height="51.07230797520333" fill="#26a69a" opacity="0.9"/><rect x="54687" y="981.6320496101486" width="10" height="38.367950389851444" fill="#26a69a" opacity="0.9"/><rect x="54699" y="988.6585688047023" width="10" height="31.341431195297673" fill="#26a69a" opacity="0.9"/><rect x="54711" y="996.5902322622371" width="10" height="23.409767737762877" fill="#26a69a" opacity="0.9"/><rect x="54723" y="988.0352715644148" width="10" height="31.964728435585243" fill="#ef5350" opacity="0.9"/><rect x="54735" y="986.0065436699082" width="10" height="33.99345633009182" fill="#ef5350" opacity="0.9"/><rect x="54747" y="992.5666995681938" width="10" height="27.433300431806174" fill="#26a69a" opacity="0.9"/><rect x="54759" y="969.9285818455431" width="10" height="50.071418154456865" fill="#26a69a" opacity="0.9"/><rect x="54771" y="987.6408759556061" width="10" height="32.359124044393866" fill="#ef5350" opacity="0.9"/><rect x="54783" y="988.2194707997185" width="10" height="31.780529200281535" fill="#26a69a" opacity="0.9"/><rect x="54795" y="998.2924107378749" width="10" height="21.70758926212511" fill="#ef5350" opacity="0.9"/><rect x="54807" y="991.7557156716244" width="10" height="28.244284328375556" fill="#26a69a" opacity="0.9"/><rect x="54819" y="992.1041407311748" width="10" height="27.895859268825234" fill="#26a69a" opacity="0.9"/><rect x="54831" y="995.0430855009945" width="10" height="24.956914499005507" fill="#ef5350" opacity="0.9"/><rect x="54843" y="998.2955811205824" width="10" height="21.70441887941763" fill="#26a69a" opacity="0.9"/><rect x="54855" y="992.0505612634187" width="10" height="27.949438736581328" fill="#26a69a" opacity="0.9"/><rect x="54867" y="990.3699413901917" width="10" height="29.630058609808316" fill="#26a69a" opacity="0.9"/><rect x="54879" y="993.1085179728996" width="10" height="26.891482027100437" fill="#ef5350" opacity="0.9"/><rect x="54891" y="998.300970771185" width="10" height="21.699029228814993" fill="#26a69a" opacity="0.9"/><rect x="54903" y="998.5419198569523" width="10" height="21.45808014304771" fill="#ef5350" opacity="0.9"/><rect x="54915" y="996.7005615804569" width="10" height="23.299438419543094" fill="#ef5350" opacity="0.9"/><rect x="54927" y="1000.0193181986308" width="10" height="19.9806818013692" fill="#26a69a" opacity="0.9"/><rect x="54939" y="991.5334718438312" width="10" height="28.466528156168806" fill="#ef5350" opacity="0.9"/><rect x="54951" y="999.5542230554457" width="10" height="20.445776944554268" fill="#26a69a" opacity="0.9"/><rect x="54963" y="989.224165079714" width="10" height="30.775834920286" fill="#26a69a" opacity="0.9"/><rect x="54975" y="997.4624045450606" width="10" height="22.537595454939378" fill="#26a69a" opacity="0.9"/><rect x="54987" y="998.5786962963589" width="10" height="21.421303703641115" fill="#ef5350" opacity="0.9"/><rect x="54999" y="1000.3981789321729" width="10" height="19.60182106782713" fill="#26a69a" opacity="0.9"/><rect x="55011" y="1000.3623536075785" width="10" height="19.637646392421516" fill="#ef5350" opacity="0.9"/><rect x="55023" y="996.9132942601278" width="10" height="23.086705739872173" fill="#ef5350" opacity="0.9"/><rect x="55035" y="999.5396392949914" width="10" height="20.46036070500861" fill="#26a69a" opacity="0.9"/><rect x="55047" y="997.6009502693769" width="10" height="22.39904973062312" fill="#ef5350" opacity="0.9"/><rect x="55059" y="999.1503162985148" width="10" height="20.84968370148522" fill="#ef5350" opacity="0.9"/><rect x="55071" y="1001.4986187699337" width="10" height="18.501381230066272" fill="#ef5350" opacity="0.9"/><rect x="55083" y="999.4698908754272" width="10" height="20.530109124572846" fill="#26a69a" opacity="0.9"/><rect x="55095" y="1001.7119855261461" width="10" height="18.288014473853877" fill="#26a69a" opacity="0.9"/><rect x="55107" y="996.8787370886164" width="10" height="23.12126291138361" fill="#ef5350" opacity="0.9"/><rect x="55119" y="999.8097559016674" width="10" height="20.19024409833264" fill="#26a69a" opacity="0.9"/><rect x="55131" y="990.1958873795519" width="10" height="29.80411262044811" fill="#ef5350" opacity="0.9"/><rect x="55143" y="991.7836150394502" width="10" height="28.216384960549817" fill="#26a69a" opacity="0.9"/><rect x="55155" y="994.2745847327051" width="10" height="25.72541526729492" fill="#ef5350" opacity="0.9"/><rect x="55167" y="982.0999980977704" width="10" height="37.90000190222963" fill="#ef5350" opacity="0.9"/><rect x="55179" y="983.0815485840014" width="10" height="36.91845141599856" fill="#26a69a" opacity="0.9"/><rect x="55191" y="991.6235107127231" width="10" height="28.376489287276854" fill="#26a69a" opacity="0.9"/><rect x="55203" y="989.0570859110306" width="10" height="30.94291408896936" fill="#ef5350" opacity="0.9"/><rect x="55215" y="988.5758218160374" width="10" height="31.424178183962567" fill="#26a69a" opacity="0.9"/><rect x="55227" y="969.5795227094513" width="10" height="50.42047729054866" fill="#26a69a" opacity="0.9"/><rect x="55239" y="980.6317938659436" width="10" height="39.368206134056436" fill="#ef5350" opacity="0.9"/><rect x="55251" y="984.5538743133479" width="10" height="35.44612568665207" fill="#26a69a" opacity="0.9"/><rect x="55263" y="988.8998349287403" width="10" height="31.100165071259653" fill="#26a69a" opacity="0.9"/><rect x="55275" y="975.7104087891463" width="10" height="44.2895912108537" fill="#26a69a" opacity="0.9"/><rect x="55287" y="970.5281012155248" width="10" height="49.47189878447523" fill="#26a69a" opacity="0.9"/><rect x="55299" y="912.092875304621" width="10" height="107.90712469537903" fill="#26a69a" opacity="0.9"/><rect x="55311" y="860.0" width="10" height="160.0" fill="#ef5350" opacity="0.9"/><polyline points="320,548.3343021453342,332,538.0162070253391,344,527.4748104485221,356,518.9534464325865,368,507.75165490726215,380,496.9815475202571,392,487.55454745880036,404,478.5804784547812,416,470.2394185027364,428,464.75631478125104,440,457.82717294692554,452,449.2723281027717,464,442.9288697715568,476,436.5547847040337,488,431.48607504967913,500,423.2810055261022,512,414.5874524204449,524,411.03927056790326,536,404.7179616894103,548,396.8401690830812,560,388.1888949194111,572,381.1234253883943,584,371.61942108553677,596,365.30695637898134,608,359.84912000756896,620,354.212757883829,632,350.700493740131,644,347.39872300694213,656,344.1544776858412,668,339.0603074399678,680,334.57840440005384,692,328.99960174885723,704,325.0313702082924,716,323.53641208329304,728,320.2791465227772,740,317.8335538231902,752,317.722421713044,764,317.6218736133858,776,314.41985241607813,788,311.0147406036351,800,309.4576726741252,812,308.30311319822,824,308.7187052200154,836,304.8024923468802,848,301.80527457376525,860,300.4269789546395,872,298.1006930125279,884,295.4879130976451,896,293.94939719250783,908,290.68449924560196,920,286.14944276982897,932,283.53206652389713,944,280.46564451368954,956,276.7069496988977,968,268.7667602930485,980,259.80481561235433,992,245.72812000343833,1004,241.30950688803136" fill="none" stroke="#0090ff" stroke-width="2"/><line x1="80" y1="50" x2="80" y2="900" stroke="#666666" stroke-width="0.5" stroke-dasharray="4,4" opacity="0.90"/><line x1="152" y1="50" x2="152" y2="900" stroke="#666666" stroke-width="0.5" stroke-dasharray="4,4" opacity="0.90"/><line x1="224" y1="50" x2="224" y2="900" stroke="#666666" stroke-width="0.5" stroke-dasharray="4,4" opacity="0.90"/><line x1="290" y1="30" x2="290" y2="950" stroke="black" stroke-width="0.7"/><line x1="296" y1="50" x2="296" y2="900" stroke="#666666" stroke-width="0.5" stroke-dasharray="4,4" opacity="0.90"/><line x1="368" y1="50" x2="368" y2="900" stroke="#666666" stroke-width="0.5" stroke-dasharray="4,4" opacity="0.90"/><line x1="440" y1="50" x2="440" y2="900" stroke="#666666" stroke-width="0.5" stroke-dasharray="4,4" opacity="0.90"/><line x1="512" y1="50" x2="512" y2="900" stroke="#666666" stroke-width="0.5" stroke-dasharray="4,4" opacity="0.90"/><line x1="584" y1="50" x2="584" y2="900" stroke="#666666" stroke-width="0.5" stroke-dasharray="4,4" opacity="0.90"/><line x1="656" y1="50" x2="656" y2="900" stroke="#666666" stroke-width="0.5" stroke-dasharray="4,4" opacity="0.90"/><line x1="728" y1="50" x2="728" y2="900" stroke="#666666" stroke-width="0.5" stroke-dasharray="4,4" opacity="0.90"/><line x1="800" y1="50" x2="800" y2="900" stroke="#666666" stroke-width="0.5" stroke-dasharray="4,4" opacity="0.90"/><line x1="872" y1="50" x2="872" y2="900" stroke="#666666" stroke-width="0.5" stroke-dasharray="4,4" opacity="0.90"/><line x1="944" y1="50" x2="944" y2="900" stroke="#666666" stroke-width="0.5" stroke-dasharray="4,4" opacity="0.90"/><text x="80" y="1040" text-anchor="middle" font-size="20" fill="black">14:30</text><text x="152" y="1040" text-anchor="middle" font-size="20" fill="black">15:00</text><text x="224" y="1040" text-anchor="middle" font-size="20" fill="black">15:30</text><text x="296" y="1040" text-anchor="middle" font-size="20" fill="black">16:00</text><text x="368" y="1040" text-anchor="middle" font-size="20" fill="black">16:30</text><text x="440" y="1040" text-anchor="middle" font-size="20" fill="black">17:00</text><text x="512" y="1040" text-anchor="middle" font-size="20" fill="black">17:30</text><text x="584" y="1040" text-anchor="middle" font-size="20" fill="black">18:00</text><text x="656" y="1040" text-anchor="middle" font-size="20" fill="black">18:30</text><text x="728" y="1040" text-anchor="middle" font-size="20" fill="black">19:00</text><text x="800" y="1040" text-anchor="middle" font-size="20" fill="black">19:30</text><text x="872" y="1040" text-anchor="middle" font-size="20" fill="black">20:00</text><text x="944" y="1040" text-anchor="middle" font-size="20" fill="black">20:30</text><text x="1006" y="50" text-anchor="end" font-size="40" fill="#26a69a" font-weight="bold">▲ +1.35% (Fri)</text></svg>