<svg xmlns="http://www.w3.org/2000/svg" width="1056" height="1050"><rect width="100%" height="100%" fill="white"/><text x="42" y="854.0" text-anchor="end" font-size="20" fill="black">693</text><text x="42" y="694.0" text-anchor="end" font-size="20" fill="black">694</text><text x="42" y="534.0" text-anchor="end" font-size="20" fill="black">695</text><text x="42" y="374.0" text-anchor="end" font-size="20" fill="black">696</text><text x="42" y="214.0" text-anchor="end" font-size="20" fill="black">697</text><text x="42" y="54.0" text-anchor="end" font-size="20" fill="black">698</text><line x1="34736" y1="453.203125" x2="34736" y2="568.3984375" stroke="#ef5350" stroke-width="2"/><rect x="34732" y="490.0" width="8" height="52.802734375" fill="#ef5350"/><line x1="34748" y1="456.396484375" x2="34748" y2="539.599609375" stroke="#26a69a" stroke-width="2"/><rect x="34744" y="456.396484375" width="8" height="83.203125" fill="#26a69a"/><line x1="34760" y1="392.40234375" x2="34760" y2="480.400390625" stroke="#26a69a" stroke-width="2"/><rect x="34756" y="398.798828125" width="8" height="56.005859375" fill="#26a69a"/><line x1="34772" y1="349.19921875" x2="34772" y2="417.19726562500006" stroke="#ef5350" stroke-width="2"/><rect x="34768" y="398.798828125" width="8" height="9.599609375" fill="#ef5350"/><line x1="34784" y1="385.99609375000006" x2="34784" y2="461.181640625" stroke="#ef5350" stroke-width="2"/><rect x="34780" y="409.99999999999994" width="8" height="24.003906250000057" fill="#ef5350"/><line x1="34796" y1="387.59765625" x2="34796" y2="438.798828125" stroke="#ef5350" stroke-width="2"/><rect x="34792" y="429.19921875" width="8" height="3.203125" fill="#ef5350"/><line x1="34808" y1="409.99999999999994" x2="34808" y2="583.603515625" stroke="#ef5350" stroke-width="2"/><rect x="34804" y="432.40234375" width="8" height="100.80078125" fill="#ef5350"/><line x1="34820" y1="475.595703125" x2="34820" y2="557.197265625" stroke="#26a69a" stroke-width="2"/><rect x="34816" y="525.1953125" width="8" height="8.0078125" fill="#26a69a"/><line x1="34832" y1="518.798828125" x2="34832" y2="592.40234375" stroke="#ef5350" stroke-width="2"/><rect x="34828" y="525.1953125" width="8" height="54.404296875" fill="#ef5350"/><line x1="34844" y1="577.998046875" x2="34844" y2="660.400390625" stroke="#ef5350" stroke-width="2"/><rect x="34840" y="577.998046875" width="8" height="60.80078125" fill="#ef5350"/><line x1="34856" y1="573.203125" x2="34856" y2="657.998046875" stroke="#26a69a" stroke-width="2"/><rect x="34852" y="597.314453125" width="8" height="39.8828125" fill="#26a69a"/><line x1="34868" y1="530.0" x2="34868" y2="637.197265625" stroke="#26a69a" stroke-width="2"/><rect x="34864" y="571.6015625" width="8" height="7.998046875" fill="#26a69a"/><line x1="34880" y1="497.998046875" x2="34880" y2="605.1953125" stroke="#26a69a" stroke-width="2"/><rect x="34876" y="497.998046875" width="8" height="70.400390625" fill="#26a69a"/><line x1="34892" y1="438.798828125" x2="34892" y2="690.0" stroke="#ef5350" stroke-width="2"/><rect x="34888" y="501.201171875" width="8" height="54.39453125" fill="#ef5350"/><line x1="34904" y1="485.1953125" x2="34904" y2="595.595703125" stroke="#ef5350" stroke-width="2"/><rect x="34900" y="541.201171875" width="8" height="22.40234375" fill="#ef5350"/><line x1="34916" y1="454.8046875" x2="34916" y2="573.203125" stroke="#26a69a" stroke-width="2"/><rect x="34912" y="459.599609375" width="8" height="107.197265625" fill="#26a69a"/><line x1="34928" y1="450.0" x2="34928" y2="465.83984375" stroke="#ef5350" stroke-width="2"/><rect x="34924" y="457.998046875" width="8" height="4.00390625" fill="#ef5350"/><line x1="34940" y1="440.400390625" x2="34940" y2="445.1953125" stroke="#26a69a" stroke-width="2"/><rect x="34936" y="440.400390625" width="8" height="4.794921875" fill="#26a69a"/><line x1="34952" y1="390.00000000000006" x2="34952" y2="450.0" stroke="#26a69a" stroke-width="2"/><rect x="34948" y="408.3984375" width="8" height="28.798828124999943" fill="#26a69a"/><line x1="34964" y1="400.40039062500006" x2="34964" y2="432.40234375" stroke="#ef5350" stroke-width="2"/><rect x="34960" y="403.60351562499994" width="8" height="17.724609375" fill="#ef5350"/><line x1="34976" y1="417.998046875" x2="34976" y2="445.1953125" stroke="#ef5350" stroke-width="2"/><rect x="34972" y="417.998046875" width="8" height="12.001953125" fill="#ef5350"/><line x1="34988" y1="408.41796875" x2="34988" y2="432.40234375" stroke="#26a69a" stroke-width="2"/><rect x="34984" y="424.40429687499994" width="8" height="2" fill="#26a69a"/><line x1="35000" y1="422.001953125" x2="35000" y2="470.80078125" stroke="#ef5350" stroke-width="2"/><rect x="34996" y="422.001953125" width="8" height="32.861328125" fill="#ef5350"/><line x1="35012" y1="457.998046875" x2="35012" y2="530.80078125" stroke="#ef5350" stroke-width="2"/><rect x="35008" y="457.998046875" width="8" height="28.798828125" fill="#ef5350"/><line x1="35024" y1="438.798828125" x2="35024" y2="491.6015625" stroke="#26a69a" stroke-width="2"/><rect x="35020" y="464.404296875" width="8" height="18.3984375" fill="#26a69a"/><line x1="35036" y1="444.404296875" x2="35036" y2="477.197265625" stroke="#26a69a" stroke-width="2"/><rect x="35032" y="448.39843750000006" width="8" height="14.404296874999943" fill="#26a69a"/><line x1="35048" y1="320.400390625" x2="35048" y2="450.01953125" stroke="#26a69a" stroke-width="2"/><rect x="35044" y="328.3984375" width="8" height="121.62109375" fill="#26a69a"/><line x1="35060" y1="290.0" x2="35060" y2="341.20117187499994" stroke="#ef5350" stroke-width="2"/><rect x="35056" y="326.796875" width="8" height="5.60546875" fill="#ef5350"/><line x1="35072" y1="307.59765625" x2="35072" y2="350.80078125" stroke="#26a69a" stroke-width="2"/><rect x="35068" y="307.59765625" width="8" height="19.19921875" fill="#26a69a"/><line x1="35084" y1="271.884765625" x2="35084" y2="304.404296875" stroke="#26a69a" stroke-width="2"/><rect x="35080" y="277.197265625" width="8" height="27.20703125" fill="#26a69a"/><line x1="35096" y1="246.796875" x2="35096" y2="280.400390625" stroke="#26a69a" stroke-width="2"/><rect x="35092" y="246.796875" width="8" height="33.603515625" fill="#26a69a"/><line x1="35108" y1="206.796875" x2="35108" y2="251.6015625" stroke="#26a69a" stroke-width="2"/><rect x="35104" y="226.4453125" width="8" height="25.15625" fill="#26a69a"/><line x1="35120" y1="222.001953125" x2="35120" y2="257.265625" stroke="#ef5350" stroke-width="2"/><rect x="35116" y="224.404296875" width="8" height="20.791015625" fill="#ef5350"/><line x1="35132" y1="235.615234375" x2="35132" y2="269.296875" stroke="#26a69a" stroke-width="2"/><rect x="35128" y="237.197265625" width="8" height="6.73828125" fill="#26a69a"/><line x1="35144" y1="208.3984375" x2="35144" y2="237.998046875" stroke="#26a69a" stroke-width="2"/><rect x="35140" y="214.892578125" width="8" height="14.306640625" fill="#26a69a"/><line x1="35156" y1="214.814453125" x2="35156" y2="261.982421875" stroke="#ef5350" stroke-width="2"/><rect x="35152" y="216.396484375" width="8" height="38.408203125" fill="#ef5350"/><line x1="35168" y1="248.3984375" x2="35168" y2="295.21484375" stroke="#ef5350" stroke-width="2"/><rect x="35164" y="253.203125" width="8" height="22.392578125" fill="#ef5350"/><line x1="35180" y1="269.19921875" x2="35180" y2="305.986328125" stroke="#26a69a" stroke-width="2"/><rect x="35176" y="271.6015625" width="8" height="7.197265625" fill="#26a69a"/><line x1="35192" y1="237.197265625" x2="35192" y2="288.3984375" stroke="#26a69a" stroke-width="2"/><rect x="35188" y="241.50390625" width="8" height="29.296875" fill="#26a69a"/><line x1="35204" y1="236.396484375" x2="35204" y2="304.404296875" stroke="#ef5350" stroke-width="2"/><rect x="35200" y="240.908203125" width="8" height="55.48828125" fill="#ef5350"/><line x1="35216" y1="299.599609375" x2="35216" y2="394.00390625000006" stroke="#ef5350" stroke-width="2"/><rect x="35212" y="299.599609375" width="8" height="52.80273437500006" fill="#ef5350"/><line x1="35228" y1="329.35546875" x2="35228" y2="374.8046875" stroke="#ef5350" stroke-width="2"/><rect x="35224" y="350.80078125" width="8" height="14.394531250000057" fill="#ef5350"/><line x1="35240" y1="360.400390625" x2="35240" y2="397.998046875" stroke="#ef5350" stroke-width="2"/><rect x="35236" y="365.19531250000006" width="8" height="19.208984374999943" fill="#ef5350"/><line x1="35252" y1="364.41406250000006" x2="35252" y2="393.98437499999994" stroke="#26a69a" stroke-width="2"/><rect x="35248" y="381.201171875" width="8" height="2" fill="#26a69a"/><line x1="35264" y1="382.80273437499994" x2="35264" y2="424.40429687499994" stroke="#ef5350" stroke-width="2"/><rect x="35260" y="382.80273437499994" width="8" height="15.996093750000057" fill="#ef5350"/><line x1="35276" y1="398.67187499999994" x2="35276" y2="480.400390625" stroke="#ef5350" stroke-width="2"/><rect x="35272" y="400.40039062500006" width="8" height="54.40429687499994" fill="#ef5350"/><line x1="35288" y1="451.6015625" x2="35288" y2="494.8046875" stroke="#ef5350" stroke-width="2"/><rect x="35284" y="456.396484375" width="8" height="8.7890625" fill="#ef5350"/><line x1="35300" y1="454.8046875" x2="35300" y2="502.802734375" stroke="#ef5350" stroke-width="2"/><rect x="35296" y="462.48046875" width="8" height="37.119140625" fill="#ef5350"/><line x1="35312" y1="427.59765625000006" x2="35312" y2="499.599609375" stroke="#26a69a" stroke-width="2"/><rect x="35308" y="430.80078124999994" width="8" height="68.79882812500006" fill="#26a69a"/><line x1="35324" y1="430.80078124999994" x2="35324" y2="456.396484375" stroke="#ef5350" stroke-width="2"/><rect x="35320" y="432.40234375" width="8" height="3.193359375" fill="#ef5350"/><line x1="35336" y1="385.99609375000006" x2="35336" y2="431.60156250000006" stroke="#26a69a" stroke-width="2"/><rect x="35332" y="398.96484374999994" width="8" height="32.636718750000114" fill="#26a69a"/><line x1="35348" y1="365.19531250000006" x2="35348" y2="422.802734375" stroke="#26a69a" stroke-width="2"/><rect x="35344" y="367.32421874999994" width="8" height="35.107421875" fill="#26a69a"/><line x1="35360" y1="337.197265625" x2="35360" y2="374.8046875" stroke="#26a69a" stroke-width="2"/><rect x="35356" y="360.44921875" width="8" height="7.949218749999943" fill="#26a69a"/><line x1="35372" y1="352.40234375000006" x2="35372" y2="416.39648437499994" stroke="#ef5350" stroke-width="2"/><rect x="35368" y="352.40234375000006" width="8" height="35.19531249999994" fill="#ef5350"/><line x1="35384" y1="379.59960937500006" x2="35384" y2="422.802734375" stroke="#26a69a" stroke-width="2"/><rect x="35380" y="379.59960937500006" width="8" height="6.396484375" fill="#26a69a"/><line x1="35396" y1="390.80078125" x2="35396" y2="474.00390625" stroke="#ef5350" stroke-width="2"/><rect x="35392" y="392.71484374999994" width="8" height="71.68945312500006" fill="#ef5350"/><line x1="35408" y1="462.802734375" x2="35408" y2="561.455078125" stroke="#ef5350" stroke-width="2"/><rect x="35404" y="467.59765625" width="8" height="52.802734375" fill="#ef5350"/><line x1="35420" y1="518.798828125" x2="35420" y2="608.3984375" stroke="#ef5350" stroke-width="2"/><rect x="35416" y="523.603515625" width="8" height="4.794921875" fill="#ef5350"/><line x1="35432" y1="526.796875" x2="35432" y2="579.599609375" stroke="#ef5350" stroke-width="2"/><rect x="35428" y="526.796875" width="8" height="45.41015625" fill="#ef5350"/><line x1="35444" y1="565.1953125" x2="35444" y2="598.798828125" stroke="#ef5350" stroke-width="2"/><rect x="35440" y="568.3984375" width="8" height="8.193359375" fill="#ef5350"/><line x1="35456" y1="512.40234375" x2="35456" y2="585.99609375" stroke="#26a69a" stroke-width="2"/><rect x="35452" y="515.595703125" width="8" height="51.201171875" fill="#26a69a"/><line x1="35468" y1="497.998046875" x2="35468" y2="531.6015625" stroke="#26a69a" stroke-width="2"/><rect x="35464" y="501.201171875" width="8" height="4.794921875" fill="#26a69a"/><line x1="35480" y1="515.595703125" x2="35480" y2="563.603515625" stroke="#ef5350" stroke-width="2"/><rect x="35476" y="525.1953125" width="8" height="4.296875" fill="#ef5350"/><line x1="35492" y1="520.400390625" x2="35492" y2="548.3984375" stroke="#ef5350" stroke-width="2"/><rect x="35488" y="530.0" width="8" height="2" fill="#ef5350"/><line x1="35504" y1="525.1953125" x2="35504" y2="565.1953125" stroke="#26a69a" stroke-width="2"/><rect x="35500" y="525.1953125" width="8" height="8.369140625" fill="#26a69a"/><line x1="35516" y1="528.3984375" x2="35516" y2="565.185546875" stroke="#ef5350" stroke-width="2"/><rect x="35512" y="531.6015625" width="8" height="32.001953125" fill="#ef5350"/><line x1="35528" y1="550.80078125" x2="35528" y2="590.78125" stroke="#26a69a" stroke-width="2"/><rect x="35524" y="562.001953125" width="8" height="2" fill="#26a69a"/><line x1="35540" y1="562.001953125" x2="35540" y2="621.201171875" stroke="#ef5350" stroke-width="2"/><rect x="35536" y="565.1953125" width="8" height="50.400390625" fill="#ef5350"/><line x1="35552" y1="611.6015625" x2="35552" y2="726.796875" stroke="#ef5350" stroke-width="2"/><rect x="35548" y="613.203125" width="8" height="103.857421875" fill="#ef5350"/><line x1="35564" y1="665.99609375" x2="35564" y2="758.798828125" stroke="#26a69a" stroke-width="2"/><rect x="35560" y="670.3515625" width="8" height="46.845703125" fill="#26a69a"/><line x1="35576" y1="664.404296875" x2="35576" y2="750.80078125" stroke="#ef5350" stroke-width="2"/><rect x="35572" y="670.80078125" width="8" height="80.0" fill="#ef5350"/><line x1="35588" y1="741.201171875" x2="35588" y2="821.201171875" stroke="#ef5350" stroke-width="2"/><rect x="35584" y="749.21875" width="8" height="36.77734375" fill="#ef5350"/><line x1="35600" y1="785.99609375" x2="35600" y2="885.458984375" stroke="#ef5350" stroke-width="2"/><rect x="35596" y="789.19921875" width="8" height="94.404296875" fill="#ef5350"/><line x1="35612" y1="882.001953125" x2="35612" y2="942.802734375" stroke="#ef5350" stroke-width="2"/><rect x="35608" y="882.001953125" width="8" height="54.39453125" fill="#ef5350"/><line x1="35624" y1="872.40234375" x2="35624" y2="952.40234375" stroke="#26a69a" stroke-width="2"/><rect x="35620" y="899.599609375" width="8" height="36.796875" fill="#26a69a"/><line x1="35636" y1="878.798828125" x2="35636" y2="925.1953125" stroke="#ef5350" stroke-width="2"/><rect x="35632" y="897.998046875" width="8" height="3.203125" fill="#ef5350"/><line x1="35648" y1="849.19921875" x2="35648" y2="902.802734375" stroke="#26a69a" stroke-width="2"/><rect x="35644" y="870.80078125" width="8" height="22.40234375" fill="#26a69a"/><line x1="35660" y1="877.197265625" x2="35660" y2="945.99609375" stroke="#ef5350" stroke-width="2"/><rect x="35656" y="885.1953125" width="8" height="25.60546875" fill="#ef5350"/><rect x="34731" y="860.0" width="10" height="160.0" fill="#ef5350" opacity="0.9"/><rect x="34743" y="965.8782587673808" width="10" height="54.12174123261923" fill="#26a69a" opacity="0.9"/><rect x="34755" y="961.2477482044123" width="10" height="58.752251795587654" fill="#26a69a" opacity="0.9"/><rect x="34767" y="962.9637919067932" width="10" height="57.036208093206824" fill="#ef5350" opacity="0.9"/><rect x="34779" y="864.2643744492361" width="10" height="155.73562555076387" fill="#ef5350" opacity="0.9"/><rect x="34791" y="970.3508511982282" width="10" height="49.649148801771844" fill="#ef5350" opacity="0.9"/><rect x="34803" y="972.8295809905561" width="10" height="47.17041900944389" fill="#ef5350" opacity="0.9"/><rect x="34815" y="980.8412942268251" width="10" height="39.158705773174916" fill="#26a69a" opacity="0.9"/><rect x="34827" y="953.8887632475767" width="10" height="66.11123675242334" fill="#ef5350" opacity="0.9"/><rect x="34839" y="968.706747978258" width="10" height="51.29325202174198" fill="#ef5350" opacity="0.9"/><rect x="34851" y="976.5564489086103" width="10" height="43.443551091389736" fill="#26a69a" opacity="0.9"/><rect x="34863" y="964.152272071496" width="10" height="55.847727928504014" fill="#26a69a" opacity="0.9"/><rect x="34875" y="965.1553446514494" width="10" height="54.844655348550646" fill="#26a69a" opacity="0.9"/><rect x="34887" y="921.2570283316827" width="10" height="98.7429716683173" fill="#ef5350" opacity="0.9"/><rect x="34899" y="930.3536976238195" width="10" height="89.64630237618053" fill="#ef5350" opacity="0.9"/><rect x="34911" y="978.7439074794706" width="10" height="41.256092520529364" fill="#26a69a" opacity="0.9"/><rect x="34923" y="1009.0671132565449" width="10" height="10.932886743455128" fill="#ef5350" opacity="0.9"/><rect x="34935" y="971.622969484758" width="10" height="48.37703051524204" fill="#26a69a" opacity="0.9"/><rect x="34947" y="991.1042181687735" width="10" height="28.895781831226486" fill="#26a69a" opacity="0.9"/><rect x="34959" y="993.7344323915434" width="10" height="26.26556760845665" fill="#ef5350" opacity="0.9"/><rect x="34971" y="996.6641061833722" width="10" height="23.335893816627845" fill="#ef5350" opacity="0.9"/><rect x="34983" y="994.4386302844086" width="10" height="25.561369715591354" fill="#26a69a" opacity="0.9"/><rect x="34995" y="991.7084012446288" width="10" height="28.291598755371183" fill="#ef5350" opacity="0.9"/><rect x="35007" y="992.7857538348761" width="10" height="27.214246165123882" fill="#ef5350" opacity="0.9"/><rect x="35019" y="987.8043140894167" width="10" height="32.19568591058328" fill="#26a69a" opacity="0.9"/><rect x="35031" y="992.4745966264007" width="10" height="27.52540337359926" fill="#26a69a" opacity="0.9"/><rect x="35043" y="989.1495426222988" width="10" height="30.85045737770122" fill="#26a69a" opacity="0.9"/><rect x="35055" y="991.6311968244809" width="10" height="28.368803175519133" fill="#ef5350" opacity="0.9"/><rect x="35067" y="992.361129524062" width="10" height="27.638870475938006" fill="#26a69a" opacity="0.9"/><rect x="35079" y="988.4611365426457" width="10" height="31.538863457354296" fill="#26a69a" opacity="0.9"/><rect x="35091" y="991.9329959214231" width="10" height="28.06700407857693" fill="#26a69a" opacity="0.9"/><rect x="35103" y="987.5639275994105" width="10" height="32.436072400589524" fill="#26a69a" opacity="0.9"/><rect x="35115" y="987.1814147904953" width="10" height="32.818585209504704" fill="#ef5350" opacity="0.9"/><rect x="35127" y="997.8455677644251" width="10" height="22.15443223557486" fill="#26a69a" opacity="0.9"/><rect x="35139" y="989.5150938540603" width="10" height="30.484906145939703" fill="#26a69a" opacity="0.9"/><rect x="35151" y="990.3198914459063" width="10" height="29.68010855409375" fill="#ef5350" opacity="0.9"/><rect x="35163" y="985.1261395450398" width="10" height="34.87386045496021" fill="#ef5350" opacity="0.9"/><rect x="35175" y="993.3103929627001" width="10" height="26.68960703729988" fill="#26a69a" opacity="0.9"/><rect x="35187" y="996.5728645959246" width="10" height="23.427135404075443" fill="#26a69a" opacity="0.9"/><rect x="35199" y="992.6629286210043" width="10" height="27.337071378995688" fill="#ef5350" opacity="0.9"/><rect x="35211" y="944.9938782353721" width="10" height="75.00612176462789" fill="#ef5350" opacity="0.9"/><rect x="35223" y="990.8375119900804" width="10" height="29.16248800991957" fill="#ef5350" opacity="0.9"/><rect x="35235" y="989.1448635665323" width="10" height="30.855136433467692" fill="#ef5350" opacity="0.9"/><rect x="35247" y="998.5743307000647" width="10" height="21.425669299935294" fill="#26a69a" opacity="0.9"/><rect x="35259" y="993.1548143584624" width="10" height="26.84518564153757" fill="#ef5350" opacity="0.9"/><rect x="35271" y="990.4152272071497" width="10" height="29.584772792850345" fill="#ef5350" opacity="0.9"/><rect x="35283" y="995.9037596213084" width="10" height="24.09624037869162" fill="#ef5350" opacity="0.9"/><rect x="35295" y="992.7968665923216" width="10" height="27.203133407678365" fill="#ef5350" opacity="0.9"/><rect x="35307" y="999.9950090071824" width="10" height="20.004990992817625" fill="#26a69a" opacity="0.9"/><rect x="35319" y="983.5779569682838" width="10" height="36.42204303171616" fill="#ef5350" opacity="0.9"/><rect x="35331" y="982.4257394857718" width="10" height="37.57426051422817" fill="#26a69a" opacity="0.9"/><rect x="35343" y="994.6199436953623" width="10" height="25.38005630463772" fill="#26a69a" opacity="0.9"/><rect x="35355" y="993.7859020049754" width="10" height="26.214097995024645" fill="#26a69a" opacity="0.9"/><rect x="35367" y="989.6776910419477" width="10" height="30.322308958052304" fill="#ef5350" opacity="0.9"/><rect x="35379" y="986.5550061997488" width="10" height="33.444993800251154" fill="#26a69a" opacity="0.9"/><rect x="35391" y="993.8268437429326" width="10" height="26.173156257067376" fill="#ef5350" opacity="0.9"/><rect x="35403" y="980.4663848835305" width="10" height="39.53361511646949" fill="#ef5350" opacity="0.9"/><rect x="35415" y="986.1596259874757" width="10" height="33.84037401252431" fill="#ef5350" opacity="0.9"/><rect x="35427" y="992.9582940162675" width="10" height="27.041705983732527" fill="#ef5350" opacity="0.9"/><rect x="35439" y="994.3602561003189" width="10" height="25.639743899681093" fill="#ef5350" opacity="0.9"/><rect x="35451" y="993.9678002978999" width="10" height="26.032199702100115" fill="#26a69a" opacity="0.9"/><rect x="35463" y="991.8844507178451" width="10" height="28.115549282154916" fill="#26a69a" opacity="0.9"/><rect x="35475" y="995.8867980441547" width="10" height="24.113201955845284" fill="#ef5350" opacity="0.9"/><rect x="35487" y="996.7565175347615" width="10" height="23.243482465238458" fill="#ef5350" opacity="0.9"/><rect x="35499" y="991.6721385624381" width="10" height="28.327861437561864" fill="#26a69a" opacity="0.9"/><rect x="35511" y="987.2492610991102" width="10" height="32.750738900889814" fill="#ef5350" opacity="0.9"/><rect x="35523" y="976.5435815052523" width="10" height="43.45641849474771" fill="#26a69a" opacity="0.9"/><rect x="35535" y="984.1043507420203" width="10" height="35.8956492579797" fill="#ef5350" opacity="0.9"/><rect x="35547" y="950.8573199928254" width="10" height="69.14268000717459" fill="#ef5350" opacity="0.9"/><rect x="35559" y="961.6776364529638" width="10" height="58.32236354703616" fill="#26a69a" opacity="0.9"/><rect x="35571" y="987.6019449275136" width="10" height="32.398055072486386" fill="#ef5350" opacity="0.9"/><rect x="35583" y="881.5014310112219" width="10" height="138.49856898877806" fill="#ef5350" opacity="0.9"/><rect x="35595" y="971.4995593889153" width="10" height="48.50044061108474" fill="#ef5350" opacity="0.9"/><rect x="35607" y="963.0825229468693" width="10" height="56.91747705313071" fill="#ef5350" opacity="0.9"/><rect x="35619" y="975.327611887921" width="10" height="44.672388112079034" fill="#26a69a" opacity="0.9"/><rect x="35631" y="975.4089104818647" width="10" height="44.59108951813528" fill="#ef5350" opacity="0.9"/><rect x="35643" y="950.0115806630222" width="10" height="69.98841933697781" fill="#26a69a" opacity="0.9"/><rect x="35655" y="899.4011588461449" width="10" height="120.59884115385512" fill="#ef5350" opacity="0.9"/><polyline points="320,490.05092075893117,332,483.79886134142,344,481.04309180889686,356,481.5910711604374,368,479.9542355142148,380,476.94892141762466,392,462.80125628261885,404,450.3823122318863,416,436.78377356694915,428,421.5850585248518,440,404.93856485582,452,387.9392074885982,464,374.3445508230252,476,361.2829046136904,488,347.3409687576168,500,338.5279895902204,512,332.53443849829637,524,326.73130745084563,536,318.6144120983772,548,316.49841898186423,560,319.9178403883525,572,324.2299805894618,584,329.960867854752,596,334.84089680905527,608,340.93212836296516,620,351.7771339950559,632,362.57793522172506,644,375.62761847440925,656,380.8822054054144,668,386.0930147120416,680,387.3189031918446,692,385.41464753070613,704,383.0369876468285,716,383.4713370376084,728,383.10260106973146,740,390.8456197178566,752,403.1841693280694,764,415.1093377254074,776,430.07102282299456,788,444.0253822565137,800,450.84160329159204,812,455.6377526804863,824,462.6715083775707,836,469.23627543685143,848,474.565707538095,860,483.0454987844496,872,490.5651611026042,884,502.4728317714107,896,522.9097570193699,908,536.9518337318186,920,557.3184001621121,932,579.0972281228642,944,608.0978269325897,956,639.3643657366192,968,664.1486746545706,980,686.7251029612817,992,704.2561199411648,1004,723.9270400658279" fill="none" stroke="#0090ff" stroke-width="2"/><line x1="80" y1="50" x2="80" y2="900" stroke="#666666" stroke-width="0.5" stroke-dasharray="4,4" opacity="0.90"/><line x1="152" y1="50" x2="152" y2="900" stroke="#666666" stroke-width="0.5" stroke-dasharray="4,4" opacity="0.90"/><line x1="224" y1="50" x2="224" y2="900" stroke="#666666" stroke-width="0.5" stroke-dasharray="4,4" opacity="0.90"/><line x1="290" y1="30" x2="290" y2="950" stroke="black" stroke-width="0.7"/><line x1="296" y1="50" x2="296" y2="900" stroke="#666666" stroke-width="0.5" stroke-dasharray="4,4" opacity="0.90"/><line x1="368" y1="50" x2="368" y2="900" stroke="#666666" stroke-width="0.5" stroke-dasharray="4,4" opacity="0.90"/><line x1="440" y1="50" x2="440" y2="900" stroke="#666666" stroke-width="0.5" stroke-dasharray="4,4" opacity="0.90"/><line x1="512" y1="50" x2="512" y2="900" stroke="#666666" stroke-width="0.5" stroke-dasharray="4,4" opacity="0.90"/><line x1="584" y1="50" x2="584" y2="900" stroke="#666666" stroke-width="0.5" stroke-dasharray="4,4" opacity="0.90"/><line x1="656" y1="50" x2="656" y2="900" stroke="#666666" stroke-width="0.5" stroke-dasharray="4,4" opacity="0.90"/><line x1="728" y1="50" x2="728" y2="900" stroke="#666666" stroke-width="0.5" stroke-dasharray="4,4" opacity="0.90"/><line x1="800" y1="50" x2="800" y2="900" stroke="#666666" stroke-width="0.5" stroke-dasharray="4,4" opacity="0.90"/><line x1="872" y1="50" x2="872" y2="900" stroke="#666666" stroke-width="0.5" stroke-dasharray="4,4" opacity="0.90"/><line x1="944" y1="50" x2="944" y2="900" stroke="#666666" stroke-width="0.5" stroke-dasharray="4,4" opacity="0.90"/><text x="80" y="1040" text-anchor="middle" font-size="20" fill="black">14:30</text><text x="152" y="1040" text-anchor="middle" font-size="20" fill="black">15:00</text><text x="224" y="1040" text-anchor="middle" font-size="20" fill="black">15:30</text><text x="296" y="1040" text-anchor="middle" font-size="20" fill="black">16:00</text><text x="368" y="1040" text-anchor="middle" font-size="20" fill="black">16:30</text><text x="440" y="1040" text-anchor="middle" font-size="20" fill="black">17:00</text><text x="512" y="1040" text-anchor="middle" font-size="20" fill="black">17:30</text><text x="584" y="1040" text-anchor="middle" font-size="20" fill="black">18:00</text><text x="656" y="1040" text-anchor="middle" font-size="20" fill="black">18:30</text><text x="728" y="1040" text-anchor="middle" font-size="20" fill="black">19:00</text><text x="800" y="1040" text-anchor="middle" font-size="20" fill="black">19:30</text><text x="872" y="1040" text-anchor="middle" font-size="20" fill="black">20:00</text><text x="944" y="1040" text-anchor="middle" font-size="20" fill="black">20:30</text><text x="1006" y="50" text-anchor="end" font-size="40" fill="#ef5350" font-weight="bold">▼ -0.38% (Wed)</text></svg>