<svg xmlns="http://www.w3.org/2000/svg" width="1992" height="1050"><rect width="100%" height="100%" fill="white"/><text x="42" y="854.0" text-anchor="end" font-size="20" fill="black">429</text><text x="42" y="739.7142857142858" text-anchor="end" font-size="20" fill="black">430</text><text x="42" y="625.4285714285714" text-anchor="end" font-size="20" fill="black">431</text><text x="42" y="511.14285714285717" text-anchor="end" font-size="20" fill="black">432</text><text x="42" y="396.8571428571429" text-anchor="end" font-size="20" fill="black">433</text><text x="42" y="282.57142857142856" text-anchor="end" font-size="20" fill="black">434</text><text x="42" y="168.28571428571433" text-anchor="end" font-size="20" fill="black">435</text><text x="42" y="54.0" text-anchor="end" font-size="20" fill="black">436</text><line x1="80" y1="506.08061828571147" x2="80" y2="636.0736685714269" stroke="#26a69a" stroke-width="2"/><rect x="76" y="580.6853245714267" width="8" height="5.651872000005142" fill="#26a69a"/><line x1="92" y1="558.0778377142841" x2="92" y2="705.0265028571434" stroke="#ef5350" stroke-width="2"/><rect x="88" y="577.2942022857153" width="8" height="96.08181942856913" fill="#ef5350"/><line x1="104" y1="598.7713142857111" x2="104" y2="763.805969142855" stroke="#ef5350" stroke-width="2"/><rect x="100" y="677.8975188571426" width="8" height="84.77807657143012" fill="#ef5350"/><line x1="116" y1="691.4620114285689" x2="116" y2="795.4564514285721" stroke="#26a69a" stroke-width="2"/><rect x="112" y="731.0251131428556" width="8" height="29.389733714288013" fill="#26a69a"/><line x1="128" y1="658.6811554285695" x2="128" y2="740.06810857143" stroke="#26a69a" stroke-width="2"/><rect x="124" y="688.0708879999994" width="8" height="40.69347657142714" fill="#26a69a"/><line x1="140" y1="631.552170285717" x2="140" y2="743.4592308571414" stroke="#ef5350" stroke-width="2"/><rect x="136" y="690.3316365714286" width="8" height="33.911230857139685" fill="#ef5350"/><line x1="152" y1="680.1582674285718" x2="152" y2="810.1513177142871" stroke="#ef5350" stroke-width="2"/><rect x="148" y="725.3732411428571" width="8" height="64.43133828571649" fill="#ef5350"/><line x1="164" y1="784.1527074285685" x2="164" y2="898.3205165714286" stroke="#ef5350" stroke-width="2"/><rect x="160" y="784.1527074285685" width="8" height="5.651872000005028" fill="#ef5350"/><line x1="176" y1="698.2442571428562" x2="176" y2="793.195702857143" stroke="#26a69a" stroke-width="2"/><rect x="172" y="723.112492571428" width="8" height="66.69208685714557" fill="#26a69a"/><line x1="188" y1="673.3760217142844" x2="188" y2="741.1984822857123" stroke="#ef5350" stroke-width="2"/><rect x="184" y="721.9821188571457" width="8" height="7.912620571427624" fill="#ef5350"/><line x1="200" y1="675.6367702857135" x2="200" y2="753.6325999999982" stroke="#26a69a" stroke-width="2"/><rect x="196" y="689.2012628571397" width="8" height="44.08459885714501" fill="#26a69a"/><line x1="212" y1="637.2040422857156" x2="212" y2="707.2872525714306" stroke="#ef5350" stroke-width="2"/><rect x="208" y="691.4620114285689" width="8" height="2.260748571429076" fill="#ef5350"/><line x1="224" y1="650.7685348571417" x2="224" y2="724.2428674285683" stroke="#26a69a" stroke-width="2"/><rect x="220" y="694.9661714285737" width="8" height="2.1477120000001833" fill="#26a69a"/><line x1="236" y1="568.2512068571409" x2="236" y2="700.5050057142853" stroke="#26a69a" stroke-width="2"/><rect x="232" y="620.2484274285715" width="8" height="80.25657828571377" fill="#26a69a"/><line x1="248" y1="572.7727039999991" x2="248" y2="630.4217965714283" stroke="#26a69a" stroke-width="2"/><rect x="244" y="608.9446834285744" width="8" height="5.651871999998548" fill="#26a69a"/><line x1="260" y1="516.2539874285683" x2="260" y2="613.4661805714261" stroke="#26a69a" stroke-width="2"/><rect x="256" y="539.9918479999997" width="8" height="66.69208685714557" fill="#26a69a"/><line x1="272" y1="536.6007257142883" x2="272" y2="622.5091760000006" stroke="#ef5350" stroke-width="2"/><rect x="268" y="541.1222228571401" width="8" height="81.38695314286053" fill="#ef5350"/><line x1="284" y1="579.5549508571444" x2="284" y2="662.0722777142873" stroke="#ef5350" stroke-width="2"/><rect x="280" y="620.2484274285715" width="8" height="24.868235428571666" fill="#ef5350"/><line x1="296" y1="630.4217965714283" x2="296" y2="689.2012628571397" stroke="#ef5350" stroke-width="2"/><rect x="292" y="641.7255394285738" width="8" height="10.173369142856814" fill="#ef5350"/><line x1="308" y1="650.7685348571417" x2="308" y2="714.0694982857115" stroke="#ef5350" stroke-width="2"/><rect x="304" y="653.0292834285709" width="8" height="31.65048114285912" fill="#ef5350"/><line x1="320" y1="639.4647908571446" x2="320" y2="697.1138834285739" stroke="#ef5350" stroke-width="2"/><rect x="316" y="684.5667280000011" width="8" height="4.634534857138533" fill="#ef5350"/><line x1="332" y1="645.1166628571432" x2="332" y2="729.8947394285733" stroke="#ef5350" stroke-width="2"/><rect x="328" y="690.3316365714286" width="8" height="30.520107428570213" fill="#ef5350"/><line x1="344" y1="700.5050057142853" x2="344" y2="758.1540982857144" stroke="#ef5350" stroke-width="2"/><rect x="340" y="719.7213702857166" width="8" height="28.259358857141137" fill="#ef5350"/><line x1="356" y1="689.2012628571397" x2="356" y2="762.6755954285727" stroke="#26a69a" stroke-width="2"/><rect x="352" y="700.5050057142853" width="8" height="39.56310285714471" fill="#26a69a"/><line x1="368" y1="682.4190160000009" x2="368" y2="760.4148468571436" stroke="#ef5350" stroke-width="2"/><rect x="364" y="703.8961291428548" width="8" height="48.60609714286113" fill="#ef5350"/><line x1="380" y1="728.7643645714265" x2="380" y2="808.4557565714282" stroke="#ef5350" stroke-width="2"/><rect x="376" y="762.6755954285727" width="8" height="18.085989714284437" fill="#ef5350"/><line x1="392" y1="768.3274674285713" x2="392" y2="806.7601942857111" stroke="#ef5350" stroke-width="2"/><rect x="388" y="781.8919588571459" width="8" height="10.1733691428567" fill="#ef5350"/><line x1="404" y1="772.8489645714295" x2="404" y2="838.4106765714283" stroke="#ef5350" stroke-width="2"/><rect x="400" y="790.9349542857138" width="8" height="45.21497371428529" fill="#ef5350"/><line x1="416" y1="779.6312102857167" x2="416" y2="847.4536708571447" stroke="#26a69a" stroke-width="2"/><rect x="412" y="804.4994457142885" width="8" height="32.7808559999994" fill="#26a69a"/><line x1="428" y1="776.2400868571409" x2="428" y2="823.7158102857132" stroke="#ef5350" stroke-width="2"/><rect x="424" y="803.3690719999997" width="8" height="5.086684571428464" fill="#ef5350"/><line x1="440" y1="776.2400868571409" x2="440" y2="825.9765588571424" stroke="#ef5350" stroke-width="2"/><rect x="436" y="809.0209439999983" width="8" height="5.65187085714706" fill="#ef5350"/><line x1="452" y1="806.7601942857111" x2="452" y2="842.9321737142865" stroke="#ef5350" stroke-width="2"/><rect x="448" y="814.6728148571453" width="8" height="24.868236571423267" fill="#ef5350"/><line x1="464" y1="822.585435428573" x2="464" y2="880.2345268571441" stroke="#ef5350" stroke-width="2"/><rect x="460" y="839.5410514285686" width="8" height="31.085293714288923" fill="#ef5350"/><line x1="476" y1="855.3662914285724" x2="476" y2="919.7976297142889" stroke="#ef5350" stroke-width="2"/><rect x="472" y="873.4522811428568" width="8" height="16.95561485714404" fill="#ef5350"/><line x1="488" y1="845.1929222857156" x2="488" y2="888.1471474285718" stroke="#26a69a" stroke-width="2"/><rect x="484" y="858.7574148571418" width="8" height="29.38973257142993" fill="#26a69a"/><line x1="500" y1="836.1499279999991" x2="500" y2="880.2345268571441" stroke="#ef5350" stroke-width="2"/><rect x="496" y="861.0181634285709" width="8" height="9.042994285716418" fill="#ef5350"/><line x1="512" y1="797.7172000000012" x2="512" y2="877.973778285715" stroke="#ef5350" stroke-width="2"/><rect x="508" y="871.1915325714277" width="8" height="2" fill="#ef5350"/><line x1="524" y1="813.5424411428565" x2="524" y2="884.7560251428604" stroke="#26a69a" stroke-width="2"/><rect x="520" y="828.2373074285715" width="8" height="41.82385028571582" fill="#26a69a"/><line x1="536" y1="811.2816925714275" x2="536" y2="862.1485382857112" stroke="#ef5350" stroke-width="2"/><rect x="532" y="825.9765588571424" width="8" height="27.128984000000855" fill="#ef5350"/><line x1="548" y1="819.1943131428551" x2="548" y2="879.1041531428554" stroke="#ef5350" stroke-width="2"/><rect x="544" y="853.1055428571433" width="8" height="22.60748685714259" fill="#ef5350"/><line x1="560" y1="870.0611577142873" x2="560" y2="939.0139931428556" stroke="#ef5350" stroke-width="2"/><rect x="556" y="876.8434045714263" width="8" height="57.64909142857107" fill="#ef5350"/><line x1="572" y1="931.101372571428" x2="572" y2="962.7518548571451" stroke="#ef5350" stroke-width="2"/><rect x="568" y="936.7532445714265" width="8" height="11.303744000003576" fill="#ef5350"/><line x1="584" y1="906.2331371428562" x2="584" y2="951.4481108571415" stroke="#26a69a" stroke-width="2"/><rect x="580" y="946.9266137142832" width="8" height="3.391123428575952" fill="#26a69a"/><line x1="596" y1="875.7130297142859" x2="596" y2="955.9696091428577" stroke="#26a69a" stroke-width="2"/><rect x="592" y="887.016773714283" width="8" height="62.170588571429334" fill="#26a69a"/><line x1="608" y1="837.2803017142879" x2="608" y2="897.1901428571398" stroke="#26a69a" stroke-width="2"/><rect x="604" y="871.1915325714277" width="8" height="21.477113142860276" fill="#26a69a"/><line x1="620" y1="846.323297142856" x2="620" y2="877.973778285715" stroke="#26a69a" stroke-width="2"/><rect x="616" y="863.278912" width="8" height="9.0429954285745" fill="#26a69a"/><line x1="632" y1="795.4564514285721" x2="632" y2="866.6700354285695" stroke="#26a69a" stroke-width="2"/><rect x="628" y="797.7172000000012" width="8" height="67.822460571428" fill="#26a69a"/><line x1="644" y1="788.6742057142848" x2="644" y2="850.8447942857141" stroke="#ef5350" stroke-width="2"/><rect x="640" y="795.4564514285721" width="8" height="48.606097142854765" fill="#ef5350"/><line x1="656" y1="819.1943131428551" x2="656" y2="848.584045714285" stroke="#26a69a" stroke-width="2"/><rect x="652" y="840.6714251428574" width="8" height="2.260748571429076" fill="#26a69a"/><line x1="668" y1="793.195702857143" x2="668" y2="840.6714251428574" stroke="#26a69a" stroke-width="2"/><rect x="664" y="794.3260765714318" width="8" height="44.0845999999965" fill="#26a69a"/><line x1="680" y1="783.0223337142862" x2="680" y2="809.0209439999983" stroke="#ef5350" stroke-width="2"/><rect x="676" y="797.7172000000012" width="8" height="11.303743999997096" fill="#ef5350"/><line x1="692" y1="809.0209439999983" x2="692" y2="879.1041531428554" stroke="#ef5350" stroke-width="2"/><rect x="688" y="813.5424411428565" width="8" height="57.64909142857118" fill="#ef5350"/><line x1="704" y1="790.9349542857138" x2="704" y2="872.3219074285745" stroke="#26a69a" stroke-width="2"/><rect x="700" y="794.3260765714318" width="8" height="77.99583085714266" fill="#26a69a"/><line x1="716" y1="752.5022262857159" x2="716" y2="795.4564514285721" stroke="#26a69a" stroke-width="2"/><rect x="712" y="761.5452205714258" width="8" height="33.91123085714628" fill="#26a69a"/><line x1="728" y1="734.4162365714315" x2="728" y2="764.9363440000018" stroke="#26a69a" stroke-width="2"/><rect x="724" y="755.8933485714273" width="8" height="4.521498285716348" fill="#26a69a"/><line x1="740" y1="754.7629748571451" x2="740" y2="803.3690719999997" stroke="#ef5350" stroke-width="2"/><rect x="736" y="757.0237234285742" width="8" height="36.171979428568875" fill="#ef5350"/><line x1="752" y1="772.8489645714295" x2="752" y2="835.0195531428589" stroke="#ef5350" stroke-width="2"/><rect x="748" y="795.4564514285721" width="8" height="21.477112000002307" fill="#ef5350"/><line x1="764" y1="794.3260765714318" x2="764" y2="830.4980560000006" stroke="#26a69a" stroke-width="2"/><rect x="760" y="801.1083234285707" width="8" height="15.82524000000376" fill="#26a69a"/><line x1="776" y1="789.8045794285736" x2="776" y2="837.2803017142879" stroke="#ef5350" stroke-width="2"/><rect x="772" y="797.7172000000012" width="8" height="38.43272799999795" fill="#ef5350"/><line x1="788" y1="821.4550617142842" x2="788" y2="865.5396605714292" stroke="#26a69a" stroke-width="2"/><rect x="784" y="828.2373074285715" width="8" height="7.912620571427624" fill="#26a69a"/><line x1="800" y1="779.6312102857167" x2="800" y2="833.8891794285701" stroke="#26a69a" stroke-width="2"/><rect x="796" y="793.195702857143" width="8" height="37.302353142857555" fill="#26a69a"/><line x1="812" y1="759.2844719999968" x2="812" y2="815.8031897142856" stroke="#26a69a" stroke-width="2"/><rect x="808" y="764.9363440000018" width="8" height="35.04160457142859" fill="#26a69a"/><line x1="824" y1="708.4176262857129" x2="824" y2="764.9363440000018" stroke="#26a69a" stroke-width="2"/><rect x="820" y="727.6339908571442" width="8" height="33.9112297142816" fill="#26a69a"/><line x1="836" y1="727.6339908571442" x2="836" y2="801.1083234285707" stroke="#ef5350" stroke-width="2"/><rect x="832" y="729.8947394285733" width="8" height="63.30096342856973" fill="#ef5350"/><line x1="848" y1="745.1547931428585" x2="848" y2="797.7172000000012" stroke="#26a69a" stroke-width="2"/><rect x="844" y="750.2414777142868" width="8" height="41.82385028571582" fill="#26a69a"/><line x1="860" y1="719.7213702857166" x2="860" y2="766.0667177142841" stroke="#ef5350" stroke-width="2"/><rect x="856" y="753.6325999999982" width="8" height="2.260748571429076" fill="#ef5350"/><line x1="872" y1="709.5480011428598" x2="872" y2="771.7185897142826" stroke="#26a69a" stroke-width="2"/><rect x="868" y="710.678374857142" width="8" height="44.08460000000309" fill="#26a69a"/><line x1="884" y1="712.9391234285712" x2="884" y2="792.0653280000026" stroke="#ef5350" stroke-width="2"/><rect x="880" y="712.9391234285712" width="8" height="75.73508228571359" fill="#ef5350"/><line x1="896" y1="750.2414777142868" x2="896" y2="798.8475748571416" stroke="#26a69a" stroke-width="2"/><rect x="892" y="760.4148468571436" width="8" height="25.99860914285398" fill="#26a69a"/><line x1="908" y1="750.2414777142868" x2="908" y2="790.9349542857138" stroke="#ef5350" stroke-width="2"/><rect x="904" y="753.6325999999982" width="8" height="24.86823657142986" fill="#ef5350"/><line x1="920" y1="766.0667177142841" x2="920" y2="820.3246868571439" stroke="#26a69a" stroke-width="2"/><rect x="916" y="773.9793382857117" width="8" height="4.521498285716348" fill="#26a69a"/><line x1="932" y1="697.1138834285739" x2="932" y2="778.5008365714281" stroke="#26a69a" stroke-width="2"/><rect x="928" y="742.3288571428592" width="8" height="35.04160457142848" fill="#26a69a"/><line x1="944" y1="729.8947394285733" x2="944" y2="785.2830822857153" stroke="#ef5350" stroke-width="2"/><rect x="940" y="743.4592308571414" width="8" height="35.041605714286675" fill="#ef5350"/><line x1="956" y1="741.1984822857123" x2="956" y2="805.6298205714289" stroke="#ef5350" stroke-width="2"/><rect x="952" y="779.6312102857167" width="8" height="19.216364571424833" fill="#ef5350"/><line x1="968" y1="776.2400868571409" x2="968" y2="821.4550617142842" stroke="#ef5350" stroke-width="2"/><rect x="964" y="798.8475748571416" width="8" height="2.260748571429076" fill="#ef5350"/><line x1="980" y1="786.4134559999976" x2="980" y2="813.5424411428565" stroke="#26a69a" stroke-width="2"/><rect x="976" y="802.2386971428595" width="8" height="2" fill="#26a69a"/><line x1="992" y1="788.6742057142848" x2="992" y2="868.9307839999985" stroke="#ef5350" stroke-width="2"/><rect x="988" y="804.4994457142885" width="8" height="36.171979428568875" fill="#ef5350"/><line x1="1004" y1="798.8475748571416" x2="1004" y2="858.7574148571418" stroke="#26a69a" stroke-width="2"/><rect x="1000" y="832.7588045714298" width="8" height="9.042995428567906" fill="#26a69a"/><line x1="1016" y1="98.92076914285485" x2="1016" y2="238.14080228571584" stroke="#26a69a" stroke-width="2"/><rect x="1012" y="131.74500457142653" width="8" height="88.28587428571541" fill="#26a69a"/><line x1="1028" y1="68.3602742857147" x2="1028" y2="135.14061485714467" stroke="#26a69a" stroke-width="2"/><rect x="1024" y="103.4482502857112" width="8" height="20.373662857147337" fill="#26a69a"/><line x1="1040" y1="49.11848114285408" x2="1040" y2="102.31637942857299" stroke="#26a69a" stroke-width="2"/><rect x="1036" y="92.12954857143166" width="8" height="10.18683085714133" fill="#26a69a"/><line x1="1052" y1="10.634894857146037" x2="1052" y2="111.37134171428568" stroke="#ef5350" stroke-width="2"/><rect x="1048" y="85.3383268571439" width="8" height="11.318701714286021" fill="#ef5350"/><line x1="1064" y1="75.15149600000245" x2="1064" y2="156.6461485714301" stroke="#ef5350" stroke-width="2"/><rect x="1060" y="94.39328914285659" width="8" height="45.274806857144426" fill="#ef5350"/><line x1="1076" y1="120.4263028571404" x2="1076" y2="215.50339885714368" stroke="#ef5350" stroke-width="2"/><rect x="1072" y="135.14061485714467" width="8" height="72.43969257142453" fill="#ef5350"/><line x1="1088" y1="148.72305714285562" x2="1088" y2="213.23965828571215" stroke="#26a69a" stroke-width="2"/><rect x="1084" y="167.96485028571624" width="8" height="40.74732685713957" fill="#26a69a"/><line x1="1100" y1="76.2833657142827" x2="1100" y2="198.5253451428564" stroke="#26a69a" stroke-width="2"/><rect x="1096" y="90.99767771428685" width="8" height="76.96717257142939" fill="#26a69a"/><line x1="1112" y1="25.34920800000168" x2="1112" y2="88.73393828571352" stroke="#26a69a" stroke-width="2"/><rect x="1108" y="74.01962514285776" width="8" height="13.582442285711068" fill="#26a69a"/><line x1="1124" y1="36.667909714287816" x2="1124" y2="76.2833657142827" stroke="#26a69a" stroke-width="2"/><rect x="1120" y="66.09653371428328" width="8" height="6.791221714287758" fill="#26a69a"/><line x1="1136" y1="19.689857142858727" x2="1136" y2="77.41523542856942" stroke="#26a69a" stroke-width="2"/><rect x="1132" y="20.82172685714545" width="8" height="44.14293714285759" fill="#26a69a"/><line x1="1148" y1="-41.43113371428626" x2="1148" y2="25.34920800000168" stroke="#26a69a" stroke-width="2"/><rect x="1144" y="-17.661859428569414" width="8" height="37.464902857137986" fill="#26a69a"/><line x1="1160" y1="-31.24430171428685" x2="1160" y2="43.459130285711126" stroke="#ef5350" stroke-width="2"/><rect x="1156" y="-19.925600000000713" width="8" height="45.274808000002395" fill="#ef5350"/><line x1="1172" y1="-8.606898285714578" x2="1172" y2="40.06351999999947" stroke="#26a69a" stroke-width="2"/><rect x="1168" y="8.257967999998073" width="8" height="17.09124000000361" fill="#26a69a"/><line x1="1184" y1="-32.37617142857357" x2="1184" y2="11.766765714284247" stroke="#26a69a" stroke-width="2"/><rect x="1180" y="-6.343157714283279" width="8" height="13.582442285711068" fill="#26a69a"/><line x1="1196" y1="-38.035522285716524" x2="1196" y2="20.82172685714545" stroke="#ef5350" stroke-width="2"/><rect x="1192" y="-10.870638857146105" width="8" height="15.84618285714896" fill="#ef5350"/><line x1="1208" y1="-0.6838068571400981" x2="1208" y2="53.64596228571702" stroke="#ef5350" stroke-width="2"/><rect x="1204" y="4.975544000002856" width="8" height="33.95610628570989" fill="#ef5350"/><line x1="1220" y1="19.689857142858727" x2="1220" y2="53.64596228571702" stroke="#26a69a" stroke-width="2"/><rect x="1216" y="22.519532571426907" width="8" height="16.41211771428584" fill="#26a69a"/><line x1="1232" y1="1.5799337142848344" x2="1232" y2="75.15149600000245" stroke="#ef5350" stroke-width="2"/><rect x="1228" y="19.689857142858727" width="8" height="46.406676571424555" fill="#ef5350"/><line x1="1244" y1="34.40416914285629" x2="1244" y2="94.39328914285659" stroke="#26a69a" stroke-width="2"/><rect x="1240" y="44.5910011428557" width="8" height="22.63740342857227" fill="#26a69a"/><line x1="1256" y1="44.5910011428557" x2="1256" y2="138.42303885713977" stroke="#ef5350" stroke-width="2"/><rect x="1252" y="44.5910011428557" width="8" height="73.57156114285976" fill="#ef5350"/><line x1="1268" y1="117.03069257142874" x2="1268" y2="179.28355200000237" stroke="#ef5350" stroke-width="2"/><rect x="1264" y="117.03069257142874" width="8" height="13.582442285711068" fill="#ef5350"/><line x1="1280" y1="104.58011999999792" x2="1280" y2="153.25053828571197" stroke="#26a69a" stroke-width="2"/><rect x="1276" y="119.29443314286016" width="8" height="9.054961142854722" fill="#26a69a"/><line x1="1292" y1="105.71199085714272" x2="1292" y2="153.25053828571197" stroke="#ef5350" stroke-width="2"/><rect x="1288" y="117.03069257142874" width="8" height="2.2637405714314127" fill="#ef5350"/><line x1="1304" y1="119.29443314286016" x2="1304" y2="216.6352685714303" stroke="#ef5350" stroke-width="2"/><rect x="1300" y="120.4263028571404" width="8" height="69.04408114286139" fill="#ef5350"/><line x1="1316" y1="138.5362262857143" x2="1316" y2="200.7890857142878" stroke="#26a69a" stroke-width="2"/><rect x="1312" y="150.98679771428704" width="8" height="39.61545714285296" fill="#26a69a"/><line x1="1328" y1="136.27248571428288" x2="1328" y2="170.22859085714117" stroke="#26a69a" stroke-width="2"/><rect x="1324" y="141.93183657142595" width="8" height="9.054961142861089" fill="#26a69a"/><line x1="1340" y1="137.4043554285696" x2="1340" y2="197.3934754285698" stroke="#ef5350" stroke-width="2"/><rect x="1336" y="140.79996571428762" width="8" height="38.48358628571475" fill="#ef5350"/><line x1="1352" y1="167.96485028571624" x2="1352" y2="237.00893142857115" stroke="#ef5350" stroke-width="2"/><rect x="1348" y="180.41542285714058" width="8" height="37.351715428576426" fill="#ef5350"/><line x1="1364" y1="171.36046171428586" x2="1364" y2="230.21771085714136" stroke="#26a69a" stroke-width="2"/><rect x="1360" y="188.33851428571506" width="8" height="27.164884571428615" fill="#26a69a"/><line x1="1376" y1="184.94290285714544" x2="1376" y2="253.98698400000023" stroke="#ef5350" stroke-width="2"/><rect x="1372" y="187.20664342857037" width="8" height="26.03301485714178" fill="#ef5350"/><line x1="1388" y1="174.75607199999752" x2="1388" y2="220.03087885714194" stroke="#26a69a" stroke-width="2"/><rect x="1384" y="180.41542285714058" width="8" height="36.219845714289704" fill="#26a69a"/><line x1="1400" y1="136.27248571428288" x2="1400" y2="183.81103314285872" stroke="#26a69a" stroke-width="2"/><rect x="1396" y="141.93183657142595" width="8" height="40.74732685714605" fill="#26a69a"/><line x1="1412" y1="141.93183657142595" x2="1412" y2="180.41542285714058" stroke="#ef5350" stroke-width="2"/><rect x="1408" y="144.19557714285736" width="8" height="16.97805257142909" fill="#ef5350"/><line x1="1424" y1="153.25053828571197" x2="1424" y2="178.15168228571565" stroke="#ef5350" stroke-width="2"/><rect x="1420" y="160.04175885714176" width="8" height="2" fill="#ef5350"/><line x1="1436" y1="155.5142788571435" x2="1436" y2="205.31656685714427" stroke="#ef5350" stroke-width="2"/><rect x="1432" y="166.94616799999756" width="8" height="29.31543771428551" fill="#ef5350"/><line x1="1448" y1="190.60225485714" x2="1448" y2="242.6682822857141" stroke="#ef5350" stroke-width="2"/><rect x="1444" y="195.12973485714485" width="8" height="16.97805257142909" fill="#ef5350"/><line x1="1460" y1="188.33851428571506" x2="1460" y2="220.03087885714194" stroke="#26a69a" stroke-width="2"/><rect x="1456" y="200.7890857142878" width="8" height="12.450572571424345" fill="#26a69a"/><line x1="1472" y1="167.96485028571624" x2="1472" y2="217.767138285717" stroke="#26a69a" stroke-width="2"/><rect x="1468" y="177.01981257142893" width="8" height="16.978052571429203" fill="#26a69a"/><line x1="1484" y1="170.22859085714117" x2="1484" y2="222.29461942857336" stroke="#ef5350" stroke-width="2"/><rect x="1480" y="178.15168228571565" width="8" height="44.142937142857704" fill="#ef5350"/><line x1="1496" y1="214.37152799999888" x2="1496" y2="296.99805142857133" stroke="#ef5350" stroke-width="2"/><rect x="1492" y="222.29461942857336" width="8" height="50.934157714281014" fill="#ef5350"/><line x1="1508" y1="274.24746057143113" x2="1508" y2="319.6354548571435" stroke="#ef5350" stroke-width="2"/><rect x="1504" y="276.6243885714305" width="8" height="35.08797485713853" fill="#ef5350"/><line x1="1520" y1="294.7343108571398" x2="1520" y2="341.14098857142903" stroke="#ef5350" stroke-width="2"/><rect x="1516" y="311.712363428569" width="8" height="24.901144000003683" fill="#ef5350"/><line x1="1532" y1="280.0199988571421" x2="1532" y2="346.8003394285721" stroke="#26a69a" stroke-width="2"/><rect x="1528" y="294.7343108571398" width="8" height="41.879196571432885" fill="#26a69a"/><line x1="1544" y1="284.5474799999985" x2="1544" y2="316.23984457142535" stroke="#ef5350" stroke-width="2"/><rect x="1540" y="295.8661817142846" width="8" height="2" fill="#ef5350"/><line x1="1556" y1="283.41560914286026" x2="1556" y2="318.50358514285676" stroke="#26a69a" stroke-width="2"/><rect x="1552" y="284.5474799999985" width="8" height="10.18683085714133" fill="#26a69a"/><line x1="1568" y1="224.5583599999983" x2="1568" y2="286.8112194285719" stroke="#26a69a" stroke-width="2"/><rect x="1564" y="229.08584000000315" width="8" height="57.72537942856877" fill="#26a69a"/><line x1="1580" y1="204.18469599999946" x2="1580" y2="241.5364125714275" stroke="#26a69a" stroke-width="2"/><rect x="1576" y="208.7121771428558" width="8" height="18.109923428573893" fill="#26a69a"/><line x1="1592" y1="196.26160571428306" x2="1592" y2="242.6682822857141" stroke="#ef5350" stroke-width="2"/><rect x="1588" y="201.92095657142613" width="8" height="36.219845714289704" fill="#ef5350"/><line x1="1604" y1="231.34958057142808" x2="1604" y2="309.44862400000216" stroke="#ef5350" stroke-width="2"/><rect x="1600" y="237.00893142857115" width="8" height="66.78034171428794" fill="#ef5350"/><line x1="1616" y1="274.36064799999906" x2="1616" y2="320.7673257142882" stroke="#26a69a" stroke-width="2"/><rect x="1612" y="283.41560914286026" width="8" height="20.373663999998826" fill="#26a69a"/><line x1="1628" y1="258.5144651428566" x2="1628" y2="292.47057028571487" stroke="#26a69a" stroke-width="2"/><rect x="1624" y="258.5144651428566" width="8" height="22.63740342857227" fill="#26a69a"/><line x1="1640" y1="243.8001531428589" x2="1640" y2="290.20683085714154" stroke="#ef5350" stroke-width="2"/><rect x="1636" y="257.38259542856997" width="8" height="18.10992228571581" fill="#ef5350"/><line x1="1652" y1="238.14080228571584" x2="1652" y2="283.41560914286026" stroke="#26a69a" stroke-width="2"/><rect x="1648" y="241.5364125714275" width="8" height="32.82423542857157" fill="#26a69a"/><line x1="1664" y1="227.95397028571642" x2="1664" y2="260.778205714288" stroke="#26a69a" stroke-width="2"/><rect x="1660" y="237.00893142857115" width="8" height="4.527481142856345" fill="#26a69a"/><line x1="1676" y1="204.18469599999946" x2="1676" y2="259.6463360000014" stroke="#26a69a" stroke-width="2"/><rect x="1672" y="206.44843657143088" width="8" height="30.56049485714027" fill="#26a69a"/><line x1="1688" y1="189.4703840000018" x2="1688" y2="230.21771085714136" stroke="#ef5350" stroke-width="2"/><rect x="1684" y="207.5803074285692" width="8" height="21.505532571433946" fill="#ef5350"/><line x1="1700" y1="191.73412457142672" x2="1700" y2="231.34958057142808" stroke="#26a69a" stroke-width="2"/><rect x="1696" y="195.12973485714485" width="8" height="35.0879759999965" fill="#26a69a"/><line x1="1712" y1="186.07477371428365" x2="1712" y2="224.5583599999983" stroke="#26a69a" stroke-width="2"/><rect x="1708" y="190.60225485714" width="8" height="3.395610285718135" fill="#26a69a"/><line x1="1724" y1="143.06370628571256" x2="1724" y2="196.26160571428306" stroke="#26a69a" stroke-width="2"/><rect x="1720" y="144.76151200000072" width="8" height="45.840742857139276" fill="#26a69a"/><line x1="1736" y1="141.93183657142595" x2="1736" y2="175.88794171428424" stroke="#ef5350" stroke-width="2"/><rect x="1732" y="144.76151200000072" width="8" height="18.67585828571066" fill="#ef5350"/><line x1="1748" y1="145.32744685714408" x2="1748" y2="182.679163428572" stroke="#ef5350" stroke-width="2"/><rect x="1744" y="164.5692399999981" width="8" height="2" fill="#ef5350"/><line x1="1760" y1="166.83298057142952" x2="1760" y2="293.6024411428597" stroke="#ef5350" stroke-width="2"/><rect x="1756" y="166.83298057142952" width="8" height="90.54961485714045" fill="#ef5350"/><line x1="1772" y1="229.08584000000315" x2="1772" y2="277.7562582857172" stroke="#26a69a" stroke-width="2"/><rect x="1768" y="232.48145142857277" width="8" height="22.63740342857227" fill="#26a69a"/><line x1="1784" y1="220.03087885714194" x2="1784" y2="250.59137371428858" stroke="#ef5350" stroke-width="2"/><rect x="1780" y="229.08584000000315" width="8" height="2.2637405714249326" fill="#ef5350"/><line x1="1796" y1="221.16274971428663" x2="1796" y2="264.17381599999965" stroke="#26a69a" stroke-width="2"/><rect x="1792" y="229.08584000000315" width="8" height="5.659351999994556" fill="#26a69a"/><line x1="1808" y1="226.8221005714297" x2="1808" y2="253.98698400000023" stroke="#26a69a" stroke-width="2"/><rect x="1804" y="227.95397028571642" width="8" height="2" fill="#26a69a"/><line x1="1820" y1="179.28355200000237" x2="1820" y2="248.32763314285717" stroke="#26a69a" stroke-width="2"/><rect x="1816" y="191.73412457142672" width="8" height="37.351715428576426" fill="#26a69a"/><line x1="1832" y1="179.28355200000237" x2="1832" y2="212.10778742857394" stroke="#ef5350" stroke-width="2"/><rect x="1828" y="192.86599428571333" width="8" height="5.6593508571430675" fill="#ef5350"/><line x1="1844" y1="184.94290285714544" x2="1844" y2="217.767138285717" stroke="#26a69a" stroke-width="2"/><rect x="1840" y="198.5253451428564" width="8" height="2" fill="#26a69a"/><line x1="1856" y1="191.73412457142672" x2="1856" y2="221.16274971428663" stroke="#ef5350" stroke-width="2"/><rect x="1852" y="199.6572160000012" width="8" height="14.714311999997676" fill="#ef5350"/><line x1="1868" y1="207.5803074285692" x2="1868" y2="249.45950400000197" stroke="#ef5350" stroke-width="2"/><rect x="1864" y="215.50339885714368" width="8" height="10.18683085714133" fill="#ef5350"/><line x1="1880" y1="193.99786514285813" x2="1880" y2="230.21771085714136" stroke="#26a69a" stroke-width="2"/><rect x="1876" y="204.18469599999946" width="8" height="20.373663999998826" fill="#26a69a"/><line x1="1892" y1="205.31656685714427" x2="1892" y2="240.40454285714077" stroke="#ef5350" stroke-width="2"/><rect x="1888" y="207.5803074285692" width="8" height="30.560494857146637" fill="#ef5350"/><line x1="1904" y1="230.21771085714136" x2="1904" y2="258.5144651428566" stroke="#26a69a" stroke-width="2"/><rect x="1900" y="233.6133211428595" width="8" height="3.395610285711655" fill="#26a69a"/><line x1="1916" y1="218.89900914285522" x2="1916" y2="243.23421828571554" stroke="#ef5350" stroke-width="2"/><rect x="1912" y="232.48145142857277" width="8" height="3.395610285711655" fill="#ef5350"/><line x1="1928" y1="237.00893142857115" x2="1928" y2="352.45969028571506" stroke="#ef5350" stroke-width="2"/><rect x="1924" y="237.00893142857115" width="8" height="112.05514857142589" fill="#ef5350"/><line x1="1940" y1="315.1079748571452" x2="1940" y2="388.56634971428844" stroke="#ef5350" stroke-width="2"/><rect x="1936" y="344.5365988571406" width="8" height="18.109923428573893" fill="#ef5350"/><rect x="75" y="879.1368752445338" width="10" height="140.86312475546617" fill="#26a69a" opacity="0.9"/><rect x="87" y="975.7040754119541" width="10" height="44.295924588045864" fill="#ef5350" opacity="0.9"/><rect x="99" y="965.7423364239374" width="10" height="54.257663576062555" fill="#ef5350" opacity="0.9"/><rect x="111" y="976.8473563051054" width="10" height="43.15264369489455" fill="#26a69a" opacity="0.9"/><rect x="123" y="971.0197173871505" width="10" height="48.980282612849464" fill="#26a69a" opacity="0.9"/><rect x="135" y="984.2252258810041" width="10" height="35.77477411899588" fill="#ef5350" opacity="0.9"/><rect x="147" y="973.8517601885299" width="10" height="46.14823981147015" fill="#ef5350" opacity="0.9"/><rect x="159" y="969.0675413773964" width="10" height="50.932458622603576" fill="#ef5350" opacity="0.9"/><rect x="171" y="982.8854080416368" width="10" height="37.114591958363235" fill="#26a69a" opacity="0.9"/><rect x="183" y="992.4274587590876" width="10" height="27.572541240912415" fill="#ef5350" opacity="0.9"/><rect x="195" y="989.1948354458023" width="10" height="30.805164554197745" fill="#26a69a" opacity="0.9"/><rect x="207" y="988.2813026032046" width="10" height="31.718697396795392" fill="#ef5350" opacity="0.9"/><rect x="219" y="990.2828403228301" width="10" height="29.71715967716989" fill="#26a69a" opacity="0.9"/><rect x="231" y="989.081553733747" width="10" height="30.918446266253" fill="#26a69a" opacity="0.9"/><rect x="243" y="996.1464200249311" width="10" height="23.853579975068897" fill="#26a69a" opacity="0.9"/><rect x="255" y="993.4615524598964" width="10" height="26.53844754010356" fill="#26a69a" opacity="0.9"/><rect x="267" y="984.9499558701764" width="10" height="35.05004412982362" fill="#ef5350" opacity="0.9"/><rect x="279" y="989.4996496910912" width="10" height="30.500350308908764" fill="#ef5350" opacity="0.9"/><rect x="291" y="993.0077431917236" width="10" height="26.992256808276352" fill="#ef5350" opacity="0.9"/><rect x="303" y="991.4991401508603" width="10" height="28.500859849139715" fill="#ef5350" opacity="0.9"/><rect x="315" y="1001.4419988535345" width="10" height="18.55800114646547" fill="#ef5350" opacity="0.9"/><rect x="327" y="1001.3676150787512" width="10" height="18.632384921248786" fill="#ef5350" opacity="0.9"/><rect x="339" y="998.3217473590348" width="10" height="21.678252640965184" fill="#ef5350" opacity="0.9"/><rect x="351" y="999.3126211295415" width="10" height="20.687378870458474" fill="#26a69a" opacity="0.9"/><rect x="363" y="1000.0384884853007" width="10" height="19.961511514699282" fill="#ef5350" opacity="0.9"/><rect x="375" y="993.3876236317479" width="10" height="26.612376368252058" fill="#ef5350" opacity="0.9"/><rect x="387" y="1002.9403655951157" width="10" height="17.059634404884264" fill="#ef5350" opacity="0.9"/><rect x="399" y="1000.5921585398033" width="10" height="19.407841460196664" fill="#ef5350" opacity="0.9"/><rect x="411" y="993.0343575698571" width="10" height="26.965642430142907" fill="#26a69a" opacity="0.9"/><rect x="423" y="998.0574233642394" width="10" height="21.942576635760588" fill="#ef5350" opacity="0.9"/><rect x="435" y="999.6888619964878" width="10" height="20.311138003512156" fill="#ef5350" opacity="0.9"/><rect x="447" y="998.3269792453345" width="10" height="21.67302075466546" fill="#ef5350" opacity="0.9"/><rect x="459" y="991.61810869585" width="10" height="28.38189130415003" fill="#ef5350" opacity="0.9"/><rect x="471" y="995.3659590730007" width="10" height="24.63404092699932" fill="#ef5350" opacity="0.9"/><rect x="483" y="993.4317534553197" width="10" height="26.568246544680278" fill="#26a69a" opacity="0.9"/><rect x="495" y="998.26920102272" width="10" height="21.73079897727996" fill="#ef5350" opacity="0.9"/><rect x="507" y="987.4344194425994" width="10" height="32.56558055740061" fill="#ef5350" opacity="0.9"/><rect x="519" y="993.5450351673749" width="10" height="26.454964832625137" fill="#26a69a" opacity="0.9"/><rect x="531" y="994.7174326451508" width="10" height="25.28256735484922" fill="#ef5350" opacity="0.9"/><rect x="543" y="1000.1726977425548" width="10" height="19.82730225744524" fill="#ef5350" opacity="0.9"/><rect x="555" y="993.3218838430253" width="10" height="26.67811615697474" fill="#ef5350" opacity="0.9"/><rect x="567" y="999.7873579429133" width="10" height="20.21264205708667" fill="#ef5350" opacity="0.9"/><rect x="579" y="997.5610765857165" width="10" height="22.438923414283522" fill="#26a69a" opacity="0.9"/><rect x="591" y="994.9608290947472" width="10" height="25.03917090525283" fill="#26a69a" opacity="0.9"/><rect x="603" y="998.7766939937945" width="10" height="21.223306006205462" fill="#26a69a" opacity="0.9"/><rect x="615" y="1001.822561713511" width="10" height="18.17743828648895" fill="#26a69a" opacity="0.9"/><rect x="627" y="996.9277908701309" width="10" height="23.072209129869066" fill="#26a69a" opacity="0.9"/><rect x="639" y="995.7722264178412" width="10" height="24.22777358215876" fill="#ef5350" opacity="0.9"/><rect x="651" y="1001.8061836346596" width="10" height="18.193816365340354" fill="#26a69a" opacity="0.9"/><rect x="663" y="1000.9395102954423" width="10" height="19.060489704557654" fill="#26a69a" opacity="0.9"/><rect x="675" y="1001.3753491715422" width="10" height="18.62465082845779" fill="#ef5350" opacity="0.9"/><rect x="687" y="998.8071754183235" width="10" height="21.19282458167652" fill="#ef5350" opacity="0.9"/><rect x="699" y="997.8674831442272" width="10" height="22.132516855772792" fill="#26a69a" opacity="0.9"/><rect x="711" y="988.9334686041327" width="10" height="31.066531395867287" fill="#26a69a" opacity="0.9"/><rect x="723" y="998.8936152789278" width="10" height="21.10638472107223" fill="#26a69a" opacity="0.9"/><rect x="735" y="1001.2168002693284" width="10" height="18.78319973067164" fill="#ef5350" opacity="0.9"/><rect x="747" y="998.0838102690554" width="10" height="21.916189730944552" fill="#ef5350" opacity="0.9"/><rect x="759" y="1002.7483781152471" width="10" height="17.25162188475292" fill="#26a69a" opacity="0.9"/><rect x="771" y="994.643958763637" width="10" height="25.356041236363012" fill="#ef5350" opacity="0.9"/><rect x="783" y="993.6740125383293" width="10" height="26.325987461670707" fill="#26a69a" opacity="0.9"/><rect x="795" y="995.8195408678562" width="10" height="24.180459132143824" fill="#26a69a" opacity="0.9"/><rect x="807" y="1003.153735566818" width="10" height="16.846264433182" fill="#26a69a" opacity="0.9"/><rect x="819" y="995.4273768686933" width="10" height="24.572623131306727" fill="#26a69a" opacity="0.9"/><rect x="831" y="1003.0875408314605" width="10" height="16.9124591685395" fill="#ef5350" opacity="0.9"/><rect x="843" y="998.712319044976" width="10" height="21.28768095502403" fill="#26a69a" opacity="0.9"/><rect x="855" y="999.6952312493745" width="10" height="20.3047687506255" fill="#ef5350" opacity="0.9"/><rect x="867" y="999.0123563506" width="10" height="20.987643649399956" fill="#26a69a" opacity="0.9"/><rect x="879" y="1000.0760215826683" width="10" height="19.923978417331682" fill="#ef5350" opacity="0.9"/><rect x="891" y="1001.0318644622986" width="10" height="18.968135537701414" fill="#26a69a" opacity="0.9"/><rect x="903" y="999.4638908855991" width="10" height="20.536109114400915" fill="#ef5350" opacity="0.9"/><rect x="915" y="994.1321437995323" width="10" height="25.867856200467713" fill="#26a69a" opacity="0.9"/><rect x="927" y="978.5882096030135" width="10" height="41.411790396986476" fill="#26a69a" opacity="0.9"/><rect x="939" y="989.8586025859166" width="10" height="30.14139741408337" fill="#ef5350" opacity="0.9"/><rect x="951" y="992.2029425948336" width="10" height="27.797057405166356" fill="#ef5350" opacity="0.9"/><rect x="963" y="987.0932094665296" width="10" height="32.90679053347037" fill="#ef5350" opacity="0.9"/><rect x="975" y="981.0371873379253" width="10" height="38.962812662074725" fill="#26a69a" opacity="0.9"/><rect x="987" y="945.06910639382" width="10" height="74.93089360618" fill="#ef5350" opacity="0.9"/><rect x="999" y="860.0" width="10" height="160.0" fill="#26a69a" opacity="0.9"/><rect x="1011" y="893.6919829304022" width="10" height="126.30801706959778" fill="#26a69a" opacity="0.9"/><rect x="1023" y="923.3303913450952" width="10" height="96.66960865490478" fill="#26a69a" opacity="0.9"/><rect x="1035" y="960.3325659900094" width="10" height="59.66743400999064" fill="#26a69a" opacity="0.9"/><rect x="1047" y="965.3640482971348" width="10" height="54.63595170286521" fill="#ef5350" opacity="0.9"/><rect x="1059" y="978.8654995768997" width="10" height="41.13450042310035" fill="#ef5350" opacity="0.9"/><rect x="1071" y="973.5444437367497" width="10" height="46.45555626325029" fill="#ef5350" opacity="0.9"/><rect x="1083" y="982.7889593550676" width="10" height="37.21104064493238" fill="#26a69a" opacity="0.9"/><rect x="1095" y="980.1423073073529" width="10" height="39.857692692647106" fill="#26a69a" opacity="0.9"/><rect x="1107" y="985.2763800806165" width="10" height="34.72361991938351" fill="#26a69a" opacity="0.9"/><rect x="1119" y="988.3340764128368" width="10" height="31.665923587163206" fill="#26a69a" opacity="0.9"/><rect x="1131" y="985.7349662884544" width="10" height="34.265033711545584" fill="#26a69a" opacity="0.9"/><rect x="1143" y="977.2338334713338" width="10" height="42.76616652866619" fill="#26a69a" opacity="0.9"/><rect x="1155" y="985.4128640710445" width="10" height="34.58713592895549" fill="#ef5350" opacity="0.9"/><rect x="1167" y="993.2472725949247" width="10" height="26.752727405075348" fill="#26a69a" opacity="0.9"/><rect x="1179" y="991.0476056158612" width="10" height="28.952394384138756" fill="#26a69a" opacity="0.9"/><rect x="1191" y="993.9688179576535" width="10" height="26.031182042346472" fill="#ef5350" opacity="0.9"/><rect x="1203" y="999.8210239938855" width="10" height="20.178976006114453" fill="#ef5350" opacity="0.9"/><rect x="1215" y="994.6266707915162" width="10" height="25.373329208483824" fill="#26a69a" opacity="0.9"/><rect x="1227" y="990.5082663803536" width="10" height="29.491733619646425" fill="#ef5350" opacity="0.9"/><rect x="1239" y="989.2287289700918" width="10" height="30.771271029908235" fill="#26a69a" opacity="0.9"/><rect x="1251" y="996.2790369689635" width="10" height="23.72096303103649" fill="#ef5350" opacity="0.9"/><rect x="1263" y="983.8139541231814" width="10" height="36.18604587681864" fill="#ef5350" opacity="0.9"/><rect x="1275" y="994.7133381254379" width="10" height="25.286661874562128" fill="#26a69a" opacity="0.9"/><rect x="1287" y="999.1292776357333" width="10" height="20.870722364266726" fill="#ef5350" opacity="0.9"/><rect x="1299" y="984.9010491069398" width="10" height="35.09895089306019" fill="#ef5350" opacity="0.9"/><rect x="1311" y="996.6714284414438" width="10" height="23.328571558556177" fill="#26a69a" opacity="0.9"/><rect x="1323" y="998.8353821096786" width="10" height="21.164617890321438" fill="#26a69a" opacity="0.9"/><rect x="1335" y="996.9337051763828" width="10" height="23.066294823617227" fill="#ef5350" opacity="0.9"/><rect x="1347" y="995.1689671801498" width="10" height="24.83103281985018" fill="#ef5350" opacity="0.9"/><rect x="1359" y="998.0214825800933" width="10" height="21.978517419906666" fill="#26a69a" opacity="0.9"/><rect x="1371" y="992.3066704275589" width="10" height="27.693329572441144" fill="#ef5350" opacity="0.9"/><rect x="1383" y="998.9850595525145" width="10" height="21.014940447485515" fill="#26a69a" opacity="0.9"/><rect x="1395" y="996.1082045076113" width="10" height="23.891795492388724" fill="#26a69a" opacity="0.9"/><rect x="1407" y="998.5576371891577" width="10" height="21.44236281084227" fill="#ef5350" opacity="0.9"/><rect x="1419" y="1001.0753118659181" width="10" height="18.924688134081862" fill="#ef5350" opacity="0.9"/><rect x="1431" y="1000.2996278536527" width="10" height="19.700372146347263" fill="#ef5350" opacity="0.9"/><rect x="1443" y="997.8333621466202" width="10" height="22.166637853379825" fill="#ef5350" opacity="0.9"/><rect x="1455" y="1002.1335177383693" width="10" height="17.866482261630722" fill="#26a69a" opacity="0.9"/><rect x="1467" y="1001.361473299182" width="10" height="18.638526700818034" fill="#26a69a" opacity="0.9"/><rect x="1479" y="1001.9215126065712" width="10" height="18.07848739342876" fill="#ef5350" opacity="0.9"/><rect x="1491" y="990.3883879420944" width="10" height="29.61161205790563" fill="#ef5350" opacity="0.9"/><rect x="1503" y="999.5507856928382" width="10" height="20.44921430716181" fill="#ef5350" opacity="0.9"/><rect x="1515" y="993.5723319654604" width="10" height="26.42766803453958" fill="#ef5350" opacity="0.9"/><rect x="1527" y="995.3689162261267" width="10" height="24.631083773873343" fill="#26a69a" opacity="0.9"/><rect x="1539" y="1001.1831342183561" width="10" height="18.816865781643855" fill="#ef5350" opacity="0.9"/><rect x="1551" y="1001.0971493043866" width="10" height="18.902850695613438" fill="#26a69a" opacity="0.9"/><rect x="1563" y="994.891222259629" width="10" height="25.10877774037101" fill="#26a69a" opacity="0.9"/><rect x="1575" y="1002.4101252923032" width="10" height="17.589874707696822" fill="#26a69a" opacity="0.9"/><rect x="1587" y="1000.157229556973" width="10" height="19.842770443027007" fill="#ef5350" opacity="0.9"/><rect x="1599" y="996.859548874917" width="10" height="23.14045112508302" fill="#ef5350" opacity="0.9"/><rect x="1611" y="1000.8362374093518" width="10" height="19.16376259064816" fill="#26a69a" opacity="0.9"/><rect x="1623" y="1001.8373474791407" width="10" height="18.162652520859297" fill="#26a69a" opacity="0.9"/><rect x="1635" y="1003.3566417659208" width="10" height="16.643358234079187" fill="#ef5350" opacity="0.9"/><rect x="1647" y="1003.3689253250594" width="10" height="16.631074674940578" fill="#26a69a" opacity="0.9"/><rect x="1659" y="1003.1662465992739" width="10" height="16.833753400726096" fill="#26a69a" opacity="0.9"/><rect x="1671" y="994.6130223924733" width="10" height="25.38697760752666" fill="#26a69a" opacity="0.9"/><rect x="1683" y="992.0559948318062" width="10" height="27.944005168193826" fill="#ef5350" opacity="0.9"/><rect x="1695" y="1003.156692719944" width="10" height="16.843307280056024" fill="#26a69a" opacity="0.9"/><rect x="1707" y="1001.1647088796484" width="10" height="18.8352911203516" fill="#26a69a" opacity="0.9"/><rect x="1719" y="997.3115383565507" width="10" height="22.688461643449273" fill="#26a69a" opacity="0.9"/><rect x="1731" y="1000.6062618854809" width="10" height="19.393738114519124" fill="#ef5350" opacity="0.9"/><rect x="1743" y="999.77461943714" width="10" height="20.225380562859982" fill="#ef5350" opacity="0.9"/><rect x="1755" y="990.5849248883106" width="10" height="29.41507511168936" fill="#ef5350" opacity="0.9"/><rect x="1767" y="1002.5570730553306" width="10" height="17.442926944669352" fill="#26a69a" opacity="0.9"/><rect x="1779" y="1001.4506428395949" width="10" height="18.549357160405066" fill="#ef5350" opacity="0.9"/><rect x="1791" y="999.6986433491352" width="10" height="20.301356650864818" fill="#26a69a" opacity="0.9"/><rect x="1803" y="1002.9487821078587" width="10" height="17.051217892141267" fill="#26a69a" opacity="0.9"/><rect x="1815" y="999.707514808513" width="10" height="20.292485191487003" fill="#26a69a" opacity="0.9"/><rect x="1827" y="997.4291420616362" width="10" height="22.570857938363815" fill="#ef5350" opacity="0.9"/><rect x="1839" y="999.5230339481179" width="10" height="20.476966051882073" fill="#26a69a" opacity="0.9"/><rect x="1851" y="993.9831487766485" width="10" height="26.016851223351523" fill="#ef5350" opacity="0.9"/><rect x="1863" y="995.777458304141" width="10" height="24.222541695859036" fill="#ef5350" opacity="0.9"/><rect x="1875" y="992.0578146183452" width="10" height="27.94218538165478" fill="#26a69a" opacity="0.9"/><rect x="1887" y="996.3138403865227" width="10" height="23.686159613477344" fill="#ef5350" opacity="0.9"/><rect x="1899" y="996.6234315714767" width="10" height="23.376568428523342" fill="#26a69a" opacity="0.9"/><rect x="1911" y="996.6072809659427" width="10" height="23.392719034057336" fill="#ef5350" opacity="0.9"/><rect x="1923" y="958.3194271311975" width="10" height="61.68057286880253" fill="#ef5350" opacity="0.9"/><rect x="1935" y="923.3779332684276" width="10" height="96.62206673157243" fill="#ef5350" opacity="0.9"/><rect x="1004" y="220.03087885714194" width="12" height="612.7279257142878" fill="#00ff00" opacity="0.50"/><polyline points="320,682.8655142231257,332,686.4832503923545,344,692.340153130499,356,693.1177581384808,368,698.7734217715505,380,706.5818182831013,392,714.7231049228075,404,726.2875642634949,416,733.7363148778552,428,740.8524521820059,440,747.8829629129709,452,756.6123046763615,464,767.4707847207889,476,779.1790810330959,488,786.7579699687212,500,794.6916068968676,512,802.0849688522633,524,804.5756677642983,536,809.1975606302834,548,815.5323672097113,560,826.8619032849789,572,838.4042923598762,584,848.7397515364852,596,852.3851822200868,608,854.1762632059284,620,855.0431821386935,632,849.5835647921532,644,849.0577537235107,656,848.2590557634467,668,843.122581554683,680,839.8748065494731,692,842.8573518849005,704,838.2353256645729,716,830.9315061318947,728,823.7850149356616,740,820.8717471186641,752,820.496682005322,764,818.6501716646815,776,820.3168151251897,788,821.0711477255115,800,818.4163434523335,812,813.3230101711628,824,805.1621511888762,836,804.022489443001,848,798.900488325983,860,794.8045702541224,872,786.7925516448914,884,786.9717567943553,896,784.4425272765291,908,783.8766519712798,920,782.9340506678948,932,779.0668893798023,944,779.012979588528,956,780.9019886617274,968,782.8264014966668,980,784.6751915582055,992,790.00816618531,1004,794.0796555554114,1016,731.0001649855037,1028,671.2333159664793,1040,616.0805762145693,1052,566.611666915222,1064,525.9503744471074,1076,495.6294156834377,1088,464.4232665979416,1100,428.85892479950076,1112,395.0647057845799,1124,363.7344036826497,1136,331.0760535087866,1148,297.86291894332476,1160,271.90923218681746,1172,246.79958797855113,1184,222.69075505542526,1196,201.95597305015065,1208,186.42984707259006,1220,170.8193409296265,1232,160.84574024245217,1244,149.77386032820243,1256,146.76326051463286,1268,145.22515330915792,1280,142.75556091236342,1292,140.52116779145888,1304,145.18299790656135,1316,145.73574074539204,1328,145.37346415739069,1340,148.60299633288116,1352,155.19005747124925,1364,158.34705335834246,1376,163.57492049428402,1388,165.17877786217082,1400,162.96478345352625,1412,162.79419738312492,1424,162.6398576051413,1436,165.8419288536346,1448,170.24820109886605,1460,173.15685677652777,1472,173.52475732842709,1484,178.1695060998702,1496,187.2227700087284,1508,199.0789217630014,1520,212.17745373115315,1532,220.04001155267235,1544,227.36934868370815,1556,232.81488499954844,1568,232.45973785673675,1580,230.19806540779166,1592,230.95451653902535,1604,237.89116002510252,1616,242.22682184584176,1628,243.77802596936817,1640,246.79845375460116,1652,246.29730697524792,1664,245.41269978032813,1676,241.70181756995328,1688,240.50029589662438,1700,236.1792900833409,1712,231.83862006179493,1724,223.54556215115213,1736,217.82097244968747,1748,212.91107466536232,1760,217.1464575951892,1772,218.6069331983682,1784,219.82051866246888,1796,220.7029302184245,1808,221.39350546292792,1820,218.56880252087524,1832,216.6599018182036,1844,214.93280118245696,1856,214.87934659365112,1868,215.90895450990502,1880,214.79235846134418,1892,217.01601977795565,1904,218.59671514603826,1916,220.24246243825348,1928,232.51118792032423,1940,244.90502928846195" fill="none" stroke="#0090ff" stroke-width="2"/><line x1="80" y1="50" x2="80" y2="850" stroke="#666666" stroke-width="0.5" stroke-dasharray="4,4"/><line x1="152" y1="50" x2="152" y2="850" stroke="#666666" stroke-width="0.5" stroke-dasharray="4,4"/><line x1="224" y1="50" x2="224" y2="850" stroke="#666666" stroke-width="0.5" stroke-dasharray="4,4"/><line x1="296" y1="50" x2="296" y2="850" stroke="#666666" stroke-width="0.5" stroke-dasharray="4,4"/><line x1="368" y1="50" x2="368" y2="850" stroke="#666666" stroke-width="0.5" stroke-dasharray="4,4"/><line x1="440" y1="50" x2="440" y2="850" stroke="#666666" stroke-width="0.5" stroke-dasharray="4,4"/><line x1="512" y1="50" x2="512" y2="850" stroke="#666666" stroke-width="0.5" stroke-dasharray="4,4"/><line x1="584" y1="50" x2="584" y2="850" stroke="#666666" stroke-width="0.5" stroke-dasharray="4,4"/><line x1="656" y1="50" x2="656" y2="850" stroke="#666666" stroke-width="0.5" stroke-dasharray="4,4"/><line x1="728" y1="50" x2="728" y2="850" stroke="#666666" stroke-width="0.5" stroke-dasharray="4,4"/><line x1="800" y1="50" x2="800" y2="850" stroke="#666666" stroke-width="0.5" stroke-dasharray="4,4"/><line x1="872" y1="50" x2="872" y2="850" stroke="#666666" stroke-width="0.5" stroke-dasharray="4,4"/><line x1="944" y1="50" x2="944" y2="850" stroke="#666666" stroke-width="0.5" stroke-dasharray="4,4"/><line x1="1016" y1="50" x2="1016" y2="850" stroke="#666666" stroke-width="0.5" stroke-dasharray="4,4"/><line x1="1088" y1="50" x2="1088" y2="850" stroke="#666666" stroke-width="0.5" stroke-dasharray="4,4"/><line x1="1160" y1="50" x2="1160" y2="850" stroke="#666666" stroke-width="0.5" stroke-dasharray="4,4"/><line x1="1232" y1="50" x2="1232" y2="850" stroke="#666666" stroke-width="0.5" stroke-dasharray="4,4"/><line x1="1304" y1="50" x2="1304" y2="850" stroke="#666666" stroke-width="0.5" stroke-dasharray="4,4"/><line x1="1376" y1="50" x2="1376" y2="850" stroke="#666666" stroke-width="0.5" stroke-dasharray="4,4"/><line x1="1448" y1="50" x2="1448" y2="850" stroke="#666666" stroke-width="0.5" stroke-dasharray="4,4"/><line x1="1520" y1="50" x2="1520" y2="850" stroke="#666666" stroke-width="0.5" stroke-dasharray="4,4"/><line x1="1592" y1="50" x2="1592" y2="850" stroke="#666666" stroke-width="0.5" stroke-dasharray="4,4"/><line x1="1664" y1="50" x2="1664" y2="850" stroke="#666666" stroke-width="0.5" stroke-dasharray="4,4"/><line x1="1736" y1="50" x2="1736" y2="850" stroke="#666666" stroke-width="0.5" stroke-dasharray="4,4"/><line x1="1808" y1="50" x2="1808" y2="850" stroke="#666666" stroke-width="0.5" stroke-dasharray="4,4"/><line x1="1880" y1="50" x2="1880" y2="850" stroke="#666666" stroke-width="0.5" stroke-dasharray="4,4"/><text x="80" y="1040" text-anchor="middle" font-size="20" fill="black">09:30</text><text x="152" y="1040" text-anchor="middle" font-size="20" fill="black">10:00</text><text x="224" y="1040" text-anchor="middle" font-size="20" fill="black">10:30</text><text x="296" y="1040" text-anchor="middle" font-size="20" fill="black">11:00</text><text x="368" y="1040" text-anchor="middle" font-size="20" fill="black">11:30</text><text x="440" y="1040" text-anchor="middle" font-size="20" fill="black">12:00</text><text x="512" y="1040" text-anchor="middle" font-size="20" fill="black">12:30</text><text x="584" y="1040" text-anchor="middle" font-size="20" fill="black">13:00</text><text x="656" y="1040" text-anchor="middle" font-size="20" fill="black">13:30</text><text x="728" y="1040" text-anchor="middle" font-size="20" fill="black">14:00</text><text x="800" y="1040" text-anchor="middle" font-size="20" fill="black">14:30</text><text x="872" y="1040" text-anchor="middle" font-size="20" fill="black">15:00</text><text x="944" y="1040" text-anchor="middle" font-size="20" fill="black">15:30</text><text x="1016" y="1040" text-anchor="middle" font-size="20" fill="black">09:30</text><text x="1088" y="1040" text-anchor="middle" font-size="20" fill="black">10:00</text><text x="1160" y="1040" text-anchor="middle" font-size="20" fill="black">10:30</text><text x="1232" y="1040" text-anchor="middle" font-size="20" fill="black">11:00</text><text x="1304" y="1040" text-anchor="middle" font-size="20" fill="black">11:30</text><text x="1376" y="1040" text-anchor="middle" font-size="20" fill="black">12:00</text><text x="1448" y="1040" text-anchor="middle" font-size="20" fill="black">12:30</text><text x="1520" y="1040" text-anchor="middle" font-size="20" fill="black">13:00</text><text x="1592" y="1040" text-anchor="middle" font-size="20" fill="black">13:30</text><text x="1664" y="1040" text-anchor="middle" font-size="20" fill="black">14:00</text><text x="1736" y="1040" text-anchor="middle" font-size="20" fill="black">14:30</text><text x="1808" y="1040" text-anchor="middle" font-size="20" fill="black">15:00</text><text x="1880" y="1040" text-anchor="middle" font-size="20" fill="black">15:30</text><text x="1942" y="50" text-anchor="end" font-size="40" fill="#ef5350" font-weight="bold"> -0.29% (Mon)</text></svg>