<svg xmlns="http://www.w3.org/2000/svg" width="1992" height="1050"><rect width="100%" height="100%" fill="white"/><text x="42" y="854.0" text-anchor="end" font-size="20" fill="black">505</text><text x="42" y="720.6666666666667" text-anchor="end" font-size="20" fill="black">506</text><text x="42" y="587.3333333333334" text-anchor="end" font-size="20" fill="black">507</text><text x="42" y="454.0" text-anchor="end" font-size="20" fill="black">508</text><text x="42" y="320.66666666666674" text-anchor="end" font-size="20" fill="black">509</text><text x="42" y="187.33333333333326" text-anchor="end" font-size="20" fill="black">510</text><text x="42" y="54.0" text-anchor="end" font-size="20" fill="black">511</text><line x1="80" y1="252.54473866666558" x2="80" y2="338.6353480000025" stroke="#26a69a" stroke-width="2"/><rect x="76" y="279.0341559999963" width="8" height="38.40965733333337" fill="#26a69a"/><line x1="92" y1="232.6776746666685" x2="92" y2="367.7737079999967" stroke="#ef5350" stroke-width="2"/><rect x="88" y="272.4118013333357" width="8" height="90.06402266666106" fill="#ef5350"/><line x1="104" y1="249.8957960000023" x2="104" y2="377.0450040000014" stroke="#26a69a" stroke-width="2"/><rect x="100" y="251.2202679999973" width="8" height="100.659789333334" fill="#26a69a"/><line x1="116" y1="251.2202679999973" x2="116" y2="414.13018933333205" stroke="#ef5350" stroke-width="2"/><rect x="112" y="251.2202679999973" width="8" height="156.28756666666658" fill="#ef5350"/><line x1="128" y1="310.82145866666906" x2="128" y2="433.99725333333663" stroke="#26a69a" stroke-width="2"/><rect x="124" y="353.2045279999996" width="8" height="54.3033066666643" fill="#26a69a"/><line x1="140" y1="324.0661679999978" x2="140" y2="406.18336400000317" stroke="#ef5350" stroke-width="2"/><rect x="136" y="355.85346933333614" width="8" height="21.19153466666529" fill="#ef5350"/><line x1="152" y1="382.3428880000013" x2="152" y2="500.220798666669" stroke="#ef5350" stroke-width="2"/><rect x="148" y="386.3162999999986" width="8" height="91.3884933333369" fill="#ef5350"/><line x1="164" y1="465.7845546666673" x2="164" y2="640.614715999997" stroke="#ef5350" stroke-width="2"/><rect x="160" y="473.7313799999962" width="8" height="55.62777866666693" fill="#ef5350"/><line x1="176" y1="433.99725333333663" x2="176" y2="546.5772813333311" stroke="#26a69a" stroke-width="2"/><rect x="172" y="525.3857466666659" width="8" height="10.59576666666544" fill="#26a69a"/><line x1="188" y1="460.4866720000018" x2="188" y2="538.6304546666679" stroke="#26a69a" stroke-width="2"/><rect x="184" y="512.1410373333371" width="8" height="18.54259199999433" fill="#26a69a"/><line x1="200" y1="476.3803226666672" x2="200" y2="569.0932866666648" stroke="#26a69a" stroke-width="2"/><rect x="196" y="502.86973999999793" width="8" height="3.9734133333316777" fill="#26a69a"/><line x1="212" y1="479.02926400000376" x2="212" y2="558.6299666666642" stroke="#26a69a" stroke-width="2"/><rect x="208" y="502.86973999999793" width="8" height="5.297883999999954" fill="#26a69a"/><line x1="224" y1="381.01841733333305" x2="224" y2="518.7633919999977" stroke="#26a69a" stroke-width="2"/><rect x="220" y="411.48124800000306" width="8" height="91.38849199999487" fill="#26a69a"/><line x1="236" y1="382.3428880000013" x2="236" y2="497.57185733333245" stroke="#ef5350" stroke-width="2"/><rect x="232" y="415.45466000000033" width="8" height="47.68095333333042" fill="#ef5350"/><line x1="248" y1="419.42807333333195" x2="248" y2="549.2262226666677" stroke="#26a69a" stroke-width="2"/><rect x="244" y="427.37489866666846" width="8" height="43.7075399999988" fill="#26a69a"/><line x1="260" y1="410.1567773333348" x2="260" y2="498.8963280000007" stroke="#ef5350" stroke-width="2"/><rect x="256" y="430.0238399999974" width="8" height="49.00542400000637" fill="#ef5350"/><line x1="272" y1="455.18878800000186" x2="272" y2="521.4123333333342" stroke="#26a69a" stroke-width="2"/><rect x="268" y="480.3537346666644" width="8" height="3.973413333339181" fill="#26a69a"/><line x1="284" y1="415.45466000000033" x2="284" y2="481.67820666666705" stroke="#26a69a" stroke-width="2"/><rect x="280" y="455.18878800000186" width="8" height="18.54259199999433" fill="#26a69a"/><line x1="296" y1="435.32172399999735" x2="296" y2="486.97608933333265" stroke="#ef5350" stroke-width="2"/><rect x="292" y="451.2153746666703" width="8" height="34.436243999994076" fill="#ef5350"/><line x1="308" y1="420.7525440000002" x2="308" y2="534.6570426666631" stroke="#26a69a" stroke-width="2"/><rect x="304" y="436.6461946666656" width="8" height="52.978837333337935" fill="#26a69a"/><line x1="320" y1="402.20995066666393" x2="320" y2="463.13561333333075" stroke="#26a69a" stroke-width="2"/><rect x="316" y="423.4014853333368" width="8" height="14.569179999997118" fill="#26a69a"/><line x1="332" y1="391.6141839999985" x2="332" y2="423.4014853333368" stroke="#26a69a" stroke-width="2"/><rect x="328" y="398.2365386666667" width="8" height="25.164946666670062" fill="#26a69a"/><line x1="344" y1="354.52899866666786" x2="344" y2="443.2685493333338" stroke="#ef5350" stroke-width="2"/><rect x="340" y="396.91206799999844" width="8" height="3.973412000004828" fill="#ef5350"/><line x1="356" y1="300.22569066666915" x2="356" y2="400.88548000000327" stroke="#26a69a" stroke-width="2"/><rect x="352" y="330.68852266666613" width="8" height="70.19695733333714" fill="#26a69a"/><line x1="368" y1="288.30545333333544" x2="368" y2="357.17793999999685" stroke="#26a69a" stroke-width="2"/><rect x="364" y="326.71510933333434" width="8" height="9.271295999997164" fill="#26a69a"/><line x1="380" y1="309.4969880000008" x2="380" y2="407.5078346666639" stroke="#ef5350" stroke-width="2"/><rect x="376" y="332.0129933333344" width="8" height="70.19695733332952" fill="#ef5350"/><line x1="392" y1="382.3428880000013" x2="392" y2="493.59844400000077" stroke="#ef5350" stroke-width="2"/><rect x="388" y="391.6141839999985" width="8" height="78.1437840000005" fill="#ef5350"/><line x1="404" y1="316.1193426666689" x2="404" y2="469.757967999999" stroke="#26a69a" stroke-width="2"/><rect x="400" y="316.1193426666689" width="8" height="153.63862533333008" fill="#26a69a"/><line x1="416" y1="267.1139186666703" x2="416" y2="345.25770266666314" stroke="#26a69a" stroke-width="2"/><rect x="412" y="275.0607439999992" width="8" height="46.356481333335296" fill="#26a69a"/><line x1="428" y1="265.78944800000204" x2="428" y2="353.2045279999996" stroke="#ef5350" stroke-width="2"/><rect x="424" y="277.70968533333576" width="8" height="23.840477333328636" fill="#ef5350"/><line x1="440" y1="271.0873306666674" x2="440" y2="324.0661679999978" stroke="#26a69a" stroke-width="2"/><rect x="436" y="298.9012200000009" width="8" height="2.6489426666635154" fill="#26a69a"/><line x1="452" y1="196.91695999999865" x2="452" y2="304.19910400000094" stroke="#26a69a" stroke-width="2"/><rect x="448" y="244.5979133333367" width="8" height="56.9522493333277" fill="#26a69a"/><line x1="464" y1="191.6190759999988" x2="464" y2="247.24685466666574" stroke="#26a69a" stroke-width="2"/><rect x="460" y="204.86378533333504" width="8" height="42.383069333330695" fill="#26a69a"/><line x1="476" y1="145.2625946666633" x2="476" y2="214.1350813333322" stroke="#ef5350" stroke-width="2"/><rect x="472" y="204.86378533333504" width="8" height="3.9734133333317914" fill="#ef5350"/><line x1="488" y1="202.2148439999985" x2="488" y2="279.0341559999963" stroke="#ef5350" stroke-width="2"/><rect x="484" y="210.1616693333351" width="8" height="41.05859866666219" fill="#ef5350"/><line x1="500" y1="198.24143066666693" x2="500" y2="253.86920933333386" stroke="#26a69a" stroke-width="2"/><rect x="496" y="230.02873333333196" width="8" height="23.8404760000019" fill="#26a69a"/><line x1="512" y1="216.78402400000323" x2="512" y2="256.5181506666704" stroke="#ef5350" stroke-width="2"/><rect x="508" y="228.70426133333694" width="8" height="13.244709333328728" fill="#ef5350"/><line x1="524" y1="202.2148439999985" x2="524" y2="248.57132533333402" stroke="#26a69a" stroke-width="2"/><rect x="520" y="211.4861400000034" width="8" height="27.813889333333464" fill="#26a69a"/><line x1="536" y1="188.97013466666976" x2="536" y2="284.33203999999637" stroke="#ef5350" stroke-width="2"/><rect x="532" y="208.83719866666684" width="8" height="64.89907466666409" fill="#ef5350"/><line x1="548" y1="166.45412933333614" x2="548" y2="275.0607439999992" stroke="#26a69a" stroke-width="2"/><rect x="544" y="184.99672133333047" width="8" height="84.76613866666867" fill="#26a69a"/><line x1="560" y1="125.39553066666645" x2="560" y2="183.67225066666992" stroke="#26a69a" stroke-width="2"/><rect x="556" y="132.01788533333456" width="8" height="49.00542399999881" fill="#26a69a"/><line x1="572" y1="90.95928666666464" x2="572" y2="137.3157693333344" stroke="#26a69a" stroke-width="2"/><rect x="568" y="102.21728933333156" width="8" height="25.827182666671433" fill="#26a69a"/><line x1="584" y1="76.25766000000272" x2="584" y2="124.07105999999817" stroke="#26a69a" stroke-width="2"/><rect x="580" y="83.01246133333575" width="8" height="17.21812266666052" fill="#26a69a"/><line x1="596" y1="77.71457733333591" x2="596" y2="121.42211866666912" stroke="#ef5350" stroke-width="2"/><rect x="592" y="86.98587466666754" width="8" height="12.582473333334974" fill="#ef5350"/><line x1="608" y1="81.68799066666747" x2="608" y2="143.93812400000274" stroke="#ef5350" stroke-width="2"/><rect x="604" y="106.85293733333015" width="8" height="19.867064000004575" fill="#ef5350"/><line x1="620" y1="118.7731759999981" x2="620" y2="161.1562453333363" stroke="#ef5350" stroke-width="2"/><rect x="616" y="121.42211866666912" width="8" height="5.2978826666656005" fill="#ef5350"/><line x1="632" y1="89.63481599999636" x2="632" y2="133.34235600000284" stroke="#26a69a" stroke-width="2"/><rect x="628" y="106.85293733333015" width="8" height="15.893651999999747" fill="#26a69a"/><line x1="644" y1="96.2571706666647" x2="644" y2="117.44870533332983" stroke="#26a69a" stroke-width="2"/><rect x="640" y="102.21728933333156" width="8" height="2" fill="#26a69a"/><line x1="656" y1="69.76775199999952" x2="656" y2="108.17740933333266" stroke="#26a69a" stroke-width="2"/><rect x="652" y="83.01246133333575" width="8" height="25.16494799999691" fill="#26a69a"/><line x1="668" y1="65.7943400000022" x2="668" y2="96.2571706666647" stroke="#ef5350" stroke-width="2"/><rect x="664" y="84.33693199999652" width="8" height="11.920238666668183" fill="#ef5350"/><line x1="680" y1="79.03904933333092" x2="680" y2="125.39553066666645" stroke="#26a69a" stroke-width="2"/><rect x="676" y="83.01246133333575" width="8" height="13.244709333328956" fill="#26a69a"/><line x1="692" y1="-1.7536773333328028" x2="692" y2="94.93269999999643" stroke="#26a69a" stroke-width="2"/><rect x="688" y="3.544206666667037" width="8" height="75.49484266666389" fill="#26a69a"/><line x1="704" y1="-14.998385333334795" x2="704" y2="23.41127066666411" stroke="#26a69a" stroke-width="2"/><rect x="700" y="-8.376032000001032" width="8" height="11.92023866666807" fill="#26a69a"/><line x1="716" y1="-24.269682666666426" x2="716" y2="26.06021200000066" stroke="#ef5350" stroke-width="2"/><rect x="712" y="-7.051559999998403" width="8" height="17.21812133333367" fill="#ef5350"/><line x1="728" y1="10.166561333335267" x2="728" y2="72.41669466667031" stroke="#ef5350" stroke-width="2"/><rect x="724" y="10.166561333335267" width="8" height="47.680953333330535" fill="#ef5350"/><line x1="740" y1="44.60280533333696" x2="740" y2="109.50188000000094" stroke="#ef5350" stroke-width="2"/><rect x="736" y="59.17198533333408" width="8" height="42.38306933333047" fill="#ef5350"/><line x1="752" y1="59.17198533333408" x2="752" y2="124.20350666666309" stroke="#26a69a" stroke-width="2"/><rect x="748" y="93.60822933333566" width="8" height="10.59576666666544" fill="#26a69a"/><line x1="764" y1="76.39010666666763" x2="764" y2="194.2680186666696" stroke="#ef5350" stroke-width="2"/><rect x="760" y="94.93269999999643" width="8" height="78.14378400000032" fill="#ef5350"/><line x1="776" y1="88.31034533333582" x2="776" y2="195.59248933333038" stroke="#26a69a" stroke-width="2"/><rect x="772" y="110.82635066666921" width="8" height="58.276719999995976" fill="#26a69a"/><line x1="788" y1="102.87952533333282" x2="788" y2="178.37436666666986" stroke="#ef5350" stroke-width="2"/><rect x="784" y="108.17740933333266" width="8" height="60.92566133333253" fill="#ef5350"/><line x1="800" y1="146.58706533333157" x2="800" y2="230.02873333333196" stroke="#ef5350" stroke-width="2"/><rect x="796" y="169.1030706666652" width="8" height="10.595767999999907" fill="#ef5350"/><line x1="812" y1="181.02330933333337" x2="812" y2="239.30002933333685" stroke="#ef5350" stroke-width="2"/><rect x="808" y="184.99672133333047" width="8" height="47.68095333333804" fill="#ef5350"/><line x1="824" y1="237.97555866666858" x2="824" y2="298.9012200000009" stroke="#ef5350" stroke-width="2"/><rect x="820" y="241.94897066666567" width="8" height="47.68095333333804" fill="#ef5350"/><line x1="836" y1="239.30002933333685" x2="836" y2="298.9012200000009" stroke="#26a69a" stroke-width="2"/><rect x="832" y="259.1670933333337" width="8" height="33.111771999999064" fill="#26a69a"/><line x1="848" y1="199.5659013333352" x2="848" y2="271.7495666666689" stroke="#26a69a" stroke-width="2"/><rect x="844" y="215.45955333333495" width="8" height="46.356481333335296" fill="#26a69a"/><line x1="860" y1="215.45955333333495" x2="860" y2="265.65700000000265" stroke="#ef5350" stroke-width="2"/><rect x="856" y="215.45955333333495" width="8" height="38.409655999998904" fill="#ef5350"/><line x1="872" y1="248.57132533333402" x2="872" y2="342.6087599999998" stroke="#ef5350" stroke-width="2"/><rect x="868" y="259.1670933333337" width="8" height="56.9522493333352" fill="#ef5350"/><line x1="884" y1="263.140505333331" x2="884" y2="353.2045279999996" stroke="#26a69a" stroke-width="2"/><rect x="880" y="264.4649759999993" width="8" height="51.6543666666696" fill="#26a69a"/><line x1="896" y1="222.08190666666883" x2="896" y2="283.0075693333356" stroke="#26a69a" stroke-width="2"/><rect x="892" y="231.35320400000023" width="8" height="37.08518533333063" fill="#26a69a"/><line x1="908" y1="204.86378533333504" x2="908" y2="235.32661599999756" stroke="#26a69a" stroke-width="2"/><rect x="904" y="207.5127266666641" width="8" height="25.164948000004415" fill="#26a69a"/><line x1="920" y1="175.7254253333333" x2="920" y2="245.92238399999746" stroke="#ef5350" stroke-width="2"/><rect x="916" y="203.53931466666677" width="8" height="39.73412666666718" fill="#ef5350"/><line x1="932" y1="224.73084933333212" x2="932" y2="279.0341559999963" stroke="#ef5350" stroke-width="2"/><rect x="928" y="234.00214533333678" width="8" height="23.840475999994396" fill="#ef5350"/><line x1="944" y1="190.29460533333054" x2="944" y2="302.87463333333267" stroke="#26a69a" stroke-width="2"/><rect x="940" y="190.29460533333054" width="8" height="71.52142933333971" fill="#26a69a"/><line x1="956" y1="135.99129866666613" x2="956" y2="191.6190759999988" stroke="#26a69a" stroke-width="2"/><rect x="952" y="169.1030706666652" width="8" height="22.516005333333624" fill="#26a69a"/><line x1="968" y1="135.99129866666613" x2="968" y2="188.97013466666976" stroke="#ef5350" stroke-width="2"/><rect x="964" y="169.1030706666652" width="8" height="9.271296000004668" fill="#ef5350"/><line x1="980" y1="154.53389066666819" x2="980" y2="243.27344133333395" stroke="#ef5350" stroke-width="2"/><rect x="976" y="178.37436666666986" width="8" height="46.35648266666226" fill="#ef5350"/><line x1="992" y1="226.0553200000004" x2="992" y2="398.2365386666667" stroke="#ef5350" stroke-width="2"/><rect x="988" y="230.02873333333196" width="8" height="168.20780533333476" fill="#ef5350"/><line x1="1004" y1="304.19910400000094" x2="1004" y2="443.2685493333338" stroke="#26a69a" stroke-width="2"/><rect x="1000" y="335.9864053333315" width="8" height="64.89907466667177" fill="#26a69a"/><line x1="1016" y1="277.70968533333576" x2="1016" y2="386.3162999999986" stroke="#26a69a" stroke-width="2"/><rect x="1012" y="304.19910400000094" width="8" height="78.14378400000038" fill="#26a69a"/><line x1="1028" y1="264.4649759999993" x2="1028" y2="367.7737079999967" stroke="#ef5350" stroke-width="2"/><rect x="1024" y="297.5767493333326" width="8" height="70.1969586666641" fill="#ef5350"/><line x1="1040" y1="353.2045279999996" x2="1040" y2="570.417757333333" stroke="#ef5350" stroke-width="2"/><rect x="1036" y="369.098178666665" width="8" height="190.72381066666816" fill="#ef5350"/><line x1="1052" y1="529.3591586666631" x2="1052" y2="619.4231813333317" stroke="#26a69a" stroke-width="2"/><rect x="1048" y="546.5772813333311" width="8" height="17.21812133333367" fill="#26a69a"/><line x1="1064" y1="439.2951373333365" x2="1064" y2="595.5827040000031" stroke="#26a69a" stroke-width="2"/><rect x="1060" y="547.9017519999994" width="8" height="2.648941333336552" fill="#26a69a"/><line x1="1076" y1="489.62503200000356" x2="1076" y2="557.1730479999966" stroke="#26a69a" stroke-width="2"/><rect x="1072" y="528.0346880000025" width="8" height="9.271295999997164" fill="#26a69a"/><line x1="1088" y1="520.087862666666" x2="1088" y2="584.98693733333" stroke="#ef5350" stroke-width="2"/><rect x="1084" y="535.9815133333313" width="8" height="2.648941333336552" fill="#ef5350"/><line x1="1100" y1="451.2153746666703" x2="1100" y2="578.3645826666694" stroke="#26a69a" stroke-width="2"/><rect x="1096" y="521.4123333333342" width="8" height="3.9734133333316777" fill="#26a69a"/><line x1="1112" y1="465.7845546666673" x2="1112" y2="546.5772813333311" stroke="#26a69a" stroke-width="2"/><rect x="1108" y="479.02926400000376" width="8" height="34.436243999994076" fill="#26a69a"/><line x1="1124" y1="481.67820666666705" x2="1124" y2="690.944610666664" stroke="#ef5350" stroke-width="2"/><rect x="1120" y="489.62503200000356" width="8" height="201.3195786666604" fill="#ef5350"/><line x1="1136" y1="584.98693733333" x2="1136" y2="688.2956680000007" stroke="#26a69a" stroke-width="2"/><rect x="1132" y="648.5615413333335" width="8" height="35.760714666669855" fill="#26a69a"/><line x1="1148" y1="498.8963280000007" x2="1148" y2="648.5615413333335" stroke="#26a69a" stroke-width="2"/><rect x="1144" y="505.51868266666895" width="8" height="143.04285866666453" fill="#26a69a"/><line x1="1160" y1="501.54526933332966" x2="1160" y2="584.98693733333" stroke="#26a69a" stroke-width="2"/><rect x="1156" y="510.8165666666688" width="8" height="3.9734119999973245" fill="#26a69a"/><line x1="1172" y1="456.51325866667014" x2="1172" y2="529.3591586666631" stroke="#26a69a" stroke-width="2"/><rect x="1168" y="467.1090253333356" width="8" height="47.680953333330535" fill="#26a69a"/><line x1="1184" y1="407.5078346666639" x2="1184" y2="483.0026773333353" stroke="#26a69a" stroke-width="2"/><rect x="1180" y="422.0770146666685" width="8" height="45.03201066666708" fill="#26a69a"/><line x1="1196" y1="402.20995066666393" x2="1196" y2="457.9701773333303" stroke="#26a69a" stroke-width="2"/><rect x="1192" y="412.8057186666638" width="8" height="2" fill="#26a69a"/><line x1="1208" y1="386.1838533333336" x2="1208" y2="439.2951373333365" stroke="#ef5350" stroke-width="2"/><rect x="1204" y="419.42807333333195" width="8" height="14.569180000004678" fill="#ef5350"/><line x1="1220" y1="420.7525440000002" x2="1220" y2="561.1464613333359" stroke="#ef5350" stroke-width="2"/><rect x="1216" y="432.67278266666835" width="8" height="99.33531866666578" fill="#ef5350"/><line x1="1232" y1="480.3537346666644" x2="1232" y2="546.5772813333311" stroke="#26a69a" stroke-width="2"/><rect x="1228" y="525.3857466666659" width="8" height="9.271295999997164" fill="#26a69a"/><line x1="1244" y1="469.757967999999" x2="1244" y2="525.3857466666659" stroke="#26a69a" stroke-width="2"/><rect x="1240" y="476.3803226666672" width="8" height="49.0054239999987" fill="#26a69a"/><line x1="1256" y1="457.8377293333309" x2="1256" y2="534.6570426666631" stroke="#ef5350" stroke-width="2"/><rect x="1252" y="483.0026773333353" width="8" height="29.13836000000174" fill="#ef5350"/><line x1="1268" y1="484.3271480000036" x2="1268" y2="546.5772813333311" stroke="#26a69a" stroke-width="2"/><rect x="1264" y="513.4655079999978" width="8" height="2" fill="#26a69a"/><line x1="1280" y1="457.8377293333309" x2="1280" y2="525.3857466666659" stroke="#26a69a" stroke-width="2"/><rect x="1276" y="464.46008399999903" width="8" height="49.00542399999881" fill="#26a69a"/><line x1="1292" y1="447.2419626666654" x2="1292" y2="483.0026773333353" stroke="#26a69a" stroke-width="2"/><rect x="1288" y="467.1090253333356" width="8" height="2" fill="#26a69a"/><line x1="1304" y1="452.53984533333096" x2="1304" y2="494.92291466666904" stroke="#ef5350" stroke-width="2"/><rect x="1300" y="469.757967999999" width="8" height="25.164946666670062" fill="#ef5350"/><line x1="1316" y1="423.4014853333368" x2="1316" y2="498.8963280000007" stroke="#26a69a" stroke-width="2"/><rect x="1312" y="434.6594880000036" width="8" height="52.31660133332906" fill="#26a69a"/><line x1="1328" y1="377.0450040000014" x2="1328" y2="441.9440786666655" stroke="#26a69a" stroke-width="2"/><rect x="1324" y="424.7259573333319" width="8" height="9.271296000004725" fill="#26a69a"/><line x1="1340" y1="394.26312533333504" x2="1340" y2="496.24738666666417" stroke="#ef5350" stroke-width="2"/><rect x="1336" y="424.7259573333319" width="8" height="52.97883600000358" fill="#ef5350"/><line x1="1352" y1="428.69936933333673" x2="1352" y2="496.24738666666417" stroke="#ef5350" stroke-width="2"/><rect x="1348" y="473.7313799999962" width="8" height="22.516006666667977" fill="#ef5350"/><line x1="1364" y1="486.97608933333265" x2="1364" y2="520.087862666666" stroke="#ef5350" stroke-width="2"/><rect x="1360" y="497.57185733333245" width="8" height="7.9468253333365055" fill="#ef5350"/><line x1="1376" y1="496.24738666666417" x2="1376" y2="573.0666986666696" stroke="#ef5350" stroke-width="2"/><rect x="1372" y="500.220798666669" width="8" height="22.51600533333351" fill="#ef5350"/><line x1="1388" y1="486.97608933333265" x2="1388" y2="547.9017519999994" stroke="#26a69a" stroke-width="2"/><rect x="1384" y="500.220798666669" width="8" height="27.813889333333464" fill="#26a69a"/><line x1="1400" y1="469.757967999999" x2="1400" y2="579.6890533333302" stroke="#ef5350" stroke-width="2"/><rect x="1396" y="490.9495026666642" width="8" height="74.17037066666887" fill="#ef5350"/><line x1="1412" y1="565.1198733333331" x2="1412" y2="622.0721226666683" stroke="#ef5350" stroke-width="2"/><rect x="1408" y="567.7688146666696" width="8" height="17.218122666660406" fill="#ef5350"/><line x1="1424" y1="578.3645826666694" x2="1424" y2="635.3168319999971" stroke="#ef5350" stroke-width="2"/><rect x="1420" y="587.6358786666666" width="8" height="21.191534666665348" fill="#ef5350"/><line x1="1436" y1="604.8540013333346" x2="1436" y2="651.21048266667" stroke="#ef5350" stroke-width="2"/><rect x="1432" y="606.8407066666699" width="8" height="13.9069453333301" fill="#ef5350"/><line x1="1448" y1="631.3434186666655" x2="1448" y2="755.8436853333357" stroke="#ef5350" stroke-width="2"/><rect x="1444" y="631.3434186666655" width="8" height="51.65436533333536" fill="#ef5350"/><line x1="1460" y1="558.4975186666649" x2="1460" y2="680.3488426666643" stroke="#26a69a" stroke-width="2"/><rect x="1456" y="578.3645826666694" width="8" height="100.65978933333406" fill="#26a69a"/><line x1="1472" y1="563.7954026666648" x2="1472" y2="628.6944773333365" stroke="#ef5350" stroke-width="2"/><rect x="1468" y="582.3379946666668" width="8" height="2.648942666663288" fill="#ef5350"/><line x1="1484" y1="574.3911693333303" x2="1484" y2="767.7639226666694" stroke="#ef5350" stroke-width="2"/><rect x="1480" y="588.298114666668" width="8" height="168.87004133332846" fill="#ef5350"/><line x1="1496" y1="574.3911693333303" x2="1496" y2="774.38627733333" stroke="#26a69a" stroke-width="2"/><rect x="1492" y="591.6092919999983" width="8" height="168.2078053333347" fill="#26a69a"/><line x1="1508" y1="537.3059839999996" x2="1508" y2="602.2050586666637" stroke="#26a69a" stroke-width="2"/><rect x="1504" y="558.4975186666649" width="8" height="34.43624400000169" fill="#26a69a"/><line x1="1520" y1="525.3857466666659" x2="1520" y2="611.4763560000029" stroke="#26a69a" stroke-width="2"/><rect x="1516" y="535.9815133333313" width="8" height="29.13836000000174" fill="#26a69a"/><line x1="1532" y1="502.86973999999793" x2="1532" y2="551.8751639999967" stroke="#26a69a" stroke-width="2"/><rect x="1528" y="508.1676239999979" width="8" height="26.489418666665188" fill="#26a69a"/><line x1="1544" y1="479.02926400000376" x2="1544" y2="521.4123333333342" stroke="#26a69a" stroke-width="2"/><rect x="1540" y="480.3537346666644" width="8" height="27.813889333333464" fill="#26a69a"/><line x1="1556" y1="456.51325866667014" x2="1556" y2="520.087862666666" stroke="#ef5350" stroke-width="2"/><rect x="1552" y="479.02926400000376" width="8" height="25.16494799999691" fill="#ef5350"/><line x1="1568" y1="467.1090253333356" x2="1568" y2="502.86973999999793" stroke="#26a69a" stroke-width="2"/><rect x="1564" y="467.1090253333356" width="8" height="35.76071466666235" fill="#26a69a"/><line x1="1580" y1="443.2685493333338" x2="1580" y2="526.7102173333342" stroke="#ef5350" stroke-width="2"/><rect x="1576" y="467.1090253333356" width="8" height="52.978837333330375" fill="#ef5350"/><line x1="1592" y1="509.49209466666616" x2="1592" y2="566.4443440000014" stroke="#ef5350" stroke-width="2"/><rect x="1588" y="521.4123333333342" width="8" height="7.9468253333288885" fill="#ef5350"/><line x1="1604" y1="516.1144493333344" x2="1604" y2="573.0666986666696" stroke="#ef5350" stroke-width="2"/><rect x="1600" y="539.954926666663" width="8" height="23.840476000001786" fill="#ef5350"/><line x1="1616" y1="524.0612746666633" x2="1616" y2="563.7954026666648" stroke="#26a69a" stroke-width="2"/><rect x="1612" y="539.954926666663" width="8" height="21.19153466667285" fill="#26a69a"/><line x1="1628" y1="545.2528093333361" x2="1628" y2="591.6092919999983" stroke="#ef5350" stroke-width="2"/><rect x="1624" y="545.2528093333361" width="8" height="43.707539999998744" fill="#ef5350"/><line x1="1640" y1="558.4975186666649" x2="1640" y2="675.0509586666642" stroke="#ef5350" stroke-width="2"/><rect x="1636" y="579.6890533333302" width="8" height="88.73955066667338" fill="#ef5350"/><line x1="1652" y1="665.779662666667" x2="1652" y2="754.519213333333" stroke="#ef5350" stroke-width="2"/><rect x="1648" y="668.4286040000036" width="8" height="70.19695866666405" fill="#ef5350"/><line x1="1664" y1="561.1464613333359" x2="1664" y2="743.9234466666676" stroke="#26a69a" stroke-width="2"/><rect x="1660" y="583.6624666666694" width="8" height="156.28756666666652" fill="#26a69a"/><line x1="1676" y1="549.2262226666677" x2="1676" y2="622.0721226666683" stroke="#ef5350" stroke-width="2"/><rect x="1672" y="590.28482133333" width="8" height="29.13836000000174" fill="#ef5350"/><line x1="1688" y1="595.5827040000031" x2="1688" y2="668.4286040000036" stroke="#ef5350" stroke-width="2"/><rect x="1684" y="626.045536" width="8" height="42.38306800000362" fill="#ef5350"/><line x1="1700" y1="632.6678893333337" x2="1700" y2="686.9711973333324" stroke="#26a69a" stroke-width="2"/><rect x="1696" y="660.4817786666672" width="8" height="6.622354666668116" fill="#26a69a"/><line x1="1712" y1="643.2636573333335" x2="1712" y2="688.2956680000007" stroke="#26a69a" stroke-width="2"/><rect x="1708" y="655.1838960000016" width="8" height="3.9734119999973245" fill="#26a69a"/><line x1="1724" y1="620.747652" x2="1724" y2="663.1307213333305" stroke="#26a69a" stroke-width="2"/><rect x="1720" y="620.747652" width="8" height="34.43624400000158" fill="#26a69a"/><line x1="1736" y1="577.0401120000012" x2="1736" y2="632.6678893333337" stroke="#26a69a" stroke-width="2"/><rect x="1732" y="614.1252973333318" width="8" height="9.271296000004781" fill="#26a69a"/><line x1="1748" y1="587.6358786666666" x2="1748" y2="627.3700066666682" stroke="#26a69a" stroke-width="2"/><rect x="1744" y="587.6358786666666" width="8" height="31.78730266666514" fill="#26a69a"/><line x1="1760" y1="565.1198733333331" x2="1760" y2="622.0721226666683" stroke="#ef5350" stroke-width="2"/><rect x="1756" y="587.6358786666666" width="8" height="17.218122666668023" fill="#ef5350"/><line x1="1772" y1="596.9071759999982" x2="1772" y2="668.4286040000036" stroke="#ef5350" stroke-width="2"/><rect x="1768" y="604.8540013333346" width="8" height="54.3033066666643" fill="#ef5350"/><line x1="1784" y1="543.9283386666679" x2="1784" y2="656.5083666666699" stroke="#26a69a" stroke-width="2"/><rect x="1780" y="561.1464613333359" width="8" height="95.361905333334" fill="#26a69a"/><line x1="1796" y1="555.8485773333359" x2="1796" y2="627.3700066666682" stroke="#ef5350" stroke-width="2"/><rect x="1792" y="563.7954026666648" width="8" height="50.32989466666697" fill="#ef5350"/><line x1="1808" y1="612.8008266666635" x2="1808" y2="810.146992" stroke="#ef5350" stroke-width="2"/><rect x="1804" y="614.1252973333318" width="8" height="153.6386253333376" fill="#ef5350"/><line x1="1820" y1="738.6255626666676" x2="1820" y2="868.4237120000034" stroke="#ef5350" stroke-width="2"/><rect x="1816" y="767.7639226666694" width="8" height="37.08518533333063" fill="#ef5350"/><line x1="1832" y1="755.8436853333357" x2="1832" y2="853.8545319999988" stroke="#ef5350" stroke-width="2"/><rect x="1828" y="803.5246373333317" width="8" height="29.13836000000174" fill="#ef5350"/><line x1="1844" y1="694.9180226666688" x2="1844" y2="826.0406426666653" stroke="#26a69a" stroke-width="2"/><rect x="1840" y="766.4394520000011" width="8" height="56.9522493333352" fill="#26a69a"/><line x1="1856" y1="732.0032079999995" x2="1856" y2="814.2528519999966" stroke="#ef5350" stroke-width="2"/><rect x="1852" y="766.4394520000011" width="8" height="7.9468253333288885" fill="#ef5350"/><line x1="1868" y1="708.1627319999977" x2="1868" y2="792.9288706666663" stroke="#26a69a" stroke-width="2"/><rect x="1864" y="759.817097333333" width="8" height="14.569179999997004" fill="#26a69a"/><line x1="1880" y1="734.6521506666704" x2="1880" y2="875.046066666664" stroke="#ef5350" stroke-width="2"/><rect x="1876" y="755.8436853333357" width="8" height="94.03743466666583" fill="#ef5350"/><line x1="1892" y1="783.6575733333348" x2="1892" y2="877.6950080000006" stroke="#26a69a" stroke-width="2"/><rect x="1888" y="820.7427599999997" width="8" height="27.81388799999911" fill="#26a69a"/><line x1="1904" y1="802.2001666666634" x2="1904" y2="906.8333693333367" stroke="#ef5350" stroke-width="2"/><rect x="1900" y="822.067230666668" width="8" height="51.78681200000028" fill="#ef5350"/><line x1="1916" y1="820.7427599999997" x2="1916" y2="929.3493746666703" stroke="#ef5350" stroke-width="2"/><rect x="1912" y="873.7215960000034" width="8" height="23.84047599999417" fill="#ef5350"/><line x1="1928" y1="771.737336000001" x2="1928" y2="897.5620719999976" stroke="#26a69a" stroke-width="2"/><rect x="1924" y="819.4182879999971" width="8" height="74.17037200000323" fill="#26a69a"/><line x1="1940" y1="781.0086319999982" x2="1940" y2="861.8013573333352" stroke="#26a69a" stroke-width="2"/><rect x="1936" y="811.4714626666682" width="8" height="9.271297333331518" fill="#26a69a"/><rect x="75" y="977.6181035072127" width="10" height="42.38189649278729" fill="#26a69a" opacity="0.9"/><rect x="87" y="991.7855867763573" width="10" height="28.214413223642737" fill="#ef5350" opacity="0.9"/><rect x="99" y="994.68319622008" width="10" height="25.31680377991995" fill="#26a69a" opacity="0.9"/><rect x="111" y="988.9673586897898" width="10" height="31.032641310210238" fill="#ef5350" opacity="0.9"/><rect x="123" y="992.1635028068337" width="10" height="27.836497193166338" fill="#26a69a" opacity="0.9"/><rect x="135" y="991.5721306867816" width="10" height="28.427869313218366" fill="#ef5350" opacity="0.9"/><rect x="147" y="989.1177654717684" width="10" height="30.882234528231606" fill="#ef5350" opacity="0.9"/><rect x="159" y="970.7274978540446" width="10" height="49.2725021459554" fill="#ef5350" opacity="0.9"/><rect x="171" y="993.7735390411948" width="10" height="26.226460958805205" fill="#26a69a" opacity="0.9"/><rect x="183" y="1004.2674506050455" width="10" height="15.732549394954503" fill="#26a69a" opacity="0.9"/><rect x="195" y="999.2979497580578" width="10" height="20.702050241942175" fill="#26a69a" opacity="0.9"/><rect x="207" y="1002.698434402133" width="10" height="17.30156559786701" fill="#26a69a" opacity="0.9"/><rect x="219" y="987.9331221561343" width="10" height="32.066877843865655" fill="#26a69a" opacity="0.9"/><rect x="231" y="999.7085298876507" width="10" height="20.291470112349316" fill="#ef5350" opacity="0.9"/><rect x="243" y="996.6605136619494" width="10" height="23.33948633805062" fill="#26a69a" opacity="0.9"/><rect x="255" y="1004.2655515295154" width="10" height="15.734448470484608" fill="#ef5350" opacity="0.9"/><rect x="267" y="1002.7850322463025" width="10" height="17.214967753697465" fill="#26a69a" opacity="0.9"/><rect x="279" y="1002.9149290125567" width="10" height="17.08507098744326" fill="#26a69a" opacity="0.9"/><rect x="291" y="1007.0108551157297" width="10" height="12.989144884270331" fill="#ef5350" opacity="0.9"/><rect x="303" y="1004.7631093183838" width="10" height="15.23689068161616" fill="#26a69a" opacity="0.9"/><rect x="315" y="1002.0371763025759" width="10" height="17.96282369742414" fill="#26a69a" opacity="0.9"/><rect x="327" y="1005.5812310567215" width="10" height="14.418768943278451" fill="#26a69a" opacity="0.9"/><rect x="339" y="996.9149897829736" width="10" height="23.085010217026365" fill="#ef5350" opacity="0.9"/><rect x="351" y="999.2371793410967" width="10" height="20.76282065890325" fill="#26a69a" opacity="0.9"/><rect x="363" y="1002.224045334731" width="10" height="17.775954665268955" fill="#26a69a" opacity="0.9"/><rect x="375" y="1003.5663119193576" width="10" height="16.433688080642355" fill="#ef5350" opacity="0.9"/><rect x="387" y="1000.0921431447172" width="10" height="19.90785685528283" fill="#ef5350" opacity="0.9"/><rect x="399" y="1000.7154197336737" width="10" height="19.284580266326316" fill="#26a69a" opacity="0.9"/><rect x="411" y="991.9413109698199" width="10" height="28.058689030180062" fill="#26a69a" opacity="0.9"/><rect x="423" y="984.1057253329079" width="10" height="35.89427466709208" fill="#ef5350" opacity="0.9"/><rect x="435" y="1000.8491146509879" width="10" height="19.15088534901213" fill="#26a69a" opacity="0.9"/><rect x="447" y="982.678380164536" width="10" height="37.32161983546405" fill="#26a69a" opacity="0.9"/><rect x="459" y="993.2482547495879" width="10" height="26.751745250412114" fill="#26a69a" opacity="0.9"/><rect x="471" y="991.4270413162873" width="10" height="28.572958683712727" fill="#ef5350" opacity="0.9"/><rect x="483" y="999.1752694788178" width="10" height="20.824730521182232" fill="#ef5350" opacity="0.9"/><rect x="495" y="998.5645267883594" width="10" height="21.435473211640556" fill="#26a69a" opacity="0.9"/><rect x="507" y="998.899903526963" width="10" height="21.100096473036956" fill="#ef5350" opacity="0.9"/><rect x="519" y="999.668269486414" width="10" height="20.331730513585967" fill="#26a69a" opacity="0.9"/><rect x="531" y="1002.8514998898536" width="10" height="17.148500110146415" fill="#ef5350" opacity="0.9"/><rect x="543" y="991.591121442082" width="10" height="28.408878557918" fill="#26a69a" opacity="0.9"/><rect x="555" y="996.638484385801" width="10" height="23.361515614198993" fill="#26a69a" opacity="0.9"/><rect x="567" y="999.8285514611487" width="10" height="20.171448538851337" fill="#26a69a" opacity="0.9"/><rect x="579" y="1001.928549182258" width="10" height="18.071450817741948" fill="#26a69a" opacity="0.9"/><rect x="591" y="993.1194974286517" width="10" height="26.880502571348302" fill="#ef5350" opacity="0.9"/><rect x="603" y="994.5844442925184" width="10" height="25.415555707481644" fill="#ef5350" opacity="0.9"/><rect x="615" y="1004.4535600069886" width="10" height="15.546439993011404" fill="#ef5350" opacity="0.9"/><rect x="627" y="1004.7471570839316" width="10" height="15.252842916068403" fill="#26a69a" opacity="0.9"/><rect x="639" y="1007.1684783847223" width="10" height="12.831521615277666" fill="#26a69a" opacity="0.9"/><rect x="651" y="1004.2040214823423" width="10" height="15.795978517657659" fill="#26a69a" opacity="0.9"/><rect x="663" y="1002.1978380924166" width="10" height="17.802161907583354" fill="#ef5350" opacity="0.9"/><rect x="675" y="996.7923095037336" width="10" height="23.207690496266423" fill="#26a69a" opacity="0.9"/><rect x="687" y="986.8810343124967" width="10" height="33.118965687503305" fill="#26a69a" opacity="0.9"/><rect x="699" y="995.210759402323" width="10" height="24.789240597677008" fill="#26a69a" opacity="0.9"/><rect x="711" y="994.1187909725545" width="10" height="25.881209027445493" fill="#ef5350" opacity="0.9"/><rect x="723" y="1000.020358089682" width="10" height="19.979641910318037" fill="#ef5350" opacity="0.9"/><rect x="735" y="986.1217839155898" width="10" height="33.878216084410155" fill="#ef5350" opacity="0.9"/><rect x="747" y="993.3534635339516" width="10" height="26.64653646604836" fill="#26a69a" opacity="0.9"/><rect x="759" y="999.3158010680401" width="10" height="20.68419893195994" fill="#ef5350" opacity="0.9"/><rect x="771" y="993.1251946552418" width="10" height="26.874805344758215" fill="#26a69a" opacity="0.9"/><rect x="783" y="998.0369636061165" width="10" height="21.9630363938835" fill="#ef5350" opacity="0.9"/><rect x="795" y="988.5514611487129" width="10" height="31.44853885128714" fill="#ef5350" opacity="0.9"/><rect x="807" y="992.6428294706137" width="10" height="27.35717052938628" fill="#ef5350" opacity="0.9"/><rect x="819" y="994.9950244221113" width="10" height="25.004975577888672" fill="#ef5350" opacity="0.9"/><rect x="831" y="999.5588827358841" width="10" height="20.44111726411586" fill="#26a69a" opacity="0.9"/><rect x="843" y="997.1611099716658" width="10" height="22.838890028334163" fill="#26a69a" opacity="0.9"/><rect x="855" y="1000.1475961501941" width="10" height="19.85240384980591" fill="#ef5350" opacity="0.9"/><rect x="867" y="997.1508549638036" width="10" height="22.849145036196433" fill="#ef5350" opacity="0.9"/><rect x="879" y="998.5785799472817" width="10" height="21.421420052718304" fill="#26a69a" opacity="0.9"/><rect x="891" y="999.5429305014319" width="10" height="20.457069498568103" fill="#26a69a" opacity="0.9"/><rect x="903" y="1000.0590992304946" width="10" height="19.940900769505447" fill="#26a69a" opacity="0.9"/><rect x="915" y="999.4141731804957" width="10" height="20.58582681950429" fill="#ef5350" opacity="0.9"/><rect x="927" y="1001.8947456378235" width="10" height="18.105254362176538" fill="#ef5350" opacity="0.9"/><rect x="939" y="978.169595041134" width="10" height="41.830404958865984" fill="#26a69a" opacity="0.9"/><rect x="951" y="1002.1841647486004" width="10" height="17.815835251399562" fill="#26a69a" opacity="0.9"/><rect x="963" y="998.0255691529363" width="10" height="21.974430847063672" fill="#ef5350" opacity="0.9"/><rect x="975" y="993.3401700052415" width="10" height="26.659829994758525" fill="#ef5350" opacity="0.9"/><rect x="987" y="968.5811626900025" width="10" height="51.41883730999746" fill="#ef5350" opacity="0.9"/><rect x="999" y="861.8280501052088" width="10" height="158.17194989479117" fill="#26a69a" opacity="0.9"/><rect x="1011" y="953.1997903420615" width="10" height="66.80020965793847" fill="#26a69a" opacity="0.9"/><rect x="1023" y="994.8757624788253" width="10" height="25.124237521174678" fill="#ef5350" opacity="0.9"/><rect x="1035" y="985.8931352217741" width="10" height="34.10686477822594" fill="#ef5350" opacity="0.9"/><rect x="1047" y="985.4324194981883" width="10" height="34.567580501811676" fill="#26a69a" opacity="0.9"/><rect x="1059" y="989.3851553063969" width="10" height="30.614844693603118" fill="#26a69a" opacity="0.9"/><rect x="1071" y="996.0809158101836" width="10" height="23.91908418981643" fill="#26a69a" opacity="0.9"/><rect x="1083" y="997.8918742356221" width="10" height="22.10812576437786" fill="#ef5350" opacity="0.9"/><rect x="1095" y="1000.2269775073494" width="10" height="19.773022492650625" fill="#26a69a" opacity="0.9"/><rect x="1107" y="1002.5886678364972" width="10" height="17.411332163502834" fill="#26a69a" opacity="0.9"/><rect x="1119" y="982.4835350151546" width="10" height="37.516464984845356" fill="#ef5350" opacity="0.9"/><rect x="1131" y="993.2315428849237" width="10" height="26.76845711507633" fill="#26a69a" opacity="0.9"/><rect x="1143" y="1001.1879097255456" width="10" height="18.812090274454363" fill="#26a69a" opacity="0.9"/><rect x="1155" y="997.6373981145978" width="10" height="22.362601885402228" fill="#26a69a" opacity="0.9"/><rect x="1167" y="999.8855237270496" width="10" height="20.114476272950355" fill="#26a69a" opacity="0.9"/><rect x="1179" y="1001.7310453271348" width="10" height="18.26895467286522" fill="#26a69a" opacity="0.9"/><rect x="1191" y="999.2838965991356" width="10" height="20.716103400864426" fill="#26a69a" opacity="0.9"/><rect x="1203" y="1001.9467803073463" width="10" height="18.05321969265367" fill="#ef5350" opacity="0.9"/><rect x="1215" y="996.6126569585925" width="10" height="23.387343041407462" fill="#ef5350" opacity="0.9"/><rect x="1227" y="1004.0296863486855" width="10" height="15.970313651314541" fill="#26a69a" opacity="0.9"/><rect x="1239" y="1005.4376609466511" width="10" height="14.562339053348865" fill="#26a69a" opacity="0.9"/><rect x="1251" y="1000.7742910751047" width="10" height="19.225708924895343" fill="#ef5350" opacity="0.9"/><rect x="1263" y="1001.9361454843782" width="10" height="18.063854515621756" fill="#26a69a" opacity="0.9"/><rect x="1275" y="1002.3915437964798" width="10" height="17.608456203520177" fill="#26a69a" opacity="0.9"/><rect x="1287" y="1005.550086218029" width="10" height="14.449913781970963" fill="#26a69a" opacity="0.9"/><rect x="1299" y="1006.9880662093693" width="10" height="13.011933790630678" fill="#ef5350" opacity="0.9"/><rect x="1311" y="1005.5022295146723" width="10" height="14.497770485327692" fill="#26a69a" opacity="0.9"/><rect x="1323" y="1003.1375006646764" width="10" height="16.862499335323605" fill="#26a69a" opacity="0.9"/><rect x="1335" y="995.1040313575352" width="10" height="24.895968642464823" fill="#ef5350" opacity="0.9"/><rect x="1347" y="999.8141184871205" width="10" height="20.18588151287952" fill="#ef5350" opacity="0.9"/><rect x="1359" y="1000.5437433057588" width="10" height="19.456256694241233" fill="#ef5350" opacity="0.9"/><rect x="1371" y="1002.1252934071694" width="10" height="17.87470659283065" fill="#ef5350" opacity="0.9"/><rect x="1383" y="1003.3608319470083" width="10" height="16.63916805299175" fill="#26a69a" opacity="0.9"/><rect x="1395" y="1004.0068974423251" width="10" height="15.993102557674888" fill="#ef5350" opacity="0.9"/><rect x="1407" y="997.888076084562" width="10" height="22.111923915437956" fill="#ef5350" opacity="0.9"/><rect x="1419" y="993.132790957362" width="10" height="26.867209042638024" fill="#ef5350" opacity="0.9"/><rect x="1431" y="1003.1944729305774" width="10" height="16.805527069422624" fill="#ef5350" opacity="0.9"/><rect x="1443" y="986.2995373852009" width="10" height="33.70046261479911" fill="#ef5350" opacity="0.9"/><rect x="1455" y="990.8827662693801" width="10" height="29.117233730619887" fill="#26a69a" opacity="0.9"/><rect x="1467" y="997.9040283190143" width="10" height="22.095971680985713" fill="#ef5350" opacity="0.9"/><rect x="1479" y="986.4898247533101" width="10" height="33.51017524668987" fill="#ef5350" opacity="0.9"/><rect x="1491" y="976.3609155063315" width="10" height="43.63908449366852" fill="#26a69a" opacity="0.9"/><rect x="1503" y="988.266599819208" width="10" height="31.733400180792046" fill="#26a69a" opacity="0.9"/><rect x="1515" y="993.0515105246766" width="10" height="26.948489475323413" fill="#26a69a" opacity="0.9"/><rect x="1527" y="998.0810221584132" width="10" height="21.918977841586752" fill="#26a69a" opacity="0.9"/><rect x="1539" y="983.3643262459834" width="10" height="36.63567375401658" fill="#26a69a" opacity="0.9"/><rect x="1551" y="1000.9212795211291" width="10" height="19.078720478870878" fill="#ef5350" opacity="0.9"/><rect x="1563" y="997.3210121312945" width="10" height="22.678987868705462" fill="#26a69a" opacity="0.9"/><rect x="1575" y="993.427147664517" width="10" height="26.57285233548305" fill="#ef5350" opacity="0.9"/><rect x="1587" y="999.0917101554963" width="10" height="20.908289844503656" fill="#ef5350" opacity="0.9"/><rect x="1599" y="1001.7386416292549" width="10" height="18.261358370745143" fill="#ef5350" opacity="0.9"/><rect x="1611" y="1005.5622403014213" width="10" height="14.437759698578702" fill="#26a69a" opacity="0.9"/><rect x="1623" y="1001.4659343831423" width="10" height="18.534065616857674" fill="#ef5350" opacity="0.9"/><rect x="1635" y="990.346847154805" width="10" height="29.653152845194995" fill="#ef5350" opacity="0.9"/><rect x="1647" y="980.2749101737274" width="10" height="39.72508982627255" fill="#ef5350" opacity="0.9"/><rect x="1659" y="967.781651891859" width="10" height="52.21834810814096" fill="#26a69a" opacity="0.9"/><rect x="1671" y="990.6613340625784" width="10" height="29.338665937421638" fill="#ef5350" opacity="0.9"/><rect x="1683" y="983.4456066786688" width="10" height="36.55439332133119" fill="#ef5350" opacity="0.9"/><rect x="1695" y="978.4806636129532" width="10" height="41.51933638704679" fill="#26a69a" opacity="0.9"/><rect x="1707" y="990.5527069422606" width="10" height="29.447293057739444" fill="#26a69a" opacity="0.9"/><rect x="1719" y="983.6419710884742" width="10" height="36.35802891152582" fill="#26a69a" opacity="0.9"/><rect x="1731" y="974.5974339691438" width="10" height="45.40256603085618" fill="#26a69a" opacity="0.9"/><rect x="1743" y="993.609838730506" width="10" height="26.390161269494" fill="#26a69a" opacity="0.9"/><rect x="1755" y="1002.6012017349954" width="10" height="17.398798265004643" fill="#ef5350" opacity="0.9"/><rect x="1767" y="1002.2863350121161" width="10" height="17.71366498788393" fill="#ef5350" opacity="0.9"/><rect x="1779" y="990.7399557895217" width="10" height="29.260044210478327" fill="#26a69a" opacity="0.9"/><rect x="1791" y="996.7505298420729" width="10" height="23.249470157927135" fill="#ef5350" opacity="0.9"/><rect x="1803" y="967.8587543583783" width="10" height="52.14124564162171" fill="#ef5350" opacity="0.9"/><rect x="1815" y="968.0991773204804" width="10" height="51.90082267951959" fill="#ef5350" opacity="0.9"/><rect x="1827" y="979.4943901308843" width="10" height="40.50560986911569" fill="#ef5350" opacity="0.9"/><rect x="1839" y="982.3061613606496" width="10" height="37.69383863935036" fill="#26a69a" opacity="0.9"/><rect x="1851" y="990.5671399162887" width="10" height="29.43286008371126" fill="#ef5350" opacity="0.9"/><rect x="1863" y="988.0041475809576" width="10" height="31.99585241904242" fill="#26a69a" opacity="0.9"/><rect x="1875" y="979.8445796586221" width="10" height="40.15542034137786" fill="#ef5350" opacity="0.9"/><rect x="1887" y="989.7729465296294" width="10" height="30.227053470370606" fill="#26a69a" opacity="0.9"/><rect x="1899" y="964.2391163981374" width="10" height="55.76088360186259" fill="#ef5350" opacity="0.9"/><rect x="1911" y="979.4518508390115" width="10" height="40.54814916098849" fill="#ef5350" opacity="0.9"/><rect x="1923" y="968.8341195506027" width="10" height="51.165880449397264" fill="#26a69a" opacity="0.9"/><rect x="1935" y="860.0" width="10" height="160.0" fill="#26a69a" opacity="0.9"/><rect x="1004" y="335.9864053333315" width="12" height="46.35648266666982" fill="#ff0000" opacity="0.50"/><polyline points="320,434.78562865714895,332,431.30476294376575,344,428.40768837769855,356,419.10110116712076,368,410.30243527818584,380,409.53172245804126,392,415.26755536679804,404,405.8248684429752,416,393.3711423055456,428,384.6262871018401,440,376.4619949969074,452,363.90351102894937,464,348.75687048650735,476,335.4311874560533,488,327.4110998888091,500,318.13658878829006,512,310.88062515765773,524,301.4144837140748,536,298.77846367781626,548,287.94210726406004,560,273.09218136589766,572,256.81838212469756,584,240.26543728742422,596,226.86571449814892,608,217.32802753006877,620,208.69869170180664,632,198.9990960476614,644,189.7817811224893,656,179.61327447590065,668,171.6745979226364,680,163.2305849141328,692,148.02235841437619,704,133.12727361300563,716,121.41672958637173,728,115.36251864163955,740,114.04752207259503,752,112.100922764095,764,117.90811907227021,776,117.23366493840035,788,122.17360834109354,800,127.65220170543512,812,137.65462770174213,824,152.12846544443437,836,162.32262048147277,848,167.38328075308186,860,175.62003585596062,872,189.00092221888372,884,196.18797495994227,896,199.53704439232456,908,200.29663318035387,920,204.3896625282589,932,209.48042050969593,944,207.65320001670875,956,203.98175912622878,968,201.54295984436885,980,203.751330271886,992,222.2737310713835,1004,233.10350957251558,1016,239.87451856561006,1028,252.05539374984096,1040,281.36649809112737,1052,306.62466792371856,1064,329.6034378357415,1076,348.50165213710324,1088,366.60915713991926,1100,381.3523167773913,1112,390.6548831795438,1124,419.25390484498166,1136,441.09272736768617,1148,447.22853263425196,1160,453.2845358754381,1172,454.6011539190431,1184,451.5036168473898,1196,447.8181027349365,1208,446.5018313633588,1220,454.64528564621105,1232,461.3824724100672,1244,462.8108391011741,1256,467.5089532185211,1268,471.8857679596189,1280,471.17855996346714,1292,470.79098523678715,1304,473.08926423011144,1316,469.42928554152934,1328,465.1718257121729,1340,466.3654416760968,1352,469.2113411990098,1364,472.6691832435487,1376,477.4375280774924,1388,479.60736337169385,1400,487.75141193946183,1412,497.01193816744455,1424,507.6610310403794,1436,518.4311854174817,1448,534.1041948062942,1460,538.3194698406138,1472,542.7639905542037,1484,563.1834348823759,1496,565.8906593697642,1508,565.1865507313687,1520,562.4051185982202,1532,557.2396429221953,1544,549.9171754692876,1556,545.5626075198325,1568,538.0908377877859,1580,536.3762687286302,1592,535.7079725322516,1604,538.3829658783876,1616,538.5326764296527,1628,543.3353119442927,1640,555.2489588067374,1652,572.7133972695887,1664,573.7561657835992,1676,578.1054053597624,1688,586.7076147540729,1700,593.7337256028892,1712,599.5861227835652,1724,601.6015065184623,1736,602.7942485008301,1748,601.350594230909,1760,601.684252050192,1772,607.1578764263677,1784,602.7758368937006,1796,603.8567378879483,1808,619.4669459621158,1820,637.1223899657252,1832,655.745304953113,1844,666.2876046718641,1856,676.5827163539068,1868,684.5098002567056,1880,700.2594497560722,1892,711.734050731684,1904,727.1740499635902,1916,743.4014806337245,1928,750.641176573375,1940,756.4345371536925" fill="none" stroke="#0090ff" stroke-width="2"/><line x1="80" y1="50" x2="80" y2="850" stroke="#666666" stroke-width="0.5" stroke-dasharray="4,4"/><line x1="152" y1="50" x2="152" y2="850" stroke="#666666" stroke-width="0.5" stroke-dasharray="4,4"/><line x1="224" y1="50" x2="224" y2="850" stroke="#666666" stroke-width="0.5" stroke-dasharray="4,4"/><line x1="296" y1="50" x2="296" y2="850" stroke="#666666" stroke-width="0.5" stroke-dasharray="4,4"/><line x1="368" y1="50" x2="368" y2="850" stroke="#666666" stroke-width="0.5" stroke-dasharray="4,4"/><line x1="440" y1="50" x2="440" y2="850" stroke="#666666" stroke-width="0.5" stroke-dasharray="4,4"/><line x1="512" y1="50" x2="512" y2="850" stroke="#666666" stroke-width="0.5" stroke-dasharray="4,4"/><line x1="584" y1="50" x2="584" y2="850" stroke="#666666" stroke-width="0.5" stroke-dasharray="4,4"/><line x1="656" y1="50" x2="656" y2="850" stroke="#666666" stroke-width="0.5" stroke-dasharray="4,4"/><line x1="728" y1="50" x2="728" y2="850" stroke="#666666" stroke-width="0.5" stroke-dasharray="4,4"/><line x1="800" y1="50" x2="800" y2="850" stroke="#666666" stroke-width="0.5" stroke-dasharray="4,4"/><line x1="872" y1="50" x2="872" y2="850" stroke="#666666" stroke-width="0.5" stroke-dasharray="4,4"/><line x1="944" y1="50" x2="944" y2="850" stroke="#666666" stroke-width="0.5" stroke-dasharray="4,4"/><line x1="1016" y1="50" x2="1016" y2="850" stroke="#666666" stroke-width="0.5" stroke-dasharray="4,4"/><line x1="1088" y1="50" x2="1088" y2="850" stroke="#666666" stroke-width="0.5" stroke-dasharray="4,4"/><line x1="1160" y1="50" x2="1160" y2="850" stroke="#666666" stroke-width="0.5" stroke-dasharray="4,4"/><line x1="1232" y1="50" x2="1232" y2="850" stroke="#666666" stroke-width="0.5" stroke-dasharray="4,4"/><line x1="1304" y1="50" x2="1304" y2="850" stroke="#666666" stroke-width="0.5" stroke-dasharray="4,4"/><line x1="1376" y1="50" x2="1376" y2="850" stroke="#666666" stroke-width="0.5" stroke-dasharray="4,4"/><line x1="1448" y1="50" x2="1448" y2="850" stroke="#666666" stroke-width="0.5" stroke-dasharray="4,4"/><line x1="1520" y1="50" x2="1520" y2="850" stroke="#666666" stroke-width="0.5" stroke-dasharray="4,4"/><line x1="1592" y1="50" x2="1592" y2="850" stroke="#666666" stroke-width="0.5" stroke-dasharray="4,4"/><line x1="1664" y1="50" x2="1664" y2="850" stroke="#666666" stroke-width="0.5" stroke-dasharray="4,4"/><line x1="1736" y1="50" x2="1736" y2="850" stroke="#666666" stroke-width="0.5" stroke-dasharray="4,4"/><line x1="1808" y1="50" x2="1808" y2="850" stroke="#666666" stroke-width="0.5" stroke-dasharray="4,4"/><line x1="1880" y1="50" x2="1880" y2="850" stroke="#666666" stroke-width="0.5" stroke-dasharray="4,4"/><text x="80" y="1040" text-anchor="middle" font-size="20" fill="black">09:30</text><text x="152" y="1040" text-anchor="middle" font-size="20" fill="black">10:00</text><text x="224" y="1040" text-anchor="middle" font-size="20" fill="black">10:30</text><text x="296" y="1040" text-anchor="middle" font-size="20" fill="black">11:00</text><text x="368" y="1040" text-anchor="middle" font-size="20" fill="black">11:30</text><text x="440" y="1040" text-anchor="middle" font-size="20" fill="black">12:00</text><text x="512" y="1040" text-anchor="middle" font-size="20" fill="black">12:30</text><text x="584" y="1040" text-anchor="middle" font-size="20" fill="black">13:00</text><text x="656" y="1040" text-anchor="middle" font-size="20" fill="black">13:30</text><text x="728" y="1040" text-anchor="middle" font-size="20" fill="black">14:00</text><text x="800" y="1040" text-anchor="middle" font-size="20" fill="black">14:30</text><text x="872" y="1040" text-anchor="middle" font-size="20" fill="black">15:00</text><text x="944" y="1040" text-anchor="middle" font-size="20" fill="black">15:30</text><text x="1016" y="1040" text-anchor="middle" font-size="20" fill="black">09:30</text><text x="1088" y="1040" text-anchor="middle" font-size="20" fill="black">10:00</text><text x="1160" y="1040" text-anchor="middle" font-size="20" fill="black">10:30</text><text x="1232" y="1040" text-anchor="middle" font-size="20" fill="black">11:00</text><text x="1304" y="1040" text-anchor="middle" font-size="20" fill="black">11:30</text><text x="1376" y="1040" text-anchor="middle" font-size="20" fill="black">12:00</text><text x="1448" y="1040" text-anchor="middle" font-size="20" fill="black">12:30</text><text x="1520" y="1040" text-anchor="middle" font-size="20" fill="black">13:00</text><text x="1592" y="1040" text-anchor="middle" font-size="20" fill="black">13:30</text><text x="1664" y="1040" text-anchor="middle" font-size="20" fill="black">14:00</text><text x="1736" y="1040" text-anchor="middle" font-size="20" fill="black">14:30</text><text x="1808" y="1040" text-anchor="middle" font-size="20" fill="black">15:00</text><text x="1880" y="1040" text-anchor="middle" font-size="20" fill="black">15:30</text><text x="1942" y="50" text-anchor="end" font-size="40" fill="#ef5350" font-weight="bold"> -0.63% (Thu)</text></svg>