<svg xmlns="http://www.w3.org/2000/svg" width="1992" height="1050"><rect width="100%" height="100%" fill="white"/><text x="42" y="854.0" text-anchor="end" font-size="20" fill="black">475</text><text x="42" y="739.7142857142858" text-anchor="end" font-size="20" fill="black">476</text><text x="42" y="625.4285714285714" text-anchor="end" font-size="20" fill="black">477</text><text x="42" y="511.14285714285717" text-anchor="end" font-size="20" fill="black">478</text><text x="42" y="396.8571428571429" text-anchor="end" font-size="20" fill="black">479</text><text x="42" y="282.57142857142856" text-anchor="end" font-size="20" fill="black">480</text><text x="42" y="168.28571428571433" text-anchor="end" font-size="20" fill="black">481</text><text x="42" y="54.0" text-anchor="end" font-size="20" fill="black">482</text><line x1="80" y1="407.8905234285685" x2="80" y2="507.65330857142806" stroke="#ef5350" stroke-width="2"/><rect x="76" y="423.761875428571" width="8" height="79.3567611428573" fill="#ef5350"/><line x1="92" y1="431.69755085714314" x2="92" y2="559.8020377142867" stroke="#26a69a" stroke-width="2"/><rect x="88" y="433.9648879999978" width="8" height="68.02008114286116" fill="#26a69a"/><line x1="104" y1="372.746813714288" x2="104" y2="503.1186365714283" stroke="#ef5350" stroke-width="2"/><rect x="100" y="431.69755085714314" width="8" height="54.4160651428553" fill="#ef5350"/><line x1="116" y1="423.761875428571" x2="116" y2="539.3960137142844" stroke="#ef5350" stroke-width="2"/><rect x="112" y="483.84628000000185" width="8" height="40.81204914285598" fill="#ef5350"/><line x1="128" y1="520.1236571428581" x2="128" y2="662.9658274285703" stroke="#ef5350" stroke-width="2"/><rect x="124" y="520.1236571428581" width="8" height="39.67838057142865" fill="#ef5350"/><line x1="140" y1="504.2523051428556" x2="140" y2="577.9407257142858" stroke="#26a69a" stroke-width="2"/><rect x="136" y="524.6583291428578" width="8" height="34.01004114285956" fill="#26a69a"/><line x1="152" y1="455.50457942856934" x2="152" y2="558.6683702857174" stroke="#26a69a" stroke-width="2"/><rect x="148" y="489.51462057142896" width="8" height="44.21305257142842" fill="#26a69a"/><line x1="164" y1="436.232224000001" x2="164" y2="508.7869771428554" stroke="#ef5350" stroke-width="2"/><rect x="160" y="481.57894399999867" width="8" height="11.336681142860755" fill="#ef5350"/><line x1="176" y1="398.82117828571734" x2="176" y2="541.6633497142876" stroke="#26a69a" stroke-width="2"/><rect x="172" y="398.82117828571734" width="8" height="96.36178285713873" fill="#26a69a"/><line x1="188" y1="329.667429714287" x2="188" y2="423.761875428571" stroke="#26a69a" stroke-width="2"/><rect x="184" y="333.06843314285936" width="8" height="66.88641371428537" fill="#26a69a"/><line x1="200" y1="309.2614045714266" x2="200" y2="368.21214171428824" stroke="#26a69a" stroke-width="2"/><rect x="196" y="309.2614045714266" width="8" height="21.53969257142967" fill="#26a69a"/><line x1="212" y1="193.62726628571306" x2="212" y2="337.60310514285914" stroke="#26a69a" stroke-width="2"/><rect x="208" y="215.16695885714273" width="8" height="97.49545028571447" fill="#26a69a"/><line x1="224" y1="131.27552571428555" x2="224" y2="215.16695885714273" stroke="#26a69a" stroke-width="2"/><rect x="220" y="161.88456228571465" width="8" height="49.881393142855586" fill="#26a69a"/><line x1="236" y1="146.01321028571226" x2="236" y2="235.57298400000298" stroke="#ef5350" stroke-width="2"/><rect x="232" y="163.01822971428396" width="8" height="11.336681142860812" fill="#ef5350"/><line x1="248" y1="177.75591428571715" x2="248" y2="283.1870399999973" stroke="#ef5350" stroke-width="2"/><rect x="244" y="177.75591428571715" width="8" height="69.15374971428196" fill="#ef5350"/><line x1="260" y1="242.37499199999934" x2="260" y2="351.20712228571654" stroke="#ef5350" stroke-width="2"/><rect x="256" y="243.50865942856865" width="8" height="19.272356571432965" fill="#ef5350"/><line x1="272" y1="250.3106674285716" x2="272" y2="347.8061177142861" stroke="#ef5350" stroke-width="2"/><rect x="268" y="260.51367999999843" width="8" height="86.15877028571833" fill="#ef5350"/><line x1="284" y1="331.93476571428357" x2="284" y2="404.4895188571445" stroke="#ef5350" stroke-width="2"/><rect x="280" y="347.8061177142861" width="8" height="39.79174742857401" fill="#ef5350"/><line x1="296" y1="275.2513645714316" x2="296" y2="424.8955428571402" stroke="#26a69a" stroke-width="2"/><rect x="292" y="276.4983988571397" width="8" height="106.45142742857524" fill="#26a69a"/><line x1="308" y1="267.3156880000014" x2="308" y2="399.95484685714473" stroke="#ef5350" stroke-width="2"/><rect x="304" y="276.4983988571397" width="8" height="65.6393782857192" fill="#ef5350"/><line x1="320" y1="254.84533942857138" x2="320" y2="344.4051142857136" stroke="#26a69a" stroke-width="2"/><rect x="316" y="293.3900525714307" width="8" height="51.015061714282865" fill="#26a69a"/><line x1="332" y1="198.16193942857092" x2="332" y2="296.7910571428547" stroke="#26a69a" stroke-width="2"/><rect x="328" y="226.50363999999695" width="8" height="66.88641257143377" fill="#26a69a"/><line x1="344" y1="180.02325028571374" x2="344" y2="228.20414171428638" stroke="#26a69a" stroke-width="2"/><rect x="340" y="183.42425485714432" width="8" height="43.07938514285263" fill="#26a69a"/><line x1="356" y1="172.0875748571416" x2="356" y2="217.4342948571458" stroke="#ef5350" stroke-width="2"/><rect x="352" y="182.29058628571693" width="8" height="13.60401599999932" fill="#ef5350"/><line x1="368" y1="169.820238857145" x2="368" y2="241.24132342857206" stroke="#ef5350" stroke-width="2"/><rect x="364" y="192.49359885714387" width="8" height="22.673359999998866" fill="#ef5350"/><line x1="380" y1="166.41923428571442" x2="380" y2="221.96896685714557" stroke="#26a69a" stroke-width="2"/><rect x="376" y="192.49359885714387" width="8" height="21.539692571429555" fill="#26a69a"/><line x1="392" y1="153.94888571428442" x2="392" y2="220.26846514285614" stroke="#ef5350" stroke-width="2"/><rect x="388" y="195.89460228571625" width="8" height="10.203012571426939" fill="#ef5350"/><line x1="404" y1="140.3448697142851" x2="404" y2="215.16695885714273" stroke="#26a69a" stroke-width="2"/><rect x="400" y="169.820238857145" width="8" height="38.544711999994774" fill="#26a69a"/><line x1="416" y1="169.820238857145" x2="416" y2="311.5287405714298" stroke="#ef5350" stroke-width="2"/><rect x="412" y="169.820238857145" width="8" height="100.89645371428037" fill="#ef5350"/><line x1="428" y1="259.3800125714291" x2="428" y2="322.865421714284" stroke="#ef5350" stroke-width="2"/><rect x="424" y="271.85036000000116" width="8" height="18.138689142857174" fill="#ef5350"/><line x1="440" y1="191.35993028571647" x2="440" y2="302.45939657143026" stroke="#26a69a" stroke-width="2"/><rect x="436" y="195.89460228571625" width="8" height="92.9607782857147" fill="#26a69a"/><line x1="452" y1="180.02325028571374" x2="452" y2="209.49861942857365" stroke="#26a69a" stroke-width="2"/><rect x="448" y="181.15691885714114" width="8" height="12.470347428571927" fill="#26a69a"/><line x1="464" y1="168.68657028571113" x2="464" y2="243.50865942856865" stroke="#ef5350" stroke-width="2"/><rect x="460" y="183.42425485714432" width="8" height="47.61405714285888" fill="#ef5350"/><line x1="476" y1="160.75089371428737" x2="476" y2="258.24634400000184" stroke="#26a69a" stroke-width="2"/><rect x="472" y="173.22124228571738" width="8" height="62.351741714285595" fill="#26a69a"/><line x1="488" y1="138.0775337142885" x2="488" y2="200.4292754285741" stroke="#26a69a" stroke-width="2"/><rect x="484" y="169.820238857145" width="8" height="5.66833942856897" fill="#26a69a"/><line x1="500" y1="109.735833142856" x2="500" y2="180.02325028571374" stroke="#26a69a" stroke-width="2"/><rect x="496" y="127.87452114285509" width="8" height="44.2130537142865" fill="#26a69a"/><line x1="512" y1="93.86448114286009" x2="512" y2="148.28054628571533" stroke="#26a69a" stroke-width="2"/><rect x="508" y="121.07251314285872" width="8" height="5.668340571427052" fill="#26a69a"/><line x1="524" y1="105.20116114285622" x2="524" y2="134.67652914285804" stroke="#26a69a" stroke-width="2"/><rect x="520" y="112.00316914285918" width="8" height="11.336679999996136" fill="#26a69a"/><line x1="536" y1="102.93382514285963" x2="536" y2="139.21120228571579" stroke="#ef5350" stroke-width="2"/><rect x="532" y="112.00316914285918" width="8" height="13.60401599999932" fill="#ef5350"/><line x1="548" y1="96.13181714285668" x2="548" y2="142.61220571428828" stroke="#26a69a" stroke-width="2"/><rect x="544" y="114.27050514285577" width="8" height="10.203012571426939" fill="#26a69a"/><line x1="560" y1="94.9981485714294" x2="560" y2="122.206181714286" stroke="#26a69a" stroke-width="2"/><rect x="556" y="99.53282057142917" width="8" height="9.069345142857514" fill="#26a69a"/><line x1="572" y1="100.66648914285645" x2="572" y2="164.15189828571135" stroke="#ef5350" stroke-width="2"/><rect x="568" y="100.66648914285645" width="8" height="37.41104457143206" fill="#ef5350"/><line x1="584" y1="117.67150971428623" x2="584" y2="164.15189828571135" stroke="#26a69a" stroke-width="2"/><rect x="580" y="129.00818971428896" width="8" height="6.802007999996363" fill="#26a69a"/><line x1="596" y1="114.27050514285577" x2="596" y2="173.22124228571738" stroke="#ef5350" stroke-width="2"/><rect x="592" y="129.00818971428896" width="8" height="13.60401599999932" fill="#ef5350"/><line x1="608" y1="133.54286171428873" x2="608" y2="186.8252582857167" stroke="#26a69a" stroke-width="2"/><rect x="604" y="147.14687771428805" width="8" height="2" fill="#26a69a"/><line x1="620" y1="93.86448114286009" x2="620" y2="158.4835577142842" stroke="#26a69a" stroke-width="2"/><rect x="616" y="106.33482857142553" width="8" height="43.07938514285911" fill="#26a69a"/><line x1="632" y1="91.5971451428569" x2="632" y2="161.88456228571465" stroke="#ef5350" stroke-width="2"/><rect x="628" y="104.06749257142894" width="8" height="44.21305371428639" fill="#ef5350"/><line x1="644" y1="106.33482857142553" x2="644" y2="148.28054628571533" stroke="#26a69a" stroke-width="2"/><rect x="640" y="123.33984914285531" width="8" height="22.673361142856947" fill="#26a69a"/><line x1="656" y1="101.80015657142576" x2="656" y2="141.4785382857125" stroke="#26a69a" stroke-width="2"/><rect x="652" y="112.00316914285918" width="8" height="9.069343999999546" fill="#26a69a"/><line x1="668" y1="81.39413257143008" x2="668" y2="125.6071851428585" stroke="#26a69a" stroke-width="2"/><rect x="664" y="87.06247314285713" width="8" height="23.807028571426258" fill="#26a69a"/><line x1="680" y1="63.255444571430985" x2="680" y2="97.26548457142599" stroke="#26a69a" stroke-width="2"/><rect x="676" y="68.92378399999996" width="8" height="15.871353142854105" fill="#26a69a"/><line x1="692" y1="25.844399999998814" x2="692" y2="71.19112000000314" stroke="#26a69a" stroke-width="2"/><rect x="688" y="40.582083428573924" width="8" height="27.208033142856834" fill="#26a69a"/><line x1="704" y1="13.374051428568919" x2="704" y2="63.255444571430985" stroke="#26a69a" stroke-width="2"/><rect x="700" y="26.978067428568238" width="8" height="13.604016000005686" fill="#26a69a"/><line x1="716" y1="17.908723428568692" x2="716" y2="54.18610057143144" stroke="#ef5350" stroke-width="2"/><rect x="712" y="25.844399999998814" width="8" height="15.871352000002616" fill="#ef5350"/><line x1="728" y1="19.042390857144483" x2="728" y2="58.72077257143121" stroke="#26a69a" stroke-width="2"/><rect x="724" y="21.30972799999904" width="8" height="20.40602400000239" fill="#26a69a"/><line x1="740" y1="15.641387428571988" x2="740" y2="91.5971451428569" stroke="#ef5350" stroke-width="2"/><rect x="736" y="21.30972799999904" width="8" height="63.48540914285502" fill="#ef5350"/><line x1="752" y1="84.79513714285406" x2="752" y2="135.81019771428532" stroke="#ef5350" stroke-width="2"/><rect x="748" y="87.06247314285713" width="8" height="46.480388571431604" fill="#ef5350"/><line x1="764" y1="133.54286171428873" x2="764" y2="245.77599542857183" stroke="#ef5350" stroke-width="2"/><rect x="760" y="133.54286171428873" width="8" height="55.549732571424556" fill="#ef5350"/><line x1="776" y1="147.26024457142682" x2="776" y2="203.83027885714" stroke="#26a69a" stroke-width="2"/><rect x="772" y="151.68154971428783" width="8" height="36.27737714285627" fill="#26a69a"/><line x1="788" y1="133.54286171428873" x2="788" y2="200.4292754285741" stroke="#26a69a" stroke-width="2"/><rect x="784" y="143.74587428571556" width="8" height="9.069343999999546" fill="#26a69a"/><line x1="800" y1="136.94386514285463" x2="800" y2="197.02827085714364" stroke="#ef5350" stroke-width="2"/><rect x="796" y="143.74587428571556" width="8" height="41.94571657142535" fill="#ef5350"/><line x1="812" y1="140.3448697142851" x2="812" y2="195.89460228571625" stroke="#26a69a" stroke-width="2"/><rect x="808" y="149.41421371428464" width="8" height="38.54471314285945" fill="#26a69a"/><line x1="824" y1="143.74587428571556" x2="824" y2="180.02325028571374" stroke="#ef5350" stroke-width="2"/><rect x="820" y="148.28054628571533" width="8" height="13.60401599999932" fill="#ef5350"/><line x1="836" y1="143.74587428571556" x2="836" y2="232.1719794285725" stroke="#ef5350" stroke-width="2"/><rect x="832" y="160.75089371428737" width="8" height="68.02008228571265" fill="#ef5350"/><line x1="848" y1="199.29560685714023" x2="848" y2="272.98402857142844" stroke="#26a69a" stroke-width="2"/><rect x="844" y="203.26344457142636" width="8" height="23.240195428570587" fill="#26a69a"/><line x1="860" y1="157.34989028571488" x2="860" y2="229.90464342856933" stroke="#26a69a" stroke-width="2"/><rect x="856" y="158.4835577142842" width="8" height="48.747725714286275" fill="#26a69a"/><line x1="872" y1="150.54788228571203" x2="872" y2="237.84031999999956" stroke="#ef5350" stroke-width="2"/><rect x="868" y="166.41923428571442" width="8" height="12.470348571430122" fill="#ef5350"/><line x1="884" y1="184.55792228571352" x2="884" y2="238.97398742856888" stroke="#ef5350" stroke-width="2"/><rect x="880" y="184.55792228571352" width="8" height="40.81204914285604" fill="#ef5350"/><line x1="896" y1="211.76595542857024" x2="896" y2="293.3900525714307" stroke="#ef5350" stroke-width="2"/><rect x="892" y="223.10263542857297" width="8" height="60.08440457142433" fill="#ef5350"/><line x1="908" y1="236.7066514285723" x2="908" y2="318.33074971428425" stroke="#ef5350" stroke-width="2"/><rect x="904" y="287.72171314285515" width="8" height="15.871352000002503" fill="#ef5350"/><line x1="920" y1="241.24132342857206" x2="920" y2="365.94480571428517" stroke="#26a69a" stroke-width="2"/><rect x="916" y="249.1770000000023" width="8" height="53.28239657142797" fill="#26a69a"/><line x1="932" y1="248.04333142856842" x2="932" y2="321.73175314285675" stroke="#ef5350" stroke-width="2"/><rect x="928" y="248.04333142856842" width="8" height="23.80702857143274" fill="#ef5350"/><line x1="944" y1="259.3800125714291" x2="944" y2="339.87044114285584" stroke="#26a69a" stroke-width="2"/><rect x="940" y="267.3156880000014" width="8" height="11.336679999996136" fill="#26a69a"/><line x1="956" y1="224.23630285714228" x2="956" y2="274.6845302857115" stroke="#26a69a" stroke-width="2"/><rect x="952" y="227.63730742857274" width="8" height="39.67838057142865" fill="#26a69a"/><line x1="968" y1="192.49359885714387" x2="968" y2="280.9197040000007" stroke="#ef5350" stroke-width="2"/><rect x="964" y="225.36997142856956" width="8" height="45.34672114285581" fill="#ef5350"/><line x1="980" y1="190.22626285714068" x2="980" y2="284.32070857143117" stroke="#26a69a" stroke-width="2"/><rect x="976" y="209.49861942857365" width="8" height="62.35174057142751" fill="#26a69a"/><line x1="992" y1="210.63228685714296" x2="992" y2="385.21716228571154" stroke="#ef5350" stroke-width="2"/><rect x="988" y="210.63228685714296" width="8" height="99.76278628571106" fill="#ef5350"/><line x1="1004" y1="278.6523679999975" x2="1004" y2="372.746813714288" stroke="#ef5350" stroke-width="2"/><rect x="1000" y="310.395073142854" width="8" height="22.673360000005346" fill="#ef5350"/><line x1="1016" y1="329.667429714287" x2="1016" y2="445.30156800000054" stroke="#26a69a" stroke-width="2"/><rect x="1012" y="378.4151542857152" width="8" height="52.148729142858656" fill="#26a69a"/><line x1="1028" y1="308.1277371428574" x2="1028" y2="394.2865062857111" stroke="#ef5350" stroke-width="2"/><rect x="1024" y="377.28148685714586" width="8" height="5.668339428569084" fill="#ef5350"/><line x1="1040" y1="356.8754617142856" x2="1040" y2="441.9005634285701" stroke="#ef5350" stroke-width="2"/><rect x="1036" y="387.4844982857147" width="8" height="17.00502057142978" fill="#ef5350"/><line x1="1052" y1="356.8754617142856" x2="1052" y2="446.43523542856985" stroke="#ef5350" stroke-width="2"/><rect x="1048" y="406.7568548571411" width="8" height="35.14370857142899" fill="#ef5350"/><line x1="1064" y1="333.06843314285936" x2="1064" y2="457.77191542857247" stroke="#ef5350" stroke-width="2"/><rect x="1060" y="437.3658914285703" width="8" height="6.802008000002843" fill="#ef5350"/><line x1="1076" y1="421.4945394285743" x2="1076" y2="556.4010342857143" stroke="#ef5350" stroke-width="2"/><rect x="1072" y="431.69755085714314" width="8" height="97.49545028571447" fill="#ef5350"/><line x1="1088" y1="470.24226400000254" x2="1088" y2="575.6733897142826" stroke="#26a69a" stroke-width="2"/><rect x="1084" y="483.84628000000185" width="8" height="45.346721142855756" fill="#26a69a"/><line x1="1100" y1="463.4402559999996" x2="1100" y2="524.6583291428578" stroke="#ef5350" stroke-width="2"/><rect x="1096" y="488.3809520000016" width="8" height="19.272356571426428" fill="#ef5350"/><line x1="1112" y1="489.51462057142896" x2="1112" y2="606.2824262857118" stroke="#ef5350" stroke-width="2"/><rect x="1108" y="508.7869771428554" width="8" height="52.14872914285871" fill="#ef5350"/><line x1="1124" y1="498.5839645714285" x2="1124" y2="594.9457462857156" stroke="#26a69a" stroke-width="2"/><rect x="1120" y="554.1336982857111" width="8" height="9.069344000006026" fill="#26a69a"/><line x1="1136" y1="509.9206445714312" x2="1136" y2="597.2130822857123" stroke="#26a69a" stroke-width="2"/><rect x="1132" y="509.9206445714312" width="8" height="48.74772571428622" fill="#26a69a"/><line x1="1148" y1="477.0442719999989" x2="1148" y2="542.7970171428569" stroke="#ef5350" stroke-width="2"/><rect x="1144" y="515.5889851428583" width="8" height="14.170850285712959" fill="#ef5350"/><line x1="1160" y1="526.9256651428545" x2="1160" y2="621.020110857145" stroke="#ef5350" stroke-width="2"/><rect x="1156" y="529.1930011428576" width="8" height="15.871352000002389" fill="#ef5350"/><line x1="1172" y1="484.9799485714292" x2="1172" y2="602.8814228571459" stroke="#26a69a" stroke-width="2"/><rect x="1168" y="507.65330857142806" width="8" height="47.61405714285888" fill="#26a69a"/><line x1="1184" y1="508.7869771428554" x2="1184" y2="588.1437382857127" stroke="#ef5350" stroke-width="2"/><rect x="1180" y="508.7869771428554" width="8" height="40.81204800000438" fill="#ef5350"/><line x1="1196" y1="548.465357714284" x2="1196" y2="624.421115428569" stroke="#ef5350" stroke-width="2"/><rect x="1192" y="550.7326937142872" width="8" height="60.084405714282525" fill="#ef5350"/><line x1="1208" y1="581.3417302857163" x2="1208" y2="708.3125485714261" stroke="#ef5350" stroke-width="2"/><rect x="1204" y="613.0844354285728" width="8" height="81.624097142854" fill="#ef5350"/><line x1="1220" y1="662.9658274285703" x2="1220" y2="713.9808891428597" stroke="#26a69a" stroke-width="2"/><rect x="1216" y="690.173860571427" width="8" height="2" fill="#26a69a"/><line x1="1232" y1="691.3075280000028" x2="1232" y2="744.5899257142887" stroke="#ef5350" stroke-width="2"/><rect x="1228" y="692.44119657143" width="8" height="40.81204914285604" fill="#ef5350"/><line x1="1244" y1="713.9808891428597" x2="1244" y2="753.6592697142884" stroke="#ef5350" stroke-width="2"/><rect x="1240" y="729.8522411428556" width="8" height="13.60401599999932" fill="#ef5350"/><line x1="1256" y1="726.4512377142833" x2="1256" y2="839.818038857142" stroke="#ef5350" stroke-width="2"/><rect x="1252" y="743.456257142855" width="8" height="78.22309371428798" fill="#ef5350"/><line x1="1268" y1="803.5406628571438" x2="1268" y2="911.2391245714272" stroke="#26a69a" stroke-width="2"/><rect x="1264" y="813.7436742857127" width="8" height="4.534673142857855" fill="#26a69a"/><line x1="1280" y1="747.9909291428547" x2="1280" y2="813.7436742857127" stroke="#26a69a" stroke-width="2"/><rect x="1276" y="767.2632857142877" width="8" height="46.48038857142501" fill="#26a69a"/><line x1="1292" y1="736.6542491428586" x2="1292" y2="784.2683062857175" stroke="#ef5350" stroke-width="2"/><rect x="1288" y="767.2632857142877" width="8" height="15.871351999995909" fill="#ef5350"/><line x1="1304" y1="664.0994959999975" x2="1304" y2="799.0059908571441" stroke="#26a69a" stroke-width="2"/><rect x="1300" y="677.7035119999969" width="8" height="107.69846285714789" fill="#26a69a"/><line x1="1316" y1="647.0944754285742" x2="1316" y2="719.6492285714287" stroke="#26a69a" stroke-width="2"/><rect x="1312" y="664.0994959999975" width="8" height="13.60401599999932" fill="#26a69a"/><line x1="1328" y1="576.8070582857165" x2="1328" y2="693.5748639999994" stroke="#26a69a" stroke-width="2"/><rect x="1324" y="601.7477542857121" width="8" height="60.08440571428889" fill="#26a69a"/><line x1="1340" y1="574.5397222857134" x2="1340" y2="640.2924674285714" stroke="#ef5350" stroke-width="2"/><rect x="1336" y="596.079414857143" width="8" height="2.2673360000031835" fill="#ef5350"/><line x1="1352" y1="589.27740685714" x2="1352" y2="665.2331634285733" stroke="#ef5350" stroke-width="2"/><rect x="1348" y="604.0150902857151" width="8" height="40.81204914285604" fill="#ef5350"/><line x1="1364" y1="566.6040457142831" x2="1364" y2="641.4261359999987" stroke="#26a69a" stroke-width="2"/><rect x="1360" y="602.3145885714257" width="8" height="39.111547428572976" fill="#26a69a"/><line x1="1376" y1="553.0000297142838" x2="1376" y2="617.6191074285725" stroke="#26a69a" stroke-width="2"/><rect x="1372" y="564.3367097142865" width="8" height="35.143708571428874" fill="#26a69a"/><line x1="1388" y1="521.2573257142853" x2="1388" y2="584.7427348571402" stroke="#26a69a" stroke-width="2"/><rect x="1384" y="539.3960137142844" width="8" height="23.80702857143274" fill="#26a69a"/><line x1="1400" y1="531.4603371428543" x2="1400" y2="574.5397222857134" stroke="#ef5350" stroke-width="2"/><rect x="1396" y="541.6633497142876" width="8" height="17.00502057142978" fill="#ef5350"/><line x1="1412" y1="539.9628479999982" x2="1412" y2="584.7427348571402" stroke="#26a69a" stroke-width="2"/><rect x="1408" y="546.3113885714263" width="8" height="13.490649142860434" fill="#26a69a"/><line x1="1424" y1="492.9156251428594" x2="1424" y2="563.2030422857172" stroke="#26a69a" stroke-width="2"/><rect x="1420" y="499.71763314285585" width="8" height="40.81204800000438" fill="#26a69a"/><line x1="1436" y1="477.0442719999989" x2="1436" y2="508.7869771428554" stroke="#26a69a" stroke-width="2"/><rect x="1432" y="483.84628000000185" width="8" height="9.069345142857571" fill="#26a69a"/><line x1="1448" y1="474.7769360000023" x2="1448" y2="523.5246617142885" stroke="#ef5350" stroke-width="2"/><rect x="1444" y="489.51462057142896" width="8" height="21.539692571429555" fill="#ef5350"/><line x1="1460" y1="464.57392457142697" x2="1460" y2="518.9899885714308" stroke="#26a69a" stroke-width="2"/><rect x="1456" y="481.57894399999867" width="8" height="23.80702857143274" fill="#26a69a"/><line x1="1472" y1="467.97492799999935" x2="1472" y2="490.6482879999982" stroke="#ef5350" stroke-width="2"/><rect x="1468" y="475.91060457142964" width="8" height="12.470347428571984" fill="#ef5350"/><line x1="1484" y1="456.6382480000032" x2="1484" y2="494.04929257142874" stroke="#26a69a" stroke-width="2"/><rect x="1480" y="456.6382480000032" width="8" height="29.47536799999523" fill="#26a69a"/><line x1="1496" y1="432.83121942857053" x2="1496" y2="470.24226400000254" stroke="#ef5350" stroke-width="2"/><rect x="1492" y="455.50457942856934" width="8" height="13.604017142857401" fill="#ef5350"/><line x1="1508" y1="452.1035759999969" x2="1508" y2="483.84628000000185" stroke="#ef5350" stroke-width="2"/><rect x="1504" y="472.5095999999991" width="8" height="3.4010045714305193" fill="#ef5350"/><line x1="1520" y1="446.43523542856985" x2="1520" y2="534.8613417142847" stroke="#ef5350" stroke-width="2"/><rect x="1516" y="478.1779405714263" width="8" height="34.01004000000154" fill="#ef5350"/><line x1="1532" y1="466.8412605714301" x2="1532" y2="530.3266697142849" stroke="#ef5350" stroke-width="2"/><rect x="1528" y="515.5889851428583" width="8" height="2.2673359999967033" fill="#ef5350"/><line x1="1544" y1="472.5095999999991" x2="1544" y2="532.5940057142881" stroke="#26a69a" stroke-width="2"/><rect x="1540" y="483.84628000000185" width="8" height="34.01004114285314" fill="#26a69a"/><line x1="1556" y1="468.99522971428786" x2="1556" y2="495.1829611428561" stroke="#ef5350" stroke-width="2"/><rect x="1552" y="480.4452765714294" width="8" height="2" fill="#ef5350"/><line x1="1568" y1="475.91060457142964" x2="1568" y2="545.06435314286" stroke="#ef5350" stroke-width="2"/><rect x="1564" y="482.71261257142606" width="8" height="60.084404571430866" fill="#ef5350"/><line x1="1580" y1="492.9156251428594" x2="1580" y2="554.1336982857111" stroke="#26a69a" stroke-width="2"/><rect x="1576" y="521.2573257142853" width="8" height="6.802008000002957" fill="#26a69a"/><line x1="1592" y1="457.77191542857247" x2="1592" y2="518.9899885714308" stroke="#26a69a" stroke-width="2"/><rect x="1588" y="469.10859657142674" width="8" height="49.88139200000404" fill="#26a69a"/><line x1="1604" y1="447.56890399999713" x2="1604" y2="489.51462057142896" stroke="#ef5350" stroke-width="2"/><rect x="1600" y="470.24226400000254" width="8" height="2.2673359999965896" fill="#ef5350"/><line x1="1616" y1="462.3065885714303" x2="1616" y2="514.455316571431" stroke="#ef5350" stroke-width="2"/><rect x="1612" y="475.91060457142964" width="8" height="36.277375999998185" fill="#ef5350"/><line x1="1628" y1="492.9156251428594" x2="1628" y2="530.3266697142849" stroke="#26a69a" stroke-width="2"/><rect x="1624" y="508.7869771428554" width="8" height="2.2673360000031266" fill="#26a69a"/><line x1="1640" y1="501.984969142859" x2="1640" y2="538.2623451428572" stroke="#ef5350" stroke-width="2"/><rect x="1636" y="507.65330857142806" width="8" height="24.940697142860017" fill="#ef5350"/><line x1="1652" y1="518.9899885714308" x2="1652" y2="558.6683702857174" stroke="#ef5350" stroke-width="2"/><rect x="1648" y="534.8613417142847" width="8" height="7.935675428572267" fill="#ef5350"/><line x1="1664" y1="532.5940057142881" x2="1664" y2="649.361811428571" stroke="#ef5350" stroke-width="2"/><rect x="1660" y="541.6633497142876" width="8" height="83.89143314285718" fill="#ef5350"/><line x1="1676" y1="602.8814228571459" x2="1676" y2="672.0351725714279" stroke="#ef5350" stroke-width="2"/><rect x="1672" y="627.8221188571414" width="8" height="23.807028571432625" fill="#ef5350"/><line x1="1688" y1="601.7477542857121" x2="1688" y2="696.9758685714298" stroke="#26a69a" stroke-width="2"/><rect x="1684" y="631.2231234285719" width="8" height="28.341700571425918" fill="#26a69a"/><line x1="1700" y1="608.5497622857149" x2="1700" y2="638.0251314285683" stroke="#26a69a" stroke-width="2"/><rect x="1696" y="630.0894548571446" width="8" height="2" fill="#26a69a"/><line x1="1712" y1="618.7527748571418" x2="1712" y2="670.9015040000005" stroke="#ef5350" stroke-width="2"/><rect x="1708" y="634.6241268571443" width="8" height="15.871353142853877" fill="#ef5350"/><line x1="1724" y1="634.6241268571443" x2="1724" y2="667.5005005714281" stroke="#ef5350" stroke-width="2"/><rect x="1720" y="651.629147428574" width="8" height="2" fill="#ef5350"/><line x1="1736" y1="647.0944754285742" x2="1736" y2="694.7085325714268" stroke="#ef5350" stroke-width="2"/><rect x="1732" y="652.7628160000014" width="8" height="38.54471200000137" fill="#ef5350"/><line x1="1748" y1="649.361811428571" x2="1748" y2="703.7778765714263" stroke="#26a69a" stroke-width="2"/><rect x="1744" y="661.832160000001" width="8" height="31.74270399999841" fill="#26a69a"/><line x1="1760" y1="638.0251314285683" x2="1760" y2="683.3718525714305" stroke="#ef5350" stroke-width="2"/><rect x="1756" y="662.9658274285703" width="8" height="4.534673142857855" fill="#ef5350"/><line x1="1772" y1="625.5547828571448" x2="1772" y2="674.302508571431" stroke="#26a69a" stroke-width="2"/><rect x="1768" y="642.5598034285745" width="8" height="23.807028571426258" fill="#26a69a"/><line x1="1784" y1="566.6040457142831" x2="1784" y2="645.9608079999985" stroke="#26a69a" stroke-width="2"/><rect x="1780" y="574.5397222857134" width="8" height="66.88641371428525" fill="#26a69a"/><line x1="1796" y1="518.9899885714308" x2="1796" y2="584.7427348571402" stroke="#26a69a" stroke-width="2"/><rect x="1792" y="534.8613417142847" width="8" height="39.67838057142876" fill="#26a69a"/><line x1="1808" y1="507.65330857142806" x2="1808" y2="554.1336982857111" stroke="#26a69a" stroke-width="2"/><rect x="1804" y="511.0543131428585" width="8" height="24.94069599999557" fill="#26a69a"/><line x1="1820" y1="509.9206445714312" x2="1820" y2="576.8070582857165" stroke="#ef5350" stroke-width="2"/><rect x="1816" y="509.9206445714312" width="8" height="26.074364571422905" fill="#ef5350"/><line x1="1832" y1="499.71763314285585" x2="1832" y2="539.3960137142844" stroke="#26a69a" stroke-width="2"/><rect x="1828" y="504.2523051428556" width="8" height="35.14370857142882" fill="#26a69a"/><line x1="1844" y1="457.77191542857247" x2="1844" y2="521.2573257142853" stroke="#26a69a" stroke-width="2"/><rect x="1840" y="486.11361599999844" width="8" height="20.4060251428603" fill="#26a69a"/><line x1="1856" y1="385.21716228571154" x2="1856" y2="494.04929257142874" stroke="#26a69a" stroke-width="2"/><rect x="1852" y="463.4402559999996" width="8" height="21.53969257142961" fill="#26a69a"/><line x1="1868" y1="411.29152685714087" x2="1868" y2="472.5095999999991" stroke="#26a69a" stroke-width="2"/><rect x="1864" y="422.6282068571436" width="8" height="41.945717714283376" fill="#26a69a"/><line x1="1880" y1="397.68751085714155" x2="1880" y2="456.6382480000032" stroke="#26a69a" stroke-width="2"/><rect x="1876" y="402.2221828571413" width="8" height="22.673359999998866" fill="#26a69a"/><line x1="1892" y1="302.45939657143026" x2="1892" y2="416.9598674285745" stroke="#26a69a" stroke-width="2"/><rect x="1888" y="334.20210171428675" width="8" height="68.02008114285456" fill="#26a69a"/><line x1="1904" y1="316.06341371428766" x2="1904" y2="358.0091302857129" stroke="#26a69a" stroke-width="2"/><rect x="1900" y="337.60310514285914" width="8" height="2" fill="#26a69a"/><line x1="1916" y1="326.2664251428565" x2="1916" y2="413.55886285714405" stroke="#ef5350" stroke-width="2"/><rect x="1912" y="338.7367737142865" width="8" height="71.42108571428514" fill="#ef5350"/><line x1="1928" y1="384.0834948571422" x2="1928" y2="470.24226400000254" stroke="#26a69a" stroke-width="2"/><rect x="1924" y="405.6231874285719" width="8" height="3.4010034285723805" fill="#26a69a"/><line x1="1940" y1="390.8855028571452" x2="1940" y2="472.5095999999991" stroke="#ef5350" stroke-width="2"/><rect x="1936" y="405.6231874285719" width="8" height="39.67838057142865" fill="#ef5350"/><rect x="75" y="928.3685062064576" width="10" height="91.6314937935424" fill="#ef5350" opacity="0.9"/><rect x="87" y="959.166062524313" width="10" height="60.83393747568698" fill="#26a69a" opacity="0.9"/><rect x="99" y="958.3975492449694" width="10" height="61.602450755030645" fill="#ef5350" opacity="0.9"/><rect x="111" y="975.5926194433639" width="10" height="44.4073805566361" fill="#ef5350" opacity="0.9"/><rect x="123" y="973.0016223432472" width="10" height="46.99837765675284" fill="#ef5350" opacity="0.9"/><rect x="135" y="988.2147372422817" width="10" height="31.78526275771833" fill="#26a69a" opacity="0.9"/><rect x="147" y="986.6707483113485" width="10" height="33.32925168865154" fill="#26a69a" opacity="0.9"/><rect x="159" y="993.2661040775188" width="10" height="26.733895922481224" fill="#ef5350" opacity="0.9"/><rect x="171" y="993.7179951904375" width="10" height="26.282004809562522" fill="#26a69a" opacity="0.9"/><rect x="183" y="982.7605474413834" width="10" height="37.23945255861656" fill="#26a69a" opacity="0.9"/><rect x="195" y="986.9658202779644" width="10" height="33.03417972203556" fill="#26a69a" opacity="0.9"/><rect x="207" y="961.2962168900519" width="10" height="58.70378310994806" fill="#26a69a" opacity="0.9"/><rect x="219" y="961.2229462107013" width="10" height="58.77705378929875" fill="#26a69a" opacity="0.9"/><rect x="231" y="977.9986163666584" width="10" height="42.00138363334156" fill="#ef5350" opacity="0.9"/><rect x="243" y="979.2183576758496" width="10" height="40.781642324150425" fill="#ef5350" opacity="0.9"/><rect x="255" y="965.6029414365032" width="10" height="54.397058563496785" fill="#ef5350" opacity="0.9"/><rect x="267" y="983.7226809774728" width="10" height="36.277319022527195" fill="#ef5350" opacity="0.9"/><rect x="279" y="981.3209940941401" width="10" height="38.67900590585987" fill="#ef5350" opacity="0.9"/><rect x="291" y="982.584167344485" width="10" height="37.41583265551503" fill="#26a69a" opacity="0.9"/><rect x="303" y="975.9546628001556" width="10" height="44.045337199844425" fill="#ef5350" opacity="0.9"/><rect x="315" y="988.9195945468048" width="10" height="31.080405453195226" fill="#26a69a" opacity="0.9"/><rect x="327" y="986.5716173922269" width="10" height="33.428382607773074" fill="#26a69a" opacity="0.9"/><rect x="339" y="994.8110876330587" width="10" height="25.18891236694128" fill="#26a69a" opacity="0.9"/><rect x="351" y="991.0016753898929" width="10" height="28.998324610107147" fill="#ef5350" opacity="0.9"/><rect x="363" y="997.8446926830993" width="10" height="22.15530731690069" fill="#ef5350" opacity="0.9"/><rect x="375" y="991.7052065282738" width="10" height="28.294793471726166" fill="#26a69a" opacity="0.9"/><rect x="387" y="988.641762740036" width="10" height="31.35823725996397" fill="#ef5350" opacity="0.9"/><rect x="399" y="994.2027089153729" width="10" height="25.79729108462709" fill="#26a69a" opacity="0.9"/><rect x="411" y="981.0375260812675" width="10" height="38.962473918732485" fill="#ef5350" opacity="0.9"/><rect x="423" y="987.6627205856349" width="10" height="32.33727941436507" fill="#ef5350" opacity="0.9"/><rect x="435" y="989.9367639777911" width="10" height="30.063236022208912" fill="#26a69a" opacity="0.9"/><rect x="447" y="999.7145869434523" width="10" height="20.285413056547668" fill="#26a69a" opacity="0.9"/><rect x="459" y="995.8723520882696" width="10" height="24.127647911730378" fill="#ef5350" opacity="0.9"/><rect x="471" y="998.2219869505252" width="10" height="21.778013049474794" fill="#26a69a" opacity="0.9"/><rect x="483" y="996.4203902464901" width="10" height="23.579609753509885" fill="#26a69a" opacity="0.9"/><rect x="495" y="985.9231221487428" width="10" height="34.07687785125722" fill="#26a69a" opacity="0.9"/><rect x="507" y="994.2915620468932" width="10" height="25.708437953106795" fill="#26a69a" opacity="0.9"/><rect x="519" y="993.9318394808502" width="10" height="26.068160519149842" fill="#26a69a" opacity="0.9"/><rect x="531" y="995.3448695052516" width="10" height="24.65513049474839" fill="#ef5350" opacity="0.9"/><rect x="543" y="998.8615305725501" width="10" height="21.138469427449877" fill="#26a69a" opacity="0.9"/><rect x="555" y="995.8746728790182" width="10" height="24.12532712098175" fill="#26a69a" opacity="0.9"/><rect x="567" y="990.5365226155533" width="10" height="29.46347738444672" fill="#ef5350" opacity="0.9"/><rect x="579" y="997.2008390211125" width="10" height="22.79916097888747" fill="#26a69a" opacity="0.9"/><rect x="591" y="997.7117445273544" width="10" height="22.288255472645574" fill="#ef5350" opacity="0.9"/><rect x="603" y="998.8234032959649" width="10" height="21.17659670403509" fill="#26a69a" opacity="0.9"/><rect x="615" y="994.238183859674" width="10" height="25.761816140326005" fill="#26a69a" opacity="0.9"/><rect x="627" y="999.0266382572408" width="10" height="20.973361742759153" fill="#ef5350" opacity="0.9"/><rect x="639" y="1003.8160872794143" width="10" height="16.18391272058568" fill="#26a69a" opacity="0.9"/><rect x="651" y="1001.806614032606" width="10" height="18.193385967393965" fill="#26a69a" opacity="0.9"/><rect x="663" y="995.8130061534109" width="10" height="24.186993846589075" fill="#26a69a" opacity="0.9"/><rect x="675" y="992.0798484634155" width="10" height="27.920151536584513" fill="#26a69a" opacity="0.9"/><rect x="687" y="988.9965121830463" width="10" height="31.00348781695368" fill="#26a69a" opacity="0.9"/><rect x="699" y="998.4543975669271" width="10" height="21.545602433072872" fill="#26a69a" opacity="0.9"/><rect x="711" y="999.4778662870884" width="10" height="20.522133712911568" fill="#ef5350" opacity="0.9"/><rect x="723" y="997.938850479188" width="10" height="22.061149520812023" fill="#26a69a" opacity="0.9"/><rect x="735" y="1000.6432347844539" width="10" height="19.356765215546147" fill="#ef5350" opacity="0.9"/><rect x="747" y="989.9937891219012" width="10" height="30.00621087809884" fill="#ef5350" opacity="0.9"/><rect x="759" y="958.6783649255578" width="10" height="61.321635074442156" fill="#ef5350" opacity="0.9"/><rect x="771" y="995.5176026452594" width="10" height="24.482397354740556" fill="#26a69a" opacity="0.9"/><rect x="783" y="986.1309986915161" width="10" height="33.86900130848392" fill="#26a69a" opacity="0.9"/><rect x="795" y="995.2782296566114" width="10" height="24.721770343388584" fill="#ef5350" opacity="0.9"/><rect x="807" y="998.0071480355059" width="10" height="21.992851964494093" fill="#26a69a" opacity="0.9"/><rect x="819" y="999.8041031580436" width="10" height="20.19589684195637" fill="#ef5350" opacity="0.9"/><rect x="831" y="992.4087376666549" width="10" height="27.59126233334507" fill="#ef5350" opacity="0.9"/><rect x="843" y="988.8934027654984" width="10" height="31.106597234501578" fill="#26a69a" opacity="0.9"/><rect x="855" y="996.4823885136329" width="10" height="23.51761148636706" fill="#26a69a" opacity="0.9"/><rect x="867" y="982.8537106128656" width="10" height="37.1462893871344" fill="#ef5350" opacity="0.9"/><rect x="879" y="994.3989815044029" width="10" height="25.601018495597145" fill="#ef5350" opacity="0.9"/><rect x="891" y="997.6915204936874" width="10" height="22.30847950631255" fill="#ef5350" opacity="0.9"/><rect x="903" y="984.0054859072744" width="10" height="35.99451409272558" fill="#ef5350" opacity="0.9"/><rect x="915" y="968.9508478622201" width="10" height="51.049152137779856" fill="#26a69a" opacity="0.9"/><rect x="927" y="996.7121467977508" width="10" height="23.287853202249153" fill="#ef5350" opacity="0.9"/><rect x="939" y="985.2626914099799" width="10" height="34.73730859002012" fill="#26a69a" opacity="0.9"/><rect x="951" y="975.8140891890936" width="10" height="44.18591081090642" fill="#26a69a" opacity="0.9"/><rect x="963" y="958.4684991335714" width="10" height="61.53150086642859" fill="#ef5350" opacity="0.9"/><rect x="975" y="989.9914683311525" width="10" height="30.008531668847468" fill="#26a69a" opacity="0.9"/><rect x="987" y="933.4825343919086" width="10" height="86.51746560809136" fill="#ef5350" opacity="0.9"/><rect x="999" y="860.0" width="10" height="160.0" fill="#ef5350" opacity="0.9"/><rect x="1011" y="969.6988055663613" width="10" height="50.30119443363867" fill="#26a69a" opacity="0.9"/><rect x="1023" y="983.471372493546" width="10" height="36.52862750645397" fill="#ef5350" opacity="0.9"/><rect x="1035" y="983.5227614315521" width="10" height="36.47723856844789" fill="#ef5350" opacity="0.9"/><rect x="1047" y="993.9083000318279" width="10" height="26.091699968172065" fill="#ef5350" opacity="0.9"/><rect x="1059" y="998.4471036531456" width="10" height="21.552896346854368" fill="#ef5350" opacity="0.9"/><rect x="1071" y="990.8597756126887" width="10" height="29.140224387311264" fill="#ef5350" opacity="0.9"/><rect x="1083" y="989.8310022279591" width="10" height="30.16899777204094" fill="#26a69a" opacity="0.9"/><rect x="1095" y="994.0041155355943" width="10" height="25.995884464405663" fill="#ef5350" opacity="0.9"/><rect x="1107" y="988.3626047671253" width="10" height="31.637395232874724" fill="#ef5350" opacity="0.9"/><rect x="1119" y="992.0742122573116" width="10" height="27.925787742688385" fill="#26a69a" opacity="0.9"/><rect x="1131" y="992.6726447289317" width="10" height="27.327355271068313" fill="#26a69a" opacity="0.9"/><rect x="1143" y="995.5325220143579" width="10" height="24.467477985642063" fill="#ef5350" opacity="0.9"/><rect x="1155" y="994.9304425858471" width="10" height="25.069557414152882" fill="#ef5350" opacity="0.9"/><rect x="1167" y="994.6008902995367" width="10" height="25.399109700463327" fill="#26a69a" opacity="0.9"/><rect x="1179" y="1001.0261652579835" width="10" height="18.973834742016493" fill="#ef5350" opacity="0.9"/><rect x="1191" y="996.0798970895074" width="10" height="23.920102910492574" fill="#ef5350" opacity="0.9"/><rect x="1203" y="989.6920863245748" width="10" height="30.307913675425198" fill="#ef5350" opacity="0.9"/><rect x="1215" y="997.2432763376596" width="10" height="22.75672366234039" fill="#26a69a" opacity="0.9"/><rect x="1227" y="991.0729568200304" width="10" height="28.927043179969587" fill="#ef5350" opacity="0.9"/><rect x="1239" y="999.1121759734059" width="10" height="20.887824026594103" fill="#ef5350" opacity="0.9"/><rect x="1251" y="990.4400440287159" width="10" height="29.559955971284126" fill="#ef5350" opacity="0.9"/><rect x="1263" y="979.4514313753227" width="10" height="40.54856862467727" fill="#26a69a" opacity="0.9"/><rect x="1275" y="985.3604961629593" width="10" height="34.63950383704071" fill="#26a69a" opacity="0.9"/><rect x="1287" y="1002.5333530784736" width="10" height="17.466646921526376" fill="#ef5350" opacity="0.9"/><rect x="1299" y="994.0114094493758" width="10" height="25.988590550624167" fill="#26a69a" opacity="0.9"/><rect x="1311" y="993.6513553417972" width="10" height="26.34864465820283" fill="#26a69a" opacity="0.9"/><rect x="1323" y="992.8453778689394" width="10" height="27.15462213106059" fill="#26a69a" opacity="0.9"/><rect x="1335" y="999.4321135551862" width="10" height="20.56788644481378" fill="#ef5350" opacity="0.9"/><rect x="1347" y="994.4251732857092" width="10" height="25.574826714290793" fill="#ef5350" opacity="0.9"/><rect x="1359" y="1000.1641572656223" width="10" height="19.835842734377707" fill="#26a69a" opacity="0.9"/><rect x="1371" y="994.5349135339675" width="10" height="25.465086466032517" fill="#26a69a" opacity="0.9"/><rect x="1383" y="997.2717889097146" width="10" height="22.728211090285413" fill="#26a69a" opacity="0.9"/><rect x="1395" y="1000.3203133288538" width="10" height="19.679686671146214" fill="#ef5350" opacity="0.9"/><rect x="1407" y="1002.0754942179157" width="10" height="17.92450578208434" fill="#26a69a" opacity="0.9"/><rect x="1419" y="1001.1279485093893" width="10" height="18.872051490610716" fill="#26a69a" opacity="0.9"/><rect x="1431" y="1000.8587367825442" width="10" height="19.141263217455844" fill="#26a69a" opacity="0.9"/><rect x="1443" y="992.9070445945468" width="10" height="27.092955405453154" fill="#ef5350" opacity="0.9"/><rect x="1455" y="1003.9334529829897" width="10" height="16.066547017010294" fill="#26a69a" opacity="0.9"/><rect x="1467" y="1003.4997966545249" width="10" height="16.500203345475143" fill="#ef5350" opacity="0.9"/><rect x="1479" y="1004.9204521342434" width="10" height="15.079547865756581" fill="#26a69a" opacity="0.9"/><rect x="1491" y="1002.0151536584503" width="10" height="17.984846341549655" fill="#ef5350" opacity="0.9"/><rect x="1503" y="1002.8333981681225" width="10" height="17.16660183187753" fill="#ef5350" opacity="0.9"/><rect x="1515" y="1001.5751980408105" width="10" height="18.424801959189494" fill="#ef5350" opacity="0.9"/><rect x="1527" y="1001.4090957315133" width="10" height="18.590904268486725" fill="#ef5350" opacity="0.9"/><rect x="1539" y="1003.4623324610108" width="10" height="16.53766753898924" fill="#26a69a" opacity="0.9"/><rect x="1551" y="1004.3425752378258" width="10" height="15.657424762174173" fill="#ef5350" opacity="0.9"/><rect x="1563" y="1000.8836023977084" width="10" height="19.116397602291613" fill="#ef5350" opacity="0.9"/><rect x="1575" y="1002.0340515259752" width="10" height="17.9659484740248" fill="#26a69a" opacity="0.9"/><rect x="1587" y="1001.9014349117657" width="10" height="18.098565088234295" fill="#26a69a" opacity="0.9"/><rect x="1599" y="1002.3072417512466" width="10" height="17.69275824875342" fill="#ef5350" opacity="0.9"/><rect x="1611" y="999.6983414082116" width="10" height="20.301658591788396" fill="#ef5350" opacity="0.9"/><rect x="1623" y="1004.1817775930969" width="10" height="15.818222406903146" fill="#26a69a" opacity="0.9"/><rect x="1635" y="1005.5765728330446" width="10" height="14.423427166955435" fill="#ef5350" opacity="0.9"/><rect x="1647" y="1001.7359956855395" width="10" height="18.26400431446052" fill="#ef5350" opacity="0.9"/><rect x="1659" y="985.7454158857022" width="10" height="34.25458411429781" fill="#ef5350" opacity="0.9"/><rect x="1671" y="996.3951930897903" width="10" height="23.60480691020973" fill="#ef5350" opacity="0.9"/><rect x="1683" y="1001.138557838526" width="10" height="18.861442161473974" fill="#26a69a" opacity="0.9"/><rect x="1695" y="1001.2701798281289" width="10" height="18.729820171871097" fill="#26a69a" opacity="0.9"/><rect x="1707" y="1001.2353679668989" width="10" height="18.764632033101066" fill="#ef5350" opacity="0.9"/><rect x="1719" y="1005.9740911341373" width="10" height="14.025908865862675" fill="#ef5350" opacity="0.9"/><rect x="1731" y="1001.2327156346147" width="10" height="18.767284365385308" fill="#ef5350" opacity="0.9"/><rect x="1743" y="1003.0548679138523" width="10" height="16.945132086147737" fill="#26a69a" opacity="0.9"/><rect x="1755" y="1002.1252254482441" width="10" height="17.874774551755877" fill="#ef5350" opacity="0.9"/><rect x="1767" y="998.3678652261556" width="10" height="21.632134773844427" fill="#26a69a" opacity="0.9"/><rect x="1779" y="992.5009062135305" width="10" height="27.49909378646953" fill="#26a69a" opacity="0.9"/><rect x="1791" y="991.7115058174488" width="10" height="28.288494182551176" fill="#26a69a" opacity="0.9"/><rect x="1803" y="1000.4569084414895" width="10" height="19.54309155851047" fill="#26a69a" opacity="0.9"/><rect x="1815" y="993.0191056335537" width="10" height="26.98089436644625" fill="#ef5350" opacity="0.9"/><rect x="1827" y="981.5345068430173" width="10" height="38.46549315698269" fill="#26a69a" opacity="0.9"/><rect x="1839" y="983.3811931958836" width="10" height="36.61880680411639" fill="#26a69a" opacity="0.9"/><rect x="1851" y="983.8075556105669" width="10" height="36.19244438943315" fill="#26a69a" opacity="0.9"/><rect x="1863" y="986.5321639494996" width="10" height="33.46783605050041" fill="#26a69a" opacity="0.9"/><rect x="1875" y="990.3392554019167" width="10" height="29.660744598083284" fill="#26a69a" opacity="0.9"/><rect x="1887" y="983.6875375747073" width="10" height="36.312462425292665" fill="#26a69a" opacity="0.9"/><rect x="1899" y="992.6978418856314" width="10" height="27.30215811436858" fill="#26a69a" opacity="0.9"/><rect x="1911" y="990.0140131555681" width="10" height="29.985986844431864" fill="#ef5350" opacity="0.9"/><rect x="1923" y="959.7031598118613" width="10" height="60.29684018813873" fill="#26a69a" opacity="0.9"/><rect x="1935" y="894.2449252042296" width="10" height="125.75507479577038" fill="#ef5350" opacity="0.9"/><rect x="1004" y="333.06843314285936" width="12" height="97.49545028571447" fill="#ff0000" opacity="0.50"/><polyline points="320,365.8659891319595,332,352.59338445272465,344,336.4820387769539,356,323.0927591111205,368,312.8141114678848,380,301.35501502876264,392,292.28288167908306,404,280.6197728388985,416,279.67662233723524,428,280.65875822348323,440,272.58598146750046,452,263.8784516950831,464,260.7508193431711,476,252.41466914721968,488,244.54853292911923,500,233.43672228280798,512,222.7353690313846,524,212.18944523247956,536,203.94351570013373,548,195.40322898039574,560,186.27271389382906,572,181.68269673387192,584,176.6660770177233,596,173.42285117929998,608,170.92037751596888,620,164.76937285458132,632,163.19900841945127,644,159.4028980121558,656,154.88863811984368,668,148.4290033601285,680,140.857077706778,692,131.30707825171157,704,121.37098198284423,716,113.78476960352214,728,104.97762278413836,740,103.05548129449562,752,105.95904133447868,764,113.8765225679241,776,117.47700134377351,788,119.97879876681247,800,126.23715991827078,812,128.44449837503555,824,131.62926636652753,836,140.8808577601966,848,146.82205650411947,860,147.93267566699672,872,150.8809525422488,884,157.97514481713995,896,169.9000872155076,908,182.63275178001743,920,188.97029922954323,932,196.8636383505392,944,203.57335736477705,956,205.86516213275638,968,212.04149836500744,980,211.79931941868358,992,221.18939120193443,1004,231.844538053448,1016,245.80364436128548,1028,258.86518549694824,1040,272.73416962648946,1052,288.8452547504975,1064,303.6378875769775,1076,325.11932696420445,1088,340.23617963428353,1100,356.18066810449295,1112,375.68114793127404,1124,392.6766289174144,1136,403.842725646369,1148,415.8348313399074,1160,428.14240484494803,1172,435.71487186652246,1184,446.5609817023635,1196,462.2044214858111,1208,484.347670160631,1220,503.9501644854681,1232,525.7885531739248,1244,546.5188106947803,1256,572.7245764245318,1268,595.6787762208348,1280,612.0201580773547,1292,628.3167751856322,1304,633.0202739298588,1316,635.9801998413006,1328,632.7199669312449,1340,629.4463273051406,1352,630.9111665549867,1364,628.1876829375051,1376,622.1066378686244,1388,614.2294355682095,1400,608.9379055413051,1412,602.9734753537014,1424,593.1395856193311,1436,582.7306993698714,1448,575.9043768720599,1460,566.9210023128146,1472,559.4409975211161,1484,549.6502594714847,1496,541.979624909579,1508,535.6873372583258,1520,533.4493032881451,1532,531.9642573695417,1544,527.3815928581566,1556,523.0194358240494,1568,524.9030149972637,1580,524.5558064941243,1592,519.2751198348235,1604,514.8212608029357,1616,514.5704722094641,1628,514.0196631554968,1640,515.7886481610929,1652,518.3608737784002,1664,528.5698175001861,1676,540.2897536838411,1688,548.9500746119055,1700,556.6776346352656,1712,565.6126675271415,1724,573.9126816674147,1736,585.0931432228988,1748,592.4016210111923,1760,599.553895255024,1772,603.6496960334521,1784,600.877317581288,1796,594.5900817844306,1808,586.634294294754,1820,581.8115052326643,1832,574.4249147479163,1844,566.0143148671652,1856,556.2453568798187,1868,543.5199140205116,1880,530.0629872430428,1892,511.4095695736393,1904,494.85657296118006,1916,486.7900288152149,1928,479.05985344505746,1940,475.8447786407682" fill="none" stroke="#0090ff" stroke-width="2"/><line x1="80" y1="50" x2="80" y2="850" stroke="#666666" stroke-width="0.5" stroke-dasharray="4,4"/><line x1="152" y1="50" x2="152" y2="850" stroke="#666666" stroke-width="0.5" stroke-dasharray="4,4"/><line x1="224" y1="50" x2="224" y2="850" stroke="#666666" stroke-width="0.5" stroke-dasharray="4,4"/><line x1="296" y1="50" x2="296" y2="850" stroke="#666666" stroke-width="0.5" stroke-dasharray="4,4"/><line x1="368" y1="50" x2="368" y2="850" stroke="#666666" stroke-width="0.5" stroke-dasharray="4,4"/><line x1="440" y1="50" x2="440" y2="850" stroke="#666666" stroke-width="0.5" stroke-dasharray="4,4"/><line x1="512" y1="50" x2="512" y2="850" stroke="#666666" stroke-width="0.5" stroke-dasharray="4,4"/><line x1="584" y1="50" x2="584" y2="850" stroke="#666666" stroke-width="0.5" stroke-dasharray="4,4"/><line x1="656" y1="50" x2="656" y2="850" stroke="#666666" stroke-width="0.5" stroke-dasharray="4,4"/><line x1="728" y1="50" x2="728" y2="850" stroke="#666666" stroke-width="0.5" stroke-dasharray="4,4"/><line x1="800" y1="50" x2="800" y2="850" stroke="#666666" stroke-width="0.5" stroke-dasharray="4,4"/><line x1="872" y1="50" x2="872" y2="850" stroke="#666666" stroke-width="0.5" stroke-dasharray="4,4"/><line x1="944" y1="50" x2="944" y2="850" stroke="#666666" stroke-width="0.5" stroke-dasharray="4,4"/><line x1="1016" y1="50" x2="1016" y2="850" stroke="#666666" stroke-width="0.5" stroke-dasharray="4,4"/><line x1="1088" y1="50" x2="1088" y2="850" stroke="#666666" stroke-width="0.5" stroke-dasharray="4,4"/><line x1="1160" y1="50" x2="1160" y2="850" stroke="#666666" stroke-width="0.5" stroke-dasharray="4,4"/><line x1="1232" y1="50" x2="1232" y2="850" stroke="#666666" stroke-width="0.5" stroke-dasharray="4,4"/><line x1="1304" y1="50" x2="1304" y2="850" stroke="#666666" stroke-width="0.5" stroke-dasharray="4,4"/><line x1="1376" y1="50" x2="1376" y2="850" stroke="#666666" stroke-width="0.5" stroke-dasharray="4,4"/><line x1="1448" y1="50" x2="1448" y2="850" stroke="#666666" stroke-width="0.5" stroke-dasharray="4,4"/><line x1="1520" y1="50" x2="1520" y2="850" stroke="#666666" stroke-width="0.5" stroke-dasharray="4,4"/><line x1="1592" y1="50" x2="1592" y2="850" stroke="#666666" stroke-width="0.5" stroke-dasharray="4,4"/><line x1="1664" y1="50" x2="1664" y2="850" stroke="#666666" stroke-width="0.5" stroke-dasharray="4,4"/><line x1="1736" y1="50" x2="1736" y2="850" stroke="#666666" stroke-width="0.5" stroke-dasharray="4,4"/><line x1="1808" y1="50" x2="1808" y2="850" stroke="#666666" stroke-width="0.5" stroke-dasharray="4,4"/><line x1="1880" y1="50" x2="1880" y2="850" stroke="#666666" stroke-width="0.5" stroke-dasharray="4,4"/><text x="80" y="1040" text-anchor="middle" font-size="20" fill="black">09:30</text><text x="152" y="1040" text-anchor="middle" font-size="20" fill="black">10:00</text><text x="224" y="1040" text-anchor="middle" font-size="20" fill="black">10:30</text><text x="296" y="1040" text-anchor="middle" font-size="20" fill="black">11:00</text><text x="368" y="1040" text-anchor="middle" font-size="20" fill="black">11:30</text><text x="440" y="1040" text-anchor="middle" font-size="20" fill="black">12:00</text><text x="512" y="1040" text-anchor="middle" font-size="20" fill="black">12:30</text><text x="584" y="1040" text-anchor="middle" font-size="20" fill="black">13:00</text><text x="656" y="1040" text-anchor="middle" font-size="20" fill="black">13:30</text><text x="728" y="1040" text-anchor="middle" font-size="20" fill="black">14:00</text><text x="800" y="1040" text-anchor="middle" font-size="20" fill="black">14:30</text><text x="872" y="1040" text-anchor="middle" font-size="20" fill="black">15:00</text><text x="944" y="1040" text-anchor="middle" font-size="20" fill="black">15:30</text><text x="1016" y="1040" text-anchor="middle" font-size="20" fill="black">09:30</text><text x="1088" y="1040" text-anchor="middle" font-size="20" fill="black">10:00</text><text x="1160" y="1040" text-anchor="middle" font-size="20" fill="black">10:30</text><text x="1232" y="1040" text-anchor="middle" font-size="20" fill="black">11:00</text><text x="1304" y="1040" text-anchor="middle" font-size="20" fill="black">11:30</text><text x="1376" y="1040" text-anchor="middle" font-size="20" fill="black">12:00</text><text x="1448" y="1040" text-anchor="middle" font-size="20" fill="black">12:30</text><text x="1520" y="1040" text-anchor="middle" font-size="20" fill="black">13:00</text><text x="1592" y="1040" text-anchor="middle" font-size="20" fill="black">13:30</text><text x="1664" y="1040" text-anchor="middle" font-size="20" fill="black">14:00</text><text x="1736" y="1040" text-anchor="middle" font-size="20" fill="black">14:30</text><text x="1808" y="1040" text-anchor="middle" font-size="20" fill="black">15:00</text><text x="1880" y="1040" text-anchor="middle" font-size="20" fill="black">15:30</text><text x="1942" y="50" text-anchor="end" font-size="40" fill="#ef5350" font-weight="bold"> -0.03% (Fri)</text></svg>