<svg xmlns="http://www.w3.org/2000/svg" width="1992" height="1050"><rect width="100%" height="100%" fill="white"/><text x="42" y="854.0" text-anchor="end" font-size="20" fill="black">421</text><text x="42" y="765.1111111111111" text-anchor="end" font-size="20" fill="black">422</text><text x="42" y="676.2222222222222" text-anchor="end" font-size="20" fill="black">423</text><text x="42" y="587.3333333333334" text-anchor="end" font-size="20" fill="black">424</text><text x="42" y="498.44444444444446" text-anchor="end" font-size="20" fill="black">425</text><text x="42" y="409.55555555555554" text-anchor="end" font-size="20" fill="black">426</text><text x="42" y="320.66666666666674" text-anchor="end" font-size="20" fill="black">427</text><text x="42" y="231.77777777777771" text-anchor="end" font-size="20" fill="black">428</text><text x="42" y="142.8888888888889" text-anchor="end" font-size="20" fill="black">429</text><text x="42" y="54.0" text-anchor="end" font-size="20" fill="black">430</text><line x1="80" y1="87.32395733333465" x2="80" y2="168.31555644444563" stroke="#26a69a" stroke-width="2"/><rect x="76" y="111.0932311111103" width="8" height="32.5727084444477" fill="#26a69a"/><line x1="92" y1="104.93082666666851" x2="92" y2="207.9310133333314" stroke="#ef5350" stroke-width="2"/><rect x="88" y="104.93082666666851" width="8" height="93.31640799999957" fill="#ef5350"/><line x1="104" y1="203.529295999998" x2="104" y2="335.58081688888706" stroke="#ef5350" stroke-width="2"/><rect x="100" y="203.529295999998" width="8" height="102.11984266666661" fill="#ef5350"/><line x1="116" y1="254.58921688888654" x2="116" y2="314.45257333333143" stroke="#26a69a" stroke-width="2"/><rect x="112" y="260.7516213333332" width="8" height="44.017174222224526" fill="#26a69a"/><line x1="128" y1="257.2302480000013" x2="128" y2="337.3415040000003" stroke="#ef5350" stroke-width="2"/><rect x="124" y="258.9909351111095" width="8" height="73.94885155555744" fill="#ef5350"/><line x1="140" y1="255.46956088888794" x2="140" y2="336.46116088888846" stroke="#26a69a" stroke-width="2"/><rect x="136" y="257.2302480000013" width="8" height="66.90610399999855" fill="#26a69a"/><line x1="152" y1="217.61479111111032" x2="152" y2="266.03368266666826" stroke="#26a69a" stroke-width="2"/><rect x="148" y="247.54646933333277" width="8" height="13.205152000000453" fill="#26a69a"/><line x1="164" y1="197.3668915555562" x2="164" y2="261.63196533333473" stroke="#26a69a" stroke-width="2"/><rect x="160" y="209.6917004444448" width="8" height="42.2564862222215" fill="#26a69a"/><line x1="176" y1="186.8027697777759" x2="176" y2="221.13616533333186" stroke="#26a69a" stroke-width="2"/><rect x="172" y="198.24723466666808" width="8" height="12.324808888888583" fill="#26a69a"/><line x1="188" y1="183.28139555555424" x2="188" y2="218.49513511111184" stroke="#ef5350" stroke-width="2"/><rect x="184" y="195.60620444444282" width="8" height="3.081201777781189" fill="#ef5350"/><line x1="200" y1="175.35830488888882" x2="200" y2="237.86269155555397" stroke="#ef5350" stroke-width="2"/><rect x="196" y="200.88826488888822" width="8" height="17.60687022222362" fill="#ef5350"/><line x1="212" y1="189.44380000000115" x2="212" y2="227.29856977777877" stroke="#26a69a" stroke-width="2"/><rect x="208" y="200.88826488888822" width="8" height="15.846183111110236" fill="#26a69a"/><line x1="224" y1="154.2300613333333" x2="224" y2="200.88826488888822" stroke="#26a69a" stroke-width="2"/><rect x="220" y="163.03349600000024" width="8" height="37.854768888887975" fill="#26a69a"/><line x1="236" y1="161.27280888888686" x2="236" y2="252.8285306666678" stroke="#ef5350" stroke-width="2"/><rect x="232" y="161.27280888888686" width="8" height="76.58988266666711" fill="#ef5350"/><line x1="248" y1="183.28139555555424" x2="248" y2="238.74303466666584" stroke="#26a69a" stroke-width="2"/><rect x="244" y="199.12757866666448" width="8" height="39.61545600000136" fill="#26a69a"/><line x1="260" y1="190.32414399999755" x2="260" y2="242.2644088888875" stroke="#ef5350" stroke-width="2"/><rect x="256" y="198.24723466666808" width="8" height="28.170991111109174" fill="#ef5350"/><line x1="272" y1="199.12757866666448" x2="272" y2="232.58063022222416" stroke="#26a69a" stroke-width="2"/><rect x="268" y="222.01650844444373" width="8" height="2.6410311111097826" fill="#26a69a"/><line x1="284" y1="197.3668915555562" x2="284" y2="224.6575395555535" stroke="#26a69a" stroke-width="2"/><rect x="280" y="220.25582133333558" width="8" height="2" fill="#26a69a"/><line x1="296" y1="207.9310133333314" x2="296" y2="250.18749955555802" stroke="#ef5350" stroke-width="2"/><rect x="292" y="219.3754782222237" width="8" height="12.324808888888583" fill="#ef5350"/><line x1="308" y1="229.9395999999989" x2="308" y2="274.8371173333352" stroke="#ef5350" stroke-width="2"/><rect x="304" y="232.58063022222416" width="8" height="7.923091555555061" fill="#ef5350"/><line x1="320" y1="221.5763368888878" x2="320" y2="258.1105911111132" stroke="#26a69a" stroke-width="2"/><rect x="316" y="227.29856977777877" width="8" height="11.444464888887069" fill="#26a69a"/><line x1="332" y1="210.13187200000073" x2="332" y2="240.50372177777922" stroke="#26a69a" stroke-width="2"/><rect x="328" y="212.33273066666493" width="8" height="14.085495111112323" fill="#26a69a"/><line x1="344" y1="214.0934177777783" x2="344" y2="260.7516213333332" stroke="#ef5350" stroke-width="2"/><rect x="340" y="214.0934177777783" width="8" height="31.692364444446298" fill="#ef5350"/><line x1="356" y1="221.13616533333186" x2="356" y2="244.90543911111274" stroke="#26a69a" stroke-width="2"/><rect x="352" y="236.98234755555757" width="8" height="7.923091555555175" fill="#26a69a"/><line x1="368" y1="236.98234755555757" x2="368" y2="295.9653608888908" stroke="#ef5350" stroke-width="2"/><rect x="364" y="236.98234755555757" width="8" height="52.82060888888634" fill="#ef5350"/><line x1="380" y1="277.4781475555553" x2="380" y2="306.529482666666" stroke="#26a69a" stroke-width="2"/><rect x="376" y="280.999521777777" width="8" height="9.6837777777788" fill="#26a69a"/><line x1="392" y1="221.13616533333186" x2="392" y2="280.55935022222104" stroke="#26a69a" stroke-width="2"/><rect x="388" y="224.6575395555535" width="8" height="55.54967288889111" fill="#26a69a"/><line x1="404" y1="227.29856977777877" x2="404" y2="266.9140257777801" stroke="#ef5350" stroke-width="2"/><rect x="400" y="227.29856977777877" width="8" height="21.128243555555514" fill="#ef5350"/><line x1="416" y1="228.17891288889064" x2="416" y2="251.06784355555442" stroke="#26a69a" stroke-width="2"/><rect x="412" y="233.46097422222044" width="8" height="15.846182222225707" fill="#26a69a"/><line x1="428" y1="209.6917004444448" x2="428" y2="241.3840648888911" stroke="#26a69a" stroke-width="2"/><rect x="424" y="215.85410400000205" width="8" height="17.60687022221839" fill="#26a69a"/><line x1="440" y1="200.00792177777635" x2="440" y2="226.41822577777725" stroke="#ef5350" stroke-width="2"/><rect x="436" y="213.30110844444584" width="8" height="2" fill="#ef5350"/><line x1="452" y1="187.68311288888776" x2="452" y2="217.61479111111032" stroke="#26a69a" stroke-width="2"/><rect x="448" y="203.529295999998" width="8" height="11.444464888892185" fill="#26a69a"/><line x1="464" y1="182.48908622222189" x2="464" y2="204.40963911110987" stroke="#26a69a" stroke-width="2"/><rect x="460" y="188.56345688888928" width="8" height="15.846182222220591" fill="#26a69a"/><line x1="476" y1="177.99933511110896" x2="476" y2="196.4865475555547" stroke="#ef5350" stroke-width="2"/><rect x="472" y="187.68311288888776" width="8" height="2" fill="#ef5350"/><line x1="488" y1="184.16173955555576" x2="488" y2="203.529295999998" stroke="#ef5350" stroke-width="2"/><rect x="484" y="190.32414399999755" width="8" height="5.282060444445278" fill="#ef5350"/><line x1="500" y1="172.71727377777904" x2="500" y2="210.57204355555666" stroke="#26a69a" stroke-width="2"/><rect x="496" y="173.59761777777544" width="8" height="27.290647111112776" fill="#26a69a"/><line x1="512" y1="160.39246577778" x2="512" y2="191.9967964444469" stroke="#ef5350" stroke-width="2"/><rect x="508" y="172.71727377777904" width="8" height="2" fill="#ef5350"/><line x1="524" y1="171.83693066666717" x2="524" y2="195.60620444444282" stroke="#ef5350" stroke-width="2"/><rect x="520" y="173.59761777777544" width="8" height="16.726526222222105" fill="#ef5350"/><line x1="536" y1="168.31555644444563" x2="536" y2="222.89685244444524" stroke="#26a69a" stroke-width="2"/><rect x="532" y="185.9224257777795" width="8" height="2" fill="#26a69a"/><line x1="548" y1="176.2386480000007" x2="548" y2="196.4865475555547" stroke="#ef5350" stroke-width="2"/><rect x="544" y="185.48225422222356" width="8" height="3.0812026666657175" fill="#ef5350"/><line x1="560" y1="182.40105244444237" x2="560" y2="213.2130737777768" stroke="#ef5350" stroke-width="2"/><rect x="556" y="186.36259822221996" width="8" height="11.88463644444812" fill="#ef5350"/><line x1="572" y1="193.84551733333467" x2="572" y2="214.0934177777783" stroke="#26a69a" stroke-width="2"/><rect x="568" y="195.60620444444282" width="8" height="2" fill="#26a69a"/><line x1="584" y1="192.9651742222228" x2="584" y2="228.17891288889064" stroke="#ef5350" stroke-width="2"/><rect x="580" y="195.60620444444282" width="8" height="13.205152000000453" fill="#ef5350"/><line x1="596" y1="207.9310133333314" x2="596" y2="243.14475199999936" stroke="#ef5350" stroke-width="2"/><rect x="592" y="207.9310133333314" width="8" height="13.205152000000453" fill="#ef5350"/><line x1="608" y1="200.00792177777635" x2="608" y2="221.13616533333186" stroke="#26a69a" stroke-width="2"/><rect x="604" y="204.40963911110987" width="8" height="16.72652622222199" fill="#26a69a"/><line x1="620" y1="188.56345688888928" x2="620" y2="214.0934177777783" stroke="#26a69a" stroke-width="2"/><rect x="616" y="191.20448711110942" width="8" height="12.324808888888583" fill="#26a69a"/><line x1="632" y1="163.9138391111121" x2="632" y2="194.72586133333095" stroke="#26a69a" stroke-width="2"/><rect x="628" y="170.0762435555538" width="8" height="21.128243555555628" fill="#26a69a"/><line x1="644" y1="135.74284799999782" x2="644" y2="170.0762435555538" stroke="#26a69a" stroke-width="2"/><rect x="640" y="136.62319199999934" width="8" height="33.45305155555445" fill="#26a69a"/><line x1="656" y1="131.3411306666643" x2="656" y2="161.27280888888686" stroke="#26a69a" stroke-width="2"/><rect x="652" y="132.22147377777617" width="8" height="4.401718222223167" fill="#26a69a"/><line x1="668" y1="128.70010044444427" x2="668" y2="145.42662666666627" stroke="#ef5350" stroke-width="2"/><rect x="664" y="135.74284799999782" width="8" height="7.042747555558776" fill="#ef5350"/><line x1="680" y1="130.46078755555754" x2="680" y2="143.665939555558" stroke="#26a69a" stroke-width="2"/><rect x="676" y="133.98216088888955" width="8" height="7.923091555555175" fill="#26a69a"/><line x1="692" y1="123.41803911110924" x2="692" y2="148.94799999999827" stroke="#ef5350" stroke-width="2"/><rect x="688" y="136.62319199999934" width="8" height="9.6837777777788" fill="#ef5350"/><line x1="704" y1="141.90525244444473" x2="704" y2="165.58649155555645" stroke="#ef5350" stroke-width="2"/><rect x="700" y="147.18731288889" width="8" height="9.68377866666333" fill="#ef5350"/><line x1="716" y1="139.2642222222246" x2="716" y2="163.03349600000024" stroke="#26a69a" stroke-width="2"/><rect x="712" y="154.2300613333333" width="8" height="6.162404444446679" fill="#26a69a"/><line x1="728" y1="155.11040444444518" x2="728" y2="200.00792177777635" stroke="#ef5350" stroke-width="2"/><rect x="724" y="155.11040444444518" width="8" height="29.931678222222445" fill="#ef5350"/><line x1="740" y1="185.04208266666762" x2="740" y2="203.529295999998" stroke="#ef5350" stroke-width="2"/><rect x="736" y="188.56345688888928" width="8" height="2" fill="#ef5350"/><line x1="752" y1="181.5207084444461" x2="752" y2="207.9310133333314" stroke="#ef5350" stroke-width="2"/><rect x="748" y="192.08483022222129" width="8" height="4.841889777778988" fill="#ef5350"/><line x1="764" y1="182.40105244444237" x2="764" y2="204.40963911110987" stroke="#ef5350" stroke-width="2"/><rect x="760" y="200.00792177777635" width="8" height="2" fill="#ef5350"/><line x1="776" y1="186.8027697777759" x2="776" y2="210.57204355555666" stroke="#ef5350" stroke-width="2"/><rect x="772" y="199.12757866666448" width="8" height="2" fill="#ef5350"/><line x1="788" y1="192.9651742222228" x2="788" y2="224.6575395555535" stroke="#ef5350" stroke-width="2"/><rect x="784" y="200.88826488888822" width="8" height="13.205152888890098" fill="#ef5350"/><line x1="800" y1="217.61479111111032" x2="800" y2="307.4098257777779" stroke="#ef5350" stroke-width="2"/><rect x="796" y="217.61479111111032" width="8" height="69.54713511111345" fill="#ef5350"/><line x1="812" y1="265.15333866666674" x2="812" y2="288.9226124444424" stroke="#26a69a" stroke-width="2"/><rect x="808" y="270.4354000000018" width="8" height="7.923091555555061" fill="#26a69a"/><line x1="824" y1="215.85410400000205" x2="824" y2="269.55505600000026" stroke="#26a69a" stroke-width="2"/><rect x="820" y="222.89685244444524" width="8" height="46.65820355555502" fill="#26a69a"/><line x1="836" y1="217.61479111111032" x2="836" y2="235.22166044444418" stroke="#ef5350" stroke-width="2"/><rect x="832" y="222.89685244444524" width="8" height="7.92309066666553" fill="#ef5350"/><line x1="848" y1="220.25582133333558" x2="848" y2="242.2644088888875" stroke="#26a69a" stroke-width="2"/><rect x="844" y="229.05925688888703" width="8" height="2" fill="#26a69a"/><line x1="860" y1="206.17032622222325" x2="860" y2="236.98234755555757" stroke="#26a69a" stroke-width="2"/><rect x="856" y="214.0934177777783" width="8" height="21.12824266666587" fill="#26a69a"/><line x1="872" y1="216.29427644444252" x2="872" y2="396.3245173333336" stroke="#ef5350" stroke-width="2"/><rect x="868" y="216.73444799999845" width="8" height="150.53873422222443" fill="#ef5350"/><line x1="884" y1="335.58081688888706" x2="884" y2="420.0937911111093" stroke="#26a69a" stroke-width="2"/><rect x="880" y="346.1449386666674" width="8" height="19.367556444442187" fill="#26a69a"/><line x1="896" y1="319.73463466666647" x2="896" y2="346.9372479999998" stroke="#26a69a" stroke-width="2"/><rect x="892" y="332.05944355555505" width="8" height="13.205152000000453" fill="#26a69a"/><line x1="908" y1="305.6491386666646" x2="908" y2="350.54665600000084" stroke="#26a69a" stroke-width="2"/><rect x="904" y="324.1363519999999" width="8" height="7.923091555555175" fill="#26a69a"/><line x1="920" y1="280.1191777777756" x2="920" y2="324.1363519999999" stroke="#26a69a" stroke-width="2"/><rect x="916" y="303.00810844444436" width="8" height="21.128243555555514" fill="#26a69a"/><line x1="932" y1="280.1191777777756" x2="932" y2="315.33291733333294" stroke="#26a69a" stroke-width="2"/><rect x="928" y="300.3670782222242" width="8" height="3.521373333332008" fill="#26a69a"/><line x1="944" y1="276.59780444444345" x2="944" y2="299.4867342222227" stroke="#26a69a" stroke-width="2"/><rect x="940" y="283.64055200000223" width="8" height="15.846182222220477" fill="#26a69a"/><line x1="956" y1="271.31574311111365" x2="956" y2="309.17051288889127" stroke="#ef5350" stroke-width="2"/><rect x="952" y="283.64055200000223" width="8" height="7.923091555555061" fill="#ef5350"/><line x1="968" y1="262.5123084444466" x2="968" y2="303.00810844444436" stroke="#26a69a" stroke-width="2"/><rect x="964" y="274.8371173333352" width="8" height="14.965839111108721" fill="#26a69a"/><line x1="980" y1="248.42681333333428" x2="980" y2="279.2388346666687" stroke="#26a69a" stroke-width="2"/><rect x="976" y="266.9140257777801" width="8" height="4.401717333333522" fill="#26a69a"/><line x1="992" y1="190.32414399999755" x2="992" y2="273.0764302222218" stroke="#26a69a" stroke-width="2"/><rect x="988" y="200.00792177777635" width="8" height="69.54713422222392" fill="#26a69a"/><line x1="1004" y1="166.55486933333225" x2="1004" y2="204.40963911110987" stroke="#26a69a" stroke-width="2"/><rect x="1000" y="171.83693066666717" width="8" height="26.410304000000906" fill="#26a69a"/><line x1="1016" y1="272.19608711110993" x2="1016" y2="340.862878222222" stroke="#26a69a" stroke-width="2"/><rect x="1012" y="280.999521777777" width="8" height="35.21373866666784" fill="#26a69a"/><line x1="1028" y1="278.35849155555684" x2="1028" y2="339.9825342222205" stroke="#ef5350" stroke-width="2"/><rect x="1024" y="281.87986488888885" width="8" height="14.085496000001967" fill="#ef5350"/><line x1="1040" y1="213.2130737777768" x2="1040" y2="301.247421333331" stroke="#26a69a" stroke-width="2"/><rect x="1036" y="219.3754782222237" width="8" height="78.35056977777526" fill="#26a69a"/><line x1="1052" y1="209.6917004444448" x2="1052" y2="297.72604799999897" stroke="#ef5350" stroke-width="2"/><rect x="1048" y="217.61479111111032" width="8" height="49.299234666669804" fill="#ef5350"/><line x1="1064" y1="253.70887377777967" x2="1064" y2="301.247421333331" stroke="#26a69a" stroke-width="2"/><rect x="1060" y="257.2302480000013" width="8" height="4.4017173333334085" fill="#26a69a"/><line x1="1076" y1="236.1020044444457" x2="1076" y2="273.9567742222233" stroke="#26a69a" stroke-width="2"/><rect x="1072" y="244.02509600000087" width="8" height="14.085495111112323" fill="#26a69a"/><line x1="1088" y1="193.84551733333467" x2="1088" y2="273.51660177777774" stroke="#ef5350" stroke-width="2"/><rect x="1084" y="239.62337866666735" width="8" height="21.12824266666587" fill="#ef5350"/><line x1="1100" y1="214.0934177777783" x2="1100" y2="261.63196533333473" stroke="#26a69a" stroke-width="2"/><rect x="1096" y="246.6661262222209" width="8" height="12.324808888888583" fill="#26a69a"/><line x1="1112" y1="245.7857822222246" x2="1112" y2="305.6491386666646" stroke="#26a69a" stroke-width="2"/><rect x="1108" y="248.42681333333428" width="8" height="7.92309066666553" fill="#26a69a"/><line x1="1124" y1="223.7771955555571" x2="1124" y2="256.3499039999998" stroke="#ef5350" stroke-width="2"/><rect x="1120" y="250.18749955555802" width="8" height="3.5213742222216524" fill="#ef5350"/><line x1="1136" y1="239.62337866666735" x2="1136" y2="277.4781475555553" stroke="#ef5350" stroke-width="2"/><rect x="1132" y="251.9481866666663" width="8" height="14.085496000001967" fill="#ef5350"/><line x1="1148" y1="255.46956088888794" x2="1148" y2="339.9825342222205" stroke="#ef5350" stroke-width="2"/><rect x="1144" y="265.15333866666674" width="8" height="74.82919555555378" fill="#ef5350"/><line x1="1160" y1="312.6918871111128" x2="1160" y2="355.8287173333358" stroke="#26a69a" stroke-width="2"/><rect x="1156" y="316.2132604444448" width="8" height="24.649617777777166" fill="#26a69a"/><line x1="1172" y1="296.84570399999757" x2="1172" y2="333.8201297777788" stroke="#26a69a" stroke-width="2"/><rect x="1168" y="303.00810844444436" width="8" height="15.846182222220705" fill="#26a69a"/><line x1="1184" y1="255.46956088888794" x2="1184" y2="310.050855999998" stroke="#26a69a" stroke-width="2"/><rect x="1180" y="255.46956088888794" width="8" height="44.89751733333628" fill="#26a69a"/><line x1="1196" y1="226.41822577777725" x2="1196" y2="261.63196533333473" stroke="#26a69a" stroke-width="2"/><rect x="1192" y="247.54646933333277" width="8" height="8.803434666667044" fill="#26a69a"/><line x1="1208" y1="247.54646933333277" x2="1208" y2="317.0936044444463" stroke="#ef5350" stroke-width="2"/><rect x="1204" y="247.54646933333277" width="8" height="56.341982222223464" fill="#ef5350"/><line x1="1220" y1="305.6491386666646" x2="1220" y2="339.10219111110865" stroke="#ef5350" stroke-width="2"/><rect x="1216" y="309.6106844444421" width="8" height="4.841888888889343" fill="#ef5350"/><line x1="1232" y1="308.2901697777794" x2="1232" y2="366.392839111111" stroke="#ef5350" stroke-width="2"/><rect x="1228" y="311.8115431111113" width="8" height="44.897517333331336" fill="#ef5350"/><line x1="1244" y1="343.5039084444422" x2="1244" y2="421.854477333333" stroke="#ef5350" stroke-width="2"/><rect x="1240" y="360.2304346666642" width="8" height="41.376143111114686" fill="#ef5350"/><line x1="1256" y1="394.56383022222025" x2="1256" y2="491.40161244444647" stroke="#ef5350" stroke-width="2"/><rect x="1252" y="399.8458906666656" width="8" height="83.63263022222583" fill="#ef5350"/><line x1="1268" y1="431.5382560000014" x2="1268" y2="493.1622995555548" stroke="#26a69a" stroke-width="2"/><rect x="1264" y="438.58100355555507" width="8" height="47.53854755555642" fill="#26a69a"/><line x1="1280" y1="431.5382560000014" x2="1280" y2="480.8374906666662" stroke="#ef5350" stroke-width="2"/><rect x="1276" y="439.90151911111246" width="8" height="25.0897893333331" fill="#ef5350"/><line x1="1292" y1="448.2647822222235" x2="1292" y2="474.6750862222244" stroke="#26a69a" stroke-width="2"/><rect x="1288" y="454.4271866666653" width="8" height="7.923090666670532" fill="#26a69a"/><line x1="1304" y1="450.0254693333318" x2="1304" y2="516.051229333334" stroke="#ef5350" stroke-width="2"/><rect x="1300" y="452.666499555557" width="8" height="23.76927377777571" fill="#ef5350"/><line x1="1316" y1="459.7092471111106" x2="1316" y2="485.2392079999996" stroke="#ef5350" stroke-width="2"/><rect x="1312" y="474.6750862222244" width="8" height="10.564121777775199" fill="#ef5350"/><line x1="1328" y1="482.59817777777954" x2="1328" y2="536.2991297777777" stroke="#ef5350" stroke-width="2"/><rect x="1324" y="484.35886488888775" width="8" height="30.812021333334428" fill="#ef5350"/><line x1="1340" y1="494.4828142222226" x2="1340" y2="535.8589582222218" stroke="#ef5350" stroke-width="2"/><rect x="1336" y="514.2905431111103" width="8" height="4.401717333333522" fill="#ef5350"/><line x1="1352" y1="499.7648755555575" x2="1352" y2="533.6580995555576" stroke="#26a69a" stroke-width="2"/><rect x="1348" y="509.00848177777533" width="8" height="9.683778666668502" fill="#26a69a"/><line x1="1364" y1="456.18787288888905" x2="1364" y2="509.8888248888872" stroke="#26a69a" stroke-width="2"/><rect x="1360" y="467.63233866666576" width="8" height="41.37614311110957" fill="#26a69a"/><line x1="1376" y1="463.23062133333224" x2="1376" y2="513.4101991111088" stroke="#ef5350" stroke-width="2"/><rect x="1372" y="467.63233866666576" width="8" height="28.170991111114233" fill="#ef5350"/><line x1="1388" y1="496.68367288888675" x2="1388" y2="518.6922604444438" stroke="#ef5350" stroke-width="2"/><rect x="1384" y="498.4443600000001" width="8" height="6.1624044444468495" fill="#ef5350"/><line x1="1400" y1="464.1109644444441" x2="1400" y2="507.2477946666671" stroke="#26a69a" stroke-width="2"/><rect x="1396" y="464.1109644444441" width="8" height="40.495800000002816" fill="#26a69a"/><line x1="1412" y1="455.3075297777772" x2="1412" y2="486.999895111113" stroke="#26a69a" stroke-width="2"/><rect x="1408" y="461.46993422222397" width="8" height="2" fill="#26a69a"/><line x1="1424" y1="443.86306488889" x2="1424" y2="465.87165155555743" stroke="#ef5350" stroke-width="2"/><rect x="1420" y="461.46993422222397" width="8" height="4.401717333333465" fill="#ef5350"/><line x1="1436" y1="451.7861555555555" x2="1436" y2="472.03405599999917" stroke="#ef5350" stroke-width="2"/><rect x="1432" y="464.99130844444556" width="8" height="2" fill="#ef5350"/><line x1="1448" y1="465.87165155555743" x2="1448" y2="590.8804248888878" stroke="#ef5350" stroke-width="2"/><rect x="1444" y="465.87165155555743" width="8" height="115.32499555555154" fill="#ef5350"/><line x1="1460" y1="551.2649688888864" x2="1460" y2="597.9231733333311" stroke="#ef5350" stroke-width="2"/><rect x="1456" y="578.5556159999992" width="8" height="13.205152888890098" fill="#ef5350"/><line x1="1472" y1="590.0000817777759" x2="1472" y2="636.6582862222206" stroke="#ef5350" stroke-width="2"/><rect x="1468" y="591.7607688888893" width="8" height="27.290647111112776" fill="#ef5350"/><line x1="1484" y1="617.2907297777783" x2="1484" y2="641.060003555554" stroke="#ef5350" stroke-width="2"/><rect x="1480" y="623.893305777776" width="8" height="5.722232000001213" fill="#ef5350"/><line x1="1496" y1="608.4872942222217" x2="1496" y2="635.7779422222242" stroke="#26a69a" stroke-width="2"/><rect x="1492" y="625.3018551111129" width="8" height="3.433339555552493" fill="#26a69a"/><line x1="1508" y1="578.5556159999992" x2="1508" y2="633.1369119999989" stroke="#26a69a" stroke-width="2"/><rect x="1504" y="595.2821422222213" width="8" height="30.81202222222396" fill="#26a69a"/><line x1="1520" y1="558.3077164444452" x2="1520" y2="622.5727902222237" stroke="#ef5350" stroke-width="2"/><rect x="1516" y="595.2821422222213" width="8" height="7.042748444443191" fill="#ef5350"/><line x1="1532" y1="575.0342426666672" x2="1532" y2="621.6924471111118" stroke="#26a69a" stroke-width="2"/><rect x="1528" y="600.5642035555562" width="8" height="2.641030222220138" fill="#26a69a"/><line x1="1544" y1="585.5983644444425" x2="1544" y2="656.0258426666678" stroke="#ef5350" stroke-width="2"/><rect x="1540" y="595.2821422222213" width="8" height="37.85476977777762" fill="#ef5350"/><line x1="1556" y1="622.5727902222237" x2="1556" y2="653.3848115555581" stroke="#26a69a" stroke-width="2"/><rect x="1552" y="633.1369119999989" width="8" height="2" fill="#26a69a"/><line x1="1568" y1="593.521455111113" x2="1568" y2="634.8975991111123" stroke="#26a69a" stroke-width="2"/><rect x="1564" y="598.803516444443" width="8" height="32.5727084444477" fill="#26a69a"/><line x1="1580" y1="578.5556159999992" x2="1580" y2="612.0086684444434" stroke="#ef5350" stroke-width="2"/><rect x="1576" y="598.803516444443" width="8" height="11.444464888892185" fill="#ef5350"/><line x1="1592" y1="590.8804248888878" x2="1592" y2="622.5727902222237" stroke="#26a69a" stroke-width="2"/><rect x="1588" y="602.3248906666645" width="8" height="7.042747555558776" fill="#26a69a"/><line x1="1604" y1="575.914585777779" x2="1604" y2="604.9659208888897" stroke="#26a69a" stroke-width="2"/><rect x="1600" y="579.4359600000007" width="8" height="23.769273777775652" fill="#26a69a"/><line x1="1616" y1="551.2649688888864" x2="1616" y2="603.2052337777764" stroke="#ef5350" stroke-width="2"/><rect x="1612" y="581.196647111109" width="8" height="10.564121777780315" fill="#ef5350"/><line x1="1628" y1="562.7094337777786" x2="1628" y2="590.8804248888878" stroke="#26a69a" stroke-width="2"/><rect x="1624" y="563.5897777777801" width="8" height="27.29064711110766" fill="#26a69a"/><line x1="1640" y1="531.0170684444428" x2="1640" y2="571.5128684444456" stroke="#26a69a" stroke-width="2"/><rect x="1636" y="534.5384426666644" width="8" height="28.170991111114176" fill="#26a69a"/><line x1="1652" y1="525.7350080000025" x2="1652" y2="553.0256559999998" stroke="#ef5350" stroke-width="2"/><rect x="1648" y="528.3760382222226" width="8" height="15.846182222220591" fill="#ef5350"/><line x1="1664" y1="508.1281386666686" x2="1664" y2="545.9829075555566" stroke="#26a69a" stroke-width="2"/><rect x="1660" y="512.529856000002" width="8" height="29.051334222221044" fill="#26a69a"/><line x1="1676" y1="512.529856000002" x2="1676" y2="564.4701208888869" stroke="#ef5350" stroke-width="2"/><rect x="1672" y="512.529856000002" width="8" height="36.974425777776105" fill="#ef5350"/><line x1="1688" y1="538.0598168888911" x2="1688" y2="568.8718382222204" stroke="#ef5350" stroke-width="2"/><rect x="1684" y="548.6239386666663" width="8" height="14.965839111113837" fill="#ef5350"/><line x1="1700" y1="552.1453119999983" x2="1700" y2="589.1197377777795" stroke="#ef5350" stroke-width="2"/><rect x="1696" y="565.3504639999987" width="8" height="12.324808888888583" fill="#ef5350"/><line x1="1712" y1="549.5042817777781" x2="1712" y2="584.7180204444461" stroke="#ef5350" stroke-width="2"/><rect x="1708" y="577.6752728888873" width="8" height="2.641030222225254" fill="#ef5350"/><line x1="1724" y1="571.5128684444456" x2="1724" y2="630.4958817777788" stroke="#ef5350" stroke-width="2"/><rect x="1720" y="581.196647111109" width="8" height="47.098376000000485" fill="#ef5350"/><line x1="1736" y1="573.7137271111098" x2="1736" y2="625.2138204444439" stroke="#26a69a" stroke-width="2"/><rect x="1732" y="575.914585777779" width="8" height="49.2992346666648" fill="#26a69a"/><line x1="1748" y1="559.1880595555571" x2="1748" y2="585.5983644444425" stroke="#26a69a" stroke-width="2"/><rect x="1744" y="563.5897777777801" width="8" height="14.085495111107207" fill="#26a69a"/><line x1="1760" y1="560.0684035555535" x2="1760" y2="597.0428293333347" stroke="#ef5350" stroke-width="2"/><rect x="1756" y="564.4701208888869" width="8" height="22.008586666667497" fill="#ef5350"/><line x1="1772" y1="576.7949297777755" x2="1772" y2="623.4531333333356" stroke="#ef5350" stroke-width="2"/><rect x="1768" y="585.5983644444425" width="8" height="29.051334222226046" fill="#ef5350"/><line x1="1784" y1="618.1710728888902" x2="1784" y2="669.2309946666683" stroke="#ef5350" stroke-width="2"/><rect x="1780" y="618.1710728888902" width="8" height="43.1368302222229" fill="#ef5350"/><line x1="1796" y1="640.1796595555576" x2="1796" y2="665.7096204444467" stroke="#26a69a" stroke-width="2"/><rect x="1792" y="643.7010337777792" width="8" height="18.48721244444073" fill="#26a69a"/><line x1="1808" y1="605.8462640000016" x2="1808" y2="656.0258426666678" stroke="#26a69a" stroke-width="2"/><rect x="1804" y="616.4103857777768" width="8" height="29.05133511111069" fill="#26a69a"/><line x1="1820" y1="598.803516444443" x2="1820" y2="619.0514160000021" stroke="#26a69a" stroke-width="2"/><rect x="1816" y="612.0086684444434" width="8" height="4.4017173333334085" fill="#26a69a"/><line x1="1832" y1="597.4830008888906" x2="1832" y2="621.6924471111118" stroke="#ef5350" stroke-width="2"/><rect x="1828" y="608.4872942222217" width="8" height="7.923091555555061" fill="#ef5350"/><line x1="1844" y1="611.1283253333315" x2="1844" y2="660.4275600000012" stroke="#ef5350" stroke-width="2"/><rect x="1840" y="616.4103857777768" width="8" height="37.85476977777762" fill="#ef5350"/><line x1="1856" y1="635.7779422222242" x2="1856" y2="689.4788942222224" stroke="#ef5350" stroke-width="2"/><rect x="1852" y="654.2651555555544" width="8" height="14.965839111113837" fill="#ef5350"/><line x1="1868" y1="618.1710728888902" x2="1868" y2="667.4703075555549" stroke="#26a69a" stroke-width="2"/><rect x="1864" y="624.333477333332" width="8" height="43.1368302222229" fill="#26a69a"/><line x1="1880" y1="599.6838595555548" x2="1880" y2="631.3762248888906" stroke="#26a69a" stroke-width="2"/><rect x="1876" y="609.3676382222233" width="8" height="12.324808888888583" fill="#26a69a"/><line x1="1892" y1="600.5642035555562" x2="1892" y2="643.7010337777792" stroke="#ef5350" stroke-width="2"/><rect x="1888" y="606.726607999998" width="8" height="31.692364444446298" fill="#ef5350"/><line x1="1904" y1="617.2907297777783" x2="1904" y2="644.5813768888911" stroke="#ef5350" stroke-width="2"/><rect x="1900" y="636.6582862222206" width="8" height="3.52137333333701" fill="#ef5350"/><line x1="1916" y1="589.1197377777795" x2="1916" y2="642.8206897777777" stroke="#26a69a" stroke-width="2"/><rect x="1912" y="593.521455111113" width="8" height="44.89751733333128" fill="#26a69a"/><line x1="1928" y1="595.2821422222213" x2="1928" y2="773.9918684444445" stroke="#ef5350" stroke-width="2"/><rect x="1924" y="595.2821422222213" width="8" height="163.74388711111453" fill="#ef5350"/><line x1="1940" y1="759.0260293333358" x2="1940" y2="899.8809848888868" stroke="#ef5350" stroke-width="2"/><rect x="1936" y="759.0260293333358" width="8" height="140.854955555551" fill="#ef5350"/><rect x="75" y="997.0070227054514" width="10" height="22.99297729454861" fill="#26a69a" opacity="0.9"/><rect x="87" y="1003.6020230004667" width="10" height="16.397976999533284" fill="#ef5350" opacity="0.9"/><rect x="99" y="1001.581101050791" width="10" height="18.41889894920905" fill="#ef5350" opacity="0.9"/><rect x="111" y="1001.8952923601762" width="10" height="18.1047076398238" fill="#26a69a" opacity="0.9"/><rect x="123" y="1003.3691955736975" width="10" height="16.63080442630246" fill="#ef5350" opacity="0.9"/><rect x="135" y="1003.8863440093118" width="10" height="16.113655990688244" fill="#26a69a" opacity="0.9"/><rect x="147" y="1005.3340981381851" width="10" height="14.66590186181486" fill="#26a69a" opacity="0.9"/><rect x="159" y="1004.4640376332262" width="10" height="15.535962366773788" fill="#26a69a" opacity="0.9"/><rect x="171" y="1004.1258092806454" width="10" height="15.874190719354601" fill="#26a69a" opacity="0.9"/><rect x="183" y="1004.0589279679882" width="10" height="15.941072032011789" fill="#ef5350" opacity="0.9"/><rect x="195" y="1002.3570248510173" width="10" height="17.642975148982714" fill="#ef5350" opacity="0.9"/><rect x="207" y="1005.907969972805" width="10" height="14.092030027195051" fill="#26a69a" opacity="0.9"/><rect x="219" y="1004.5596829389962" width="10" height="15.440317061003839" fill="#26a69a" opacity="0.9"/><rect x="231" y="1005.4918978066952" width="10" height="14.508102193304808" fill="#ef5350" opacity="0.9"/><rect x="243" y="1005.7475553958301" width="10" height="14.25244460416991" fill="#26a69a" opacity="0.9"/><rect x="255" y="1005.2235679688464" width="10" height="14.776432031153604" fill="#ef5350" opacity="0.9"/><rect x="267" y="1007.6841968342175" width="10" height="12.31580316578254" fill="#26a69a" opacity="0.9"/><rect x="279" y="1007.9176277014016" width="10" height="12.082372298598443" fill="#26a69a" opacity="0.9"/><rect x="291" y="1005.520862946613" width="10" height="14.479137053387035" fill="#ef5350" opacity="0.9"/><rect x="303" y="1007.0770352033728" width="10" height="12.922964796627184" fill="#ef5350" opacity="0.9"/><rect x="315" y="1008.1436161368013" width="10" height="11.856383863198744" fill="#26a69a" opacity="0.9"/><rect x="327" y="1007.8119250553824" width="10" height="12.188074944617597" fill="#26a69a" opacity="0.9"/><rect x="339" y="1006.1526650610682" width="10" height="13.847334938931795" fill="#ef5350" opacity="0.9"/><rect x="351" y="1008.1060016842692" width="10" height="11.893998315730755" fill="#26a69a" opacity="0.9"/><rect x="363" y="1005.2241714092613" width="10" height="14.775828590738683" fill="#ef5350" opacity="0.9"/><rect x="375" y="1006.3226341112797" width="10" height="13.67736588872026" fill="#26a69a" opacity="0.9"/><rect x="387" y="1008.0257441090806" width="10" height="11.97425589091938" fill="#26a69a" opacity="0.9"/><rect x="399" y="1007.4336684886098" width="10" height="12.566331511390217" fill="#ef5350" opacity="0.9"/><rect x="411" y="1007.8823264371268" width="10" height="12.117673562873165" fill="#26a69a" opacity="0.9"/><rect x="423" y="1006.763950201415" width="10" height="13.236049798584986" fill="#26a69a" opacity="0.9"/><rect x="435" y="1005.8735738691527" width="10" height="14.126426130847335" fill="#ef5350" opacity="0.9"/><rect x="447" y="1007.9615782782906" width="10" height="12.03842172170937" fill="#26a69a" opacity="0.9"/><rect x="459" y="1008.406414437513" width="10" height="11.593585562486965" fill="#26a69a" opacity="0.9"/><rect x="471" y="1006.6897270303758" width="10" height="13.31027296962418" fill="#ef5350" opacity="0.9"/><rect x="483" y="1006.9032443638665" width="10" height="13.09675563613348" fill="#ef5350" opacity="0.9"/><rect x="495" y="1006.5880473204563" width="10" height="13.411952679543674" fill="#26a69a" opacity="0.9"/><rect x="507" y="1007.0218204054047" width="10" height="12.978179594595304" fill="#ef5350" opacity="0.9"/><rect x="519" y="1004.4358770805285" width="10" height="15.564122919471515" fill="#ef5350" opacity="0.9"/><rect x="531" y="1004.1140421925538" width="10" height="15.885957807446175" fill="#26a69a" opacity="0.9"/><rect x="543" y="1005.7726987464531" width="10" height="14.227301253546898" fill="#ef5350" opacity="0.9"/><rect x="555" y="1007.1035865816308" width="10" height="12.896413418369207" fill="#ef5350" opacity="0.9"/><rect x="567" y="1007.3003081569052" width="10" height="12.699691843094797" fill="#26a69a" opacity="0.9"/><rect x="579" y="1005.5877442592702" width="10" height="14.412255740729847" fill="#ef5350" opacity="0.9"/><rect x="591" y="1006.8390785330765" width="10" height="13.160921466923469" fill="#ef5350" opacity="0.9"/><rect x="603" y="1008.7537949697207" width="10" height="11.24620503027927" fill="#26a69a" opacity="0.9"/><rect x="615" y="1007.2238723710112" width="10" height="12.776127628988775" fill="#26a69a" opacity="0.9"/><rect x="627" y="1008.1414035219465" width="10" height="11.858596478053528" fill="#26a69a" opacity="0.9"/><rect x="639" y="1007.4192864920534" width="10" height="12.580713507946598" fill="#26a69a" opacity="0.9"/><rect x="651" y="1007.3251497873208" width="10" height="12.674850212679189" fill="#26a69a" opacity="0.9"/><rect x="663" y="1008.1197802404107" width="10" height="11.880219759589295" fill="#ef5350" opacity="0.9"/><rect x="675" y="1008.2130117845209" width="10" height="11.786988215479141" fill="#26a69a" opacity="0.9"/><rect x="687" y="1007.1895768407614" width="10" height="12.810423159238553" fill="#ef5350" opacity="0.9"/><rect x="699" y="1007.5770861605635" width="10" height="12.422913839436546" fill="#ef5350" opacity="0.9"/><rect x="711" y="1008.046663376799" width="10" height="11.95333662320104" fill="#26a69a" opacity="0.9"/><rect x="723" y="1006.751277952701" width="10" height="13.248722047298997" fill="#ef5350" opacity="0.9"/><rect x="735" y="1007.9405584371698" width="10" height="12.059441562830216" fill="#ef5350" opacity="0.9"/><rect x="747" y="1007.2416738632523" width="10" height="12.758326136747655" fill="#ef5350" opacity="0.9"/><rect x="759" y="1006.6404460631547" width="10" height="13.35955393684526" fill="#ef5350" opacity="0.9"/><rect x="771" y="1007.0479694900527" width="10" height="12.952030509947349" fill="#ef5350" opacity="0.9"/><rect x="783" y="1006.631092736723" width="10" height="13.368907263277038" fill="#ef5350" opacity="0.9"/><rect x="795" y="1000.9359226738043" width="10" height="19.06407732619573" fill="#ef5350" opacity="0.9"/><rect x="807" y="1005.4948144353675" width="10" height="14.505185564632484" fill="#26a69a" opacity="0.9"/><rect x="819" y="1006.7791367851913" width="10" height="13.220863214808674" fill="#26a69a" opacity="0.9"/><rect x="831" y="1007.3160981810964" width="10" height="12.683901818903564" fill="#ef5350" opacity="0.9"/><rect x="843" y="1006.7308615519951" width="10" height="13.269138448004924" fill="#26a69a" opacity="0.9"/><rect x="855" y="1007.7841667962946" width="10" height="12.215833203705415" fill="#26a69a" opacity="0.9"/><rect x="867" y="992.7827386539792" width="10" height="27.21726134602079" fill="#ef5350" opacity="0.9"/><rect x="879" y="999.9730329183451" width="10" height="20.026967081654902" fill="#26a69a" opacity="0.9"/><rect x="891" y="1003.3460636911243" width="10" height="16.6539363088757" fill="#26a69a" opacity="0.9"/><rect x="903" y="1004.7178849011162" width="10" height="15.282115098883764" fill="#26a69a" opacity="0.9"/><rect x="915" y="1003.0446452038556" width="10" height="16.955354796144434" fill="#26a69a" opacity="0.9"/><rect x="927" y="1005.2063699170202" width="10" height="14.793630082979803" fill="#26a69a" opacity="0.9"/><rect x="939" y="1004.523878807709" width="10" height="15.476121192290975" fill="#26a69a" opacity="0.9"/><rect x="951" y="1002.9687122849741" width="10" height="17.031287715025883" fill="#ef5350" opacity="0.9"/><rect x="963" y="1004.1381798091519" width="10" height="15.861820190848107" fill="#26a69a" opacity="0.9"/><rect x="975" y="1000.2214492225005" width="10" height="19.778550777499504" fill="#26a69a" opacity="0.9"/><rect x="987" y="998.2719343885942" width="10" height="21.728065611405782" fill="#26a69a" opacity="0.9"/><rect x="999" y="981.5893212502212" width="10" height="38.410678749778754" fill="#26a69a" opacity="0.9"/><rect x="1011" y="999.0060196533839" width="10" height="20.993980346616127" fill="#26a69a" opacity="0.9"/><rect x="1023" y="1005.4154620208012" width="10" height="14.584537979198785" fill="#ef5350" opacity="0.9"/><rect x="1035" y="1004.0358966588175" width="10" height="15.964103341182522" fill="#26a69a" opacity="0.9"/><rect x="1047" y="1003.261582033031" width="10" height="16.738417966968996" fill="#ef5350" opacity="0.9"/><rect x="1059" y="1005.0794462830752" width="10" height="14.920553716924815" fill="#26a69a" opacity="0.9"/><rect x="1071" y="1006.1689579522719" width="10" height="13.831042047728147" fill="#26a69a" opacity="0.9"/><rect x="1083" y="1003.1962093214112" width="10" height="16.803790678588825" fill="#ef5350" opacity="0.9"/><rect x="1095" y="1007.7627446615638" width="10" height="12.23725533843617" fill="#26a69a" opacity="0.9"/><rect x="1107" y="1005.450964431881" width="10" height="14.549035568119052" fill="#26a69a" opacity="0.9"/><rect x="1119" y="1006.839179106479" width="10" height="13.160820893520963" fill="#ef5350" opacity="0.9"/><rect x="1131" y="1008.4036989556458" width="10" height="11.596301044354163" fill="#ef5350" opacity="0.9"/><rect x="1143" y="1006.1782107053011" width="10" height="13.821789294698874" fill="#ef5350" opacity="0.9"/><rect x="1155" y="1005.1238997269768" width="10" height="14.876100273023212" fill="#26a69a" opacity="0.9"/><rect x="1167" y="1006.680373703944" width="10" height="13.319626296055958" fill="#26a69a" opacity="0.9"/><rect x="1179" y="1005.9180273130542" width="10" height="14.081972686945846" fill="#26a69a" opacity="0.9"/><rect x="1191" y="1006.7926136211253" width="10" height="13.20738637887473" fill="#26a69a" opacity="0.9"/><rect x="1203" y="1004.5554588560915" width="10" height="15.44454114390851" fill="#ef5350" opacity="0.9"/><rect x="1215" y="1005.576681184996" width="10" height="14.423318815003995" fill="#ef5350" opacity="0.9"/><rect x="1227" y="1004.22688555015" width="10" height="15.773114449850027" fill="#ef5350" opacity="0.9"/><rect x="1239" y="1001.707823537931" width="10" height="18.29217646206905" fill="#ef5350" opacity="0.9"/><rect x="1251" y="998.7200894700989" width="10" height="21.279910529901144" fill="#ef5350" opacity="0.9"/><rect x="1263" y="1003.7067199124609" width="10" height="16.293280087539074" fill="#26a69a" opacity="0.9"/><rect x="1275" y="1005.1091154368104" width="10" height="14.890884563189616" fill="#ef5350" opacity="0.9"/><rect x="1287" y="1006.8738769303388" width="10" height="13.126123069661162" fill="#26a69a" opacity="0.9"/><rect x="1299" y="1004.0326783099378" width="10" height="15.96732169006225" fill="#ef5350" opacity="0.9"/><rect x="1311" y="1005.9156135513944" width="10" height="14.084386448605642" fill="#ef5350" opacity="0.9"/><rect x="1323" y="1005.862812515086" width="10" height="14.137187484913966" fill="#ef5350" opacity="0.9"/><rect x="1335" y="1004.5896538129389" width="10" height="15.410346187061123" fill="#ef5350" opacity="0.9"/><rect x="1347" y="1006.383380446385" width="10" height="13.61661955361501" fill="#26a69a" opacity="0.9"/><rect x="1359" y="1003.852249625867" width="10" height="16.14775037413301" fill="#26a69a" opacity="0.9"/><rect x="1371" y="1005.2628921692208" width="10" height="14.737107830779223" fill="#ef5350" opacity="0.9"/><rect x="1383" y="1006.7703868991745" width="10" height="13.229613100825532" fill="#ef5350" opacity="0.9"/><rect x="1395" y="1005.2484095992619" width="10" height="14.75159040073811" fill="#26a69a" opacity="0.9"/><rect x="1407" y="1004.009445853962" width="10" height="15.990554146037994" fill="#26a69a" opacity="0.9"/><rect x="1419" y="1006.5365537383805" width="10" height="13.463446261619538" fill="#ef5350" opacity="0.9"/><rect x="1431" y="1006.3118727572131" width="10" height="13.68812724278689" fill="#ef5350" opacity="0.9"/><rect x="1443" y="1002.8980091830222" width="10" height="17.101990816977832" fill="#ef5350" opacity="0.9"/><rect x="1455" y="1005.6007182281917" width="10" height="14.399281771808319" fill="#ef5350" opacity="0.9"/><rect x="1467" y="1000.8996156755046" width="10" height="19.100384324495394" fill="#ef5350" opacity="0.9"/><rect x="1479" y="1006.921347576315" width="10" height="13.078652423684957" fill="#ef5350" opacity="0.9"/><rect x="1491" y="1007.0006999908813" width="10" height="12.999300009118656" fill="#26a69a" opacity="0.9"/><rect x="1503" y="1005.2430792089299" width="10" height="14.756920791070115" fill="#26a69a" opacity="0.9"/><rect x="1515" y="1006.6796696901266" width="10" height="13.320330309873384" fill="#ef5350" opacity="0.9"/><rect x="1527" y="1006.8787044536584" width="10" height="13.121295546341571" fill="#26a69a" opacity="0.9"/><rect x="1539" y="1005.0287572882193" width="10" height="14.971242711780747" fill="#ef5350" opacity="0.9"/><rect x="1551" y="1005.9543343113538" width="10" height="14.045665688646181" fill="#26a69a" opacity="0.9"/><rect x="1563" y="1007.6035369654188" width="10" height="12.396463034581188" fill="#26a69a" opacity="0.9"/><rect x="1575" y="1006.2090867398663" width="10" height="13.79091326013372" fill="#ef5350" opacity="0.9"/><rect x="1587" y="1007.8242955838889" width="10" height="12.175704416111103" fill="#26a69a" opacity="0.9"/><rect x="1599" y="1007.1405975937478" width="10" height="12.85940240625223" fill="#26a69a" opacity="0.9"/><rect x="1611" y="1007.0086452896783" width="10" height="12.99135471032173" fill="#ef5350" opacity="0.9"/><rect x="1623" y="1007.6402462573285" width="10" height="12.3597537426715" fill="#26a69a" opacity="0.9"/><rect x="1635" y="1005.3281643074381" width="10" height="14.6718356925619" fill="#26a69a" opacity="0.9"/><rect x="1647" y="1005.9942619521431" width="10" height="14.00573804785688" fill="#ef5350" opacity="0.9"/><rect x="1659" y="1006.6643825329478" width="10" height="13.335617467052202" fill="#26a69a" opacity="0.9"/><rect x="1671" y="1006.1505530196158" width="10" height="13.849446980384187" fill="#ef5350" opacity="0.9"/><rect x="1683" y="1008.2671202750615" width="10" height="11.73287972493847" fill="#ef5350" opacity="0.9"/><rect x="1695" y="1006.3277633548068" width="10" height="13.672236645193152" fill="#ef5350" opacity="0.9"/><rect x="1707" y="1007.7512792936797" width="10" height="12.248720706320341" fill="#ef5350" opacity="0.9"/><rect x="1719" y="1005.8221808604792" width="10" height="14.177819139520807" fill="#ef5350" opacity="0.9"/><rect x="1731" y="1005.6829872714302" width="10" height="14.317012728569807" fill="#26a69a" opacity="0.9"/><rect x="1743" y="1005.824594622139" width="10" height="14.175405377861011" fill="#26a69a" opacity="0.9"/><rect x="1755" y="1005.1712697995505" width="10" height="14.828730200449513" fill="#ef5350" opacity="0.9"/><rect x="1767" y="1006.1997334134345" width="10" height="13.800266586565499" fill="#ef5350" opacity="0.9"/><rect x="1779" y="1006.0494767501114" width="10" height="13.950523249888647" fill="#ef5350" opacity="0.9"/><rect x="1791" y="1004.9053537233615" width="10" height="15.094646276638514" fill="#26a69a" opacity="0.9"/><rect x="1803" y="1005.8135315478648" width="10" height="14.18646845213516" fill="#26a69a" opacity="0.9"/><rect x="1815" y="1005.5846264837929" width="10" height="14.415373516207069" fill="#26a69a" opacity="0.9"/><rect x="1827" y="1004.8864459236929" width="10" height="15.113554076307082" fill="#ef5350" opacity="0.9"/><rect x="1839" y="1003.8519479056595" width="10" height="16.148052094340528" fill="#ef5350" opacity="0.9"/><rect x="1851" y="1001.9460819284346" width="10" height="18.053918071565363" fill="#ef5350" opacity="0.9"/><rect x="1863" y="1003.0212116010749" width="10" height="16.978788398925076" fill="#26a69a" opacity="0.9"/><rect x="1875" y="1000.6759404283622" width="10" height="19.324059571637804" fill="#26a69a" opacity="0.9"/><rect x="1887" y="1003.832235518771" width="10" height="16.167764481229028" fill="#ef5350" opacity="0.9"/><rect x="1899" y="999.5231680889981" width="10" height="20.47683191100191" fill="#ef5350" opacity="0.9"/><rect x="1911" y="994.2054500056321" width="10" height="25.794549994367912" fill="#26a69a" opacity="0.9"/><rect x="1923" y="970.8780527380103" width="10" height="49.1219472619897" fill="#ef5350" opacity="0.9"/><rect x="1935" y="860.0" width="10" height="160.0" fill="#ef5350" opacity="0.9"/><rect x="1004" y="171.83693066666717" width="12" height="144.37632977777764" fill="#ff2400" opacity="0.60"/><polyline points="320,224.3316024402095,332,223.18885274748936,344,225.34094126889,356,226.44964662952384,368,232.48329518332355,380,237.10388819231923,392,235.91852165548312,404,237.10978752956692,416,236.762281500296,428,234.7710265002661,440,232.80173043145726,452,230.0138795332208,464,226.06622023375974,476,222.57837068768822,488,220.00959295023677,500,215.58940483857145,512,211.59018702325443,524,209.56484959246552,536,207.31319018154352,548,205.52750129653145,560,204.834142569876,572,203.95529131983494,584,204.41777371265744,596,206.0100014860534,608,205.85758602176907,620,204.46205279218304,632,201.1872138172647,644,195.03825935847897,656,189.05570835079538,668,184.6490309417277,680,179.82361474622235,692,176.63155332065287,704,174.74960458112037,716,172.79536236704485,728,173.96171668129284,740,175.52004309259758,752,177.55877422663514,764,179.7806304801826,776,181.70703917519154,788,184.79145618495954,800,194.54102475993852,812,201.76906049708418,824,203.78123115873575,836,206.35634658277309,848,208.51852851668707,860,209.04947035107602,872,224.1183952911848,884,235.73997085075757,896,244.9132539655036,908,252.45831092117146,920,257.2725773519576,932,261.3768155300779,944,263.4971713843545,956,266.1701687339903,968,266.99559241011843,980,266.9878241594182,992,260.6087858373586,1004,252.15432344015323,1016,254.9014851865952,1028,258.8123304915774,1040,255.05643979925776,1052,256.18573370197225,1064,256.28521125416523,1076,255.11758122995866,1088,255.65415647790064,1100,254.79815359640781,1112,254.19135928563662,1124,254.145408284886,1136,255.2776248926774,1148,263.3447591145392,1160,268.379854479296,1172,271.67778342835743,1184,270.1341431865028,1196,267.98293615286934,1208,271.4025090483625,1220,275.5025151707388,1232,283.2364718634683,1244,294.5098152838808,1256,312.50683486531057,1268,324.5138985500944,1280,337.8926994924161,1292,348.9912220804399,1304,361.12879839024066,1316,372.9488374006956,1328,386.4937944313169,1340,399.0841245278059,1352,409.55311093256466,1364,415.08446595486123,1376,422.77197679513847,1388,430.5657660950702,1400,433.7605468902489,1412,436.39953615995887,1424,439.2064042928723,1436,441.8297938522806,1448,455.1028274959814,1460,468.1178695334034,1472,482.4924930064097,1484,496.5042115560613,1496,508.77065379940075,1508,517.0098431730063,1520,525.1350857914481,1532,532.3188112927912,1544,541.9205351696696,1556,550.6078091535123,1568,555.1978765145527,1580,560.4407436401491,1592,564.4297100236246,1604,565.8588766880408,1616,568.3257235643143,1628,567.8746811084542,1640,564.6998012568575,1652,562.7495554651988,1664,557.9667269447024,1676,557.1607797859441,1688,557.7730653089778,1700,559.6685136499218,1712,561.6349697890806,1724,567.9835462959394,1736,568.73888338945,1748,568.2484923788151,1760,569.9847033480283,1772,574.2385124259979,1784,582.5308353483908,1796,588.3565685321425,1808,591.028360650772,1820,593.0264852025529,1832,595.2535233525749,1844,600.8736788004777,1856,607.3838993591633,1868,608.9981448805096,1880,609.0333347225775,1892,611.831966886565,1904,614.5317471407553,1916,612.5307669474548,1928,626.4826966984906,1940,652.5206289071018" fill="none" stroke="#0090ff" stroke-width="2"/><line x1="80" y1="50" x2="80" y2="900" stroke="#666666" stroke-width="0.5" stroke-dasharray="4,4" opacity="0.90"/><line x1="152" y1="50" x2="152" y2="900" stroke="#666666" stroke-width="0.5" stroke-dasharray="4,4" opacity="0.90"/><line x1="224" y1="50" x2="224" y2="900" stroke="#666666" stroke-width="0.5" stroke-dasharray="4,4" opacity="0.90"/><line x1="296" y1="50" x2="296" y2="900" stroke="#666666" stroke-width="0.5" stroke-dasharray="4,4" opacity="0.90"/><line x1="368" y1="50" x2="368" y2="900" stroke="#666666" stroke-width="0.5" stroke-dasharray="4,4" opacity="0.90"/><line x1="440" y1="50" x2="440" y2="900" stroke="#666666" stroke-width="0.5" stroke-dasharray="4,4" opacity="0.90"/><line x1="512" y1="50" x2="512" y2="900" stroke="#666666" stroke-width="0.5" stroke-dasharray="4,4" opacity="0.90"/><line x1="584" y1="50" x2="584" y2="900" stroke="#666666" stroke-width="0.5" stroke-dasharray="4,4" opacity="0.90"/><line x1="656" y1="50" x2="656" y2="900" stroke="#666666" stroke-width="0.5" stroke-dasharray="4,4" opacity="0.90"/><line x1="728" y1="50" x2="728" y2="900" stroke="#666666" stroke-width="0.5" stroke-dasharray="4,4" opacity="0.90"/><line x1="800" y1="50" x2="800" y2="900" stroke="#666666" stroke-width="0.5" stroke-dasharray="4,4" opacity="0.90"/><line x1="872" y1="50" x2="872" y2="900" stroke="#666666" stroke-width="0.5" stroke-dasharray="4,4" opacity="0.90"/><line x1="944" y1="50" x2="944" y2="900" stroke="#666666" stroke-width="0.5" stroke-dasharray="4,4" opacity="0.90"/><line x1="1010" y1="30" x2="1010" y2="950" stroke="black" stroke-width="0.7"/><line x1="1016" y1="50" x2="1016" y2="900" stroke="#666666" stroke-width="0.5" stroke-dasharray="4,4" opacity="0.90"/><line x1="1088" y1="50" x2="1088" y2="900" stroke="#666666" stroke-width="0.5" stroke-dasharray="4,4" opacity="0.90"/><line x1="1160" y1="50" x2="1160" y2="900" stroke="#666666" stroke-width="0.5" stroke-dasharray="4,4" opacity="0.90"/><line x1="1232" y1="50" x2="1232" y2="900" stroke="#666666" stroke-width="0.5" stroke-dasharray="4,4" opacity="0.90"/><line x1="1304" y1="50" x2="1304" y2="900" stroke="#666666" stroke-width="0.5" stroke-dasharray="4,4" opacity="0.90"/><line x1="1376" y1="50" x2="1376" y2="900" stroke="#666666" stroke-width="0.5" stroke-dasharray="4,4" opacity="0.90"/><line x1="1448" y1="50" x2="1448" y2="900" stroke="#666666" stroke-width="0.5" stroke-dasharray="4,4" opacity="0.90"/><line x1="1520" y1="50" x2="1520" y2="900" stroke="#666666" stroke-width="0.5" stroke-dasharray="4,4" opacity="0.90"/><line x1="1592" y1="50" x2="1592" y2="900" stroke="#666666" stroke-width="0.5" stroke-dasharray="4,4" opacity="0.90"/><line x1="1664" y1="50" x2="1664" y2="900" stroke="#666666" stroke-width="0.5" stroke-dasharray="4,4" opacity="0.90"/><line x1="1736" y1="50" x2="1736" y2="900" stroke="#666666" stroke-width="0.5" stroke-dasharray="4,4" opacity="0.90"/><line x1="1808" y1="50" x2="1808" y2="900" stroke="#666666" stroke-width="0.5" stroke-dasharray="4,4" opacity="0.90"/><line x1="1880" y1="50" x2="1880" y2="900" stroke="#666666" stroke-width="0.5" stroke-dasharray="4,4" opacity="0.90"/><line x1="1946" y1="30" x2="1946" y2="950" stroke="black" stroke-width="0.7"/><text x="80" y="1040" text-anchor="middle" font-size="20" fill="black">09:30</text><text x="152" y="1040" text-anchor="middle" font-size="20" fill="black">10:00</text><text x="224" y="1040" text-anchor="middle" font-size="20" fill="black">10:30</text><text x="296" y="1040" text-anchor="middle" font-size="20" fill="black">11:00</text><text x="368" y="1040" text-anchor="middle" font-size="20" fill="black">11:30</text><text x="440" y="1040" text-anchor="middle" font-size="20" fill="black">12:00</text><text x="512" y="1040" text-anchor="middle" font-size="20" fill="black">12:30</text><text x="584" y="1040" text-anchor="middle" font-size="20" fill="black">13:00</text><text x="656" y="1040" text-anchor="middle" font-size="20" fill="black">13:30</text><text x="728" y="1040" text-anchor="middle" font-size="20" fill="black">14:00</text><text x="800" y="1040" text-anchor="middle" font-size="20" fill="black">14:30</text><text x="872" y="1040" text-anchor="middle" font-size="20" fill="black">15:00</text><text x="944" y="1040" text-anchor="middle" font-size="20" fill="black">15:30</text><text x="1016" y="1040" text-anchor="middle" font-size="20" fill="black">09:30</text><text x="1088" y="1040" text-anchor="middle" font-size="20" fill="black">10:00</text><text x="1160" y="1040" text-anchor="middle" font-size="20" fill="black">10:30</text><text x="1232" y="1040" text-anchor="middle" font-size="20" fill="black">11:00</text><text x="1304" y="1040" text-anchor="middle" font-size="20" fill="black">11:30</text><text x="1376" y="1040" text-anchor="middle" font-size="20" fill="black">12:00</text><text x="1448" y="1040" text-anchor="middle" font-size="20" fill="black">12:30</text><text x="1520" y="1040" text-anchor="middle" font-size="20" fill="black">13:00</text><text x="1592" y="1040" text-anchor="middle" font-size="20" fill="black">13:30</text><text x="1664" y="1040" text-anchor="middle" font-size="20" fill="black">14:00</text><text x="1736" y="1040" text-anchor="middle" font-size="20" fill="black">14:30</text><text x="1808" y="1040" text-anchor="middle" font-size="20" fill="black">15:00</text><text x="1880" y="1040" text-anchor="middle" font-size="20" fill="black">15:30</text><text x="1942" y="50" text-anchor="end" font-size="40" fill="#ef5350" font-weight="bold"> -1.54% (Tue)</text></svg>