<svg xmlns="http://www.w3.org/2000/svg" width="1992" height="1050"><rect width="100%" height="100%" fill="white"/><text x="42" y="854.0" text-anchor="end" font-size="20" fill="black">492</text><text x="42" y="809.5555555555555" text-anchor="end" font-size="20" fill="black">493</text><text x="42" y="765.1111111111111" text-anchor="end" font-size="20" fill="black">494</text><text x="42" y="720.6666666666667" text-anchor="end" font-size="20" fill="black">495</text><text x="42" y="676.2222222222222" text-anchor="end" font-size="20" fill="black">496</text><text x="42" y="631.7777777777778" text-anchor="end" font-size="20" fill="black">497</text><text x="42" y="587.3333333333334" text-anchor="end" font-size="20" fill="black">498</text><text x="42" y="542.8888888888889" text-anchor="end" font-size="20" fill="black">499</text><text x="42" y="498.44444444444446" text-anchor="end" font-size="20" fill="black">500</text><text x="42" y="454.0" text-anchor="end" font-size="20" fill="black">501</text><text x="42" y="409.55555555555554" text-anchor="end" font-size="20" fill="black">502</text><text x="42" y="365.1111111111111" text-anchor="end" font-size="20" fill="black">503</text><text x="42" y="320.66666666666674" text-anchor="end" font-size="20" fill="black">504</text><text x="42" y="276.2222222222223" text-anchor="end" font-size="20" fill="black">505</text><text x="42" y="231.77777777777771" text-anchor="end" font-size="20" fill="black">506</text><text x="42" y="187.33333333333326" text-anchor="end" font-size="20" fill="black">507</text><text x="42" y="142.8888888888889" text-anchor="end" font-size="20" fill="black">508</text><text x="42" y="98.44444444444446" text-anchor="end" font-size="20" fill="black">509</text><text x="42" y="54.0" text-anchor="end" font-size="20" fill="black">510</text><line x1="80" y1="81.45878400000072" x2="80" y2="117.66098888888848" stroke="#26a69a" stroke-width="2"/><rect x="76" y="90.28859022222252" width="8" height="26.04792800000007" fill="#26a69a"/><line x1="92" y1="77.04388088888868" x2="92" y2="111.48012488888776" stroke="#ef5350" stroke-width="2"/><rect x="88" y="88.08113866666645" width="8" height="23.39898622222131" fill="#ef5350"/><line x1="104" y1="106.62373155555542" x2="104" y2="179.02814133333322" stroke="#ef5350" stroke-width="2"/><rect x="100" y="111.92161511111055" width="8" height="63.574603555555996" fill="#ef5350"/><line x1="116" y1="165.34194177777658" x2="116" y2="195.36328266666612" stroke="#26a69a" stroke-width="2"/><rect x="112" y="171.08131599999922" width="8" height="5.739373777777928" fill="#26a69a"/><line x1="128" y1="135.32060133333448" x2="128" y2="187.4164568888899" stroke="#26a69a" stroke-width="2"/><rect x="124" y="171.52280622222202" width="8" height="2" fill="#26a69a"/><line x1="140" y1="152.09723288889006" x2="140" y2="174.61323822222107" stroke="#26a69a" stroke-width="2"/><rect x="136" y="164.9004515555564" width="8" height="3.090431999999055" fill="#26a69a"/><line x1="152" y1="162.25150977777753" x2="152" y2="183.88453466666556" stroke="#ef5350" stroke-width="2"/><rect x="148" y="167.54939333333266" width="8" height="2" fill="#ef5350"/><line x1="164" y1="139.2940137777789" x2="164" y2="181.67708311111198" stroke="#26a69a" stroke-width="2"/><rect x="160" y="162.69300000000032" width="8" height="2" fill="#26a69a"/><line x1="176" y1="144.15040711111135" x2="176" y2="171.08131599999922" stroke="#26a69a" stroke-width="2"/><rect x="172" y="148.5653102222234" width="8" height="11.478747999998177" fill="#26a69a"/><line x1="188" y1="149.4482911111112" x2="188" y2="219.20375911111023" stroke="#ef5350" stroke-width="2"/><rect x="184" y="152.09723288889006" width="8" height="67.10652622222017" fill="#ef5350"/><line x1="200" y1="183.88453466666556" x2="200" y2="218.32077822222243" stroke="#26a69a" stroke-width="2"/><rect x="196" y="205.0760693333334" width="8" height="11.920238222223361" fill="#26a69a"/><line x1="212" y1="155.18766488888912" x2="212" y2="205.0760693333334" stroke="#26a69a" stroke-width="2"/><rect x="208" y="157.3951164444452" width="8" height="47.680952888888214" fill="#26a69a"/><line x1="224" y1="156.0706453333321" x2="224" y2="183.88453466666556" stroke="#26a69a" stroke-width="2"/><rect x="220" y="159.16107777777847" width="8" height="2" fill="#26a69a"/><line x1="236" y1="141.0599751111123" x2="236" y2="165.34194177777658" stroke="#26a69a" stroke-width="2"/><rect x="232" y="144.59189733333403" width="8" height="15.893651111110216" fill="#26a69a"/><line x1="248" y1="124.72483377777678" x2="248" y2="149.88978133333399" stroke="#26a69a" stroke-width="2"/><rect x="244" y="129.58122711111173" width="8" height="15.010670222222302" fill="#26a69a"/><line x1="260" y1="122.95887244444361" x2="260" y2="141.54561466666564" stroke="#26a69a" stroke-width="2"/><rect x="256" y="126.49079511111017" width="8" height="2" fill="#26a69a"/><line x1="272" y1="117.61684000000002" x2="272" y2="135.32060133333448" stroke="#ef5350" stroke-width="2"/><rect x="268" y="128.69824666666614" width="8" height="4.85639333333495" fill="#ef5350"/><line x1="284" y1="129.13973688888905" x2="284" y2="175.93770933333417" stroke="#ef5350" stroke-width="2"/><rect x="280" y="133.1131497777784" width="8" height="33.111772888888595" fill="#ef5350"/><line x1="296" y1="149.00680044444368" x2="296" y2="171.08131599999922" stroke="#26a69a" stroke-width="2"/><rect x="292" y="164.01747111111092" width="8" height="3.090431999999055" fill="#26a69a"/><line x1="308" y1="145.47487822222195" x2="308" y2="164.01747111111092" stroke="#26a69a" stroke-width="2"/><rect x="304" y="147.68232977777802" width="8" height="16.3351413333329" fill="#26a69a"/><line x1="320" y1="141.5014653333326" x2="320" y2="167.10790311110998" stroke="#ef5350" stroke-width="2"/><rect x="316" y="149.88978133333399" width="8" height="9.712786666667284" fill="#ef5350"/><line x1="332" y1="150.33127155555678" x2="332" y2="171.08131599999922" stroke="#26a69a" stroke-width="2"/><rect x="328" y="160.04405822222157" width="8" height="2" fill="#26a69a"/><line x1="344" y1="141.5014653333326" x2="344" y2="164.01747111111092" stroke="#26a69a" stroke-width="2"/><rect x="340" y="143.70891688888855" width="8" height="16.335141333333013" fill="#26a69a"/><line x1="356" y1="137.96954311111062" x2="356" y2="149.88978133333399" stroke="#26a69a" stroke-width="2"/><rect x="352" y="144.59189733333403" width="8" height="2" fill="#26a69a"/><line x1="368" y1="139.7355039999992" x2="368" y2="153.86319377777852" stroke="#ef5350" stroke-width="2"/><rect x="364" y="145.47487822222195" width="8" height="8.388315555556574" fill="#ef5350"/><line x1="380" y1="130.0227173333344" x2="380" y2="155.18766488888912" stroke="#26a69a" stroke-width="2"/><rect x="376" y="133.77538488889002" width="8" height="17.438867111109744" fill="#26a69a"/><line x1="392" y1="114.57055688888943" x2="392" y2="136.20358177777746" stroke="#26a69a" stroke-width="2"/><rect x="388" y="130.46420799999953" width="8" height="3.090432000001556" fill="#26a69a"/><line x1="404" y1="120.30993066666724" x2="404" y2="154.30468444444364" stroke="#ef5350" stroke-width="2"/><rect x="400" y="130.46420799999953" width="8" height="17.659612000001175" fill="#ef5350"/><line x1="416" y1="131.7886786666678" x2="416" y2="154.30468444444364" stroke="#ef5350" stroke-width="2"/><rect x="412" y="146.7993488888876" width="8" height="7.50533555555603" fill="#ef5350"/><line x1="428" y1="151.21425199999976" x2="428" y2="162.25150977777753" stroke="#ef5350" stroke-width="2"/><rect x="424" y="154.74617466666643" width="8" height="2.6489417777787594" fill="#ef5350"/><line x1="440" y1="154.30468444444364" x2="440" y2="179.91112177777882" stroke="#ef5350" stroke-width="2"/><rect x="436" y="155.6291551111119" width="8" height="7.505335111111094" fill="#ef5350"/><line x1="452" y1="151.21425199999976" x2="452" y2="171.52280622222202" stroke="#26a69a" stroke-width="2"/><rect x="448" y="155.6291551111119" width="8" height="9.271296444444488" fill="#26a69a"/><line x1="464" y1="145.47487822222195" x2="464" y2="182.11857333333228" stroke="#ef5350" stroke-width="2"/><rect x="460" y="152.53872311111024" width="8" height="24.7234568888897" fill="#ef5350"/><line x1="476" y1="177.26217999999994" x2="476" y2="196.24626311111172" stroke="#ef5350" stroke-width="2"/><rect x="472" y="178.14516044444542" width="8" height="5.739374222220135" fill="#ef5350"/><line x1="488" y1="181.67708311111198" x2="488" y2="200.66116622222125" stroke="#ef5350" stroke-width="2"/><rect x="484" y="184.76751511111104" width="8" height="7.063844888888411" fill="#ef5350"/><line x1="500" y1="190.5068893333338" x2="500" y2="205.9590497777789" stroke="#ef5350" stroke-width="2"/><rect x="496" y="191.16912444444552" width="8" height="4.6356484444434045" fill="#ef5350"/><line x1="512" y1="199.33669511111077" x2="512" y2="240.83678400000076" stroke="#ef5350" stroke-width="2"/><rect x="508" y="199.33669511111077" width="8" height="17.21812177777838" fill="#ef5350"/><line x1="524" y1="175.05472844444387" x2="524" y2="215.67183644444356" stroke="#26a69a" stroke-width="2"/><rect x="520" y="181.67708311111198" width="8" height="33.55326311111139" fill="#26a69a"/><line x1="536" y1="176.82068977777715" x2="536" y2="198.4537146666678" stroke="#ef5350" stroke-width="2"/><rect x="532" y="183.00155377777787" width="8" height="2" fill="#ef5350"/><line x1="548" y1="180.352611999999" x2="548" y2="244.8101964444453" stroke="#ef5350" stroke-width="2"/><rect x="544" y="184.9882604444449" width="8" height="56.29001377777604" fill="#ef5350"/><line x1="560" y1="180.352611999999" x2="560" y2="247.01764799999887" stroke="#26a69a" stroke-width="2"/><rect x="556" y="186.09198622222164" width="8" height="56.0692684444449" fill="#26a69a"/><line x1="572" y1="167.99088355555546" x2="572" y2="189.6239084444435" stroke="#26a69a" stroke-width="2"/><rect x="568" y="175.05472844444387" width="8" height="11.478748000000564" fill="#26a69a"/><line x1="584" y1="164.01747111111092" x2="584" y2="192.71434088888986" stroke="#26a69a" stroke-width="2"/><rect x="580" y="167.54939333333266" width="8" height="9.712786666667284" fill="#26a69a"/><line x1="596" y1="156.5121355555549" x2="596" y2="172.8472768888878" stroke="#26a69a" stroke-width="2"/><rect x="592" y="158.27809688888817" width="8" height="8.829806222221805" fill="#26a69a"/><line x1="608" y1="148.5653102222234" x2="608" y2="162.69300000000032" stroke="#26a69a" stroke-width="2"/><rect x="604" y="149.00680044444368" width="8" height="9.271296444444488" fill="#26a69a"/><line x1="620" y1="141.0599751111123" x2="620" y2="162.25150977777753" stroke="#ef5350" stroke-width="2"/><rect x="616" y="148.5653102222234" width="8" height="8.388315999999122" fill="#ef5350"/><line x1="632" y1="144.59189733333403" x2="632" y2="156.5121355555549" stroke="#26a69a" stroke-width="2"/><rect x="628" y="144.59189733333403" width="8" height="11.92023822222086" fill="#26a69a"/><line x1="644" y1="136.64507200000014" x2="644" y2="164.4589613333336" stroke="#ef5350" stroke-width="2"/><rect x="640" y="144.59189733333403" width="8" height="17.659612444443496" fill="#ef5350"/><line x1="656" y1="158.71958711111097" x2="656" y2="177.70367022222274" stroke="#ef5350" stroke-width="2"/><rect x="652" y="162.69300000000032" width="8" height="2.6489417777762583" fill="#ef5350"/><line x1="668" y1="160.92703866666693" x2="668" y2="179.91112177777882" stroke="#ef5350" stroke-width="2"/><rect x="664" y="168.87386444444314" width="8" height="7.946825333334004" fill="#ef5350"/><line x1="680" y1="163.5759804444433" x2="680" y2="176.82068977777715" stroke="#26a69a" stroke-width="2"/><rect x="676" y="168.87386444444314" width="8" height="7.063844888891026" fill="#26a69a"/><line x1="692" y1="170.63982533333433" x2="692" y2="186.09198622222164" stroke="#ef5350" stroke-width="2"/><rect x="688" y="170.63982533333433" width="8" height="14.569179999999506" fill="#ef5350"/><line x1="704" y1="175.05472844444387" x2="704" y2="213.9058751111104" stroke="#ef5350" stroke-width="2"/><rect x="700" y="182.11857333333228" width="8" height="29.579850222224422" fill="#ef5350"/><line x1="716" y1="210.81544311111134" x2="716" y2="240.39529333333326" stroke="#ef5350" stroke-width="2"/><rect x="712" y="211.6984235555567" width="8" height="23.398986222221424" fill="#ef5350"/><line x1="728" y1="175.93770933333417" x2="728" y2="236.8633711111114" stroke="#26a69a" stroke-width="2"/><rect x="724" y="183.44304444444538" width="8" height="52.09585555555543" fill="#26a69a"/><line x1="740" y1="171.9642964444448" x2="740" y2="196.24626311111172" stroke="#ef5350" stroke-width="2"/><rect x="736" y="185.65049599999895" width="8" height="9.71278666666717" fill="#ef5350"/><line x1="752" y1="187.4164568888899" x2="752" y2="211.6984235555567" stroke="#ef5350" stroke-width="2"/><rect x="748" y="197.5707342222222" width="8" height="14.127689333334501" fill="#ef5350"/><line x1="764" y1="199.77818533333345" x2="764" y2="217.87928799999975" stroke="#26a69a" stroke-width="2"/><rect x="760" y="209.04948177777794" width="8" height="2.2074515555560765" fill="#26a69a"/><line x1="776" y1="203.310108" x2="776" y2="218.32077822222243" stroke="#26a69a" stroke-width="2"/><rect x="772" y="207.28352088888937" width="8" height="2" fill="#26a69a"/><line x1="788" y1="195.80477288888892" x2="788" y2="209.93246266666574" stroke="#26a69a" stroke-width="2"/><rect x="784" y="195.80477288888892" width="8" height="11.47874800000045" fill="#26a69a"/><line x1="800" y1="181.2355928888893" x2="800" y2="199.77818533333345" stroke="#26a69a" stroke-width="2"/><rect x="796" y="193.59732133333284" width="8" height="3.090432000001556" fill="#26a69a"/><line x1="812" y1="184.76751511111104" x2="812" y2="198.01222444444488" stroke="#26a69a" stroke-width="2"/><rect x="808" y="184.76751511111104" width="8" height="10.595767555555085" fill="#26a69a"/><line x1="824" y1="177.26217999999994" x2="824" y2="196.24626311111172" stroke="#ef5350" stroke-width="2"/><rect x="820" y="184.76751511111104" width="8" height="5.73937422222275" fill="#ef5350"/><line x1="836" y1="187.85794755555503" x2="836" y2="211.6984235555567" stroke="#ef5350" stroke-width="2"/><rect x="832" y="190.5068893333338" width="8" height="18.10110222222147" fill="#ef5350"/><line x1="848" y1="170.19833511111142" x2="848" y2="207.72501111111228" stroke="#26a69a" stroke-width="2"/><rect x="844" y="175.93770933333417" width="8" height="31.78730177777811" fill="#26a69a"/><line x1="860" y1="174.1717480000009" x2="860" y2="198.01222444444488" stroke="#ef5350" stroke-width="2"/><rect x="856" y="176.82068977777715" width="8" height="16.776631555555696" fill="#ef5350"/><line x1="872" y1="193.15583111111005" x2="872" y2="258.93788622222223" stroke="#ef5350" stroke-width="2"/><rect x="868" y="193.59732133333284" width="8" height="51.21287511111245" fill="#ef5350"/><line x1="884" y1="235.09740977777813" x2="884" y2="278.3634595555567" stroke="#ef5350" stroke-width="2"/><rect x="880" y="244.8101964444453" width="8" height="12.361728444443543" fill="#ef5350"/><line x1="896" y1="240.83678400000076" x2="896" y2="273.50706622222174" stroke="#ef5350" stroke-width="2"/><rect x="892" y="256.73043466666616" width="8" height="9.71278666666717" fill="#ef5350"/><line x1="908" y1="220.5282297777785" x2="908" y2="264.23576977777725" stroke="#26a69a" stroke-width="2"/><rect x="904" y="244.3687062222226" width="8" height="18.98408311111166" fill="#26a69a"/><line x1="920" y1="232.88995822222205" x2="920" y2="260.30650622222106" stroke="#ef5350" stroke-width="2"/><rect x="916" y="244.3687062222226" width="8" height="2.6489417777762583" fill="#ef5350"/><line x1="932" y1="224.94313288888804" x2="932" y2="253.1985124444443" stroke="#26a69a" stroke-width="2"/><rect x="928" y="242.16125466666654" width="8" height="4.856393333332335" fill="#26a69a"/><line x1="944" y1="233.77293911111235" x2="944" y2="280.57091111111026" stroke="#ef5350" stroke-width="2"/><rect x="940" y="240.83678400000076" width="8" height="31.345811555555315" fill="#ef5350"/><line x1="956" y1="250.10808000000054" x2="956" y2="281.45389155555574" stroke="#26a69a" stroke-width="2"/><rect x="952" y="262.4698088888888" width="8" height="9.27129599999978" fill="#26a69a"/><line x1="968" y1="256.28894444444336" x2="968" y2="291.16667866666774" stroke="#ef5350" stroke-width="2"/><rect x="964" y="262.9112991111116" width="8" height="17.262270666666723" fill="#ef5350"/><line x1="980" y1="262.4698088888888" x2="980" y2="298.67201377777906" stroke="#ef5350" stroke-width="2"/><rect x="976" y="280.1294208888901" width="8" height="7.946825333331276" fill="#ef5350"/><line x1="992" y1="246.1346675555559" x2="992" y2="288.07624622222136" stroke="#26a69a" stroke-width="2"/><rect x="988" y="262.0283182222213" width="8" height="24.72345733333441" fill="#26a69a"/><line x1="1004" y1="249.22509955555495" x2="1004" y2="276.1560080000006" stroke="#26a69a" stroke-width="2"/><rect x="1000" y="259.37937644444503" width="8" height="3.0904324444437634" fill="#26a69a"/><line x1="1016" y1="496.0181795555551" x2="1016" y2="537.9597582222232" stroke="#ef5350" stroke-width="2"/><rect x="1012" y="512.353320888888" width="8" height="25.60643733333518" fill="#ef5350"/><line x1="1028" y1="537.9597582222232" x2="1028" y2="577.2523955555547" stroke="#ef5350" stroke-width="2"/><rect x="1024" y="538.4012484444434" width="8" height="36.20220533333497" fill="#ef5350"/><line x1="1040" y1="542.3746613333328" x2="1040" y2="587.8040137777766" stroke="#26a69a" stroke-width="2"/><rect x="1036" y="572.3960022222223" width="8" height="2.2074515555560765" fill="#26a69a"/><line x1="1052" y1="524.2735591111114" x2="1052" y2="584.7577306666658" stroke="#26a69a" stroke-width="2"/><rect x="1048" y="528.2469715555559" width="8" height="43.70753999999886" fill="#26a69a"/><line x1="1064" y1="526.083669333333" x2="1064" y2="562.2417248888901" stroke="#ef5350" stroke-width="2"/><rect x="1060" y="529.1299524444437" width="8" height="32.228792000000794" fill="#ef5350"/><line x1="1076" y1="552.9704288888878" x2="1076" y2="596.6779688888892" stroke="#ef5350" stroke-width="2"/><rect x="1072" y="560.475763999999" width="8" height="23.840476444446608" fill="#ef5350"/><line x1="1088" y1="576.8109048888896" x2="1088" y2="605.5077746666661" stroke="#ef5350" stroke-width="2"/><rect x="1084" y="581.2258079999992" width="8" height="21.63302488889053" fill="#ef5350"/><line x1="1100" y1="587.8481626666675" x2="1100" y2="635.9706057777784" stroke="#ef5350" stroke-width="2"/><rect x="1096" y="602.4173426666671" width="8" height="32.228792444443" fill="#ef5350"/><line x1="1112" y1="620.0769546666656" x2="1112" y2="657.1621404444436" stroke="#ef5350" stroke-width="2"/><rect x="1108" y="633.3216639999996" width="8" height="15.010670222222302" fill="#ef5350"/><line x1="1124" y1="628.4652706666672" x2="1124" y2="677.4706942222211" stroke="#ef5350" stroke-width="2"/><rect x="1120" y="648.7738244444447" width="8" height="20.308554222222256" fill="#ef5350"/><line x1="1136" y1="664.2259853333346" x2="1136" y2="699.5452097777768" stroke="#ef5350" stroke-width="2"/><rect x="1132" y="670.4068493333327" width="8" height="16.3351413333329" fill="#ef5350"/><line x1="1148" y1="668.6408884444443" x2="1148" y2="691.5983840000006" stroke="#ef5350" stroke-width="2"/><rect x="1144" y="686.7419906666656" width="8" height="4.414903111112039" fill="#ef5350"/><line x1="1160" y1="669.5238688888896" x2="1160" y2="694.2473257777767" stroke="#26a69a" stroke-width="2"/><rect x="1156" y="683.6515586666666" width="8" height="7.505335111111094" fill="#26a69a"/><line x1="1172" y1="677.0292040000008" x2="1172" y2="714.9973702222219" stroke="#ef5350" stroke-width="2"/><rect x="1168" y="686.3005004444453" width="8" height="3.973412888886969" fill="#ef5350"/><line x1="1184" y1="681.4441071111105" x2="1184" y2="711.9069382222228" stroke="#ef5350" stroke-width="2"/><rect x="1180" y="688.9494422222217" width="8" height="10.595767555555085" fill="#ef5350"/><line x1="1196" y1="677.4706942222211" x2="1196" y2="722.502705333333" stroke="#ef5350" stroke-width="2"/><rect x="1192" y="699.5452097777768" width="8" height="12.361728444446044" fill="#ef5350"/><line x1="1208" y1="671.289830222223" x2="1208" y2="725.1516471111119" stroke="#ef5350" stroke-width="2"/><rect x="1204" y="710.1409768888896" width="8" height="12.803218666666226" fill="#ef5350"/><line x1="1220" y1="714.1143897777788" x2="1220" y2="741.045298222222" stroke="#26a69a" stroke-width="2"/><rect x="1216" y="721.1782346666673" width="8" height="2" fill="#26a69a"/><line x1="1232" y1="711.9069382222228" x2="1232" y2="736.6303951111099" stroke="#ef5350" stroke-width="2"/><rect x="1228" y="722.0612151111103" width="8" height="12.803218666666226" fill="#ef5350"/><line x1="1244" y1="720.7367439999997" x2="1244" y2="750.7580848888892" stroke="#ef5350" stroke-width="2"/><rect x="1240" y="734.8644337777765" width="8" height="14.56918000000212" fill="#ef5350"/><line x1="1256" y1="718.5292924444436" x2="1256" y2="749.8751044444438" stroke="#26a69a" stroke-width="2"/><rect x="1252" y="732.6569822222231" width="8" height="17.2181222222207" fill="#26a69a"/><line x1="1268" y1="706.6090546666676" x2="1268" y2="733.5399631111109" stroke="#26a69a" stroke-width="2"/><rect x="1264" y="713.2314088888886" width="8" height="20.308554222222256" fill="#26a69a"/><line x1="1280" y1="706.6090546666676" x2="1280" y2="725.1516471111119" stroke="#26a69a" stroke-width="2"/><rect x="1276" y="707.9335253333334" width="8" height="3.5319226666666736" fill="#26a69a"/><line x1="1292" y1="697.3377582222231" x2="1292" y2="713.6728991111113" stroke="#26a69a" stroke-width="2"/><rect x="1288" y="701.3111706666677" width="8" height="5.739374222220135" fill="#26a69a"/><line x1="1304" y1="688.9494422222217" x2="1304" y2="712.3484284444455" stroke="#ef5350" stroke-width="2"/><rect x="1300" y="701.3111706666677" width="8" height="11.037257777777768" fill="#ef5350"/><line x1="1316" y1="711.9069382222228" x2="1316" y2="739.7208271111115" stroke="#ef5350" stroke-width="2"/><rect x="1312" y="711.9069382222228" width="8" height="23.840476444443993" fill="#ef5350"/><line x1="1328" y1="733.5399631111109" x2="1328" y2="765.7687551111117" stroke="#ef5350" stroke-width="2"/><rect x="1324" y="735.3059239999993" width="8" height="14.569180444444441" fill="#ef5350"/><line x1="1340" y1="728.2420795555557" x2="1340" y2="757.3804395555549" stroke="#ef5350" stroke-width="2"/><rect x="1336" y="748.992123555556" width="8" height="2" fill="#ef5350"/><line x1="1352" y1="746.3431817777771" x2="1352" y2="770.625148444444" stroke="#ef5350" stroke-width="2"/><rect x="1348" y="749.4336137777786" width="8" height="5.739374222220249" fill="#ef5350"/><line x1="1364" y1="756.0559684444444" x2="1364" y2="805.9443728888887" stroke="#ef5350" stroke-width="2"/><rect x="1360" y="757.8219297777777" width="8" height="33.994753333334074" fill="#ef5350"/><line x1="1376" y1="778.5719742222227" x2="1376" y2="797.1145666666669" stroke="#26a69a" stroke-width="2"/><rect x="1372" y="792.6996635555547" width="8" height="2" fill="#26a69a"/><line x1="1388" y1="790.4922120000012" x2="1388" y2="812.5667275555568" stroke="#ef5350" stroke-width="2"/><rect x="1384" y="791.375192888889" width="8" height="6.180864000000611" fill="#ef5350"/><line x1="1400" y1="790.0507217777784" x2="1400" y2="808.5933146666674" stroke="#26a69a" stroke-width="2"/><rect x="1396" y="790.9337026666662" width="8" height="5.739373777777928" fill="#26a69a"/><line x1="1412" y1="781.220915999999" x2="1412" y2="803.7369213333326" stroke="#26a69a" stroke-width="2"/><rect x="1408" y="787.4017799999997" width="8" height="3.9734128888893565" fill="#26a69a"/><line x1="1424" y1="777.6889933333324" x2="1424" y2="802.8539408888896" stroke="#ef5350" stroke-width="2"/><rect x="1420" y="786.9602897777769" width="8" height="9.271296444444488" fill="#ef5350"/><line x1="1436" y1="789.6092315555557" x2="1436" y2="805.9443728888887" stroke="#26a69a" stroke-width="2"/><rect x="1432" y="790.9337026666662" width="8" height="4.414902666667331" fill="#26a69a"/><line x1="1448" y1="782.98687688889" x2="1448" y2="806.8273533333341" stroke="#26a69a" stroke-width="2"/><rect x="1444" y="788.28476088889" width="8" height="3.5319222222217377" fill="#26a69a"/><line x1="1460" y1="787.4017799999997" x2="1460" y2="805.0613924444456" stroke="#ef5350" stroke-width="2"/><rect x="1456" y="788.5055057777789" width="8" height="3.752667555555604" fill="#ef5350"/><line x1="1472" y1="779.4549546666657" x2="1472" y2="808.1518244444446" stroke="#26a69a" stroke-width="2"/><rect x="1468" y="782.5453866666672" width="8" height="10.154276888887466" fill="#26a69a"/><line x1="1484" y1="771.9496195555545" x2="1484" y2="794.9071151111108" stroke="#ef5350" stroke-width="2"/><rect x="1480" y="782.1038964444446" width="8" height="9.71278666666717" fill="#ef5350"/><line x1="1496" y1="792.6996635555547" x2="1496" y2="842.1465777777788" stroke="#ef5350" stroke-width="2"/><rect x="1492" y="792.6996635555547" width="8" height="41.0585982222226" fill="#ef5350"/><line x1="1508" y1="798.8805280000001" x2="1508" y2="834.1997524444448" stroke="#26a69a" stroke-width="2"/><rect x="1504" y="801.9709599999992" width="8" height="31.78730177777811" fill="#26a69a"/><line x1="1520" y1="795.3486053333336" x2="1520" y2="817.8646111111119" stroke="#ef5350" stroke-width="2"/><rect x="1516" y="802.412450222222" width="8" height="12.361728888888365" fill="#ef5350"/><line x1="1532" y1="805.0613924444456" x2="1532" y2="824.4869657777776" stroke="#26a69a" stroke-width="2"/><rect x="1528" y="806.3858631111113" width="8" height="6.225013333333777" fill="#26a69a"/><line x1="1544" y1="807.710334222222" x2="1544" y2="824.04547511111" stroke="#ef5350" stroke-width="2"/><rect x="1540" y="807.710334222222" width="8" height="11.920238222223247" fill="#ef5350"/><line x1="1556" y1="801.0879795555562" x2="1556" y2="828.0188879999994" stroke="#ef5350" stroke-width="2"/><rect x="1552" y="819.6305724444452" width="8" height="2" fill="#ef5350"/><line x1="1568" y1="808.1518244444446" x2="1568" y2="838.1731648888895" stroke="#ef5350" stroke-width="2"/><rect x="1564" y="819.6305724444452" width="8" height="9.712786666664783" fill="#ef5350"/><line x1="1580" y1="806.3858631111113" x2="1580" y2="832.8752813333343" stroke="#26a69a" stroke-width="2"/><rect x="1576" y="812.5667275555568" width="8" height="18.10110222222147" fill="#26a69a"/><line x1="1592" y1="813.0082177777771" x2="1592" y2="839.0561457777771" stroke="#ef5350" stroke-width="2"/><rect x="1588" y="813.0082177777771" width="8" height="26.04792800000007" fill="#ef5350"/><line x1="1604" y1="822.7210044444442" x2="1604" y2="843.0295582222218" stroke="#26a69a" stroke-width="2"/><rect x="1600" y="823.162494666667" width="8" height="16.776631555555696" fill="#26a69a"/><line x1="1616" y1="821.3965333333338" x2="1616" y2="845.6785000000006" stroke="#ef5350" stroke-width="2"/><rect x="1612" y="823.6039848888898" width="8" height="18.984083111109157" fill="#ef5350"/><line x1="1628" y1="839.9391262222227" x2="1628" y2="871.2849377777779" stroke="#ef5350" stroke-width="2"/><rect x="1624" y="841.2635973333332" width="8" height="26.04792755555536" fill="#ef5350"/><line x1="1640" y1="855.3912866666678" x2="1640" y2="871.7264280000007" stroke="#26a69a" stroke-width="2"/><rect x="1636" y="863.338112444444" width="8" height="6.180864000000611" fill="#26a69a"/><line x1="1652" y1="859.3646995555547" x2="1652" y2="885.8541177777776" stroke="#26a69a" stroke-width="2"/><rect x="1648" y="860.247680444445" width="8" height="3.5319222222218514" fill="#26a69a"/><line x1="1664" y1="839.9391262222227" x2="1664" y2="860.6891706666678" stroke="#26a69a" stroke-width="2"/><rect x="1660" y="849.6960617777783" width="8" height="9.227147555556144" fill="#26a69a"/><line x1="1676" y1="828.0188879999994" x2="1676" y2="856.7157577777784" stroke="#26a69a" stroke-width="2"/><rect x="1672" y="843.4710488888893" width="8" height="7.505335111111208" fill="#26a69a"/><line x1="1688" y1="837.7316746666667" x2="1688" y2="859.8503391111105" stroke="#ef5350" stroke-width="2"/><rect x="1684" y="844.3540293333323" width="8" height="8.388315555556687" fill="#ef5350"/><line x1="1700" y1="835.5242231111106" x2="1700" y2="855.8327773333328" stroke="#26a69a" stroke-width="2"/><rect x="1696" y="852.3008546666663" width="8" height="2" fill="#26a69a"/><line x1="1712" y1="847.444461333334" x2="1712" y2="862.4551315555562" stroke="#ef5350" stroke-width="2"/><rect x="1708" y="853.1838355555566" width="8" height="5.739373777777814" fill="#ef5350"/><line x1="1724" y1="853.6253257777768" x2="1724" y2="870.6227022222215" stroke="#ef5350" stroke-width="2"/><rect x="1720" y="857.1572480000011" width="8" height="11.478747999998063" fill="#ef5350"/><line x1="1736" y1="854.949796444445" x2="1736" y2="869.5189764444447" stroke="#26a69a" stroke-width="2"/><rect x="1732" y="862.8966222222213" width="8" height="4.85639333333495" fill="#26a69a"/><line x1="1748" y1="847.8859515555566" x2="1748" y2="865.9870542222229" stroke="#26a69a" stroke-width="2"/><rect x="1744" y="852.742344888889" width="8" height="9.271296444444488" fill="#26a69a"/><line x1="1760" y1="806.3858631111113" x2="1760" y2="852.742344888889" stroke="#26a69a" stroke-width="2"/><rect x="1756" y="808.5933146666674" width="8" height="43.70753999999886" fill="#26a69a"/><line x1="1772" y1="791.8166831111117" x2="1772" y2="819.6305724444452" stroke="#26a69a" stroke-width="2"/><rect x="1768" y="809.4762951111104" width="8" height="2" fill="#26a69a"/><line x1="1784" y1="801.9709599999992" x2="1784" y2="846.1199906666657" stroke="#ef5350" stroke-width="2"/><rect x="1780" y="809.917785777778" width="8" height="33.994753333334074" fill="#ef5350"/><line x1="1796" y1="824.4869657777776" x2="1796" y2="844.3540293333323" stroke="#26a69a" stroke-width="2"/><rect x="1792" y="826.6944173333336" width="8" height="17.659611999998674" fill="#26a69a"/><line x1="1808" y1="802.8539408888896" x2="1808" y2="829.7848493333327" stroke="#26a69a" stroke-width="2"/><rect x="1804" y="803.7369213333326" width="8" height="25.164947111112383" fill="#26a69a"/><line x1="1820" y1="790.9337026666662" x2="1820" y2="829.34335911111" stroke="#ef5350" stroke-width="2"/><rect x="1816" y="805.0613924444456" width="8" height="20.75004399999773" fill="#ef5350"/><line x1="1832" y1="805.9443728888887" x2="1832" y2="825.8114364444433" stroke="#26a69a" stroke-width="2"/><rect x="1828" y="813.0082177777771" width="8" height="12.803218666666226" fill="#26a69a"/><line x1="1844" y1="787.8432702222224" x2="1844" y2="814.7741791111104" stroke="#26a69a" stroke-width="2"/><rect x="1840" y="796.6730764444442" width="8" height="16.3351413333329" fill="#26a69a"/><line x1="1856" y1="783.8698577777778" x2="1856" y2="813.4497079999998" stroke="#ef5350" stroke-width="2"/><rect x="1852" y="796.6730764444442" width="8" height="11.920238222223247" fill="#ef5350"/><line x1="1868" y1="796.6730764444442" x2="1868" y2="813.4497079999998" stroke="#26a69a" stroke-width="2"/><rect x="1864" y="808.1518244444446" width="8" height="2" fill="#26a69a"/><line x1="1880" y1="791.375192888889" x2="1880" y2="814.9949239999993" stroke="#26a69a" stroke-width="2"/><rect x="1876" y="805.5028826666659" width="8" height="2" fill="#26a69a"/><line x1="1892" y1="798.8805280000001" x2="1892" y2="813.0082177777771" stroke="#ef5350" stroke-width="2"/><rect x="1888" y="805.0613924444456" width="8" height="4.8563933333324485" fill="#ef5350"/><line x1="1904" y1="802.8539408888896" x2="1904" y2="839.4976359999999" stroke="#ef5350" stroke-width="2"/><rect x="1900" y="810.800766222221" width="8" height="26.047928000000184" fill="#ef5350"/><line x1="1916" y1="817.8646111111119" x2="1916" y2="838.1731648888895" stroke="#26a69a" stroke-width="2"/><rect x="1912" y="828.0188879999994" width="8" height="7.946825333334004" fill="#26a69a"/><line x1="1928" y1="782.1038964444446" x2="1928" y2="828.901868444445" stroke="#26a69a" stroke-width="2"/><rect x="1924" y="791.375192888889" width="8" height="35.31922444444456" fill="#26a69a"/><line x1="1940" y1="776.3645226666666" x2="1940" y2="805.9443728888887" stroke="#ef5350" stroke-width="2"/><rect x="1936" y="789.6092315555557" width="8" height="7.063844888888525" fill="#ef5350"/><rect x="75" y="953.1997903420615" width="10" height="66.80020965793847" fill="#26a69a" opacity="0.9"/><rect x="87" y="994.8757624788253" width="10" height="25.124237521174678" fill="#ef5350" opacity="0.9"/><rect x="99" y="985.8931352217741" width="10" height="34.10686477822594" fill="#ef5350" opacity="0.9"/><rect x="111" y="985.4324194981883" width="10" height="34.567580501811676" fill="#26a69a" opacity="0.9"/><rect x="123" y="989.3851553063969" width="10" height="30.614844693603118" fill="#26a69a" opacity="0.9"/><rect x="135" y="996.0809158101836" width="10" height="23.91908418981643" fill="#26a69a" opacity="0.9"/><rect x="147" y="997.8918742356221" width="10" height="22.10812576437786" fill="#ef5350" opacity="0.9"/><rect x="159" y="1000.2269775073494" width="10" height="19.773022492650625" fill="#26a69a" opacity="0.9"/><rect x="171" y="1002.5886678364972" width="10" height="17.411332163502834" fill="#26a69a" opacity="0.9"/><rect x="183" y="982.4835350151546" width="10" height="37.516464984845356" fill="#ef5350" opacity="0.9"/><rect x="195" y="993.2315428849237" width="10" height="26.76845711507633" fill="#26a69a" opacity="0.9"/><rect x="207" y="1001.1879097255456" width="10" height="18.812090274454363" fill="#26a69a" opacity="0.9"/><rect x="219" y="997.6373981145978" width="10" height="22.362601885402228" fill="#26a69a" opacity="0.9"/><rect x="231" y="999.8855237270496" width="10" height="20.114476272950355" fill="#26a69a" opacity="0.9"/><rect x="243" y="1001.7310453271348" width="10" height="18.26895467286522" fill="#26a69a" opacity="0.9"/><rect x="255" y="999.2838965991356" width="10" height="20.716103400864426" fill="#26a69a" opacity="0.9"/><rect x="267" y="1001.9467803073463" width="10" height="18.05321969265367" fill="#ef5350" opacity="0.9"/><rect x="279" y="996.6126569585925" width="10" height="23.387343041407462" fill="#ef5350" opacity="0.9"/><rect x="291" y="1004.0296863486855" width="10" height="15.970313651314541" fill="#26a69a" opacity="0.9"/><rect x="303" y="1005.4376609466511" width="10" height="14.562339053348865" fill="#26a69a" opacity="0.9"/><rect x="315" y="1000.7742910751047" width="10" height="19.225708924895343" fill="#ef5350" opacity="0.9"/><rect x="327" y="1001.9361454843782" width="10" height="18.063854515621756" fill="#26a69a" opacity="0.9"/><rect x="339" y="1002.3915437964798" width="10" height="17.608456203520177" fill="#26a69a" opacity="0.9"/><rect x="351" y="1005.550086218029" width="10" height="14.449913781970963" fill="#26a69a" opacity="0.9"/><rect x="363" y="1006.9880662093693" width="10" height="13.011933790630678" fill="#ef5350" opacity="0.9"/><rect x="375" y="1005.5022295146723" width="10" height="14.497770485327692" fill="#26a69a" opacity="0.9"/><rect x="387" y="1003.1375006646764" width="10" height="16.862499335323605" fill="#26a69a" opacity="0.9"/><rect x="399" y="995.1040313575352" width="10" height="24.895968642464823" fill="#ef5350" opacity="0.9"/><rect x="411" y="999.8141184871205" width="10" height="20.18588151287952" fill="#ef5350" opacity="0.9"/><rect x="423" y="1000.5437433057588" width="10" height="19.456256694241233" fill="#ef5350" opacity="0.9"/><rect x="435" y="1002.1252934071694" width="10" height="17.87470659283065" fill="#ef5350" opacity="0.9"/><rect x="447" y="1003.3608319470083" width="10" height="16.63916805299175" fill="#26a69a" opacity="0.9"/><rect x="459" y="1004.0068974423251" width="10" height="15.993102557674888" fill="#ef5350" opacity="0.9"/><rect x="471" y="997.888076084562" width="10" height="22.111923915437956" fill="#ef5350" opacity="0.9"/><rect x="483" y="993.132790957362" width="10" height="26.867209042638024" fill="#ef5350" opacity="0.9"/><rect x="495" y="1003.1944729305774" width="10" height="16.805527069422624" fill="#ef5350" opacity="0.9"/><rect x="507" y="986.2995373852009" width="10" height="33.70046261479911" fill="#ef5350" opacity="0.9"/><rect x="519" y="990.8827662693801" width="10" height="29.117233730619887" fill="#26a69a" opacity="0.9"/><rect x="531" y="997.9040283190143" width="10" height="22.095971680985713" fill="#ef5350" opacity="0.9"/><rect x="543" y="986.4898247533101" width="10" height="33.51017524668987" fill="#ef5350" opacity="0.9"/><rect x="555" y="976.3609155063315" width="10" height="43.63908449366852" fill="#26a69a" opacity="0.9"/><rect x="567" y="988.266599819208" width="10" height="31.733400180792046" fill="#26a69a" opacity="0.9"/><rect x="579" y="993.0515105246766" width="10" height="26.948489475323413" fill="#26a69a" opacity="0.9"/><rect x="591" y="998.0810221584132" width="10" height="21.918977841586752" fill="#26a69a" opacity="0.9"/><rect x="603" y="983.3643262459834" width="10" height="36.63567375401658" fill="#26a69a" opacity="0.9"/><rect x="615" y="1000.9212795211291" width="10" height="19.078720478870878" fill="#ef5350" opacity="0.9"/><rect x="627" y="997.3210121312945" width="10" height="22.678987868705462" fill="#26a69a" opacity="0.9"/><rect x="639" y="993.427147664517" width="10" height="26.57285233548305" fill="#ef5350" opacity="0.9"/><rect x="651" y="999.0917101554963" width="10" height="20.908289844503656" fill="#ef5350" opacity="0.9"/><rect x="663" y="1001.7386416292549" width="10" height="18.261358370745143" fill="#ef5350" opacity="0.9"/><rect x="675" y="1005.5622403014213" width="10" height="14.437759698578702" fill="#26a69a" opacity="0.9"/><rect x="687" y="1001.4659343831423" width="10" height="18.534065616857674" fill="#ef5350" opacity="0.9"/><rect x="699" y="990.346847154805" width="10" height="29.653152845194995" fill="#ef5350" opacity="0.9"/><rect x="711" y="980.2749101737274" width="10" height="39.72508982627255" fill="#ef5350" opacity="0.9"/><rect x="723" y="967.781651891859" width="10" height="52.21834810814096" fill="#26a69a" opacity="0.9"/><rect x="735" y="990.6613340625784" width="10" height="29.338665937421638" fill="#ef5350" opacity="0.9"/><rect x="747" y="983.4456066786688" width="10" height="36.55439332133119" fill="#ef5350" opacity="0.9"/><rect x="759" y="978.4806636129532" width="10" height="41.51933638704679" fill="#26a69a" opacity="0.9"/><rect x="771" y="990.5527069422606" width="10" height="29.447293057739444" fill="#26a69a" opacity="0.9"/><rect x="783" y="983.6419710884742" width="10" height="36.35802891152582" fill="#26a69a" opacity="0.9"/><rect x="795" y="974.5974339691438" width="10" height="45.40256603085618" fill="#26a69a" opacity="0.9"/><rect x="807" y="993.609838730506" width="10" height="26.390161269494" fill="#26a69a" opacity="0.9"/><rect x="819" y="1002.6012017349954" width="10" height="17.398798265004643" fill="#ef5350" opacity="0.9"/><rect x="831" y="1002.2863350121161" width="10" height="17.71366498788393" fill="#ef5350" opacity="0.9"/><rect x="843" y="990.7399557895217" width="10" height="29.260044210478327" fill="#26a69a" opacity="0.9"/><rect x="855" y="996.7505298420729" width="10" height="23.249470157927135" fill="#ef5350" opacity="0.9"/><rect x="867" y="967.8587543583783" width="10" height="52.14124564162171" fill="#ef5350" opacity="0.9"/><rect x="879" y="968.0991773204804" width="10" height="51.90082267951959" fill="#ef5350" opacity="0.9"/><rect x="891" y="979.4943901308843" width="10" height="40.50560986911569" fill="#ef5350" opacity="0.9"/><rect x="903" y="982.3061613606496" width="10" height="37.69383863935036" fill="#26a69a" opacity="0.9"/><rect x="915" y="990.5671399162887" width="10" height="29.43286008371126" fill="#ef5350" opacity="0.9"/><rect x="927" y="988.0041475809576" width="10" height="31.99585241904242" fill="#26a69a" opacity="0.9"/><rect x="939" y="979.8445796586221" width="10" height="40.15542034137786" fill="#ef5350" opacity="0.9"/><rect x="951" y="989.7729465296294" width="10" height="30.227053470370606" fill="#26a69a" opacity="0.9"/><rect x="963" y="964.2391163981374" width="10" height="55.76088360186259" fill="#ef5350" opacity="0.9"/><rect x="975" y="979.4518508390115" width="10" height="40.54814916098849" fill="#ef5350" opacity="0.9"/><rect x="987" y="968.8341195506027" width="10" height="51.165880449397264" fill="#26a69a" opacity="0.9"/><rect x="999" y="860.0" width="10" height="160.0" fill="#26a69a" opacity="0.9"/><rect x="1011" y="886.2972584945649" width="10" height="133.70274150543514" fill="#ef5350" opacity="0.9"/><rect x="1023" y="934.879408703843" width="10" height="85.12059129615704" fill="#ef5350" opacity="0.9"/><rect x="1035" y="967.3277728401814" width="10" height="52.67222715981859" fill="#26a69a" opacity="0.9"/><rect x="1047" y="960.1481278913425" width="10" height="59.85187210865752" fill="#26a69a" opacity="0.9"/><rect x="1059" y="965.8468737418625" width="10" height="54.15312625813749" fill="#ef5350" opacity="0.9"/><rect x="1071" y="978.8285742500551" width="10" height="41.17142574994489" fill="#ef5350" opacity="0.9"/><rect x="1083" y="986.9771275343163" width="10" height="33.02287246568369" fill="#ef5350" opacity="0.9"/><rect x="1095" y="979.3485411301779" width="10" height="40.651458869822136" fill="#ef5350" opacity="0.9"/><rect x="1107" y="969.7509932165023" width="10" height="50.24900678349775" fill="#ef5350" opacity="0.9"/><rect x="1119" y="980.6121859878612" width="10" height="39.38781401213885" fill="#ef5350" opacity="0.9"/><rect x="1131" y="977.5580927204637" width="10" height="42.44190727953628" fill="#ef5350" opacity="0.9"/><rect x="1143" y="983.8250419695692" width="10" height="36.174958030430844" fill="#ef5350" opacity="0.9"/><rect x="1155" y="986.6850497177974" width="10" height="33.31495028220263" fill="#26a69a" opacity="0.9"/><rect x="1167" y="977.5911366346862" width="10" height="42.40886336531378" fill="#ef5350" opacity="0.9"/><rect x="1179" y="993.7154273299758" width="10" height="26.284572670024204" fill="#ef5350" opacity="0.9"/><rect x="1191" y="978.4362252455504" width="10" height="41.56377475444958" fill="#ef5350" opacity="0.9"/><rect x="1203" y="967.247631852814" width="10" height="52.75236814718596" fill="#ef5350" opacity="0.9"/><rect x="1215" y="977.690268377354" width="10" height="42.30973162264604" fill="#26a69a" opacity="0.9"/><rect x="1227" y="982.1071382451023" width="10" height="37.892861754897694" fill="#ef5350" opacity="0.9"/><rect x="1239" y="980.1009548551765" width="10" height="39.8990451448235" fill="#ef5350" opacity="0.9"/><rect x="1251" y="994.7314327385428" width="10" height="25.26856726145718" fill="#26a69a" opacity="0.9"/><rect x="1263" y="988.9153240202669" width="10" height="31.084675979733106" fill="#26a69a" opacity="0.9"/><rect x="1275" y="989.9191753454419" width="10" height="30.080824654558114" fill="#26a69a" opacity="0.9"/><rect x="1287" y="990.8660544047158" width="10" height="29.133945595284217" fill="#26a69a" opacity="0.9"/><rect x="1299" y="977.8581466542088" width="10" height="42.14185334579122" fill="#ef5350" opacity="0.9"/><rect x="1311" y="986.7412623534864" width="10" height="33.25873764651362" fill="#ef5350" opacity="0.9"/><rect x="1323" y="988.8997516009207" width="10" height="31.100248399079305" fill="#ef5350" opacity="0.9"/><rect x="1335" y="973.6805603032444" width="10" height="46.31943969675558" fill="#ef5350" opacity="0.9"/><rect x="1347" y="989.1333378911146" width="10" height="30.866662108885407" fill="#ef5350" opacity="0.9"/><rect x="1359" y="980.191350850406" width="10" height="39.808649149593975" fill="#ef5350" opacity="0.9"/><rect x="1371" y="982.1679086620633" width="10" height="37.83209133793673" fill="#26a69a" opacity="0.9"/><rect x="1383" y="990.8128802898749" width="10" height="29.187119710125103" fill="#ef5350" opacity="0.9"/><rect x="1395" y="995.930509028205" width="10" height="24.06949097179495" fill="#26a69a" opacity="0.9"/><rect x="1407" y="969.4068807304604" width="10" height="50.59311926953956" fill="#26a69a" opacity="0.9"/><rect x="1419" y="983.5272669264602" width="10" height="36.47273307353976" fill="#ef5350" opacity="0.9"/><rect x="1431" y="989.5541730285697" width="10" height="30.44582697143028" fill="#26a69a" opacity="0.9"/><rect x="1443" y="971.0852836839026" width="10" height="48.91471631609738" fill="#26a69a" opacity="0.9"/><rect x="1455" y="984.9371405999559" width="10" height="35.06285940004409" fill="#ef5350" opacity="0.9"/><rect x="1467" y="987.7747392569297" width="10" height="32.225260743070294" fill="#26a69a" opacity="0.9"/><rect x="1479" y="983.1113693853832" width="10" height="36.88863061461677" fill="#ef5350" opacity="0.9"/><rect x="1491" y="976.2500094953776" width="10" height="43.74999050462236" fill="#ef5350" opacity="0.9"/><rect x="1503" y="983.3164695426267" width="10" height="36.68353045737331" fill="#26a69a" opacity="0.9"/><rect x="1515" y="994.619387282271" width="10" height="25.380612717729036" fill="#ef5350" opacity="0.9"/><rect x="1527" y="993.4544943521494" width="10" height="26.545505647850632" fill="#26a69a" opacity="0.9"/><rect x="1539" y="988.9145643900549" width="10" height="31.08543560994508" fill="#ef5350" opacity="0.9"/><rect x="1551" y="978.7347599188715" width="10" height="41.26524008112847" fill="#ef5350" opacity="0.9"/><rect x="1563" y="995.096814870521" width="10" height="24.90318512947897" fill="#ef5350" opacity="0.9"/><rect x="1575" y="995.9521584892474" width="10" height="24.04784151075262" fill="#26a69a" opacity="0.9"/><rect x="1587" y="993.1396276292701" width="10" height="26.86037237072992" fill="#ef5350" opacity="0.9"/><rect x="1599" y="996.6886199797939" width="10" height="23.311380020206116" fill="#26a69a" opacity="0.9"/><rect x="1611" y="999.0928496008144" width="10" height="20.90715039918564" fill="#ef5350" opacity="0.9"/><rect x="1623" y="967.7820317069651" width="10" height="52.217968293034914" fill="#ef5350" opacity="0.9"/><rect x="1635" y="995.0105968414575" width="10" height="24.989403158542473" fill="#26a69a" opacity="0.9"/><rect x="1647" y="968.5917975129707" width="10" height="51.40820248702926" fill="#26a69a" opacity="0.9"/><rect x="1659" y="988.1332847169998" width="10" height="31.86671528300019" fill="#26a69a" opacity="0.9"/><rect x="1671" y="993.6531376525908" width="10" height="26.34686234740923" fill="#26a69a" opacity="0.9"/><rect x="1683" y="997.2408711439272" width="10" height="22.759128856072834" fill="#ef5350" opacity="0.9"/><rect x="1695" y="976.2435526385756" width="10" height="43.75644736142442" fill="#26a69a" opacity="0.9"/><rect x="1707" y="999.1163981373867" width="10" height="20.883601862613318" fill="#ef5350" opacity="0.9"/><rect x="1719" y="998.2933388026709" width="10" height="21.70666119732914" fill="#ef5350" opacity="0.9"/><rect x="1731" y="998.5064150771404" width="10" height="21.493584922859554" fill="#26a69a" opacity="0.9"/><rect x="1743" y="1002.6031008105255" width="10" height="17.39689918947454" fill="#26a69a" opacity="0.9"/><rect x="1755" y="982.8914564390055" width="10" height="37.10854356099446" fill="#26a69a" opacity="0.9"/><rect x="1767" y="954.7228489171471" width="10" height="65.27715108285292" fill="#26a69a" opacity="0.9"/><rect x="1779" y="991.416786308425" width="10" height="28.583213691574997" fill="#ef5350" opacity="0.9"/><rect x="1791" y="989.5488556170856" width="10" height="30.451144382914435" fill="#26a69a" opacity="0.9"/><rect x="1803" y="981.4143554917466" width="10" height="38.58564450825338" fill="#26a69a" opacity="0.9"/><rect x="1815" y="992.5554719962322" width="10" height="27.4445280037678" fill="#ef5350" opacity="0.9"/><rect x="1827" y="1003.0364698464788" width="10" height="16.96353015352122" fill="#26a69a" opacity="0.9"/><rect x="1839" y="997.531049884916" width="10" height="22.468950115084" fill="#26a69a" opacity="0.9"/><rect x="1851" y="993.4187917321848" width="10" height="26.581208267815214" fill="#ef5350" opacity="0.9"/><rect x="1863" y="983.4991606086157" width="10" height="36.50083939138426" fill="#26a69a" opacity="0.9"/><rect x="1875" y="990.9644265171714" width="10" height="29.035573482828568" fill="#26a69a" opacity="0.9"/><rect x="1887" y="990.6157562498576" width="10" height="29.384243750142446" fill="#ef5350" opacity="0.9"/><rect x="1899" y="974.2833268764765" width="10" height="45.71667312352349" fill="#ef5350" opacity="0.9"/><rect x="1911" y="972.9023191510373" width="10" height="47.09768084896268" fill="#26a69a" opacity="0.9"/><rect x="1923" y="949.1710915126516" width="10" height="70.82890848734837" fill="#26a69a" opacity="0.9"/><rect x="1935" y="863.3366757062662" width="10" height="156.6633242937338" fill="#ef5350" opacity="0.9"/><rect x="1004" y="259.37937644444503" width="12" height="252.97394444444296" fill="#ff2400" opacity="0.60"/><polyline points="320,156.2272694507909,332,156.59077314330966,344,155.3639296905077,356,154.33802184696663,368,154.29280012609127,380,152.33876057969212,392,150.255469857815,404,150.0524555856424,416,150.4574297626707,428,151.11816182760163,440,152.26257405566025,452,152.58320082284627,464,154.93357979209782,476,157.69081358967526,488,160.94229420018053,500,164.26253026577092,512,169.24274803940182,524,170.42697042718373,536,171.70864321189526,548,178.33432235573684,560,179.07314748587794,572,178.6904409105016,584,177.6293887602959,596,175.78640858206552,608,173.23596971181757,620,171.68527033185853,632,169.10494909390206,644,168.45224058760482,656,168.15602165333473,668,168.98122814137776,680,168.97100302738477,692,170.51747943747455,704,174.4394741153883,716,180.21642036894968,728,180.5237178999505,740,181.9370097824958,752,184.7714301418339,764,187.08362553573147,776,189.00742509317502,788,189.65479154990885,800,190.0302705769011,812,189.52905577063518,824,189.6221827766061,836,191.43035504126954,848,189.95486497384616,860,190.30176557951108,872,195.49304470950415,884,201.36722377420836,896,207.56493782745724,908,211.07005862695837,920,214.49363856724835,932,217.12864962433582,944,222.37188257016794,956,226.19073269576245,968,231.33195527500197,980,236.73617346045023,992,239.14494915204864,1004,241.07203746561186,1016,269.3470584900499,1028,298.4190961364977,1040,324.51213481132925,1052,343.9154525964922,1064,364.624337534393,1076,385.5473759067788,1088,406.24370514317184,1100,427.9963175210696,1112,448.9807000640364,1124,469.9427646928598,1136,490.5903100236982,1148,509.6918894288491,1160,526.2594769753074,1172,541.8798994855958,1184,556.8956433229484,1196,571.6586237895449,1208,586.0667734815454,1220,598.9345316896536,1232,611.8802366504269,1244,624.9805582816028,1256,635.2354557997564,1268,642.6636418082454,1280,648.8798211915865,1292,653.873283046356,1304,659.4423445128415,1316,666.7094940513026,1328,674.6300283744581,1340,681.7541793652506,1352,688.7464468542753,1364,698.5626598311153,1376,707.5280887572515,1388,716.1021809602643,1400,723.2289925513492,1412,729.3406865940774,1424,735.7112484634248,1436,740.9705298161144,1448,745.4766470611402,1460,749.9320305156339,1472,753.038064434779,1484,756.7312662134757,1496,764.0671705529307,1508,767.6770552621747,1520,772.1624956287416,1532,775.4218639603955,1544,779.6322171493532,1556,783.525677695977,1568,787.8892664021805,1580,790.2395007977399,1592,794.8887050815554,1604,797.5814469468029,1616,801.8677918090109,1628,808.1005282928093,1640,813.3612505929655,1652,817.8266248645336,1664,820.8618093324629,1676,823.0150702425994,1688,825.8462392565308,1700,828.3657264384475,1712,831.2759629046266,1724,834.834061294661,1736,837.5066861449063,1748,838.957701263381,1760,836.0658549208388,1772,833.5335158913418,1784,834.5219942932267,1796,833.7765107732366,1808,830.9155974932461,1820,830.42948691717,1832,828.7703184277032,1844,825.7134382388207,1856,824.0829502795704,1868,822.5657002000339,1880,820.9406699587614,1892,819.8908714653347,1904,821.5059022040855,1916,822.1261865656011,1928,819.1975205011532,1940,817.0523353528956" fill="none" stroke="#0090ff" stroke-width="2"/><line x1="80" y1="50" x2="80" y2="900" stroke="#666666" stroke-width="0.5" stroke-dasharray="4,4" opacity="0.90"/><line x1="152" y1="50" x2="152" y2="900" stroke="#666666" stroke-width="0.5" stroke-dasharray="4,4" opacity="0.90"/><line x1="224" y1="50" x2="224" y2="900" stroke="#666666" stroke-width="0.5" stroke-dasharray="4,4" opacity="0.90"/><line x1="296" y1="50" x2="296" y2="900" stroke="#666666" stroke-width="0.5" stroke-dasharray="4,4" opacity="0.90"/><line x1="368" y1="50" x2="368" y2="900" stroke="#666666" stroke-width="0.5" stroke-dasharray="4,4" opacity="0.90"/><line x1="440" y1="50" x2="440" y2="900" stroke="#666666" stroke-width="0.5" stroke-dasharray="4,4" opacity="0.90"/><line x1="512" y1="50" x2="512" y2="900" stroke="#666666" stroke-width="0.5" stroke-dasharray="4,4" opacity="0.90"/><line x1="584" y1="50" x2="584" y2="900" stroke="#666666" stroke-width="0.5" stroke-dasharray="4,4" opacity="0.90"/><line x1="656" y1="50" x2="656" y2="900" stroke="#666666" stroke-width="0.5" stroke-dasharray="4,4" opacity="0.90"/><line x1="728" y1="50" x2="728" y2="900" stroke="#666666" stroke-width="0.5" stroke-dasharray="4,4" opacity="0.90"/><line x1="800" y1="50" x2="800" y2="900" stroke="#666666" stroke-width="0.5" stroke-dasharray="4,4" opacity="0.90"/><line x1="872" y1="50" x2="872" y2="900" stroke="#666666" stroke-width="0.5" stroke-dasharray="4,4" opacity="0.90"/><line x1="944" y1="50" x2="944" y2="900" stroke="#666666" stroke-width="0.5" stroke-dasharray="4,4" opacity="0.90"/><line x1="1010" y1="30" x2="1010" y2="950" stroke="black" stroke-width="0.7"/><line x1="1016" y1="50" x2="1016" y2="900" stroke="#666666" stroke-width="0.5" stroke-dasharray="4,4" opacity="0.90"/><line x1="1088" y1="50" x2="1088" y2="900" stroke="#666666" stroke-width="0.5" stroke-dasharray="4,4" opacity="0.90"/><line x1="1160" y1="50" x2="1160" y2="900" stroke="#666666" stroke-width="0.5" stroke-dasharray="4,4" opacity="0.90"/><line x1="1232" y1="50" x2="1232" y2="900" stroke="#666666" stroke-width="0.5" stroke-dasharray="4,4" opacity="0.90"/><line x1="1304" y1="50" x2="1304" y2="900" stroke="#666666" stroke-width="0.5" stroke-dasharray="4,4" opacity="0.90"/><line x1="1376" y1="50" x2="1376" y2="900" stroke="#666666" stroke-width="0.5" stroke-dasharray="4,4" opacity="0.90"/><line x1="1448" y1="50" x2="1448" y2="900" stroke="#666666" stroke-width="0.5" stroke-dasharray="4,4" opacity="0.90"/><line x1="1520" y1="50" x2="1520" y2="900" stroke="#666666" stroke-width="0.5" stroke-dasharray="4,4" opacity="0.90"/><line x1="1592" y1="50" x2="1592" y2="900" stroke="#666666" stroke-width="0.5" stroke-dasharray="4,4" opacity="0.90"/><line x1="1664" y1="50" x2="1664" y2="900" stroke="#666666" stroke-width="0.5" stroke-dasharray="4,4" opacity="0.90"/><line x1="1736" y1="50" x2="1736" y2="900" stroke="#666666" stroke-width="0.5" stroke-dasharray="4,4" opacity="0.90"/><line x1="1808" y1="50" x2="1808" y2="900" stroke="#666666" stroke-width="0.5" stroke-dasharray="4,4" opacity="0.90"/><line x1="1880" y1="50" x2="1880" y2="900" stroke="#666666" stroke-width="0.5" stroke-dasharray="4,4" opacity="0.90"/><line x1="1946" y1="30" x2="1946" y2="950" stroke="black" stroke-width="0.7"/><text x="80" y="1040" text-anchor="middle" font-size="20" fill="black">09:30</text><text x="152" y="1040" text-anchor="middle" font-size="20" fill="black">10:00</text><text x="224" y="1040" text-anchor="middle" font-size="20" fill="black">10:30</text><text x="296" y="1040" text-anchor="middle" font-size="20" fill="black">11:00</text><text x="368" y="1040" text-anchor="middle" font-size="20" fill="black">11:30</text><text x="440" y="1040" text-anchor="middle" font-size="20" fill="black">12:00</text><text x="512" y="1040" text-anchor="middle" font-size="20" fill="black">12:30</text><text x="584" y="1040" text-anchor="middle" font-size="20" fill="black">13:00</text><text x="656" y="1040" text-anchor="middle" font-size="20" fill="black">13:30</text><text x="728" y="1040" text-anchor="middle" font-size="20" fill="black">14:00</text><text x="800" y="1040" text-anchor="middle" font-size="20" fill="black">14:30</text><text x="872" y="1040" text-anchor="middle" font-size="20" fill="black">15:00</text><text x="944" y="1040" text-anchor="middle" font-size="20" fill="black">15:30</text><text x="1016" y="1040" text-anchor="middle" font-size="20" fill="black">09:30</text><text x="1088" y="1040" text-anchor="middle" font-size="20" fill="black">10:00</text><text x="1160" y="1040" text-anchor="middle" font-size="20" fill="black">10:30</text><text x="1232" y="1040" text-anchor="middle" font-size="20" fill="black">11:00</text><text x="1304" y="1040" text-anchor="middle" font-size="20" fill="black">11:30</text><text x="1376" y="1040" text-anchor="middle" font-size="20" fill="black">12:00</text><text x="1448" y="1040" text-anchor="middle" font-size="20" fill="black">12:30</text><text x="1520" y="1040" text-anchor="middle" font-size="20" fill="black">13:00</text><text x="1592" y="1040" text-anchor="middle" font-size="20" fill="black">13:30</text><text x="1664" y="1040" text-anchor="middle" font-size="20" fill="black">14:00</text><text x="1736" y="1040" text-anchor="middle" font-size="20" fill="black">14:30</text><text x="1808" y="1040" text-anchor="middle" font-size="20" fill="black">15:00</text><text x="1880" y="1040" text-anchor="middle" font-size="20" fill="black">15:30</text><text x="1942" y="50" text-anchor="end" font-size="40" fill="#ef5350" font-weight="bold"> -1.28% (Fri)</text></svg>