<svg xmlns="http://www.w3.org/2000/svg" width="1992" height="1050"><rect width="100%" height="100%" fill="white"/><text x="42" y="854.0" text-anchor="end" font-size="20" fill="black">415</text><text x="42" y="781.2727272727273" text-anchor="end" font-size="20" fill="black">416</text><text x="42" y="708.5454545454545" text-anchor="end" font-size="20" fill="black">417</text><text x="42" y="635.8181818181819" text-anchor="end" font-size="20" fill="black">418</text><text x="42" y="563.090909090909" text-anchor="end" font-size="20" fill="black">419</text><text x="42" y="490.3636363636364" text-anchor="end" font-size="20" fill="black">420</text><text x="42" y="417.6363636363637" text-anchor="end" font-size="20" fill="black">421</text><text x="42" y="344.90909090909093" text-anchor="end" font-size="20" fill="black">422</text><text x="42" y="272.18181818181813" text-anchor="end" font-size="20" fill="black">423</text><text x="42" y="199.45454545454538" text-anchor="end" font-size="20" fill="black">424</text><text x="42" y="126.72727272727275" text-anchor="end" font-size="20" fill="black">425</text><text x="42" y="54.0" text-anchor="end" font-size="20" fill="black">426</text><line x1="80" y1="153.73075054545473" x2="80" y2="221.79730763636223" stroke="#26a69a" stroke-width="2"/><rect x="76" y="185.0629752727276" width="8" height="4.321685818182573" fill="#26a69a"/><line x1="92" y1="113.75515345454744" x2="92" y2="182.18185090909174" stroke="#26a69a" stroke-width="2"/><rect x="88" y="127.51252145454521" width="8" height="54.66932945454653" fill="#26a69a"/><line x1="104" y1="94.30756581818139" x2="104" y2="150.48948581818217" stroke="#26a69a" stroke-width="2"/><rect x="100" y="123.11880727272842" width="8" height="5.762247999998522" fill="#26a69a"/><line x1="116" y1="86.38447490908959" x2="116" y2="126.72021236363764" stroke="#26a69a" stroke-width="2"/><rect x="112" y="96.46840872727478" width="8" height="26.65039854545364" fill="#26a69a"/><line x1="128" y1="79.90194545454449" x2="128" y2="148.328642909093" stroke="#ef5350" stroke-width="2"/><rect x="124" y="94.30756581818139" width="8" height="40.33573745454396" fill="#ef5350"/><line x1="140" y1="124.55936872727102" x2="140" y2="223.59801018181895" stroke="#ef5350" stroke-width="2"/><rect x="136" y="136.08386545454528" width="8" height="45.37770472727311" fill="#ef5350"/><line x1="152" y1="162.01398254545643" x2="152" y2="208.11196799999868" stroke="#26a69a" stroke-width="2"/><rect x="148" y="175.69932145454663" width="8" height="5.041967272725174" fill="#26a69a"/><line x1="164" y1="112.31459127272751" x2="164" y2="179.3007272727292" stroke="#26a69a" stroke-width="2"/><rect x="160" y="130.32161745454687" width="8" height="47.538547636362296" fill="#26a69a"/><line x1="176" y1="117.35655854545257" x2="176" y2="213.8742160000013" stroke="#ef5350" stroke-width="2"/><rect x="172" y="123.83908800000177" width="8" height="86.4337229090903" fill="#ef5350"/><line x1="188" y1="178.5804458181825" x2="188" y2="223.95815054545562" stroke="#26a69a" stroke-width="2"/><rect x="184" y="201.6294385454537" width="8" height="2.8811243636358768" fill="#26a69a"/><line x1="200" y1="170.6573549090907" x2="200" y2="216.03505890909048" stroke="#26a69a" stroke-width="2"/><rect x="196" y="182.90213236363832" width="8" height="17.286743999999544" fill="#26a69a"/><line x1="212" y1="160.93356072727317" x2="212" y2="206.67140581818296" stroke="#ef5350" stroke-width="2"/><rect x="208" y="177.86016509090916" width="8" height="21.60843054545535" fill="#ef5350"/><line x1="224" y1="172.81819781818" x2="224" y2="218.91618327272647" stroke="#ef5350" stroke-width="2"/><rect x="220" y="197.30775272727112" width="8" height="5.041967272729153" fill="#ef5350"/><line x1="236" y1="195.86719054545517" x2="236" y2="235.48264727272579" stroke="#ef5350" stroke-width="2"/><rect x="232" y="202.34972000000027" width="8" height="26.65039781818041" fill="#ef5350"/><line x1="248" y1="215.31477818181713" x2="248" y2="252.7693912727293" stroke="#ef5350" stroke-width="2"/><rect x="244" y="229.72039854545403" width="8" height="8.643372363638491" fill="#ef5350"/><line x1="260" y1="215.31477818181713" x2="260" y2="261.4127636363636" stroke="#26a69a" stroke-width="2"/><rect x="256" y="222.51758836363558" width="8" height="14.4056203636369" fill="#26a69a"/><line x1="272" y1="225.39871272727146" x2="272" y2="268.61557381818204" stroke="#ef5350" stroke-width="2"/><rect x="268" y="225.39871272727146" width="8" height="32.41264581818302" fill="#ef5350"/><line x1="284" y1="247.72742400000004" x2="284" y2="283.74147563636564" stroke="#26a69a" stroke-width="2"/><rect x="280" y="257.09107781818113" width="8" height="2" fill="#26a69a"/><line x1="296" y1="244.84630036363762" x2="296" y2="316.87440290909103" stroke="#ef5350" stroke-width="2"/><rect x="292" y="257.09107781818113" width="8" height="55.821779636364" fill="#ef5350"/><line x1="308" y1="290.9442858181799" x2="308" y2="344.24508145454473" stroke="#ef5350" stroke-width="2"/><rect x="304" y="313.2729978181818" width="8" height="6.4825294545451015" fill="#ef5350"/><line x1="320" y1="298.8673774545449" x2="320" y2="323.356932363636" stroke="#26a69a" stroke-width="2"/><rect x="316" y="319.7555272727269" width="8" height="2" fill="#26a69a"/><line x1="332" y1="315.433840727271" x2="332" y2="347.1262058181806" stroke="#ef5350" stroke-width="2"/><rect x="328" y="321.9163701818203" width="8" height="10.804215272723468" fill="#ef5350"/><line x1="344" y1="324.7974938181827" x2="344" y2="357.9304210909083" stroke="#ef5350" stroke-width="2"/><rect x="340" y="337.0422712727262" width="8" height="15.846182545456884" fill="#ef5350"/><line x1="356" y1="308.5911709090893" x2="356" y2="356.4898589090924" stroke="#26a69a" stroke-width="2"/><rect x="352" y="320.47580800000026" width="8" height="33.853207999998745" fill="#26a69a"/><line x1="368" y1="290.2240050909106" x2="368" y2="324.7974938181827" stroke="#26a69a" stroke-width="2"/><rect x="364" y="292.3848479999998" width="8" height="23.769273454544532" fill="#26a69a"/><line x1="380" y1="279.41978981818295" x2="380" y2="311.83243563636177" stroke="#26a69a" stroke-width="2"/><rect x="376" y="283.74147563636564" width="8" height="7.923091636360823" fill="#26a69a"/><line x1="392" y1="278.69950836363637" x2="392" y2="379.5388523636368" stroke="#ef5350" stroke-width="2"/><rect x="388" y="279.41978981818295" width="8" height="100.11906254545386" fill="#ef5350"/><line x1="404" y1="357.9304210909083" x2="404" y2="401.86756363636545" stroke="#26a69a" stroke-width="2"/><rect x="400" y="368.7346363636359" width="8" height="11.524496727274254" fill="#26a69a"/><line x1="416" y1="366.57379345454666" x2="416" y2="396.10531563636295" stroke="#ef5350" stroke-width="2"/><rect x="412" y="369.45491781818254" width="8" height="8.28323199999761" fill="#ef5350"/><line x1="428" y1="379.5388523636368" x2="428" y2="416.2731847272715" stroke="#ef5350" stroke-width="2"/><rect x="424" y="379.5388523636368" width="8" height="25.930116363637865" fill="#ef5350"/><line x1="440" y1="365.1332312727266" x2="440" y2="418.4340276363648" stroke="#26a69a" stroke-width="2"/><rect x="436" y="377.37800872727433" width="8" height="32.41264654545205" fill="#26a69a"/><line x1="452" y1="378.0982901818168" x2="452" y2="428.51796145454585" stroke="#ef5350" stroke-width="2"/><rect x="448" y="379.5388523636368" width="8" height="43.93714254545313" fill="#ef5350"/><line x1="464" y1="416.99346545454483" x2="464" y2="451.56695490909027" stroke="#ef5350" stroke-width="2"/><rect x="460" y="422.75571345454745" width="8" height="15.12590181817933" fill="#ef5350"/><line x1="476" y1="409.0703738181798" x2="476" y2="435.72077236363754" stroke="#26a69a" stroke-width="2"/><rect x="472" y="423.47599490908993" width="8" height="11.524496000001022" fill="#26a69a"/><line x1="488" y1="411.2312174545464" x2="488" y2="442.923582545456" stroke="#26a69a" stroke-width="2"/><rect x="484" y="423.1158538181799" width="8" height="2" fill="#26a69a"/><line x1="500" y1="401.1472829090921" x2="500" y2="431.75922618181835" stroke="#26a69a" stroke-width="2"/><rect x="496" y="404.7486880000013" width="8" height="15.48604218181606" fill="#26a69a"/><line x1="512" y1="404.7486880000013" x2="512" y2="477.49707127272814" stroke="#ef5350" stroke-width="2"/><rect x="508" y="404.7486880000013" width="8" height="62.66444945454583" fill="#ef5350"/><line x1="524" y1="431.3990858181817" x2="524" y2="470.29426109090974" stroke="#26a69a" stroke-width="2"/><rect x="520" y="435.00049090909096" width="8" height="35.293770181818786" fill="#26a69a"/><line x1="536" y1="429.9585236363617" x2="536" y2="461.65088872727125" stroke="#ef5350" stroke-width="2"/><rect x="532" y="432.11936727272837" width="8" height="11.524496000000966" fill="#ef5350"/><line x1="548" y1="440.76273890908936" x2="548" y2="468.8536989090897" stroke="#ef5350" stroke-width="2"/><rect x="544" y="447.96554981818105" width="8" height="2" fill="#ef5350"/><line x1="560" y1="399.7067207272721" x2="560" y2="458.7697650909087" stroke="#26a69a" stroke-width="2"/><rect x="556" y="403.3081258181813" width="8" height="46.818266909093154" fill="#26a69a"/><line x1="572" y1="368.01435563636255" x2="572" y2="423.47599490908993" stroke="#26a69a" stroke-width="2"/><rect x="568" y="380.25913309091015" width="8" height="25.93011709090706" fill="#26a69a"/><line x1="584" y1="361.53182618181745" x2="584" y2="404.7486880000013" stroke="#ef5350" stroke-width="2"/><rect x="580" y="380.25913309091015" width="8" height="14.4056203636369" fill="#ef5350"/><line x1="596" y1="374.4968850909076" x2="596" y2="401.86756363636545" stroke="#26a69a" stroke-width="2"/><rect x="592" y="391.0633483636378" width="8" height="2" fill="#26a69a"/><line x1="608" y1="368.7346363636359" x2="608" y2="390.3430676363644" stroke="#26a69a" stroke-width="2"/><rect x="604" y="386.0213810909086" width="8" height="2.8811243636358768" fill="#26a69a"/><line x1="620" y1="347.1262058181806" x2="620" y2="390.3430676363644" stroke="#26a69a" stroke-width="2"/><rect x="616" y="357.21014036363493" width="8" height="28.090960000000337" fill="#26a69a"/><line x1="632" y1="334.88142836363716" x2="632" y2="373.05632290909176" stroke="#26a69a" stroke-width="2"/><rect x="628" y="337.0422712727262" width="8" height="20.16786909090871" fill="#26a69a"/><line x1="644" y1="317.5946836363644" x2="644" y2="337.7625527272729" stroke="#26a69a" stroke-width="2"/><rect x="640" y="326.23805599999866" width="8" height="10.80421527272756" fill="#26a69a"/><line x1="656" y1="291.66456727272646" x2="656" y2="327.6786181818187" stroke="#26a69a" stroke-width="2"/><rect x="652" y="303.9093447272742" width="8" height="21.608430545451142" fill="#26a69a"/><line x1="668" y1="264.29388799999947" x2="668" y2="313.2729978181818" stroke="#26a69a" stroke-width="2"/><rect x="664" y="288.7834429090907" width="8" height="15.125901818183479" fill="#26a69a"/><line x1="680" y1="259.2519207272744" x2="680" y2="288.063161454544" stroke="#26a69a" stroke-width="2"/><rect x="676" y="264.29388799999947" width="8" height="23.769273454544532" fill="#26a69a"/><line x1="692" y1="236.20292799999913" x2="692" y2="266.45473090909286" stroke="#ef5350" stroke-width="2"/><rect x="688" y="265.7344501818195" width="8" height="2" fill="#ef5350"/><line x1="704" y1="245.56658109091097" x2="704" y2="274.3778225454538" stroke="#26a69a" stroke-width="2"/><rect x="700" y="251.3288298181826" width="8" height="15.125901090910247" fill="#26a69a"/><line x1="716" y1="242.68545745454423" x2="716" y2="264.29388799999947" stroke="#26a69a" stroke-width="2"/><rect x="712" y="246.28686254545335" width="8" height="2.8811236363667376" fill="#26a69a"/><line x1="728" y1="240.5246138181817" x2="728" y2="280.1400705454563" stroke="#ef5350" stroke-width="2"/><rect x="724" y="245.2064407272743" width="8" height="32.77278690908872" fill="#ef5350"/><line x1="740" y1="278.69950836363637" x2="740" y2="326.23805599999866" stroke="#ef5350" stroke-width="2"/><rect x="736" y="278.69950836363637" width="8" height="15.125901818183479" fill="#ef5350"/><line x1="752" y1="283.0211949090923" x2="752" y2="344.24508145454473" stroke="#ef5350" stroke-width="2"/><rect x="748" y="293.82541018181985" width="8" height="49.699390545451536" fill="#ef5350"/><line x1="764" y1="325.5177752727253" x2="764" y2="360.09126472727075" stroke="#26a69a" stroke-width="2"/><rect x="760" y="334.88142836363716" width="8" height="10.08393454545427" fill="#26a69a"/><line x1="776" y1="317.5946836363644" x2="776" y2="347.84648727272724" stroke="#26a69a" stroke-width="2"/><rect x="772" y="324.07721309090937" width="8" height="10.08393454545444" fill="#26a69a"/><line x1="788" y1="316.87440290909103" x2="788" y2="360.8115454545441" stroke="#ef5350" stroke-width="2"/><rect x="784" y="326.23805599999866" width="8" height="28.090960000000337" fill="#ef5350"/><line x1="800" y1="350.72761090908983" x2="800" y2="394.66475345454705" stroke="#ef5350" stroke-width="2"/><rect x="796" y="353.60873527272565" width="8" height="17.28674472727272" fill="#ef5350"/><line x1="812" y1="345.6856436363648" x2="812" y2="379.5388523636368" stroke="#26a69a" stroke-width="2"/><rect x="808" y="361.53182618181745" width="8" height="11.524496727274311" fill="#26a69a"/><line x1="824" y1="344.9653629090914" x2="824" y2="370.8954799999984" stroke="#26a69a" stroke-width="2"/><rect x="820" y="344.9653629090914" width="8" height="17.286744727272662" fill="#26a69a"/><line x1="836" y1="339.2031149090929" x2="836" y2="370.8954799999984" stroke="#ef5350" stroke-width="2"/><rect x="832" y="347.1262058181806" width="8" height="16.566463999999314" fill="#ef5350"/><line x1="848" y1="363.6926698181799" x2="848" y2="398.2661585454562" stroke="#ef5350" stroke-width="2"/><rect x="844" y="365.49337236363664" width="8" height="19.087446545456146" fill="#ef5350"/><line x1="860" y1="370.8954799999984" x2="860" y2="401.1472829090921" stroke="#ef5350" stroke-width="2"/><rect x="856" y="384.5808189090928" width="8" height="10.804215999996813" fill="#ef5350"/><line x1="872" y1="381.69969527272605" x2="872" y2="406.1892501818172" stroke="#ef5350" stroke-width="2"/><rect x="868" y="396.10531563636295" width="8" height="7.202810181818336" fill="#ef5350"/><line x1="884" y1="355.76957818181904" x2="884" y2="407.6298123636372" stroke="#26a69a" stroke-width="2"/><rect x="880" y="360.09126472727075" width="8" height="41.77629890909469" fill="#26a69a"/><line x1="896" y1="326.23805599999866" x2="896" y2="362.97238836363744" stroke="#26a69a" stroke-width="2"/><rect x="892" y="335.60170981818374" width="8" height="25.209835636360367" fill="#26a69a"/><line x1="908" y1="329.11918036363454" x2="908" y2="348.5667680000006" stroke="#ef5350" stroke-width="2"/><rect x="904" y="337.0422712727262" width="8" height="2" fill="#ef5350"/><line x1="920" y1="288.7834429090907" x2="920" y2="344.9653629090914" stroke="#26a69a" stroke-width="2"/><rect x="916" y="293.10512872727315" width="8" height="43.93714254545307" fill="#26a69a"/><line x1="932" y1="273.6575410909071" x2="932" y2="310.39187345454593" stroke="#ef5350" stroke-width="2"/><rect x="928" y="293.10512872727315" width="8" height="3.673433454543442" fill="#ef5350"/><line x1="944" y1="292.3848479999998" x2="944" y2="311.83243563636177" stroke="#26a69a" stroke-width="2"/><rect x="940" y="295.98625309090914" width="8" height="2.881124363635763" fill="#26a69a"/><line x1="956" y1="295.2659723636358" x2="956" y2="313.99327854545515" stroke="#ef5350" stroke-width="2"/><rect x="952" y="298.8673774545449" width="8" height="5.762248000002614" fill="#ef5350"/><line x1="968" y1="283.74147563636564" x2="968" y2="307.1506087272734" stroke="#26a69a" stroke-width="2"/><rect x="964" y="301.74850109090755" width="8" height="2.1608436363666215" fill="#26a69a"/><line x1="980" y1="268.61557381818204" x2="980" y2="313.2729978181818" stroke="#26a69a" stroke-width="2"/><rect x="976" y="281.58063272727225" width="8" height="19.447587636366052" fill="#26a69a"/><line x1="992" y1="278.69950836363637" x2="992" y2="306.7904683636367" stroke="#ef5350" stroke-width="2"/><rect x="988" y="285.18203781818136" width="8" height="19.447587636366165" fill="#ef5350"/><line x1="1004" y1="272.93726036363785" x2="1004" y2="316.15412145454434" stroke="#ef5350" stroke-width="2"/><rect x="1000" y="301.74850109090755" width="8" height="14.405620363636785" fill="#ef5350"/><line x1="1016" y1="826.1130879999986" x2="1016" y2="913.9873730909089" stroke="#ef5350" stroke-width="2"/><rect x="1012" y="834.756460363637" width="8" height="68.4266974545443" fill="#ef5350"/><line x1="1028" y1="848.4418000000005" x2="1028" y2="912.5468109090889" stroke="#26a69a" stroke-width="2"/><rect x="1024" y="868.6096683636358" width="8" height="36.73433236363883" fill="#26a69a"/><line x1="1040" y1="795.1410036363624" x2="1040" y2="889.4978181818177" stroke="#26a69a" stroke-width="2"/><rect x="1036" y="802.3438138181808" width="8" height="66.98613600000158" fill="#26a69a"/><line x1="1052" y1="783.6165076363654" x2="1052" y2="833.315898181817" stroke="#ef5350" stroke-width="2"/><rect x="1048" y="800.1829709090915" width="8" height="29.531522181816285" fill="#ef5350"/><line x1="1064" y1="798.0221279999982" x2="1064" y2="845.5606756363646" stroke="#26a69a" stroke-width="2"/><rect x="1060" y="802.3438138181808" width="8" height="27.37067927272699" fill="#26a69a"/><line x1="1076" y1="798.7424087272716" x2="1076" y2="871.4907927272717" stroke="#ef5350" stroke-width="2"/><rect x="1072" y="800.1829709090915" width="8" height="29.531522181816285" fill="#ef5350"/><line x1="1088" y1="816.749434909091" x2="1088" y2="874.3719163636383" stroke="#ef5350" stroke-width="2"/><rect x="1084" y="825.3928072727252" width="8" height="4.321685818182573" fill="#ef5350"/><line x1="1100" y1="771.3717301818178" x2="1100" y2="823.2319636363627" stroke="#26a69a" stroke-width="2"/><rect x="1096" y="795.861285090909" width="8" height="27.370678545453757" fill="#26a69a"/><line x1="1112" y1="722.3926203636355" x2="1112" y2="802.3438138181808" stroke="#26a69a" stroke-width="2"/><rect x="1108" y="731.7562734545473" width="8" height="66.98613527272425" fill="#26a69a"/><line x1="1124" y1="675.5743534545466" x2="1124" y2="741.1199272727283" stroke="#26a69a" stroke-width="2"/><rect x="1120" y="702.224751272727" width="8" height="31.69236509090956" fill="#26a69a"/><line x1="1136" y1="672.6932298181798" x2="1136" y2="709.4275621818186" stroke="#26a69a" stroke-width="2"/><rect x="1132" y="681.3366021818183" width="8" height="18.72730618181936" fill="#26a69a"/><line x1="1148" y1="669.812105454544" x2="1148" y2="699.3436276363643" stroke="#ef5350" stroke-width="2"/><rect x="1144" y="682.777163636365" width="8" height="13.325199272726877" fill="#ef5350"/><line x1="1160" y1="687.0988501818167" x2="1160" y2="788.6584749090906" stroke="#ef5350" stroke-width="2"/><rect x="1156" y="696.1023629090919" width="8" height="87.51414472727356" fill="#ef5350"/><line x1="1172" y1="744.0010509090908" x2="1172" y2="784.3367883636347" stroke="#26a69a" stroke-width="2"/><rect x="1168" y="767.0500436363619" width="8" height="15.125901818183593" fill="#26a69a"/><line x1="1184" y1="754.8052661818184" x2="1184" y2="826.1130879999986" stroke="#26a69a" stroke-width="2"/><rect x="1180" y="763.4486385454528" width="8" height="2.1608436363666215" fill="#26a69a"/><line x1="1196" y1="753.3647047272717" x2="1196" y2="813.1480298181817" stroke="#ef5350" stroke-width="2"/><rect x="1192" y="764.8892007272727" width="8" height="46.81826690908895" fill="#ef5350"/><line x1="1208" y1="793.7004421818198" x2="1208" y2="848.4418000000005" stroke="#ef5350" stroke-width="2"/><rect x="1204" y="810.2669054545458" width="8" height="30.251802909089633" fill="#ef5350"/><line x1="1220" y1="820.3508400000002" x2="1220" y2="853.4837672727256" stroke="#26a69a" stroke-width="2"/><rect x="1216" y="831.8753360000011" width="8" height="8.643372363634398" fill="#26a69a"/><line x1="1232" y1="766.3297629090928" x2="1232" y2="838.3578654545462" stroke="#26a69a" stroke-width="2"/><rect x="1228" y="783.6165076363654" width="8" height="50.41967199999817" fill="#26a69a"/><line x1="1244" y1="774.2528538181804" x2="1244" y2="800.1829709090915" stroke="#26a69a" stroke-width="2"/><rect x="1240" y="781.4556647272722" width="8" height="2.160842909093276" fill="#26a69a"/><line x1="1256" y1="759.8472334545436" x2="1256" y2="789.378755636364" stroke="#26a69a" stroke-width="2"/><rect x="1252" y="770.6514487272711" width="8" height="12.244777454547716" fill="#26a69a"/><line x1="1268" y1="769.931168000002" x2="1268" y2="828.273930909092" stroke="#ef5350" stroke-width="2"/><rect x="1264" y="771.3717301818178" width="8" height="30.251802909089633" fill="#ef5350"/><line x1="1280" y1="774.9731352727271" x2="1280" y2="809.5466247272725" stroke="#26a69a" stroke-width="2"/><rect x="1276" y="792.9801607272731" width="8" height="9.363653090907746" fill="#26a69a"/><line x1="1292" y1="735.3576785454566" x2="1292" y2="800.1829709090915" stroke="#26a69a" stroke-width="2"/><rect x="1288" y="739.6793650909083" width="8" height="54.02107709091149" fill="#26a69a"/><line x1="1304" y1="737.518522181819" x2="1304" y2="822.5116829090894" stroke="#ef5350" stroke-width="2"/><rect x="1300" y="740.3996458181816" width="8" height="55.461639272727325" fill="#ef5350"/><line x1="1316" y1="763.4486385454528" x2="1316" y2="798.0221279999982" stroke="#26a69a" stroke-width="2"/><rect x="1312" y="774.9731352727271" width="8" height="20.239896727273617" fill="#26a69a"/><line x1="1328" y1="753.3647047272717" x2="1328" y2="787.9381934545439" stroke="#ef5350" stroke-width="2"/><rect x="1324" y="774.2528538181804" width="8" height="2" fill="#ef5350"/><line x1="1340" y1="767.7703250909086" x2="1340" y2="808.1060625454525" stroke="#ef5350" stroke-width="2"/><rect x="1336" y="775.6934160000004" width="8" height="25.93011709090706" fill="#ef5350"/><line x1="1352" y1="754.0849854545451" x2="1352" y2="805.2249381818166" stroke="#26a69a" stroke-width="2"/><rect x="1348" y="760.5675149090902" width="8" height="39.61545600000136" fill="#26a69a"/><line x1="1364" y1="715.9100909090905" x2="1364" y2="774.2528538181804" stroke="#26a69a" stroke-width="2"/><rect x="1360" y="726.7143061818181" width="8" height="33.85320872727209" fill="#26a69a"/><line x1="1376" y1="701.5044705454536" x2="1376" y2="745.4416130909108" stroke="#26a69a" stroke-width="2"/><rect x="1372" y="713.7492480000012" width="8" height="15.125901818179386" fill="#26a69a"/><line x1="1388" y1="682.777163636365" x2="1388" y2="717.3506530909104" stroke="#26a69a" stroke-width="2"/><rect x="1384" y="707.9869999999987" width="8" height="5.041967272729153" fill="#26a69a"/><line x1="1400" y1="700.7841898181803" x2="1400" y2="754.8052661818184" stroke="#ef5350" stroke-width="2"/><rect x="1396" y="704.3855949090895" width="8" height="15.125901090910133" fill="#ef5350"/><line x1="1412" y1="674.1337912727265" x2="1412" y2="718.7912152727263" stroke="#26a69a" stroke-width="2"/><rect x="1408" y="695.7422225454552" width="8" height="23.04899272727107" fill="#26a69a"/><line x1="1424" y1="646.0428312727262" x2="1424" y2="707.9869999999987" stroke="#26a69a" stroke-width="2"/><rect x="1420" y="659.0078901818164" width="8" height="36.014050909092134" fill="#26a69a"/><line x1="1436" y1="640.2805832727278" x2="1436" y2="665.4904189090923" stroke="#26a69a" stroke-width="2"/><rect x="1432" y="648.2036749090929" width="8" height="9.363653090907633" fill="#26a69a"/><line x1="1448" y1="646.7631127272729" x2="1448" y2="674.1337912727265" stroke="#ef5350" stroke-width="2"/><rect x="1444" y="646.7631127272729" width="8" height="10.083934545454326" fill="#ef5350"/><line x1="1460" y1="634.5183352727253" x2="1460" y2="674.8540727272732" stroke="#26a69a" stroke-width="2"/><rect x="1456" y="653.245642181818" width="8" height="2" fill="#26a69a"/><line x1="1472" y1="631.6372109090894" x2="1472" y2="671.252667636364" stroke="#26a69a" stroke-width="2"/><rect x="1468" y="638.8400210909077" width="8" height="15.125901818183593" fill="#26a69a"/><line x1="1484" y1="621.5532763636351" x2="1484" y2="644.6022698181837" stroke="#26a69a" stroke-width="2"/><rect x="1480" y="633.7980538181827" width="8" height="5.7622487272717535" fill="#26a69a"/><line x1="1496" y1="601.3854079999998" x2="1496" y2="646.7631127272729" stroke="#26a69a" stroke-width="2"/><rect x="1492" y="601.3854079999998" width="8" height="31.69236509090956" fill="#26a69a"/><line x1="1508" y1="563.2105134545451" x2="1508" y2="602.8259701818198" stroke="#26a69a" stroke-width="2"/><rect x="1504" y="586.2595061818163" width="8" height="16.56646400000352" fill="#26a69a"/><line x1="1520" y1="545.203487999999" x2="1520" y2="600.6651272727264" stroke="#26a69a" stroke-width="2"/><rect x="1516" y="574.0147287272728" width="8" height="9.363653818180865" fill="#26a69a"/><line x1="1532" y1="559.6091083636359" x2="1532" y2="597.0637221818172" stroke="#ef5350" stroke-width="2"/><rect x="1528" y="574.0147287272728" width="8" height="13.685339636363551" fill="#ef5350"/><line x1="1544" y1="567.532200000001" x2="1544" y2="610.0287803636382" stroke="#ef5350" stroke-width="2"/><rect x="1540" y="586.2595061818163" width="8" height="13.685339636363437" fill="#ef5350"/><line x1="1556" y1="586.2595061818163" x2="1556" y2="603.5462509090889" stroke="#ef5350" stroke-width="2"/><rect x="1552" y="598.5042836363639" width="8" height="2" fill="#ef5350"/><line x1="1568" y1="596.3434407272747" x2="1568" y2="641.0008647272745" stroke="#ef5350" stroke-width="2"/><rect x="1564" y="604.986813090909" width="8" height="23.048992727271184" fill="#ef5350"/><line x1="1580" y1="581.9378203636379" x2="1580" y2="635.2386159999986" stroke="#26a69a" stroke-width="2"/><rect x="1576" y="586.979787636363" width="8" height="42.49658036363712" fill="#26a69a"/><line x1="1592" y1="561.7699512727293" x2="1592" y2="595.6231600000013" stroke="#26a69a" stroke-width="2"/><rect x="1588" y="568.9727621818168" width="8" height="18.727306181819472" fill="#26a69a"/><line x1="1604" y1="495.50409745454755" x2="1604" y2="566.8119185454543" stroke="#26a69a" stroke-width="2"/><rect x="1600" y="496.94465890909004" width="8" height="69.86725963636428" fill="#26a69a"/><line x1="1616" y1="495.50409745454755" x2="1616" y2="532.2384298181821" stroke="#ef5350" stroke-width="2"/><rect x="1612" y="497.66494036363673" width="8" height="18.007025454546067" fill="#ef5350"/><line x1="1628" y1="459.49004581818207" x2="1628" y2="521.4342138181812" stroke="#26a69a" stroke-width="2"/><rect x="1624" y="478.2173527272748" width="8" height="38.17489454545063" fill="#26a69a"/><line x1="1640" y1="437.8816152727268" x2="1640" y2="486.86072509090906" stroke="#26a69a" stroke-width="2"/><rect x="1636" y="443.64386327272933" width="8" height="35.29377018181469" fill="#26a69a"/><line x1="1652" y1="440.76273890908936" x2="1652" y2="471.7348232727256" stroke="#ef5350" stroke-width="2"/><rect x="1648" y="443.64386327272933" width="8" height="17.28674472727272" fill="#ef5350"/><line x1="1664" y1="453.00751636363697" x2="1664" y2="488.3012872727291" stroke="#ef5350" stroke-width="2"/><rect x="1660" y="457.68934327272535" width="8" height="14.765761454546862" fill="#ef5350"/><line x1="1676" y1="440.76273890908936" x2="1676" y2="477.49707127272814" stroke="#26a69a" stroke-width="2"/><rect x="1672" y="447.96554981818105" width="8" height="22.328711272728697" fill="#26a69a"/><line x1="1688" y1="435.72077236363754" x2="1688" y2="463.0914509090913" stroke="#ef5350" stroke-width="2"/><rect x="1684" y="447.24526836363447" width="8" height="10.80421527272756" fill="#ef5350"/><line x1="1700" y1="433.5599287272709" x2="1700" y2="456.6089214545462" stroke="#26a69a" stroke-width="2"/><rect x="1696" y="439.32217745454676" width="8" height="16.6384916363603" fill="#26a69a"/><line x1="1712" y1="437.16133381818014" x2="1712" y2="479.65791490909066" stroke="#ef5350" stroke-width="2"/><rect x="1708" y="439.32217745454676" width="8" height="36.73433236363468" fill="#ef5350"/><line x1="1724" y1="470.29426109090974" x2="1724" y2="558.16854618182" stroke="#ef5350" stroke-width="2"/><rect x="1720" y="476.05650981818144" width="8" height="77.79035054545602" fill="#ef5350"/><line x1="1736" y1="499.8257832727259" x2="1736" y2="563.2105134545451" stroke="#26a69a" stroke-width="2"/><rect x="1732" y="534.3992727272714" width="8" height="22.32871200000193" fill="#26a69a"/><line x1="1748" y1="526.4761810909104" x2="1748" y2="565.3713563636343" stroke="#ef5350" stroke-width="2"/><rect x="1744" y="533.6789912727288" width="8" height="20.888149818182" fill="#ef5350"/><line x1="1760" y1="542.3223636363632" x2="1760" y2="586.979787636363" stroke="#ef5350" stroke-width="2"/><rect x="1756" y="555.2874225454534" width="8" height="22.32871127272847" fill="#ef5350"/><line x1="1772" y1="565.3713563636343" x2="1772" y2="586.2595061818163" stroke="#26a69a" stroke-width="2"/><rect x="1768" y="567.532200000001" width="8" height="10.80421527272756" fill="#26a69a"/><line x1="1784" y1="558.8888276363625" x2="1784" y2="590.5811927272721" stroke="#26a69a" stroke-width="2"/><rect x="1780" y="566.8119185454543" width="8" height="2.1608436363625287" fill="#26a69a"/><line x1="1796" y1="529.3573054545463" x2="1796" y2="589.8609112727254" stroke="#26a69a" stroke-width="2"/><rect x="1792" y="534.3992727272714" width="8" height="31.69236509090956" fill="#26a69a"/><line x1="1808" y1="453.72779781818366" x2="1808" y2="535.8398349090915" stroke="#26a69a" stroke-width="2"/><rect x="1804" y="460.93060800000205" width="8" height="66.98613527272425" fill="#26a69a"/><line x1="1820" y1="450.84667345454363" x2="1820" y2="485.4201629090891" stroke="#ef5350" stroke-width="2"/><rect x="1816" y="461.65088872727125" width="8" height="7.20281018181845" fill="#ef5350"/><line x1="1832" y1="453.00751636363697" x2="1832" y2="480.378195636364" stroke="#26a69a" stroke-width="2"/><rect x="1828" y="459.49004581818207" width="8" height="9.363653090907633" fill="#26a69a"/><line x1="1844" y1="406.90953090909056" x2="1844" y2="464.5320130909071" stroke="#26a69a" stroke-width="2"/><rect x="1840" y="409.0703738181798" width="8" height="50.05953163636559" fill="#26a69a"/><line x1="1856" y1="396.8255963636363" x2="1856" y2="420.59487054545406" stroke="#26a69a" stroke-width="2"/><rect x="1852" y="407.6298123636372" width="8" height="2.881123636362531" fill="#26a69a"/><line x1="1868" y1="402.58784509090793" x2="1868" y2="431.3990858181817" stroke="#ef5350" stroke-width="2"/><rect x="1864" y="405.46896872727467" width="8" height="3.2412647272725508" fill="#ef5350"/><line x1="1880" y1="406.1892501818172" x2="1880" y2="446.5249876363652" stroke="#ef5350" stroke-width="2"/><rect x="1876" y="409.0703738181798" width="8" height="23.769274181821913" fill="#ef5350"/><line x1="1892" y1="429.9585236363617" x2="1892" y2="477.49707127272814" stroke="#ef5350" stroke-width="2"/><rect x="1888" y="432.8396480000017" width="8" height="44.65742327272642" fill="#ef5350"/><line x1="1904" y1="473.8956661818189" x2="1904" y2="519.9936523636345" stroke="#ef5350" stroke-width="2"/><rect x="1900" y="474.61594763636555" width="8" height="26.65039781818041" fill="#ef5350"/><line x1="1916" y1="488.3012872727291" x2="1916" y2="519.9936523636345" stroke="#ef5350" stroke-width="2"/><rect x="1912" y="501.26634545454596" width="8" height="11.524496727274197" fill="#ef5350"/><line x1="1928" y1="489.74184872727164" x2="1928" y2="519.9936523636345" stroke="#26a69a" stroke-width="2"/><rect x="1924" y="492.6229730909075" width="8" height="20.888149818181887" fill="#26a69a"/><line x1="1940" y1="455.1683599999995" x2="1940" y2="510.6299985454536" stroke="#26a69a" stroke-width="2"/><rect x="1936" y="466.6928560000005" width="8" height="26.650397818180352" fill="#26a69a"/><rect x="75" y="939.5050302969242" width="10" height="80.49496970307575" fill="#26a69a" opacity="0.9"/><rect x="87" y="940.4942500611695" width="10" height="79.50574993883049" fill="#26a69a" opacity="0.9"/><rect x="99" y="967.5093193626851" width="10" height="52.49068063731488" fill="#26a69a" opacity="0.9"/><rect x="111" y="953.9568790569813" width="10" height="66.04312094301872" fill="#26a69a" opacity="0.9"/><rect x="123" y="957.1559751867471" width="10" height="62.84402481325287" fill="#ef5350" opacity="0.9"/><rect x="135" y="954.8502425193224" width="10" height="65.14975748067764" fill="#ef5350" opacity="0.9"/><rect x="147" y="959.7790699348004" width="10" height="60.22093006519958" fill="#26a69a" opacity="0.9"/><rect x="159" y="968.7183177650801" width="10" height="51.28168223491991" fill="#26a69a" opacity="0.9"/><rect x="171" y="984.0553260697477" width="10" height="35.94467393025229" fill="#ef5350" opacity="0.9"/><rect x="183" y="987.8282646555074" width="10" height="32.17173534449262" fill="#26a69a" opacity="0.9"/><rect x="195" y="991.8235725902791" width="10" height="28.176427409720873" fill="#26a69a" opacity="0.9"/><rect x="207" y="992.6664171908059" width="10" height="27.333582809194127" fill="#ef5350" opacity="0.9"/><rect x="219" y="970.9640322975288" width="10" height="49.035967702471225" fill="#ef5350" opacity="0.9"/><rect x="231" y="994.5287065156379" width="10" height="25.47129348436215" fill="#ef5350" opacity="0.9"/><rect x="243" y="988.9742224269204" width="10" height="31.02577757307961" fill="#ef5350" opacity="0.9"/><rect x="255" y="976.5370831474258" width="10" height="43.46291685257415" fill="#26a69a" opacity="0.9"/><rect x="267" y="993.4893996747219" width="10" height="26.51060032527812" fill="#ef5350" opacity="0.9"/><rect x="279" y="989.5411563206148" width="10" height="30.458843679385154" fill="#26a69a" opacity="0.9"/><rect x="291" y="987.2738525309805" width="10" height="32.72614746901945" fill="#ef5350" opacity="0.9"/><rect x="303" y="990.4833115041955" width="10" height="29.516688495804488" fill="#ef5350" opacity="0.9"/><rect x="315" y="994.1888916075361" width="10" height="25.811108392463893" fill="#26a69a" opacity="0.9"/><rect x="327" y="975.689920695462" width="10" height="44.31007930453802" fill="#ef5350" opacity="0.9"/><rect x="339" y="990.8127635688481" width="10" height="29.18723643115186" fill="#ef5350" opacity="0.9"/><rect x="351" y="987.0061457418789" width="10" height="32.99385425812113" fill="#26a69a" opacity="0.9"/><rect x="363" y="990.6836598108781" width="10" height="29.316340189121888" fill="#26a69a" opacity="0.9"/><rect x="375" y="989.2717223909383" width="10" height="30.728277609061706" fill="#26a69a" opacity="0.9"/><rect x="387" y="992.796816304207" width="10" height="27.203183695792973" fill="#ef5350" opacity="0.9"/><rect x="399" y="983.3886498078556" width="10" height="36.611350192144414" fill="#26a69a" opacity="0.9"/><rect x="411" y="998.0917975215533" width="10" height="21.908202478446697" fill="#ef5350" opacity="0.9"/><rect x="423" y="989.9871903740699" width="10" height="30.012809625930117" fill="#ef5350" opacity="0.9"/><rect x="435" y="983.973718677586" width="10" height="36.02628132241398" fill="#26a69a" opacity="0.9"/><rect x="447" y="994.0563335684163" width="10" height="25.943666431583665" fill="#ef5350" opacity="0.9"/><rect x="459" y="980.6286791692454" width="10" height="39.3713208307546" fill="#ef5350" opacity="0.9"/><rect x="471" y="993.7454482649433" width="10" height="26.25455173505668" fill="#26a69a" opacity="0.9"/><rect x="483" y="1000.4886368543013" width="10" height="19.511363145698738" fill="#26a69a" opacity="0.9"/><rect x="495" y="994.6103139077995" width="10" height="25.389686092200463" fill="#26a69a" opacity="0.9"/><rect x="507" y="984.0941867326818" width="10" height="35.905813267318194" fill="#ef5350" opacity="0.9"/><rect x="519" y="994.7005570028354" width="10" height="25.299442997164647" fill="#26a69a" opacity="0.9"/><rect x="531" y="990.9505030296924" width="10" height="29.049496970307587" fill="#ef5350" opacity="0.9"/><rect x="543" y="993.3041638480692" width="10" height="26.69583615193085" fill="#ef5350" opacity="0.9"/><rect x="555" y="988.926726061112" width="10" height="31.07327393888795" fill="#26a69a" opacity="0.9"/><rect x="567" y="978.2655190777069" width="10" height="41.73448092229307" fill="#26a69a" opacity="0.9"/><rect x="579" y="982.2729169965025" width="10" height="37.727083003497455" fill="#ef5350" opacity="0.9"/><rect x="591" y="996.2113732206853" width="10" height="23.788626779314654" fill="#26a69a" opacity="0.9"/><rect x="603" y="986.9595129463579" width="10" height="33.040487053642096" fill="#26a69a" opacity="0.9"/><rect x="615" y="990.4863340002015" width="10" height="29.51366599979849" fill="#26a69a" opacity="0.9"/><rect x="627" y="981.3398293009399" width="10" height="38.66017069906013" fill="#26a69a" opacity="0.9"/><rect x="639" y="985.4741720519869" width="10" height="34.5258279480131" fill="#26a69a" opacity="0.9"/><rect x="651" y="982.0255041091552" width="10" height="37.974495890844764" fill="#26a69a" opacity="0.9"/><rect x="663" y="965.8901250737633" width="10" height="54.10987492623667" fill="#26a69a" opacity="0.9"/><rect x="675" y="965.0343269189251" width="10" height="54.9656730810749" fill="#26a69a" opacity="0.9"/><rect x="687" y="977.5863210466472" width="10" height="42.413678953352814" fill="#ef5350" opacity="0.9"/><rect x="699" y="998.3810935678406" width="10" height="21.618906432159406" fill="#26a69a" opacity="0.9"/><rect x="711" y="997.7247801493977" width="10" height="22.275219850602298" fill="#26a69a" opacity="0.9"/><rect x="723" y="993.4047697865542" width="10" height="26.595230213445802" fill="#ef5350" opacity="0.9"/><rect x="735" y="981.9611681227422" width="10" height="38.03883187725785" fill="#ef5350" opacity="0.9"/><rect x="747" y="990.4289065760877" width="10" height="29.571093423912316" fill="#ef5350" opacity="0.9"/><rect x="759" y="993.8438952777099" width="10" height="26.156104722290138" fill="#26a69a" opacity="0.9"/><rect x="771" y="1001.6907266943969" width="10" height="18.309273305603142" fill="#26a69a" opacity="0.9"/><rect x="783" y="992.1219361245844" width="10" height="27.87806387541559" fill="#ef5350" opacity="0.9"/><rect x="795" y="992.2804012723269" width="10" height="27.719598727673088" fill="#ef5350" opacity="0.9"/><rect x="807" y="988.8114394277408" width="10" height="31.188560572259235" fill="#26a69a" opacity="0.9"/><rect x="819" y="989.1154161689143" width="10" height="30.884583831085706" fill="#26a69a" opacity="0.9"/><rect x="831" y="992.7691820550094" width="10" height="27.230817944990577" fill="#ef5350" opacity="0.9"/><rect x="843" y="996.7627628492062" width="10" height="23.237237150793817" fill="#ef5350" opacity="0.9"/><rect x="855" y="993.0209127937939" width="10" height="26.979087206206145" fill="#ef5350" opacity="0.9"/><rect x="867" y="992.7864534607579" width="10" height="27.21354653924209" fill="#ef5350" opacity="0.9"/><rect x="879" y="986.8943133896573" width="10" height="33.10568661034267" fill="#26a69a" opacity="0.9"/><rect x="891" y="977.3885634508268" width="10" height="42.61143654917316" fill="#26a69a" opacity="0.9"/><rect x="903" y="989.8317477223334" width="10" height="30.168252277666625" fill="#ef5350" opacity="0.9"/><rect x="915" y="983.4396004548137" width="10" height="36.56039954518633" fill="#26a69a" opacity="0.9"/><rect x="927" y="980.9905151196765" width="10" height="39.0094848803235" fill="#ef5350" opacity="0.9"/><rect x="939" y="992.6063990558298" width="10" height="27.393600944170203" fill="#26a69a" opacity="0.9"/><rect x="951" y="987.0501878265375" width="10" height="32.94981217346253" fill="#ef5350" opacity="0.9"/><rect x="963" y="993.0183220829315" width="10" height="26.98167791706851" fill="#26a69a" opacity="0.9"/><rect x="975" y="986.9474229623339" width="10" height="33.05257703766608" fill="#26a69a" opacity="0.9"/><rect x="987" y="962.199225665309" width="10" height="57.80077433469103" fill="#ef5350" opacity="0.9"/><rect x="999" y="875.473020624937" width="10" height="144.52697937506298" fill="#ef5350" opacity="0.9"/><rect x="1011" y="865.9322960894659" width="10" height="154.06770391053408" fill="#ef5350" opacity="0.9"/><rect x="1023" y="943.0150117301631" width="10" height="76.98498826983689" fill="#26a69a" opacity="0.9"/><rect x="1035" y="951.3596914175506" width="10" height="68.64030858244939" fill="#26a69a" opacity="0.9"/><rect x="1047" y="965.4371824580089" width="10" height="54.56281754199108" fill="#ef5350" opacity="0.9"/><rect x="1059" y="958.097698585184" width="10" height="61.90230141481595" fill="#26a69a" opacity="0.9"/><rect x="1071" y="974.50337512054" width="10" height="45.49662487946" fill="#ef5350" opacity="0.9"/><rect x="1083" y="975.0361979878812" width="10" height="44.96380201211878" fill="#ef5350" opacity="0.9"/><rect x="1095" y="981.2672893967962" width="10" height="38.73271060320383" fill="#26a69a" opacity="0.9"/><rect x="1107" y="964.831819686524" width="10" height="55.168180313476" fill="#26a69a" opacity="0.9"/><rect x="1119" y="963.4924221707279" width="10" height="56.50757782927212" fill="#26a69a" opacity="0.9"/><rect x="1131" y="974.204579801091" width="10" height="45.79542019890903" fill="#26a69a" opacity="0.9"/><rect x="1143" y="967.9432634321162" width="10" height="52.05673656788383" fill="#ef5350" opacity="0.9"/><rect x="1155" y="963.8054663999194" width="10" height="56.194533600080604" fill="#ef5350" opacity="0.9"/><rect x="1167" y="982.5596223319276" width="10" height="37.440377668072415" fill="#26a69a" opacity="0.9"/><rect x="1179" y="980.0919702356108" width="10" height="39.9080297643892" fill="#26a69a" opacity="0.9"/><rect x="1191" y="983.744008981131" width="10" height="36.255991018869054" fill="#ef5350" opacity="0.9"/><rect x="1203" y="978.9235596367248" width="10" height="41.076440363275196" fill="#ef5350" opacity="0.9"/><rect x="1215" y="980.791462168425" width="10" height="39.20853783157497" fill="#26a69a" opacity="0.9"/><rect x="1227" y="969.8128931043913" width="10" height="50.187106895608736" fill="#26a69a" opacity="0.9"/><rect x="1239" y="991.0243382892672" width="10" height="28.975661710732766" fill="#26a69a" opacity="0.9"/><rect x="1251" y="974.216669785115" width="10" height="45.78333021488504" fill="#26a69a" opacity="0.9"/><rect x="1263" y="970.6078095539659" width="10" height="49.39219044603408" fill="#ef5350" opacity="0.9"/><rect x="1275" y="989.3792368917227" width="10" height="30.620763108277288" fill="#26a69a" opacity="0.9"/><rect x="1287" y="990.6439355776565" width="10" height="29.35606442234348" fill="#26a69a" opacity="0.9"/><rect x="1299" y="978.5302033708027" width="10" height="41.469796629197276" fill="#ef5350" opacity="0.9"/><rect x="1311" y="986.439643633328" width="10" height="33.560356366671954" fill="#26a69a" opacity="0.9"/><rect x="1323" y="974.4196088026598" width="10" height="45.58039119734019" fill="#ef5350" opacity="0.9"/><rect x="1335" y="987.4603837130644" width="10" height="32.5396162869356" fill="#ef5350" opacity="0.9"/><rect x="1347" y="993.7761050101469" width="10" height="26.22389498985308" fill="#26a69a" opacity="0.9"/><rect x="1359" y="989.438823241555" width="10" height="30.561176758444958" fill="#26a69a" opacity="0.9"/><rect x="1371" y="994.2817254134343" width="10" height="25.718274586565713" fill="#26a69a" opacity="0.9"/><rect x="1383" y="989.8235438046029" width="10" height="30.176456195397122" fill="#26a69a" opacity="0.9"/><rect x="1395" y="980.641200938413" width="10" height="39.35879906158698" fill="#ef5350" opacity="0.9"/><rect x="1407" y="986.1270311892802" width="10" height="33.87296881071984" fill="#26a69a" opacity="0.9"/><rect x="1419" y="979.6765929273594" width="10" height="40.323407072640634" fill="#26a69a" opacity="0.9"/><rect x="1431" y="984.9491213172325" width="10" height="35.05087868276746" fill="#26a69a" opacity="0.9"/><rect x="1443" y="989.9461707854172" width="10" height="30.053829214582834" fill="#ef5350" opacity="0.9"/><rect x="1455" y="993.6400926898775" width="10" height="26.35990731012248" fill="#26a69a" opacity="0.9"/><rect x="1467" y="998.852171159631" width="10" height="21.147828840369016" fill="#26a69a" opacity="0.9"/><rect x="1479" y="986.2945638250407" width="10" height="33.705436174959345" fill="#26a69a" opacity="0.9"/><rect x="1491" y="994.7519394349372" width="10" height="25.248060565062815" fill="#26a69a" opacity="0.9"/><rect x="1503" y="955.8774593762143" width="10" height="64.12254062378565" fill="#26a69a" opacity="0.9"/><rect x="1515" y="968.7925848097987" width="10" height="51.207415190201345" fill="#26a69a" opacity="0.9"/><rect x="1527" y="989.0087652384174" width="10" height="30.991234761582632" fill="#ef5350" opacity="0.9"/><rect x="1539" y="970.2520185955468" width="10" height="49.747981404453185" fill="#ef5350" opacity="0.9"/><rect x="1551" y="998.1259085479065" width="10" height="21.874091452093467" fill="#ef5350" opacity="0.9"/><rect x="1563" y="992.4487974783748" width="10" height="27.551202521625214" fill="#ef5350" opacity="0.9"/><rect x="1575" y="999.9998560716188" width="10" height="20.00014392838125" fill="#26a69a" opacity="0.9"/><rect x="1587" y="970.6553059197743" width="10" height="49.344694080225736" fill="#26a69a" opacity="0.9"/><rect x="1599" y="979.6930007628205" width="10" height="40.306999237179525" fill="#26a69a" opacity="0.9"/><rect x="1611" y="993.6772262122367" width="10" height="26.322773787763253" fill="#ef5350" opacity="0.9"/><rect x="1623" y="981.4546841491674" width="10" height="38.545315850832594" fill="#26a69a" opacity="0.9"/><rect x="1635" y="973.4593186430433" width="10" height="46.540681356956725" fill="#26a69a" opacity="0.9"/><rect x="1647" y="962.909512226716" width="10" height="57.09048777328405" fill="#ef5350" opacity="0.9"/><rect x="1659" y="992.6620993393688" width="10" height="27.33790066063125" fill="#ef5350" opacity="0.9"/><rect x="1671" y="992.112005066279" width="10" height="27.88799493372096" fill="#26a69a" opacity="0.9"/><rect x="1683" y="991.4699405575785" width="10" height="28.530059442421475" fill="#ef5350" opacity="0.9"/><rect x="1695" y="993.9552958447877" width="10" height="26.044704155212344" fill="#26a69a" opacity="0.9"/><rect x="1707" y="990.5618964003512" width="10" height="29.438103599648798" fill="#ef5350" opacity="0.9"/><rect x="1719" y="982.1343139653708" width="10" height="37.86568603462922" fill="#ef5350" opacity="0.9"/><rect x="1731" y="992.3287612084227" width="10" height="27.671238791577252" fill="#26a69a" opacity="0.9"/><rect x="1743" y="990.8516242317822" width="10" height="29.14837576821776" fill="#ef5350" opacity="0.9"/><rect x="1755" y="986.0683084097353" width="10" height="33.93169159026468" fill="#ef5350" opacity="0.9"/><rect x="1767" y="993.1115876739734" width="10" height="26.888412326026582" fill="#26a69a" opacity="0.9"/><rect x="1779" y="989.1672303861599" width="10" height="30.832769613840128" fill="#26a69a" opacity="0.9"/><rect x="1791" y="983.5151628549634" width="10" height="36.484837145036636" fill="#26a69a" opacity="0.9"/><rect x="1803" y="963.2450092833806" width="10" height="56.75499071661943" fill="#26a69a" opacity="0.9"/><rect x="1815" y="989.4517767958664" width="10" height="30.548223204133592" fill="#ef5350" opacity="0.9"/><rect x="1827" y="996.5805495185596" width="10" height="23.419450481440435" fill="#26a69a" opacity="0.9"/><rect x="1839" y="983.0237913614186" width="10" height="36.9762086385814" fill="#26a69a" opacity="0.9"/><rect x="1851" y="986.023834539933" width="10" height="33.97616546006702" fill="#26a69a" opacity="0.9"/><rect x="1863" y="987.5851696195973" width="10" height="32.41483038040269" fill="#ef5350" opacity="0.9"/><rect x="1875" y="981.7521841131853" width="10" height="38.24781588681469" fill="#ef5350" opacity="0.9"/><rect x="1887" y="950.5073475438621" width="10" height="69.49265245613788" fill="#ef5350" opacity="0.9"/><rect x="1899" y="973.2581067660732" width="10" height="46.74189323392682" fill="#ef5350" opacity="0.9"/><rect x="1911" y="973.2438578563307" width="10" height="46.75614214366931" fill="#ef5350" opacity="0.9"/><rect x="1923" y="933.3227306092489" width="10" height="86.67726939075112" fill="#26a69a" opacity="0.9"/><rect x="1935" y="860.0" width="10" height="160.0" fill="#26a69a" opacity="0.9"/><rect x="1004" y="316.15412145454434" width="12" height="518.6023389090926" fill="#ff2400" opacity="0.60"/><polyline points="320,210.87887615411262,332,222.4828484684374,344,234.90242993031893,356,243.0522754607657,368,247.75061570259652,380,251.1783166486731,392,263.4031295739078,404,273.43470164911935,416,283.36836337950695,428,294.99699246024727,440,302.8428035332994,452,314.3316789024208,464,326.09833950911957,476,335.3724019281634,488,343.7289211557816,500,349.54032752189875,512,360.7663094202466,524,367.83623146680344,536,375.0560059245097,548,382.0683701741225,560,384.0912040449852,572,383.7262449065003,584,384.7680076253627,596,385.3675638861494,608,385.42983219136573,620,382.74224249348663,632,378.389864281987,644,373.4230253979893,656,366.80267485792433,668,359.37227181518045,680,350.31718764230806,692,342.33028700105024,704,333.66348155506205,716,325.3418987922404,728,320.8311682059667,740,318.25919125128416,752,320.6654397728058,764,322.0193434481231,776,322.2153310331495,788,325.27377722047027,800,329.6187012947113,812,332.6580465220559,824,333.8301718922511,836,336.6742193137683,848,341.2367526085621,860,346.39373187527866,872,351.81415034603145,884,352.60244695376633,896,350.9833291313333,908,349.7928057335437,920,344.39397935199275,932,339.8591777167357,944,335.6808039428498,956,332.72354884872834,968,329.7735443003645,980,325.1837431981668,992,323.2262081749675,1004,322.5526761063562,1016,377.8508172217657,1028,424.58975542575155,1040,460.56633241551026,1052,495.7233000988832,1064,524.9252537864363,1076,553.9528003868616,1088,580.2158187396303,1100,600.7534822016582,1112,613.2299385114576,1124,621.7056349649118,1136,627.3847746998564,1148,633.9293069102579,1160,648.1852307889353,1172,659.5056891553585,1184,669.4050176686976,1196,682.9576319513308,1208,697.9634487525057,1220,710.716961823697,1232,717.6597757106182,1244,723.7355746645873,1256,728.2037531467474,1268,735.1961131414266,1280,740.6993557686499,1292,740.6022137993411,1304,745.8649824937766,1316,748.6371875203448,1328,751.1522328647268,1340,755.9590233624559,1352,756.3979273192755,1364,753.5709157823724,1376,749.7783759935745,1388,745.7982449465651,1400,743.2947450468914,1412,738.7659333800871,1424,731.169929265963,1436,723.2683812319754,1448,716.9425399025262,1460,710.8761686910301,1472,704.0155832053022,1484,697.328199454147,1496,688.19079074423,1508,678.4830493573322,1520,668.5336854878021,1532,660.8352457616919,1544,655.0361600527842,1556,649.7893682209161,1568,647.7176003730372,1580,641.9330467790711,1592,634.9844482459998,1604,621.8378016424884,1616,611.7267696592204,1628,599.0115870942728,1640,584.2146610160316,1652,572.4733226335543,1664,562.9477780710492,1676,551.9970896660116,1688,543.049698615567,1700,533.1708870764239,1712,527.7314225756403,1724,530.2186071268766,1736,530.6167657554852,1748,532.8977538826662,1760,537.1566472098575,1772,540.049556999396,1784,542.5983533371189,1796,541.8174885171331,1808,534.1139760869323,1820,527.8987115938021,1832,521.3836005675521,1844,510.6871027819001,1856,500.87212274206234,1868,492.094799952776,1880,486.451452147751,1892,485.5986539691788,1904,487.09081506302607,1916,489.5384366933864,1928,489.83220206457855,1940,487.628454820333" fill="none" stroke="#0090ff" stroke-width="2"/><line x1="80" y1="50" x2="80" y2="900" stroke="#666666" stroke-width="0.5" stroke-dasharray="4,4" opacity="0.90"/><line x1="152" y1="50" x2="152" y2="900" stroke="#666666" stroke-width="0.5" stroke-dasharray="4,4" opacity="0.90"/><line x1="224" y1="50" x2="224" y2="900" stroke="#666666" stroke-width="0.5" stroke-dasharray="4,4" opacity="0.90"/><line x1="296" y1="50" x2="296" y2="900" stroke="#666666" stroke-width="0.5" stroke-dasharray="4,4" opacity="0.90"/><line x1="368" y1="50" x2="368" y2="900" stroke="#666666" stroke-width="0.5" stroke-dasharray="4,4" opacity="0.90"/><line x1="440" y1="50" x2="440" y2="900" stroke="#666666" stroke-width="0.5" stroke-dasharray="4,4" opacity="0.90"/><line x1="512" y1="50" x2="512" y2="900" stroke="#666666" stroke-width="0.5" stroke-dasharray="4,4" opacity="0.90"/><line x1="584" y1="50" x2="584" y2="900" stroke="#666666" stroke-width="0.5" stroke-dasharray="4,4" opacity="0.90"/><line x1="656" y1="50" x2="656" y2="900" stroke="#666666" stroke-width="0.5" stroke-dasharray="4,4" opacity="0.90"/><line x1="728" y1="50" x2="728" y2="900" stroke="#666666" stroke-width="0.5" stroke-dasharray="4,4" opacity="0.90"/><line x1="800" y1="50" x2="800" y2="900" stroke="#666666" stroke-width="0.5" stroke-dasharray="4,4" opacity="0.90"/><line x1="872" y1="50" x2="872" y2="900" stroke="#666666" stroke-width="0.5" stroke-dasharray="4,4" opacity="0.90"/><line x1="944" y1="50" x2="944" y2="900" stroke="#666666" stroke-width="0.5" stroke-dasharray="4,4" opacity="0.90"/><line x1="1010" y1="30" x2="1010" y2="950" stroke="black" stroke-width="0.7"/><line x1="1016" y1="50" x2="1016" y2="900" stroke="#666666" stroke-width="0.5" stroke-dasharray="4,4" opacity="0.90"/><line x1="1088" y1="50" x2="1088" y2="900" stroke="#666666" stroke-width="0.5" stroke-dasharray="4,4" opacity="0.90"/><line x1="1160" y1="50" x2="1160" y2="900" stroke="#666666" stroke-width="0.5" stroke-dasharray="4,4" opacity="0.90"/><line x1="1232" y1="50" x2="1232" y2="900" stroke="#666666" stroke-width="0.5" stroke-dasharray="4,4" opacity="0.90"/><line x1="1304" y1="50" x2="1304" y2="900" stroke="#666666" stroke-width="0.5" stroke-dasharray="4,4" opacity="0.90"/><line x1="1376" y1="50" x2="1376" y2="900" stroke="#666666" stroke-width="0.5" stroke-dasharray="4,4" opacity="0.90"/><line x1="1448" y1="50" x2="1448" y2="900" stroke="#666666" stroke-width="0.5" stroke-dasharray="4,4" opacity="0.90"/><line x1="1520" y1="50" x2="1520" y2="900" stroke="#666666" stroke-width="0.5" stroke-dasharray="4,4" opacity="0.90"/><line x1="1592" y1="50" x2="1592" y2="900" stroke="#666666" stroke-width="0.5" stroke-dasharray="4,4" opacity="0.90"/><line x1="1664" y1="50" x2="1664" y2="900" stroke="#666666" stroke-width="0.5" stroke-dasharray="4,4" opacity="0.90"/><line x1="1736" y1="50" x2="1736" y2="900" stroke="#666666" stroke-width="0.5" stroke-dasharray="4,4" opacity="0.90"/><line x1="1808" y1="50" x2="1808" y2="900" stroke="#666666" stroke-width="0.5" stroke-dasharray="4,4" opacity="0.90"/><line x1="1880" y1="50" x2="1880" y2="900" stroke="#666666" stroke-width="0.5" stroke-dasharray="4,4" opacity="0.90"/><line x1="1946" y1="30" x2="1946" y2="950" stroke="black" stroke-width="0.7"/><text x="80" y="1040" text-anchor="middle" font-size="20" fill="black">09:30</text><text x="152" y="1040" text-anchor="middle" font-size="20" fill="black">10:00</text><text x="224" y="1040" text-anchor="middle" font-size="20" fill="black">10:30</text><text x="296" y="1040" text-anchor="middle" font-size="20" fill="black">11:00</text><text x="368" y="1040" text-anchor="middle" font-size="20" fill="black">11:30</text><text x="440" y="1040" text-anchor="middle" font-size="20" fill="black">12:00</text><text x="512" y="1040" text-anchor="middle" font-size="20" fill="black">12:30</text><text x="584" y="1040" text-anchor="middle" font-size="20" fill="black">13:00</text><text x="656" y="1040" text-anchor="middle" font-size="20" fill="black">13:30</text><text x="728" y="1040" text-anchor="middle" font-size="20" fill="black">14:00</text><text x="800" y="1040" text-anchor="middle" font-size="20" fill="black">14:30</text><text x="872" y="1040" text-anchor="middle" font-size="20" fill="black">15:00</text><text x="944" y="1040" text-anchor="middle" font-size="20" fill="black">15:30</text><text x="1016" y="1040" text-anchor="middle" font-size="20" fill="black">09:30</text><text x="1088" y="1040" text-anchor="middle" font-size="20" fill="black">10:00</text><text x="1160" y="1040" text-anchor="middle" font-size="20" fill="black">10:30</text><text x="1232" y="1040" text-anchor="middle" font-size="20" fill="black">11:00</text><text x="1304" y="1040" text-anchor="middle" font-size="20" fill="black">11:30</text><text x="1376" y="1040" text-anchor="middle" font-size="20" fill="black">12:00</text><text x="1448" y="1040" text-anchor="middle" font-size="20" fill="black">12:30</text><text x="1520" y="1040" text-anchor="middle" font-size="20" fill="black">13:00</text><text x="1592" y="1040" text-anchor="middle" font-size="20" fill="black">13:30</text><text x="1664" y="1040" text-anchor="middle" font-size="20" fill="black">14:00</text><text x="1736" y="1040" text-anchor="middle" font-size="20" fill="black">14:30</text><text x="1808" y="1040" text-anchor="middle" font-size="20" fill="black">15:00</text><text x="1880" y="1040" text-anchor="middle" font-size="20" fill="black">15:30</text><text x="1942" y="50" text-anchor="end" font-size="40" fill="#26a69a" font-weight="bold"> +1.22% (Thu)</text></svg>