<svg xmlns="http://www.w3.org/2000/svg" width="1992" height="1050"><rect width="100%" height="100%" fill="white"/><text x="42" y="854.0" text-anchor="end" font-size="20" fill="black">455</text><text x="42" y="720.6666666666667" text-anchor="end" font-size="20" fill="black">456</text><text x="42" y="587.3333333333334" text-anchor="end" font-size="20" fill="black">457</text><text x="42" y="454.0" text-anchor="end" font-size="20" fill="black">458</text><text x="42" y="320.66666666666674" text-anchor="end" font-size="20" fill="black">459</text><text x="42" y="187.33333333333326" text-anchor="end" font-size="20" fill="black">460</text><text x="42" y="54.0" text-anchor="end" font-size="20" fill="black">461</text><line x1="80" y1="689.7089453333365" x2="80" y2="909.2626519999991" stroke="#26a69a" stroke-width="2"/><rect x="76" y="704.2576853333305" width="8" height="148.1326213333357" fill="#26a69a"/><line x1="92" y1="693.6767839999977" x2="92" y2="860.3259826666696" stroke="#ef5350" stroke-width="2"/><rect x="88" y="705.5802973333357" width="8" height="124.32559333333302" fill="#ef5350"/><line x1="104" y1="570.6738026666699" x2="104" y2="837.8415666666646" stroke="#26a69a" stroke-width="2"/><rect x="100" y="628.8687613333346" width="8" height="193.1014533333307" fill="#26a69a"/><line x1="116" y1="487.34920399999737" x2="116" y2="671.1923680000002" stroke="#26a69a" stroke-width="2"/><rect x="112" y="508.511006666663" width="8" height="130.93865600000447" fill="#26a69a"/><line x1="128" y1="507.1883933333311" x2="128" y2="622.2556986666632" stroke="#ef5350" stroke-width="2"/><rect x="124" y="513.801457333337" width="8" height="3.967838666661237" fill="#ef5350"/><line x1="140" y1="495.2848800000007" x2="140" y2="603.7391200000002" stroke="#ef5350" stroke-width="2"/><rect x="136" y="507.1883933333311" width="8" height="37.03315599999917" fill="#ef5350"/><line x1="152" y1="557.4476760000001" x2="152" y2="975.3932866666673" stroke="#ef5350" stroke-width="2"/><rect x="148" y="557.4476760000001" width="8" height="156.06829733333132" fill="#ef5350"/><line x1="164" y1="520.4145213333353" x2="164" y2="810.0667000000007" stroke="#26a69a" stroke-width="2"/><rect x="160" y="552.1572253333337" width="8" height="161.35874799999772" fill="#26a69a"/><line x1="176" y1="458.25172400000156" x2="176" y2="706.9029106666676" stroke="#ef5350" stroke-width="2"/><rect x="172" y="542.8989359999983" width="8" height="85.9698253333363" fill="#ef5350"/><line x1="188" y1="509.83361866666803" x2="188" y2="726.7421013333357" stroke="#ef5350" stroke-width="2"/><rect x="184" y="611.6747960000035" width="8" height="44.96883199999513" fill="#ef5350"/><line x1="200" y1="545.5441626666698" x2="200" y2="701.6124600000012" stroke="#26a69a" stroke-width="2"/><rect x="196" y="564.0607399999984" width="8" height="77.37284266666688" fill="#26a69a"/><line x1="212" y1="484.7039786666679" x2="212" y2="623.5783106666682" stroke="#26a69a" stroke-width="2"/><rect x="208" y="484.7039786666679" width="8" height="72.7436973333322" fill="#26a69a"/><line x1="224" y1="334.0583919999972" x2="224" y2="530.3341160000022" stroke="#26a69a" stroke-width="2"/><rect x="220" y="334.0583919999972" width="8" height="153.2908120000002" fill="#26a69a"/><line x1="236" y1="286.3120746666634" x2="236" y2="407.99244266666693" stroke="#26a69a" stroke-width="2"/><rect x="232" y="334.0583919999972" width="8" height="7.803416000001562" fill="#26a69a"/><line x1="248" y1="261.18243333333635" x2="248" y2="353.76532133333666" stroke="#26a69a" stroke-width="2"/><rect x="244" y="261.18243333333635" width="8" height="84.6472119999969" fill="#26a69a"/><line x1="260" y1="247.9563066666667" x2="260" y2="425.1864066666637" stroke="#ef5350" stroke-width="2"/><rect x="256" y="262.505045333334" width="8" height="91.26027600000265" fill="#ef5350"/><line x1="272" y1="286.3120746666634" x2="272" y2="363.02361066666435" stroke="#26a69a" stroke-width="2"/><rect x="268" y="294.1154893333305" width="8" height="55.68199466667164" fill="#26a69a"/><line x1="284" y1="148.76035466666804" x2="284" y2="299.53820133333306" stroke="#26a69a" stroke-width="2"/><rect x="280" y="161.32517466666445" width="8" height="135.56780133333928" fill="#26a69a"/><line x1="296" y1="111.72719866666898" x2="296" y2="208.27792533333036" stroke="#26a69a" stroke-width="2"/><rect x="292" y="115.69503733333022" width="8" height="52.90450800000599" fill="#26a69a"/><line x1="308" y1="87.92017066666631" x2="308" y2="257.2145946666676" stroke="#ef5350" stroke-width="2"/><rect x="304" y="130.24377599999752" width="8" height="126.97081866667008" fill="#ef5350"/><line x1="320" y1="196.37441066666565" x2="320" y2="302.18342666667013" stroke="#ef5350" stroke-width="2"/><rect x="316" y="251.9241440000012" width="8" height="25.129641333334348" fill="#ef5350"/><line x1="332" y1="246.6336933333348" x2="332" y2="331.2809053333315" stroke="#26a69a" stroke-width="2"/><rect x="328" y="261.18243333333635" width="8" height="14.548739999994268" fill="#26a69a"/><line x1="344" y1="229.4397280000037" x2="344" y2="348.47487066667026" stroke="#ef5350" stroke-width="2"/><rect x="340" y="255.89198266666995" width="8" height="41.00099333333378" fill="#ef5350"/><line x1="356" y1="277.05378533333555" x2="356" y2="417.25073066666783" stroke="#ef5350" stroke-width="2"/><rect x="352" y="296.8929760000037" width="8" height="117.71252933332715" fill="#ef5350"/><line x1="368" y1="385.5080266666694" x2="368" y2="525.7049720000017" stroke="#ef5350" stroke-width="2"/><rect x="364" y="410.6376679999964" width="8" height="11.903513333337855" fill="#ef5350"/><line x1="380" y1="392.1210893333334" x2="380" y2="483.381365333336" stroke="#ef5350" stroke-width="2"/><rect x="376" y="414.6055053333309" width="8" height="51.58189466666653" fill="#ef5350"/><line x1="392" y1="451.6386613333301" x2="392" y2="521.7371333333327" stroke="#ef5350" stroke-width="2"/><rect x="388" y="470.15523866666626" width="8" height="34.387929333335364" fill="#ef5350"/><line x1="404" y1="389.47586399999636" x2="404" y2="500.5753306666671" stroke="#26a69a" stroke-width="2"/><rect x="400" y="443.70298533333425" width="8" height="56.87234533333287" fill="#26a69a"/><line x1="416" y1="353.76532133333666" x2="416" y2="446.34821066666365" stroke="#26a69a" stroke-width="2"/><rect x="412" y="369.63667333333586" width="8" height="75.38892399999588" fill="#26a69a"/><line x1="428" y1="368.31406133333076" x2="428" y2="511.15623199999993" stroke="#ef5350" stroke-width="2"/><rect x="424" y="368.31406133333076" width="8" height="58.19495866667239" fill="#ef5350"/><line x1="440" y1="413.28289333333333" x2="440" y2="513.801457333337" stroke="#ef5350" stroke-width="2"/><rect x="436" y="435.7673079999965" width="8" height="62.162797333333685" fill="#ef5350"/><line x1="452" y1="423.86379466666614" x2="452" y2="527.0275839999991" stroke="#26a69a" stroke-width="2"/><rect x="448" y="427.83163200000064" width="8" height="68.77585999999764" fill="#26a69a"/><line x1="464" y1="396.0889280000022" x2="464" y2="491.3170413333319" stroke="#ef5350" stroke-width="2"/><rect x="460" y="426.50902000000315" width="8" height="47.61405599999762" fill="#ef5350"/><line x1="476" y1="352.44270933333155" x2="476" y2="482.05875333333097" stroke="#26a69a" stroke-width="2"/><rect x="472" y="396.0889280000022" width="8" height="85.96982533332874" fill="#26a69a"/><line x1="488" y1="312.76432800000293" x2="488" y2="411.96028000000143" stroke="#26a69a" stroke-width="2"/><rect x="484" y="318.05477866666934" width="8" height="82.00198666666739" fill="#26a69a"/><line x1="500" y1="291.6025253333298" x2="500" y2="355.08793466666856" stroke="#26a69a" stroke-width="2"/><rect x="496" y="310.11910266666587" width="8" height="19.839190666668173" fill="#26a69a"/><line x1="512" y1="192.40657333333115" x2="512" y2="315.40955333333227" stroke="#26a69a" stroke-width="2"/><rect x="508" y="201.66486133333206" width="8" height="111.09946666667088" fill="#26a69a"/><line x1="524" y1="180.50305866666645" x2="524" y2="224.14927733332956" stroke="#ef5350" stroke-width="2"/><rect x="520" y="209.60053866667" width="8" height="3.96783733332677" fill="#ef5350"/><line x1="536" y1="206.95531333333292" x2="536" y2="363.02361066666435" stroke="#ef5350" stroke-width="2"/><rect x="532" y="218.85882666666316" width="8" height="121.68036800000368" fill="#ef5350"/><line x1="548" y1="314.08694133333483" x2="548" y2="401.37937866666863" stroke="#26a69a" stroke-width="2"/><rect x="544" y="332.6035186666634" width="8" height="11.903514666672379" fill="#26a69a"/><line x1="560" y1="258.5372079999995" x2="560" y2="359.05577200000306" stroke="#26a69a" stroke-width="2"/><rect x="556" y="286.3120746666634" width="8" height="51.58189466666636" fill="#26a69a"/><line x1="572" y1="240.02063066666324" x2="572" y2="327.313067999997" stroke="#26a69a" stroke-width="2"/><rect x="568" y="247.9563066666667" width="8" height="39.67838000000165" fill="#26a69a"/><line x1="584" y1="251.26283733333526" x2="584" y2="345.82964533333325" stroke="#ef5350" stroke-width="2"/><rect x="580" y="251.9241440000012" width="8" height="66.13063466666813" fill="#ef5350"/><line x1="596" y1="257.2145946666676" x2="596" y2="335.24874400000044" stroke="#26a69a" stroke-width="2"/><rect x="592" y="278.37639866666746" width="8" height="44.96883066666828" fill="#26a69a"/><line x1="608" y1="247.9563066666667" x2="608" y2="353.76532133333666" stroke="#ef5350" stroke-width="2"/><rect x="604" y="286.3120746666634" width="8" height="52.90450800000593" fill="#ef5350"/><line x1="620" y1="294.24775066666666" x2="620" y2="382.86280133333247" stroke="#26a69a" stroke-width="2"/><rect x="616" y="325.9904546666651" width="8" height="18.516578666670682" fill="#26a69a"/><line x1="632" y1="245.31108133332964" x2="632" y2="352.44270933333155" stroke="#ef5350" stroke-width="2"/><rect x="628" y="332.6035186666634" width="8" height="7.935676000003468" fill="#ef5350"/><line x1="644" y1="329.95829333333404" x2="644" y2="415.92811866667034" stroke="#ef5350" stroke-width="2"/><rect x="640" y="339.21658266666935" width="8" height="48.93666933332952" fill="#ef5350"/><line x1="656" y1="365.66883600000136" x2="656" y2="415.92811866667034" stroke="#ef5350" stroke-width="2"/><rect x="652" y="386.83063866666697" width="8" height="3.967838666668854" fill="#ef5350"/><line x1="668" y1="349.79748400000216" x2="668" y2="429.15424533333254" stroke="#26a69a" stroke-width="2"/><rect x="664" y="390.7984773333358" width="8" height="7.935675999995851" fill="#26a69a"/><line x1="680" y1="356.41054666666605" x2="680" y2="445.02559733333175" stroke="#ef5350" stroke-width="2"/><rect x="676" y="400.0567653333367" width="8" height="42.323606666665626" fill="#ef5350"/><line x1="692" y1="336.5713559999979" x2="692" y2="438.41253333333344" stroke="#26a69a" stroke-width="2"/><rect x="688" y="392.1210893333334" width="8" height="46.29144400000007" fill="#26a69a"/><line x1="704" y1="382.86280133333247" x2="704" y2="464.86478799999986" stroke="#ef5350" stroke-width="2"/><rect x="700" y="389.47586399999636" width="8" height="33.06531733333787" fill="#ef5350"/><line x1="716" y1="406.66982933333503" x2="716" y2="467.5100133333368" stroke="#ef5350" stroke-width="2"/><rect x="712" y="422.54118133333424" width="8" height="22.48441599999751" fill="#ef5350"/><line x1="728" y1="421.21856933333675" x2="728" y2="483.381365333336" stroke="#ef5350" stroke-width="2"/><rect x="724" y="438.41253333333344" width="8" height="34.52019199999842" fill="#ef5350"/><line x1="740" y1="407.99244266666693" x2="740" y2="505.86578133333353" stroke="#26a69a" stroke-width="2"/><rect x="736" y="439.73514666666534" width="8" height="38.355768000004275" fill="#26a69a"/><line x1="752" y1="390.7984773333358" x2="752" y2="472.8004640000032" stroke="#26a69a" stroke-width="2"/><rect x="748" y="407.99244266666693" width="8" height="31.74270399999841" fill="#26a69a"/><line x1="764" y1="377.57235066666607" x2="764" y2="497.9301053333302" stroke="#ef5350" stroke-width="2"/><rect x="760" y="410.6376679999964" width="8" height="75.38892266666909" fill="#ef5350"/><line x1="776" y1="438.41253333333344" x2="776" y2="534.9632600000026" stroke="#26a69a" stroke-width="2"/><rect x="772" y="448.99343600000066" width="8" height="34.387929333335364" fill="#26a69a"/><line x1="788" y1="389.47586399999636" x2="788" y2="459.57433733333346" stroke="#26a69a" stroke-width="2"/><rect x="784" y="411.96028000000143" width="8" height="38.35576799999677" fill="#26a69a"/><line x1="800" y1="360.37838533333496" x2="800" y2="495.2848800000007" stroke="#ef5350" stroke-width="2"/><rect x="796" y="411.96028000000143" width="8" height="71.42108533333459" fill="#ef5350"/><line x1="812" y1="493.9622666666688" x2="812" y2="602.4165080000026" stroke="#ef5350" stroke-width="2"/><rect x="808" y="495.2848800000007" width="8" height="82.00198666666745" fill="#ef5350"/><line x1="824" y1="528.350197333331" x2="824" y2="586.5451560000034" stroke="#ef5350" stroke-width="2"/><rect x="820" y="573.3190279999993" width="8" height="13.22612800000411" fill="#ef5350"/><line x1="836" y1="544.2215493333302" x2="836" y2="624.9009240000001" stroke="#ef5350" stroke-width="2"/><rect x="832" y="583.7676693333302" width="8" height="4.10009866667076" fill="#ef5350"/><line x1="848" y1="565.3833520000035" x2="848" y2="663.256691999997" stroke="#ef5350" stroke-width="2"/><rect x="844" y="591.8356066666698" width="8" height="11.903513333330352" fill="#ef5350"/><line x1="860" y1="556.1250640000026" x2="860" y2="672.5149799999979" stroke="#ef5350" stroke-width="2"/><rect x="856" y="603.7391200000002" width="8" height="55.549733333335325" fill="#ef5350"/><line x1="872" y1="623.5783106666682" x2="872" y2="713.5159733333314" stroke="#ef5350" stroke-width="2"/><rect x="868" y="661.9340786666651" width="8" height="21.161803999999847" fill="#ef5350"/><line x1="884" y1="651.3531773333323" x2="884" y2="739.9682279999979" stroke="#ef5350" stroke-width="2"/><rect x="880" y="679.1280440000037" width="8" height="44.96883199999502" fill="#ef5350"/><line x1="896" y1="683.0958826666649" x2="896" y2="755.8395799999971" stroke="#26a69a" stroke-width="2"/><rect x="892" y="708.225522666665" width="8" height="15.871353333333673" fill="#26a69a"/><line x1="908" y1="650.0305653333346" x2="908" y2="714.8385866666633" stroke="#ef5350" stroke-width="2"/><rect x="904" y="701.6124600000012" width="8" height="10.580901333332804" fill="#ef5350"/><line x1="920" y1="606.3843453333296" x2="920" y2="708.225522666665" stroke="#26a69a" stroke-width="2"/><rect x="916" y="612.9974093333354" width="8" height="93.90550133333215" fill="#26a69a"/><line x1="932" y1="558.770289333332" x2="932" y2="676.4828186666666" stroke="#26a69a" stroke-width="2"/><rect x="928" y="568.0285773333329" width="8" height="44.96883200000252" fill="#26a69a"/><line x1="944" y1="542.8989359999983" x2="944" y2="615.6426346666649" stroke="#ef5350" stroke-width="2"/><rect x="940" y="570.6738026666699" width="8" height="21.16180399999996" fill="#ef5350"/><line x1="956" y1="550.8346133333362" x2="956" y2="635.481825333333" stroke="#26a69a" stroke-width="2"/><rect x="952" y="574.6416413333312" width="8" height="17.19396533333861" fill="#26a69a"/><line x1="968" y1="482.05875333333097" x2="968" y2="566.7059653333354" stroke="#26a69a" stroke-width="2"/><rect x="964" y="500.5753306666671" width="8" height="63.48540933333129" fill="#26a69a"/><line x1="980" y1="499.2527173333352" x2="980" y2="573.3190279999993" stroke="#ef5350" stroke-width="2"/><rect x="976" y="505.86578133333353" width="8" height="13.22612666666987" fill="#ef5350"/><line x1="992" y1="396.0889280000022" x2="992" y2="598.4486693333338" stroke="#ef5350" stroke-width="2"/><rect x="988" y="512.4788453333318" width="8" height="18.516577333336272" fill="#ef5350"/><line x1="1004" y1="466.1873999999974" x2="1004" y2="599.7712826666657" stroke="#ef5350" stroke-width="2"/><rect x="1000" y="537.6084853333319" width="8" height="60.84018400000184" fill="#ef5350"/><line x1="1016" y1="614.3200226666673" x2="1016" y2="814.0345386666695" stroke="#26a69a" stroke-width="2"/><rect x="1012" y="724.0968759999987" width="8" height="88.61504933333129" fill="#26a69a"/><line x1="1028" y1="340.53919466666684" x2="1028" y2="737.3230026666685" stroke="#26a69a" stroke-width="2"/><rect x="1024" y="450.3160479999982" width="8" height="265.8451506666703" fill="#26a69a"/><line x1="1040" y1="388.2855133333351" x2="1040" y2="500.5753306666671" stroke="#ef5350" stroke-width="2"/><rect x="1036" y="446.34821066666365" width="8" height="21.161802666673168" fill="#ef5350"/><line x1="1052" y1="324.66784266666764" x2="1052" y2="562.7381266666665" stroke="#ef5350" stroke-width="2"/><rect x="1048" y="460.896949333331" width="8" height="26.452254666666363" fill="#ef5350"/><line x1="1064" y1="328.63568000000214" x2="1064" y2="500.5753306666671" stroke="#26a69a" stroke-width="2"/><rect x="1060" y="331.2809053333315" width="8" height="146.81000933333814" fill="#26a69a"/><line x1="1076" y1="254.56936933333054" x2="1076" y2="373.60451199999716" stroke="#26a69a" stroke-width="2"/><rect x="1072" y="273.08594800000105" width="8" height="62.16279599999939" fill="#26a69a"/><line x1="1088" y1="91.88800800000081" x2="1088" y2="270.44072133332975" stroke="#26a69a" stroke-width="2"/><rect x="1084" y="172.5673826666632" width="8" height="97.87333866666654" fill="#26a69a"/><line x1="1100" y1="54.98711466666464" x2="1100" y2="216.21360133333383" stroke="#ef5350" stroke-width="2"/><rect x="1096" y="177.8578333333371" width="8" height="7.935675999995738" fill="#ef5350"/><line x1="1112" y1="167.2769319999968" x2="1112" y2="345.82964533333325" stroke="#ef5350" stroke-width="2"/><rect x="1108" y="181.82567199999835" width="8" height="140.19694533333222" fill="#ef5350"/><line x1="1124" y1="229.4397280000037" x2="1124" y2="360.37838533333496" stroke="#26a69a" stroke-width="2"/><rect x="1120" y="261.18243333333635" width="8" height="58.19495866666489" fill="#26a69a"/><line x1="1136" y1="15.176471999999762" x2="1136" y2="259.85981999999694" stroke="#26a69a" stroke-width="2"/><rect x="1132" y="32.37043733333087" width="8" height="227.48938266666607" fill="#26a69a"/><line x1="1148" y1="-32.437583999997855" x2="1148" y2="140.8246786666648" stroke="#ef5350" stroke-width="2"/><rect x="1144" y="20.466922666666164" width="8" height="87.29243866666832" fill="#ef5350"/><line x1="1160" y1="15.176471999999762" x2="1160" y2="171.24477066666554" stroke="#ef5350" stroke-width="2"/><rect x="1156" y="103.79152266666551" width="8" height="6.613063999998303" fill="#ef5350"/><line x1="1172" y1="77.3392693333335" x2="1172" y2="147.43774133333613" stroke="#26a69a" stroke-width="2"/><rect x="1168" y="86.59755733333441" width="8" height="38.355767999996715" fill="#26a69a"/><line x1="1184" y1="94.53323333333014" x2="1184" y2="228.11711599999853" stroke="#ef5350" stroke-width="2"/><rect x="1180" y="94.53323333333014" width="8" height="125.64820666667265" fill="#ef5350"/><line x1="1196" y1="210.92315066666742" x2="1196" y2="434.44469599999894" stroke="#ef5350" stroke-width="2"/><rect x="1192" y="226.79450266666663" width="8" height="170.61703733333314" fill="#ef5350"/><line x1="1208" y1="392.1210893333334" x2="1208" y2="472.8004640000032" stroke="#ef5350" stroke-width="2"/><rect x="1204" y="407.99244266666693" width="8" height="14.548738666667305" fill="#ef5350"/><line x1="1220" y1="378.89496266666356" x2="1220" y2="504.54316800000163" stroke="#ef5350" stroke-width="2"/><rect x="1216" y="419.8959559999973" width="8" height="78.03414933333289" fill="#ef5350"/><line x1="1232" y1="471.4778506666638" x2="1232" y2="708.225522666665" stroke="#ef5350" stroke-width="2"/><rect x="1228" y="488.6718160000024" width="8" height="132.26126933332887" fill="#ef5350"/><line x1="1244" y1="504.54316800000163" x2="1244" y2="630.1913746666665" stroke="#26a69a" stroke-width="2"/><rect x="1240" y="517.7692959999982" width="8" height="99.19595199999856" fill="#26a69a"/><line x1="1256" y1="487.34920399999737" x2="1256" y2="660.6114666666674" stroke="#ef5350" stroke-width="2"/><rect x="1252" y="512.4788453333318" width="8" height="97.87333866666665" fill="#ef5350"/><line x1="1268" y1="533.6406479999974" x2="1268" y2="644.7401133333339" stroke="#ef5350" stroke-width="2"/><rect x="1264" y="598.4486693333338" width="8" height="11.903514666664705" fill="#ef5350"/><line x1="1280" y1="585.88384933333" x2="1280" y2="737.3230026666685" stroke="#ef5350" stroke-width="2"/><rect x="1276" y="606.3843453333296" width="8" height="92.58288933333449" fill="#ef5350"/><line x1="1292" y1="685.741108000002" x2="1292" y2="877.5199480000007" stroke="#ef5350" stroke-width="2"/><rect x="1288" y="696.3220093333348" width="8" height="166.64919866666423" fill="#ef5350"/><line x1="1304" y1="828.5832786666637" x2="1304" y2="950.2636453333329" stroke="#ef5350" stroke-width="2"/><rect x="1300" y="862.971207999999" width="8" height="17.193965333331107" fill="#ef5350"/><line x1="1316" y1="771.7109319999963" x2="1316" y2="890.7460746666629" stroke="#26a69a" stroke-width="2"/><rect x="1312" y="812.71192533333" width="8" height="74.0663106666716" fill="#26a69a"/><line x1="1328" y1="759.807418666666" x2="1328" y2="849.7450813333368" stroke="#ef5350" stroke-width="2"/><rect x="1324" y="816.679763999999" width="8" height="10.580901333332804" fill="#ef5350"/><line x1="1340" y1="749.2265159999988" x2="1340" y2="848.4224679999974" stroke="#ef5350" stroke-width="2"/><rect x="1336" y="811.3893133333326" width="8" height="26.45225333333201" fill="#ef5350"/><line x1="1352" y1="762.452644000003" x2="1352" y2="877.5199480000007" stroke="#ef5350" stroke-width="2"/><rect x="1348" y="823.2928279999973" width="8" height="14.548738666667305" fill="#ef5350"/><line x1="1364" y1="795.5179613333333" x2="1364" y2="917.1983280000026" stroke="#ef5350" stroke-width="2"/><rect x="1360" y="836.518954666667" width="8" height="54.22711999999592" fill="#ef5350"/><line x1="1376" y1="738.645614666666" x2="1376" y2="898.6817506666663" stroke="#26a69a" stroke-width="2"/><rect x="1372" y="784.9370586666661" width="8" height="101.84117733333551" fill="#26a69a"/><line x1="1388" y1="676.4828186666666" x2="1388" y2="803.4536373333367" stroke="#26a69a" stroke-width="2"/><rect x="1384" y="702.9350719999986" width="8" height="84.64721333333125" fill="#26a69a"/><line x1="1400" y1="708.225522666665" x2="1400" y2="845.7772426666679" stroke="#ef5350" stroke-width="2"/><rect x="1396" y="710.8707480000021" width="8" height="84.64721333333125" fill="#ef5350"/><line x1="1412" y1="759.807418666666" x2="1412" y2="841.8094053333334" stroke="#26a69a" stroke-width="2"/><rect x="1408" y="770.3883199999988" width="8" height="19.839190666668173" fill="#26a69a"/><line x1="1424" y1="669.2084493333368" x2="1424" y2="780.9692213333316" stroke="#26a69a" stroke-width="2"/><rect x="1420" y="677.8054306666643" width="8" height="96.550726666669" fill="#26a69a"/><line x1="1436" y1="610.3521839999985" x2="1436" y2="687.0637199999994" stroke="#26a69a" stroke-width="2"/><rect x="1432" y="624.9009240000001" width="8" height="54.22712000000354" fill="#26a69a"/><line x1="1448" y1="598.4486693333338" x2="1448" y2="665.9019173333338" stroke="#ef5350" stroke-width="2"/><rect x="1444" y="624.9009240000001" width="8" height="21.161802666665608" fill="#ef5350"/><line x1="1460" y1="615.6426346666649" x2="1460" y2="665.9019173333338" stroke="#ef5350" stroke-width="2"/><rect x="1456" y="642.0948879999969" width="8" height="13.22612800000411" fill="#ef5350"/><line x1="1472" y1="561.415514666669" x2="1472" y2="651.3531773333323" stroke="#26a69a" stroke-width="2"/><rect x="1468" y="591.8356066666698" width="8" height="59.51757066666244" fill="#26a69a"/><line x1="1484" y1="589.1903813333329" x2="1484" y2="665.9019173333338" stroke="#ef5350" stroke-width="2"/><rect x="1480" y="589.1903813333329" width="8" height="68.77585999999769" fill="#ef5350"/><line x1="1496" y1="642.0948879999969" x2="1496" y2="702.9350719999986" stroke="#ef5350" stroke-width="2"/><rect x="1492" y="656.6436279999987" width="8" height="33.065317333337816" fill="#ef5350"/><line x1="1508" y1="585.222542666664" x2="1508" y2="688.3863333333313" stroke="#26a69a" stroke-width="2"/><rect x="1504" y="660.6114666666674" width="8" height="18.516577333336272" fill="#26a69a"/><line x1="1520" y1="612.9974093333354" x2="1520" y2="673.8375933333298" stroke="#ef5350" stroke-width="2"/><rect x="1516" y="657.9662413333306" width="8" height="2.645225333336839" fill="#ef5350"/><line x1="1532" y1="657.9662413333306" x2="1532" y2="749.2265159999988" stroke="#ef5350" stroke-width="2"/><rect x="1528" y="663.256691999997" width="8" height="38.35576800000422" fill="#ef5350"/><line x1="1544" y1="647.3853386666633" x2="1544" y2="708.225522666665" stroke="#26a69a" stroke-width="2"/><rect x="1540" y="677.8054306666643" width="8" height="29.097480000003316" fill="#26a69a"/><line x1="1556" y1="668.4148813333347" x2="1556" y2="765.0978693333324" stroke="#26a69a" stroke-width="2"/><rect x="1552" y="671.1923680000002" width="8" height="13.22612666666987" fill="#26a69a"/><line x1="1568" y1="669.8697546666683" x2="1568" y2="709.5481359999969" stroke="#ef5350" stroke-width="2"/><rect x="1564" y="673.8375933333298" width="8" height="13.226126666669643" fill="#ef5350"/><line x1="1580" y1="665.9019173333338" x2="1580" y2="799.4857986666678" stroke="#ef5350" stroke-width="2"/><rect x="1576" y="681.773269333333" width="8" height="111.09946666666326" fill="#ef5350"/><line x1="1592" y1="709.5481359999969" x2="1592" y2="803.4536373333367" stroke="#26a69a" stroke-width="2"/><rect x="1588" y="710.8707480000021" width="8" height="87.2924386666682" fill="#26a69a"/><line x1="1604" y1="594.4808319999993" x2="1604" y2="710.8707480000021" stroke="#26a69a" stroke-width="2"/><rect x="1600" y="646.0627266666658" width="8" height="63.48540933333118" fill="#26a69a"/><line x1="1616" y1="503.2205559999966" x2="1616" y2="656.6436279999987" stroke="#26a69a" stroke-width="2"/><rect x="1612" y="511.15623199999993" width="8" height="145.48739599999874" fill="#26a69a"/><line x1="1628" y1="397.4115399999998" x2="1628" y2="513.801457333337" stroke="#26a69a" stroke-width="2"/><rect x="1624" y="422.54118133333424" width="8" height="83.3245999999993" fill="#26a69a"/><line x1="1640" y1="411.96028000000143" x2="1640" y2="475.44568933333267" stroke="#ef5350" stroke-width="2"/><rect x="1636" y="423.86379466666614" width="8" height="46.291444000000126" fill="#ef5350"/><line x1="1652" y1="404.0246039999981" x2="1652" y2="470.15523866666626" stroke="#26a69a" stroke-width="2"/><rect x="1648" y="406.66982933333503" width="8" height="58.19495866666483" fill="#26a69a"/><line x1="1664" y1="361.70099733333245" x2="1664" y2="469.4939320000003" stroke="#ef5350" stroke-width="2"/><rect x="1660" y="402.7019906666662" width="8" height="34.387930666669774" fill="#ef5350"/><line x1="1676" y1="407.99244266666693" x2="1676" y2="455.6064986666646" stroke="#26a69a" stroke-width="2"/><rect x="1672" y="426.50902000000315" width="8" height="9.258287999993343" fill="#26a69a"/><line x1="1688" y1="398.7341533333317" x2="1688" y2="478.0909146666696" stroke="#ef5350" stroke-width="2"/><rect x="1684" y="430.4768573333301" width="8" height="42.32360666667313" fill="#ef5350"/><line x1="1700" y1="381.54018800000057" x2="1700" y2="484.7039786666679" stroke="#26a69a" stroke-width="2"/><rect x="1696" y="417.25073066666783" width="8" height="50.25928266666898" fill="#26a69a"/><line x1="1712" y1="386.83063866666697" x2="1712" y2="463.54217466666796" stroke="#ef5350" stroke-width="2"/><rect x="1708" y="419.8959559999973" width="8" height="31.74270533333282" fill="#ef5350"/><line x1="1724" y1="447.67082266666876" x2="1724" y2="500.5753306666671" stroke="#ef5350" stroke-width="2"/><rect x="1720" y="452.96127333333516" width="8" height="18.516577333328655" fill="#ef5350"/><line x1="1736" y1="421.21856933333675" x2="1736" y2="478.0909146666696" stroke="#26a69a" stroke-width="2"/><rect x="1732" y="459.57433733333346" width="8" height="9.258288000000903" fill="#26a69a"/><line x1="1748" y1="404.0246039999981" x2="1748" y2="478.0909146666696" stroke="#26a69a" stroke-width="2"/><rect x="1744" y="442.38037200000235" width="8" height="19.83919066666806" fill="#26a69a"/><line x1="1760" y1="430.4768573333301" x2="1760" y2="486.02659066666547" stroke="#ef5350" stroke-width="2"/><rect x="1756" y="445.02559733333175" width="8" height="9.258289333335313" fill="#ef5350"/><line x1="1772" y1="398.7341533333317" x2="1772" y2="456.9291119999965" stroke="#26a69a" stroke-width="2"/><rect x="1768" y="411.96028000000143" width="8" height="42.323606666665626" fill="#26a69a"/><line x1="1784" y1="316.73216666666417" x2="1784" y2="442.38037200000235" stroke="#ef5350" stroke-width="2"/><rect x="1780" y="405.34721600000313" width="8" height="13.226127999996606" fill="#ef5350"/><line x1="1796" y1="409.3150546666645" x2="1796" y2="484.7039786666679" stroke="#ef5350" stroke-width="2"/><rect x="1792" y="418.57334399999974" width="8" height="58.19495866666483" fill="#ef5350"/><line x1="1808" y1="478.0909146666696" x2="1808" y2="549.5119999999966" stroke="#ef5350" stroke-width="2"/><rect x="1804" y="478.0909146666696" width="8" height="18.516577333328655" fill="#ef5350"/><line x1="1820" y1="488.6718160000024" x2="1820" y2="537.6084853333319" stroke="#ef5350" stroke-width="2"/><rect x="1816" y="496.6074919999983" width="8" height="19.17788400000211" fill="#ef5350"/><line x1="1832" y1="513.801457333337" x2="1832" y2="571.9964160000018" stroke="#ef5350" stroke-width="2"/><rect x="1828" y="528.350197333331" width="8" height="37.03315466667243" fill="#ef5350"/><line x1="1844" y1="554.802450666663" x2="1844" y2="747.9039040000013" stroke="#ef5350" stroke-width="2"/><rect x="1840" y="554.802450666663" width="8" height="99.19595200000606" fill="#ef5350"/><line x1="1856" y1="610.3521839999985" x2="1856" y2="679.1280440000037" stroke="#26a69a" stroke-width="2"/><rect x="1852" y="612.9974093333354" width="8" height="39.67838133332873" fill="#26a69a"/><line x1="1868" y1="537.6084853333319" x2="1868" y2="623.5783106666682" stroke="#26a69a" stroke-width="2"/><rect x="1864" y="558.770289333332" width="8" height="58.194958666664775" fill="#26a69a"/><line x1="1880" y1="451.6386613333301" x2="1880" y2="566.7059653333354" stroke="#26a69a" stroke-width="2"/><rect x="1876" y="456.9291119999965" width="8" height="107.13162800000191" fill="#26a69a"/><line x1="1892" y1="462.2195626666704" x2="1892" y2="575.9642533333363" stroke="#ef5350" stroke-width="2"/><rect x="1888" y="462.2195626666704" width="8" height="100.5185639999961" fill="#ef5350"/><line x1="1904" y1="564.0607399999984" x2="1904" y2="722.7742626666668" stroke="#ef5350" stroke-width="2"/><rect x="1900" y="564.0607399999984" width="8" height="130.93865600000447" fill="#ef5350"/><line x1="1916" y1="632.8366000000036" x2="1916" y2="734.6777773333315" stroke="#26a69a" stroke-width="2"/><rect x="1912" y="656.6436279999987" width="8" height="31.74270533333265" fill="#26a69a"/><line x1="1928" y1="616.9652479999968" x2="1928" y2="765.0978693333324" stroke="#26a69a" stroke-width="2"/><rect x="1924" y="647.3853386666633" width="8" height="9.25828933333537" fill="#26a69a"/><line x1="1940" y1="524.3823586666698" x2="1940" y2="676.4828186666666" stroke="#26a69a" stroke-width="2"/><rect x="1936" y="527.0275839999991" width="8" height="125.64820666666503" fill="#26a69a"/><rect x="75" y="923.0324193826522" width="10" height="96.96758061734783" fill="#26a69a" opacity="0.9"/><rect x="87" y="955.2260087946197" width="10" height="64.7739912053803" fill="#ef5350" opacity="0.9"/><rect x="99" y="931.8679944818073" width="10" height="88.13200551819273" fill="#26a69a" opacity="0.9"/><rect x="111" y="960.4569753405759" width="10" height="59.54302465942408" fill="#26a69a" opacity="0.9"/><rect x="123" y="976.5826004483531" width="10" height="43.417399551646895" fill="#ef5350" opacity="0.9"/><rect x="135" y="986.3574538713572" width="10" height="33.642546128642834" fill="#ef5350" opacity="0.9"/><rect x="147" y="860.0" width="10" height="160.0" fill="#ef5350" opacity="0.9"/><rect x="159" y="954.6952060700121" width="10" height="65.30479392998791" fill="#26a69a" opacity="0.9"/><rect x="171" y="962.6642524573202" width="10" height="57.33574754267977" fill="#ef5350" opacity="0.9"/><rect x="183" y="984.974672357303" width="10" height="35.02532764269699" fill="#ef5350" opacity="0.9"/><rect x="195" y="987.1760217278841" width="10" height="32.82397827211594" fill="#26a69a" opacity="0.9"/><rect x="207" y="982.268386790826" width="10" height="37.73161320917404" fill="#26a69a" opacity="0.9"/><rect x="219" y="951.6311001896879" width="10" height="68.36889981031209" fill="#26a69a" opacity="0.9"/><rect x="231" y="988.0608725642352" width="10" height="31.939127435764817" fill="#26a69a" opacity="0.9"/><rect x="243" y="989.5724478358337" width="10" height="30.427552164166286" fill="#26a69a" opacity="0.9"/><rect x="255" y="972.0791300224176" width="10" height="47.920869977582356" fill="#ef5350" opacity="0.9"/><rect x="267" y="990.2201888256596" width="10" height="29.779811174340352" fill="#26a69a" opacity="0.9"/><rect x="279" y="974.0352862562511" width="10" height="45.964713743748916" fill="#26a69a" opacity="0.9"/><rect x="291" y="973.4258061734782" width="10" height="46.574193826521764" fill="#26a69a" opacity="0.9"/><rect x="303" y="971.6345490601827" width="10" height="48.365450939817265" fill="#ef5350" opacity="0.9"/><rect x="315" y="990.0994783583376" width="10" height="29.900521641662408" fill="#ef5350" opacity="0.9"/><rect x="327" y="984.8022288325574" width="10" height="35.197771167442625" fill="#26a69a" opacity="0.9"/><rect x="339" y="984.5079970684601" width="10" height="35.4920029315399" fill="#ef5350" opacity="0.9"/><rect x="351" y="984.9137782376272" width="10" height="35.086221762372816" fill="#ef5350" opacity="0.9"/><rect x="363" y="973.8714649077427" width="10" height="46.128535092257266" fill="#ef5350" opacity="0.9"/><rect x="375" y="981.9978660113812" width="10" height="38.002133988618766" fill="#ef5350" opacity="0.9"/><rect x="387" y="982.6289015347473" width="10" height="37.37109846525266" fill="#ef5350" opacity="0.9"/><rect x="399" y="997.5161665804449" width="10" height="22.48383341955514" fill="#26a69a" opacity="0.9"/><rect x="411" y="992.9712019313674" width="10" height="27.028798068632568" fill="#26a69a" opacity="0.9"/><rect x="423" y="986.5218141058804" width="10" height="33.47818589411963" fill="#ef5350" opacity="0.9"/><rect x="435" y="1003.0591481289878" width="10" height="16.940851871012228" fill="#ef5350" opacity="0.9"/><rect x="447" y="993.5127823762717" width="10" height="26.48721762372827" fill="#26a69a" opacity="0.9"/><rect x="459" y="1001.4333290222452" width="10" height="18.566670977754825" fill="#ef5350" opacity="0.9"/><rect x="471" y="989.4652095188826" width="10" height="30.534790481117398" fill="#26a69a" opacity="0.9"/><rect x="483" y="999.2977237454734" width="10" height="20.702276254526623" fill="#26a69a" opacity="0.9"/><rect x="495" y="998.4101784790481" width="10" height="21.589821520951887" fill="#26a69a" opacity="0.9"/><rect x="507" y="979.9786601138127" width="10" height="40.02133988618732" fill="#26a69a" opacity="0.9"/><rect x="519" y="994.7171926194171" width="10" height="25.28280738058288" fill="#ef5350" opacity="0.9"/><rect x="531" y="998.1046301086394" width="10" height="21.895369891360588" fill="#ef5350" opacity="0.9"/><rect x="543" y="998.118641145025" width="10" height="21.88135885497502" fill="#26a69a" opacity="0.9"/><rect x="555" y="1000.2337687532333" width="10" height="19.766231246766665" fill="#26a69a" opacity="0.9"/><rect x="567" y="996.48473874806" width="10" height="23.515261251940046" fill="#26a69a" opacity="0.9"/><rect x="579" y="999.9486980513882" width="10" height="20.05130194861181" fill="#ef5350" opacity="0.9"/><rect x="591" y="1000.8006768408346" width="10" height="19.199323159165374" fill="#26a69a" opacity="0.9"/><rect x="603" y="998.4333505776858" width="10" height="21.566649422314185" fill="#ef5350" opacity="0.9"/><rect x="615" y="997.3545007759959" width="10" height="22.645499224004084" fill="#26a69a" opacity="0.9"/><rect x="627" y="986.450142265908" width="10" height="33.54985773409203" fill="#ef5350" opacity="0.9"/><rect x="639" y="998.337428867046" width="10" height="21.662571132953985" fill="#ef5350" opacity="0.9"/><rect x="651" y="991.8233747197793" width="10" height="28.17662528022072" fill="#ef5350" opacity="0.9"/><rect x="663" y="987.8097516813243" width="10" height="32.190248318675685" fill="#26a69a" opacity="0.9"/><rect x="675" y="997.6260993274702" width="10" height="22.37390067252977" fill="#ef5350" opacity="0.9"/><rect x="687" y="993.1441843421279" width="10" height="26.855815657872085" fill="#26a69a" opacity="0.9"/><rect x="699" y="998.1137911708915" width="10" height="21.886208829108455" fill="#ef5350" opacity="0.9"/><rect x="711" y="996.0967408173823" width="10" height="23.903259182617717" fill="#ef5350" opacity="0.9"/><rect x="723" y="987.8895068115193" width="10" height="32.110493188480746" fill="#ef5350" opacity="0.9"/><rect x="735" y="978.2197361614071" width="10" height="41.78026383859287" fill="#26a69a" opacity="0.9"/><rect x="747" y="986.6996464907743" width="10" height="33.300353509225715" fill="#26a69a" opacity="0.9"/><rect x="759" y="992.1229953440248" width="10" height="27.877004655975156" fill="#ef5350" opacity="0.9"/><rect x="771" y="980.101526125194" width="10" height="39.89847387480597" fill="#26a69a" opacity="0.9"/><rect x="783" y="987.8415459561993" width="10" height="32.1584540438007" fill="#26a69a" opacity="0.9"/><rect x="795" y="993.0843679944818" width="10" height="26.915632005518205" fill="#ef5350" opacity="0.9"/><rect x="807" y="972.9311088118641" width="10" height="47.06889118813592" fill="#ef5350" opacity="0.9"/><rect x="819" y="989.4630539748232" width="10" height="30.536946025176803" fill="#ef5350" opacity="0.9"/><rect x="831" y="988.683285911364" width="10" height="31.31671408863599" fill="#ef5350" opacity="0.9"/><rect x="843" y="977.7072555613037" width="10" height="42.29274443869633" fill="#ef5350" opacity="0.9"/><rect x="855" y="977.0675978617003" width="10" height="42.93240213829972" fill="#ef5350" opacity="0.9"/><rect x="867" y="973.512027935851" width="10" height="46.48797206414895" fill="#ef5350" opacity="0.9"/><rect x="879" y="974.6711717537506" width="10" height="45.32882824624937" fill="#ef5350" opacity="0.9"/><rect x="891" y="961.0001724435248" width="10" height="58.999827556475225" fill="#26a69a" opacity="0.9"/><rect x="903" y="990.4896318330747" width="10" height="29.510368166925332" fill="#ef5350" opacity="0.9"/><rect x="915" y="988.207449560269" width="10" height="31.79255043973103" fill="#26a69a" opacity="0.9"/><rect x="927" y="979.6100620796689" width="10" height="40.389937920331136" fill="#26a69a" opacity="0.9"/><rect x="939" y="988.0355449215382" width="10" height="31.96445507846181" fill="#ef5350" opacity="0.9"/><rect x="951" y="987.8862734954303" width="10" height="32.11372650456974" fill="#26a69a" opacity="0.9"/><rect x="963" y="990.4529875840662" width="10" height="29.54701241593375" fill="#26a69a" opacity="0.9"/><rect x="975" y="988.5081479565442" width="10" height="31.491852043455765" fill="#ef5350" opacity="0.9"/><rect x="987" y="932.9285221589929" width="10" height="87.0714778410071" fill="#ef5350" opacity="0.9"/><rect x="999" y="871.9724305914813" width="10" height="148.02756940851873" fill="#ef5350" opacity="0.9"/><rect x="1011" y="904.6116787377134" width="10" height="115.38832126228658" fill="#26a69a" opacity="0.9"/><rect x="1023" y="952.392007242628" width="10" height="67.60799275737202" fill="#26a69a" opacity="0.9"/><rect x="1035" y="970.9593248836006" width="10" height="49.04067511639937" fill="#ef5350" opacity="0.9"/><rect x="1047" y="964.14026125194" width="10" height="55.859738748059954" fill="#ef5350" opacity="0.9"/><rect x="1059" y="973.2237239179169" width="10" height="46.776276082083086" fill="#26a69a" opacity="0.9"/><rect x="1071" y="979.6149120538024" width="10" height="40.38508794619759" fill="#26a69a" opacity="0.9"/><rect x="1083" y="927.7519831005345" width="10" height="92.24801689946548" fill="#26a69a" opacity="0.9"/><rect x="1095" y="961.4603811001897" width="10" height="58.53961889981031" fill="#ef5350" opacity="0.9"/><rect x="1107" y="974.1080358682532" width="10" height="45.89196413174682" fill="#ef5350" opacity="0.9"/><rect x="1119" y="991.9182186583894" width="10" height="28.081781341610622" fill="#26a69a" opacity="0.9"/><rect x="1131" y="990.4077211588204" width="10" height="29.592278841179564" fill="#26a69a" opacity="0.9"/><rect x="1143" y="965.165222452147" width="10" height="54.83477754785304" fill="#ef5350" opacity="0.9"/><rect x="1155" y="974.0336695982066" width="10" height="45.96633040179336" fill="#ef5350" opacity="0.9"/><rect x="1167" y="995.1973400586307" width="10" height="24.802659941369257" fill="#26a69a" opacity="0.9"/><rect x="1179" y="993.1581953785135" width="10" height="26.841804621486517" fill="#ef5350" opacity="0.9"/><rect x="1191" y="962.9972840144852" width="10" height="57.00271598551478" fill="#ef5350" opacity="0.9"/><rect x="1203" y="987.1808717020176" width="10" height="32.81912829798239" fill="#ef5350" opacity="0.9"/><rect x="1215" y="976.1396361441628" width="10" height="43.86036385583725" fill="#ef5350" opacity="0.9"/><rect x="1227" y="951.9037765131919" width="10" height="68.09622348680807" fill="#ef5350" opacity="0.9"/><rect x="1239" y="989.6640584583549" width="10" height="30.33594154164507" fill="#26a69a" opacity="0.9"/><rect x="1251" y="989.6856138989481" width="10" height="30.314386101051923" fill="#ef5350" opacity="0.9"/><rect x="1263" y="997.8890757027074" width="10" height="22.110924297292627" fill="#ef5350" opacity="0.9"/><rect x="1275" y="982.8908001379548" width="10" height="37.109199862045216" fill="#ef5350" opacity="0.9"/><rect x="1287" y="945.2372176237283" width="10" height="74.76278237627173" fill="#ef5350" opacity="0.9"/><rect x="1299" y="966.9834238661838" width="10" height="53.016576133816216" fill="#ef5350" opacity="0.9"/><rect x="1311" y="986.3030263838593" width="10" height="33.69697361614067" fill="#26a69a" opacity="0.9"/><rect x="1323" y="991.9236075185377" width="10" height="28.076392481462335" fill="#ef5350" opacity="0.9"/><rect x="1335" y="997.7511208829109" width="10" height="22.248879117089132" fill="#ef5350" opacity="0.9"/><rect x="1347" y="996.9632695292291" width="10" height="23.036730470770863" fill="#ef5350" opacity="0.9"/><rect x="1359" y="992.5605707880669" width="10" height="27.43942921193309" fill="#ef5350" opacity="0.9"/><rect x="1371" y="980.4426409725814" width="10" height="39.557359027418556" fill="#26a69a" opacity="0.9"/><rect x="1383" y="992.8041472667701" width="10" height="27.195852733229913" fill="#26a69a" opacity="0.9"/><rect x="1395" y="997.7327987584066" width="10" height="22.267201241593398" fill="#ef5350" opacity="0.9"/><rect x="1407" y="996.5073719606829" width="10" height="23.492628039317083" fill="#26a69a" opacity="0.9"/><rect x="1419" y="994.8260475944128" width="10" height="25.173952405587215" fill="#26a69a" opacity="0.9"/><rect x="1431" y="985.7059406794275" width="10" height="34.2940593205725" fill="#26a69a" opacity="0.9"/><rect x="1443" y="987.6286859803414" width="10" height="32.3713140196586" fill="#ef5350" opacity="0.9"/><rect x="1455" y="1002.5019399896534" width="10" height="17.49806001034665" fill="#ef5350" opacity="0.9"/><rect x="1467" y="991.875107777203" width="10" height="28.12489222279703" fill="#26a69a" opacity="0.9"/><rect x="1479" y="997.5619718917054" width="10" height="22.43802810829459" fill="#ef5350" opacity="0.9"/><rect x="1491" y="994.9343636833937" width="10" height="25.065636316606287" fill="#ef5350" opacity="0.9"/><rect x="1503" y="995.6031212277979" width="10" height="24.396878772202058" fill="#26a69a" opacity="0.9"/><rect x="1515" y="1003.5985730298328" width="10" height="16.401426970167222" fill="#ef5350" opacity="0.9"/><rect x="1527" y="990.4427487497844" width="10" height="29.557251250215586" fill="#ef5350" opacity="0.9"/><rect x="1539" y="999.1360579410243" width="10" height="20.86394205897568" fill="#26a69a" opacity="0.9"/><rect x="1551" y="994.2289618899811" width="10" height="25.771038110018935" fill="#26a69a" opacity="0.9"/><rect x="1563" y="1004.533540265563" width="10" height="15.466459734436967" fill="#ef5350" opacity="0.9"/><rect x="1575" y="1000.6842774616313" width="10" height="19.315722538368732" fill="#ef5350" opacity="0.9"/><rect x="1587" y="999.5601612346957" width="10" height="20.43983876530433" fill="#26a69a" opacity="0.9"/><rect x="1599" y="999.7514657699603" width="10" height="20.248534230039695" fill="#26a69a" opacity="0.9"/><rect x="1611" y="993.6194818072081" width="10" height="26.380518192791897" fill="#26a69a" opacity="0.9"/><rect x="1623" y="970.9102862562511" width="10" height="49.089713743748916" fill="#26a69a" opacity="0.9"/><rect x="1635" y="981.0688265218141" width="10" height="38.93117347818588" fill="#ef5350" opacity="0.9"/><rect x="1647" y="975.5323116054492" width="10" height="44.467688394550805" fill="#26a69a" opacity="0.9"/><rect x="1659" y="982.0010993274702" width="10" height="37.99890067252977" fill="#ef5350" opacity="0.9"/><rect x="1671" y="996.012135713054" width="10" height="23.987864286945978" fill="#26a69a" opacity="0.9"/><rect x="1683" y="993.2562726332126" width="10" height="26.743727366787425" fill="#ef5350" opacity="0.9"/><rect x="1695" y="977.6129505087084" width="10" height="42.38704949129158" fill="#26a69a" opacity="0.9"/><rect x="1707" y="994.2106397654768" width="10" height="25.7893602345232" fill="#ef5350" opacity="0.9"/><rect x="1719" y="980.774055871702" width="10" height="39.22594412829801" fill="#ef5350" opacity="0.9"/><rect x="1731" y="983.1429987928954" width="10" height="36.857001207104645" fill="#26a69a" opacity="0.9"/><rect x="1743" y="997.8815312984998" width="10" height="22.118468701500205" fill="#26a69a" opacity="0.9"/><rect x="1755" y="999.7164381789963" width="10" height="20.283561821003673" fill="#ef5350" opacity="0.9"/><rect x="1767" y="995.4064278323849" width="10" height="24.593572167615093" fill="#26a69a" opacity="0.9"/><rect x="1779" y="984.3339368856699" width="10" height="35.666063114330086" fill="#ef5350" opacity="0.9"/><rect x="1791" y="1001.665588894637" width="10" height="18.33441110536296" fill="#ef5350" opacity="0.9"/><rect x="1803" y="980.3343248836006" width="10" height="39.66567511639937" fill="#ef5350" opacity="0.9"/><rect x="1815" y="1002.9594542162441" width="10" height="17.040545783755874" fill="#ef5350" opacity="0.9"/><rect x="1827" y="998.1057078806691" width="10" height="21.894292119330885" fill="#ef5350" opacity="0.9"/><rect x="1839" y="962.9935118123815" width="10" height="57.006488187618515" fill="#ef5350" opacity="0.9"/><rect x="1851" y="991.3540050008622" width="10" height="28.64599499913777" fill="#26a69a" opacity="0.9"/><rect x="1863" y="997.9267977237455" width="10" height="22.073202276254506" fill="#26a69a" opacity="0.9"/><rect x="1875" y="983.3731031212278" width="10" height="36.626896878772186" fill="#26a69a" opacity="0.9"/><rect x="1887" y="994.2747672012416" width="10" height="25.725232798758384" fill="#ef5350" opacity="0.9"/><rect x="1899" y="977.2432747025349" width="10" height="42.756725297465096" fill="#ef5350" opacity="0.9"/><rect x="1911" y="967.3304664597345" width="10" height="52.66953354026555" fill="#26a69a" opacity="0.9"/><rect x="1923" y="925.4110622521124" width="10" height="94.5889377478876" fill="#26a69a" opacity="0.9"/><rect x="1935" y="885.555052595275" width="10" height="134.44494740472499" fill="#26a69a" opacity="0.9"/><rect x="1004" y="598.4486693333338" width="12" height="214.2632559999962" fill="#ff0000" opacity="0.50"/><polyline points="320,453.6553302285787,332,435.3245781433164,344,422.1406160344259,356,421.42298644384937,368,421.5294811952314,380,425.78261631949016,392,433.2836212414425,404,434.27594163114617,416,428.1198208408796,428,427.9664112369801,440,434.6296201985372,452,433.98219275106084,464,437.805134012865,476,433.8321620116403,488,422.8057445502145,500,412.0736834184451,512,392.03474798176404,524,375.0379506501683,536,371.752354842215,548,368.02389425406545,560,360.2418161981177,572,349.5479581475062,584,346.5486077207591,596,340.0560163822699,608,339.9760703141207,620,338.64410691912025,632,338.8245914665049,644,343.52255913636327,656,348.0250275360807,668,352.0986894215336,680,360.6969449051955,692,363.68972056501815,704,369.29462159057493,716,376.5070954708335,728,385.6904887910711,740,390.8375990649347,752,392.4713936936693,764,401.38141245300477,776,405.9158908860506,788,406.49154699214404,800,413.8143868341634,812,429.3831944372566,824,444.3510003003742,836,458.0192638908102,848,471.8973454250166,860,489.74415570200256,872,508.15860588910857,884,528.7241554234773,896,545.8195237323556,908,561.6646511229192,920,566.5534852381976,932,566.6939701996398,944,569.0884117679237,956,569.6172907741508,968,563.0418660020117,980,558.8561557161029,992,556.202752568538,1004,560.2261732128,1016,575.8329068115776,1028,563.8789202580938,1040,554.7009291224034,1052,548.2864791107431,1064,527.6192816081297,1076,503.3780117406877,1088,471.87223754316017,1100,444.62664438031726,1112,432.9500703758413,1124,416.59124780036717,1136,379.9987896606505,1148,354.07122505805546,1160,330.8648785445939,1172,307.60132414351733,1184,299.2756208917551,1196,308.6218989020683,1208,319.4713543717171,1220,336.467425891874,1232,363.55939345772487,1244,378.2460508427069,1256,400.3513968576878,1268,420.35147182361925,1280,446.88630638009573,1292,486.5134398677052,1304,524.0040811501482,1316,551.5000663104502,1328,577.762980503106,1340,602.5323696615411,1352,624.9427693763209,1364,650.2573698801598,1376,663.0840069074413,1388,666.8793464400703,1400,679.1306430965733,1412,687.8218504207098,1424,686.8679056822277,1436,680.9662883791589,1448,677.6421396446342,1460,675.5163183451486,1472,667.5467267567228,1484,666.6342995735477,1496,668.8318848840026,1508,668.0489879109246,1520,667.3406525543289,1532,670.6046342158213,1544,671.2904243539999,1556,671.281085653618,1568,672.7841936866071,1580,684.2211977164577,1592,686.7592501244189,1604,682.8833907474898,1616,666.5284232477309,1628,643.2915430654097,1640,626.8023712179078,1652,605.8373672289008,1664,589.7661819055126,1676,574.2178807716527,1688,564.5590791743492,1700,550.5297126498135,1712,541.1115172863371,1724,534.4797395130323,1736,527.3458916863925,1748,519.2539374305397,1760,513.066313548264,1772,503.4371674960539,1784,495.3548985916617,1796,493.58474659880665,1808,493.87262711320545,1820,495.9595555786109,1832,502.5713457139849,1844,516.9929701856669,1856,526.1362501044914,1868,529.2442538405718,1880,522.3570974748023,1892,526.2029097787945,1904,542.2787656093911,1916,553.1706572656427,1928,562.1434840657381,1940,558.7991126309058" fill="none" stroke="#0090ff" stroke-width="2"/><line x1="80" y1="50" x2="80" y2="850" stroke="#666666" stroke-width="0.5" stroke-dasharray="4,4"/><line x1="152" y1="50" x2="152" y2="850" stroke="#666666" stroke-width="0.5" stroke-dasharray="4,4"/><line x1="224" y1="50" x2="224" y2="850" stroke="#666666" stroke-width="0.5" stroke-dasharray="4,4"/><line x1="296" y1="50" x2="296" y2="850" stroke="#666666" stroke-width="0.5" stroke-dasharray="4,4"/><line x1="368" y1="50" x2="368" y2="850" stroke="#666666" stroke-width="0.5" stroke-dasharray="4,4"/><line x1="440" y1="50" x2="440" y2="850" stroke="#666666" stroke-width="0.5" stroke-dasharray="4,4"/><line x1="512" y1="50" x2="512" y2="850" stroke="#666666" stroke-width="0.5" stroke-dasharray="4,4"/><line x1="584" y1="50" x2="584" y2="850" stroke="#666666" stroke-width="0.5" stroke-dasharray="4,4"/><line x1="656" y1="50" x2="656" y2="850" stroke="#666666" stroke-width="0.5" stroke-dasharray="4,4"/><line x1="728" y1="50" x2="728" y2="850" stroke="#666666" stroke-width="0.5" stroke-dasharray="4,4"/><line x1="800" y1="50" x2="800" y2="850" stroke="#666666" stroke-width="0.5" stroke-dasharray="4,4"/><line x1="872" y1="50" x2="872" y2="850" stroke="#666666" stroke-width="0.5" stroke-dasharray="4,4"/><line x1="944" y1="50" x2="944" y2="850" stroke="#666666" stroke-width="0.5" stroke-dasharray="4,4"/><line x1="1016" y1="50" x2="1016" y2="850" stroke="#666666" stroke-width="0.5" stroke-dasharray="4,4"/><line x1="1088" y1="50" x2="1088" y2="850" stroke="#666666" stroke-width="0.5" stroke-dasharray="4,4"/><line x1="1160" y1="50" x2="1160" y2="850" stroke="#666666" stroke-width="0.5" stroke-dasharray="4,4"/><line x1="1232" y1="50" x2="1232" y2="850" stroke="#666666" stroke-width="0.5" stroke-dasharray="4,4"/><line x1="1304" y1="50" x2="1304" y2="850" stroke="#666666" stroke-width="0.5" stroke-dasharray="4,4"/><line x1="1376" y1="50" x2="1376" y2="850" stroke="#666666" stroke-width="0.5" stroke-dasharray="4,4"/><line x1="1448" y1="50" x2="1448" y2="850" stroke="#666666" stroke-width="0.5" stroke-dasharray="4,4"/><line x1="1520" y1="50" x2="1520" y2="850" stroke="#666666" stroke-width="0.5" stroke-dasharray="4,4"/><line x1="1592" y1="50" x2="1592" y2="850" stroke="#666666" stroke-width="0.5" stroke-dasharray="4,4"/><line x1="1664" y1="50" x2="1664" y2="850" stroke="#666666" stroke-width="0.5" stroke-dasharray="4,4"/><line x1="1736" y1="50" x2="1736" y2="850" stroke="#666666" stroke-width="0.5" stroke-dasharray="4,4"/><line x1="1808" y1="50" x2="1808" y2="850" stroke="#666666" stroke-width="0.5" stroke-dasharray="4,4"/><line x1="1880" y1="50" x2="1880" y2="850" stroke="#666666" stroke-width="0.5" stroke-dasharray="4,4"/><text x="80" y="1040" text-anchor="middle" font-size="20" fill="black">09:30</text><text x="152" y="1040" text-anchor="middle" font-size="20" fill="black">10:00</text><text x="224" y="1040" text-anchor="middle" font-size="20" fill="black">10:30</text><text x="296" y="1040" text-anchor="middle" font-size="20" fill="black">11:00</text><text x="368" y="1040" text-anchor="middle" font-size="20" fill="black">11:30</text><text x="440" y="1040" text-anchor="middle" font-size="20" fill="black">12:00</text><text x="512" y="1040" text-anchor="middle" font-size="20" fill="black">12:30</text><text x="584" y="1040" text-anchor="middle" font-size="20" fill="black">13:00</text><text x="656" y="1040" text-anchor="middle" font-size="20" fill="black">13:30</text><text x="728" y="1040" text-anchor="middle" font-size="20" fill="black">14:00</text><text x="800" y="1040" text-anchor="middle" font-size="20" fill="black">14:30</text><text x="872" y="1040" text-anchor="middle" font-size="20" fill="black">15:00</text><text x="944" y="1040" text-anchor="middle" font-size="20" fill="black">15:30</text><text x="1016" y="1040" text-anchor="middle" font-size="20" fill="black">09:30</text><text x="1088" y="1040" text-anchor="middle" font-size="20" fill="black">10:00</text><text x="1160" y="1040" text-anchor="middle" font-size="20" fill="black">10:30</text><text x="1232" y="1040" text-anchor="middle" font-size="20" fill="black">11:00</text><text x="1304" y="1040" text-anchor="middle" font-size="20" fill="black">11:30</text><text x="1376" y="1040" text-anchor="middle" font-size="20" fill="black">12:00</text><text x="1448" y="1040" text-anchor="middle" font-size="20" fill="black">12:30</text><text x="1520" y="1040" text-anchor="middle" font-size="20" fill="black">13:00</text><text x="1592" y="1040" text-anchor="middle" font-size="20" fill="black">13:30</text><text x="1664" y="1040" text-anchor="middle" font-size="20" fill="black">14:00</text><text x="1736" y="1040" text-anchor="middle" font-size="20" fill="black">14:30</text><text x="1808" y="1040" text-anchor="middle" font-size="20" fill="black">15:00</text><text x="1880" y="1040" text-anchor="middle" font-size="20" fill="black">15:30</text><text x="1942" y="50" text-anchor="end" font-size="40" fill="#26a69a" font-weight="bold"> +0.47% (Thu)</text></svg>