<svg xmlns="http://www.w3.org/2000/svg" width="1992" height="1050"><rect width="100%" height="100%" fill="white"/><text x="42" y="854.0" text-anchor="end" font-size="20" fill="black">429</text><text x="42" y="765.1111111111111" text-anchor="end" font-size="20" fill="black">430</text><text x="42" y="676.2222222222222" text-anchor="end" font-size="20" fill="black">431</text><text x="42" y="587.3333333333334" text-anchor="end" font-size="20" fill="black">432</text><text x="42" y="498.44444444444446" text-anchor="end" font-size="20" fill="black">433</text><text x="42" y="409.55555555555554" text-anchor="end" font-size="20" fill="black">434</text><text x="42" y="320.66666666666674" text-anchor="end" font-size="20" fill="black">435</text><text x="42" y="231.77777777777771" text-anchor="end" font-size="20" fill="black">436</text><text x="42" y="142.8888888888889" text-anchor="end" font-size="20" fill="black">437</text><text x="42" y="54.0" text-anchor="end" font-size="20" fill="black">438</text><line x1="80" y1="215.88906666666446" x2="80" y2="343.3701742222234" stroke="#ef5350" stroke-width="2"/><rect x="76" y="216.76824711111192" width="8" height="123.08520622222102" fill="#ef5350"/><line x1="92" y1="318.7531324444434" x2="92" y2="379.4165555555537" stroke="#26a69a" stroke-width="2"/><rect x="88" y="327.98452266666675" width="8" height="16.264831111109515" fill="#26a69a"/><line x1="104" y1="316.11559200000045" x2="104" y2="382.05409600000166" stroke="#ef5350" stroke-width="2"/><rect x="100" y="326.6657528888875" width="8" height="31.65048177777669" fill="#ef5350"/><line x1="116" y1="360.07459466666455" x2="116" y2="447.1134195555553" stroke="#ef5350" stroke-width="2"/><rect x="112" y="360.07459466666455" width="8" height="42.20064266666873" fill="#ef5350"/><line x1="128" y1="366.2288551111134" x2="128" y2="433.0465386666674" stroke="#26a69a" stroke-width="2"/><rect x="124" y="399.6376968888904" width="8" height="2" fill="#26a69a"/><line x1="140" y1="401.3960568888908" x2="140" y2="429.5298186666666" stroke="#ef5350" stroke-width="2"/><rect x="136" y="401.3960568888908" width="8" height="9.670980444444524" fill="#ef5350"/><line x1="152" y1="320.5114924444439" x2="152" y2="413.70457777777824" stroke="#26a69a" stroke-width="2"/><rect x="148" y="350.40361422222" width="8" height="59.784243555557396" fill="#26a69a"/><line x1="164" y1="350.40361422222" x2="164" y2="502.5017626666644" stroke="#ef5350" stroke-width="2"/><rect x="160" y="353.041154666668" width="8" height="138.9104479999989" fill="#ef5350"/><line x1="176" y1="445.3550595555549" x2="176" y2="518.3270035555577" stroke="#ef5350" stroke-width="2"/><rect x="172" y="495.4683226666677" width="8" height="4.39589955555374" fill="#ef5350"/><line x1="188" y1="477.88472177777896" x2="188" y2="564.0443662222222" stroke="#ef5350" stroke-width="2"/><rect x="184" y="501.62258311111145" width="8" height="50.113262222223284" fill="#ef5350"/><line x1="200" y1="528.8771644444447" x2="200" y2="595.6948479999987" stroke="#ef5350" stroke-width="2"/><rect x="196" y="554.3733857777776" width="8" height="35.16720177777745" fill="#ef5350"/><line x1="212" y1="565.8027262222226" x2="212" y2="601.8491084444425" stroke="#26a69a" stroke-width="2"/><rect x="208" y="579.8696071111104" width="8" height="7.912620444444201" fill="#26a69a"/><line x1="224" y1="586.9030471111122" x2="224" y2="651.9623715555554" stroke="#ef5350" stroke-width="2"/><rect x="220" y="586.9030471111122" width="8" height="24.617041777774944" fill="#ef5350"/><line x1="236" y1="598.3323884444467" x2="236" y2="653.7207315555559" stroke="#ef5350" stroke-width="2"/><rect x="232" y="616.7951688888884" width="8" height="28.13376177778082" fill="#ef5350"/><line x1="248" y1="607.1241884444438" x2="248" y2="670.4251520000021" stroke="#ef5350" stroke-width="2"/><rect x="244" y="644.0497511111112" width="8" height="12.308519999997998" fill="#ef5350"/><line x1="260" y1="608.8825484444442" x2="260" y2="690.6462933333337" stroke="#ef5350" stroke-width="2"/><rect x="256" y="655.4790915555561" width="8" height="35.167201777777564" fill="#ef5350"/><line x1="272" y1="629.9828702222234" x2="272" y2="691.9650631111128" stroke="#26a69a" stroke-width="2"/><rect x="268" y="646.6872906666645" width="8" height="44.838183111111675" fill="#26a69a"/><line x1="284" y1="622.0702497777792" x2="284" y2="656.3582711111092" stroke="#26a69a" stroke-width="2"/><rect x="280" y="628.2245102222229" width="8" height="16.704420444446328" fill="#26a69a"/><line x1="296" y1="617.6743493333308" x2="296" y2="651.9623715555554" stroke="#ef5350" stroke-width="2"/><rect x="292" y="625.58696977778" width="8" height="9.67098044444458" fill="#ef5350"/><line x1="308" y1="603.6074684444429" x2="308" y2="642.2913902222213" stroke="#26a69a" stroke-width="2"/><rect x="304" y="622.9494293333321" width="8" height="15.825240888888288" fill="#26a69a"/><line x1="320" y1="616.8830871111115" x2="320" y2="682.7336728888895" stroke="#ef5350" stroke-width="2"/><rect x="316" y="619.8722995555576" width="8" height="24.177451555553603" fill="#ef5350"/><line x1="332" y1="600.969928" x2="332" y2="657.2374515555566" stroke="#26a69a" stroke-width="2"/><rect x="328" y="601.8491084444425" width="8" height="40.4422817777787" fill="#26a69a"/><line x1="344" y1="570.1986266666659" x2="344" y2="616.7951688888884" stroke="#26a69a" stroke-width="2"/><rect x="340" y="583.3863271111113" width="8" height="19.34196088888916" fill="#26a69a"/><line x1="356" y1="579.8696071111104" x2="356" y2="616.7951688888884" stroke="#ef5350" stroke-width="2"/><rect x="352" y="585.1446871111117" width="8" height="10.550160888887035" fill="#ef5350"/><line x1="368" y1="584.2655075555538" x2="368" y2="627.3453297777754" stroke="#ef5350" stroke-width="2"/><rect x="364" y="597.4532079999992" width="8" height="12.308520888887415" fill="#ef5350"/><line x1="380" y1="608.8825484444442" x2="380" y2="654.5999111111087" stroke="#ef5350" stroke-width="2"/><rect x="376" y="610.6409084444446" width="8" height="36.046382222219904" fill="#ef5350"/><line x1="392" y1="632.6204097777767" x2="392" y2="696.8005537777774" stroke="#ef5350" stroke-width="2"/><rect x="388" y="646.6872906666645" width="8" height="18.462781333336352" fill="#ef5350"/><line x1="404" y1="626.0265600000013" x2="404" y2="682.7336728888895" stroke="#26a69a" stroke-width="2"/><rect x="400" y="658.1166311111094" width="8" height="5.275080888890898" fill="#26a69a"/><line x1="416" y1="648.445650666665" x2="416" y2="683.6128533333319" stroke="#ef5350" stroke-width="2"/><rect x="412" y="655.4790915555561" width="8" height="25.49622133333287" fill="#ef5350"/><line x1="428" y1="623.3890195555533" x2="428" y2="690.6462933333337" stroke="#26a69a" stroke-width="2"/><rect x="424" y="630.8620497777762" width="8" height="50.99244266666585" fill="#26a69a"/><line x1="440" y1="610.6409084444446" x2="440" y2="633.4995902222241" stroke="#26a69a" stroke-width="2"/><rect x="436" y="615.0368088888879" width="8" height="12.308520888887529" fill="#26a69a"/><line x1="452" y1="603.6074684444429" x2="452" y2="626.4661493333329" stroke="#26a69a" stroke-width="2"/><rect x="448" y="606.2450088888909" width="8" height="9.67098044444458" fill="#26a69a"/><line x1="464" y1="586.0238675555543" x2="464" y2="620.3118897777788" stroke="#26a69a" stroke-width="2"/><rect x="460" y="595.6948479999987" width="8" height="12.30852088889253" fill="#26a69a"/><line x1="476" y1="592.178127999998" x2="476" y2="620.3118897777788" stroke="#ef5350" stroke-width="2"/><rect x="472" y="593.0573075555559" width="8" height="19.341961777778693" fill="#ef5350"/><line x1="488" y1="578.990426666668" x2="488" y2="629.9828702222234" stroke="#26a69a" stroke-width="2"/><rect x="484" y="584.7050977777801" width="8" height="29.45253155555497" fill="#26a69a"/><line x1="500" y1="553.4942053333351" x2="500" y2="585.1446871111117" stroke="#26a69a" stroke-width="2"/><rect x="496" y="554.3733857777776" width="8" height="30.771301333334122" fill="#26a69a"/><line x1="512" y1="546.4607653333335" x2="512" y2="594.8156675555563" stroke="#ef5350" stroke-width="2"/><rect x="508" y="552.6150257777772" width="8" height="37.804742222220284" fill="#ef5350"/><line x1="524" y1="584.2655075555538" x2="524" y2="610.201319111113" stroke="#ef5350" stroke-width="2"/><rect x="520" y="588.6614080000022" width="8" height="14.066879999998264" fill="#ef5350"/><line x1="536" y1="587.7822275555546" x2="536" y2="625.6748879999982" stroke="#26a69a" stroke-width="2"/><rect x="532" y="588.6614080000022" width="8" height="18.46278044444159" fill="#26a69a"/><line x1="548" y1="565.8027262222226" x2="548" y2="602.2886986666688" stroke="#ef5350" stroke-width="2"/><rect x="544" y="586.9030471111122" width="8" height="14.946061333330363" fill="#ef5350"/><line x1="560" y1="580.748787555558" x2="560" y2="615.9159893333355" stroke="#26a69a" stroke-width="2"/><rect x="556" y="588.6614080000022" width="8" height="10.55015999999739" fill="#26a69a"/><line x1="572" y1="565.8027262222226" x2="572" y2="602.7282880000005" stroke="#ef5350" stroke-width="2"/><rect x="568" y="586.0238675555543" width="8" height="14.94606044444572" fill="#ef5350"/><line x1="584" y1="597.4532079999992" x2="584" y2="644.9289306666692" stroke="#ef5350" stroke-width="2"/><rect x="580" y="600.090748444442" width="8" height="30.771301333334122" fill="#ef5350"/><line x1="596" y1="607.1241884444438" x2="596" y2="642.2913902222213" stroke="#26a69a" stroke-width="2"/><rect x="592" y="609.7617288888866" width="8" height="18.46278133333624" fill="#26a69a"/><line x1="608" y1="604.4866488888905" x2="608" y2="634.378769777777" stroke="#ef5350" stroke-width="2"/><rect x="604" y="609.7617288888866" width="8" height="17.583600888888782" fill="#ef5350"/><line x1="620" y1="617.6743493333308" x2="620" y2="674.8210524444453" stroke="#ef5350" stroke-width="2"/><rect x="616" y="625.58696977778" width="8" height="40.44228177777359" fill="#ef5350"/><line x1="632" y1="652.8415511111133" x2="632" y2="692.4046533333341" stroke="#ef5350" stroke-width="2"/><rect x="628" y="667.7876124444437" width="8" height="19.34196088888916" fill="#ef5350"/><line x1="644" y1="652.8415511111133" x2="644" y2="687.1295733333328" stroke="#26a69a" stroke-width="2"/><rect x="640" y="664.2708915555532" width="8" height="21.979501333336998" fill="#26a69a"/><line x1="656" y1="634.378769777777" x2="656" y2="675.7002328888877" stroke="#26a69a" stroke-width="2"/><rect x="652" y="657.2374515555566" width="8" height="7.912620444444201" fill="#26a69a"/><line x1="668" y1="637.8954906666675" x2="668" y2="708.2298942222224" stroke="#ef5350" stroke-width="2"/><rect x="664" y="654.5999111111087" width="8" height="42.20064266666873" fill="#ef5350"/><line x1="680" y1="695.0421937777769" x2="680" y2="757.4639768888877" stroke="#ef5350" stroke-width="2"/><rect x="676" y="697.6797333333353" width="8" height="51.87162311110819" fill="#ef5350"/><line x1="692" y1="718.7800551111094" x2="692" y2="757.9035671111089" stroke="#26a69a" stroke-width="2"/><rect x="688" y="734.6052959999977" width="8" height="14.06688088889291" fill="#26a69a"/><line x1="704" y1="708.2298942222224" x2="704" y2="764.497417777779" stroke="#26a69a" stroke-width="2"/><rect x="700" y="728.451035555554" width="8" height="2.63754044444795" fill="#26a69a"/><line x1="716" y1="724.0551351111106" x2="716" y2="759.2223368888881" stroke="#ef5350" stroke-width="2"/><rect x="712" y="730.2093955555544" width="8" height="26.37540177778044" fill="#ef5350"/><line x1="728" y1="724.0551351111106" x2="728" y2="762.7390577777785" stroke="#26a69a" stroke-width="2"/><rect x="724" y="740.7595564444465" width="8" height="16.70442044444121" fill="#26a69a"/><line x1="740" y1="705.5923537777794" x2="740" y2="755.7056168888872" stroke="#26a69a" stroke-width="2"/><rect x="736" y="722.2967751111103" width="8" height="19.34196088888916" fill="#26a69a"/><line x1="752" y1="697.6797333333353" x2="752" y2="732.8469360000023" stroke="#ef5350" stroke-width="2"/><rect x="748" y="720.5384151111098" width="8" height="3.5167200000008734" fill="#ef5350"/><line x1="764" y1="688.9758515555563" x2="764" y2="744.2762764444423" stroke="#ef5350" stroke-width="2"/><rect x="760" y="724.0551351111106" width="8" height="14.946061333335479" fill="#ef5350"/><line x1="776" y1="713.5049742222236" x2="776" y2="756.5847973333348" stroke="#26a69a" stroke-width="2"/><rect x="772" y="723.1759555555577" width="8" height="15.825240888888402" fill="#26a69a"/><line x1="788" y1="702.9548142222211" x2="788" y2="730.2093955555544" stroke="#26a69a" stroke-width="2"/><rect x="784" y="724.0551351111106" width="8" height="2" fill="#26a69a"/><line x1="800" y1="719.6592346666673" x2="800" y2="771.5308577777755" stroke="#ef5350" stroke-width="2"/><rect x="796" y="725.3739048888898" width="8" height="34.72761244444587" fill="#ef5350"/><line x1="812" y1="739.0011964444461" x2="812" y2="786.476919111111" stroke="#ef5350" stroke-width="2"/><rect x="808" y="758.3431573333352" width="8" height="3.516719999995871" fill="#ef5350"/><line x1="824" y1="752.1888968888865" x2="824" y2="802.3021599999993" stroke="#ef5350" stroke-width="2"/><rect x="820" y="766.2557777777794" width="8" height="29.892121777776197" fill="#ef5350"/><line x1="836" y1="788.2352791111114" x2="836" y2="812.8523200000018" stroke="#ef5350" stroke-width="2"/><rect x="832" y="797.906259555556" width="8" height="4.395900444443328" fill="#ef5350"/><line x1="848" y1="776.3663484444452" x2="848" y2="819.0065804444455" stroke="#ef5350" stroke-width="2"/><rect x="844" y="800.5437991111093" width="8" height="9.670981333334225" fill="#ef5350"/><line x1="860" y1="795.2687191111131" x2="860" y2="818.1274008888876" stroke="#26a69a" stroke-width="2"/><rect x="856" y="804.9396995555576" width="8" height="9.67098044444458" fill="#26a69a"/><line x1="872" y1="765.3765973333318" x2="872" y2="805.8188800000001" stroke="#26a69a" stroke-width="2"/><rect x="868" y="770.6516782222227" width="8" height="35.16720177777745" fill="#26a69a"/><line x1="884" y1="748.6721768888906" x2="884" y2="804.9396995555576" stroke="#ef5350" stroke-width="2"/><rect x="880" y="769.7724977777802" width="8" height="32.96925155555073" fill="#ef5350"/><line x1="896" y1="784.718558222221" x2="896" y2="837.4693617777767" stroke="#ef5350" stroke-width="2"/><rect x="892" y="802.3021599999993" width="8" height="35.16720177777745" fill="#ef5350"/><line x1="908" y1="805.8188800000001" x2="908" y2="838.3485413333347" stroke="#26a69a" stroke-width="2"/><rect x="904" y="815.4898604444447" width="8" height="18.90237066666782" fill="#26a69a"/><line x1="920" y1="804.9396995555576" x2="920" y2="850.6570622222221" stroke="#26a69a" stroke-width="2"/><rect x="916" y="816.3690399999975" width="8" height="2" fill="#26a69a"/><line x1="932" y1="813.7315004444442" x2="932" y2="850.6570622222221" stroke="#ef5350" stroke-width="2"/><rect x="928" y="815.4898604444447" width="8" height="24.6170408888903" fill="#ef5350"/><line x1="944" y1="794.3895395555551" x2="944" y2="857.6905022222238" stroke="#26a69a" stroke-width="2"/><rect x="940" y="794.3895395555551" width="8" height="43.07982222222165" fill="#26a69a"/><line x1="956" y1="792.6311786666652" x2="956" y2="811.0939600000014" stroke="#ef5350" stroke-width="2"/><rect x="952" y="796.1478995555556" width="8" height="11.42934044444496" fill="#ef5350"/><line x1="968" y1="763.6182373333314" x2="968" y2="821.6441208888884" stroke="#26a69a" stroke-width="2"/><rect x="964" y="770.6516782222227" width="8" height="35.16720177777745" fill="#26a69a"/><line x1="980" y1="713.0653848888869" x2="980" y2="776.8059377777768" stroke="#26a69a" stroke-width="2"/><rect x="976" y="717.021695111109" width="8" height="52.750802666671234" fill="#26a69a"/><line x1="992" y1="689.7671128888912" x2="992" y2="756.5847973333348" stroke="#26a69a" stroke-width="2"/><rect x="988" y="692.4046533333341" width="8" height="23.73786133333249" fill="#26a69a"/><line x1="1004" y1="637.4559004444462" x2="1004" y2="716.1425146666666" stroke="#26a69a" stroke-width="2"/><rect x="1000" y="647.566471111112" width="8" height="46.59654222222241" fill="#26a69a"/><line x1="1016" y1="225.56004711110904" x2="1016" y2="295.89445155555336" stroke="#ef5350" stroke-width="2"/><rect x="1012" y="271.27740977777853" width="8" height="22.858681777779566" fill="#ef5350"/><line x1="1028" y1="271.27740977777853" x2="1028" y2="346.0077137777767" stroke="#ef5350" stroke-width="2"/><rect x="1024" y="289.74019111110977" width="8" height="2" fill="#ef5350"/><line x1="1040" y1="268.6398693333356" x2="1040" y2="309.9613324444464" stroke="#26a69a" stroke-width="2"/><rect x="1036" y="278.3108506666647" width="8" height="14.946060444445834" fill="#26a69a"/><line x1="1052" y1="252.81462844444218" x2="1052" y2="338.09509333333256" stroke="#ef5350" stroke-width="2"/><rect x="1048" y="269.51904977777815" width="8" height="52.75080266666612" fill="#ef5350"/><line x1="1064" y1="323.1490328888867" x2="1064" y2="375.020656" stroke="#ef5350" stroke-width="2"/><rect x="1060" y="325.7865733333347" width="8" height="38.68392177777827" fill="#ef5350"/><line x1="1076" y1="348.64525422222465" x2="1076" y2="423.3755582222228" stroke="#ef5350" stroke-width="2"/><rect x="1072" y="363.5913146666654" width="8" height="25.496222222222457" fill="#ef5350"/><line x1="1088" y1="389.9667164444458" x2="1088" y2="512.172743111109" stroke="#ef5350" stroke-width="2"/><rect x="1084" y="392.6042568888887" width="8" height="117.81012622222488" fill="#ef5350"/><line x1="1100" y1="484.0389822222227" x2="1100" y2="572.8361671111088" stroke="#ef5350" stroke-width="2"/><rect x="1096" y="507.77684266666563" width="8" height="15.825240888888288" fill="#ef5350"/><line x1="1112" y1="476.1263617777786" x2="1112" y2="538.5481448888893" stroke="#26a69a" stroke-width="2"/><rect x="1108" y="491.9516026666669" width="8" height="33.40884177777707" fill="#26a69a"/><line x1="1124" y1="422.4963786666649" x2="1124" y2="497.2266826666681" stroke="#26a69a" stroke-width="2"/><rect x="1120" y="466.4553804444444" width="8" height="25.496222222222457" fill="#26a69a"/><line x1="1136" y1="421.61719822222244" x2="1136" y2="480.52226133333227" stroke="#26a69a" stroke-width="2"/><rect x="1132" y="466.4553804444444" width="8" height="2" fill="#26a69a"/><line x1="1148" y1="446.2342400000024" x2="1148" y2="506.01848266666514" stroke="#26a69a" stroke-width="2"/><rect x="1144" y="457.66358044444235" width="8" height="13.187700444445397" fill="#26a69a"/><line x1="1160" y1="390.8458968888883" x2="1160" y2="492.83078222221974" stroke="#26a69a" stroke-width="2"/><rect x="1156" y="393.4834364444466" width="8" height="64.18014399999572" fill="#26a69a"/><line x1="1172" y1="391.72507644444624" x2="1172" y2="441.83833955555406" stroke="#ef5350" stroke-width="2"/><rect x="1168" y="397.87933688888995" width="8" height="32.52966222221909" fill="#ef5350"/><line x1="1184" y1="417.2212977777791" x2="1184" y2="458.54276000000027" stroke="#ef5350" stroke-width="2"/><rect x="1180" y="431.28817866666697" width="8" height="2" fill="#ef5350"/><line x1="1196" y1="370.6247555555567" x2="1196" y2="433.92571911110986" stroke="#26a69a" stroke-width="2"/><rect x="1192" y="374.1414755555575" width="8" height="59.78424355555234" fill="#26a69a"/><line x1="1208" y1="326.6657528888875" x2="1208" y2="382.05409600000166" stroke="#26a69a" stroke-width="2"/><rect x="1204" y="346.0077137777767" width="8" height="23.737861333332432" fill="#26a69a"/><line x1="1220" y1="311.71969244444676" x2="1220" y2="346.0077137777767" stroke="#26a69a" stroke-width="2"/><rect x="1216" y="330.18247288888847" width="8" height="15.825240888888231" fill="#26a69a"/><line x1="1232" y1="264.2439697777769" x2="1232" y2="331.0616533333308" stroke="#26a69a" stroke-width="2"/><rect x="1228" y="320.5114924444439" width="8" height="10.550160888886921" fill="#26a69a"/><line x1="1244" y1="284.465110222224" x2="1244" y2="324.02821244444465" stroke="#26a69a" stroke-width="2"/><rect x="1240" y="288.8610106666672" width="8" height="27.694171555554476" fill="#26a69a"/><line x1="1256" y1="266.0023297777773" x2="1256" y2="294.1360915555581" stroke="#ef5350" stroke-width="2"/><rect x="1252" y="288.8610106666672" width="8" height="2" fill="#ef5350"/><line x1="1268" y1="273.0357697777789" x2="1268" y2="296.7736311111114" stroke="#26a69a" stroke-width="2"/><rect x="1264" y="280.0692106666651" width="8" height="8.791800000002127" fill="#26a69a"/><line x1="1280" y1="271.71699999999976" x2="1280" y2="312.5109537777764" stroke="#ef5350" stroke-width="2"/><rect x="1276" y="278.3108506666647" width="8" height="20.221140444447087" fill="#ef5350"/><line x1="1292" y1="280.948390222223" x2="1292" y2="312.5988719999997" stroke="#26a69a" stroke-width="2"/><rect x="1288" y="287.89391288889124" width="8" height="11.51725866666311" fill="#26a69a"/><line x1="1304" y1="285.3442906666663" x2="1304" y2="364.47049511111294" stroke="#ef5350" stroke-width="2"/><rect x="1300" y="285.3442906666663" width="8" height="49.23408266666536" fill="#ef5350"/><line x1="1316" y1="289.74019111110977" x2="1316" y2="338.97427377778007" stroke="#26a69a" stroke-width="2"/><rect x="1312" y="294.1360915555581" width="8" height="42.20064177777397" fill="#26a69a"/><line x1="1328" y1="276.992080000001" x2="1328" y2="304.6862515555556" stroke="#26a69a" stroke-width="2"/><rect x="1324" y="293.2569111111105" width="8" height="2" fill="#26a69a"/><line x1="1340" y1="280.948390222223" x2="1340" y2="310.8405119999992" stroke="#26a69a" stroke-width="2"/><rect x="1336" y="289.74019111110977" width="8" height="4.39590044444833" fill="#26a69a"/><line x1="1352" y1="236.11020800000108" x2="1352" y2="290.6193706666676" stroke="#26a69a" stroke-width="2"/><rect x="1348" y="238.74774844444403" width="8" height="50.11326222222317" fill="#26a69a"/><line x1="1364" y1="216.76824711111192" x2="1364" y2="242.2644684444448" stroke="#26a69a" stroke-width="2"/><rect x="1360" y="235.2310275555535" width="8" height="2" fill="#26a69a"/><line x1="1376" y1="210.6139866666682" x2="1376" y2="236.11020800000108" stroke="#26a69a" stroke-width="2"/><rect x="1372" y="214.13070666666897" width="8" height="20.221141333331616" fill="#26a69a"/><line x1="1388" y1="179.84268444444456" x2="1388" y2="228.197587555557" stroke="#26a69a" stroke-width="2"/><rect x="1384" y="189.51366488888902" width="8" height="22.858681777779566" fill="#26a69a"/><line x1="1400" y1="145.55466311110945" x2="1400" y2="188.6344853333311" stroke="#26a69a" stroke-width="2"/><rect x="1396" y="153.46728355555365" width="8" height="35.16720177777745" fill="#26a69a"/><line x1="1412" y1="153.46728355555365" x2="1412" y2="183.35940533333485" stroke="#ef5350" stroke-width="2"/><rect x="1408" y="154.3464631111117" width="8" height="23.737861333332376" fill="#ef5350"/><line x1="1424" y1="167.53416444444667" x2="1424" y2="191.27202577777905" stroke="#ef5350" stroke-width="2"/><rect x="1420" y="177.20514488889125" width="8" height="2.637539555553303" fill="#ef5350"/><line x1="1436" y1="155.22564355555403" x2="1436" y2="178.08432444444406" stroke="#26a69a" stroke-width="2"/><rect x="1432" y="165.77580355555654" width="8" height="12.308520888887529" fill="#26a69a"/><line x1="1448" y1="125.33352177777783" x2="1448" y2="171.05088444444232" stroke="#ef5350" stroke-width="2"/><rect x="1444" y="163.13826399999823" width="8" height="2" fill="#ef5350"/><line x1="1460" y1="152.5881031111112" x2="1460" y2="177.20514488889125" stroke="#ef5350" stroke-width="2"/><rect x="1456" y="162.25908355555578" width="8" height="14.066880888887795" fill="#ef5350"/><line x1="1472" y1="170.17170399999998" x2="1472" y2="194.78874577777992" stroke="#ef5350" stroke-width="2"/><rect x="1468" y="174.5676044444433" width="8" height="10.550160888892037" fill="#ef5350"/><line x1="1484" y1="181.60104444444482" x2="1484" y2="224.680867555556" stroke="#ef5350" stroke-width="2"/><rect x="1480" y="184.23858488888777" width="8" height="34.28802222222464" fill="#ef5350"/><line x1="1496" y1="191.27202577777905" x2="1496" y2="244.9020079999981" stroke="#ef5350" stroke-width="2"/><rect x="1492" y="220.2849671111128" width="8" height="11.42934044444496" fill="#ef5350"/><line x1="1508" y1="207.97644622222026" x2="1508" y2="245.78118844444566" stroke="#26a69a" stroke-width="2"/><rect x="1504" y="214.13070666666897" width="8" height="19.34196088888416" fill="#26a69a"/><line x1="1520" y1="195.66792533333285" x2="1520" y2="223.80168711111367" stroke="#26a69a" stroke-width="2"/><rect x="1516" y="197.42628533333323" width="8" height="14.066880888887795" fill="#26a69a"/><line x1="1532" y1="198.30546577777568" x2="1532" y2="238.3081582222228" stroke="#ef5350" stroke-width="2"/><rect x="1528" y="198.30546577777568" width="8" height="19.34196088888916" fill="#ef5350"/><line x1="1544" y1="200.94300622222363" x2="1544" y2="223.80168711111367" stroke="#26a69a" stroke-width="2"/><rect x="1540" y="200.94300622222363" width="8" height="20.221140444442085" fill="#26a69a"/><line x1="1556" y1="188.6344853333311" x2="1556" y2="217.64742666666484" stroke="#26a69a" stroke-width="2"/><rect x="1552" y="193.03038577777954" width="8" height="7.912620444444087" fill="#26a69a"/><line x1="1568" y1="157.86318311111245" x2="1568" y2="192.15120533333197" stroke="#26a69a" stroke-width="2"/><rect x="1564" y="163.13826399999823" width="8" height="27.254581333333363" fill="#26a69a"/><line x1="1580" y1="151.70892355555327" x2="1580" y2="181.60104444444482" stroke="#ef5350" stroke-width="2"/><rect x="1576" y="164.01744355555616" width="8" height="7.912620444444201" fill="#ef5350"/><line x1="1592" y1="162.25908355555578" x2="1592" y2="357.43705511111125" stroke="#ef5350" stroke-width="2"/><rect x="1588" y="169.29252444444205" width="8" height="137.15208711111381" fill="#ef5350"/><line x1="1604" y1="287.1026506666668" x2="1604" y2="405.7919573333341" stroke="#26a69a" stroke-width="2"/><rect x="1600" y="287.9818311111093" width="8" height="20.221140444447087" fill="#26a69a"/><line x1="1616" y1="228.197587555557" x2="1616" y2="291.49855111111015" stroke="#26a69a" stroke-width="2"/><rect x="1612" y="229.95594755555726" width="8" height="53.629983111108686" fill="#26a69a"/><line x1="1628" y1="217.64742666666484" x2="1628" y2="400.51687733333284" stroke="#ef5350" stroke-width="2"/><rect x="1624" y="229.0767671111098" width="8" height="167.92339022222222" fill="#ef5350"/><line x1="1640" y1="349.5244346666671" x2="1640" y2="428.6506391111086" stroke="#26a69a" stroke-width="2"/><rect x="1636" y="391.72507644444624" width="8" height="6.1542604444437075" fill="#26a69a"/><line x1="1652" y1="307.32379199999843" x2="1652" y2="400.0772871111116" stroke="#26a69a" stroke-width="2"/><rect x="1648" y="327.98452266666675" width="8" height="57.58629333333573" fill="#26a69a"/><line x1="1664" y1="331.0616533333308" x2="1664" y2="422.4963786666649" stroke="#ef5350" stroke-width="2"/><rect x="1660" y="331.0616533333308" width="8" height="65.93850400000122" fill="#ef5350"/><line x1="1676" y1="316.994772444443" x2="1676" y2="402.2752373333333" stroke="#26a69a" stroke-width="2"/><rect x="1672" y="344.24935377777626" width="8" height="58.025883555557016" fill="#26a69a"/><line x1="1688" y1="317.8739528888906" x2="1688" y2="426.8922782222237" stroke="#ef5350" stroke-width="2"/><rect x="1684" y="351.28279466666754" width="8" height="58.90506311110988" fill="#ef5350"/><line x1="1700" y1="382.9332764444441" x2="1700" y2="481.40144177777984" stroke="#26a69a" stroke-width="2"/><rect x="1696" y="398.75851733333246" width="8" height="19.781551111110332" fill="#26a69a"/><line x1="1712" y1="340.73263377777545" x2="1712" y2="400.51687733333284" stroke="#26a69a" stroke-width="2"/><rect x="1708" y="352.1619742222204" width="8" height="48.354903111112435" fill="#26a69a"/><line x1="1724" y1="313.47805244444214" x2="1724" y2="385.5708160000025" stroke="#26a69a" stroke-width="2"/><rect x="1720" y="333.69919377777876" width="8" height="20.221140444442085" fill="#26a69a"/><line x1="1736" y1="298.5319911111118" x2="1736" y2="405.7919573333341" stroke="#ef5350" stroke-width="2"/><rect x="1732" y="323.1490328888867" width="8" height="59.784243555557396" fill="#ef5350"/><line x1="1748" y1="367.10803555555583" x2="1748" y2="422.4963786666649" stroke="#ef5350" stroke-width="2"/><rect x="1744" y="384.69163644444455" width="8" height="2" fill="#ef5350"/><line x1="1760" y1="353.041154666668" x2="1760" y2="417.2212977777791" stroke="#26a69a" stroke-width="2"/><rect x="1756" y="373.2622959999996" width="8" height="14.946060444445777" fill="#26a69a"/><line x1="1772" y1="372.3831155555571" x2="1772" y2="466.4553804444444" stroke="#ef5350" stroke-width="2"/><rect x="1768" y="375.020656" width="8" height="43.95900177777952" fill="#ef5350"/><line x1="1784" y1="373.2622959999996" x2="1784" y2="428.6506391111086" stroke="#26a69a" stroke-width="2"/><rect x="1780" y="401.3960568888908" width="8" height="20.221141333331616" fill="#26a69a"/><line x1="1796" y1="387.32917599999786" x2="1796" y2="488.43488177777647" stroke="#ef5350" stroke-width="2"/><rect x="1792" y="389.9667164444458" width="8" height="43.079822222221594" fill="#ef5350"/><line x1="1808" y1="418.9796577777795" x2="1808" y2="482.28062133333276" stroke="#26a69a" stroke-width="2"/><rect x="1804" y="421.61719822222244" width="8" height="16.704421333330743" fill="#26a69a"/><line x1="1820" y1="389.0875368888879" x2="1820" y2="435.6840791111103" stroke="#26a69a" stroke-width="2"/><rect x="1816" y="413.70457777777824" width="8" height="7.912620444444201" fill="#26a69a"/><line x1="1832" y1="389.9667164444458" x2="1832" y2="500.74340266666894" stroke="#ef5350" stroke-width="2"/><rect x="1828" y="418.10047822222157" width="8" height="67.6968640000016" fill="#ef5350"/><line x1="1844" y1="413.70457777777824" x2="1844" y2="482.28062133333276" stroke="#26a69a" stroke-width="2"/><rect x="1840" y="443.59669955555444" width="8" height="34.28802222222453" fill="#26a69a"/><line x1="1856" y1="440.95915911111155" x2="1856" y2="509.5352035555556" stroke="#ef5350" stroke-width="2"/><rect x="1852" y="447.1134195555553" width="8" height="40.44228266666829" fill="#ef5350"/><line x1="1868" y1="447.1134195555553" x2="1868" y2="501.62258311111145" stroke="#26a69a" stroke-width="2"/><rect x="1864" y="458.54276000000027" width="8" height="29.01294222222333" fill="#26a69a"/><line x1="1880" y1="447.1134195555553" x2="1880" y2="501.62258311111145" stroke="#ef5350" stroke-width="2"/><rect x="1876" y="452.3885004444461" width="8" height="44.83818222222203" fill="#ef5350"/><line x1="1892" y1="440.95915911111155" x2="1892" y2="526.2396240000019" stroke="#26a69a" stroke-width="2"/><rect x="1888" y="443.59669955555444" width="8" height="52.750802666666175" fill="#26a69a"/><line x1="1904" y1="411.94621777777786" x2="1904" y2="453.267679999999" stroke="#26a69a" stroke-width="2"/><rect x="1900" y="430.40899911110904" width="8" height="14.946060444445834" fill="#26a69a"/><line x1="1916" y1="360.07459466666455" x2="1916" y2="436.5632595555578" stroke="#26a69a" stroke-width="2"/><rect x="1912" y="375.020656" width="8" height="54.50916266666661" fill="#26a69a"/><line x1="1928" y1="375.89983555555796" x2="1928" y2="467.33456088888687" stroke="#ef5350" stroke-width="2"/><rect x="1924" y="375.89983555555796" width="8" height="21.10032177777407" fill="#ef5350"/><line x1="1940" y1="370.6247555555567" x2="1940" y2="410.1878577777774" stroke="#ef5350" stroke-width="2"/><rect x="1936" y="392.6042568888887" width="8" height="7.912620444444144" fill="#ef5350"/><rect x="75" y="930.1477518050006" width="10" height="89.85224819499945" fill="#ef5350" opacity="0.9"/><rect x="87" y="940.2238368239913" width="10" height="79.77616317600871" fill="#26a69a" opacity="0.9"/><rect x="99" y="964.2237545534462" width="10" height="55.776245446553844" fill="#ef5350" opacity="0.9"/><rect x="111" y="963.4366996713749" width="10" height="56.56330032862513" fill="#ef5350" opacity="0.9"/><rect x="123" y="973.3763527029682" width="10" height="46.623647297031766" fill="#26a69a" opacity="0.9"/><rect x="135" y="983.8715604437125" width="10" height="36.1284395562875" fill="#ef5350" opacity="0.9"/><rect x="147" y="956.6032167783159" width="10" height="63.39678322168413" fill="#26a69a" opacity="0.9"/><rect x="159" y="967.5497698710028" width="10" height="52.45023012899719" fill="#ef5350" opacity="0.9"/><rect x="171" y="986.7850803889874" width="10" height="33.21491961101265" fill="#ef5350" opacity="0.9"/><rect x="183" y="982.0840043207271" width="10" height="37.915995679272896" fill="#ef5350" opacity="0.9"/><rect x="195" y="984.9024560804788" width="10" height="35.09754391952117" fill="#ef5350" opacity="0.9"/><rect x="207" y="978.2474545645679" width="10" height="41.752545435432125" fill="#26a69a" opacity="0.9"/><rect x="219" y="978.8756815886137" width="10" height="41.1243184113863" fill="#ef5350" opacity="0.9"/><rect x="231" y="981.695047465534" width="10" height="38.304952534466" fill="#ef5350" opacity="0.9"/><rect x="243" y="982.5515752524107" width="10" height="37.44842474758934" fill="#ef5350" opacity="0.9"/><rect x="255" y="982.7017189973353" width="10" height="37.29828100266468" fill="#ef5350" opacity="0.9"/><rect x="267" y="990.4612025820763" width="10" height="29.53879741792366" fill="#26a69a" opacity="0.9"/><rect x="279" y="984.4431122033119" width="10" height="35.5568877966881" fill="#26a69a" opacity="0.9"/><rect x="291" y="990.3693338066429" width="10" height="29.630666193357115" fill="#ef5350" opacity="0.9"/><rect x="303" y="987.3191533446785" width="10" height="32.68084665532149" fill="#26a69a" opacity="0.9"/><rect x="315" y="990.127778344869" width="10" height="29.872221655131057" fill="#ef5350" opacity="0.9"/><rect x="327" y="983.4460389017796" width="10" height="36.553961098220384" fill="#26a69a" opacity="0.9"/><rect x="339" y="980.3311846501445" width="10" height="39.66881534985555" fill="#26a69a" opacity="0.9"/><rect x="351" y="990.1490315690364" width="10" height="29.850968430963576" fill="#ef5350" opacity="0.9"/><rect x="363" y="993.4364254362243" width="10" height="26.56357456377566" fill="#ef5350" opacity="0.9"/><rect x="375" y="991.7951280601976" width="10" height="28.204871939802388" fill="#ef5350" opacity="0.9"/><rect x="387" y="990.4824558062437" width="10" height="29.517544193756294" fill="#ef5350" opacity="0.9"/><rect x="399" y="996.2187695678207" width="10" height="23.781230432179314" fill="#26a69a" opacity="0.9"/><rect x="411" y="986.0743542904851" width="10" height="33.925645709514924" fill="#ef5350" opacity="0.9"/><rect x="423" y="989.7660164754384" width="10" height="30.23398352456161" fill="#26a69a" opacity="0.9"/><rect x="435" y="994.6953933065294" width="10" height="25.304606693470646" fill="#26a69a" opacity="0.9"/><rect x="447" y="992.8657877937934" width="10" height="27.1342122062066" fill="#26a69a" opacity="0.9"/><rect x="459" y="991.9109924113039" width="10" height="28.089007588696063" fill="#26a69a" opacity="0.9"/><rect x="471" y="1002.3189019624572" width="10" height="17.681098037542824" fill="#ef5350" opacity="0.9"/><rect x="483" y="995.8842026841527" width="10" height="24.115797315847317" fill="#26a69a" opacity="0.9"/><rect x="495" y="996.790092798128" width="10" height="23.209907201872056" fill="#26a69a" opacity="0.9"/><rect x="507" y="997.9197130890914" width="10" height="22.080286910908626" fill="#ef5350" opacity="0.9"/><rect x="519" y="1001.5222488501167" width="10" height="18.47775114988326" fill="#ef5350" opacity="0.9"/><rect x="531" y="995.4369708594681" width="10" height="24.563029140531853" fill="#26a69a" opacity="0.9"/><rect x="543" y="974.8675063340702" width="10" height="45.132493665929815" fill="#ef5350" opacity="0.9"/><rect x="555" y="1002.6502694360354" width="10" height="17.349730563964613" fill="#26a69a" opacity="0.9"/><rect x="567" y="1000.6334984330508" width="10" height="19.366501566949182" fill="#ef5350" opacity="0.9"/><rect x="579" y="992.3641659975837" width="10" height="27.635834002416345" fill="#ef5350" opacity="0.9"/><rect x="591" y="1002.2185776032153" width="10" height="17.781422396784706" fill="#26a69a" opacity="0.9"/><rect x="603" y="1003.3495690699315" width="10" height="16.650430930068524" fill="#ef5350" opacity="0.9"/><rect x="615" y="995.5564916792484" width="10" height="24.44350832075156" fill="#ef5350" opacity="0.9"/><rect x="627" y="998.8034358617307" width="10" height="21.19656413826931" fill="#ef5350" opacity="0.9"/><rect x="639" y="995.319506803317" width="10" height="24.68049319668296" fill="#26a69a" opacity="0.9"/><rect x="651" y="997.8840625195202" width="10" height="22.11593748047983" fill="#26a69a" opacity="0.9"/><rect x="663" y="995.6766980869052" width="10" height="24.323301913094838" fill="#ef5350" opacity="0.9"/><rect x="675" y="982.2631712857515" width="10" height="37.73682871424853" fill="#ef5350" opacity="0.9"/><rect x="687" y="985.3458029071973" width="10" height="34.65419709280275" fill="#26a69a" opacity="0.9"/><rect x="699" y="995.5169561117112" width="10" height="24.483043888288762" fill="#26a69a" opacity="0.9"/><rect x="711" y="995.3590423708542" width="10" height="24.64095762914576" fill="#ef5350" opacity="0.9"/><rect x="723" y="993.1982979138322" width="10" height="26.80170208616778" fill="#26a69a" opacity="0.9"/><rect x="735" y="992.7501519719792" width="10" height="27.24984802802078" fill="#26a69a" opacity="0.9"/><rect x="747" y="995.713719832229" width="10" height="24.286280167770997" fill="#ef5350" opacity="0.9"/><rect x="759" y="982.7213725164579" width="10" height="37.278627483542095" fill="#ef5350" opacity="0.9"/><rect x="771" y="1000.0966831258542" width="10" height="19.903316874145844" fill="#26a69a" opacity="0.9"/><rect x="783" y="1001.9868489010026" width="10" height="18.013151098997355" fill="#26a69a" opacity="0.9"/><rect x="795" y="992.5053971001156" width="10" height="27.4946028998844" fill="#ef5350" opacity="0.9"/><rect x="807" y="995.6255075254696" width="10" height="24.37449247453037" fill="#ef5350" opacity="0.9"/><rect x="819" y="994.0861342137297" width="10" height="25.91386578627032" fill="#ef5350" opacity="0.9"/><rect x="831" y="996.029775843235" width="10" height="23.97022415676497" fill="#ef5350" opacity="0.9"/><rect x="843" y="995.8078739005837" width="10" height="24.192126099416328" fill="#ef5350" opacity="0.9"/><rect x="855" y="994.7358429912351" width="10" height="25.26415700876487" fill="#26a69a" opacity="0.9"/><rect x="867" y="988.7943099253318" width="10" height="31.205690074668155" fill="#26a69a" opacity="0.9"/><rect x="879" y="989.6357547789283" width="10" height="30.364245221071656" fill="#ef5350" opacity="0.9"/><rect x="891" y="976.3319220379938" width="10" height="43.66807796200624" fill="#ef5350" opacity="0.9"/><rect x="903" y="990.8650138412575" width="10" height="29.13498615874255" fill="#26a69a" opacity="0.9"/><rect x="915" y="983.4910591723278" width="10" height="36.50894082767218" fill="#26a69a" opacity="0.9"/><rect x="927" y="984.5166986353754" width="10" height="35.483301364624594" fill="#ef5350" opacity="0.9"/><rect x="939" y="979.0557626708066" width="10" height="40.944237329193356" fill="#26a69a" opacity="0.9"/><rect x="951" y="990.1645715609008" width="10" height="29.835428439099246" fill="#ef5350" opacity="0.9"/><rect x="963" y="974.309437802706" width="10" height="45.69056219729396" fill="#26a69a" opacity="0.9"/><rect x="975" y="976.897532035998" width="10" height="43.10246796400202" fill="#26a69a" opacity="0.9"/><rect x="987" y="958.2655388492179" width="10" height="61.73446115078207" fill="#26a69a" opacity="0.9"/><rect x="999" y="860.0" width="10" height="160.0" fill="#26a69a" opacity="0.9"/><rect x="1011" y="936.6484960487286" width="10" height="83.35150395127141" fill="#ef5350" opacity="0.9"/><rect x="1023" y="963.0184910667899" width="10" height="56.98150893321008" fill="#ef5350" opacity="0.9"/><rect x="1035" y="979.9637095484109" width="10" height="40.03629045158914" fill="#26a69a" opacity="0.9"/><rect x="1047" y="980.3620361045811" width="10" height="39.63796389541892" fill="#ef5350" opacity="0.9"/><rect x="1059" y="976.1906909354618" width="10" height="43.80930906453818" fill="#ef5350" opacity="0.9"/><rect x="1071" y="982.1434219366791" width="10" height="37.85657806332085" fill="#ef5350" opacity="0.9"/><rect x="1083" y="977.364417379805" width="10" height="42.63558262019501" fill="#ef5350" opacity="0.9"/><rect x="1095" y="982.783075425331" width="10" height="37.21692457466895" fill="#ef5350" opacity="0.9"/><rect x="1107" y="989.7852129359768" width="10" height="30.2147870640232" fill="#26a69a" opacity="0.9"/><rect x="1119" y="992.2147078405353" width="10" height="27.78529215946469" fill="#26a69a" opacity="0.9"/><rect x="1131" y="984.7507126305093" width="10" height="35.24928736949073" fill="#26a69a" opacity="0.9"/><rect x="1143" y="993.4112872140909" width="10" height="26.588712785909138" fill="#26a69a" opacity="0.9"/><rect x="1155" y="994.447439024576" width="10" height="25.552560975423944" fill="#26a69a" opacity="0.9"/><rect x="1167" y="987.6066431941691" width="10" height="32.39335680583088" fill="#ef5350" opacity="0.9"/><rect x="1179" y="994.8208558879048" width="10" height="25.179144112095173" fill="#ef5350" opacity="0.9"/><rect x="1191" y="1000.0884560713378" width="10" height="19.91154392866224" fill="#26a69a" opacity="0.9"/><rect x="1203" y="992.4542065386801" width="10" height="27.54579346131993" fill="#26a69a" opacity="0.9"/><rect x="1215" y="978.1722684274595" width="10" height="41.82773157254053" fill="#26a69a" opacity="0.9"/><rect x="1227" y="983.5662453094362" width="10" height="36.433754690563774" fill="#26a69a" opacity="0.9"/><rect x="1239" y="998.9400963784201" width="10" height="21.059903621579906" fill="#26a69a" opacity="0.9"/><rect x="1251" y="995.174390702819" width="10" height="24.825609297181018" fill="#ef5350" opacity="0.9"/><rect x="1263" y="994.8501076372966" width="10" height="25.14989236270344" fill="#26a69a" opacity="0.9"/><rect x="1275" y="987.5604802771603" width="10" height="32.43951972283969" fill="#ef5350" opacity="0.9"/><rect x="1287" y="993.5596027246786" width="10" height="26.440397275321402" fill="#26a69a" opacity="0.9"/><rect x="1299" y="993.5058983410297" width="10" height="26.494101658970294" fill="#ef5350" opacity="0.9"/><rect x="1311" y="997.7247776029105" width="10" height="22.275222397089465" fill="#26a69a" opacity="0.9"/><rect x="1323" y="999.114692757602" width="10" height="20.88530724239797" fill="#26a69a" opacity="0.9"/><rect x="1335" y="1000.5544272979763" width="10" height="19.445572702023696" fill="#26a69a" opacity="0.9"/><rect x="1347" y="989.146016505909" width="10" height="30.85398349409104" fill="#26a69a" opacity="0.9"/><rect x="1359" y="994.6716262601486" width="10" height="25.328373739851372" fill="#26a69a" opacity="0.9"/><rect x="1371" y="995.2242100885018" width="10" height="24.775789911498237" fill="#26a69a" opacity="0.9"/><rect x="1383" y="1002.1566461650499" width="10" height="17.843353834950108" fill="#26a69a" opacity="0.9"/><rect x="1395" y="997.4446006907679" width="10" height="22.555399309232143" fill="#26a69a" opacity="0.9"/><rect x="1407" y="996.3268639229948" width="10" height="23.67313607700521" fill="#ef5350" opacity="0.9"/><rect x="1419" y="1003.1109844889552" width="10" height="16.889015511044818" fill="#ef5350" opacity="0.9"/><rect x="1431" y="1002.5643424221972" width="10" height="17.435657577802772" fill="#26a69a" opacity="0.9"/><rect x="1443" y="993.7963590713179" width="10" height="26.203640928682148" fill="#ef5350" opacity="0.9"/><rect x="1455" y="996.9827429913875" width="10" height="23.017257008612546" fill="#ef5350" opacity="0.9"/><rect x="1467" y="1001.6675934799069" width="10" height="18.33240652009306" fill="#ef5350" opacity="0.9"/><rect x="1479" y="1000.3350391775383" width="10" height="19.664960822461694" fill="#ef5350" opacity="0.9"/><rect x="1491" y="999.3066573629852" width="10" height="20.69334263701478" fill="#ef5350" opacity="0.9"/><rect x="1503" y="1002.8049837668026" width="10" height="17.195016233197407" fill="#26a69a" opacity="0.9"/><rect x="1515" y="1000.6997719277665" width="10" height="19.300228072233494" fill="#26a69a" opacity="0.9"/><rect x="1527" y="1001.1975087260101" width="10" height="18.802491273989858" fill="#ef5350" opacity="0.9"/><rect x="1539" y="999.0223669235844" width="10" height="20.9776330764156" fill="#26a69a" opacity="0.9"/><rect x="1551" y="1001.9694806748013" width="10" height="18.030519325198725" fill="#26a69a" opacity="0.9"/><rect x="1563" y="1003.7508665068993" width="10" height="16.249133493100658" fill="#26a69a" opacity="0.9"/><rect x="1575" y="1001.0523926255121" width="10" height="18.947607374487916" fill="#ef5350" opacity="0.9"/><rect x="1587" y="974.7159914133928" width="10" height="45.28400858660723" fill="#ef5350" opacity="0.9"/><rect x="1599" y="966.3317087439877" width="10" height="53.66829125601225" fill="#26a69a" opacity="0.9"/><rect x="1611" y="992.0257141159497" width="10" height="27.974285884050346" fill="#26a69a" opacity="0.9"/><rect x="1623" y="979.5745241639256" width="10" height="40.42547583607438" fill="#ef5350" opacity="0.9"/><rect x="1635" y="979.0150844568087" width="10" height="40.98491554319128" fill="#26a69a" opacity="0.9"/><rect x="1647" y="993.7673358512183" width="10" height="26.232664148781737" fill="#26a69a" opacity="0.9"/><rect x="1659" y="979.5870932749923" width="10" height="40.4129067250077" fill="#ef5350" opacity="0.9"/><rect x="1671" y="991.8977377123608" width="10" height="28.102262287639178" fill="#26a69a" opacity="0.9"/><rect x="1683" y="991.86642919934" width="10" height="28.13357080065998" fill="#ef5350" opacity="0.9"/><rect x="1695" y="982.991037081163" width="10" height="37.00896291883703" fill="#26a69a" opacity="0.9"/><rect x="1707" y="1002.2642834616398" width="10" height="17.73571653836018" fill="#26a69a" opacity="0.9"/><rect x="1719" y="996.9772582883766" width="10" height="23.02274171162344" fill="#26a69a" opacity="0.9"/><rect x="1731" y="992.2935504463177" width="10" height="27.70644955368232" fill="#ef5350" opacity="0.9"/><rect x="1743" y="1001.1913384351228" width="10" height="18.808661564877184" fill="#ef5350" opacity="0.9"/><rect x="1755" y="998.2970149503863" width="10" height="21.702985049613744" fill="#26a69a" opacity="0.9"/><rect x="1767" y="989.9145605153183" width="10" height="30.08543948468173" fill="#ef5350" opacity="0.9"/><rect x="1779" y="1002.2958205039528" width="10" height="17.70417949604723" fill="#26a69a" opacity="0.9"/><rect x="1791" y="989.3011878952605" width="10" height="30.698812104739545" fill="#ef5350" opacity="0.9"/><rect x="1803" y="998.7401332478125" width="10" height="21.259866752187463" fill="#26a69a" opacity="0.9"/><rect x="1815" y="996.4738082578298" width="10" height="23.526191742170226" fill="#26a69a" opacity="0.9"/><rect x="1827" y="995.6860677878822" width="10" height="24.313932212117834" fill="#ef5350" opacity="0.9"/><rect x="1839" y="996.4319873973714" width="10" height="23.56801260262864" fill="#26a69a" opacity="0.9"/><rect x="1851" y="990.1542877427553" width="10" height="29.845712257244713" fill="#ef5350" opacity="0.9"/><rect x="1863" y="993.7924740733519" width="10" height="26.207525926648145" fill="#26a69a" opacity="0.9"/><rect x="1875" y="997.8911469275761" width="10" height="22.108853072423926" fill="#ef5350" opacity="0.9"/><rect x="1887" y="988.5399568231991" width="10" height="31.460043176800923" fill="#26a69a" opacity="0.9"/><rect x="1899" y="988.1763667194316" width="10" height="31.8236332805684" fill="#26a69a" opacity="0.9"/><rect x="1911" y="983.1338678887397" width="10" height="36.8661321112603" fill="#26a69a" opacity="0.9"/><rect x="1923" y="980.6801488792162" width="10" height="39.319851120783824" fill="#ef5350" opacity="0.9"/><rect x="1935" y="932.0338040528908" width="10" height="87.96619594710921" fill="#ef5350" opacity="0.9"/><rect x="1004" y="271.27740977777853" width="12" height="376.2890613333335" fill="#00ff00" opacity="0.60"/><polyline points="320,533.5818241290983,332,540.083470254366,344,544.2075518597701,356,549.1111038731257,368,554.8873538746243,380,563.6302049976772,392,573.2987637598045,404,581.3766558885012,416,590.8622422694912,428,594.671747746472,440,596.6112773790833,452,597.5287756181135,464,597.3541158449583,476,598.786987605758,488,597.4458552411862,500,593.3437152922883,512,593.0652441215898,524,593.9855340147712,536,593.4784743943206,548,594.275677637188,560,593.7409852907927,572,594.429456025005,584,597.899226858605,596,599.0289889567268,608,601.725783320636,620,607.8499231525358,632,615.4003660268952,644,620.0547017915293,656,623.5959160547736,668,630.5677863141076,680,641.8995548979486,692,650.7286730981427,704,658.1308028559913,716,667.507373758599,728,674.4837721096296,740,679.0373914431054,752,683.3247956019629,764,688.6273099679177,776,691.9176571667423,788,694.9783693519192,800,701.1805739215763,812,706.9595551988843,824,715.453683232853,836,723.7249667344864,848,731.9620918497195,860,738.9123402026548,872,741.9351342997592,884,747.726240493431,896,756.2732044252748,908,761.9128859509096,920,767.0991863365392,932,774.0523020505204,944,775.9891818129038,956,778.9975683069164,968,778.2027216321845,980,772.3759572016055,992,764.7596425474856,1004,753.598388124975,1016,709.8400741659841,1028,669.9980243512325,1040,632.6944840003206,1052,603.1302333759514,1064,580.4007344935851,1076,562.1804299597999,1088,557.2503302599216,1100,554.0457353356992,1112,548.132008414839,1124,540.3532819414673,1136,533.3153865607983,1148,526.1104526449546,1160,513.479308244905,1172,505.56785023216236,1184,498.66105865449856,1196,486.8020507403142,1208,473.3930662676913,1220,459.753962136377,1232,446.49277454667146,1244,431.48022560571917,1256,417.9811747014709,1268,404.84670193625584,1280,394.72149138148075,1292,384.54743628694814,1304,379.7884779104101,1316,371.63110778137707,1328,364.1668985746845,1340,357.07864072101074,1352,345.8090319327665,1364,335.277793420649,1376,323.7399756345592,1388,310.95651746830595,1400,295.9575428099521,1412,284.73152201323603,1424,274.74210891144435,1436,264.3643655442196,1448,254.8075158310137,1460,247.33308236562448,1472,241.40781407683494,1484,239.2286515086704,1496,238.51299970361254,1508,236.19087655723786,1520,232.49901072639045,1532,231.08457414927113,1544,228.21394863241142,1556,224.86313312244624,1568,218.9845741584071,1580,214.50319223855945,1592,223.25951788780003,1604,229.4235477185946,1616,229.47425246497403,1628,245.42910054767867,1640,259.3620506330808,1652,265.8975241600881,1664,278.3834892242037,1676,284.6564287054964,1688,296.611802902857,1700,306.3400614200418,1712,310.70405311548814,1724,312.8940665118938,1736,319.5644674578489,1748,325.8507863666233,1760,330.3661682364691,1772,338.80554819278484,1784,344.7665490209854,1796,353.17416708247845,1808,359.69255100055005,1820,364.83655355076127,1832,376.35662866232957,1844,382.7604449378719,1856,392.7409456316228,1868,399.00778509527805,1880,408.3619658163621,1892,411.71765474390565,1904,413.49778277887407,1916,409.8332945142172,1928,408.61109097317643,1940,407.84021348366775" fill="none" stroke="#0090ff" stroke-width="2"/><line x1="80" y1="50" x2="80" y2="900" stroke="#666666" stroke-width="0.5" stroke-dasharray="4,4" opacity="0.90"/><line x1="152" y1="50" x2="152" y2="900" stroke="#666666" stroke-width="0.5" stroke-dasharray="4,4" opacity="0.90"/><line x1="224" y1="50" x2="224" y2="900" stroke="#666666" stroke-width="0.5" stroke-dasharray="4,4" opacity="0.90"/><line x1="296" y1="50" x2="296" y2="900" stroke="#666666" stroke-width="0.5" stroke-dasharray="4,4" opacity="0.90"/><line x1="368" y1="50" x2="368" y2="900" stroke="#666666" stroke-width="0.5" stroke-dasharray="4,4" opacity="0.90"/><line x1="440" y1="50" x2="440" y2="900" stroke="#666666" stroke-width="0.5" stroke-dasharray="4,4" opacity="0.90"/><line x1="512" y1="50" x2="512" y2="900" stroke="#666666" stroke-width="0.5" stroke-dasharray="4,4" opacity="0.90"/><line x1="584" y1="50" x2="584" y2="900" stroke="#666666" stroke-width="0.5" stroke-dasharray="4,4" opacity="0.90"/><line x1="656" y1="50" x2="656" y2="900" stroke="#666666" stroke-width="0.5" stroke-dasharray="4,4" opacity="0.90"/><line x1="728" y1="50" x2="728" y2="900" stroke="#666666" stroke-width="0.5" stroke-dasharray="4,4" opacity="0.90"/><line x1="800" y1="50" x2="800" y2="900" stroke="#666666" stroke-width="0.5" stroke-dasharray="4,4" opacity="0.90"/><line x1="872" y1="50" x2="872" y2="900" stroke="#666666" stroke-width="0.5" stroke-dasharray="4,4" opacity="0.90"/><line x1="944" y1="50" x2="944" y2="900" stroke="#666666" stroke-width="0.5" stroke-dasharray="4,4" opacity="0.90"/><line x1="1010" y1="30" x2="1010" y2="950" stroke="black" stroke-width="0.7"/><line x1="1016" y1="50" x2="1016" y2="900" stroke="#666666" stroke-width="0.5" stroke-dasharray="4,4" opacity="0.90"/><line x1="1088" y1="50" x2="1088" y2="900" stroke="#666666" stroke-width="0.5" stroke-dasharray="4,4" opacity="0.90"/><line x1="1160" y1="50" x2="1160" y2="900" stroke="#666666" stroke-width="0.5" stroke-dasharray="4,4" opacity="0.90"/><line x1="1232" y1="50" x2="1232" y2="900" stroke="#666666" stroke-width="0.5" stroke-dasharray="4,4" opacity="0.90"/><line x1="1304" y1="50" x2="1304" y2="900" stroke="#666666" stroke-width="0.5" stroke-dasharray="4,4" opacity="0.90"/><line x1="1376" y1="50" x2="1376" y2="900" stroke="#666666" stroke-width="0.5" stroke-dasharray="4,4" opacity="0.90"/><line x1="1448" y1="50" x2="1448" y2="900" stroke="#666666" stroke-width="0.5" stroke-dasharray="4,4" opacity="0.90"/><line x1="1520" y1="50" x2="1520" y2="900" stroke="#666666" stroke-width="0.5" stroke-dasharray="4,4" opacity="0.90"/><line x1="1592" y1="50" x2="1592" y2="900" stroke="#666666" stroke-width="0.5" stroke-dasharray="4,4" opacity="0.90"/><line x1="1664" y1="50" x2="1664" y2="900" stroke="#666666" stroke-width="0.5" stroke-dasharray="4,4" opacity="0.90"/><line x1="1736" y1="50" x2="1736" y2="900" stroke="#666666" stroke-width="0.5" stroke-dasharray="4,4" opacity="0.90"/><line x1="1808" y1="50" x2="1808" y2="900" stroke="#666666" stroke-width="0.5" stroke-dasharray="4,4" opacity="0.90"/><line x1="1880" y1="50" x2="1880" y2="900" stroke="#666666" stroke-width="0.5" stroke-dasharray="4,4" opacity="0.90"/><line x1="1946" y1="30" x2="1946" y2="950" stroke="black" stroke-width="0.7"/><text x="80" y="1040" text-anchor="middle" font-size="20" fill="black">09:30</text><text x="152" y="1040" text-anchor="middle" font-size="20" fill="black">10:00</text><text x="224" y="1040" text-anchor="middle" font-size="20" fill="black">10:30</text><text x="296" y="1040" text-anchor="middle" font-size="20" fill="black">11:00</text><text x="368" y="1040" text-anchor="middle" font-size="20" fill="black">11:30</text><text x="440" y="1040" text-anchor="middle" font-size="20" fill="black">12:00</text><text x="512" y="1040" text-anchor="middle" font-size="20" fill="black">12:30</text><text x="584" y="1040" text-anchor="middle" font-size="20" fill="black">13:00</text><text x="656" y="1040" text-anchor="middle" font-size="20" fill="black">13:30</text><text x="728" y="1040" text-anchor="middle" font-size="20" fill="black">14:00</text><text x="800" y="1040" text-anchor="middle" font-size="20" fill="black">14:30</text><text x="872" y="1040" text-anchor="middle" font-size="20" fill="black">15:00</text><text x="944" y="1040" text-anchor="middle" font-size="20" fill="black">15:30</text><text x="1016" y="1040" text-anchor="middle" font-size="20" fill="black">09:30</text><text x="1088" y="1040" text-anchor="middle" font-size="20" fill="black">10:00</text><text x="1160" y="1040" text-anchor="middle" font-size="20" fill="black">10:30</text><text x="1232" y="1040" text-anchor="middle" font-size="20" fill="black">11:00</text><text x="1304" y="1040" text-anchor="middle" font-size="20" fill="black">11:30</text><text x="1376" y="1040" text-anchor="middle" font-size="20" fill="black">12:00</text><text x="1448" y="1040" text-anchor="middle" font-size="20" fill="black">12:30</text><text x="1520" y="1040" text-anchor="middle" font-size="20" fill="black">13:00</text><text x="1592" y="1040" text-anchor="middle" font-size="20" fill="black">13:30</text><text x="1664" y="1040" text-anchor="middle" font-size="20" fill="black">14:00</text><text x="1736" y="1040" text-anchor="middle" font-size="20" fill="black">14:30</text><text x="1808" y="1040" text-anchor="middle" font-size="20" fill="black">15:00</text><text x="1880" y="1040" text-anchor="middle" font-size="20" fill="black">15:30</text><text x="1942" y="50" text-anchor="end" font-size="40" fill="#ef5350" font-weight="bold"> -0.33% (Wed)</text></svg>