<svg xmlns="http://www.w3.org/2000/svg" width="1992" height="1050"><rect width="100%" height="100%" fill="white"/><text x="42" y="854.0" text-anchor="end" font-size="20" fill="black">441</text><text x="42" y="828.1935483870968" text-anchor="end" font-size="20" fill="black">442</text><text x="42" y="802.3870967741935" text-anchor="end" font-size="20" fill="black">443</text><text x="42" y="776.5806451612904" text-anchor="end" font-size="20" fill="black">444</text><text x="42" y="750.7741935483871" text-anchor="end" font-size="20" fill="black">445</text><text x="42" y="724.9677419354839" text-anchor="end" font-size="20" fill="black">446</text><text x="42" y="699.1612903225806" text-anchor="end" font-size="20" fill="black">447</text><text x="42" y="673.3548387096774" text-anchor="end" font-size="20" fill="black">448</text><text x="42" y="647.5483870967741" text-anchor="end" font-size="20" fill="black">449</text><text x="42" y="621.741935483871" text-anchor="end" font-size="20" fill="black">450</text><text x="42" y="595.9354838709678" text-anchor="end" font-size="20" fill="black">451</text><text x="42" y="570.1290322580645" text-anchor="end" font-size="20" fill="black">452</text><text x="42" y="544.3225806451612" text-anchor="end" font-size="20" fill="black">453</text><text x="42" y="518.516129032258" text-anchor="end" font-size="20" fill="black">454</text><text x="42" y="492.7096774193549" text-anchor="end" font-size="20" fill="black">455</text><text x="42" y="466.9032258064516" text-anchor="end" font-size="20" fill="black">456</text><text x="42" y="441.0967741935484" text-anchor="end" font-size="20" fill="black">457</text><text x="42" y="415.2903225806452" text-anchor="end" font-size="20" fill="black">458</text><text x="42" y="389.4838709677419" text-anchor="end" font-size="20" fill="black">459</text><text x="42" y="363.6774193548387" text-anchor="end" font-size="20" fill="black">460</text><text x="42" y="337.8709677419355" text-anchor="end" font-size="20" fill="black">461</text><text x="42" y="312.0645161290323" text-anchor="end" font-size="20" fill="black">462</text><text x="42" y="286.258064516129" text-anchor="end" font-size="20" fill="black">463</text><text x="42" y="260.45161290322585" text-anchor="end" font-size="20" fill="black">464</text><text x="42" y="234.64516129032256" text-anchor="end" font-size="20" fill="black">465</text><text x="42" y="208.8387096774194" text-anchor="end" font-size="20" fill="black">466</text><text x="42" y="183.0322580645161" text-anchor="end" font-size="20" fill="black">467</text><text x="42" y="157.22580645161293" text-anchor="end" font-size="20" fill="black">468</text><text x="42" y="131.41935483870975" text-anchor="end" font-size="20" fill="black">469</text><text x="42" y="105.61290322580646" text-anchor="end" font-size="20" fill="black">470</text><text x="42" y="79.80645161290317" text-anchor="end" font-size="20" fill="black">471</text><text x="42" y="54.0" text-anchor="end" font-size="20" fill="black">472</text><line x1="80" y1="130.786942709678" x2="80" y2="160.73772051612968" stroke="#26a69a" stroke-width="2"/><rect x="76" y="134.11480696774208" width="8" height="19.96718503225793" fill="#26a69a"/><line x1="92" y1="126.947099354839" x2="92" y2="165.6015220645155" stroke="#26a69a" stroke-width="2"/><rect x="88" y="129.76298451612968" width="8" height="3.8398433548375124" fill="#26a69a"/><line x1="104" y1="84.9648126451616" x2="104" y2="134.11480696774208" stroke="#26a69a" stroke-width="2"/><rect x="100" y="87.52470812903175" width="8" height="43.5182242580654" fill="#26a69a"/><line x1="116" y1="67.5575230967737" x2="116" y2="91.36455148387074" stroke="#26a69a" stroke-width="2"/><rect x="112" y="78.30908438709673" width="8" height="9.727602838709913" fill="#26a69a"/><line x1="128" y1="74.72523045161358" x2="128" y2="107.74788283871032" stroke="#ef5350" stroke-width="2"/><rect x="124" y="77.02913651612926" width="8" height="12.287498580644751" fill="#ef5350"/><line x1="140" y1="57.06195122580664" x2="140" y2="92.38850967741905" stroke="#26a69a" stroke-width="2"/><rect x="136" y="79.5890319999994" width="8" height="9.727603096774601" fill="#26a69a"/><line x1="152" y1="67.04554400000029" x2="152" y2="104.42001883870944" stroke="#ef5350" stroke-width="2"/><rect x="148" y="81.63694838709614" width="8" height="21.528721548388376" fill="#ef5350"/><line x1="164" y1="95.4603842580641" x2="164" y2="140.25855612903206" stroke="#ef5350" stroke-width="2"/><rect x="160" y="104.16402916129039" width="8" height="24.31900748387045" fill="#ef5350"/><line x1="176" y1="99.30022761290309" x2="176" y2="133.34683819354814" stroke="#26a69a" stroke-width="2"/><rect x="172" y="122.33928748387075" width="8" height="4.6078118709682485" fill="#26a69a"/><line x1="188" y1="117.47548593548345" x2="188" y2="151.01011741935508" stroke="#ef5350" stroke-width="2"/><rect x="184" y="120.03538141935508" width="8" height="24.063018064516086" fill="#ef5350"/><line x1="200" y1="138.72261883871033" x2="200" y2="192.48042503225759" stroke="#ef5350" stroke-width="2"/><rect x="196" y="143.842409806452" width="8" height="22.52708077419277" fill="#ef5350"/><line x1="212" y1="160.99370993548416" x2="212" y2="202.97599664516156" stroke="#ef5350" stroke-width="2"/><rect x="208" y="165.6015220645155" width="8" height="36.862495483871044" fill="#ef5350"/><line x1="224" y1="187.61662348387028" x2="224" y2="218.33537006451604" stroke="#26a69a" stroke-width="2"/><rect x="220" y="192.4548260645165" width="8" height="9.497212387096624" fill="#26a69a"/><line x1="236" y1="191.96844593548417" x2="236" y2="226.52703561290264" stroke="#ef5350" stroke-width="2"/><rect x="232" y="192.48042503225759" width="8" height="16.639321032258636" fill="#ef5350"/><line x1="248" y1="202.46401754838655" x2="248" y2="236.76661780645225" stroke="#ef5350" stroke-width="2"/><rect x="244" y="208.0957878709679" width="8" height="22.015101419354664" fill="#ef5350"/><line x1="260" y1="229.8548998709682" x2="260" y2="273.8851029677422" stroke="#ef5350" stroke-width="2"/><rect x="256" y="230.36687896774163" width="8" height="38.6544224516133" fill="#ef5350"/><line x1="272" y1="237.79057600000056" x2="272" y2="270.8132283870973" stroke="#26a69a" stroke-width="2"/><rect x="268" y="250.59005367741872" width="8" height="19.199216516130264" fill="#26a69a"/><line x1="284" y1="239.58250296774133" x2="284" y2="269.53328051612834" stroke="#ef5350" stroke-width="2"/><rect x="280" y="250.84604335483925" width="8" height="16.63932077419247" fill="#ef5350"/><line x1="296" y1="259.03770890322596" x2="296" y2="308.69968232258134" stroke="#ef5350" stroke-width="2"/><rect x="292" y="265.94942683871" width="8" height="41.4703076129025" fill="#ef5350"/><line x1="308" y1="292.82833006451665" x2="308" y2="322.5231181935478" stroke="#ef5350" stroke-width="2"/><rect x="304" y="307.9317135483874" width="8" height="9.727603096774601" fill="#ef5350"/><line x1="320" y1="295.13223587096775" x2="320" y2="320.4752018064512" stroke="#26a69a" stroke-width="2"/><rect x="316" y="307.16374503225813" width="8" height="9.727603096774601" fill="#26a69a"/><line x1="332" y1="284.8926539354843" x2="332" y2="310.4916092903221" stroke="#26a69a" stroke-width="2"/><rect x="328" y="298.20411070967737" width="8" height="8.703644645161717" fill="#26a69a"/><line x1="344" y1="286.6845806451619" x2="344" y2="319.96322270967767" stroke="#ef5350" stroke-width="2"/><rect x="340" y="297.4361419354834" width="8" height="7.423697032258929" fill="#ef5350"/><line x1="356" y1="290.26843458064513" x2="356" y2="319.19525393548383" stroke="#ef5350" stroke-width="2"/><rect x="352" y="306.1397868387098" width="8" height="9.7276028387098" fill="#ef5350"/><line x1="368" y1="302.8119225806456" x2="368" y2="331.4827525161286" stroke="#ef5350" stroke-width="2"/><rect x="364" y="314.58744206451547" width="8" height="11.263540387097919" fill="#ef5350"/><line x1="380" y1="323.5470763870961" x2="380" y2="342.2343138064515" stroke="#ef5350" stroke-width="2"/><rect x="376" y="326.10697187096775" width="8" height="15.87135225806469" fill="#ef5350"/><line x1="392" y1="341.7223347096781" x2="392" y2="380.88873625806474" stroke="#ef5350" stroke-width="2"/><rect x="388" y="341.7223347096781" width="8" height="36.09452696774173" fill="#ef5350"/><line x1="404" y1="367.57727948387026" x2="404" y2="387.0324856774196" stroke="#26a69a" stroke-width="2"/><rect x="400" y="369.8811855483875" width="8" height="7.935676129032288" fill="#26a69a"/><line x1="416" y1="348.63405264516064" x2="416" y2="375.0009765161291" stroke="#26a69a" stroke-width="2"/><rect x="412" y="365.01738400000016" width="8" height="5.8877597419356675" fill="#26a69a"/><line x1="428" y1="350.1699899354838" x2="428" y2="379.60878864516064" stroke="#ef5350" stroke-width="2"/><rect x="424" y="366.0413421935485" width="8" height="10.751561290322968" fill="#ef5350"/><line x1="440" y1="350.4259796129029" x2="440" y2="382.1686841290323" stroke="#26a69a" stroke-width="2"/><rect x="436" y="356.05774967741945" width="8" height="20.9911434838711" fill="#26a69a"/><line x1="452" y1="330.7147840000007" x2="452" y2="365.01738400000016" stroke="#26a69a" stroke-width="2"/><rect x="448" y="346.84212567741974" width="8" height="9.215623999999707" fill="#26a69a"/><line x1="464" y1="339.67441832257987" x2="464" y2="357.3376975483869" stroke="#26a69a" stroke-width="2"/><rect x="460" y="340.6983765161297" width="8" height="7.167707354838399" fill="#26a69a"/><line x1="476" y1="330.97077341935506" x2="476" y2="365.2733736774192" stroke="#ef5350" stroke-width="2"/><rect x="472" y="340.95436593548413" width="8" height="20.991143483870985" fill="#ef5350"/><line x1="488" y1="357.59368696774123" x2="488" y2="398.296026064516" stroke="#ef5350" stroke-width="2"/><rect x="484" y="361.1775406451612" width="8" height="36.60650632258137" fill="#ef5350"/><line x1="500" y1="378.3544397419357" x2="500" y2="403.1598276129033" stroke="#26a69a" stroke-width="2"/><rect x="496" y="383.7046214193554" width="8" height="13.56744645161217" fill="#26a69a"/><line x1="512" y1="381.1447259354839" x2="512" y2="401.6238900645168" stroke="#ef5350" stroke-width="2"/><rect x="508" y="383.1926423225806" width="8" height="18.431247741936204" fill="#ef5350"/><line x1="524" y1="384.2166005161289" x2="524" y2="416.2152947096773" stroke="#ef5350" stroke-width="2"/><rect x="520" y="400.0879527741936" width="8" height="15.871352258064576" fill="#ef5350"/><line x1="536" y1="407.7676394838715" x2="536" y2="430.0387305806453" stroke="#26a69a" stroke-width="2"/><rect x="532" y="411.0955037419356" width="8" height="5.3757806451607735" fill="#26a69a"/><line x1="548" y1="398.80800516129085" x2="548" y2="416.7272738064522" stroke="#26a69a" stroke-width="2"/><rect x="544" y="404.43977522580593" width="8" height="6.65572851612967" fill="#26a69a"/><line x1="560" y1="404.1837858064516" x2="560" y2="430.0387305806453" stroke="#ef5350" stroke-width="2"/><rect x="556" y="404.1837858064516" width="8" height="4.351822193547719" fill="#ef5350"/><line x1="572" y1="404.1837858064516" x2="572" y2="423.89498141935525" stroke="#ef5350" stroke-width="2"/><rect x="568" y="409.5595661935492" width="8" height="9.983592774192175" fill="#ef5350"/><line x1="584" y1="411.35149316129" x2="584" y2="432.5986260645169" stroke="#ef5350" stroke-width="2"/><rect x="580" y="420.05513806451626" width="8" height="3.0718745806450443" fill="#ef5350"/><line x1="596" y1="419.79914838709715" x2="596" y2="453.077790451613" stroke="#ef5350" stroke-width="2"/><rect x="592" y="420.8231065806455" width="8" height="26.110934451612763" fill="#ef5350"/><line x1="608" y1="443.6061770322574" x2="608" y2="459.4775292903221" stroke="#ef5350" stroke-width="2"/><rect x="604" y="446.166072516129" width="8" height="10.751561290322968" fill="#ef5350"/><line x1="620" y1="450.2619052903224" x2="620" y2="469.973100903226" stroke="#ef5350" stroke-width="2"/><rect x="616" y="456.66164412903294" width="8" height="11.775519483869857" fill="#ef5350"/><line x1="632" y1="463.82935174193597" x2="632" y2="480.2126830967741" stroke="#ef5350" stroke-width="2"/><rect x="628" y="468.9491427096777" width="8" height="8.191665806451397" fill="#ef5350"/><line x1="644" y1="457.68560232258125" x2="644" y2="485.58846374193485" stroke="#26a69a" stroke-width="2"/><rect x="640" y="468.1811739354837" width="8" height="8.9596345806454" fill="#26a69a"/><line x1="656" y1="465.1092993548387" x2="656" y2="483.02856825806475" stroke="#ef5350" stroke-width="2"/><rect x="652" y="467.66919483871027" width="8" height="12.031509161290387" fill="#ef5350"/><line x1="668" y1="472.2770069677418" x2="668" y2="514.2592936774192" stroke="#ef5350" stroke-width="2"/><rect x="664" y="477.6527876129025" width="8" height="36.606506064516736" fill="#ef5350"/><line x1="680" y1="507.85955483871004" x2="680" y2="527.5707504516122" stroke="#ef5350" stroke-width="2"/><rect x="676" y="513.7473145806457" width="8" height="5.37578064516083" fill="#ef5350"/><line x1="692" y1="506.83559664516173" x2="692" y2="526.546792258064" stroke="#26a69a" stroke-width="2"/><rect x="688" y="519.1230952258065" width="8" height="2" fill="#26a69a"/><line x1="704" y1="489.42830683870915" x2="704" y2="530.3866356129029" stroke="#26a69a" stroke-width="2"/><rect x="700" y="489.94028619354873" width="8" height="31.742704516129322" fill="#26a69a"/><line x1="716" y1="463.061382967742" x2="716" y2="506.5796069677427" stroke="#26a69a" stroke-width="2"/><rect x="712" y="465.1092993548387" width="8" height="26.110934451612763" fill="#26a69a"/><line x1="728" y1="456.4056547096771" x2="728" y2="484.8204949677423" stroke="#ef5350" stroke-width="2"/><rect x="724" y="465.36528903225775" width="8" height="18.17525832258042" fill="#ef5350"/><line x1="740" y1="475.6048709677426" x2="740" y2="497.10799354838707" stroke="#ef5350" stroke-width="2"/><rect x="736" y="483.796536774194" width="8" height="12.031508903225642" fill="#ef5350"/><line x1="752" y1="482.77257858064564" x2="752" y2="509.13950245161277" stroke="#ef5350" stroke-width="2"/><rect x="748" y="495.0600771612904" width="8" height="11.519529806452283" fill="#ef5350"/><line x1="764" y1="502.99575329032274" x2="764" y2="529.3626771612899" stroke="#ef5350" stroke-width="2"/><rect x="760" y="502.99575329032274" width="8" height="22.527080774192825" fill="#ef5350"/><line x1="776" y1="502.7397636129037" x2="776" y2="525.5228340645156" stroke="#26a69a" stroke-width="2"/><rect x="772" y="522.9629385806454" width="8" height="2" fill="#26a69a"/><line x1="788" y1="521.4270010322575" x2="788" y2="541.650175741936" stroke="#ef5350" stroke-width="2"/><rect x="784" y="522.1949698064516" width="8" height="5.887759741935497" fill="#ef5350"/><line x1="800" y1="524.2428861935482" x2="800" y2="548.8178833548391" stroke="#ef5350" stroke-width="2"/><rect x="796" y="528.3387189677414" width="8" height="13.31145677419454" fill="#ef5350"/><line x1="812" y1="526.0348131612905" x2="812" y2="543.9540818064518" stroke="#26a69a" stroke-width="2"/><rect x="808" y="530.1306459354838" width="8" height="11.263540387096441" fill="#26a69a"/><line x1="824" y1="514.2592936774192" x2="824" y2="544.7220505806458" stroke="#ef5350" stroke-width="2"/><rect x="820" y="529.3626771612899" width="8" height="15.359373419355961" fill="#ef5350"/><line x1="836" y1="535.5064265806445" x2="836" y2="558.2894967741933" stroke="#ef5350" stroke-width="2"/><rect x="832" y="543.1861132903225" width="8" height="13.05546709677401" fill="#ef5350"/><line x1="848" y1="533.4585101935479" x2="848" y2="554.9616325161292" stroke="#ef5350" stroke-width="2"/><rect x="844" y="554.4496534193543" width="8" height="2" fill="#ef5350"/><line x1="860" y1="530.6426250322587" x2="860" y2="554.7056430967748" stroke="#26a69a" stroke-width="2"/><rect x="856" y="544.9780400000002" width="8" height="9.215623999999707" fill="#26a69a"/><line x1="872" y1="523.474917677419" x2="872" y2="548.8178833548391" stroke="#26a69a" stroke-width="2"/><rect x="868" y="528.1083285161296" width="8" height="18.661638451612816" fill="#26a69a"/><line x1="884" y1="525.0108549677421" x2="884" y2="546.5139772903219" stroke="#ef5350" stroke-width="2"/><rect x="880" y="529.3626771612899" width="8" height="2" fill="#ef5350"/><line x1="896" y1="501.2038263225804" x2="896" y2="533.9704892903228" stroke="#26a69a" stroke-width="2"/><rect x="892" y="517.8431473548391" width="8" height="11.775519483871335" fill="#26a69a"/><line x1="908" y1="504.5316905806445" x2="908" y2="530.3866356129029" stroke="#26a69a" stroke-width="2"/><rect x="904" y="506.5796069677427" width="8" height="12.54348825806386" fill="#26a69a"/><line x1="920" y1="497.3639832258061" x2="920" y2="523.7309070967747" stroke="#26a69a" stroke-width="2"/><rect x="916" y="501.4598159999995" width="8" height="4.0958327741933545" fill="#26a69a"/><line x1="932" y1="490.1962756129031" x2="932" y2="510.6754400000007" stroke="#26a69a" stroke-width="2"/><rect x="928" y="491.7322129032263" width="8" height="9.215623999999764" fill="#26a69a"/><line x1="944" y1="471.5090381935478" x2="944" y2="500.94783690322606" stroke="#ef5350" stroke-width="2"/><rect x="940" y="492.5001816774188" width="8" height="4.351822451613941" fill="#ef5350"/><line x1="956" y1="468.4371636129028" x2="956" y2="498.1319517419354" stroke="#26a69a" stroke-width="2"/><rect x="952" y="470.2290905806451" width="8" height="25.34296567741876" fill="#26a69a"/><line x1="968" y1="470.4850799999994" x2="968" y2="507.603565161291" stroke="#ef5350" stroke-width="2"/><rect x="964" y="470.99705909677436" width="8" height="26.110934451612707" fill="#ef5350"/><line x1="980" y1="449.4939365161284" x2="980" y2="499.15590993548375" stroke="#26a69a" stroke-width="2"/><rect x="976" y="460.7574769032263" width="8" height="36.86249574193573" fill="#26a69a"/><line x1="992" y1="439.25435458064504" x2="992" y2="495.57205625806387" stroke="#ef5350" stroke-width="2"/><rect x="988" y="461.2694559999997" width="8" height="22.01510167741941" fill="#ef5350"/><line x1="1004" y1="457.17362322580635" x2="1004" y2="488.1483592258064" stroke="#26a69a" stroke-width="2"/><rect x="1000" y="461.52544567741876" width="8" height="22.27109109677525" fill="#26a69a"/><line x1="1016" y1="686.0282838709677" x2="1016" y2="754.8894738064519" stroke="#ef5350" stroke-width="2"/><rect x="1012" y="686.5402629677426" width="8" height="68.34921083870927" fill="#ef5350"/><line x1="1028" y1="646.3499032258061" x2="1028" y2="754.1215050322579" stroke="#26a69a" stroke-width="2"/><rect x="1024" y="646.3499032258061" width="8" height="107.77160180645183" fill="#26a69a"/><line x1="1040" y1="619.72698967742" x2="1040" y2="677.8366183225811" stroke="#ef5350" stroke-width="2"/><rect x="1036" y="646.861882322581" width="8" height="24.063018064516086" fill="#ef5350"/><line x1="1052" y1="649.5497726451606" x2="1052" y2="718.0269780645161" stroke="#ef5350" stroke-width="2"/><rect x="1048" y="671.1808898064514" width="8" height="23.807028387097034" fill="#ef5350"/><line x1="1064" y1="675.7887019354844" x2="1064" y2="734.4103094193542" stroke="#ef5350" stroke-width="2"/><rect x="1060" y="694.4759390967735" width="8" height="24.319007741936616" fill="#ef5350"/><line x1="1076" y1="697.803803354839" x2="1076" y2="749.2577037419353" stroke="#ef5350" stroke-width="2"/><rect x="1072" y="717.2590095483869" width="8" height="16.895310451613" fill="#ef5350"/><line x1="1088" y1="708.5553646451606" x2="1088" y2="754.6334841290328" stroke="#ef5350" stroke-width="2"/><rect x="1084" y="734.4103094193542" width="8" height="19.199216516130264" fill="#ef5350"/><line x1="1100" y1="752.3295783225803" x2="1100" y2="814.7910291612906" stroke="#ef5350" stroke-width="2"/><rect x="1096" y="753.0975468387096" width="8" height="42.23827638709645" fill="#ef5350"/><line x1="1112" y1="797.1277501935483" x2="1112" y2="851.9095145806454" stroke="#ef5350" stroke-width="2"/><rect x="1108" y="797.1277501935483" width="8" height="49.66197316129069" fill="#ef5350"/><line x1="1124" y1="797.1277501935483" x2="1124" y2="846.789723354839" stroke="#26a69a" stroke-width="2"/><rect x="1120" y="825.0306113548387" width="8" height="21.7591120000003" fill="#26a69a"/><line x1="1136" y1="802.7595202580649" x2="1136" y2="832.4543083870961" stroke="#26a69a" stroke-width="2"/><rect x="1132" y="813.5110815483864" width="8" height="12.28749858064623" fill="#26a69a"/><line x1="1148" y1="774.0886903225806" x2="1148" y2="814.5350397419347" stroke="#26a69a" stroke-width="2"/><rect x="1144" y="788.168115612903" width="8" height="25.34296593548345" fill="#26a69a"/><line x1="1160" y1="764.1050978064516" x2="1160" y2="807.3673321290316" stroke="#ef5350" stroke-width="2"/><rect x="1156" y="788.168115612903" width="8" height="11.263540387096441" fill="#ef5350"/><line x1="1172" y1="798.407697806451" x2="1172" y2="835.7821726451616" stroke="#ef5350" stroke-width="2"/><rect x="1168" y="799.4316559999994" width="8" height="36.3505166451622" fill="#ef5350"/><line x1="1184" y1="795.847802322581" x2="1184" y2="837.8300890322583" stroke="#26a69a" stroke-width="2"/><rect x="1180" y="810.9511860645164" width="8" height="25.34296567741876" fill="#26a69a"/><line x1="1196" y1="753.0975468387096" x2="1196" y2="812.999102451613" stroke="#26a69a" stroke-width="2"/><rect x="1192" y="754.8894738064519" width="8" height="56.06171225806452" fill="#26a69a"/><line x1="1208" y1="749.2577037419353" x2="1208" y2="805.8313948387099" stroke="#ef5350" stroke-width="2"/><rect x="1204" y="755.6574425806458" width="8" height="50.173952258064105" fill="#ef5350"/><line x1="1220" y1="792.007958967742" x2="1220" y2="830.0224077419356" stroke="#ef5350" stroke-width="2"/><rect x="1216" y="802.7595202580649" width="8" height="24.063018064516086" fill="#ef5350"/><line x1="1232" y1="811.9751442580647" x2="1232" y2="840.1339950967741" stroke="#26a69a" stroke-width="2"/><rect x="1228" y="822.982694967742" width="8" height="4.351822451612406" fill="#26a69a"/><line x1="1244" y1="812.4871233548381" x2="1244" y2="833.734256258065" stroke="#26a69a" stroke-width="2"/><rect x="1240" y="816.5829561290329" width="8" height="6.6557285161281925" fill="#26a69a"/><line x1="1256" y1="777.6725440000005" x2="1256" y2="822.2147264516127" stroke="#26a69a" stroke-width="2"/><rect x="1252" y="804.5514472258058" width="8" height="11.775519483871335" fill="#26a69a"/><line x1="1268" y1="788.9360843870969" x2="1268" y2="814.0230606451613" stroke="#ef5350" stroke-width="2"/><rect x="1264" y="805.0634263225807" width="8" height="4.0958327741933545" fill="#ef5350"/><line x1="1280" y1="777.6725440000005" x2="1280" y2="824.5186322580653" stroke="#26a69a" stroke-width="2"/><rect x="1276" y="780.4884291612897" width="8" height="27.13489264516261" fill="#26a69a"/><line x1="1292" y1="774.6006694193555" x2="1292" y2="805.0634263225807" stroke="#ef5350" stroke-width="2"/><rect x="1288" y="779.9764500645163" width="8" height="13.951430709677538" fill="#ef5350"/><line x1="1304" y1="766.9209827096776" x2="1304" y2="803.5274890322574" stroke="#26a69a" stroke-width="2"/><rect x="1300" y="769.7368678709681" width="8" height="24.063018064516086" fill="#26a69a"/><line x1="1316" y1="731.0824454193548" x2="1316" y2="780.4884291612897" stroke="#26a69a" stroke-width="2"/><rect x="1312" y="746.1858289032256" width="8" height="24.57499716129098" fill="#26a69a"/><line x1="1328" y1="708.8113543225811" x2="1328" y2="749.2577037419353" stroke="#26a69a" stroke-width="2"/><rect x="1324" y="710.8592707096777" width="8" height="37.63046425806351" fill="#26a69a"/><line x1="1340" y1="702.6676049032263" x2="1340" y2="746.6978080000005" stroke="#ef5350" stroke-width="2"/><rect x="1336" y="712.9071870967745" width="8" height="22.271091096773716" fill="#ef5350"/><line x1="1352" y1="720.0748944516129" x2="1352" y2="749.7696828387102" stroke="#ef5350" stroke-width="2"/><rect x="1348" y="734.1543199999999" width="8" height="12.287498580644751" fill="#ef5350"/><line x1="1364" y1="701.643646709678" x2="1364" y2="745.4178603870963" stroke="#26a69a" stroke-width="2"/><rect x="1360" y="721.8668214193551" width="8" height="23.551038967741192" fill="#26a69a"/><line x1="1376" y1="713.1631765161288" x2="1376" y2="745.9298394838712" stroke="#26a69a" stroke-width="2"/><rect x="1372" y="718.538957161291" width="8" height="3.3278642580640962" fill="#26a69a"/><line x1="1388" y1="702.6676049032263" x2="1388" y2="744.1379125161288" stroke="#ef5350" stroke-width="2"/><rect x="1384" y="722.3788005161285" width="8" height="17.15130012903205" fill="#ef5350"/><line x1="1400" y1="736.9702051612906" x2="1400" y2="767.6889514838715" stroke="#ef5350" stroke-width="2"/><rect x="1396" y="739.5301006451606" width="8" height="20.223174709678574" fill="#ef5350"/><line x1="1412" y1="732.8743721290325" x2="1412" y2="765.3850454193544" stroke="#26a69a" stroke-width="2"/><rect x="1408" y="734.4103094193542" width="8" height="25.342965935484926" fill="#26a69a"/><line x1="1424" y1="707.7873958709681" x2="1424" y2="734.4103094193542" stroke="#26a69a" stroke-width="2"/><rect x="1420" y="727.2426020645158" width="8" height="7.167707354838399" fill="#26a69a"/><line x1="1436" y1="705.2275003870965" x2="1436" y2="732.3623930322576" stroke="#26a69a" stroke-width="2"/><rect x="1432" y="724.6827065806458" width="8" height="3.3278639999992947" fill="#26a69a"/><line x1="1448" y1="715.4670825806446" x2="1448" y2="745.9298394838712" stroke="#26a69a" stroke-width="2"/><rect x="1444" y="725.4506750967736" width="8" height="2" fill="#26a69a"/><line x1="1460" y1="722.1228110967742" x2="1460" y2="745.6738498064522" stroke="#ef5350" stroke-width="2"/><rect x="1456" y="726.2186438709675" width="8" height="7.167707354838399" fill="#ef5350"/><line x1="1472" y1="698.5717721290316" x2="1472" y2="734.1543199999999" stroke="#26a69a" stroke-width="2"/><rect x="1468" y="724.6827065806458" width="8" height="9.471613419354071" fill="#26a69a"/><line x1="1484" y1="715.4670825806446" x2="1484" y2="751.3056201290319" stroke="#ef5350" stroke-width="2"/><rect x="1480" y="725.1946856774192" width="8" height="24.830986580645344" fill="#ef5350"/><line x1="1496" y1="749.5136931612897" x2="1496" y2="779.7204603870972" stroke="#ef5350" stroke-width="2"/><rect x="1492" y="749.5136931612897" width="8" height="25.854945032258343" fill="#ef5350"/><line x1="1508" y1="760.5212438709684" x2="1508" y2="790.4720216774188" stroke="#ef5350" stroke-width="2"/><rect x="1504" y="775.8806172903229" width="8" height="2" fill="#ef5350"/><line x1="1520" y1="762.5691605161284" x2="1520" y2="791.7519695483876" stroke="#ef5350" stroke-width="2"/><rect x="1516" y="775.6246276129039" width="8" height="2" fill="#ef5350"/><line x1="1532" y1="757.449369290322" x2="1532" y2="778.952491870968" stroke="#26a69a" stroke-width="2"/><rect x="1528" y="763.0811396129033" width="8" height="12.543488000000593" fill="#26a69a"/><line x1="1544" y1="745.4178603870963" x2="1544" y2="782.0243664516129" stroke="#26a69a" stroke-width="2"/><rect x="1540" y="750.7936410322585" width="8" height="11.519529806450805" fill="#26a69a"/><line x1="1556" y1="745.1618707096773" x2="1556" y2="768.9688993548389" stroke="#ef5350" stroke-width="2"/><rect x="1552" y="750.7936410322585" width="8" height="8.191665548386709" fill="#ef5350"/><line x1="1568" y1="755.6574425806458" x2="1568" y2="782.0243664516129" stroke="#ef5350" stroke-width="2"/><rect x="1564" y="757.9613483870969" width="8" height="22.78307019354861" fill="#ef5350"/><line x1="1580" y1="769.2248887741932" x2="1580" y2="793.0319171612903" stroke="#ef5350" stroke-width="2"/><rect x="1576" y="781.2563976774189" width="8" height="9.47161367742035" fill="#ef5350"/><line x1="1592" y1="782.7923352258069" x2="1592" y2="804.5514472258058" stroke="#ef5350" stroke-width="2"/><rect x="1588" y="792.263948645161" width="8" height="2" fill="#ef5350"/><line x1="1604" y1="790.4720216774188" x2="1604" y2="801.4795723870975" stroke="#ef5350" stroke-width="2"/><rect x="1600" y="791.2399904516127" width="8" height="6.911717935483921" fill="#ef5350"/><line x1="1616" y1="792.263948645161" x2="1616" y2="814.2790500645157" stroke="#26a69a" stroke-width="2"/><rect x="1612" y="796.103792" width="8" height="2" fill="#26a69a"/><line x1="1628" y1="784.5842619354845" x2="1628" y2="809.4152487741931" stroke="#ef5350" stroke-width="2"/><rect x="1624" y="797.1277501935483" width="8" height="11.007550709677389" fill="#ef5350"/><line x1="1640" y1="791.2399904516127" x2="1640" y2="810.9511860645164" stroke="#26a69a" stroke-width="2"/><rect x="1636" y="806.8553530322582" width="8" height="2.047916645161422" fill="#26a69a"/><line x1="1652" y1="782.0243664516129" x2="1652" y2="804.2954575483867" stroke="#26a69a" stroke-width="2"/><rect x="1648" y="786.3761889032254" width="8" height="17.91926864516131" fill="#26a69a"/><line x1="1664" y1="784.3282725161287" x2="1664" y2="803.015509935484" stroke="#ef5350" stroke-width="2"/><rect x="1660" y="785.864209806452" width="8" height="5.887759741935611" fill="#ef5350"/><line x1="1676" y1="775.8806172903229" x2="1676" y2="795.5918129032251" stroke="#ef5350" stroke-width="2"/><rect x="1672" y="791.7519695483876" width="8" height="2.0479163870966204" fill="#ef5350"/><line x1="1688" y1="784.3282725161287" x2="1688" y2="798.1517083870966" stroke="#ef5350" stroke-width="2"/><rect x="1684" y="795.335823225806" width="8" height="2" fill="#ef5350"/><line x1="1700" y1="794.0558753548386" x2="1700" y2="809.927227870968" stroke="#ef5350" stroke-width="2"/><rect x="1696" y="797.6397292903232" width="8" height="4.351822451612406" fill="#ef5350"/><line x1="1712" y1="772.2967633548383" x2="1712" y2="805.5754054193555" stroke="#26a69a" stroke-width="2"/><rect x="1708" y="773.5767112258072" width="8" height="28.92681961290191" fill="#26a69a"/><line x1="1724" y1="747.2097870967739" x2="1724" y2="775.6246276129039" stroke="#26a69a" stroke-width="2"/><rect x="1720" y="747.7217661935488" width="8" height="24.830986838708554" fill="#26a69a"/><line x1="1736" y1="726.4746332903219" x2="1736" y2="757.7053589677425" stroke="#26a69a" stroke-width="2"/><rect x="1732" y="746.6978080000005" width="8" height="2" fill="#26a69a"/><line x1="1748" y1="747.9777558709678" x2="1748" y2="768.9688993548389" stroke="#ef5350" stroke-width="2"/><rect x="1744" y="749.2577037419353" width="8" height="15.35937316129116" fill="#ef5350"/><line x1="1760" y1="754.6334841290328" x2="1760" y2="769.2248887741932" stroke="#ef5350" stroke-width="2"/><rect x="1756" y="762.3131708387093" width="8" height="5.631770064516559" fill="#ef5350"/><line x1="1772" y1="743.1139543225805" x2="1772" y2="778.184523096774" stroke="#26a69a" stroke-width="2"/><rect x="1768" y="765.8970245161292" width="8" height="3.8398433548388766" fill="#26a69a"/><line x1="1784" y1="756.9373901935485" x2="1784" y2="771.27280516129" stroke="#26a69a" stroke-width="2"/><rect x="1780" y="756.9373901935485" width="8" height="6.3997388387091405" fill="#26a69a"/><line x1="1796" y1="747.9777558709678" x2="1796" y2="781.2563976774189" stroke="#ef5350" stroke-width="2"/><rect x="1792" y="758.217338064516" width="8" height="21.7591120000003" fill="#ef5350"/><line x1="1808" y1="753.6095259354845" x2="1808" y2="779.9764500645163" stroke="#26a69a" stroke-width="2"/><rect x="1804" y="765.3850454193544" width="8" height="14.591404645161901" fill="#26a69a"/><line x1="1820" y1="762.3131708387093" x2="1820" y2="787.9121261935486" stroke="#ef5350" stroke-width="2"/><rect x="1816" y="767.1769723870966" width="8" height="2.5598954838715144" fill="#ef5350"/><line x1="1832" y1="753.3535365161287" x2="1832" y2="781.512387354838" stroke="#26a69a" stroke-width="2"/><rect x="1828" y="755.4014529032253" width="8" height="14.84739406451638" fill="#26a69a"/><line x1="1844" y1="749.5136931612897" x2="1844" y2="766.9209827096776" stroke="#ef5350" stroke-width="2"/><rect x="1840" y="756.9373901935485" width="8" height="2" fill="#ef5350"/><line x1="1856" y1="754.6334841290328" x2="1856" y2="774.3446797419349" stroke="#ef5350" stroke-width="2"/><rect x="1852" y="757.449369290322" width="8" height="4.607812129032936" fill="#ef5350"/><line x1="1868" y1="741.8340064516132" x2="1868" y2="771.528794838709" stroke="#26a69a" stroke-width="2"/><rect x="1864" y="748.4897349677412" width="8" height="12.799477677419645" fill="#26a69a"/><line x1="1880" y1="734.4103094193542" x2="1880" y2="757.1933798709676" stroke="#ef5350" stroke-width="2"/><rect x="1876" y="748.4897349677412" width="8" height="2" fill="#ef5350"/><line x1="1892" y1="748.7713233548382" x2="1892" y2="787.9121261935486" stroke="#ef5350" stroke-width="2"/><rect x="1888" y="751.0496304516129" width="8" height="36.86249574193573" fill="#ef5350"/><line x1="1904" y1="764.8730663225808" x2="1904" y2="795.5918129032251" stroke="#26a69a" stroke-width="2"/><rect x="1900" y="766.1530141935483" width="8" height="21.247132903225406" fill="#26a69a"/><line x1="1916" y1="751.5616095483878" x2="1916" y2="776.3925963870963" stroke="#ef5350" stroke-width="2"/><rect x="1912" y="767.1769723870966" width="8" height="8.959634322580655" fill="#ef5350"/><line x1="1928" y1="764.1050978064516" x2="1928" y2="804.0394681290323" stroke="#26a69a" stroke-width="2"/><rect x="1924" y="764.1050978064516" width="8" height="12.0315089032257" fill="#26a69a"/><line x1="1940" y1="731.5944245161284" x2="1940" y2="764.3610872258059" stroke="#26a69a" stroke-width="2"/><rect x="1936" y="744.1379125161288" width="8" height="19.71119561290368" fill="#26a69a"/><rect x="75" y="957.8222642401323" width="10" height="62.17773575986769" fill="#26a69a" opacity="0.9"/><rect x="87" y="964.0293074923186" width="10" height="55.970692507681406" fill="#26a69a" opacity="0.9"/><rect x="99" y="971.327227605767" width="10" height="48.67277239423299" fill="#26a69a" opacity="0.9"/><rect x="111" y="977.112384779012" width="10" height="42.88761522098798" fill="#26a69a" opacity="0.9"/><rect x="123" y="976.1172299692744" width="10" height="43.882770030725624" fill="#ef5350" opacity="0.9"/><rect x="135" y="972.94386669818" width="10" height="47.056133301819955" fill="#26a69a" opacity="0.9"/><rect x="147" y="970.8915150082723" width="10" height="49.108484991727664" fill="#ef5350" opacity="0.9"/><rect x="159" y="978.8258095012999" width="10" height="41.17419049870011" fill="#ef5350" opacity="0.9"/><rect x="171" y="990.415268258095" width="10" height="29.58473174190499" fill="#26a69a" opacity="0.9"/><rect x="183" y="990.30430158355" width="10" height="29.69569841645" fill="#ef5350" opacity="0.9"/><rect x="195" y="975.1330654691562" width="10" height="44.866934530843764" fill="#ef5350" opacity="0.9"/><rect x="207" y="994.7784211770268" width="10" height="25.221578822973242" fill="#ef5350" opacity="0.9"/><rect x="219" y="970.8425904041598" width="10" height="49.15740959584025" fill="#26a69a" opacity="0.9"/><rect x="231" y="972.0298983691798" width="10" height="47.97010163082018" fill="#ef5350" opacity="0.9"/><rect x="243" y="984.2887024344127" width="10" height="35.7112975655873" fill="#ef5350" opacity="0.9"/><rect x="255" y="980.6721815173718" width="10" height="39.32781848262823" fill="#ef5350" opacity="0.9"/><rect x="267" y="975.1674545024816" width="10" height="44.83254549751837" fill="#26a69a" opacity="0.9"/><rect x="279" y="988.8089104230678" width="10" height="31.1910895769322" fill="#ef5350" opacity="0.9"/><rect x="291" y="982.8344363034744" width="10" height="37.16556369652562" fill="#ef5350" opacity="0.9"/><rect x="303" y="973.5813046561096" width="10" height="46.41869534389036" fill="#ef5350" opacity="0.9"/><rect x="315" y="978.841763176554" width="10" height="41.15823682344603" fill="#26a69a" opacity="0.9"/><rect x="327" y="970.4019144410305" width="10" height="49.5980855589695" fill="#26a69a" opacity="0.9"/><rect x="339" y="978.4485937130702" width="10" height="41.55140628692982" fill="#ef5350" opacity="0.9"/><rect x="351" y="988.8461356653273" width="10" height="31.153864334672676" fill="#ef5350" opacity="0.9"/><rect x="363" y="971.667572677854" width="10" height="48.33242732214603" fill="#ef5350" opacity="0.9"/><rect x="375" y="986.356298747341" width="10" height="33.64370125265896" fill="#ef5350" opacity="0.9"/><rect x="387" y="952.3186008035925" width="10" height="67.68139919640748" fill="#ef5350" opacity="0.9"/><rect x="399" y="978.218151737178" width="10" height="41.781848262821995" fill="#26a69a" opacity="0.9"/><rect x="411" y="964.2097612857481" width="10" height="55.79023871425193" fill="#26a69a" opacity="0.9"/><rect x="423" y="979.8124556842354" width="10" height="40.187544315764626" fill="#ef5350" opacity="0.9"/><rect x="435" y="984.6616639092413" width="10" height="35.33833609075873" fill="#26a69a" opacity="0.9"/><rect x="447" y="977.6143937603404" width="10" height="42.38560623965964" fill="#26a69a" opacity="0.9"/><rect x="459" y="994.5295438430632" width="10" height="25.470456156936848" fill="#26a69a" opacity="0.9"/><rect x="471" y="978.0394705743323" width="10" height="41.96052942566769" fill="#ef5350" opacity="0.9"/><rect x="483" y="971.9022689671473" width="10" height="48.09773103285272" fill="#ef5350" opacity="0.9"/><rect x="495" y="987.6811628456629" width="10" height="32.318837154337075" fill="#26a69a" opacity="0.9"/><rect x="507" y="997.7351689907823" width="10" height="22.264831009217687" fill="#ef5350" opacity="0.9"/><rect x="519" y="977.0202079886552" width="10" height="42.979792011344784" fill="#ef5350" opacity="0.9"/><rect x="531" y="982.2232332781848" width="10" height="37.77676672181519" fill="#26a69a" opacity="0.9"/><rect x="543" y="998.2052706216025" width="10" height="21.794729378397506" fill="#26a69a" opacity="0.9"/><rect x="555" y="985.158709524935" width="10" height="34.841290475064966" fill="#ef5350" opacity="0.9"/><rect x="567" y="990.4652564405578" width="10" height="29.534743559442177" fill="#ef5350" opacity="0.9"/><rect x="579" y="996.9140865043724" width="10" height="23.08591349562755" fill="#ef5350" opacity="0.9"/><rect x="591" y="985.5061451193571" width="10" height="34.49385488064286" fill="#ef5350" opacity="0.9"/><rect x="603" y="988.0924131411014" width="10" height="31.90758685889864" fill="#ef5350" opacity="0.9"/><rect x="615" y="975.1621366107303" width="10" height="44.83786338926973" fill="#ef5350" opacity="0.9"/><rect x="627" y="986.1166390924132" width="10" height="33.88336090758685" fill="#ef5350" opacity="0.9"/><rect x="639" y="988.1168754431576" width="10" height="31.883124556842404" fill="#26a69a" opacity="0.9"/><rect x="651" y="994.2845662963838" width="10" height="25.715433703616213" fill="#ef5350" opacity="0.9"/><rect x="663" y="982.0683053651619" width="10" height="37.931694634838095" fill="#ef5350" opacity="0.9"/><rect x="675" y="985.1250295438431" width="10" height="34.874970456156916" fill="#ef5350" opacity="0.9"/><rect x="687" y="984.1805719688017" width="10" height="35.8194280311983" fill="#26a69a" opacity="0.9"/><rect x="699" y="971.6580004727015" width="10" height="48.341999527298526" fill="#26a69a" opacity="0.9"/><rect x="711" y="977.9256676908532" width="10" height="42.074332309146826" fill="#26a69a" opacity="0.9"/><rect x="723" y="984.5709052233515" width="10" height="35.429094776648526" fill="#ef5350" opacity="0.9"/><rect x="735" y="997.2076341290475" width="10" height="22.792365870952494" fill="#ef5350" opacity="0.9"/><rect x="747" y="991.1569368943512" width="10" height="28.843063105648753" fill="#ef5350" opacity="0.9"/><rect x="759" y="990.2156700543607" width="10" height="29.784329945639342" fill="#ef5350" opacity="0.9"/><rect x="771" y="985.9826282202789" width="10" height="34.01737177972109" fill="#26a69a" opacity="0.9"/><rect x="783" y="977.8012290238714" width="10" height="42.19877097612857" fill="#ef5350" opacity="0.9"/><rect x="795" y="992.9263767430867" width="10" height="27.073623256913265" fill="#ef5350" opacity="0.9"/><rect x="807" y="985.2586858898605" width="10" height="34.741314110139456" fill="#26a69a" opacity="0.9"/><rect x="819" y="978.9491845899314" width="10" height="41.050815410068594" fill="#ef5350" opacity="0.9"/><rect x="831" y="987.2383597258331" width="10" height="32.76164027416689" fill="#ef5350" opacity="0.9"/><rect x="843" y="991.9890096903805" width="10" height="28.0109903096195" fill="#ef5350" opacity="0.9"/><rect x="855" y="985.5376979437485" width="10" height="34.462302056251474" fill="#26a69a" opacity="0.9"/><rect x="867" y="974.9352398960057" width="10" height="45.06476010399433" fill="#26a69a" opacity="0.9"/><rect x="879" y="978.7669581659183" width="10" height="41.233041834081746" fill="#ef5350" opacity="0.9"/><rect x="891" y="988.0874497754668" width="10" height="31.91255022453322" fill="#26a69a" opacity="0.9"/><rect x="903" y="985.5830772866934" width="10" height="34.416922713306576" fill="#26a69a" opacity="0.9"/><rect x="915" y="981.6772630583787" width="10" height="38.322736941621315" fill="#26a69a" opacity="0.9"/><rect x="927" y="983.3325454975184" width="10" height="36.66745450248163" fill="#26a69a" opacity="0.9"/><rect x="939" y="976.534152682581" width="10" height="43.46584731741905" fill="#ef5350" opacity="0.9"/><rect x="951" y="974.1407468683526" width="10" height="45.85925313164739" fill="#26a69a" opacity="0.9"/><rect x="963" y="968.880642874025" width="10" height="51.11935712597494" fill="#ef5350" opacity="0.9"/><rect x="975" y="942.0309619475302" width="10" height="77.96903805246984" fill="#26a69a" opacity="0.9"/><rect x="987" y="914.3212006617821" width="10" height="105.67879933821791" fill="#ef5350" opacity="0.9"/><rect x="999" y="861.7630583786339" width="10" height="158.2369416213661" fill="#26a69a" opacity="0.9"/><rect x="1011" y="905.4506026943985" width="10" height="114.54939730560147" fill="#ef5350" opacity="0.9"/><rect x="1023" y="920.0485700779957" width="10" height="99.95142992200431" fill="#26a69a" opacity="0.9"/><rect x="1035" y="891.8304183408178" width="10" height="128.1695816591822" fill="#ef5350" opacity="0.9"/><rect x="1047" y="933.3872606948712" width="10" height="86.6127393051288" fill="#ef5350" opacity="0.9"/><rect x="1059" y="931.5525880406524" width="10" height="88.44741195934762" fill="#ef5350" opacity="0.9"/><rect x="1071" y="936.1398014653746" width="10" height="83.8601985346254" fill="#ef5350" opacity="0.9"/><rect x="1083" y="935.5821318837154" width="10" height="84.41786811628458" fill="#ef5350" opacity="0.9"/><rect x="1095" y="881.5831954620658" width="10" height="138.41680453793424" fill="#ef5350" opacity="0.9"/><rect x="1107" y="907.8596076577642" width="10" height="112.14039234223583" fill="#ef5350" opacity="0.9"/><rect x="1119" y="939.5673599621839" width="10" height="80.4326400378161" fill="#26a69a" opacity="0.9"/><rect x="1131" y="916.7089340581423" width="10" height="103.29106594185771" fill="#26a69a" opacity="0.9"/><rect x="1143" y="942.7602221696998" width="10" height="77.23977783030023" fill="#26a69a" opacity="0.9"/><rect x="1155" y="960.026707634129" width="10" height="59.973292365870975" fill="#ef5350" opacity="0.9"/><rect x="1167" y="971.1021035216261" width="10" height="48.89789647837392" fill="#ef5350" opacity="0.9"/><rect x="1179" y="972.9779012053888" width="10" height="47.022098794611225" fill="#26a69a" opacity="0.9"/><rect x="1191" y="921.5184353580714" width="10" height="98.48156464192857" fill="#26a69a" opacity="0.9"/><rect x="1203" y="931.3788702434413" width="10" height="88.62112975655873" fill="#ef5350" opacity="0.9"/><rect x="1215" y="920.0737414322855" width="10" height="99.92625856771451" fill="#ef5350" opacity="0.9"/><rect x="1227" y="956.3063105648782" width="10" height="63.69368943512177" fill="#26a69a" opacity="0.9"/><rect x="1239" y="966.7552588040652" width="10" height="53.24474119593481" fill="#26a69a" opacity="0.9"/><rect x="1251" y="928.3086740723234" width="10" height="91.69132592767664" fill="#26a69a" opacity="0.9"/><rect x="1263" y="969.2004254313401" width="10" height="50.799574568659864" fill="#ef5350" opacity="0.9"/><rect x="1275" y="966.1359016780902" width="10" height="53.86409832190975" fill="#26a69a" opacity="0.9"/><rect x="1287" y="976.6532734578113" width="10" height="43.34672654218866" fill="#ef5350" opacity="0.9"/><rect x="1299" y="972.2979201134484" width="10" height="47.70207988655159" fill="#26a69a" opacity="0.9"/><rect x="1311" y="965.5888678799338" width="10" height="54.41113212006621" fill="#26a69a" opacity="0.9"/><rect x="1323" y="970.9032143701253" width="10" height="49.09678562987472" fill="#26a69a" opacity="0.9"/><rect x="1335" y="955.4476483100922" width="10" height="64.55235168990782" fill="#ef5350" opacity="0.9"/><rect x="1347" y="985.5841408650438" width="10" height="34.415859134956236" fill="#ef5350" opacity="0.9"/><rect x="1359" y="976.6734814464666" width="10" height="43.32651855353345" fill="#26a69a" opacity="0.9"/><rect x="1371" y="985.780902859844" width="10" height="34.21909714015601" fill="#26a69a" opacity="0.9"/><rect x="1383" y="983.0872134247223" width="10" height="36.912786575277664" fill="#ef5350" opacity="0.9"/><rect x="1395" y="975.1585913495628" width="10" height="44.84140865043719" fill="#ef5350" opacity="0.9"/><rect x="1407" y="990.7194516662728" width="10" height="29.28054833372721" fill="#26a69a" opacity="0.9"/><rect x="1419" y="978.770148900969" width="10" height="41.22985109903095" fill="#26a69a" opacity="0.9"/><rect x="1431" y="996.418104467029" width="10" height="23.581895532970975" fill="#26a69a" opacity="0.9"/><rect x="1443" y="988.6731269203498" width="10" height="31.326873079650227" fill="#26a69a" opacity="0.9"/><rect x="1455" y="986.500945402978" width="10" height="33.499054597021996" fill="#ef5350" opacity="0.9"/><rect x="1467" y="981.4879461120303" width="10" height="38.51205388796973" fill="#26a69a" opacity="0.9"/><rect x="1479" y="993.467738123375" width="10" height="26.532261876624943" fill="#ef5350" opacity="0.9"/><rect x="1491" y="966.7272512408414" width="10" height="53.27274875915862" fill="#ef5350" opacity="0.9"/><rect x="1503" y="976.193807610494" width="10" height="43.80619238950601" fill="#ef5350" opacity="0.9"/><rect x="1515" y="985.8599621838808" width="10" height="34.14003781611916" fill="#ef5350" opacity="0.9"/><rect x="1527" y="984.8013471992437" width="10" height="35.19865280075635" fill="#26a69a" opacity="0.9"/><rect x="1539" y="999.1327109430395" width="10" height="20.867289056960544" fill="#26a69a" opacity="0.9"/><rect x="1551" y="998.8551169936185" width="10" height="21.14488300638152" fill="#ef5350" opacity="0.9"/><rect x="1563" y="999.8733160009454" width="10" height="20.12668399905465" fill="#ef5350" opacity="0.9"/><rect x="1575" y="999.2887024344127" width="10" height="20.7112975655873" fill="#ef5350" opacity="0.9"/><rect x="1587" y="994.8440085086268" width="10" height="25.155991491373243" fill="#ef5350" opacity="0.9"/><rect x="1599" y="995.7920113448357" width="10" height="24.207988655164286" fill="#ef5350" opacity="0.9"/><rect x="1611" y="993.1532734578113" width="10" height="26.846726542188662" fill="#26a69a" opacity="0.9"/><rect x="1623" y="990.926494918459" width="10" height="29.073505081541043" fill="#ef5350" opacity="0.9"/><rect x="1635" y="997.5426613093831" width="10" height="22.457338690616893" fill="#26a69a" opacity="0.9"/><rect x="1647" y="994.9652564405578" width="10" height="25.034743559442177" fill="#26a69a" opacity="0.9"/><rect x="1659" y="993.7155518789884" width="10" height="26.284448121011565" fill="#ef5350" opacity="0.9"/><rect x="1671" y="997.716733632711" width="10" height="22.283266367289002" fill="#ef5350" opacity="0.9"/><rect x="1683" y="1001.8122193334909" width="10" height="18.18778066650907" fill="#ef5350" opacity="0.9"/><rect x="1695" y="992.3818246277476" width="10" height="27.61817537225238" fill="#ef5350" opacity="0.9"/><rect x="1707" y="995.3974237768849" width="10" height="24.60257622311508" fill="#26a69a" opacity="0.9"/><rect x="1719" y="988.2842117702671" width="10" height="31.71578822973288" fill="#26a69a" opacity="0.9"/><rect x="1731" y="978.242968565351" width="10" height="41.75703143464898" fill="#26a69a" opacity="0.9"/><rect x="1743" y="981.4762467501772" width="10" height="38.52375324982279" fill="#ef5350" opacity="0.9"/><rect x="1755" y="997.9865280075633" width="10" height="22.013471992436735" fill="#ef5350" opacity="0.9"/><rect x="1767" y="988.0863861971166" width="10" height="31.913613802883447" fill="#26a69a" opacity="0.9"/><rect x="1779" y="1001.9490664145592" width="10" height="18.050933585440816" fill="#26a69a" opacity="0.9"/><rect x="1791" y="987.6347199243678" width="10" height="32.3652800756322" fill="#ef5350" opacity="0.9"/><rect x="1803" y="989.8554715197353" width="10" height="30.14452848026474" fill="#26a69a" opacity="0.9"/><rect x="1815" y="995.3889151500828" width="10" height="24.611084849917233" fill="#ef5350" opacity="0.9"/><rect x="1827" y="994.5568423540534" width="10" height="25.4431576459466" fill="#26a69a" opacity="0.9"/><rect x="1839" y="996.2337508863153" width="10" height="23.766249113684694" fill="#ef5350" opacity="0.9"/><rect x="1851" y="986.7129520207989" width="10" height="33.287047979201134" fill="#ef5350" opacity="0.9"/><rect x="1863" y="986.581422831482" width="10" height="33.41857716851803" fill="#26a69a" opacity="0.9"/><rect x="1875" y="978.7095249350035" width="10" height="41.290475064996485" fill="#ef5350" opacity="0.9"/><rect x="1887" y="982.9659654927913" width="10" height="37.03403450720873" fill="#ef5350" opacity="0.9"/><rect x="1899" y="976.2055069723469" width="10" height="43.79449302765306" fill="#26a69a" opacity="0.9"/><rect x="1911" y="986.6466556369653" width="10" height="33.353344363034694" fill="#ef5350" opacity="0.9"/><rect x="1923" y="925.988300638147" width="10" height="94.01169936185295" fill="#26a69a" opacity="0.9"/><rect x="1935" y="860.0" width="10" height="160.0" fill="#26a69a" opacity="0.9"/><rect x="1004" y="461.52544567741876" width="12" height="225.01481729032383" fill="#ff2400" opacity="0.60"/><polyline points="320,188.01218835022803,332,198.50665714636534,344,208.63553160554375,356,218.8480895171515,368,229.03884122519548,380,239.79498245413163,392,252.93992333254062,404,264.07718640071664,416,273.69053855302866,428,283.509811403585,440,290.4191388582353,452,295.79275665053854,464,300.0694823520241,476,305.9624373108172,488,314.70735251623853,500,321.2785209832008,512,328.9304608957067,524,337.2189222420436,536,344.25478714679525,548,349.9866907733679,560,355.5627781282862,572,361.6561477320448,584,367.510515819008,596,375.0746610774132,608,382.8692299087496,620,391.0185569281933,632,399.2206761270447,644,405.78834258499074,656,412.82761510070605,668,422.4877749651539,680,431.69113879950106,692,440.01799179248246,704,444.77249602115495,716,446.7093344338859,728,450.2170689977858,740,454.56097153870473,752,459.5151272938511,764,465.8015755577238,776,471.2455148932408,788,476.65858295563635,800,482.84825845909336,812,487.35134298065447,824,492.81521989493825,836,498.85582565609565,848,504.17485588854134,860,508.06087342296513,872,509.97015486041016,884,511.86582168476536,896,512.4350907962018,908,511.87742566968126,920,510.88527236780726,932,509.0611714664192,944,507.8983936247633,956,504.3108409538945,968,503.6248554867026,980,499.54224800256185,992,497.99389654302456,1004,494.52071074629936,1016,519.3177357996481,1028,531.4160374592809,1040,544.7025958333583,1052,559.0154836771856,1064,574.2325754068545,1076,589.4632177490578,1088,605.0961994810986,1100,623.2142588853563,1112,644.5071602634016,1124,661.699869891157,1136,676.1580805251792,1148,686.8257029144872,1160,697.550079398821,1172,710.7150406603772,1184,720.2613402226762,1196,723.5592577068459,1208,731.3946993384521,1220,740.483064955989,1232,748.3401725761562,1244,754.8394852954765,1256,759.573957860269,1268,764.2963675018417,1280,765.838468612266,1292,768.5136507229256,1304,768.6301475941682,1316,766.4925934331267,1328,761.1941817451797,1340,758.7164766450242,1352,757.5474615912739,1364,754.1493053844255,1376,750.7578436488882,1388,749.6885347913899,1400,750.6470815117184,1412,749.1007222648271,1424,747.0189965314632,1436,744.8917308218619,1448,743.0402017051869,1460,742.1207873738181,1472,740.4600177744684,1484,741.3710324871919,1496,744.6088996973201,1508,747.6602983743804,1520,750.4210876536256,1532,751.6268068878426,1544,751.5474577587405,1556,752.255824313208,1568,754.9690237672504,1580,758.3746416327343,1592,761.6265746262372,1604,765.1051587939389,1616,768.0574095754691,1628,771.8743516066841,1640,775.2058755519777,1652,776.2697149187627,1664,777.7442153596792,1676,779.2733268430883,1688,780.9493681452823,1700,782.9533856306787,1712,782.0603690206906,1724,778.7900258942955,1736,775.7336241900762,1748,774.6749054008521,1760,774.0339564010781,1772,773.2590105072734,1784,771.704570477396,1796,772.4923685333124,1808,771.8154806176963,1820,771.6175174989603,1832,770.0731303946052,1844,768.9220653431984,1856,768.2682668742605,1868,766.3845971688775,1880,764.8266043202291,1892,767.0252254510204,1904,766.9421577122134,1916,767.8178195214954,1928,767.4642269772053,1940,765.2426732190077" fill="none" stroke="#0090ff" stroke-width="2"/><line x1="80" y1="50" x2="80" y2="900" stroke="#666666" stroke-width="0.5" stroke-dasharray="4,4" opacity="0.90"/><line x1="152" y1="50" x2="152" y2="900" stroke="#666666" stroke-width="0.5" stroke-dasharray="4,4" opacity="0.90"/><line x1="224" y1="50" x2="224" y2="900" stroke="#666666" stroke-width="0.5" stroke-dasharray="4,4" opacity="0.90"/><line x1="296" y1="50" x2="296" y2="900" stroke="#666666" stroke-width="0.5" stroke-dasharray="4,4" opacity="0.90"/><line x1="368" y1="50" x2="368" y2="900" stroke="#666666" stroke-width="0.5" stroke-dasharray="4,4" opacity="0.90"/><line x1="440" y1="50" x2="440" y2="900" stroke="#666666" stroke-width="0.5" stroke-dasharray="4,4" opacity="0.90"/><line x1="512" y1="50" x2="512" y2="900" stroke="#666666" stroke-width="0.5" stroke-dasharray="4,4" opacity="0.90"/><line x1="584" y1="50" x2="584" y2="900" stroke="#666666" stroke-width="0.5" stroke-dasharray="4,4" opacity="0.90"/><line x1="656" y1="50" x2="656" y2="900" stroke="#666666" stroke-width="0.5" stroke-dasharray="4,4" opacity="0.90"/><line x1="728" y1="50" x2="728" y2="900" stroke="#666666" stroke-width="0.5" stroke-dasharray="4,4" opacity="0.90"/><line x1="800" y1="50" x2="800" y2="900" stroke="#666666" stroke-width="0.5" stroke-dasharray="4,4" opacity="0.90"/><line x1="872" y1="50" x2="872" y2="900" stroke="#666666" stroke-width="0.5" stroke-dasharray="4,4" opacity="0.90"/><line x1="944" y1="50" x2="944" y2="900" stroke="#666666" stroke-width="0.5" stroke-dasharray="4,4" opacity="0.90"/><line x1="1010" y1="30" x2="1010" y2="950" stroke="black" stroke-width="0.7"/><line x1="1016" y1="50" x2="1016" y2="900" stroke="#666666" stroke-width="0.5" stroke-dasharray="4,4" opacity="0.90"/><line x1="1088" y1="50" x2="1088" y2="900" stroke="#666666" stroke-width="0.5" stroke-dasharray="4,4" opacity="0.90"/><line x1="1160" y1="50" x2="1160" y2="900" stroke="#666666" stroke-width="0.5" stroke-dasharray="4,4" opacity="0.90"/><line x1="1232" y1="50" x2="1232" y2="900" stroke="#666666" stroke-width="0.5" stroke-dasharray="4,4" opacity="0.90"/><line x1="1304" y1="50" x2="1304" y2="900" stroke="#666666" stroke-width="0.5" stroke-dasharray="4,4" opacity="0.90"/><line x1="1376" y1="50" x2="1376" y2="900" stroke="#666666" stroke-width="0.5" stroke-dasharray="4,4" opacity="0.90"/><line x1="1448" y1="50" x2="1448" y2="900" stroke="#666666" stroke-width="0.5" stroke-dasharray="4,4" opacity="0.90"/><line x1="1520" y1="50" x2="1520" y2="900" stroke="#666666" stroke-width="0.5" stroke-dasharray="4,4" opacity="0.90"/><line x1="1592" y1="50" x2="1592" y2="900" stroke="#666666" stroke-width="0.5" stroke-dasharray="4,4" opacity="0.90"/><line x1="1664" y1="50" x2="1664" y2="900" stroke="#666666" stroke-width="0.5" stroke-dasharray="4,4" opacity="0.90"/><line x1="1736" y1="50" x2="1736" y2="900" stroke="#666666" stroke-width="0.5" stroke-dasharray="4,4" opacity="0.90"/><line x1="1808" y1="50" x2="1808" y2="900" stroke="#666666" stroke-width="0.5" stroke-dasharray="4,4" opacity="0.90"/><line x1="1880" y1="50" x2="1880" y2="900" stroke="#666666" stroke-width="0.5" stroke-dasharray="4,4" opacity="0.90"/><line x1="1946" y1="30" x2="1946" y2="950" stroke="black" stroke-width="0.7"/><text x="80" y="1040" text-anchor="middle" font-size="20" fill="black">09:30</text><text x="152" y="1040" text-anchor="middle" font-size="20" fill="black">10:00</text><text x="224" y="1040" text-anchor="middle" font-size="20" fill="black">10:30</text><text x="296" y="1040" text-anchor="middle" font-size="20" fill="black">11:00</text><text x="368" y="1040" text-anchor="middle" font-size="20" fill="black">11:30</text><text x="440" y="1040" text-anchor="middle" font-size="20" fill="black">12:00</text><text x="512" y="1040" text-anchor="middle" font-size="20" fill="black">12:30</text><text x="584" y="1040" text-anchor="middle" font-size="20" fill="black">13:00</text><text x="656" y="1040" text-anchor="middle" font-size="20" fill="black">13:30</text><text x="728" y="1040" text-anchor="middle" font-size="20" fill="black">14:00</text><text x="800" y="1040" text-anchor="middle" font-size="20" fill="black">14:30</text><text x="872" y="1040" text-anchor="middle" font-size="20" fill="black">15:00</text><text x="944" y="1040" text-anchor="middle" font-size="20" fill="black">15:30</text><text x="1016" y="1040" text-anchor="middle" font-size="20" fill="black">09:30</text><text x="1088" y="1040" text-anchor="middle" font-size="20" fill="black">10:00</text><text x="1160" y="1040" text-anchor="middle" font-size="20" fill="black">10:30</text><text x="1232" y="1040" text-anchor="middle" font-size="20" fill="black">11:00</text><text x="1304" y="1040" text-anchor="middle" font-size="20" fill="black">11:30</text><text x="1376" y="1040" text-anchor="middle" font-size="20" fill="black">12:00</text><text x="1448" y="1040" text-anchor="middle" font-size="20" fill="black">12:30</text><text x="1520" y="1040" text-anchor="middle" font-size="20" fill="black">13:00</text><text x="1592" y="1040" text-anchor="middle" font-size="20" fill="black">13:30</text><text x="1664" y="1040" text-anchor="middle" font-size="20" fill="black">14:00</text><text x="1736" y="1040" text-anchor="middle" font-size="20" fill="black">14:30</text><text x="1808" y="1040" text-anchor="middle" font-size="20" fill="black">15:00</text><text x="1880" y="1040" text-anchor="middle" font-size="20" fill="black">15:30</text><text x="1942" y="50" text-anchor="end" font-size="40" fill="#ef5350" font-weight="bold"> -0.50% (Fri)</text></svg>