<svg xmlns="http://www.w3.org/2000/svg" width="1992" height="1050"><rect width="100%" height="100%" fill="white"/><text x="42" y="854.0" text-anchor="end" font-size="20" fill="black">487</text><text x="42" y="787.3333333333334" text-anchor="end" font-size="20" fill="black">488</text><text x="42" y="720.6666666666667" text-anchor="end" font-size="20" fill="black">489</text><text x="42" y="654.0" text-anchor="end" font-size="20" fill="black">490</text><text x="42" y="587.3333333333334" text-anchor="end" font-size="20" fill="black">491</text><text x="42" y="520.6666666666666" text-anchor="end" font-size="20" fill="black">492</text><text x="42" y="454.0" text-anchor="end" font-size="20" fill="black">493</text><text x="42" y="387.3333333333333" text-anchor="end" font-size="20" fill="black">494</text><text x="42" y="320.66666666666674" text-anchor="end" font-size="20" fill="black">495</text><text x="42" y="254.0" text-anchor="end" font-size="20" fill="black">496</text><text x="42" y="187.33333333333326" text-anchor="end" font-size="20" fill="black">497</text><text x="42" y="120.66666666666674" text-anchor="end" font-size="20" fill="black">498</text><text x="42" y="54.0" text-anchor="end" font-size="20" fill="black">499</text><line x1="80" y1="255.97850200000107" x2="80" y2="305.5764780000004" stroke="#ef5350" stroke-width="2"/><rect x="76" y="267.2207099999998" width="8" height="32.40401133333171" fill="#ef5350"/><line x1="92" y1="296.97949599999833" x2="92" y2="329.38350666666634" stroke="#ef5350" stroke-width="2"/><rect x="88" y="298.30210866666675" width="8" height="6.613063333334821" fill="#ef5350"/><line x1="104" y1="271.8498546666676" x2="104" y2="308.88300999999956" stroke="#26a69a" stroke-width="2"/><rect x="100" y="275.1563866666668" width="8" height="29.7587853333348" fill="#26a69a"/><line x1="116" y1="240.76845666666782" x2="116" y2="281.1081433333318" stroke="#26a69a" stroke-width="2"/><rect x="112" y="245.39760066666827" width="8" height="29.75878599999851" fill="#26a69a"/><line x1="128" y1="242.75237533333507" x2="128" y2="284.3485446666666" stroke="#ef5350" stroke-width="2"/><rect x="124" y="244.07498799999985" width="8" height="2" fill="#ef5350"/><line x1="140" y1="245.72825400000124" x2="140" y2="275.1563866666668" stroke="#ef5350" stroke-width="2"/><rect x="136" y="245.72825400000124" width="8" height="15.540699333333578" fill="#ef5350"/><line x1="152" y1="242.75237533333507" x2="152" y2="280.4468373333332" stroke="#26a69a" stroke-width="2"/><rect x="148" y="242.75237533333507" width="8" height="17.193965333331107" fill="#26a69a"/><line x1="164" y1="221.59057199999847" x2="164" y2="251.34935800000062" stroke="#26a69a" stroke-width="2"/><rect x="160" y="227.5423293333347" width="8" height="15.210046000000375" fill="#26a69a"/><line x1="176" y1="211.67097733333162" x2="176" y2="232.17147399999863" stroke="#26a69a" stroke-width="2"/><rect x="172" y="218.28404066666667" width="8" height="7.935675999999603" fill="#26a69a"/><line x1="188" y1="212.99359000000027" x2="188" y2="265.2367913333326" stroke="#ef5350" stroke-width="2"/><rect x="184" y="216.9614280000019" width="8" height="31.08139799999958" fill="#ef5350"/><line x1="200" y1="245.39760066666827" x2="200" y2="285.07598133333363" stroke="#ef5350" stroke-width="2"/><rect x="196" y="248.1089566666658" width="8" height="9.853464666666014" fill="#ef5350"/><line x1="212" y1="243.41368200000102" x2="212" y2="265.2367913333326" stroke="#26a69a" stroke-width="2"/><rect x="208" y="247.381519999999" width="8" height="7.274369333333652" fill="#26a69a"/><line x1="224" y1="246.05890733333422" x2="224" y2="282.43075600000043" stroke="#ef5350" stroke-width="2"/><rect x="220" y="249.36543866666625" width="8" height="29.09747933333233" fill="#ef5350"/><line x1="236" y1="273.83377399999813" x2="236" y2="295.65688333333355" stroke="#26a69a" stroke-width="2"/><rect x="232" y="274.4950800000008" width="8" height="3.967837999997755" fill="#26a69a"/><line x1="248" y1="264.5754846666666" x2="248" y2="306.23778466666636" stroke="#ef5350" stroke-width="2"/><rect x="244" y="275.8176926666654" width="8" height="15.210046000000602" fill="#ef5350"/><line x1="260" y1="274.4950800000008" x2="260" y2="299.95537466666815" stroke="#26a69a" stroke-width="2"/><rect x="256" y="277.140305333334" width="8" height="13.887433333331956" fill="#26a69a"/><line x1="272" y1="270.527241999999" x2="272" y2="306.8990906666652" stroke="#ef5350" stroke-width="2"/><rect x="268" y="275.8176926666654" width="8" height="23.47637533333318" fill="#ef5350"/><line x1="284" y1="293.01165800000035" x2="284" y2="324.09305599999993" stroke="#ef5350" stroke-width="2"/><rect x="280" y="298.9634146666656" width="8" height="17.193965333334745" fill="#ef5350"/><line x1="296" y1="316.81868599999916" x2="296" y2="357.1583733333341" stroke="#ef5350" stroke-width="2"/><rect x="292" y="316.81868599999916" width="8" height="12.564820666667174" fill="#ef5350"/><line x1="308" y1="312.1895419999987" x2="308" y2="339.3031020000005" stroke="#26a69a" stroke-width="2"/><rect x="304" y="318.80260533333353" width="8" height="9.25828866666825" fill="#26a69a"/><line x1="320" y1="300.94733399999996" x2="320" y2="322.10913666666556" stroke="#ef5350" stroke-width="2"/><rect x="316" y="318.80260533333353" width="8" height="3.306531333332032" fill="#ef5350"/><line x1="332" y1="310.8669293333339" x2="332" y2="326.73828133333313" stroke="#26a69a" stroke-width="2"/><rect x="328" y="310.8669293333339" width="8" height="12.564820000000054" fill="#26a69a"/><line x1="344" y1="298.30210866666675" x2="344" y2="323.431749333334" stroke="#26a69a" stroke-width="2"/><rect x="340" y="298.9634146666656" width="8" height="11.242208000002393" fill="#26a69a"/><line x1="356" y1="277.801612" x2="356" y2="300.94733399999996" stroke="#26a69a" stroke-width="2"/><rect x="352" y="277.801612" width="8" height="21.227933333333567" fill="#26a69a"/><line x1="368" y1="254.65588933333265" x2="368" y2="277.801612" stroke="#26a69a" stroke-width="2"/><rect x="364" y="264.5754846666666" width="8" height="13.226127333333352" fill="#26a69a"/><line x1="380" y1="264.5754846666666" x2="380" y2="278.4629179999986" stroke="#ef5350" stroke-width="2"/><rect x="376" y="264.5754846666666" width="8" height="11.90351466666857" fill="#ef5350"/><line x1="392" y1="257.9624213333318" x2="392" y2="286.3985939999982" stroke="#26a69a" stroke-width="2"/><rect x="388" y="260.607646666665" width="8" height="17.193965333334972" fill="#26a69a"/><line x1="404" y1="260.607646666665" x2="404" y2="274.4950800000008" stroke="#ef5350" stroke-width="2"/><rect x="400" y="260.607646666665" width="8" height="13.226127333333125" fill="#ef5350"/><line x1="416" y1="257.301115333333" x2="416" y2="275.8176926666654" stroke="#26a69a" stroke-width="2"/><rect x="412" y="257.9624213333318" width="8" height="16.532658666669022" fill="#26a69a"/><line x1="428" y1="253.33327666666787" x2="428" y2="266.5594040000012" stroke="#26a69a" stroke-width="2"/><rect x="424" y="255.3171959999986" width="8" height="3.9678380000016205" fill="#26a69a"/><line x1="440" y1="249.36543866666625" x2="440" y2="265.8980973333353" stroke="#26a69a" stroke-width="2"/><rect x="436" y="252.01066399999945" width="8" height="4.629144666667571" fill="#26a69a"/><line x1="452" y1="244.07498799999985" x2="452" y2="257.9624213333318" stroke="#ef5350" stroke-width="2"/><rect x="448" y="252.01066399999945" width="8" height="2" fill="#ef5350"/><line x1="464" y1="247.381519999999" x2="464" y2="263.2528719999982" stroke="#ef5350" stroke-width="2"/><rect x="460" y="250.68805133333467" width="8" height="3.9678379999979825" fill="#ef5350"/><line x1="476" y1="227.5423293333347" x2="476" y2="253.33327666666787" stroke="#26a69a" stroke-width="2"/><rect x="472" y="234.15539266666588" width="8" height="18.516577999999527" fill="#26a69a"/><line x1="488" y1="195.13831866666646" x2="488" y2="236.80061799999908" stroke="#26a69a" stroke-width="2"/><rect x="484" y="195.7996246666653" width="8" height="41.00099333333378" fill="#26a69a"/><line x1="500" y1="179.26696600000014" x2="500" y2="201.7513820000015" stroke="#26a69a" stroke-width="2"/><rect x="496" y="180.58957866666492" width="8" height="14.548740000001544" fill="#26a69a"/><line x1="512" y1="158.10516333333453" x2="512" y2="191.8317866666673" stroke="#26a69a" stroke-width="2"/><rect x="508" y="175.9604346666681" width="8" height="3.9678379999979825" fill="#26a69a"/><line x1="524" y1="162.0730013333325" x2="524" y2="178.6056600000013" stroke="#26a69a" stroke-width="2"/><rect x="520" y="164.71822666666571" width="8" height="12.564820666667174" fill="#26a69a"/><line x1="536" y1="141.5725046666655" x2="536" y2="168.68606466666733" stroke="#26a69a" stroke-width="2"/><rect x="532" y="142.2338106666682" width="8" height="22.48441599999751" fill="#26a69a"/><line x1="548" y1="138.9272793333323" x2="548" y2="159.4277759999993" stroke="#ef5350" stroke-width="2"/><rect x="544" y="142.2338106666682" width="8" height="13.887433333331956" fill="#ef5350"/><line x1="560" y1="146.8629553333319" x2="560" y2="165.37953266666818" stroke="#26a69a" stroke-width="2"/><rect x="556" y="151.49209933333236" width="8" height="4.6291446666677984" fill="#26a69a"/><line x1="572" y1="126.03180533333216" x2="572" y2="152.1534059999983" stroke="#26a69a" stroke-width="2"/><rect x="568" y="129.00768399999833" width="8" height="22.484415333334027" fill="#26a69a"/><line x1="584" y1="113.7976380000016" x2="584" y2="141.5725046666655" stroke="#26a69a" stroke-width="2"/><rect x="580" y="113.7976380000016" width="8" height="17.193964666663987" fill="#26a69a"/><line x1="596" y1="97.9262853333314" x2="596" y2="121.7333140000012" stroke="#ef5350" stroke-width="2"/><rect x="592" y="112.47502533333318" width="8" height="8.596982666665554" fill="#ef5350"/><line x1="608" y1="111.1524126666684" x2="608" y2="129.6689900000008" stroke="#26a69a" stroke-width="2"/><rect x="604" y="114.12829133333457" width="8" height="6.943716666664159" fill="#26a69a"/><line x1="620" y1="101.23281733333442" x2="620" y2="131.65290933333154" stroke="#ef5350" stroke-width="2"/><rect x="616" y="114.45894400000043" width="8" height="11.903514666664705" fill="#ef5350"/><line x1="632" y1="107.18457466666678" x2="632" y2="137.60466666666775" stroke="#ef5350" stroke-width="2"/><rect x="628" y="125.03984600000035" width="8" height="11.90351400000145" fill="#ef5350"/><line x1="644" y1="112.47502533333318" x2="644" y2="138.26597266666636" stroke="#26a69a" stroke-width="2"/><rect x="640" y="119.74939533333395" width="8" height="16.532658666665156" fill="#26a69a"/><line x1="656" y1="107.84588066666561" x2="656" y2="125.03984600000035" stroke="#26a69a" stroke-width="2"/><rect x="652" y="111.81371866666723" width="8" height="5.951757333332353" fill="#26a69a"/><line x1="668" y1="103.87804266666762" x2="668" y2="119.088088666668" stroke="#26a69a" stroke-width="2"/><rect x="664" y="105.86196199999836" width="8" height="8.596982000002072" fill="#26a69a"/><line x1="680" y1="85.36146533333522" x2="680" y2="107.18457466666678" stroke="#26a69a" stroke-width="2"/><rect x="676" y="93.95844733333365" width="8" height="13.226127333333125" fill="#26a69a"/><line x1="692" y1="87.3453839999986" x2="692" y2="101.23281733333442" stroke="#ef5350" stroke-width="2"/><rect x="688" y="93.29714133333482" width="8" height="2" fill="#ef5350"/><line x1="704" y1="78.08709533333445" x2="704" y2="100.57151066666847" stroke="#26a69a" stroke-width="2"/><rect x="700" y="88.00669066666842" width="8" height="7.274369333329787" fill="#26a69a"/><line x1="716" y1="82.7162393333349" x2="716" y2="98.58759200000122" stroke="#26a69a" stroke-width="2"/><rect x="712" y="86.684078" width="8" height="2" fill="#26a69a"/><line x1="728" y1="78.74840133333305" x2="728" y2="95.2810599999982" stroke="#26a69a" stroke-width="2"/><rect x="724" y="84.03885199999945" width="8" height="3.3065319999991516" fill="#26a69a"/><line x1="740" y1="79.409707999999" x2="740" y2="93.95844733333365" stroke="#ef5350" stroke-width="2"/><rect x="736" y="82.7162393333349" width="8" height="9.258289333331504" fill="#ef5350"/><line x1="752" y1="80.73232066666765" x2="752" y2="98.58759200000122" stroke="#26a69a" stroke-width="2"/><rect x="748" y="80.73232066666765" width="8" height="10.580901333332804" fill="#26a69a"/><line x1="764" y1="73.45795066666665" x2="764" y2="99.910204666666" stroke="#ef5350" stroke-width="2"/><rect x="760" y="81.39362666666625" width="8" height="17.193965333334972" fill="#ef5350"/><line x1="776" y1="88.00669066666842" x2="776" y2="108.50718733333156" stroke="#ef5350" stroke-width="2"/><rect x="772" y="99.24889800000005" width="8" height="4.629144666667571" fill="#ef5350"/><line x1="788" y1="88.00669066666842" x2="788" y2="105.86196199999836" stroke="#26a69a" stroke-width="2"/><rect x="784" y="97.9262853333314" width="8" height="7.274370000000999" fill="#26a69a"/><line x1="800" y1="86.684078" x2="800" y2="103.21673666666516" stroke="#26a69a" stroke-width="2"/><rect x="796" y="89.9906093333318" width="8" height="7.274370000000999" fill="#26a69a"/><line x1="812" y1="86.684078" x2="812" y2="92.635834666665" stroke="#ef5350" stroke-width="2"/><rect x="808" y="88.66799666666725" width="8" height="3.3065319999991516" fill="#ef5350"/><line x1="824" y1="87.3453839999986" x2="824" y2="100.57151066666847" stroke="#26a69a" stroke-width="2"/><rect x="820" y="88.66799666666725" width="8" height="3.967837999997755" fill="#26a69a"/><line x1="836" y1="57.58659866666744" x2="836" y2="87.3453839999986" stroke="#26a69a" stroke-width="2"/><rect x="832" y="65.52227466666704" width="8" height="21.82310933333156" fill="#26a69a"/><line x1="848" y1="54.28006666666829" x2="848" y2="73.45795066666665" stroke="#ef5350" stroke-width="2"/><rect x="844" y="64.19966199999863" width="8" height="3.9678380000016205" fill="#ef5350"/><line x1="860" y1="68.16750000000025" x2="860" y2="79.07905466666602" stroke="#ef5350" stroke-width="2"/><rect x="856" y="68.16750000000025" width="8" height="8.596982666665554" fill="#ef5350"/><line x1="872" y1="77.4257886666685" x2="872" y2="105.86196199999836" stroke="#ef5350" stroke-width="2"/><rect x="868" y="77.4257886666685" width="8" height="26.45225399999913" fill="#ef5350"/><line x1="884" y1="95.94236666666802" x2="884" y2="119.088088666668" stroke="#26a69a" stroke-width="2"/><rect x="880" y="95.94236666666802" width="8" height="9.919595333330335" fill="#26a69a"/><line x1="896" y1="96.60367266666685" x2="896" y2="109.16849333333403" stroke="#ef5350" stroke-width="2"/><rect x="892" y="96.60367266666685" width="8" height="3.3065319999991516" fill="#ef5350"/><line x1="908" y1="93.29714133333482" x2="908" y2="105.2006553333324" stroke="#26a69a" stroke-width="2"/><rect x="904" y="97.9262853333314" width="8" height="3.306532000003017" fill="#26a69a"/><line x1="920" y1="98.25693866666825" x2="920" y2="111.1524126666684" stroke="#ef5350" stroke-width="2"/><rect x="916" y="100.57151066666847" width="8" height="7.935676666663085" fill="#ef5350"/><line x1="932" y1="88.66799666666725" x2="932" y2="110.49110599999881" stroke="#26a69a" stroke-width="2"/><rect x="928" y="92.635834666665" width="8" height="15.871352666666553" fill="#26a69a"/><line x1="944" y1="82.0549333333322" x2="944" y2="102.5554299999992" stroke="#26a69a" stroke-width="2"/><rect x="940" y="86.02277133333405" width="8" height="6.613063333330956" fill="#26a69a"/><line x1="956" y1="68.8288066666662" x2="956" y2="88.00669066666842" stroke="#26a69a" stroke-width="2"/><rect x="952" y="70.15141933333484" width="8" height="15.871351999999206" fill="#26a69a"/><line x1="968" y1="60.89312999999947" x2="968" y2="84.03885199999945" stroke="#ef5350" stroke-width="2"/><rect x="964" y="70.81272533333345" width="8" height="7.274370000000999" fill="#ef5350"/><line x1="980" y1="41.715246000001116" x2="980" y2="78.74840133333305" stroke="#26a69a" stroke-width="2"/><rect x="976" y="42.37655266666707" width="8" height="36.37184866666598" fill="#26a69a"/><line x1="992" y1="18.569524000001024" x2="992" y2="48.989615999998136" stroke="#26a69a" stroke-width="2"/><rect x="988" y="24.521281333333377" width="8" height="17.85527133333369" fill="#26a69a"/><line x1="1004" y1="21.214749333334225" x2="1004" y2="55.60267933333307" stroke="#ef5350" stroke-width="2"/><rect x="1000" y="21.214749333334225" width="8" height="31.081398666666814" fill="#ef5350"/><line x1="1016" y1="34.440876666667464" x2="1016" y2="89.9906093333318" stroke="#ef5350" stroke-width="2"/><rect x="1012" y="48.328309333332186" width="8" height="4.629144666667685" fill="#ef5350"/><line x1="1028" y1="45.02177800000027" x2="1028" y2="83.37754600000085" stroke="#ef5350" stroke-width="2"/><rect x="1024" y="53.61876066666582" width="8" height="24.468334666668625" fill="#ef5350"/><line x1="1040" y1="52.95745399999987" x2="1040" y2="115.78155666666521" stroke="#26a69a" stroke-width="2"/><rect x="1036" y="52.95745399999987" width="8" height="27.774866666667776" fill="#26a69a"/><line x1="1052" y1="43.037858666665784" x2="1052" y2="107.18457466666678" stroke="#ef5350" stroke-width="2"/><rect x="1048" y="52.95745399999987" width="8" height="52.243201333332536" fill="#ef5350"/><line x1="1064" y1="89.9906093333318" x2="1064" y2="164.05691999999976" stroke="#ef5350" stroke-width="2"/><rect x="1060" y="104.53934933333358" width="8" height="37.03315533333193" fill="#ef5350"/><line x1="1076" y1="86.684078" x2="1076" y2="138.26597266666636" stroke="#26a69a" stroke-width="2"/><rect x="1072" y="86.684078" width="8" height="51.58189466666636" fill="#26a69a"/><line x1="1088" y1="85.36146533333522" x2="1088" y2="123.05592666666598" stroke="#ef5350" stroke-width="2"/><rect x="1084" y="86.02277133333405" width="8" height="13.887433333331956" fill="#ef5350"/><line x1="1100" y1="104.53934933333358" x2="1100" y2="177.2830473333329" stroke="#ef5350" stroke-width="2"/><rect x="1096" y="104.53934933333358" width="8" height="68.11455333333174" fill="#ef5350"/><line x1="1112" y1="155.45993800000133" x2="1112" y2="271.1885480000017" stroke="#ef5350" stroke-width="2"/><rect x="1108" y="174.70395266666787" width="8" height="95.16198266666515" fill="#ef5350"/><line x1="1124" y1="263.914178666668" x2="1124" y2="394.1915286666661" stroke="#ef5350" stroke-width="2"/><rect x="1120" y="266.5594040000012" width="8" height="114.40599799999887" fill="#ef5350"/><line x1="1136" y1="359.8035986666673" x2="1136" y2="425.93423333333175" stroke="#ef5350" stroke-width="2"/><rect x="1132" y="381.62670799999887" width="8" height="28.436172666666437" fill="#ef5350"/><line x1="1148" y1="339.3031020000005" x2="1148" y2="410.72418733333507" stroke="#26a69a" stroke-width="2"/><rect x="1144" y="371.70711266666484" width="8" height="37.0331553333358" fill="#26a69a"/><line x1="1160" y1="314.8347673333319" x2="1160" y2="399.4819793333325" stroke="#ef5350" stroke-width="2"/><rect x="1156" y="372.36841933333454" width="8" height="24.46833466666476" fill="#ef5350"/><line x1="1172" y1="363.77143666666524" x2="1172" y2="398.8206733333338" stroke="#26a69a" stroke-width="2"/><rect x="1168" y="389.5623839999985" width="8" height="9.258289333335313" fill="#26a69a"/><line x1="1184" y1="376.9975639999984" x2="1184" y2="444.4508106666679" stroke="#ef5350" stroke-width="2"/><rect x="1180" y="388.23977133333375" width="8" height="53.565814000000955" fill="#ef5350"/><line x1="1196" y1="415.35333199999894" x2="1196" y2="449.74126200000154" stroke="#26a69a" stroke-width="2"/><rect x="1192" y="436.5151346666683" width="8" height="5.290450666666402" fill="#26a69a"/><line x1="1208" y1="389.5623839999985" x2="1208" y2="457.6769380000011" stroke="#ef5350" stroke-width="2"/><rect x="1204" y="431.88599066666785" width="8" height="2" fill="#ef5350"/><line x1="1220" y1="427.2568460000002" x2="1220" y2="513.8879773333315" stroke="#ef5350" stroke-width="2"/><rect x="1216" y="430.5633779999994" width="8" height="78.6954546666683" fill="#ef5350"/><line x1="1232" y1="492.72617399999865" x2="1232" y2="539.017618666666" stroke="#ef5350" stroke-width="2"/><rect x="1228" y="507.93621999999914" width="8" height="15.87135266666644" fill="#ef5350"/><line x1="1244" y1="445.11211733333386" x2="1244" y2="532.4045553333349" stroke="#26a69a" stroke-width="2"/><rect x="1240" y="446.4347299999986" width="8" height="77.372842666667" fill="#26a69a"/><line x1="1256" y1="440.4829726666662" x2="1256" y2="532.4045553333349" stroke="#ef5350" stroke-width="2"/><rect x="1252" y="449.0799553333318" width="8" height="30.420092000000864" fill="#ef5350"/><line x1="1268" y1="466.93522666666547" x2="1268" y2="511.2427519999983" stroke="#ef5350" stroke-width="2"/><rect x="1264" y="476.85482199999944" width="8" height="25.790947333333293" fill="#ef5350"/><line x1="1280" y1="501.984463333334" x2="1280" y2="613.0839293333338" stroke="#ef5350" stroke-width="2"/><rect x="1276" y="502.64576933333274" width="8" height="103.82509666666613" fill="#ef5350"/><line x1="1292" y1="580.6799179999985" x2="1292" y2="629.616587999999" stroke="#ef5350" stroke-width="2"/><rect x="1288" y="603.1643339999997" width="8" height="13.887433333331956" fill="#ef5350"/><line x1="1304" y1="599.8578026666678" x2="1304" y2="648.7944720000011" stroke="#ef5350" stroke-width="2"/><rect x="1300" y="619.6969926666649" width="8" height="11.903514000001337" fill="#ef5350"/><line x1="1316" y1="622.3422179999981" x2="1316" y2="656.7301480000008" stroke="#ef5350" stroke-width="2"/><rect x="1312" y="631.6005066666662" width="8" height="20.500497333334124" fill="#ef5350"/><line x1="1328" y1="643.5040213333347" x2="1328" y2="712.2798813333322" stroke="#26a69a" stroke-width="2"/><rect x="1324" y="646.8105526666667" width="8" height="7.274370000000886" fill="#26a69a"/><line x1="1340" y1="617.0517673333317" x2="1340" y2="681.1984826666655" stroke="#26a69a" stroke-width="2"/><rect x="1336" y="640.8587960000015" width="8" height="5.951756666665233" fill="#26a69a"/><line x1="1352" y1="630.2778940000015" x2="1352" y2="701.0376733333335" stroke="#ef5350" stroke-width="2"/><rect x="1348" y="643.5040213333347" width="8" height="40.33968666666408" fill="#ef5350"/><line x1="1364" y1="674.5854193333344" x2="1364" y2="712.9411873333349" stroke="#ef5350" stroke-width="2"/><rect x="1360" y="681.1984826666655" width="8" height="25.7909480000003" fill="#ef5350"/><line x1="1376" y1="700.3763666666675" x2="1376" y2="747.3291173333337" stroke="#ef5350" stroke-width="2"/><rect x="1372" y="707.6507366666685" width="8" height="22.484415999997395" fill="#ef5350"/><line x1="1388" y1="651.1090440000014" x2="1388" y2="729.473846" stroke="#26a69a" stroke-width="2"/><rect x="1384" y="654.7462293333335" width="8" height="74.72761666666645" fill="#26a69a"/><line x1="1400" y1="628.955281333333" x2="1400" y2="662.0205986666672" stroke="#ef5350" stroke-width="2"/><rect x="1396" y="653.4236166666649" width="8" height="8.5969820000023" fill="#ef5350"/><line x1="1412" y1="658.0527606666653" x2="1412" y2="705.0055113333315" stroke="#ef5350" stroke-width="2"/><rect x="1408" y="661.3592926666684" width="8" height="39.017073999999184" fill="#ef5350"/><line x1="1424" y1="689.1341593333323" x2="1424" y2="723.5220893333349" stroke="#ef5350" stroke-width="2"/><rect x="1420" y="694.4246099999987" width="8" height="15.871352000003071" fill="#ef5350"/><line x1="1436" y1="652.7623099999989" x2="1436" y2="718.2316380000013" stroke="#26a69a" stroke-width="2"/><rect x="1432" y="653.4236166666649" width="8" height="60.178877333336004" fill="#26a69a"/><line x1="1448" y1="629.616587999999" x2="1448" y2="669.294968666668" stroke="#26a69a" stroke-width="2"/><rect x="1444" y="633.5844260000007" width="8" height="22.484415999997395" fill="#26a69a"/><line x1="1460" y1="610.4387040000006" x2="1460" y2="642.842714666665" stroke="#ef5350" stroke-width="2"/><rect x="1456" y="634.2457326666666" width="8" height="5.290450666666402" fill="#ef5350"/><line x1="1472" y1="617.0517673333317" x2="1472" y2="651.4396973333344" stroke="#ef5350" stroke-width="2"/><rect x="1468" y="640.8587960000015" width="8" height="5.290450666666402" fill="#ef5350"/><line x1="1484" y1="644.1653273333335" x2="1484" y2="747.3291173333337" stroke="#ef5350" stroke-width="2"/><rect x="1480" y="644.1653273333335" width="8" height="100.51856466666698" fill="#ef5350"/><line x1="1496" y1="722.8607826666652" x2="1496" y2="773.1200653333341" stroke="#ef5350" stroke-width="2"/><rect x="1492" y="742.0386666666673" width="8" height="13.226127333333238" fill="#ef5350"/><line x1="1508" y1="728.1512333333316" x2="1508" y2="760.5552446666669" stroke="#ef5350" stroke-width="2"/><rect x="1504" y="749.3130366666682" width="8" height="10.580901333332804" fill="#ef5350"/><line x1="1520" y1="728.8125400000013" x2="1520" y2="795.6044806666682" stroke="#ef5350" stroke-width="2"/><rect x="1516" y="755.9260999999992" width="8" height="32.40401133333535" fill="#ef5350"/><line x1="1532" y1="733.4416840000017" x2="1532" y2="792.2979493333324" stroke="#26a69a" stroke-width="2"/><rect x="1528" y="746.667811333335" width="8" height="33.72662333333278" fill="#26a69a"/><line x1="1544" y1="716.2477193333341" x2="1544" y2="781.0557413333337" stroke="#26a69a" stroke-width="2"/><rect x="1540" y="726.8286206666668" width="8" height="16.532658666665156" fill="#26a69a"/><line x1="1556" y1="708.3120433333345" x2="1556" y2="737.4095226666668" stroke="#26a69a" stroke-width="2"/><rect x="1552" y="723.5220893333349" width="8" height="5.951756666665119" fill="#26a69a"/><line x1="1568" y1="698.3924480000003" x2="1568" y2="753.280874666666" stroke="#ef5350" stroke-width="2"/><rect x="1564" y="721.5381700000005" width="8" height="17.855271333333576" fill="#ef5350"/><line x1="1580" y1="697.0698353333319" x2="1580" y2="746.3371579999981" stroke="#26a69a" stroke-width="2"/><rect x="1576" y="697.7311413333343" width="8" height="37.694461999998" fill="#26a69a"/><line x1="1592" y1="697.7311413333343" x2="1592" y2="744.0225860000018" stroke="#ef5350" stroke-width="2"/><rect x="1588" y="697.7311413333343" width="8" height="37.03315533333205" fill="#ef5350"/><line x1="1604" y1="722.1994766666663" x2="1604" y2="765.8456953333333" stroke="#ef5350" stroke-width="2"/><rect x="1600" y="736.7482160000009" width="8" height="27.77486666666391" fill="#ef5350"/><line x1="1616" y1="742.6999733333332" x2="1616" y2="772.4587586666681" stroke="#ef5350" stroke-width="2"/><rect x="1612" y="761.8778573333316" width="8" height="6.613063333334935" fill="#ef5350"/><line x1="1628" y1="765.8456953333333" x2="1628" y2="821.3954280000015" stroke="#ef5350" stroke-width="2"/><rect x="1624" y="770.4748393333338" width="8" height="43.6462193333341" fill="#ef5350"/><line x1="1640" y1="803.5401566666678" x2="1640" y2="829.9924106666671" stroke="#ef5350" stroke-width="2"/><rect x="1636" y="814.7823646666666" width="8" height="11.903514666668457" fill="#ef5350"/><line x1="1652" y1="810.8145266666648" x2="1652" y2="851.1542139999998" stroke="#ef5350" stroke-width="2"/><rect x="1648" y="826.685879333335" width="8" height="17.193964666663987" fill="#ef5350"/><line x1="1664" y1="827.3471853333339" x2="1664" y2="864.3803406666658" stroke="#ef5350" stroke-width="2"/><rect x="1660" y="841.8959253333318" width="8" height="12.564820000000054" fill="#ef5350"/><line x1="1676" y1="828.6697979999985" x2="1676" y2="864.3803406666658" stroke="#26a69a" stroke-width="2"/><rect x="1672" y="842.5572313333342" width="8" height="9.919595333334087" fill="#26a69a"/><line x1="1688" y1="818.7502026666683" x2="1688" y2="861.7351153333326" stroke="#26a69a" stroke-width="2"/><rect x="1684" y="820.072815333333" width="8" height="23.14572266666721" fill="#26a69a"/><line x1="1700" y1="794.2818679999997" x2="1700" y2="827.3471853333339" stroke="#26a69a" stroke-width="2"/><rect x="1696" y="802.8788506666652" width="8" height="14.548739333334538" fill="#26a69a"/><line x1="1712" y1="763.8617759999988" x2="1712" y2="803.5401566666678" stroke="#26a69a" stroke-width="2"/><rect x="1708" y="785.6848853333341" width="8" height="17.193965333331107" fill="#26a69a"/><line x1="1724" y1="785.6848853333341" x2="1724" y2="816.7662840000011" stroke="#ef5350" stroke-width="2"/><rect x="1720" y="786.3461920000001" width="8" height="23.14572200000009" fill="#ef5350"/><line x1="1736" y1="721.5381700000005" x2="1736" y2="814.7823646666666" stroke="#26a69a" stroke-width="2"/><rect x="1732" y="735.4256033333323" width="8" height="78.69545533333553" fill="#26a69a"/><line x1="1748" y1="724.8447019999995" x2="1748" y2="753.280874666666" stroke="#26a69a" stroke-width="2"/><rect x="1744" y="730.7964586666685" width="8" height="8.596982666665554" fill="#26a69a"/><line x1="1760" y1="720.8768640000017" x2="1760" y2="749.3130366666682" stroke="#26a69a" stroke-width="2"/><rect x="1756" y="726.8286206666668" width="8" height="2.645225333333201" fill="#26a69a"/><line x1="1772" y1="716.2477193333341" x2="1772" y2="767.1683080000017" stroke="#ef5350" stroke-width="2"/><rect x="1768" y="726.1673146666681" width="8" height="31.742704666665645" fill="#ef5350"/><line x1="1784" y1="722.8607826666652" x2="1784" y2="765.1843886666674" stroke="#26a69a" stroke-width="2"/><rect x="1780" y="739.3934413333341" width="8" height="15.87135266666644" fill="#26a69a"/><line x1="1796" y1="719.5542506666659" x2="1796" y2="740.7160539999987" stroke="#26a69a" stroke-width="2"/><rect x="1792" y="722.1994766666663" width="8" height="15.210046000000489" fill="#26a69a"/><line x1="1808" y1="681.1984826666655" x2="1808" y2="726.1673146666681" stroke="#26a69a" stroke-width="2"/><rect x="1804" y="681.8597893333351" width="8" height="37.694461333330764" fill="#26a69a"/><line x1="1820" y1="678.5532573333323" x2="1820" y2="706.9894306666658" stroke="#ef5350" stroke-width="2"/><rect x="1816" y="681.1984826666655" width="8" height="15.210046000000375" fill="#ef5350"/><line x1="1832" y1="690.4567720000007" x2="1832" y2="722.8607826666652" stroke="#ef5350" stroke-width="2"/><rect x="1828" y="695.7472226666671" width="8" height="22.484415333334255" fill="#ef5350"/><line x1="1844" y1="691.7793846666655" x2="1844" y2="730.1351526666659" stroke="#26a69a" stroke-width="2"/><rect x="1840" y="710.9572686666677" width="8" height="8.596981999998206" fill="#26a69a"/><line x1="1856" y1="708.3120433333345" x2="1856" y2="729.473846" stroke="#ef5350" stroke-width="2"/><rect x="1852" y="711.6185746666663" width="8" height="11.242207999998868" fill="#ef5350"/><line x1="1868" y1="718.8929446666673" x2="1868" y2="778.4105160000005" stroke="#ef5350" stroke-width="2"/><rect x="1864" y="723.5220893333349" width="8" height="47.61405666666485" fill="#ef5350"/><line x1="1880" y1="740.054748" x2="1880" y2="773.7813713333329" stroke="#26a69a" stroke-width="2"/><rect x="1876" y="757.9100193333337" width="8" height="15.871351999999206" fill="#26a69a"/><line x1="1892" y1="687.1502400000015" x2="1892" y2="755.2647940000005" stroke="#26a69a" stroke-width="2"/><rect x="1888" y="690.4567720000007" width="8" height="64.80802199999982" fill="#26a69a"/><line x1="1904" y1="691.7793846666655" x2="1904" y2="760.5552446666669" stroke="#ef5350" stroke-width="2"/><rect x="1900" y="691.7793846666655" width="8" height="62.16279666666651" fill="#ef5350"/><line x1="1916" y1="708.9733493333331" x2="1916" y2="757.2487126666678" stroke="#26a69a" stroke-width="2"/><rect x="1912" y="723.5220893333349" width="8" height="30.420091999997112" fill="#26a69a"/><line x1="1928" y1="706.3281239999999" x2="1928" y2="773.7813713333329" stroke="#ef5350" stroke-width="2"/><rect x="1924" y="724.8447019999995" width="8" height="33.06531733333418" fill="#ef5350"/><line x1="1940" y1="731.4577653333345" x2="1940" y2="790.9753366666678" stroke="#ef5350" stroke-width="2"/><rect x="1936" y="759.2326319999984" width="8" height="29.758785333334913" fill="#ef5350"/><rect x="75" y="992.0663642577518" width="10" height="27.933635742248157" fill="#ef5350" opacity="0.9"/><rect x="87" y="999.329708568943" width="10" height="20.670291431056967" fill="#ef5350" opacity="0.9"/><rect x="99" y="997.787671658485" width="10" height="22.21232834151499" fill="#26a69a" opacity="0.9"/><rect x="111" y="999.9689305909402" width="10" height="20.031069409059796" fill="#26a69a" opacity="0.9"/><rect x="123" y="1001.1847387062699" width="10" height="18.815261293730146" fill="#ef5350" opacity="0.9"/><rect x="135" y="1000.3333747592121" width="10" height="19.66662524078788" fill="#ef5350" opacity="0.9"/><rect x="147" y="1002.5071770334928" width="10" height="17.49282296650722" fill="#26a69a" opacity="0.9"/><rect x="159" y="1000.3848257006151" width="10" height="19.615174299384876" fill="#26a69a" opacity="0.9"/><rect x="171" y="1002.5718635431554" width="10" height="17.42813645684464" fill="#26a69a" opacity="0.9"/><rect x="183" y="999.7142857142857" width="10" height="20.285714285714334" fill="#ef5350" opacity="0.9"/><rect x="195" y="1001.6612191636115" width="10" height="18.338780836388537" fill="#ef5350" opacity="0.9"/><rect x="207" y="1002.1884048965388" width="10" height="17.811595103461173" fill="#26a69a" opacity="0.9"/><rect x="219" y="1003.7763002547691" width="10" height="16.223699745230874" fill="#ef5350" opacity="0.9"/><rect x="231" y="1003.0151618716212" width="10" height="16.984838128378783" fill="#26a69a" opacity="0.9"/><rect x="243" y="1002.0484061393153" width="10" height="17.95159386068474" fill="#ef5350" opacity="0.9"/><rect x="255" y="1003.9757658609333" width="10" height="16.02423413906672" fill="#26a69a" opacity="0.9"/><rect x="267" y="1004.9535201640465" width="10" height="15.046479835953505" fill="#ef5350" opacity="0.9"/><rect x="279" y="998.0411980364133" width="10" height="21.958801963586666" fill="#ef5350" opacity="0.9"/><rect x="291" y="995.4826322003355" width="10" height="24.5173677996645" fill="#ef5350" opacity="0.9"/><rect x="303" y="1001.7928291803889" width="10" height="18.207170819611065" fill="#26a69a" opacity="0.9"/><rect x="315" y="1005.3541291244641" width="10" height="14.645870875535934" fill="#ef5350" opacity="0.9"/><rect x="327" y="1008.360840116821" width="10" height="11.63915988317899" fill="#26a69a" opacity="0.9"/><rect x="339" y="1007.4457217423725" width="10" height="12.554278257627516" fill="#26a69a" opacity="0.9"/><rect x="351" y="1002.3243024917666" width="10" height="17.675697508233384" fill="#26a69a" opacity="0.9"/><rect x="363" y="1003.6497234822593" width="10" height="16.350276517740667" fill="#26a69a" opacity="0.9"/><rect x="375" y="1004.4179456906729" width="10" height="15.582054309327077" fill="#ef5350" opacity="0.9"/><rect x="387" y="1006.3100727024172" width="10" height="13.689927297582813" fill="#26a69a" opacity="0.9"/><rect x="399" y="1006.2774498229044" width="10" height="13.722550177095627" fill="#ef5350" opacity="0.9"/><rect x="411" y="1005.672901261418" width="10" height="14.32709873858198" fill="#26a69a" opacity="0.9"/><rect x="423" y="1004.952774498229" width="10" height="15.047225501770981" fill="#26a69a" opacity="0.9"/><rect x="435" y="1005.5852855278692" width="10" height="14.414714472130754" fill="#26a69a" opacity="0.9"/><rect x="447" y="1005.3820915926179" width="10" height="14.61790840738206" fill="#ef5350" opacity="0.9"/><rect x="459" y="1007.374883489716" width="10" height="12.625116510283988" fill="#ef5350" opacity="0.9"/><rect x="471" y="1001.1927546138072" width="10" height="18.80724538619279" fill="#26a69a" opacity="0.9"/><rect x="483" y="993.1337848754117" width="10" height="26.86621512458828" fill="#26a69a" opacity="0.9"/><rect x="495" y="999.7646181569627" width="10" height="20.235381843037317" fill="#26a69a" opacity="0.9"/><rect x="507" y="999.2864599515317" width="10" height="20.713540048468303" fill="#26a69a" opacity="0.9"/><rect x="519" y="999.7618219101473" width="10" height="20.23817808985268" fill="#26a69a" opacity="0.9"/><rect x="531" y="1003.3481016591064" width="10" height="16.65189834089358" fill="#26a69a" opacity="0.9"/><rect x="543" y="1002.7541788355186" width="10" height="17.245821164481413" fill="#ef5350" opacity="0.9"/><rect x="555" y="1003.343254831293" width="10" height="16.656745168706948" fill="#26a69a" opacity="0.9"/><rect x="567" y="1000.1016591064438" width="10" height="19.898340893556224" fill="#26a69a" opacity="0.9"/><rect x="579" y="999.1980985521656" width="10" height="20.80190144783444" fill="#26a69a" opacity="0.9"/><rect x="591" y="997.2274902131361" width="10" height="22.772509786863907" fill="#ef5350" opacity="0.9"/><rect x="603" y="1004.8239607282669" width="10" height="15.176039271733089" fill="#26a69a" opacity="0.9"/><rect x="615" y="1003.8957932020134" width="10" height="16.10420679798665" fill="#ef5350" opacity="0.9"/><rect x="627" y="1005.080469769465" width="10" height="14.919530230534974" fill="#ef5350" opacity="0.9"/><rect x="639" y="1005.9996893059094" width="10" height="14.000310694090558" fill="#26a69a" opacity="0.9"/><rect x="651" y="1006.5865283042317" width="10" height="13.413471695768294" fill="#26a69a" opacity="0.9"/><rect x="663" y="1007.1729944696452" width="10" height="12.827005530354768" fill="#26a69a" opacity="0.9"/><rect x="675" y="1001.8856645746598" width="10" height="18.114335425340187" fill="#26a69a" opacity="0.9"/><rect x="687" y="1002.4270179581184" width="10" height="17.572982041881573" fill="#ef5350" opacity="0.9"/><rect x="699" y="1005.8179332629094" width="10" height="14.182066737090622" fill="#26a69a" opacity="0.9"/><rect x="711" y="1008.2277387684086" width="10" height="11.772261231591415" fill="#26a69a" opacity="0.9"/><rect x="723" y="1008.1671534207419" width="10" height="11.832846579258103" fill="#26a69a" opacity="0.9"/><rect x="735" y="1004.2136332566954" width="10" height="15.786366743304598" fill="#ef5350" opacity="0.9"/><rect x="747" y="1006.545703100727" width="10" height="13.454296899273004" fill="#26a69a" opacity="0.9"/><rect x="759" y="1005.4188156341266" width="10" height="14.581184365873355" fill="#ef5350" opacity="0.9"/><rect x="771" y="1005.6382278009072" width="10" height="14.361772199092798" fill="#ef5350" opacity="0.9"/><rect x="783" y="1007.8379419623438" width="10" height="12.162058037656152" fill="#26a69a" opacity="0.9"/><rect x="795" y="1008.5871496924128" width="10" height="11.412850307587178" fill="#26a69a" opacity="0.9"/><rect x="807" y="1008.9208351457155" width="10" height="11.0791648542845" fill="#ef5350" opacity="0.9"/><rect x="819" y="1007.587771080594" width="10" height="12.412228919405948" fill="#26a69a" opacity="0.9"/><rect x="831" y="1001.4721928788914" width="10" height="18.527807121108594" fill="#26a69a" opacity="0.9"/><rect x="843" y="1002.7778537252221" width="10" height="17.222146274777856" fill="#ef5350" opacity="0.9"/><rect x="855" y="1005.0003106940906" width="10" height="14.999689305909442" fill="#ef5350" opacity="0.9"/><rect x="867" y="1000.9634623749456" width="10" height="19.036537625054393" fill="#ef5350" opacity="0.9"/><rect x="879" y="1002.9340707139751" width="10" height="17.065929286024925" fill="#26a69a" opacity="0.9"/><rect x="891" y="1003.443919716647" width="10" height="16.556080283353026" fill="#ef5350" opacity="0.9"/><rect x="903" y="996.9980115578202" width="10" height="23.001988442179822" fill="#26a69a" opacity="0.9"/><rect x="915" y="1004.5791959236935" width="10" height="15.420804076306467" fill="#ef5350" opacity="0.9"/><rect x="927" y="1005.2577518175605" width="10" height="14.742248182439539" fill="#26a69a" opacity="0.9"/><rect x="939" y="1003.2071708196111" width="10" height="16.792829180388935" fill="#26a69a" opacity="0.9"/><rect x="951" y="999.7480270925247" width="10" height="20.251972907475306" fill="#26a69a" opacity="0.9"/><rect x="963" y="1000.9315851612503" width="10" height="19.06841483874973" fill="#ef5350" opacity="0.9"/><rect x="975" y="999.3712794382651" width="10" height="20.628720561734895" fill="#26a69a" opacity="0.9"/><rect x="987" y="977.0920897284534" width="10" height="42.9079102715466" fill="#26a69a" opacity="0.9"/><rect x="999" y="954.2756477971789" width="10" height="65.72435220282114" fill="#ef5350" opacity="0.9"/><rect x="1011" y="975.4641148325359" width="10" height="44.53588516746413" fill="#ef5350" opacity="0.9"/><rect x="1023" y="995.3698502454483" width="10" height="24.630149754551667" fill="#ef5350" opacity="0.9"/><rect x="1035" y="984.8779593612129" width="10" height="35.1220406387871" fill="#26a69a" opacity="0.9"/><rect x="1047" y="992.8409246256136" width="10" height="27.15907537438636" fill="#ef5350" opacity="0.9"/><rect x="1059" y="991.107997265892" width="10" height="28.89200273410802" fill="#ef5350" opacity="0.9"/><rect x="1071" y="998.9658236500342" width="10" height="21.034176349965833" fill="#26a69a" opacity="0.9"/><rect x="1083" y="999.7321816939042" width="10" height="20.26781830609582" fill="#ef5350" opacity="0.9"/><rect x="1095" y="1001.7460386503449" width="10" height="18.25396134965513" fill="#ef5350" opacity="0.9"/><rect x="1107" y="990.6811035854098" width="10" height="29.3188964145902" fill="#ef5350" opacity="0.9"/><rect x="1119" y="981.711862300379" width="10" height="38.28813769962096" fill="#ef5350" opacity="0.9"/><rect x="1131" y="985.9972037531846" width="10" height="34.002796246815365" fill="#ef5350" opacity="0.9"/><rect x="1143" y="992.0369104579631" width="10" height="27.96308954203687" fill="#26a69a" opacity="0.9"/><rect x="1155" y="994.2250667992295" width="10" height="25.774933200770533" fill="#ef5350" opacity="0.9"/><rect x="1167" y="998.0559249363077" width="10" height="21.944075063692253" fill="#26a69a" opacity="0.9"/><rect x="1179" y="995.6030572298515" width="10" height="24.396942770148485" fill="#ef5350" opacity="0.9"/><rect x="1191" y="996.3621450320015" width="10" height="23.637854967998464" fill="#26a69a" opacity="0.9"/><rect x="1203" y="998.3849499782514" width="10" height="21.61505002174863" fill="#ef5350" opacity="0.9"/><rect x="1215" y="989.6623376623377" width="10" height="30.337662337662323" fill="#ef5350" opacity="0.9"/><rect x="1227" y="988.1521779655751" width="10" height="31.847822034424894" fill="#ef5350" opacity="0.9"/><rect x="1239" y="986.505188591313" width="10" height="33.49481140868704" fill="#26a69a" opacity="0.9"/><rect x="1251" y="994.0969986950848" width="10" height="25.903001304915165" fill="#ef5350" opacity="0.9"/><rect x="1263" y="1002.2323991797676" width="10" height="17.76760082023236" fill="#ef5350" opacity="0.9"/><rect x="1275" y="988.1616852047474" width="10" height="31.838314795252586" fill="#ef5350" opacity="0.9"/><rect x="1287" y="991.521282545206" width="10" height="28.478717454794037" fill="#ef5350" opacity="0.9"/><rect x="1299" y="989.331262039396" width="10" height="30.66873796060395" fill="#ef5350" opacity="0.9"/><rect x="1311" y="976.7712670105014" width="10" height="43.22873298949855" fill="#ef5350" opacity="0.9"/><rect x="1323" y="972.5286149257441" width="10" height="47.47138507425586" fill="#26a69a" opacity="0.9"/><rect x="1335" y="995.9175417883552" width="10" height="24.08245821164485" fill="#26a69a" opacity="0.9"/><rect x="1347" y="995.2648977816442" width="10" height="24.73510221835579" fill="#ef5350" opacity="0.9"/><rect x="1359" y="999.1688311688312" width="10" height="20.83116883116884" fill="#ef5350" opacity="0.9"/><rect x="1371" y="998.9695519791213" width="10" height="21.03044802087868" fill="#ef5350" opacity="0.9"/><rect x="1383" y="997.5945442117691" width="10" height="22.405455788230938" fill="#26a69a" opacity="0.9"/><rect x="1395" y="1000.7470328714348" width="10" height="19.25296712856516" fill="#ef5350" opacity="0.9"/><rect x="1407" y="999.8544708879637" width="10" height="20.145529112036343" fill="#ef5350" opacity="0.9"/><rect x="1419" y="1000.4401913875598" width="10" height="19.55980861244018" fill="#ef5350" opacity="0.9"/><rect x="1431" y="1002.711862300379" width="10" height="17.28813769962096" fill="#26a69a" opacity="0.9"/><rect x="1443" y="995.358292425278" width="10" height="24.641707574721977" fill="#26a69a" opacity="0.9"/><rect x="1455" y="988.688498104766" width="10" height="31.31150189523396" fill="#ef5350" opacity="0.9"/><rect x="1467" y="1004.727397004909" width="10" height="15.272602995091006" fill="#ef5350" opacity="0.9"/><rect x="1479" y="997.1587025414776" width="10" height="22.841297458522376" fill="#ef5350" opacity="0.9"/><rect x="1491" y="995.312061144597" width="10" height="24.68793885540299" fill="#ef5350" opacity="0.9"/><rect x="1503" y="1004.9419623438762" width="10" height="15.058037656123815" fill="#ef5350" opacity="0.9"/><rect x="1515" y="992.6712856521469" width="10" height="27.328714347853065" fill="#ef5350" opacity="0.9"/><rect x="1527" y="1001.3896103896104" width="10" height="18.610389610389575" fill="#26a69a" opacity="0.9"/><rect x="1539" y="998.7296340023613" width="10" height="21.27036599763869" fill="#26a69a" opacity="0.9"/><rect x="1551" y="1004.0059653265395" width="10" height="15.994034673460533" fill="#26a69a" opacity="0.9"/><rect x="1563" y="1000.9707326166656" width="10" height="19.0292673833344" fill="#ef5350" opacity="0.9"/><rect x="1575" y="1005.8382526564345" width="10" height="14.16174734356548" fill="#26a69a" opacity="0.9"/><rect x="1587" y="1000.6543838936184" width="10" height="19.345616106381613" fill="#ef5350" opacity="0.9"/><rect x="1599" y="1004.8228422295408" width="10" height="15.17715777045919" fill="#ef5350" opacity="0.9"/><rect x="1611" y="1003.5837320574162" width="10" height="16.416267942583772" fill="#ef5350" opacity="0.9"/><rect x="1623" y="979.4951842415958" width="10" height="40.50481575840422" fill="#ef5350" opacity="0.9"/><rect x="1635" y="997.3809109550737" width="10" height="22.61908904492634" fill="#ef5350" opacity="0.9"/><rect x="1647" y="998.0177095631641" width="10" height="21.98229043683591" fill="#ef5350" opacity="0.9"/><rect x="1659" y="997.4549182874541" width="10" height="22.54508171254588" fill="#ef5350" opacity="0.9"/><rect x="1671" y="1004.3627664201827" width="10" height="15.637233579817348" fill="#26a69a" opacity="0.9"/><rect x="1683" y="1004.4807680357919" width="10" height="15.519231964208075" fill="#26a69a" opacity="0.9"/><rect x="1695" y="1002.4492015161871" width="10" height="17.550798483812855" fill="#26a69a" opacity="0.9"/><rect x="1707" y="1003.381097371528" width="10" height="16.61890262847203" fill="#26a69a" opacity="0.9"/><rect x="1719" y="1005.3902939166097" width="10" height="14.609706083390279" fill="#ef5350" opacity="0.9"/><rect x="1731" y="1000.0041633008141" width="10" height="19.99583669918593" fill="#26a69a" opacity="0.9"/><rect x="1743" y="1002.0198844217983" width="10" height="17.980115578201662" fill="#26a69a" opacity="0.9"/><rect x="1755" y="1000.2862113962592" width="10" height="19.713788603740795" fill="#26a69a" opacity="0.9"/><rect x="1767" y="1002.9159883179022" width="10" height="17.084011682097753" fill="#ef5350" opacity="0.9"/><rect x="1779" y="1002.5261915118374" width="10" height="17.473808488162604" fill="#26a69a" opacity="0.9"/><rect x="1791" y="998.7413782389859" width="10" height="21.25862176101407" fill="#26a69a" opacity="0.9"/><rect x="1803" y="998.2827937612626" width="10" height="21.71720623873739" fill="#26a69a" opacity="0.9"/><rect x="1815" y="997.4304977319331" width="10" height="22.569502268066913" fill="#ef5350" opacity="0.9"/><rect x="1827" y="998.9637730690363" width="10" height="21.03622693096372" fill="#ef5350" opacity="0.9"/><rect x="1839" y="999.5673895482508" width="10" height="20.432610451749156" fill="#26a69a" opacity="0.9"/><rect x="1851" y="1002.215994531784" width="10" height="17.784005468216037" fill="#ef5350" opacity="0.9"/><rect x="1863" y="992.7971167588393" width="10" height="27.202883241160748" fill="#ef5350" opacity="0.9"/><rect x="1875" y="999.0312558255142" width="10" height="20.968744174485778" fill="#26a69a" opacity="0.9"/><rect x="1887" y="997.86913564904" width="10" height="22.130864350959996" fill="#26a69a" opacity="0.9"/><rect x="1899" y="998.4311812589325" width="10" height="21.568818741067503" fill="#ef5350" opacity="0.9"/><rect x="1911" y="993.7428074318027" width="10" height="26.257192568197297" fill="#26a69a" opacity="0.9"/><rect x="1923" y="968.5234574038402" width="10" height="51.47654259615979" fill="#ef5350" opacity="0.9"/><rect x="1935" y="860.0" width="10" height="160.0" fill="#ef5350" opacity="0.9"/><rect x="1004" y="48.328309333332186" width="12" height="3.967838666668854" fill="#00ff00" opacity="0.50"/><polyline points="320,277.60873072381105,332,280.77617821043464,344,282.50829596817084,356,282.0600403521553,368,280.39484457258754,380,280.02190693075204,392,278.1729297627446,404,277.75967683295835,416,275.8742239282317,428,273.9164117445928,440,271.83015005463176,452,270.1315246526026,464,268.6576546221961,476,265.37172491214665,488,258.74581060305286,500,251.3023599424439,512,244.12693848760978,524,236.5642040284722,536,227.58035704163535,548,220.7747272281456,560,214.1763817143517,572,206.0650771701262,584,197.2777020110659,596,190.02001686715175,608,182.79223348298115,620,177.4179692147602,632,173.5632445276376,644,168.43811603293943,656,163.04531628377003,668,157.59928254246165,680,151.53825061778048,692,146.18042293989606,704,140.64006748530278,716,135.50140182003747,728,130.60020659908105,740,126.92157060551676,752,122.5225944208621,764,120.24307038077882,776,118.6844963127669,788,116.70752383853369,800,114.1630557904175,812,112.04986273101372,824,109.82301834393411,836,105.60389989847931,848,102.03852847957546,860,99.63147649739312,872,100.03591137065837,884,99.64604997027959,896,99.67120756041368,908,99.50502449116811,920,100.36237333328017,932,99.62651250788599,944,98.33091811030954,956,95.64715632202478,968,93.97476956119522,980,89.06065366647908,992,82.9140467776067,1004,79.99805641783269,1016,77.42276094946874,1028,77.48603089078938,1040,75.14997594881083,1052,78.01194541400491,1064,84.06533200949684,1076,84.31473638954685,1088,85.80001908260715,1100,94.07181751918574,1112,110.8141144538688,1124,136.54280850588134,1136,162.59233918786254,1148,182.50803190012834,1160,202.920291147738,1172,220.69572856224045,1184,241.75381015948756,1196,260.30250773159946,1208,276.83273645557165,1220,298.96855514234244,1232,320.38179490656375,1244,332.3868363440322,1256,346.39761834301527,1268,361.2783946278076,1280,384.6300585680183,1292,406.7654594028075,1304,428.17832104698635,1316,449.50429085203797,1328,468.29536340580944,1340,484.72997603382737,1352,503.693188602036,1364,523.054735465333,1376,542.7766799606994,1388,553.4404465676175,1400,563.7814134341928,1412,576.7904565991936,1424,589.5052666373658,1436,595.5927285449206,1448,599.2109854454043,1460,603.0514804823497,1472,607.1560296427606,1484,620.25392129583,1496,633.1120996486069,1508,645.1865604439794,1520,658.8192795763007,1532,667.1858064103048,1544,672.8660744347205,1556,677.6904568060179,1568,683.5669315229059,1580,684.9159038858072,1592,689.6633698649377,1604,696.7928663222438,1616,703.6212524502844,1628,714.1450435185145,1640,724.8632183580185,1652,736.1981350858249,1664,747.4612408236832,1676,756.5180018245997,1688,762.5708412063849,1700,766.4096992502209,1712,768.2454312581361,1724,772.1736677097434,1736,768.6738520548488,1748,765.0664812559739,1760,761.4247802474665,1772,761.0900411127849,1784,759.0236982766479,1796,755.5166295518878,1808,748.5016923882162,1820,743.5404387004459,1832,741.1300767289731,1844,738.2564759611341,1856,736.7902194568993,1868,740.0612600800514,1880,741.7611419136961,1892,736.8750114457233,1904,738.5004561969216,1916,737.0739450670575,1928,739.058333092415,1940,743.8138649248837" fill="none" stroke="#0090ff" stroke-width="2"/><line x1="80" y1="50" x2="80" y2="850" stroke="#666666" stroke-width="0.5" stroke-dasharray="4,4"/><line x1="152" y1="50" x2="152" y2="850" stroke="#666666" stroke-width="0.5" stroke-dasharray="4,4"/><line x1="224" y1="50" x2="224" y2="850" stroke="#666666" stroke-width="0.5" stroke-dasharray="4,4"/><line x1="296" y1="50" x2="296" y2="850" stroke="#666666" stroke-width="0.5" stroke-dasharray="4,4"/><line x1="368" y1="50" x2="368" y2="850" stroke="#666666" stroke-width="0.5" stroke-dasharray="4,4"/><line x1="440" y1="50" x2="440" y2="850" stroke="#666666" stroke-width="0.5" stroke-dasharray="4,4"/><line x1="512" y1="50" x2="512" y2="850" stroke="#666666" stroke-width="0.5" stroke-dasharray="4,4"/><line x1="584" y1="50" x2="584" y2="850" stroke="#666666" stroke-width="0.5" stroke-dasharray="4,4"/><line x1="656" y1="50" x2="656" y2="850" stroke="#666666" stroke-width="0.5" stroke-dasharray="4,4"/><line x1="728" y1="50" x2="728" y2="850" stroke="#666666" stroke-width="0.5" stroke-dasharray="4,4"/><line x1="800" y1="50" x2="800" y2="850" stroke="#666666" stroke-width="0.5" stroke-dasharray="4,4"/><line x1="872" y1="50" x2="872" y2="850" stroke="#666666" stroke-width="0.5" stroke-dasharray="4,4"/><line x1="944" y1="50" x2="944" y2="850" stroke="#666666" stroke-width="0.5" stroke-dasharray="4,4"/><line x1="1016" y1="50" x2="1016" y2="850" stroke="#666666" stroke-width="0.5" stroke-dasharray="4,4"/><line x1="1088" y1="50" x2="1088" y2="850" stroke="#666666" stroke-width="0.5" stroke-dasharray="4,4"/><line x1="1160" y1="50" x2="1160" y2="850" stroke="#666666" stroke-width="0.5" stroke-dasharray="4,4"/><line x1="1232" y1="50" x2="1232" y2="850" stroke="#666666" stroke-width="0.5" stroke-dasharray="4,4"/><line x1="1304" y1="50" x2="1304" y2="850" stroke="#666666" stroke-width="0.5" stroke-dasharray="4,4"/><line x1="1376" y1="50" x2="1376" y2="850" stroke="#666666" stroke-width="0.5" stroke-dasharray="4,4"/><line x1="1448" y1="50" x2="1448" y2="850" stroke="#666666" stroke-width="0.5" stroke-dasharray="4,4"/><line x1="1520" y1="50" x2="1520" y2="850" stroke="#666666" stroke-width="0.5" stroke-dasharray="4,4"/><line x1="1592" y1="50" x2="1592" y2="850" stroke="#666666" stroke-width="0.5" stroke-dasharray="4,4"/><line x1="1664" y1="50" x2="1664" y2="850" stroke="#666666" stroke-width="0.5" stroke-dasharray="4,4"/><line x1="1736" y1="50" x2="1736" y2="850" stroke="#666666" stroke-width="0.5" stroke-dasharray="4,4"/><line x1="1808" y1="50" x2="1808" y2="850" stroke="#666666" stroke-width="0.5" stroke-dasharray="4,4"/><line x1="1880" y1="50" x2="1880" y2="850" stroke="#666666" stroke-width="0.5" stroke-dasharray="4,4"/><text x="80" y="1040" text-anchor="middle" font-size="20" fill="black">09:30</text><text x="152" y="1040" text-anchor="middle" font-size="20" fill="black">10:00</text><text x="224" y="1040" text-anchor="middle" font-size="20" fill="black">10:30</text><text x="296" y="1040" text-anchor="middle" font-size="20" fill="black">11:00</text><text x="368" y="1040" text-anchor="middle" font-size="20" fill="black">11:30</text><text x="440" y="1040" text-anchor="middle" font-size="20" fill="black">12:00</text><text x="512" y="1040" text-anchor="middle" font-size="20" fill="black">12:30</text><text x="584" y="1040" text-anchor="middle" font-size="20" fill="black">13:00</text><text x="656" y="1040" text-anchor="middle" font-size="20" fill="black">13:30</text><text x="728" y="1040" text-anchor="middle" font-size="20" fill="black">14:00</text><text x="800" y="1040" text-anchor="middle" font-size="20" fill="black">14:30</text><text x="872" y="1040" text-anchor="middle" font-size="20" fill="black">15:00</text><text x="944" y="1040" text-anchor="middle" font-size="20" fill="black">15:30</text><text x="1016" y="1040" text-anchor="middle" font-size="20" fill="black">09:30</text><text x="1088" y="1040" text-anchor="middle" font-size="20" fill="black">10:00</text><text x="1160" y="1040" text-anchor="middle" font-size="20" fill="black">10:30</text><text x="1232" y="1040" text-anchor="middle" font-size="20" fill="black">11:00</text><text x="1304" y="1040" text-anchor="middle" font-size="20" fill="black">11:30</text><text x="1376" y="1040" text-anchor="middle" font-size="20" fill="black">12:00</text><text x="1448" y="1040" text-anchor="middle" font-size="20" fill="black">12:30</text><text x="1520" y="1040" text-anchor="middle" font-size="20" fill="black">13:00</text><text x="1592" y="1040" text-anchor="middle" font-size="20" fill="black">13:30</text><text x="1664" y="1040" text-anchor="middle" font-size="20" fill="black">14:00</text><text x="1736" y="1040" text-anchor="middle" font-size="20" fill="black">14:30</text><text x="1808" y="1040" text-anchor="middle" font-size="20" fill="black">15:00</text><text x="1880" y="1040" text-anchor="middle" font-size="20" fill="black">15:30</text><text x="1942" y="50" text-anchor="end" font-size="40" fill="#ef5350" font-weight="bold"> -2.23% (Thu)</text></svg>