<svg xmlns="http://www.w3.org/2000/svg" width="1992" height="1050"><rect width="100%" height="100%" fill="white"/><text x="42" y="854.0" text-anchor="end" font-size="20" fill="black">458</text><text x="42" y="654.0" text-anchor="end" font-size="20" fill="black">459</text><text x="42" y="454.0" text-anchor="end" font-size="20" fill="black">460</text><text x="42" y="254.0" text-anchor="end" font-size="20" fill="black">461</text><text x="42" y="54.0" text-anchor="end" font-size="20" fill="black">462</text><line x1="80" y1="740.218402000005" x2="80" y2="968.007276000003" stroke="#ef5350" stroke-width="2"/><rect x="76" y="740.218402000005" width="8" height="227.78887399999803" fill="#ef5350"/><line x1="92" y1="823.4108620000029" x2="92" y2="962.0649579999963" stroke="#26a69a" stroke-width="2"/><rect x="88" y="932.3533659999953" width="8" height="9.90386400000034" fill="#26a69a"/><line x1="104" y1="789.7377239999969" x2="104" y2="966.0265040000013" stroke="#26a69a" stroke-width="2"/><rect x="100" y="825.3916340000046" width="8" height="104.98096000000032" fill="#26a69a"/><line x1="116" y1="746.1607220000019" x2="116" y2="843.2185900000036" stroke="#26a69a" stroke-width="2"/><rect x="112" y="754.0838119999989" width="8" height="63.38472999999567" fill="#26a69a"/><line x1="128" y1="625.3335780000043" x2="128" y2="765.9684500000026" stroke="#26a69a" stroke-width="2"/><rect x="124" y="670.8913540000026" width="8" height="81.21168599999464" fill="#26a69a"/><line x1="140" y1="668.9105820000009" x2="140" y2="845.1993620000053" stroke="#ef5350" stroke-width="2"/><rect x="136" y="670.8913540000026" width="8" height="104.98096000000032" fill="#ef5350"/><line x1="152" y1="714.4683559999976" x2="152" y2="815.4877700000043" stroke="#26a69a" stroke-width="2"/><rect x="148" y="762.0069039999976" width="8" height="15.846182000007047" fill="#26a69a"/><line x1="164" y1="730.3145380000046" x2="164" y2="789.7377239999969" stroke="#ef5350" stroke-width="2"/><rect x="160" y="736.256856" width="8" height="17.826955999998972" fill="#ef5350"/><line x1="176" y1="736.256856" x2="176" y2="839.2570439999986" stroke="#ef5350" stroke-width="2"/><rect x="172" y="756.0645860000022" width="8" height="3.961544000003414" fill="#ef5350"/><line x1="188" y1="680.7952180000029" x2="188" y2="823.4108620000029" stroke="#26a69a" stroke-width="2"/><rect x="184" y="692.679854000005" width="8" height="59.423185999992256" fill="#26a69a"/><line x1="200" y1="694.6606279999969" x2="200" y2="793.6992680000003" stroke="#ef5350" stroke-width="2"/><rect x="196" y="694.6606279999969" width="8" height="61.40395800000533" fill="#ef5350"/><line x1="212" y1="716.4491279999993" x2="212" y2="799.6415879999972" stroke="#ef5350" stroke-width="2"/><rect x="208" y="750.1222660000053" width="8" height="2" fill="#ef5350"/><line x1="224" y1="710.506810000004" x2="224" y2="779.833857999995" stroke="#26a69a" stroke-width="2"/><rect x="220" y="710.506810000004" width="8" height="47.53854799999999" fill="#26a69a"/><line x1="236" y1="579.7758039999962" x2="236" y2="722.3914479999962" stroke="#26a69a" stroke-width="2"/><rect x="232" y="583.7373500000012" width="8" height="126.76946000000271" fill="#26a69a"/><line x1="248" y1="482.71793599999455" x2="248" y2="585.718122000003" stroke="#26a69a" stroke-width="2"/><rect x="244" y="486.67948199999955" width="8" height="95.0770939999984" fill="#26a69a"/><line x1="260" y1="373.7754300000006" x2="260" y2="504.50643599999694" stroke="#26a69a" stroke-width="2"/><rect x="256" y="419.3332059999989" width="8" height="61.40395800000533" fill="#26a69a"/><line x1="272" y1="419.3332059999989" x2="272" y2="506.48721000000023" stroke="#ef5350" stroke-width="2"/><rect x="268" y="423.2947520000039" width="8" height="43.57700199999499" fill="#ef5350"/><line x1="284" y1="468.8525260000006" x2="284" y2="629.2951239999979" stroke="#ef5350" stroke-width="2"/><rect x="280" y="468.8525260000006" width="8" height="106.96173200000203" fill="#ef5350"/><line x1="296" y1="567.8911680000056" x2="296" y2="708.5260380000022" stroke="#ef5350" stroke-width="2"/><rect x="292" y="569.8719399999959" width="8" height="118.84637000000566" fill="#ef5350"/><line x1="308" y1="666.9298079999976" x2="308" y2="831.333952" stroke="#ef5350" stroke-width="2"/><rect x="304" y="680.7952180000029" width="8" height="99.03863999999203" fill="#ef5350"/><line x1="320" y1="744.1799479999986" x2="320" y2="859.0647719999993" stroke="#26a69a" stroke-width="2"/><rect x="316" y="744.1799479999986" width="8" height="35.65390999999636" fill="#26a69a"/><line x1="332" y1="730.3145380000046" x2="332" y2="817.4685419999946" stroke="#ef5350" stroke-width="2"/><rect x="328" y="746.1607220000019" width="8" height="39.61545600000136" fill="#ef5350"/><line x1="344" y1="641.1797620000016" x2="344" y2="809.5454519999976" stroke="#26a69a" stroke-width="2"/><rect x="340" y="641.1797620000016" width="8" height="144.59641600000168" fill="#26a69a"/><line x1="356" y1="611.4681700000006" x2="356" y2="672.8721260000043" stroke="#26a69a" stroke-width="2"/><rect x="352" y="617.4104879999959" width="8" height="19.80772800000068" fill="#26a69a"/><line x1="368" y1="514.4103019999989" x2="368" y2="617.4104879999959" stroke="#26a69a" stroke-width="2"/><rect x="364" y="556.0065300000019" width="8" height="57.44241200000033" fill="#26a69a"/><line x1="380" y1="556.0065300000019" x2="380" y2="651.0836260000019" stroke="#ef5350" stroke-width="2"/><rect x="376" y="556.0065300000019" width="8" height="57.44241200000033" fill="#ef5350"/><line x1="392" y1="565.9103940000023" x2="392" y2="659.006715999999" stroke="#ef5350" stroke-width="2"/><rect x="388" y="601.5643060000002" width="8" height="39.61545600000136" fill="#ef5350"/><line x1="404" y1="565.9103940000023" x2="404" y2="645.1413079999952" stroke="#26a69a" stroke-width="2"/><rect x="400" y="585.718122000003" width="8" height="55.461639999998624" fill="#26a69a"/><line x1="416" y1="552.0449839999969" x2="416" y2="599.5835319999969" stroke="#26a69a" stroke-width="2"/><rect x="412" y="557.9873040000052" width="8" height="19.80772799998931" fill="#26a69a"/><line x1="428" y1="516.3910740000006" x2="428" y2="581.756575999998" stroke="#26a69a" stroke-width="2"/><rect x="424" y="536.1988020000013" width="8" height="19.80772800000068" fill="#26a69a"/><line x1="440" y1="530.2564839999945" x2="440" y2="593.6412140000016" stroke="#ef5350" stroke-width="2"/><rect x="436" y="534.2180299999995" width="8" height="23.76927400000568" fill="#ef5350"/><line x1="452" y1="495.59295999999904" x2="452" y2="583.7373500000012" stroke="#26a69a" stroke-width="2"/><rect x="448" y="502.52566399999523" width="8" height="53.4808660000067" fill="#26a69a"/><line x1="464" y1="462.91020800000524" x2="464" y2="544.1218939999999" stroke="#ef5350" stroke-width="2"/><rect x="460" y="500.5448920000049" width="8" height="41.5962279999917" fill="#ef5350"/><line x1="476" y1="462.91020800000524" x2="476" y2="532.2372559999963" stroke="#26a69a" stroke-width="2"/><rect x="472" y="464.8909799999956" width="8" height="59.423186000003625" fill="#26a69a"/><line x1="488" y1="433.1986160000042" x2="488" y2="488.66025400000126" stroke="#26a69a" stroke-width="2"/><rect x="484" y="433.1986160000042" width="8" height="37.634681999998065" fill="#26a69a"/><line x1="500" y1="387.64083999999457" x2="500" y2="456.96788999999853" stroke="#26a69a" stroke-width="2"/><rect x="496" y="393.5831580000013" width="8" height="39.615458000002945" fill="#26a69a"/><line x1="512" y1="326.2368840000022" x2="512" y2="427.2562959999959" stroke="#ef5350" stroke-width="2"/><rect x="508" y="391.60238599999957" width="8" height="31.692366000004313" fill="#ef5350"/><line x1="524" y1="397.5447039999949" x2="524" y2="464.8909799999956" stroke="#ef5350" stroke-width="2"/><rect x="520" y="421.3139780000006" width="8" height="21.788502000003973" fill="#ef5350"/><line x1="536" y1="427.2562959999959" x2="536" y2="494.6025719999966" stroke="#26a69a" stroke-width="2"/><rect x="532" y="437.16015999999627" width="8" height="2" fill="#26a69a"/><line x1="548" y1="426.2659099999951" x2="548" y2="561.9488479999973" stroke="#ef5350" stroke-width="2"/><rect x="544" y="433.1986160000042" width="8" height="59.42318399999067" fill="#ef5350"/><line x1="560" y1="348.0253840000046" x2="560" y2="492.6217999999949" stroke="#26a69a" stroke-width="2"/><rect x="556" y="348.0253840000046" width="8" height="142.61564399999997" fill="#26a69a"/><line x1="572" y1="243.04442400000426" x2="572" y2="348.0253840000046" stroke="#26a69a" stroke-width="2"/><rect x="568" y="258.8906080000015" width="8" height="87.15400400000135" fill="#26a69a"/><line x1="584" y1="256.9098339999982" x2="584" y2="377.7369760000056" stroke="#ef5350" stroke-width="2"/><rect x="580" y="260.8713800000032" width="8" height="77.25014000000101" fill="#ef5350"/><line x1="596" y1="304.4483819999982" x2="596" y2="355.9484760000032" stroke="#ef5350" stroke-width="2"/><rect x="592" y="336.14074800000253" width="8" height="7.923089999997046" fill="#ef5350"/><line x1="608" y1="294.5445179999979" x2="608" y2="391.60238599999957" stroke="#26a69a" stroke-width="2"/><rect x="604" y="346.04461200000287" width="8" height="2" fill="#26a69a"/><line x1="620" y1="286.62142599999925" x2="620" y2="349.01577000000543" stroke="#26a69a" stroke-width="2"/><rect x="616" y="298.5060640000029" width="8" height="39.61545600000136" fill="#26a69a"/><line x1="632" y1="197.4866499999962" x2="632" y2="312.37147399999685" stroke="#26a69a" stroke-width="2"/><rect x="628" y="215.31360599999516" width="8" height="83.19245800000772" fill="#26a69a"/><line x1="644" y1="209.37128599999824" x2="644" y2="367.83311200000526" stroke="#ef5350" stroke-width="2"/><rect x="640" y="215.31360599999516" width="8" height="116.86559600000237" fill="#ef5350"/><line x1="656" y1="288.60220000000254" x2="656" y2="346.04461200000287" stroke="#26a69a" stroke-width="2"/><rect x="652" y="300.4868360000046" width="8" height="39.61545599998999" fill="#26a69a"/><line x1="668" y1="274.7367899999972" x2="668" y2="385.66006800000423" stroke="#ef5350" stroke-width="2"/><rect x="664" y="296.5252899999996" width="8" height="26.74043399999846" fill="#ef5350"/><line x1="680" y1="320.29456400000527" x2="680" y2="387.64083999999457" stroke="#ef5350" stroke-width="2"/><rect x="676" y="320.29456400000527" width="8" height="27.730819999999312" fill="#ef5350"/><line x1="692" y1="300.4868360000046" x2="692" y2="387.64083999999457" stroke="#26a69a" stroke-width="2"/><rect x="688" y="333.1695879999984" width="8" height="2" fill="#26a69a"/><line x1="704" y1="278.6983360000022" x2="704" y2="334.15997399999924" stroke="#26a69a" stroke-width="2"/><rect x="700" y="328.2176560000039" width="8" height="2" fill="#26a69a"/><line x1="716" y1="276.7175619999989" x2="716" y2="387.64083999999457" stroke="#ef5350" stroke-width="2"/><rect x="712" y="324.2561099999989" width="8" height="63.38472999999567" fill="#ef5350"/><line x1="728" y1="389.62161399999786" x2="728" y2="647.1220799999969" stroke="#ef5350" stroke-width="2"/><rect x="724" y="391.60238599999957" width="8" height="235.71196599999666" fill="#ef5350"/><line x1="740" y1="587.6988959999949" x2="740" y2="797.6608140000053" stroke="#ef5350" stroke-width="2"/><rect x="736" y="611.4681700000006" width="8" height="128.75023200000442" fill="#ef5350"/><line x1="752" y1="726.3529919999996" x2="752" y2="920.4687300000046" stroke="#ef5350" stroke-width="2"/><rect x="748" y="742.1991759999969" width="8" height="177.27916600000526" fill="#ef5350"/><line x1="764" y1="829.3531799999982" x2="764" y2="950.1803220000056" stroke="#26a69a" stroke-width="2"/><rect x="760" y="868.9686359999996" width="8" height="47.53854799999999" fill="#26a69a"/><line x1="776" y1="722.3914479999962" x2="776" y2="884.8148179999953" stroke="#26a69a" stroke-width="2"/><rect x="772" y="777.8530860000046" width="8" height="103.00018599999703" fill="#26a69a"/><line x1="788" y1="670.8913540000026" x2="788" y2="775.8723140000029" stroke="#26a69a" stroke-width="2"/><rect x="784" y="728.3337660000029" width="8" height="29.71159200000102" fill="#26a69a"/><line x1="800" y1="680.7952180000029" x2="800" y2="758.045358000004" stroke="#ef5350" stroke-width="2"/><rect x="796" y="728.3337660000029" width="8" height="21.788500000002387" fill="#ef5350"/><line x1="812" y1="672.8721260000043" x2="812" y2="762.0069039999976" stroke="#26a69a" stroke-width="2"/><rect x="808" y="692.679854000005" width="8" height="53.48086799999692" fill="#26a69a"/><line x1="824" y1="605.5258500000036" x2="824" y2="710.506810000004" stroke="#26a69a" stroke-width="2"/><rect x="820" y="609.4873959999973" width="8" height="91.11555000000635" fill="#26a69a"/><line x1="836" y1="595.6219860000033" x2="836" y2="653.0643980000036" stroke="#ef5350" stroke-width="2"/><rect x="832" y="605.5258500000036" width="8" height="29.711593999991237" fill="#ef5350"/><line x1="848" y1="611.4681700000006" x2="848" y2="716.4491279999993" stroke="#26a69a" stroke-width="2"/><rect x="844" y="615.429714000004" width="8" height="23.76927399999431" fill="#26a69a"/><line x1="860" y1="601.5643060000002" x2="860" y2="698.6221740000019" stroke="#ef5350" stroke-width="2"/><rect x="856" y="611.4681700000006" width="8" height="73.28859399999601" fill="#ef5350"/><line x1="872" y1="619.3912599999976" x2="872" y2="787.756950000005" stroke="#26a69a" stroke-width="2"/><rect x="868" y="668.9105820000009" width="8" height="19.80772800000068" fill="#26a69a"/><line x1="884" y1="660.9874900000023" x2="884" y2="779.833857999995" stroke="#ef5350" stroke-width="2"/><rect x="880" y="674.8528999999962" width="8" height="85.17323000000943" fill="#ef5350"/><line x1="896" y1="704.5644919999972" x2="896" y2="904.622545999996" stroke="#ef5350" stroke-width="2"/><rect x="892" y="750.1222660000053" width="8" height="59.423185999992256" fill="#ef5350"/><line x1="908" y1="738.2376300000033" x2="908" y2="880.8532720000017" stroke="#ef5350" stroke-width="2"/><rect x="904" y="801.6223599999989" width="8" height="57.44241200000033" fill="#ef5350"/><line x1="920" y1="767.9492220000043" x2="920" y2="938.295684000002" stroke="#26a69a" stroke-width="2"/><rect x="916" y="819.4493159999979" width="8" height="41.596228000003066" fill="#26a69a"/><line x1="932" y1="684.7567639999966" x2="932" y2="857.083997999996" stroke="#26a69a" stroke-width="2"/><rect x="928" y="708.5260380000022" width="8" height="114.88482400000066" fill="#26a69a"/><line x1="944" y1="674.8528999999962" x2="944" y2="752.1030399999972" stroke="#ef5350" stroke-width="2"/><rect x="940" y="716.4491279999993" width="8" height="3.9615460000050007" fill="#ef5350"/><line x1="956" y1="704.5644919999972" x2="956" y2="779.833857999995" stroke="#ef5350" stroke-width="2"/><rect x="952" y="730.3145380000046" width="8" height="15.846183999997265" fill="#ef5350"/><line x1="968" y1="662.968262000004" x2="968" y2="762.0069039999976" stroke="#26a69a" stroke-width="2"/><rect x="964" y="680.7952180000029" width="8" height="61.40395799999396" fill="#26a69a"/><line x1="980" y1="684.7567639999966" x2="980" y2="767.9492220000043" stroke="#ef5350" stroke-width="2"/><rect x="976" y="686.7375359999983" width="8" height="63.38473000000704" fill="#ef5350"/><line x1="992" y1="708.5260380000022" x2="992" y2="851.1416800000006" stroke="#ef5350" stroke-width="2"/><rect x="988" y="752.1030399999972" width="8" height="27.730817999997726" fill="#ef5350"/><line x1="1004" y1="692.679854000005" x2="1004" y2="803.6031320000006" stroke="#26a69a" stroke-width="2"/><rect x="1000" y="746.1607220000019" width="8" height="31.692364000002726" fill="#26a69a"/><line x1="1016" y1="839.2570439999986" x2="1016" y2="1031.3920080000003" stroke="#26a69a" stroke-width="2"/><rect x="1012" y="863.0263180000043" width="8" height="110.92327799999566" fill="#26a69a"/><line x1="1028" y1="807.5646780000056" x2="1028" y2="916.5071839999996" stroke="#26a69a" stroke-width="2"/><rect x="1024" y="839.2570439999986" width="8" height="25.75004599999602" fill="#26a69a"/><line x1="1040" y1="811.5262239999993" x2="1040" y2="934.334137999997" stroke="#ef5350" stroke-width="2"/><rect x="1036" y="835.295498000005" width="8" height="93.09632199999669" fill="#ef5350"/><line x1="1052" y1="880.8532720000017" x2="1052" y2="989.7957779999956" stroke="#ef5350" stroke-width="2"/><rect x="1048" y="932.3533659999953" width="8" height="11.884638000003633" fill="#ef5350"/><line x1="1064" y1="912.5456379999946" x2="1064" y2="995.7380960000023" stroke="#26a69a" stroke-width="2"/><rect x="1060" y="932.3533659999953" width="8" height="23.76927400000568" fill="#26a69a"/><line x1="1076" y1="849.1609079999989" x2="1076" y2="962.0649579999963" stroke="#ef5350" stroke-width="2"/><rect x="1072" y="938.295684000002" width="8" height="23.76927399999431" fill="#ef5350"/><line x1="1088" y1="892.7379100000053" x2="1088" y2="977.9111420000049" stroke="#26a69a" stroke-width="2"/><rect x="1084" y="918.4879560000013" width="8" height="47.53854799999999" fill="#26a69a"/><line x1="1100" y1="843.2185900000036" x2="1100" y2="966.0265040000013" stroke="#26a69a" stroke-width="2"/><rect x="1096" y="847.1801339999956" width="8" height="71.30782200000567" fill="#26a69a"/><line x1="1112" y1="827.372405999995" x2="1112" y2="940.2764580000053" stroke="#ef5350" stroke-width="2"/><rect x="1108" y="847.1801339999956" width="8" height="63.384732000008626" fill="#ef5350"/><line x1="1124" y1="880.8532720000017" x2="1124" y2="956.122640000001" stroke="#26a69a" stroke-width="2"/><rect x="1120" y="880.8532720000017" width="8" height="29.711594000002606" fill="#26a69a"/><line x1="1136" y1="779.833857999995" x2="1136" y2="878.8725" stroke="#26a69a" stroke-width="2"/><rect x="1132" y="829.3531799999982" width="8" height="47.53854799999999" fill="#26a69a"/><line x1="1148" y1="746.1607220000019" x2="1148" y2="833.3147260000032" stroke="#26a69a" stroke-width="2"/><rect x="1144" y="750.1222660000053" width="8" height="79.23091399999294" fill="#26a69a"/><line x1="1160" y1="714.4683559999976" x2="1160" y2="815.4877700000043" stroke="#ef5350" stroke-width="2"/><rect x="1156" y="752.1030399999972" width="8" height="47.53854799999999" fill="#ef5350"/><line x1="1172" y1="698.6221740000019" x2="1172" y2="803.6031320000006" stroke="#26a69a" stroke-width="2"/><rect x="1168" y="732.2953119999966" width="8" height="71.30782000000409" fill="#26a69a"/><line x1="1184" y1="722.3914479999962" x2="1184" y2="789.7377239999969" stroke="#ef5350" stroke-width="2"/><rect x="1180" y="738.2376300000033" width="8" height="21.788500000002387" fill="#ef5350"/><line x1="1196" y1="672.8721260000043" x2="1196" y2="769.9299939999946" stroke="#26a69a" stroke-width="2"/><rect x="1192" y="726.3529919999996" width="8" height="37.63468399999965" fill="#26a69a"/><line x1="1208" y1="643.1605340000033" x2="1208" y2="716.4491279999993" stroke="#26a69a" stroke-width="2"/><rect x="1204" y="659.006715999999" width="8" height="57.44241200000033" fill="#26a69a"/><line x1="1220" y1="591.6604419999999" x2="1220" y2="672.8721260000043" stroke="#26a69a" stroke-width="2"/><rect x="1216" y="607.5066239999956" width="8" height="51.500092000003406" fill="#26a69a"/><line x1="1232" y1="563.9296220000006" x2="1232" y2="609.4873959999973" stroke="#26a69a" stroke-width="2"/><rect x="1228" y="597.6027599999952" width="8" height="7.923090000008415" fill="#26a69a"/><line x1="1244" y1="532.2372559999963" x2="1244" y2="621.3720340000009" stroke="#26a69a" stroke-width="2"/><rect x="1240" y="532.2372559999963" width="8" height="69.32705000000396" fill="#26a69a"/><line x1="1256" y1="538.179574000003" x2="1256" y2="591.6604419999999" stroke="#ef5350" stroke-width="2"/><rect x="1252" y="538.179574000003" width="8" height="13.865409999993972" fill="#ef5350"/><line x1="1268" y1="554.0257580000002" x2="1268" y2="601.5643060000002" stroke="#ef5350" stroke-width="2"/><rect x="1264" y="554.0257580000002" width="8" height="43.57700199999499" fill="#ef5350"/><line x1="1280" y1="534.2180299999995" x2="1280" y2="597.6027599999952" stroke="#26a69a" stroke-width="2"/><rect x="1276" y="540.1603479999949" width="8" height="57.44241200000033" fill="#26a69a"/><line x1="1292" y1="490.64102800000455" x2="1292" y2="544.1218939999999" stroke="#26a69a" stroke-width="2"/><rect x="1288" y="492.6217999999949" width="8" height="39.61545600000136" fill="#26a69a"/><line x1="1304" y1="442.1120940000037" x2="1304" y2="486.67948199999955" stroke="#26a69a" stroke-width="2"/><rect x="1300" y="467.8621399999997" width="8" height="16.836567999996532" fill="#26a69a"/><line x1="1316" y1="454.98711599999524" x2="1316" y2="516.3910740000006" stroke="#26a69a" stroke-width="2"/><rect x="1312" y="464.8909799999956" width="8" height="3.9615460000050007" fill="#26a69a"/><line x1="1328" y1="433.1986160000042" x2="1328" y2="466.8717539999989" stroke="#ef5350" stroke-width="2"/><rect x="1324" y="458.94866200000024" width="8" height="3.9615460000050007" fill="#ef5350"/><line x1="1340" y1="458.94866200000024" x2="1340" y2="508.46798200000194" stroke="#ef5350" stroke-width="2"/><rect x="1336" y="458.94866200000024" width="8" height="3.9615460000050007" fill="#ef5350"/><line x1="1352" y1="403.4870240000032" x2="1352" y2="458.94866200000024" stroke="#26a69a" stroke-width="2"/><rect x="1348" y="403.4870240000032" width="8" height="53.48086599999533" fill="#26a69a"/><line x1="1364" y1="379.7177499999975" x2="1364" y2="528.2757100000026" stroke="#ef5350" stroke-width="2"/><rect x="1360" y="399.5254779999982" width="8" height="101.01941400000669" fill="#ef5350"/><line x1="1376" y1="449.0447979999999" x2="1376" y2="526.2949380000009" stroke="#26a69a" stroke-width="2"/><rect x="1372" y="451.0255700000016" width="8" height="53.48086599999533" fill="#26a69a"/><line x1="1388" y1="453.0063440000049" x2="1388" y2="504.50643599999694" stroke="#ef5350" stroke-width="2"/><rect x="1384" y="458.94866200000024" width="8" height="9.90386400000034" fill="#ef5350"/><line x1="1400" y1="411.41011400000025" x2="1400" y2="478.7563900000009" stroke="#26a69a" stroke-width="2"/><rect x="1396" y="413.39088800000354" width="8" height="55.46163799999704" fill="#26a69a"/><line x1="1412" y1="342.08306599999787" x2="1412" y2="419.3332059999989" stroke="#26a69a" stroke-width="2"/><rect x="1408" y="379.7177499999975" width="8" height="35.65391000000773" fill="#26a69a"/><line x1="1424" y1="357.9292480000049" x2="1424" y2="435.17938799999456" stroke="#ef5350" stroke-width="2"/><rect x="1420" y="381.69852199999923" width="8" height="37.63468399999965" fill="#ef5350"/><line x1="1436" y1="405.4677960000049" x2="1436" y2="458.94866200000024" stroke="#26a69a" stroke-width="2"/><rect x="1432" y="409.42934199999854" width="8" height="2" fill="#26a69a"/><line x1="1448" y1="399.5254779999982" x2="1448" y2="464.8909799999956" stroke="#26a69a" stroke-width="2"/><rect x="1444" y="399.5254779999982" width="8" height="7.923089999997046" fill="#26a69a"/><line x1="1460" y1="399.5254779999982" x2="1460" y2="433.1986160000042" stroke="#ef5350" stroke-width="2"/><rect x="1456" y="399.5254779999982" width="8" height="25.750046000007387" fill="#ef5350"/><line x1="1472" y1="361.89079399999855" x2="1472" y2="427.2562959999959" stroke="#26a69a" stroke-width="2"/><rect x="1468" y="361.89079399999855" width="8" height="55.46163799999704" fill="#26a69a"/><line x1="1484" y1="365.85234000000355" x2="1484" y2="458.94866200000024" stroke="#ef5350" stroke-width="2"/><rect x="1480" y="365.85234000000355" width="8" height="75.26936599999772" fill="#ef5350"/><line x1="1496" y1="381.69852199999923" x2="1496" y2="445.0832519999949" stroke="#26a69a" stroke-width="2"/><rect x="1492" y="399.5254779999982" width="8" height="43.57700200000636" fill="#26a69a"/><line x1="1508" y1="389.62161399999786" x2="1508" y2="423.2947520000039" stroke="#ef5350" stroke-width="2"/><rect x="1504" y="399.5254779999982" width="8" height="23.76927400000568" fill="#ef5350"/><line x1="1520" y1="417.3524319999956" x2="1520" y2="538.179574000003" stroke="#ef5350" stroke-width="2"/><rect x="1516" y="417.3524319999956" width="8" height="11.884638000003633" fill="#ef5350"/><line x1="1532" y1="405.4677960000049" x2="1532" y2="468.8525260000006" stroke="#ef5350" stroke-width="2"/><rect x="1528" y="439.14093399999956" width="8" height="21.788500000002387" fill="#ef5350"/><line x1="1544" y1="443.10248000000456" x2="1544" y2="546.1026660000016" stroke="#ef5350" stroke-width="2"/><rect x="1540" y="462.91020800000524" width="8" height="44.567387999995844" fill="#ef5350"/><line x1="1556" y1="502.52566399999523" x2="1556" y2="571.8527119999976" stroke="#26a69a" stroke-width="2"/><rect x="1552" y="512.4295279999956" width="8" height="5.942318000006708" fill="#26a69a"/><line x1="1568" y1="492.6217999999949" x2="1568" y2="542.1411199999966" stroke="#ef5350" stroke-width="2"/><rect x="1564" y="514.4103019999989" width="8" height="27.730817999997726" fill="#ef5350"/><line x1="1580" y1="524.3141659999992" x2="1580" y2="621.3720340000009" stroke="#ef5350" stroke-width="2"/><rect x="1576" y="528.2757100000026" width="8" height="93.09632399999828" fill="#ef5350"/><line x1="1592" y1="571.8527119999976" x2="1592" y2="655.0451719999955" stroke="#26a69a" stroke-width="2"/><rect x="1588" y="601.5643060000002" width="8" height="23.769272000004094" fill="#26a69a"/><line x1="1604" y1="591.6604419999999" x2="1604" y2="666.9298079999976" stroke="#ef5350" stroke-width="2"/><rect x="1600" y="605.5258500000036" width="8" height="35.653911999997945" fill="#ef5350"/><line x1="1616" y1="550.0642119999952" x2="1616" y2="659.006715999999" stroke="#26a69a" stroke-width="2"/><rect x="1612" y="552.0449839999969" width="8" height="91.11555000000635" fill="#26a69a"/><line x1="1628" y1="363.87156600000026" x2="1628" y2="559.9680759999956" stroke="#26a69a" stroke-width="2"/><rect x="1624" y="381.69852199999923" width="8" height="174.3080080000027" fill="#26a69a"/><line x1="1640" y1="369.8138859999972" x2="1640" y2="443.10248000000456" stroke="#ef5350" stroke-width="2"/><rect x="1636" y="379.7177499999975" width="8" height="39.61545600000136" fill="#ef5350"/><line x1="1652" y1="411.41011400000025" x2="1652" y2="462.91020800000524" stroke="#ef5350" stroke-width="2"/><rect x="1648" y="415.37166000000525" width="8" height="23.76927399999431" fill="#ef5350"/><line x1="1664" y1="439.14093399999956" x2="1664" y2="492.6217999999949" stroke="#ef5350" stroke-width="2"/><rect x="1660" y="439.14093399999956" width="8" height="29.71159200000102" fill="#ef5350"/><line x1="1676" y1="415.37166000000525" x2="1676" y2="573.8334860000009" stroke="#ef5350" stroke-width="2"/><rect x="1672" y="462.91020800000524" width="8" height="83.19245799999635" fill="#ef5350"/><line x1="1688" y1="504.50643599999694" x2="1688" y2="583.7373500000012" stroke="#ef5350" stroke-width="2"/><rect x="1684" y="548.0834380000033" width="8" height="3.961545999993632" fill="#ef5350"/><line x1="1700" y1="504.50643599999694" x2="1700" y2="670.8913540000026" stroke="#ef5350" stroke-width="2"/><rect x="1696" y="557.9873040000052" width="8" height="93.09632199999669" fill="#ef5350"/><line x1="1712" y1="595.6219860000033" x2="1712" y2="718.4299020000026" stroke="#26a69a" stroke-width="2"/><rect x="1708" y="639.1989879999983" width="8" height="25.750047999997605" fill="#26a69a"/><line x1="1724" y1="595.6219860000033" x2="1724" y2="704.5644919999972" stroke="#ef5350" stroke-width="2"/><rect x="1720" y="645.1413079999952" width="8" height="33.67313800000602" fill="#ef5350"/><line x1="1736" y1="678.8144460000012" x2="1736" y2="765.9684500000026" stroke="#ef5350" stroke-width="2"/><rect x="1732" y="690.6990820000033" width="8" height="33.67313799999465" fill="#ef5350"/><line x1="1748" y1="556.0065300000019" x2="1748" y2="722.3914479999962" stroke="#26a69a" stroke-width="2"/><rect x="1744" y="595.6219860000033" width="8" height="126.76946199999293" fill="#26a69a"/><line x1="1760" y1="506.48721000000023" x2="1760" y2="595.6219860000033" stroke="#26a69a" stroke-width="2"/><rect x="1756" y="536.1988020000013" width="8" height="50.50970600000255" fill="#26a69a"/><line x1="1772" y1="514.4103019999989" x2="1772" y2="574.8238720000018" stroke="#26a69a" stroke-width="2"/><rect x="1768" y="518.3718460000023" width="8" height="21.788501999992604" fill="#26a69a"/><line x1="1784" y1="496.5833459999999" x2="1784" y2="554.0257580000002" stroke="#26a69a" stroke-width="2"/><rect x="1780" y="516.3910740000006" width="8" height="11.884636000002047" fill="#26a69a"/><line x1="1796" y1="500.5448920000049" x2="1796" y2="577.7950319999945" stroke="#ef5350" stroke-width="2"/><rect x="1792" y="512.4295279999956" width="8" height="41.59623000000465" fill="#ef5350"/><line x1="1808" y1="454.98711599999524" x2="1808" y2="571.8527119999976" stroke="#26a69a" stroke-width="2"/><rect x="1804" y="472.6159940000002" width="8" height="83.3905360000017" fill="#26a69a"/><line x1="1820" y1="441.12170600000127" x2="1820" y2="486.67948199999955" stroke="#ef5350" stroke-width="2"/><rect x="1816" y="467.8621399999997" width="8" height="14.855795999994825" fill="#ef5350"/><line x1="1832" y1="340.1022919999946" x2="1832" y2="494.6025719999966" stroke="#26a69a" stroke-width="2"/><rect x="1828" y="348.0253840000046" width="8" height="134.69255199998997" fill="#26a69a"/><line x1="1844" y1="306.4291539999999" x2="1844" y2="435.17938799999456" stroke="#ef5350" stroke-width="2"/><rect x="1840" y="336.14074800000253" width="8" height="49.5193200000017" fill="#ef5350"/><line x1="1856" y1="322.2753379999972" x2="1856" y2="413.39088800000354" stroke="#ef5350" stroke-width="2"/><rect x="1852" y="383.67929400000094" width="8" height="25.750047999997605" fill="#ef5350"/><line x1="1868" y1="371.7946579999989" x2="1868" y2="443.10248000000456" stroke="#26a69a" stroke-width="2"/><rect x="1864" y="375.7562040000039" width="8" height="39.61545600000136" fill="#26a69a"/><line x1="1880" y1="379.7177499999975" x2="1880" y2="476.7756179999992" stroke="#ef5350" stroke-width="2"/><rect x="1876" y="379.7177499999975" width="8" height="88.1443900000022" fill="#ef5350"/><line x1="1892" y1="421.3139780000006" x2="1892" y2="474.7948439999959" stroke="#26a69a" stroke-width="2"/><rect x="1888" y="451.0255700000016" width="8" height="17.826955999998972" fill="#26a69a"/><line x1="1904" y1="367.83311200000526" x2="1904" y2="466.8717539999989" stroke="#26a69a" stroke-width="2"/><rect x="1900" y="433.1986160000042" width="8" height="15.846181999995679" fill="#26a69a"/><line x1="1916" y1="433.1986160000042" x2="1916" y2="484.69870799999626" stroke="#ef5350" stroke-width="2"/><rect x="1912" y="435.17938799999456" width="8" height="45.55777600000965" fill="#ef5350"/><line x1="1928" y1="413.39088800000354" x2="1928" y2="516.3910740000006" stroke="#26a69a" stroke-width="2"/><rect x="1924" y="439.14093399999956" width="8" height="43.57700199999499" fill="#26a69a"/><line x1="1940" y1="369.8138859999972" x2="1940" y2="496.5833459999999" stroke="#26a69a" stroke-width="2"/><rect x="1936" y="373.7754300000006" width="8" height="75.2693679999993" fill="#26a69a"/><rect x="75" y="965.3246803266061" width="10" height="54.675319673393915" fill="#ef5350" opacity="0.9"/><rect x="87" y="992.8976659990757" width="10" height="27.102334000924316" fill="#26a69a" opacity="0.9"/><rect x="99" y="989.6664612540441" width="10" height="30.333538745955934" fill="#26a69a" opacity="0.9"/><rect x="111" y="974.224503158219" width="10" height="45.77549684178098" fill="#26a69a" opacity="0.9"/><rect x="123" y="968.6506316438146" width="10" height="51.34936835618544" fill="#26a69a" opacity="0.9"/><rect x="135" y="985.900862733015" width="10" height="34.09913726698505" fill="#ef5350" opacity="0.9"/><rect x="147" y="984.5541904175011" width="10" height="35.445809582498896" fill="#26a69a" opacity="0.9"/><rect x="159" y="990.7479587120629" width="10" height="29.252041287937118" fill="#ef5350" opacity="0.9"/><rect x="171" y="998.8123940841165" width="10" height="21.187605915883523" fill="#ef5350" opacity="0.9"/><rect x="183" y="998.5524187336312" width="10" height="21.447581266368843" fill="#26a69a" opacity="0.9"/><rect x="195" y="995.7649052534279" width="10" height="24.235094746572145" fill="#ef5350" opacity="0.9"/><rect x="207" y="1000.2168386997381" width="10" height="19.783161300261895" fill="#ef5350" opacity="0.9"/><rect x="219" y="997.9192343244492" width="10" height="22.080765675550765" fill="#26a69a" opacity="0.9"/><rect x="231" y="985.2168386997381" width="10" height="34.783161300261895" fill="#26a69a" opacity="0.9"/><rect x="243" y="987.0014250500693" width="10" height="32.998574949930685" fill="#26a69a" opacity="0.9"/><rect x="255" y="977.7445694037899" width="10" height="42.25543059621009" fill="#26a69a" opacity="0.9"/><rect x="267" y="994.0877753812972" width="10" height="25.912224618702794" fill="#ef5350" opacity="0.9"/><rect x="279" y="982.4518564165768" width="10" height="37.54814358342321" fill="#ef5350" opacity="0.9"/><rect x="291" y="978.1229779694962" width="10" height="41.87702203050378" fill="#ef5350" opacity="0.9"/><rect x="303" y="988.4734632568171" width="10" height="31.526536743182874" fill="#ef5350" opacity="0.9"/><rect x="315" y="992.0876983515637" width="10" height="27.912301648436255" fill="#26a69a" opacity="0.9"/><rect x="327" y="996.3328069634879" width="10" height="23.667193036512117" fill="#ef5350" opacity="0.9"/><rect x="339" y="975.3048451702357" width="10" height="44.695154829764306" fill="#26a69a" opacity="0.9"/><rect x="351" y="993.1559081805577" width="10" height="26.84409181944227" fill="#26a69a" opacity="0.9"/><rect x="363" y="989.7796949622555" width="10" height="30.220305037744538" fill="#26a69a" opacity="0.9"/><rect x="375" y="994.123594207364" width="10" height="25.87640579263598" fill="#ef5350" opacity="0.9"/><rect x="387" y="1001.9442304729625" width="10" height="18.055769527037455" fill="#ef5350" opacity="0.9"/><rect x="399" y="1002.4035202588199" width="10" height="17.596479741180133" fill="#26a69a" opacity="0.9"/><rect x="411" y="997.4616777075952" width="10" height="22.538322292404814" fill="#26a69a" opacity="0.9"/><rect x="423" y="996.4529733477123" width="10" height="23.54702665228774" fill="#26a69a" opacity="0.9"/><rect x="435" y="1004.1193575720227" width="10" height="15.88064242797725" fill="#ef5350" opacity="0.9"/><rect x="447" y="998.4102988753659" width="10" height="21.589701124634075" fill="#26a69a" opacity="0.9"/><rect x="459" y="988.2573948544139" width="10" height="31.74260514558614" fill="#ef5350" opacity="0.9"/><rect x="471" y="1001.3335772608227" width="10" height="18.66642273917728" fill="#26a69a" opacity="0.9"/><rect x="483" y="1003.8224079494685" width="10" height="16.17759205053153" fill="#26a69a" opacity="0.9"/><rect x="495" y="1001.0273840702512" width="10" height="18.972615929748827" fill="#26a69a" opacity="0.9"/><rect x="507" y="962.7405253427823" width="10" height="57.25947465721765" fill="#ef5350" opacity="0.9"/><rect x="519" y="1000.2878986288707" width="10" height="19.71210137112928" fill="#ef5350" opacity="0.9"/><rect x="531" y="987.779617932522" width="10" height="32.220382067478" fill="#26a69a" opacity="0.9"/><rect x="543" y="992.5718302264675" width="10" height="27.428169773532545" fill="#ef5350" opacity="0.9"/><rect x="555" y="989.3539131104607" width="10" height="30.646086889539333" fill="#26a69a" opacity="0.9"/><rect x="567" y="978.5383608072716" width="10" height="41.4616391927284" fill="#26a69a" opacity="0.9"/><rect x="579" y="989.9247034355261" width="10" height="30.075296564473888" fill="#ef5350" opacity="0.9"/><rect x="591" y="1002.2596672315514" width="10" height="17.74033276844864" fill="#ef5350" opacity="0.9"/><rect x="603" y="999.2832383299954" width="10" height="20.716761670004644" fill="#26a69a" opacity="0.9"/><rect x="615" y="1000.371090741026" width="10" height="19.628909258973977" fill="#26a69a" opacity="0.9"/><rect x="627" y="981.4159990756432" width="10" height="38.584000924356815" fill="#26a69a" opacity="0.9"/><rect x="639" y="993.6313742104452" width="10" height="26.368625789554812" fill="#ef5350" opacity="0.9"/><rect x="651" y="1003.273571098444" width="10" height="16.726428901556005" fill="#26a69a" opacity="0.9"/><rect x="663" y="1003.1424279771992" width="10" height="16.85757202280081" fill="#ef5350" opacity="0.9"/><rect x="675" y="1005.512825450624" width="10" height="14.48717454937605" fill="#ef5350" opacity="0.9"/><rect x="687" y="1001.0204513942382" width="10" height="18.979548605761806" fill="#26a69a" opacity="0.9"/><rect x="699" y="1001.6074179633339" width="10" height="18.392582036666113" fill="#26a69a" opacity="0.9"/><rect x="711" y="998.5472192266215" width="10" height="21.45278077337855" fill="#ef5350" opacity="0.9"/><rect x="723" y="968.5628177476506" width="10" height="51.43718225234943" fill="#ef5350" opacity="0.9"/><rect x="735" y="986.4889847481128" width="10" height="33.511015251887216" fill="#ef5350" opacity="0.9"/><rect x="747" y="966.2588584193498" width="10" height="53.74114158065015" fill="#ef5350" opacity="0.9"/><rect x="759" y="978.9398782930211" width="10" height="41.06012170697886" fill="#26a69a" opacity="0.9"/><rect x="771" y="995.0098212910183" width="10" height="24.990178708981716" fill="#26a69a" opacity="0.9"/><rect x="783" y="998.5252657525805" width="10" height="21.47473424741952" fill="#26a69a" opacity="0.9"/><rect x="795" y="998.050377445694" width="10" height="21.94962255430596" fill="#ef5350" opacity="0.9"/><rect x="807" y="1002.0886612232322" width="10" height="17.91133877676782" fill="#26a69a" opacity="0.9"/><rect x="819" y="983.7783084270528" width="10" height="36.22169157294718" fill="#26a69a" opacity="0.9"/><rect x="831" y="997.5211831767062" width="10" height="22.478816823293755" fill="#ef5350" opacity="0.9"/><rect x="843" y="987.5340856570637" width="10" height="32.465914342936344" fill="#26a69a" opacity="0.9"/><rect x="855" y="983.9828223694346" width="10" height="36.01717763056536" fill="#ef5350" opacity="0.9"/><rect x="867" y="987.2619781235557" width="10" height="32.73802187644435" fill="#26a69a" opacity="0.9"/><rect x="879" y="991.6890694808196" width="10" height="28.310930519180374" fill="#ef5350" opacity="0.9"/><rect x="891" y="988.1406948081959" width="10" height="31.859305191804083" fill="#ef5350" opacity="0.9"/><rect x="903" y="982.9157679864428" width="10" height="37.0842320135572" fill="#ef5350" opacity="0.9"/><rect x="915" y="985.7639423817593" width="10" height="34.23605761824069" fill="#26a69a" opacity="0.9"/><rect x="927" y="996.3050762594362" width="10" height="23.69492374056381" fill="#26a69a" opacity="0.9"/><rect x="939" y="964.0508011092281" width="10" height="55.94919889077187" fill="#ef5350" opacity="0.9"/><rect x="951" y="995.6678477892466" width="10" height="24.332152210753407" fill="#ef5350" opacity="0.9"/><rect x="963" y="962.2280850408258" width="10" height="57.77191495917418" fill="#26a69a" opacity="0.9"/><rect x="975" y="986.9835156370359" width="10" height="33.01648436296409" fill="#ef5350" opacity="0.9"/><rect x="987" y="964.3125096287167" width="10" height="55.687490371283275" fill="#ef5350" opacity="0.9"/><rect x="999" y="860.0" width="10" height="160.0" fill="#26a69a" opacity="0.9"/><rect x="1011" y="957.9072947157603" width="10" height="62.09270528423974" fill="#26a69a" opacity="0.9"/><rect x="1023" y="993.7272762286243" width="10" height="26.272723771375695" fill="#26a69a" opacity="0.9"/><rect x="1035" y="995.3732090586966" width="10" height="24.626790941303398" fill="#ef5350" opacity="0.9"/><rect x="1047" y="982.0803805268833" width="10" height="37.919619473116654" fill="#ef5350" opacity="0.9"/><rect x="1059" y="994.9670697889385" width="10" height="25.03293021106151" fill="#26a69a" opacity="0.9"/><rect x="1071" y="988.6519796641503" width="10" height="31.348020335849696" fill="#ef5350" opacity="0.9"/><rect x="1083" y="984.6171622246187" width="10" height="35.38283777538129" fill="#26a69a" opacity="0.9"/><rect x="1095" y="982.6910337390233" width="10" height="37.30896626097672" fill="#26a69a" opacity="0.9"/><rect x="1107" y="988.8380064704976" width="10" height="31.16199352950241" fill="#ef5350" opacity="0.9"/><rect x="1119" y="987.8304575566168" width="10" height="32.16954244338319" fill="#26a69a" opacity="0.9"/><rect x="1131" y="985.3589585580033" width="10" height="34.64104144199666" fill="#26a69a" opacity="0.9"/><rect x="1143" y="992.7526575258049" width="10" height="27.24734247419508" fill="#26a69a" opacity="0.9"/><rect x="1155" y="988.4757741488214" width="10" height="31.524225851178585" fill="#ef5350" opacity="0.9"/><rect x="1167" y="990.0425589277461" width="10" height="29.957441072253914" fill="#26a69a" opacity="0.9"/><rect x="1179" y="974.8559543983978" width="10" height="45.144045601602215" fill="#ef5350" opacity="0.9"/><rect x="1191" y="983.5651286396549" width="10" height="36.43487136034514" fill="#26a69a" opacity="0.9"/><rect x="1203" y="997.394084116469" width="10" height="22.605915883530997" fill="#26a69a" opacity="0.9"/><rect x="1215" y="990.1234401478971" width="10" height="29.8765598521029" fill="#26a69a" opacity="0.9"/><rect x="1227" y="981.3466723155138" width="10" height="38.65332768448616" fill="#26a69a" opacity="0.9"/><rect x="1239" y="997.9238561084578" width="10" height="22.076143891542188" fill="#26a69a" opacity="0.9"/><rect x="1251" y="999.324834386073" width="10" height="20.675165613926993" fill="#ef5350" opacity="0.9"/><rect x="1263" y="1002.2966415036204" width="10" height="17.703358496379565" fill="#ef5350" opacity="0.9"/><rect x="1275" y="999.4790864273609" width="10" height="20.520913572639074" fill="#26a69a" opacity="0.9"/><rect x="1287" y="997.8348867662918" width="10" height="22.16511323370821" fill="#26a69a" opacity="0.9"/><rect x="1299" y="970.6403096595286" width="10" height="49.35969034047139" fill="#26a69a" opacity="0.9"/><rect x="1311" y="1000.4733477122169" width="10" height="19.526652287783122" fill="#26a69a" opacity="0.9"/><rect x="1323" y="1001.0695578493298" width="10" height="18.93044215067016" fill="#ef5350" opacity="0.9"/><rect x="1335" y="992.3904252041287" width="10" height="27.609574795871254" fill="#ef5350" opacity="0.9"/><rect x="1347" y="998.3328839932213" width="10" height="21.667116006778656" fill="#26a69a" opacity="0.9"/><rect x="1359" y="991.5706362655985" width="10" height="28.429363734401477" fill="#ef5350" opacity="0.9"/><rect x="1371" y="998.2964874441534" width="10" height="21.7035125558466" fill="#26a69a" opacity="0.9"/><rect x="1383" y="1002.4422276998922" width="10" height="17.557772300107786" fill="#ef5350" opacity="0.9"/><rect x="1395" y="1001.8171314127253" width="10" height="18.182868587274697" fill="#26a69a" opacity="0.9"/><rect x="1407" y="991.493221383454" width="10" height="28.506778616545944" fill="#26a69a" opacity="0.9"/><rect x="1419" y="996.5113233708212" width="10" height="23.488676629178826" fill="#ef5350" opacity="0.9"/><rect x="1431" y="997.5471807117548" width="10" height="22.452819288245223" fill="#26a69a" opacity="0.9"/><rect x="1443" y="999.1243645046989" width="10" height="20.87563549530114" fill="#26a69a" opacity="0.9"/><rect x="1455" y="1000.3716684640272" width="10" height="19.628331535972848" fill="#ef5350" opacity="0.9"/><rect x="1467" y="999.0533045755661" width="10" height="20.94669542443387" fill="#26a69a" opacity="0.9"/><rect x="1479" y="993.1102680634725" width="10" height="26.889731936527483" fill="#ef5350" opacity="0.9"/><rect x="1491" y="997.4570559235865" width="10" height="22.542944076413505" fill="#26a69a" opacity="0.9"/><rect x="1503" y="1005.2592050531505" width="10" height="14.740794946849519" fill="#ef5350" opacity="0.9"/><rect x="1515" y="978.1674626405793" width="10" height="41.83253735942071" fill="#ef5350" opacity="0.9"/><rect x="1527" y="1001.8731705438299" width="10" height="18.12682945617007" fill="#ef5350" opacity="0.9"/><rect x="1539" y="988.752503466338" width="10" height="31.247496533662" fill="#ef5350" opacity="0.9"/><rect x="1551" y="997.5853104298259" width="10" height="22.41468957017412" fill="#26a69a" opacity="0.9"/><rect x="1563" y="1004.7207672161454" width="10" height="15.279232783854582" fill="#ef5350" opacity="0.9"/><rect x="1575" y="1003.2394854413803" width="10" height="16.76051455861966" fill="#ef5350" opacity="0.9"/><rect x="1587" y="995.3287243876136" width="10" height="24.671275612386353" fill="#26a69a" opacity="0.9"/><rect x="1599" y="1000.0868510244954" width="10" height="19.913148975504555" fill="#ef5350" opacity="0.9"/><rect x="1611" y="990.3239100292712" width="10" height="29.676089970728754" fill="#26a69a" opacity="0.9"/><rect x="1623" y="988.4855954398398" width="10" height="31.514404560160187" fill="#26a69a" opacity="0.9"/><rect x="1635" y="994.9352950238792" width="10" height="25.064704976120765" fill="#ef5350" opacity="0.9"/><rect x="1647" y="994.5112463410877" width="10" height="25.488753658912287" fill="#ef5350" opacity="0.9"/><rect x="1659" y="1005.5965952857803" width="10" height="14.403404714219732" fill="#ef5350" opacity="0.9"/><rect x="1671" y="992.0992528115853" width="10" height="27.900747188414698" fill="#ef5350" opacity="0.9"/><rect x="1683" y="992.87860114004" width="10" height="27.12139885995998" fill="#ef5350" opacity="0.9"/><rect x="1695" y="974.8143583423201" width="10" height="45.18564165767987" fill="#ef5350" opacity="0.9"/><rect x="1707" y="969.6021414265906" width="10" height="50.397858573409394" fill="#26a69a" opacity="0.9"/><rect x="1719" y="986.7350947465721" width="10" height="33.264905253427855" fill="#ef5350" opacity="0.9"/><rect x="1731" y="988.361962717609" width="10" height="31.638037282390997" fill="#ef5350" opacity="0.9"/><rect x="1743" y="987.816592204591" width="10" height="32.18340779540904" fill="#26a69a" opacity="0.9"/><rect x="1755" y="979.68398551841" width="10" height="40.316014481589946" fill="#26a69a" opacity="0.9"/><rect x="1767" y="999.3583423201355" width="10" height="20.641657679864466" fill="#26a69a" opacity="0.9"/><rect x="1779" y="994.5817285472192" width="10" height="25.4182714527808" fill="#26a69a" opacity="0.9"/><rect x="1791" y="997.6303728239101" width="10" height="22.36962717608992" fill="#ef5350" opacity="0.9"/><rect x="1803" y="996.1606455091666" width="10" height="23.839354490833443" fill="#26a69a" opacity="0.9"/><rect x="1815" y="999.3433215221075" width="10" height="20.656678477892456" fill="#ef5350" opacity="0.9"/><rect x="1827" y="994.4829379140348" width="10" height="25.51706208596522" fill="#26a69a" opacity="0.9"/><rect x="1839" y="966.2461485133261" width="10" height="53.75385148667385" fill="#ef5350" opacity="0.9"/><rect x="1851" y="983.366969650285" width="10" height="36.633030349715" fill="#ef5350" opacity="0.9"/><rect x="1863" y="997.8579956863349" width="10" height="22.142004313665097" fill="#26a69a" opacity="0.9"/><rect x="1875" y="979.8879217377907" width="10" height="40.11207826220925" fill="#ef5350" opacity="0.9"/><rect x="1887" y="1002.662340163303" width="10" height="17.337659836696957" fill="#26a69a" opacity="0.9"/><rect x="1899" y="985.8898859959944" width="10" height="34.110114004005595" fill="#26a69a" opacity="0.9"/><rect x="1911" y="973.9737713757511" width="10" height="46.026228624248915" fill="#ef5350" opacity="0.9"/><rect x="1923" y="966.5049684178093" width="10" height="53.49503158219068" fill="#26a69a" opacity="0.9"/><rect x="1935" y="865.6455091665383" width="10" height="154.35449083346168" fill="#26a69a" opacity="0.9"/><rect x="1004" y="746.1607220000019" width="12" height="227.78887399999803" fill="#ff2400" opacity="0.60"/><polyline points="320,709.4126690714347,332,716.6853842074943,344,709.4943725686903,356,700.7244788002481,368,686.941817009756,380,679.9424955802579,392,676.2508066678606,404,667.6286462232952,416,657.1866136305971,428,645.6639649038834,440,637.3138067225568,452,624.4768407489801,464,616.6353435347901,476,602.1834993886159,488,586.0897009706491,500,567.7557444972535,512,553.9975547356107,524,543.4361190465097,536,533.3145991373158,548,529.4390944575753,560,512.1615982235198,572,488.0405515355619,584,473.7625485321814,596,461.41029038626584,608,450.4230829209064,620,435.954795404632,632,414.94134879466174,644,407.0592395761196,656,396.90948685458807,668,389.8957951541547,680,385.90813694899,692,380.88541800145777,704,375.8694406679865,716,376.99052631865015,728,400.83089066924913,740,433.1535107959894,752,479.4701613868483,764,516.5652542071484,776,541.4498096159832,788,559.2482816525603,800,577.4267563523154,812,588.4032418425818,824,590.4112565242372,836,594.6804172362135,848,596.6565407375242,860,605.0470381910827,872,611.1292804586014,884,625.3099327958694,896,642.8561727200758,908,663.4474678895913,920,678.3047867572463,932,681.1830011613097,944,684.9189700030934,956,690.7515178123276,968,689.8032987825786,980,695.5479623271003,992,703.5751904864128,1004,707.6309553924716,1016,722.4305137360375,1028,733.5568499516512,1040,752.1125613848199,1052,770.4102225862584,1064,785.8333791018481,1076,802.6173389969131,1088,813.6526358543506,1100,816.8457309158384,1112,825.7713628286183,1124,831.0172589401759,1136,830.858775231593,1148,823.1695838762107,1160,820.928822364192,1172,812.4875356628422,1184,807.4912113139931,1196,799.7637618555132,1208,786.3583289168901,1220,769.3248332105213,1232,752.9703500476217,1244,731.9481506145166,1256,714.8145156988448,1268,703.651491346568,1280,688.0809062659409,1292,669.4657532882275,1304,650.2654091655359,1316,632.6107016259584,1328,616.4487498520543,1340,601.8260315804355,1352,582.9366022870545,1364,575.0897727359074,1376,563.2741343801058,1388,554.2816002486688,1400,540.8634371773701,1412,525.516228874767,1424,515.4035600295515,1436,505.31077736006864,1448,495.2359869448287,1460,488.5730857119938,1472,476.50810554895315,1484,473.1379722585757,1496,466.12725851966843,1508,462.04797218446174,1520,458.9231243573636,1532,459.1142014661841,1544,463.72023904083335,1556,468.35921894171406,1568,475.3860666615424,1580,489.28949212233874,1592,499.98233153925185,1604,513.4297058688503,1616,517.10735140515,1628,504.2112724141816,1640,496.1276470414077,1652,490.7003410374614,1664,488.61959674818536,1676,494.0941747721695,1688,499.61329946053183,1700,514.0390448452422,1712,525.9590394314046,1724,540.5166971998483,1736,558.0267469903447,1748,561.6072459436509,1760,559.1873941394965,1772,555.3001990786015,1784,551.5945681187304,1796,551.826110012189,1808,544.2822894395931,1820,538.4190176834409,1832,520.2862906659675,1844,507.46474565016797,1856,498.128040540621,1868,486.4735799177083,1880,484.7010618303102,1892,481.4938721321937,1904,476.8943239291275,1916,477.2603086977824,1928,473.62989205989834,1940,464.11994329228037" fill="none" stroke="#0090ff" stroke-width="2"/><line x1="80" y1="50" x2="80" y2="900" stroke="#666666" stroke-width="0.5" stroke-dasharray="4,4" opacity="0.90"/><line x1="152" y1="50" x2="152" y2="900" stroke="#666666" stroke-width="0.5" stroke-dasharray="4,4" opacity="0.90"/><line x1="224" y1="50" x2="224" y2="900" stroke="#666666" stroke-width="0.5" stroke-dasharray="4,4" opacity="0.90"/><line x1="296" y1="50" x2="296" y2="900" stroke="#666666" stroke-width="0.5" stroke-dasharray="4,4" opacity="0.90"/><line x1="368" y1="50" x2="368" y2="900" stroke="#666666" stroke-width="0.5" stroke-dasharray="4,4" opacity="0.90"/><line x1="440" y1="50" x2="440" y2="900" stroke="#666666" stroke-width="0.5" stroke-dasharray="4,4" opacity="0.90"/><line x1="512" y1="50" x2="512" y2="900" stroke="#666666" stroke-width="0.5" stroke-dasharray="4,4" opacity="0.90"/><line x1="584" y1="50" x2="584" y2="900" stroke="#666666" stroke-width="0.5" stroke-dasharray="4,4" opacity="0.90"/><line x1="656" y1="50" x2="656" y2="900" stroke="#666666" stroke-width="0.5" stroke-dasharray="4,4" opacity="0.90"/><line x1="728" y1="50" x2="728" y2="900" stroke="#666666" stroke-width="0.5" stroke-dasharray="4,4" opacity="0.90"/><line x1="800" y1="50" x2="800" y2="900" stroke="#666666" stroke-width="0.5" stroke-dasharray="4,4" opacity="0.90"/><line x1="872" y1="50" x2="872" y2="900" stroke="#666666" stroke-width="0.5" stroke-dasharray="4,4" opacity="0.90"/><line x1="944" y1="50" x2="944" y2="900" stroke="#666666" stroke-width="0.5" stroke-dasharray="4,4" opacity="0.90"/><line x1="1010" y1="30" x2="1010" y2="950" stroke="black" stroke-width="0.7"/><line x1="1016" y1="50" x2="1016" y2="900" stroke="#666666" stroke-width="0.5" stroke-dasharray="4,4" opacity="0.90"/><line x1="1088" y1="50" x2="1088" y2="900" stroke="#666666" stroke-width="0.5" stroke-dasharray="4,4" opacity="0.90"/><line x1="1160" y1="50" x2="1160" y2="900" stroke="#666666" stroke-width="0.5" stroke-dasharray="4,4" opacity="0.90"/><line x1="1232" y1="50" x2="1232" y2="900" stroke="#666666" stroke-width="0.5" stroke-dasharray="4,4" opacity="0.90"/><line x1="1304" y1="50" x2="1304" y2="900" stroke="#666666" stroke-width="0.5" stroke-dasharray="4,4" opacity="0.90"/><line x1="1376" y1="50" x2="1376" y2="900" stroke="#666666" stroke-width="0.5" stroke-dasharray="4,4" opacity="0.90"/><line x1="1448" y1="50" x2="1448" y2="900" stroke="#666666" stroke-width="0.5" stroke-dasharray="4,4" opacity="0.90"/><line x1="1520" y1="50" x2="1520" y2="900" stroke="#666666" stroke-width="0.5" stroke-dasharray="4,4" opacity="0.90"/><line x1="1592" y1="50" x2="1592" y2="900" stroke="#666666" stroke-width="0.5" stroke-dasharray="4,4" opacity="0.90"/><line x1="1664" y1="50" x2="1664" y2="900" stroke="#666666" stroke-width="0.5" stroke-dasharray="4,4" opacity="0.90"/><line x1="1736" y1="50" x2="1736" y2="900" stroke="#666666" stroke-width="0.5" stroke-dasharray="4,4" opacity="0.90"/><line x1="1808" y1="50" x2="1808" y2="900" stroke="#666666" stroke-width="0.5" stroke-dasharray="4,4" opacity="0.90"/><line x1="1880" y1="50" x2="1880" y2="900" stroke="#666666" stroke-width="0.5" stroke-dasharray="4,4" opacity="0.90"/><line x1="1946" y1="30" x2="1946" y2="950" stroke="black" stroke-width="0.7"/><text x="80" y="1040" text-anchor="middle" font-size="20" fill="black">09:30</text><text x="152" y="1040" text-anchor="middle" font-size="20" fill="black">10:00</text><text x="224" y="1040" text-anchor="middle" font-size="20" fill="black">10:30</text><text x="296" y="1040" text-anchor="middle" font-size="20" fill="black">11:00</text><text x="368" y="1040" text-anchor="middle" font-size="20" fill="black">11:30</text><text x="440" y="1040" text-anchor="middle" font-size="20" fill="black">12:00</text><text x="512" y="1040" text-anchor="middle" font-size="20" fill="black">12:30</text><text x="584" y="1040" text-anchor="middle" font-size="20" fill="black">13:00</text><text x="656" y="1040" text-anchor="middle" font-size="20" fill="black">13:30</text><text x="728" y="1040" text-anchor="middle" font-size="20" fill="black">14:00</text><text x="800" y="1040" text-anchor="middle" font-size="20" fill="black">14:30</text><text x="872" y="1040" text-anchor="middle" font-size="20" fill="black">15:00</text><text x="944" y="1040" text-anchor="middle" font-size="20" fill="black">15:30</text><text x="1016" y="1040" text-anchor="middle" font-size="20" fill="black">09:30</text><text x="1088" y="1040" text-anchor="middle" font-size="20" fill="black">10:00</text><text x="1160" y="1040" text-anchor="middle" font-size="20" fill="black">10:30</text><text x="1232" y="1040" text-anchor="middle" font-size="20" fill="black">11:00</text><text x="1304" y="1040" text-anchor="middle" font-size="20" fill="black">11:30</text><text x="1376" y="1040" text-anchor="middle" font-size="20" fill="black">12:00</text><text x="1448" y="1040" text-anchor="middle" font-size="20" fill="black">12:30</text><text x="1520" y="1040" text-anchor="middle" font-size="20" fill="black">13:00</text><text x="1592" y="1040" text-anchor="middle" font-size="20" fill="black">13:30</text><text x="1664" y="1040" text-anchor="middle" font-size="20" fill="black">14:00</text><text x="1736" y="1040" text-anchor="middle" font-size="20" fill="black">14:30</text><text x="1808" y="1040" text-anchor="middle" font-size="20" fill="black">15:00</text><text x="1880" y="1040" text-anchor="middle" font-size="20" fill="black">15:30</text><text x="1942" y="50" text-anchor="end" font-size="40" fill="#26a69a" font-weight="bold"> +0.66% (Mon)</text></svg>