<svg xmlns="http://www.w3.org/2000/svg" width="1992" height="1050"><rect width="100%" height="100%" fill="white"/><text x="42" y="854.0" text-anchor="end" font-size="20" fill="black">439</text><text x="42" y="654.0" text-anchor="end" font-size="20" fill="black">440</text><text x="42" y="454.0" text-anchor="end" font-size="20" fill="black">441</text><text x="42" y="254.0" text-anchor="end" font-size="20" fill="black">442</text><text x="42" y="54.0" text-anchor="end" font-size="20" fill="black">443</text><line x1="80" y1="525.4172079999989" x2="80" y2="749.2445360000033" stroke="#ef5350" stroke-width="2"/><rect x="76" y="547.2057100000029" width="8" height="106.96173200000203" fill="#ef5350"/><line x1="92" y1="543.2441639999979" x2="92" y2="707.6483080000003" stroke="#26a69a" stroke-width="2"/><rect x="88" y="584.840392000001" width="8" height="73.28859399999601" fill="#26a69a"/><line x1="104" y1="505.60947999999826" x2="104" y2="616.5327580000053" stroke="#26a69a" stroke-width="2"/><rect x="100" y="525.4172079999989" width="8" height="57.44241200000033" fill="#26a69a"/><line x1="116" y1="428.35933999999725" x2="116" y2="549.1864820000046" stroke="#26a69a" stroke-width="2"/><rect x="112" y="483.82097800000565" width="8" height="39.61545799999158" fill="#26a69a"/><line x1="128" y1="400.62851999999793" x2="128" y2="477.87865999999894" stroke="#26a69a" stroke-width="2"/><rect x="124" y="426.3785660000053" width="8" height="45.557775999998285" fill="#26a69a"/><line x1="140" y1="384.78233800000226" x2="140" y2="509.57102600000326" stroke="#ef5350" stroke-width="2"/><rect x="136" y="424.3977940000036" width="8" height="75.2693679999993" fill="#ef5350"/><line x1="152" y1="378.84001999999555" x2="152" y2="499.6671620000029" stroke="#26a69a" stroke-width="2"/><rect x="148" y="410.5323839999983" width="8" height="85.17323199999964" fill="#26a69a"/><line x1="164" y1="398.6477479999962" x2="164" y2="568.9942100000053" stroke="#ef5350" stroke-width="2"/><rect x="160" y="414.4939300000033" width="8" height="138.65409799999497" fill="#ef5350"/><line x1="176" y1="547.2057100000029" x2="176" y2="658.128985999997" stroke="#ef5350" stroke-width="2"/><rect x="172" y="555.1288" width="8" height="43.57700199999499" fill="#ef5350"/><line x1="188" y1="574.9365280000006" x2="188" y2="664.0713060000053" stroke="#26a69a" stroke-width="2"/><rect x="184" y="574.9365280000006" width="8" height="35.653911999997945" fill="#26a69a"/><line x1="200" y1="577.9076880000048" x2="200" y2="677.9367159999993" stroke="#ef5350" stroke-width="2"/><rect x="196" y="582.8596199999993" width="8" height="49.5193200000017" fill="#ef5350"/><line x1="212" y1="570.9749819999956" x2="212" y2="636.3404859999946" stroke="#26a69a" stroke-width="2"/><rect x="208" y="608.6096659999953" width="8" height="17.82695600001034" fill="#26a69a"/><line x1="224" y1="561.0711179999953" x2="224" y2="638.3212579999963" stroke="#26a69a" stroke-width="2"/><rect x="220" y="574.9365280000006" width="8" height="31.692366000004313" fill="#26a69a"/><line x1="236" y1="493.7248419999946" x2="236" y2="574.9365280000006" stroke="#26a69a" stroke-width="2"/><rect x="232" y="543.2441639999979" width="8" height="31.692364000002726" fill="#26a69a"/><line x1="248" y1="499.6671620000029" x2="248" y2="602.667348" stroke="#26a69a" stroke-width="2"/><rect x="244" y="507.59025199999996" width="8" height="31.692366000004313" fill="#26a69a"/><line x1="260" y1="489.7632980000026" x2="260" y2="565.0326640000003" stroke="#ef5350" stroke-width="2"/><rect x="256" y="503.62870599999496" width="8" height="7.923092000010001" fill="#ef5350"/><line x1="272" y1="483.82097800000565" x2="272" y2="570.9749819999956" stroke="#ef5350" stroke-width="2"/><rect x="268" y="509.57102600000326" width="8" height="31.692363999991358" fill="#ef5350"/><line x1="284" y1="513.5325719999969" x2="284" y2="568.9942100000053" stroke="#26a69a" stroke-width="2"/><rect x="280" y="537.301844000001" width="8" height="5.942319999996926" fill="#26a69a"/><line x1="296" y1="519.4748900000036" x2="296" y2="590.7827119999979" stroke="#ef5350" stroke-width="2"/><rect x="292" y="535.3210719999993" width="8" height="19.80772800000068" fill="#ef5350"/><line x1="308" y1="495.7056159999979" x2="308" y2="620.4943039999989" stroke="#ef5350" stroke-width="2"/><rect x="304" y="553.1480279999982" width="8" height="29.71159200000102" fill="#ef5350"/><line x1="320" y1="568.9942100000053" x2="320" y2="624.4558500000039" stroke="#26a69a" stroke-width="2"/><rect x="316" y="568.9942100000053" width="8" height="15.846181999995679" fill="#26a69a"/><line x1="332" y1="529.3787540000039" x2="332" y2="592.7634839999996" stroke="#26a69a" stroke-width="2"/><rect x="328" y="537.301844000001" width="8" height="31.692366000004313" fill="#26a69a"/><line x1="344" y1="519.4748900000036" x2="344" y2="572.9557559999989" stroke="#26a69a" stroke-width="2"/><rect x="340" y="525.4172079999989" width="8" height="11.884636000002047" fill="#26a69a"/><line x1="356" y1="515.5133439999986" x2="356" y2="561.0711179999953" stroke="#26a69a" stroke-width="2"/><rect x="352" y="525.4172079999989" width="8" height="2" fill="#26a69a"/><line x1="368" y1="489.961373999995" x2="368" y2="567.0134380000036" stroke="#ef5350" stroke-width="2"/><rect x="364" y="525.4172079999989" width="8" height="27.730819999999312" fill="#ef5350"/><line x1="380" y1="551.167253999995" x2="380" y2="618.5135299999956" stroke="#ef5350" stroke-width="2"/><rect x="376" y="551.167253999995" width="8" height="57.44241200000033" fill="#ef5350"/><line x1="392" y1="576.9173020000039" x2="392" y2="626.4366220000056" stroke="#ef5350" stroke-width="2"/><rect x="388" y="608.6096659999953" width="8" height="15.846184000008634" fill="#ef5350"/><line x1="404" y1="529.3787540000039" x2="404" y2="634.3597140000043" stroke="#26a69a" stroke-width="2"/><rect x="400" y="533.3402999999976" width="8" height="93.09632200000806" fill="#26a69a"/><line x1="416" y1="508.5806400000024" x2="416" y2="549.1864820000046" stroke="#26a69a" stroke-width="2"/><rect x="412" y="515.5133439999986" width="8" height="15.846182000007047" fill="#26a69a"/><line x1="428" y1="495.7056159999979" x2="428" y2="537.301844000001" stroke="#26a69a" stroke-width="2"/><rect x="424" y="505.60947999999826" width="8" height="7.923091999998633" fill="#26a69a"/><line x1="440" y1="499.6671620000029" x2="440" y2="568.0038240000044" stroke="#ef5350" stroke-width="2"/><rect x="436" y="505.60947999999826" width="8" height="55.46163799999704" fill="#ef5350"/><line x1="452" y1="559.090346000005" x2="452" y2="677.9367159999993" stroke="#ef5350" stroke-width="2"/><rect x="448" y="561.0711179999953" width="8" height="75.2693679999993" fill="#ef5350"/><line x1="464" y1="614.551984000002" x2="464" y2="650.2058959999999" stroke="#ef5350" stroke-width="2"/><rect x="460" y="634.3597140000043" width="8" height="7.923089999997046" fill="#ef5350"/><line x1="476" y1="614.551984000002" x2="476" y2="666.0520779999956" stroke="#ef5350" stroke-width="2"/><rect x="472" y="636.3404859999946" width="8" height="23.76927400000568" fill="#ef5350"/><line x1="488" y1="636.3404859999946" x2="488" y2="703.6867619999953" stroke="#ef5350" stroke-width="2"/><rect x="484" y="656.1482139999953" width="8" height="19.80772800000068" fill="#ef5350"/><line x1="500" y1="602.667348" x2="500" y2="695.7636699999966" stroke="#26a69a" stroke-width="2"/><rect x="496" y="606.628894000005" width="8" height="75.26936599999772" fill="#26a69a"/><line x1="512" y1="600.6865759999982" x2="512" y2="681.8982600000027" stroke="#ef5350" stroke-width="2"/><rect x="508" y="604.6481200000017" width="8" height="49.519322000003285" fill="#ef5350"/><line x1="524" y1="622.4750760000006" x2="524" y2="683.8790339999946" stroke="#ef5350" stroke-width="2"/><rect x="520" y="656.1482139999953" width="8" height="7.923092000010001" fill="#ef5350"/><line x1="536" y1="630.3981679999993" x2="536" y2="673.9751700000056" stroke="#26a69a" stroke-width="2"/><rect x="532" y="668.0328519999989" width="8" height="3.961544000003414" fill="#26a69a"/><line x1="548" y1="626.4366220000056" x2="548" y2="681.8982600000027" stroke="#ef5350" stroke-width="2"/><rect x="544" y="666.0520779999956" width="8" height="2" fill="#ef5350"/><line x1="560" y1="630.3981679999993" x2="560" y2="677.9367159999993" stroke="#26a69a" stroke-width="2"/><rect x="556" y="634.3597140000043" width="8" height="33.67313799999465" fill="#26a69a"/><line x1="572" y1="632.378940000001" x2="572" y2="685.6617300000039" stroke="#ef5350" stroke-width="2"/><rect x="568" y="634.3597140000043" width="8" height="5.942317999995339" fill="#ef5350"/><line x1="584" y1="640.3020319999996" x2="584" y2="723.494489999996" stroke="#ef5350" stroke-width="2"/><rect x="580" y="640.3020319999996" width="8" height="45.5577739999967" fill="#ef5350"/><line x1="596" y1="628.417393999996" x2="596" y2="685.8598059999963" stroke="#26a69a" stroke-width="2"/><rect x="592" y="650.2058959999999" width="8" height="35.65390999999636" fill="#26a69a"/><line x1="608" y1="652.1866680000016" x2="608" y2="735.379125999998" stroke="#ef5350" stroke-width="2"/><rect x="604" y="654.1674420000049" width="8" height="49.51931999999033" fill="#ef5350"/><line x1="620" y1="685.8598059999963" x2="620" y2="755.1868560000003" stroke="#26a69a" stroke-width="2"/><rect x="616" y="689.8213520000013" width="8" height="13.865409999993972" fill="#26a69a"/><line x1="632" y1="681.8982600000027" x2="632" y2="735.379125999998" stroke="#ef5350" stroke-width="2"/><rect x="628" y="696.7540559999975" width="8" height="14.85579800000778" fill="#ef5350"/><line x1="644" y1="695.7636699999966" x2="644" y2="734.3887399999971" stroke="#26a69a" stroke-width="2"/><rect x="640" y="709.629080000002" width="8" height="2" fill="#26a69a"/><line x1="656" y1="705.667533999997" x2="656" y2="737.3599000000013" stroke="#ef5350" stroke-width="2"/><rect x="652" y="713.5906259999956" width="8" height="11.884636000002047" fill="#ef5350"/><line x1="668" y1="658.128985999997" x2="668" y2="739.340672000003" stroke="#26a69a" stroke-width="2"/><rect x="664" y="664.0713060000053" width="8" height="61.40395599999238" fill="#26a69a"/><line x1="680" y1="662.090532000002" x2="680" y2="701.7059900000049" stroke="#ef5350" stroke-width="2"/><rect x="676" y="662.090532000002" width="8" height="7.923091999998633" fill="#ef5350"/><line x1="692" y1="630.3981679999993" x2="692" y2="685.8598059999963" stroke="#26a69a" stroke-width="2"/><rect x="688" y="642.2828040000013" width="8" height="23.76927399999431" fill="#26a69a"/><line x1="704" y1="628.417393999996" x2="704" y2="701.7059900000049" stroke="#ef5350" stroke-width="2"/><rect x="700" y="644.2635780000046" width="8" height="51.50009199999204" fill="#ef5350"/><line x1="716" y1="656.1482139999953" x2="716" y2="693.7828979999949" stroke="#26a69a" stroke-width="2"/><rect x="712" y="683.8790339999946" width="8" height="3.9615460000050007" fill="#26a69a"/><line x1="728" y1="675.955941999996" x2="728" y2="773.0138099999976" stroke="#ef5350" stroke-width="2"/><rect x="724" y="679.917488000001" width="8" height="47.53854799999999" fill="#ef5350"/><line x1="740" y1="638.3212579999963" x2="740" y2="741.3214459999949" stroke="#26a69a" stroke-width="2"/><rect x="736" y="659.1193739999994" width="8" height="80.22129800000357" fill="#26a69a"/><line x1="752" y1="632.378940000001" x2="752" y2="673.9751700000056" stroke="#26a69a" stroke-width="2"/><rect x="748" y="644.2635780000046" width="8" height="16.836567999996532" fill="#26a69a"/><line x1="764" y1="629.4077819999984" x2="764" y2="691.802124000003" stroke="#ef5350" stroke-width="2"/><rect x="760" y="644.2635780000046" width="8" height="46.54815999999755" fill="#ef5350"/><line x1="776" y1="652.1866680000016" x2="776" y2="693.7828979999949" stroke="#26a69a" stroke-width="2"/><rect x="772" y="679.917488000001" width="8" height="11.884636000002047" fill="#26a69a"/><line x1="788" y1="648.2251219999966" x2="788" y2="695.7636699999966" stroke="#26a69a" stroke-width="2"/><rect x="784" y="656.1482139999953" width="8" height="23.76927400000568" fill="#26a69a"/><line x1="800" y1="642.2828040000013" x2="800" y2="679.917488000001" stroke="#ef5350" stroke-width="2"/><rect x="796" y="650.2058959999999" width="8" height="21.788500000002387" fill="#ef5350"/><line x1="812" y1="652.1866680000016" x2="812" y2="691.802124000003" stroke="#26a69a" stroke-width="2"/><rect x="808" y="669.0232379999998" width="8" height="2" fill="#26a69a"/><line x1="824" y1="670.0136240000006" x2="824" y2="765.0907200000006" stroke="#ef5350" stroke-width="2"/><rect x="820" y="673.9751700000056" width="8" height="65.36550199999738" fill="#ef5350"/><line x1="836" y1="650.2058959999999" x2="836" y2="755.1868560000003" stroke="#26a69a" stroke-width="2"/><rect x="832" y="662.090532000002" width="8" height="80.22129999999379" fill="#26a69a"/><line x1="848" y1="624.4558500000039" x2="848" y2="675.955941999996" stroke="#26a69a" stroke-width="2"/><rect x="844" y="632.378940000001" width="8" height="23.76927399999431" fill="#26a69a"/><line x1="860" y1="499.6671620000029" x2="860" y2="642.2828040000013" stroke="#26a69a" stroke-width="2"/><rect x="856" y="533.3402999999976" width="8" height="99.0386400000034" fill="#26a69a"/><line x1="872" y1="475.89788799999724" x2="872" y2="604.6481200000017" stroke="#ef5350" stroke-width="2"/><rect x="868" y="527.3979800000006" width="8" height="77.25014000000101" fill="#ef5350"/><line x1="884" y1="569.9845959999948" x2="884" y2="650.2058959999999" stroke="#26a69a" stroke-width="2"/><rect x="880" y="572.9557559999989" width="8" height="23.76927400000568" fill="#26a69a"/><line x1="896" y1="531.3595260000056" x2="896" y2="592.7634839999996" stroke="#ef5350" stroke-width="2"/><rect x="892" y="568.0038240000044" width="8" height="4.9519319999944855" fill="#ef5350"/><line x1="908" y1="515.5133439999986" x2="908" y2="582.8596199999993" stroke="#26a69a" stroke-width="2"/><rect x="904" y="523.4364359999972" width="8" height="41.596228000003066" fill="#26a69a"/><line x1="920" y1="519.4748900000036" x2="920" y2="561.0711179999953" stroke="#26a69a" stroke-width="2"/><rect x="916" y="522.4460479999948" width="8" height="2" fill="#26a69a"/><line x1="932" y1="483.82097800000565" x2="932" y2="547.2057100000029" stroke="#ef5350" stroke-width="2"/><rect x="928" y="521.4556620000053" width="8" height="5.942317999995339" fill="#ef5350"/><line x1="944" y1="491.7440700000043" x2="944" y2="578.8980740000056" stroke="#ef5350" stroke-width="2"/><rect x="940" y="526.4075939999998" width="8" height="30.70198000000346" fill="#ef5350"/><line x1="956" y1="541.2633899999946" x2="956" y2="626.4366220000056" stroke="#ef5350" stroke-width="2"/><rect x="952" y="558.0999600000041" width="8" height="36.64429599999721" fill="#ef5350"/><line x1="968" y1="553.1480279999982" x2="968" y2="616.5327580000053" stroke="#26a69a" stroke-width="2"/><rect x="964" y="566.0230500000011" width="8" height="30.70198000000346" fill="#26a69a"/><line x1="980" y1="557.1095740000032" x2="980" y2="630.3981679999993" stroke="#ef5350" stroke-width="2"/><rect x="976" y="566.0230500000011" width="8" height="42.58661599999414" fill="#ef5350"/><line x1="992" y1="553.1480279999982" x2="992" y2="652.1866680000016" stroke="#ef5350" stroke-width="2"/><rect x="988" y="612.5712120000003" width="8" height="9.90386400000034" fill="#ef5350"/><line x1="1004" y1="549.1864820000046" x2="1004" y2="739.340672000003" stroke="#ef5350" stroke-width="2"/><rect x="1000" y="614.551984000002" width="8" height="93.09632399999828" fill="#ef5350"/><line x1="1016" y1="269.8975140000016" x2="1016" y2="594.7442560000013" stroke="#26a69a" stroke-width="2"/><rect x="1012" y="277.8206060000002" width="8" height="233.73119200000474" fill="#26a69a"/><line x1="1028" y1="55.97404999999753" x2="1028" y2="275.83983199999693" stroke="#26a69a" stroke-width="2"/><rect x="1024" y="71.82023200000458" width="8" height="204.01959999999235" fill="#26a69a"/><line x1="1040" y1="14.377820000004249" x2="1040" y2="111.43568799999457" stroke="#ef5350" stroke-width="2"/><rect x="1036" y="59.93559600000253" width="8" height="33.67313799999465" fill="#ef5350"/><line x1="1052" y1="6.454728000005616" x2="1052" y2="155.01269000000093" stroke="#ef5350" stroke-width="2"/><rect x="1048" y="91.62796000000526" width="8" height="3.961545999993632" fill="#ef5350"/><line x1="1064" y1="52.0125040000039" x2="1064" y2="125.30109799999991" stroke="#26a69a" stroke-width="2"/><rect x="1060" y="65.87791399999787" width="8" height="29.71159200000102" fill="#26a69a"/><line x1="1076" y1="22.30091200000288" x2="1076" y2="123.3203259999982" stroke="#ef5350" stroke-width="2"/><rect x="1072" y="59.93559600000253" width="8" height="41.596228000003066" fill="#ef5350"/><line x1="1088" y1="20.320137999999588" x2="1088" y2="283.76292399999556" stroke="#ef5350" stroke-width="2"/><rect x="1084" y="115.39723399999957" width="8" height="156.48105200000373" fill="#ef5350"/><line x1="1100" y1="119.35878000000457" x2="1100" y2="285.74369599999727" stroke="#26a69a" stroke-width="2"/><rect x="1096" y="144.91074999999682" width="8" height="124.98676400000477" fill="#26a69a"/><line x1="1112" y1="99.55105200000389" x2="1112" y2="172.8396459999999" stroke="#26a69a" stroke-width="2"/><rect x="1108" y="109.45491600000423" width="8" height="31.692363999991358" fill="#26a69a"/><line x1="1124" y1="85.68564199999855" x2="1124" y2="398.6477479999962" stroke="#ef5350" stroke-width="2"/><rect x="1120" y="107.47414200000094" width="8" height="287.21206000000166" fill="#ef5350"/><line x1="1136" y1="285.74369599999727" x2="1136" y2="436.2824319999959" stroke="#26a69a" stroke-width="2"/><rect x="1132" y="291.88409199999796" width="8" height="98.84056399999963" fill="#26a69a"/><line x1="1148" y1="259.99365000000125" x2="1148" y2="351.10919999999624" stroke="#ef5350" stroke-width="2"/><rect x="1144" y="289.7052420000023" width="8" height="55.461639999998624" fill="#ef5350"/><line x1="1160" y1="307.53219800000124" x2="1160" y2="440.2439759999993" stroke="#ef5350" stroke-width="2"/><rect x="1156" y="341.2053359999959" width="8" height="21.788500000002387" fill="#ef5350"/><line x1="1172" y1="359.03229199999487" x2="1172" y2="598.705801999995" stroke="#ef5350" stroke-width="2"/><rect x="1168" y="362.9938359999983" width="8" height="196.09651000000667" fill="#ef5350"/><line x1="1184" y1="456.09015999999656" x2="1184" y2="580.878845999996" stroke="#26a69a" stroke-width="2"/><rect x="1180" y="483.82097800000565" width="8" height="77.25013999998964" fill="#26a69a"/><line x1="1196" y1="469.9555700000019" x2="1196" y2="557.1095740000032" stroke="#ef5350" stroke-width="2"/><rect x="1192" y="483.82097800000565" width="8" height="39.61545799999158" fill="#ef5350"/><line x1="1208" y1="523.4364359999972" x2="1208" y2="656.1482139999953" stroke="#ef5350" stroke-width="2"/><rect x="1204" y="523.4364359999972" width="8" height="97.05786800000169" fill="#ef5350"/><line x1="1220" y1="572.9557559999989" x2="1220" y2="652.1866680000016" stroke="#26a69a" stroke-width="2"/><rect x="1216" y="580.878845999996" width="8" height="35.65391200000931" fill="#26a69a"/><line x1="1232" y1="576.9173020000039" x2="1232" y2="670.0136240000006" stroke="#ef5350" stroke-width="2"/><rect x="1228" y="580.878845999996" width="8" height="13.86541000000534" fill="#ef5350"/><line x1="1244" y1="551.167253999995" x2="1244" y2="664.0713060000053" stroke="#ef5350" stroke-width="2"/><rect x="1240" y="594.7442560000013" width="8" height="19.80772800000068" fill="#ef5350"/><line x1="1256" y1="614.551984000002" x2="1256" y2="713.5906259999956" stroke="#ef5350" stroke-width="2"/><rect x="1252" y="614.551984000002" width="8" height="71.3078219999943" fill="#ef5350"/><line x1="1268" y1="685.8598059999963" x2="1268" y2="834.417768000003" stroke="#ef5350" stroke-width="2"/><rect x="1264" y="687.8405799999996" width="8" height="83.19245799999635" fill="#ef5350"/><line x1="1280" y1="689.8213520000013" x2="1280" y2="848.283177999997" stroke="#26a69a" stroke-width="2"/><rect x="1276" y="725.4752619999977" width="8" height="55.461639999998624" fill="#26a69a"/><line x1="1292" y1="634.3597140000043" x2="1292" y2="733.3983539999963" stroke="#26a69a" stroke-width="2"/><rect x="1288" y="634.3597140000043" width="8" height="91.1155479999934" fill="#26a69a"/><line x1="1304" y1="630.3981679999993" x2="1304" y2="689.8213520000013" stroke="#ef5350" stroke-width="2"/><rect x="1300" y="640.3020319999996" width="8" height="49.5193200000017" fill="#ef5350"/><line x1="1316" y1="608.6096659999953" x2="1316" y2="721.5137180000056" stroke="#ef5350" stroke-width="2"/><rect x="1312" y="687.8405799999996" width="8" height="23.76927400000568" fill="#ef5350"/><line x1="1328" y1="668.0328519999989" x2="1328" y2="735.379125999998" stroke="#26a69a" stroke-width="2"/><rect x="1324" y="670.0136240000006" width="8" height="45.5577739999967" fill="#26a69a"/><line x1="1340" y1="636.3404859999946" x2="1340" y2="745.2829919999999" stroke="#26a69a" stroke-width="2"/><rect x="1336" y="644.2635780000046" width="8" height="25.75004599999602" fill="#26a69a"/><line x1="1352" y1="644.2635780000046" x2="1352" y2="852.244724000002" stroke="#ef5350" stroke-width="2"/><rect x="1348" y="645.2539640000055" width="8" height="183.22148599999082" fill="#ef5350"/><line x1="1364" y1="780.9369019999963" x2="1364" y2="868.0909059999976" stroke="#ef5350" stroke-width="2"/><rect x="1360" y="826.4946760000043" width="8" height="27.730819999999312" fill="#ef5350"/><line x1="1376" y1="727.456036000001" x2="1376" y2="897.8024979999986" stroke="#26a69a" stroke-width="2"/><rect x="1372" y="729.4368080000027" width="8" height="120.827141999996" fill="#26a69a"/><line x1="1388" y1="626.4366220000056" x2="1388" y2="739.1425959999992" stroke="#26a69a" stroke-width="2"/><rect x="1384" y="652.1866680000016" width="8" height="77.25014000000101" fill="#26a69a"/><line x1="1400" y1="624.4558500000039" x2="1400" y2="683.8790339999946" stroke="#26a69a" stroke-width="2"/><rect x="1396" y="638.3212579999963" width="8" height="17.826955999998972" fill="#26a69a"/><line x1="1412" y1="594.7442560000013" x2="1412" y2="644.2635780000046" stroke="#26a69a" stroke-width="2"/><rect x="1408" y="632.378940000001" width="8" height="9.90386400000034" fill="#26a69a"/><line x1="1424" y1="604.6481200000017" x2="1424" y2="666.0520779999956" stroke="#ef5350" stroke-width="2"/><rect x="1420" y="626.4366220000056" width="8" height="19.80772799998931" fill="#ef5350"/><line x1="1436" y1="602.667348" x2="1436" y2="652.3847459999956" stroke="#26a69a" stroke-width="2"/><rect x="1432" y="610.5904399999986" width="8" height="37.634681999998065" fill="#26a69a"/><line x1="1448" y1="565.0326640000003" x2="1448" y2="612.5712120000003" stroke="#26a69a" stroke-width="2"/><rect x="1444" y="584.840392000001" width="8" height="25.750047999997605" fill="#26a69a"/><line x1="1460" y1="559.090346000005" x2="1460" y2="630.3981679999993" stroke="#ef5350" stroke-width="2"/><rect x="1456" y="582.8596199999993" width="8" height="15.846181999995679" fill="#ef5350"/><line x1="1472" y1="551.167253999995" x2="1472" y2="598.705801999995" stroke="#26a69a" stroke-width="2"/><rect x="1468" y="555.1288" width="8" height="43.57700199999499" fill="#26a69a"/><line x1="1484" y1="538.2922320000034" x2="1484" y2="612.5712120000003" stroke="#ef5350" stroke-width="2"/><rect x="1480" y="553.1480279999982" width="8" height="35.65390999999636" fill="#ef5350"/><line x1="1496" y1="545.2249359999996" x2="1496" y2="593.7538700000005" stroke="#ef5350" stroke-width="2"/><rect x="1492" y="586.8211660000043" width="8" height="2" fill="#ef5350"/><line x1="1508" y1="588.8019379999946" x2="1508" y2="652.1866680000016" stroke="#ef5350" stroke-width="2"/><rect x="1504" y="588.8019379999946" width="8" height="51.50009400000499" fill="#ef5350"/><line x1="1520" y1="630.3981679999993" x2="1520" y2="673.9751700000056" stroke="#ef5350" stroke-width="2"/><rect x="1516" y="642.2828040000013" width="8" height="11.884638000003633" fill="#ef5350"/><line x1="1532" y1="624.4558500000039" x2="1532" y2="713.5906259999956" stroke="#ef5350" stroke-width="2"/><rect x="1528" y="654.1674420000049" width="8" height="29.71159199998965" fill="#ef5350"/><line x1="1544" y1="679.917488000001" x2="1544" y2="721.5137180000056" stroke="#ef5350" stroke-width="2"/><rect x="1540" y="691.802124000003" width="8" height="11.884637999992265" fill="#ef5350"/><line x1="1556" y1="679.917488000001" x2="1556" y2="737.3599000000013" stroke="#ef5350" stroke-width="2"/><rect x="1552" y="705.667533999997" width="8" height="31.692366000004313" fill="#ef5350"/><line x1="1568" y1="731.4175819999946" x2="1568" y2="842.3408600000016" stroke="#ef5350" stroke-width="2"/><rect x="1564" y="731.4175819999946" width="8" height="110.92327800000703" fill="#ef5350"/><line x1="1580" y1="725.4752619999977" x2="1580" y2="846.302404000005" stroke="#26a69a" stroke-width="2"/><rect x="1576" y="725.4752619999977" width="8" height="114.88482400000066" fill="#26a69a"/><line x1="1592" y1="711.6098540000053" x2="1592" y2="759.1484000000037" stroke="#ef5350" stroke-width="2"/><rect x="1588" y="725.4752619999977" width="8" height="31.692366000004313" fill="#ef5350"/><line x1="1604" y1="703.6867619999953" x2="1604" y2="757.167628000002" stroke="#26a69a" stroke-width="2"/><rect x="1600" y="739.340672000003" width="8" height="15.846183999997265" fill="#26a69a"/><line x1="1616" y1="656.1482139999953" x2="1616" y2="753.206081999997" stroke="#26a69a" stroke-width="2"/><rect x="1612" y="666.0520779999956" width="8" height="75.2693679999993" fill="#26a69a"/><line x1="1628" y1="658.128985999997" x2="1628" y2="705.667533999997" stroke="#ef5350" stroke-width="2"/><rect x="1624" y="666.250156000001" width="8" height="15.648104000001695" fill="#ef5350"/><line x1="1640" y1="658.128985999997" x2="1640" y2="757.167628000002" stroke="#ef5350" stroke-width="2"/><rect x="1636" y="685.8598059999963" width="8" height="25.750048000008974" fill="#ef5350"/><line x1="1652" y1="661.1001460000011" x2="1652" y2="705.667533999997" stroke="#26a69a" stroke-width="2"/><rect x="1648" y="666.0520779999956" width="8" height="39.61545600000136" fill="#26a69a"/><line x1="1664" y1="644.2635780000046" x2="1664" y2="683.8790339999946" stroke="#26a69a" stroke-width="2"/><rect x="1660" y="646.2443499999949" width="8" height="27.73082000001068" fill="#26a69a"/><line x1="1676" y1="650.2058959999999" x2="1676" y2="685.8598059999963" stroke="#ef5350" stroke-width="2"/><rect x="1672" y="652.1866680000016" width="8" height="13.865409999993972" fill="#ef5350"/><line x1="1688" y1="664.0713060000053" x2="1688" y2="727.456036000001" stroke="#ef5350" stroke-width="2"/><rect x="1684" y="668.0328519999989" width="8" height="43.57700200000636" fill="#ef5350"/><line x1="1700" y1="656.1482139999953" x2="1700" y2="721.5137180000056" stroke="#26a69a" stroke-width="2"/><rect x="1696" y="658.128985999997" width="8" height="53.480868000008286" fill="#26a69a"/><line x1="1712" y1="596.7250300000046" x2="1712" y2="683.8790339999946" stroke="#26a69a" stroke-width="2"/><rect x="1708" y="600.6865759999982" width="8" height="59.42318400000204" fill="#26a69a"/><line x1="1724" y1="594.7442560000013" x2="1724" y2="642.2828040000013" stroke="#ef5350" stroke-width="2"/><rect x="1720" y="598.705801999995" width="8" height="33.67313800000602" fill="#ef5350"/><line x1="1736" y1="592.7634839999996" x2="1736" y2="638.3212579999963" stroke="#26a69a" stroke-width="2"/><rect x="1732" y="610.5904399999986" width="8" height="27.730817999997726" fill="#26a69a"/><line x1="1748" y1="580.878845999996" x2="1748" y2="638.3212579999963" stroke="#26a69a" stroke-width="2"/><rect x="1744" y="592.7634839999996" width="8" height="17.826955999998972" fill="#26a69a"/><line x1="1760" y1="580.878845999996" x2="1760" y2="662.090532000002" stroke="#ef5350" stroke-width="2"/><rect x="1756" y="594.7442560000013" width="8" height="29.711594000002606" fill="#ef5350"/><line x1="1772" y1="598.705801999995" x2="1772" y2="636.3404859999946" stroke="#26a69a" stroke-width="2"/><rect x="1768" y="618.5135299999956" width="8" height="7.923092000010001" fill="#26a69a"/><line x1="1784" y1="582.8596199999993" x2="1784" y2="640.3020319999996" stroke="#26a69a" stroke-width="2"/><rect x="1780" y="610.5904399999986" width="8" height="5.942318000006708" fill="#26a69a"/><line x1="1796" y1="590.7827119999979" x2="1796" y2="674.9655559999951" stroke="#ef5350" stroke-width="2"/><rect x="1792" y="610.5904399999986" width="8" height="33.67313800000602" fill="#ef5350"/><line x1="1808" y1="626.4366220000056" x2="1808" y2="697.7444439999999" stroke="#26a69a" stroke-width="2"/><rect x="1804" y="632.378940000001" width="8" height="11.884638000003633" fill="#26a69a"/><line x1="1820" y1="559.090346000005" x2="1820" y2="630.3981679999993" stroke="#26a69a" stroke-width="2"/><rect x="1816" y="590.7827119999979" width="8" height="39.61545600000136" fill="#26a69a"/><line x1="1832" y1="574.9365280000006" x2="1832" y2="634.3597140000043" stroke="#ef5350" stroke-width="2"/><rect x="1828" y="588.8019379999946" width="8" height="23.76927400000568" fill="#ef5350"/><line x1="1844" y1="572.9557559999989" x2="1844" y2="640.3020319999996" stroke="#ef5350" stroke-width="2"/><rect x="1840" y="603.6577340000008" width="8" height="12.875024000004487" fill="#ef5350"/><line x1="1856" y1="565.0326640000003" x2="1856" y2="630.3981679999993" stroke="#26a69a" stroke-width="2"/><rect x="1852" y="602.667348" width="8" height="15.846181999995679" fill="#26a69a"/><line x1="1868" y1="594.7442560000013" x2="1868" y2="664.0713060000053" stroke="#ef5350" stroke-width="2"/><rect x="1864" y="596.7250300000046" width="8" height="45.5577739999967" fill="#ef5350"/><line x1="1880" y1="570.9749819999956" x2="1880" y2="658.128985999997" stroke="#26a69a" stroke-width="2"/><rect x="1876" y="588.8019379999946" width="8" height="51.50009400000499" fill="#26a69a"/><line x1="1892" y1="578.8980740000056" x2="1892" y2="691.802124000003" stroke="#ef5350" stroke-width="2"/><rect x="1888" y="586.8211660000043" width="8" height="95.0770939999984" fill="#ef5350"/><line x1="1904" y1="582.8596199999993" x2="1904" y2="679.917488000001" stroke="#26a69a" stroke-width="2"/><rect x="1900" y="588.8019379999946" width="8" height="91.11555000000635" fill="#26a69a"/><line x1="1916" y1="570.9749819999956" x2="1916" y2="622.4750760000006" stroke="#ef5350" stroke-width="2"/><rect x="1912" y="584.840392000001" width="8" height="32.6827519999938" fill="#ef5350"/><line x1="1928" y1="491.7440700000043" x2="1928" y2="642.2828040000013" stroke="#26a69a" stroke-width="2"/><rect x="1924" y="499.6671620000029" width="8" height="117.85598199999185" fill="#26a69a"/><line x1="1940" y1="428.35933999999725" x2="1940" y2="537.301844000001" stroke="#ef5350" stroke-width="2"/><rect x="1936" y="501.6479340000046" width="8" height="5.942317999995339" fill="#ef5350"/><rect x="75" y="986.7706187272006" width="10" height="33.2293812727994" fill="#ef5350" opacity="0.9"/><rect x="87" y="994.4397362352807" width="10" height="25.560263764719252" fill="#26a69a" opacity="0.9"/><rect x="99" y="998.2411590148752" width="10" height="21.758840985124834" fill="#26a69a" opacity="0.9"/><rect x="111" y="998.0770739221653" width="10" height="21.922926077834745" fill="#26a69a" opacity="0.9"/><rect x="123" y="996.4812312170412" width="10" height="23.518768782958773" fill="#26a69a" opacity="0.9"/><rect x="135" y="1002.1409265314609" width="10" height="17.859073468539123" fill="#ef5350" opacity="0.9"/><rect x="147" y="999.7202284196799" width="10" height="20.27977158032013" fill="#26a69a" opacity="0.9"/><rect x="159" y="999.8187503543954" width="10" height="20.181249645604566" fill="#ef5350" opacity="0.9"/><rect x="171" y="995.6230626382143" width="10" height="24.376937361785735" fill="#ef5350" opacity="0.9"/><rect x="183" y="999.9151459164194" width="10" height="20.08485408358058" fill="#26a69a" opacity="0.9"/><rect x="195" y="999.7969550343055" width="10" height="20.203044965694517" fill="#ef5350" opacity="0.9"/><rect x="207" y="1004.520337573478" width="10" height="15.479662426522054" fill="#26a69a" opacity="0.9"/><rect x="219" y="1002.2709896611035" width="10" height="17.7290103388965" fill="#26a69a" opacity="0.9"/><rect x="231" y="996.5439592114465" width="10" height="23.456040788553537" fill="#26a69a" opacity="0.9"/><rect x="243" y="1004.6252386262687" width="10" height="15.374761373731303" fill="#26a69a" opacity="0.9"/><rect x="255" y="1000.4734959457161" width="10" height="19.52650405428392" fill="#ef5350" opacity="0.9"/><rect x="267" y="999.6406666414653" width="10" height="20.35933335853474" fill="#ef5350" opacity="0.9"/><rect x="279" y="1002.1334842270398" width="10" height="17.866515772960156" fill="#26a69a" opacity="0.9"/><rect x="291" y="1001.9144678397944" width="10" height="18.085532160205616" fill="#ef5350" opacity="0.9"/><rect x="303" y="997.1967556277997" width="10" height="22.80324437220031" fill="#ef5350" opacity="0.9"/><rect x="315" y="1005.5913206191997" width="10" height="14.408679380800322" fill="#26a69a" opacity="0.9"/><rect x="327" y="1003.7800054813163" width="10" height="16.219994518683734" fill="#26a69a" opacity="0.9"/><rect x="339" y="1005.4848247868902" width="10" height="14.515175213109842" fill="#26a69a" opacity="0.9"/><rect x="351" y="1002.3764223070672" width="10" height="17.623577692932827" fill="#26a69a" opacity="0.9"/><rect x="363" y="1001.871763188236" width="10" height="18.128236811764054" fill="#ef5350" opacity="0.9"/><rect x="375" y="1004.3734406600261" width="10" height="15.626559339973937" fill="#ef5350" opacity="0.9"/><rect x="387" y="1005.9932050579318" width="10" height="14.006794942068154" fill="#ef5350" opacity="0.9"/><rect x="399" y="1003.1192351673692" width="10" height="16.880764832630803" fill="#26a69a" opacity="0.9"/><rect x="411" y="1000.4433723325836" width="10" height="19.556627667416365" fill="#26a69a" opacity="0.9"/><rect x="423" y="1000.9159586633149" width="10" height="19.084041336685118" fill="#26a69a" opacity="0.9"/><rect x="435" y="1005.1254678019922" width="10" height="14.874532198007842" fill="#ef5350" opacity="0.9"/><rect x="447" y="1001.6474308692611" width="10" height="18.352569130738857" fill="#ef5350" opacity="0.9"/><rect x="459" y="1006.2901884438733" width="10" height="13.709811556126738" fill="#ef5350" opacity="0.9"/><rect x="471" y="1005.2376339614796" width="10" height="14.76236603852044" fill="#ef5350" opacity="0.9"/><rect x="483" y="1003.2771183397282" width="10" height="16.72288166027181" fill="#ef5350" opacity="0.9"/><rect x="495" y="1000.5783969985068" width="10" height="19.421603001493168" fill="#26a69a" opacity="0.9"/><rect x="507" y="1005.6645032793392" width="10" height="14.335496720660785" fill="#ef5350" opacity="0.9"/><rect x="519" y="1003.2094288090423" width="10" height="16.790571190957735" fill="#ef5350" opacity="0.9"/><rect x="531" y="1007.1129174778384" width="10" height="12.887082522161563" fill="#26a69a" opacity="0.9"/><rect x="543" y="1004.184547885913" width="10" height="15.815452114086952" fill="#ef5350" opacity="0.9"/><rect x="555" y="1002.3363756213733" width="10" height="17.66362437862665" fill="#26a69a" opacity="0.9"/><rect x="567" y="1002.5475953087494" width="10" height="17.45240469125065" fill="#ef5350" opacity="0.9"/><rect x="579" y="1002.8226061768764" width="10" height="17.177393823123566" fill="#ef5350" opacity="0.9"/><rect x="591" y="1006.4039493828794" width="10" height="13.596050617120568" fill="#26a69a" opacity="0.9"/><rect x="603" y="997.4471360122479" width="10" height="22.552863987752062" fill="#ef5350" opacity="0.9"/><rect x="615" y="1004.5669405749712" width="10" height="15.433059425028773" fill="#26a69a" opacity="0.9"/><rect x="627" y="1007.1988583741282" width="10" height="12.801141625871765" fill="#ef5350" opacity="0.9"/><rect x="639" y="1007.9400764549115" width="10" height="12.059923545088509" fill="#26a69a" opacity="0.9"/><rect x="651" y="1006.6151690702553" width="10" height="13.38483092974468" fill="#ef5350" opacity="0.9"/><rect x="663" y="1004.1163267620542" width="10" height="15.8836732379458" fill="#26a69a" opacity="0.9"/><rect x="675" y="1002.9335319522936" width="10" height="17.066468047706394" fill="#ef5350" opacity="0.9"/><rect x="687" y="1003.6150343999849" width="10" height="16.384965600015107" fill="#26a69a" opacity="0.9"/><rect x="699" y="1006.3451197384089" width="10" height="13.654880261591074" fill="#ef5350" opacity="0.9"/><rect x="711" y="1006.9720452870131" width="10" height="13.027954712986912" fill="#26a69a" opacity="0.9"/><rect x="723" y="1003.6947733759238" width="10" height="16.305226624076226" fill="#ef5350" opacity="0.9"/><rect x="735" y="1001.4225669571134" width="10" height="18.577433042886582" fill="#26a69a" opacity="0.9"/><rect x="747" y="1006.4826251724725" width="10" height="13.517374827527533" fill="#26a69a" opacity="0.9"/><rect x="759" y="1005.1421243880771" width="10" height="14.85787561192285" fill="#ef5350" opacity="0.9"/><rect x="771" y="1004.3442030355152" width="10" height="15.655796964484807" fill="#26a69a" opacity="0.9"/><rect x="783" y="1005.8241584289414" width="10" height="14.17584157105864" fill="#26a69a" opacity="0.9"/><rect x="795" y="1006.8113269510651" width="10" height="13.188673048934902" fill="#ef5350" opacity="0.9"/><rect x="807" y="1006.21027227021" width="10" height="13.789727729790002" fill="#26a69a" opacity="0.9"/><rect x="819" y="999.5502958020678" width="10" height="20.449704197932192" fill="#ef5350" opacity="0.9"/><rect x="831" y="997.9870574782165" width="10" height="22.012942521783543" fill="#26a69a" opacity="0.9"/><rect x="843" y="997.5580617876651" width="10" height="22.44193821233489" fill="#26a69a" opacity="0.9"/><rect x="855" y="989.2816876783791" width="10" height="30.718312321620942" fill="#26a69a" opacity="0.9"/><rect x="867" y="993.0643274991967" width="10" height="26.93567250080332" fill="#ef5350" opacity="0.9"/><rect x="879" y="993.6609522369441" width="10" height="26.339047763055873" fill="#26a69a" opacity="0.9"/><rect x="891" y="997.4972829682273" width="10" height="22.502717031772704" fill="#ef5350" opacity="0.9"/><rect x="903" y="998.2897111913358" width="10" height="21.710288808664245" fill="#26a69a" opacity="0.9"/><rect x="915" y="996.9508051864592" width="10" height="23.049194813540794" fill="#26a69a" opacity="0.9"/><rect x="927" y="996.1461503203735" width="10" height="23.853849679626478" fill="#ef5350" opacity="0.9"/><rect x="939" y="989.562368873684" width="10" height="30.437631126315978" fill="#ef5350" opacity="0.9"/><rect x="951" y="989.4849334681611" width="10" height="30.515066531838897" fill="#ef5350" opacity="0.9"/><rect x="963" y="988.4811083599524" width="10" height="31.518891640047627" fill="#26a69a" opacity="0.9"/><rect x="975" y="984.9555824371066" width="10" height="35.044417562893386" fill="#ef5350" opacity="0.9"/><rect x="987" y="945.525899219385" width="10" height="74.474100780615" fill="#ef5350" opacity="0.9"/><rect x="999" y="905.4271173946737" width="10" height="114.5728826053263" fill="#ef5350" opacity="0.9"/><rect x="1011" y="983.7389428620031" width="10" height="36.261057137996886" fill="#26a69a" opacity="0.9"/><rect x="1023" y="978.83499584176" width="10" height="41.16500415823998" fill="#26a69a" opacity="0.9"/><rect x="1035" y="974.4043439431455" width="10" height="45.59565605685452" fill="#ef5350" opacity="0.9"/><rect x="1047" y="977.2389759389117" width="10" height="42.76102406108828" fill="#ef5350" opacity="0.9"/><rect x="1059" y="991.559387226643" width="10" height="28.440612773356975" fill="#26a69a" opacity="0.9"/><rect x="1071" y="994.0989850114352" width="10" height="25.90101498856484" fill="#ef5350" opacity="0.9"/><rect x="1083" y="979.9738456158921" width="10" height="40.02615438410794" fill="#ef5350" opacity="0.9"/><rect x="1095" y="992.997878352581" width="10" height="27.002121647419017" fill="#26a69a" opacity="0.9"/><rect x="1107" y="1000.37125285879" width="10" height="19.628747141210056" fill="#26a69a" opacity="0.9"/><rect x="1119" y="992.4604376547527" width="10" height="27.539562345247305" fill="#ef5350" opacity="0.9"/><rect x="1131" y="985.0881263348895" width="10" height="34.911873665110534" fill="#26a69a" opacity="0.9"/><rect x="1143" y="997.5141167520366" width="10" height="22.485883247963443" fill="#ef5350" opacity="0.9"/><rect x="1155" y="998.551609427864" width="10" height="21.448390572135963" fill="#ef5350" opacity="0.9"/><rect x="1167" y="988.7401714328917" width="10" height="31.259828567108343" fill="#ef5350" opacity="0.9"/><rect x="1179" y="986.9944194530025" width="10" height="33.00558054699752" fill="#26a69a" opacity="0.9"/><rect x="1191" y="986.465484245941" width="10" height="33.53451575405904" fill="#ef5350" opacity="0.9"/><rect x="1203" y="989.7361998412308" width="10" height="30.263800158769186" fill="#ef5350" opacity="0.9"/><rect x="1215" y="984.8242789233939" width="10" height="35.17572107660612" fill="#26a69a" opacity="0.9"/><rect x="1227" y="992.0698938703763" width="10" height="27.93010612962371" fill="#ef5350" opacity="0.9"/><rect x="1239" y="996.849625285879" width="10" height="23.15037471412097" fill="#ef5350" opacity="0.9"/><rect x="1251" y="988.5790987014951" width="10" height="31.420901298504873" fill="#ef5350" opacity="0.9"/><rect x="1263" y="987.8382350161604" width="10" height="32.16176498383959" fill="#ef5350" opacity="0.9"/><rect x="1275" y="991.0586264577466" width="10" height="28.94137354225336" fill="#26a69a" opacity="0.9"/><rect x="1287" y="1000.0781678227834" width="10" height="19.92183217721663" fill="#26a69a" opacity="0.9"/><rect x="1299" y="993.7351980834294" width="10" height="26.264801916570605" fill="#ef5350" opacity="0.9"/><rect x="1311" y="1003.486566049861" width="10" height="16.51343395013896" fill="#ef5350" opacity="0.9"/><rect x="1323" y="1000.8721908254106" width="10" height="19.1278091745894" fill="#26a69a" opacity="0.9"/><rect x="1335" y="999.7032174381462" width="10" height="20.296782561853774" fill="#26a69a" opacity="0.9"/><rect x="1347" y="991.3439147938836" width="10" height="28.65608520611636" fill="#ef5350" opacity="0.9"/><rect x="1359" y="997.2424726406714" width="10" height="22.757527359328606" fill="#ef5350" opacity="0.9"/><rect x="1371" y="989.6119842364905" width="10" height="30.388015763509543" fill="#26a69a" opacity="0.9"/><rect x="1383" y="998.5902385317632" width="10" height="21.409761468236752" fill="#26a69a" opacity="0.9"/><rect x="1395" y="1001.4415271136145" width="10" height="18.558472886385516" fill="#26a69a" opacity="0.9"/><rect x="1407" y="1001.4477290339653" width="10" height="18.552270966034712" fill="#26a69a" opacity="0.9"/><rect x="1419" y="1001.3360944676508" width="10" height="18.66390553234919" fill="#ef5350" opacity="0.9"/><rect x="1431" y="1003.883134556864" width="10" height="16.11686544313602" fill="#26a69a" opacity="0.9"/><rect x="1443" y="1001.9015324059199" width="10" height="18.098467594080148" fill="#26a69a" opacity="0.9"/><rect x="1455" y="1002.3110363467972" width="10" height="17.68896365320279" fill="#ef5350" opacity="0.9"/><rect x="1467" y="1005.5044937342884" width="10" height="14.495506265711583" fill="#26a69a" opacity="0.9"/><rect x="1479" y="1002.4511997467254" width="10" height="17.548800253274635" fill="#ef5350" opacity="0.9"/><rect x="1491" y="1006.6853393690816" width="10" height="13.31466063091841" fill="#ef5350" opacity="0.9"/><rect x="1503" y="1001.1544668002343" width="10" height="18.84553319976567" fill="#ef5350" opacity="0.9"/><rect x="1515" y="1004.1492855387756" width="10" height="15.850714461224356" fill="#ef5350" opacity="0.9"/><rect x="1527" y="1002.4221393199388" width="10" height="17.577860680061235" fill="#ef5350" opacity="0.9"/><rect x="1539" y="1005.3283591963257" width="10" height="14.671640803674336" fill="#ef5350" opacity="0.9"/><rect x="1551" y="1004.5125408736084" width="10" height="15.487459126391627" fill="#ef5350" opacity="0.9"/><rect x="1563" y="1000.1812968983311" width="10" height="19.818703101668916" fill="#ef5350" opacity="0.9"/><rect x="1575" y="999.2791832838755" width="10" height="20.720816716124546" fill="#26a69a" opacity="0.9"/><rect x="1587" y="1004.4157909161358" width="10" height="15.584209083864152" fill="#ef5350" opacity="0.9"/><rect x="1599" y="1004.5672949704198" width="10" height="15.432705029580234" fill="#26a69a" opacity="0.9"/><rect x="1611" y="1003.7387184115523" width="10" height="16.261281588447673" fill="#26a69a" opacity="0.9"/><rect x="1623" y="1006.203361558962" width="10" height="13.796638441037999" fill="#ef5350" opacity="0.9"/><rect x="1635" y="1004.0298542725915" width="10" height="15.970145727408521" fill="#ef5350" opacity="0.9"/><rect x="1647" y="1006.7466497816924" width="10" height="13.25335021830756" fill="#26a69a" opacity="0.9"/><rect x="1659" y="1006.4429328822273" width="10" height="13.557067117772704" fill="#26a69a" opacity="0.9"/><rect x="1671" y="1006.131064887444" width="10" height="13.86893511255596" fill="#ef5350" opacity="0.9"/><rect x="1683" y="1004.534158995974" width="10" height="15.465841004025947" fill="#ef5350" opacity="0.9"/><rect x="1695" y="1005.6497958682216" width="10" height="14.350204131778355" fill="#26a69a" opacity="0.9"/><rect x="1707" y="1002.7272738011983" width="10" height="17.272726198801706" fill="#26a69a" opacity="0.9"/><rect x="1719" y="1003.7963076719527" width="10" height="16.203692328047282" fill="#ef5350" opacity="0.9"/><rect x="1731" y="1005.4052630086755" width="10" height="14.594736991324453" fill="#26a69a" opacity="0.9"/><rect x="1743" y="1002.8982696051562" width="10" height="17.1017303948438" fill="#26a69a" opacity="0.9"/><rect x="1755" y="1002.9581624359726" width="10" height="17.041837564027446" fill="#ef5350" opacity="0.9"/><rect x="1767" y="1006.185641786531" width="10" height="13.81435821346895" fill="#26a69a" opacity="0.9"/><rect x="1779" y="1004.0815960080897" width="10" height="15.918403991910282" fill="#26a69a" opacity="0.9"/><rect x="1791" y="1005.2351531933392" width="10" height="14.764846806660785" fill="#ef5350" opacity="0.9"/><rect x="1803" y="1003.0148657077514" width="10" height="16.98513429224863" fill="#26a69a" opacity="0.9"/><rect x="1815" y="1000.2369369837639" width="10" height="19.76306301623606" fill="#26a69a" opacity="0.9"/><rect x="1827" y="1005.5831695238816" width="10" height="14.416830476118434" fill="#ef5350" opacity="0.9"/><rect x="1839" y="1004.1880918403992" width="10" height="15.811908159600762" fill="#ef5350" opacity="0.9"/><rect x="1851" y="1004.0280822953484" width="10" height="15.97191770465156" fill="#26a69a" opacity="0.9"/><rect x="1863" y="1004.5416013003951" width="10" height="15.458398699604913" fill="#ef5350" opacity="0.9"/><rect x="1875" y="1002.2826847109078" width="10" height="17.7173152890922" fill="#26a69a" opacity="0.9"/><rect x="1887" y="999.4072972385507" width="10" height="20.592702761449345" fill="#ef5350" opacity="0.9"/><rect x="1899" y="1002.3259209556392" width="10" height="17.674079044360838" fill="#26a69a" opacity="0.9"/><rect x="1911" y="1003.1982653524109" width="10" height="16.801734647589115" fill="#ef5350" opacity="0.9"/><rect x="1923" y="993.4899564329862" width="10" height="26.51004356701378" fill="#26a69a" opacity="0.9"/><rect x="1935" y="860.0" width="10" height="160.0" fill="#ef5350" opacity="0.9"/><rect x="1004" y="511.55179800000496" width="12" height="196.0965099999953" fill="#00ff00" opacity="0.50"/><polyline points="320,547.5782827333319,332,546.5995742825385,344,544.5822060651608,356,542.7569681541968,368,543.7465929014138,380,549.9240284346115,392,557.0222971551289,404,554.7668688546423,416,551.0284379161021,428,546.7028228764775,440,548.0712319358531,452,556.4778275610138,464,564.6497300790202,476,573.7411615000724,488,583.4759025000608,500,585.6809493095739,512,592.2034724229547,524,599.0480280017209,536,605.6180112396532,548,611.5622817882581,560,613.7334658084342,572,616.2638054457261,584,622.8919959747145,596,625.4933197866421,608,632.9403142831552,620,638.3575559704695,632,645.3339653066109,644,651.4573095631249,656,658.5066383666344,668,659.0366067126638,680,660.0820369304984,692,658.3868718895019,704,661.9465669476426,716,664.0353733335814,728,670.0754364446652,740,669.0320019261208,752,666.6731044093467,764,668.9720218941716,776,670.0144472375882,788,668.6938535959143,800,669.0081909677247,812,669.0096240184175,824,675.7078190642801,836,674.4109345819766,848,670.4078874789275,860,657.3538315285532,872,652.3342399544049,884,644.7743843397006,896,637.9345149740175,908,627.0299360241097,920,617.069565736108,932,608.529414713621,944,603.6322870266076,956,602.7858078812187,968,599.2845928449128,980,600.172695050162,992,602.2967313310915,1004,612.330214823362,1016,580.4721568401874,1028,532.0291163792149,1040,490.27479424786407,1052,452.6857191766453,1064,415.8468805883899,1076,385.91211329426187,1088,375.05174879004244,1100,353.13355842909004,1112,329.92606867393306,1124,336.0937004192692,1136,331.8832615221936,1148,333.14836823436735,1160,335.9907937358571,1172,357.23837014196533,1184,369.2938566046337,1196,383.9741022613339,1208,406.49983576024624,1220,423.1073605449865,1232,439.4537315407092,1244,456.1297555844476,1256,478.0088080049836,1268,505.91587752830947,1280,526.8262950970438,1292,537.067573087802,1304,551.6155520318193,1316,566.8531046002158,1328,576.677915971618,1340,583.1146456886017,1352,606.4823413373119,1364,630.0769274956679,1376,639.5397732579909,1388,640.7442394238956,1400,640.5134792882905,1412,639.7387612608327,1424,640.3583411407453,1436,637.5233029368701,1448,632.5058828476358,1460,629.2868275288129,1472,622.2241582403626,1484,619.0410896460435,1496,616.16117044166,1508,618.4603001138726,1520,621.860980293502,1532,627.7674615988758,1544,634.9978711608856,1556,644.7466358122256,1568,663.5651333539158,1580,669.4613360821108,1592,677.8143162647666,1604,683.673969191932,1616,681.9956938403152,1628,681.9864144269559,1640,684.8076943862907,1652,683.0214452066343,1664,679.518864710758,1676,678.2363135954483,1688,681.4147460149343,1700,679.1970545849381,1712,671.7198661482712,1724,667.9731112770128,1736,662.5080949649146,1748,655.865751063493,1760,652.874331914586,1772,649.6018745893934,1784,645.8864998665945,1796,645.7319358793029,1808,644.4602219860371,1820,639.3480781778521,1832,636.7979004466292,1844,634.8678868802835,1856,631.801168891684,1868,632.799419854382,1880,628.6091834872991,1892,633.6843336313677,1904,629.4098197617132,1916,628.277755403451,1928,616.0291274602628,1940,605.7016155116685" fill="none" stroke="#0090ff" stroke-width="2"/><line x1="80" y1="50" x2="80" y2="850" stroke="#666666" stroke-width="0.5" stroke-dasharray="4,4"/><line x1="152" y1="50" x2="152" y2="850" stroke="#666666" stroke-width="0.5" stroke-dasharray="4,4"/><line x1="224" y1="50" x2="224" y2="850" stroke="#666666" stroke-width="0.5" stroke-dasharray="4,4"/><line x1="296" y1="50" x2="296" y2="850" stroke="#666666" stroke-width="0.5" stroke-dasharray="4,4"/><line x1="368" y1="50" x2="368" y2="850" stroke="#666666" stroke-width="0.5" stroke-dasharray="4,4"/><line x1="440" y1="50" x2="440" y2="850" stroke="#666666" stroke-width="0.5" stroke-dasharray="4,4"/><line x1="512" y1="50" x2="512" y2="850" stroke="#666666" stroke-width="0.5" stroke-dasharray="4,4"/><line x1="584" y1="50" x2="584" y2="850" stroke="#666666" stroke-width="0.5" stroke-dasharray="4,4"/><line x1="656" y1="50" x2="656" y2="850" stroke="#666666" stroke-width="0.5" stroke-dasharray="4,4"/><line x1="728" y1="50" x2="728" y2="850" stroke="#666666" stroke-width="0.5" stroke-dasharray="4,4"/><line x1="800" y1="50" x2="800" y2="850" stroke="#666666" stroke-width="0.5" stroke-dasharray="4,4"/><line x1="872" y1="50" x2="872" y2="850" stroke="#666666" stroke-width="0.5" stroke-dasharray="4,4"/><line x1="944" y1="50" x2="944" y2="850" stroke="#666666" stroke-width="0.5" stroke-dasharray="4,4"/><line x1="1016" y1="50" x2="1016" y2="850" stroke="#666666" stroke-width="0.5" stroke-dasharray="4,4"/><line x1="1088" y1="50" x2="1088" y2="850" stroke="#666666" stroke-width="0.5" stroke-dasharray="4,4"/><line x1="1160" y1="50" x2="1160" y2="850" stroke="#666666" stroke-width="0.5" stroke-dasharray="4,4"/><line x1="1232" y1="50" x2="1232" y2="850" stroke="#666666" stroke-width="0.5" stroke-dasharray="4,4"/><line x1="1304" y1="50" x2="1304" y2="850" stroke="#666666" stroke-width="0.5" stroke-dasharray="4,4"/><line x1="1376" y1="50" x2="1376" y2="850" stroke="#666666" stroke-width="0.5" stroke-dasharray="4,4"/><line x1="1448" y1="50" x2="1448" y2="850" stroke="#666666" stroke-width="0.5" stroke-dasharray="4,4"/><line x1="1520" y1="50" x2="1520" y2="850" stroke="#666666" stroke-width="0.5" stroke-dasharray="4,4"/><line x1="1592" y1="50" x2="1592" y2="850" stroke="#666666" stroke-width="0.5" stroke-dasharray="4,4"/><line x1="1664" y1="50" x2="1664" y2="850" stroke="#666666" stroke-width="0.5" stroke-dasharray="4,4"/><line x1="1736" y1="50" x2="1736" y2="850" stroke="#666666" stroke-width="0.5" stroke-dasharray="4,4"/><line x1="1808" y1="50" x2="1808" y2="850" stroke="#666666" stroke-width="0.5" stroke-dasharray="4,4"/><line x1="1880" y1="50" x2="1880" y2="850" stroke="#666666" stroke-width="0.5" stroke-dasharray="4,4"/><text x="80" y="1040" text-anchor="middle" font-size="20" fill="black">09:30</text><text x="152" y="1040" text-anchor="middle" font-size="20" fill="black">10:00</text><text x="224" y="1040" text-anchor="middle" font-size="20" fill="black">10:30</text><text x="296" y="1040" text-anchor="middle" font-size="20" fill="black">11:00</text><text x="368" y="1040" text-anchor="middle" font-size="20" fill="black">11:30</text><text x="440" y="1040" text-anchor="middle" font-size="20" fill="black">12:00</text><text x="512" y="1040" text-anchor="middle" font-size="20" fill="black">12:30</text><text x="584" y="1040" text-anchor="middle" font-size="20" fill="black">13:00</text><text x="656" y="1040" text-anchor="middle" font-size="20" fill="black">13:30</text><text x="728" y="1040" text-anchor="middle" font-size="20" fill="black">14:00</text><text x="800" y="1040" text-anchor="middle" font-size="20" fill="black">14:30</text><text x="872" y="1040" text-anchor="middle" font-size="20" fill="black">15:00</text><text x="944" y="1040" text-anchor="middle" font-size="20" fill="black">15:30</text><text x="1016" y="1040" text-anchor="middle" font-size="20" fill="black">09:30</text><text x="1088" y="1040" text-anchor="middle" font-size="20" fill="black">10:00</text><text x="1160" y="1040" text-anchor="middle" font-size="20" fill="black">10:30</text><text x="1232" y="1040" text-anchor="middle" font-size="20" fill="black">11:00</text><text x="1304" y="1040" text-anchor="middle" font-size="20" fill="black">11:30</text><text x="1376" y="1040" text-anchor="middle" font-size="20" fill="black">12:00</text><text x="1448" y="1040" text-anchor="middle" font-size="20" fill="black">12:30</text><text x="1520" y="1040" text-anchor="middle" font-size="20" fill="black">13:00</text><text x="1592" y="1040" text-anchor="middle" font-size="20" fill="black">13:30</text><text x="1664" y="1040" text-anchor="middle" font-size="20" fill="black">14:00</text><text x="1736" y="1040" text-anchor="middle" font-size="20" fill="black">14:30</text><text x="1808" y="1040" text-anchor="middle" font-size="20" fill="black">15:00</text><text x="1880" y="1040" text-anchor="middle" font-size="20" fill="black">15:30</text><text x="1942" y="50" text-anchor="end" font-size="40" fill="#26a69a" font-weight="bold"> +0.00% (Mon)</text></svg>