<svg xmlns="http://www.w3.org/2000/svg" width="1992" height="1050"><rect width="100%" height="100%" fill="white"/><text x="42" y="854.0" text-anchor="end" font-size="20" fill="black">506</text><text x="42" y="800.6666666666666" text-anchor="end" font-size="20" fill="black">507</text><text x="42" y="747.3333333333334" text-anchor="end" font-size="20" fill="black">508</text><text x="42" y="694.0" text-anchor="end" font-size="20" fill="black">509</text><text x="42" y="640.6666666666666" text-anchor="end" font-size="20" fill="black">510</text><text x="42" y="587.3333333333334" text-anchor="end" font-size="20" fill="black">511</text><text x="42" y="534.0" text-anchor="end" font-size="20" fill="black">512</text><text x="42" y="480.6666666666667" text-anchor="end" font-size="20" fill="black">513</text><text x="42" y="427.3333333333333" text-anchor="end" font-size="20" fill="black">514</text><text x="42" y="374.0" text-anchor="end" font-size="20" fill="black">515</text><text x="42" y="320.66666666666674" text-anchor="end" font-size="20" fill="black">516</text><text x="42" y="267.33333333333337" text-anchor="end" font-size="20" fill="black">517</text><text x="42" y="214.0" text-anchor="end" font-size="20" fill="black">518</text><text x="42" y="160.66666666666663" text-anchor="end" font-size="20" fill="black">519</text><text x="42" y="107.33333333333337" text-anchor="end" font-size="20" fill="black">520</text><text x="42" y="54.0" text-anchor="end" font-size="20" fill="black">521</text><line x1="80" y1="194.9587376000029" x2="80" y2="267.009955199998" stroke="#ef5350" stroke-width="2"/><rect x="76" y="224.62688586666752" width="8" height="2.1191535999969346" fill="#ef5350"/><line x1="92" y1="206.61408160000065" x2="92" y2="358.13355360000065" stroke="#ef5350" stroke-width="2"/><rect x="88" y="226.21625119999715" width="8" height="79.46825440000487" fill="#ef5350"/><line x1="104" y1="222.50773226666456" x2="104" y2="340.1207493333337" stroke="#ef5350" stroke-width="2"/><rect x="100" y="304.6249290666674" width="8" height="26.489418133332947" fill="#ef5350"/><line x1="116" y1="255.88439946666767" x2="116" y2="348.0675749333326" stroke="#26a69a" stroke-width="2"/><rect x="112" y="310.9823893333305" width="8" height="19.602169600002526" fill="#26a69a"/><line x1="128" y1="292.9695850666636" x2="128" y2="367.13995626666775" stroke="#ef5350" stroke-width="2"/><rect x="124" y="310.4526010666692" width="8" height="54.038413333328265" fill="#ef5350"/><line x1="140" y1="319.4590032000026" x2="140" y2="378.26551146666435" stroke="#26a69a" stroke-width="2"/><rect x="136" y="345.41863306666835" width="8" height="21.191534399998318" fill="#26a69a"/><line x1="152" y1="318.3994266666681" x2="152" y2="397.8676810666669" stroke="#ef5350" stroke-width="2"/><rect x="148" y="348.59736319999985" width="8" height="37.085185600002035" fill="#ef5350"/><line x1="164" y1="367.13995626666775" x2="164" y2="431.244348266664" stroke="#ef5350" stroke-width="2"/><rect x="160" y="383.0336069333316" width="8" height="2.119153600003017" fill="#ef5350"/><line x1="176" y1="276.5461455999987" x2="176" y2="397.8676810666669" stroke="#26a69a" stroke-width="2"/><rect x="172" y="285.5525477333322" width="8" height="103.25575253333227" fill="#26a69a"/><line x1="188" y1="285.02275946666487" x2="188" y2="326.87604053333416" stroke="#ef5350" stroke-width="2"/><rect x="184" y="285.5525477333322" width="8" height="13.24470933333339" fill="#ef5350"/><line x1="200" y1="291.380219733334" x2="200" y2="407.4038720000014" stroke="#ef5350" stroke-width="2"/><rect x="196" y="306.2142938666693" width="8" height="90.59381066666293" fill="#ef5350"/><line x1="212" y1="346.47820960000297" x2="212" y2="455.0848245333327" stroke="#ef5350" stroke-width="2"/><rect x="208" y="397.8676810666669" width="8" height="54.03841333333429" fill="#ef5350"/><line x1="224" y1="424.88688800000085" x2="224" y2="481.57424266666567" stroke="#ef5350" stroke-width="2"/><rect x="220" y="452.9656709333358" width="8" height="14.304285866661928" fill="#ef5350"/><line x1="236" y1="405.8145066666657" x2="236" y2="493.2295866666694" stroke="#26a69a" stroke-width="2"/><rect x="232" y="446.6082106666666" width="8" height="20.66174613333112" fill="#26a69a"/><line x1="248" y1="379.3250885333327" x2="248" y2="474.68699413333525" stroke="#26a69a" stroke-width="2"/><rect x="244" y="393.62937440000076" width="8" height="54.568201600001544" fill="#26a69a"/><line x1="260" y1="364.4910143999975" x2="260" y2="427.5358298666651" stroke="#26a69a" stroke-width="2"/><rect x="256" y="365.55059093333205" width="8" height="28.07878346666871" fill="#26a69a"/><line x1="272" y1="341.7101146666694" x2="272" y2="414.8209087999991" stroke="#ef5350" stroke-width="2"/><rect x="268" y="368.19953280000243" width="8" height="35.495820266666385" fill="#ef5350"/><line x1="284" y1="371.37826293333393" x2="284" y2="446.6082106666666" stroke="#26a69a" stroke-width="2"/><rect x="280" y="376.19933706666416" width="8" height="24.847074133334274" fill="#26a69a"/><line x1="296" y1="378.79530026666544" x2="296" y2="470.9784757333303" stroke="#ef5350" stroke-width="2"/><rect x="292" y="383.0336069333316" width="8" height="86.88529173333637" fill="#ef5350"/><line x1="308" y1="449.7869407999982" x2="308" y2="495.8785285333336" stroke="#ef5350" stroke-width="2"/><rect x="304" y="471.5082639999976" width="8" height="11.655344000003765" fill="#ef5350"/><line x1="320" y1="459.3231317333327" x2="320" y2="492.1700101333348" stroke="#26a69a" stroke-width="2"/><rect x="316" y="474.15720586666794" width="8" height="3.1787301333315554" fill="#26a69a"/><line x1="332" y1="424.3570991999999" x2="332" y2="472.038052266665" stroke="#26a69a" stroke-width="2"/><rect x="328" y="440.78053866666477" width="8" height="31.25751360000021" fill="#26a69a"/><line x1="344" y1="318.9292149333354" x2="344" y2="440.2507503999974" stroke="#26a69a" stroke-width="2"/><rect x="340" y="328.4654053333361" width="8" height="111.7853450666613" fill="#26a69a"/><line x1="356" y1="299.32704533333276" x2="356" y2="335.88244266666754" stroke="#26a69a" stroke-width="2"/><rect x="352" y="317.33984959999964" width="8" height="13.7744976000007" fill="#26a69a"/><line x1="368" y1="298.26746879999826" x2="368" y2="342.76969119999796" stroke="#ef5350" stroke-width="2"/><rect x="364" y="319.9887914666639" width="8" height="16.95322773333828" fill="#ef5350"/><line x1="380" y1="283.96318293333627" x2="380" y2="372.43783946666855" stroke="#26a69a" stroke-width="2"/><rect x="376" y="294.55894986666556" width="8" height="42.38306933333661" fill="#26a69a"/><line x1="392" y1="289.26106666666476" x2="392" y2="349.1271514666672" stroke="#ef5350" stroke-width="2"/><rect x="388" y="296.1483152000013" width="8" height="36.55539733333467" fill="#ef5350"/><line x1="404" y1="308.33344746666626" x2="404" y2="356.5441887999986" stroke="#26a69a" stroke-width="2"/><rect x="400" y="324.2270986666639" width="8" height="10.595766933335312" fill="#26a69a"/><line x1="416" y1="323.1675216000016" x2="416" y2="388.8612789333335" stroke="#ef5350" stroke-width="2"/><rect x="412" y="323.1675216000016" width="8" height="56.68735519999848" fill="#ef5350"/><line x1="428" y1="330.0547706666657" x2="428" y2="377.73572319999704" stroke="#26a69a" stroke-width="2"/><rect x="424" y="363.9612256000024" width="8" height="12.185132799998769" fill="#26a69a"/><line x1="440" y1="356.01440053333135" x2="440" y2="389.9208554666681" stroke="#ef5350" stroke-width="2"/><rect x="436" y="369.2591093333309" width="8" height="13.7744976000007" fill="#ef5350"/><line x1="452" y1="367.13995626666775" x2="452" y2="406.8740832000003" stroke="#ef5350" stroke-width="2"/><rect x="448" y="371.37826293333393" width="8" height="19.072381333335215" fill="#ef5350"/><line x1="464" y1="385.6825488000019" x2="464" y2="415.88048533333375" stroke="#ef5350" stroke-width="2"/><rect x="460" y="389.39106720000075" width="8" height="25.429841599998326" fill="#ef5350"/><line x1="476" y1="404.754930133331" x2="476" y2="441.3103269333321" stroke="#ef5350" stroke-width="2"/><rect x="472" y="415.35069706666644" width="8" height="24.90005333333096" fill="#ef5350"/><line x1="488" y1="429.9198773333349" x2="488" y2="483.6933962666686" stroke="#ef5350" stroke-width="2"/><rect x="484" y="438.1315968000005" width="8" height="24.370265066663706" fill="#ef5350"/><line x1="500" y1="461.9720730666692" x2="500" y2="519.189216533335" stroke="#ef5350" stroke-width="2"/><rect x="496" y="463.5614383999988" width="8" height="37.6149738666694" fill="#ef5350"/><line x1="512" y1="477.8657242666668" x2="512" y2="528.7254074666696" stroke="#ef5350" stroke-width="2"/><rect x="508" y="498.52747039999787" width="8" height="6.887249066670279" fill="#ef5350"/><line x1="524" y1="481.57424266666567" x2="524" y2="516.0104863999975" stroke="#26a69a" stroke-width="2"/><rect x="520" y="488.4614917333359" width="8" height="15.363862399996549" fill="#26a69a"/><line x1="536" y1="471.5082639999976" x2="536" y2="520.7785818666646" stroke="#ef5350" stroke-width="2"/><rect x="532" y="490.5806447999991" width="8" height="11.125555733336398" fill="#ef5350"/><line x1="548" y1="468.85932213333336" x2="548" y2="510.18281440000163" stroke="#26a69a" stroke-width="2"/><rect x="544" y="493.2295866666694" width="8" height="6.887249066664197" fill="#26a69a"/><line x1="560" y1="483.6933962666686" x2="560" y2="531.3743493333338" stroke="#26a69a" stroke-width="2"/><rect x="556" y="486.3423381333329" width="8" height="9.006402133333438" fill="#26a69a"/><line x1="572" y1="414.8209087999991" x2="572" y2="484.7529727999972" stroke="#26a69a" stroke-width="2"/><rect x="568" y="417.9996389333307" width="8" height="66.75333386666654" fill="#26a69a"/><line x1="584" y1="420.1187925333337" x2="584" y2="520.7785818666646" stroke="#ef5350" stroke-width="2"/><rect x="580" y="420.1187925333337" width="8" height="90.59381013333524" fill="#ef5350"/><line x1="596" y1="448.1975760000023" x2="596" y2="522.3679466666665" stroke="#26a69a" stroke-width="2"/><rect x="592" y="455.0848245333327" width="8" height="54.03841333333423" fill="#26a69a"/><line x1="608" y1="422.76773439999795" x2="608" y2="459.85292" stroke="#26a69a" stroke-width="2"/><rect x="604" y="427.0060410666641" width="8" height="32.84687893333586" fill="#26a69a"/><line x1="620" y1="420.1187925333337" x2="620" y2="456.6741898666684" stroke="#ef5350" stroke-width="2"/><rect x="616" y="424.3570991999999" width="8" height="13.774497600000643" fill="#ef5350"/><line x1="632" y1="421.17836906666827" x2="632" y2="471.5082639999976" stroke="#26a69a" stroke-width="2"/><rect x="628" y="425.4166762666682" width="8" height="19.072380800001497" fill="#26a69a"/><line x1="644" y1="394.6889509333354" x2="644" y2="433.8932901333343" stroke="#26a69a" stroke-width="2"/><rect x="640" y="404.754930133331" width="8" height="20.131957866669836" fill="#26a69a"/><line x1="656" y1="400.5166229333311" x2="656" y2="431.244348266664" stroke="#ef5350" stroke-width="2"/><rect x="652" y="409.52302506666456" width="8" height="15.363862933336293" fill="#ef5350"/><line x1="668" y1="393.0995861333334" x2="668" y2="424.3570991999999" stroke="#26a69a" stroke-width="2"/><rect x="664" y="397.3378927999996" width="8" height="26.48941813333289" fill="#26a69a"/><line x1="680" y1="379.85487680000006" x2="680" y2="411.1123904000002" stroke="#ef5350" stroke-width="2"/><rect x="676" y="402.10598826666677" width="8" height="4.23830666666629" fill="#ef5350"/><line x1="692" y1="383.0336069333316" x2="692" y2="416.9400624000021" stroke="#26a69a" stroke-width="2"/><rect x="688" y="387.27191413333156" width="8" height="21.1915344000044" fill="#26a69a"/><line x1="704" y1="377.2059349333358" x2="704" y2="404.22514133333607" stroke="#ef5350" stroke-width="2"/><rect x="700" y="386.7421253333305" width="8" height="15.89365120000366" fill="#ef5350"/><line x1="716" y1="315.2206965333304" x2="716" y2="405.8145066666657" stroke="#26a69a" stroke-width="2"/><rect x="712" y="316.28027306666513" width="8" height="85.82571520000164" fill="#26a69a"/><line x1="728" y1="315.2206965333304" x2="728" y2="376.1463584000012" stroke="#ef5350" stroke-width="2"/><rect x="724" y="317.86963786666695" width="8" height="47.6809530666651" fill="#ef5350"/><line x1="740" y1="364.4910143999975" x2="740" y2="404.22514133333607" stroke="#ef5350" stroke-width="2"/><rect x="736" y="368.72932106666366" width="8" height="33.37666720000311" fill="#ef5350"/><line x1="752" y1="401.04641119999843" x2="752" y2="429.6549829333344" stroke="#ef5350" stroke-width="2"/><rect x="748" y="401.04641119999843" width="8" height="22.25111146666677" fill="#ef5350"/><line x1="764" y1="409.52302506666456" x2="764" y2="436.0124431999975" stroke="#ef5350" stroke-width="2"/><rect x="760" y="424.88688800000085" width="8" height="2" fill="#ef5350"/><line x1="776" y1="414.2911205333318" x2="776" y2="456.6741898666684" stroke="#26a69a" stroke-width="2"/><rect x="772" y="416.41027413333484" width="8" height="12.714920533332304" fill="#26a69a"/><line x1="788" y1="417.46985066666946" x2="788" y2="449.7869407999982" stroke="#ef5350" stroke-width="2"/><rect x="784" y="417.46985066666946" width="8" height="22.251111466666714" fill="#ef5350"/><line x1="800" y1="436.54223199999853" x2="800" y2="467.2699567999977" stroke="#ef5350" stroke-width="2"/><rect x="796" y="439.1911738666689" width="8" height="28.078782933328796" fill="#ef5350"/><line x1="812" y1="448.7273642666696" x2="812" y2="484.7529727999972" stroke="#ef5350" stroke-width="2"/><rect x="808" y="465.1508037333345" width="8" height="5.8276719999958" fill="#ef5350"/><line x1="824" y1="466.2103802666691" x2="824" y2="488.9912799999971" stroke="#26a69a" stroke-width="2"/><rect x="820" y="468.32953386666605" width="8" height="2.1191530666692415" fill="#26a69a"/><line x1="836" y1="452.48886133333144" x2="836" y2="483.6933962666686" stroke="#26a69a" stroke-width="2"/><rect x="832" y="467.2699567999977" width="8" height="2" fill="#26a69a"/><line x1="848" y1="440.78053866666477" x2="848" y2="467.2699567999977" stroke="#26a69a" stroke-width="2"/><rect x="844" y="460.3827082666673" width="8" height="6.357460266663111" fill="#26a69a"/><line x1="860" y1="443.95926880000235" x2="860" y2="490.5806447999991" stroke="#ef5350" stroke-width="2"/><rect x="856" y="459.3231317333327" width="8" height="30.727724799999123" fill="#ef5350"/><line x1="872" y1="469.918898666668" x2="872" y2="500.6466240000009" stroke="#26a69a" stroke-width="2"/><rect x="868" y="481.04445439999836" width="8" height="4.2383071999999515" fill="#26a69a"/><line x1="884" y1="475.21678240000256" x2="884" y2="497.4678938666693" stroke="#ef5350" stroke-width="2"/><rect x="880" y="483.1636080000014" width="8" height="3.708518399998866" fill="#ef5350"/><line x1="896" y1="483.6933962666686" x2="896" y2="523.427523733335" stroke="#26a69a" stroke-width="2"/><rect x="892" y="486.87212640000024" width="8" height="2" fill="#26a69a"/><line x1="908" y1="446.0784223999993" x2="908" y2="488.4614917333359" stroke="#26a69a" stroke-width="2"/><rect x="904" y="448.1975760000023" width="8" height="36.555396799994924" fill="#26a69a"/><line x1="920" y1="402.63577653333414" x2="920" y2="463.03165013333154" stroke="#26a69a" stroke-width="2"/><rect x="916" y="406.8740832000003" width="8" height="42.91285759999789" fill="#26a69a"/><line x1="932" y1="407.4038720000014" x2="932" y2="458.2635546666643" stroke="#ef5350" stroke-width="2"/><rect x="928" y="407.9336602666687" width="8" height="49.80010613333434" fill="#ef5350"/><line x1="944" y1="432.30392479999864" x2="944" y2="519.7190053333361" stroke="#ef5350" stroke-width="2"/><rect x="940" y="456.14440106666734" width="8" height="60.39587359999746" fill="#ef5350"/><line x1="956" y1="458.7933429333316" x2="956" y2="574.287206400001" stroke="#26a69a" stroke-width="2"/><rect x="952" y="468.85932213333336" width="8" height="41.85328053333558" fill="#26a69a"/><line x1="968" y1="437.0720202666659" x2="968" y2="494.2891637333317" stroke="#ef5350" stroke-width="2"/><rect x="964" y="469.918898666668" width="8" height="21.72132319999946" fill="#ef5350"/><line x1="980" y1="481.04445439999836" x2="980" y2="535.612656" stroke="#ef5350" stroke-width="2"/><rect x="976" y="490.5806447999991" width="8" height="37.614973866669345" fill="#ef5350"/><line x1="992" y1="530.3147722666654" x2="992" y2="614.0213338666672" stroke="#ef5350" stroke-width="2"/><rect x="988" y="532.9637141333327" width="8" height="66.22354559999917" fill="#ef5350"/><line x1="1004" y1="529.2551957333308" x2="1004" y2="604.4851434666664" stroke="#ef5350" stroke-width="2"/><rect x="1000" y="597.0681061333319" width="8" height="2" fill="#ef5350"/><line x1="1016" y1="777.1961503999986" x2="1016" y2="827.5260448000002" stroke="#ef5350" stroke-width="2"/><rect x="1012" y="794.1493781333338" width="8" height="10.595766933332357" fill="#ef5350"/><line x1="1028" y1="668.0597472000014" x2="1028" y2="817.4600661333321" stroke="#26a69a" stroke-width="2"/><rect x="1024" y="670.7086890666657" width="8" height="127.67899573333432" fill="#26a69a"/><line x1="1040" y1="669.1193237333331" x2="1040" y2="743.2896949333341" stroke="#ef5350" stroke-width="2"/><rect x="1036" y="670.7086890666657" width="8" height="52.978836266668964" fill="#ef5350"/><line x1="1052" y1="697.7278954666659" x2="1052" y2="817.4600661333321" stroke="#ef5350" stroke-width="2"/><rect x="1048" y="724.2173135999989" width="8" height="81.58740853333563" fill="#ef5350"/><line x1="1064" y1="742.7599066666668" x2="1064" y2="855.0750399999985" stroke="#26a69a" stroke-width="2"/><rect x="1060" y="752.8258853333318" width="8" height="49.80010666666806" fill="#26a69a"/><line x1="1076" y1="725.2768906666673" x2="1076" y2="780.3748805333331" stroke="#ef5350" stroke-width="2"/><rect x="1072" y="752.8258853333318" width="8" height="14.83407466666904" fill="#ef5350"/><line x1="1088" y1="684.4831866666664" x2="1088" y2="765.5408064000009" stroke="#26a69a" stroke-width="2"/><rect x="1084" y="688.1917050666652" width="8" height="76.28952426666729" fill="#26a69a"/><line x1="1100" y1="633.6235034666666" x2="1100" y2="717.8598533333328" stroke="#ef5350" stroke-width="2"/><rect x="1096" y="687.6619168000009" width="8" height="30.197936533331927" fill="#ef5350"/><line x1="1112" y1="619.849005866666" x2="1112" y2="748.5875786666656" stroke="#26a69a" stroke-width="2"/><rect x="1108" y="626.2064661333321" width="8" height="92.18317546666788" fill="#26a69a"/><line x1="1124" y1="608.7234501333327" x2="1124" y2="645.8086357333348" stroke="#26a69a" stroke-width="2"/><rect x="1120" y="623.0277360000007" width="8" height="2.648941866667201" fill="#26a69a"/><line x1="1136" y1="564.2212277333329" x2="1136" y2="628.5905141333326" stroke="#26a69a" stroke-width="2"/><rect x="1132" y="564.2212277333329" width="8" height="59.33629706666579" fill="#26a69a"/><line x1="1148" y1="470.4486869333353" x2="1148" y2="578.5255136000009" stroke="#26a69a" stroke-width="2"/><rect x="1144" y="474.15720586666794" width="8" height="93.24275199999943" fill="#26a69a"/><line x1="1160" y1="374.55699306666554" x2="1160" y2="476.8061477333322" stroke="#26a69a" stroke-width="2"/><rect x="1156" y="416.41027413333484" width="8" height="59.33629653332895" fill="#26a69a"/><line x1="1172" y1="370.8484746666667" x2="1172" y2="443.42948053333504" stroke="#26a69a" stroke-width="2"/><rect x="1168" y="388.8612789333335" width="8" height="24.370265066663706" fill="#26a69a"/><line x1="1184" y1="374.0272047999982" x2="1184" y2="421.70815786666935" stroke="#26a69a" stroke-width="2"/><rect x="1180" y="381.4442421333357" width="8" height="9.006402133333438" fill="#26a69a"/><line x1="1196" y1="373.4974165333309" x2="1196" y2="432.30392479999864" stroke="#ef5350" stroke-width="2"/><rect x="1192" y="381.4442421333357" width="8" height="39.20433866666525" fill="#ef5350"/><line x1="1208" y1="366.61016746666667" x2="1208" y2="415.35069706666644" stroke="#26a69a" stroke-width="2"/><rect x="1204" y="371.9080512000013" width="8" height="43.442645866665146" fill="#26a69a"/><line x1="1220" y1="352.83567039999986" x2="1220" y2="407.4038720000014" stroke="#ef5350" stroke-width="2"/><rect x="1216" y="370.3186863999993" width="8" height="31.787301866667462" fill="#ef5350"/><line x1="1232" y1="291.4331989333308" x2="1232" y2="412.7017552000022" stroke="#26a69a" stroke-width="2"/><rect x="1228" y="291.4331989333308" width="8" height="108.81853013333358" fill="#26a69a"/><line x1="1244" y1="268.0695317333327" x2="1244" y2="314.1611194666681" stroke="#ef5350" stroke-width="2"/><rect x="1240" y="291.380219733334" width="8" height="10.065979200001834" fill="#ef5350"/><line x1="1256" y1="259.06312959999923" x2="1256" y2="301.44619893333584" stroke="#26a69a" stroke-width="2"/><rect x="1252" y="259.06312959999923" width="8" height="40.79370400000096" fill="#26a69a"/><line x1="1268" y1="224.0970976000002" x2="1268" y2="278.13551093333444" stroke="#26a69a" stroke-width="2"/><rect x="1264" y="245.28863199999864" width="8" height="15.363862933336236" fill="#26a69a"/><line x1="1280" y1="200.2566213333314" x2="1280" y2="254.29503413333202" stroke="#26a69a" stroke-width="2"/><rect x="1276" y="205.55450506666602" width="8" height="38.674550399997884" fill="#26a69a"/><line x1="1292" y1="199.1970442666692" x2="1292" y2="235.22265333333053" stroke="#ef5350" stroke-width="2"/><rect x="1288" y="206.61408160000065" width="8" height="4.238306666666176" fill="#ef5350"/><line x1="1304" y1="181.71402826666963" x2="1304" y2="214.56090719999952" stroke="#26a69a" stroke-width="2"/><rect x="1300" y="194.9587376000029" width="8" height="15.363862399996606" fill="#26a69a"/><line x1="1316" y1="87.94148800000278" x2="1316" y2="197.60767946666715" stroke="#26a69a" stroke-width="2"/><rect x="1312" y="88.47127626666406" width="8" height="108.60661493333589" fill="#26a69a"/><line x1="1328" y1="60.9222810666688" x2="1328" y2="112.84154080000008" stroke="#26a69a" stroke-width="2"/><rect x="1324" y="65.1605882666687" width="8" height="23.840476266662677" fill="#26a69a"/><line x1="1340" y1="68.33931840000025" x2="1340" y2="119.72878986666421" stroke="#ef5350" stroke-width="2"/><rect x="1336" y="68.86910666666756" width="8" height="37.08518560000209" fill="#ef5350"/><line x1="1352" y1="96.94789013333627" x2="1352" y2="167.40974240000162" stroke="#ef5350" stroke-width="2"/><rect x="1348" y="105.42450400000234" width="8" height="49.27031786666703" fill="#ef5350"/><line x1="1364" y1="87.41169973333558" x2="1364" y2="154.16503360000206" stroke="#26a69a" stroke-width="2"/><rect x="1360" y="106.48408053333083" width="8" height="47.680953066671236" fill="#26a69a"/><line x1="1376" y1="95.35852480000062" x2="1376" y2="134.56286399999954" stroke="#ef5350" stroke-width="2"/><rect x="1372" y="103.83513866666658" width="8" height="15.893651199997635" fill="#ef5350"/><line x1="1388" y1="85.82233439999982" x2="1388" y2="120.25857813333153" stroke="#26a69a" stroke-width="2"/><rect x="1384" y="85.82233439999982" width="8" height="30.72772533333284" fill="#26a69a"/><line x1="1400" y1="66.7499530666646" x2="1400" y2="99.59683200000052" stroke="#26a69a" stroke-width="2"/><rect x="1396" y="83.70318080000288" width="8" height="2" fill="#26a69a"/><line x1="1412" y1="60.9222810666688" x2="1412" y2="95.35852480000062" stroke="#26a69a" stroke-width="2"/><rect x="1408" y="70.9882602666645" width="8" height="15.893650666669942" fill="#26a69a"/><line x1="1424" y1="61.981858133331116" x2="1424" y2="95.35852480000062" stroke="#26a69a" stroke-width="2"/><rect x="1420" y="67.80953013333294" width="8" height="3.708518399998866" fill="#26a69a"/><line x1="1436" y1="31.78392106666547" x2="1436" y2="74.16699040000219" stroke="#26a69a" stroke-width="2"/><rect x="1432" y="33.373286400001234" width="8" height="35.49582026666633" fill="#26a69a"/><line x1="1448" y1="32.31370933333278" x2="1448" y2="128.7351919999977" stroke="#ef5350" stroke-width="2"/><rect x="1444" y="33.903074666668545" width="8" height="70.46185226666546" fill="#ef5350"/><line x1="1460" y1="55.62439733333417" x2="1460" y2="108.6032341333339" stroke="#26a69a" stroke-width="2"/><rect x="1456" y="61.981858133331116" width="8" height="39.734126933332504" fill="#26a69a"/><line x1="1472" y1="53.505244266665045" x2="1472" y2="90.060641066666" stroke="#ef5350" stroke-width="2"/><rect x="1468" y="61.981858133331116" width="8" height="8.47661386666607" fill="#ef5350"/><line x1="1484" y1="60.39249280000149" x2="1484" y2="92.70958293333638" stroke="#26a69a" stroke-width="2"/><rect x="1480" y="64.10101120000036" width="8" height="9.0064026666671" fill="#26a69a"/><line x1="1496" y1="58.27333919999842" x2="1496" y2="83.70318080000288" stroke="#ef5350" stroke-width="2"/><rect x="1492" y="60.39249280000149" width="8" height="2.1191535999969346" fill="#ef5350"/><line x1="1508" y1="50.8563024000008" x2="1508" y2="102.77556213333207" stroke="#ef5350" stroke-width="2"/><rect x="1504" y="67.27974186666574" width="8" height="35.49582026666633" fill="#ef5350"/><line x1="1520" y1="87.41169973333558" x2="1520" y2="113.90111786666841" stroke="#ef5350" stroke-width="2"/><rect x="1516" y="100.65640853333514" width="8" height="11.655343999997626" fill="#ef5350"/><line x1="1532" y1="101.71598506666362" x2="1532" y2="126.08625013333346" stroke="#ef5350" stroke-width="2"/><rect x="1528" y="111.78196426666545" width="8" height="14.30428586666801" fill="#ef5350"/><line x1="1544" y1="118.6692128000019" x2="1544" y2="146.21820799999728" stroke="#ef5350" stroke-width="2"/><rect x="1540" y="122.90752000000191" width="8" height="16.42343946666483" fill="#ef5350"/><line x1="1556" y1="132.4437104000026" x2="1556" y2="190.1906421333357" stroke="#ef5350" stroke-width="2"/><rect x="1552" y="137.7415941333311" width="8" height="18.542592533334187" fill="#ef5350"/><line x1="1568" y1="154.69482186666937" x2="1568" y2="207.67365813333527" stroke="#ef5350" stroke-width="2"/><rect x="1564" y="156.28418666666528" width="8" height="28.608571733335907" fill="#ef5350"/><line x1="1580" y1="170.58847253333317" x2="1580" y2="217.20984906666376" stroke="#ef5350" stroke-width="2"/><rect x="1576" y="182.24381653333091" width="8" height="31.787301866667462" fill="#ef5350"/><line x1="1592" y1="187.01191199999812" x2="1592" y2="219.3290021333329" stroke="#26a69a" stroke-width="2"/><rect x="1588" y="199.72683253333048" width="8" height="13.244709333333276" fill="#26a69a"/><line x1="1604" y1="167.40974240000162" x2="1604" y2="201.84598613333344" stroke="#26a69a" stroke-width="2"/><rect x="1600" y="194.9587376000029" width="8" height="4.23830666666629" fill="#26a69a"/><line x1="1616" y1="191.250219199998" x2="1616" y2="220.38857920000123" stroke="#ef5350" stroke-width="2"/><rect x="1612" y="195.96533546666853" width="8" height="12.238110933334042" fill="#ef5350"/><line x1="1628" y1="198.13746773333457" x2="1628" y2="224.62688586666752" stroke="#ef5350" stroke-width="2"/><rect x="1624" y="209.2630234666649" width="8" height="10.065978666668002" fill="#ef5350"/><line x1="1640" y1="166.8799541333343" x2="1640" y2="236.28222986666515" stroke="#26a69a" stroke-width="2"/><rect x="1636" y="169.52889599999855" width="8" height="51.91925973333741" fill="#26a69a"/><line x1="1652" y1="154.16503360000206" x2="1652" y2="228.33540426666627" stroke="#ef5350" stroke-width="2"/><rect x="1648" y="171.11826133333432" width="8" height="46.09158773332945" fill="#ef5350"/><line x1="1664" y1="212.97154186666376" x2="1664" y2="236.81201813333246" stroke="#ef5350" stroke-width="2"/><rect x="1660" y="220.91836746666866" width="8" height="2.119153599996821" fill="#ef5350"/><line x1="1676" y1="203.96513973333037" x2="1676" y2="243.69926720000274" stroke="#26a69a" stroke-width="2"/><rect x="1672" y="211.38217706666785" width="8" height="10.595766933329287" fill="#26a69a"/><line x1="1688" y1="201.31619786666613" x2="1688" y2="233.1034997333336" stroke="#ef5350" stroke-width="2"/><rect x="1684" y="211.38217706666785" width="8" height="3.708518399998866" fill="#ef5350"/><line x1="1700" y1="192.36277440000174" x2="1700" y2="223.03752106666548" stroke="#26a69a" stroke-width="2"/><rect x="1696" y="194.4289493333357" width="8" height="18.542592533328047" fill="#26a69a"/><line x1="1712" y1="180.1246634666677" x2="1712" y2="209.7928117333322" stroke="#26a69a" stroke-width="2"/><rect x="1708" y="190.72043039999699" width="8" height="4.768095466667205" fill="#26a69a"/><line x1="1724" y1="154.69482186666937" x2="1724" y2="195.4885258666642" stroke="#26a69a" stroke-width="2"/><rect x="1720" y="155.75439839999797" width="8" height="36.02560906666747" fill="#26a69a"/><line x1="1736" y1="125.02667359999884" x2="1736" y2="163.17143573333544" stroke="#26a69a" stroke-width="2"/><rect x="1732" y="129.2649802666649" width="8" height="29.66814826667064" fill="#26a69a"/><line x1="1748" y1="109.13302240000121" x2="1748" y2="139.86074773333405" stroke="#ef5350" stroke-width="2"/><rect x="1744" y="131.9139221333353" width="8" height="5.8276719999958" fill="#ef5350"/><line x1="1760" y1="129.79476853333233" x2="1760" y2="149.92672640000217" stroke="#ef5350" stroke-width="2"/><rect x="1756" y="136.15222880000147" width="8" height="9.006402666667213" fill="#ef5350"/><line x1="1772" y1="134.56286399999954" x2="1772" y2="169.52889599999855" stroke="#ef5350" stroke-width="2"/><rect x="1768" y="145.15863146666868" width="8" height="20.661746133331008" fill="#ef5350"/><line x1="1784" y1="154.16503360000206" x2="1784" y2="190.72043039999699" stroke="#ef5350" stroke-width="2"/><rect x="1780" y="160.52249386666517" width="8" height="12.714920533332247" fill="#ef5350"/><line x1="1796" y1="161.5820703999998" x2="1796" y2="183.30339359999925" stroke="#ef5350" stroke-width="2"/><rect x="1792" y="173.23741439999742" width="8" height="5.297883733334629" fill="#ef5350"/><line x1="1808" y1="162.1118586666671" x2="1808" y2="181.71402826666963" stroke="#ef5350" stroke-width="2"/><rect x="1804" y="176.94593333333614" width="8" height="4.7680949333334866" fill="#ef5350"/><line x1="1820" y1="165.29058933333238" x2="1820" y2="193.36937226666726" stroke="#ef5350" stroke-width="2"/><rect x="1816" y="181.18424000000232" width="8" height="11.655343999997626" fill="#ef5350"/><line x1="1832" y1="181.71402826666963" x2="1832" y2="210.85238826666682" stroke="#ef5350" stroke-width="2"/><rect x="1828" y="193.36937226666726" width="8" height="15.363862933330324" fill="#ef5350"/><line x1="1844" y1="195.4885258666642" x2="1844" y2="216.68006026666865" stroke="#26a69a" stroke-width="2"/><rect x="1840" y="201.84598613333344" width="8" height="6.88724906666414" fill="#26a69a"/><line x1="1856" y1="198.13746773333457" x2="1856" y2="236.28222986666515" stroke="#ef5350" stroke-width="2"/><rect x="1852" y="206.08429333333333" width="8" height="15.893650666663802" fill="#ef5350"/><line x1="1868" y1="205.024716266665" x2="1868" y2="245.28863199999864" stroke="#ef5350" stroke-width="2"/><rect x="1864" y="222.50773226666456" width="8" height="15.893651200003546" fill="#ef5350"/><line x1="1880" y1="226.21625119999715" x2="1880" y2="349.1271514666672" stroke="#ef5350" stroke-width="2"/><rect x="1876" y="237.8715952000008" width="8" height="105.95767253333179" fill="#ef5350"/><line x1="1892" y1="264.36101333333374" x2="1892" y2="343.8292677333326" stroke="#26a69a" stroke-width="2"/><rect x="1888" y="284.49297119999756" width="8" height="57.746931733333156" fill="#26a69a"/><line x1="1904" y1="253.7652458666646" x2="1904" y2="317.86963786666695" stroke="#ef5350" stroke-width="2"/><rect x="1900" y="282.3738176000006" width="8" height="9.006402133333381" fill="#ef5350"/><line x1="1916" y1="236.28222986666515" x2="1916" y2="293.49937333333105" stroke="#26a69a" stroke-width="2"/><rect x="1912" y="265.4205898666685" width="8" height="27.019206933333976" fill="#26a69a"/><line x1="1928" y1="268.0695317333327" x2="1928" y2="382.5038186666643" stroke="#ef5350" stroke-width="2"/><rect x="1924" y="269.6588970666684" width="8" height="77.87888959999685" fill="#ef5350"/><line x1="1940" y1="336.41223093333497" x2="1940" y2="411.1123904000002" stroke="#ef5350" stroke-width="2"/><rect x="1936" y="348.59736319999985" width="8" height="2" fill="#ef5350"/><rect x="75" y="936.278105221064" width="10" height="83.72189477893596" fill="#ef5350" opacity="0.9"/><rect x="87" y="948.5280623123296" width="10" height="71.47193768767045" fill="#ef5350" opacity="0.9"/><rect x="99" y="967.1304584776158" width="10" height="52.869541522384225" fill="#ef5350" opacity="0.9"/><rect x="111" y="988.3023358276431" width="10" height="31.697664172356895" fill="#26a69a" opacity="0.9"/><rect x="123" y="978.7561598363629" width="10" height="41.24384016363706" fill="#ef5350" opacity="0.9"/><rect x="135" y="983.2469791366232" width="10" height="36.75302086337683" fill="#26a69a" opacity="0.9"/><rect x="147" y="984.0294221210893" width="10" height="35.97057787891072" fill="#ef5350" opacity="0.9"/><rect x="159" y="968.6003259294386" width="10" height="51.399674070561446" fill="#ef5350" opacity="0.9"/><rect x="171" y="984.5294637027495" width="10" height="35.47053629725053" fill="#26a69a" opacity="0.9"/><rect x="183" y="998.6325472925031" width="10" height="21.36745270749691" fill="#ef5350" opacity="0.9"/><rect x="195" y="987.5005175589619" width="10" height="32.49948244103814" fill="#ef5350" opacity="0.9"/><rect x="207" y="980.0574888569998" width="10" height="39.94251114300016" fill="#ef5350" opacity="0.9"/><rect x="219" y="970.368519675203" width="10" height="49.63148032479705" fill="#ef5350" opacity="0.9"/><rect x="231" y="968.5355647054869" width="10" height="51.46443529451312" fill="#26a69a" opacity="0.9"/><rect x="243" y="981.7476506361994" width="10" height="38.25234936380059" fill="#26a69a" opacity="0.9"/><rect x="255" y="988.4018663972411" width="10" height="31.598133602758935" fill="#26a69a" opacity="0.9"/><rect x="267" y="990.8545650469873" width="10" height="29.145434953012682" fill="#ef5350" opacity="0.9"/><rect x="279" y="997.292467703436" width="10" height="22.707532296563954" fill="#26a69a" opacity="0.9"/><rect x="291" y="983.3823407112764" width="10" height="36.617659288723644" fill="#ef5350" opacity="0.9"/><rect x="303" y="991.6704503028384" width="10" height="28.32954969716161" fill="#ef5350" opacity="0.9"/><rect x="315" y="995.8401176318625" width="10" height="24.15988236813746" fill="#26a69a" opacity="0.9"/><rect x="327" y="993.4681050972038" width="10" height="26.53189490279624" fill="#26a69a" opacity="0.9"/><rect x="339" y="982.4398525708967" width="10" height="37.56014742910327" fill="#26a69a" opacity="0.9"/><rect x="351" y="990.9068517728828" width="10" height="29.09314822711724" fill="#26a69a" opacity="0.9"/><rect x="363" y="997.9881200312128" width="10" height="22.011879968787184" fill="#ef5350" opacity="0.9"/><rect x="375" y="988.819363959848" width="10" height="31.180636040151967" fill="#26a69a" opacity="0.9"/><rect x="387" y="996.3101673352172" width="10" height="23.689832664782784" fill="#ef5350" opacity="0.9"/><rect x="399" y="998.8838951575945" width="10" height="21.116104842405548" fill="#26a69a" opacity="0.9"/><rect x="411" y="999.8218712454857" width="10" height="20.17812875451432" fill="#ef5350" opacity="0.9"/><rect x="423" y="997.9841388084288" width="10" height="22.01586119157116" fill="#26a69a" opacity="0.9"/><rect x="435" y="999.0306695708949" width="10" height="20.96933042910507" fill="#ef5350" opacity="0.9"/><rect x="447" y="1003.6032366456517" width="10" height="16.39676335434831" fill="#ef5350" opacity="0.9"/><rect x="459" y="996.3186606104896" width="10" height="23.681339389510413" fill="#ef5350" opacity="0.9"/><rect x="471" y="993.3327435225506" width="10" height="26.667256477449428" fill="#ef5350" opacity="0.9"/><rect x="483" y="992.6543431601708" width="10" height="27.34565683982919" fill="#ef5350" opacity="0.9"/><rect x="495" y="990.1291862557573" width="10" height="29.870813744242696" fill="#ef5350" opacity="0.9"/><rect x="507" y="985.7455945558105" width="10" height="34.2544054441895" fill="#ef5350" opacity="0.9"/><rect x="519" y="993.5753326975173" width="10" height="26.424667302482703" fill="#26a69a" opacity="0.9"/><rect x="531" y="994.6513245085844" width="10" height="25.348675491415634" fill="#ef5350" opacity="0.9"/><rect x="543" y="989.5245712223061" width="10" height="30.475428777693878" fill="#26a69a" opacity="0.9"/><rect x="555" y="993.4187379346831" width="10" height="26.581262065316878" fill="#26a69a" opacity="0.9"/><rect x="567" y="981.9053070584425" width="10" height="38.09469294155747" fill="#26a69a" opacity="0.9"/><rect x="579" y="986.3658690655451" width="10" height="33.6341309344549" fill="#ef5350" opacity="0.9"/><rect x="591" y="991.026023041548" width="10" height="28.973976958452" fill="#26a69a" opacity="0.9"/><rect x="603" y="1000.3532317797127" width="10" height="19.6467682202873" fill="#26a69a" opacity="0.9"/><rect x="615" y="998.538059605098" width="10" height="21.461940394901944" fill="#ef5350" opacity="0.9"/><rect x="627" y="997.9769726074178" width="10" height="22.023027392582208" fill="#26a69a" opacity="0.9"/><rect x="639" y="994.1170444109825" width="10" height="25.882955589017456" fill="#26a69a" opacity="0.9"/><rect x="651" y="1001.3288967766251" width="10" height="18.67110322337487" fill="#ef5350" opacity="0.9"/><rect x="663" y="1004.8650188533016" width="10" height="15.134981146698351" fill="#26a69a" opacity="0.9"/><rect x="675" y="995.401652295927" width="10" height="24.598347704073035" fill="#ef5350" opacity="0.9"/><rect x="687" y="1004.9610990298203" width="10" height="15.038900970179725" fill="#26a69a" opacity="0.9"/><rect x="699" y="1000.9241391269267" width="10" height="19.07586087307334" fill="#ef5350" opacity="0.9"/><rect x="711" y="989.3257754979625" width="10" height="30.674224502037532" fill="#26a69a" opacity="0.9"/><rect x="723" y="973.2626032242596" width="10" height="46.73739677574042" fill="#ef5350" opacity="0.9"/><rect x="735" y="998.8626619694136" width="10" height="21.13733803058642" fill="#ef5350" opacity="0.9"/><rect x="747" y="1000.7436570273891" width="10" height="19.256342972610923" fill="#ef5350" opacity="0.9"/><rect x="759" y="1001.2588272556281" width="10" height="18.741172744371852" fill="#ef5350" opacity="0.9"/><rect x="771" y="1001.4732824562552" width="10" height="18.52671754374478" fill="#26a69a" opacity="0.9"/><rect x="783" y="1001.7355123302893" width="10" height="18.26448766971066" fill="#ef5350" opacity="0.9"/><rect x="795" y="1003.0628520064478" width="10" height="16.93714799355223" fill="#ef5350" opacity="0.9"/><rect x="807" y="999.9259138675721" width="10" height="20.07408613242785" fill="#ef5350" opacity="0.9"/><rect x="819" y="1000.8304476840784" width="10" height="19.169552315921578" fill="#26a69a" opacity="0.9"/><rect x="831" y="1001.7026008886089" width="10" height="18.297399111391087" fill="#26a69a" opacity="0.9"/><rect x="843" y="1003.9047479178205" width="10" height="16.095252082179513" fill="#26a69a" opacity="0.9"/><rect x="855" y="1002.4224059679415" width="10" height="17.577594032058528" fill="#ef5350" opacity="0.9"/><rect x="867" y="996.8571873457277" width="10" height="23.142812654272348" fill="#26a69a" opacity="0.9"/><rect x="879" y="1005.2519937078986" width="10" height="14.748006292101422" fill="#ef5350" opacity="0.9"/><rect x="891" y="999.008374723305" width="10" height="20.991625276695004" fill="#26a69a" opacity="0.9"/><rect x="903" y="996.9954684837558" width="10" height="23.004531516244242" fill="#26a69a" opacity="0.9"/><rect x="915" y="986.4975148322667" width="10" height="33.50248516773331" fill="#26a69a" opacity="0.9"/><rect x="927" y="988.1961698867386" width="10" height="31.80383011326137" fill="#ef5350" opacity="0.9"/><rect x="939" y="982.327316673538" width="10" height="37.67268332646199" fill="#ef5350" opacity="0.9"/><rect x="951" y="970.5190098964351" width="10" height="49.480990103564864" fill="#26a69a" opacity="0.9"/><rect x="963" y="993.6634504284681" width="10" height="26.33654957153192" fill="#ef5350" opacity="0.9"/><rect x="975" y="988.1648509341718" width="10" height="31.835149065828205" fill="#ef5350" opacity="0.9"/><rect x="987" y="958.5795881823152" width="10" height="61.420411817684794" fill="#ef5350" opacity="0.9"/><rect x="999" y="879.9209771513201" width="10" height="140.07902284867987" fill="#ef5350" opacity="0.9"/><rect x="1011" y="956.1215812355239" width="10" height="63.87841876447612" fill="#ef5350" opacity="0.9"/><rect x="1023" y="957.5306686861788" width="10" height="62.46933131382116" fill="#26a69a" opacity="0.9"/><rect x="1035" y="971.3744419652731" width="10" height="48.62555803472685" fill="#ef5350" opacity="0.9"/><rect x="1047" y="975.319302914432" width="10" height="44.680697085568" fill="#ef5350" opacity="0.9"/><rect x="1059" y="982.0393415588345" width="10" height="37.96065844116549" fill="#26a69a" opacity="0.9"/><rect x="1071" y="997.4506549553838" width="10" height="22.54934504461619" fill="#ef5350" opacity="0.9"/><rect x="1083" y="984.7133961953666" width="10" height="35.28660380463339" fill="#26a69a" opacity="0.9"/><rect x="1095" y="979.53754116142" width="10" height="40.462458838580005" fill="#ef5350" opacity="0.9"/><rect x="1107" y="989.8852700065293" width="10" height="30.114729993470746" fill="#26a69a" opacity="0.9"/><rect x="1119" y="977.4298818196135" width="10" height="42.570118180386544" fill="#26a69a" opacity="0.9"/><rect x="1131" y="989.6888630158559" width="10" height="30.311136984144127" fill="#26a69a" opacity="0.9"/><rect x="1143" y="985.3076600495795" width="10" height="34.692339950420546" fill="#26a69a" opacity="0.9"/><rect x="1155" y="969.8496336390323" width="10" height="50.15036636096772" fill="#26a69a" opacity="0.9"/><rect x="1167" y="976.1020113137504" width="10" height="43.89798868624962" fill="#26a69a" opacity="0.9"/><rect x="1179" y="991.0881301169771" width="10" height="28.91186988302286" fill="#26a69a" opacity="0.9"/><rect x="1191" y="997.2943256074019" width="10" height="22.705674392598098" fill="#ef5350" opacity="0.9"/><rect x="1203" y="1000.7054372886635" width="10" height="19.29456271133654" fill="#26a69a" opacity="0.9"/><rect x="1215" y="998.4369365463865" width="10" height="21.563063453613495" fill="#ef5350" opacity="0.9"/><rect x="1227" y="989.6386996087786" width="10" height="30.361300391221448" fill="#26a69a" opacity="0.9"/><rect x="1239" y="988.2890650850301" width="10" height="31.710934914969926" fill="#ef5350" opacity="0.9"/><rect x="1251" y="996.5370970339005" width="10" height="23.462902966099477" fill="#26a69a" opacity="0.9"/><rect x="1263" y="996.2156796478122" width="10" height="23.78432035218782" fill="#26a69a" opacity="0.9"/><rect x="1275" y="1000.6980056728002" width="10" height="19.30199432719985" fill="#26a69a" opacity="0.9"/><rect x="1287" y="1000.9482918784825" width="10" height="19.05170812151755" fill="#ef5350" opacity="0.9"/><rect x="1299" y="998.6819144550237" width="10" height="21.31808554497627" fill="#26a69a" opacity="0.9"/><rect x="1311" y="976.7849237286187" width="10" height="43.21507627138135" fill="#26a69a" opacity="0.9"/><rect x="1323" y="988.1635238599105" width="10" height="31.83647614008953" fill="#26a69a" opacity="0.9"/><rect x="1335" y="994.4729657278648" width="10" height="25.52703427213521" fill="#ef5350" opacity="0.9"/><rect x="1347" y="991.8631414855801" width="10" height="28.13685851441994" fill="#ef5350" opacity="0.9"/><rect x="1359" y="977.750502961145" width="10" height="42.249497038855" fill="#26a69a" opacity="0.9"/><rect x="1371" y="999.5431856506115" width="10" height="20.456814349388537" fill="#ef5350" opacity="0.9"/><rect x="1383" y="1000.8150536226473" width="10" height="19.18494637735273" fill="#26a69a" opacity="0.9"/><rect x="1395" y="998.2397333111564" width="10" height="21.760266688843558" fill="#26a69a" opacity="0.9"/><rect x="1407" y="1004.656137364572" width="10" height="15.343862635427968" fill="#26a69a" opacity="0.9"/><rect x="1419" y="988.44751775183" width="10" height="31.55248224817001" fill="#26a69a" opacity="0.9"/><rect x="1431" y="996.9158440280773" width="10" height="23.084155971922655" fill="#26a69a" opacity="0.9"/><rect x="1443" y="994.5117162962949" width="10" height="25.488283703705065" fill="#ef5350" opacity="0.9"/><rect x="1455" y="998.0125381976209" width="10" height="21.98746180237913" fill="#26a69a" opacity="0.9"/><rect x="1467" y="1004.2309427712496" width="10" height="15.769057228750398" fill="#ef5350" opacity="0.9"/><rect x="1479" y="1002.265545790255" width="10" height="17.734454209744968" fill="#26a69a" opacity="0.9"/><rect x="1491" y="1003.6226119298668" width="10" height="16.37738807013318" fill="#ef5350" opacity="0.9"/><rect x="1503" y="1001.3591540697829" width="10" height="18.640845930217097" fill="#ef5350" opacity="0.9"/><rect x="1515" y="998.431362834489" width="10" height="21.56863716551095" fill="#ef5350" opacity="0.9"/><rect x="1527" y="998.602024584493" width="10" height="21.39797541550695" fill="#ef5350" opacity="0.9"/><rect x="1539" y="990.7550344773894" width="10" height="29.24496552261064" fill="#ef5350" opacity="0.9"/><rect x="1551" y="986.0057011110266" width="10" height="33.99429888897339" fill="#ef5350" opacity="0.9"/><rect x="1563" y="970.7186018653356" width="10" height="49.281398134664414" fill="#ef5350" opacity="0.9"/><rect x="1575" y="993.3027516442451" width="10" height="26.697248355754937" fill="#ef5350" opacity="0.9"/><rect x="1587" y="995.3597167492696" width="10" height="24.640283250730363" fill="#26a69a" opacity="0.9"/><rect x="1599" y="989.1869635302298" width="10" height="30.813036469770168" fill="#26a69a" opacity="0.9"/><rect x="1611" y="992.8419914607194" width="10" height="27.15800853928056" fill="#ef5350" opacity="0.9"/><rect x="1623" y="994.0905029257564" width="10" height="25.90949707424363" fill="#ef5350" opacity="0.9"/><rect x="1635" y="988.5796943482561" width="10" height="31.420305651743888" fill="#26a69a" opacity="0.9"/><rect x="1647" y="1001.670220276633" width="10" height="18.329779723366983" fill="#ef5350" opacity="0.9"/><rect x="1659" y="996.1320739693499" width="10" height="23.867926030650096" fill="#ef5350" opacity="0.9"/><rect x="1671" y="993.5809064094148" width="10" height="26.41909359058525" fill="#26a69a" opacity="0.9"/><rect x="1683" y="996.187014843768" width="10" height="23.812985156232003" fill="#ef5350" opacity="0.9"/><rect x="1695" y="994.4318264257644" width="10" height="25.56817357423563" fill="#26a69a" opacity="0.9"/><rect x="1707" y="987.3333062020373" width="10" height="32.666693797962694" fill="#26a69a" opacity="0.9"/><rect x="1719" y="1002.866975845479" width="10" height="17.133024154520967" fill="#26a69a" opacity="0.9"/><rect x="1731" y="995.2729260925803" width="10" height="24.727073907419708" fill="#26a69a" opacity="0.9"/><rect x="1743" y="995.1728646932778" width="10" height="24.827135306722198" fill="#ef5350" opacity="0.9"/><rect x="1755" y="998.5882230121755" width="10" height="21.41177698782451" fill="#ef5350" opacity="0.9"/><rect x="1767" y="998.3968589036951" width="10" height="21.603141096304853" fill="#ef5350" opacity="0.9"/><rect x="1779" y="989.2214674610238" width="10" height="30.77853253897615" fill="#ef5350" opacity="0.9"/><rect x="1791" y="997.8931015141033" width="10" height="22.10689848589675" fill="#ef5350" opacity="0.9"/><rect x="1803" y="994.1608378616056" width="10" height="25.839162138394386" fill="#ef5350" opacity="0.9"/><rect x="1815" y="989.2047463253314" width="10" height="30.79525367466863" fill="#ef5350" opacity="0.9"/><rect x="1827" y="990.3789416317351" width="10" height="29.621058368264926" fill="#ef5350" opacity="0.9"/><rect x="1839" y="996.9593720638481" width="10" height="23.04062793615185" fill="#26a69a" opacity="0.9"/><rect x="1851" y="991.3304538770917" width="10" height="28.669546122908287" fill="#ef5350" opacity="0.9"/><rect x="1863" y="996.6140673410563" width="10" height="23.385932658943716" fill="#ef5350" opacity="0.9"/><rect x="1875" y="974.7754678821487" width="10" height="45.224532117851254" fill="#ef5350" opacity="0.9"/><rect x="1887" y="979.9176152298581" width="10" height="40.08238477014186" fill="#26a69a" opacity="0.9"/><rect x="1899" y="983.9405081455818" width="10" height="36.059491854418184" fill="#ef5350" opacity="0.9"/><rect x="1911" y="983.3202336358473" width="10" height="36.67976636415267" fill="#26a69a" opacity="0.9"/><rect x="1923" y="912.4255378631981" width="10" height="107.57446213680191" fill="#ef5350" opacity="0.9"/><rect x="1935" y="860.0" width="10" height="160.0" fill="#ef5350" opacity="0.9"/><rect x="1004" y="598.1276832000003" width="12" height="196.0216949333335" fill="#ff0000" opacity="0.50"/><polyline points="320,384.18892404190655,332,389.5786016252169,344,383.75829721646977,356,377.43273077680595,368,373.5764725313978,380,366.05099418237535,392,362.87506259675257,404,359.1943041272194,416,361.1619777151039,428,361.4285727517624,440,363.48619505476864,452,366.0542378368518,464,370.6986826904843,476,377.32268913901254,488,385.43499130355485,500,396.45798377622975,512,406.8348157467456,524,414.60878488832657,536,422.9037768545216,548,429.6014730271054,560,435.0053649419836,572,433.38577198877834,584,440.75023205333616,596,442.11543133714565,608,440.676441787576,620,440.4340755982836,632,439.0038470905105,644,435.74204547553865,656,434.70822095405913,668,431.1491420822434,680,428.78677568710674,692,424.83297934864817,704,422.71896003290743,716,412.5819422266007,728,408.1027659129541,740,407.5316442323553,752,409.03315646419287,764,410.6944037342691,776,411.2387723437011,788,413.95136184747264,800,419.02932327152183,812,423.97686160121646,824,428.20092562649734,836,431.9217857382622,848,434.63234978858355,860,439.91030281188915,872,443.8278410583795,884,447.92729680520404,896,451.63632819518773,908,451.3088279861222,920,447.0769475303011,932,448.0918826607497,944,454.6107771375015,956,455.9677814228174,968,459.3651567031823,980,465.92043879494065,992,478.61251697954987,1004,489.99491376245106,1016,519.9711262676162,1028,534.3270846294308,1040,552.3614123155191,1052,576.4988703934039,1064,593.2919194352992,1076,609.898399489081,1088,617.3549047821841,1100,626.9268046441964,1112,626.8582009764941,1124,626.4933947882582,1136,620.5627122115978,1148,606.6193306549364,1160,588.504182414784,1172,569.4905725594072,1184,551.581398233114,1196,539.1116060966276,1208,523.1874580112344,1220,511.6558894641336,1232,490.68229988977083,1244,472.6598140843938,1256,452.3172727049253,1268,432.600259304454,1280,410.97685413895306,1292,391.9173811987336,1304,373.15941514170845,1316,346.04625905837264,1328,319.29524279249256,1340,298.9770570281265,1352,285.23589177465203,1364,268.2119097516686,1376,254.0706602388127,1388,238.0470101589284,1400,223.3475978390319,1412,208.83718473690044,1424,195.4059795365598,1436,179.97429447593584,1448,172.77340232902134,1460,162.22182669133565,1472,153.4824595778748,1484,144.9699406847443,1496,137.11676980048048,1508,133.84617859408536,1520,131.79528087401195,1532,131.25156366061367,1544,132.02102992785512,1556,134.3318067601225,1568,139.14713548772852,1580,146.27894338413773,1592,151.36921854120374,1604,155.52060130870814,1616,160.53801512692485,1628,166.1371567465843,1640,166.46017953262344,1652,171.2934813930102,1664,176.22148517145138,1676,179.57012249480613,1688,182.9530342064087,1700,184.04597850421248,1712,184.6816405895272,1724,181.92666514290363,1736,176.91126658325936,1748,173.18082158802395,1760,170.51204157646987,1772,170.06521643585074,1784,170.36733052767272,1796,171.14523220439878,1808,172.1517842103276,1820,174.12205085696155,1832,177.41835412772468,1844,179.74479527111419,1856,183.766999911962,1868,188.97027453621683,1880,203.71875007879976,1892,211.4115330427254,1904,219.02759844183186,1916,223.44597857752888,1928,235.26424601458837,1940,246.20924434970823" fill="none" stroke="#0090ff" stroke-width="2"/><line x1="80" y1="50" x2="80" y2="850" stroke="#666666" stroke-width="0.5" stroke-dasharray="4,4"/><line x1="152" y1="50" x2="152" y2="850" stroke="#666666" stroke-width="0.5" stroke-dasharray="4,4"/><line x1="224" y1="50" x2="224" y2="850" stroke="#666666" stroke-width="0.5" stroke-dasharray="4,4"/><line x1="296" y1="50" x2="296" y2="850" stroke="#666666" stroke-width="0.5" stroke-dasharray="4,4"/><line x1="368" y1="50" x2="368" y2="850" stroke="#666666" stroke-width="0.5" stroke-dasharray="4,4"/><line x1="440" y1="50" x2="440" y2="850" stroke="#666666" stroke-width="0.5" stroke-dasharray="4,4"/><line x1="512" y1="50" x2="512" y2="850" stroke="#666666" stroke-width="0.5" stroke-dasharray="4,4"/><line x1="584" y1="50" x2="584" y2="850" stroke="#666666" stroke-width="0.5" stroke-dasharray="4,4"/><line x1="656" y1="50" x2="656" y2="850" stroke="#666666" stroke-width="0.5" stroke-dasharray="4,4"/><line x1="728" y1="50" x2="728" y2="850" stroke="#666666" stroke-width="0.5" stroke-dasharray="4,4"/><line x1="800" y1="50" x2="800" y2="850" stroke="#666666" stroke-width="0.5" stroke-dasharray="4,4"/><line x1="872" y1="50" x2="872" y2="850" stroke="#666666" stroke-width="0.5" stroke-dasharray="4,4"/><line x1="944" y1="50" x2="944" y2="850" stroke="#666666" stroke-width="0.5" stroke-dasharray="4,4"/><line x1="1016" y1="50" x2="1016" y2="850" stroke="#666666" stroke-width="0.5" stroke-dasharray="4,4"/><line x1="1088" y1="50" x2="1088" y2="850" stroke="#666666" stroke-width="0.5" stroke-dasharray="4,4"/><line x1="1160" y1="50" x2="1160" y2="850" stroke="#666666" stroke-width="0.5" stroke-dasharray="4,4"/><line x1="1232" y1="50" x2="1232" y2="850" stroke="#666666" stroke-width="0.5" stroke-dasharray="4,4"/><line x1="1304" y1="50" x2="1304" y2="850" stroke="#666666" stroke-width="0.5" stroke-dasharray="4,4"/><line x1="1376" y1="50" x2="1376" y2="850" stroke="#666666" stroke-width="0.5" stroke-dasharray="4,4"/><line x1="1448" y1="50" x2="1448" y2="850" stroke="#666666" stroke-width="0.5" stroke-dasharray="4,4"/><line x1="1520" y1="50" x2="1520" y2="850" stroke="#666666" stroke-width="0.5" stroke-dasharray="4,4"/><line x1="1592" y1="50" x2="1592" y2="850" stroke="#666666" stroke-width="0.5" stroke-dasharray="4,4"/><line x1="1664" y1="50" x2="1664" y2="850" stroke="#666666" stroke-width="0.5" stroke-dasharray="4,4"/><line x1="1736" y1="50" x2="1736" y2="850" stroke="#666666" stroke-width="0.5" stroke-dasharray="4,4"/><line x1="1808" y1="50" x2="1808" y2="850" stroke="#666666" stroke-width="0.5" stroke-dasharray="4,4"/><line x1="1880" y1="50" x2="1880" y2="850" stroke="#666666" stroke-width="0.5" stroke-dasharray="4,4"/><text x="80" y="1040" text-anchor="middle" font-size="20" fill="black">09:30</text><text x="152" y="1040" text-anchor="middle" font-size="20" fill="black">10:00</text><text x="224" y="1040" text-anchor="middle" font-size="20" fill="black">10:30</text><text x="296" y="1040" text-anchor="middle" font-size="20" fill="black">11:00</text><text x="368" y="1040" text-anchor="middle" font-size="20" fill="black">11:30</text><text x="440" y="1040" text-anchor="middle" font-size="20" fill="black">12:00</text><text x="512" y="1040" text-anchor="middle" font-size="20" fill="black">12:30</text><text x="584" y="1040" text-anchor="middle" font-size="20" fill="black">13:00</text><text x="656" y="1040" text-anchor="middle" font-size="20" fill="black">13:30</text><text x="728" y="1040" text-anchor="middle" font-size="20" fill="black">14:00</text><text x="800" y="1040" text-anchor="middle" font-size="20" fill="black">14:30</text><text x="872" y="1040" text-anchor="middle" font-size="20" fill="black">15:00</text><text x="944" y="1040" text-anchor="middle" font-size="20" fill="black">15:30</text><text x="1016" y="1040" text-anchor="middle" font-size="20" fill="black">09:30</text><text x="1088" y="1040" text-anchor="middle" font-size="20" fill="black">10:00</text><text x="1160" y="1040" text-anchor="middle" font-size="20" fill="black">10:30</text><text x="1232" y="1040" text-anchor="middle" font-size="20" fill="black">11:00</text><text x="1304" y="1040" text-anchor="middle" font-size="20" fill="black">11:30</text><text x="1376" y="1040" text-anchor="middle" font-size="20" fill="black">12:00</text><text x="1448" y="1040" text-anchor="middle" font-size="20" fill="black">12:30</text><text x="1520" y="1040" text-anchor="middle" font-size="20" fill="black">13:00</text><text x="1592" y="1040" text-anchor="middle" font-size="20" fill="black">13:30</text><text x="1664" y="1040" text-anchor="middle" font-size="20" fill="black">14:00</text><text x="1736" y="1040" text-anchor="middle" font-size="20" fill="black">14:30</text><text x="1808" y="1040" text-anchor="middle" font-size="20" fill="black">15:00</text><text x="1880" y="1040" text-anchor="middle" font-size="20" fill="black">15:30</text><text x="1942" y="50" text-anchor="end" font-size="40" fill="#26a69a" font-weight="bold"> +1.64% (Fri)</text></svg>