<svg xmlns="http://www.w3.org/2000/svg" width="1992" height="1050"><rect width="100%" height="100%" fill="white"/><text x="42" y="854.0" text-anchor="end" font-size="20" fill="black">481</text><text x="42" y="765.1111111111111" text-anchor="end" font-size="20" fill="black">482</text><text x="42" y="676.2222222222222" text-anchor="end" font-size="20" fill="black">483</text><text x="42" y="587.3333333333334" text-anchor="end" font-size="20" fill="black">484</text><text x="42" y="498.44444444444446" text-anchor="end" font-size="20" fill="black">485</text><text x="42" y="409.55555555555554" text-anchor="end" font-size="20" fill="black">486</text><text x="42" y="320.66666666666674" text-anchor="end" font-size="20" fill="black">487</text><text x="42" y="231.77777777777771" text-anchor="end" font-size="20" fill="black">488</text><text x="42" y="142.8888888888889" text-anchor="end" font-size="20" fill="black">489</text><text x="42" y="54.0" text-anchor="end" font-size="20" fill="black">490</text><line x1="80" y1="810.1344346666691" x2="80" y2="876.3579795555567" stroke="#ef5350" stroke-width="2"/><rect x="76" y="811.9003955555551" width="8" height="59.159700444443956" fill="#ef5350"/><line x1="92" y1="788.942899555554" x2="92" y2="880.7728826666688" stroke="#26a69a" stroke-width="2"/><rect x="88" y="852.51750311111" width="8" height="22.07451555555565" fill="#26a69a"/><line x1="104" y1="803.0705893333309" x2="104" y2="869.2941351111131" stroke="#26a69a" stroke-width="2"/><rect x="100" y="810.1344346666691" width="8" height="42.38306844444094" fill="#26a69a"/><line x1="116" y1="807.485492444443" x2="116" y2="880.7728826666688" stroke="#26a69a" stroke-width="2"/><rect x="112" y="814.5493368888866" width="8" height="2" fill="#26a69a"/><line x1="128" y1="728.9002186666645" x2="128" y2="845.4536586666665" stroke="#26a69a" stroke-width="2"/><rect x="124" y="742.1449271111113" width="8" height="67.10652622222267" fill="#26a69a"/><line x1="140" y1="703.2937804444423" x2="140" y2="762.4534817777759" stroke="#26a69a" stroke-width="2"/><rect x="136" y="705.0597422222229" width="8" height="34.436243555556985" fill="#26a69a"/><line x1="152" y1="607.931874666666" x2="152" y2="704.1767608888879" stroke="#26a69a" stroke-width="2"/><rect x="148" y="640.6021573333318" width="8" height="63.57460355555611" fill="#26a69a"/><line x1="164" y1="622.9425457777779" x2="164" y2="672.3894595555571" stroke="#26a69a" stroke-width="2"/><rect x="160" y="634.4212933333337" width="8" height="6.18086399999811" fill="#26a69a"/><line x1="176" y1="617.6446613333358" x2="176" y2="666.208595555554" stroke="#ef5350" stroke-width="2"/><rect x="172" y="634.4212933333337" width="8" height="19.425573333334455" fill="#ef5350"/><line x1="188" y1="646.7830222222245" x2="188" y2="683.868207111113" stroke="#26a69a" stroke-width="2"/><rect x="184" y="657.3787893333348" width="8" height="2" fill="#26a69a"/><line x1="200" y1="643.3393973333345" x2="200" y2="709.474645333335" stroke="#ef5350" stroke-width="2"/><rect x="196" y="658.2617697777803" width="8" height="32.6702826666658" fill="#ef5350"/><line x1="212" y1="637.9532160000003" x2="212" y2="701.5278195555563" stroke="#26a69a" stroke-width="2"/><rect x="208" y="646.7830222222245" width="8" height="45.47350044443999" fill="#26a69a"/><line x1="224" y1="592.9212044444436" x2="224" y2="655.6128275555541" stroke="#26a69a" stroke-width="2"/><rect x="220" y="599.1020693333313" width="8" height="45.91499111111261" fill="#26a69a"/><line x1="236" y1="578.7935146666667" x2="236" y2="622.0595644444428" stroke="#ef5350" stroke-width="2"/><rect x="232" y="598.2190880000012" width="8" height="15.01067111111206" fill="#ef5350"/><line x1="248" y1="497.5592986666672" x2="248" y2="623.8255262222234" stroke="#26a69a" stroke-width="2"/><rect x="244" y="523.1657368888895" width="8" height="84.76613777777652" fill="#26a69a"/><line x1="260" y1="458.7081519999982" x2="260" y2="539.9423679999977" stroke="#26a69a" stroke-width="2"/><rect x="256" y="498.44228000000237" width="8" height="22.95749511110637" fill="#26a69a"/><line x1="272" y1="493.1443964444447" x2="272" y2="540.8253484444433" stroke="#ef5350" stroke-width="2"/><rect x="268" y="501.97420177777934" width="8" height="29.13835999999918" fill="#ef5350"/><line x1="284" y1="503.7401635555549" x2="284" y2="550.5381351111131" stroke="#26a69a" stroke-width="2"/><rect x="280" y="529.3466008888876" width="8" height="2" fill="#26a69a"/><line x1="296" y1="486.0805511111115" x2="296" y2="528.463620444442" stroke="#26a69a" stroke-width="2"/><rect x="292" y="501.09122133333386" width="8" height="27.37239911110811" fill="#26a69a"/><line x1="308" y1="501.09122133333386" x2="308" y2="531.1125617777785" stroke="#ef5350" stroke-width="2"/><rect x="304" y="501.97420177777934" width="8" height="29.13835999999918" fill="#ef5350"/><line x1="320" y1="525.8146782222209" x2="320" y2="570.8466897777776" stroke="#ef5350" stroke-width="2"/><rect x="316" y="528.463620444442" width="8" height="30.021340444444718" fill="#ef5350"/><line x1="332" y1="556.7190000000007" x2="332" y2="589.3892826666665" stroke="#ef5350" stroke-width="2"/><rect x="328" y="556.7190000000007" width="8" height="13.244709333331343" fill="#ef5350"/><line x1="344" y1="521.3997751111087" x2="344" y2="579.6764960000019" stroke="#26a69a" stroke-width="2"/><rect x="340" y="567.314767111111" width="8" height="3.53192266666656" fill="#26a69a"/><line x1="356" y1="538.1764071111118" x2="356" y2="587.623320888891" stroke="#26a69a" stroke-width="2"/><rect x="352" y="547.006213333331" width="8" height="21.191534222225528" fill="#26a69a"/><line x1="368" y1="532.8785235555541" x2="368" y2="569.0807280000021" stroke="#ef5350" stroke-width="2"/><rect x="364" y="545.2402515555555" width="8" height="11.478748444445273" fill="#ef5350"/><line x1="380" y1="543.4742906666644" x2="380" y2="569.9637093333321" stroke="#26a69a" stroke-width="2"/><rect x="376" y="549.6551546666675" width="8" height="8.82980622221919" fill="#26a69a"/><line x1="392" y1="530.229581333333" x2="392" y2="548.772174222222" stroke="#26a69a" stroke-width="2"/><rect x="388" y="546.2115306666672" width="8" height="2" fill="#26a69a"/><line x1="404" y1="525.8146782222209" x2="404" y2="552.3040968888886" stroke="#ef5350" stroke-width="2"/><rect x="400" y="547.8891937777765" width="8" height="2" fill="#ef5350"/><line x1="416" y1="500.2082408888883" x2="416" y2="540.8253484444433" stroke="#26a69a" stroke-width="2"/><rect x="412" y="501.8859039999976" width="8" height="36.29050311111416" fill="#26a69a"/><line x1="428" y1="490.4954542222236" x2="428" y2="525.8146782222209" stroke="#26a69a" stroke-width="2"/><rect x="424" y="494.0273768888902" width="8" height="8.82980622221919" fill="#26a69a"/><line x1="440" y1="494.91035733333575" x2="440" y2="572.6126506666686" stroke="#ef5350" stroke-width="2"/><rect x="436" y="494.91035733333575" width="8" height="67.10652622221761" fill="#ef5350"/><line x1="452" y1="553.1870773333342" x2="452" y2="613.2297591111133" stroke="#ef5350" stroke-width="2"/><rect x="448" y="563.3413546666665" width="8" height="21.63302488888803" fill="#ef5350"/><line x1="464" y1="554.9530382222201" x2="464" y2="584.0913982222244" stroke="#26a69a" stroke-width="2"/><rect x="460" y="562.0168835555534" width="8" height="22.074514666671007" fill="#26a69a"/><line x1="476" y1="544.3572711111099" x2="476" y2="578.7935146666667" stroke="#26a69a" stroke-width="2"/><rect x="472" y="547.006213333331" width="8" height="20.308553777780048" fill="#26a69a"/><line x1="488" y1="540.8253484444433" x2="488" y2="560.2509217777778" stroke="#ef5350" stroke-width="2"/><rect x="484" y="547.8891937777765" width="8" height="9.712786666669786" fill="#ef5350"/><line x1="500" y1="529.3466008888876" x2="500" y2="562.4583733333313" stroke="#26a69a" stroke-width="2"/><rect x="496" y="533.7615039999996" width="8" height="28.696869333331733" fill="#26a69a"/><line x1="512" y1="530.229581333333" x2="512" y2="548.772174222222" stroke="#ef5350" stroke-width="2"/><rect x="508" y="539.9423679999977" width="8" height="2.6489422222261965" fill="#ef5350"/><line x1="524" y1="512.5699697777792" x2="524" y2="551.4211164444431" stroke="#ef5350" stroke-width="2"/><rect x="520" y="541.7083297777784" width="8" height="3.443624000000341" fill="#ef5350"/><line x1="536" y1="531.1125617777785" x2="536" y2="547.006213333331" stroke="#26a69a" stroke-width="2"/><rect x="532" y="539.9423679999977" width="8" height="2" fill="#26a69a"/><line x1="548" y1="524.4902080000024" x2="548" y2="582.7669280000009" stroke="#ef5350" stroke-width="2"/><rect x="544" y="538.1764071111118" width="8" height="30.021340444444718" fill="#ef5350"/><line x1="560" y1="539.0593875555574" x2="560" y2="577.9105342222213" stroke="#26a69a" stroke-width="2"/><rect x="556" y="540.8253484444433" width="8" height="23.840476444446608" fill="#26a69a"/><line x1="572" y1="539.0593875555574" x2="572" y2="553.1870773333342" stroke="#ef5350" stroke-width="2"/><rect x="568" y="543.4742906666644" width="8" height="2.6489422222260828" fill="#ef5350"/><line x1="584" y1="536.4104462222208" x2="584" y2="596.4531271111102" stroke="#ef5350" stroke-width="2"/><rect x="580" y="546.1232328888905" width="8" height="49.44691377777417" fill="#ef5350"/><line x1="596" y1="588.5063013333315" x2="596" y2="684.7511875555533" stroke="#ef5350" stroke-width="2"/><rect x="592" y="589.3892826666665" width="8" height="74.17037066666637" fill="#ef5350"/><line x1="608" y1="593.8041848888892" x2="608" y2="679.4533040000008" stroke="#26a69a" stroke-width="2"/><rect x="604" y="595.5701466666646" width="8" height="77.70229333333305" fill="#26a69a"/><line x1="620" y1="597.3361075555557" x2="620" y2="656.4958088888893" stroke="#ef5350" stroke-width="2"/><rect x="616" y="598.2190880000012" width="8" height="35.31922488888699" fill="#ef5350"/><line x1="632" y1="608.8148560000011" x2="632" y2="639.7191768888913" stroke="#26a69a" stroke-width="2"/><rect x="628" y="615.8787004444447" width="8" height="16.776631999997903" fill="#26a69a"/><line x1="644" y1="604.399952888889" x2="644" y2="629.123409777776" stroke="#26a69a" stroke-width="2"/><rect x="640" y="619.4106231111114" width="8" height="2" fill="#26a69a"/><line x1="656" y1="596.4531271111102" x2="656" y2="631.7723511111126" stroke="#26a69a" stroke-width="2"/><rect x="652" y="596.4531271111102" width="8" height="23.840476444446608" fill="#26a69a"/><line x1="668" y1="577.9105342222213" x2="668" y2="606.16591377778" stroke="#26a69a" stroke-width="2"/><rect x="664" y="594.6871662222243" width="8" height="2" fill="#26a69a"/><line x1="680" y1="581.4424568888878" x2="680" y2="596.4531271111102" stroke="#26a69a" stroke-width="2"/><rect x="676" y="592.9212044444436" width="8" height="2" fill="#26a69a"/><line x1="692" y1="588.5063013333315" x2="692" y2="614.9957199999992" stroke="#ef5350" stroke-width="2"/><rect x="688" y="591.1552435555576" width="8" height="2" fill="#ef5350"/><line x1="704" y1="564.6658248888899" x2="704" y2="598.2190880000012" stroke="#26a69a" stroke-width="2"/><rect x="700" y="572.6126506666686" width="8" height="19.425573333329453" fill="#26a69a"/><line x1="716" y1="542.5913102222239" x2="716" y2="577.0275537777757" stroke="#26a69a" stroke-width="2"/><rect x="712" y="545.681742222223" width="8" height="26.489417777778158" fill="#26a69a"/><line x1="728" y1="528.463620444442" x2="728" y2="548.772174222222" stroke="#26a69a" stroke-width="2"/><rect x="724" y="534.6444844444452" width="8" height="10.595767111110263" fill="#26a69a"/><line x1="740" y1="524.0487173333349" x2="740" y2="550.5381351111131" stroke="#ef5350" stroke-width="2"/><rect x="736" y="532.8785235555541" width="8" height="11.478747555555742" fill="#ef5350"/><line x1="752" y1="522.2827564444439" x2="752" y2="546.1232328888905" stroke="#26a69a" stroke-width="2"/><rect x="748" y="531.1125617777785" width="8" height="9.712786666664783" fill="#26a69a"/><line x1="764" y1="524.0487173333349" x2="764" y2="547.006213333331" stroke="#ef5350" stroke-width="2"/><rect x="760" y="531.9955431111086" width="8" height="7.1521422222252795" fill="#ef5350"/><line x1="776" y1="528.463620444442" x2="776" y2="559.3679413333323" stroke="#ef5350" stroke-width="2"/><rect x="772" y="539.5008782222199" width="8" height="6.622354666670617" fill="#ef5350"/><line x1="788" y1="531.1125617777785" x2="788" y2="554.9530382222201" stroke="#26a69a" stroke-width="2"/><rect x="784" y="534.6444844444452" width="8" height="7.946825777778713" fill="#26a69a"/><line x1="800" y1="532.8785235555541" x2="800" y2="563.7828444444444" stroke="#ef5350" stroke-width="2"/><rect x="796" y="533.7615039999996" width="8" height="7.946825777778827" fill="#ef5350"/><line x1="812" y1="471.0698808888891" x2="812" y2="542.5913102222239" stroke="#26a69a" stroke-width="2"/><rect x="808" y="488.7294933333325" width="8" height="52.09585511111078" fill="#26a69a"/><line x1="824" y1="489.61247377777806" x2="824" y2="515.2189111111106" stroke="#ef5350" stroke-width="2"/><rect x="820" y="489.61247377777806" width="8" height="15.893650666667895" fill="#ef5350"/><line x1="836" y1="492.2614151111096" x2="836" y2="513.4529502222247" stroke="#26a69a" stroke-width="2"/><rect x="832" y="495.7933377777762" width="8" height="12.361728888890866" fill="#26a69a"/><line x1="848" y1="465.77199733333146" x2="848" y2="496.6763182222217" stroke="#26a69a" stroke-width="2"/><rect x="844" y="477.2507448888872" width="8" height="18.542592888888976" fill="#26a69a"/><line x1="860" y1="441.04854044444437" x2="860" y2="479.0167066666678" stroke="#26a69a" stroke-width="2"/><rect x="856" y="457.8251715555578" width="8" height="20.308553777774932" fill="#26a69a"/><line x1="872" y1="458.7081519999982" x2="872" y2="495.7933377777762" stroke="#ef5350" stroke-width="2"/><rect x="868" y="460.4741137777788" width="8" height="14.12768977777688" fill="#ef5350"/><line x1="884" y1="461.3570942222244" x2="884" y2="478.13372533333273" stroke="#26a69a" stroke-width="2"/><rect x="880" y="471.0698808888891" width="8" height="5.297883555557689" fill="#26a69a"/><line x1="896" y1="457.8251715555578" x2="896" y2="471.9528613333346" stroke="#26a69a" stroke-width="2"/><rect x="892" y="460.4741137777788" width="8" height="7.063844444443703" fill="#26a69a"/><line x1="908" y1="420.7399857777798" x2="908" y2="463.1230551111104" stroke="#26a69a" stroke-width="2"/><rect x="904" y="422.5059475555554" width="8" height="39.734127111109444" fill="#26a69a"/><line x1="920" y1="418.9740248888888" x2="920" y2="438.3995982222233" stroke="#ef5350" stroke-width="2"/><rect x="916" y="422.5059475555554" width="8" height="2" fill="#ef5350"/><line x1="932" y1="411.91018044444513" x2="932" y2="433.98469511111114" stroke="#26a69a" stroke-width="2"/><rect x="928" y="425.1548888888869" width="8" height="2" fill="#26a69a"/><line x1="944" y1="376.5909555555532" x2="944" y2="436.6336373333322" stroke="#26a69a" stroke-width="2"/><rect x="940" y="390.7186453333351" width="8" height="35.319224888886936" fill="#26a69a"/><line x1="956" y1="354.5164408888872" x2="956" y2="399.54845155555427" stroke="#26a69a" stroke-width="2"/><rect x="952" y="368.64413066666907" width="8" height="22.957495111106482" fill="#26a69a"/><line x1="968" y1="365.1122080000025" x2="968" y2="394.2505680000017" stroke="#ef5350" stroke-width="2"/><rect x="964" y="367.761149333334" width="8" height="23.84047644444155" fill="#ef5350"/><line x1="980" y1="372.1760524444461" x2="980" y2="397.7824906666683" stroke="#26a69a" stroke-width="2"/><rect x="976" y="380.1228782222198" width="8" height="13.244709333336345" fill="#26a69a"/><line x1="992" y1="339.50577066666483" x2="992" y2="394.2505680000017" stroke="#26a69a" stroke-width="2"/><rect x="988" y="350.9845182222206" width="8" height="30.021340444444718" fill="#26a69a"/><line x1="1004" y1="343.0376924444469" x2="1004" y2="417.20806399999776" stroke="#ef5350" stroke-width="2"/><rect x="1000" y="351.8674986666661" width="8" height="45.9149920000022" fill="#ef5350"/><line x1="1016" y1="412.79316088889067" x2="1016" y2="487.84651200000246" stroke="#ef5350" stroke-width="2"/><rect x="1012" y="430.4527724444445" width="8" height="48.47563555555706" fill="#ef5350"/><line x1="1028" y1="447.2294044444425" x2="1028" y2="511.68698844444407" stroke="#26a69a" stroke-width="2"/><rect x="1024" y="455.17623022222125" width="8" height="30.02134044444466" fill="#26a69a"/><line x1="1040" y1="394.2505680000017" x2="1040" y2="521.3997751111087" stroke="#ef5350" stroke-width="2"/><rect x="1036" y="449.8783466666686" width="8" height="45.914991111107554" fill="#ef5350"/><line x1="1052" y1="437.51661777777775" x2="1052" y2="518.7508337777773" stroke="#26a69a" stroke-width="2"/><rect x="1048" y="465.77199733333146" width="8" height="28.25537955555876" fill="#26a69a"/><line x1="1064" y1="450.7613271111091" x2="1064" y2="498.44228000000237" stroke="#ef5350" stroke-width="2"/><rect x="1060" y="461.3570942222244" width="8" height="2" fill="#ef5350"/><line x1="1076" y1="455.17623022222125" x2="1076" y2="504.6231440000005" stroke="#ef5350" stroke-width="2"/><rect x="1072" y="461.3570942222244" width="8" height="3.53192266666656" fill="#ef5350"/><line x1="1088" y1="412.79316088889067" x2="1088" y2="470.18690044444355" stroke="#26a69a" stroke-width="2"/><rect x="1084" y="438.3995982222233" width="8" height="25.60643733333262" fill="#26a69a"/><line x1="1100" y1="383.6548008888864" x2="1100" y2="459.59113333333335" stroke="#26a69a" stroke-width="2"/><rect x="1096" y="423.38892800000093" width="8" height="17.65961244444344" fill="#26a69a"/><line x1="1112" y1="379.23989777777933" x2="1112" y2="419.8570053333343" stroke="#26a69a" stroke-width="2"/><rect x="1108" y="389.8356648888896" width="8" height="30.021340444444718" fill="#26a69a"/><line x1="1124" y1="348.3355759999995" x2="1124" y2="405.72931555555743" stroke="#26a69a" stroke-width="2"/><rect x="1120" y="349.2185573333346" width="8" height="43.26604977777606" fill="#26a69a"/><line x1="1136" y1="317.4312551111092" x2="1136" y2="374.8249946666672" stroke="#26a69a" stroke-width="2"/><rect x="1132" y="323.6121191111124" width="8" height="24.723456888887085" fill="#26a69a"/><line x1="1148" y1="277.6971279999998" x2="1148" y2="333.3249057777772" stroke="#26a69a" stroke-width="2"/><rect x="1144" y="298.0056817777797" width="8" height="24.723456888887085" fill="#26a69a"/><line x1="1160" y1="281.2290497777768" x2="1160" y2="324.495099555558" stroke="#26a69a" stroke-width="2"/><rect x="1156" y="282.11203111111195" width="8" height="19.425573333334455" fill="#26a69a"/><line x1="1172" y1="275.0481857777787" x2="1172" y2="325.378080888888" stroke="#ef5350" stroke-width="2"/><rect x="1168" y="288.29289511111006" width="8" height="7.063844444443589" fill="#ef5350"/><line x1="1184" y1="287.4099146666646" x2="1184" y2="337.73980888888923" stroke="#ef5350" stroke-width="2"/><rect x="1180" y="294.3854613333315" width="8" height="27.372399111113168" fill="#ef5350"/><line x1="1196" y1="309.4844293333356" x2="1196" y2="356.2824017777782" stroke="#ef5350" stroke-width="2"/><rect x="1192" y="319.19721600000025" width="8" height="20.308554666664577" fill="#ef5350"/><line x1="1208" y1="313.01635200000214" x2="1208" y2="358.93134399999934" stroke="#ef5350" stroke-width="2"/><rect x="1204" y="341.27173155555585" width="8" height="3.531922666666617" fill="#ef5350"/><line x1="1220" y1="258.2715546666652" x2="1220" y2="340.38875111111037" stroke="#26a69a" stroke-width="2"/><rect x="1216" y="260.0375155555564" width="8" height="80.35123555555396" fill="#26a69a"/><line x1="1232" y1="210.59060177777712" x2="1232" y2="259.1545351111108" stroke="#26a69a" stroke-width="2"/><rect x="1228" y="237.08001955555517" width="8" height="22.07451555555565" fill="#26a69a"/><line x1="1244" y1="215.88848533333476" x2="1244" y2="234.43107822222373" stroke="#26a69a" stroke-width="2"/><rect x="1240" y="222.95232977777846" width="8" height="7.06384533333312" fill="#26a69a"/><line x1="1256" y1="198.22887288889137" x2="1256" y2="237.08001955555517" stroke="#26a69a" stroke-width="2"/><rect x="1252" y="219.42040800000143" width="8" height="2.648941333331436" fill="#26a69a"/><line x1="1268" y1="192.93098933333363" x2="1268" y2="237.96300000000076" stroke="#26a69a" stroke-width="2"/><rect x="1264" y="204.40973688888948" width="8" height="16.77663199999779" fill="#26a69a"/><line x1="1280" y1="180.56926044444276" x2="1280" y2="224.71829155555395" stroke="#26a69a" stroke-width="2"/><rect x="1276" y="199.99483377777722" width="8" height="2" fill="#26a69a"/><line x1="1292" y1="193.8139697777791" x2="1292" y2="220.3033884444469" stroke="#ef5350" stroke-width="2"/><rect x="1288" y="201.76079555555793" width="8" height="9.624488888888095" fill="#ef5350"/><line x1="1304" y1="171.7394551111131" x2="1304" y2="213.23954311110867" stroke="#26a69a" stroke-width="2"/><rect x="1300" y="178.8032995555568" width="8" height="31.78730222222032" fill="#26a69a"/><line x1="1316" y1="145.25003644444553" x2="1316" y2="188.5160862222216" stroke="#26a69a" stroke-width="2"/><rect x="1312" y="175.27137688889013" width="8" height="6.180864888887754" fill="#26a69a"/><line x1="1328" y1="137.3032106666667" x2="1328" y2="173.50541599999917" stroke="#26a69a" stroke-width="2"/><rect x="1324" y="155.84580355555568" width="8" height="17.659612444443496" fill="#26a69a"/><line x1="1340" y1="125.82446311111096" x2="1340" y2="159.37772622222224" stroke="#26a69a" stroke-width="2"/><rect x="1336" y="137.3032106666667" width="8" height="18.630891555555195" fill="#26a69a"/><line x1="1352" y1="90.50523911110861" x2="1352" y2="132.00532711110907" stroke="#26a69a" stroke-width="2"/><rect x="1348" y="91.38821955555409" width="8" height="40.61710755555498" fill="#26a69a"/><line x1="1364" y1="83.44139377777537" x2="1364" y2="97.5690835555572" stroke="#26a69a" stroke-width="2"/><rect x="1360" y="87.85629688888753" width="8" height="3.53192266666656" fill="#26a69a"/><line x1="1376" y1="86.97331644444205" x2="1376" y2="165.55859022222035" stroke="#ef5350" stroke-width="2"/><rect x="1372" y="88.739277333333" width="8" height="72.40440977778042" fill="#ef5350"/><line x1="1388" y1="135.53724977777563" x2="1388" y2="183.21820266666896" stroke="#26a69a" stroke-width="2"/><rect x="1384" y="141.71811377777885" width="8" height="19.42557333333457" fill="#26a69a"/><line x1="1400" y1="135.53724977777563" x2="1400" y2="188.5160862222216" stroke="#ef5350" stroke-width="2"/><rect x="1396" y="139.9521528888879" width="8" height="46.88627022222431" fill="#ef5350"/><line x1="1412" y1="173.50541599999917" x2="1412" y2="237.96300000000076" stroke="#ef5350" stroke-width="2"/><rect x="1408" y="189.39906666666707" width="8" height="45.032011555556664" fill="#ef5350"/><line x1="1424" y1="169.9734933333326" x2="1424" y2="249.44174844444603" stroke="#26a69a" stroke-width="2"/><rect x="1420" y="184.10118311110932" width="8" height="55.62777866666693" fill="#26a69a"/><line x1="1436" y1="154.0798426666646" x2="1436" y2="194.6969502222247" stroke="#26a69a" stroke-width="2"/><rect x="1432" y="154.0798426666646" width="8" height="30.90432088889031" fill="#26a69a"/><line x1="1448" y1="147.01599733333137" x2="1448" y2="169.9734933333326" stroke="#ef5350" stroke-width="2"/><rect x="1444" y="154.9628231111102" width="8" height="10.595767111110149" fill="#ef5350"/><line x1="1460" y1="149.66493955555757" x2="1460" y2="173.50541599999917" stroke="#26a69a" stroke-width="2"/><rect x="1456" y="164.67560977777998" width="8" height="2" fill="#26a69a"/><line x1="1472" y1="135.53724977777563" x2="1472" y2="161.14368711111342" stroke="#26a69a" stroke-width="2"/><rect x="1468" y="145.25003644444553" width="8" height="15.010670222222302" fill="#26a69a"/><line x1="1484" y1="132.8883084444442" x2="1484" y2="173.50541599999917" stroke="#ef5350" stroke-width="2"/><rect x="1480" y="147.01599733333137" width="8" height="5.297884444447391" fill="#ef5350"/><line x1="1496" y1="150.54791999999804" x2="1496" y2="222.06934933333287" stroke="#ef5350" stroke-width="2"/><rect x="1492" y="153.6383520000021" width="8" height="49.0054239999962" fill="#ef5350"/><line x1="1508" y1="177.03733866666585" x2="1508" y2="207.05867911111056" stroke="#26a69a" stroke-width="2"/><rect x="1504" y="193.01928711111032" width="8" height="7.8585280000021385" fill="#26a69a"/><line x1="1520" y1="190.28204711111255" x2="1520" y2="213.23954311110867" stroke="#ef5350" stroke-width="2"/><rect x="1516" y="191.25332622222436" width="8" height="13.951093333328913" fill="#ef5350"/><line x1="1532" y1="180.56926044444276" x2="1532" y2="203.5267564444439" stroke="#26a69a" stroke-width="2"/><rect x="1528" y="184.10118311110932" width="8" height="19.42557333333457" fill="#26a69a"/><line x1="1544" y1="165.55859022222035" x2="1544" y2="192.93098933333363" stroke="#26a69a" stroke-width="2"/><rect x="1540" y="167.32455200000106" width="8" height="11.478747555555742" fill="#26a69a"/><line x1="1556" y1="132.00532711110907" x2="1556" y2="175.27137688889013" stroke="#26a69a" stroke-width="2"/><rect x="1552" y="162.9096488888889" width="8" height="8.829806222224192" fill="#26a69a"/><line x1="1568" y1="145.25003644444553" x2="1568" y2="171.7394551111131" stroke="#26a69a" stroke-width="2"/><rect x="1564" y="150.54791999999804" width="8" height="14.127689777781939" fill="#26a69a"/><line x1="1580" y1="139.0691724444423" x2="1580" y2="162.02666844444343" stroke="#26a69a" stroke-width="2"/><rect x="1576" y="145.25003644444553" width="8" height="8.829806222219077" fill="#26a69a"/><line x1="1592" y1="123.17552088888988" x2="1592" y2="162.9096488888889" stroke="#ef5350" stroke-width="2"/><rect x="1588" y="144.8085457777779" width="8" height="2" fill="#ef5350"/><line x1="1604" y1="139.9521528888879" x2="1604" y2="163.7926293333345" stroke="#ef5350" stroke-width="2"/><rect x="1600" y="147.01599733333137" width="8" height="2" fill="#ef5350"/><line x1="1616" y1="132.8883084444442" x2="1616" y2="160.26070666666783" stroke="#ef5350" stroke-width="2"/><rect x="1612" y="147.01599733333137" width="8" height="3.5319226666666736" fill="#ef5350"/><line x1="1628" y1="132.00532711110907" x2="1628" y2="156.72878400000116" stroke="#26a69a" stroke-width="2"/><rect x="1624" y="146.133016888891" width="8" height="5.29788355555263" fill="#26a69a"/><line x1="1640" y1="144.36705599999993" x2="1640" y2="275.0481857777787" stroke="#ef5350" stroke-width="2"/><rect x="1636" y="144.36705599999993" width="8" height="60.92566222222456" fill="#ef5350"/><line x1="1652" y1="163.7926293333345" x2="1652" y2="225.60127199999954" stroke="#26a69a" stroke-width="2"/><rect x="1648" y="184.54267377777694" width="8" height="24.281966222224582" fill="#26a69a"/><line x1="1664" y1="160.26070666666783" x2="1664" y2="201.76079555555793" stroke="#26a69a" stroke-width="2"/><rect x="1660" y="162.02666844444343" width="8" height="21.191534222225528" fill="#26a69a"/><line x1="1676" y1="148.7819591111121" x2="1676" y2="176.15435822222025" stroke="#ef5350" stroke-width="2"/><rect x="1672" y="163.7926293333345" width="8" height="3.53192266666656" fill="#ef5350"/><line x1="1688" y1="160.26070666666783" x2="1688" y2="192.04800888888815" stroke="#26a69a" stroke-width="2"/><rect x="1684" y="161.14368711111342" width="8" height="9.71278666666467" fill="#26a69a"/><line x1="1700" y1="161.14368711111342" x2="1700" y2="189.39906666666707" stroke="#ef5350" stroke-width="2"/><rect x="1696" y="161.14368711111342" width="8" height="13.24470933333123" fill="#ef5350"/><line x1="1712" y1="154.0798426666646" x2="1712" y2="204.40973688888948" stroke="#26a69a" stroke-width="2"/><rect x="1708" y="154.9628231111102" width="8" height="22.07451555555565" fill="#26a69a"/><line x1="1724" y1="55.186014222221615" x2="1724" y2="154.0798426666646" stroke="#26a69a" stroke-width="2"/><rect x="1720" y="64.01582044444592" width="8" height="90.06402222221868" fill="#26a69a"/><line x1="1736" y1="64.01582044444592" x2="1736" y2="128.47340533333204" stroke="#ef5350" stroke-width="2"/><rect x="1732" y="66.664762666667" width="8" height="55.62777777777728" fill="#ef5350"/><line x1="1748" y1="110.81379288888854" x2="1748" y2="129.35638577777752" stroke="#ef5350" stroke-width="2"/><rect x="1744" y="116.99465688888665" width="8" height="3.0904320000041707" fill="#ef5350"/><line x1="1760" y1="101.10100622222387" x2="1760" y2="126.70744355555655" stroke="#26a69a" stroke-width="2"/><rect x="1756" y="109.04783199999758" width="8" height="13.244708444446701" fill="#26a69a"/><line x1="1772" y1="87.85629688888753" x2="1772" y2="115.22869600000081" stroke="#26a69a" stroke-width="2"/><rect x="1768" y="99.77653511111089" width="8" height="3.9734124444444205" fill="#26a69a"/><line x1="1784" y1="90.50523911110861" x2="1784" y2="117.87763733333225" stroke="#ef5350" stroke-width="2"/><rect x="1780" y="104.63292888889043" width="8" height="12.36172799999622" fill="#ef5350"/><line x1="1796" y1="105.51590933333102" x2="1796" y2="125.82446311111096" stroke="#26a69a" stroke-width="2"/><rect x="1792" y="112.57975377777962" width="8" height="5.29788355555263" fill="#26a69a"/><line x1="1808" y1="108.16485066666758" x2="1808" y2="132.00532711110907" stroke="#26a69a" stroke-width="2"/><rect x="1804" y="109.93081244444306" width="8" height="3.531921777777029" fill="#26a69a"/><line x1="1820" y1="94.92014222222065" x2="1820" y2="169.9734933333326" stroke="#ef5350" stroke-width="2"/><rect x="1816" y="108.16485066666758" width="8" height="25.60643822222221" fill="#ef5350"/><line x1="1832" y1="118.76061866666737" x2="1832" y2="148.7819591111121" stroke="#26a69a" stroke-width="2"/><rect x="1828" y="129.35638577777752" width="8" height="3.5319226666666736" fill="#26a69a"/><line x1="1844" y1="101.98398666666435" x2="1844" y2="131.1223466666686" stroke="#26a69a" stroke-width="2"/><rect x="1840" y="101.98398666666435" width="8" height="29.13836000000424" fill="#26a69a"/><line x1="1856" y1="78.14351022222286" x2="1856" y2="107.28187022222198" stroke="#26a69a" stroke-width="2"/><rect x="1852" y="97.5690835555572" width="8" height="5.297883555552744" fill="#26a69a"/><line x1="1868" y1="93.15418044444516" x2="1868" y2="118.76061866666737" stroke="#ef5350" stroke-width="2"/><rect x="1864" y="98.45206399999768" width="8" height="13.24470933333646" fill="#ef5350"/><line x1="1880" y1="30.462557333334644" x2="1880" y2="114.34571555555522" stroke="#26a69a" stroke-width="2"/><rect x="1876" y="49.8881306666691" width="8" height="61.80864266666504" fill="#26a69a"/><line x1="1892" y1="38.40938311111336" x2="1892" y2="73.72860711111059" stroke="#ef5350" stroke-width="2"/><rect x="1888" y="53.42005333333577" width="8" height="17.659612444443383" fill="#ef5350"/><line x1="1904" y1="65.78178222222152" x2="1904" y2="92.27119999999957" stroke="#ef5350" stroke-width="2"/><rect x="1900" y="72.84562666666511" width="8" height="18.542592888888976" fill="#ef5350"/><line x1="1916" y1="66.664762666667" x2="1916" y2="97.5690835555572" stroke="#26a69a" stroke-width="2"/><rect x="1912" y="74.61158755555618" width="8" height="16.776631999997903" fill="#26a69a"/><line x1="1928" y1="11.036984000000075" x2="1928" y2="76.37754933333167" stroke="#26a69a" stroke-width="2"/><rect x="1924" y="27.813615999998092" width="8" height="48.56393333333358" fill="#26a69a"/><line x1="1940" y1="21.632751111110338" x2="1940" y2="59.60091733333388" stroke="#ef5350" stroke-width="2"/><rect x="1936" y="29.57957688888905" width="8" height="28.255379555553645" fill="#ef5350"/><rect x="75" y="974.967962219808" width="10" height="45.03203778019201" fill="#ef5350" opacity="0.9"/><rect x="87" y="983.4744178140404" width="10" height="36.52558218595959" fill="#26a69a" opacity="0.9"/><rect x="99" y="997.2314480189788" width="10" height="22.768551981021233" fill="#26a69a" opacity="0.9"/><rect x="111" y="989.4152643209247" width="10" height="30.584735679075266" fill="#26a69a" opacity="0.9"/><rect x="123" y="971.1777487085117" width="10" height="48.82225129148833" fill="#26a69a" opacity="0.9"/><rect x="135" y="972.8302625841592" width="10" height="47.169737415840814" fill="#26a69a" opacity="0.9"/><rect x="147" y="942.6375185686096" width="10" height="77.36248143139039" fill="#26a69a" opacity="0.9"/><rect x="159" y="975.8537126133517" width="10" height="44.14628738664828" fill="#26a69a" opacity="0.9"/><rect x="171" y="980.5651508768818" width="10" height="39.43484912311817" fill="#ef5350" opacity="0.9"/><rect x="183" y="994.0095632958636" width="10" height="25.990436704136414" fill="#26a69a" opacity="0.9"/><rect x="195" y="994.9318966218063" width="10" height="25.068103378193655" fill="#ef5350" opacity="0.9"/><rect x="207" y="1000.431900317052" width="10" height="19.568099682947945" fill="#26a69a" opacity="0.9"/><rect x="219" y="990.4547369354589" width="10" height="29.545263064541132" fill="#26a69a" opacity="0.9"/><rect x="231" y="989.718643992639" width="10" height="30.281356007360955" fill="#ef5350" opacity="0.9"/><rect x="243" y="951.9639491829812" width="10" height="68.0360508170188" fill="#26a69a" opacity="0.9"/><rect x="255" y="970.7069744067282" width="10" height="49.29302559327175" fill="#26a69a" opacity="0.9"/><rect x="267" y="984.8180091494283" width="10" height="35.18199085057165" fill="#ef5350" opacity="0.9"/><rect x="279" y="992.3637008624703" width="10" height="27.636299137529704" fill="#26a69a" opacity="0.9"/><rect x="291" y="1000.6059463893754" width="10" height="19.39405361062461" fill="#26a69a" opacity="0.9"/><rect x="303" y="999.8229238262052" width="10" height="20.17707617379483" fill="#ef5350" opacity="0.9"/><rect x="315" y="982.8004049989283" width="10" height="37.19959500107166" fill="#ef5350" opacity="0.9"/><rect x="327" y="997.6852241905565" width="10" height="22.314775809443518" fill="#ef5350" opacity="0.9"/><rect x="339" y="995.3712613351662" width="10" height="24.628738664833804" fill="#26a69a" opacity="0.9"/><rect x="351" y="1003.7760976727343" width="10" height="16.223902327265705" fill="#26a69a" opacity="0.9"/><rect x="363" y="1005.5121241011315" width="10" height="14.487875898868538" fill="#ef5350" opacity="0.9"/><rect x="375" y="1004.4460457175798" width="10" height="15.55395428242025" fill="#26a69a" opacity="0.9"/><rect x="387" y="1007.0135024277764" width="10" height="12.986497572223584" fill="#26a69a" opacity="0.9"/><rect x="399" y="1003.7406233140441" width="10" height="16.259376685955885" fill="#ef5350" opacity="0.9"/><rect x="411" y="998.2605739455616" width="10" height="21.739426054438354" fill="#26a69a" opacity="0.9"/><rect x="423" y="997.9446304384778" width="10" height="22.055369561522184" fill="#26a69a" opacity="0.9"/><rect x="435" y="996.5733247603633" width="10" height="23.426675239636666" fill="#ef5350" opacity="0.9"/><rect x="447" y="991.4114360463827" width="10" height="28.588563953617268" fill="#ef5350" opacity="0.9"/><rect x="459" y="1006.075279545337" width="10" height="13.924720454662975" fill="#26a69a" opacity="0.9"/><rect x="471" y="1001.4506795556837" width="10" height="18.549320444316322" fill="#26a69a" opacity="0.9"/><rect x="483" y="1004.7727054371845" width="10" height="15.227294562815473" fill="#ef5350" opacity="0.9"/><rect x="495" y="1002.2669593301258" width="10" height="17.733040669874185" fill="#26a69a" opacity="0.9"/><rect x="507" y="1007.6564751790346" width="10" height="12.3435248209654" fill="#ef5350" opacity="0.9"/><rect x="519" y="1004.4911277150818" width="10" height="15.508872284918198" fill="#ef5350" opacity="0.9"/><rect x="531" y="1007.0286529351337" width="10" height="12.971347064866336" fill="#26a69a" opacity="0.9"/><rect x="543" y="995.9499368112986" width="10" height="24.050063188701415" fill="#ef5350" opacity="0.9"/><rect x="555" y="1005.6809968294792" width="10" height="14.319003170520773" fill="#26a69a" opacity="0.9"/><rect x="567" y="1007.1579865345246" width="10" height="12.842013465475361" fill="#ef5350" opacity="0.9"/><rect x="579" y="1002.2034011041394" width="10" height="17.796598895860598" fill="#ef5350" opacity="0.9"/><rect x="591" y="967.0575497564834" width="10" height="52.942450243516646" fill="#ef5350" opacity="0.9"/><rect x="603" y="990.9820484964046" width="10" height="29.01795150359544" fill="#26a69a" opacity="0.9"/><rect x="615" y="1002.2580907404533" width="10" height="17.741909259546674" fill="#ef5350" opacity="0.9"/><rect x="627" y="1001.6823714608785" width="10" height="18.31762853912153" fill="#26a69a" opacity="0.9"/><rect x="639" y="1006.4425869676074" width="10" height="13.55741303239256" fill="#26a69a" opacity="0.9"/><rect x="651" y="1005.8949515553289" width="10" height="14.10504844467107" fill="#26a69a" opacity="0.9"/><rect x="663" y="1003.3116052886356" width="10" height="16.688394711364367" fill="#26a69a" opacity="0.9"/><rect x="675" y="1007.8501060535515" width="10" height="12.149893946448515" fill="#26a69a" opacity="0.9"/><rect x="687" y="1006.4281755093896" width="10" height="13.571824490610425" fill="#ef5350" opacity="0.9"/><rect x="699" y="1004.4874324693849" width="10" height="15.512567530615115" fill="#26a69a" opacity="0.9"/><rect x="711" y="995.6158866003001" width="10" height="24.384113399699913" fill="#26a69a" opacity="0.9"/><rect x="723" y="997.7388052531613" width="10" height="22.26119474683867" fill="#26a69a" opacity="0.9"/><rect x="735" y="1003.2971938304178" width="10" height="16.70280616958223" fill="#ef5350" opacity="0.9"/><rect x="747" y="1001.7625582925009" width="10" height="18.2374417074991" fill="#26a69a" opacity="0.9"/><rect x="759" y="1006.0830395613004" width="10" height="13.916960438699562" fill="#ef5350" opacity="0.9"/><rect x="771" y="1007.7285324701239" width="10" height="12.271467529876077" fill="#ef5350" opacity="0.9"/><rect x="783" y="1004.3920951304052" width="10" height="15.60790486959479" fill="#26a69a" opacity="0.9"/><rect x="795" y="1003.0278104191148" width="10" height="16.972189580885242" fill="#ef5350" opacity="0.9"/><rect x="807" y="994.6732294230244" width="10" height="25.326770576975605" fill="#26a69a" opacity="0.9"/><rect x="819" y="1002.5367122659985" width="10" height="17.463287734001483" fill="#ef5350" opacity="0.9"/><rect x="831" y="1007.2677353317222" width="10" height="12.732264668277821" fill="#26a69a" opacity="0.9"/><rect x="843" y="995.3527851066817" width="10" height="24.647214893318278" fill="#26a69a" opacity="0.9"/><rect x="855" y="992.7358121041468" width="10" height="27.264187895853183" fill="#26a69a" opacity="0.9"/><rect x="867" y="1000.0756786318723" width="10" height="19.92432136812772" fill="#ef5350" opacity="0.9"/><rect x="879" y="1005.8990163255955" width="10" height="14.10098367440446" fill="#26a69a" opacity="0.9"/><rect x="891" y="1005.1969196431871" width="10" height="14.80308035681287" fill="#26a69a" opacity="0.9"/><rect x="903" y="987.975227072848" width="10" height="32.02477292715196" fill="#26a69a" opacity="0.9"/><rect x="915" y="993.1748072929369" width="10" height="26.825192707063138" fill="#ef5350" opacity="0.9"/><rect x="927" y="997.8001463317296" width="10" height="22.199853668270407" fill="#26a69a" opacity="0.9"/><rect x="939" y="968.672002601453" width="10" height="51.32799739854704" fill="#26a69a" opacity="0.9"/><rect x="951" y="985.5393211094606" width="10" height="34.460678890539384" fill="#26a69a" opacity="0.9"/><rect x="963" y="989.191701956263" width="10" height="30.808298043736954" fill="#ef5350" opacity="0.9"/><rect x="975" y="979.7145053174586" width="10" height="40.28549468254141" fill="#26a69a" opacity="0.9"/><rect x="987" y="954.8000502553415" width="10" height="65.19994974465851" fill="#26a69a" opacity="0.9"/><rect x="999" y="860.0" width="10" height="160.0" fill="#ef5350" opacity="0.9"/><rect x="1011" y="991.2288909089565" width="10" height="28.771109091043513" fill="#ef5350" opacity="0.9"/><rect x="1023" y="997.8973312935577" width="10" height="22.102668706442273" fill="#26a69a" opacity="0.9"/><rect x="1035" y="978.3664796872345" width="10" height="41.63352031276554" fill="#ef5350" opacity="0.9"/><rect x="1047" y="992.4394533992565" width="10" height="27.560546600743464" fill="#26a69a" opacity="0.9"/><rect x="1059" y="994.7312447804654" width="10" height="25.26875521953457" fill="#ef5350" opacity="0.9"/><rect x="1071" y="998.9401296292191" width="10" height="21.059870370780914" fill="#ef5350" opacity="0.9"/><rect x="1083" y="989.12407896001" width="10" height="30.875921039989976" fill="#26a69a" opacity="0.9"/><rect x="1095" y="993.2634931896622" width="10" height="26.7365068103378" fill="#26a69a" opacity="0.9"/><rect x="1107" y="995.4654901004368" width="10" height="24.534509899563204" fill="#26a69a" opacity="0.9"/><rect x="1119" y="992.705880614002" width="10" height="27.294119385997988" fill="#26a69a" opacity="0.9"/><rect x="1131" y="990.0327398768744" width="10" height="29.967260123125584" fill="#26a69a" opacity="0.9"/><rect x="1143" y="993.5410061414983" width="10" height="26.458993858501685" fill="#26a69a" opacity="0.9"/><rect x="1155" y="1000.167320725155" width="10" height="19.832679274844963" fill="#26a69a" opacity="0.9"/><rect x="1167" y="999.3355209187858" width="10" height="20.664479081214154" fill="#ef5350" opacity="0.9"/><rect x="1179" y="1003.1028239067616" width="10" height="16.897176093238386" fill="#ef5350" opacity="0.9"/><rect x="1191" y="999.560930906296" width="10" height="20.439069093704006" fill="#ef5350" opacity="0.9"/><rect x="1203" y="999.798165680036" width="10" height="20.20183431996395" fill="#ef5350" opacity="0.9"/><rect x="1215" y="998.3385436297659" width="10" height="21.661456370234077" fill="#26a69a" opacity="0.9"/><rect x="1227" y="985.9025637614645" width="10" height="34.097436238535465" fill="#26a69a" opacity="0.9"/><rect x="1239" y="1000.7530171681115" width="10" height="19.246982831888545" fill="#26a69a" opacity="0.9"/><rect x="1251" y="993.3096837608732" width="10" height="26.690316239126787" fill="#26a69a" opacity="0.9"/><rect x="1263" y="999.0454441315803" width="10" height="20.954555868419675" fill="#26a69a" opacity="0.9"/><rect x="1275" y="992.5499412455935" width="10" height="27.45005875440654" fill="#26a69a" opacity="0.9"/><rect x="1287" y="994.6388636380433" width="10" height="25.36113636195671" fill="#ef5350" opacity="0.9"/><rect x="1299" y="993.2032606848029" width="10" height="26.7967393151971" fill="#26a69a" opacity="0.9"/><rect x="1311" y="992.654886223385" width="10" height="27.345113776614994" fill="#26a69a" opacity="0.9"/><rect x="1323" y="997.8186225602141" width="10" height="22.181377439785933" fill="#26a69a" opacity="0.9"/><rect x="1335" y="997.4128845826959" width="10" height="22.587115417304062" fill="#26a69a" opacity="0.9"/><rect x="1347" y="988.3007782187437" width="10" height="31.699221781256256" fill="#26a69a" opacity="0.9"/><rect x="1359" y="979.4890953299484" width="10" height="40.51090467005156" fill="#26a69a" opacity="0.9"/><rect x="1371" y="985.4650466709531" width="10" height="34.53495332904686" fill="#ef5350" opacity="0.9"/><rect x="1383" y="993.466731702991" width="10" height="26.533268297009045" fill="#26a69a" opacity="0.9"/><rect x="1395" y="998.821512242349" width="10" height="21.178487757651055" fill="#ef5350" opacity="0.9"/><rect x="1407" y="993.4863165051844" width="10" height="26.51368349481561" fill="#ef5350" opacity="0.9"/><rect x="1419" y="998.1508251483641" width="10" height="21.849174851635894" fill="#26a69a" opacity="0.9"/><rect x="1431" y="1003.283890945909" width="10" height="16.71610905409102" fill="#26a69a" opacity="0.9"/><rect x="1443" y="999.9836670140197" width="10" height="20.016332985980284" fill="#ef5350" opacity="0.9"/><rect x="1455" y="996.9775846396027" width="10" height="23.022415360397304" fill="#26a69a" opacity="0.9"/><rect x="1467" y="999.8846344293432" width="10" height="20.115365570656763" fill="#26a69a" opacity="0.9"/><rect x="1479" y="1000.5109785749654" width="10" height="19.489021425034593" fill="#ef5350" opacity="0.9"/><rect x="1491" y="985.7628834741222" width="10" height="34.23711652587781" fill="#ef5350" opacity="0.9"/><rect x="1503" y="1003.9601209084392" width="10" height="16.039879091560806" fill="#26a69a" opacity="0.9"/><rect x="1515" y="1005.4020057793642" width="10" height="14.59799422063577" fill="#ef5350" opacity="0.9"/><rect x="1527" y="1006.1994398007523" width="10" height="13.800560199247684" fill="#26a69a" opacity="0.9"/><rect x="1539" y="1004.7091472111981" width="10" height="15.290852788801885" fill="#26a69a" opacity="0.9"/><rect x="1551" y="1002.6885868641406" width="10" height="17.311413135859425" fill="#26a69a" opacity="0.9"/><rect x="1563" y="1006.9861576096195" width="10" height="13.013842390380546" fill="#26a69a" opacity="0.9"/><rect x="1575" y="1004.2509367447842" width="10" height="15.749063255215788" fill="#26a69a" opacity="0.9"/><rect x="1587" y="993.0883385436298" width="10" height="26.91166145637021" fill="#ef5350" opacity="0.9"/><rect x="1599" y="1006.3975049701055" width="10" height="13.602495029894499" fill="#ef5350" opacity="0.9"/><rect x="1611" y="1003.082130530859" width="10" height="16.91786946914101" fill="#ef5350" opacity="0.9"/><rect x="1623" y="1005.4363715643453" width="10" height="14.563628435654664" fill="#26a69a" opacity="0.9"/><rect x="1635" y="989.9972655181843" width="10" height="30.00273448181565" fill="#ef5350" opacity="0.9"/><rect x="1647" y="1002.1590581557767" width="10" height="17.840941844223266" fill="#26a69a" opacity="0.9"/><rect x="1659" y="998.6204908764383" width="10" height="21.37950912356166" fill="#26a69a" opacity="0.9"/><rect x="1671" y="1005.2013539380233" width="10" height="14.798646061976683" fill="#ef5350" opacity="0.9"/><rect x="1683" y="1004.2860415789046" width="10" height="15.713958421095413" fill="#26a69a" opacity="0.9"/><rect x="1695" y="1007.3013620675639" width="10" height="12.6986379324361" fill="#ef5350" opacity="0.9"/><rect x="1707" y="1002.360449046257" width="10" height="17.63955095374297" fill="#26a69a" opacity="0.9"/><rect x="1719" y="986.1438633054712" width="10" height="33.8561366945288" fill="#26a69a" opacity="0.9"/><rect x="1731" y="994.9939767495141" width="10" height="25.006023250485896" fill="#ef5350" opacity="0.9"/><rect x="1743" y="1004.3691846070845" width="10" height="15.630815392915451" fill="#ef5350" opacity="0.9"/><rect x="1755" y="1002.836396692016" width="10" height="17.163603307983976" fill="#26a69a" opacity="0.9"/><rect x="1767" y="1005.8195685431124" width="10" height="14.180431456887618" fill="#26a69a" opacity="0.9"/><rect x="1779" y="1002.9657302914071" width="10" height="17.034269708592888" fill="#ef5350" opacity="0.9"/><rect x="1791" y="1005.140012859455" width="10" height="14.859987140544945" fill="#26a69a" opacity="0.9"/><rect x="1803" y="1005.7818770370042" width="10" height="14.218122962995835" fill="#26a69a" opacity="0.9"/><rect x="1815" y="991.0212181007915" width="10" height="28.978781899208457" fill="#ef5350" opacity="0.9"/><rect x="1827" y="1006.1746816545832" width="10" height="13.825318345416804" fill="#26a69a" opacity="0.9"/><rect x="1839" y="1005.5054726588771" width="10" height="14.494527341122875" fill="#26a69a" opacity="0.9"/><rect x="1851" y="1000.5213252629168" width="10" height="19.478674737083224" fill="#26a69a" opacity="0.9"/><rect x="1863" y="991.2414547443259" width="10" height="28.758545255674107" fill="#ef5350" opacity="0.9"/><rect x="1875" y="988.4341765884013" width="10" height="31.56582341159867" fill="#26a69a" opacity="0.9"/><rect x="1887" y="1003.7136480204568" width="10" height="16.286351979543156" fill="#ef5350" opacity="0.9"/><rect x="1899" y="992.9619611407962" width="10" height="27.038038859203766" fill="#ef5350" opacity="0.9"/><rect x="1911" y="997.0891810596487" width="10" height="22.910818940351305" fill="#26a69a" opacity="0.9"/><rect x="1923" y="973.8682571004147" width="10" height="46.13174289958533" fill="#26a69a" opacity="0.9"/><rect x="1935" y="941.8112616307858" width="10" height="78.1887383692142" fill="#ef5350" opacity="0.9"/><rect x="1004" y="397.7824906666683" width="12" height="32.67028177777621" fill="#ff0000" opacity="0.50"/><polyline points="320,643.3667277904887,332,636.3759641279001,344,629.7987072691589,356,621.9137078467005,368,615.7046880517807,380,609.4142563008164,392,603.3949490975626,404,598.1927800618198,416,589.0206966273631,428,579.9737137951272,440,578.2635394865944,452,578.9026671122075,464,577.294497249669,476,574.4098987814444,488,572.8091446541081,500,569.0903217346709,512,566.56660635253,524,564.5271156311234,536,562.1857110948238,548,562.7582859958491,560,560.6694348004769,572,559.2840822374708,584,562.7398978973966,596,572.3417793674848,608,574.5540048245452,620,580.1715579735325,632,583.5722382088584,644,586.9854177233618,656,587.8871043317203,668,588.5347292736747,680,588.9524888137455,692,589.3304617309544,704,587.7382892486416,716,583.732903817559,728,579.0578162582177,740,575.7530024346831,752,571.5015318959306,764,568.4202131756845,776,566.2966912436079,788,563.2821953579777,800,561.2275414932002,812,554.3229654779781,824,549.6737425224031,836,544.5422754038696,848,538.1335582119643,860,530.4851404351616,872,525.1629178751955,884,520.0112000669783,896,514.341001372769,908,505.59480577112987,920,497.84976793049384,932,490.92644611700456,944,481.3828460423691,956,470.6458255303965,968,463.11780650633716,980,455.21352762213303,992,445.2869552983328,1004,440.7627205715067,1016,444.3975479456488,1028,445.42408911484523,1040,450.2211604160746,1052,451.70219250343405,1064,452.70580032850177,1076,453.8661066675862,1088,452.3931058632671,1100,449.63080320961933,1112,443.9360281314546,1124,434.91531662687316,1136,424.3150121015585,1148,412.2855520707213,1160,399.88807388409543,1172,389.9327087099512,1184,383.4398660179987,1196,379.2556664607269,1208,375.9745224380115,1220,364.9329027349217,1232,352.75643767021796,1244,340.3941416804628,1256,328.8728337108953,1268,317.0192054421325,1280,305.8740271883835,1292,296.87509930800945,1304,285.63016599825164,1316,275.1198051306902,1328,263.7603764092445,1340,251.71683681471427,1352,236.4474446947952,1364,222.29590680851993,1376,216.4718858849584,1388,209.35247901760602,1400,207.20828321698514,1412,209.8009303603401,1424,207.35333538422208,1436,202.27966941111947,1448,198.7824237740773,1460,195.53415577443047,1472,190.74519202871568,1484,187.08506724290896,1496,188.5668490292977,1508,188.9908907513725,1520,190.53503635177037,1532,189.92228842408724,1544,187.77012305036408,1556,185.40245884450997,1568,182.08297895455667,1580,178.57507966788137,1592,175.48535940321824,1604,172.9421784230201,1616,170.80939190654533,1628,168.45926095248717,1640,171.96720926388775,1652,173.16487255092295,1664,172.10409120744873,1676,171.64889699721346,1688,170.64840081758223,1700,171.00459087728268,1712,169.47680347097958,1724,159.4329003255956,1736,155.89572319405409,1748,152.4851865935641,1760,148.34829567989289,1772,143.72241372095937,1784,141.17691307028508,1796,138.45337409004264,1808,135.73693964760628,1820,135.54973481344246,1832,134.95989204814373,1844,131.81932963086388,1856,128.5574014332168,1868,126.95162732846552,1880,119.61224669400713,1892,114.99009613055728,1904,112.74229836151085,1916,109.11080209427587,1928,101.36821294243714,1940,97.22218851405455" fill="none" stroke="#0090ff" stroke-width="2"/><line x1="80" y1="50" x2="80" y2="850" stroke="#666666" stroke-width="0.5" stroke-dasharray="4,4"/><line x1="152" y1="50" x2="152" y2="850" stroke="#666666" stroke-width="0.5" stroke-dasharray="4,4"/><line x1="224" y1="50" x2="224" y2="850" stroke="#666666" stroke-width="0.5" stroke-dasharray="4,4"/><line x1="296" y1="50" x2="296" y2="850" stroke="#666666" stroke-width="0.5" stroke-dasharray="4,4"/><line x1="368" y1="50" x2="368" y2="850" stroke="#666666" stroke-width="0.5" stroke-dasharray="4,4"/><line x1="440" y1="50" x2="440" y2="850" stroke="#666666" stroke-width="0.5" stroke-dasharray="4,4"/><line x1="512" y1="50" x2="512" y2="850" stroke="#666666" stroke-width="0.5" stroke-dasharray="4,4"/><line x1="584" y1="50" x2="584" y2="850" stroke="#666666" stroke-width="0.5" stroke-dasharray="4,4"/><line x1="656" y1="50" x2="656" y2="850" stroke="#666666" stroke-width="0.5" stroke-dasharray="4,4"/><line x1="728" y1="50" x2="728" y2="850" stroke="#666666" stroke-width="0.5" stroke-dasharray="4,4"/><line x1="800" y1="50" x2="800" y2="850" stroke="#666666" stroke-width="0.5" stroke-dasharray="4,4"/><line x1="872" y1="50" x2="872" y2="850" stroke="#666666" stroke-width="0.5" stroke-dasharray="4,4"/><line x1="944" y1="50" x2="944" y2="850" stroke="#666666" stroke-width="0.5" stroke-dasharray="4,4"/><line x1="1016" y1="50" x2="1016" y2="850" stroke="#666666" stroke-width="0.5" stroke-dasharray="4,4"/><line x1="1088" y1="50" x2="1088" y2="850" stroke="#666666" stroke-width="0.5" stroke-dasharray="4,4"/><line x1="1160" y1="50" x2="1160" y2="850" stroke="#666666" stroke-width="0.5" stroke-dasharray="4,4"/><line x1="1232" y1="50" x2="1232" y2="850" stroke="#666666" stroke-width="0.5" stroke-dasharray="4,4"/><line x1="1304" y1="50" x2="1304" y2="850" stroke="#666666" stroke-width="0.5" stroke-dasharray="4,4"/><line x1="1376" y1="50" x2="1376" y2="850" stroke="#666666" stroke-width="0.5" stroke-dasharray="4,4"/><line x1="1448" y1="50" x2="1448" y2="850" stroke="#666666" stroke-width="0.5" stroke-dasharray="4,4"/><line x1="1520" y1="50" x2="1520" y2="850" stroke="#666666" stroke-width="0.5" stroke-dasharray="4,4"/><line x1="1592" y1="50" x2="1592" y2="850" stroke="#666666" stroke-width="0.5" stroke-dasharray="4,4"/><line x1="1664" y1="50" x2="1664" y2="850" stroke="#666666" stroke-width="0.5" stroke-dasharray="4,4"/><line x1="1736" y1="50" x2="1736" y2="850" stroke="#666666" stroke-width="0.5" stroke-dasharray="4,4"/><line x1="1808" y1="50" x2="1808" y2="850" stroke="#666666" stroke-width="0.5" stroke-dasharray="4,4"/><line x1="1880" y1="50" x2="1880" y2="850" stroke="#666666" stroke-width="0.5" stroke-dasharray="4,4"/><text x="80" y="1040" text-anchor="middle" font-size="20" fill="black">09:30</text><text x="152" y="1040" text-anchor="middle" font-size="20" fill="black">10:00</text><text x="224" y="1040" text-anchor="middle" font-size="20" fill="black">10:30</text><text x="296" y="1040" text-anchor="middle" font-size="20" fill="black">11:00</text><text x="368" y="1040" text-anchor="middle" font-size="20" fill="black">11:30</text><text x="440" y="1040" text-anchor="middle" font-size="20" fill="black">12:00</text><text x="512" y="1040" text-anchor="middle" font-size="20" fill="black">12:30</text><text x="584" y="1040" text-anchor="middle" font-size="20" fill="black">13:00</text><text x="656" y="1040" text-anchor="middle" font-size="20" fill="black">13:30</text><text x="728" y="1040" text-anchor="middle" font-size="20" fill="black">14:00</text><text x="800" y="1040" text-anchor="middle" font-size="20" fill="black">14:30</text><text x="872" y="1040" text-anchor="middle" font-size="20" fill="black">15:00</text><text x="944" y="1040" text-anchor="middle" font-size="20" fill="black">15:30</text><text x="1016" y="1040" text-anchor="middle" font-size="20" fill="black">09:30</text><text x="1088" y="1040" text-anchor="middle" font-size="20" fill="black">10:00</text><text x="1160" y="1040" text-anchor="middle" font-size="20" fill="black">10:30</text><text x="1232" y="1040" text-anchor="middle" font-size="20" fill="black">11:00</text><text x="1304" y="1040" text-anchor="middle" font-size="20" fill="black">11:30</text><text x="1376" y="1040" text-anchor="middle" font-size="20" fill="black">12:00</text><text x="1448" y="1040" text-anchor="middle" font-size="20" fill="black">12:30</text><text x="1520" y="1040" text-anchor="middle" font-size="20" fill="black">13:00</text><text x="1592" y="1040" text-anchor="middle" font-size="20" fill="black">13:30</text><text x="1664" y="1040" text-anchor="middle" font-size="20" fill="black">14:00</text><text x="1736" y="1040" text-anchor="middle" font-size="20" fill="black">14:30</text><text x="1808" y="1040" text-anchor="middle" font-size="20" fill="black">15:00</text><text x="1880" y="1040" text-anchor="middle" font-size="20" fill="black">15:30</text><text x="1942" y="50" text-anchor="end" font-size="40" fill="#26a69a" font-weight="bold"> +0.86% (Wed)</text></svg>