<svg xmlns="http://www.w3.org/2000/svg" width="1992" height="1050"><rect width="100%" height="100%" fill="white"/><text x="42" y="854.0" text-anchor="end" font-size="20" fill="black">520</text><text x="42" y="739.7142857142858" text-anchor="end" font-size="20" fill="black">521</text><text x="42" y="625.4285714285714" text-anchor="end" font-size="20" fill="black">522</text><text x="42" y="511.14285714285717" text-anchor="end" font-size="20" fill="black">523</text><text x="42" y="396.8571428571429" text-anchor="end" font-size="20" fill="black">524</text><text x="42" y="282.57142857142856" text-anchor="end" font-size="20" fill="black">525</text><text x="42" y="168.28571428571433" text-anchor="end" font-size="20" fill="black">526</text><text x="42" y="54.0" text-anchor="end" font-size="20" fill="black">527</text><line x1="80" y1="270.8862365714334" x2="80" y2="484.65927999999883" stroke="#26a69a" stroke-width="2"/><rect x="76" y="283.3942342857101" width="8" height="188.75704914285706" fill="#26a69a"/><line x1="92" y1="226.53970171427966" x2="92" y2="297.0393222857118" stroke="#26a69a" stroke-width="2"/><rect x="88" y="265.2007840000026" width="8" height="15.919268571425619" fill="#26a69a"/><line x1="104" y1="234.49933600000543" x2="104" y2="300.4505942857187" stroke="#26a69a" stroke-width="2"/><rect x="100" y="242.45897028571824" width="8" height="26.15308571427829" fill="#26a69a"/><line x1="116" y1="233.36224571428045" x2="116" y2="281.12005257142823" stroke="#ef5350" stroke-width="2"/><rect x="112" y="243.59606171428823" width="8" height="31.838538285709205" fill="#ef5350"/><line x1="128" y1="200.38661600000137" x2="128" y2="279.9829622857162" stroke="#26a69a" stroke-width="2"/><rect x="124" y="252.69278628571294" width="8" height="18.193450285720473" fill="#26a69a"/><line x1="140" y1="230.51951885714254" x2="140" y2="294.7651405714298" stroke="#ef5350" stroke-width="2"/><rect x="136" y="253.82987657142496" width="8" height="21.60472342857247" fill="#ef5350"/><line x1="152" y1="169.68516914286215" x2="152" y2="323.1924068571451" stroke="#26a69a" stroke-width="2"/><rect x="148" y="265.2007840000026" width="8" height="12.507996571431704" fill="#26a69a"/><line x1="164" y1="226.53970171427966" x2="164" y2="306.13604685713653" stroke="#26a69a" stroke-width="2"/><rect x="160" y="226.53970171427966" width="8" height="35.24981028571608" fill="#26a69a"/><line x1="176" y1="201.52370742857136" x2="176" y2="261.78951199999574" stroke="#26a69a" stroke-width="2"/><rect x="172" y="216.30588571428495" width="8" height="13.645088000001579" fill="#26a69a"/><line x1="188" y1="177.64480342857496" x2="188" y2="217.44297599999686" stroke="#26a69a" stroke-width="2"/><rect x="184" y="210.62043199999607" width="8" height="4.548362285718895" fill="#26a69a"/><line x1="200" y1="171.95934971428608" x2="200" y2="254.96696799999495" stroke="#26a69a" stroke-width="2"/><rect x="196" y="193.56407200000046" width="8" height="18.193450285707513" fill="#26a69a"/><line x1="212" y1="94.63718514285313" x2="212" y2="202.66079771428326" stroke="#26a69a" stroke-width="2"/><rect x="208" y="115.10481714285561" width="8" height="85.28179885714576" fill="#26a69a"/><line x1="224" y1="82.1291885714345" x2="224" y2="132.16117714285122" stroke="#ef5350" stroke-width="2"/><rect x="220" y="112.8306354285736" width="8" height="9.096725714282798" fill="#ef5350"/><line x1="236" y1="112.8306354285736" x2="236" y2="149.21753714285967" stroke="#26a69a" stroke-width="2"/><rect x="232" y="123.06445142856842" width="8" height="2" fill="#26a69a"/><line x1="248" y1="78.71791657142762" x2="248" y2="127.61281485714528" stroke="#26a69a" stroke-width="2"/><rect x="244" y="78.71791657142762" width="8" height="44.346534857140796" fill="#26a69a"/><line x1="260" y1="34.371380571428745" x2="260" y2="78.71791657142762" stroke="#26a69a" stroke-width="2"/><rect x="256" y="48.01646857143032" width="8" height="30.7014479999973" fill="#26a69a"/><line x1="272" y1="23.00047428570906" x2="272" y2="58.25028457142514" stroke="#26a69a" stroke-width="2"/><rect x="268" y="33.234290285716725" width="8" height="18.193450285707627" fill="#26a69a"/><line x1="284" y1="34.371380571428745" x2="284" y2="120.79027085714449" stroke="#ef5350" stroke-width="2"/><rect x="280" y="35.508470857140765" width="8" height="69.36253028572014" fill="#ef5350"/><line x1="296" y1="84.40336914285842" x2="296" y2="137.84662971428202" stroke="#ef5350" stroke-width="2"/><rect x="292" y="98.04845714286" width="8" height="22.74181371428449" fill="#ef5350"/><line x1="308" y1="91.22591314285921" x2="308" y2="141.2579017142889" stroke="#26a69a" stroke-width="2"/><rect x="304" y="125.33863314286339" width="8" height="2" fill="#26a69a"/><line x1="320" y1="108.28227314285482" x2="320" y2="133.29826742857608" stroke="#ef5350" stroke-width="2"/><rect x="316" y="112.8306354285736" width="8" height="3.4112719999939145" fill="#ef5350"/><line x1="332" y1="101.45972914285392" x2="332" y2="157.17717142857248" stroke="#ef5350" stroke-width="2"/><rect x="328" y="116.24190742856752" width="8" height="12.507997714289786" fill="#ef5350"/><line x1="344" y1="88.38318628570835" x2="344" y2="124.2015428571384" stroke="#26a69a" stroke-width="2"/><rect x="340" y="120.79027085714449" width="8" height="3.4112719999939145" fill="#26a69a"/><line x1="356" y1="112.8306354285736" x2="356" y2="169.68516914286215" stroke="#ef5350" stroke-width="2"/><rect x="352" y="118.51608914286248" width="8" height="40.935263999992" fill="#ef5350"/><line x1="368" y1="136.70953942857" x2="368" y2="176.50771200000497" stroke="#26a69a" stroke-width="2"/><rect x="364" y="138.983721142852" width="8" height="14.782178285713599" fill="#26a69a"/><line x1="380" y1="104.8710011428609" x2="380" y2="148.08044571428968" stroke="#26a69a" stroke-width="2"/><rect x="376" y="117.37899885713762" width="8" height="20.4676308571444" fill="#26a69a"/><line x1="392" y1="109.41936342856673" x2="392" y2="140.12081142857699" stroke="#ef5350" stroke-width="2"/><rect x="388" y="117.37899885713762" width="8" height="5.685452571430801" fill="#ef5350"/><line x1="404" y1="108.28227314285482" x2="404" y2="150.3546274285717" stroke="#ef5350" stroke-width="2"/><rect x="400" y="119.6531794285745" width="8" height="29.564357714285165" fill="#ef5350"/><line x1="416" y1="145.8062651428528" x2="416" y2="224.26551999999776" stroke="#ef5350" stroke-width="2"/><rect x="412" y="148.08044571428968" width="8" height="76.18507428570808" fill="#ef5350"/><line x1="428" y1="221.99133828571576" x2="428" y2="259.51533028571373" stroke="#ef5350" stroke-width="2"/><rect x="424" y="225.40261028570967" width="8" height="18.193451428578555" fill="#ef5350"/><line x1="440" y1="243.59606171428823" x2="440" y2="365.26476114286197" stroke="#ef5350" stroke-width="2"/><rect x="436" y="245.87024228571215" width="8" height="106.88652228571823" fill="#ef5350"/><line x1="452" y1="345.9342205714295" x2="452" y2="447.1352891428588" stroke="#ef5350" stroke-width="2"/><rect x="448" y="349.3454925714234" width="8" height="47.757806857147784" fill="#ef5350"/><line x1="464" y1="364.127670857137" x2="464" y2="414.15965942856667" stroke="#ef5350" stroke-width="2"/><rect x="460" y="394.82911885714725" width="8" height="11.37090628570661" fill="#ef5350"/><line x1="476" y1="333.4262228571398" x2="476" y2="430.07892914286333" stroke="#26a69a" stroke-width="2"/><rect x="472" y="333.4262228571398" width="8" height="72.77380228571405" fill="#26a69a"/><line x1="488" y1="249.28151428571903" x2="488" y2="342.5229485714226" stroke="#26a69a" stroke-width="2"/><rect x="484" y="257.24114857143184" width="8" height="81.87052799999685" fill="#26a69a"/><line x1="500" y1="239.04769828571136" x2="500" y2="277.7087805714343" stroke="#26a69a" stroke-width="2"/><rect x="496" y="250.41860571428901" width="8" height="5.685452571430801" fill="#26a69a"/><line x1="512" y1="233.36224571428045" x2="512" y2="267.47496457142654" stroke="#ef5350" stroke-width="2"/><rect x="508" y="244.73315200000013" width="8" height="19.330540571432493" fill="#ef5350"/><line x1="524" y1="269.74914628570855" x2="524" y2="306.13604685713653" stroke="#ef5350" stroke-width="2"/><rect x="520" y="269.74914628570855" width="8" height="20.46763200000248" fill="#ef5350"/><line x1="536" y1="270.8862365714334" x2="536" y2="311.8215005714254" stroke="#ef5350" stroke-width="2"/><rect x="532" y="274.29750857142733" width="8" height="31.838538285709205" fill="#ef5350"/><line x1="548" y1="297.0393222857118" x2="548" y2="314.0956822857204" stroke="#26a69a" stroke-width="2"/><rect x="544" y="301.5876845714307" width="8" height="2.2741817142818945" fill="#26a69a"/><line x1="560" y1="287.942596571429" x2="560" y2="337.9745851428587" stroke="#ef5350" stroke-width="2"/><rect x="556" y="299.3135028571487" width="8" height="12.507997714276712" fill="#ef5350"/><line x1="572" y1="306.13604685713653" x2="572" y2="331.1520422857159" stroke="#ef5350" stroke-width="2"/><rect x="568" y="316.3698628571443" width="8" height="2.2741817142818945" fill="#ef5350"/><line x1="584" y1="303.8618662857126" x2="584" y2="332.2891325714279" stroke="#26a69a" stroke-width="2"/><rect x="580" y="303.8618662857126" width="8" height="13.645088000001692" fill="#26a69a"/><line x1="596" y1="297.0393222857118" x2="596" y2="328.877860571434" stroke="#26a69a" stroke-width="2"/><rect x="592" y="299.3135028571487" width="8" height="3.4112719999939145" fill="#26a69a"/><line x1="608" y1="289.079687999999" x2="608" y2="364.127670857137" stroke="#ef5350" stroke-width="2"/><rect x="604" y="299.3135028571487" width="8" height="32.975629714279194" fill="#ef5350"/><line x1="620" y1="291.35386857142294" x2="620" y2="332.2891325714279" stroke="#26a69a" stroke-width="2"/><rect x="616" y="293.6280502857179" width="8" height="37.523991999997975" fill="#26a69a"/><line x1="632" y1="275.43459999999743" x2="632" y2="319.7811348571382" stroke="#ef5350" stroke-width="2"/><rect x="628" y="290.21677828571103" width="8" height="23.878904000009356" fill="#ef5350"/><line x1="644" y1="282.2571439999982" x2="644" y2="318.6440445714262" stroke="#26a69a" stroke-width="2"/><rect x="640" y="284.53132457142215" width="8" height="25.015994285721263" fill="#26a69a"/><line x1="656" y1="208.34625142857215" x2="656" y2="287.942596571429" stroke="#26a69a" stroke-width="2"/><rect x="652" y="208.34625142857215" width="8" height="75.04798285713798" fill="#26a69a"/><line x1="668" y1="129.3184502857132" x2="668" y2="211.75752228570798" stroke="#26a69a" stroke-width="2"/><rect x="664" y="157.17717142857248" width="8" height="48.89489828571777" fill="#26a69a"/><line x1="680" y1="128.7499051428573" x2="680" y2="176.50771200000497" stroke="#ef5350" stroke-width="2"/><rect x="676" y="154.90298971429058" width="8" height="4.548363428563903" fill="#ef5350"/><line x1="692" y1="134.4353577142881" x2="692" y2="177.64480342857496" stroke="#ef5350" stroke-width="2"/><rect x="688" y="154.90298971429058" width="8" height="14.782179428571567" fill="#ef5350"/><line x1="704" y1="182.19316571428078" x2="704" y2="209.48334171428417" stroke="#ef5350" stroke-width="2"/><rect x="700" y="183.33025600000576" width="8" height="14.78217942857168" fill="#ef5350"/><line x1="716" y1="189.01570971428168" x2="716" y2="215.16879428571497" stroke="#ef5350" stroke-width="2"/><rect x="712" y="199.24952571428935" width="8" height="13.645088000001692" fill="#ef5350"/><line x1="728" y1="173.0964399999981" x2="728" y2="226.53970171427966" stroke="#26a69a" stroke-width="2"/><rect x="724" y="179.35043885714288" width="8" height="34.68126514286007" fill="#26a69a"/><line x1="740" y1="173.0964399999981" x2="740" y2="202.66079771428326" stroke="#ef5350" stroke-width="2"/><rect x="736" y="185.60443771428777" width="8" height="13.645088000001579" fill="#ef5350"/><line x1="752" y1="193.56407200000046" x2="752" y2="235.63642628571745" stroke="#ef5350" stroke-width="2"/><rect x="748" y="194.70116342857057" width="8" height="37.52399085713989" fill="#ef5350"/><line x1="764" y1="208.34625142857215" x2="764" y2="240.18478971428135" stroke="#26a69a" stroke-width="2"/><rect x="760" y="218.58006628570888" width="8" height="14.782179428571567" fill="#26a69a"/><line x1="776" y1="204.93497942856527" x2="776" y2="228.81388228571655" stroke="#26a69a" stroke-width="2"/><rect x="772" y="210.62043199999607" width="8" height="3.411272000006875" fill="#26a69a"/><line x1="788" y1="202.66079771428326" x2="788" y2="226.53970171427966" stroke="#ef5350" stroke-width="2"/><rect x="784" y="210.62043199999607" width="8" height="7.959634285712809" fill="#ef5350"/><line x1="800" y1="191.28989142857665" x2="800" y2="226.53970171427966" stroke="#ef5350" stroke-width="2"/><rect x="796" y="216.30588571428495" width="8" height="2.2741805714239263" fill="#ef5350"/><line x1="812" y1="189.01570971428168" x2="812" y2="227.67679200000464" stroke="#26a69a" stroke-width="2"/><rect x="808" y="191.28989142857665" width="8" height="26.15308457142021" fill="#26a69a"/><line x1="824" y1="107.1451828571428" x2="824" y2="185.60443771428777" stroke="#26a69a" stroke-width="2"/><rect x="820" y="132.16117714285122" width="8" height="53.443260571436554" fill="#26a69a"/><line x1="836" y1="124.2015428571384" x2="836" y2="152.62880914285358" stroke="#ef5350" stroke-width="2"/><rect x="832" y="134.4353577142881" width="8" height="3.4112719999939145" fill="#ef5350"/><line x1="848" y1="118.51608914286248" x2="848" y2="141.2579017142889" stroke="#26a69a" stroke-width="2"/><rect x="844" y="136.70953942857" width="8" height="4.548362285718895" fill="#26a69a"/><line x1="860" y1="120.79027085714449" x2="860" y2="150.3546274285717" stroke="#ef5350" stroke-width="2"/><rect x="856" y="134.4353577142881" width="8" height="12.507997714289672" fill="#ef5350"/><line x1="872" y1="109.41936342856673" x2="872" y2="143.5320834285709" stroke="#26a69a" stroke-width="2"/><rect x="868" y="131.0240857142811" width="8" height="11.370907428577766" fill="#26a69a"/><line x1="884" y1="123.06445142856842" x2="884" y2="157.17717142857248" stroke="#ef5350" stroke-width="2"/><rect x="880" y="135.5724491428581" width="8" height="20.46763200000248" fill="#ef5350"/><line x1="896" y1="143.5320834285709" x2="896" y2="170.82225942857417" stroke="#26a69a" stroke-width="2"/><rect x="892" y="146.94335542857777" width="8" height="9.096725714282798" fill="#26a69a"/><line x1="908" y1="148.08044571428968" x2="908" y2="183.33025600000576" stroke="#ef5350" stroke-width="2"/><rect x="904" y="148.08044571428968" width="8" height="12.507997714276712" fill="#ef5350"/><line x1="920" y1="151.4917177142836" x2="920" y2="186.74152799999968" stroke="#ef5350" stroke-width="2"/><rect x="916" y="165.1368057142853" width="8" height="21.604722285714388" fill="#ef5350"/><line x1="932" y1="171.95934971428608" x2="932" y2="199.24952571428935" stroke="#ef5350" stroke-width="2"/><rect x="928" y="187.87861942856966" width="8" height="2" fill="#ef5350"/><line x1="944" y1="173.0964399999981" x2="944" y2="221.99133828571576" stroke="#ef5350" stroke-width="2"/><rect x="940" y="193.56407200000046" width="8" height="23.878903999996396" fill="#ef5350"/><line x1="956" y1="209.48334171428417" x2="956" y2="283.3942342857101" stroke="#ef5350" stroke-width="2"/><rect x="952" y="221.99133828571576" width="8" height="61.40289599999437" fill="#ef5350"/><line x1="968" y1="253.82987657142496" x2="968" y2="311.8215005714254" stroke="#26a69a" stroke-width="2"/><rect x="964" y="261.78951199999574" width="8" height="22.741812571426408" fill="#26a69a"/><line x1="980" y1="258.3782400000018" x2="980" y2="299.3135028571487" stroke="#ef5350" stroke-width="2"/><rect x="976" y="264.0636925714326" width="8" height="10.233815999994704" fill="#ef5350"/><line x1="992" y1="228.81388228571655" x2="992" y2="287.942596571429" stroke="#ef5350" stroke-width="2"/><rect x="988" y="270.8862365714334" width="8" height="7.959635428570891" fill="#ef5350"/><line x1="1004" y1="235.63642628571745" x2="1004" y2="303.8618662857126" stroke="#26a69a" stroke-width="2"/><rect x="1000" y="243.59606171428823" width="8" height="32.97562857142111" fill="#26a69a"/><line x1="1016" y1="768.9319439999963" x2="1016" y2="928.1246365714261" stroke="#26a69a" stroke-width="2"/><rect x="1012" y="776.8915794285671" width="8" height="111.43488342857904" fill="#26a69a"/><line x1="1028" y1="685.9243268571455" x2="1028" y2="828.0606582857088" stroke="#26a69a" stroke-width="2"/><rect x="1024" y="723.4483177142855" width="8" height="54.58035200000654" fill="#26a69a"/><line x1="1040" y1="572.2152605714265" x2="1040" y2="740.5046777142811" stroke="#26a69a" stroke-width="2"/><rect x="1036" y="589.271620571435" width="8" height="127.35415314284955" fill="#26a69a"/><line x1="1052" y1="532.4170880000046" x2="1052" y2="615.4247062857135" stroke="#26a69a" stroke-width="2"/><rect x="1048" y="551.747628571424" width="8" height="36.38690171428607" fill="#26a69a"/><line x1="1064" y1="484.65927999999883" x2="1064" y2="607.4650708571426" stroke="#26a69a" stroke-width="2"/><rect x="1060" y="517.634909714291" width="8" height="32.97562857142111" fill="#26a69a"/><line x1="1076" y1="511.9494560000021" x2="1076" y2="565.3927165714257" stroke="#ef5350" stroke-width="2"/><rect x="1072" y="521.0461817142849" width="8" height="26.153084571433283" fill="#ef5350"/><line x1="1088" y1="531.2799977142796" x2="1088" y2="720.0370457142916" stroke="#ef5350" stroke-width="2"/><rect x="1084" y="544.9250845714232" width="8" height="171.7006891428614" fill="#ef5350"/><line x1="1100" y1="667.730875428567" x2="1100" y2="771.2061257142913" stroke="#26a69a" stroke-width="2"/><rect x="1096" y="706.3919577142899" width="8" height="6.822544000000789" fill="#26a69a"/><line x1="1112" y1="692.7468708571464" x2="1112" y2="808.7301177142892" stroke="#ef5350" stroke-width="2"/><rect x="1108" y="705.2548674285649" width="8" height="70.49962057143216" fill="#ef5350"/><line x1="1124" y1="558.5701725714248" x2="1124" y2="791.6737577142807" stroke="#26a69a" stroke-width="2"/><rect x="1120" y="559.7072639999949" width="8" height="217.18431542857218" fill="#26a69a"/><line x1="1136" y1="382.3211211428576" x2="1136" y2="571.0781702857146" stroke="#26a69a" stroke-width="2"/><rect x="1132" y="427.80474742856836" width="8" height="125.07997257142574" fill="#26a69a"/><line x1="1148" y1="399.37748114285307" x2="1148" y2="524.4574537142918" stroke="#ef5350" stroke-width="2"/><rect x="1144" y="436.90147314285116" width="8" height="55.717442285718505" fill="#ef5350"/><line x1="1160" y1="418.70802171428556" x2="1160" y2="496.03018742857654" stroke="#26a69a" stroke-width="2"/><rect x="1156" y="450.54656114285274" width="8" height="45.4836262857238" fill="#26a69a"/><line x1="1172" y1="285.6684160000051" x2="1172" y2="469.87710171428523" stroke="#26a69a" stroke-width="2"/><rect x="1168" y="349.3454925714234" width="8" height="109.16070285714216" fill="#26a69a"/><line x1="1184" y1="339.1116765714287" x2="1184" y2="447.1352891428588" stroke="#ef5350" stroke-width="2"/><rect x="1180" y="345.9342205714295" width="8" height="73.91089257142607" fill="#ef5350"/><line x1="1196" y1="405.06293485714195" x2="1196" y2="521.0461817142849" stroke="#ef5350" stroke-width="2"/><rect x="1192" y="417.57093142857354" width="8" height="70.49962057143216" fill="#ef5350"/><line x1="1208" y1="415.29675085713666" x2="1208" y2="501.7156399999944" stroke="#26a69a" stroke-width="2"/><rect x="1204" y="430.07892914286333" width="8" height="48.89489828570464" fill="#26a69a"/><line x1="1220" y1="393.69202742857726" x2="1220" y2="430.07892914286333" stroke="#26a69a" stroke-width="2"/><rect x="1216" y="403.92584342857197" width="8" height="21.604722285714388" fill="#26a69a"/><line x1="1232" y1="394.82911885714725" x2="1232" y2="456.2320137142836" stroke="#ef5350" stroke-width="2"/><rect x="1228" y="406.20002514285386" width="8" height="35.24981028571608" fill="#ef5350"/><line x1="1244" y1="409.61129714286085" x2="1244" y2="515.360727999996" stroke="#ef5350" stroke-width="2"/><rect x="1240" y="432.35310971428714" width="8" height="68.22543999999527" fill="#ef5350"/><line x1="1256" y1="451.6836514285777" x2="1256" y2="586.9974388571401" stroke="#ef5350" stroke-width="2"/><rect x="1252" y="486.9334617142808" width="8" height="64.81416685714322" fill="#ef5350"/><line x1="1268" y1="525.5945440000037" x2="1268" y2="575.6265325714335" stroke="#26a69a" stroke-width="2"/><rect x="1264" y="549.4734480000002" width="8" height="13.645088000001579" fill="#26a69a"/><line x1="1280" y1="518.7720000000029" x2="1280" y2="604.0537988571486" stroke="#ef5350" stroke-width="2"/><rect x="1276" y="547.1992662857182" width="8" height="25.015994285708302" fill="#ef5350"/><line x1="1292" y1="563.1185360000018" x2="1292" y2="626.7956125714331" stroke="#ef5350" stroke-width="2"/><rect x="1288" y="569.9410800000026" width="8" height="4.5483622857059345" fill="#ef5350"/><line x1="1304" y1="511.9494560000021" x2="1304" y2="581.3119862857093" stroke="#26a69a" stroke-width="2"/><rect x="1300" y="531.2799977142796" width="8" height="50.03198857142968" fill="#26a69a"/><line x1="1316" y1="459.64328571429047" x2="1316" y2="541.5138125714293" stroke="#26a69a" stroke-width="2"/><rect x="1312" y="481.2480080000049" width="8" height="52.30617028571157" fill="#26a69a"/><line x1="1328" y1="388.00657485714635" x2="1328" y2="485.7963714285688" stroke="#26a69a" stroke-width="2"/><rect x="1324" y="394.82911885714725" width="8" height="85.28179885713269" fill="#26a69a"/><line x1="1340" y1="392.5549371428523" x2="1340" y2="438.038563428576" stroke="#ef5350" stroke-width="2"/><rect x="1336" y="398.24039085714116" width="8" height="7.959634285712696" fill="#ef5350"/><line x1="1352" y1="342.5229485714226" x2="1352" y2="419.84511314285555" stroke="#26a69a" stroke-width="2"/><rect x="1348" y="358.4422171428612" width="8" height="46.62071771428077" fill="#26a69a"/><line x1="1364" y1="253.82987657142496" x2="1364" y2="360.7163988571431" stroke="#26a69a" stroke-width="2"/><rect x="1360" y="265.2007840000026" width="8" height="88.69307085713967" fill="#26a69a"/><line x1="1376" y1="217.44297599999686" x2="1376" y2="286.8055062857171" stroke="#26a69a" stroke-width="2"/><rect x="1372" y="266.33787428571463" width="8" height="2.2741817142818945" fill="#26a69a"/><line x1="1388" y1="237.91060799999934" x2="1388" y2="300.4505942857187" stroke="#26a69a" stroke-width="2"/><rect x="1384" y="267.47496457142654" width="8" height="5.685453714288883" fill="#26a69a"/><line x1="1400" y1="212.89461371429104" x2="1400" y2="297.0393222857118" stroke="#26a69a" stroke-width="2"/><rect x="1396" y="248.14442399999405" width="8" height="19.330540571432493" fill="#26a69a"/><line x1="1412" y1="200.38661600000137" x2="1412" y2="254.96696799999495" stroke="#ef5350" stroke-width="2"/><rect x="1408" y="251.55569600000103" width="8" height="3.4112719999939145" fill="#ef5350"/><line x1="1424" y1="218.58006628570888" x2="1424" y2="266.33787428571463" stroke="#26a69a" stroke-width="2"/><rect x="1420" y="244.73315200000013" width="8" height="13.645088000001692" fill="#26a69a"/><line x1="1436" y1="215.16879428571497" x2="1436" y2="266.33787428571463" stroke="#26a69a" stroke-width="2"/><rect x="1432" y="243.59606171428823" width="8" height="4.548362285705821" fill="#26a69a"/><line x1="1448" y1="231.08806399999855" x2="1448" y2="290.7853234285669" stroke="#ef5350" stroke-width="2"/><rect x="1444" y="244.73315200000013" width="8" height="11.370906285719684" fill="#ef5350"/><line x1="1460" y1="249.28151428571903" x2="1460" y2="307.2731382857195" stroke="#ef5350" stroke-width="2"/><rect x="1456" y="254.96696799999495" width="8" height="23.878904000009356" fill="#ef5350"/><line x1="1472" y1="276.57169028570934" x2="1472" y2="328.877860571434" stroke="#ef5350" stroke-width="2"/><rect x="1468" y="283.3942342857101" width="8" height="27.29017600000327" fill="#ef5350"/><line x1="1484" y1="202.66079771428326" x2="1484" y2="312.9585908571373" stroke="#26a69a" stroke-width="2"/><rect x="1480" y="244.73315200000013" width="8" height="63.67707657143137" fill="#26a69a"/><line x1="1496" y1="177.64480342857496" x2="1496" y2="259.51533028571373" stroke="#26a69a" stroke-width="2"/><rect x="1492" y="186.74152799999968" width="8" height="56.85453371428855" fill="#26a69a"/><line x1="1508" y1="140.12081142857699" x2="1508" y2="194.70116342857057" stroke="#26a69a" stroke-width="2"/><rect x="1504" y="160.5884434285664" width="8" height="27.29017600000327" fill="#26a69a"/><line x1="1520" y1="138.983721142852" x2="1520" y2="209.48334171428417" stroke="#ef5350" stroke-width="2"/><rect x="1516" y="159.4513531428545" width="8" height="43.209444571428776" fill="#ef5350"/><line x1="1532" y1="177.64480342857496" x2="1532" y2="226.53970171427966" stroke="#ef5350" stroke-width="2"/><rect x="1528" y="201.52370742857136" width="8" height="3.29756228571307" fill="#ef5350"/><line x1="1544" y1="183.33025600000576" x2="1544" y2="220.85424800000385" stroke="#26a69a" stroke-width="2"/><rect x="1540" y="185.60443771428777" width="8" height="20.46763200000248" fill="#26a69a"/><line x1="1556" y1="177.64480342857496" x2="1556" y2="212.89461371429104" stroke="#ef5350" stroke-width="2"/><rect x="1552" y="181.05607542856887" width="8" height="30.701446857139103" fill="#ef5350"/><line x1="1568" y1="201.52370742857136" x2="1568" y2="233.36224571428045" stroke="#26a69a" stroke-width="2"/><rect x="1564" y="207.20916000000216" width="8" height="9.096725714282798" fill="#26a69a"/><line x1="1580" y1="184.46734742857575" x2="1580" y2="272.0233280000035" stroke="#ef5350" stroke-width="2"/><rect x="1576" y="200.38661600000137" width="8" height="10.233815999994704" fill="#ef5350"/><line x1="1592" y1="183.33025600000576" x2="1592" y2="224.26551999999776" stroke="#26a69a" stroke-width="2"/><rect x="1588" y="191.28989142857665" width="8" height="17.624905142851503" fill="#26a69a"/><line x1="1604" y1="186.74152799999968" x2="1604" y2="218.58006628570888" stroke="#ef5350" stroke-width="2"/><rect x="1600" y="190.1527999999936" width="8" height="20.46763200000248" fill="#ef5350"/><line x1="1616" y1="210.62043199999607" x2="1616" y2="291.35386857142294" stroke="#ef5350" stroke-width="2"/><rect x="1612" y="216.30588571428495" width="8" height="67.08834857142517" fill="#ef5350"/><line x1="1628" y1="240.18478971428135" x2="1628" y2="287.942596571429" stroke="#26a69a" stroke-width="2"/><rect x="1624" y="259.51533028571373" width="8" height="26.153085714291365" fill="#26a69a"/><line x1="1640" y1="206.07206971429025" x2="1640" y2="265.2007840000026" stroke="#26a69a" stroke-width="2"/><rect x="1636" y="221.99133828571576" width="8" height="43.20944571428686" fill="#26a69a"/><line x1="1652" y1="201.52370742857136" x2="1652" y2="245.87024228571215" stroke="#ef5350" stroke-width="2"/><rect x="1648" y="223.12842971428574" width="8" height="7.959634285712809" fill="#ef5350"/><line x1="1664" y1="225.40261028570967" x2="1664" y2="278.8458720000043" stroke="#ef5350" stroke-width="2"/><rect x="1660" y="232.22515428571046" width="8" height="45.36991771428802" fill="#ef5350"/><line x1="1676" y1="260.65242057142575" x2="1676" y2="317.5069542857143" stroke="#26a69a" stroke-width="2"/><rect x="1672" y="276.57169028570934" width="8" height="9.096725714295758" fill="#26a69a"/><line x1="1688" y1="278.8458720000043" x2="1688" y2="320.9182262857082" stroke="#ef5350" stroke-width="2"/><rect x="1684" y="281.12005257142823" width="8" height="15.919269714283587" fill="#ef5350"/><line x1="1700" y1="272.0233280000035" x2="1700" y2="311.8215005714254" stroke="#26a69a" stroke-width="2"/><rect x="1696" y="284.53132457142215" width="8" height="15.919269714296547" fill="#26a69a"/><line x1="1712" y1="231.08806399999855" x2="1712" y2="292.4909600000059" stroke="#26a69a" stroke-width="2"/><rect x="1708" y="245.87024228571215" width="8" height="40.93526400000496" fill="#26a69a"/><line x1="1724" y1="211.75752228570798" x2="1724" y2="282.2571439999982" stroke="#26a69a" stroke-width="2"/><rect x="1720" y="235.63642628571745" width="8" height="15.919269714283587" fill="#26a69a"/><line x1="1736" y1="202.66079771428326" x2="1736" y2="242.45897028571824" stroke="#26a69a" stroke-width="2"/><rect x="1732" y="207.20916000000216" width="8" height="26.15308571427829" fill="#26a69a"/><line x1="1748" y1="178.78189371428687" x2="1748" y2="212.89461371429104" stroke="#26a69a" stroke-width="2"/><rect x="1744" y="194.70116342857057" width="8" height="14.782178285713599" fill="#26a69a"/><line x1="1760" y1="159.4513531428545" x2="1760" y2="193.56407200000046" stroke="#26a69a" stroke-width="2"/><rect x="1756" y="166.27389714285528" width="8" height="26.153084571433283" fill="#26a69a"/><line x1="1772" y1="106.00809142857281" x2="1772" y2="176.50771200000497" stroke="#26a69a" stroke-width="2"/><rect x="1768" y="111.6935451428617" width="8" height="57.991624000000456" fill="#26a69a"/><line x1="1784" y1="111.6935451428617" x2="1784" y2="156.04008114286057" stroke="#ef5350" stroke-width="2"/><rect x="1780" y="111.6935451428617" width="8" height="11.370906285706724" fill="#ef5350"/><line x1="1796" y1="105.4395462857168" x2="1796" y2="150.3546274285717" stroke="#ef5350" stroke-width="2"/><rect x="1792" y="124.77008799999442" width="8" height="7.391089142856799" fill="#ef5350"/><line x1="1808" y1="110.55645485713671" x2="1808" y2="156.04008114286057" stroke="#ef5350" stroke-width="2"/><rect x="1804" y="132.16117714285122" width="8" height="13.645088000001579" fill="#ef5350"/><line x1="1820" y1="134.4353577142881" x2="1820" y2="163.99971542857327" stroke="#ef5350" stroke-width="2"/><rect x="1816" y="143.5320834285709" width="8" height="12.507997714289672" fill="#ef5350"/><line x1="1832" y1="126.4757234285753" x2="1832" y2="160.5884434285664" stroke="#26a69a" stroke-width="2"/><rect x="1828" y="151.4917177142836" width="8" height="5.685453714288883" fill="#26a69a"/><line x1="1844" y1="144.6691737142828" x2="1844" y2="171.95934971428608" stroke="#26a69a" stroke-width="2"/><rect x="1840" y="151.4917177142836" width="8" height="6.822544000000903" fill="#26a69a"/><line x1="1856" y1="136.70953942857" x2="1856" y2="158.3142617142845" stroke="#ef5350" stroke-width="2"/><rect x="1852" y="144.6691737142828" width="8" height="3.411272000006875" fill="#ef5350"/><line x1="1868" y1="127.61281485714528" x2="1868" y2="171.95934971428608" stroke="#ef5350" stroke-width="2"/><rect x="1864" y="149.21753714285967" width="8" height="22.741812571426408" fill="#ef5350"/><line x1="1880" y1="152.62880914285358" x2="1880" y2="187.87861942856966" stroke="#26a69a" stroke-width="2"/><rect x="1876" y="153.7658994285656" width="8" height="18.193450285720473" fill="#26a69a"/><line x1="1892" y1="148.08044571428968" x2="1892" y2="207.20916000000216" stroke="#ef5350" stroke-width="2"/><rect x="1888" y="156.04008114286057" width="8" height="45.483626285710784" fill="#ef5350"/><line x1="1904" y1="187.87861942856966" x2="1904" y2="249.28151428571903" stroke="#ef5350" stroke-width="2"/><rect x="1900" y="203.79788799999528" width="8" height="38.661082285722955" fill="#ef5350"/><line x1="1916" y1="225.40261028570967" x2="1916" y2="260.65242057142575" stroke="#26a69a" stroke-width="2"/><rect x="1912" y="239.04769828571136" width="8" height="5.685453714288769" fill="#26a69a"/><line x1="1928" y1="214.03170400000295" x2="1928" y2="277.7087805714343" stroke="#26a69a" stroke-width="2"/><rect x="1924" y="226.53970171427966" width="8" height="6.822544000000789" fill="#26a69a"/><line x1="1940" y1="183.33025600000576" x2="1940" y2="236.77351771428744" stroke="#26a69a" stroke-width="2"/><rect x="1936" y="204.93497942856527" width="8" height="13.64508685714361" fill="#26a69a"/><rect x="75" y="955.7750162528115" width="10" height="64.2249837471885" fill="#26a69a" opacity="0.9"/><rect x="87" y="977.3688379426555" width="10" height="42.631162057344454" fill="#26a69a" opacity="0.9"/><rect x="99" y="1002.1341996517789" width="10" height="17.865800348221114" fill="#26a69a" opacity="0.9"/><rect x="111" y="998.8152634449982" width="10" height="21.18473655500179" fill="#ef5350" opacity="0.9"/><rect x="123" y="988.3271560195183" width="10" height="31.67284398048173" fill="#26a69a" opacity="0.9"/><rect x="135" y="993.908035240579" width="10" height="26.09196475942099" fill="#ef5350" opacity="0.9"/><rect x="147" y="965.4773843061357" width="10" height="54.52261569386428" fill="#26a69a" opacity="0.9"/><rect x="159" y="992.66833802859" width="10" height="27.33166197140997" fill="#26a69a" opacity="0.9"/><rect x="171" y="993.5297370407179" width="10" height="26.47026295928208" fill="#26a69a" opacity="0.9"/><rect x="183" y="997.2123999611428" width="10" height="22.78760003885725" fill="#26a69a" opacity="0.9"/><rect x="195" y="998.4296795020288" width="10" height="21.570320497971238" fill="#26a69a" opacity="0.9"/><rect x="207" y="988.3159471839668" width="10" height="31.68405281603316" fill="#26a69a" opacity="0.9"/><rect x="219" y="995.9295487322808" width="10" height="24.07045126771925" fill="#ef5350" opacity="0.9"/><rect x="231" y="998.9004505951891" width="10" height="21.099549404810887" fill="#26a69a" opacity="0.9"/><rect x="243" y="1005.0025406693917" width="10" height="14.997459330608308" fill="#26a69a" opacity="0.9"/><rect x="255" y="991.1921343864657" width="10" height="28.807865613534318" fill="#26a69a" opacity="0.9"/><rect x="267" y="993.4439894487494" width="10" height="26.55601055125055" fill="#26a69a" opacity="0.9"/><rect x="279" y="993.5392645509367" width="10" height="26.46073544906335" fill="#ef5350" opacity="0.9"/><rect x="291" y="993.565044872705" width="10" height="26.434955127294984" fill="#ef5350" opacity="0.9"/><rect x="303" y="1000.5885012292356" width="10" height="19.41149877076441" fill="#26a69a" opacity="0.9"/><rect x="315" y="1004.9633097449616" width="10" height="15.036690255038366" fill="#ef5350" opacity="0.9"/><rect x="327" y="997.4444228570575" width="10" height="22.555577142942525" fill="#ef5350" opacity="0.9"/><rect x="339" y="999.0814732893449" width="10" height="20.9185267106551" fill="#26a69a" opacity="0.9"/><rect x="351" y="999.2322321275117" width="10" height="20.76776787248832" fill="#ef5350" opacity="0.9"/><rect x="363" y="998.657218863723" width="10" height="21.34278113627704" fill="#26a69a" opacity="0.9"/><rect x="375" y="998.9492090298379" width="10" height="21.050790970162097" fill="#26a69a" opacity="0.9"/><rect x="387" y="1004.6135940757567" width="10" height="15.386405924243263" fill="#ef5350" opacity="0.9"/><rect x="399" y="1005.6890818469172" width="10" height="14.310918153082753" fill="#ef5350" opacity="0.9"/><rect x="411" y="996.7887059772984" width="10" height="23.211294022701622" fill="#ef5350" opacity="0.9"/><rect x="423" y="984.179326423709" width="10" height="35.82067357629103" fill="#ef5350" opacity="0.9"/><rect x="435" y="976.7159232717844" width="10" height="43.28407672821561" fill="#ef5350" opacity="0.9"/><rect x="447" y="967.8390859568235" width="10" height="52.16091404317649" fill="#ef5350" opacity="0.9"/><rect x="459" y="989.8638873736204" width="10" height="30.1361126263796" fill="#ef5350" opacity="0.9"/><rect x="471" y="982.5327484812028" width="10" height="37.467251518797184" fill="#26a69a" opacity="0.9"/><rect x="483" y="999.6839482002347" width="10" height="20.31605179976532" fill="#26a69a" opacity="0.9"/><rect x="495" y="1004.0761304110654" width="10" height="15.923869588934622" fill="#26a69a" opacity="0.9"/><rect x="507" y="1004.728484640159" width="10" height="15.271515359841032" fill="#ef5350" opacity="0.9"/><rect x="519" y="999.2283090350687" width="10" height="20.77169096493128" fill="#ef5350" opacity="0.9"/><rect x="531" y="1006.0516876770062" width="10" height="13.948312322993843" fill="#ef5350" opacity="0.9"/><rect x="543" y="1006.8889876926986" width="10" height="13.111012307301394" fill="#26a69a" opacity="0.9"/><rect x="555" y="1002.5321133138549" width="10" height="17.467886686145107" fill="#ef5350" opacity="0.9"/><rect x="567" y="1005.3326408763814" width="10" height="14.667359123618553" fill="#ef5350" opacity="0.9"/><rect x="579" y="997.9695568026423" width="10" height="22.030443197357727" fill="#26a69a" opacity="0.9"/><rect x="591" y="1003.9343386413397" width="10" height="16.06566135866035" fill="#26a69a" opacity="0.9"/><rect x="603" y="997.6170389245495" width="10" height="22.382961075450453" fill="#ef5350" opacity="0.9"/><rect x="615" y="1001.429724337371" width="10" height="18.570275662629" fill="#26a69a" opacity="0.9"/><rect x="627" y="1005.9771489205891" width="10" height="14.022851079410884" fill="#ef5350" opacity="0.9"/><rect x="639" y="1006.4114912982074" width="10" height="13.588508701792648" fill="#26a69a" opacity="0.9"/><rect x="651" y="998.7283949694746" width="10" height="21.271605030525393" fill="#26a69a" opacity="0.9"/><rect x="663" y="992.1897207505436" width="10" height="27.810279249456357" fill="#26a69a" opacity="0.9"/><rect x="675" y="996.0377139953521" width="10" height="23.962286004647922" fill="#ef5350" opacity="0.9"/><rect x="687" y="1003.4209739730838" width="10" height="16.579026026916154" fill="#ef5350" opacity="0.9"/><rect x="699" y="999.7327066348834" width="10" height="20.267293365116643" fill="#ef5350" opacity="0.9"/><rect x="711" y="1003.1037639269782" width="10" height="16.896236073021782" fill="#ef5350" opacity="0.9"/><rect x="723" y="1002.0215508544869" width="10" height="17.978449145513082" fill="#26a69a" opacity="0.9"/><rect x="735" y="998.633680309065" width="10" height="21.36631969093503" fill="#ef5350" opacity="0.9"/><rect x="747" y="998.7670654521271" width="10" height="21.2329345478729" fill="#ef5350" opacity="0.9"/><rect x="759" y="1005.8673023321851" width="10" height="14.13269766781491" fill="#26a69a" opacity="0.9"/><rect x="771" y="1005.3931685883592" width="10" height="14.60683141164077" fill="#26a69a" opacity="0.9"/><rect x="783" y="1005.6184661829432" width="10" height="14.381533817056834" fill="#ef5350" opacity="0.9"/><rect x="795" y="1005.3236738079404" width="10" height="14.676326192059605" fill="#ef5350" opacity="0.9"/><rect x="807" y="1003.7387444609672" width="10" height="16.261255539032845" fill="#26a69a" opacity="0.9"/><rect x="819" y="982.3169783968376" width="10" height="37.68302160316239" fill="#26a69a" opacity="0.9"/><rect x="831" y="1000.2628845564664" width="10" height="19.73711544353364" fill="#ef5350" opacity="0.9"/><rect x="843" y="998.0950957608184" width="10" height="21.904904239181633" fill="#26a69a" opacity="0.9"/><rect x="855" y="1001.1287671028149" width="10" height="18.87123289718511" fill="#ef5350" opacity="0.9"/><rect x="867" y="998.2273600203254" width="10" height="21.772639979674636" fill="#26a69a" opacity="0.9"/><rect x="879" y="1000.957271918878" width="10" height="19.04272808112205" fill="#ef5350" opacity="0.9"/><rect x="891" y="997.9314467617675" width="10" height="22.06855323823254" fill="#26a69a" opacity="0.9"/><rect x="903" y="999.4614528145386" width="10" height="20.538547185461425" fill="#ef5350" opacity="0.9"/><rect x="915" y="999.9815427841253" width="10" height="20.01845721587472" fill="#ef5350" opacity="0.9"/><rect x="927" y="995.7827129865568" width="10" height="24.217287013443183" fill="#ef5350" opacity="0.9"/><rect x="939" y="995.2329196027589" width="10" height="24.767080397241102" fill="#ef5350" opacity="0.9"/><rect x="951" y="999.5718598447203" width="10" height="20.42814015527972" fill="#ef5350" opacity="0.9"/><rect x="963" y="985.1163850758091" width="10" height="34.88361492419085" fill="#26a69a" opacity="0.9"/><rect x="975" y="964.6389634068883" width="10" height="55.36103659311175" fill="#ef5350" opacity="0.9"/><rect x="987" y="924.3095730928167" width="10" height="95.69042690718334" fill="#ef5350" opacity="0.9"/><rect x="999" y="860.0" width="10" height="160.0" fill="#26a69a" opacity="0.9"/><rect x="1011" y="918.9652003018913" width="10" height="101.03479969810871" fill="#26a69a" opacity="0.9"/><rect x="1023" y="967.2394132548217" width="10" height="52.76058674517833" fill="#26a69a" opacity="0.9"/><rect x="1035" y="955.5513999835604" width="10" height="64.44860001643963" fill="#26a69a" opacity="0.9"/><rect x="1047" y="970.3582717470091" width="10" height="49.6417282529909" fill="#26a69a" opacity="0.9"/><rect x="1059" y="981.9980870253992" width="10" height="38.00191297460083" fill="#26a69a" opacity="0.9"/><rect x="1071" y="986.4928300815257" width="10" height="33.50716991847435" fill="#ef5350" opacity="0.9"/><rect x="1083" y="960.746134819874" width="10" height="59.25386518012601" fill="#ef5350" opacity="0.9"/><rect x="1095" y="980.4596743459645" width="10" height="39.54032565403554" fill="#26a69a" opacity="0.9"/><rect x="1107" y="977.5526628456992" width="10" height="42.44733715430084" fill="#ef5350" opacity="0.9"/><rect x="1119" y="982.955321581492" width="10" height="37.044678418508056" fill="#26a69a" opacity="0.9"/><rect x="1131" y="982.7681340277829" width="10" height="37.231865972217065" fill="#26a69a" opacity="0.9"/><rect x="1143" y="985.9374322799518" width="10" height="34.06256772004815" fill="#ef5350" opacity="0.9"/><rect x="1155" y="1001.4975377924573" width="10" height="18.50246220754275" fill="#26a69a" opacity="0.9"/><rect x="1167" y="969.0098488301712" width="10" height="50.99015116982878" fill="#26a69a" opacity="0.9"/><rect x="1179" y="989.5444355604044" width="10" height="30.455564439595605" fill="#ef5350" opacity="0.9"/><rect x="1191" y="987.2376572039186" width="10" height="32.762342796081384" fill="#ef5350" opacity="0.9"/><rect x="1203" y="997.7571493689426" width="10" height="22.242850631057422" fill="#26a69a" opacity="0.9"/><rect x="1215" y="1001.1186791508186" width="10" height="18.881320849181407" fill="#26a69a" opacity="0.9"/><rect x="1227" y="997.881007001786" width="10" height="22.118992998214026" fill="#ef5350" opacity="0.9"/><rect x="1239" y="998.3809210673801" width="10" height="21.619078932619914" fill="#ef5350" opacity="0.9"/><rect x="1251" y="974.7224318689613" width="10" height="45.27756813103872" fill="#ef5350" opacity="0.9"/><rect x="1263" y="1001.1186791508186" width="10" height="18.881320849181407" fill="#26a69a" opacity="0.9"/><rect x="1275" y="996.9417065825755" width="10" height="23.058293417424466" fill="#ef5350" opacity="0.9"/><rect x="1287" y="994.1439812289367" width="10" height="25.856018771063304" fill="#ef5350" opacity="0.9"/><rect x="1299" y="993.646308930453" width="10" height="26.35369106954704" fill="#26a69a" opacity="0.9"/><rect x="1311" y="997.3469059877599" width="10" height="22.653094012240103" fill="#26a69a" opacity="0.9"/><rect x="1323" y="1000.4237313466296" width="10" height="19.576268653370448" fill="#26a69a" opacity="0.9"/><rect x="1335" y="1005.4957294336549" width="10" height="14.504270566345099" fill="#ef5350" opacity="0.9"/><rect x="1347" y="996.7438706350927" width="10" height="23.256129364907338" fill="#26a69a" opacity="0.9"/><rect x="1359" y="972.8600838420899" width="10" height="47.13991615791008" fill="#26a69a" opacity="0.9"/><rect x="1371" y="955.4477182547096" width="10" height="64.55228174529043" fill="#26a69a" opacity="0.9"/><rect x="1383" y="995.3478101671611" width="10" height="24.65218983283887" fill="#26a69a" opacity="0.9"/><rect x="1395" y="989.2356321409624" width="10" height="30.764367859037634" fill="#26a69a" opacity="0.9"/><rect x="1407" y="1001.8169896056731" width="10" height="18.183010394326857" fill="#ef5350" opacity="0.9"/><rect x="1419" y="999.971454832129" width="10" height="20.028545167871016" fill="#26a69a" opacity="0.9"/><rect x="1431" y="1002.0243530633747" width="10" height="17.975646936625253" fill="#26a69a" opacity="0.9"/><rect x="1443" y="994.9229952997616" width="10" height="25.077004700238376" fill="#ef5350" opacity="0.9"/><rect x="1455" y="997.9689963608647" width="10" height="22.031003639135292" fill="#ef5350" opacity="0.9"/><rect x="1467" y="999.6761020153486" width="10" height="20.323897984651353" fill="#ef5350" opacity="0.9"/><rect x="1479" y="1000.9101948095619" width="10" height="19.089805190438142" fill="#26a69a" opacity="0.9"/><rect x="1491" y="998.7272740859195" width="10" height="21.272725914080524" fill="#26a69a" opacity="0.9"/><rect x="1503" y="992.4223040882359" width="10" height="27.577695911764067" fill="#26a69a" opacity="0.9"/><rect x="1515" y="997.3906204464106" width="10" height="22.609379553589406" fill="#ef5350" opacity="0.9"/><rect x="1527" y="999.1403196759899" width="10" height="20.859680324010128" fill="#ef5350" opacity="0.9"/><rect x="1539" y="1005.047936453375" width="10" height="14.952063546625027" fill="#26a69a" opacity="0.9"/><rect x="1551" y="1005.0810025182517" width="10" height="14.918997481748306" fill="#ef5350" opacity="0.9"/><rect x="1563" y="1004.7800452836956" width="10" height="15.219954716304414" fill="#26a69a" opacity="0.9"/><rect x="1575" y="987.9976162543061" width="10" height="32.00238374569392" fill="#ef5350" opacity="0.9"/><rect x="1587" y="1002.1790349939846" width="10" height="17.8209650060154" fill="#26a69a" opacity="0.9"/><rect x="1599" y="1004.8248806259014" width="10" height="15.175119374098585" fill="#ef5350" opacity="0.9"/><rect x="1611" y="997.4971043841492" width="10" height="22.502895615850775" fill="#ef5350" opacity="0.9"/><rect x="1623" y="1002.166705274878" width="10" height="17.83329472512196" fill="#26a69a" opacity="0.9"/><rect x="1635" y="993.6474298140081" width="10" height="26.352570185991908" fill="#26a69a" opacity="0.9"/><rect x="1647" y="997.38613691219" width="10" height="22.613863087810046" fill="#ef5350" opacity="0.9"/><rect x="1659" y="986.2647302780539" width="10" height="33.73526972194611" fill="#ef5350" opacity="0.9"/><rect x="1671" y="999.2753861443847" width="10" height="20.724613855615303" fill="#26a69a" opacity="0.9"/><rect x="1683" y="1004.389417364728" width="10" height="15.610582635271953" fill="#ef5350" opacity="0.9"/><rect x="1695" y="1003.3167318024555" width="10" height="16.68326819754452" fill="#26a69a" opacity="0.9"/><rect x="1707" y="991.0548261509606" width="10" height="28.945173849039406" fill="#26a69a" opacity="0.9"/><rect x="1719" y="1002.9849502701329" width="10" height="17.015049729867087" fill="#26a69a" opacity="0.9"/><rect x="1731" y="987.4528668465063" width="10" height="32.547133153493746" fill="#26a69a" opacity="0.9"/><rect x="1743" y="998.765944568572" width="10" height="21.234055431428033" fill="#26a69a" opacity="0.9"/><rect x="1755" y="1001.924594426967" width="10" height="18.07540557303298" fill="#26a69a" opacity="0.9"/><rect x="1767" y="988.9643783206176" width="10" height="31.035621679382416" fill="#26a69a" opacity="0.9"/><rect x="1779" y="995.4117005298043" width="10" height="24.588299470195693" fill="#ef5350" opacity="0.9"/><rect x="1791" y="991.1758815749162" width="10" height="28.82411842508384" fill="#ef5350" opacity="0.9"/><rect x="1803" y="996.7791784670796" width="10" height="23.220821532920354" fill="#ef5350" opacity="0.9"/><rect x="1815" y="1000.3598409839863" width="10" height="19.64015901601374" fill="#ef5350" opacity="0.9"/><rect x="1827" y="994.075607332073" width="10" height="25.92439266792701" fill="#26a69a" opacity="0.9"/><rect x="1839" y="998.7849995890093" width="10" height="21.215000410990683" fill="#26a69a" opacity="0.9"/><rect x="1851" y="1002.8941587021664" width="10" height="17.10584129783365" fill="#ef5350" opacity="0.9"/><rect x="1863" y="989.60776548127" width="10" height="30.392234518729992" fill="#ef5350" opacity="0.9"/><rect x="1875" y="994.5587081443399" width="10" height="25.441291855660097" fill="#26a69a" opacity="0.9"/><rect x="1887" y="989.6761393781338" width="10" height="30.323860621866174" fill="#ef5350" opacity="0.9"/><rect x="1899" y="990.9909357883174" width="10" height="29.009064211682585" fill="#ef5350" opacity="0.9"/><rect x="1911" y="978.1887642632432" width="10" height="41.81123573675677" fill="#26a69a" opacity="0.9"/><rect x="1923" y="944.8144564088385" width="10" height="75.18554359116149" fill="#26a69a" opacity="0.9"/><rect x="1935" y="894.0944755385846" width="10" height="125.90552446141544" fill="#26a69a" opacity="0.9"/><rect x="1004" y="243.59606171428823" width="12" height="644.7304011428579" fill="#ff0000" opacity="0.50"/><polyline points="320,172.92858439999952,332,168.72109113741578,344,164.15625111072325,356,163.7081655899757,368,161.3534565950041,380,157.16541300091978,392,153.91770237498088,404,153.47006759097246,416,160.21249162992842,428,168.1537840189127,440,185.73502026200526,452,205.86533256357927,464,224.94482709493502,476,235.2763885960875,488,237.36827049850558,500,238.61115956667288,512,241.0352103290279,524,245.71916918204283,536,251.47315753205737,548,256.2459696310465,560,261.53887733965223,572,266.9774646950567,584,270.49026484654473,596,273.23533513326765,608,278.85950631785556,620,280.2660343147961,632,283.4879055501266,644,283.587278790245,656,276.42146666056374,668,265.0648671146622,680,255.00643721258837,692,246.8806021583207,704,242.23601485071936,716,239.44159569487704,728,233.7186283770019,740,230.43585669483946,752,230.60626598921124,764,229.46091363649305,776,227.66658205207148,788,226.8011995981267,800,226.01823452075348,812,222.71077327387889,824,214.08700221377978,836,206.82601435668664,848,200.14825483972993,860,195.08112156247864,872,188.98045148169854,884,185.84327335419016,896,182.13851926604025,908,180.08613109104772,920,180.7199784157092,932,181.5641952196529,944,184.98122196064548,956,194.35388980112168,968,200.77633001053198,980,207.7783470163273,992,214.54668272906144,1004,217.31329025146158,1016,270.60646064927437,1028,313.7342565602272,1040,339.9759102755785,1052,360.1446453513745,1064,375.14371814783897,1076,391.52996082763946,1088,422.4914668168432,1100,449.5296088070712,1112,480.5986449206882,1124,488.13279911872604,1136,482.3872703863344,1148,483.36171277130364,1160,480.2364602352619,1172,467.7706537910905,1184,463.2063165864955,1196,465.57433900682423,1208,462.1938237816851,1220,456.6444923194857,1232,455.1973821393923,1244,459.51939809890195,1256,468.3030390962813,1268,476.0335542299669,1280,485.1937167386755,1292,493.698071552678,1304,497.27730261568337,1316,495.75070312847464,1328,486.13912367406687,1340,478.52587619490805,1352,467.0893372375628,1364,447.86185597684903,1376,430.57385772055045,1388,415.04062980158255,1400,399.14575305857784,1412,385.41444019584947,1424,372.0162222724347,1436,359.78573079069713,1448,349.9112857902219,1460,343.1431511435351,1472,340.0518424904086,1484,330.9738719675157,1496,317.23745825632125,1508,302.31850446320357,1520,292.8272942966422,1532,284.4457681459452,1544,275.03230810482694,1556,269.0061380268162,1568,263.120711548072,1580,258.12068492444143,1592,251.75584744864477,1604,247.8381888344951,1616,251.22447887746864,1628,252.01408377349378,1640,249.1547746794173,1652,247.43413556708606,1664,250.30660570355394,1676,252.80804233043455,1688,257.02054518331875,1700,259.64061941075283,1712,258.3291549226617,1724,256.16794267152727,1736,251.50520146471536,1748,246.09529308032245,1760,238.49325537199286,1772,226.41709249302426,1784,216.5739838202171,1796,208.53466889856077,1808,202.5605352075347,1820,198.13001577280636,1832,193.6882731005686,1844,189.6695535399756,1856,185.70868612800302,1868,184.3992255171803,1880,181.48176588969625,1892,183.39052222672763,1904,189.0160887085325,1916,193.78100390635416,1928,196.90087988805578,1940,197.66603222524282" fill="none" stroke="#0090ff" stroke-width="2"/><line x1="80" y1="50" x2="80" y2="850" stroke="#666666" stroke-width="0.5" stroke-dasharray="4,4"/><line x1="152" y1="50" x2="152" y2="850" stroke="#666666" stroke-width="0.5" stroke-dasharray="4,4"/><line x1="224" y1="50" x2="224" y2="850" stroke="#666666" stroke-width="0.5" stroke-dasharray="4,4"/><line x1="296" y1="50" x2="296" y2="850" stroke="#666666" stroke-width="0.5" stroke-dasharray="4,4"/><line x1="368" y1="50" x2="368" y2="850" stroke="#666666" stroke-width="0.5" stroke-dasharray="4,4"/><line x1="440" y1="50" x2="440" y2="850" stroke="#666666" stroke-width="0.5" stroke-dasharray="4,4"/><line x1="512" y1="50" x2="512" y2="850" stroke="#666666" stroke-width="0.5" stroke-dasharray="4,4"/><line x1="584" y1="50" x2="584" y2="850" stroke="#666666" stroke-width="0.5" stroke-dasharray="4,4"/><line x1="656" y1="50" x2="656" y2="850" stroke="#666666" stroke-width="0.5" stroke-dasharray="4,4"/><line x1="728" y1="50" x2="728" y2="850" stroke="#666666" stroke-width="0.5" stroke-dasharray="4,4"/><line x1="800" y1="50" x2="800" y2="850" stroke="#666666" stroke-width="0.5" stroke-dasharray="4,4"/><line x1="872" y1="50" x2="872" y2="850" stroke="#666666" stroke-width="0.5" stroke-dasharray="4,4"/><line x1="944" y1="50" x2="944" y2="850" stroke="#666666" stroke-width="0.5" stroke-dasharray="4,4"/><line x1="1016" y1="50" x2="1016" y2="850" stroke="#666666" stroke-width="0.5" stroke-dasharray="4,4"/><line x1="1088" y1="50" x2="1088" y2="850" stroke="#666666" stroke-width="0.5" stroke-dasharray="4,4"/><line x1="1160" y1="50" x2="1160" y2="850" stroke="#666666" stroke-width="0.5" stroke-dasharray="4,4"/><line x1="1232" y1="50" x2="1232" y2="850" stroke="#666666" stroke-width="0.5" stroke-dasharray="4,4"/><line x1="1304" y1="50" x2="1304" y2="850" stroke="#666666" stroke-width="0.5" stroke-dasharray="4,4"/><line x1="1376" y1="50" x2="1376" y2="850" stroke="#666666" stroke-width="0.5" stroke-dasharray="4,4"/><line x1="1448" y1="50" x2="1448" y2="850" stroke="#666666" stroke-width="0.5" stroke-dasharray="4,4"/><line x1="1520" y1="50" x2="1520" y2="850" stroke="#666666" stroke-width="0.5" stroke-dasharray="4,4"/><line x1="1592" y1="50" x2="1592" y2="850" stroke="#666666" stroke-width="0.5" stroke-dasharray="4,4"/><line x1="1664" y1="50" x2="1664" y2="850" stroke="#666666" stroke-width="0.5" stroke-dasharray="4,4"/><line x1="1736" y1="50" x2="1736" y2="850" stroke="#666666" stroke-width="0.5" stroke-dasharray="4,4"/><line x1="1808" y1="50" x2="1808" y2="850" stroke="#666666" stroke-width="0.5" stroke-dasharray="4,4"/><line x1="1880" y1="50" x2="1880" y2="850" stroke="#666666" stroke-width="0.5" stroke-dasharray="4,4"/><text x="80" y="1040" text-anchor="middle" font-size="20" fill="black">09:30</text><text x="152" y="1040" text-anchor="middle" font-size="20" fill="black">10:00</text><text x="224" y="1040" text-anchor="middle" font-size="20" fill="black">10:30</text><text x="296" y="1040" text-anchor="middle" font-size="20" fill="black">11:00</text><text x="368" y="1040" text-anchor="middle" font-size="20" fill="black">11:30</text><text x="440" y="1040" text-anchor="middle" font-size="20" fill="black">12:00</text><text x="512" y="1040" text-anchor="middle" font-size="20" fill="black">12:30</text><text x="584" y="1040" text-anchor="middle" font-size="20" fill="black">13:00</text><text x="656" y="1040" text-anchor="middle" font-size="20" fill="black">13:30</text><text x="728" y="1040" text-anchor="middle" font-size="20" fill="black">14:00</text><text x="800" y="1040" text-anchor="middle" font-size="20" fill="black">14:30</text><text x="872" y="1040" text-anchor="middle" font-size="20" fill="black">15:00</text><text x="944" y="1040" text-anchor="middle" font-size="20" fill="black">15:30</text><text x="1016" y="1040" text-anchor="middle" font-size="20" fill="black">09:30</text><text x="1088" y="1040" text-anchor="middle" font-size="20" fill="black">10:00</text><text x="1160" y="1040" text-anchor="middle" font-size="20" fill="black">10:30</text><text x="1232" y="1040" text-anchor="middle" font-size="20" fill="black">11:00</text><text x="1304" y="1040" text-anchor="middle" font-size="20" fill="black">11:30</text><text x="1376" y="1040" text-anchor="middle" font-size="20" fill="black">12:00</text><text x="1448" y="1040" text-anchor="middle" font-size="20" fill="black">12:30</text><text x="1520" y="1040" text-anchor="middle" font-size="20" fill="black">13:00</text><text x="1592" y="1040" text-anchor="middle" font-size="20" fill="black">13:30</text><text x="1664" y="1040" text-anchor="middle" font-size="20" fill="black">14:00</text><text x="1736" y="1040" text-anchor="middle" font-size="20" fill="black">14:30</text><text x="1808" y="1040" text-anchor="middle" font-size="20" fill="black">15:00</text><text x="1880" y="1040" text-anchor="middle" font-size="20" fill="black">15:30</text><text x="1942" y="50" text-anchor="end" font-size="40" fill="#26a69a" font-weight="bold"> +1.15% (Wed)</text></svg>