<svg xmlns="http://www.w3.org/2000/svg" width="1992" height="1050"><rect width="100%" height="100%" fill="white"/><text x="42" y="854.0" text-anchor="end" font-size="20" fill="black">569</text><text x="42" y="739.7142857142858" text-anchor="end" font-size="20" fill="black">570</text><text x="42" y="625.4285714285714" text-anchor="end" font-size="20" fill="black">571</text><text x="42" y="511.14285714285717" text-anchor="end" font-size="20" fill="black">572</text><text x="42" y="396.8571428571429" text-anchor="end" font-size="20" fill="black">573</text><text x="42" y="282.57142857142856" text-anchor="end" font-size="20" fill="black">574</text><text x="42" y="168.28571428571433" text-anchor="end" font-size="20" fill="black">575</text><text x="42" y="54.0" text-anchor="end" font-size="20" fill="black">576</text><line x1="80" y1="755.7866571428609" x2="80" y2="876.6335325714343" stroke="#26a69a" stroke-width="2"/><rect x="76" y="832.1710022857197" width="8" height="11.400649142849147" fill="#26a69a"/><line x1="92" y1="744.3860091428568" x2="92" y2="837.8713268571379" stroke="#26a69a" stroke-width="2"/><rect x="88" y="753.5065280000059" width="8" height="74.10421485713277" fill="#26a69a"/><line x1="104" y1="650.9006902857177" x2="104" y2="770.6075005714281" stroke="#26a69a" stroke-width="2"/><rect x="100" y="681.682441142857" width="8" height="62.70356799999979" fill="#26a69a"/><line x1="116" y1="568.8160205714277" x2="116" y2="677.1221817142889" stroke="#26a69a" stroke-width="2"/><rect x="112" y="612.1384857142922" width="8" height="63.84363199999177" fill="#26a69a"/><line x1="128" y1="591.617317714281" x2="128" y2="650.9006902857177" stroke="#ef5350" stroke-width="2"/><rect x="124" y="612.1384857142922" width="8" height="14.820842285709091" fill="#ef5350"/><line x1="140" y1="555.1352422857105" x2="140" y2="626.9593280000013" stroke="#26a69a" stroke-width="2"/><rect x="136" y="571.6661828571367" width="8" height="49.59282171429152" fill="#26a69a"/><line x1="152" y1="547.1547885714244" x2="152" y2="600.7378365714301" stroke="#26a69a" stroke-width="2"/><rect x="148" y="552.8551131428555" width="8" height="17.671004571431126" fill="#26a69a"/><line x1="164" y1="504.9723885714229" x2="164" y2="577.9365394285768" stroke="#26a69a" stroke-width="2"/><rect x="160" y="504.9723885714229" width="8" height="47.88272457143262" fill="#26a69a"/><line x1="176" y1="477.6108320000016" x2="176" y2="593.897447999994" stroke="#ef5350" stroke-width="2"/><rect x="172" y="508.39258285714095" width="8" height="72.9641508571408" fill="#ef5350"/><line x1="188" y1="525.4935565714342" x2="188" y2="616.6987451428603" stroke="#26a69a" stroke-width="2"/><rect x="184" y="533.4740102857203" width="8" height="47.88272342856146" fill="#26a69a"/><line x1="200" y1="501.5521942857179" x2="200" y2="556.2753074285736" stroke="#26a69a" stroke-width="2"/><rect x="196" y="516.3730377142851" width="8" height="15.960907428572114" fill="#26a69a"/><line x1="212" y1="463.93005371428444" x2="212" y2="538.0342697142883" stroke="#26a69a" stroke-width="2"/><rect x="208" y="483.31115657143266" width="8" height="30.7817508571394" fill="#26a69a"/><line x1="224" y1="409.20694057142885" x2="224" y2="487.87141600000075" stroke="#26a69a" stroke-width="2"/><rect x="220" y="434.2883679999951" width="8" height="49.02278857143756" fill="#26a69a"/><line x1="236" y1="418.32745942857787" x2="236" y2="450.2492754285673" stroke="#ef5350" stroke-width="2"/><rect x="232" y="433.14830285714504" width="8" height="6.840388571423091" fill="#ef5350"/><line x1="248" y1="418.32745942857787" x2="248" y2="495.8518697142868" stroke="#ef5350" stroke-width="2"/><rect x="244" y="438.84862742857615" width="8" height="13.680778285704207" fill="#ef5350"/><line x1="260" y1="445.68901599999924" x2="260" y2="484.4512217142827" stroke="#ef5350" stroke-width="2"/><rect x="256" y="453.6694697142853" width="8" height="3.4201954285761076" fill="#ef5350"/><line x1="272" y1="454.8095348571483" x2="272" y2="522.0733611428582" stroke="#ef5350" stroke-width="2"/><rect x="268" y="458.2297291428534" width="8" height="54.72311314285565" fill="#ef5350"/><line x1="284" y1="510.672713142854" x2="284" y2="566.5358914285727" stroke="#ef5350" stroke-width="2"/><rect x="280" y="511.242745142863" width="8" height="35.91204342856145" fill="#ef5350"/><line x1="296" y1="520.3632639999992" x2="296" y2="568.8160205714277" stroke="#26a69a" stroke-width="2"/><rect x="292" y="524.3534914285711" width="8" height="20.5211668571402" fill="#26a69a"/><line x1="308" y1="468.4903131428525" x2="308" y2="533.4740102857203" stroke="#26a69a" stroke-width="2"/><rect x="304" y="486.8453577142905" width="8" height="36.36806857141761" fill="#26a69a"/><line x1="320" y1="473.0505725714335" x2="320" y2="534.6140754285702" stroke="#26a69a" stroke-width="2"/><rect x="316" y="474.1906377142836" width="8" height="12.540713142854145" fill="#26a69a"/><line x1="332" y1="465.07011885714746" x2="332" y2="499.27206400000483" stroke="#ef5350" stroke-width="2"/><rect x="328" y="471.9105074285705" width="8" height="23.94136228571631" fill="#ef5350"/><line x1="344" y1="481.03102628571963" x2="344" y2="520.9332971428531" stroke="#ef5350" stroke-width="2"/><rect x="340" y="492.4316754285688" width="8" height="3.4201942857180256" fill="#ef5350"/><line x1="356" y1="485.59128571428766" x2="356" y2="522.0733611428582" stroke="#ef5350" stroke-width="2"/><rect x="352" y="495.8518697142868" width="8" height="10.260583999999142" fill="#ef5350"/><line x1="368" y1="506.11245371428595" x2="368" y2="566.5358914285727" stroke="#ef5350" stroke-width="2"/><rect x="364" y="512.952842285709" width="8" height="39.902270857146505" fill="#ef5350"/><line x1="380" y1="547.1547885714244" x2="380" y2="637.2199120000005" stroke="#ef5350" stroke-width="2"/><rect x="376" y="547.1547885714244" width="8" height="62.70356685714171" fill="#ef5350"/><line x1="392" y1="600.7378365714301" x2="392" y2="654.3208845714227" stroke="#ef5350" stroke-width="2"/><rect x="388" y="613.2785497142842" width="8" height="19.38110285714822" fill="#ef5350"/><line x1="404" y1="550.5749828571425" x2="404" y2="650.9006902857177" stroke="#26a69a" stroke-width="2"/><rect x="400" y="560.8355668571417" width="8" height="71.82408571429073" fill="#26a69a"/><line x1="416" y1="500.4121291428549" x2="416" y2="558.5554365714286" stroke="#26a69a" stroke-width="2"/><rect x="412" y="506.11245371428595" width="8" height="50.73288571428361" fill="#26a69a"/><line x1="428" y1="467.35024800000247" x2="428" y2="509.532648000004" stroke="#26a69a" stroke-width="2"/><rect x="424" y="468.4903131428525" width="8" height="37.62214057143348" fill="#26a69a"/><line x1="440" y1="424.027783999996" x2="440" y2="477.6108320000016" stroke="#26a69a" stroke-width="2"/><rect x="436" y="445.68901599999924" width="8" height="27.361556571434278" fill="#26a69a"/><line x1="452" y1="429.728108571427" x2="452" y2="462.78998857143444" stroke="#ef5350" stroke-width="2"/><rect x="448" y="444.5489508571492" width="8" height="2" fill="#ef5350"/><line x1="464" y1="441.12875657143115" x2="464" y2="484.4512217142827" stroke="#ef5350" stroke-width="2"/><rect x="460" y="442.2688217142812" width="8" height="15.96090742857217" fill="#ef5350"/><line x1="476" y1="401.22648685714273" x2="476" y2="460.5098594285664" stroke="#26a69a" stroke-width="2"/><rect x="472" y="426.307913142851" width="8" height="29.641686857147363" fill="#26a69a"/><line x1="488" y1="416.0473302857099" x2="488" y2="445.68901599999924" stroke="#ef5350" stroke-width="2"/><rect x="484" y="421.74765371428293" width="8" height="4.560259428568088" fill="#ef5350"/><line x1="500" y1="416.0473302857099" x2="500" y2="461.64992457142944" stroke="#ef5350" stroke-width="2"/><rect x="496" y="426.42192000000375" width="8" height="13.56677142856438" fill="#ef5350"/><line x1="512" y1="427.44797828571404" x2="512" y2="459.3697942857164" stroke="#ef5350" stroke-width="2"/><rect x="508" y="436.56849714286307" width="8" height="9.120518857136176" fill="#ef5350"/><line x1="524" y1="429.728108571427" x2="524" y2="458.2297291428534" stroke="#26a69a" stroke-width="2"/><rect x="520" y="435.5424388571399" width="8" height="11.286642285722337" fill="#26a69a"/><line x1="536" y1="417.18739428571484" x2="536" y2="452.52940571428036" stroke="#26a69a" stroke-width="2"/><rect x="532" y="434.2883679999951" width="8" height="2" fill="#26a69a"/><line x1="548" y1="420.60758971429095" x2="548" y2="451.3893405714303" stroke="#ef5350" stroke-width="2"/><rect x="544" y="435.42843200000004" width="8" height="14.82084342856723" fill="#ef5350"/><line x1="560" y1="429.728108571427" x2="560" y2="478.86490400000446" stroke="#ef5350" stroke-width="2"/><rect x="556" y="450.2492754285673" width="8" height="21.661232000003224" fill="#ef5350"/><line x1="572" y1="458.2297291428534" x2="572" y2="481.60105942857365" stroke="#ef5350" stroke-width="2"/><rect x="568" y="473.0505725714335" width="8" height="6.840389714281116" fill="#ef5350"/><line x1="584" y1="469.6303782857155" x2="584" y2="527.7736857142892" stroke="#26a69a" stroke-width="2"/><rect x="580" y="479.89096228571464" width="8" height="2.280129142855003" fill="#26a69a"/><line x1="596" y1="463.93005371428444" x2="596" y2="508.96261599999497" stroke="#26a69a" stroke-width="2"/><rect x="592" y="469.6303782857155" width="8" height="7.980453714286114" fill="#26a69a"/><line x1="608" y1="468.4903131428525" x2="608" y2="498.1319999999999" stroke="#ef5350" stroke-width="2"/><rect x="604" y="469.6303782857155" width="8" height="19.38110285713526" fill="#ef5350"/><line x1="620" y1="487.87141600000075" x2="620" y2="535.7541394285753" stroke="#ef5350" stroke-width="2"/><rect x="616" y="491.2916102857188" width="8" height="22.801297142853286" fill="#ef5350"/><line x1="632" y1="445.68901599999924" x2="632" y2="516.3730377142851" stroke="#26a69a" stroke-width="2"/><rect x="628" y="477.6108320000016" width="8" height="36.482075428570454" fill="#26a69a"/><line x1="644" y1="477.6108320000016" x2="644" y2="532.9039771428533" stroke="#ef5350" stroke-width="2"/><rect x="640" y="477.6108320000016" width="8" height="43.436470857146276" fill="#ef5350"/><line x1="656" y1="471.9105074285705" x2="656" y2="523.2134262857081" stroke="#26a69a" stroke-width="2"/><rect x="652" y="481.03102628571963" width="8" height="42.18239999998849" fill="#26a69a"/><line x1="668" y1="461.64992457142944" x2="668" y2="483.88118857142865" stroke="#26a69a" stroke-width="2"/><rect x="664" y="465.07011885714746" width="8" height="17.100972571422176" fill="#26a69a"/><line x1="680" y1="414.90726514285984" x2="680" y2="462.78998857143444" stroke="#26a69a" stroke-width="2"/><rect x="676" y="425.28185485714073" width="8" height="35.228004571425686" fill="#26a69a"/><line x1="692" y1="418.32745942857787" x2="692" y2="451.3893405714303" stroke="#ef5350" stroke-width="2"/><rect x="688" y="425.16784914285904" width="8" height="7.4104205714320415" fill="#ef5350"/><line x1="704" y1="420.60758971429095" x2="704" y2="444.5489508571492" stroke="#26a69a" stroke-width="2"/><rect x="700" y="426.307913142851" width="8" height="6.270356571440061" fill="#26a69a"/><line x1="716" y1="407.49684342856983" x2="716" y2="437.7085622857131" stroke="#26a69a" stroke-width="2"/><rect x="712" y="418.32745942857787" width="8" height="13.68077828570415" fill="#26a69a"/><line x1="728" y1="355.6238925714232" x2="728" y2="414.90726514285984" stroke="#26a69a" stroke-width="2"/><rect x="724" y="370.44473600000333" width="8" height="44.46252914285651" fill="#26a69a"/><line x1="740" y1="351.0636331428551" x2="740" y2="372.72486514285833" stroke="#26a69a" stroke-width="2"/><rect x="736" y="369.3046708571403" width="8" height="2.280129142855003" fill="#26a69a"/><line x1="752" y1="370.44473600000333" x2="752" y2="409.20694057142885" stroke="#ef5350" stroke-width="2"/><rect x="748" y="371.5847999999953" width="8" height="34.20194628571551" fill="#ef5350"/><line x1="764" y1="385.26557828571254" x2="764" y2="412.62713485714687" stroke="#26a69a" stroke-width="2"/><rect x="760" y="395.5261622857116" width="8" height="9.690550857145126" fill="#26a69a"/><line x1="776" y1="376.14505942857636" x2="776" y2="402.36655200000575" stroke="#ef5350" stroke-width="2"/><rect x="772" y="389.8258377142805" width="8" height="10.260583999999199" fill="#ef5350"/><line x1="788" y1="394.38609714286156" x2="788" y2="441.12875657143115" stroke="#26a69a" stroke-width="2"/><rect x="784" y="396.66622742857464" width="8" height="5.700324571431111" fill="#26a69a"/><line x1="800" y1="376.14505942857636" x2="800" y2="397.8062925714247" stroke="#26a69a" stroke-width="2"/><rect x="796" y="376.14505942857636" width="8" height="20.521167999998283" fill="#26a69a"/><line x1="812" y1="368.0505988571375" x2="812" y2="410.232998857139" stroke="#ef5350" stroke-width="2"/><rect x="808" y="375.0049954285714" width="8" height="33.0618799999944" fill="#ef5350"/><line x1="824" y1="385.8356114285665" x2="824" y2="406.92681142857384" stroke="#26a69a" stroke-width="2"/><rect x="820" y="388.68577371428853" width="8" height="12.540713142854202" fill="#26a69a"/><line x1="836" y1="373.8649302857084" x2="836" y2="406.92681142857384" stroke="#26a69a" stroke-width="2"/><rect x="832" y="382.98544914285753" width="8" height="6.840388571422977" fill="#26a69a"/><line x1="848" y1="365.8844765714223" x2="848" y2="395.5261622857116" stroke="#26a69a" stroke-width="2"/><rect x="844" y="371.5847999999953" width="8" height="12.540714285725244" fill="#26a69a"/><line x1="860" y1="365.8844765714223" x2="860" y2="387.5457085714255" stroke="#ef5350" stroke-width="2"/><rect x="856" y="369.3046708571403" width="8" height="17.10097257143525" fill="#ef5350"/><line x1="872" y1="375.5750274285674" x2="872" y2="401.22648685714273" stroke="#ef5350" stroke-width="2"/><rect x="868" y="387.5457085714255" width="8" height="6.840388571436051" fill="#ef5350"/><line x1="884" y1="385.26557828571254" x2="884" y2="403.50661599999773" stroke="#ef5350" stroke-width="2"/><rect x="880" y="392.1059679999936" width="8" height="2" fill="#ef5350"/><line x1="896" y1="385.26557828571254" x2="896" y2="402.36655200000575" stroke="#26a69a" stroke-width="2"/><rect x="892" y="393.2460331428566" width="8" height="4.560259428568088" fill="#26a69a"/><line x1="908" y1="367.02454057142734" x2="908" y2="404.64668114286076" stroke="#26a69a" stroke-width="2"/><rect x="904" y="367.02454057142734" width="8" height="26.79152457142527" fill="#26a69a"/><line x1="920" y1="357.90402171429116" x2="920" y2="390.96590285714353" stroke="#ef5350" stroke-width="2"/><rect x="916" y="368.16460571429036" width="8" height="18.81106971428119" fill="#ef5350"/><line x1="932" y1="376.14505942857636" x2="932" y2="401.7965188571387" stroke="#ef5350" stroke-width="2"/><rect x="928" y="388.68577371428853" width="8" height="7.980453714286114" fill="#ef5350"/><line x1="944" y1="396.66622742857464" x2="944" y2="432.008237714282" stroke="#ef5350" stroke-width="2"/><rect x="940" y="396.66622742857464" width="8" height="14.820843428567173" fill="#ef5350"/><line x1="956" y1="412.62713485714687" x2="956" y2="435.42843200000004" stroke="#ef5350" stroke-width="2"/><rect x="952" y="413.7671999999968" width="8" height="14.820843428580247" fill="#ef5350"/><line x1="968" y1="414.90726514285984" x2="968" y2="467.35024800000247" stroke="#ef5350" stroke-width="2"/><rect x="964" y="432.008237714282" width="8" height="21.66123200000328" fill="#ef5350"/><line x1="980" y1="444.5489508571492" x2="980" y2="475.3307028571466" stroke="#ef5350" stroke-width="2"/><rect x="976" y="454.8095348571483" width="8" height="7.980453714286114" fill="#ef5350"/><line x1="992" y1="381.8453839999945" x2="992" y2="477.6108320000016" stroke="#26a69a" stroke-width="2"/><rect x="988" y="384.12551428572056" width="8" height="79.80453942856388" fill="#26a69a"/><line x1="1004" y1="361.3242171428543" x2="1004" y2="419.46752457142793" stroke="#26a69a" stroke-width="2"/><rect x="1000" y="375.0049954285714" width="8" height="18.2410377142852" fill="#26a69a"/><line x1="1016" y1="320.2818822857158" x2="1016" y2="457.0896651428614" stroke="#ef5350" stroke-width="2"/><rect x="1012" y="360.18415200000425" width="8" height="90.06512342856303" fill="#ef5350"/><line x1="1028" y1="353.45776914286296" x2="1028" y2="447.9691462857123" stroke="#26a69a" stroke-width="2"/><rect x="1024" y="365.8844765714223" width="8" height="72.96415085715387" fill="#26a69a"/><line x1="1040" y1="296.3405199999995" x2="1040" y2="386.40564342857556" stroke="#26a69a" stroke-width="2"/><rect x="1036" y="323.70207657143385" width="8" height="51.30291885713757" fill="#26a69a"/><line x1="1052" y1="303.1809085714225" x2="1052" y2="356.7639577142862" stroke="#26a69a" stroke-width="2"/><rect x="1048" y="311.1613634285667" width="8" height="9.120518857149136" fill="#26a69a"/><line x1="1064" y1="304.3209737142855" x2="1064" y2="379.5652548571395" stroke="#ef5350" stroke-width="2"/><rect x="1060" y="305.46103885714854" width="8" height="43.32246399999349" fill="#ef5350"/><line x1="1076" y1="283.7998068571453" x2="1076" y2="356.7639577142862" stroke="#26a69a" stroke-width="2"/><rect x="1072" y="284.9398708571373" width="8" height="68.40389142857282" fill="#26a69a"/><line x1="1088" y1="273.5392228571462" x2="1088" y2="339.66298400000596" stroke="#ef5350" stroke-width="2"/><rect x="1084" y="284.9398708571373" width="8" height="54.72311314286867" fill="#ef5350"/><line x1="1100" y1="288.3600662857134" x2="1100" y2="340.803049142856" stroke="#26a69a" stroke-width="2"/><rect x="1096" y="299.8747211428573" width="8" height="32.9478742857126" fill="#26a69a"/><line x1="1112" y1="242.75747199999387" x2="1112" y2="306.6011039999986" stroke="#26a69a" stroke-width="2"/><rect x="1108" y="278.0994822857143" width="8" height="27.36155657143422" fill="#26a69a"/><line x1="1124" y1="221.09623885714552" x2="1124" y2="290.6401954285684" stroke="#26a69a" stroke-width="2"/><rect x="1120" y="221.09623885714552" width="8" height="57.003243428568794" fill="#26a69a"/><line x1="1136" y1="219.95617485714058" x2="1136" y2="258.718379428566" stroke="#ef5350" stroke-width="2"/><rect x="1132" y="222.23630399999558" width="8" height="35.34201028572045" fill="#ef5350"/><line x1="1148" y1="227.9366285714267" x2="1148" y2="269.092970285718" stroke="#ef5350" stroke-width="2"/><rect x="1144" y="257.57831428571603" width="8" height="5.700324571430997" fill="#ef5350"/><line x1="1160" y1="241.6174068571438" x2="1160" y2="276.9594171428513" stroke="#ef5350" stroke-width="2"/><rect x="1156" y="260.998509714292" width="8" height="13.680778285704264" fill="#ef5350"/><line x1="1172" y1="245.03760114286183" x2="1172" y2="284.9398708571373" stroke="#ef5350" stroke-width="2"/><rect x="1168" y="272.3991577142832" width="8" height="2" fill="#ef5350"/><line x1="1184" y1="245.03760114286183" x2="1184" y2="290.6401954285684" stroke="#26a69a" stroke-width="2"/><rect x="1180" y="255.86821714285702" width="8" height="21.091199999994274" fill="#26a69a"/><line x1="1196" y1="246.1776662857119" x2="1196" y2="351.0636331428551" stroke="#ef5350" stroke-width="2"/><rect x="1192" y="254.158119999998" width="8" height="74.10421600000382" fill="#ef5350"/><line x1="1208" y1="272.96918971429216" x2="1208" y2="333.3926274285659" stroke="#26a69a" stroke-width="2"/><rect x="1204" y="296.3405199999995" width="8" height="29.641685714289338" fill="#26a69a"/><line x1="1220" y1="295.2004548571365" x2="1220" y2="333.96266057143293" stroke="#ef5350" stroke-width="2"/><rect x="1216" y="295.2004548571365" width="8" height="36.48207542858336" fill="#ef5350"/><line x1="1232" y1="304.3209737142855" x2="1232" y2="340.803049142856" stroke="#ef5350" stroke-width="2"/><rect x="1228" y="331.68253028571985" width="8" height="5.130291428564078" fill="#ef5350"/><line x1="1244" y1="324.8421417142838" x2="1244" y2="364.74441142857233" stroke="#ef5350" stroke-width="2"/><rect x="1240" y="338.522920000001" width="8" height="2.280129142855003" fill="#ef5350"/><line x1="1256" y1="278.2134891428541" x2="1256" y2="353.3437622857101" stroke="#26a69a" stroke-width="2"/><rect x="1252" y="278.2134891428541" width="8" height="67.14981942856991" fill="#26a69a"/><line x1="1268" y1="265.5587691428601" x2="1268" y2="294.6304228571405" stroke="#26a69a" stroke-width="2"/><rect x="1264" y="275.81935200000123" width="8" height="3.4201954285761076" fill="#26a69a"/><line x1="1280" y1="274.6792879999963" x2="1280" y2="319.1418171428528" stroke="#ef5350" stroke-width="2"/><rect x="1276" y="274.6792879999963" width="8" height="29.75569257142911" fill="#ef5350"/><line x1="1292" y1="292.9203257142815" x2="1292" y2="320.2818822857158" stroke="#ef5350" stroke-width="2"/><rect x="1288" y="304.3209737142855" width="8" height="11.400649142862221" fill="#ef5350"/><line x1="1304" y1="286.0799360000003" x2="1304" y2="332.8225954285699" stroke="#26a69a" stroke-width="2"/><rect x="1300" y="289.50013028571834" width="8" height="26.221492571429394" fill="#26a69a"/><line x1="1316" y1="289.50013028571834" x2="1316" y2="343.083179428569" stroke="#ef5350" stroke-width="2"/><rect x="1312" y="289.50013028571834" width="8" height="53.583049142850655" fill="#ef5350"/><line x1="1328" y1="310.0212982857166" x2="1328" y2="360.18415200000425" stroke="#26a69a" stroke-width="2"/><rect x="1324" y="324.8421417142838" width="8" height="20.5211668571402" fill="#26a69a"/><line x1="1340" y1="292.9203257142815" x2="1340" y2="338.522920000001" stroke="#26a69a" stroke-width="2"/><rect x="1336" y="294.06038971428643" width="8" height="29.64168685714742" fill="#26a69a"/><line x1="1352" y1="247.31773142857492" x2="1352" y2="297.48058514286254" stroke="#26a69a" stroke-width="2"/><rect x="1348" y="250.1678925714259" width="8" height="46.172627428573605" fill="#26a69a"/><line x1="1364" y1="230.2167577142817" x2="1364" y2="256.438250285711" stroke="#26a69a" stroke-width="2"/><rect x="1360" y="230.2167577142817" width="8" height="19.38110285714822" fill="#26a69a"/><line x1="1376" y1="216.53597942857755" x2="1376" y2="249.59786057142992" stroke="#26a69a" stroke-width="2"/><rect x="1372" y="227.9366285714267" width="8" height="2.280129142855003" fill="#26a69a"/><line x1="1388" y1="135.59137485713757" x2="1388" y2="231.35682285714472" stroke="#26a69a" stroke-width="2"/><rect x="1384" y="137.8715051428636" width="8" height="93.48531771428111" fill="#26a69a"/><line x1="1400" y1="119.63046742856545" x2="1400" y2="172.07345028570796" stroke="#ef5350" stroke-width="2"/><rect x="1396" y="134.4513097142875" width="8" height="34.20194628571551" fill="#ef5350"/><line x1="1412" y1="148.13208800000473" x2="1412" y2="199.54901371428218" stroke="#ef5350" stroke-width="2"/><rect x="1408" y="167.51319085714" width="8" height="20.521167999998283" fill="#ef5350"/><line x1="1424" y1="167.51319085714" x2="1424" y2="194.87474742857432" stroke="#26a69a" stroke-width="2"/><rect x="1420" y="173.213515428571" width="8" height="18.241037714285312" fill="#26a69a"/><line x1="1436" y1="170.93338514285801" x2="1436" y2="199.4350068571423" stroke="#26a69a" stroke-width="2"/><rect x="1432" y="170.93338514285801" width="8" height="2" fill="#26a69a"/><line x1="1448" y1="159.64674399999365" x2="1448" y2="191.4545531428563" stroke="#ef5350" stroke-width="2"/><rect x="1444" y="170.93338514285801" width="8" height="17.100973714280258" fill="#ef5350"/><line x1="1460" y1="186.32426057143414" x2="1460" y2="227.9366285714267" stroke="#ef5350" stroke-width="2"/><rect x="1456" y="186.8942937142882" width="8" height="31.92181600000231" fill="#ef5350"/><line x1="1472" y1="218.81610971429052" x2="1472" y2="292.9203257142815" stroke="#ef5350" stroke-width="2"/><rect x="1468" y="219.95617485714058" width="8" height="69.54395542857776" fill="#ef5350"/><line x1="1484" y1="257.57831428571603" x2="1484" y2="295.2004548571365" stroke="#26a69a" stroke-width="2"/><rect x="1480" y="286.6499679999963" width="8" height="3.990227428572098" fill="#26a69a"/><line x1="1496" y1="246.1776662857119" x2="1496" y2="286.0799360000003" stroke="#ef5350" stroke-width="2"/><rect x="1492" y="282.08970857142833" width="8" height="2" fill="#ef5350"/><line x1="1508" y1="276.9594171428513" x2="1508" y2="306.6011039999986" stroke="#ef5350" stroke-width="2"/><rect x="1504" y="284.9398708571373" width="8" height="19.38110285714822" fill="#ef5350"/><line x1="1520" y1="272.3991577142832" x2="1520" y2="311.1613634285667" stroke="#26a69a" stroke-width="2"/><rect x="1516" y="280.3796114285693" width="8" height="27.36155657143422" fill="#26a69a"/><line x1="1532" y1="258.718379428566" x2="1532" y2="284.9398708571373" stroke="#26a69a" stroke-width="2"/><rect x="1528" y="267.8388982857151" width="8" height="11.400649142862221" fill="#26a69a"/><line x1="1544" y1="267.8388982857151" x2="1544" y2="306.6011039999986" stroke="#ef5350" stroke-width="2"/><rect x="1540" y="267.8388982857151" width="8" height="37.62214057143342" fill="#ef5350"/><line x1="1556" y1="298.6206491428545" x2="1556" y2="328.2623360000018" stroke="#ef5350" stroke-width="2"/><rect x="1552" y="307.74116800000354" width="8" height="2" fill="#ef5350"/><line x1="1568" y1="290.6401954285684" x2="1568" y2="324.8421417142838" stroke="#26a69a" stroke-width="2"/><rect x="1564" y="310.5913302857126" width="8" height="2.8501622857220354" fill="#26a69a"/><line x1="1580" y1="312.3014274285716" x2="1580" y2="338.522920000001" stroke="#ef5350" stroke-width="2"/><rect x="1576" y="312.3014274285716" width="8" height="13.680778285717224" fill="#ef5350"/><line x1="1592" y1="305.46103885714854" x2="1592" y2="333.96266057143293" stroke="#ef5350" stroke-width="2"/><rect x="1588" y="328.2623360000018" width="8" height="5.700324571431111" fill="#ef5350"/><line x1="1604" y1="319.1418171428528" x2="1604" y2="392.1059679999936" stroke="#ef5350" stroke-width="2"/><rect x="1600" y="333.96266057143293" width="8" height="36.4820754285704" fill="#ef5350"/><line x1="1616" y1="372.72486514285833" x2="1616" y2="421.74765371428293" stroke="#ef5350" stroke-width="2"/><rect x="1612" y="373.8649302857084" width="8" height="5.700324571431111" fill="#ef5350"/><line x1="1628" y1="370.44473600000333" x2="1628" y2="427.44797828571404" stroke="#ef5350" stroke-width="2"/><rect x="1624" y="377.2851245714264" width="8" height="2" fill="#ef5350"/><line x1="1640" y1="373.8649302857084" x2="1640" y2="410.34700571429187" stroke="#ef5350" stroke-width="2"/><rect x="1636" y="379.5652548571395" width="8" height="29.641685714289338" fill="#ef5350"/><line x1="1652" y1="390.39587085714754" x2="1652" y2="436.56849714286307" stroke="#ef5350" stroke-width="2"/><rect x="1648" y="410.34700571429187" width="8" height="2.280129142855003" fill="#ef5350"/><line x1="1664" y1="402.36655200000575" x2="1664" y2="461.64992457142944" stroke="#ef5350" stroke-width="2"/><rect x="1660" y="408.0668754285658" width="8" height="46.17262742857355" fill="#ef5350"/><line x1="1676" y1="433.14830285714504" x2="1676" y2="471.9105074285705" stroke="#26a69a" stroke-width="2"/><rect x="1672" y="439.98869142856813" width="8" height="11.400649142862164" fill="#26a69a"/><line x1="1688" y1="414.90726514285984" x2="1688" y2="468.4903131428525" stroke="#26a69a" stroke-width="2"/><rect x="1684" y="426.307913142851" width="8" height="13.68077828571711" fill="#26a69a"/><line x1="1700" y1="412.62713485714687" x2="1700" y2="447.39911314285825" stroke="#ef5350" stroke-width="2"/><rect x="1696" y="424.027783999996" width="8" height="18.2410377142852" fill="#ef5350"/><line x1="1712" y1="442.15481485714133" x2="1712" y2="468.4903131428525" stroke="#ef5350" stroke-width="2"/><rect x="1708" y="443.40888685714424" width="8" height="21.661232000003224" fill="#ef5350"/><line x1="1724" y1="406.92681142857384" x2="1724" y2="467.35024800000247" stroke="#26a69a" stroke-width="2"/><rect x="1720" y="452.52940571428036" width="8" height="14.820842285722108" fill="#26a69a"/><line x1="1736" y1="410.34700571429187" x2="1736" y2="452.52940571428036" stroke="#26a69a" stroke-width="2"/><rect x="1732" y="438.84862742857615" width="8" height="13.110745142850135" fill="#26a69a"/><line x1="1748" y1="409.20694057142885" x2="1748" y2="451.3893405714303" stroke="#26a69a" stroke-width="2"/><rect x="1744" y="409.20694057142885" width="8" height="26.2214914285712" fill="#26a69a"/><line x1="1760" y1="407.49684342856983" x2="1760" y2="522.0733611428582" stroke="#ef5350" stroke-width="2"/><rect x="1756" y="409.20694057142885" width="8" height="111.72635657142428" fill="#ef5350"/><line x1="1772" y1="443.40888685714424" x2="1772" y2="538.0342697142883" stroke="#26a69a" stroke-width="2"/><rect x="1768" y="448.5391782857083" width="8" height="73.53418285714986" fill="#26a69a"/><line x1="1784" y1="432.008237714282" x2="1784" y2="483.1971497142799" stroke="#ef5350" stroke-width="2"/><rect x="1780" y="447.9691462857123" width="8" height="11.400648000004082" fill="#ef5350"/><line x1="1796" y1="427.44797828571404" x2="1796" y2="465.07011885714746" stroke="#26a69a" stroke-width="2"/><rect x="1792" y="441.69878857142714" width="8" height="17.671005714289265" fill="#26a69a"/><line x1="1808" y1="432.008237714282" x2="1808" y2="465.07011885714746" stroke="#ef5350" stroke-width="2"/><rect x="1804" y="442.2688217142812" width="8" height="13.680778285717167" fill="#ef5350"/><line x1="1820" y1="451.3893405714303" x2="1820" y2="476.4707668571386" stroke="#ef5350" stroke-width="2"/><rect x="1816" y="460.5098594285664" width="8" height="2" fill="#ef5350"/><line x1="1832" y1="449.10921028571727" x2="1832" y2="491.2916102857188" stroke="#ef5350" stroke-width="2"/><rect x="1828" y="463.93005371428444" width="8" height="19.38110285714822" fill="#ef5350"/><line x1="1844" y1="483.31115657143266" x2="1844" y2="528.9137508571392" stroke="#ef5350" stroke-width="2"/><rect x="1840" y="484.4512217142827" width="8" height="18.2410377142852" fill="#ef5350"/><line x1="1856" y1="475.3307028571466" x2="1856" y2="506.11245371428595" stroke="#26a69a" stroke-width="2"/><rect x="1852" y="491.2916102857188" width="8" height="12.540713142854145" fill="#26a69a"/><line x1="1868" y1="490.15154514285575" x2="1868" y2="519.7932320000032" stroke="#ef5350" stroke-width="2"/><rect x="1864" y="494.7118045714238" width="8" height="14.82084342858019" fill="#ef5350"/><line x1="1880" y1="492.4316754285688" x2="1880" y2="544.8746582857113" stroke="#ef5350" stroke-width="2"/><rect x="1876" y="509.532648000004" width="8" height="21.661231999990264" fill="#ef5350"/><line x1="1892" y1="518.6531668571401" x2="1892" y2="559.6955017142916" stroke="#ef5350" stroke-width="2"/><rect x="1888" y="533.4740102857203" width="8" height="11.400647999991065" fill="#ef5350"/><line x1="1904" y1="533.4740102857203" x2="1904" y2="560.2655337142876" stroke="#26a69a" stroke-width="2"/><rect x="1900" y="543.7345942857194" width="8" height="2" fill="#26a69a"/><line x1="1916" y1="544.8746582857113" x2="1916" y2="589.3371885714259" stroke="#ef5350" stroke-width="2"/><rect x="1912" y="546.5847554285704" width="8" height="24.51139542857038" fill="#ef5350"/><line x1="1928" y1="550.5749828571425" x2="1928" y2="687.9527977142841" stroke="#ef5350" stroke-width="2"/><rect x="1924" y="567.6759554285777" width="8" height="102.60583771427514" fill="#ef5350"/><line x1="1940" y1="564.2557611428597" x2="1940" y2="713.6042571428593" stroke="#26a69a" stroke-width="2"/><rect x="1936" y="580.2166697142898" width="8" height="91.2051885714261" fill="#26a69a"/><rect x="75" y="984.6481800784765" width="10" height="35.35181992152354" fill="#26a69a" opacity="0.9"/><rect x="87" y="993.516252212304" width="10" height="26.48374778769596" fill="#26a69a" opacity="0.9"/><rect x="99" y="988.952372098571" width="10" height="31.047627901428996" fill="#26a69a" opacity="0.9"/><rect x="111" y="986.9693233024677" width="10" height="33.03067669753227" fill="#26a69a" opacity="0.9"/><rect x="123" y="994.4568651147943" width="10" height="25.543134885205745" fill="#ef5350" opacity="0.9"/><rect x="135" y="999.4080409466994" width="10" height="20.59195905330057" fill="#26a69a" opacity="0.9"/><rect x="147" y="992.6764098669197" width="10" height="27.3235901330803" fill="#26a69a" opacity="0.9"/><rect x="159" y="979.3499641295406" width="10" height="40.65003587045942" fill="#26a69a" opacity="0.9"/><rect x="171" y="990.7494031822097" width="10" height="29.250596817790324" fill="#ef5350" opacity="0.9"/><rect x="183" y="999.7937580138465" width="10" height="20.206241986153486" fill="#26a69a" opacity="0.9"/><rect x="195" y="1005.8426225252452" width="10" height="14.157377474754753" fill="#26a69a" opacity="0.9"/><rect x="207" y="999.0349530877537" width="10" height="20.965046912246294" fill="#26a69a" opacity="0.9"/><rect x="219" y="981.9513179104976" width="10" height="38.04868208950245" fill="#26a69a" opacity="0.9"/><rect x="231" y="993.9548540887938" width="10" height="26.04514591120619" fill="#ef5350" opacity="0.9"/><rect x="243" y="985.0602079960429" width="10" height="34.93979200395711" fill="#ef5350" opacity="0.9"/><rect x="255" y="988.0175475831729" width="10" height="31.982452416827073" fill="#ef5350" opacity="0.9"/><rect x="267" y="997.9254245255715" width="10" height="22.074575474428457" fill="#ef5350" opacity="0.9"/><rect x="279" y="991.2687793694868" width="10" height="28.731220630513235" fill="#ef5350" opacity="0.9"/><rect x="291" y="994.2408530328518" width="10" height="25.75914696714824" fill="#26a69a" opacity="0.9"/><rect x="303" y="992.4243519199027" width="10" height="27.575648080097267" fill="#26a69a" opacity="0.9"/><rect x="315" y="1002.7926687446392" width="10" height="17.207331255360828" fill="#26a69a" opacity="0.9"/><rect x="327" y="1002.8066134953614" width="10" height="17.193386504638625" fill="#ef5350" opacity="0.9"/><rect x="339" y="1004.2258207669788" width="10" height="15.774179233021187" fill="#ef5350" opacity="0.9"/><rect x="351" y="1005.33403378664" width="10" height="14.66596621335998" fill="#ef5350" opacity="0.9"/><rect x="363" y="1003.4951684508346" width="10" height="16.504831549165374" fill="#ef5350" opacity="0.9"/><rect x="375" y="997.7180950242674" width="10" height="22.281904975732573" fill="#ef5350" opacity="0.9"/><rect x="387" y="1005.6913351353343" width="10" height="14.30866486466573" fill="#ef5350" opacity="0.9"/><rect x="399" y="999.1209895686249" width="10" height="20.87901043137515" fill="#26a69a" opacity="0.9"/><rect x="411" y="1002.4445761935917" width="10" height="17.55542380640827" fill="#26a69a" opacity="0.9"/><rect x="423" y="1000.4912586584624" width="10" height="19.508741341537643" fill="#26a69a" opacity="0.9"/><rect x="435" y="999.3846242898263" width="10" height="20.61537571017368" fill="#26a69a" opacity="0.9"/><rect x="447" y="1000.5525629399393" width="10" height="19.44743706006068" fill="#ef5350" opacity="0.9"/><rect x="459" y="1002.018340416799" width="10" height="17.981659583201008" fill="#ef5350" opacity="0.9"/><rect x="471" y="992.9813526232795" width="10" height="27.018647376720537" fill="#26a69a" opacity="0.9"/><rect x="483" y="1003.3975551957791" width="10" height="16.60244480422091" fill="#ef5350" opacity="0.9"/><rect x="495" y="1004.0792693301432" width="10" height="15.920730669856766" fill="#ef5350" opacity="0.9"/><rect x="507" y="1004.2016147845931" width="10" height="15.798385215406938" fill="#ef5350" opacity="0.9"/><rect x="519" y="1003.6964464565424" width="10" height="16.30355354345761" fill="#26a69a" opacity="0.9"/><rect x="531" y="999.3704164305999" width="10" height="20.629583569400097" fill="#26a69a" opacity="0.9"/><rect x="543" y="1003.5591038173536" width="10" height="16.440896182646384" fill="#ef5350" opacity="0.9"/><rect x="555" y="997.4528816520408" width="10" height="22.547118347959213" fill="#ef5350" opacity="0.9"/><rect x="567" y="1003.2573183630441" width="10" height="16.742681636955922" fill="#ef5350" opacity="0.9"/><rect x="579" y="997.1334679279504" width="10" height="22.86653207204961" fill="#26a69a" opacity="0.9"/><rect x="591" y="1002.3477522640487" width="10" height="17.652247735951278" fill="#26a69a" opacity="0.9"/><rect x="603" y="1003.7982694476651" width="10" height="16.20173055233488" fill="#ef5350" opacity="0.9"/><rect x="615" y="1002.4914095073381" width="10" height="17.508590492661938" fill="#ef5350" opacity="0.9"/><rect x="627" y="998.1761669300676" width="10" height="21.823833069932448" fill="#26a69a" opacity="0.9"/><rect x="639" y="1000.2731417084863" width="10" height="19.726858291513736" fill="#ef5350" opacity="0.9"/><rect x="651" y="1005.2887791239189" width="10" height="14.711220876081143" fill="#26a69a" opacity="0.9"/><rect x="663" y="1006.1515119091679" width="10" height="13.84848809083212" fill="#26a69a" opacity="0.9"/><rect x="675" y="1003.6996037585927" width="10" height="16.30039624140727" fill="#26a69a" opacity="0.9"/><rect x="687" y="1004.2913347845229" width="10" height="15.70866521547714" fill="#ef5350" opacity="0.9"/><rect x="699" y="999.9037373685992" width="10" height="20.096262631400805" fill="#26a69a" opacity="0.9"/><rect x="711" y="1005.8602507950262" width="10" height="14.139749204973782" fill="#26a69a" opacity="0.9"/><rect x="723" y="989.2312671130156" width="10" height="30.768732886984367" fill="#26a69a" opacity="0.9"/><rect x="735" y="998.5221546130814" width="10" height="21.477845386918602" fill="#26a69a" opacity="0.9"/><rect x="747" y="1004.6096960745965" width="10" height="15.390303925403487" fill="#ef5350" opacity="0.9"/><rect x="759" y="1004.1350483330323" width="10" height="15.864951666967727" fill="#26a69a" opacity="0.9"/><rect x="771" y="1002.067541707083" width="10" height="17.932458292916976" fill="#ef5350" opacity="0.9"/><rect x="783" y="1000.3191856967201" width="10" height="19.68081430327993" fill="#26a69a" opacity="0.9"/><rect x="795" y="999.4343517971188" width="10" height="20.56564820288122" fill="#26a69a" opacity="0.9"/><rect x="807" y="1002.6237530849472" width="10" height="17.376246915052775" fill="#ef5350" opacity="0.9"/><rect x="819" y="1000.0171371339064" width="10" height="19.98286286609357" fill="#26a69a" opacity="0.9"/><rect x="831" y="1004.84333642632" width="10" height="15.15666357368002" fill="#26a69a" opacity="0.9"/><rect x="843" y="1000.5399337317381" width="10" height="19.460066268261926" fill="#26a69a" opacity="0.9"/><rect x="855" y="1001.4837039362786" width="10" height="18.51629606372137" fill="#ef5350" opacity="0.9"/><rect x="867" y="999.8321718554587" width="10" height="20.167828144541318" fill="#ef5350" opacity="0.9"/><rect x="879" y="1003.9206149021148" width="10" height="16.079385097885165" fill="#ef5350" opacity="0.9"/><rect x="891" y="1003.3633510902339" width="10" height="16.63664890976611" fill="#26a69a" opacity="0.9"/><rect x="903" y="992.8292759078558" width="10" height="27.170724092144155" fill="#26a69a" opacity="0.9"/><rect x="915" y="995.3806390730161" width="10" height="24.61936092698386" fill="#ef5350" opacity="0.9"/><rect x="927" y="991.5618822431578" width="10" height="28.43811775684219" fill="#ef5350" opacity="0.9"/><rect x="939" y="993.9419617720883" width="10" height="26.058038227911652" fill="#ef5350" opacity="0.9"/><rect x="951" y="993.3754891625607" width="10" height="26.62451083743929" fill="#ef5350" opacity="0.9"/><rect x="963" y="990.1763528600771" width="10" height="29.823647139922855" fill="#ef5350" opacity="0.9"/><rect x="975" y="978.0225817258865" width="10" height="41.97741827411346" fill="#ef5350" opacity="0.9"/><rect x="987" y="968.3770239621686" width="10" height="51.62297603783145" fill="#26a69a" opacity="0.9"/><rect x="999" y="943.9245089079769" width="10" height="76.07549109202307" fill="#26a69a" opacity="0.9"/><rect x="1011" y="975.4467494698364" width="10" height="44.55325053016361" fill="#ef5350" opacity="0.9"/><rect x="1023" y="997.316854555373" width="10" height="22.68314544462703" fill="#26a69a" opacity="0.9"/><rect x="1035" y="994.6092049387221" width="10" height="25.390795061277913" fill="#26a69a" opacity="0.9"/><rect x="1047" y="997.7659807720305" width="10" height="22.234019227969497" fill="#26a69a" opacity="0.9"/><rect x="1059" y="1002.6921612960374" width="10" height="17.307838703962602" fill="#ef5350" opacity="0.9"/><rect x="1071" y="1000.0368702717209" width="10" height="19.963129728279114" fill="#26a69a" opacity="0.9"/><rect x="1083" y="999.1104652284571" width="10" height="20.889534771542912" fill="#ef5350" opacity="0.9"/><rect x="1095" y="1001.1319278661725" width="10" height="18.868072133827468" fill="#26a69a" opacity="0.9"/><rect x="1107" y="995.301443413254" width="10" height="24.698556586746008" fill="#26a69a" opacity="0.9"/><rect x="1119" y="989.4678016582852" width="10" height="30.532198341714775" fill="#26a69a" opacity="0.9"/><rect x="1131" y="999.5430156093505" width="10" height="20.456984390649495" fill="#ef5350" opacity="0.9"/><rect x="1143" y="1002.6061248151663" width="10" height="17.393875184833746" fill="#ef5350" opacity="0.9"/><rect x="1155" y="1005.1035507369669" width="10" height="14.896449263033105" fill="#ef5350" opacity="0.9"/><rect x="1167" y="1002.9181715011392" width="10" height="17.081828498860773" fill="#ef5350" opacity="0.9"/><rect x="1179" y="1006.128358360799" width="10" height="13.871641639201016" fill="#26a69a" opacity="0.9"/><rect x="1191" y="995.8652849377397" width="10" height="24.134715062260284" fill="#ef5350" opacity="0.9"/><rect x="1203" y="1005.6479222321424" width="10" height="14.352077767857622" fill="#26a69a" opacity="0.9"/><rect x="1215" y="1005.3669223496642" width="10" height="14.63307765033585" fill="#ef5350" opacity="0.9"/><rect x="1227" y="1004.6239039338229" width="10" height="15.37609606617707" fill="#ef5350" opacity="0.9"/><rect x="1239" y="1006.5690651053224" width="10" height="13.430934894677648" fill="#ef5350" opacity="0.9"/><rect x="1251" y="1003.1278689789812" width="10" height="16.872131021018845" fill="#26a69a" opacity="0.9"/><rect x="1263" y="1001.8949425283324" width="10" height="18.10505747166758" fill="#26a69a" opacity="0.9"/><rect x="1275" y="1002.5663954310331" width="10" height="17.43360456896687" fill="#ef5350" opacity="0.9"/><rect x="1287" y="1007.0495012339788" width="10" height="12.950498766021155" fill="#ef5350" opacity="0.9"/><rect x="1299" y="1004.6073280980588" width="10" height="15.392671901941185" fill="#26a69a" opacity="0.9"/><rect x="1311" y="1000.9951114439921" width="10" height="19.004888556007927" fill="#ef5350" opacity="0.9"/><rect x="1323" y="1003.7864295649764" width="10" height="16.2135704350236" fill="#26a69a" opacity="0.9"/><rect x="1335" y="1001.7602309741856" width="10" height="18.23976902581444" fill="#26a69a" opacity="0.9"/><rect x="1347" y="998.0390873993829" width="10" height="21.96091260061712" fill="#26a69a" opacity="0.9"/><rect x="1359" y="998.0143551999888" width="10" height="21.985644800011187" fill="#26a69a" opacity="0.9"/><rect x="1371" y="1002.6508532608791" width="10" height="17.349146739120897" fill="#26a69a" opacity="0.9"/><rect x="1383" y="992.4488210107927" width="10" height="27.5511789892073" fill="#26a69a" opacity="0.9"/><rect x="1395" y="996.0007858173992" width="10" height="23.99921418260078" fill="#ef5350" opacity="0.9"/><rect x="1407" y="999.6432599494481" width="10" height="20.356740050551934" fill="#ef5350" opacity="0.9"/><rect x="1419" y="1003.3991338468041" width="10" height="16.600866153195852" fill="#26a69a" opacity="0.9"/><rect x="1431" y="1006.702198008444" width="10" height="13.297801991555957" fill="#26a69a" opacity="0.9"/><rect x="1443" y="1006.6532598266641" width="10" height="13.346740173335888" fill="#ef5350" opacity="0.9"/><rect x="1455" y="1001.5010690975554" width="10" height="18.498930902444613" fill="#ef5350" opacity="0.9"/><rect x="1467" y="999.1341449938345" width="10" height="20.865855006165475" fill="#ef5350" opacity="0.9"/><rect x="1479" y="1006.217025926712" width="10" height="13.78297407328796" fill="#26a69a" opacity="0.9"/><rect x="1491" y="1003.9898124387176" width="10" height="16.01018756128235" fill="#ef5350" opacity="0.9"/><rect x="1503" y="999.5038124422258" width="10" height="20.496187557774192" fill="#ef5350" opacity="0.9"/><rect x="1515" y="1003.9156158405352" width="10" height="16.084384159464776" fill="#26a69a" opacity="0.9"/><rect x="1527" y="1004.4152588899979" width="10" height="15.584741110002142" fill="#26a69a" opacity="0.9"/><rect x="1539" y="1006.2325493284594" width="10" height="13.767450671540587" fill="#ef5350" opacity="0.9"/><rect x="1551" y="998.6721264604714" width="10" height="21.327873539528582" fill="#ef5350" opacity="0.9"/><rect x="1563" y="1006.0707375983807" width="10" height="13.929262401619326" fill="#26a69a" opacity="0.9"/><rect x="1575" y="1002.5908645219231" width="10" height="17.409135478076905" fill="#ef5350" opacity="0.9"/><rect x="1587" y="1005.4576947836108" width="10" height="14.542305216389195" fill="#ef5350" opacity="0.9"/><rect x="1599" y="1000.0521305649642" width="10" height="19.94786943503584" fill="#ef5350" opacity="0.9"/><rect x="1611" y="994.4421310385594" width="10" height="25.55786896144059" fill="#ef5350" opacity="0.9"/><rect x="1623" y="1001.6915596545912" width="10" height="18.308440345408826" fill="#ef5350" opacity="0.9"/><rect x="1635" y="1006.3906775394794" width="10" height="13.609322460520616" fill="#ef5350" opacity="0.9"/><rect x="1647" y="1003.004997307523" width="10" height="16.995002692476987" fill="#ef5350" opacity="0.9"/><rect x="1659" y="997.9662063437214" width="10" height="22.03379365627859" fill="#ef5350" opacity="0.9"/><rect x="1671" y="999.4625044070674" width="10" height="20.5374955929326" fill="#26a69a" opacity="0.9"/><rect x="1683" y="1003.6953940225256" width="10" height="16.304605977474353" fill="#26a69a" opacity="0.9"/><rect x="1695" y="1003.0605132019077" width="10" height="16.939486798092275" fill="#ef5350" opacity="0.9"/><rect x="1707" y="1003.283102996455" width="10" height="16.716897003545" fill="#ef5350" opacity="0.9"/><rect x="1719" y="994.6236759064526" width="10" height="25.376324093547396" fill="#26a69a" opacity="0.9"/><rect x="1731" y="998.7029101554621" width="10" height="21.297089844537936" fill="#26a69a" opacity="0.9"/><rect x="1743" y="1005.670549563503" width="10" height="14.32945043649704" fill="#26a69a" opacity="0.9"/><rect x="1755" y="1000.1997344358165" width="10" height="19.80026556418352" fill="#ef5350" opacity="0.9"/><rect x="1767" y="998.0856576046251" width="10" height="21.914342395374888" fill="#26a69a" opacity="0.9"/><rect x="1779" y="1004.5770706200766" width="10" height="15.422929379923403" fill="#ef5350" opacity="0.9"/><rect x="1791" y="1005.1103915580759" width="10" height="14.88960844192411" fill="#26a69a" opacity="0.9"/><rect x="1803" y="1006.7079863955363" width="10" height="13.292013604463705" fill="#ef5350" opacity="0.9"/><rect x="1815" y="1004.7936089190275" width="10" height="15.20639108097248" fill="#ef5350" opacity="0.9"/><rect x="1827" y="1005.2280010594502" width="10" height="14.771998940549793" fill="#ef5350" opacity="0.9"/><rect x="1839" y="999.7137730285718" width="10" height="20.286226971428164" fill="#ef5350" opacity="0.9"/><rect x="1851" y="1004.1158414122261" width="10" height="15.884158587773868" fill="#26a69a" opacity="0.9"/><rect x="1863" y="1000.73331848232" width="10" height="19.266681517680013" fill="#ef5350" opacity="0.9"/><rect x="1875" y="999.0391628238208" width="10" height="20.96083717617921" fill="#ef5350" opacity="0.9"/><rect x="1887" y="993.4054835320387" width="10" height="26.594516467961284" fill="#ef5350" opacity="0.9"/><rect x="1899" y="1003.7043397116681" width="10" height="16.295660288331874" fill="#26a69a" opacity="0.9"/><rect x="1911" y="980.5392145684933" width="10" height="39.46078543150668" fill="#ef5350" opacity="0.9"/><rect x="1923" y="968.5490969239107" width="10" height="51.450903076089276" fill="#ef5350" opacity="0.9"/><rect x="1935" y="860.0" width="10" height="160.0" fill="#26a69a" opacity="0.9"/><rect x="1004" y="360.18415200000425" width="12" height="14.820843428567173" fill="#00ff00" opacity="0.60"/><polyline points="320,547.5603258476181,332,542.635710977772,344,538.1801070479144,356,535.1260448256653,368,536.8145275225418,380,543.7710825612028,392,552.2366606574126,404,553.0556041050008,416,548.5848278773119,428,540.9567788549923,440,531.8836585830858,452,523.6746450037442,464,517.4417958741287,476,508.7623784711468,488,500.9095722494099,500,495.10758359981213,512,490.40105335221335,524,485.1764234002985,536,480.3299419336067,548,477.4651165521781,560,476.93610615945414,572,477.217521028615,584,477.4721344816758,596,476.7253005582461,608,477.89541299488127,620,481.3427934171419,632,480.9873685202677,644,484.80260036188025,656,484.44340283081794,668,482.5983281666595,680,477.13961642289826,692,472.89567864112803,704,468.458748593678,716,463.68434010176185,728,454.8043778063532,740,446.6615485730862,752,442.768710260004,764,438.26941997674237,776,434.63294395175706,788,431.0170661876457,800,425.79116078202003,812,424.10313360550003,824,420.7300517110915,836,417.13532765696596,848,412.79718216583206,860,410.28370228609026,872,408.76964465339495,884,407.2912054619077,896,405.953570002943,908,402.2460433904208,920,400.7917226321557,932,400.3988183270459,944,401.45484237752623,956,404.0389567633481,968,408.7656722824769,980,413.9108452623726,992,411.0741470741232,1004,407.6389897745555,1016,411.6971122177996,1028,407.3340040610025,1040,399.3690585858011,1052,390.9683257136878,1064,386.9507235368734,1076,377.2354042340339,1088,373.65707849745115,1100,366.63018732082753,1112,358.1986916032032,1124,345.1413151511978,1136,336.8019817354382,1148,329.7997586041804,1160,324.5501899752136,1172,319.69200263064135,1184,313.6135468699,1196,315.00866964419663,1208,313.2307506304642,1220,314.9880629785912,1232,317.0666114296182,1244,319.32722454517454,1256,315.4116306973265,1268,311.64093748805374,1280,310.954655876945,1292,311.40865273220174,1304,309.3221267849133,1316,312.5374651319232,1328,313.70933909213693,1340,311.8380105799588,1352,305.9646660077176,1364,298.75057950357586,1376,292.00639370051897,1388,277.3268805045518,1400,266.9770115041241,1412,259.45866363298205,1424,251.2448399944593,1436,243.59613000859622,1448,238.30453275607272,1460,236.44849246637546,1472,241.5010294015441,1484,245.8009283156831,1496,249.31129149650326,1508,254.5503088505809,1520,257.0102424294289,1532,258.0415429871729,1544,262.55768545097453,1556,266.9694518978239,1568,271.12391650619304,1580,276.34851547837957,1592,281.83557691580586,1604,290.274544447636,1616,298.778421629504,1628,306.3638281137693,1640,316.1584102526051,1652,325.3459078339931,1664,337.62148831239233,1676,347.37074575203746,1688,354.88857121782917,1700,363.2104998365321,1712,372.9114159337379,1724,380.4940816271222,1736,386.05165741773817,1748,388.25692248000064,1760,400.8927676859847,1772,405.4305210764402,1784,410.5675947154201,1796,413.5324703207516,1808,417.5721969568648,1820,421.77007577729455,1832,427.63113109102574,1844,434.77980998031853,1856,440.1618861998811,1868,446.76862541894354,1880,454.8091258552241,1892,463.38679561050805,1904,471.03896691291345,1916,480.5682225266537,1928,498.6361816329658,1940,506.405751926416" fill="none" stroke="#0090ff" stroke-width="2"/><line x1="80" y1="50" x2="80" y2="900" stroke="#666666" stroke-width="0.5" stroke-dasharray="4,4" opacity="0.90"/><line x1="152" y1="50" x2="152" y2="900" stroke="#666666" stroke-width="0.5" stroke-dasharray="4,4" opacity="0.90"/><line x1="224" y1="50" x2="224" y2="900" stroke="#666666" stroke-width="0.5" stroke-dasharray="4,4" opacity="0.90"/><line x1="296" y1="50" x2="296" y2="900" stroke="#666666" stroke-width="0.5" stroke-dasharray="4,4" opacity="0.90"/><line x1="368" y1="50" x2="368" y2="900" stroke="#666666" stroke-width="0.5" stroke-dasharray="4,4" opacity="0.90"/><line x1="434" y1="30" x2="434" y2="950" stroke="black" stroke-width="0.7"/><line x1="440" y1="50" x2="440" y2="900" stroke="#666666" stroke-width="0.5" stroke-dasharray="4,4" opacity="0.90"/><line x1="512" y1="50" x2="512" y2="900" stroke="#666666" stroke-width="0.5" stroke-dasharray="4,4" opacity="0.90"/><line x1="584" y1="50" x2="584" y2="900" stroke="#666666" stroke-width="0.5" stroke-dasharray="4,4" opacity="0.90"/><line x1="656" y1="50" x2="656" y2="900" stroke="#666666" stroke-width="0.5" stroke-dasharray="4,4" opacity="0.90"/><line x1="728" y1="50" x2="728" y2="900" stroke="#666666" stroke-width="0.5" stroke-dasharray="4,4" opacity="0.90"/><line x1="800" y1="50" x2="800" y2="900" stroke="#666666" stroke-width="0.5" stroke-dasharray="4,4" opacity="0.90"/><line x1="872" y1="50" x2="872" y2="900" stroke="#666666" stroke-width="0.5" stroke-dasharray="4,4" opacity="0.90"/><line x1="944" y1="50" x2="944" y2="900" stroke="#666666" stroke-width="0.5" stroke-dasharray="4,4" opacity="0.90"/><line x1="1016" y1="50" x2="1016" y2="900" stroke="#666666" stroke-width="0.5" stroke-dasharray="4,4" opacity="0.90"/><line x1="1088" y1="50" x2="1088" y2="900" stroke="#666666" stroke-width="0.5" stroke-dasharray="4,4" opacity="0.90"/><line x1="1160" y1="50" x2="1160" y2="900" stroke="#666666" stroke-width="0.5" stroke-dasharray="4,4" opacity="0.90"/><line x1="1232" y1="50" x2="1232" y2="900" stroke="#666666" stroke-width="0.5" stroke-dasharray="4,4" opacity="0.90"/><line x1="1304" y1="50" x2="1304" y2="900" stroke="#666666" stroke-width="0.5" stroke-dasharray="4,4" opacity="0.90"/><line x1="1370" y1="30" x2="1370" y2="950" stroke="black" stroke-width="0.7"/><line x1="1376" y1="50" x2="1376" y2="900" stroke="#666666" stroke-width="0.5" stroke-dasharray="4,4" opacity="0.90"/><line x1="1448" y1="50" x2="1448" y2="900" stroke="#666666" stroke-width="0.5" stroke-dasharray="4,4" opacity="0.90"/><line x1="1520" y1="50" x2="1520" y2="900" stroke="#666666" stroke-width="0.5" stroke-dasharray="4,4" opacity="0.90"/><line x1="1592" y1="50" x2="1592" y2="900" stroke="#666666" stroke-width="0.5" stroke-dasharray="4,4" opacity="0.90"/><line x1="1664" y1="50" x2="1664" y2="900" stroke="#666666" stroke-width="0.5" stroke-dasharray="4,4" opacity="0.90"/><line x1="1736" y1="50" x2="1736" y2="900" stroke="#666666" stroke-width="0.5" stroke-dasharray="4,4" opacity="0.90"/><line x1="1808" y1="50" x2="1808" y2="900" stroke="#666666" stroke-width="0.5" stroke-dasharray="4,4" opacity="0.90"/><line x1="1880" y1="50" x2="1880" y2="900" stroke="#666666" stroke-width="0.5" stroke-dasharray="4,4" opacity="0.90"/><text x="80" y="1040" text-anchor="middle" font-size="20" fill="black">13:30</text><text x="152" y="1040" text-anchor="middle" font-size="20" fill="black">14:00</text><text x="224" y="1040" text-anchor="middle" font-size="20" fill="black">14:30</text><text x="296" y="1040" text-anchor="middle" font-size="20" fill="black">15:00</text><text x="368" y="1040" text-anchor="middle" font-size="20" fill="black">15:30</text><text x="440" y="1040" text-anchor="middle" font-size="20" fill="black">16:00</text><text x="512" y="1040" text-anchor="middle" font-size="20" fill="black">16:30</text><text x="584" y="1040" text-anchor="middle" font-size="20" fill="black">17:00</text><text x="656" y="1040" text-anchor="middle" font-size="20" fill="black">17:30</text><text x="728" y="1040" text-anchor="middle" font-size="20" fill="black">18:00</text><text x="800" y="1040" text-anchor="middle" font-size="20" fill="black">18:30</text><text x="872" y="1040" text-anchor="middle" font-size="20" fill="black">19:00</text><text x="944" y="1040" text-anchor="middle" font-size="20" fill="black">19:30</text><text x="1016" y="1040" text-anchor="middle" font-size="20" fill="black">13:30</text><text x="1088" y="1040" text-anchor="middle" font-size="20" fill="black">14:00</text><text x="1160" y="1040" text-anchor="middle" font-size="20" fill="black">14:30</text><text x="1232" y="1040" text-anchor="middle" font-size="20" fill="black">15:00</text><text x="1304" y="1040" text-anchor="middle" font-size="20" fill="black">15:30</text><text x="1376" y="1040" text-anchor="middle" font-size="20" fill="black">16:00</text><text x="1448" y="1040" text-anchor="middle" font-size="20" fill="black">16:30</text><text x="1520" y="1040" text-anchor="middle" font-size="20" fill="black">17:00</text><text x="1592" y="1040" text-anchor="middle" font-size="20" fill="black">17:30</text><text x="1664" y="1040" text-anchor="middle" font-size="20" fill="black">18:00</text><text x="1736" y="1040" text-anchor="middle" font-size="20" fill="black">18:30</text><text x="1808" y="1040" text-anchor="middle" font-size="20" fill="black">19:00</text><text x="1880" y="1040" text-anchor="middle" font-size="20" fill="black">19:30</text><text x="1942" y="50" text-anchor="end" font-size="40" fill="#ef5350" font-weight="bold"> -0.34% (Mon)</text></svg>