<svg xmlns="http://www.w3.org/2000/svg" width="1992" height="1050"><rect width="100%" height="100%" fill="white"/><text x="42" y="854.0" text-anchor="end" font-size="20" fill="black">508</text><text x="42" y="800.6666666666666" text-anchor="end" font-size="20" fill="black">509</text><text x="42" y="747.3333333333334" text-anchor="end" font-size="20" fill="black">510</text><text x="42" y="694.0" text-anchor="end" font-size="20" fill="black">511</text><text x="42" y="640.6666666666666" text-anchor="end" font-size="20" fill="black">512</text><text x="42" y="587.3333333333334" text-anchor="end" font-size="20" fill="black">513</text><text x="42" y="534.0" text-anchor="end" font-size="20" fill="black">514</text><text x="42" y="480.6666666666667" text-anchor="end" font-size="20" fill="black">515</text><text x="42" y="427.3333333333333" text-anchor="end" font-size="20" fill="black">516</text><text x="42" y="374.0" text-anchor="end" font-size="20" fill="black">517</text><text x="42" y="320.66666666666674" text-anchor="end" font-size="20" fill="black">518</text><text x="42" y="267.33333333333337" text-anchor="end" font-size="20" fill="black">519</text><text x="42" y="214.0" text-anchor="end" font-size="20" fill="black">520</text><text x="42" y="160.66666666666663" text-anchor="end" font-size="20" fill="black">521</text><text x="42" y="107.33333333333337" text-anchor="end" font-size="20" fill="black">522</text><text x="42" y="54.0" text-anchor="end" font-size="20" fill="black">523</text><line x1="80" y1="32.07867200000078" x2="80" y2="107.42987946666597" stroke="#ef5350" stroke-width="2"/><rect x="76" y="53.30436426666586" width="8" height="54.12551520000011" fill="#ef5350"/><line x1="92" y1="100.00088693333362" x2="92" y2="174.82145226666637" stroke="#ef5350" stroke-width="2"/><rect x="88" y="103.18474080000067" width="8" height="64.7383615999994" fill="#ef5350"/><line x1="104" y1="81.95904853333559" x2="104" y2="172.69888319999757" stroke="#26a69a" stroke-width="2"/><rect x="100" y="85.14290240000264" width="8" height="82.24955733333138" fill="#26a69a"/><line x1="116" y1="58.0801450666695" x2="116" y2="97.87831786666482" stroke="#ef5350" stroke-width="2"/><rect x="112" y="84.6122602666643" width="8" height="11.674130666669953" fill="#ef5350"/><line x1="128" y1="48.52858346666835" x2="128" y2="106.89923679999993" stroke="#ef5350" stroke-width="2"/><rect x="124" y="96.28639093333425" width="8" height="2" fill="#ef5350"/><line x1="140" y1="81.42840639999736" x2="140" y2="165.26989066666533" stroke="#ef5350" stroke-width="2"/><rect x="136" y="98.40895999999702" width="8" height="60.493222933334096" fill="#ef5350"/><line x1="152" y1="158.3715407999989" x2="152" y2="300.5836789333322" stroke="#ef5350" stroke-width="2"/><rect x="148" y="158.3715407999989" width="8" height="136.90571466666972" fill="#ef5350"/><line x1="164" y1="263.9693594666642" x2="164" y2="357.3624053333333" stroke="#ef5350" stroke-width="2"/><rect x="160" y="294.7466133333304" width="8" height="44.04331146666658" fill="#ef5350"/><line x1="176" y1="285.7256944000013" x2="176" y2="360.5462592000004" stroke="#26a69a" stroke-width="2"/><rect x="172" y="321.80937119999726" width="8" height="19.63376533333451" fill="#26a69a"/><line x1="188" y1="323.40129813333385" x2="188" y2="392.38479786666477" stroke="#ef5350" stroke-width="2"/><rect x="184" y="324.9932250666643" width="8" height="18.307159466670157" fill="#ef5350"/><line x1="200" y1="283.6031247999987" x2="200" y2="349.9334133333347" stroke="#26a69a" stroke-width="2"/><rect x="196" y="294.2159711999981" width="8" height="50.941661333333" fill="#26a69a"/><line x1="212" y1="252.29522880000025" x2="212" y2="328.7077210666697" stroke="#ef5350" stroke-width="2"/><rect x="208" y="292.6240442666676" width="8" height="35.553034666663734" fill="#ef5350"/><line x1="224" y1="320.2174442666668" x2="224" y2="442.2651743999995" stroke="#ef5350" stroke-width="2"/><rect x="220" y="330.29964800000016" width="8" height="88.08662293333333" fill="#ef5350"/><line x1="236" y1="402.99764373333045" x2="236" y2="526.6373013333334" stroke="#ef5350" stroke-width="2"/><rect x="232" y="416.7943440000029" width="8" height="98.69946879999901" fill="#ef5350"/><line x1="248" y1="478.8794938666676" x2="248" y2="523.9840895999987" stroke="#26a69a" stroke-width="2"/><rect x="244" y="484.71655893333565" width="8" height="26.53211519999485" fill="#26a69a"/><line x1="260" y1="487.9004128000027" x2="260" y2="554.7613434666649" stroke="#ef5350" stroke-width="2"/><rect x="256" y="488.96169760000095" width="8" height="4.7757807999975626" fill="#ef5350"/><line x1="272" y1="420.50884000000224" x2="272" y2="509.6567472" stroke="#26a69a" stroke-width="2"/><rect x="268" y="439.08132053333253" width="8" height="55.71744213333653" fill="#26a69a"/><line x1="284" y1="359.4849749333359" x2="284" y2="440.1426053333307" stroke="#26a69a" stroke-width="2"/><rect x="280" y="362.66882880000287" width="8" height="76.41249173332966" fill="#26a69a"/><line x1="296" y1="352.05598239999745" x2="296" y2="398.7525055999989" stroke="#ef5350" stroke-width="2"/><rect x="292" y="362.66882880000287" width="8" height="8.490276799996934" fill="#ef5350"/><line x1="308" y1="358.9543322666638" x2="308" y2="416.26370133333086" stroke="#ef5350" stroke-width="2"/><rect x="304" y="366.3833248000022" width="8" height="9.020918933329085" fill="#ef5350"/><line x1="320" y1="365.85268266666395" x2="320" y2="434.3055397333349" stroke="#ef5350" stroke-width="2"/><rect x="316" y="373.81231680000076" width="8" height="31.838538666664476" fill="#ef5350"/><line x1="332" y1="389.731586133336" x2="332" y2="425.81526293333206" stroke="#26a69a" stroke-width="2"/><rect x="328" y="399.28314773333113" width="8" height="6.3677077333341" fill="#26a69a"/><line x1="344" y1="365.85268266666395" x2="344" y2="424.75397866666754" stroke="#26a69a" stroke-width="2"/><rect x="340" y="371.1591055999998" width="8" height="25.47083040000257" fill="#26a69a"/><line x1="356" y1="332.9528592000013" x2="356" y2="381.24130933333316" stroke="#26a69a" stroke-width="2"/><rect x="352" y="350.46405546666693" width="8" height="21.225692266665078" fill="#26a69a"/><line x1="368" y1="348.34148639999813" x2="368" y2="423.69269386666934" stroke="#ef5350" stroke-width="2"/><rect x="364" y="357.89304799999934" width="8" height="50.941661333332945" fill="#ef5350"/><line x1="380" y1="368.5058938666649" x2="380" y2="455.0005898666677" stroke="#26a69a" stroke-width="2"/><rect x="376" y="372.75103253333634" width="8" height="35.55303413332996" fill="#26a69a"/><line x1="392" y1="354.70919413333223" x2="392" y2="424.22333600000155" stroke="#ef5350" stroke-width="2"/><rect x="388" y="375.40424373333127" width="8" height="43.51266933333443" fill="#ef5350"/><line x1="404" y1="389.731586133336" x2="404" y2="426.3459050666643" stroke="#ef5350" stroke-width="2"/><rect x="400" y="415.7330591999986" width="8" height="5.837065600001893" fill="#ef5350"/><line x1="416" y1="423.69269386666934" x2="416" y2="500.6358282666648" stroke="#ef5350" stroke-width="2"/><rect x="412" y="423.69269386666934" width="8" height="68.45285759999871" fill="#ef5350"/><line x1="428" y1="479.4101359999998" x2="428" y2="518.677666666669" stroke="#ef5350" stroke-width="2"/><rect x="424" y="490.55362453333146" width="8" height="16.449911466667515" fill="#ef5350"/><line x1="440" y1="472.5117861333335" x2="440" y2="507.53417813333124" stroke="#26a69a" stroke-width="2"/><rect x="436" y="498.5132592000021" width="8" height="6.367707200000382" fill="#26a69a"/><line x1="452" y1="486.30848586666616" x2="452" y2="513.3712437333331" stroke="#26a69a" stroke-width="2"/><rect x="448" y="492.14555146666805" width="8" height="2.12256906666272" fill="#26a69a"/><line x1="464" y1="463.49086666666454" x2="464" y2="519.7389514666672" stroke="#26a69a" stroke-width="2"/><rect x="460" y="466.6747205333316" width="8" height="27.062757866666914" fill="#26a69a"/><line x1="476" y1="457.12315893333044" x2="476" y2="494.79876266666906" stroke="#26a69a" stroke-width="2"/><rect x="472" y="473.0424282666657" width="8" height="2" fill="#26a69a"/><line x1="488" y1="468.7972896000004" x2="488" y2="514.4325279999975" stroke="#ef5350" stroke-width="2"/><rect x="484" y="473.57307039999796" width="8" height="36.083676800002024" fill="#ef5350"/><line x1="500" y1="503.8196821333319" x2="500" y2="538.8420741333357" stroke="#ef5350" stroke-width="2"/><rect x="496" y="509.6567472" width="8" height="8.490277333330653" fill="#ef5350"/><line x1="512" y1="470.3892165333309" x2="512" y2="520.2695935999993" stroke="#26a69a" stroke-width="2"/><rect x="508" y="482.59398986666685" width="8" height="34.49174986666543" fill="#26a69a"/><line x1="524" y1="483.1246319999991" x2="524" y2="527.6985855999981" stroke="#ef5350" stroke-width="2"/><rect x="520" y="486.30848586666616" width="8" height="26.53211520000093" fill="#ef5350"/><line x1="536" y1="506.47289333333293" x2="536" y2="538.3114319999975" stroke="#ef5350" stroke-width="2"/><rect x="532" y="513.9018858666652" width="8" height="15.388626666669325" fill="#ef5350"/><line x1="548" y1="526.6373013333334" x2="548" y2="559.5371242666686" stroke="#ef5350" stroke-width="2"/><rect x="544" y="526.6373013333334" width="8" height="17.5111957333321" fill="#ef5350"/><line x1="560" y1="532.4743664000016" x2="560" y2="569.0886858666696" stroke="#26a69a" stroke-width="2"/><rect x="556" y="534.5969359999981" width="8" height="5.837065066668174" fill="#26a69a"/><line x1="572" y1="491.0842666666637" x2="572" y2="536.7195050666669" stroke="#26a69a" stroke-width="2"/><rect x="568" y="494.2681205333308" width="8" height="38.73688853333675" fill="#26a69a"/><line x1="584" y1="470.3892165333309" x2="584" y2="500.6358282666648" stroke="#26a69a" stroke-width="2"/><rect x="580" y="478.8794938666676" width="8" height="15.919268800001475" fill="#26a69a"/><line x1="596" y1="442.2651743999995" x2="596" y2="480.47142079999804" stroke="#26a69a" stroke-width="2"/><rect x="592" y="448.63288213333357" width="8" height="28.124042133331443" fill="#26a69a"/><line x1="608" y1="434.3055397333349" x2="608" y2="456.061874666666" stroke="#26a69a" stroke-width="2"/><rect x="604" y="436.95875146666367" width="8" height="10.082203733333358" fill="#26a69a"/><line x1="620" y1="422.63140906666496" x2="620" y2="452.34737813333294" stroke="#26a69a" stroke-width="2"/><rect x="616" y="430.06040159999736" width="8" height="3.1838538666669933" fill="#26a69a"/><line x1="632" y1="412.0185631999993" x2="632" y2="435.3668245333332" stroke="#26a69a" stroke-width="2"/><rect x="628" y="422.10076693333275" width="8" height="8.490276800002846" fill="#26a69a"/><line x1="644" y1="401.4057167999999" x2="644" y2="426.3459050666643" stroke="#26a69a" stroke-width="2"/><rect x="640" y="413.6104901333359" width="8" height="7.959634666664613" fill="#26a69a"/><line x1="656" y1="414.67177440000034" x2="656" y2="446.5103130666648" stroke="#ef5350" stroke-width="2"/><rect x="652" y="414.67177440000034" width="8" height="31.307895999998436" fill="#ef5350"/><line x1="668" y1="437.48939360000196" x2="668" y2="478.8794938666676" stroke="#ef5350" stroke-width="2"/><rect x="664" y="441.7345322666673" width="8" height="27.593399999999065" fill="#ef5350"/><line x1="680" y1="465.08279360000114" x2="680" y2="504.8809664000025" stroke="#ef5350" stroke-width="2"/><rect x="676" y="465.08279360000114" width="8" height="28.124042133331386" fill="#ef5350"/><line x1="692" y1="484.71655893333565" x2="692" y2="503.8196821333319" stroke="#ef5350" stroke-width="2"/><rect x="688" y="491.614908800002" width="8" height="9.020919466662804" fill="#ef5350"/><line x1="704" y1="486.30848586666616" x2="704" y2="508.0648202666695" stroke="#26a69a" stroke-width="2"/><rect x="700" y="497.9826165333361" width="8" height="2.1225695999964955" fill="#26a69a"/><line x1="716" y1="496.3906895999996" x2="716" y2="515.4938128000019" stroke="#ef5350" stroke-width="2"/><rect x="712" y="497.9826165333361" width="8" height="3.183853866660968" fill="#ef5350"/><line x1="728" y1="474.10371306666394" x2="728" y2="505.94225120000067" stroke="#26a69a" stroke-width="2"/><rect x="724" y="493.7374783999985" width="8" height="10.082203733333415" fill="#26a69a"/><line x1="740" y1="467.7360053333359" x2="740" y2="500.6358282666648" stroke="#26a69a" stroke-width="2"/><rect x="736" y="470.919859200003" width="8" height="22.817619199995534" fill="#26a69a"/><line x1="752" y1="456.061874666666" x2="752" y2="475.69564000000054" stroke="#ef5350" stroke-width="2"/><rect x="748" y="473.0424282666657" width="8" height="2.1225690666688024" fill="#ef5350"/><line x1="764" y1="475.1649973333345" x2="764" y2="494.79876266666906" stroke="#ef5350" stroke-width="2"/><rect x="760" y="475.1649973333345" width="8" height="14.327342399998713" fill="#ef5350"/><line x1="776" y1="483.6552741333314" x2="776" y2="510.71803199999823" stroke="#ef5350" stroke-width="2"/><rect x="772" y="489.4923397333332" width="8" height="3.18385386666705" fill="#ef5350"/><line x1="788" y1="473.57307039999796" x2="788" y2="492.14555146666805" stroke="#26a69a" stroke-width="2"/><rect x="784" y="478.8794938666676" width="8" height="11.14348799999783" fill="#26a69a"/><line x1="800" y1="475.69564000000054" x2="800" y2="507.003535999999" stroke="#ef5350" stroke-width="2"/><rect x="796" y="480.47142079999804" width="8" height="18.041838400004053" fill="#ef5350"/><line x1="812" y1="494.79876266666906" x2="812" y2="529.8211552000005" stroke="#ef5350" stroke-width="2"/><rect x="808" y="499.5745434666666" width="8" height="26.001473066668552" fill="#ef5350"/><line x1="824" y1="499.5745434666666" x2="824" y2="546.8017088000004" stroke="#26a69a" stroke-width="2"/><rect x="820" y="503.8196821333319" width="8" height="23.878903466666145" fill="#26a69a"/><line x1="836" y1="493.2068357333325" x2="836" y2="539.903358933334" stroke="#ef5350" stroke-width="2"/><rect x="832" y="504.8809664000025" width="8" height="31.83853866666442" fill="#ef5350"/><line x1="848" y1="510.71803199999823" x2="848" y2="536.7195050666669" stroke="#26a69a" stroke-width="2"/><rect x="844" y="526.1066586666675" width="8" height="10.082204266667077" fill="#26a69a"/><line x1="860" y1="519.7389514666672" x2="860" y2="535.6582202666686" stroke="#ef5350" stroke-width="2"/><rect x="856" y="523.9840895999987" width="8" height="6.898349866666422" fill="#ef5350"/><line x1="872" y1="523.9840895999987" x2="872" y2="562.1903354666695" stroke="#ef5350" stroke-width="2"/><rect x="868" y="529.8211552000005" width="8" height="13.266057600000522" fill="#ef5350"/><line x1="884" y1="529.8211552000005" x2="884" y2="578.1096047999988" stroke="#ef5350" stroke-width="2"/><rect x="880" y="542.556570133335" width="8" height="29.185326933329748" fill="#ef5350"/><line x1="896" y1="574.3951087999994" x2="896" y2="605.7030047999979" stroke="#ef5350" stroke-width="2"/><rect x="892" y="574.3951087999994" width="8" height="20.695050133332757" fill="#ef5350"/><line x1="908" y1="580.7628165333335" x2="908" y2="605.1723626666657" stroke="#ef5350" stroke-width="2"/><rect x="904" y="593.4982320000017" width="8" height="9.020918933329085" fill="#ef5350"/><line x1="920" y1="600.9272240000003" x2="920" y2="644.4398933333347" stroke="#ef5350" stroke-width="2"/><rect x="916" y="603.0497930666692" width="8" height="34.49174986666537" fill="#ef5350"/><line x1="932" y1="613.6626394666686" x2="932" y2="648.1543893333339" stroke="#ef5350" stroke-width="2"/><rect x="928" y="637.5415429333345" width="8" height="7.428992533332462" fill="#ef5350"/><line x1="944" y1="628.5206239999994" x2="944" y2="679.4622853333325" stroke="#ef5350" stroke-width="2"/><rect x="940" y="645.5011775999992" width="8" height="32.89982293333503" fill="#ef5350"/><line x1="956" y1="648.1543893333339" x2="956" y2="706.5250431999993" stroke="#26a69a" stroke-width="2"/><rect x="952" y="648.6850314666663" width="8" height="29.18532693333259" fill="#26a69a"/><line x1="968" y1="607.2949317333345" x2="968" y2="655.5833813333326" stroke="#ef5350" stroke-width="2"/><rect x="964" y="649.2156741333323" width="8" height="6.367707200000268" fill="#ef5350"/><line x1="980" y1="615.254566399999" x2="980" y2="666.7268698666672" stroke="#26a69a" stroke-width="2"/><rect x="976" y="624.2754853333342" width="8" height="28.654684800000382" fill="#26a69a"/><line x1="992" y1="599.8659392000021" x2="992" y2="644.970535466667" stroke="#26a69a" stroke-width="2"/><rect x="988" y="608.3562165333327" width="8" height="19.63376533333451" fill="#26a69a"/><line x1="1004" y1="588.7224511999982" x2="1004" y2="618.4384202666661" stroke="#ef5350" stroke-width="2"/><rect x="1000" y="609.4175007999971" width="8" height="2" fill="#ef5350"/><line x1="1016" y1="584.4773125333328" x2="1016" y2="658.2365930666674" stroke="#26a69a" stroke-width="2"/><rect x="1012" y="590.845020266667" width="8" height="20.164407466666717" fill="#26a69a"/><line x1="1028" y1="573.8644666666671" x2="1028" y2="684.7687082666653" stroke="#ef5350" stroke-width="2"/><rect x="1024" y="587.1305242666676" width="8" height="93.39304586666606" fill="#ef5350"/><line x1="1040" y1="607.2949317333345" x2="1040" y2="693.2589850666682" stroke="#26a69a" stroke-width="2"/><rect x="1036" y="611.0094277333337" width="8" height="69.51414239999997" fill="#26a69a"/><line x1="1052" y1="589.2530933333303" x2="1052" y2="675.7477893333331" stroke="#26a69a" stroke-width="2"/><rect x="1048" y="594.5595162666663" width="8" height="16.980554133333385" fill="#26a69a"/><line x1="1064" y1="575.987035733336" x2="1064" y2="698.5654085333348" stroke="#ef5350" stroke-width="2"/><rect x="1060" y="597.7433701333333" width="8" height="59.96258079999882" fill="#ef5350"/><line x1="1076" y1="612.6013546666642" x2="1076" y2="670.4413664000003" stroke="#26a69a" stroke-width="2"/><rect x="1072" y="625.8674122666647" width="8" height="33.43046560000096" fill="#26a69a"/><line x1="1088" y1="546.8017088000004" x2="1088" y2="641.7866816" stroke="#26a69a" stroke-width="2"/><rect x="1084" y="569.6193280000018" width="8" height="61.55450773333246" fill="#26a69a"/><line x1="1100" y1="564.312905066666" x2="1100" y2="622.6835583999977" stroke="#ef5350" stroke-width="2"/><rect x="1096" y="564.312905066666" width="8" height="50.94166133333306" fill="#ef5350"/><line x1="1112" y1="595.6208010666644" x2="1112" y2="759.5892736000011" stroke="#ef5350" stroke-width="2"/><rect x="1108" y="613.1319973333362" width="8" height="144.86534933333132" fill="#ef5350"/><line x1="1124" y1="683.7074240000007" x2="1124" y2="769.1408351999993" stroke="#26a69a" stroke-width="2"/><rect x="1120" y="695.3815546666677" width="8" height="56.77872639999805" fill="#26a69a"/><line x1="1136" y1="661.9510890666667" x2="1136" y2="759.0586314666658" stroke="#26a69a" stroke-width="2"/><rect x="1132" y="672.5639354666661" width="8" height="22.817619200001673" fill="#26a69a"/><line x1="1148" y1="649.2156741333323" x2="1148" y2="713.4233930666657" stroke="#ef5350" stroke-width="2"/><rect x="1144" y="667.2575125333333" width="8" height="29.18532639999887" fill="#ef5350"/><line x1="1160" y1="672.5639354666661" x2="1160" y2="710.2395391999987" stroke="#26a69a" stroke-width="2"/><rect x="1156" y="673.0945776000013" width="8" height="23.08294026666465" fill="#26a69a"/><line x1="1172" y1="594.0288741333339" x2="1172" y2="676.8090736000007" stroke="#26a69a" stroke-width="2"/><rect x="1168" y="649.2156741333323" width="8" height="27.593399466668416" fill="#26a69a"/><line x1="1184" y1="640.7253967999986" x2="1184" y2="682.1154970666672" stroke="#ef5350" stroke-width="2"/><rect x="1180" y="647.0931045333327" width="8" height="25.470830933333332" fill="#ef5350"/><line x1="1196" y1="655.5833813333326" x2="1196" y2="695.9121968" stroke="#26a69a" stroke-width="2"/><rect x="1192" y="663.5430160000002" width="8" height="4.775780800000689" fill="#26a69a"/><line x1="1208" y1="601.4578661333326" x2="1208" y2="659.8285200000009" stroke="#26a69a" stroke-width="2"/><rect x="1204" y="620.5609893333349" width="8" height="37.67560373333254" fill="#26a69a"/><line x1="1220" y1="602.5191509333308" x2="1220" y2="632.2351199999987" stroke="#26a69a" stroke-width="2"/><rect x="1216" y="607.2949317333345" width="8" height="9.020919466662804" fill="#26a69a"/><line x1="1232" y1="601.4578661333326" x2="1232" y2="659.2978778666657" stroke="#ef5350" stroke-width="2"/><rect x="1228" y="609.9481434666692" width="8" height="49.349734399996464" fill="#ef5350"/><line x1="1244" y1="640.1947546666663" x2="1244" y2="699.6266927999993" stroke="#ef5350" stroke-width="2"/><rect x="1240" y="659.2978778666657" width="8" height="2.1225690666688024" fill="#ef5350"/><line x1="1256" y1="620.5609893333349" x2="1256" y2="655.5833813333326" stroke="#26a69a" stroke-width="2"/><rect x="1252" y="635.9496159999981" width="8" height="19.63376533333451" fill="#26a69a"/><line x1="1268" y1="630.6431930666682" x2="1268" y2="659.8285200000009" stroke="#26a69a" stroke-width="2"/><rect x="1264" y="634.3576896000013" width="8" height="2" fill="#26a69a"/><line x1="1280" y1="591.3756623999992" x2="1280" y2="633.8270469333353" stroke="#26a69a" stroke-width="2"/><rect x="1276" y="602.5191509333308" width="8" height="31.30789600000446" fill="#26a69a"/><line x1="1292" y1="598.8046549333314" x2="1292" y2="641.2560394666676" stroke="#ef5350" stroke-width="2"/><rect x="1288" y="598.8046549333314" width="8" height="37.67560373333265" fill="#ef5350"/><line x1="1304" y1="592.4369471999973" x2="1304" y2="637.5415429333345" stroke="#26a69a" stroke-width="2"/><rect x="1300" y="604.6417199999996" width="8" height="31.307895999998436" fill="#26a69a"/><line x1="1316" y1="550.5162047999995" x2="1316" y2="606.2336469333361" stroke="#26a69a" stroke-width="2"/><rect x="1312" y="566.4354741333348" width="8" height="37.67560373333254" fill="#26a69a"/><line x1="1328" y1="530.3517973333328" x2="1328" y2="583.9466704000006" stroke="#26a69a" stroke-width="2"/><rect x="1324" y="542.556570133335" width="8" height="23.878903999999807" fill="#26a69a"/><line x1="1340" y1="536.1888629333346" x2="1340" y2="563.2516202666677" stroke="#ef5350" stroke-width="2"/><rect x="1336" y="540.9646431999984" width="8" height="16.9805541333335" fill="#ef5350"/><line x1="1352" y1="561.6596933333312" x2="1352" y2="583.4160277333347" stroke="#ef5350" stroke-width="2"/><rect x="1348" y="562.7209781333356" width="8" height="11.143488533331492" fill="#ef5350"/><line x1="1364" y1="565.3741893333306" x2="1364" y2="592.9675893333358" stroke="#26a69a" stroke-width="2"/><rect x="1360" y="570.6806128000002" width="8" height="6.898349866666308" fill="#26a69a"/><line x1="1376" y1="573.3338240000012" x2="1376" y2="625.3367701333324" stroke="#ef5350" stroke-width="2"/><rect x="1372" y="577.0483205333342" width="8" height="48.288449599998216" fill="#ef5350"/><line x1="1388" y1="620.0303472000026" x2="1388" y2="668.3187968000009" stroke="#ef5350" stroke-width="2"/><rect x="1384" y="622.6835583999977" width="8" height="25.470830933336288" fill="#ef5350"/><line x1="1400" y1="643.9092506666657" x2="1400" y2="702.279904533334" stroke="#ef5350" stroke-width="2"/><rect x="1396" y="649.2156741333323" width="8" height="42.98202666666839" fill="#ef5350"/><line x1="1412" y1="677.3397162666666" x2="1412" y2="716.0766042666668" stroke="#ef5350" stroke-width="2"/><rect x="1408" y="689.0138469333336" width="8" height="12.47009439999897" fill="#ef5350"/><line x1="1424" y1="690.0751317333319" x2="1424" y2="761.1812005333346" stroke="#ef5350" stroke-width="2"/><rect x="1420" y="700.1573354666652" width="8" height="50.41101866666702" fill="#ef5350"/><line x1="1436" y1="739.9555082666666" x2="1436" y2="836.0017658666675" stroke="#ef5350" stroke-width="2"/><rect x="1432" y="747.9151429333342" width="8" height="72.6979957333333" fill="#ef5350"/><line x1="1448" y1="785.0601045333345" x2="1448" y2="850.3291077333324" stroke="#26a69a" stroke-width="2"/><rect x="1444" y="795.1423082666679" width="8" height="23.878903466666088" fill="#26a69a"/><line x1="1460" y1="769.1408351999993" x2="1460" y2="807.8777231999993" stroke="#ef5350" stroke-width="2"/><rect x="1456" y="793.5503813333344" width="8" height="9.551561599998081" fill="#ef5350"/><line x1="1472" y1="747.3845007999989" x2="1472" y2="806.8164389333348" stroke="#26a69a" stroke-width="2"/><rect x="1468" y="751.0989968000013" width="8" height="52.53358826666647" fill="#26a69a"/><line x1="1484" y1="739.9555082666666" x2="1484" y2="778.1617541333344" stroke="#ef5350" stroke-width="2"/><rect x="1480" y="750.5683541333323" width="8" height="20.695050133335826" fill="#ef5350"/><line x1="1496" y1="725.0975237333327" x2="1496" y2="771.2634042666681" stroke="#26a69a" stroke-width="2"/><rect x="1492" y="738.6289023999992" width="8" height="32.63450186666887" fill="#26a69a"/><line x1="1508" y1="700.6879776000005" x2="1508" y2="750.5683541333323" stroke="#26a69a" stroke-width="2"/><rect x="1504" y="721.3830277333333" width="8" height="15.653947733332416" fill="#26a69a"/><line x1="1520" y1="615.7852085333312" x2="1520" y2="725.0975237333327" stroke="#26a69a" stroke-width="2"/><rect x="1516" y="656.1140239999986" width="8" height="65.26900373333467" fill="#26a69a"/><line x1="1532" y1="636.2149375999979" x2="1532" y2="675.7477893333331" stroke="#ef5350" stroke-width="2"/><rect x="1528" y="653.4608122666668" width="8" height="5.837065599998823" fill="#ef5350"/><line x1="1544" y1="624.2754853333342" x2="1544" y2="664.0736586666662" stroke="#26a69a" stroke-width="2"/><rect x="1540" y="635.4189738666657" width="8" height="18.041838400001097" fill="#26a69a"/><line x1="1556" y1="603.5804357333352" x2="1556" y2="633.296404799997" stroke="#26a69a" stroke-width="2"/><rect x="1552" y="610.4787856000015" width="8" height="22.817619199995534" fill="#26a69a"/><line x1="1568" y1="598.8046549333314" x2="1568" y2="633.8270469333353" stroke="#26a69a" stroke-width="2"/><rect x="1564" y="599.3352970666638" width="8" height="12.7354154666682" fill="#26a69a"/><line x1="1580" y1="547.3323509333325" x2="1580" y2="601.4578661333326" stroke="#26a69a" stroke-width="2"/><rect x="1576" y="573.3338240000012" width="8" height="26.001473066662584" fill="#26a69a"/><line x1="1592" y1="573.3338240000012" x2="1592" y2="608.8868586666649" stroke="#ef5350" stroke-width="2"/><rect x="1588" y="573.8644666666671" width="8" height="29.185326400002054" fill="#ef5350"/><line x1="1604" y1="569.0886858666696" x2="1604" y2="602.5191509333308" stroke="#26a69a" stroke-width="2"/><rect x="1600" y="577.0483205333342" width="8" height="24.94018826666445" fill="#26a69a"/><line x1="1616" y1="577.5789626666665" x2="1616" y2="607.8255738666667" stroke="#ef5350" stroke-width="2"/><rect x="1612" y="580.2321738666676" width="8" height="2.6532117333347287" fill="#ef5350"/><line x1="1628" y1="585.5385973333312" x2="1628" y2="629.0512661333318" stroke="#ef5350" stroke-width="2"/><rect x="1624" y="585.5385973333312" width="8" height="41.39009973333782" fill="#ef5350"/><line x1="1640" y1="616.8464933333355" x2="1640" y2="703.3411893333323" stroke="#ef5350" stroke-width="2"/><rect x="1636" y="625.8674122666647" width="8" height="62.08514986666762" fill="#ef5350"/><line x1="1652" y1="643.9092506666657" x2="1652" y2="698.5654085333348" stroke="#26a69a" stroke-width="2"/><rect x="1648" y="649.2156741333323" width="8" height="39.26753066666902" fill="#26a69a"/><line x1="1664" y1="643.9092506666657" x2="1664" y2="696.9734816000013" stroke="#ef5350" stroke-width="2"/><rect x="1660" y="646.0318202666651" width="8" height="16.98055360000285" fill="#ef5350"/><line x1="1676" y1="559.5371242666686" x2="1676" y2="662.4817317333327" stroke="#26a69a" stroke-width="2"/><rect x="1672" y="563.7822624" width="8" height="98.16882666666663" fill="#26a69a"/><line x1="1688" y1="564.312905066666" x2="1688" y2="648.1543893333339" stroke="#ef5350" stroke-width="2"/><rect x="1684" y="567.496758933333" width="8" height="77.47377653333399" fill="#ef5350"/><line x1="1700" y1="582.3547434666641" x2="1700" y2="642.8479664000013" stroke="#26a69a" stroke-width="2"/><rect x="1696" y="582.3547434666641" width="8" height="59.962580266668056" fill="#26a69a"/><line x1="1712" y1="552.1081317333362" x2="1712" y2="598.2740122666655" stroke="#26a69a" stroke-width="2"/><rect x="1708" y="569.0886858666696" width="8" height="16.449911466661547" fill="#26a69a"/><line x1="1724" y1="513.9018858666652" x2="1724" y2="582.8853856000023" stroke="#26a69a" stroke-width="2"/><rect x="1720" y="529.8211552000005" width="8" height="40.32881493333366" fill="#26a69a"/><line x1="1736" y1="535.6582202666686" x2="1736" y2="611.5400703999996" stroke="#ef5350" stroke-width="2"/><rect x="1732" y="535.6582202666686" width="8" height="73.22863839999627" fill="#ef5350"/><line x1="1748" y1="585.5385973333312" x2="1748" y2="626.3980549333306" stroke="#ef5350" stroke-width="2"/><rect x="1744" y="604.6417199999996" width="8" height="19.633765333334622" fill="#ef5350"/><line x1="1760" y1="615.7852085333312" x2="1760" y2="656.1140239999986" stroke="#ef5350" stroke-width="2"/><rect x="1756" y="623.7448432000019" width="8" height="9.020919466662917" fill="#ef5350"/><line x1="1772" y1="609.9481434666692" x2="1772" y2="646.5624624000005" stroke="#26a69a" stroke-width="2"/><rect x="1768" y="626.3980549333306" width="8" height="15.388626666669325" fill="#26a69a"/><line x1="1784" y1="611.0094277333337" x2="1784" y2="651.3382432000011" stroke="#ef5350" stroke-width="2"/><rect x="1780" y="620.0303472000026" width="8" height="26.001473066662584" fill="#ef5350"/><line x1="1796" y1="619.4997045333305" x2="1796" y2="652.3995279999993" stroke="#26a69a" stroke-width="2"/><rect x="1792" y="629.5819087999978" width="8" height="16.449911466667345" fill="#26a69a"/><line x1="1808" y1="612.070712533332" x2="1808" y2="635.9496159999981" stroke="#26a69a" stroke-width="2"/><rect x="1804" y="613.1319973333362" width="8" height="14.857984533330978" fill="#26a69a"/><line x1="1820" y1="608.8868586666649" x2="1820" y2="647.0931045333327" stroke="#ef5350" stroke-width="2"/><rect x="1816" y="612.6013546666642" width="8" height="23.34826133333388" fill="#ef5350"/><line x1="1832" y1="622.6835583999977" x2="1832" y2="676.2784314666654" stroke="#ef5350" stroke-width="2"/><rect x="1828" y="635.9496159999981" width="8" height="35.55303466666976" fill="#ef5350"/><line x1="1844" y1="617.3771354666678" x2="1844" y2="671.5026506666678" stroke="#26a69a" stroke-width="2"/><rect x="1840" y="626.928697066669" width="8" height="44.573953599998845" fill="#26a69a"/><line x1="1856" y1="605.7030047999979" x2="1856" y2="632.2351199999987" stroke="#26a69a" stroke-width="2"/><rect x="1852" y="613.1319973333362" width="8" height="11.143487999998001" fill="#26a69a"/><line x1="1868" y1="603.5804357333352" x2="1868" y2="629.0512661333318" stroke="#ef5350" stroke-width="2"/><rect x="1864" y="611.5400703999996" width="8" height="3.18385386666705" fill="#ef5350"/><line x1="1880" y1="606.2336469333361" x2="1880" y2="641.7866816" stroke="#ef5350" stroke-width="2"/><rect x="1876" y="615.7852085333312" width="8" height="23.878904000002876" fill="#ef5350"/><line x1="1892" y1="627.9899818666672" x2="1892" y2="662.4817317333327" stroke="#ef5350" stroke-width="2"/><rect x="1888" y="640.1947546666663" width="8" height="20.164407466666944" fill="#ef5350"/><line x1="1904" y1="615.7852085333312" x2="1904" y2="664.6043008000015" stroke="#26a69a" stroke-width="2"/><rect x="1900" y="621.0916314666671" width="8" height="38.736888533333854" fill="#26a69a"/><line x1="1916" y1="615.254566399999" x2="1916" y2="635.9496159999981" stroke="#ef5350" stroke-width="2"/><rect x="1912" y="622.6835583999977" width="8" height="6.89835040000014" fill="#ef5350"/><line x1="1928" y1="598.2740122666655" x2="1928" y2="633.296404799997" stroke="#26a69a" stroke-width="2"/><rect x="1924" y="606.2336469333361" width="8" height="22.817619199995647" fill="#26a69a"/><line x1="1940" y1="579.1708895999969" x2="1940" y2="620.5609893333349" stroke="#26a69a" stroke-width="2"/><rect x="1936" y="598.8046549333314" width="8" height="9.551561600001264" fill="#26a69a"/><rect x="75" y="953.5467840408917" width="10" height="66.45321595910832" fill="#ef5350" opacity="0.9"/><rect x="87" y="974.4003798097401" width="10" height="45.599620190259884" fill="#ef5350" opacity="0.9"/><rect x="99" y="978.0933196081215" width="10" height="41.90668039187847" fill="#26a69a" opacity="0.9"/><rect x="111" y="977.1673115149794" width="10" height="42.83268848502064" fill="#ef5350" opacity="0.9"/><rect x="123" y="991.6528822944767" width="10" height="28.34711770552326" fill="#ef5350" opacity="0.9"/><rect x="135" y="984.3708291921056" width="10" height="35.62917080789441" fill="#ef5350" opacity="0.9"/><rect x="147" y="937.6307148942212" width="10" height="82.36928510577877" fill="#ef5350" opacity="0.9"/><rect x="159" y="953.8773427516683" width="10" height="66.12265724833173" fill="#ef5350" opacity="0.9"/><rect x="171" y="972.957901462445" width="10" height="47.042098537555034" fill="#26a69a" opacity="0.9"/><rect x="183" y="955.0713474371717" width="10" height="64.92865256282835" fill="#ef5350" opacity="0.9"/><rect x="195" y="972.8327772256141" width="10" height="47.16722277438589" fill="#26a69a" opacity="0.9"/><rect x="207" y="974.8059243220218" width="10" height="45.19407567797816" fill="#ef5350" opacity="0.9"/><rect x="219" y="962.6182912111316" width="10" height="57.38170878886842" fill="#ef5350" opacity="0.9"/><rect x="231" y="952.7751845804345" width="10" height="67.22481541956552" fill="#ef5350" opacity="0.9"/><rect x="243" y="976.5084126082635" width="10" height="43.491587391736516" fill="#26a69a" opacity="0.9"/><rect x="255" y="977.6780136305551" width="10" height="42.32198636944486" fill="#ef5350" opacity="0.9"/><rect x="267" y="957.8431598750533" width="10" height="62.15684012494671" fill="#26a69a" opacity="0.9"/><rect x="279" y="960.2032159591083" width="10" height="59.79678404089168" fill="#26a69a" opacity="0.9"/><rect x="291" y="975.9107447110606" width="10" height="44.0892552889394" fill="#ef5350" opacity="0.9"/><rect x="303" y="989.4436852193668" width="10" height="30.556314780633215" fill="#ef5350" opacity="0.9"/><rect x="315" y="984.0322838279143" width="10" height="35.967716172085716" fill="#ef5350" opacity="0.9"/><rect x="327" y="995.4758270623314" width="10" height="24.524172937668595" fill="#26a69a" opacity="0.9"/><rect x="339" y="979.9901497941219" width="10" height="40.00985020587814" fill="#26a69a" opacity="0.9"/><rect x="351" y="967.546056368025" width="10" height="52.453943631974994" fill="#26a69a" opacity="0.9"/><rect x="363" y="978.5290359221923" width="10" height="41.47096407780771" fill="#ef5350" opacity="0.9"/><rect x="375" y="977.3243823654693" width="10" height="42.67561763453068" fill="#26a69a" opacity="0.9"/><rect x="387" y="986.6084232571347" width="10" height="33.391576742865254" fill="#ef5350" opacity="0.9"/><rect x="399" y="997.4800333664632" width="10" height="22.519966633536797" fill="#ef5350" opacity="0.9"/><rect x="411" y="982.3226962941928" width="10" height="37.67730370580716" fill="#ef5350" opacity="0.9"/><rect x="423" y="989.6353649013205" width="10" height="30.364635098679514" fill="#ef5350" opacity="0.9"/><rect x="435" y="993.0421162856737" width="10" height="26.95788371432627" fill="#26a69a" opacity="0.9"/><rect x="447" y="987.2757525202328" width="10" height="32.7242474797672" fill="#26a69a" opacity="0.9"/><rect x="459" y="992.9733423257135" width="10" height="27.026657674286525" fill="#26a69a" opacity="0.9"/><rect x="471" y="996.0663957120545" width="10" height="23.933604287945514" fill="#26a69a" opacity="0.9"/><rect x="483" y="995.4057219934687" width="10" height="24.59427800653134" fill="#ef5350" opacity="0.9"/><rect x="495" y="991.4714077807753" width="10" height="28.52859221922472" fill="#ef5350" opacity="0.9"/><rect x="507" y="999.0937810592077" width="10" height="20.906218940792314" fill="#26a69a" opacity="0.9"/><rect x="519" y="993.9778858441006" width="10" height="26.02211415589943" fill="#ef5350" opacity="0.9"/><rect x="531" y="999.5512388186852" width="10" height="20.448761181314808" fill="#ef5350" opacity="0.9"/><rect x="543" y="988.6871716598041" width="10" height="31.312828340195892" fill="#ef5350" opacity="0.9"/><rect x="555" y="997.9352726111032" width="10" height="22.064727388896813" fill="#26a69a" opacity="0.9"/><rect x="567" y="993.1574790572199" width="10" height="26.842520942780084" fill="#26a69a" opacity="0.9"/><rect x="579" y="994.7583593639074" width="10" height="25.241640636092598" fill="#26a69a" opacity="0.9"/><rect x="591" y="994.0297990912964" width="10" height="25.970200908703646" fill="#26a69a" opacity="0.9"/><rect x="603" y="998.4308888257845" width="10" height="21.56911117421555" fill="#26a69a" opacity="0.9"/><rect x="615" y="993.932628141417" width="10" height="26.067371858582987" fill="#26a69a" opacity="0.9"/><rect x="627" y="1000.3596656254437" width="10" height="19.640334374556346" fill="#26a69a" opacity="0.9"/><rect x="639" y="991.953712906432" width="10" height="28.046287093568026" fill="#26a69a" opacity="0.9"/><rect x="651" y="1002.5701938094562" width="10" height="17.429806190543786" fill="#ef5350" opacity="0.9"/><rect x="663" y="1001.8757986653414" width="10" height="18.12420133465855" fill="#ef5350" opacity="0.9"/><rect x="675" y="996.4954564816129" width="10" height="23.504543518387095" fill="#ef5350" opacity="0.9"/><rect x="687" y="1000.7669849495953" width="10" height="19.233015050404674" fill="#ef5350" opacity="0.9"/><rect x="699" y="998.7104216953003" width="10" height="21.289578304699717" fill="#26a69a" opacity="0.9"/><rect x="711" y="998.8102548629845" width="10" height="21.189745137015507" fill="#ef5350" opacity="0.9"/><rect x="723" y="992.5620296748544" width="10" height="27.437970325145557" fill="#26a69a" opacity="0.9"/><rect x="735" y="998.1393759761465" width="10" height="21.86062402385346" fill="#26a69a" opacity="0.9"/><rect x="747" y="991.9182166690331" width="10" height="28.081783330966914" fill="#ef5350" opacity="0.9"/><rect x="759" y="994.8240274030952" width="10" height="25.175972596904785" fill="#ef5350" opacity="0.9"/><rect x="771" y="992.0433409058639" width="10" height="27.956659094136057" fill="#ef5350" opacity="0.9"/><rect x="783" y="988.2288264943916" width="10" height="31.77117350560843" fill="#26a69a" opacity="0.9"/><rect x="795" y="990.4699701831606" width="10" height="29.530029816839374" fill="#ef5350" opacity="0.9"/><rect x="807" y="988.9880022717592" width="10" height="31.01199772824077" fill="#ef5350" opacity="0.9"/><rect x="819" y="976.0265511855744" width="10" height="43.97344881442564" fill="#26a69a" opacity="0.9"/><rect x="831" y="989.6362523072554" width="10" height="30.363747692744596" fill="#ef5350" opacity="0.9"/><rect x="843" y="990.8031911117422" width="10" height="29.196808888257806" fill="#26a69a" opacity="0.9"/><rect x="855" y="992.6276977140424" width="10" height="27.37230228595763" fill="#ef5350" opacity="0.9"/><rect x="867" y="988.717343461593" width="10" height="31.282656538406968" fill="#ef5350" opacity="0.9"/><rect x="879" y="984.739546358086" width="10" height="35.260453641913955" fill="#ef5350" opacity="0.9"/><rect x="891" y="984.8136447536561" width="10" height="35.18635524634385" fill="#ef5350" opacity="0.9"/><rect x="903" y="990.017836859293" width="10" height="29.98216314070703" fill="#ef5350" opacity="0.9"/><rect x="915" y="974.6044831747835" width="10" height="45.39551682521653" fill="#ef5350" opacity="0.9"/><rect x="927" y="986.4407035354252" width="10" height="33.5592964645748" fill="#ef5350" opacity="0.9"/><rect x="939" y="982.745988925174" width="10" height="37.25401107482605" fill="#ef5350" opacity="0.9"/><rect x="951" y="963.0109683373562" width="10" height="56.98903166264381" fill="#26a69a" opacity="0.9"/><rect x="963" y="960.7405402527332" width="10" height="59.25945974726676" fill="#ef5350" opacity="0.9"/><rect x="975" y="985.9708220928582" width="10" height="34.02917790714184" fill="#26a69a" opacity="0.9"/><rect x="987" y="940.5431811727957" width="10" height="79.4568188272043" fill="#26a69a" opacity="0.9"/><rect x="999" y="860.0" width="10" height="160.0" fill="#ef5350" opacity="0.9"/><rect x="1011" y="969.0191502200767" width="10" height="50.980849779923346" fill="#26a69a" opacity="0.9"/><rect x="1023" y="978.5077381797529" width="10" height="41.49226182024711" fill="#ef5350" opacity="0.9"/><rect x="1035" y="977.68245066023" width="10" height="42.31754933977004" fill="#26a69a" opacity="0.9"/><rect x="1047" y="970.5974016754224" width="10" height="49.40259832457764" fill="#26a69a" opacity="0.9"/><rect x="1059" y="978.8343035638222" width="10" height="41.16569643617777" fill="#ef5350" opacity="0.9"/><rect x="1071" y="988.9272149652137" width="10" height="31.072785034786307" fill="#26a69a" opacity="0.9"/><rect x="1083" y="976.8624875763169" width="10" height="43.13751242368312" fill="#26a69a" opacity="0.9"/><rect x="1095" y="988.7896670452932" width="10" height="31.210332954706814" fill="#ef5350" opacity="0.9"/><rect x="1107" y="963.58378886838" width="10" height="56.41621113162" fill="#ef5350" opacity="0.9"/><rect x="1119" y="972.7839698991907" width="10" height="47.21603010080935" fill="#26a69a" opacity="0.9"/><rect x="1131" y="987.2171837285248" width="10" height="32.78281627147521" fill="#26a69a" opacity="0.9"/><rect x="1143" y="990.7237682805622" width="10" height="29.27623171943776" fill="#ef5350" opacity="0.9"/><rect x="1155" y="1003.6759016044299" width="10" height="16.324098395570104" fill="#26a69a" opacity="0.9"/><rect x="1167" y="991.6231541956553" width="10" height="28.376845804344725" fill="#26a69a" opacity="0.9"/><rect x="1179" y="998.5631123100951" width="10" height="21.436887689904893" fill="#ef5350" opacity="0.9"/><rect x="1191" y="999.3560095129916" width="10" height="20.64399048700841" fill="#26a69a" opacity="0.9"/><rect x="1203" y="996.8544121823087" width="10" height="23.145587817691307" fill="#26a69a" opacity="0.9"/><rect x="1215" y="1001.0438556013063" width="10" height="18.95614439869371" fill="#26a69a" opacity="0.9"/><rect x="1227" y="1000.1932770126367" width="10" height="19.806722987363287" fill="#ef5350" opacity="0.9"/><rect x="1239" y="999.4709285815703" width="10" height="20.52907141842968" fill="#ef5350" opacity="0.9"/><rect x="1251" y="1003.8551576032941" width="10" height="16.14484239670594" fill="#26a69a" opacity="0.9"/><rect x="1263" y="1004.9187136163566" width="10" height="15.081286383643373" fill="#26a69a" opacity="0.9"/><rect x="1275" y="1000.5442460599177" width="10" height="19.45575394008233" fill="#26a69a" opacity="0.9"/><rect x="1287" y="1001.8105743291211" width="10" height="18.189425670878904" fill="#ef5350" opacity="0.9"/><rect x="1299" y="994.9167613232997" width="10" height="25.08323867670026" fill="#26a69a" opacity="0.9"/><rect x="1311" y="989.9490628993327" width="10" height="30.050937100667284" fill="#26a69a" opacity="0.9"/><rect x="1323" y="994.8905828482181" width="10" height="25.10941715178194" fill="#26a69a" opacity="0.9"/><rect x="1335" y="1001.1698672440722" width="10" height="18.83013275592782" fill="#ef5350" opacity="0.9"/><rect x="1347" y="1000.9662075819963" width="10" height="19.033792418003713" fill="#ef5350" opacity="0.9"/><rect x="1359" y="1002.4006992758767" width="10" height="17.59930072412328" fill="#26a69a" opacity="0.9"/><rect x="1371" y="998.0577346301292" width="10" height="21.942265369870825" fill="#ef5350" opacity="0.9"/><rect x="1383" y="996.4049410762459" width="10" height="23.595058923754095" fill="#ef5350" opacity="0.9"/><rect x="1395" y="992.4488854181457" width="10" height="27.551114581854335" fill="#ef5350" opacity="0.9"/><rect x="1407" y="997.7258448104501" width="10" height="22.2741551895499" fill="#ef5350" opacity="0.9"/><rect x="1419" y="980.7684047990913" width="10" height="39.231595200908714" fill="#ef5350" opacity="0.9"/><rect x="1431" y="981.053262104217" width="10" height="38.94673789578303" fill="#ef5350" opacity="0.9"/><rect x="1443" y="982.3515369870794" width="10" height="37.648463012920615" fill="#26a69a" opacity="0.9"/><rect x="1455" y="997.9765369870794" width="10" height="22.023463012920615" fill="#ef5350" opacity="0.9"/><rect x="1467" y="981.1637441431209" width="10" height="38.83625585687912" fill="#26a69a" opacity="0.9"/><rect x="1479" y="995.8054983671731" width="10" height="24.194501632826928" fill="#ef5350" opacity="0.9"/><rect x="1491" y="998.5795293198921" width="10" height="21.420470680107883" fill="#26a69a" opacity="0.9"/><rect x="1503" y="1000.6116889109754" width="10" height="19.38831108902457" fill="#26a69a" opacity="0.9"/><rect x="1515" y="986.0444767854607" width="10" height="33.95552321453931" fill="#26a69a" opacity="0.9"/><rect x="1527" y="991.5579298594349" width="10" height="28.44207014056508" fill="#ef5350" opacity="0.9"/><rect x="1539" y="994.8892517393157" width="10" height="25.110748260684318" fill="#26a69a" opacity="0.9"/><rect x="1551" y="1001.342467698424" width="10" height="18.657532301575998" fill="#26a69a" opacity="0.9"/><rect x="1563" y="997.2630626153627" width="10" height="22.736937384637258" fill="#26a69a" opacity="0.9"/><rect x="1575" y="970.976324009655" width="10" height="49.023675990345055" fill="#26a69a" opacity="0.9"/><rect x="1587" y="995.915980406077" width="10" height="24.084019593923017" fill="#ef5350" opacity="0.9"/><rect x="1599" y="1004.0237647309385" width="10" height="15.976235269061476" fill="#26a69a" opacity="0.9"/><rect x="1611" y="1000.2332102797103" width="10" height="19.766789720289694" fill="#ef5350" opacity="0.9"/><rect x="1623" y="994.8608547493966" width="10" height="25.139145250603406" fill="#ef5350" opacity="0.9"/><rect x="1635" y="990.4366924605991" width="10" height="29.563307539400853" fill="#ef5350" opacity="0.9"/><rect x="1647" y="980.7586433338066" width="10" height="39.24135666619338" fill="#26a69a" opacity="0.9"/><rect x="1659" y="991.0436781201192" width="10" height="28.95632187988076" fill="#ef5350" opacity="0.9"/><rect x="1671" y="976.1885027687065" width="10" height="43.811497231293515" fill="#26a69a" opacity="0.9"/><rect x="1683" y="994.9274101945193" width="10" height="25.072589805480675" fill="#ef5350" opacity="0.9"/><rect x="1695" y="1004.632968905296" width="10" height="15.367031094703975" fill="#26a69a" opacity="0.9"/><rect x="1707" y="998.1464752236263" width="10" height="21.85352477637366" fill="#26a69a" opacity="0.9"/><rect x="1719" y="983.0117670026978" width="10" height="36.98823299730225" fill="#26a69a" opacity="0.9"/><rect x="1731" y="989.0523392020445" width="10" height="30.94766079795545" fill="#ef5350" opacity="0.9"/><rect x="1743" y="996.3960670168962" width="10" height="23.603932983103846" fill="#ef5350" opacity="0.9"/><rect x="1755" y="990.1722454919778" width="10" height="29.827754508022167" fill="#ef5350" opacity="0.9"/><rect x="1767" y="996.9333913105211" width="10" height="23.066608689478926" fill="#26a69a" opacity="0.9"/><rect x="1779" y="999.2961096123811" width="10" height="20.703890387618912" fill="#ef5350" opacity="0.9"/><rect x="1791" y="995.2983458753372" width="10" height="24.70165412466281" fill="#26a69a" opacity="0.9"/><rect x="1803" y="1000.853507028255" width="10" height="19.146492971745033" fill="#26a69a" opacity="0.9"/><rect x="1815" y="998.2662750248473" width="10" height="21.733724975152654" fill="#ef5350" opacity="0.9"/><rect x="1827" y="991.0481151497942" width="10" height="28.95188485020583" fill="#ef5350" opacity="0.9"/><rect x="1839" y="994.0519842396706" width="10" height="25.94801576032944" fill="#26a69a" opacity="0.9"/><rect x="1851" y="999.6248935112878" width="10" height="20.375106488712163" fill="#26a69a" opacity="0.9"/><rect x="1863" y="998.3119764304984" width="10" height="21.688023569501638" fill="#ef5350" opacity="0.9"/><rect x="1875" y="987.6555622604004" width="10" height="32.344437739599584" fill="#ef5350" opacity="0.9"/><rect x="1887" y="990.3044689762885" width="10" height="29.69553102371151" fill="#ef5350" opacity="0.9"/><rect x="1899" y="990.1811195513276" width="10" height="29.818880448672417" fill="#26a69a" opacity="0.9"/><rect x="1911" y="982.1971283543944" width="10" height="37.80287164560559" fill="#ef5350" opacity="0.9"/><rect x="1923" y="952.835084481045" width="10" height="67.16491551895501" fill="#26a69a" opacity="0.9"/><rect x="1935" y="909.893067584836" width="10" height="110.10693241516401" fill="#26a69a" opacity="0.9"/><rect x="1004" y="609.9481434666692" width="12" height="1.0612842666645292" fill="#ff0000" opacity="0.50"/><polyline points="320,314.3468977688826,332,322.43606443216174,344,327.0763540671942,356,329.3037542004762,368,336.8781308797952,380,340.29459770394175,392,347.7824372622975,404,354.8098360754133,416,367.8894280174366,428,381.1383906824449,440,392.31694958888204,452,401.8244354820066,464,408.0006531059431,476,414.19510788315773,488,423.2866925799984,500,432.32100990888887,512,437.1089127620083,524,444.32145450531,536,452.41374574607715,548,461.15038872898975,560,468.1452979928933,572,470.63318585388816,584,471.4185485217725,596,469.24848505620804,608,466.17327233339284,620,462.7339513111656,632,458.8641242275662,644,454.55425431383145,656,453.73762727442227,668,455.22241822606395,680,458.8399817981857,692,462.8205386047072,704,466.16930793124385,716,469.5023710235061,728,471.8104764879354,740,471.72565579384656,752,472.05321213094066,764,473.71408142640576,776,475.5199968715109,788,475.8399489662891,800,477.9993118456938,812,482.53042657785045,824,484.55797472598834,836,489.5257395203407,848,493.00963658189477,860,496.61657018996874,872,501.04234567663906,884,507.7756362852112,896,516.0913051088452,908,524.3225285207034,920,535.1052917980996,932,545.5686483379639,944,558.2193485470452,956,566.8351278727278,968,575.2873424880212,980,579.9528799018601,992,582.6579595810472,1004,585.2570247130097,1016,585.7892147657367,1028,594.8115343245566,1040,596.3541908396777,1052,596.1832694517701,1064,602.0425724500152,1076,604.3116048135076,1088,601.0075784503169,1100,602.364434445523,1112,617.1866165618242,1124,624.6337535241886,1136,629.1985327568061,1148,635.6027523926665,1160,639.1734024124132,1172,640.1298092429776,1184,643.2187736452336,1196,645.1544157742592,1208,642.8121846846443,1220,639.4295891654716,1232,641.3218071370133,1244,643.2359633080916,1256,642.5420254692228,1268,641.7625649102501,1280,638.0250969124488,1292,637.8779694604691,1304,634.712612368997,1316,628.2100277751246,1328,620.0525556187615,1340,614.1375691153855,1352,610.3020355488419,1364,606.528566715618,1376,608.3198241839697,1388,612.1135922934324,1400,619.74065024644,1412,627.5257255880509,1424,639.2440711637907,1436,656.5173156878731,1448,669.7196959334724,1460,682.4227670763169,1472,688.9633603833348,1484,696.8014598007965,1496,700.7850257626251,1508,702.7467402360253,1520,698.3055291659275,1532,694.5905147564736,1544,688.9551299098244,1556,681.4811923565078,1568,673.657773757474,1580,664.103111875811,1592,658.2885100844638,1604,650.5513491748328,1616,644.1069716915142,1628,642.4709455367671,1640,646.8025280697717,1652,647.0323515043978,1664,648.5542583960432,1676,640.4807349678473,1688,640.908335015356,1700,635.3318024869077,1712,629.022934237358,1724,619.575145757608,1736,618.5572136537061,1748,619.1018109565266,1760,620.4031396908249,1772,620.9740839996327,1784,623.3605350726854,1796,623.9530468562407,1808,622.9224707112007,1820,624.1631512148948,1832,628.6716749722048,1844,628.5056770764398,1856,627.0415171009033,1868,625.8684130214533,1880,627.1822891654423,1892,630.3419913528585,1904,629.461004697029,1916,629.472519373503,1928,627.2592934268202,1940,624.5493278560085" fill="none" stroke="#0090ff" stroke-width="2"/><line x1="80" y1="50" x2="80" y2="850" stroke="#666666" stroke-width="0.5" stroke-dasharray="4,4"/><line x1="152" y1="50" x2="152" y2="850" stroke="#666666" stroke-width="0.5" stroke-dasharray="4,4"/><line x1="224" y1="50" x2="224" y2="850" stroke="#666666" stroke-width="0.5" stroke-dasharray="4,4"/><line x1="296" y1="50" x2="296" y2="850" stroke="#666666" stroke-width="0.5" stroke-dasharray="4,4"/><line x1="368" y1="50" x2="368" y2="850" stroke="#666666" stroke-width="0.5" stroke-dasharray="4,4"/><line x1="440" y1="50" x2="440" y2="850" stroke="#666666" stroke-width="0.5" stroke-dasharray="4,4"/><line x1="512" y1="50" x2="512" y2="850" stroke="#666666" stroke-width="0.5" stroke-dasharray="4,4"/><line x1="584" y1="50" x2="584" y2="850" stroke="#666666" stroke-width="0.5" stroke-dasharray="4,4"/><line x1="656" y1="50" x2="656" y2="850" stroke="#666666" stroke-width="0.5" stroke-dasharray="4,4"/><line x1="728" y1="50" x2="728" y2="850" stroke="#666666" stroke-width="0.5" stroke-dasharray="4,4"/><line x1="800" y1="50" x2="800" y2="850" stroke="#666666" stroke-width="0.5" stroke-dasharray="4,4"/><line x1="872" y1="50" x2="872" y2="850" stroke="#666666" stroke-width="0.5" stroke-dasharray="4,4"/><line x1="944" y1="50" x2="944" y2="850" stroke="#666666" stroke-width="0.5" stroke-dasharray="4,4"/><line x1="1016" y1="50" x2="1016" y2="850" stroke="#666666" stroke-width="0.5" stroke-dasharray="4,4"/><line x1="1088" y1="50" x2="1088" y2="850" stroke="#666666" stroke-width="0.5" stroke-dasharray="4,4"/><line x1="1160" y1="50" x2="1160" y2="850" stroke="#666666" stroke-width="0.5" stroke-dasharray="4,4"/><line x1="1232" y1="50" x2="1232" y2="850" stroke="#666666" stroke-width="0.5" stroke-dasharray="4,4"/><line x1="1304" y1="50" x2="1304" y2="850" stroke="#666666" stroke-width="0.5" stroke-dasharray="4,4"/><line x1="1376" y1="50" x2="1376" y2="850" stroke="#666666" stroke-width="0.5" stroke-dasharray="4,4"/><line x1="1448" y1="50" x2="1448" y2="850" stroke="#666666" stroke-width="0.5" stroke-dasharray="4,4"/><line x1="1520" y1="50" x2="1520" y2="850" stroke="#666666" stroke-width="0.5" stroke-dasharray="4,4"/><line x1="1592" y1="50" x2="1592" y2="850" stroke="#666666" stroke-width="0.5" stroke-dasharray="4,4"/><line x1="1664" y1="50" x2="1664" y2="850" stroke="#666666" stroke-width="0.5" stroke-dasharray="4,4"/><line x1="1736" y1="50" x2="1736" y2="850" stroke="#666666" stroke-width="0.5" stroke-dasharray="4,4"/><line x1="1808" y1="50" x2="1808" y2="850" stroke="#666666" stroke-width="0.5" stroke-dasharray="4,4"/><line x1="1880" y1="50" x2="1880" y2="850" stroke="#666666" stroke-width="0.5" stroke-dasharray="4,4"/><text x="80" y="1040" text-anchor="middle" font-size="20" fill="black">09:30</text><text x="152" y="1040" text-anchor="middle" font-size="20" fill="black">10:00</text><text x="224" y="1040" text-anchor="middle" font-size="20" fill="black">10:30</text><text x="296" y="1040" text-anchor="middle" font-size="20" fill="black">11:00</text><text x="368" y="1040" text-anchor="middle" font-size="20" fill="black">11:30</text><text x="440" y="1040" text-anchor="middle" font-size="20" fill="black">12:00</text><text x="512" y="1040" text-anchor="middle" font-size="20" fill="black">12:30</text><text x="584" y="1040" text-anchor="middle" font-size="20" fill="black">13:00</text><text x="656" y="1040" text-anchor="middle" font-size="20" fill="black">13:30</text><text x="728" y="1040" text-anchor="middle" font-size="20" fill="black">14:00</text><text x="800" y="1040" text-anchor="middle" font-size="20" fill="black">14:30</text><text x="872" y="1040" text-anchor="middle" font-size="20" fill="black">15:00</text><text x="944" y="1040" text-anchor="middle" font-size="20" fill="black">15:30</text><text x="1016" y="1040" text-anchor="middle" font-size="20" fill="black">09:30</text><text x="1088" y="1040" text-anchor="middle" font-size="20" fill="black">10:00</text><text x="1160" y="1040" text-anchor="middle" font-size="20" fill="black">10:30</text><text x="1232" y="1040" text-anchor="middle" font-size="20" fill="black">11:00</text><text x="1304" y="1040" text-anchor="middle" font-size="20" fill="black">11:30</text><text x="1376" y="1040" text-anchor="middle" font-size="20" fill="black">12:00</text><text x="1448" y="1040" text-anchor="middle" font-size="20" fill="black">12:30</text><text x="1520" y="1040" text-anchor="middle" font-size="20" fill="black">13:00</text><text x="1592" y="1040" text-anchor="middle" font-size="20" fill="black">13:30</text><text x="1664" y="1040" text-anchor="middle" font-size="20" fill="black">14:00</text><text x="1736" y="1040" text-anchor="middle" font-size="20" fill="black">14:30</text><text x="1808" y="1040" text-anchor="middle" font-size="20" fill="black">15:00</text><text x="1880" y="1040" text-anchor="middle" font-size="20" fill="black">15:30</text><text x="1942" y="50" text-anchor="end" font-size="40" fill="#26a69a" font-weight="bold"> +0.04% (Wed)</text></svg>