<svg xmlns="http://www.w3.org/2000/svg" width="1992" height="1050"><rect width="100%" height="100%" fill="white"/><text x="42" y="854.0" text-anchor="end" font-size="20" fill="black">600</text><text x="42" y="787.3333333333334" text-anchor="end" font-size="20" fill="black">601</text><text x="42" y="720.6666666666667" text-anchor="end" font-size="20" fill="black">602</text><text x="42" y="654.0" text-anchor="end" font-size="20" fill="black">603</text><text x="42" y="587.3333333333334" text-anchor="end" font-size="20" fill="black">604</text><text x="42" y="520.6666666666666" text-anchor="end" font-size="20" fill="black">605</text><text x="42" y="454.0" text-anchor="end" font-size="20" fill="black">606</text><text x="42" y="387.3333333333333" text-anchor="end" font-size="20" fill="black">607</text><text x="42" y="320.66666666666674" text-anchor="end" font-size="20" fill="black">608</text><text x="42" y="254.0" text-anchor="end" font-size="20" fill="black">609</text><text x="42" y="187.33333333333326" text-anchor="end" font-size="20" fill="black">610</text><text x="42" y="120.66666666666674" text-anchor="end" font-size="20" fill="black">611</text><text x="42" y="54.0" text-anchor="end" font-size="20" fill="black">612</text><line x1="80" y1="-6.687112000001093" x2="80" y2="75.20736199999942" stroke="#ef5350" stroke-width="2"/><rect x="76" y="31.929793999999333" width="8" height="35.95367199999748" fill="#ef5350"/><line x1="92" y1="59.227951999999505" x2="92" y2="178.40771533333282" stroke="#ef5350" stroke-width="2"/><rect x="88" y="63.88861333333193" width="8" height="99.20550133333563" fill="#ef5350"/><line x1="104" y1="141.78823533333502" x2="104" y2="231.00660533333053" stroke="#ef5350" stroke-width="2"/><rect x="100" y="169.08639333333508" width="8" height="26.63234933333274" fill="#ef5350"/><line x1="116" y1="165.0915406666702" x2="116" y2="309.57203600000116" stroke="#ef5350" stroke-width="2"/><rect x="112" y="194.38712533333273" width="8" height="30.627201333330277" fill="#ef5350"/><line x1="128" y1="195.71874266666782" x2="128" y2="254.9757200000006" stroke="#ef5350" stroke-width="2"/><rect x="124" y="221.68528333333302" width="8" height="18.642644666670094" fill="#ef5350"/><line x1="140" y1="141.78823533333502" x2="140" y2="279.6106433333307" stroke="#26a69a" stroke-width="2"/><rect x="136" y="166.4231586666649" width="8" height="73.90476933333821" fill="#26a69a"/><line x1="152" y1="155.77021866666496" x2="152" y2="244.9885886666682" stroke="#ef5350" stroke-width="2"/><rect x="148" y="165.75734933333024" width="8" height="34.62205466667001" fill="#ef5350"/><line x1="164" y1="151.10955733333253" x2="164" y2="231.00660533333053" stroke="#ef5350" stroke-width="2"/><rect x="160" y="201.0452126666678" width="8" height="28.629775333335374" fill="#ef5350"/><line x1="176" y1="183.7341853333328" x2="176" y2="252.3124846666633" stroke="#26a69a" stroke-width="2"/><rect x="172" y="192.38969866666298" width="8" height="33.290436666667574" fill="#26a69a"/><line x1="188" y1="179.07352400000036" x2="188" y2="248.98344133333308" stroke="#ef5350" stroke-width="2"/><rect x="184" y="197.71616866667046" width="8" height="32.624627999992526" fill="#ef5350"/><line x1="200" y1="145.11727866666502" x2="200" y2="241.65954533333047" stroke="#26a69a" stroke-width="2"/><rect x="196" y="191.0580813333354" width="8" height="37.95109800000023" fill="#26a69a"/><line x1="212" y1="157.10183600000005" x2="212" y2="254.30991133333305" stroke="#26a69a" stroke-width="2"/><rect x="208" y="189.7264640000003" width="8" height="3.3290439999973387" fill="#26a69a"/><line x1="224" y1="169.75220200000263" x2="224" y2="286.26873066666576" stroke="#ef5350" stroke-width="2"/><rect x="220" y="190.39227266666785" width="8" height="95.87645799999791" fill="#ef5350"/><line x1="236" y1="275.6157906666658" x2="236" y2="401.45364133333413" stroke="#ef5350" stroke-width="2"/><rect x="232" y="286.9345393333333" width="8" height="101.2029273333307" fill="#ef5350"/><line x1="248" y1="354.1812213333363" x2="248" y2="494.6668640000022" stroke="#ef5350" stroke-width="2"/><rect x="244" y="392.79812799999644" width="8" height="70.57572533333308" fill="#ef5350"/><line x1="260" y1="440.73635666666934" x2="260" y2="537.2786226666676" stroke="#ef5350" stroke-width="2"/><rect x="256" y="469.36613199999704" width="8" height="16.64521866666746" fill="#ef5350"/><line x1="272" y1="468.7003233333371" x2="272" y2="603.1936873333356" stroke="#ef5350" stroke-width="2"/><rect x="268" y="487.3429679999996" width="8" height="70.57572533333314" fill="#ef5350"/><line x1="284" y1="548.5973713333351" x2="284" y2="638.4815499999983" stroke="#ef5350" stroke-width="2"/><rect x="280" y="561.9135459999976" width="8" height="37.285289333332685" fill="#ef5350"/><line x1="296" y1="546.5999453333325" x2="296" y2="619.1730973333355" stroke="#26a69a" stroke-width="2"/><rect x="292" y="555.9212673333301" width="8" height="47.93822866667301" fill="#26a69a"/><line x1="308" y1="499.99333400000216" x2="308" y2="565.9083986666701" stroke="#26a69a" stroke-width="2"/><rect x="304" y="527.2914920000024" width="8" height="25.966540666665082" fill="#26a69a"/><line x1="320" y1="501.32495133332975" x2="320" y2="656.4583860000009" stroke="#ef5350" stroke-width="2"/><rect x="316" y="531.2863440000001" width="8" height="122.50880733333065" fill="#ef5350"/><line x1="332" y1="583.2194253333304" x2="332" y2="683.0907353333334" stroke="#26a69a" stroke-width="2"/><rect x="328" y="605.8569226666654" width="8" height="50.60146333333557" fill="#26a69a"/><line x1="344" y1="563.9109720000002" x2="344" y2="647.1370640000032" stroke="#26a69a" stroke-width="2"/><rect x="340" y="589.8775126666654" width="8" height="19.30845333333764" fill="#26a69a"/><line x1="356" y1="536.6128140000001" x2="356" y2="598.5330260000031" stroke="#26a69a" stroke-width="2"/><rect x="352" y="583.2194253333304" width="8" height="12.650366000002577" fill="#26a69a"/><line x1="368" y1="587.8800866666703" x2="368" y2="681.0933093333308" stroke="#ef5350" stroke-width="2"/><rect x="364" y="587.8800866666703" width="8" height="72.5731519999955" fill="#ef5350"/><line x1="380" y1="589.2117039999979" x2="380" y2="695.0752926666685" stroke="#26a69a" stroke-width="2"/><rect x="376" y="650.4661073333334" width="8" height="11.984557333335033" fill="#26a69a"/><line x1="392" y1="598.5330260000031" x2="392" y2="672.4377960000008" stroke="#26a69a" stroke-width="2"/><rect x="388" y="629.1602280000006" width="8" height="19.30845333333002" fill="#26a69a"/><line x1="404" y1="599.1988353333303" x2="404" y2="686.4197793333308" stroke="#ef5350" stroke-width="2"/><rect x="400" y="631.1576540000033" width="8" height="28.62977599999499" fill="#ef5350"/><line x1="416" y1="632.489271999998" x2="416" y2="716.3811720000012" stroke="#ef5350" stroke-width="2"/><rect x="412" y="661.7848560000009" width="8" height="2" fill="#ef5350"/><line x1="428" y1="631.8234626666632" x2="428" y2="711.7205106666688" stroke="#26a69a" stroke-width="2"/><rect x="424" y="635.8183153333357" width="8" height="25.30073199999765" fill="#26a69a"/><line x1="440" y1="609.1859660000031" x2="440" y2="720.3760246666661" stroke="#ef5350" stroke-width="2"/><rect x="436" y="637.1499326666632" width="8" height="59.92278600000043" fill="#ef5350"/><line x1="452" y1="635.8183153333357" x2="452" y2="699.7359540000009" stroke="#26a69a" stroke-width="2"/><rect x="448" y="687.7513966666659" width="8" height="7.98970466667015" fill="#26a69a"/><line x1="464" y1="631.8234626666632" x2="464" y2="707.7256586666635" stroke="#ef5350" stroke-width="2"/><rect x="460" y="690.414631333336" width="8" height="2.6632353333297942" fill="#ef5350"/><line x1="476" y1="608.5201573333355" x2="476" y2="714.3837459999986" stroke="#26a69a" stroke-width="2"/><rect x="472" y="638.4815499999983" width="8" height="55.26212533333512" fill="#26a69a"/><line x1="488" y1="569.9032506666678" x2="488" y2="640.4789766666681" stroke="#26a69a" stroke-width="2"/><rect x="484" y="572.5664859999976" width="8" height="65.91506400000071" fill="#26a69a"/><line x1="500" y1="569.2374420000002" x2="500" y2="636.4841240000032" stroke="#ef5350" stroke-width="2"/><rect x="496" y="571.9006766666704" width="8" height="53.26469866666537" fill="#ef5350"/><line x1="512" y1="558.5845026666675" x2="512" y2="627.162801999998" stroke="#26a69a" stroke-width="2"/><rect x="508" y="602.527878666668" width="8" height="23.303305999994905" fill="#26a69a"/><line x1="524" y1="581.2219993333352" x2="524" y2="649.1344899999982" stroke="#ef5350" stroke-width="2"/><rect x="520" y="606.5227313333329" width="8" height="42.61175866666531" fill="#ef5350"/><line x1="536" y1="616.5098619999981" x2="536" y2="686.4197793333308" stroke="#ef5350" stroke-width="2"/><rect x="532" y="649.8002986666658" width="8" height="29.961393333337696" fill="#ef5350"/><line x1="548" y1="667.1113260000009" x2="548" y2="718.3785979999964" stroke="#26a69a" stroke-width="2"/><rect x="544" y="675.7668393333308" width="8" height="2" fill="#26a69a"/><line x1="560" y1="629.1602280000006" x2="560" y2="686.4197793333308" stroke="#26a69a" stroke-width="2"/><rect x="556" y="677.0984566666659" width="8" height="2" fill="#26a69a"/><line x1="572" y1="627.8286106666656" x2="572" y2="677.7642653333335" stroke="#26a69a" stroke-width="2"/><rect x="568" y="657.1241946666685" width="8" height="19.308453333329908" fill="#26a69a"/><line x1="584" y1="589.2117039999979" x2="584" y2="656.4583860000009" stroke="#26a69a" stroke-width="2"/><rect x="580" y="603.1936873333356" width="8" height="53.26469866666537" fill="#26a69a"/><line x1="596" y1="567.9058246666651" x2="596" y2="621.836331999998" stroke="#ef5350" stroke-width="2"/><rect x="592" y="605.1911133333306" width="8" height="16.64521866666746" fill="#ef5350"/><line x1="608" y1="621.1705233333305" x2="608" y2="678.430074000001" stroke="#ef5350" stroke-width="2"/><rect x="604" y="621.836331999998" width="8" height="53.264698666665254" fill="#ef5350"/><line x1="620" y1="673.1036046666684" x2="620" y2="701.067571333336" stroke="#ef5350" stroke-width="2"/><rect x="616" y="675.7668393333308" width="8" height="11.318748666667489" fill="#ef5350"/><line x1="632" y1="653.1293426666632" x2="632" y2="705.0624233333338" stroke="#26a69a" stroke-width="2"/><rect x="628" y="661.7848560000009" width="8" height="29.961392666662732" fill="#26a69a"/><line x1="644" y1="649.1344899999982" x2="644" y2="686.4197793333308" stroke="#ef5350" stroke-width="2"/><rect x="640" y="662.4506646666684" width="8" height="12.650365999994847" fill="#ef5350"/><line x1="656" y1="669.7745606666633" x2="656" y2="700.4017626666684" stroke="#ef5350" stroke-width="2"/><rect x="652" y="673.7694133333359" width="8" height="8.655513333329964" fill="#ef5350"/><line x1="668" y1="664.4480906666633" x2="668" y2="727.0341120000012" stroke="#ef5350" stroke-width="2"/><rect x="664" y="683.756544000001" width="8" height="38.616906666667774" fill="#ef5350"/><line x1="680" y1="723.0392593333363" x2="680" y2="789.6201326666642" stroke="#ef5350" stroke-width="2"/><rect x="676" y="723.7050679999962" width="8" height="22.637497333334977" fill="#ef5350"/><line x1="692" y1="726.3683033333336" x2="692" y2="788.9543239999966" stroke="#ef5350" stroke-width="2"/><rect x="688" y="748.3399913333338" width="8" height="23.303305333335402" fill="#ef5350"/><line x1="704" y1="749.6716086666689" x2="704" y2="796.2782199999992" stroke="#ef5350" stroke-width="2"/><rect x="700" y="771.6432966666692" width="8" height="9.321322666664855" fill="#ef5350"/><line x1="716" y1="749.0058000000014" x2="716" y2="788.2885153333367" stroke="#26a69a" stroke-width="2"/><rect x="712" y="758.9929313333338" width="8" height="21.30587933333277" fill="#26a69a"/><line x1="728" y1="740.3502866666637" x2="728" y2="796.9440286666668" stroke="#ef5350" stroke-width="2"/><rect x="724" y="758.9929313333338" width="8" height="19.3084526666629" fill="#ef5350"/><line x1="740" y1="756.3296959999965" x2="740" y2="786.9568980000016" stroke="#ef5350" stroke-width="2"/><rect x="736" y="776.9697666666692" width="8" height="2" fill="#ef5350"/><line x1="752" y1="745.6767566666637" x2="752" y2="786.9568980000016" stroke="#26a69a" stroke-width="2"/><rect x="748" y="764.9852100000013" width="8" height="14.647791999997708" fill="#26a69a"/><line x1="764" y1="743.0135213333339" x2="764" y2="778.9671933333315" stroke="#ef5350" stroke-width="2"/><rect x="760" y="765.6510186666688" width="8" height="7.989704666662647" fill="#ef5350"/><line x1="776" y1="745.6767566666637" x2="776" y2="794.2807939999966" stroke="#26a69a" stroke-width="2"/><rect x="772" y="756.995504666664" width="8" height="15.313601333332372" fill="#26a69a"/><line x1="788" y1="749.0058000000014" x2="788" y2="792.9491766666691" stroke="#ef5350" stroke-width="2"/><rect x="784" y="756.995504666664" width="8" height="27.963966666667716" fill="#ef5350"/><line x1="800" y1="753.0006526666663" x2="800" y2="814.9208646666693" stroke="#ef5350" stroke-width="2"/><rect x="796" y="784.9594713333317" width="8" height="22.637497333334977" fill="#ef5350"/><line x1="812" y1="760.3245486666689" x2="812" y2="814.2550560000018" stroke="#26a69a" stroke-width="2"/><rect x="808" y="763.6535919999991" width="8" height="44.609185333335176" fill="#26a69a"/><line x1="824" y1="745.6767566666637" x2="824" y2="776.9697666666692" stroke="#26a69a" stroke-width="2"/><rect x="820" y="756.3296959999965" width="8" height="5.326469999999972" fill="#26a69a"/><line x1="836" y1="739.0186693333362" x2="836" y2="773.6407233333315" stroke="#ef5350" stroke-width="2"/><rect x="832" y="756.995504666664" width="8" height="2" fill="#ef5350"/><line x1="848" y1="724.3708766666638" x2="848" y2="773.6407233333315" stroke="#26a69a" stroke-width="2"/><rect x="844" y="725.0366853333313" width="8" height="33.2904366666678" fill="#26a69a"/><line x1="860" y1="713.7179373333311" x2="860" y2="739.6844780000038" stroke="#ef5350" stroke-width="2"/><rect x="856" y="725.0366853333313" width="8" height="3.994852666664883" fill="#ef5350"/><line x1="872" y1="717.0469806666688" x2="872" y2="773.6407233333315" stroke="#ef5350" stroke-width="2"/><rect x="868" y="729.6973466666637" width="8" height="37.285289333332685" fill="#ef5350"/><line x1="884" y1="753.0006526666663" x2="884" y2="782.2962366666692" stroke="#ef5350" stroke-width="2"/><rect x="880" y="766.3168273333364" width="8" height="4.660660666665308" fill="#ef5350"/><line x1="896" y1="752.3348439999987" x2="896" y2="783.6278539999967" stroke="#26a69a" stroke-width="2"/><rect x="892" y="764.9852100000013" width="8" height="5.326469333332852" fill="#26a69a"/><line x1="908" y1="729.0315379999962" x2="908" y2="768.9800619999991" stroke="#26a69a" stroke-width="2"/><rect x="904" y="758.3271219999991" width="8" height="9.321322666664855" fill="#26a69a"/><line x1="920" y1="739.0186693333362" x2="920" y2="757.6613133333316" stroke="#26a69a" stroke-width="2"/><rect x="916" y="740.3502866666637" width="8" height="17.311026666667885" fill="#26a69a"/><line x1="932" y1="739.6844780000038" x2="932" y2="788.2885153333367" stroke="#ef5350" stroke-width="2"/><rect x="928" y="739.6844780000038" width="8" height="25.300731999997538" fill="#ef5350"/><line x1="944" y1="745.6767566666637" x2="944" y2="799.6072639999966" stroke="#ef5350" stroke-width="2"/><rect x="940" y="764.9852100000013" width="8" height="2" fill="#ef5350"/><line x1="956" y1="764.3194006666666" x2="956" y2="794.2807939999966" stroke="#ef5350" stroke-width="2"/><rect x="952" y="768.3142533333315" width="8" height="17.311027333335005" fill="#ef5350"/><line x1="968" y1="738.3528600000014" x2="968" y2="788.2885153333367" stroke="#26a69a" stroke-width="2"/><rect x="964" y="746.3425653333312" width="8" height="38.61690600000054" fill="#26a69a"/><line x1="980" y1="743.0135213333339" x2="980" y2="773.6407233333315" stroke="#ef5350" stroke-width="2"/><rect x="976" y="745.6767566666637" width="8" height="2" fill="#ef5350"/><line x1="992" y1="744.345138666669" x2="992" y2="845.5480666666668" stroke="#ef5350" stroke-width="2"/><rect x="988" y="747.6741826666663" width="8" height="84.55770933333042" fill="#ef5350"/><line x1="1004" y1="832.2318919999967" x2="1004" y2="882.1675466666647" stroke="#ef5350" stroke-width="2"/><rect x="1000" y="832.2318919999967" width="8" height="46.60661133333792" fill="#ef5350"/><line x1="1016" y1="173.08124599999996" x2="1016" y2="283.60549533333597" stroke="#ef5350" stroke-width="2"/><rect x="1012" y="252.3124846666633" width="8" height="15.979409999999916" fill="#ef5350"/><line x1="1028" y1="260.9679986666681" x2="1028" y2="396.12717133333416" stroke="#ef5350" stroke-width="2"/><rect x="1024" y="267.9589900000035" width="8" height="88.8854659999954" fill="#ef5350"/><line x1="1040" y1="337.53600266666876" x2="1040" y2="422.09371199999924" stroke="#ef5350" stroke-width="2"/><rect x="1036" y="356.17864733333136" width="8" height="27.963966666667773" fill="#ef5350"/><line x1="1052" y1="318.2275493333311" x2="1052" y2="440.73635666666934" stroke="#ef5350" stroke-width="2"/><rect x="1048" y="378.81614399999916" width="8" height="17.97683600000255" fill="#ef5350"/><line x1="1064" y1="273.6183646666632" x2="1064" y2="426.0885646666641" stroke="#26a69a" stroke-width="2"/><rect x="1060" y="286.9345393333333" width="8" height="109.8584406666684" fill="#26a69a"/><line x1="1076" y1="237.6646926666656" x2="1076" y2="314.2326973333336" stroke="#26a69a" stroke-width="2"/><rect x="1072" y="254.9757200000006" width="8" height="26.63234933333274" fill="#26a69a"/><line x1="1088" y1="221.01947466666547" x2="1088" y2="278.279025333336" stroke="#ef5350" stroke-width="2"/><rect x="1084" y="255.64152866666814" width="8" height="12.650365999995074" fill="#ef5350"/><line x1="1100" y1="255.64152866666814" x2="1100" y2="342.19666400000125" stroke="#ef5350" stroke-width="2"/><rect x="1096" y="267.62608600000317" width="8" height="53.930507333333026" fill="#ef5350"/><line x1="1112" y1="314.2326973333336" x2="1112" y2="418.7646680000019" stroke="#ef5350" stroke-width="2"/><rect x="1108" y="320.2249760000011" width="8" height="65.24925533333311" fill="#ef5350"/><line x1="1124" y1="353.51541266666874" x2="1124" y2="418.09885933333436" stroke="#ef5350" stroke-width="2"/><rect x="1120" y="384.1426139999991" width="8" height="2" fill="#ef5350"/><line x1="1136" y1="242.99116266666556" x2="1136" y2="414.1040073333367" stroke="#26a69a" stroke-width="2"/><rect x="1132" y="247.651823999998" width="8" height="141.8172600000011" fill="#26a69a"/><line x1="1148" y1="159.76507133332984" x2="1148" y2="253.6441026666655" stroke="#26a69a" stroke-width="2"/><rect x="1144" y="180.40514200000257" width="8" height="69.9099166666656" fill="#26a69a"/><line x1="1160" y1="117.81912066666496" x2="1160" y2="205.04006466666556" stroke="#26a69a" stroke-width="2"/><rect x="1156" y="118.4849293333325" width="8" height="62.58602133333761" fill="#26a69a"/><line x1="1172" y1="48.575012666666794" x2="1172" y2="153.1069840000025" stroke="#26a69a" stroke-width="2"/><rect x="1168" y="78.53640533332964" width="8" height="37.28528933334019" fill="#26a69a"/><line x1="1184" y1="59.227951999999505" x2="1184" y2="108.49779866666722" stroke="#ef5350" stroke-width="2"/><rect x="1180" y="74.54155333333188" width="8" height="19.97426199999768" fill="#ef5350"/><line x1="1196" y1="83.86287533332961" x2="1196" y2="117.81912066666496" stroke="#ef5350" stroke-width="2"/><rect x="1192" y="92.5183886666673" width="8" height="8.65551399999731" fill="#ef5350"/><line x1="1208" y1="87.19191933333445" x2="1208" y2="124.47720800000002" stroke="#26a69a" stroke-width="2"/><rect x="1204" y="92.5183886666673" width="8" height="9.321322666664855" fill="#26a69a"/><line x1="1220" y1="83.86287533332961" x2="1220" y2="129.13786933333245" stroke="#ef5350" stroke-width="2"/><rect x="1216" y="89.85515399999713" width="8" height="25.9665406666727" fill="#ef5350"/><line x1="1232" y1="96.51324133333219" x2="1232" y2="139.7908093333324" stroke="#26a69a" stroke-width="2"/><rect x="1228" y="103.17132866666725" width="8" height="11.984557333335033" fill="#26a69a"/><line x1="1244" y1="65.88604000000191" x2="1244" y2="107.16618133333213" stroke="#26a69a" stroke-width="2"/><rect x="1240" y="69.88089199999945" width="8" height="33.956245333335346" fill="#26a69a"/><line x1="1256" y1="40.585307999996644" x2="1256" y2="97.84485866666728" stroke="#ef5350" stroke-width="2"/><rect x="1252" y="69.2150833333319" width="8" height="27.96396666666783" fill="#ef5350"/><line x1="1268" y1="54.567291333334424" x2="1268" y2="99.17647600000237" stroke="#26a69a" stroke-width="2"/><rect x="1264" y="74.54155333333188" width="8" height="21.30587933333277" fill="#26a69a"/><line x1="1280" y1="53.235673999999335" x2="1280" y2="103.17132866666725" stroke="#ef5350" stroke-width="2"/><rect x="1276" y="72.54412666666963" width="8" height="21.97168866665993" fill="#ef5350"/><line x1="1292" y1="76.53897933333451" x2="1292" y2="147.78051400000254" stroke="#ef5350" stroke-width="2"/><rect x="1288" y="86.52611066666691" width="8" height="46.60661133333042" fill="#ef5350"/><line x1="1304" y1="84.52868399999716" x2="1304" y2="135.7959566666675" stroke="#26a69a" stroke-width="2"/><rect x="1300" y="95.1816239999971" width="8" height="35.287862666670435" fill="#26a69a"/><line x1="1316" y1="51.238247333337085" x2="1316" y2="92.5183886666673" stroke="#26a69a" stroke-width="2"/><rect x="1312" y="76.53897933333451" width="8" height="11.984557333335033" fill="#26a69a"/><line x1="1328" y1="54.567291333334424" x2="1328" y2="77.20478800000205" stroke="#26a69a" stroke-width="2"/><rect x="1324" y="67.88346599999682" width="8" height="9.321322000005239" fill="#26a69a"/><line x1="1340" y1="58.56214333333196" x2="1340" y2="81.19964066666694" stroke="#26a69a" stroke-width="2"/><rect x="1336" y="65.22023066666702" width="8" height="4.660661333332428" fill="#26a69a"/><line x1="1352" y1="41.25111666666419" x2="1352" y2="83.19706666666957" stroke="#26a69a" stroke-width="2"/><rect x="1348" y="54.567291333334424" width="8" height="10.652939333332597" fill="#26a69a"/><line x1="1364" y1="44.58016000000191" x2="1364" y2="93.18419800000197" stroke="#ef5350" stroke-width="2"/><rect x="1360" y="55.23310000000197" width="8" height="25.96654066666497" fill="#ef5350"/><line x1="1376" y1="82.53125800000203" x2="1376" y2="139.1249999999975" stroke="#ef5350" stroke-width="2"/><rect x="1372" y="82.53125800000203" width="8" height="54.59631600000057" fill="#ef5350"/><line x1="1388" y1="137.79338266667014" x2="1388" y2="292.9268180000008" stroke="#ef5350" stroke-width="2"/><rect x="1384" y="138.45919133332995" width="8" height="153.13600866666866" fill="#ef5350"/><line x1="1400" y1="273.6183646666632" x2="1400" y2="354.1812213333363" stroke="#ef5350" stroke-width="2"/><rect x="1396" y="294.92424400000345" width="8" height="31.293010666665168" fill="#ef5350"/><line x1="1412" y1="326.88306333333617" x2="1412" y2="400.7878326666666" stroke="#ef5350" stroke-width="2"/><rect x="1408" y="335.53857666666613" width="8" height="3.99485266666494" fill="#ef5350"/><line x1="1424" y1="301.582331333331" x2="1424" y2="392.1323186666693" stroke="#ef5350" stroke-width="2"/><rect x="1420" y="342.19666400000125" width="8" height="33.95624533333529" fill="#ef5350"/><line x1="1436" y1="312.9010799999985" x2="1436" y2="395.4613626666666" stroke="#26a69a" stroke-width="2"/><rect x="1432" y="328.88048933333107" width="8" height="47.27242000000547" fill="#26a69a"/><line x1="1448" y1="244.9885886666682" x2="1448" y2="350.8521773333314" stroke="#26a69a" stroke-width="2"/><rect x="1444" y="248.98344133333308" width="8" height="81.22866533333308" fill="#26a69a"/><line x1="1460" y1="219.68785733333038" x2="1460" y2="275.6157906666658" stroke="#26a69a" stroke-width="2"/><rect x="1456" y="221.68528333333302" width="8" height="26.632349333332513" fill="#26a69a"/><line x1="1472" y1="152.44117466666762" x2="1472" y2="220.35366599999793" stroke="#26a69a" stroke-width="2"/><rect x="1468" y="152.44117466666762" width="8" height="67.24668266666276" fill="#26a69a"/><line x1="1484" y1="119.81654733333471" x2="1484" y2="186.3974206666701" stroke="#ef5350" stroke-width="2"/><rect x="1480" y="151.10955733333253" width="8" height="24.63492333333761" fill="#ef5350"/><line x1="1496" y1="153.77279266667006" x2="1496" y2="215.6930046666655" stroke="#26a69a" stroke-width="2"/><rect x="1492" y="170.41801066667017" width="8" height="7.323895999995102" fill="#26a69a"/><line x1="1508" y1="131.80110400000262" x2="1508" y2="195.71874266666782" stroke="#26a69a" stroke-width="2"/><rect x="1504" y="135.06356733333473" width="8" height="35.35444333333544" fill="#26a69a"/><line x1="1520" y1="130.46948666666754" x2="1520" y2="190.39227266666785" stroke="#ef5350" stroke-width="2"/><rect x="1516" y="131.13529533333508" width="8" height="57.92535999999768" fill="#ef5350"/><line x1="1532" y1="135.13014799999996" x2="1532" y2="190.39227266666785" stroke="#26a69a" stroke-width="2"/><rect x="1528" y="135.13014799999996" width="8" height="53.9305073333328" fill="#26a69a"/><line x1="1544" y1="109.16360733333477" x2="1544" y2="157.10183600000005" stroke="#ef5350" stroke-width="2"/><rect x="1540" y="134.46433933333242" width="8" height="9.321321999997508" fill="#ef5350"/><line x1="1556" y1="115.15588600000228" x2="1556" y2="145.11727866666502" stroke="#26a69a" stroke-width="2"/><rect x="1552" y="126.47463466666977" width="8" height="18.642643999995244" fill="#26a69a"/><line x1="1568" y1="99.17647600000237" x2="1568" y2="135.13014799999996" stroke="#26a69a" stroke-width="2"/><rect x="1564" y="100.50809399999707" width="8" height="23.23672466667017" fill="#26a69a"/><line x1="1580" y1="101.17390266666462" x2="1580" y2="124.47720800000002" stroke="#ef5350" stroke-width="2"/><rect x="1576" y="101.83971133333216" width="8" height="18.642644666670094" fill="#ef5350"/><line x1="1592" y1="73.20993599999679" x2="1592" y2="113.8242686666672" stroke="#26a69a" stroke-width="2"/><rect x="1588" y="99.17647600000237" width="8" height="14.647792666664827" fill="#26a69a"/><line x1="1604" y1="55.89890866666951" x2="1604" y2="102.5055199999997" stroke="#26a69a" stroke-width="2"/><rect x="1600" y="73.87574466666433" width="8" height="28.629775333335374" fill="#26a69a"/><line x1="1616" y1="63.22280466666439" x2="1616" y2="105.83456333332992" stroke="#ef5350" stroke-width="2"/><rect x="1612" y="72.54412666666963" width="8" height="31.958819333332713" fill="#ef5350"/><line x1="1628" y1="99.17647600000237" x2="1628" y2="142.45404400000257" stroke="#ef5350" stroke-width="2"/><rect x="1624" y="104.50294600000234" width="8" height="29.295584666662535" fill="#ef5350"/><line x1="1640" y1="110.49522466666986" x2="1640" y2="164.42573200000265" stroke="#ef5350" stroke-width="2"/><rect x="1636" y="139.1249999999975" width="8" height="5.9922786666675165" fill="#ef5350"/><line x1="1652" y1="123.74481866666724" x2="1652" y2="158.43345333333514" stroke="#ef5350" stroke-width="2"/><rect x="1648" y="145.11727866666502" width="8" height="9.9871313333324" fill="#ef5350"/><line x1="1664" y1="156.4360273333325" x2="1664" y2="272.2867466666685" stroke="#ef5350" stroke-width="2"/><rect x="1660" y="156.4360273333325" width="8" height="115.85071933333597" fill="#ef5350"/><line x1="1676" y1="189.06065533333276" x2="1676" y2="288.2661566666684" stroke="#26a69a" stroke-width="2"/><rect x="1672" y="195.05293400000028" width="8" height="77.2338126666682" fill="#26a69a"/><line x1="1688" y1="165.75734933333024" x2="1688" y2="235.00145800000314" stroke="#ef5350" stroke-width="2"/><rect x="1684" y="191.72389000000294" width="8" height="30.627201999997624" fill="#ef5350"/><line x1="1700" y1="224.3485180000032" x2="1700" y2="264.9628506666659" stroke="#ef5350" stroke-width="2"/><rect x="1696" y="224.3485180000032" width="8" height="28.629775999994763" fill="#ef5350"/><line x1="1712" y1="233.66984066666805" x2="1712" y2="272.2867466666685" stroke="#ef5350" stroke-width="2"/><rect x="1708" y="254.9757200000006" width="8" height="11.984557333335033" fill="#ef5350"/><line x1="1724" y1="244.32278000000065" x2="1724" y2="284.93711266666355" stroke="#26a69a" stroke-width="2"/><rect x="1720" y="250.9808673333357" width="8" height="14.647792666664827" fill="#26a69a"/><line x1="1736" y1="242.99116266666556" x2="1736" y2="310.90365333333625" stroke="#ef5350" stroke-width="2"/><rect x="1732" y="252.97829399999796" width="8" height="57.92535933333829" fill="#ef5350"/><line x1="1748" y1="278.279025333336" x2="1748" y2="312.2352706666636" stroke="#26a69a" stroke-width="2"/><rect x="1744" y="281.60806933333333" width="8" height="29.961392666670463" fill="#26a69a"/><line x1="1760" y1="264.9628506666659" x2="1760" y2="318.89335799999867" stroke="#ef5350" stroke-width="2"/><rect x="1756" y="284.2713040000035" width="8" height="28.62977599999499" fill="#ef5350"/><line x1="1772" y1="268.95770333333076" x2="1772" y2="330.21210666666616" stroke="#26a69a" stroke-width="2"/><rect x="1768" y="268.95770333333076" width="8" height="44.60918533333529" fill="#26a69a"/><line x1="1784" y1="246.98601533333044" x2="1784" y2="327.5488720000037" stroke="#ef5350" stroke-width="2"/><rect x="1780" y="267.62608600000317" width="8" height="48.60403733333305" fill="#ef5350"/><line x1="1796" y1="316.89593200000377" x2="1796" y2="385.4742313333342" stroke="#ef5350" stroke-width="2"/><rect x="1792" y="316.89593200000377" width="8" height="43.943376666660015" fill="#ef5350"/><line x1="1808" y1="288.93196533333594" x2="1808" y2="387.47165799999647" stroke="#26a69a" stroke-width="2"/><rect x="1804" y="290.2635826666635" width="8" height="68.57829933333801" fill="#26a69a"/><line x1="1820" y1="264.9628506666659" x2="1820" y2="296.9216699999986" stroke="#26a69a" stroke-width="2"/><rect x="1816" y="283.60549533333597" width="8" height="6.325183333327232" fill="#26a69a"/><line x1="1832" y1="231.67241399999807" x2="1832" y2="284.2713040000035" stroke="#26a69a" stroke-width="2"/><rect x="1828" y="235.00145800000314" width="8" height="46.60661133333019" fill="#26a69a"/><line x1="1844" y1="216.35881333333305" x2="1844" y2="270.9551293333334" stroke="#26a69a" stroke-width="2"/><rect x="1840" y="225.68013533333055" width="8" height="11.984557333335033" fill="#26a69a"/><line x1="1856" y1="206.37168266666777" x2="1856" y2="248.31763266666553" stroke="#26a69a" stroke-width="2"/><rect x="1852" y="206.37168266666777" width="8" height="19.97426199999768" fill="#26a69a"/><line x1="1868" y1="194.38712533333273" x2="1868" y2="233.0040320000005" stroke="#26a69a" stroke-width="2"/><rect x="1864" y="207.0374913333353" width="8" height="2" fill="#26a69a"/><line x1="1880" y1="184.39999400000033" x2="1880" y2="223.0169006666681" stroke="#26a69a" stroke-width="2"/><rect x="1876" y="187.06322933333013" width="8" height="19.974262000005183" fill="#26a69a"/><line x1="1892" y1="175.0786720000026" x2="1892" y2="213.69557866667037" stroke="#ef5350" stroke-width="2"/><rect x="1888" y="182.4025679999977" width="8" height="22.637496666667857" fill="#ef5350"/><line x1="1904" y1="166.4231586666649" x2="1904" y2="223.0169006666681" stroke="#26a69a" stroke-width="2"/><rect x="1900" y="171.74962799999776" width="8" height="36.619480666672644" fill="#26a69a"/><line x1="1916" y1="151.10955733333253" x2="1916" y2="196.38455133333537" stroke="#26a69a" stroke-width="2"/><rect x="1912" y="169.75220200000263" width="8" height="2.6632346666626745" fill="#26a69a"/><line x1="1928" y1="153.1069840000025" x2="1928" y2="230.34079666666298" stroke="#ef5350" stroke-width="2"/><rect x="1924" y="169.08639333333508" width="8" height="51.26727266666285" fill="#ef5350"/><line x1="1940" y1="213.69557866667037" x2="1940" y2="293.59262666666837" stroke="#ef5350" stroke-width="2"/><rect x="1936" y="219.02204800000322" width="8" height="73.9047699999976" fill="#ef5350"/><rect x="75" y="976.6028495154286" width="10" height="43.3971504845714" fill="#ef5350" opacity="0.9"/><rect x="87" y="977.9787830306194" width="10" height="42.02121696938059" fill="#ef5350" opacity="0.9"/><rect x="99" y="983.9582908500654" width="10" height="36.041709149934604" fill="#ef5350" opacity="0.9"/><rect x="111" y="969.3858405161615" width="10" height="50.614159483838534" fill="#ef5350" opacity="0.9"/><rect x="123" y="985.1615335226485" width="10" height="34.83846647735152" fill="#ef5350" opacity="0.9"/><rect x="135" y="988.8181048053965" width="10" height="31.1818951946035" fill="#26a69a" opacity="0.9"/><rect x="147" y="986.683240481903" width="10" height="33.316759518097" fill="#ef5350" opacity="0.9"/><rect x="159" y="1002.2182499962129" width="10" height="17.781750003787124" fill="#ef5350" opacity="0.9"/><rect x="171" y="1001.2555160275047" width="10" height="18.744483972495345" fill="#26a69a" opacity="0.9"/><rect x="183" y="1002.3108877963973" width="10" height="17.68911220360269" fill="#ef5350" opacity="0.9"/><rect x="195" y="1001.2450287293706" width="10" height="18.754971270629426" fill="#26a69a" opacity="0.9"/><rect x="207" y="1000.3924113910701" width="10" height="19.60758860892986" fill="#26a69a" opacity="0.9"/><rect x="219" y="999.4697039435737" width="10" height="20.530296056426323" fill="#ef5350" opacity="0.9"/><rect x="231" y="990.3489007563672" width="10" height="29.651099243632757" fill="#ef5350" opacity="0.9"/><rect x="243" y="992.1593579909133" width="10" height="27.84064200908665" fill="#ef5350" opacity="0.9"/><rect x="255" y="973.4975605379285" width="10" height="46.50243946207149" fill="#ef5350" opacity="0.9"/><rect x="267" y="974.1851777189195" width="10" height="45.814822281080524" fill="#ef5350" opacity="0.9"/><rect x="279" y="984.4223537924984" width="10" height="35.57764620750163" fill="#ef5350" opacity="0.9"/><rect x="291" y="985.933748241921" width="10" height="34.066251758079034" fill="#26a69a" opacity="0.9"/><rect x="303" y="983.8029040493789" width="10" height="36.19709595062113" fill="#26a69a" opacity="0.9"/><rect x="315" y="991.9625463625972" width="10" height="28.03745363740279" fill="#ef5350" opacity="0.9"/><rect x="327" y="989.5219772984954" width="10" height="30.478022701504642" fill="#26a69a" opacity="0.9"/><rect x="339" y="997.19168800055" width="10" height="22.808311999449984" fill="#26a69a" opacity="0.9"/><rect x="351" y="1002.0712530340336" width="10" height="17.92874696596641" fill="#26a69a" opacity="0.9"/><rect x="363" y="996.1384136912842" width="10" height="23.8615863087158" fill="#ef5350" opacity="0.9"/><rect x="375" y="990.9485994213342" width="10" height="29.051400578665834" fill="#26a69a" opacity="0.9"/><rect x="387" y="998.5316151254805" width="10" height="21.46838487451953" fill="#26a69a" opacity="0.9"/><rect x="399" y="998.824735108328" width="10" height="21.175264891671986" fill="#ef5350" opacity="0.9"/><rect x="411" y="995.2298640962688" width="10" height="24.770135903731216" fill="#ef5350" opacity="0.9"/><rect x="423" y="1000.7641861099232" width="10" height="19.23581389007677" fill="#26a69a" opacity="0.9"/><rect x="435" y="999.7304880905077" width="10" height="20.26951190949228" fill="#ef5350" opacity="0.9"/><rect x="447" y="1003.0165081725183" width="10" height="16.983491827481657" fill="#26a69a" opacity="0.9"/><rect x="459" y="996.1025820893261" width="10" height="23.89741791067388" fill="#ef5350" opacity="0.9"/><rect x="471" y="988.4335705404803" width="10" height="31.566429459519668" fill="#26a69a" opacity="0.9"/><rect x="483" y="1000.9961301869886" width="10" height="19.00386981301142" fill="#26a69a" opacity="0.9"/><rect x="495" y="1000.7818397284489" width="10" height="19.21816027155114" fill="#ef5350" opacity="0.9"/><rect x="507" y="999.2533160254072" width="10" height="20.74668397459277" fill="#26a69a" opacity="0.9"/><rect x="519" y="1002.8067622098368" width="10" height="17.193237790163153" fill="#ef5350" opacity="0.9"/><rect x="531" y="1002.0658345966643" width="10" height="17.93416540333567" fill="#ef5350" opacity="0.9"/><rect x="543" y="1001.8845791272471" width="10" height="18.115420872752907" fill="#26a69a" opacity="0.9"/><rect x="555" y="1002.1415179315319" width="10" height="17.858482068468106" fill="#26a69a" opacity="0.9"/><rect x="567" y="1001.9775665040358" width="10" height="18.02243349596415" fill="#26a69a" opacity="0.9"/><rect x="579" y="1002.0668833264778" width="10" height="17.93311667352225" fill="#26a69a" opacity="0.9"/><rect x="591" y="1001.3666813877259" width="10" height="18.633318612274138" fill="#ef5350" opacity="0.9"/><rect x="603" y="1001.2029047485321" width="10" height="18.79709525146791" fill="#ef5350" opacity="0.9"/><rect x="615" y="994.1320187699331" width="10" height="25.867981230066903" fill="#ef5350" opacity="0.9"/><rect x="627" y="992.0471439008787" width="10" height="27.952856099121277" fill="#26a69a" opacity="0.9"/><rect x="639" y="999.9477499501853" width="10" height="20.05225004981469" fill="#ef5350" opacity="0.9"/><rect x="651" y="998.0874780495024" width="10" height="21.91252195049765" fill="#ef5350" opacity="0.9"/><rect x="663" y="996.0775873621066" width="10" height="23.922412637893444" fill="#ef5350" opacity="0.9"/><rect x="675" y="993.1470866868411" width="10" height="26.852913313158865" fill="#ef5350" opacity="0.9"/><rect x="687" y="993.1526799125127" width="10" height="26.847320087487333" fill="#ef5350" opacity="0.9"/><rect x="699" y="992.4748508764468" width="10" height="27.525149123553206" fill="#ef5350" opacity="0.9"/><rect x="711" y="997.871964072847" width="10" height="22.12803592715295" fill="#26a69a" opacity="0.9"/><rect x="723" y="992.8440037707663" width="10" height="27.155996229233665" fill="#ef5350" opacity="0.9"/><rect x="735" y="1001.458445246399" width="10" height="18.541554753600963" fill="#ef5350" opacity="0.9"/><rect x="747" y="999.8898950221457" width="10" height="20.11010497785435" fill="#26a69a" opacity="0.9"/><rect x="759" y="997.1467674068757" width="10" height="22.85323259312429" fill="#ef5350" opacity="0.9"/><rect x="771" y="994.4309067667543" width="10" height="25.569093233245667" fill="#26a69a" opacity="0.9"/><rect x="783" y="992.6435215881032" width="10" height="27.356478411896774" fill="#ef5350" opacity="0.9"/><rect x="795" y="991.8970007492592" width="10" height="28.102999250740822" fill="#ef5350" opacity="0.9"/><rect x="807" y="979.4669306358448" width="10" height="40.53306936415515" fill="#26a69a" opacity="0.9"/><rect x="819" y="997.4061532473919" width="10" height="22.5938467526081" fill="#26a69a" opacity="0.9"/><rect x="831" y="994.6644239385398" width="10" height="25.335576061460188" fill="#ef5350" opacity="0.9"/><rect x="843" y="995.0931796439213" width="10" height="24.906820356078697" fill="#26a69a" opacity="0.9"/><rect x="855" y="996.2535991824568" width="10" height="23.74640081754319" fill="#ef5350" opacity="0.9"/><rect x="867" y="999.6399477499502" width="10" height="20.360052250049762" fill="#ef5350" opacity="0.9"/><rect x="879" y="995.565282848257" width="10" height="24.43471715174303" fill="#ef5350" opacity="0.9"/><rect x="891" y="997.3762644477098" width="10" height="22.623735552290213" fill="#26a69a" opacity="0.9"/><rect x="903" y="998.9626430787911" width="10" height="21.037356921208925" fill="#26a69a" opacity="0.9"/><rect x="915" y="1001.987354648961" width="10" height="18.012645351039055" fill="#26a69a" opacity="0.9"/><rect x="927" y="997.1240449275853" width="10" height="22.87595507241474" fill="#ef5350" opacity="0.9"/><rect x="939" y="993.8201964387466" width="10" height="26.17980356125338" fill="#ef5350" opacity="0.9"/><rect x="951" y="993.7866370847175" width="10" height="26.21336291528246" fill="#ef5350" opacity="0.9"/><rect x="963" y="996.1845578030742" width="10" height="23.8154421969258" fill="#26a69a" opacity="0.9"/><rect x="975" y="996.7917723650372" width="10" height="23.208227634962782" fill="#ef5350" opacity="0.9"/><rect x="987" y="983.2009331364828" width="10" height="36.79906686351717" fill="#ef5350" opacity="0.9"/><rect x="999" y="860.0" width="10" height="160.0" fill="#ef5350" opacity="0.9"/><rect x="1011" y="943.6024684769297" width="10" height="76.39753152307026" fill="#ef5350" opacity="0.9"/><rect x="1023" y="979.6695102781348" width="10" height="40.330489721865206" fill="#ef5350" opacity="0.9"/><rect x="1035" y="981.5095067357586" width="10" height="38.49049326424142" fill="#ef5350" opacity="0.9"/><rect x="1047" y="984.9498648886424" width="10" height="35.05013511135758" fill="#ef5350" opacity="0.9"/><rect x="1059" y="988.5269074938736" width="10" height="31.473092506126363" fill="#26a69a" opacity="0.9"/><rect x="1071" y="991.1983719052274" width="10" height="28.801628094772582" fill="#26a69a" opacity="0.9"/><rect x="1083" y="993.9248946317852" width="10" height="26.07510536821485" fill="#ef5350" opacity="0.9"/><rect x="1095" y="994.0025006379773" width="10" height="25.997499362022722" fill="#ef5350" opacity="0.9"/><rect x="1107" y="991.6552685272687" width="10" height="28.34473147273127" fill="#ef5350" opacity="0.9"/><rect x="1119" y="996.3909827880133" width="10" height="23.609017211986725" fill="#ef5350" opacity="0.9"/><rect x="1131" y="998.322568316008" width="10" height="21.67743168399204" fill="#26a69a" opacity="0.9"/><rect x="1143" y="987.2561965366281" width="10" height="32.74380346337193" fill="#26a69a" opacity="0.9"/><rect x="1155" y="990.9515708224721" width="10" height="29.04842917752785" fill="#26a69a" opacity="0.9"/><rect x="1167" y="984.2103355818878" width="10" height="35.78966441811224" fill="#26a69a" opacity="0.9"/><rect x="1179" y="995.9309399765317" width="10" height="24.069060023468296" fill="#ef5350" opacity="0.9"/><rect x="1191" y="994.7544399141906" width="10" height="25.245560085809416" fill="#ef5350" opacity="0.9"/><rect x="1203" y="996.5766079649864" width="10" height="23.42339203501365" fill="#26a69a" opacity="0.9"/><rect x="1215" y="999.6013195351563" width="10" height="20.398680464843665" fill="#ef5350" opacity="0.9"/><rect x="1227" y="1000.0423104216943" width="10" height="19.95768957830569" fill="#26a69a" opacity="0.9"/><rect x="1239" y="1000.7157697502042" width="10" height="19.28423024979577" fill="#26a69a" opacity="0.9"/><rect x="1251" y="998.7196873386849" width="10" height="21.280312661315065" fill="#ef5350" opacity="0.9"/><rect x="1263" y="1001.4885088343834" width="10" height="18.511491165616576" fill="#26a69a" opacity="0.9"/><rect x="1275" y="1000.901919292084" width="10" height="19.098080707915983" fill="#ef5350" opacity="0.9"/><rect x="1287" y="998.0523456007533" width="10" height="21.947654399246744" fill="#ef5350" opacity="0.9"/><rect x="1299" y="1004.9103394272304" width="10" height="15.089660572769617" fill="#26a69a" opacity="0.9"/><rect x="1311" y="1000.2518815960735" width="10" height="19.74811840392647" fill="#26a69a" opacity="0.9"/><rect x="1323" y="1001.4191178783963" width="10" height="18.580882121603736" fill="#26a69a" opacity="0.9"/><rect x="1335" y="999.9113939833205" width="10" height="20.088606016679478" fill="#26a69a" opacity="0.9"/><rect x="1347" y="999.7273419010675" width="10" height="20.27265809893254" fill="#26a69a" opacity="0.9"/><rect x="1359" y="999.1716898882637" width="10" height="20.8283101117363" fill="#ef5350" opacity="0.9"/><rect x="1371" y="1002.6718256405118" width="10" height="17.32817435948823" fill="#ef5350" opacity="0.9"/><rect x="1383" y="989.2188943824204" width="10" height="30.781105617579556" fill="#ef5350" opacity="0.9"/><rect x="1395" y="988.7095612697088" width="10" height="31.290438730291157" fill="#ef5350" opacity="0.9"/><rect x="1407" y="992.3498772403491" width="10" height="27.650122759650912" fill="#ef5350" opacity="0.9"/><rect x="1419" y="997.2664973939064" width="10" height="22.733502606093566" fill="#ef5350" opacity="0.9"/><rect x="1431" y="999.8012773529127" width="10" height="20.198722647087266" fill="#26a69a" opacity="0.9"/><rect x="1443" y="998.0621337456784" width="10" height="21.937866254321648" fill="#26a69a" opacity="0.9"/><rect x="1455" y="1001.4927037536371" width="10" height="18.5072962463629" fill="#26a69a" opacity="0.9"/><rect x="1467" y="997.5819902794399" width="10" height="22.41800972056012" fill="#26a69a" opacity="0.9"/><rect x="1479" y="991.0286524637577" width="10" height="28.97134753624232" fill="#ef5350" opacity="0.9"/><rect x="1491" y="1002.6262058936285" width="10" height="17.37379410637152" fill="#26a69a" opacity="0.9"/><rect x="1503" y="1001.7421266609258" width="10" height="18.257873339074195" fill="#26a69a" opacity="0.9"/><rect x="1515" y="1001.484488703432" width="10" height="18.51551129656798" fill="#ef5350" opacity="0.9"/><rect x="1527" y="1003.3264078323804" width="10" height="16.67359216761963" fill="#26a69a" opacity="0.9"/><rect x="1539" y="1004.1750050397294" width="10" height="15.824994960270601" fill="#ef5350" opacity="0.9"/><rect x="1551" y="1005.3700326621074" width="10" height="14.629967337892595" fill="#26a69a" opacity="0.9"/><rect x="1563" y="1005.189476345899" width="10" height="14.810523654100962" fill="#26a69a" opacity="0.9"/><rect x="1575" y="1004.3926164760114" width="10" height="15.607383523988574" fill="#ef5350" opacity="0.9"/><rect x="1587" y="1000.1428136954792" width="10" height="19.857186304520837" fill="#26a69a" opacity="0.9"/><rect x="1599" y="1004.4966155158411" width="10" height="15.503384484158914" fill="#26a69a" opacity="0.9"/><rect x="1611" y="1004.3522403781952" width="10" height="15.647759621804767" fill="#ef5350" opacity="0.9"/><rect x="1623" y="999.8011025646105" width="10" height="20.19889743538954" fill="#ef5350" opacity="0.9"/><rect x="1635" y="1004.2159055024523" width="10" height="15.784094497547699" fill="#ef5350" opacity="0.9"/><rect x="1647" y="1005.6362352464107" width="10" height="14.363764753589294" fill="#ef5350" opacity="0.9"/><rect x="1659" y="999.6418704212748" width="10" height="20.358129578725197" fill="#ef5350" opacity="0.9"/><rect x="1671" y="1001.4413159927801" width="10" height="18.55868400721988" fill="#26a69a" opacity="0.9"/><rect x="1683" y="1005.0624052501745" width="10" height="14.937594749825507" fill="#ef5350" opacity="0.9"/><rect x="1695" y="1005.2726755777627" width="10" height="14.727324422237302" fill="#ef5350" opacity="0.9"/><rect x="1707" y="1005.362341976809" width="10" height="14.637658023190966" fill="#ef5350" opacity="0.9"/><rect x="1719" y="1001.0115115575852" width="10" height="18.98848844241479" fill="#26a69a" opacity="0.9"/><rect x="1731" y="1002.8350779147988" width="10" height="17.16492208520117" fill="#ef5350" opacity="0.9"/><rect x="1743" y="1005.1214836963298" width="10" height="14.878516303670153" fill="#26a69a" opacity="0.9"/><rect x="1755" y="1005.2345717278756" width="10" height="14.765428272124382" fill="#ef5350" opacity="0.9"/><rect x="1767" y="1005.2003132206376" width="10" height="14.799686779362446" fill="#26a69a" opacity="0.9"/><rect x="1779" y="998.952155780657" width="10" height="21.047844219343006" fill="#ef5350" opacity="0.9"/><rect x="1791" y="990.3925978319259" width="10" height="29.607402168074145" fill="#ef5350" opacity="0.9"/><rect x="1803" y="999.125720564776" width="10" height="20.874279435224025" fill="#26a69a" opacity="0.9"/><rect x="1815" y="1003.0794319613228" width="10" height="16.920568038677175" fill="#26a69a" opacity="0.9"/><rect x="1827" y="1001.4434134524068" width="10" height="18.556586547593156" fill="#26a69a" opacity="0.9"/><rect x="1839" y="1003.6097396703027" width="10" height="16.3902603296973" fill="#26a69a" opacity="0.9"/><rect x="1851" y="1002.9423979323709" width="10" height="17.05760206762909" fill="#26a69a" opacity="0.9"/><rect x="1863" y="999.1433741833016" width="10" height="20.856625816698397" fill="#26a69a" opacity="0.9"/><rect x="1875" y="1002.3530117772358" width="10" height="17.646988222764207" fill="#26a69a" opacity="0.9"/><rect x="1887" y="1000.0900276282043" width="10" height="19.909972371795675" fill="#ef5350" opacity="0.9"/><rect x="1899" y="1001.6257176516376" width="10" height="18.374282348362385" fill="#26a69a" opacity="0.9"/><rect x="1911" y="996.2329741627932" width="10" height="23.767025837206802" fill="#26a69a" opacity="0.9"/><rect x="1923" y="978.1582906170144" width="10" height="41.84170938298564" fill="#ef5350" opacity="0.9"/><rect x="1935" y="934.066543071916" width="10" height="85.93345692808396" fill="#ef5350" opacity="0.9"/><rect x="1004" y="252.3124846666633" width="12" height="626.5260186666713" fill="#00ff00" opacity="0.50"/><polyline points="320,340.75883420951715,332,366.0062712054393,344,387.32734182079486,356,405.98373072674957,368,430.21892195912034,380,451.1948443757168,392,468.14392853041227,404,486.39569057513654,416,503.1628309648113,428,515.7966866189554,440,533.0610706235044,452,547.7934826276169,464,561.6300906313427,476,568.9492772378799,488,569.29377331046,500,574.6148782650229,512,577.2732592556546,524,584.1171859932123,536,593.226186565289,548,601.0872011146299,560,608.3263683100616,572,612.9737803440245,584,612.0423429144315,596,612.9751037797178,608,618.8918587213342,620,625.3864996050197,632,628.8530097378801,644,633.257583159669,656,637.940187303199,668,645.9814504806749,680,655.5396518952118,692,666.5971418734443,704,677.4892825839061,716,685.2515348457625,728,694.1134252414031,740,702.0679157263505,752,708.0600389905005,764,714.3058184517258,776,718.3715028531499,788,724.7132141369775,800,732.6069050445691,812,735.5637323736573,824,737.5414431952171,836,739.5844420655143,848,738.1989414243511,860,737.3258553839302,872,740.1503106807013,884,743.0862323301577,896,745.1718492510887,908,746.4247323700343,920,745.846213731617,932,747.6689752809913,944,749.508371539946,956,752.9480771710572,968,752.3189808055577,980,751.8132087288374,992,759.4721309451339,1004,770.8403568868638,1016,722.9785985801755,1028,688.1086802392019,1040,659.1595310735631,1052,634.1722404951346,1064,601.1019832416272,1076,568.1375772186205,1088,539.5808455470084,1100,518.8166310504736,1112,506.1173548869343,1124,494.69094400881204,1136,471.16340876987886,1148,443.4721452679848,1160,412.5209818456369,1172,380.71292693970616,1184,353.45605916766846,1196,329.4291871199523,1208,306.86625393392046,1220,288.67153400370466,1232,271.00484778112946,1244,251.85018532578556,1256,237.11960100903684,1268,221.63597742087404,1280,209.52929531730047,1292,202.25343119183594,1304,192.056116221185,1316,181.0544841366284,1328,170.27629193313874,1340,160.270952764904,1352,150.20393739046835,1364,143.63209960724816,1376,143.0126209779928,1388,157.16334278961313,1400,173.26371534933674,1412,189.09892620495157,1424,206.91359126480324,1436,218.52948631894833,1448,221.42986298698975,1460,221.4541887342573,1472,214.8815207278251,1484,211.15418357914382,1496,207.27454806366654,1508,200.3973118036356,1520,199.31763023503208,1532,193.20453668883601,1544,188.49797713116914,1556,182.59099213454806,1568,174.77357326458787,1580,169.60298114415014,1592,162.89569493994804,1604,154.41760443773092,1616,149.6638274436616,1628,148.15284679822685,1640,147.86374507141318,1652,148.5533322074691,1664,160.337466917872,1676,163.64370187807253,1688,169.23488188968645,1700,177.21044494780926,1712,185.75804803214555,1724,191.9697451084478,1736,203.29678398701003,1748,210.75500163904053,1760,220.48319957818126,1772,225.0998189834338,1784,233.77889558819334,1796,245.87988730995676,1808,250.10690591536036,1820,253.29724776468834,1832,251.5547915966181,1844,249.0905386191646,1856,245.0220761474991,1868,241.40449664138646,1880,236.2291378501443,1892,233.25874992790432,1904,227.40073831572158,1916,221.91040152374626,1928,221.76214099767253,1940,228.53972928360986" fill="none" stroke="#0090ff" stroke-width="2"/><line x1="80" y1="50" x2="80" y2="850" stroke="#666666" stroke-width="0.5" stroke-dasharray="4,4"/><line x1="152" y1="50" x2="152" y2="850" stroke="#666666" stroke-width="0.5" stroke-dasharray="4,4"/><line x1="224" y1="50" x2="224" y2="850" stroke="#666666" stroke-width="0.5" stroke-dasharray="4,4"/><line x1="296" y1="50" x2="296" y2="850" stroke="#666666" stroke-width="0.5" stroke-dasharray="4,4"/><line x1="368" y1="50" x2="368" y2="850" stroke="#666666" stroke-width="0.5" stroke-dasharray="4,4"/><line x1="440" y1="50" x2="440" y2="850" stroke="#666666" stroke-width="0.5" stroke-dasharray="4,4"/><line x1="512" y1="50" x2="512" y2="850" stroke="#666666" stroke-width="0.5" stroke-dasharray="4,4"/><line x1="584" y1="50" x2="584" y2="850" stroke="#666666" stroke-width="0.5" stroke-dasharray="4,4"/><line x1="656" y1="50" x2="656" y2="850" stroke="#666666" stroke-width="0.5" stroke-dasharray="4,4"/><line x1="728" y1="50" x2="728" y2="850" stroke="#666666" stroke-width="0.5" stroke-dasharray="4,4"/><line x1="800" y1="50" x2="800" y2="850" stroke="#666666" stroke-width="0.5" stroke-dasharray="4,4"/><line x1="872" y1="50" x2="872" y2="850" stroke="#666666" stroke-width="0.5" stroke-dasharray="4,4"/><line x1="944" y1="50" x2="944" y2="850" stroke="#666666" stroke-width="0.5" stroke-dasharray="4,4"/><line x1="1016" y1="50" x2="1016" y2="850" stroke="#666666" stroke-width="0.5" stroke-dasharray="4,4"/><line x1="1088" y1="50" x2="1088" y2="850" stroke="#666666" stroke-width="0.5" stroke-dasharray="4,4"/><line x1="1160" y1="50" x2="1160" y2="850" stroke="#666666" stroke-width="0.5" stroke-dasharray="4,4"/><line x1="1232" y1="50" x2="1232" y2="850" stroke="#666666" stroke-width="0.5" stroke-dasharray="4,4"/><line x1="1304" y1="50" x2="1304" y2="850" stroke="#666666" stroke-width="0.5" stroke-dasharray="4,4"/><line x1="1376" y1="50" x2="1376" y2="850" stroke="#666666" stroke-width="0.5" stroke-dasharray="4,4"/><line x1="1448" y1="50" x2="1448" y2="850" stroke="#666666" stroke-width="0.5" stroke-dasharray="4,4"/><line x1="1520" y1="50" x2="1520" y2="850" stroke="#666666" stroke-width="0.5" stroke-dasharray="4,4"/><line x1="1592" y1="50" x2="1592" y2="850" stroke="#666666" stroke-width="0.5" stroke-dasharray="4,4"/><line x1="1664" y1="50" x2="1664" y2="850" stroke="#666666" stroke-width="0.5" stroke-dasharray="4,4"/><line x1="1736" y1="50" x2="1736" y2="850" stroke="#666666" stroke-width="0.5" stroke-dasharray="4,4"/><line x1="1808" y1="50" x2="1808" y2="850" stroke="#666666" stroke-width="0.5" stroke-dasharray="4,4"/><line x1="1880" y1="50" x2="1880" y2="850" stroke="#666666" stroke-width="0.5" stroke-dasharray="4,4"/><text x="80" y="1040" text-anchor="middle" font-size="20" fill="black">09:30</text><text x="152" y="1040" text-anchor="middle" font-size="20" fill="black">10:00</text><text x="224" y="1040" text-anchor="middle" font-size="20" fill="black">10:30</text><text x="296" y="1040" text-anchor="middle" font-size="20" fill="black">11:00</text><text x="368" y="1040" text-anchor="middle" font-size="20" fill="black">11:30</text><text x="440" y="1040" text-anchor="middle" font-size="20" fill="black">12:00</text><text x="512" y="1040" text-anchor="middle" font-size="20" fill="black">12:30</text><text x="584" y="1040" text-anchor="middle" font-size="20" fill="black">13:00</text><text x="656" y="1040" text-anchor="middle" font-size="20" fill="black">13:30</text><text x="728" y="1040" text-anchor="middle" font-size="20" fill="black">14:00</text><text x="800" y="1040" text-anchor="middle" font-size="20" fill="black">14:30</text><text x="872" y="1040" text-anchor="middle" font-size="20" fill="black">15:00</text><text x="944" y="1040" text-anchor="middle" font-size="20" fill="black">15:30</text><text x="1016" y="1040" text-anchor="middle" font-size="20" fill="black">09:30</text><text x="1088" y="1040" text-anchor="middle" font-size="20" fill="black">10:00</text><text x="1160" y="1040" text-anchor="middle" font-size="20" fill="black">10:30</text><text x="1232" y="1040" text-anchor="middle" font-size="20" fill="black">11:00</text><text x="1304" y="1040" text-anchor="middle" font-size="20" fill="black">11:30</text><text x="1376" y="1040" text-anchor="middle" font-size="20" fill="black">12:00</text><text x="1448" y="1040" text-anchor="middle" font-size="20" fill="black">12:30</text><text x="1520" y="1040" text-anchor="middle" font-size="20" fill="black">13:00</text><text x="1592" y="1040" text-anchor="middle" font-size="20" fill="black">13:30</text><text x="1664" y="1040" text-anchor="middle" font-size="20" fill="black">14:00</text><text x="1736" y="1040" text-anchor="middle" font-size="20" fill="black">14:30</text><text x="1808" y="1040" text-anchor="middle" font-size="20" fill="black">15:00</text><text x="1880" y="1040" text-anchor="middle" font-size="20" fill="black">15:30</text><text x="1942" y="50" text-anchor="end" font-size="40" fill="#ef5350" font-weight="bold"> -0.10% (Thu)</text></svg>