<svg xmlns="http://www.w3.org/2000/svg" width="1992" height="1050"><rect width="100%" height="100%" fill="white"/><text x="42" y="854.0" text-anchor="end" font-size="20" fill="black">541</text><text x="42" y="739.7142857142858" text-anchor="end" font-size="20" fill="black">542</text><text x="42" y="625.4285714285714" text-anchor="end" font-size="20" fill="black">543</text><text x="42" y="511.14285714285717" text-anchor="end" font-size="20" fill="black">544</text><text x="42" y="396.8571428571429" text-anchor="end" font-size="20" fill="black">545</text><text x="42" y="282.57142857142856" text-anchor="end" font-size="20" fill="black">546</text><text x="42" y="168.28571428571433" text-anchor="end" font-size="20" fill="black">547</text><text x="42" y="54.0" text-anchor="end" font-size="20" fill="black">548</text><line x1="80" y1="693.2451439999958" x2="80" y2="831.1929920000044" stroke="#ef5350" stroke-width="2"/><rect x="76" y="732.0073497142793" width="8" height="45.60259428571953" fill="#ef5350"/><line x1="92" y1="749.6783542857104" x2="92" y2="879.0757154285659" stroke="#ef5350" stroke-width="2"/><rect x="88" y="775.3298137142857" width="8" height="60.423437714286706" fill="#ef5350"/><line x1="104" y1="791.2907222857159" x2="104" y2="888.196234285715" stroke="#26a69a" stroke-width="2"/><rect x="100" y="809.5317600000011" width="8" height="21.661232000003338" fill="#26a69a"/><line x1="116" y1="785.5903977142849" x2="116" y2="906.4372720000002" stroke="#ef5350" stroke-width="2"/><rect x="112" y="804.9715005714331" width="8" height="80.94460457142691" fill="#ef5350"/><line x1="128" y1="833.4731211428594" x2="128" y2="941.7792834285657" stroke="#26a69a" stroke-width="2"/><rect x="124" y="851.7141588571446" width="8" height="28.501621714284283" fill="#26a69a"/><line x1="140" y1="751.3884514285694" x2="140" y2="856.2744182857126" stroke="#26a69a" stroke-width="2"/><rect x="136" y="758.2288411428635" width="8" height="93.48531771428111" fill="#26a69a"/><line x1="152" y1="690.9650148571408" x2="152" y2="750.2483874285774" stroke="#26a69a" stroke-width="2"/><rect x="148" y="703.5057279999949" width="8" height="46.742659428582556" fill="#26a69a"/><line x1="164" y1="681.8444960000047" x2="164" y2="774.1897485714227" stroke="#ef5350" stroke-width="2"/><rect x="160" y="703.5057279999949" width="8" height="46.742659428582556" fill="#ef5350"/><line x1="176" y1="697.8054034285768" x2="176" y2="751.3884514285694" stroke="#26a69a" stroke-width="2"/><rect x="172" y="736.5676091428603" width="8" height="13.68077828571711" fill="#26a69a"/><line x1="188" y1="695.5252742857087" x2="188" y2="754.8086468571455" stroke="#26a69a" stroke-width="2"/><rect x="184" y="728.5871542857162" width="8" height="10.260583999999085" fill="#26a69a"/><line x1="200" y1="674.4340742857146" x2="200" y2="729.7272194285662" stroke="#26a69a" stroke-width="2"/><rect x="196" y="684.1246251428597" width="8" height="43.322465142851456" fill="#26a69a"/><line x1="212" y1="676.1441714285736" x2="212" y2="702.3656628571448" stroke="#ef5350" stroke-width="2"/><rect x="208" y="684.1246251428597" width="8" height="2.2801302857129713" fill="#ef5350"/><line x1="224" y1="615.7207337142868" x2="224" y2="694.3852091428588" stroke="#26a69a" stroke-width="2"/><rect x="220" y="656.7630685714253" width="8" height="31.921816000002423" fill="#26a69a"/><line x1="236" y1="654.4829394285703" x2="236" y2="685.2646902857097" stroke="#ef5350" stroke-width="2"/><rect x="232" y="659.0431988571383" width="8" height="9.120518857149136" fill="#ef5350"/><line x1="248" y1="667.0236525714245" x2="248" y2="709.206052571426" stroke="#ef5350" stroke-width="2"/><rect x="244" y="668.1637177142875" width="8" height="41.042334857138485" fill="#ef5350"/><line x1="260" y1="660.1832628571433" x2="260" y2="721.7467657142802" stroke="#26a69a" stroke-width="2"/><rect x="256" y="667.0236525714245" width="8" height="37.62214057143342" fill="#26a69a"/><line x1="272" y1="663.6034582857194" x2="272" y2="687.5448194285777" stroke="#26a69a" stroke-width="2"/><rect x="268" y="669.3037817142795" width="8" height="2" fill="#26a69a"/><line x1="284" y1="670.4438468571425" x2="284" y2="694.3852091428588" stroke="#ef5350" stroke-width="2"/><rect x="280" y="670.4438468571425" width="8" height="15.960908571430195" fill="#ef5350"/><line x1="296" y1="647.6425497142892" x2="296" y2="685.2646902857097" stroke="#26a69a" stroke-width="2"/><rect x="292" y="649.9226800000023" width="8" height="33.0618799999944" fill="#26a69a"/><line x1="308" y1="641.9422251428582" x2="308" y2="668.1637177142875" stroke="#26a69a" stroke-width="2"/><rect x="304" y="645.9324525714302" width="8" height="5.130291428564078" fill="#26a69a"/><line x1="320" y1="616.8607988571368" x2="320" y2="656.7630685714253" stroke="#26a69a" stroke-width="2"/><rect x="316" y="638.5220308571402" width="8" height="5.700324571430997" fill="#26a69a"/><line x1="332" y1="586.0790479999976" x2="332" y2="639.6620960000032" stroke="#26a69a" stroke-width="2"/><rect x="328" y="602.6099885714237" width="8" height="36.4820754285704" fill="#26a69a"/><line x1="344" y1="574.1083668571393" x2="344" y2="604.4340914285775" stroke="#26a69a" stroke-width="2"/><rect x="340" y="592.9194365714336" width="8" height="7.980453714286114" fill="#26a69a"/><line x1="356" y1="592.9194365714336" x2="356" y2="702.3656628571448" stroke="#ef5350" stroke-width="2"/><rect x="352" y="593.4894697142877" width="8" height="104.31593371428914" fill="#ef5350"/><line x1="368" y1="655.6230034285753" x2="368" y2="737.7076731428523" stroke="#26a69a" stroke-width="2"/><rect x="364" y="657.9031337142883" width="8" height="43.32246399999349" fill="#26a69a"/><line x1="380" y1="611.1604742857188" x2="380" y2="659.1572045714331" stroke="#26a69a" stroke-width="2"/><rect x="376" y="612.3005394285688" width="8" height="43.89249714286052" fill="#26a69a"/><line x1="392" y1="594.6295337142797" x2="392" y2="625.981317714286" stroke="#ef5350" stroke-width="2"/><rect x="388" y="612.3005394285688" width="8" height="9.120518857149136" fill="#ef5350"/><line x1="404" y1="579.2386582857164" x2="404" y2="619.1409280000048" stroke="#26a69a" stroke-width="2"/><rect x="400" y="610.1344159999956" width="8" height="9.006512000009252" fill="#26a69a"/><line x1="416" y1="556.4373611428632" x2="416" y2="628.261446857141" stroke="#26a69a" stroke-width="2"/><rect x="412" y="572.3982697142803" width="8" height="39.90226971428842" fill="#26a69a"/><line x1="428" y1="566.6979451428623" x2="428" y2="599.7598262857147" stroke="#ef5350" stroke-width="2"/><rect x="424" y="571.2582045714303" width="8" height="5.700324571431111" fill="#ef5350"/><line x1="440" y1="518.8152205714297" x2="440" y2="586.0790479999976" stroke="#26a69a" stroke-width="2"/><rect x="436" y="529.6458377142828" width="8" height="47.312691428578546" fill="#26a69a"/><line x1="452" y1="526.7956754285738" x2="452" y2="553.0171668571452" stroke="#ef5350" stroke-width="2"/><rect x="448" y="529.0758045714288" width="8" height="19.495109714288105" fill="#ef5350"/><line x1="464" y1="538.1963234285649" x2="464" y2="560.9976205714312" stroke="#ef5350" stroke-width="2"/><rect x="460" y="548.5709142857169" width="8" height="2.1661222857152325" fill="#ef5350"/><line x1="476" y1="543.896647999996" x2="476" y2="563.8477828571403" stroke="#ef5350" stroke-width="2"/><rect x="472" y="548.5709142857169" width="8" height="2" fill="#ef5350"/><line x1="488" y1="526.7956754285738" x2="488" y2="550.7370365714321" stroke="#ef5350" stroke-width="2"/><rect x="484" y="547.3168422857141" width="8" height="2" fill="#ef5350"/><line x1="500" y1="543.3266160000001" x2="500" y2="572.3982697142803" stroke="#ef5350" stroke-width="2"/><rect x="496" y="550.7370365714321" width="8" height="15.960908571430195" fill="#ef5350"/><line x1="512" y1="540.476453714291" x2="512" y2="575.8184639999984" stroke="#26a69a" stroke-width="2"/><rect x="508" y="560.9976205714312" width="8" height="5.700324571431111" fill="#26a69a"/><line x1="524" y1="556.4373611428632" x2="524" y2="603.1800205714327" stroke="#ef5350" stroke-width="2"/><rect x="520" y="559.8575554285682" width="8" height="30.781751999997482" fill="#ef5350"/><line x1="536" y1="579.2386582857164" x2="536" y2="602.0399554285697" stroke="#ef5350" stroke-width="2"/><rect x="532" y="590.6393074285656" width="8" height="11.400648000004026" fill="#ef5350"/><line x1="548" y1="580.3787234285664" x2="548" y2="612.3005394285688" stroke="#26a69a" stroke-width="2"/><rect x="544" y="592.9194365714336" width="8" height="6.840389714281059" fill="#26a69a"/><line x1="560" y1="573.5383337142853" x2="560" y2="602.0399554285697" stroke="#26a69a" stroke-width="2"/><rect x="556" y="596.3396308571387" width="8" height="2" fill="#26a69a"/><line x1="572" y1="584.9389828571475" x2="572" y2="606.6002148571378" stroke="#26a69a" stroke-width="2"/><rect x="568" y="584.9389828571475" width="8" height="11.400647999991179" fill="#26a69a"/><line x1="584" y1="555.2972960000002" x2="584" y2="610.0204091428558" stroke="#26a69a" stroke-width="2"/><rect x="580" y="556.4373611428632" width="8" height="34.201946285702434" fill="#26a69a"/><line x1="596" y1="542.756582857146" x2="596" y2="564.4178148571492" stroke="#26a69a" stroke-width="2"/><rect x="592" y="548.4569074285771" width="8" height="7.980453714286114" fill="#26a69a"/><line x1="608" y1="525.6556102857107" x2="608" y2="548.4569074285771" stroke="#26a69a" stroke-width="2"/><rect x="604" y="538.1963234285649" width="8" height="10.260584000012159" fill="#26a69a"/><line x1="620" y1="510.8347668571436" x2="620" y2="546.176777142851" stroke="#26a69a" stroke-width="2"/><rect x="616" y="533.6360639999968" width="8" height="3.4201942857180256" fill="#26a69a"/><line x1="632" y1="507.98460457143455" x2="632" y2="537.0562582857149" stroke="#26a69a" stroke-width="2"/><rect x="628" y="522.2354160000058" width="8" height="14.820842285709091" fill="#26a69a"/><line x1="644" y1="499.4341188571395" x2="644" y2="523.3754799999978" stroke="#26a69a" stroke-width="2"/><rect x="640" y="508.5546377142886" width="8" height="14.820842285709148" fill="#26a69a"/><line x1="656" y1="484.6132754285723" x2="656" y2="508.5546377142886" stroke="#26a69a" stroke-width="2"/><rect x="652" y="497.15398857142645" width="8" height="11.400649142862164" fill="#26a69a"/><line x1="668" y1="482.3331451428593" x2="668" y2="500.5741828571445" stroke="#26a69a" stroke-width="2"/><rect x="664" y="483.4732102857093" width="8" height="15.960908571430195" fill="#26a69a"/><line x1="680" y1="466.3722377142871" x2="680" y2="496.01392342857645" stroke="#26a69a" stroke-width="2"/><rect x="676" y="482.3331451428593" width="8" height="3.4201954285630904" fill="#26a69a"/><line x1="692" y1="478.91295085714125" x2="692" y2="502.8543131428575" stroke="#ef5350" stroke-width="2"/><rect x="688" y="482.3331451428593" width="8" height="18.2410377142852" fill="#ef5350"/><line x1="704" y1="484.6132754285723" x2="704" y2="503.99437828572053" stroke="#ef5350" stroke-width="2"/><rect x="700" y="499.4341188571395" width="8" height="2.280129142855003" fill="#ef5350"/><line x1="716" y1="478.91295085714125" x2="716" y2="505.1344422857125" stroke="#26a69a" stroke-width="2"/><rect x="712" y="499.4341188571395" width="8" height="2.280129142855003" fill="#26a69a"/><line x1="728" y1="475.49275657142323" x2="728" y2="509.8087085714334" stroke="#26a69a" stroke-width="2"/><rect x="724" y="478.91295085714125" width="8" height="15.960908571430195" fill="#26a69a"/><line x1="740" y1="417.34944914286257" x2="740" y2="481.1930811428543" stroke="#26a69a" stroke-width="2"/><rect x="736" y="435.59048685714777" width="8" height="45.602594285706516" fill="#26a69a"/><line x1="752" y1="393.40808685714626" x2="752" y2="448.13120000000185" stroke="#26a69a" stroke-width="2"/><rect x="748" y="404.8087348571373" width="8" height="29.64168685714742" fill="#26a69a"/><line x1="764" y1="374.02698399999804" x2="764" y2="413.35922171429047" stroke="#26a69a" stroke-width="2"/><rect x="760" y="401.50254742857214" width="8" height="3.4201942857180256" fill="#26a69a"/><line x1="776" y1="371.74685485714303" x2="776" y2="405.94880000000035" stroke="#26a69a" stroke-width="2"/><rect x="772" y="383.14750285714706" width="8" height="17.10097257142229" fill="#26a69a"/><line x1="788" y1="382.00743771428404" x2="788" y2="407.08886514286337" stroke="#ef5350" stroke-width="2"/><rect x="784" y="385.42763314286015" width="8" height="19.38110171427718" fill="#ef5350"/><line x1="800" y1="379.72730857142903" x2="800" y2="404.8087348571373" stroke="#26a69a" stroke-width="2"/><rect x="796" y="388.2777954285692" width="8" height="16.530939428568104" fill="#26a69a"/><line x1="812" y1="384.2875679999971" x2="812" y2="424.18983771428555" stroke="#ef5350" stroke-width="2"/><rect x="808" y="386.5676971428521" width="8" height="33.061881142865445" fill="#ef5350"/><line x1="824" y1="412.7891897142815" x2="824" y2="429.89016228571666" stroke="#26a69a" stroke-width="2"/><rect x="820" y="413.92925371428646" width="8" height="5.700324571431111" fill="#26a69a"/><line x1="836" y1="397.96834628571435" x2="836" y2="457.251718857138" stroke="#ef5350" stroke-width="2"/><rect x="832" y="413.92925371428646" width="8" height="25.08142742856637" fill="#ef5350"/><line x1="848" y1="421.90970857143054" x2="848" y2="448.13120000000185" stroke="#26a69a" stroke-width="2"/><rect x="844" y="426.46996799999863" width="8" height="11.970681142858211" fill="#26a69a"/><line x1="860" y1="420.7696434285675" x2="860" y2="451.55139428571994" stroke="#26a69a" stroke-width="2"/><rect x="856" y="425.32990285714857" width="8" height="4.560259428568088" fill="#26a69a"/><line x1="872" y1="404.8087348571373" x2="872" y2="429.89016228571666" stroke="#26a69a" stroke-width="2"/><rect x="868" y="419.62957828571757" width="8" height="4.560259428567974" fill="#26a69a"/><line x1="884" y1="416.20938399999955" x2="884" y2="441.2908102857208" stroke="#ef5350" stroke-width="2"/><rect x="880" y="417.2354422857097" width="8" height="6.954395428575822" fill="#ef5350"/><line x1="896" y1="412.7891897142815" x2="896" y2="444.71100571428383" stroke="#ef5350" stroke-width="2"/><rect x="892" y="424.18983771428555" width="8" height="20.521167999998283" fill="#ef5350"/><line x1="908" y1="418.48951314285455" x2="908" y2="459.531848000006" stroke="#26a69a" stroke-width="2"/><rect x="904" y="419.62957828571757" width="8" height="22.801297142853286" fill="#26a69a"/><line x1="920" y1="396.8282811428513" x2="920" y2="427.61003200000357" stroke="#26a69a" stroke-width="2"/><rect x="916" y="401.95857371428633" width="8" height="17.67100457143124" fill="#26a69a"/><line x1="932" y1="389.98789257142823" x2="932" y2="413.92925371428646" stroke="#ef5350" stroke-width="2"/><rect x="928" y="400.8185085714233" width="8" height="11.970681142858211" fill="#ef5350"/><line x1="944" y1="396.8282811428513" x2="944" y2="425.32990285714857" stroke="#26a69a" stroke-width="2"/><rect x="940" y="408.22893028571343" width="8" height="4.560259428568088" fill="#26a69a"/><line x1="956" y1="404.23870285714133" x2="956" y2="440.15074628571585" stroke="#ef5350" stroke-width="2"/><rect x="952" y="408.22893028571343" width="8" height="28.501620571426315" fill="#ef5350"/><line x1="968" y1="429.89016228571666" x2="968" y2="456.11165371428797" stroke="#ef5350" stroke-width="2"/><rect x="964" y="440.15074628571585" width="8" height="6.840388571422977" fill="#ef5350"/><line x1="980" y1="403.66867085714534" x2="980" y2="460.671913142856" stroke="#26a69a" stroke-width="2"/><rect x="976" y="405.94880000000035" width="8" height="42.18240000000151" fill="#26a69a"/><line x1="992" y1="354.6458811428628" x2="992" y2="446.99113485713883" stroke="#26a69a" stroke-width="2"/><rect x="988" y="388.8478274285652" width="8" height="21.661232000003224" fill="#26a69a"/><line x1="1004" y1="370.60678971428" x2="1004" y2="444.71100571428383" stroke="#ef5350" stroke-width="2"/><rect x="1000" y="389.98789257142823" width="8" height="15.960907428572114" fill="#ef5350"/><line x1="1016" y1="233.79900685714733" x2="1016" y2="346.66542742857666" stroke="#26a69a" stroke-width="2"/><rect x="1012" y="261.1605634285687" width="8" height="26.221491428571312" fill="#26a69a"/><line x1="1028" y1="192.7566719999959" x2="1028" y2="289.662185142853" stroke="#26a69a" stroke-width="2"/><rect x="1024" y="207.57751542857602" width="8" height="53.58304799999269" fill="#26a69a"/><line x1="1040" y1="206.437450285713" x2="1040" y2="262.30062857143173" stroke="#ef5350" stroke-width="2"/><rect x="1036" y="208.717579428568" width="8" height="9.120518857149136" fill="#ef5350"/><line x1="1052" y1="188.1964125714278" x2="1052" y2="220.11822857143022" stroke="#26a69a" stroke-width="2"/><rect x="1048" y="216.12800114285812" width="8" height="2" fill="#26a69a"/><line x1="1064" y1="187.05634742857785" x2="1064" y2="226.9586171428533" stroke="#26a69a" stroke-width="2"/><rect x="1060" y="192.7566719999959" width="8" height="18.2410377142852" fill="#26a69a"/><line x1="1076" y1="119.79252114285498" x2="1076" y2="193.8967371428589" stroke="#26a69a" stroke-width="2"/><rect x="1072" y="135.7534285714272" width="8" height="57.00324342856868" fill="#26a69a"/><line x1="1088" y1="39.98798057143313" x2="1088" y2="133.4732994285722" stroke="#26a69a" stroke-width="2"/><rect x="1084" y="57.08895428571327" width="8" height="76.38434514285893" fill="#26a69a"/><line x1="1100" y1="-1.0543542857183184" x2="1100" y2="63.92934285713636" stroke="#26a69a" stroke-width="2"/><rect x="1096" y="49.108499428569075" width="8" height="6.840389714294247" fill="#26a69a"/><line x1="1112" y1="-23.85565142857172" x2="1112" y2="76.47005600000352" stroke="#26a69a" stroke-width="2"/><rect x="1108" y="34.2876571428601" width="8" height="13.680778285716997" fill="#26a69a"/><line x1="1124" y1="10.346294857143675" x2="1124" y2="69.62966742856747" stroke="#ef5350" stroke-width="2"/><rect x="1120" y="35.42772114285208" width="8" height="20.521168000011244" fill="#ef5350"/><line x1="1136" y1="-5.614613714286406" x2="1136" y2="76.47005600000352" stroke="#ef5350" stroke-width="2"/><rect x="1132" y="53.66875885713728" width="8" height="18.2410377142852" fill="#ef5350"/><line x1="1148" y1="71.90979657142248" x2="1148" y2="116.37232685713695" stroke="#ef5350" stroke-width="2"/><rect x="1144" y="74.18992685714852" width="8" height="13.68077828570415" fill="#ef5350"/><line x1="1160" y1="80.46028342857551" x2="1160" y2="136.89349371429023" stroke="#ef5350" stroke-width="2"/><rect x="1156" y="87.87070514285267" width="8" height="15.960907428572114" fill="#ef5350"/><line x1="1172" y1="2.365841142857562" x2="1172" y2="124.35278057142307" stroke="#26a69a" stroke-width="2"/><rect x="1168" y="43.40817599999605" width="8" height="60.42343657142874" fill="#26a69a"/><line x1="1184" y1="26.307202285715903" x2="1184" y2="58.229018285718325" stroke="#26a69a" stroke-width="2"/><rect x="1180" y="41.12804571428319" width="8" height="3.4201942857180256" fill="#26a69a"/><line x1="1196" y1="33.147591999997076" x2="1196" y2="74.18992685714852" stroke="#ef5350" stroke-width="2"/><rect x="1192" y="37.13781942856917" width="8" height="25.651458285717126" fill="#ef5350"/><line x1="1208" y1="58.229018285718325" x2="1208" y2="168.81530971427958" stroke="#ef5350" stroke-width="2"/><rect x="1204" y="61.64921371428136" width="8" height="49.02278857143756" fill="#ef5350"/><line x1="1220" y1="107.25180800000089" x2="1220" y2="180.2159588571418" stroke="#ef5350" stroke-width="2"/><rect x="1216" y="109.5319371428559" width="8" height="41.042334857138485" fill="#ef5350"/><line x1="1232" y1="117.51239085714201" x2="1232" y2="185.91628228571483" stroke="#26a69a" stroke-width="2"/><rect x="1228" y="123.212715428573" width="8" height="27.361556571421374" fill="#26a69a"/><line x1="1244" y1="84.56451657142941" x2="1244" y2="132.9032674285762" stroke="#26a69a" stroke-width="2"/><rect x="1240" y="106.11174285713787" width="8" height="22.801297142866247" fill="#26a69a"/><line x1="1256" y1="75.32999199999847" x2="1256" y2="107.25180800000089" stroke="#26a69a" stroke-width="2"/><rect x="1252" y="98.70132114286082" width="8" height="6.840389714281059" fill="#26a69a"/><line x1="1268" y1="96.99122400000181" x2="1268" y2="149.43420685714432" stroke="#ef5350" stroke-width="2"/><rect x="1264" y="97.5612559999978" width="8" height="12.084687999997868" fill="#ef5350"/><line x1="1280" y1="69.62966742856747" x2="1280" y2="131.19316914285912" stroke="#26a69a" stroke-width="2"/><rect x="1276" y="70.7697325714305" width="8" height="41.042334857138485" fill="#26a69a"/><line x1="1292" y1="59.369083428568274" x2="1292" y2="89.0107702857157" stroke="#26a69a" stroke-width="2"/><rect x="1288" y="59.369083428568274" width="8" height="11.400649142862221" fill="#26a69a"/><line x1="1304" y1="18.32674857142979" x2="1304" y2="66.20947314286241" stroke="#26a69a" stroke-width="2"/><rect x="1300" y="19.46681371427985" width="8" height="39.90226971428842" fill="#26a69a"/><line x1="1316" y1="4.645970285712565" x2="1316" y2="29.72739771429201" stroke="#26a69a" stroke-width="2"/><rect x="1312" y="7.4961325714346" width="8" height="9.690550857132166" fill="#26a69a"/><line x1="1328" y1="-7.894742857141409" x2="1328" y2="24.0270731428609" stroke="#26a69a" stroke-width="2"/><rect x="1324" y="0.08571085714470428" width="8" height="7.980453714285886" fill="#26a69a"/><line x1="1340" y1="-15.875196571427523" x2="1340" y2="17.7567165714338" stroke="#26a69a" stroke-width="2"/><rect x="1336" y="-12.455002285709497" width="8" height="10.260583999999199" fill="#26a69a"/><line x1="1352" y1="-14.735132571422582" x2="1352" y2="17.186683428566766" stroke="#ef5350" stroke-width="2"/><rect x="1348" y="-13.025034285718448" width="8" height="11.97068000000013" fill="#ef5350"/><line x1="1364" y1="-6.754677714291347" x2="1364" y2="17.186683428566766" stroke="#ef5350" stroke-width="2"/><rect x="1360" y="-1.0543542857183184" width="8" height="14.82084342858002" fill="#ef5350"/><line x1="1376" y1="13.766489142861701" x2="1376" y2="47.968435428577095" stroke="#ef5350" stroke-width="2"/><rect x="1372" y="16.046619428574786" width="8" height="15.960907428572227" fill="#ef5350"/><line x1="1388" y1="17.186683428566766" x2="1388" y2="38.847916571428186" stroke="#26a69a" stroke-width="2"/><rect x="1384" y="30.86746171428399" width="8" height="4.560259428568088" fill="#26a69a"/><line x1="1400" y1="17.7567165714338" x2="1400" y2="43.40817599999605" stroke="#ef5350" stroke-width="2"/><rect x="1396" y="33.147591999997076" width="8" height="4.560259428568088" fill="#ef5350"/><line x1="1412" y1="33.147591999997076" x2="1412" y2="98.13128914285176" stroke="#ef5350" stroke-width="2"/><rect x="1408" y="34.2876571428601" width="8" height="53.58304799999257" fill="#ef5350"/><line x1="1424" y1="62.7892777142863" x2="1424" y2="98.13128914285176" stroke="#ef5350" stroke-width="2"/><rect x="1420" y="83.31044571428458" width="8" height="2" fill="#ef5350"/><line x1="1436" y1="42.26811085714621" x2="1436" y2="89.0107702857157" stroke="#26a69a" stroke-width="2"/><rect x="1432" y="47.968435428577095" width="8" height="37.62213942856249" fill="#26a69a"/><line x1="1448" y1="42.26811085714621" x2="1448" y2="65.06940799999938" stroke="#ef5350" stroke-width="2"/><rect x="1444" y="51.388629714282274" width="8" height="10.260583999999085" fill="#ef5350"/><line x1="1460" y1="60.5091485714313" x2="1460" y2="90.15083428572063" stroke="#ef5350" stroke-width="2"/><rect x="1456" y="60.5091485714313" width="8" height="17.100972571422176" fill="#ef5350"/><line x1="1472" y1="65.06940799999938" x2="1472" y2="112.95213142857392" stroke="#ef5350" stroke-width="2"/><rect x="1468" y="75.32999199999847" width="8" height="21.661232000003338" fill="#ef5350"/><line x1="1484" y1="90.15083428572063" x2="1484" y2="124.35278057142307" stroke="#ef5350" stroke-width="2"/><rect x="1480" y="98.13128914285176" width="8" height="7.980453714286114" fill="#ef5350"/><line x1="1496" y1="73.0498617142855" x2="1496" y2="122.07265028570998" stroke="#26a69a" stroke-width="2"/><rect x="1492" y="76.47005600000352" width="8" height="34.201946285715394" fill="#26a69a"/><line x1="1508" y1="46.82837028571407" x2="1508" y2="85.59057485713959" stroke="#26a69a" stroke-width="2"/><rect x="1504" y="55.94888914286332" width="8" height="20.5211668571402" fill="#26a69a"/><line x1="1520" y1="54.8088240000003" x2="1520" y2="108.39187200000583" stroke="#ef5350" stroke-width="2"/><rect x="1516" y="56.51892114285931" width="8" height="29.071653714280274" fill="#ef5350"/><line x1="1532" y1="69.62966742856747" x2="1532" y2="96.99122400000181" stroke="#26a69a" stroke-width="2"/><rect x="1528" y="69.62966742856747" width="8" height="19.38110285714822" fill="#26a69a"/><line x1="1544" y1="47.39840228571006" x2="1544" y2="70.7697325714305" stroke="#26a69a" stroke-width="2"/><rect x="1540" y="51.388629714282274" width="8" height="18.81106971429415" fill="#26a69a"/><line x1="1556" y1="51.388629714282274" x2="1556" y2="93.57102971428378" stroke="#ef5350" stroke-width="2"/><rect x="1552" y="52.5286948571453" width="8" height="27.36155657142126" fill="#ef5350"/><line x1="1568" y1="78.7501862857165" x2="1568" y2="132.33323428570918" stroke="#ef5350" stroke-width="2"/><rect x="1564" y="78.7501862857165" width="8" height="35.34201028570749" fill="#ef5350"/><line x1="1580" y1="101.55148342856978" x2="1580" y2="128.91304000000412" stroke="#ef5350" stroke-width="2"/><rect x="1576" y="113.522164571428" width="8" height="3.990226285714016" fill="#ef5350"/><line x1="1592" y1="98.13128914285176" x2="1592" y2="133.4732994285722" stroke="#ef5350" stroke-width="2"/><rect x="1588" y="116.37232685713695" width="8" height="13.680778285717224" fill="#ef5350"/><line x1="1604" y1="111.81206742856898" x2="1604" y2="149.43420685714432" stroke="#26a69a" stroke-width="2"/><rect x="1600" y="112.95213142857392" width="8" height="18.2410377142852" fill="#26a69a"/><line x1="1616" y1="91.2908994285707" x2="1616" y2="234.9390719999974" stroke="#ef5350" stroke-width="2"/><rect x="1612" y="112.95213142857392" width="8" height="58.1433085714317" fill="#ef5350"/><line x1="1628" y1="172.2355039999976" x2="1628" y2="301.06283314285713" stroke="#ef5350" stroke-width="2"/><rect x="1624" y="174.5156342857107" width="8" height="86.64492914285802" fill="#ef5350"/><line x1="1640" y1="226.9586171428533" x2="1640" y2="314.74361142857435" stroke="#26a69a" stroke-width="2"/><rect x="1636" y="261.1605634285687" width="8" height="7.980453714286114" fill="#26a69a"/><line x1="1652" y1="198.456996571427" x2="1652" y2="322.72406514286035" stroke="#26a69a" stroke-width="2"/><rect x="1648" y="213.27783885714905" width="8" height="44.46253028570163" fill="#26a69a"/><line x1="1664" y1="206.437450285713" x2="1664" y2="258.9944399999955" stroke="#ef5350" stroke-width="2"/><rect x="1660" y="212.1377748571441" width="8" height="25.08142628570829" fill="#ef5350"/><line x1="1676" y1="200.737125714282" x2="1676" y2="246.33972000000153" stroke="#ef5350" stroke-width="2"/><rect x="1672" y="231.51887657143436" width="8" height="3.4201954285630336" fill="#ef5350"/><line x1="1688" y1="220.11822857143022" x2="1688" y2="296.50257371428904" stroke="#ef5350" stroke-width="2"/><rect x="1684" y="231.51887657143436" width="8" height="49.02278971428257" fill="#ef5350"/><line x1="1700" y1="265.7208228571368" x2="1700" y2="376.307114285711" stroke="#ef5350" stroke-width="2"/><rect x="1696" y="285.101925714285" width="8" height="54.723113142855595" fill="#ef5350"/><line x1="1712" y1="313.60354628571133" x2="1712" y2="386.5676971428521" stroke="#26a69a" stroke-width="2"/><rect x="1708" y="332.41461714286356" width="8" height="5.1302914285639645" fill="#26a69a"/><line x1="1724" y1="310.18335200000627" x2="1724" y2="411.64912457143146" stroke="#ef5350" stroke-width="2"/><rect x="1720" y="334.69474628571857" width="8" height="75.81431314284987" fill="#ef5350"/><line x1="1736" y1="383.14750285714706" x2="1736" y2="459.531848000006" stroke="#26a69a" stroke-width="2"/><rect x="1732" y="401.3885405714324" width="8" height="6.840389714281059" fill="#26a69a"/><line x1="1748" y1="386.5676971428521" x2="1748" y2="501.7142479999945" stroke="#ef5350" stroke-width="2"/><rect x="1744" y="400.24847542856935" width="8" height="95.7654480000071" fill="#ef5350"/><line x1="1760" y1="484.6132754285723" x2="1760" y2="566.6979451428623" stroke="#26a69a" stroke-width="2"/><rect x="1756" y="485.75334057142237" width="8" height="14.820842285722108" fill="#26a69a"/><line x1="1772" y1="431.0302274285667" x2="1772" y2="500.5741828571445" stroke="#ef5350" stroke-width="2"/><rect x="1768" y="486.8934045714273" width="8" height="11.400649142862164" fill="#ef5350"/><line x1="1784" y1="501.7142479999945" x2="1784" y2="596.3396308571387" stroke="#ef5350" stroke-width="2"/><rect x="1780" y="501.7142479999945" width="8" height="61.563502857149786" fill="#ef5350"/><line x1="1796" y1="549.5969725714272" x2="1796" y2="596.3396308571387" stroke="#26a69a" stroke-width="2"/><rect x="1792" y="564.4178148571492" width="8" height="2.280130285713085" fill="#26a69a"/><line x1="1808" y1="477.7728857142912" x2="1808" y2="581.5187885714295" stroke="#26a69a" stroke-width="2"/><rect x="1804" y="490.3136000000034" width="8" height="79.80453942856383" fill="#26a69a"/><line x1="1820" y1="448.13120000000185" x2="1820" y2="526.7956754285738" stroke="#26a69a" stroke-width="2"/><rect x="1816" y="474.35269142857317" width="8" height="15.960908571430252" fill="#26a69a"/><line x1="1832" y1="409.3689942857184" x2="1832" y2="470.93249714285514" stroke="#26a69a" stroke-width="2"/><rect x="1828" y="417.34944914286257" width="8" height="53.58304799999257" fill="#26a69a"/><line x1="1844" y1="399.10841142857737" x2="1844" y2="453.83152457143296" stroke="#ef5350" stroke-width="2"/><rect x="1840" y="410.50905942856843" width="8" height="17.100972571435136" fill="#ef5350"/><line x1="1856" y1="384.2875679999971" x2="1856" y2="429.89016228571666" stroke="#26a69a" stroke-width="2"/><rect x="1852" y="384.2875679999971" width="8" height="45.60259428571953" fill="#26a69a"/><line x1="1868" y1="361.48627085714384" x2="1868" y2="415.0693188571365" stroke="#ef5350" stroke-width="2"/><rect x="1864" y="385.42763314286015" width="8" height="15.960907428572227" fill="#ef5350"/><line x1="1880" y1="345.52536228571364" x2="1880" y2="399.10841142857737" stroke="#26a69a" stroke-width="2"/><rect x="1876" y="352.3657519999948" width="8" height="46.742659428582556" fill="#26a69a"/><line x1="1892" y1="322.72406514286035" x2="1892" y2="367.18659542857495" stroke="#26a69a" stroke-width="2"/><rect x="1888" y="330.70452000000455" width="8" height="22.801297142853286" fill="#26a69a"/><line x1="1904" y1="295.362508571426" x2="1904" y2="325.00419542857344" stroke="#26a69a" stroke-width="2"/><rect x="1900" y="309.04328685714324" width="8" height="15.960908571430195" fill="#26a69a"/><line x1="1916" y1="269.1410171428548" x2="1916" y2="313.60354628571133" stroke="#ef5350" stroke-width="2"/><rect x="1912" y="309.04328685714324" width="8" height="2" fill="#ef5350"/><line x1="1928" y1="204.15732000000003" x2="1928" y2="320.44393600000535" stroke="#26a69a" stroke-width="2"/><rect x="1924" y="222.39835771428523" width="8" height="88.9250594285711" fill="#26a69a"/><line x1="1940" y1="159.69479085714352" x2="1940" y2="226.9586171428533" stroke="#26a69a" stroke-width="2"/><rect x="1936" y="179.07589371429174" width="8" height="43.32246399999349" fill="#26a69a"/><rect x="75" y="955.984022058785" width="10" height="64.01597794121506" fill="#ef5350" opacity="0.9"/><rect x="87" y="977.2161268170453" width="10" height="42.78387318295472" fill="#ef5350" opacity="0.9"/><rect x="99" y="983.0883347399653" width="10" height="36.91166526003474" fill="#26a69a" opacity="0.9"/><rect x="111" y="962.8595692036715" width="10" height="57.140430796328474" fill="#ef5350" opacity="0.9"/><rect x="123" y="956.2891126685993" width="10" height="63.71088733140073" fill="#26a69a" opacity="0.9"/><rect x="135" y="976.4718787186195" width="10" height="43.52812128138055" fill="#26a69a" opacity="0.9"/><rect x="147" y="985.0415436955803" width="10" height="34.958456304419656" fill="#26a69a" opacity="0.9"/><rect x="159" y="970.1003601327302" width="10" height="49.8996398672698" fill="#ef5350" opacity="0.9"/><rect x="171" y="996.9620943264679" width="10" height="23.037905673532123" fill="#26a69a" opacity="0.9"/><rect x="183" y="998.3813947149081" width="10" height="21.618605285091917" fill="#26a69a" opacity="0.9"/><rect x="195" y="995.1846269978979" width="10" height="24.815373002102092" fill="#26a69a" opacity="0.9"/><rect x="207" y="990.9778363728815" width="10" height="29.022163627118516" fill="#ef5350" opacity="0.9"/><rect x="219" y="974.942887247527" width="10" height="45.05711275247302" fill="#26a69a" opacity="0.9"/><rect x="231" y="996.7985405974953" width="10" height="23.201459402504724" fill="#ef5350" opacity="0.9"/><rect x="243" y="987.3945943395731" width="10" height="32.60540566042687" fill="#ef5350" opacity="0.9"/><rect x="255" y="996.7552932172381" width="10" height="23.24470678276191" fill="#26a69a" opacity="0.9"/><rect x="267" y="1004.5976158898739" width="10" height="15.40238411012615" fill="#26a69a" opacity="0.9"/><rect x="279" y="1003.736993022756" width="10" height="16.263006977244004" fill="#ef5350" opacity="0.9"/><rect x="291" y="998.2032941398489" width="10" height="21.796705860151064" fill="#26a69a" opacity="0.9"/><rect x="303" y="1001.1519791573837" width="10" height="18.84802084261628" fill="#26a69a" opacity="0.9"/><rect x="315" y="991.748426057464" width="10" height="28.25157394253597" fill="#26a69a" opacity="0.9"/><rect x="327" y="992.4655462537285" width="10" height="27.534453746271538" fill="#26a69a" opacity="0.9"/><rect x="339" y="994.0535114251716" width="10" height="25.946488574828436" fill="#26a69a" opacity="0.9"/><rect x="351" y="982.9924041873949" width="10" height="37.00759581260513" fill="#ef5350" opacity="0.9"/><rect x="363" y="979.5801858851034" width="10" height="40.41981411489655" fill="#26a69a" opacity="0.9"/><rect x="375" y="992.0232435010982" width="10" height="27.97675649890175" fill="#26a69a" opacity="0.9"/><rect x="387" y="1002.2253005037664" width="10" height="17.774699496233552" fill="#ef5350" opacity="0.9"/><rect x="399" y="995.2601133343468" width="10" height="24.739886665653216" fill="#26a69a" opacity="0.9"/><rect x="411" y="988.8976373825113" width="10" height="31.102362617488666" fill="#26a69a" opacity="0.9"/><rect x="423" y="999.028139628754" width="10" height="20.971860371245953" fill="#ef5350" opacity="0.9"/><rect x="435" y="983.4225190419526" width="10" height="36.57748095804743" fill="#26a69a" opacity="0.9"/><rect x="447" y="1000.4737816033507" width="10" height="19.526218396649256" fill="#ef5350" opacity="0.9"/><rect x="459" y="1001.9504830601322" width="10" height="18.04951693986777" fill="#ef5350" opacity="0.9"/><rect x="471" y="1004.4580447990438" width="10" height="15.541955200956181" fill="#ef5350" opacity="0.9"/><rect x="483" y="999.4397760572019" width="10" height="20.560223942798075" fill="#ef5350" opacity="0.9"/><rect x="495" y="1001.4114634389268" width="10" height="18.58853656107317" fill="#ef5350" opacity="0.9"/><rect x="507" y="997.0434780329518" width="10" height="22.95652196704816" fill="#26a69a" opacity="0.9"/><rect x="519" y="993.1146501155885" width="10" height="26.88534988441154" fill="#ef5350" opacity="0.9"/><rect x="531" y="1007.4912587870814" width="10" height="12.508741212918608" fill="#ef5350" opacity="0.9"/><rect x="543" y="1007.0265460283179" width="10" height="12.973453971682147" fill="#26a69a" opacity="0.9"/><rect x="555" y="1003.8411798933755" width="10" height="16.15882010662449" fill="#26a69a" opacity="0.9"/><rect x="567" y="1008.5303753872606" width="10" height="11.46962461273938" fill="#26a69a" opacity="0.9"/><rect x="579" y="997.72757295702" width="10" height="22.272427042979984" fill="#26a69a" opacity="0.9"/><rect x="591" y="1002.4501868811038" width="10" height="17.549813118896168" fill="#26a69a" opacity="0.9"/><rect x="603" y="998.8181932555055" width="10" height="21.181806744494452" fill="#26a69a" opacity="0.9"/><rect x="615" y="993.5231412800176" width="10" height="26.476858719982374" fill="#26a69a" opacity="0.9"/><rect x="627" y="1002.1564978533573" width="10" height="17.843502146642663" fill="#26a69a" opacity="0.9"/><rect x="639" y="1003.7507535528379" width="10" height="16.249246447162136" fill="#26a69a" opacity="0.9"/><rect x="651" y="992.7729958115567" width="10" height="27.22700418844329" fill="#26a69a" opacity="0.9"/><rect x="663" y="999.2640344301568" width="10" height="20.735965569843188" fill="#26a69a" opacity="0.9"/><rect x="675" y="995.6100239564277" width="10" height="24.389976043572346" fill="#26a69a" opacity="0.9"/><rect x="687" y="1004.0137762564019" width="10" height="15.986223743598089" fill="#ef5350" opacity="0.9"/><rect x="699" y="1003.5034571693673" width="10" height="16.496542830632734" fill="#ef5350" opacity="0.9"/><rect x="711" y="996.742319003161" width="10" height="23.257680996838985" fill="#26a69a" opacity="0.9"/><rect x="723" y="999.9776162044002" width="10" height="20.022383795599808" fill="#26a69a" opacity="0.9"/><rect x="735" y="953.6443387868717" width="10" height="66.35566121312831" fill="#26a69a" opacity="0.9"/><rect x="747" y="991.7307339473588" width="10" height="28.26926605264123" fill="#26a69a" opacity="0.9"/><rect x="759" y="991.0922453515619" width="10" height="28.907754648438072" fill="#26a69a" opacity="0.9"/><rect x="771" y="999.1126685992567" width="10" height="20.887331400743278" fill="#26a69a" opacity="0.9"/><rect x="783" y="995.9249435163003" width="10" height="24.075056483699655" fill="#ef5350" opacity="0.9"/><rect x="795" y="1003.4354408349627" width="10" height="16.56455916503728" fill="#26a69a" opacity="0.9"/><rect x="807" y="1001.5435645277124" width="10" height="18.45643547228758" fill="#ef5350" opacity="0.9"/><rect x="819" y="1005.9976515361993" width="10" height="14.002348463800672" fill="#26a69a" opacity="0.9"/><rect x="831" y="999.5349202937676" width="10" height="20.46507970623236" fill="#ef5350" opacity="0.9"/><rect x="843" y="1004.2044578875358" width="10" height="15.795542112464204" fill="#26a69a" opacity="0.9"/><rect x="855" y="991.7338792113775" width="10" height="28.266120788622516" fill="#26a69a" opacity="0.9"/><rect x="867" y="1002.5193826895153" width="10" height="17.480617310484718" fill="#26a69a" opacity="0.9"/><rect x="879" y="992.8877979482395" width="10" height="27.112202051760505" fill="#ef5350" opacity="0.9"/><rect x="891" y="992.3354109549546" width="10" height="27.66458904504543" fill="#ef5350" opacity="0.9"/><rect x="903" y="990.4513978077509" width="10" height="29.548602192249064" fill="#26a69a" opacity="0.9"/><rect x="915" y="989.7751660437297" width="10" height="30.224833956270345" fill="#26a69a" opacity="0.9"/><rect x="927" y="995.1327301415893" width="10" height="24.867269858410737" fill="#ef5350" opacity="0.9"/><rect x="939" y="998.095175689206" width="10" height="21.90482431079397" fill="#26a69a" opacity="0.9"/><rect x="951" y="987.5463533284757" width="10" height="32.453646671524325" fill="#ef5350" opacity="0.9"/><rect x="963" y="977.8196243506341" width="10" height="42.18037564936594" fill="#ef5350" opacity="0.9"/><rect x="975" y="987.3497743273067" width="10" height="32.650225672693296" fill="#26a69a" opacity="0.9"/><rect x="987" y="941.1926316948255" width="10" height="78.80736830517446" fill="#26a69a" opacity="0.9"/><rect x="999" y="860.0" width="10" height="160.0" fill="#ef5350" opacity="0.9"/><rect x="1011" y="942.5875562871207" width="10" height="77.41244371287928" fill="#26a69a" opacity="0.9"/><rect x="1023" y="990.2945277648181" width="10" height="29.7054722351819" fill="#26a69a" opacity="0.9"/><rect x="1035" y="990.5335678302396" width="10" height="29.466432169760424" fill="#ef5350" opacity="0.9"/><rect x="1047" y="994.3589951929881" width="10" height="25.641004807011882" fill="#26a69a" opacity="0.9"/><rect x="1059" y="995.3717702070107" width="10" height="24.62822979298926" fill="#26a69a" opacity="0.9"/><rect x="1071" y="984.7057867615838" width="10" height="35.294213238416205" fill="#26a69a" opacity="0.9"/><rect x="1083" y="966.7891834370397" width="10" height="53.210816562960304" fill="#26a69a" opacity="0.9"/><rect x="1095" y="969.580212095637" width="10" height="50.419787904363034" fill="#26a69a" opacity="0.9"/><rect x="1107" y="973.3474520740396" width="10" height="46.65254792596045" fill="#26a69a" opacity="0.9"/><rect x="1119" y="983.6827896395004" width="10" height="36.317210360499644" fill="#ef5350" opacity="0.9"/><rect x="1131" y="982.6196904011784" width="10" height="37.380309598821555" fill="#ef5350" opacity="0.9"/><rect x="1143" y="984.8146915282314" width="10" height="35.18530847176862" fill="#ef5350" opacity="0.9"/><rect x="1155" y="996.5917394882655" width="10" height="23.40826051173451" fill="#ef5350" opacity="0.9"/><rect x="1167" y="971.7870079627601" width="10" height="48.21299203723993" fill="#26a69a" opacity="0.9"/><rect x="1179" y="994.5760184102787" width="10" height="25.42398158972128" fill="#26a69a" opacity="0.9"/><rect x="1191" y="999.1913001997243" width="10" height="20.80869980027569" fill="#ef5350" opacity="0.9"/><rect x="1203" y="980.499782452572" width="10" height="39.50021754742795" fill="#ef5350" opacity="0.9"/><rect x="1215" y="984.8221615302758" width="10" height="35.17783846972418" fill="#ef5350" opacity="0.9"/><rect x="1227" y="996.0782751372121" width="10" height="23.92172486278787" fill="#26a69a" opacity="0.9"/><rect x="1239" y="993.0371979891279" width="10" height="26.96280201087211" fill="#26a69a" opacity="0.9"/><rect x="1251" y="1002.9943175563395" width="10" height="17.005682443660476" fill="#26a69a" opacity="0.9"/><rect x="1263" y="997.421696031201" width="10" height="22.57830396879899" fill="#ef5350" opacity="0.9"/><rect x="1275" y="1002.4545116191294" width="10" height="17.54548838087055" fill="#26a69a" opacity="0.9"/><rect x="1287" y="997.6587703066108" width="10" height="22.34122969338921" fill="#26a69a" opacity="0.9"/><rect x="1299" y="989.3033764409241" width="10" height="30.696623559075874" fill="#26a69a" opacity="0.9"/><rect x="1311" y="991.4885486179186" width="10" height="28.511451382081418" fill="#26a69a" opacity="0.9"/><rect x="1323" y="995.4008638991838" width="10" height="24.599136100816168" fill="#26a69a" opacity="0.9"/><rect x="1335" y="1002.1726173314531" width="10" height="17.827382668546875" fill="#26a69a" opacity="0.9"/><rect x="1347" y="1002.9263012219351" width="10" height="17.07369877806491" fill="#ef5350" opacity="0.9"/><rect x="1359" y="1001.0163396465772" width="10" height="18.983660353422806" fill="#ef5350" opacity="0.9"/><rect x="1371" y="990.1958451062313" width="10" height="29.80415489376867" fill="#ef5350" opacity="0.9"/><rect x="1383" y="1001.7955788072111" width="10" height="18.204421192788914" fill="#26a69a" opacity="0.9"/><rect x="1395" y="1001.1700644254913" width="10" height="18.82993557450868" fill="#ef5350" opacity="0.9"/><rect x="1407" y="991.0010326950195" width="10" height="28.99896730498051" fill="#ef5350" opacity="0.9"/><rect x="1419" y="995.7916629535077" width="10" height="24.20833704649226" fill="#ef5350" opacity="0.9"/><rect x="1431" y="994.0409303690967" width="10" height="25.959069630903286" fill="#26a69a" opacity="0.9"/><rect x="1443" y="1002.2827015721078" width="10" height="17.71729842789216" fill="#ef5350" opacity="0.9"/><rect x="1455" y="998.092816741192" width="10" height="21.907183258808004" fill="#ef5350" opacity="0.9"/><rect x="1467" y="996.2272820200982" width="10" height="23.772717979901813" fill="#ef5350" opacity="0.9"/><rect x="1479" y="996.5473126340014" width="10" height="23.4526873659986" fill="#ef5350" opacity="0.9"/><rect x="1491" y="990.4970041360222" width="10" height="29.502995863977844" fill="#26a69a" opacity="0.9"/><rect x="1503" y="970.8921803494388" width="10" height="49.10781965056117" fill="#26a69a" opacity="0.9"/><rect x="1515" y="993.7908818796097" width="10" height="26.209118120390258" fill="#ef5350" opacity="0.9"/><rect x="1527" y="1003.0792396848445" width="10" height="16.920760315155462" fill="#26a69a" opacity="0.9"/><rect x="1539" y="996.067659871149" width="10" height="23.932340128851024" fill="#26a69a" opacity="0.9"/><rect x="1551" y="999.9725051503698" width="10" height="20.027494849630216" fill="#ef5350" opacity="0.9"/><rect x="1563" y="1000.8028548513076" width="10" height="19.197145148692357" fill="#ef5350" opacity="0.9"/><rect x="1575" y="990.1109229777263" width="10" height="29.889077022273682" fill="#ef5350" opacity="0.9"/><rect x="1587" y="996.6279100244807" width="10" height="23.372089975519316" fill="#ef5350" opacity="0.9"/><rect x="1599" y="1002.6121679780671" width="10" height="17.387832021932923" fill="#26a69a" opacity="0.9"/><rect x="1611" y="967.917940061752" width="10" height="52.082059938247994" fill="#ef5350" opacity="0.9"/><rect x="1623" y="954.4652526957534" width="10" height="65.5347473042466" fill="#ef5350" opacity="0.9"/><rect x="1635" y="975.0863899183804" width="10" height="44.913610081619595" fill="#26a69a" opacity="0.9"/><rect x="1647" y="967.9301279598245" width="10" height="52.06987204017548" fill="#26a69a" opacity="0.9"/><rect x="1659" y="986.6853373033555" width="10" height="33.31466269664452" fill="#ef5350" opacity="0.9"/><rect x="1671" y="992.0657045653508" width="10" height="27.934295434649243" fill="#ef5350" opacity="0.9"/><rect x="1683" y="994.8704937540299" width="10" height="25.129506245970106" fill="#ef5350" opacity="0.9"/><rect x="1695" y="973.635243731751" width="10" height="46.36475626824904" fill="#ef5350" opacity="0.9"/><rect x="1707" y="967.916760587745" width="10" height="52.08323941225501" fill="#26a69a" opacity="0.9"/><rect x="1719" y="980.6039693231916" width="10" height="39.39603067680844" fill="#ef5350" opacity="0.9"/><rect x="1731" y="957.6282088245624" width="10" height="62.37179117543758" fill="#26a69a" opacity="0.9"/><rect x="1743" y="969.3128646540472" width="10" height="50.68713534595281" fill="#ef5350" opacity="0.9"/><rect x="1755" y="941.998212441616" width="10" height="78.00178755838397" fill="#26a69a" opacity="0.9"/><rect x="1767" y="977.1492899566477" width="10" height="42.85071004335225" fill="#ef5350" opacity="0.9"/><rect x="1779" y="977.5294737449086" width="10" height="42.470526255091386" fill="#ef5350" opacity="0.9"/><rect x="1791" y="968.6405644700492" width="10" height="51.359435529950815" fill="#26a69a" opacity="0.9"/><rect x="1803" y="986.3574435294056" width="10" height="33.6425564705944" fill="#26a69a" opacity="0.9"/><rect x="1815" y="979.4960500726032" width="10" height="40.503949927396775" fill="#26a69a" opacity="0.9"/><rect x="1827" y="994.7289568731882" width="10" height="25.271043126811833" fill="#26a69a" opacity="0.9"/><rect x="1839" y="988.4655567379418" width="10" height="31.534443262058176" fill="#ef5350" opacity="0.9"/><rect x="1851" y="999.5144760776461" width="10" height="20.485523922353877" fill="#26a69a" opacity="0.9"/><rect x="1863" y="994.9310400863899" width="10" height="25.068959913610115" fill="#ef5350" opacity="0.9"/><rect x="1875" y="989.4523833238102" width="10" height="30.54761667618982" fill="#26a69a" opacity="0.9"/><rect x="1887" y="988.7954163019034" width="10" height="31.2045836980966" fill="#26a69a" opacity="0.9"/><rect x="1899" y="992.7788931815918" width="10" height="27.221106818408202" fill="#26a69a" opacity="0.9"/><rect x="1911" y="973.9702143497428" width="10" height="46.02978565025717" fill="#ef5350" opacity="0.9"/><rect x="1923" y="940.7247736720433" width="10" height="79.27522632795672" fill="#26a69a" opacity="0.9"/><rect x="1935" y="877.1751073321346" width="10" height="142.82489266786536" fill="#26a69a" opacity="0.9"/><rect x="1004" y="287.38205485714" width="12" height="118.56674514286033" fill="#00ff00" opacity="0.50"/><polyline points="320,719.5195675619029,332,708.3853219437644,344,697.3885709559258,356,697.4282692866577,368,693.663970660717,380,685.9150724481359,392,679.772785385051,404,673.1405597293295,416,663.5460559183749,428,655.2996247969012,440,643.3325974556933,452,634.3076752490301,464,626.3485668035432,476,619.0497488494657,488,612.3266210950923,500,607.9810329091613,512,603.5064222103366,524,602.2809827073096,536,602.2580277283851,548,601.3686380943909,560,600.8896850241789,572,599.37057053208,584,595.2816934473958,596,590.8221900170377,608,585.8102027228987,620,580.8412371302438,632,575.2597303559273,644,568.906864390062,656,562.0732571692445,668,554.587538418426,680,547.7061676302842,692,543.217407175702,704,539.2647253494423,716,535.4713342549335,728,530.084821550385,740,521.0853611034119,752,510.0113966989998,764,499.6772205780092,776,488.5791522236364,788,480.60101723635205,800,471.80832944513895,812,466.8389245728057,824,461.7999083005608,836,459.62950571411056,848,456.4714545032465,860,453.50559244171956,872,450.279305379237,884,447.7945941730468,896,447.50091908173476,908,444.84650567258416,920,440.7619407241717,932,438.0978691994252,944,435.2532083505009,956,435.39390763684685,968,436.4984054673447,980,433.588919232365,992,429.3278628701046,1004,427.10128545390296,1016,411.2974071657716,1028,391.8955127146156,1040,375.3186161023352,1052,360.15760515380987,1064,344.21465913915847,1076,324.36120860889525,1088,298.9067081971631,1100,275.1164026001528,1112,252.1803316042159,1124,233.491622798374,1136,218.10287744341883,1148,205.6998134147891,1160,195.99808000113103,1172,181.46570819149667,1184,168.10021652700016,1196,158.0706033067405,1208,153.55645082854608,1220,153.27243379724678,1232,150.40960347641885,1244,146.1907596079202,1256,141.66795594458438,1268,138.6182405212951,1280,132.1564778593971,1292,125.2243450564622,1304,115.15219921435084,1316,104.89924048645537,1328,94.91699956937998,1340,84.69109463080065,1352,76.524861400659,1364,70.54787356658255,1376,66.87736435616375,1388,63.44784981884004,1400,60.99642140071796,1412,63.555876995204585,1424,65.54584212491523,1436,63.87180339193685,1448,63.66012818454169,1460,64.9886989424756,1472,68.03655847176867,1484,71.66276650846805,1496,72.12060360290184,1508,70.58044032099656,1520,72.0099769434845,1532,71.78328079921164,1544,69.84093307682997,1556,70.79801101508565,1568,74.9212667823615,1580,78.97756431329981,1592,83.8419015351584,1604,86.61430438214666,1616,94.66012682193775,1628,110.51731126066704,1640,124.86428765761434,1652,133.28462586709327,1664,143.18315684573201,1676,151.9218154318488,1688,164.17132503698406,1700,180.90025016270897,1712,195.33018987510457,1724,215.82341554686923,1736,233.49628459683504,1748,258.4979644855723,1760,280.14133363661006,1772,300.9177831678244,1784,325.9044467572884,1796,348.62000562394053,1808,362.1146336597511,1820,372.8039724948758,1832,377.0463988423087,1844,381.86198295256224,1856,382.0929910523124,1868,383.93066243508133,1880,380.9244804888814,1892,376.14162710898586,1904,369.75130898976465,1916,364.07817022883523,1928,350.5848547512609,1940,334.25066798582907" fill="none" stroke="#0090ff" stroke-width="2"/><line x1="80" y1="50" x2="80" y2="850" stroke="#666666" stroke-width="0.5" stroke-dasharray="4,4"/><line x1="152" y1="50" x2="152" y2="850" stroke="#666666" stroke-width="0.5" stroke-dasharray="4,4"/><line x1="224" y1="50" x2="224" y2="850" stroke="#666666" stroke-width="0.5" stroke-dasharray="4,4"/><line x1="296" y1="50" x2="296" y2="850" stroke="#666666" stroke-width="0.5" stroke-dasharray="4,4"/><line x1="368" y1="50" x2="368" y2="850" stroke="#666666" stroke-width="0.5" stroke-dasharray="4,4"/><line x1="440" y1="50" x2="440" y2="850" stroke="#666666" stroke-width="0.5" stroke-dasharray="4,4"/><line x1="512" y1="50" x2="512" y2="850" stroke="#666666" stroke-width="0.5" stroke-dasharray="4,4"/><line x1="584" y1="50" x2="584" y2="850" stroke="#666666" stroke-width="0.5" stroke-dasharray="4,4"/><line x1="656" y1="50" x2="656" y2="850" stroke="#666666" stroke-width="0.5" stroke-dasharray="4,4"/><line x1="728" y1="50" x2="728" y2="850" stroke="#666666" stroke-width="0.5" stroke-dasharray="4,4"/><line x1="800" y1="50" x2="800" y2="850" stroke="#666666" stroke-width="0.5" stroke-dasharray="4,4"/><line x1="872" y1="50" x2="872" y2="850" stroke="#666666" stroke-width="0.5" stroke-dasharray="4,4"/><line x1="944" y1="50" x2="944" y2="850" stroke="#666666" stroke-width="0.5" stroke-dasharray="4,4"/><line x1="1016" y1="50" x2="1016" y2="850" stroke="#666666" stroke-width="0.5" stroke-dasharray="4,4"/><line x1="1088" y1="50" x2="1088" y2="850" stroke="#666666" stroke-width="0.5" stroke-dasharray="4,4"/><line x1="1160" y1="50" x2="1160" y2="850" stroke="#666666" stroke-width="0.5" stroke-dasharray="4,4"/><line x1="1232" y1="50" x2="1232" y2="850" stroke="#666666" stroke-width="0.5" stroke-dasharray="4,4"/><line x1="1304" y1="50" x2="1304" y2="850" stroke="#666666" stroke-width="0.5" stroke-dasharray="4,4"/><line x1="1376" y1="50" x2="1376" y2="850" stroke="#666666" stroke-width="0.5" stroke-dasharray="4,4"/><line x1="1448" y1="50" x2="1448" y2="850" stroke="#666666" stroke-width="0.5" stroke-dasharray="4,4"/><line x1="1520" y1="50" x2="1520" y2="850" stroke="#666666" stroke-width="0.5" stroke-dasharray="4,4"/><line x1="1592" y1="50" x2="1592" y2="850" stroke="#666666" stroke-width="0.5" stroke-dasharray="4,4"/><line x1="1664" y1="50" x2="1664" y2="850" stroke="#666666" stroke-width="0.5" stroke-dasharray="4,4"/><line x1="1736" y1="50" x2="1736" y2="850" stroke="#666666" stroke-width="0.5" stroke-dasharray="4,4"/><line x1="1808" y1="50" x2="1808" y2="850" stroke="#666666" stroke-width="0.5" stroke-dasharray="4,4"/><line x1="1880" y1="50" x2="1880" y2="850" stroke="#666666" stroke-width="0.5" stroke-dasharray="4,4"/><text x="80" y="1040" text-anchor="middle" font-size="20" fill="black">09:30</text><text x="152" y="1040" text-anchor="middle" font-size="20" fill="black">10:00</text><text x="224" y="1040" text-anchor="middle" font-size="20" fill="black">10:30</text><text x="296" y="1040" text-anchor="middle" font-size="20" fill="black">11:00</text><text x="368" y="1040" text-anchor="middle" font-size="20" fill="black">11:30</text><text x="440" y="1040" text-anchor="middle" font-size="20" fill="black">12:00</text><text x="512" y="1040" text-anchor="middle" font-size="20" fill="black">12:30</text><text x="584" y="1040" text-anchor="middle" font-size="20" fill="black">13:00</text><text x="656" y="1040" text-anchor="middle" font-size="20" fill="black">13:30</text><text x="728" y="1040" text-anchor="middle" font-size="20" fill="black">14:00</text><text x="800" y="1040" text-anchor="middle" font-size="20" fill="black">14:30</text><text x="872" y="1040" text-anchor="middle" font-size="20" fill="black">15:00</text><text x="944" y="1040" text-anchor="middle" font-size="20" fill="black">15:30</text><text x="1016" y="1040" text-anchor="middle" font-size="20" fill="black">09:30</text><text x="1088" y="1040" text-anchor="middle" font-size="20" fill="black">10:00</text><text x="1160" y="1040" text-anchor="middle" font-size="20" fill="black">10:30</text><text x="1232" y="1040" text-anchor="middle" font-size="20" fill="black">11:00</text><text x="1304" y="1040" text-anchor="middle" font-size="20" fill="black">11:30</text><text x="1376" y="1040" text-anchor="middle" font-size="20" fill="black">12:00</text><text x="1448" y="1040" text-anchor="middle" font-size="20" fill="black">12:30</text><text x="1520" y="1040" text-anchor="middle" font-size="20" fill="black">13:00</text><text x="1592" y="1040" text-anchor="middle" font-size="20" fill="black">13:30</text><text x="1664" y="1040" text-anchor="middle" font-size="20" fill="black">14:00</text><text x="1736" y="1040" text-anchor="middle" font-size="20" fill="black">14:30</text><text x="1808" y="1040" text-anchor="middle" font-size="20" fill="black">15:00</text><text x="1880" y="1040" text-anchor="middle" font-size="20" fill="black">15:30</text><text x="1942" y="50" text-anchor="end" font-size="40" fill="#26a69a" font-weight="bold"> +0.17% (Fri)</text></svg>