<svg xmlns="http://www.w3.org/2000/svg" width="1992" height="1050"><rect width="100%" height="100%" fill="white"/><text x="42" y="854.0" text-anchor="end" font-size="20" fill="black">551</text><text x="42" y="754.0" text-anchor="end" font-size="20" fill="black">552</text><text x="42" y="654.0" text-anchor="end" font-size="20" fill="black">553</text><text x="42" y="554.0" text-anchor="end" font-size="20" fill="black">554</text><text x="42" y="454.0" text-anchor="end" font-size="20" fill="black">555</text><text x="42" y="354.0" text-anchor="end" font-size="20" fill="black">556</text><text x="42" y="254.0" text-anchor="end" font-size="20" fill="black">557</text><text x="42" y="154.0" text-anchor="end" font-size="20" fill="black">558</text><text x="42" y="54.0" text-anchor="end" font-size="20" fill="black">559</text><line x1="80" y1="7.0174589999965065" x2="80" y2="151.66318699999692" stroke="#ef5350" stroke-width="2"/><rect x="76" y="61.883079999995516" width="8" height="89.78010700000141" fill="#ef5350"/><line x1="92" y1="93.80489599999464" x2="92" y2="172.61187899999868" stroke="#ef5350" stroke-width="2"/><rect x="88" y="152.66074400000207" width="8" height="16.459686999996848" fill="#ef5350"/><line x1="104" y1="132.70960900000546" x2="104" y2="243.43840799999725" stroke="#26a69a" stroke-width="2"/><rect x="100" y="144.6802899999966" width="8" height="22.445027000003392" fill="#26a69a"/><line x1="116" y1="99.79023600000119" x2="116" y2="196.5532410000037" stroke="#ef5350" stroke-width="2"/><rect x="112" y="143.68273300000283" width="8" height="35.912042999996174" fill="#ef5350"/><line x1="128" y1="136.6998360000025" x2="128" y2="198.54835500000263" stroke="#26a69a" stroke-width="2"/><rect x="124" y="170.61676600000055" width="8" height="12.968236999995497" fill="#26a69a"/><line x1="140" y1="153.65830099999584" x2="140" y2="221.4921600000025" stroke="#ef5350" stroke-width="2"/><rect x="136" y="171.6143220000049" width="8" height="35.912042999996174" fill="#ef5350"/><line x1="152" y1="186.57767400000012" x2="152" y2="249.4237490000046" stroke="#ef5350" stroke-width="2"/><rect x="148" y="203.53613800000403" width="8" height="14.065550999998777" fill="#ef5350"/><line x1="164" y1="139.6925059999944" x2="164" y2="218.49948999999924" stroke="#26a69a" stroke-width="2"/><rect x="160" y="148.67051700000502" width="8" height="65.83874599999717" fill="#26a69a"/><line x1="176" y1="81.8342150000035" x2="176" y2="152.66074400000207" stroke="#26a69a" stroke-width="2"/><rect x="172" y="84.8268849999954" width="8" height="65.83874600000854" fill="#26a69a"/><line x1="188" y1="64.87574999999879" x2="188" y2="128.71938199999704" stroke="#ef5350" stroke-width="2"/><rect x="184" y="86.82199899999432" width="8" height="9.975567000003593" fill="#ef5350"/><line x1="200" y1="78.84154500000022" x2="200" y2="130.71449599999596" stroke="#ef5350" stroke-width="2"/><rect x="196" y="97.79512300000306" width="8" height="2" fill="#ef5350"/><line x1="212" y1="92.80733900000087" x2="212" y2="156.65097099999912" stroke="#ef5350" stroke-width="2"/><rect x="208" y="105.77557699999716" width="8" height="2.094869000006838" fill="#ef5350"/><line x1="224" y1="96.79756599999791" x2="224" y2="186.57767400000012" stroke="#ef5350" stroke-width="2"/><rect x="220" y="112.75847399999748" width="8" height="29.926703000000998" fill="#ef5350"/><line x1="236" y1="117.64650200000233" x2="236" y2="171.6143220000049" stroke="#ef5350" stroke-width="2"/><rect x="232" y="140.69006299999955" width="8" height="18.953578000002835" fill="#ef5350"/><line x1="248" y1="154.655858000001" x2="248" y2="225.48238699999956" stroke="#ef5350" stroke-width="2"/><rect x="244" y="163.63386799999944" width="8" height="37.907156999995095" fill="#ef5350"/><line x1="260" y1="148.67051700000502" x2="260" y2="206.52880899999673" stroke="#26a69a" stroke-width="2"/><rect x="256" y="166.6265390000035" width="8" height="36.909599000000526" fill="#26a69a"/><line x1="272" y1="150.66563100000394" x2="272" y2="288.32846200000404" stroke="#ef5350" stroke-width="2"/><rect x="268" y="168.62165200000163" width="8" height="76.81186999999454" fill="#ef5350"/><line x1="284" y1="246.43107900000132" x2="284" y2="309.2771539999944" stroke="#ef5350" stroke-width="2"/><rect x="280" y="246.43107900000132" width="8" height="57.85829100000228" fill="#ef5350"/><line x1="296" y1="241.44329499999913" x2="296" y2="299.40134199999875" stroke="#26a69a" stroke-width="2"/><rect x="292" y="267.3797700000023" width="8" height="25.93647599999258" fill="#26a69a"/><line x1="308" y1="208.52392199999485" x2="308" y2="268.37732699999606" stroke="#26a69a" stroke-width="2"/><rect x="304" y="229.4726139999966" width="8" height="37.40837799999781" fill="#26a69a"/><line x1="320" y1="187.57523000000447" x2="320" y2="236.45551099999693" stroke="#ef5350" stroke-width="2"/><rect x="316" y="231.46772699999474" width="8" height="4.987784000002193" fill="#ef5350"/><line x1="332" y1="201.54102499999453" x2="332" y2="245.43352199999617" stroke="#26a69a" stroke-width="2"/><rect x="328" y="205.53125200000295" width="8" height="31.921815999999126" fill="#26a69a"/><line x1="344" y1="153.65830099999584" x2="344" y2="225.48238699999956" stroke="#26a69a" stroke-width="2"/><rect x="340" y="170.61676600000055" width="8" height="39.40349099999594" fill="#26a69a"/><line x1="356" y1="128.71938199999704" x2="356" y2="178.59721999999465" stroke="#26a69a" stroke-width="2"/><rect x="352" y="134.70472300000438" width="8" height="35.912042999996174" fill="#26a69a"/><line x1="368" y1="132.70960900000546" x2="368" y2="201.54102499999453" stroke="#ef5350" stroke-width="2"/><rect x="364" y="134.70472300000438" width="8" height="47.78296799998998" fill="#ef5350"/><line x1="380" y1="151.66318699999692" x2="380" y2="193.56057100000044" stroke="#26a69a" stroke-width="2"/><rect x="376" y="158.14730600000075" width="8" height="24.440141000002313" fill="#26a69a"/><line x1="392" y1="125.72671200000514" x2="392" y2="169.6192089999954" stroke="#26a69a" stroke-width="2"/><rect x="388" y="150.66563100000394" width="8" height="10.474346000000878" fill="#26a69a"/><line x1="404" y1="108.76824700000043" x2="404" y2="153.65830099999584" stroke="#26a69a" stroke-width="2"/><rect x="400" y="119.7413709999978" width="8" height="27.931589000002077" fill="#26a69a"/><line x1="416" y1="113.75603100000262" x2="416" y2="170.61676600000055" stroke="#ef5350" stroke-width="2"/><rect x="412" y="121.73648499999672" width="8" height="39.90227000000459" fill="#ef5350"/><line x1="428" y1="151.66318699999692" x2="428" y2="190.56790099999716" stroke="#26a69a" stroke-width="2"/><rect x="424" y="163.63386799999944" width="8" height="2" fill="#26a69a"/><line x1="440" y1="149.6680739999988" x2="440" y2="185.58011699999497" stroke="#ef5350" stroke-width="2"/><rect x="436" y="158.64608499999804" width="8" height="2" fill="#ef5350"/><line x1="452" y1="138.69495000000143" x2="452" y2="210.51903600000514" stroke="#ef5350" stroke-width="2"/><rect x="448" y="160.64119799999617" width="8" height="37.907157000006464" fill="#ef5350"/><line x1="464" y1="173.60943600000383" x2="464" y2="217.0031549999976" stroke="#26a69a" stroke-width="2"/><rect x="460" y="187.57523000000447" width="8" height="16.95846499999334" fill="#26a69a"/><line x1="476" y1="170.61676600000055" x2="476" y2="199.5459109999956" stroke="#26a69a" stroke-width="2"/><rect x="472" y="191.56545700000152" width="8" height="2" fill="#26a69a"/><line x1="488" y1="163.63386799999944" x2="488" y2="206.52880899999673" stroke="#26a69a" stroke-width="2"/><rect x="484" y="179.0959980000025" width="8" height="11.471902999994654" fill="#26a69a"/><line x1="500" y1="176.60210599999573" x2="500" y2="211.01781400000164" stroke="#ef5350" stroke-width="2"/><rect x="496" y="179.594775999999" width="8" height="10.873369000000821" fill="#ef5350"/><line x1="512" y1="156.65097099999912" x2="512" y2="203.53613800000403" stroke="#ef5350" stroke-width="2"/><rect x="508" y="189.5703440000034" width="8" height="11.970680999991146" fill="#ef5350"/><line x1="524" y1="194.55812800000558" x2="524" y2="236.95429000000559" stroke="#ef5350" stroke-width="2"/><rect x="520" y="203.53613800000403" width="8" height="8.479232999991382" fill="#ef5350"/><line x1="536" y1="199.5459109999956" x2="536" y2="237.45306800000208" stroke="#26a69a" stroke-width="2"/><rect x="532" y="212.51414900000327" width="8" height="2" fill="#26a69a"/><line x1="548" y1="176.60210599999573" x2="548" y2="211.51659199999813" stroke="#26a69a" stroke-width="2"/><rect x="544" y="204.5336949999978" width="8" height="6.982897000000321" fill="#26a69a"/><line x1="560" y1="189.5703440000034" x2="560" y2="242.44085200000427" stroke="#ef5350" stroke-width="2"/><rect x="556" y="204.5336949999978" width="8" height="33.91692999999805" fill="#ef5350"/><line x1="572" y1="227.97627899999497" x2="572" y2="338.20630000000165" stroke="#ef5350" stroke-width="2"/><rect x="568" y="241.44329499999913" width="8" height="58.85584799999606" fill="#ef5350"/><line x1="584" y1="223.48727300000064" x2="584" y2="307.2820399999955" stroke="#26a69a" stroke-width="2"/><rect x="580" y="249.4237490000046" width="8" height="55.863177999992786" fill="#26a69a"/><line x1="596" y1="235.45795400000316" x2="596" y2="284.43799100000433" stroke="#ef5350" stroke-width="2"/><rect x="592" y="245.43352199999617" width="8" height="39.00446900000816" fill="#ef5350"/><line x1="608" y1="263.38954300000523" x2="608" y2="300.2991429999952" stroke="#ef5350" stroke-width="2"/><rect x="604" y="283.34067800000184" width="8" height="11.471902999994654" fill="#ef5350"/><line x1="620" y1="268.8761060000047" x2="620" y2="331.22340200000053" stroke="#26a69a" stroke-width="2"/><rect x="616" y="274.3626680000034" width="8" height="13.965794000000642" fill="#26a69a"/><line x1="632" y1="246.43107900000132" x2="632" y2="285.33579200000077" stroke="#26a69a" stroke-width="2"/><rect x="628" y="257.4042029999987" width="8" height="12.96823799999629" fill="#26a69a"/><line x1="644" y1="252.4164189999965" x2="644" y2="281.3455650000037" stroke="#26a69a" stroke-width="2"/><rect x="640" y="255.40908899999977" width="8" height="2" fill="#26a69a"/><line x1="656" y1="226.57969900000126" x2="656" y2="257.4042029999987" stroke="#26a69a" stroke-width="2"/><rect x="652" y="228.47505700000283" width="8" height="26.934031999996932" fill="#26a69a"/><line x1="668" y1="188.57278699999824" x2="668" y2="230.47017100000176" stroke="#26a69a" stroke-width="2"/><rect x="664" y="198.54835500000263" width="8" height="28.92914499999506" fill="#26a69a"/><line x1="680" y1="191.56545700000152" x2="680" y2="224.48482999999442" stroke="#ef5350" stroke-width="2"/><rect x="676" y="200.54346800000076" width="8" height="4.987784000002193" fill="#ef5350"/><line x1="692" y1="194.55812800000558" x2="692" y2="214.5092630000022" stroke="#ef5350" stroke-width="2"/><rect x="688" y="202.53858199999968" width="8" height="4.9877830000014" fill="#ef5350"/><line x1="704" y1="164.63142500000458" x2="704" y2="220.49460299999737" stroke="#26a69a" stroke-width="2"/><rect x="700" y="164.63142500000458" width="8" height="48.880280999992465" fill="#26a69a"/><line x1="716" y1="131.7120520000003" x2="716" y2="173.60943600000383" stroke="#26a69a" stroke-width="2"/><rect x="712" y="135.70227899999736" width="8" height="28.929146000007222" fill="#26a69a"/><line x1="728" y1="117.74625799999967" x2="728" y2="150.66563100000394" stroke="#26a69a" stroke-width="2"/><rect x="724" y="128.71938199999704" width="8" height="3.491449000000557" fill="#26a69a"/><line x1="740" y1="113.75603100000262" x2="740" y2="141.6876200000047" stroke="#26a69a" stroke-width="2"/><rect x="736" y="123.73159799999485" width="8" height="3.9902270000084172" fill="#26a69a"/><line x1="752" y1="117.74625799999967" x2="752" y2="130.71449599999596" stroke="#ef5350" stroke-width="2"/><rect x="748" y="121.73648499999672" width="8" height="3.491449000000557" fill="#ef5350"/><line x1="764" y1="111.7609170000037" x2="764" y2="146.67540399999552" stroke="#ef5350" stroke-width="2"/><rect x="760" y="123.73159799999485" width="8" height="19.95113500000798" fill="#ef5350"/><line x1="776" y1="111.7609170000037" x2="776" y2="143.68273300000283" stroke="#26a69a" stroke-width="2"/><rect x="772" y="119.7413709999978" width="8" height="23.94136200000503" fill="#26a69a"/><line x1="788" y1="115.75114400000075" x2="788" y2="144.6802899999966" stroke="#ef5350" stroke-width="2"/><rect x="784" y="118.74381500000482" width="8" height="20.948690999989594" fill="#ef5350"/><line x1="800" y1="125.72671200000514" x2="800" y2="140.69006299999955" stroke="#26a69a" stroke-width="2"/><rect x="796" y="136.6998360000025" width="8" height="3.9902269999970486" fill="#26a69a"/><line x1="812" y1="139.6925059999944" x2="812" y2="188.57278699999824" stroke="#ef5350" stroke-width="2"/><rect x="808" y="139.6925059999944" width="8" height="24.938919000010173" fill="#ef5350"/><line x1="824" y1="156.65097099999912" x2="824" y2="186.57767400000012" stroke="#ef5350" stroke-width="2"/><rect x="820" y="166.6265390000035" width="8" height="10.97312399999737" fill="#ef5350"/><line x1="836" y1="163.63386799999944" x2="836" y2="186.57767400000012" stroke="#ef5350" stroke-width="2"/><rect x="832" y="180.59233300000415" width="8" height="3.9902269999970486" fill="#ef5350"/><line x1="848" y1="178.59721999999465" x2="848" y2="243.43840799999725" stroke="#ef5350" stroke-width="2"/><rect x="844" y="185.58011699999497" width="8" height="34.9144860000024" fill="#ef5350"/><line x1="860" y1="222.4897169999963" x2="860" y2="312.2698239999977" stroke="#ef5350" stroke-width="2"/><rect x="856" y="227.4774999999977" width="8" height="84.79232400000001" fill="#ef5350"/><line x1="872" y1="249.4237490000046" x2="872" y2="338.20630000000165" stroke="#26a69a" stroke-width="2"/><rect x="868" y="261.39442999999574" width="8" height="52.87050800000088" fill="#26a69a"/><line x1="884" y1="264.387099999999" x2="884" y2="309.2771539999944" stroke="#ef5350" stroke-width="2"/><rect x="880" y="266.38221399999793" width="8" height="20.948691000000963" fill="#ef5350"/><line x1="896" y1="276.3577810000015" x2="896" y2="299.3015860000014" stroke="#ef5350" stroke-width="2"/><rect x="892" y="292.3186890000011" width="8" height="2.9926700000032724" fill="#ef5350"/><line x1="908" y1="286.33334899999454" x2="908" y2="318.25516500000504" stroke="#26a69a" stroke-width="2"/><rect x="904" y="295.31135900000436" width="8" height="2" fill="#26a69a"/><line x1="920" y1="290.32357600000296" x2="920" y2="348.18186700000524" stroke="#ef5350" stroke-width="2"/><rect x="916" y="297.3064730000033" width="8" height="22.943804999999884" fill="#ef5350"/><line x1="932" y1="305.2869269999974" x2="932" y2="347.1843100000001" stroke="#ef5350" stroke-width="2"/><rect x="928" y="322.2453920000021" width="8" height="5.985339999995176" fill="#ef5350"/><line x1="944" y1="307.2820399999955" x2="944" y2="331.22340200000053" stroke="#ef5350" stroke-width="2"/><rect x="940" y="327.2331750000035" width="8" height="3.9902269999970486" fill="#ef5350"/><line x1="956" y1="307.2820399999955" x2="956" y2="343.19408300000305" stroke="#26a69a" stroke-width="2"/><rect x="952" y="316.26005099999475" width="8" height="14.963351000005787" fill="#26a69a"/><line x1="968" y1="271.36999699999933" x2="968" y2="318.25516500000504" stroke="#26a69a" stroke-width="2"/><rect x="964" y="276.3577810000015" width="8" height="40.89982699999837" fill="#26a69a"/><line x1="980" y1="271.36999699999933" x2="980" y2="296.8076949999954" stroke="#ef5350" stroke-width="2"/><rect x="976" y="277.3553379999953" width="8" height="9.975567000003593" fill="#ef5350"/><line x1="992" y1="268.37732699999606" x2="992" y2="329.2282890000024" stroke="#ef5350" stroke-width="2"/><rect x="988" y="285.33579200000077" width="8" height="37.9071559999943" fill="#ef5350"/><line x1="1004" y1="288.32846200000404" x2="1004" y2="420.0059529999976" stroke="#ef5350" stroke-width="2"/><rect x="1000" y="323.24294799999507" width="8" height="92.77277800000547" fill="#ef5350"/><line x1="1016" y1="321.24783499999694" x2="1016" y2="483.84958499999584" stroke="#ef5350" stroke-width="2"/><rect x="1012" y="357.1598780000045" width="8" height="109.73124199999802" fill="#ef5350"/><line x1="1028" y1="412.0254990000035" x2="1028" y2="500.80805000000055" stroke="#26a69a" stroke-width="2"/><rect x="1024" y="431.9766340000001" width="8" height="39.90227000000459" fill="#26a69a"/><line x1="1040" y1="429.981521000002" x2="1040" y2="520.7591849999972" stroke="#ef5350" stroke-width="2"/><rect x="1036" y="430.97907699999496" width="8" height="72.82164300000886" fill="#ef5350"/><line x1="1052" y1="456.9155529999989" x2="1052" y2="541.7078769999989" stroke="#ef5350" stroke-width="2"/><rect x="1048" y="506.7933899999957" width="8" height="33.916930000009415" fill="#ef5350"/><line x1="1064" y1="537.7176500000019" x2="1064" y2="619.5173029999978" stroke="#ef5350" stroke-width="2"/><rect x="1060" y="539.712763" width="8" height="76.81186999999454" fill="#ef5350"/><line x1="1076" y1="570.6370220000053" x2="1076" y2="633.4830979999992" stroke="#26a69a" stroke-width="2"/><rect x="1072" y="608.5441790000004" width="8" height="6.982897000000321" fill="#26a69a"/><line x1="1088" y1="566.7465510000056" x2="1088" y2="627.4977570000033" stroke="#26a69a" stroke-width="2"/><rect x="1084" y="599.5661680000012" width="8" height="8.978010999999242" fill="#26a69a"/><line x1="1100" y1="575.6248059999962" x2="1100" y2="653.4342329999959" stroke="#26a69a" stroke-width="2"/><rect x="1096" y="593.5808279999947" width="8" height="7.980454000005466" fill="#26a69a"/><line x1="1112" y1="523.7518550000004" x2="1112" y2="597.5710550000031" stroke="#26a69a" stroke-width="2"/><rect x="1108" y="589.5906009999976" width="8" height="2" fill="#26a69a"/><line x1="1124" y1="545.698103999996" x2="1124" y2="622.6097289999984" stroke="#26a69a" stroke-width="2"/><rect x="1120" y="547.6932170000055" width="8" height="46.885166999993544" fill="#26a69a"/><line x1="1136" y1="506.7933899999957" x2="1136" y2="577.6199199999951" stroke="#26a69a" stroke-width="2"/><rect x="1132" y="527.7420819999975" width="8" height="23.043560999997226" fill="#26a69a"/><line x1="1148" y1="507.79094700000087" x2="1148" y2="569.639466000001" stroke="#26a69a" stroke-width="2"/><rect x="1144" y="519.7616280000034" width="8" height="7.980453999994097" fill="#26a69a"/><line x1="1160" y1="458.91066599999704" x2="1160" y2="526.7445250000037" stroke="#26a69a" stroke-width="2"/><rect x="1156" y="500.80805000000055" width="8" height="16.459685999996054" fill="#26a69a"/><line x1="1172" y1="500.80805000000055" x2="1172" y2="547.6932170000055" stroke="#ef5350" stroke-width="2"/><rect x="1168" y="502.8031629999987" width="8" height="16.858708999995997" fill="#ef5350"/><line x1="1184" y1="494.8227090000046" x2="1184" y2="560.6614550000018" stroke="#ef5350" stroke-width="2"/><rect x="1180" y="521.7567420000023" width="8" height="7.082652999997663" fill="#ef5350"/><line x1="1196" y1="472.87646099999847" x2="1196" y2="531.7323089999945" stroke="#26a69a" stroke-width="2"/><rect x="1192" y="485.84469899999476" width="8" height="44.89005300000599" fill="#26a69a"/><line x1="1208" y1="456.9155529999989" x2="1208" y2="610.5392919999986" stroke="#ef5350" stroke-width="2"/><rect x="1204" y="487.83981200000426" width="8" height="100.75323199999957" fill="#ef5350"/><line x1="1220" y1="504.7982769999976" x2="1220" y2="625.5026440000051" stroke="#26a69a" stroke-width="2"/><rect x="1216" y="558.6663410000028" width="8" height="33.91692999999805" fill="#26a69a"/><line x1="1232" y1="473.8740180000036" x2="1232" y2="560.6614550000018" stroke="#26a69a" stroke-width="2"/><rect x="1228" y="496.8178230000035" width="8" height="54.36684299999115" fill="#26a69a"/><line x1="1244" y1="471.8789040000047" x2="1244" y2="524.7494120000056" stroke="#26a69a" stroke-width="2"/><rect x="1240" y="491.8300390000013" width="8" height="3.9902269999970486" fill="#26a69a"/><line x1="1256" y1="433.971747999999" x2="1256" y2="499.8104929999954" stroke="#26a69a" stroke-width="2"/><rect x="1252" y="434.9693040000034" width="8" height="52.87050800000088" fill="#26a69a"/><line x1="1268" y1="427.98640700000306" x2="1268" y2="687.3511620000045" stroke="#ef5350" stroke-width="2"/><rect x="1264" y="437.9619749999961" width="8" height="238.41606299999967" fill="#ef5350"/><line x1="1280" y1="650.4415620000032" x2="1280" y2="778.1288259999997" stroke="#ef5350" stroke-width="2"/><rect x="1276" y="674.3829239999968" width="8" height="59.8534050000012" fill="#ef5350"/><line x1="1292" y1="552.6810009999963" x2="1292" y2="744.2118970000024" stroke="#26a69a" stroke-width="2"/><rect x="1288" y="579.6150330000046" width="8" height="159.60907999999563" fill="#26a69a"/><line x1="1304" y1="573.629692999998" x2="1304" y2="800.0750749999952" stroke="#ef5350" stroke-width="2"/><rect x="1300" y="581.6101470000035" width="8" height="200.5089059999932" fill="#ef5350"/><line x1="1316" y1="782.1190529999967" x2="1316" y2="926.7647819999979" stroke="#ef5350" stroke-width="2"/><rect x="1312" y="785.1117240000008" width="8" height="62.846075000004475" fill="#ef5350"/><line x1="1328" y1="682.3633780000023" x2="1328" y2="876.8869450000011" stroke="#26a69a" stroke-width="2"/><rect x="1324" y="693.3365030000004" width="8" height="152.62618199999451" fill="#26a69a"/><line x1="1340" y1="657.4244600000043" x2="1340" y2="726.2558750000039" stroke="#26a69a" stroke-width="2"/><rect x="1336" y="664.4073570000046" width="8" height="22.943804999999884" fill="#26a69a"/><line x1="1352" y1="631.4879840000003" x2="1352" y2="744.2118970000024" stroke="#26a69a" stroke-width="2"/><rect x="1348" y="658.4220159999973" width="8" height="7.980454000005466" fill="#26a69a"/><line x1="1364" y1="477.86424500000066" x2="1364" y2="668.3975840000016" stroke="#26a69a" stroke-width="2"/><rect x="1360" y="563.654125000005" width="8" height="99.75567499999443" fill="#26a69a"/><line x1="1376" y1="533.6276669999961" x2="1376" y2="603.5563949999982" stroke="#ef5350" stroke-width="2"/><rect x="1372" y="559.6638979999966" width="8" height="25.93647600000395" fill="#ef5350"/><line x1="1388" y1="517.7665150000053" x2="1388" y2="599.5661680000012" stroke="#26a69a" stroke-width="2"/><rect x="1384" y="560.6614550000018" width="8" height="6.982897000000321" fill="#26a69a"/><line x1="1400" y1="545.698103999996" x2="1400" y2="619.5173029999978" stroke="#ef5350" stroke-width="2"/><rect x="1396" y="552.6810009999963" width="8" height="27.931589000002077" fill="#ef5350"/><line x1="1412" y1="534.6252240000013" x2="1412" y2="590.588157000002" stroke="#26a69a" stroke-width="2"/><rect x="1408" y="574.6272490000024" width="8" height="4.987784000002193" fill="#26a69a"/><line x1="1424" y1="570.6370220000053" x2="1424" y2="628.495313999997" stroke="#ef5350" stroke-width="2"/><rect x="1420" y="570.6370220000053" width="8" height="12.96823799999629" fill="#ef5350"/><line x1="1436" y1="571.6345789999991" x2="1436" y2="645.9525569999983" stroke="#26a69a" stroke-width="2"/><rect x="1432" y="574.6272490000024" width="8" height="13.965795000001435" fill="#26a69a"/><line x1="1448" y1="551.6834440000025" x2="1448" y2="585.6003740000006" stroke="#26a69a" stroke-width="2"/><rect x="1444" y="559.6638979999966" width="8" height="12.96823800000766" fill="#26a69a"/><line x1="1460" y1="529.7371959999964" x2="1460" y2="576.6223630000013" stroke="#26a69a" stroke-width="2"/><rect x="1456" y="532.7298659999997" width="8" height="26.934031999996932" fill="#26a69a"/><line x1="1472" y1="519.7616280000034" x2="1472" y2="547.6932170000055" stroke="#ef5350" stroke-width="2"/><rect x="1468" y="532.7298659999997" width="8" height="14.963351000005787" fill="#ef5350"/><line x1="1484" y1="520.7591849999972" x2="1484" y2="625.5026440000051" stroke="#26a69a" stroke-width="2"/><rect x="1480" y="530.7347520000008" width="8" height="16.958465000004708" fill="#26a69a"/><line x1="1496" y1="455.91799600000513" x2="1496" y2="528.7396390000026" stroke="#26a69a" stroke-width="2"/><rect x="1492" y="466.8911200000025" width="8" height="61.848519000000124" fill="#26a69a"/><line x1="1508" y1="419.0083960000038" x2="1508" y2="467.8886769999963" stroke="#26a69a" stroke-width="2"/><rect x="1504" y="427.88665099999434" width="8" height="40.00202600000193" fill="#26a69a"/><line x1="1520" y1="410.03038600000536" x2="1520" y2="453.92288299999564" stroke="#26a69a" stroke-width="2"/><rect x="1516" y="419.0083960000038" width="8" height="7.980453999994097" fill="#26a69a"/><line x1="1532" y1="381.10123999999814" x2="1532" y2="423.49740199999815" stroke="#26a69a" stroke-width="2"/><rect x="1528" y="401.05237499999475" width="8" height="17.4572430000012" fill="#26a69a"/><line x1="1544" y1="375.1158990000022" x2="1544" y2="416.01572600000054" stroke="#ef5350" stroke-width="2"/><rect x="1540" y="399.05726099999583" width="8" height="2" fill="#ef5350"/><line x1="1556" y1="393.07192100000066" x2="1556" y2="420.0059529999976" stroke="#ef5350" stroke-width="2"/><rect x="1552" y="400.054818000001" width="8" height="2" fill="#ef5350"/><line x1="1568" y1="386.08902400000034" x2="1568" y2="422.99862300000086" stroke="#ef5350" stroke-width="2"/><rect x="1564" y="400.054818000001" width="8" height="6.982897000000321" fill="#ef5350"/><line x1="1580" y1="402.0499319999999" x2="1580" y2="440.95464499999935" stroke="#ef5350" stroke-width="2"/><rect x="1576" y="405.04260200000317" width="8" height="32.9193729999929" fill="#ef5350"/><line x1="1592" y1="428.98396399999683" x2="1592" y2="452.92532600000186" stroke="#ef5350" stroke-width="2"/><rect x="1588" y="436.9644180000023" width="8" height="4.987784000002193" fill="#ef5350"/><line x1="1604" y1="422.99862300000086" x2="1604" y2="452.92532600000186" stroke="#26a69a" stroke-width="2"/><rect x="1600" y="436.9644180000023" width="8" height="3.9902269999970486" fill="#26a69a"/><line x1="1616" y1="435.96686099999715" x2="1616" y2="470.88134699999955" stroke="#ef5350" stroke-width="2"/><rect x="1612" y="438.9595310000004" width="8" height="12.96823799999629" fill="#ef5350"/><line x1="1628" y1="435.96686099999715" x2="1628" y2="473.8740180000036" stroke="#ef5350" stroke-width="2"/><rect x="1624" y="452.92532600000186" width="8" height="9.975567000003593" fill="#ef5350"/><line x1="1640" y1="456.9155529999989" x2="1640" y2="485.84469899999476" stroke="#ef5350" stroke-width="2"/><rect x="1636" y="464.8960070000044" width="8" height="3.9902269999970486" fill="#ef5350"/><line x1="1652" y1="442.9497579999975" x2="1652" y2="465.89356399999815" stroke="#26a69a" stroke-width="2"/><rect x="1648" y="465.89356399999815" width="8" height="2" fill="#26a69a"/><line x1="1664" y1="447.93754199999967" x2="1664" y2="485.84469899999476" stroke="#26a69a" stroke-width="2"/><rect x="1660" y="452.92532600000186" width="8" height="13.965794000000642" fill="#26a69a"/><line x1="1676" y1="441.9522020000045" x2="1676" y2="476.8666879999955" stroke="#ef5350" stroke-width="2"/><rect x="1672" y="453.92288299999564" width="8" height="8.978010000009817" fill="#ef5350"/><line x1="1688" y1="454.920439" x2="1688" y2="485.84469899999476" stroke="#26a69a" stroke-width="2"/><rect x="1684" y="459.9082230000022" width="8" height="4.987784000002193" fill="#26a69a"/><line x1="1700" y1="431.9766340000001" x2="1700" y2="469.8837909999952" stroke="#ef5350" stroke-width="2"/><rect x="1696" y="456.9155529999989" width="8" height="12.96823799999629" fill="#ef5350"/><line x1="1712" y1="436.9644180000023" x2="1712" y2="492.8275959999951" stroke="#26a69a" stroke-width="2"/><rect x="1708" y="443.9473150000026" width="8" height="31.921815999999126" fill="#26a69a"/><line x1="1724" y1="420.0059529999976" x2="1724" y2="449.9326559999986" stroke="#26a69a" stroke-width="2"/><rect x="1720" y="427.98640700000306" width="8" height="17.956021999998484" fill="#26a69a"/><line x1="1736" y1="406.04015899999695" x2="1736" y2="426.9888499999979" stroke="#26a69a" stroke-width="2"/><rect x="1732" y="417.0132829999943" width="8" height="8.97801100001061" fill="#26a69a"/><line x1="1748" y1="393.07192100000066" x2="1748" y2="420.0059529999976" stroke="#26a69a" stroke-width="2"/><rect x="1744" y="397.0621479999977" width="8" height="20.948692000001756" fill="#26a69a"/><line x1="1760" y1="378.10856999999487" x2="1760" y2="405.04260200000317" stroke="#26a69a" stroke-width="2"/><rect x="1756" y="388.08413699999846" width="8" height="9.975568000004387" fill="#26a69a"/><line x1="1772" y1="386.08902400000034" x2="1772" y2="420.0059529999976" stroke="#ef5350" stroke-width="2"/><rect x="1768" y="388.08413699999846" width="8" height="20.948692000001756" fill="#ef5350"/><line x1="1784" y1="396.06459100000393" x2="1784" y2="416.01572600000054" stroke="#26a69a" stroke-width="2"/><rect x="1780" y="397.0621479999977" width="8" height="12.96823800000766" fill="#26a69a"/><line x1="1796" y1="358.15743499999826" x2="1796" y2="403.04748800000425" stroke="#26a69a" stroke-width="2"/><rect x="1792" y="360.1525479999964" width="8" height="38.90471299999945" fill="#26a69a"/><line x1="1808" y1="339.20385599999463" x2="1808" y2="370.1281160000008" stroke="#ef5350" stroke-width="2"/><rect x="1804" y="359.6537699999999" width="8" height="9.476788999995733" fill="#ef5350"/><line x1="1820" y1="346.18675399999574" x2="1820" y2="378.10856999999487" stroke="#26a69a" stroke-width="2"/><rect x="1816" y="351.17453699999714" width="8" height="18.95357900000363" fill="#26a69a"/><line x1="1832" y1="347.1843100000001" x2="1832" y2="379.1061259999992" stroke="#ef5350" stroke-width="2"/><rect x="1828" y="352.1720940000023" width="8" height="20.948692000001756" fill="#ef5350"/><line x1="1844" y1="370.1281160000008" x2="1844" y2="393.07192100000066" stroke="#ef5350" stroke-width="2"/><rect x="1840" y="372.1232289999989" width="8" height="2.9926700000032724" fill="#ef5350"/><line x1="1856" y1="366.1378890000037" x2="1856" y2="385.0914669999952" stroke="#26a69a" stroke-width="2"/><rect x="1852" y="375.1158990000022" width="8" height="2" fill="#26a69a"/><line x1="1868" y1="356.16232099999934" x2="1868" y2="379.1061259999992" stroke="#26a69a" stroke-width="2"/><rect x="1864" y="359.1549910000026" width="8" height="16.95846499999334" fill="#26a69a"/><line x1="1880" y1="355.16476400000556" x2="1880" y2="376.11345599999595" stroke="#ef5350" stroke-width="2"/><rect x="1876" y="361.15010500000153" width="8" height="3.9902269999970486" fill="#ef5350"/><line x1="1892" y1="322.2453920000021" x2="1892" y2="375.1158990000022" stroke="#26a69a" stroke-width="2"/><rect x="1888" y="328.23073199999726" width="8" height="37.907157000006464" fill="#26a69a"/><line x1="1904" y1="292.3186890000011" x2="1904" y2="325.23806200000536" stroke="#26a69a" stroke-width="2"/><rect x="1900" y="310.27471099999957" width="8" height="14.963351000005787" fill="#26a69a"/><line x1="1916" y1="301.2967000000003" x2="1916" y2="331.22340200000053" stroke="#26a69a" stroke-width="2"/><rect x="1912" y="306.2844840000025" width="8" height="3.9902269999970486" fill="#26a69a"/><line x1="1928" y1="306.2844840000025" x2="1928" y2="343.19408300000305" stroke="#ef5350" stroke-width="2"/><rect x="1924" y="306.2844840000025" width="8" height="19.95113499999661" fill="#ef5350"/><line x1="1940" y1="315.26249400000097" x2="1940" y2="356.16232099999934" stroke="#ef5350" stroke-width="2"/><rect x="1936" y="326.23561899999913" width="8" height="24.93891799999801" fill="#ef5350"/><rect x="75" y="964.3473727228298" width="10" height="55.652627277170154" fill="#ef5350" opacity="0.9"/><rect x="87" y="979.3653204469236" width="10" height="40.63467955307635" fill="#ef5350" opacity="0.9"/><rect x="99" y="972.9328940494447" width="10" height="47.06710595055529" fill="#26a69a" opacity="0.9"/><rect x="111" y="987.9972909890629" width="10" height="32.00270901093711" fill="#ef5350" opacity="0.9"/><rect x="123" y="993.147466253223" width="10" height="26.852533746777" fill="#26a69a" opacity="0.9"/><rect x="135" y="990.1301631304875" width="10" height="29.869836869512483" fill="#ef5350" opacity="0.9"/><rect x="147" y="984.3180075498408" width="10" height="35.681992450159214" fill="#ef5350" opacity="0.9"/><rect x="159" y="994.7545459141543" width="10" height="25.245454085845722" fill="#26a69a" opacity="0.9"/><rect x="171" y="979.7337543605386" width="10" height="40.26624563946143" fill="#26a69a" opacity="0.9"/><rect x="183" y="990.7093564097811" width="10" height="29.290643590218906" fill="#ef5350" opacity="0.9"/><rect x="195" y="995.8712229730868" width="10" height="24.128777026913212" fill="#ef5350" opacity="0.9"/><rect x="207" y="992.9171160619492" width="10" height="27.082883938050827" fill="#ef5350" opacity="0.9"/><rect x="219" y="985.416989669526" width="10" height="34.58301033047405" fill="#ef5350" opacity="0.9"/><rect x="231" y="1002.4562682215743" width="10" height="17.543731778425695" fill="#ef5350" opacity="0.9"/><rect x="243" y="992.9676730312274" width="10" height="27.032326968772622" fill="#ef5350" opacity="0.9"/><rect x="255" y="998.8727270429229" width="10" height="21.12727295707714" fill="#26a69a" opacity="0.9"/><rect x="267" y="978.1254107753754" width="10" height="41.87458922462463" fill="#ef5350" opacity="0.9"/><rect x="279" y="987.5280591179494" width="10" height="32.4719408820506" fill="#ef5350" opacity="0.9"/><rect x="291" y="999.8405770235427" width="10" height="20.159422976457336" fill="#26a69a" opacity="0.9"/><rect x="303" y="995.9837122297308" width="10" height="24.016287770269173" fill="#26a69a" opacity="0.9"/><rect x="315" y="991.531539122668" width="10" height="28.46846087733195" fill="#ef5350" opacity="0.9"/><rect x="327" y="994.6142503244072" width="10" height="25.38574967559282" fill="#26a69a" opacity="0.9"/><rect x="339" y="997.876754748142" width="10" height="22.123245251857952" fill="#26a69a" opacity="0.9"/><rect x="351" y="997.0400369065876" width="10" height="22.959963093412398" fill="#26a69a" opacity="0.9"/><rect x="363" y="1001.6625238039064" width="10" height="18.337476196093576" fill="#ef5350" opacity="0.9"/><rect x="375" y="1003.798871736969" width="10" height="16.201128263031023" fill="#26a69a" opacity="0.9"/><rect x="387" y="1001.6246060769477" width="10" height="18.375393923052343" fill="#26a69a" opacity="0.9"/><rect x="399" y="971.5985060415578" width="10" height="48.40149395844219" fill="#26a69a" opacity="0.9"/><rect x="411" y="998.8762028345608" width="10" height="21.123797165439214" fill="#ef5350" opacity="0.9"/><rect x="423" y="999.3849323379228" width="10" height="20.615067662077195" fill="#26a69a" opacity="0.9"/><rect x="435" y="1001.8748630748748" width="10" height="18.12513692512516" fill="#ef5350" opacity="0.9"/><rect x="447" y="1001.0422529870742" width="10" height="18.95774701292578" fill="#ef5350" opacity="0.9"/><rect x="459" y="997.2868181128769" width="10" height="22.71318188712314" fill="#26a69a" opacity="0.9"/><rect x="471" y="1004.2965419033013" width="10" height="15.703458096698682" fill="#26a69a" opacity="0.9"/><rect x="483" y="1003.487314413792" width="10" height="16.512685586208022" fill="#26a69a" opacity="0.9"/><rect x="495" y="1003.7312517905593" width="10" height="16.268748209440673" fill="#ef5350" opacity="0.9"/><rect x="507" y="1004.2165986956302" width="10" height="15.783401304369818" fill="#ef5350" opacity="0.9"/><rect x="519" y="1001.333271541482" width="10" height="18.666728458518037" fill="#ef5350" opacity="0.9"/><rect x="531" y="1000.4061831173427" width="10" height="19.59381688265728" fill="#26a69a" opacity="0.9"/><rect x="543" y="1002.012630816158" width="10" height="17.98736918384202" fill="#26a69a" opacity="0.9"/><rect x="555" y="999.3937798075465" width="10" height="20.60622019245352" fill="#ef5350" opacity="0.9"/><rect x="567" y="990.200310925361" width="10" height="29.79968907463899" fill="#ef5350" opacity="0.9"/><rect x="579" y="999.9966716661892" width="10" height="20.003328333810828" fill="#26a69a" opacity="0.9"/><rect x="591" y="1005.3478108832303" width="10" height="14.652189116769705" fill="#ef5350" opacity="0.9"/><rect x="603" y="1001.2037193077066" width="10" height="18.796280692293408" fill="#ef5350" opacity="0.9"/><rect x="615" y="999.6430888622997" width="10" height="20.35691113770031" fill="#26a69a" opacity="0.9"/><rect x="627" y="1000.1970036569542" width="10" height="19.802996343045834" fill="#26a69a" opacity="0.9"/><rect x="639" y="994.054963851767" width="10" height="25.945036148233044" fill="#26a69a" opacity="0.9"/><rect x="651" y="1002.1690414398624" width="10" height="17.83095856013756" fill="#26a69a" opacity="0.9"/><rect x="663" y="997.5076888724111" width="10" height="22.49231112758889" fill="#26a69a" opacity="0.9"/><rect x="675" y="1001.5803687288293" width="10" height="18.419631271170715" fill="#ef5350" opacity="0.9"/><rect x="687" y="1005.6284020627244" width="10" height="14.371597937275624" fill="#ef5350" opacity="0.9"/><rect x="699" y="1000.8836304959639" width="10" height="19.11636950403613" fill="#26a69a" opacity="0.9"/><rect x="711" y="997.8464205665751" width="10" height="22.153579433424852" fill="#26a69a" opacity="0.9"/><rect x="723" y="993.3345270395524" width="10" height="26.665472960447573" fill="#26a69a" opacity="0.9"/><rect x="735" y="999.6405610138357" width="10" height="20.359438986164264" fill="#26a69a" opacity="0.9"/><rect x="747" y="1003.0000716223732" width="10" height="16.999928377626816" fill="#ef5350" opacity="0.9"/><rect x="759" y="994.1194239875967" width="10" height="25.880576012403253" fill="#ef5350" opacity="0.9"/><rect x="771" y="994.3121724329699" width="10" height="25.687827567030126" fill="#26a69a" opacity="0.9"/><rect x="783" y="995.8620595224052" width="10" height="24.13794047759484" fill="#ef5350" opacity="0.9"/><rect x="795" y="991.0351328805676" width="10" height="28.96486711943237" fill="#26a69a" opacity="0.9"/><rect x="807" y="992.9847360083587" width="10" height="27.01526399164129" fill="#ef5350" opacity="0.9"/><rect x="819" y="1000.6763469219231" width="10" height="19.32365307807686" fill="#ef5350" opacity="0.9"/><rect x="831" y="1003.7938160400411" width="10" height="16.206183959958935" fill="#ef5350" opacity="0.9"/><rect x="843" y="994.5185080638366" width="10" height="25.481491936163366" fill="#ef5350" opacity="0.9"/><rect x="855" y="977.6757697298573" width="10" height="42.32423027014272" fill="#ef5350" opacity="0.9"/><rect x="867" y="991.3868197981092" width="10" height="28.613180201890827" fill="#26a69a" opacity="0.9"/><rect x="879" y="997.0589957700669" width="10" height="22.941004229933128" fill="#ef5350" opacity="0.9"/><rect x="891" y="999.7596858726976" width="10" height="20.24031412730244" fill="#ef5350" opacity="0.9"/><rect x="903" y="998.4376211260723" width="10" height="21.56237887392774" fill="#26a69a" opacity="0.9"/><rect x="915" y="990.2464441598274" width="10" height="29.753555840172567" fill="#ef5350" opacity="0.9"/><rect x="927" y="990.9510819191426" width="10" height="29.048918080857447" fill="#ef5350" opacity="0.9"/><rect x="939" y="1001.2346854513895" width="10" height="18.76531454861049" fill="#ef5350" opacity="0.9"/><rect x="951" y="996.3015891740677" width="10" height="23.698410825932342" fill="#26a69a" opacity="0.9"/><rect x="963" y="994.6411087143363" width="10" height="25.35889128566373" fill="#26a69a" opacity="0.9"/><rect x="975" y="997.3237878966615" width="10" height="22.676212103338457" fill="#ef5350" opacity="0.9"/><rect x="987" y="983.1033763629316" width="10" height="36.89662363706839" fill="#ef5350" opacity="0.9"/><rect x="999" y="860.0" width="10" height="160.0" fill="#ef5350" opacity="0.9"/><rect x="1011" y="960.3606397141846" width="10" height="59.63936028581543" fill="#ef5350" opacity="0.9"/><rect x="1023" y="991.4610753467365" width="10" height="28.538924653263507" fill="#26a69a" opacity="0.9"/><rect x="1035" y="995.0901177977385" width="10" height="24.909882202261542" fill="#ef5350" opacity="0.9"/><rect x="1047" y="992.6576956133403" width="10" height="27.342304386659748" fill="#ef5350" opacity="0.9"/><rect x="1059" y="984.8368484470584" width="10" height="35.1631515529416" fill="#ef5350" opacity="0.9"/><rect x="1071" y="984.538562328317" width="10" height="35.46143767168303" fill="#26a69a" opacity="0.9"/><rect x="1083" y="988.0386845076594" width="10" height="31.961315492340646" fill="#26a69a" opacity="0.9"/><rect x="1095" y="981.1755759281417" width="10" height="38.82442407185829" fill="#26a69a" opacity="0.9"/><rect x="1107" y="995.3400588146076" width="10" height="24.659941185392427" fill="#26a69a" opacity="0.9"/><rect x="1119" y="1000.0276378098721" width="10" height="19.97236219012791" fill="#26a69a" opacity="0.9"/><rect x="1131" y="993.0043268339541" width="10" height="26.99567316604589" fill="#26a69a" opacity="0.9"/><rect x="1143" y="1000.6693953386474" width="10" height="19.330604661352595" fill="#26a69a" opacity="0.9"/><rect x="1155" y="995.9912957751226" width="10" height="24.00870422487742" fill="#26a69a" opacity="0.9"/><rect x="1167" y="993.1341950487874" width="10" height="26.865804951212567" fill="#ef5350" opacity="0.9"/><rect x="1179" y="1001.589848160569" width="10" height="18.410151839431023" fill="#ef5350" opacity="0.9"/><rect x="1191" y="1000.2067990697518" width="10" height="19.79320093024819" fill="#26a69a" opacity="0.9"/><rect x="1203" y="957.9585517113534" width="10" height="62.04144828864662" fill="#ef5350" opacity="0.9"/><rect x="1215" y="978.3187911828645" width="10" height="41.681208817135484" fill="#26a69a" opacity="0.9"/><rect x="1227" y="990.4704747299415" width="10" height="29.529525270058457" fill="#26a69a" opacity="0.9"/><rect x="1239" y="996.6229419100423" width="10" height="23.3770580899577" fill="#26a69a" opacity="0.9"/><rect x="1251" y="997.6840063027688" width="10" height="22.315993697231193" fill="#26a69a" opacity="0.9"/><rect x="1263" y="923.4903899627564" width="10" height="96.50961003724365" fill="#ef5350" opacity="0.9"/><rect x="1275" y="948.681663829859" width="10" height="71.31833617014104" fill="#ef5350" opacity="0.9"/><rect x="1287" y="982.2521233927097" width="10" height="37.74787660729032" fill="#26a69a" opacity="0.9"/><rect x="1299" y="956.5110424847065" width="10" height="63.488957515293464" fill="#ef5350" opacity="0.9"/><rect x="1311" y="958.4306274119888" width="10" height="61.56937258801122" fill="#ef5350" opacity="0.9"/><rect x="1323" y="962.5762988928024" width="10" height="57.423701107197644" fill="#26a69a" opacity="0.9"/><rect x="1335" y="988.9006808338529" width="10" height="31.099319166147097" fill="#26a69a" opacity="0.9"/><rect x="1347" y="987.7653608924991" width="10" height="32.234639107500925" fill="#26a69a" opacity="0.9"/><rect x="1359" y="915.1639731036923" width="10" height="104.83602689630766" fill="#26a69a" opacity="0.9"/><rect x="1371" y="986.804778476213" width="10" height="33.19522152378704" fill="#ef5350" opacity="0.9"/><rect x="1383" y="995.7192360841942" width="10" height="24.280763915805778" fill="#26a69a" opacity="0.9"/><rect x="1395" y="999.7483105546099" width="10" height="20.25168944539007" fill="#ef5350" opacity="0.9"/><rect x="1407" y="999.9249439660257" width="10" height="20.075056033974306" fill="#26a69a" opacity="0.9"/><rect x="1419" y="1002.4341495475152" width="10" height="17.565850452484824" fill="#ef5350" opacity="0.9"/><rect x="1431" y="990.7017728643893" width="10" height="29.29822713561066" fill="#26a69a" opacity="0.9"/><rect x="1443" y="1005.269763561907" width="10" height="14.730236438093016" fill="#26a69a" opacity="0.9"/><rect x="1455" y="1002.7690894689833" width="10" height="17.23091053101666" fill="#26a69a" opacity="0.9"/><rect x="1467" y="1000.1287517484285" width="10" height="19.8712482515715" fill="#ef5350" opacity="0.9"/><rect x="1479" y="994.5368349652" width="10" height="25.4631650348" fill="#26a69a" opacity="0.9"/><rect x="1491" y="994.5125044237349" width="10" height="25.487495576265133" fill="#26a69a" opacity="0.9"/><rect x="1503" y="990.1187878123999" width="10" height="29.881212187600113" fill="#26a69a" opacity="0.9"/><rect x="1515" y="992.2263814691855" width="10" height="27.773618530814474" fill="#26a69a" opacity="0.9"/><rect x="1527" y="998.3352432632838" width="10" height="21.664756736716186" fill="#26a69a" opacity="0.9"/><rect x="1539" y="994.0707629046664" width="10" height="25.929237095333633" fill="#ef5350" opacity="0.9"/><rect x="1551" y="983.9852794957785" width="10" height="36.014720504221486" fill="#ef5350" opacity="0.9"/><rect x="1563" y="997.4776706719022" width="10" height="22.52232932809784" fill="#ef5350" opacity="0.9"/><rect x="1575" y="979.6531791907514" width="10" height="40.346820809248584" fill="#ef5350" opacity="0.9"/><rect x="1587" y="998.8025792480494" width="10" height="21.19742075195063" fill="#ef5350" opacity="0.9"/><rect x="1599" y="1004.4314658150626" width="10" height="15.568534184937448" fill="#26a69a" opacity="0.9"/><rect x="1611" y="1002.296381806232" width="10" height="17.703618193767966" fill="#ef5350" opacity="0.9"/><rect x="1623" y="999.945482734795" width="10" height="20.05451726520505" fill="#ef5350" opacity="0.9"/><rect x="1635" y="1004.1812088171355" width="10" height="15.818791182864516" fill="#ef5350" opacity="0.9"/><rect x="1647" y="1005.5497227792852" width="10" height="14.450277220714838" fill="#26a69a" opacity="0.9"/><rect x="1659" y="1005.0185586208058" width="10" height="14.981441379194166" fill="#26a69a" opacity="0.9"/><rect x="1671" y="1003.8149867709263" width="10" height="16.18501322907366" fill="#ef5350" opacity="0.9"/><rect x="1683" y="1004.1824727413674" width="10" height="15.817527258632595" fill="#26a69a" opacity="0.9"/><rect x="1695" y="1005.0267741283136" width="10" height="14.973225871686395" fill="#ef5350" opacity="0.9"/><rect x="1707" y="1001.787336321812" width="10" height="18.21266367818805" fill="#26a69a" opacity="0.9"/><rect x="1719" y="1004.7566103237331" width="10" height="15.24338967626693" fill="#26a69a" opacity="0.9"/><rect x="1731" y="990.1222636040378" width="10" height="29.877736395962188" fill="#26a69a" opacity="0.9"/><rect x="1743" y="997.5067409292371" width="10" height="22.49325907076286" fill="#26a69a" opacity="0.9"/><rect x="1755" y="996.2494522994995" width="10" height="23.750547700500533" fill="#26a69a" opacity="0.9"/><rect x="1767" y="1002.1507145384992" width="10" height="17.849285461500813" fill="#ef5350" opacity="0.9"/><rect x="1779" y="997.36802524478" width="10" height="22.63197475521997" fill="#26a69a" opacity="0.9"/><rect x="1791" y="989.778476212946" width="10" height="30.221523787054025" fill="#26a69a" opacity="0.9"/><rect x="1803" y="986.3086882151705" width="10" height="33.69131178482951" fill="#ef5350" opacity="0.9"/><rect x="1815" y="1002.0047312897083" width="10" height="17.995268710291725" fill="#26a69a" opacity="0.9"/><rect x="1827" y="995.0888538735064" width="10" height="24.911146126493577" fill="#ef5350" opacity="0.9"/><rect x="1839" y="997.5452906183117" width="10" height="22.454709381688303" fill="#ef5350" opacity="0.9"/><rect x="1851" y="1002.2553042686934" width="10" height="17.744695731306592" fill="#26a69a" opacity="0.9"/><rect x="1863" y="995.3416387198976" width="10" height="24.65836128010244" fill="#26a69a" opacity="0.9"/><rect x="1875" y="994.5728568058107" width="10" height="25.427143194189284" fill="#ef5350" opacity="0.9"/><rect x="1887" y="990.6900815652438" width="10" height="29.30991843475624" fill="#26a69a" opacity="0.9"/><rect x="1899" y="976.8839211985372" width="10" height="43.11607880146278" fill="#26a69a" opacity="0.9"/><rect x="1911" y="995.6787905087716" width="10" height="24.321209491228387" fill="#26a69a" opacity="0.9"/><rect x="1923" y="977.4665902694686" width="10" height="42.53340973053139" fill="#ef5350" opacity="0.9"/><rect x="1935" y="934.0833389507743" width="10" height="85.9166610492257" fill="#ef5350" opacity="0.9"/><rect x="1004" y="357.1598780000045" width="12" height="58.85584799999606" fill="#00ff00" opacity="0.50"/><polyline points="320,180.66429968571356,332,183.03258085850302,344,181.8501223005569,356,177.3600842719361,368,177.84842776984533,380,175.97213045843318,392,173.56198765286308,404,168.43621463830232,416,167.78883752989486,428,167.3931261461007,440,166.75008537027907,452,169.77849200168293,464,171.4734194300945,476,173.38694681770903,488,173.93066597792313,500,175.5056639800273,512,177.98522217240134,524,181.2261887274076,536,184.2059944676521,548,186.14196594692203,560,191.12374299959356,572,201.52140014249653,584,206.08352860512014,596,213.54585835700846,608,221.285546227773,620,226.34051020608013,632,229.29895713883752,644,231.78563636371337,656,231.47034309097307,668,228.33491565373834,680,226.16313816290585,692,224.38820738548202,704,218.69708525352962,716,210.79281799128466,728,202.97630027782816,740,195.42918577517412,752,188.7433522727747,764,184.45186472298474,776,178.28896055889345,788,174.6131077437667,800,171.00231995864306,812,170.39556805782468,824,171.08167233803897,836,172.3674711629883,848,176.9510075284188,860,189.838513859047,872,196.65336301533216,884,205.28931939481936,896,213.86284697626934,908,221.6198481213837,920,231.01322239554065,932,240.27203283405925,944,248.93406799271816,956,255.34606637436355,968,257.3471820529903,980,260.2027747146167,992,266.2066007417934,1004,280.4741364806773,1016,298.2281349110849,1028,310.96608720527,1040,329.3312903285823,1052,349.4626264877638,1064,374.8971032984514,1076,397.14920574621146,1088,416.42701167514815,1100,433.2988037060886,1112,448.1837367816979,1124,457.6608301358192,1136,464.3352350752707,1148,469.61393916334373,1160,472.5848068620735,1172,477.06833687520884,1184,481.99891383947033,1196,482.3651790928466,1208,492.4821186078134,1220,498.7853778832573,1232,498.59799170390033,1244,497.95342477972326,1256,491.95493708641607,1268,509.51904193533437,1280,530.920688322442,1292,535.5582449584062,1304,559.0402266766546,1316,586.5561859455397,1328,596.7257399507275,1340,603.1716082411322,1352,608.4335518372086,1364,604.1688445193813,1376,602.4004187556329,1388,598.4252793503288,1400,596.7288327455321,1412,594.6239200078594,1424,593.5745238166419,1436,591.7700214531465,1448,588.7122954099823,1460,583.380635466176,1472,579.9818337074953,1484,575.2916354496392,1496,564.9677768353854,1508,551.9124315177237,1520,539.2549043255599,1532,526.0927586755088,1544,514.18415070641,1556,503.50470130580334,1568,494.3173692766777,1580,488.9501888693758,1592,484.4741901199086,1604,479.94944991801276,1616,477.2807184020053,1628,475.91121122086406,1640,475.24216577126026,1652,474.3518227454274,1664,472.31120400776945,1676,471.41498391179084,1688,470.31910192018813,1700,470.27764373731316,1712,467.76999338137557,1724,463.9810803926707,1736,459.5079568314645,1748,453.56073694275665,1760,447.3248702815454,1772,443.67800920711034,1784,439.2384033778626,1796,431.7064171513948,1808,425.74681161316903,1820,418.64469022143567,1832,414.30908029558395,1844,410.5763963626714,1856,407.1992061376477,1868,402.6235666007324,1880,399.05373473399095,1892,392.30868685456244,1904,384.49592724937247,1916,377.0472183684774,1928,372.20801842862556,1940,370.2048297211377" fill="none" stroke="#0090ff" stroke-width="2"/><line x1="80" y1="50" x2="80" y2="850" stroke="#666666" stroke-width="0.5" stroke-dasharray="4,4"/><line x1="152" y1="50" x2="152" y2="850" stroke="#666666" stroke-width="0.5" stroke-dasharray="4,4"/><line x1="224" y1="50" x2="224" y2="850" stroke="#666666" stroke-width="0.5" stroke-dasharray="4,4"/><line x1="296" y1="50" x2="296" y2="850" stroke="#666666" stroke-width="0.5" stroke-dasharray="4,4"/><line x1="368" y1="50" x2="368" y2="850" stroke="#666666" stroke-width="0.5" stroke-dasharray="4,4"/><line x1="440" y1="50" x2="440" y2="850" stroke="#666666" stroke-width="0.5" stroke-dasharray="4,4"/><line x1="512" y1="50" x2="512" y2="850" stroke="#666666" stroke-width="0.5" stroke-dasharray="4,4"/><line x1="584" y1="50" x2="584" y2="850" stroke="#666666" stroke-width="0.5" stroke-dasharray="4,4"/><line x1="656" y1="50" x2="656" y2="850" stroke="#666666" stroke-width="0.5" stroke-dasharray="4,4"/><line x1="728" y1="50" x2="728" y2="850" stroke="#666666" stroke-width="0.5" stroke-dasharray="4,4"/><line x1="800" y1="50" x2="800" y2="850" stroke="#666666" stroke-width="0.5" stroke-dasharray="4,4"/><line x1="872" y1="50" x2="872" y2="850" stroke="#666666" stroke-width="0.5" stroke-dasharray="4,4"/><line x1="944" y1="50" x2="944" y2="850" stroke="#666666" stroke-width="0.5" stroke-dasharray="4,4"/><line x1="1016" y1="50" x2="1016" y2="850" stroke="#666666" stroke-width="0.5" stroke-dasharray="4,4"/><line x1="1088" y1="50" x2="1088" y2="850" stroke="#666666" stroke-width="0.5" stroke-dasharray="4,4"/><line x1="1160" y1="50" x2="1160" y2="850" stroke="#666666" stroke-width="0.5" stroke-dasharray="4,4"/><line x1="1232" y1="50" x2="1232" y2="850" stroke="#666666" stroke-width="0.5" stroke-dasharray="4,4"/><line x1="1304" y1="50" x2="1304" y2="850" stroke="#666666" stroke-width="0.5" stroke-dasharray="4,4"/><line x1="1376" y1="50" x2="1376" y2="850" stroke="#666666" stroke-width="0.5" stroke-dasharray="4,4"/><line x1="1448" y1="50" x2="1448" y2="850" stroke="#666666" stroke-width="0.5" stroke-dasharray="4,4"/><line x1="1520" y1="50" x2="1520" y2="850" stroke="#666666" stroke-width="0.5" stroke-dasharray="4,4"/><line x1="1592" y1="50" x2="1592" y2="850" stroke="#666666" stroke-width="0.5" stroke-dasharray="4,4"/><line x1="1664" y1="50" x2="1664" y2="850" stroke="#666666" stroke-width="0.5" stroke-dasharray="4,4"/><line x1="1736" y1="50" x2="1736" y2="850" stroke="#666666" stroke-width="0.5" stroke-dasharray="4,4"/><line x1="1808" y1="50" x2="1808" y2="850" stroke="#666666" stroke-width="0.5" stroke-dasharray="4,4"/><line x1="1880" y1="50" x2="1880" y2="850" stroke="#666666" stroke-width="0.5" stroke-dasharray="4,4"/><text x="80" y="1040" text-anchor="middle" font-size="20" fill="black">09:30</text><text x="152" y="1040" text-anchor="middle" font-size="20" fill="black">10:00</text><text x="224" y="1040" text-anchor="middle" font-size="20" fill="black">10:30</text><text x="296" y="1040" text-anchor="middle" font-size="20" fill="black">11:00</text><text x="368" y="1040" text-anchor="middle" font-size="20" fill="black">11:30</text><text x="440" y="1040" text-anchor="middle" font-size="20" fill="black">12:00</text><text x="512" y="1040" text-anchor="middle" font-size="20" fill="black">12:30</text><text x="584" y="1040" text-anchor="middle" font-size="20" fill="black">13:00</text><text x="656" y="1040" text-anchor="middle" font-size="20" fill="black">13:30</text><text x="728" y="1040" text-anchor="middle" font-size="20" fill="black">14:00</text><text x="800" y="1040" text-anchor="middle" font-size="20" fill="black">14:30</text><text x="872" y="1040" text-anchor="middle" font-size="20" fill="black">15:00</text><text x="944" y="1040" text-anchor="middle" font-size="20" fill="black">15:30</text><text x="1016" y="1040" text-anchor="middle" font-size="20" fill="black">09:30</text><text x="1088" y="1040" text-anchor="middle" font-size="20" fill="black">10:00</text><text x="1160" y="1040" text-anchor="middle" font-size="20" fill="black">10:30</text><text x="1232" y="1040" text-anchor="middle" font-size="20" fill="black">11:00</text><text x="1304" y="1040" text-anchor="middle" font-size="20" fill="black">11:30</text><text x="1376" y="1040" text-anchor="middle" font-size="20" fill="black">12:00</text><text x="1448" y="1040" text-anchor="middle" font-size="20" fill="black">12:30</text><text x="1520" y="1040" text-anchor="middle" font-size="20" fill="black">13:00</text><text x="1592" y="1040" text-anchor="middle" font-size="20" fill="black">13:30</text><text x="1664" y="1040" text-anchor="middle" font-size="20" fill="black">14:00</text><text x="1736" y="1040" text-anchor="middle" font-size="20" fill="black">14:30</text><text x="1808" y="1040" text-anchor="middle" font-size="20" fill="black">15:00</text><text x="1880" y="1040" text-anchor="middle" font-size="20" fill="black">15:30</text><text x="1942" y="50" text-anchor="end" font-size="40" fill="#26a69a" font-weight="bold"> +0.01% (Wed)</text></svg>