<svg xmlns="http://www.w3.org/2000/svg" width="1992" height="1050"><rect width="100%" height="100%" fill="white"/><text x="42" y="854.0" text-anchor="end" font-size="20" fill="black">595</text><text x="42" y="792.4615384615385" text-anchor="end" font-size="20" fill="black">596</text><text x="42" y="730.9230769230769" text-anchor="end" font-size="20" fill="black">597</text><text x="42" y="669.3846153846154" text-anchor="end" font-size="20" fill="black">598</text><text x="42" y="607.8461538461538" text-anchor="end" font-size="20" fill="black">599</text><text x="42" y="546.3076923076923" text-anchor="end" font-size="20" fill="black">600</text><text x="42" y="484.7692307692308" text-anchor="end" font-size="20" fill="black">601</text><text x="42" y="423.2307692307692" text-anchor="end" font-size="20" fill="black">602</text><text x="42" y="361.6923076923077" text-anchor="end" font-size="20" fill="black">603</text><text x="42" y="300.1538461538462" text-anchor="end" font-size="20" fill="black">604</text><text x="42" y="238.61538461538453" text-anchor="end" font-size="20" fill="black">605</text><text x="42" y="177.0769230769231" text-anchor="end" font-size="20" fill="black">606</text><text x="42" y="115.53846153846155" text-anchor="end" font-size="20" fill="black">607</text><text x="42" y="54.0" text-anchor="end" font-size="20" fill="black">608</text><line x1="80" y1="341.52855876922894" x2="80" y2="422.65479199999953" stroke="#ef5350" stroke-width="2"/><rect x="76" y="343.37233661538517" width="8" height="58.38630399999744" fill="#ef5350"/><line x1="92" y1="355.66419015384287" x2="92" y2="452.1552406153835" stroke="#ef5350" stroke-width="2"/><rect x="88" y="402.373233230768" width="8" height="39.94852430769242" fill="#ef5350"/><line x1="104" y1="385.77923138461233" x2="104" y2="463.21790830769226" stroke="#26a69a" stroke-width="2"/><rect x="100" y="430.0299040000027" width="8" height="12.291853538457701" fill="#26a69a"/><line x1="116" y1="367.9560436923077" x2="116" y2="497.02050584615233" stroke="#ef5350" stroke-width="2"/><rect x="112" y="434.9466455384642" width="8" height="34.41718953846038" fill="#ef5350"/><line x1="128" y1="364.8830800000024" x2="128" y2="479.81191076923307" stroke="#26a69a" stroke-width="2"/><rect x="124" y="375.33115569231086" width="8" height="91.57430892307207" fill="#26a69a"/><line x1="140" y1="312.64270276923037" x2="140" y2="380.86248984615077" stroke="#26a69a" stroke-width="2"/><rect x="136" y="328.6221120000007" width="8" height="50.396600000000774" fill="#26a69a"/><line x1="152" y1="283.75684676923174" x2="152" y2="324.31996369230967" stroke="#26a69a" stroke-width="2"/><rect x="148" y="289.9027735384641" width="8" height="32.57341169230426" fill="#26a69a"/><line x1="164" y1="203.24520615384665" x2="164" y2="291.13195876922805" stroke="#26a69a" stroke-width="2"/><rect x="160" y="206.93276246153732" width="8" height="82.35541846154138" fill="#26a69a"/><line x1="176" y1="183.57824061538577" x2="176" y2="241.34995199999776" stroke="#ef5350" stroke-width="2"/><rect x="172" y="206.31816984615193" width="8" height="23.96911384615896" fill="#ef5350"/><line x1="188" y1="195.8700941538434" x2="188" y2="238.27698892307762" stroke="#26a69a" stroke-width="2"/><rect x="184" y="218.61002338461662" width="8" height="9.218889846152479" fill="#26a69a"/><line x1="200" y1="186.6512036923059" x2="200" y2="236.4332104615362" stroke="#26a69a" stroke-width="2"/><rect x="196" y="191.56794523076735" width="8" height="24.58370707692245" fill="#26a69a"/><line x1="212" y1="179.89068430769498" x2="212" y2="213.69328184615506" stroke="#ef5350" stroke-width="2"/><rect x="208" y="191.56794523076735" width="8" height="5.531334153846842" fill="#ef5350"/><line x1="224" y1="177.43231384615342" x2="224" y2="203.24520615384665" stroke="#26a69a" stroke-width="2"/><rect x="220" y="187.8803895384617" width="8" height="6.1459267692323465" fill="#26a69a"/><line x1="236" y1="181.11986953845894" x2="236" y2="205.08898400000294" stroke="#ef5350" stroke-width="2"/><rect x="232" y="188.49498215384722" width="8" height="4.916740923076418" fill="#ef5350"/><line x1="248" y1="188.49498215384722" x2="248" y2="229.05809846153988" stroke="#ef5350" stroke-width="2"/><rect x="244" y="192.18253784615285" width="8" height="17.208595076926144" fill="#ef5350"/><line x1="260" y1="189.7241673846181" x2="260" y2="224.14135692307843" stroke="#ef5350" stroke-width="2"/><rect x="256" y="206.31816984615193" width="8" height="9.218889846152479" fill="#ef5350"/><line x1="272" y1="206.31816984615193" x2="272" y2="235.8186178461508" stroke="#ef5350" stroke-width="2"/><rect x="268" y="214.92246707692595" width="8" height="8.604297230766974" fill="#ef5350"/><line x1="284" y1="180.50527692307355" x2="284" y2="228.4435058461545" stroke="#26a69a" stroke-width="2"/><rect x="280" y="200.17224307692652" width="8" height="22.739928615381018" fill="#26a69a"/><line x1="296" y1="184.80742584615655" x2="296" y2="225.3705427692273" stroke="#ef5350" stroke-width="2"/><rect x="292" y="197.0992793846142" width="8" height="14.135631384614044" fill="#ef5350"/><line x1="308" y1="191.56794523076735" x2="308" y2="224.75595015384897" stroke="#ef5350" stroke-width="2"/><rect x="304" y="214.92246707692595" width="8" height="2.458370461534628" fill="#ef5350"/><line x1="320" y1="212.46409661538428" x2="320" y2="261.01691753845864" stroke="#ef5350" stroke-width="2"/><rect x="316" y="217.38083753846058" width="8" height="15.364817230770086" fill="#ef5350"/><line x1="332" y1="221.68298646153676" x2="332" y2="269.0066227692323" stroke="#ef5350" stroke-width="2"/><rect x="328" y="233.36024738461606" width="8" height="31.958819076925693" fill="#ef5350"/><line x1="344" y1="250.56884246153527" x2="344" y2="273.3087716923085" stroke="#26a69a" stroke-width="2"/><rect x="340" y="262.86069599999996" width="8" height="2" fill="#26a69a"/><line x1="356" y1="222.91217169230754" x2="356" y2="276.996327384614" stroke="#ef5350" stroke-width="2"/><rect x="352" y="264.08988123077086" width="8" height="7.989704615381584" fill="#ef5350"/><line x1="368" y1="259.7877323076948" x2="368" y2="343.37233661538517" stroke="#ef5350" stroke-width="2"/><rect x="364" y="269.0066227692323" width="8" height="55.92793353846287" fill="#ef5350"/><line x1="380" y1="324.31996369230967" x2="380" y2="393.1543433846155" stroke="#ef5350" stroke-width="2"/><rect x="376" y="325.5491489230735" width="8" height="20.28155815384639" fill="#ef5350"/><line x1="392" y1="345.2161144615415" x2="392" y2="442.9363501538459" stroke="#ef5350" stroke-width="2"/><rect x="388" y="346.4452996923053" width="8" height="56.54252676923329" fill="#ef5350"/><line x1="404" y1="404.21701169230937" x2="404" y2="471.8222061538444" stroke="#ef5350" stroke-width="2"/><rect x="400" y="404.21701169230937" width="8" height="52.85496984615054" fill="#ef5350"/><line x1="416" y1="454.61361107692517" x2="416" y2="526.5209544615362" stroke="#ef5350" stroke-width="2"/><rect x="412" y="457.6865741538453" width="8" height="27.042078153849275" fill="#ef5350"/><line x1="428" y1="422.040199384614" x2="428" y2="489.6453938461561" stroke="#26a69a" stroke-width="2"/><rect x="424" y="441.707164923075" width="8" height="43.63608000000494" fill="#26a69a"/><line x1="440" y1="383.3208603076925" x2="440" y2="450.92605476922756" stroke="#26a69a" stroke-width="2"/><rect x="436" y="422.65479199999953" width="8" height="18.437780307690048" fill="#26a69a"/><line x1="452" y1="372.8727852307691" x2="452" y2="453.9990184615398" stroke="#26a69a" stroke-width="2"/><rect x="448" y="390.69597292307384" width="8" height="30.115040615384316" fill="#26a69a"/><line x1="464" y1="385.16463876923393" x2="464" y2="430.6444966153811" stroke="#ef5350" stroke-width="2"/><rect x="460" y="390.69597292307384" width="8" height="8.604297230774023" fill="#ef5350"/><line x1="476" y1="388.85219446153945" x2="476" y2="453.38442584615433" stroke="#ef5350" stroke-width="2"/><rect x="472" y="402.373233230768" width="8" height="27.04207815384933" fill="#ef5350"/><line x1="488" y1="394.9981212307718" x2="488" y2="436.79042338461346" stroke="#26a69a" stroke-width="2"/><rect x="484" y="401.7586406153826" width="8" height="27.042078153849275" fill="#26a69a"/><line x1="500" y1="356.27878276922837" x2="500" y2="417.1234578461526" stroke="#ef5350" stroke-width="2"/><rect x="496" y="401.7586406153826" width="8" height="2" fill="#ef5350"/><line x1="512" y1="393.1543433846155" x2="512" y2="442.9363501538459" stroke="#ef5350" stroke-width="2"/><rect x="508" y="404.21701169230937" width="8" height="31.9588190769187" fill="#ef5350"/><line x1="524" y1="392.53975076923007" x2="524" y2="448.46768430769276" stroke="#26a69a" stroke-width="2"/><rect x="520" y="422.040199384614" width="8" height="14.135631384614044" fill="#26a69a"/><line x1="536" y1="415.2796800000033" x2="536" y2="450.3114621538491" stroke="#ef5350" stroke-width="2"/><rect x="532" y="421.42560676922864" width="8" height="15.97940923077033" fill="#ef5350"/><line x1="548" y1="434.9466455384642" x2="548" y2="484.1140596923092" stroke="#ef5350" stroke-width="2"/><rect x="544" y="436.79042338461346" width="8" height="19.052372923075552" fill="#ef5350"/><line x1="560" y1="452.1552406153835" x2="560" y2="495.176728000003" stroke="#ef5350" stroke-width="2"/><rect x="556" y="455.22820369231056" width="8" height="25.198299692307955" fill="#ef5350"/><line x1="572" y1="460.1449452307721" x2="572" y2="502.5518399999993" stroke="#ef5350" stroke-width="2"/><rect x="568" y="479.1973181538476" width="8" height="10.448075692308464" fill="#ef5350"/><line x1="584" y1="486.5724301538438" x2="584" y2="591.0531852307661" stroke="#ef5350" stroke-width="2"/><rect x="580" y="488.41620861538524" width="8" height="76.82408430769453" fill="#ef5350"/><line x1="596" y1="554.1776246153859" x2="596" y2="675.2523821538489" stroke="#ef5350" stroke-width="2"/><rect x="592" y="562.1673292307676" width="8" height="92.18890153846439" fill="#ef5350"/><line x1="608" y1="648.8248972307701" x2="608" y2="785.264471384618" stroke="#ef5350" stroke-width="2"/><rect x="604" y="653.1270455384611" width="8" height="125.37690646153919" fill="#ef5350"/><line x1="620" y1="710.8987575384582" x2="620" y2="839.9632196923098" stroke="#26a69a" stroke-width="2"/><rect x="616" y="738.5554276923078" width="8" height="41.79230215384871" fill="#26a69a"/><line x1="632" y1="686.3150504615357" x2="632" y2="777.2747661538443" stroke="#26a69a" stroke-width="2"/><rect x="628" y="694.3047550769244" width="8" height="44.86526523076884" fill="#26a69a"/><line x1="644" y1="648.2103039999996" x2="644" y2="734.2532787692318" stroke="#ef5350" stroke-width="2"/><rect x="640" y="690.6171987692337" width="8" height="26.42748553845695" fill="#ef5350"/><line x1="656" y1="651.2832676923049" x2="656" y2="728.7219452307698" stroke="#26a69a" stroke-width="2"/><rect x="652" y="663.2678246153844" width="8" height="52.547673846157295" fill="#26a69a"/><line x1="668" y1="602.7304461538454" x2="668" y2="666.0334916923043" stroke="#26a69a" stroke-width="2"/><rect x="664" y="615.0222996923101" width="8" height="51.01119199999425" fill="#26a69a"/><line x1="680" y1="579.3759243076937" x2="680" y2="630.38711692308" stroke="#26a69a" stroke-width="2"/><rect x="676" y="583.0634806153844" width="8" height="30.115041230769407" fill="#26a69a"/><line x1="692" y1="522.2188055384602" x2="692" y2="584.2926658461553" stroke="#26a69a" stroke-width="2"/><rect x="688" y="533.2814738461541" width="8" height="49.78200676923029" fill="#26a69a"/><line x1="704" y1="481.65568861538236" x2="704" y2="532.6668812307687" stroke="#26a69a" stroke-width="2"/><rect x="700" y="489.03080123077063" width="8" height="41.17770892307817" fill="#26a69a"/><line x1="716" y1="471.8222061538444" x2="716" y2="527.7501396923071" stroke="#26a69a" stroke-width="2"/><rect x="712" y="485.34324492307996" width="8" height="2" fill="#26a69a"/><line x1="728" y1="468.7492424615392" x2="728" y2="551.7192541538442" stroke="#ef5350" stroke-width="2"/><rect x="724" y="489.03080123077063" width="8" height="51.01119200000119" fill="#ef5350"/><line x1="740" y1="503.1664326153847" x2="740" y2="545.5733273846188" stroke="#26a69a" stroke-width="2"/><rect x="736" y="506.2393956923048" width="8" height="32.57341230769623" fill="#26a69a"/><line x1="752" y1="479.1973181538476" x2="752" y2="532.6668812307687" stroke="#26a69a" stroke-width="2"/><rect x="748" y="498.2496910769231" width="8" height="9.218890461537626" fill="#26a69a"/><line x1="764" y1="474.89516923077156" x2="764" y2="513.6145083076931" stroke="#ef5350" stroke-width="2"/><rect x="760" y="499.478876307694" width="8" height="2" fill="#ef5350"/><line x1="776" y1="459.53035261538673" x2="776" y2="508.69776676923163" stroke="#26a69a" stroke-width="2"/><rect x="772" y="490.87457907692" width="8" height="11.677260923079302" fill="#26a69a"/><line x1="788" y1="476.73894769230594" x2="788" y2="512.3853224615372" stroke="#ef5350" stroke-width="2"/><rect x="784" y="490.87457907692" width="8" height="14.75022400000637" fill="#ef5350"/><line x1="800" y1="456.45738892307446" x2="800" y2="512.9999150769225" stroke="#26a69a" stroke-width="2"/><rect x="796" y="462.60331569230686" width="8" height="43.02148738461949" fill="#26a69a"/><line x1="812" y1="453.38442584615433" x2="812" y2="473.66598400000066" stroke="#26a69a" stroke-width="2"/><rect x="808" y="457.6865741538453" width="8" height="7.375112615388332" fill="#26a69a"/><line x1="824" y1="419.58182830769425" x2="824" y2="460.7595378461506" stroke="#26a69a" stroke-width="2"/><rect x="820" y="453.38442584615433" width="8" height="4.30214830769097" fill="#26a69a"/><line x1="836" y1="442.3217575384604" x2="836" y2="471.207613538459" stroke="#ef5350" stroke-width="2"/><rect x="832" y="453.9990184615398" width="8" height="4.9167415384614515" fill="#ef5350"/><line x1="848" y1="421.42560676922864" x2="848" y2="461.98872307692136" stroke="#26a69a" stroke-width="2"/><rect x="844" y="426.9569403076905" width="8" height="30.729633846154798" fill="#26a69a"/><line x1="860" y1="405.75349353845854" x2="860" y2="438.01960861538436" stroke="#26a69a" stroke-width="2"/><rect x="856" y="414.6650867692328" width="8" height="12.291853538457701" fill="#26a69a"/><line x1="872" y1="410.97753107692023" x2="872" y2="450.3114621538491" stroke="#ef5350" stroke-width="2"/><rect x="868" y="415.2796800000033" width="8" height="28.88585538461348" fill="#ef5350"/><line x1="884" y1="440.4779796923112" x2="884" y2="473.66598400000066" stroke="#ef5350" stroke-width="2"/><rect x="880" y="443.5509427692313" width="8" height="22.125336615380718" fill="#ef5350"/><line x1="896" y1="455.22820369231056" x2="896" y2="487.8016153846147" stroke="#26a69a" stroke-width="2"/><rect x="892" y="456.45738892307446" width="8" height="8.60429784615917" fill="#26a69a"/><line x1="908" y1="423.88397723077037" x2="908" y2="460.1449452307721" stroke="#26a69a" stroke-width="2"/><rect x="904" y="424.49856984615576" width="8" height="32.57341169230415" fill="#26a69a"/><line x1="920" y1="411.5921236923056" x2="920" y2="439.2487938461552" stroke="#ef5350" stroke-width="2"/><rect x="916" y="424.49856984615576" width="8" height="8.604297230767088" fill="#ef5350"/><line x1="932" y1="416.5088652307672" x2="932" y2="435.5612381538426" stroke="#26a69a" stroke-width="2"/><rect x="928" y="428.8007187692319" width="8" height="3.6875556923055797" fill="#26a69a"/><line x1="944" y1="421.42560676922864" x2="944" y2="446.00931384615114" stroke="#ef5350" stroke-width="2"/><rect x="940" y="428.1861261538465" width="8" height="13.52103876922854" fill="#ef5350"/><line x1="956" y1="442.3217575384604" x2="956" y2="517.3020639999987" stroke="#ef5350" stroke-width="2"/><rect x="952" y="442.3217575384604" width="8" height="71.29275076923267" fill="#ef5350"/><line x1="968" y1="474.89516923077156" x2="968" y2="528.3647323076925" stroke="#26a69a" stroke-width="2"/><rect x="964" y="476.1243544615354" width="8" height="36.875560615387144" fill="#26a69a"/><line x1="980" y1="474.83371015384296" x2="980" y2="498.2496910769231" stroke="#ef5350" stroke-width="2"/><rect x="976" y="476.1243544615354" width="8" height="12.29185415384984" fill="#ef5350"/><line x1="992" y1="478.5827255384622" x2="992" y2="562.781922461538" stroke="#ef5350" stroke-width="2"/><rect x="988" y="484.7286523076946" width="8" height="67.605194461535" fill="#ef5350"/><line x1="1004" y1="448.46768430769276" x2="1004" y2="572.615404923076" stroke="#26a69a" stroke-width="2"/><rect x="1000" y="457.0719815384599" width="8" height="95.87645784615506" fill="#26a69a"/><line x1="1016" y1="187.2657963076913" x2="1016" y2="281.2984763076902" stroke="#26a69a" stroke-width="2"/><rect x="1012" y="212.40263692307758" width="8" height="63.364505230765644" fill="#26a69a"/><line x1="1028" y1="210.0057255384645" x2="1028" y2="264.08988123077086" stroke="#ef5350" stroke-width="2"/><rect x="1024" y="210.0057255384645" width="8" height="43.636079999997946" fill="#ef5350"/><line x1="1040" y1="203.24520615384665" x2="1040" y2="286.21521784615163" stroke="#26a69a" stroke-width="2"/><rect x="1036" y="206.93276246153732" width="8" height="44.86526523076873" fill="#26a69a"/><line x1="1052" y1="158.3799409230778" x2="1052" y2="272.07958584615244" stroke="#ef5350" stroke-width="2"/><rect x="1048" y="208.1619476923081" width="8" height="60.844675076924204" fill="#ef5350"/><line x1="1064" y1="237.04780369230662" x2="1064" y2="303.42381230769274" stroke="#26a69a" stroke-width="2"/><rect x="1060" y="247.4958787692301" width="8" height="18.43778030768999" fill="#26a69a"/><line x1="1076" y1="200.78683569230498" x2="1076" y2="271.46499323076705" stroke="#ef5350" stroke-width="2"/><rect x="1072" y="245.03750830769536" width="8" height="4.916741538461565" fill="#ef5350"/><line x1="1088" y1="232.13106215384528" x2="1088" y2="290.5173661538496" stroke="#26a69a" stroke-width="2"/><rect x="1084" y="241.96454461538315" width="8" height="8.604297846152122" fill="#26a69a"/><line x1="1100" y1="214.30787446154045" x2="1100" y2="278.8401052307703" stroke="#ef5350" stroke-width="2"/><rect x="1096" y="243.19373046153908" width="8" height="21.510743384617285" fill="#ef5350"/><line x1="1112" y1="249.33965723077142" x2="1112" y2="321.86159261538285" stroke="#ef5350" stroke-width="2"/><rect x="1108" y="262.86069599999996" width="8" height="14.135631384614044" fill="#ef5350"/><line x1="1124" y1="207.5473550769227" x2="1124" y2="296.0487003076896" stroke="#26a69a" stroke-width="2"/><rect x="1120" y="237.66239630769212" width="8" height="39.948523692307276" fill="#26a69a"/><line x1="1136" y1="175.58853599999702" x2="1136" y2="241.96454461538315" stroke="#26a69a" stroke-width="2"/><rect x="1132" y="215.5370596923044" width="8" height="22.12533661538771" fill="#26a69a"/><line x1="1148" y1="192.18253784615285" x2="1148" y2="275.7671421538432" stroke="#ef5350" stroke-width="2"/><rect x="1144" y="215.5370596923044" width="8" height="7.9897046153885185" fill="#ef5350"/><line x1="1160" y1="178.0469064615388" x2="1160" y2="222.29757907692215" stroke="#26a69a" stroke-width="2"/><rect x="1156" y="181.11986953845894" width="8" height="40.563116923077814" fill="#26a69a"/><line x1="1172" y1="128.8794923076939" x2="1172" y2="187.8803895384617" stroke="#26a69a" stroke-width="2"/><rect x="1168" y="155.30697723077265" width="8" height="27.042078153842112" fill="#26a69a"/><line x1="1184" y1="79.712078153849" x2="1184" y2="158.9945335384632" stroke="#26a69a" stroke-width="2"/><rect x="1180" y="92.61852430769204" width="8" height="63.91763815384434" fill="#26a69a"/><line x1="1196" y1="79.0974855384635" x2="1196" y2="153.46319938461625" stroke="#ef5350" stroke-width="2"/><rect x="1192" y="92.61852430769204" width="8" height="36.26096800000187" fill="#ef5350"/><line x1="1208" y1="132.56704861538446" x2="1208" y2="187.2657963076913" stroke="#ef5350" stroke-width="2"/><rect x="1204" y="133.79623384615536" width="8" height="4.9167415384614515" fill="#ef5350"/><line x1="1220" y1="124.57734338461773" x2="1220" y2="200.78683569230498" stroke="#ef5350" stroke-width="2"/><rect x="1216" y="141.78593846153694" width="8" height="43.636079999997946" fill="#ef5350"/><line x1="1232" y1="159.6091261538486" x2="1232" y2="202.01602092307576" stroke="#ef5350" stroke-width="2"/><rect x="1228" y="183.57824061538577" width="8" height="6.760519384617737" fill="#ef5350"/><line x1="1244" y1="155.30697723077265" x2="1244" y2="232.74565476923067" stroke="#26a69a" stroke-width="2"/><rect x="1240" y="158.3799409230778" width="8" height="31.344226461540302" fill="#26a69a"/><line x1="1256" y1="149.7756430769257" x2="1256" y2="186.6512036923059" stroke="#ef5350" stroke-width="2"/><rect x="1252" y="158.3799409230778" width="8" height="2" fill="#ef5350"/><line x1="1268" y1="155.30697723077265" x2="1268" y2="195.8700941538434" stroke="#ef5350" stroke-width="2"/><rect x="1264" y="161.45290399999794" width="8" height="4.916741538461565" fill="#ef5350"/><line x1="1280" y1="155.921569846151" x2="1280" y2="221.06839384615137" stroke="#ef5350" stroke-width="2"/><rect x="1276" y="166.9842381538449" width="8" height="49.78200676923029" fill="#ef5350"/><line x1="1292" y1="215.5370596923044" x2="1292" y2="314.48648061538665" stroke="#ef5350" stroke-width="2"/><rect x="1288" y="217.38083753846058" width="8" height="69.44897292307655" fill="#ef5350"/><line x1="1304" y1="254.25639815384784" x2="1304" y2="342.7577439999998" stroke="#26a69a" stroke-width="2"/><rect x="1300" y="254.25639815384784" width="8" height="32.573412307689296" fill="#26a69a"/><line x1="1316" y1="235.20402523077223" x2="1316" y2="286.82981046153714" stroke="#ef5350" stroke-width="2"/><rect x="1312" y="254.25639815384784" width="8" height="18.437780307690105" fill="#ef5350"/><line x1="1328" y1="270.2358080000033" x2="1328" y2="376.56034092307476" stroke="#ef5350" stroke-width="2"/><rect x="1324" y="272.69417846153794" width="8" height="72.52193600000356" fill="#ef5350"/><line x1="1340" y1="339.68478030769455" x2="1340" y2="399.30027015384786" stroke="#ef5350" stroke-width="2"/><rect x="1336" y="343.37233661538517" width="8" height="42.406894769227165" fill="#ef5350"/><line x1="1352" y1="314.48648061538665" x2="1352" y2="385.16463876923393" stroke="#26a69a" stroke-width="2"/><rect x="1348" y="361.1955243076898" width="8" height="23.96911446154411" fill="#26a69a"/><line x1="1364" y1="355.04959753846447" x2="1364" y2="420.19642092307964" stroke="#ef5350" stroke-width="2"/><rect x="1360" y="358.73715323077005" width="8" height="23.354521846151556" fill="#ef5350"/><line x1="1376" y1="379.633304615387" x2="1376" y2="439.2487938461552" stroke="#ef5350" stroke-width="2"/><rect x="1372" y="387.00841661538317" width="8" height="2.458370461541733" fill="#ef5350"/><line x1="1388" y1="346.4452996923053" x2="1388" y2="399.91486276923337" stroke="#26a69a" stroke-width="2"/><rect x="1384" y="387.62300923076856" width="8" height="2" fill="#26a69a"/><line x1="1400" y1="348.28907815384673" x2="1400" y2="410.97753107692023" stroke="#26a69a" stroke-width="2"/><rect x="1396" y="369.7998215384639" width="8" height="11.67726092307231" fill="#26a69a"/><line x1="1412" y1="346.4452996923053" x2="1412" y2="482.27028123076775" stroke="#ef5350" stroke-width="2"/><rect x="1408" y="371.6435993846132" width="8" height="100.17860676923118" fill="#ef5350"/><line x1="1424" y1="426.9569403076905" x2="1424" y2="496.4059132307669" stroke="#26a69a" stroke-width="2"/><rect x="1420" y="442.3217575384604" width="8" height="28.88585599999857" fill="#26a69a"/><line x1="1436" y1="430.0299040000027" x2="1436" y2="534.5106590769249" stroke="#ef5350" stroke-width="2"/><rect x="1432" y="443.5509427692313" width="8" height="80.51164061538515" fill="#ef5350"/><line x1="1448" y1="522.8333981538456" x2="1448" y2="701.6798670769206" stroke="#ef5350" stroke-width="2"/><rect x="1444" y="522.8333981538456" width="8" height="162.86705969231184" fill="#ef5350"/><line x1="1460" y1="600.2720756923106" x2="1460" y2="686.9296430769211" stroke="#26a69a" stroke-width="2"/><rect x="1456" y="663.5751212307696" width="8" height="22.739929230766165" fill="#26a69a"/><line x1="1472" y1="592.8969630769224" x2="1472" y2="707.8257938461529" stroke="#26a69a" stroke-width="2"/><rect x="1468" y="634.6892652307711" width="8" height="28.27126338461312" fill="#26a69a"/><line x1="1484" y1="621.1682264615355" x2="1484" y2="736.0970572307662" stroke="#26a69a" stroke-width="2"/><rect x="1480" y="626.0849679999969" width="8" height="12.291853538464807" fill="#26a69a"/><line x1="1496" y1="545.5733273846188" x2="1496" y2="631.0017095384585" stroke="#26a69a" stroke-width="2"/><rect x="1492" y="556.6359956923056" width="8" height="72.52193538461847" fill="#26a69a"/><line x1="1508" y1="438.6342012307698" x2="1508" y2="557.2505883076911" stroke="#26a69a" stroke-width="2"/><rect x="1504" y="447.8530916923074" width="8" height="109.39749661538377" fill="#26a69a"/><line x1="1520" y1="431.2590892307666" x2="1520" y2="570.1570344615412" stroke="#ef5350" stroke-width="2"/><rect x="1516" y="444.78012800000215" width="8" height="101.40779199999508" fill="#ef5350"/><line x1="1532" y1="469.97842769231" x2="1532" y2="596.584519384613" stroke="#26a69a" stroke-width="2"/><rect x="1528" y="501.3226547692284" width="8" height="41.17770892307817" fill="#26a69a"/><line x1="1544" y1="452.1552406153835" x2="1544" y2="527.7501396923071" stroke="#26a69a" stroke-width="2"/><rect x="1540" y="504.3956178461555" width="8" height="3.68755630769067" fill="#26a69a"/><line x1="1556" y1="392.53975076923007" x2="1556" y2="522.8333981538456" stroke="#26a69a" stroke-width="2"/><rect x="1552" y="436.79042338461346" width="8" height="67.60519446154206" fill="#26a69a"/><line x1="1568" y1="432.48827446153746" x2="1568" y2="524.0625833846165" stroke="#ef5350" stroke-width="2"/><rect x="1564" y="441.707164923075" width="8" height="54.08415569230641" fill="#ef5350"/><line x1="1580" y1="436.17583076922807" x2="1580" y2="509.9269520000024" stroke="#26a69a" stroke-width="2"/><rect x="1576" y="442.9363501538459" width="8" height="51.62578523077167" fill="#26a69a"/><line x1="1592" y1="402.373233230768" x2="1592" y2="477.35354030769133" stroke="#ef5350" stroke-width="2"/><rect x="1588" y="445.39472061538754" width="8" height="13.521039384613687" fill="#ef5350"/><line x1="1604" y1="433.10286707692285" x2="1604" y2="493.33294953846166" stroke="#ef5350" stroke-width="2"/><rect x="1600" y="460.7595378461506" width="8" height="31.344226461540188" fill="#ef5350"/><line x1="1616" y1="487.1870227692293" x2="1616" y2="559.0943661538474" stroke="#ef5350" stroke-width="2"/><rect x="1612" y="492.10376430769077" width="8" height="35.03178276923097" fill="#ef5350"/><line x1="1628" y1="509.9269520000024" x2="1628" y2="568.3132559999999" stroke="#26a69a" stroke-width="2"/><rect x="1624" y="519.145841846155" width="8" height="6.1459267692323465" fill="#26a69a"/><line x1="1640" y1="516.0728787692278" x2="1640" y2="593.5115563076929" stroke="#ef5350" stroke-width="2"/><rect x="1636" y="519.145841846155" width="8" height="65.14682400000027" fill="#ef5350"/><line x1="1652" y1="538.1982153846155" x2="1652" y2="581.2197027692281" stroke="#26a69a" stroke-width="2"/><rect x="1648" y="539.4274006153864" width="8" height="39.333931076921886" fill="#26a69a"/><line x1="1664" y1="530.2085101538488" x2="1664" y2="644.5227483076941" stroke="#ef5350" stroke-width="2"/><rect x="1660" y="540.0419932307718" width="8" height="104.48075507692226" fill="#ef5350"/><line x1="1676" y1="634.6892652307711" x2="1676" y2="697.992311384615" stroke="#ef5350" stroke-width="2"/><rect x="1672" y="642.6789704615378" width="8" height="43.021487384619604" fill="#ef5350"/><line x1="1688" y1="669.1064553846165" x2="1688" y2="787.7228418461527" stroke="#ef5350" stroke-width="2"/><rect x="1684" y="683.856679384616" width="8" height="85.42838215384666" fill="#ef5350"/><line x1="1700" y1="743.4721692307693" x2="1700" y2="838.1194412307685" stroke="#ef5350" stroke-width="2"/><rect x="1696" y="770.5142467692335" width="8" height="55.31334092307725" fill="#ef5350"/><line x1="1712" y1="723.8052036923084" x2="1712" y2="831.3589218461507" stroke="#26a69a" stroke-width="2"/><rect x="1708" y="756.3786153846124" width="8" height="69.44897230769834" fill="#26a69a"/><line x1="1724" y1="736.0970572307662" x2="1724" y2="816.6086978461512" stroke="#ef5350" stroke-width="2"/><rect x="1720" y="755.7640227692341" width="8" height="31.344226461533253" fill="#ef5350"/><line x1="1736" y1="758.8369858461542" x2="1736" y2="867.005297230767" stroke="#ef5350" stroke-width="2"/><rect x="1732" y="786.4936566153818" width="8" height="63.917638153851385" fill="#ef5350"/><line x1="1748" y1="741.628391384613" x2="1748" y2="864.5469267692323" stroke="#26a69a" stroke-width="2"/><rect x="1744" y="777.2747661538443" width="8" height="68.21978769231248" fill="#26a69a"/><line x1="1760" y1="661.7313433846133" x2="1760" y2="784.0352861538472" stroke="#26a69a" stroke-width="2"/><rect x="1756" y="688.158828307692" width="8" height="87.27216000000294" fill="#26a69a"/><line x1="1772" y1="640.220599384618" x2="1772" y2="704.1382381538474" stroke="#ef5350" stroke-width="2"/><rect x="1768" y="686.9296430769211" width="8" height="9.218889846152479" fill="#ef5350"/><line x1="1784" y1="648.8248972307701" x2="1784" y2="717.0446843076907" stroke="#26a69a" stroke-width="2"/><rect x="1780" y="648.8248972307701" width="8" height="43.021487384612556" fill="#26a69a"/><line x1="1796" y1="634.0746726153856" x2="1796" y2="668.4918627692311" stroke="#26a69a" stroke-width="2"/><rect x="1792" y="636.5330436923055" width="8" height="11.062667692308764" fill="#26a69a"/><line x1="1808" y1="618.7098560000007" x2="1808" y2="687.5442356923066" stroke="#ef5350" stroke-width="2"/><rect x="1804" y="633.4600800000002" width="8" height="19.052372923075495" fill="#ef5350"/><line x1="1820" y1="628.5433384615387" x2="1820" y2="672.7940110769221" stroke="#26a69a" stroke-width="2"/><rect x="1816" y="650.6686750769264" width="8" height="2" fill="#26a69a"/><line x1="1832" y1="608.8763729230777" x2="1832" y2="705.3674233846183" stroke="#ef5350" stroke-width="2"/><rect x="1828" y="653.1270455384611" width="8" height="49.167414153845016" fill="#ef5350"/><line x1="1844" y1="685.0858646153868" x2="1844" y2="744.0867618461548" stroke="#ef5350" stroke-width="2"/><rect x="1840" y="699.221496615386" width="8" height="38.10474584615099" fill="#ef5350"/><line x1="1856" y1="696.7631255384591" x2="1856" y2="793.8687686153851" stroke="#26a69a" stroke-width="2"/><rect x="1852" y="709.6695723076944" width="8" height="27.656670153842583" fill="#26a69a"/><line x1="1868" y1="695.5339403076953" x2="1868" y2="752.6910590769219" stroke="#ef5350" stroke-width="2"/><rect x="1864" y="705.9820159999967" width="8" height="25.812892307693232" fill="#ef5350"/><line x1="1880" y1="716.4300916923052" x2="1880" y2="771.7434326153824" stroke="#ef5350" stroke-width="2"/><rect x="1876" y="731.1803156923046" width="8" height="14.750224000006483" fill="#ef5350"/><line x1="1892" y1="672.1794184615367" x2="1892" y2="758.8369858461542" stroke="#26a69a" stroke-width="2"/><rect x="1888" y="718.8884621538468" width="8" height="26.427484923078737" fill="#26a69a"/><line x1="1904" y1="663.5751212307696" x2="1904" y2="718.8884621538468" stroke="#26a69a" stroke-width="2"/><rect x="1900" y="674.6377895384635" width="8" height="43.636079999997946" fill="#26a69a"/><line x1="1916" y1="631.0017095384585" x2="1916" y2="705.3674233846183" stroke="#26a69a" stroke-width="2"/><rect x="1912" y="632.8454873846148" width="8" height="43.021487384612556" fill="#26a69a"/><line x1="1928" y1="582.448887999999" x2="1928" y2="656.2000092307663" stroke="#26a69a" stroke-width="2"/><rect x="1924" y="589.8240000000022" width="8" height="44.86526523076884" fill="#26a69a"/><line x1="1940" y1="568.9278492307704" x2="1940" y2="637.7622289230762" stroke="#ef5350" stroke-width="2"/><rect x="1936" y="588.5948147692313" width="8" height="2.4583704615347415" fill="#ef5350"/><rect x="75" y="916.8862598027192" width="10" height="103.11374019728078" fill="#ef5350" opacity="0.9"/><rect x="87" y="965.3559925819119" width="10" height="54.64400741808811" fill="#ef5350" opacity="0.9"/><rect x="99" y="964.4427149835752" width="10" height="55.55728501642477" fill="#26a69a" opacity="0.9"/><rect x="111" y="943.6873124560153" width="10" height="76.31268754398468" fill="#ef5350" opacity="0.9"/><rect x="123" y="960.7627839378678" width="10" height="59.237216062132234" fill="#26a69a" opacity="0.9"/><rect x="135" y="946.2105169050343" width="10" height="73.7894830949657" fill="#26a69a" opacity="0.9"/><rect x="147" y="964.2587528167415" width="10" height="55.74124718325845" fill="#26a69a" opacity="0.9"/><rect x="159" y="949.8832270058754" width="10" height="70.11677299412463" fill="#26a69a" opacity="0.9"/><rect x="171" y="943.6900632921548" width="10" height="76.30993670784517" fill="#ef5350" opacity="0.9"/><rect x="183" y="966.9645440145244" width="10" height="53.03545598547555" fill="#26a69a" opacity="0.9"/><rect x="195" y="956.6121160577767" width="10" height="63.38788394222331" fill="#26a69a" opacity="0.9"/><rect x="207" y="982.478915987172" width="10" height="37.521084012828055" fill="#ef5350" opacity="0.9"/><rect x="219" y="988.6854900270728" width="10" height="31.314509972927226" fill="#26a69a" opacity="0.9"/><rect x="231" y="989.3006457587837" width="10" height="30.69935424121627" fill="#ef5350" opacity="0.9"/><rect x="243" y="982.3279638540131" width="10" height="37.67203614598691" fill="#ef5350" opacity="0.9"/><rect x="255" y="990.2823504060922" width="10" height="29.717649593907822" fill="#ef5350" opacity="0.9"/><rect x="267" y="982.8533735566707" width="10" height="37.146626443329296" fill="#ef5350" opacity="0.9"/><rect x="279" y="991.9555464879845" width="10" height="28.04445351201548" fill="#26a69a" opacity="0.9"/><rect x="291" y="996.3218111505143" width="10" height="23.67818884948565" fill="#ef5350" opacity="0.9"/><rect x="303" y="995.8263167908746" width="10" height="24.173683209125443" fill="#ef5350" opacity="0.9"/><rect x="315" y="985.9088647986961" width="10" height="34.09113520130393" fill="#ef5350" opacity="0.9"/><rect x="327" y="996.8155862375668" width="10" height="23.184413762433223" fill="#ef5350" opacity="0.9"/><rect x="339" y="997.6504650059258" width="10" height="22.349534994074247" fill="#26a69a" opacity="0.9"/><rect x="351" y="994.3026974240712" width="10" height="25.697302575928802" fill="#ef5350" opacity="0.9"/><rect x="363" y="977.1055014430428" width="10" height="42.89449855695716" fill="#ef5350" opacity="0.9"/><rect x="375" y="965.2714043706202" width="10" height="54.72859562937981" fill="#ef5350" opacity="0.9"/><rect x="387" y="974.0565434368489" width="10" height="45.94345656315113" fill="#ef5350" opacity="0.9"/><rect x="399" y="987.9891846292446" width="10" height="32.01081537075538" fill="#ef5350" opacity="0.9"/><rect x="411" y="967.9352453172746" width="10" height="52.06475468272538" fill="#ef5350" opacity="0.9"/><rect x="423" y="971.9597185894629" width="10" height="48.04028141053709" fill="#26a69a" opacity="0.9"/><rect x="435" y="981.0911191547598" width="10" height="38.90888084524022" fill="#26a69a" opacity="0.9"/><rect x="447" y="985.5515999550697" width="10" height="34.44840004493028" fill="#26a69a" opacity="0.9"/><rect x="459" y="991.6055025892246" width="10" height="28.394497410775443" fill="#ef5350" opacity="0.9"/><rect x="471" y="992.8086495457682" width="10" height="27.191350454231838" fill="#ef5350" opacity="0.9"/><rect x="483" y="997.1154273767797" width="10" height="22.884572623220265" fill="#26a69a" opacity="0.9"/><rect x="495" y="993.0252778917592" width="10" height="26.974722108240826" fill="#ef5350" opacity="0.9"/><rect x="507" y="995.5147845980684" width="10" height="24.485215401931555" fill="#ef5350" opacity="0.9"/><rect x="519" y="993.9337415268516" width="10" height="26.066258473148423" fill="#26a69a" opacity="0.9"/><rect x="531" y="997.117146649367" width="10" height="22.882853350633013" fill="#ef5350" opacity="0.9"/><rect x="543" y="988.6913355538694" width="10" height="31.308664446130592" fill="#ef5350" opacity="0.9"/><rect x="555" y="994.3776577088744" width="10" height="25.62234229112562" fill="#ef5350" opacity="0.9"/><rect x="567" y="990.2173619022949" width="10" height="29.782638097705103" fill="#ef5350" opacity="0.9"/><rect x="579" y="963.6374077037166" width="10" height="56.362592296283424" fill="#ef5350" opacity="0.9"/><rect x="591" y="969.0345482095495" width="10" height="50.965451790450516" fill="#ef5350" opacity="0.9"/><rect x="603" y="921.1393963290092" width="10" height="98.86060367099083" fill="#ef5350" opacity="0.9"/><rect x="615" y="883.0385965234016" width="10" height="136.96140347659843" fill="#26a69a" opacity="0.9"/><rect x="627" y="973.5992169286455" width="10" height="46.400783071354454" fill="#26a69a" opacity="0.9"/><rect x="639" y="979.2353363241035" width="10" height="40.764663675896486" fill="#ef5350" opacity="0.9"/><rect x="651" y="985.4852360332026" width="10" height="34.51476396679743" fill="#26a69a" opacity="0.9"/><rect x="663" y="982.271571713152" width="10" height="37.72842828684804" fill="#26a69a" opacity="0.9"/><rect x="675" y="989.3205893207956" width="10" height="30.679410679204352" fill="#26a69a" opacity="0.9"/><rect x="687" y="984.1352631977095" width="10" height="35.86473680229051" fill="#26a69a" opacity="0.9"/><rect x="699" y="983.3512748979325" width="10" height="36.64872510206749" fill="#26a69a" opacity="0.9"/><rect x="711" y="989.4598504003612" width="10" height="30.540149599638767" fill="#26a69a" opacity="0.9"/><rect x="723" y="990.3421810921278" width="10" height="29.657818907872183" fill="#ef5350" opacity="0.9"/><rect x="735" y="993.5159582881547" width="10" height="26.484041711845293" fill="#26a69a" opacity="0.9"/><rect x="747" y="994.6548044499359" width="10" height="25.34519555006409" fill="#26a69a" opacity="0.9"/><rect x="759" y="998.5936579472802" width="10" height="21.406342052719765" fill="#ef5350" opacity="0.9"/><rect x="771" y="993.9746602144277" width="10" height="26.025339785572328" fill="#26a69a" opacity="0.9"/><rect x="783" y="1001.8998191325238" width="10" height="18.100180867476183" fill="#ef5350" opacity="0.9"/><rect x="795" y="996.1148107310117" width="10" height="23.885189268988256" fill="#26a69a" opacity="0.9"/><rect x="807" y="999.4828657293957" width="10" height="20.517134270604288" fill="#26a69a" opacity="0.9"/><rect x="819" y="996.7578186786359" width="10" height="23.242181321364114" fill="#26a69a" opacity="0.9"/><rect x="831" y="1002.9018111963616" width="10" height="17.098188803638436" fill="#ef5350" opacity="0.9"/><rect x="843" y="1000.4160868897442" width="10" height="19.58391311025582" fill="#26a69a" opacity="0.9"/><rect x="855" y="1000.4996435374836" width="10" height="19.50035646251638" fill="#26a69a" opacity="0.9"/><rect x="867" y="999.216378478375" width="10" height="20.783621521625037" fill="#ef5350" opacity="0.9"/><rect x="879" y="1000.0264997214779" width="10" height="19.973500278522124" fill="#ef5350" opacity="0.9"/><rect x="891" y="999.7111851289799" width="10" height="20.288814871020122" fill="#26a69a" opacity="0.9"/><rect x="903" y="995.7049361462161" width="10" height="24.29506385378386" fill="#26a69a" opacity="0.9"/><rect x="915" y="998.2511788479039" width="10" height="21.74882115209607" fill="#ef5350" opacity="0.9"/><rect x="927" y="1003.485676166985" width="10" height="16.514323833015055" fill="#26a69a" opacity="0.9"/><rect x="939" y="1001.6182022827355" width="10" height="18.381797717264476" fill="#ef5350" opacity="0.9"/><rect x="951" y="980.2194479530341" width="10" height="39.78055204696591" fill="#ef5350" opacity="0.9"/><rect x="963" y="987.3771235881907" width="10" height="32.62287641180933" fill="#26a69a" opacity="0.9"/><rect x="975" y="993.8759739679207" width="10" height="26.124026032079314" fill="#ef5350" opacity="0.9"/><rect x="987" y="967.4263406314544" width="10" height="52.57365936854558" fill="#ef5350" opacity="0.9"/><rect x="999" y="878.8102175223678" width="10" height="141.1897824776322" fill="#26a69a" opacity="0.9"/><rect x="1011" y="916.8068294091892" width="10" height="103.19317059081084" fill="#26a69a" opacity="0.9"/><rect x="1023" y="941.815368463039" width="10" height="78.18463153696098" fill="#ef5350" opacity="0.9"/><rect x="1035" y="961.5890663432906" width="10" height="58.4109336567094" fill="#26a69a" opacity="0.9"/><rect x="1047" y="945.9491874717753" width="10" height="74.0508125282247" fill="#ef5350" opacity="0.9"/><rect x="1059" y="965.4113531592207" width="10" height="54.58864684077935" fill="#26a69a" opacity="0.9"/><rect x="1071" y="970.3669844646529" width="10" height="49.63301553534711" fill="#ef5350" opacity="0.9"/><rect x="1083" y="977.152609511933" width="10" height="42.84739048806705" fill="#26a69a" opacity="0.9"/><rect x="1095" y="968.3097028867733" width="10" height="51.690297113226734" fill="#ef5350" opacity="0.9"/><rect x="1107" y="967.1364712732475" width="10" height="52.86352872675252" fill="#ef5350" opacity="0.9"/><rect x="1119" y="971.9827568421318" width="10" height="48.017243157868165" fill="#26a69a" opacity="0.9"/><rect x="1131" y="971.6096746907028" width="10" height="48.39032530929717" fill="#26a69a" opacity="0.9"/><rect x="1143" y="978.8601910455699" width="10" height="41.13980895443012" fill="#ef5350" opacity="0.9"/><rect x="1155" y="983.9956582636264" width="10" height="36.00434173637359" fill="#26a69a" opacity="0.9"/><rect x="1167" y="973.0462988645924" width="10" height="46.95370113540764" fill="#26a69a" opacity="0.9"/><rect x="1179" y="959.7938019077048" width="10" height="60.20619809229515" fill="#26a69a" opacity="0.9"/><rect x="1191" y="967.5975801811426" width="10" height="52.402419818857425" fill="#ef5350" opacity="0.9"/><rect x="1203" y="965.823290871121" width="10" height="54.176709128879" fill="#ef5350" opacity="0.9"/><rect x="1215" y="966.1888082231661" width="10" height="53.81119177683388" fill="#ef5350" opacity="0.9"/><rect x="1227" y="982.3455004344029" width="10" height="37.65449956559712" fill="#ef5350" opacity="0.9"/><rect x="1239" y="977.9651377366579" width="10" height="42.03486226334212" fill="#26a69a" opacity="0.9"/><rect x="1251" y="993.2130224582847" width="10" height="26.78697754171526" fill="#ef5350" opacity="0.9"/><rect x="1263" y="990.8246089801046" width="10" height="29.175391019895415" fill="#ef5350" opacity="0.9"/><rect x="1275" y="982.777381708315" width="10" height="37.22261829168497" fill="#ef5350" opacity="0.9"/><rect x="1287" y="952.3521024411378" width="10" height="67.64789755886216" fill="#ef5350" opacity="0.9"/><rect x="1299" y="957.6247676116553" width="10" height="62.37523238834467" fill="#26a69a" opacity="0.9"/><rect x="1311" y="976.5732146500363" width="10" height="43.426785349963666" fill="#ef5350" opacity="0.9"/><rect x="1323" y="961.7283274228562" width="10" height="58.27167257714382" fill="#ef5350" opacity="0.9"/><rect x="1335" y="973.1112873683896" width="10" height="46.88871263161036" fill="#ef5350" opacity="0.9"/><rect x="1347" y="971.77163016842" width="10" height="48.22836983158004" fill="#26a69a" opacity="0.9"/><rect x="1359" y="974.6692921869377" width="10" height="45.330707813062304" fill="#ef5350" opacity="0.9"/><rect x="1371" y="969.0648074070848" width="10" height="50.9351925929152" fill="#ef5350" opacity="0.9"/><rect x="1383" y="977.3981216373894" width="10" height="42.60187836261059" fill="#26a69a" opacity="0.9"/><rect x="1395" y="984.2855276218334" width="10" height="35.71447237816665" fill="#26a69a" opacity="0.9"/><rect x="1407" y="974.9901084517148" width="10" height="45.00989154828517" fill="#ef5350" opacity="0.9"/><rect x="1419" y="972.8592420071018" width="10" height="47.140757992898216" fill="#26a69a" opacity="0.9"/><rect x="1431" y="976.54983254285" width="10" height="43.45016745714997" fill="#ef5350" opacity="0.9"/><rect x="1443" y="905.3031765280322" width="10" height="114.69682347196783" fill="#ef5350" opacity="0.9"/><rect x="1455" y="947.9841185060209" width="10" height="72.01588149397912" fill="#26a69a" opacity="0.9"/><rect x="1467" y="964.3742879346034" width="10" height="55.625712065396556" fill="#26a69a" opacity="0.9"/><rect x="1479" y="950.9037872136552" width="10" height="69.09621278634484" fill="#26a69a" opacity="0.9"/><rect x="1491" y="963.8523167771203" width="10" height="56.147683222879664" fill="#26a69a" opacity="0.9"/><rect x="1503" y="959.0878685833882" width="10" height="60.91213141661183" fill="#26a69a" opacity="0.9"/><rect x="1515" y="958.3895000584553" width="10" height="61.61049994154473" fill="#ef5350" opacity="0.9"/><rect x="1527" y="942.5109861518324" width="10" height="77.48901384816759" fill="#26a69a" opacity="0.9"/><rect x="1539" y="965.2187946294509" width="10" height="54.78120537054906" fill="#26a69a" opacity="0.9"/><rect x="1551" y="964.8604982222721" width="10" height="55.1395017777279" fill="#26a69a" opacity="0.9"/><rect x="1563" y="975.9040737590864" width="10" height="44.09592624091363" fill="#ef5350" opacity="0.9"/><rect x="1575" y="992.3623263821232" width="10" height="27.63767361787677" fill="#26a69a" opacity="0.9"/><rect x="1587" y="989.5420316300309" width="10" height="30.45796836996908" fill="#ef5350" opacity="0.9"/><rect x="1599" y="999.0712718720127" width="10" height="20.928728127987256" fill="#ef5350" opacity="0.9"/><rect x="1611" y="983.9017859803636" width="10" height="36.09821401963643" fill="#ef5350" opacity="0.9"/><rect x="1623" y="986.2585648429388" width="10" height="33.74143515706123" fill="#26a69a" opacity="0.9"/><rect x="1635" y="992.7319699883777" width="10" height="27.268030011622272" fill="#ef5350" opacity="0.9"/><rect x="1647" y="983.2859425396177" width="10" height="36.714057460382264" fill="#26a69a" opacity="0.9"/><rect x="1659" y="991.6178813518526" width="10" height="28.38211864814741" fill="#ef5350" opacity="0.9"/><rect x="1671" y="978.9526879107628" width="10" height="41.04731208923715" fill="#ef5350" opacity="0.9"/><rect x="1683" y="956.7634120454529" width="10" height="63.236587954547076" fill="#ef5350" opacity="0.9"/><rect x="1695" y="947.9363227280959" width="10" height="72.06367727190411" fill="#ef5350" opacity="0.9"/><rect x="1707" y="972.3620283748747" width="10" height="47.63797162512526" fill="#26a69a" opacity="0.9"/><rect x="1719" y="987.4692765988661" width="10" height="32.530723401133855" fill="#ef5350" opacity="0.9"/><rect x="1731" y="974.695768984781" width="10" height="45.30423101521899" fill="#ef5350" opacity="0.9"/><rect x="1743" y="977.2818988104926" width="10" height="42.718101189507365" fill="#26a69a" opacity="0.9"/><rect x="1755" y="970.1978080420695" width="10" height="49.80219195793052" fill="#26a69a" opacity="0.9"/><rect x="1767" y="968.8911608757745" width="10" height="51.10883912422548" fill="#ef5350" opacity="0.9"/><rect x="1779" y="993.8140801547804" width="10" height="26.185919845219587" fill="#26a69a" opacity="0.9"/><rect x="1791" y="995.3321978493046" width="10" height="24.667802150695366" fill="#26a69a" opacity="0.9"/><rect x="1803" y="984.0317629879582" width="10" height="35.968237012041754" fill="#ef5350" opacity="0.9"/><rect x="1815" y="994.8260439996241" width="10" height="25.173956000375938" fill="#26a69a" opacity="0.9"/><rect x="1827" y="965.8693673764589" width="10" height="54.130632623541146" fill="#ef5350" opacity="0.9"/><rect x="1839" y="979.5551210253283" width="10" height="40.444878974671724" fill="#ef5350" opacity="0.9"/><rect x="1851" y="967.8417168885293" width="10" height="52.15828311147072" fill="#26a69a" opacity="0.9"/><rect x="1863" y="979.3907585659891" width="10" height="40.60924143401087" fill="#ef5350" opacity="0.9"/><rect x="1875" y="967.5466897125606" width="10" height="52.45331028743942" fill="#ef5350" opacity="0.9"/><rect x="1887" y="977.4919939206521" width="10" height="42.508006079347865" fill="#26a69a" opacity="0.9"/><rect x="1899" y="980.0361734952353" width="10" height="39.96382650476471" fill="#26a69a" opacity="0.9"/><rect x="1911" y="952.9139607226447" width="10" height="67.08603927735533" fill="#26a69a" opacity="0.9"/><rect x="1923" y="946.1341812021612" width="10" height="73.86581879783876" fill="#26a69a" opacity="0.9"/><rect x="1935" y="860.0" width="10" height="160.0" fill="#ef5350" opacity="0.9"/><rect x="1004" y="275.7671421538432" width="12" height="181.30483938461668" fill="#00ff00" opacity="0.60"/><polyline points="320,268.2778912571498,332,267.9960984194762,344,267.50701247476445,356,267.9424956529916,368,273.3703109534383,380,280.27130106043273,392,291.95858919387183,404,307.683674179071,416,324.54510066751163,428,335.7033925013709,440,343.98447816790326,452,348.4331919541126,464,353.2776755921846,476,360.5288790009861,488,364.4555229642579,500,368.066733465828,512,374.5533141613892,524,379.0758746588346,536,384.631030977044,548,391.41310386567756,560,399.8905704865278,572,408.43864890172813,584,423.3721388085262,596,445.3706237571658,608,477.09760739933415,620,501.99835218914257,632,520.3132477022616,644,539.0495749980171,656,550.8798844853887,668,556.9886859336643,680,559.4719997128777,692,556.977663916048,704,550.506534136499,716,544.3005065923619,728,543.8949338912537,740,540.3086921580185,752,536.303073007436,764,532.9716046037972,776,528.9623640774292,788,526.7397392202348,800,520.6315084080555,812,514.636752764797,824,508.8031978201658,836,504.0520132658668,848,496.70962536508966,860,488.8958597845326,872,484.6358288893008,884,482.83015750790025,896,480.3184652617277,908,475.00228474596395,920,471.0118640155787,932,466.99175494450174,944,464.58369875198724,956,469.2532996620545,968,469.9076858334382,980,471.67040228885946,992,479.3526350965154,1004,477.23066809099134,1016,452.0089508369053,1028,433.11684176086106,1040,411.57550087520855,1052,397.9975124841635,1064,383.66402355893047,1076,370.9297593958092,1088,358.64735798814553,1100,349.70041664128775,1112,342.77621766446265,1124,332.7653775352492,1136,321.6007758359201,1148,312.2603937856113,1160,299.77082004778333,1172,286.0123588271142,1184,267.59389839668916,1196,254.383002578694,1208,243.3668095125961,1220,237.84825798391887,1232,233.32354389021225,1244,226.18605789333606,1256,219.78686509763486,1268,214.6995108539088,1280,214.8963426700202,1292,221.7471491263566,1304,224.84326808135643,1316,229.4004976413746,1328,240.4305563861551,1340,254.27328733838715,1352,264.456357525936,1364,275.6597211022241,1376,286.49848929028917,1388,296.1293959512868,1400,303.1456269595835,1412,319.2100630733246,1424,330.93498635572155,1436,349.32809083466753,1448,381.363554359569,1460,408.2408464425428,1472,429.80736251760953,1484,448.50046780164536,1496,458.79908950552044,1508,457.756613523312,1520,466.1786427115658,1532,469.5256914789612,1544,472.8466368472674,1556,469.4127117555861,1568,471.9249602184251,1580,469.16414021227934,1592,468.1881040015819,1604,470.46578593549737,1616,475.86290604420776,1628,479.98509040630427,1640,489.91914521010096,1652,494.6342171534595,1664,508.9093153586243,1676,525.746567024103,1688,548.9407093588013,1700,575.3108882477065,1712,592.5554336893164,1724,611.0842732646933,1736,633.8773229317947,1748,647.5342222862799,1760,651.4032323835565,1772,655.6646895777983,1784,655.01328078284,1796,653.253258202788,1808,653.1827053190052,1820,652.9432738673817,1832,657.6433868030947,1844,665.2322301991333,1856,669.4643580189922,1868,675.4006009036298,1880,682.1177379311218,1892,685.6197116666199,1904,684.5738143210838,1916,679.6473069937956,1928,671.0927063277197,1940,663.4698947946722" fill="none" stroke="#0090ff" stroke-width="2"/><line x1="80" y1="50" x2="80" y2="900" stroke="#666666" stroke-width="0.5" stroke-dasharray="4,4" opacity="0.90"/><line x1="152" y1="50" x2="152" y2="900" stroke="#666666" stroke-width="0.5" stroke-dasharray="4,4" opacity="0.90"/><line x1="224" y1="50" x2="224" y2="900" stroke="#666666" stroke-width="0.5" stroke-dasharray="4,4" opacity="0.90"/><line x1="296" y1="50" x2="296" y2="900" stroke="#666666" stroke-width="0.5" stroke-dasharray="4,4" opacity="0.90"/><line x1="368" y1="50" x2="368" y2="900" stroke="#666666" stroke-width="0.5" stroke-dasharray="4,4" opacity="0.90"/><line x1="440" y1="50" x2="440" y2="900" stroke="#666666" stroke-width="0.5" stroke-dasharray="4,4" opacity="0.90"/><line x1="512" y1="50" x2="512" y2="900" stroke="#666666" stroke-width="0.5" stroke-dasharray="4,4" opacity="0.90"/><line x1="584" y1="50" x2="584" y2="900" stroke="#666666" stroke-width="0.5" stroke-dasharray="4,4" opacity="0.90"/><line x1="656" y1="50" x2="656" y2="900" stroke="#666666" stroke-width="0.5" stroke-dasharray="4,4" opacity="0.90"/><line x1="728" y1="50" x2="728" y2="900" stroke="#666666" stroke-width="0.5" stroke-dasharray="4,4" opacity="0.90"/><line x1="800" y1="50" x2="800" y2="900" stroke="#666666" stroke-width="0.5" stroke-dasharray="4,4" opacity="0.90"/><line x1="872" y1="50" x2="872" y2="900" stroke="#666666" stroke-width="0.5" stroke-dasharray="4,4" opacity="0.90"/><line x1="944" y1="50" x2="944" y2="900" stroke="#666666" stroke-width="0.5" stroke-dasharray="4,4" opacity="0.90"/><line x1="1010" y1="30" x2="1010" y2="950" stroke="black" stroke-width="0.7"/><line x1="1016" y1="50" x2="1016" y2="900" stroke="#666666" stroke-width="0.5" stroke-dasharray="4,4" opacity="0.90"/><line x1="1088" y1="50" x2="1088" y2="900" stroke="#666666" stroke-width="0.5" stroke-dasharray="4,4" opacity="0.90"/><line x1="1160" y1="50" x2="1160" y2="900" stroke="#666666" stroke-width="0.5" stroke-dasharray="4,4" opacity="0.90"/><line x1="1232" y1="50" x2="1232" y2="900" stroke="#666666" stroke-width="0.5" stroke-dasharray="4,4" opacity="0.90"/><line x1="1304" y1="50" x2="1304" y2="900" stroke="#666666" stroke-width="0.5" stroke-dasharray="4,4" opacity="0.90"/><line x1="1376" y1="50" x2="1376" y2="900" stroke="#666666" stroke-width="0.5" stroke-dasharray="4,4" opacity="0.90"/><line x1="1448" y1="50" x2="1448" y2="900" stroke="#666666" stroke-width="0.5" stroke-dasharray="4,4" opacity="0.90"/><line x1="1520" y1="50" x2="1520" y2="900" stroke="#666666" stroke-width="0.5" stroke-dasharray="4,4" opacity="0.90"/><line x1="1592" y1="50" x2="1592" y2="900" stroke="#666666" stroke-width="0.5" stroke-dasharray="4,4" opacity="0.90"/><line x1="1664" y1="50" x2="1664" y2="900" stroke="#666666" stroke-width="0.5" stroke-dasharray="4,4" opacity="0.90"/><line x1="1736" y1="50" x2="1736" y2="900" stroke="#666666" stroke-width="0.5" stroke-dasharray="4,4" opacity="0.90"/><line x1="1808" y1="50" x2="1808" y2="900" stroke="#666666" stroke-width="0.5" stroke-dasharray="4,4" opacity="0.90"/><line x1="1880" y1="50" x2="1880" y2="900" stroke="#666666" stroke-width="0.5" stroke-dasharray="4,4" opacity="0.90"/><line x1="1946" y1="30" x2="1946" y2="950" stroke="black" stroke-width="0.7"/><text x="80" y="1040" text-anchor="middle" font-size="20" fill="black">09:30</text><text x="152" y="1040" text-anchor="middle" font-size="20" fill="black">10:00</text><text x="224" y="1040" text-anchor="middle" font-size="20" fill="black">10:30</text><text x="296" y="1040" text-anchor="middle" font-size="20" fill="black">11:00</text><text x="368" y="1040" text-anchor="middle" font-size="20" fill="black">11:30</text><text x="440" y="1040" text-anchor="middle" font-size="20" fill="black">12:00</text><text x="512" y="1040" text-anchor="middle" font-size="20" fill="black">12:30</text><text x="584" y="1040" text-anchor="middle" font-size="20" fill="black">13:00</text><text x="656" y="1040" text-anchor="middle" font-size="20" fill="black">13:30</text><text x="728" y="1040" text-anchor="middle" font-size="20" fill="black">14:00</text><text x="800" y="1040" text-anchor="middle" font-size="20" fill="black">14:30</text><text x="872" y="1040" text-anchor="middle" font-size="20" fill="black">15:00</text><text x="944" y="1040" text-anchor="middle" font-size="20" fill="black">15:30</text><text x="1016" y="1040" text-anchor="middle" font-size="20" fill="black">09:30</text><text x="1088" y="1040" text-anchor="middle" font-size="20" fill="black">10:00</text><text x="1160" y="1040" text-anchor="middle" font-size="20" fill="black">10:30</text><text x="1232" y="1040" text-anchor="middle" font-size="20" fill="black">11:00</text><text x="1304" y="1040" text-anchor="middle" font-size="20" fill="black">11:30</text><text x="1376" y="1040" text-anchor="middle" font-size="20" fill="black">12:00</text><text x="1448" y="1040" text-anchor="middle" font-size="20" fill="black">12:30</text><text x="1520" y="1040" text-anchor="middle" font-size="20" fill="black">13:00</text><text x="1592" y="1040" text-anchor="middle" font-size="20" fill="black">13:30</text><text x="1664" y="1040" text-anchor="middle" font-size="20" fill="black">14:00</text><text x="1736" y="1040" text-anchor="middle" font-size="20" fill="black">14:30</text><text x="1808" y="1040" text-anchor="middle" font-size="20" fill="black">15:00</text><text x="1880" y="1040" text-anchor="middle" font-size="20" fill="black">15:30</text><text x="1942" y="50" text-anchor="end" font-size="40" fill="#ef5350" font-weight="bold"> -0.85% (Thu)</text></svg>