<svg xmlns="http://www.w3.org/2000/svg" width="1992" height="1050"><rect width="100%" height="100%" fill="white"/><text x="42" y="854.0" text-anchor="end" font-size="20" fill="black">558</text><text x="42" y="754.0" text-anchor="end" font-size="20" fill="black">559</text><text x="42" y="654.0" text-anchor="end" font-size="20" fill="black">560</text><text x="42" y="554.0" text-anchor="end" font-size="20" fill="black">561</text><text x="42" y="454.0" text-anchor="end" font-size="20" fill="black">562</text><text x="42" y="354.0" text-anchor="end" font-size="20" fill="black">563</text><text x="42" y="254.0" text-anchor="end" font-size="20" fill="black">564</text><text x="42" y="154.0" text-anchor="end" font-size="20" fill="black">565</text><text x="42" y="54.0" text-anchor="end" font-size="20" fill="black">566</text><line x1="80" y1="792.8073390000009" x2="80" y2="890.5679009999972" stroke="#26a69a" stroke-width="2"/><rect x="76" y="792.8073390000009" width="8" height="87.78499400000328" fill="#26a69a"/><line x1="92" y1="688.0638800000042" x2="92" y2="800.787792999995" stroke="#26a69a" stroke-width="2"/><rect x="88" y="727.9661499999975" width="8" height="66.83630300000232" fill="#26a69a"/><line x1="104" y1="633.6970380000025" x2="104" y2="742.929502000004" stroke="#26a69a" stroke-width="2"/><rect x="100" y="650.1567239999986" width="8" height="70.82652899999857" fill="#26a69a"/><line x1="116" y1="559.3790600000034" x2="116" y2="648.1616099999997" stroke="#26a69a" stroke-width="2"/><rect x="112" y="583.320421999997" width="8" height="62.846075000004475" fill="#26a69a"/><line x1="128" y1="558.3815029999982" x2="128" y2="627.2129189999987" stroke="#26a69a" stroke-width="2"/><rect x="124" y="562.8705080000032" width="8" height="19.45235700000012" fill="#26a69a"/><line x1="140" y1="486.55741699999453" x2="140" y2="594.2935459999944" stroke="#26a69a" stroke-width="2"/><rect x="136" y="510.49877899999956" width="8" height="49.877836999996816" fill="#26a69a"/><line x1="152" y1="480.57207599999856" x2="152" y2="528.4547999999972" stroke="#26a69a" stroke-width="2"/><rect x="148" y="509.5012219999944" width="8" height="2" fill="#26a69a"/><line x1="164" y1="491.5452009999967" x2="164" y2="554.3912760000012" stroke="#ef5350" stroke-width="2"/><rect x="160" y="506.5085520000025" width="8" height="45.88760999999977" fill="#ef5350"/><line x1="176" y1="500.5232109999952" x2="176" y2="587.3106490000055" stroke="#26a69a" stroke-width="2"/><rect x="172" y="500.5232109999952" width="8" height="53.86806500000603" fill="#26a69a"/><line x1="188" y1="474.5867360000034" x2="188" y2="515.4865630000018" stroke="#ef5350" stroke-width="2"/><rect x="184" y="497.53054100000327" width="8" height="11.970680999991146" fill="#ef5350"/><line x1="200" y1="485.55986000000075" x2="200" y2="539.4279249999954" stroke="#ef5350" stroke-width="2"/><rect x="196" y="510.49877899999956" width="8" height="18.953578000002835" fill="#ef5350"/><line x1="212" y1="490.54764400000295" x2="212" y2="550.4010490000042" stroke="#26a69a" stroke-width="2"/><rect x="208" y="505.51099499999737" width="8" height="23.94136200000503" fill="#26a69a"/><line x1="224" y1="503.51588199999924" x2="224" y2="565.3643999999986" stroke="#ef5350" stroke-width="2"/><rect x="220" y="505.51099499999737" width="8" height="3.9902269999970486" fill="#ef5350"/><line x1="236" y1="492.5427570000011" x2="236" y2="528.4547999999972" stroke="#ef5350" stroke-width="2"/><rect x="232" y="508.50366500000064" width="8" height="9.975568000004387" fill="#ef5350"/><line x1="248" y1="516.4841189999947" x2="248" y2="588.3082049999985" stroke="#ef5350" stroke-width="2"/><rect x="244" y="523.4670169999958" width="8" height="51.872951000007106" fill="#ef5350"/><line x1="260" y1="492.5427570000011" x2="260" y2="607.2617840000021" stroke="#26a69a" stroke-width="2"/><rect x="256" y="510.49877899999956" width="8" height="67.8338589999953" fill="#26a69a"/><line x1="272" y1="504.5134380000036" x2="272" y2="623.2226920000016" stroke="#ef5350" stroke-width="2"/><rect x="268" y="511.4963360000047" width="8" height="106.83832799999209" fill="#ef5350"/><line x1="284" y1="587.3106490000055" x2="284" y2="636.1909289999971" stroke="#26a69a" stroke-width="2"/><rect x="280" y="587.3106490000055" width="8" height="32.91937199999211" fill="#26a69a"/><line x1="296" y1="568.3570700000018" x2="296" y2="652.1518369999967" stroke="#26a69a" stroke-width="2"/><rect x="292" y="583.420177000005" width="8" height="6.883141999992404" fill="#26a69a"/><line x1="308" y1="582.3228650000033" x2="308" y2="636.1909289999971" stroke="#ef5350" stroke-width="2"/><rect x="304" y="584.3179780000014" width="8" height="12.96823799999629" fill="#ef5350"/><line x1="320" y1="579.330195" x2="320" y2="623.2226920000016" stroke="#26a69a" stroke-width="2"/><rect x="316" y="591.3008760000025" width="8" height="2" fill="#26a69a"/><line x1="332" y1="581.8240869999954" x2="332" y2="644.1713830000026" stroke="#ef5350" stroke-width="2"/><rect x="328" y="591.3008760000025" width="8" height="36.909599000000526" fill="#ef5350"/><line x1="344" y1="595.2911029999996" x2="344" y2="641.1787129999993" stroke="#26a69a" stroke-width="2"/><rect x="340" y="600.278886000001" width="8" height="26.934032999997726" fill="#26a69a"/><line x1="356" y1="565.3643999999986" x2="356" y2="598.2837730000028" stroke="#26a69a" stroke-width="2"/><rect x="352" y="594.3933020000031" width="8" height="3.8904709999997067" fill="#26a69a"/><line x1="368" y1="568.3570700000018" x2="368" y2="614.2446810000024" stroke="#26a69a" stroke-width="2"/><rect x="364" y="580.4275070000017" width="8" height="15.861152000002221" fill="#26a69a"/><line x1="380" y1="556.3863889999993" x2="380" y2="592.2984319999955" stroke="#26a69a" stroke-width="2"/><rect x="376" y="572.3472969999989" width="8" height="5.9853409999959695" fill="#26a69a"/><line x1="392" y1="562.3717299999953" x2="392" y2="625.2178049999998" stroke="#ef5350" stroke-width="2"/><rect x="388" y="570.3521840000008" width="8" height="28.43036699999857" fill="#ef5350"/><line x1="404" y1="570.3521840000008" x2="404" y2="612.2495670000035" stroke="#26a69a" stroke-width="2"/><rect x="400" y="573.344854000004" width="8" height="25.93647599999258" fill="#26a69a"/><line x1="416" y1="522.4694600000021" x2="416" y2="585.3155349999952" stroke="#26a69a" stroke-width="2"/><rect x="412" y="522.4694600000021" width="8" height="50.87539400000196" fill="#26a69a"/><line x1="428" y1="467.60383900000306" x2="428" y2="524.4645730000002" stroke="#26a69a" stroke-width="2"/><rect x="424" y="490.54764400000295" width="8" height="31.921815999999126" fill="#26a69a"/><line x1="440" y1="458.6258280000038" x2="440" y2="503.51588199999924" stroke="#26a69a" stroke-width="2"/><rect x="436" y="486.55741699999453" width="8" height="3.9902270000084172" fill="#26a69a"/><line x1="452" y1="466.6062819999979" x2="452" y2="493.54031399999485" stroke="#26a69a" stroke-width="2"/><rect x="448" y="476.5818490000015" width="8" height="4.987784000002193" fill="#26a69a"/><line x1="464" y1="460.62094100000195" x2="464" y2="491.5452009999967" stroke="#ef5350" stroke-width="2"/><rect x="460" y="473.58917899999824" width="8" height="6.982897000000321" fill="#ef5350"/><line x1="476" y1="452.6404869999965" x2="476" y2="483.5647470000026" stroke="#26a69a" stroke-width="2"/><rect x="472" y="458.6258280000038" width="8" height="21.94624799999474" fill="#26a69a"/><line x1="488" y1="443.66247699999803" x2="488" y2="472.59162200000446" stroke="#ef5350" stroke-width="2"/><rect x="484" y="457.6282709999987" width="8" height="2" fill="#ef5350"/><line x1="500" y1="436.6795789999969" x2="500" y2="466.6062819999979" stroke="#ef5350" stroke-width="2"/><rect x="496" y="459.6233849999976" width="8" height="5.985340000006545" fill="#ef5350"/><line x1="512" y1="448.65025999999943" x2="512" y2="471.0952870000028" stroke="#26a69a" stroke-width="2"/><rect x="508" y="454.1368229999989" width="8" height="11.970681000002514" fill="#26a69a"/><line x1="524" y1="442.66492000000426" x2="524" y2="471.5940660000001" stroke="#ef5350" stroke-width="2"/><rect x="520" y="453.13926600000514" width="8" height="18.454799999994975" fill="#ef5350"/><line x1="536" y1="467.60383900000306" x2="536" y2="491.5452009999967" stroke="#ef5350" stroke-width="2"/><rect x="532" y="472.59162200000446" width="8" height="3.491449000000557" fill="#ef5350"/><line x1="548" y1="446.6551470000013" x2="548" y2="477.5794059999953" stroke="#26a69a" stroke-width="2"/><rect x="544" y="459.6233849999976" width="8" height="16.958464000003914" fill="#26a69a"/><line x1="560" y1="429.6966819999966" x2="560" y2="464.611167999999" stroke="#26a69a" stroke-width="2"/><rect x="556" y="436.6795789999969" width="8" height="22.943806000000677" fill="#26a69a"/><line x1="572" y1="435.68202300000394" x2="572" y2="464.1123900000025" stroke="#ef5350" stroke-width="2"/><rect x="568" y="435.68202300000394" width="8" height="15.960907999999563" fill="#ef5350"/><line x1="584" y1="437.67713600000206" x2="584" y2="460.62094100000195" stroke="#26a69a" stroke-width="2"/><rect x="580" y="446.6551470000013" width="8" height="5.985339999995176" fill="#26a69a"/><line x1="596" y1="436.6795789999969" x2="596" y2="458.6258280000038" stroke="#26a69a" stroke-width="2"/><rect x="592" y="436.6795789999969" width="8" height="8.978010999999242" fill="#26a69a"/><line x1="608" y1="419.8208700000009" x2="608" y2="442.66492000000426" stroke="#26a69a" stroke-width="2"/><rect x="604" y="420.71867099999736" width="8" height="16.958465000004708" fill="#26a69a"/><line x1="620" y1="416.7284440000003" x2="620" y2="437.67713600000206" stroke="#26a69a" stroke-width="2"/><rect x="616" y="418.72355799999923" width="8" height="2" fill="#26a69a"/><line x1="632" y1="416.7284440000003" x2="632" y2="442.66492000000426" stroke="#26a69a" stroke-width="2"/><rect x="628" y="416.7284440000003" width="8" height="2" fill="#26a69a"/><line x1="644" y1="416.7284440000003" x2="644" y2="436.6795789999969" stroke="#ef5350" stroke-width="2"/><rect x="640" y="416.7284440000003" width="8" height="10.973124999998163" fill="#ef5350"/><line x1="656" y1="415.73088799999596" x2="656" y2="434.6844659999988" stroke="#ef5350" stroke-width="2"/><rect x="652" y="425.70645499999955" width="8" height="3.9902269999970486" fill="#ef5350"/><line x1="668" y1="426.7040120000047" x2="668" y2="447.1539249999978" stroke="#ef5350" stroke-width="2"/><rect x="664" y="429.6966819999966" width="8" height="7.0826530000090315" fill="#ef5350"/><line x1="680" y1="435.68202300000394" x2="680" y2="474.5867360000034" stroke="#ef5350" stroke-width="2"/><rect x="676" y="437.7768919999994" width="8" height="31.323282000005293" fill="#ef5350"/><line x1="692" y1="456.6307140000049" x2="692" y2="518.479233000005" stroke="#26a69a" stroke-width="2"/><rect x="688" y="465.60872500000414" width="8" height="2" fill="#26a69a"/><line x1="704" y1="443.66247699999803" x2="704" y2="479.5745200000056" stroke="#26a69a" stroke-width="2"/><rect x="700" y="458.6258280000038" width="8" height="2.9926699999919038" fill="#26a69a"/><line x1="716" y1="449.6478170000046" x2="716" y2="470.59650899999497" stroke="#26a69a" stroke-width="2"/><rect x="712" y="453.6380440000016" width="8" height="5.9853409999959695" fill="#26a69a"/><line x1="728" y1="430.69423900000174" x2="728" y2="459.6233849999976" stroke="#26a69a" stroke-width="2"/><rect x="724" y="432.6893519999999" width="8" height="20.948692000001756" fill="#26a69a"/><line x1="740" y1="416.7284440000003" x2="740" y2="448.65025999999943" stroke="#ef5350" stroke-width="2"/><rect x="736" y="431.6917959999955" width="8" height="16.958464000003914" fill="#ef5350"/><line x1="752" y1="427.70156899999847" x2="752" y2="475.58429299999716" stroke="#ef5350" stroke-width="2"/><rect x="748" y="448.65025999999943" width="8" height="14.963351999995211" fill="#ef5350"/><line x1="764" y1="453.6380440000016" x2="764" y2="474.0879579999955" stroke="#26a69a" stroke-width="2"/><rect x="760" y="465.60872500000414" width="8" height="2" fill="#26a69a"/><line x1="776" y1="443.66247699999803" x2="776" y2="464.611167999999" stroke="#26a69a" stroke-width="2"/><rect x="772" y="453.6380440000016" width="8" height="10.97312399999737" fill="#26a69a"/><line x1="788" y1="444.6600330000024" x2="788" y2="467.60383900000306" stroke="#ef5350" stroke-width="2"/><rect x="784" y="452.6404869999965" width="8" height="6.48411900000383" fill="#ef5350"/><line x1="800" y1="440.66980600000534" x2="800" y2="469.5989520000012" stroke="#26a69a" stroke-width="2"/><rect x="796" y="445.65758999999616" width="8" height="14.963351000005787" fill="#26a69a"/><line x1="812" y1="432.6893519999999" x2="812" y2="458.6258280000038" stroke="#26a69a" stroke-width="2"/><rect x="808" y="448.65025999999943" width="8" height="2" fill="#26a69a"/><line x1="824" y1="445.65758999999616" x2="824" y2="481.5696330000037" stroke="#ef5350" stroke-width="2"/><rect x="820" y="449.6478170000046" width="8" height="21.946248999995532" fill="#ef5350"/><line x1="836" y1="458.6258280000038" x2="836" y2="478.57696300000043" stroke="#26a69a" stroke-width="2"/><rect x="832" y="462.61605500000087" width="8" height="8.978010999999242" fill="#26a69a"/><line x1="848" y1="460.62094100000195" x2="848" y2="479.5745200000056" stroke="#ef5350" stroke-width="2"/><rect x="844" y="461.6184979999957" width="8" height="14.963351000005787" fill="#ef5350"/><line x1="860" y1="464.611167999999" x2="860" y2="480.57207599999856" stroke="#26a69a" stroke-width="2"/><rect x="856" y="470.6962650000037" width="8" height="6.88314099999161" fill="#26a69a"/><line x1="872" y1="451.6429310000035" x2="872" y2="478.57696300000043" stroke="#ef5350" stroke-width="2"/><rect x="868" y="470.59650899999497" width="8" height="3.9902270000084172" fill="#ef5350"/><line x1="884" y1="452.6404869999965" x2="884" y2="485.55986000000075" stroke="#26a69a" stroke-width="2"/><rect x="880" y="461.6184979999957" width="8" height="19.95113500000798" fill="#26a69a"/><line x1="896" y1="434.6844659999988" x2="896" y2="468.60139499999605" stroke="#26a69a" stroke-width="2"/><rect x="892" y="442.66492000000426" width="8" height="19.95113499999661" fill="#26a69a"/><line x1="908" y1="376.8261739999957" x2="908" y2="443.66247699999803" stroke="#26a69a" stroke-width="2"/><rect x="904" y="416.7284440000003" width="8" height="23.94136200000503" fill="#26a69a"/><line x1="920" y1="404.7577629999978" x2="920" y2="423.7113420000014" stroke="#26a69a" stroke-width="2"/><rect x="916" y="411.7406609999989" width="8" height="3.9902269999970486" fill="#26a69a"/><line x1="932" y1="412.73821700000326" x2="932" y2="459.6233849999976" stroke="#ef5350" stroke-width="2"/><rect x="928" y="412.73821700000326" width="8" height="45.88761100000056" fill="#ef5350"/><line x1="944" y1="452.6404869999965" x2="944" y2="486.05863899999804" stroke="#ef5350" stroke-width="2"/><rect x="940" y="456.6307140000049" width="8" height="15.960907999999563" fill="#ef5350"/><line x1="956" y1="462.1172770000044" x2="956" y2="488.552530000004" stroke="#26a69a" stroke-width="2"/><rect x="952" y="462.1172770000044" width="8" height="12.469458999999006" fill="#26a69a"/><line x1="968" y1="431.19301699999824" x2="968" y2="463.61361199999465" stroke="#26a69a" stroke-width="2"/><rect x="964" y="452.6404869999965" width="8" height="10.973124999998163" fill="#26a69a"/><line x1="980" y1="434.6844659999988" x2="980" y2="457.6282709999987" stroke="#26a69a" stroke-width="2"/><rect x="976" y="441.6673629999991" width="8" height="10.97312399999737" fill="#26a69a"/><line x1="992" y1="379.8188449999998" x2="992" y2="457.6282709999987" stroke="#26a69a" stroke-width="2"/><rect x="988" y="397.8746219999948" width="8" height="44.79029800000944" fill="#26a69a"/><line x1="1004" y1="356.8750389999991" x2="1004" y2="405.75532000000294" stroke="#26a69a" stroke-width="2"/><rect x="1000" y="377.82373100000086" width="8" height="19.45235700000012" fill="#26a69a"/><line x1="1016" y1="228.19021899999825" x2="1016" y2="354.879926000001" stroke="#ef5350" stroke-width="2"/><rect x="1012" y="249.1389099999992" width="8" height="94.7678920000044" fill="#ef5350"/><line x1="1028" y1="215.22198100000196" x2="1028" y2="345.40313700000524" stroke="#26a69a" stroke-width="2"/><rect x="1024" y="241.15845600000512" width="8" height="101.75078899999335" fill="#26a69a"/><line x1="1040" y1="214.22442399999682" x2="1040" y2="264.1022619999944" stroke="#26a69a" stroke-width="2"/><rect x="1036" y="234.1755590000048" width="8" height="6.982897000000321" fill="#26a69a"/><line x1="1052" y1="131.42721399999573" x2="1052" y2="226.19510499999933" stroke="#26a69a" stroke-width="2"/><rect x="1048" y="171.32948400000032" width="8" height="54.86562099999901" fill="#26a69a"/><line x1="1064" y1="144.3954520000034" x2="1064" y2="213.22686700000304" stroke="#26a69a" stroke-width="2"/><rect x="1060" y="151.8771270000002" width="8" height="20.449914000005265" fill="#26a69a"/><line x1="1076" y1="148.38567900000044" x2="1076" y2="212.2293109999987" stroke="#ef5350" stroke-width="2"/><rect x="1072" y="151.3783490000037" width="8" height="23.94136199999366" fill="#ef5350"/><line x1="1088" y1="185.29527800000096" x2="1088" y2="306.9972020000023" stroke="#ef5350" stroke-width="2"/><rect x="1084" y="190.28306200000316" width="8" height="109.73124299999881" fill="#ef5350"/><line x1="1100" y1="248.14135399999486" x2="1100" y2="326.9483369999989" stroke="#26a69a" stroke-width="2"/><rect x="1096" y="278.06805599999507" width="8" height="22.943804999999884" fill="#26a69a"/><line x1="1112" y1="243.15357000000404" x2="1112" y2="348.894585000005" stroke="#ef5350" stroke-width="2"/><rect x="1108" y="275.07538600000316" width="8" height="59.8534050000012" fill="#ef5350"/><line x1="1124" y1="310.98742899999934" x2="1124" y2="384.8066280000012" stroke="#ef5350" stroke-width="2"/><rect x="1120" y="331.9361210000011" width="8" height="12.469458999999006" fill="#ef5350"/><line x1="1136" y1="350.88969900000393" x2="1136" y2="422.7137849999963" stroke="#ef5350" stroke-width="2"/><rect x="1132" y="353.88236899999583" width="8" height="61.848519000000124" fill="#ef5350"/><line x1="1148" y1="378.82128799999464" x2="1148" y2="459.6233849999976" stroke="#26a69a" stroke-width="2"/><rect x="1144" y="392.7870819999953" width="8" height="19.95113500000798" fill="#26a69a"/><line x1="1160" y1="388.79685499999823" x2="1160" y2="488.552530000004" stroke="#ef5350" stroke-width="2"/><rect x="1156" y="391.7895260000023" width="8" height="95.76544799999738" fill="#ef5350"/><line x1="1172" y1="478.57696300000043" x2="1172" y2="548.4059350000052" stroke="#ef5350" stroke-width="2"/><rect x="1168" y="488.05375199999617" width="8" height="40.40104800000108" fill="#ef5350"/><line x1="1184" y1="495.53542800000514" x2="1184" y2="662.1274050000011" stroke="#ef5350" stroke-width="2"/><rect x="1180" y="531.4474710000013" width="8" height="109.73124199999802" fill="#ef5350"/><line x1="1196" y1="637.1884860000023" x2="1196" y2="753.9026260000014" stroke="#ef5350" stroke-width="2"/><rect x="1192" y="643.1738269999983" width="8" height="110.72879900000316" fill="#ef5350"/><line x1="1208" y1="656.1420640000051" x2="1208" y2="755.8977389999995" stroke="#26a69a" stroke-width="2"/><rect x="1204" y="706.1196580000001" width="8" height="49.778080999999474" fill="#26a69a"/><line x1="1220" y1="638.1860429999961" x2="1220" y2="717.9905830000052" stroke="#26a69a" stroke-width="2"/><rect x="1216" y="651.2540360000003" width="8" height="61.74876300000278" fill="#26a69a"/><line x1="1232" y1="588.3082049999985" x2="1232" y2="721.9808100000023" stroke="#26a69a" stroke-width="2"/><rect x="1228" y="613.2471239999973" width="8" height="40.89982699999837" fill="#26a69a"/><line x1="1244" y1="572.8460759999962" x2="1244" y2="613.2471239999973" stroke="#26a69a" stroke-width="2"/><rect x="1240" y="606.2642269999969" width="8" height="6.982897000000321" fill="#26a69a"/><line x1="1256" y1="565.3643999999986" x2="1256" y2="701.0321180000005" stroke="#26a69a" stroke-width="2"/><rect x="1252" y="574.2426550000005" width="8" height="37.00935599999866" fill="#26a69a"/><line x1="1268" y1="561.3741730000015" x2="1268" y2="662.1274050000011" stroke="#ef5350" stroke-width="2"/><rect x="1264" y="570.3521840000008" width="8" height="59.8534050000012" fill="#ef5350"/><line x1="1280" y1="604.269112999998" x2="1280" y2="709.0125719999946" stroke="#ef5350" stroke-width="2"/><rect x="1276" y="626.2153620000049" width="8" height="61.84851799999933" fill="#ef5350"/><line x1="1292" y1="663.1249619999949" x2="1292" y2="708.0150150000009" stroke="#26a69a" stroke-width="2"/><rect x="1288" y="678.0883130000007" width="8" height="8.978010999999242" fill="#26a69a"/><line x1="1304" y1="644.1713830000026" x2="1304" y2="703.0272319999995" stroke="#ef5350" stroke-width="2"/><rect x="1300" y="680.0834259999988" width="8" height="14.96335200000658" fill="#ef5350"/><line x1="1316" y1="695.0467780000054" x2="1316" y2="796.7975659999979" stroke="#ef5350" stroke-width="2"/><rect x="1312" y="697.0418910000035" width="8" height="64.84118899999203" fill="#ef5350"/><line x1="1328" y1="726.9685940000045" x2="1328" y2="813.7560310000026" stroke="#26a69a" stroke-width="2"/><rect x="1324" y="738.9392749999956" width="8" height="22.943804999999884" fill="#26a69a"/><line x1="1340" y1="682.0785399999977" x2="1340" y2="758.8904100000036" stroke="#ef5350" stroke-width="2"/><rect x="1336" y="738.9392749999956" width="8" height="19.95113500000798" fill="#ef5350"/><line x1="1352" y1="721.9808100000023" x2="1352" y2="798.7926799999968" stroke="#26a69a" stroke-width="2"/><rect x="1348" y="730.9588210000015" width="8" height="27.931589000002077" fill="#26a69a"/><line x1="1364" y1="691.056550999997" x2="1364" y2="749.9123990000044" stroke="#26a69a" stroke-width="2"/><rect x="1360" y="711.0076860000049" width="8" height="18.953577999991467" fill="#26a69a"/><line x1="1376" y1="661.129847999996" x2="1376" y2="717.9905830000052" stroke="#26a69a" stroke-width="2"/><rect x="1372" y="665.1200750000044" width="8" height="47.88272399999869" fill="#26a69a"/><line x1="1388" y1="604.269112999998" x2="1388" y2="670.1078589999952" stroke="#ef5350" stroke-width="2"/><rect x="1384" y="666.1176319999981" width="8" height="2" fill="#ef5350"/><line x1="1400" y1="618.2349079999995" x2="1400" y2="668.1127449999963" stroke="#26a69a" stroke-width="2"/><rect x="1396" y="632.2007020000001" width="8" height="35.912042999996174" fill="#26a69a"/><line x1="1412" y1="606.2642269999969" x2="1412" y2="636.1909289999971" stroke="#26a69a" stroke-width="2"/><rect x="1408" y="615.2422379999962" width="8" height="17.95602100000906" fill="#26a69a"/><line x1="1424" y1="579.330195" x2="1424" y2="634.195815999999" stroke="#ef5350" stroke-width="2"/><rect x="1420" y="615.2422379999962" width="8" height="15.960907999999563" fill="#ef5350"/><line x1="1436" y1="605.2666700000032" x2="1436" y2="634.195815999999" stroke="#26a69a" stroke-width="2"/><rect x="1432" y="612.2495670000035" width="8" height="13.965795000001435" fill="#26a69a"/><line x1="1448" y1="547.4083790000009" x2="1448" y2="615.2422379999962" stroke="#26a69a" stroke-width="2"/><rect x="1444" y="582.3228650000033" width="8" height="31.921815999999126" fill="#26a69a"/><line x1="1460" y1="583.320421999997" x2="1460" y2="629.2080319999968" stroke="#ef5350" stroke-width="2"/><rect x="1456" y="583.320421999997" width="8" height="36.909599000000526" fill="#ef5350"/><line x1="1472" y1="618.2349079999995" x2="1472" y2="702.0296750000057" stroke="#ef5350" stroke-width="2"/><rect x="1468" y="624.2202479999946" width="8" height="53.86806500000603" fill="#ef5350"/><line x1="1484" y1="681.1807390000013" x2="1484" y2="757.8928529999985" stroke="#ef5350" stroke-width="2"/><rect x="1480" y="682.0785399999977" width="8" height="30.92425900000535" fill="#ef5350"/><line x1="1496" y1="618.2349079999995" x2="1496" y2="714.997913000002" stroke="#26a69a" stroke-width="2"/><rect x="1492" y="630.1058330000046" width="8" height="82.89696599999843" fill="#26a69a"/><line x1="1508" y1="621.2275780000027" x2="1508" y2="675.1953980000053" stroke="#ef5350" stroke-width="2"/><rect x="1504" y="624.2202479999946" width="8" height="30.924260000006143" fill="#ef5350"/><line x1="1520" y1="635.1933730000042" x2="1520" y2="684.0736529999958" stroke="#26a69a" stroke-width="2"/><rect x="1516" y="659.1347349999978" width="8" height="2" fill="#26a69a"/><line x1="1532" y1="635.1933730000042" x2="1532" y2="683.0760970000028" stroke="#26a69a" stroke-width="2"/><rect x="1528" y="649.1591670000048" width="8" height="12.96823799999629" fill="#26a69a"/><line x1="1544" y1="628.210475000003" x2="1544" y2="655.1445080000008" stroke="#26a69a" stroke-width="2"/><rect x="1540" y="642.1762700000045" width="8" height="6.982897000000321" fill="#26a69a"/><line x1="1556" y1="624.2202479999946" x2="1556" y2="676.0931990000017" stroke="#26a69a" stroke-width="2"/><rect x="1552" y="631.2031459999957" width="8" height="8.8782550000019" fill="#26a69a"/><line x1="1568" y1="618.2349079999995" x2="1568" y2="647.1640539999953" stroke="#26a69a" stroke-width="2"/><rect x="1564" y="618.2349079999995" width="8" height="11.970681000002514" fill="#26a69a"/><line x1="1580" y1="571.3497409999945" x2="1580" y2="618.2349079999995" stroke="#26a69a" stroke-width="2"/><rect x="1576" y="583.320421999997" width="8" height="34.9144860000024" fill="#26a69a"/><line x1="1592" y1="573.344854000004" x2="1592" y2="602.3737559999972" stroke="#ef5350" stroke-width="2"/><rect x="1588" y="581.3253079999981" width="8" height="14.963351000005787" fill="#ef5350"/><line x1="1604" y1="550.4010490000042" x2="1604" y2="603.271557000005" stroke="#26a69a" stroke-width="2"/><rect x="1600" y="561.3741730000015" width="8" height="34.9144860000024" fill="#26a69a"/><line x1="1616" y1="551.3986059999979" x2="1616" y2="573.344854000004" stroke="#ef5350" stroke-width="2"/><rect x="1612" y="561.3741730000015" width="8" height="4.987784000002193" fill="#ef5350"/><line x1="1628" y1="517.4816759999999" x2="1628" y2="568.3570700000018" stroke="#26a69a" stroke-width="2"/><rect x="1624" y="527.4572440000043" width="8" height="37.9071559999943" fill="#26a69a"/><line x1="1640" y1="507.5061089999963" x2="1640" y2="535.4376979999984" stroke="#26a69a" stroke-width="2"/><rect x="1636" y="507.5061089999963" width="8" height="19.95113500000798" fill="#26a69a"/><line x1="1652" y1="482.5671899999975" x2="1652" y2="513.4914490000028" stroke="#ef5350" stroke-width="2"/><rect x="1648" y="507.5061089999963" width="8" height="2.9926700000032724" fill="#ef5350"/><line x1="1664" y1="490.54764400000295" x2="1664" y2="534.4401410000046" stroke="#26a69a" stroke-width="2"/><rect x="1660" y="508.50366500000064" width="8" height="2" fill="#26a69a"/><line x1="1676" y1="491.5452009999967" x2="1676" y2="526.4596869999991" stroke="#ef5350" stroke-width="2"/><rect x="1672" y="509.5012219999944" width="8" height="13.965795000001435" fill="#ef5350"/><line x1="1688" y1="518.479233000005" x2="1688" y2="557.3839460000045" stroke="#ef5350" stroke-width="2"/><rect x="1684" y="520.4743460000032" width="8" height="36.90960000000132" fill="#ef5350"/><line x1="1700" y1="553.393718999996" x2="1700" y2="627.2129189999987" stroke="#ef5350" stroke-width="2"/><rect x="1696" y="555.388832999995" width="8" height="66.83630200000152" fill="#ef5350"/><line x1="1712" y1="606.2642269999969" x2="1712" y2="638.1860429999961" stroke="#ef5350" stroke-width="2"/><rect x="1708" y="622.2251349999965" width="8" height="9.975567000003593" fill="#ef5350"/><line x1="1724" y1="623.2226920000016" x2="1724" y2="663.1249619999949" stroke="#ef5350" stroke-width="2"/><rect x="1720" y="633.1982590000052" width="8" height="22.943804999999884" fill="#ef5350"/><line x1="1736" y1="620.2300209999976" x2="1736" y2="716.9930260000001" stroke="#ef5350" stroke-width="2"/><rect x="1732" y="658.137178000004" width="8" height="10.97312399999737" fill="#ef5350"/><line x1="1748" y1="661.129847999996" x2="1748" y2="706.0199020000027" stroke="#ef5350" stroke-width="2"/><rect x="1744" y="667.1151890000033" width="8" height="20.948691000000963" fill="#ef5350"/><line x1="1760" y1="682.0785399999977" x2="1760" y2="725.9710369999993" stroke="#ef5350" stroke-width="2"/><rect x="1756" y="686.0687669999948" width="8" height="9.975567000003593" fill="#ef5350"/><line x1="1772" y1="672.1029720000047" x2="1772" y2="768.8659769999958" stroke="#ef5350" stroke-width="2"/><rect x="1768" y="688.0638800000042" width="8" height="24.938918999998805" fill="#ef5350"/><line x1="1784" y1="710.0101289999998" x2="1784" y2="808.2694690000039" stroke="#ef5350" stroke-width="2"/><rect x="1780" y="714.997913000002" width="8" height="48.88028000000304" fill="#ef5350"/><line x1="1796" y1="723.9759230000004" x2="1796" y2="795.8000090000041" stroke="#26a69a" stroke-width="2"/><rect x="1792" y="731.9563769999945" width="8" height="31.921816000010494" fill="#26a69a"/><line x1="1808" y1="708.0150150000009" x2="1808" y2="745.922171999996" stroke="#26a69a" stroke-width="2"/><rect x="1804" y="718.988139999999" width="8" height="16.958464000003914" fill="#26a69a"/><line x1="1820" y1="714.997913000002" x2="1820" y2="753.9026260000014" stroke="#ef5350" stroke-width="2"/><rect x="1816" y="714.997913000002" width="8" height="21.94624799999474" fill="#ef5350"/><line x1="1832" y1="705.0223449999976" x2="1832" y2="752.9050689999963" stroke="#26a69a" stroke-width="2"/><rect x="1828" y="718.988139999999" width="8" height="18.953578000002835" fill="#26a69a"/><line x1="1844" y1="701.0321180000005" x2="1844" y2="739.936831" stroke="#26a69a" stroke-width="2"/><rect x="1840" y="705.0223449999976" width="8" height="12.96823800000766" fill="#26a69a"/><line x1="1856" y1="679.0858699999944" x2="1856" y2="707.1172140000044" stroke="#26a69a" stroke-width="2"/><rect x="1852" y="688.0638800000042" width="8" height="13.965795000001435" fill="#26a69a"/><line x1="1868" y1="670.1078589999952" x2="1868" y2="735.9466040000029" stroke="#26a69a" stroke-width="2"/><rect x="1864" y="676.0931990000017" width="8" height="12.96823799999629" fill="#26a69a"/><line x1="1880" y1="662.1274050000011" x2="1880" y2="692.0541070000013" stroke="#ef5350" stroke-width="2"/><rect x="1876" y="675.0956429999974" width="8" height="10.97312399999737" fill="#ef5350"/><line x1="1892" y1="681.0809830000039" x2="1892" y2="729.9612639999964" stroke="#ef5350" stroke-width="2"/><rect x="1888" y="689.061436999998" width="8" height="20.948692000001756" fill="#ef5350"/><line x1="1904" y1="702.0296750000057" x2="1904" y2="746.9197290000011" stroke="#ef5350" stroke-width="2"/><rect x="1900" y="711.0076860000049" width="8" height="30.92425899999398" fill="#ef5350"/><line x1="1916" y1="720.9832529999971" x2="1916" y2="775.3500959999997" stroke="#ef5350" stroke-width="2"/><rect x="1912" y="745.922171999996" width="8" height="6.982897000000321" fill="#ef5350"/><line x1="1928" y1="698.0394479999973" x2="1928" y2="761.8830799999955" stroke="#26a69a" stroke-width="2"/><rect x="1924" y="732.9539339999997" width="8" height="11.970681000002514" fill="#26a69a"/><line x1="1940" y1="733.9514910000048" x2="1940" y2="797.7951230000031" stroke="#ef5350" stroke-width="2"/><rect x="1936" y="735.9466040000029" width="8" height="31.921815999999126" fill="#ef5350"/><rect x="75" y="950.267282536263" width="10" height="69.732717463737" fill="#26a69a" opacity="0.9"/><rect x="87" y="975.7379937378477" width="10" height="44.26200626215234" fill="#26a69a" opacity="0.9"/><rect x="99" y="966.1801783709276" width="10" height="53.81982162907241" fill="#26a69a" opacity="0.9"/><rect x="111" y="953.6817073949994" width="10" height="66.31829260500058" fill="#26a69a" opacity="0.9"/><rect x="123" y="963.2551325002054" width="10" height="56.74486749979462" fill="#26a69a" opacity="0.9"/><rect x="135" y="984.4161866596073" width="10" height="35.58381334039268" fill="#26a69a" opacity="0.9"/><rect x="147" y="983.4262006262152" width="10" height="36.57379937378482" fill="#26a69a" opacity="0.9"/><rect x="159" y="989.2237121965915" width="10" height="30.776287803408536" fill="#ef5350" opacity="0.9"/><rect x="171" y="997.1704382593773" width="10" height="22.829561740622694" fill="#26a69a" opacity="0.9"/><rect x="183" y="994.876902151588" width="10" height="25.123097848412044" fill="#ef5350" opacity="0.9"/><rect x="195" y="996.8817950286178" width="10" height="23.11820497138217" fill="#ef5350" opacity="0.9"/><rect x="207" y="999.7235889618155" width="10" height="20.276411038184506" fill="#26a69a" opacity="0.9"/><rect x="219" y="998.5701114590084" width="10" height="21.429888540991556" fill="#ef5350" opacity="0.9"/><rect x="231" y="998.2962564013619" width="10" height="21.703743598638084" fill="#ef5350" opacity="0.9"/><rect x="243" y="992.5573498133222" width="10" height="27.442650186677838" fill="#ef5350" opacity="0.9"/><rect x="255" y="992.9522488064483" width="10" height="27.047751193551676" fill="#26a69a" opacity="0.9"/><rect x="267" y="993.4490218810191" width="10" height="26.55097811898088" fill="#ef5350" opacity="0.9"/><rect x="279" y="999.9404821674715" width="10" height="20.059517832528513" fill="#26a69a" opacity="0.9"/><rect x="291" y="995.8674358950952" width="10" height="24.13256410490476" fill="#26a69a" opacity="0.9"/><rect x="303" y="1002.2731795485043" width="10" height="17.726820451495655" fill="#ef5350" opacity="0.9"/><rect x="315" y="999.2410563502424" width="10" height="20.75894364975761" fill="#26a69a" opacity="0.9"/><rect x="327" y="1001.3253671939898" width="10" height="18.67463280601021" fill="#ef5350" opacity="0.9"/><rect x="339" y="1002.5601796489178" width="10" height="17.439820351082176" fill="#26a69a" opacity="0.9"/><rect x="351" y="993.3446831040558" width="10" height="26.655316895944225" fill="#26a69a" opacity="0.9"/><rect x="363" y="1004.3301048864871" width="10" height="15.669895113512894" fill="#26a69a" opacity="0.9"/><rect x="375" y="1003.6183555916639" width="10" height="16.381644408336115" fill="#26a69a" opacity="0.9"/><rect x="387" y="999.350598373301" width="10" height="20.649401626699046" fill="#ef5350" opacity="0.9"/><rect x="399" y="1001.2873013409769" width="10" height="18.71269865902309" fill="#26a69a" opacity="0.9"/><rect x="411" y="1002.6538380786329" width="10" height="17.34616192136707" fill="#26a69a" opacity="0.9"/><rect x="423" y="992.5915816955279" width="10" height="27.408418304472093" fill="#26a69a" opacity="0.9"/><rect x="435" y="991.7256520032497" width="10" height="28.274347996750294" fill="#26a69a" opacity="0.9"/><rect x="447" y="1005.7097866669101" width="10" height="14.290213333089923" fill="#26a69a" opacity="0.9"/><rect x="459" y="1001.0487735857669" width="10" height="18.951226414233133" fill="#ef5350" opacity="0.9"/><rect x="471" y="1001.2018585629912" width="10" height="18.79814143700878" fill="#26a69a" opacity="0.9"/><rect x="483" y="1002.575515532146" width="10" height="17.424484467853972" fill="#ef5350" opacity="0.9"/><rect x="495" y="995.8271792016212" width="10" height="24.17282079837878" fill="#ef5350" opacity="0.9"/><rect x="507" y="991.0571718075347" width="10" height="28.9428281924653" fill="#26a69a" opacity="0.9"/><rect x="519" y="1004.177567619378" width="10" height="15.82243238062199" fill="#ef5350" opacity="0.9"/><rect x="531" y="1002.0984600217258" width="10" height="17.901539978274172" fill="#ef5350" opacity="0.9"/><rect x="543" y="998.2343651583338" width="10" height="21.765634841666156" fill="#26a69a" opacity="0.9"/><rect x="555" y="998.5454645038203" width="10" height="21.454535496179687" fill="#26a69a" opacity="0.9"/><rect x="567" y="1000.1201310852875" width="10" height="19.87986891471246" fill="#ef5350" opacity="0.9"/><rect x="579" y="998.1004500351447" width="10" height="21.899549964855282" fill="#26a69a" opacity="0.9"/><rect x="591" y="1001.123809871562" width="10" height="18.876190128437997" fill="#26a69a" opacity="0.9"/><rect x="603" y="997.5738267592906" width="10" height="22.42617324070943" fill="#26a69a" opacity="0.9"/><rect x="615" y="999.9840251216373" width="10" height="20.015974878362726" fill="#26a69a" opacity="0.9"/><rect x="627" y="998.9359818160242" width="10" height="21.064018183975804" fill="#26a69a" opacity="0.9"/><rect x="639" y="1001.5743014413905" width="10" height="18.425698558609497" fill="#ef5350" opacity="0.9"/><rect x="651" y="996.9877769359271" width="10" height="23.01222306407294" fill="#ef5350" opacity="0.9"/><rect x="663" y="1001.6331802787845" width="10" height="18.366819721215506" fill="#ef5350" opacity="0.9"/><rect x="675" y="999.7537130181566" width="10" height="20.246286981843355" fill="#ef5350" opacity="0.9"/><rect x="687" y="997.85781445407" width="10" height="22.142185545930033" fill="#26a69a" opacity="0.9"/><rect x="699" y="1000.0790528266406" width="10" height="19.920947173359423" fill="#26a69a" opacity="0.9"/><rect x="711" y="1004.3306525966024" width="10" height="15.669347403397637" fill="#26a69a" opacity="0.9"/><rect x="723" y="990.1991839119282" width="10" height="29.80081608807177" fill="#26a69a" opacity="0.9"/><rect x="735" y="986.158726391412" width="10" height="33.84127360858804" fill="#ef5350" opacity="0.9"/><rect x="747" y="999.2018950769989" width="10" height="20.79810492300112" fill="#ef5350" opacity="0.9"/><rect x="759" y="998.7434617104987" width="10" height="21.25653828950135" fill="#26a69a" opacity="0.9"/><rect x="771" y="1001.4989913005377" width="10" height="18.501008699462318" fill="#26a69a" opacity="0.9"/><rect x="783" y="997.9788583895497" width="10" height="22.021141610450286" fill="#ef5350" opacity="0.9"/><rect x="795" y="997.2986024263558" width="10" height="22.701397573644158" fill="#26a69a" opacity="0.9"/><rect x="807" y="1002.8277360402384" width="10" height="17.172263959761608" fill="#26a69a" opacity="0.9"/><rect x="819" y="997.4010242179156" width="10" height="22.59897578208438" fill="#ef5350" opacity="0.9"/><rect x="831" y="1004.5278282381079" width="10" height="15.472171761892128" fill="#26a69a" opacity="0.9"/><rect x="843" y="1002.2274457538773" width="10" height="17.772554246122695" fill="#ef5350" opacity="0.9"/><rect x="855" y="1002.5861958793943" width="10" height="17.413804120605732" fill="#26a69a" opacity="0.9"/><rect x="867" y="1002.9767131915982" width="10" height="17.02328680840185" fill="#ef5350" opacity="0.9"/><rect x="879" y="997.2268524012525" width="10" height="22.773147598747528" fill="#26a69a" opacity="0.9"/><rect x="891" y="999.2632386099117" width="10" height="20.736761390088304" fill="#26a69a" opacity="0.9"/><rect x="903" y="990.7279980282436" width="10" height="29.272001971756367" fill="#26a69a" opacity="0.9"/><rect x="915" y="996.6657233881348" width="10" height="23.33427661186522" fill="#26a69a" opacity="0.9"/><rect x="927" y="993.7639551973126" width="10" height="26.23604480268739" fill="#ef5350" opacity="0.9"/><rect x="939" y="989.4890777474509" width="10" height="30.510922252549108" fill="#ef5350" opacity="0.9"/><rect x="951" y="990.9155887427314" width="10" height="29.084411257268584" fill="#26a69a" opacity="0.9"/><rect x="963" y="993.6199074369905" width="10" height="26.380092563009498" fill="#26a69a" opacity="0.9"/><rect x="975" y="989.3012131779054" width="10" height="30.698786822094576" fill="#26a69a" opacity="0.9"/><rect x="987" y="967.1586624918984" width="10" height="52.84133750810156" fill="#26a69a" opacity="0.9"/><rect x="999" y="860.0" width="10" height="160.0" fill="#26a69a" opacity="0.9"/><rect x="1011" y="961.2387377107543" width="10" height="58.76126228924568" fill="#ef5350" opacity="0.9"/><rect x="1023" y="986.5760814992651" width="10" height="33.423918500734885" fill="#26a69a" opacity="0.9"/><rect x="1035" y="994.7243648844789" width="10" height="25.27563511552114" fill="#26a69a" opacity="0.9"/><rect x="1047" y="993.7927099783655" width="10" height="26.20729002163455" fill="#26a69a" opacity="0.9"/><rect x="1059" y="1001.6824741891609" width="10" height="18.31752581083913" fill="#26a69a" opacity="0.9"/><rect x="1071" y="1002.7740604489397" width="10" height="17.225939551060264" fill="#ef5350" opacity="0.9"/><rect x="1083" y="974.0288643230759" width="10" height="45.971135676924064" fill="#ef5350" opacity="0.9"/><rect x="1095" y="998.4164787716688" width="10" height="21.583521228331165" fill="#26a69a" opacity="0.9"/><rect x="1107" y="1003.5983641724556" width="10" height="16.401635827544396" fill="#ef5350" opacity="0.9"/><rect x="1119" y="997.6209298292057" width="10" height="22.379070170794307" fill="#ef5350" opacity="0.9"/><rect x="1131" y="997.0929372780633" width="10" height="22.907062721936654" fill="#ef5350" opacity="0.9"/><rect x="1143" y="997.6526970158927" width="10" height="22.347302984107273" fill="#26a69a" opacity="0.9"/><rect x="1155" y="998.39073639625" width="10" height="21.609263603750037" fill="#ef5350" opacity="0.9"/><rect x="1167" y="996.1223949537641" width="10" height="23.877605046235885" fill="#ef5350" opacity="0.9"/><rect x="1179" y="988.5330497412069" width="10" height="31.466950258793077" fill="#ef5350" opacity="0.9"/><rect x="1191" y="979.0450674139867" width="10" height="40.95493258601334" fill="#ef5350" opacity="0.9"/><rect x="1203" y="980.7607693501419" width="10" height="39.23923064985809" fill="#26a69a" opacity="0.9"/><rect x="1215" y="991.9406282235022" width="10" height="28.059371776497755" fill="#26a69a" opacity="0.9"/><rect x="1227" y="985.844066930176" width="10" height="34.15593306982396" fill="#26a69a" opacity="0.9"/><rect x="1239" y="997.6921321441938" width="10" height="22.307867855806194" fill="#26a69a" opacity="0.9"/><rect x="1251" y="991.4717883648115" width="10" height="28.52821163518854" fill="#26a69a" opacity="0.9"/><rect x="1263" y="989.0492665248706" width="10" height="30.95073347512937" fill="#ef5350" opacity="0.9"/><rect x="1275" y="998.3625293253124" width="10" height="21.63747067468762" fill="#ef5350" opacity="0.9"/><rect x="1287" y="1004.7857997024108" width="10" height="15.214200297589173" fill="#26a69a" opacity="0.9"/><rect x="1299" y="999.9632121372562" width="10" height="20.036787862743836" fill="#ef5350" opacity="0.9"/><rect x="1311" y="992.3264899997262" width="10" height="27.673510000273836" fill="#ef5350" opacity="0.9"/><rect x="1323" y="988.9660145873461" width="10" height="31.03398541265392" fill="#26a69a" opacity="0.9"/><rect x="1335" y="1000.4479355892904" width="10" height="19.55206441070959" fill="#ef5350" opacity="0.9"/><rect x="1347" y="1001.9259313354086" width="10" height="18.074068664591437" fill="#26a69a" opacity="0.9"/><rect x="1359" y="1001.4817384319059" width="10" height="18.51826156809409" fill="#26a69a" opacity="0.9"/><rect x="1371" y="985.1035628543" width="10" height="34.89643714570002" fill="#26a69a" opacity="0.9"/><rect x="1383" y="991.933781847061" width="10" height="28.066218152938973" fill="#ef5350" opacity="0.9"/><rect x="1395" y="1004.173733648571" width="10" height="15.826266351429013" fill="#26a69a" opacity="0.9"/><rect x="1407" y="1003.2957543337562" width="10" height="16.704245666243764" fill="#26a69a" opacity="0.9"/><rect x="1419" y="995.933434963988" width="10" height="24.06656503601198" fill="#ef5350" opacity="0.9"/><rect x="1431" y="1004.0061343532913" width="10" height="15.993865646708741" fill="#26a69a" opacity="0.9"/><rect x="1443" y="986.3684993655692" width="10" height="33.631500634430836" fill="#26a69a" opacity="0.9"/><rect x="1455" y="1001.332213570431" width="10" height="18.66778642956899" fill="#ef5350" opacity="0.9"/><rect x="1467" y="1000.1302637224205" width="10" height="19.869736277579477" fill="#ef5350" opacity="0.9"/><rect x="1479" y="999.965676832775" width="10" height="20.03432316722501" fill="#ef5350" opacity="0.9"/><rect x="1491" y="1000.0574182770865" width="10" height="19.942581722913474" fill="#26a69a" opacity="0.9"/><rect x="1503" y="1006.5423060421555" width="10" height="13.457693957844526" fill="#ef5350" opacity="0.9"/><rect x="1515" y="1001.8804713958392" width="10" height="18.11952860416079" fill="#26a69a" opacity="0.9"/><rect x="1527" y="1001.3743872493085" width="10" height="18.625612750691516" fill="#26a69a" opacity="0.9"/><rect x="1539" y="1004.1992021689321" width="10" height="15.80079783106794" fill="#26a69a" opacity="0.9"/><rect x="1551" y="1006.8714798214465" width="10" height="13.128520178553458" fill="#26a69a" opacity="0.9"/><rect x="1563" y="1006.4724730024556" width="10" height="13.527526997544442" fill="#26a69a" opacity="0.9"/><rect x="1575" y="999.5483217249217" width="10" height="20.45167827507828" fill="#26a69a" opacity="0.9"/><rect x="1587" y="997.7647037344701" width="10" height="22.235296265529882" fill="#ef5350" opacity="0.9"/><rect x="1599" y="997.0789706701233" width="10" height="22.92102932987666" fill="#26a69a" opacity="0.9"/><rect x="1611" y="999.3256775630551" width="10" height="20.674322436944863" fill="#ef5350" opacity="0.9"/><rect x="1623" y="999.503957205583" width="10" height="20.496042794417008" fill="#26a69a" opacity="0.9"/><rect x="1635" y="997.3122951792382" width="10" height="22.687704820761837" fill="#26a69a" opacity="0.9"/><rect x="1647" y="994.110655700293" width="10" height="25.889344299706977" fill="#ef5350" opacity="0.9"/><rect x="1659" y="999.9248724291856" width="10" height="20.075127570814402" fill="#26a69a" opacity="0.9"/><rect x="1671" y="999.1287757766073" width="10" height="20.871224223392687" fill="#ef5350" opacity="0.9"/><rect x="1683" y="999.9456854135668" width="10" height="20.05431458643318" fill="#ef5350" opacity="0.9"/><rect x="1695" y="990.6981478269602" width="10" height="29.301852173039833" fill="#ef5350" opacity="0.9"/><rect x="1707" y="996.2543930915498" width="10" height="23.745606908450213" fill="#ef5350" opacity="0.9"/><rect x="1719" y="998.8634102257479" width="10" height="21.136589774252116" fill="#ef5350" opacity="0.9"/><rect x="1731" y="990.1123718586542" width="10" height="29.887628141345772" fill="#ef5350" opacity="0.9"/><rect x="1743" y="994.924826786676" width="10" height="25.07517321332398" fill="#ef5350" opacity="0.9"/><rect x="1755" y="995.6308251252887" width="10" height="24.369174874711348" fill="#ef5350" opacity="0.9"/><rect x="1767" y="993.1554492592221" width="10" height="26.84455074077789" fill="#ef5350" opacity="0.9"/><rect x="1779" y="985.2451459191033" width="10" height="34.754854080896735" fill="#ef5350" opacity="0.9"/><rect x="1791" y="999.7517960327531" width="10" height="20.248203967246923" fill="#26a69a" opacity="0.9"/><rect x="1803" y="995.7159940482168" width="10" height="24.28400595178323" fill="#26a69a" opacity="0.9"/><rect x="1815" y="1003.3017791450245" width="10" height="16.69822085497549" fill="#ef5350" opacity="0.9"/><rect x="1827" y="1003.7911581330388" width="10" height="16.208841866961166" fill="#26a69a" opacity="0.9"/><rect x="1839" y="1003.9732717463737" width="10" height="16.02672825362629" fill="#26a69a" opacity="0.9"/><rect x="1851" y="1000.6470282161995" width="10" height="19.352971783800513" fill="#26a69a" opacity="0.9"/><rect x="1863" y="995.0628497357299" width="10" height="24.937150264270144" fill="#26a69a" opacity="0.9"/><rect x="1875" y="996.4994933681434" width="10" height="23.500506631856638" fill="#ef5350" opacity="0.9"/><rect x="1887" y="998.1489223803482" width="10" height="21.851077619651846" fill="#ef5350" opacity="0.9"/><rect x="1899" y="997.6132618875916" width="10" height="22.386738112408352" fill="#ef5350" opacity="0.9"/><rect x="1911" y="988.7847225391841" width="10" height="31.215277460815855" fill="#ef5350" opacity="0.9"/><rect x="1923" y="978.5146101673255" width="10" height="41.485389832674514" fill="#26a69a" opacity="0.9"/><rect x="1935" y="924.7135932522114" width="10" height="95.28640674778865" fill="#ef5350" opacity="0.9"/><rect x="1004" y="249.1389099999992" width="12" height="128.68482100000165" fill="#00ff00" opacity="0.60"/><polyline points="320,573.5973310023724,332,578.7985828116689,344,580.844325972464,356,582.13470464176,368,581.9721143901688,380,581.0554651149118,392,582.7437590087357,404,581.8486251983813,416,576.1934666080606,428,568.036721597764,440,560.2767878265468,452,552.3058412716409,464,545.4740541029082,476,537.202794474058,488,529.8142792860517,500,523.6994645921413,512,517.0744511071689,524,512.7429858588698,536,509.2515653961186,548,504.52507202505785,560,498.06359649886645,572,493.64258073707106,584,489.16758704782524,596,484.1687291385142,608,478.12586645866304,620,472.4685037483141,632,467.15992662942654,644,463.4019878075719,656,460.1919586830377,668,457.9621849989394,680,459.02294585619074,692,459.65016291751226,704,459.5526072110829,716,458.9893154766969,728,456.4845570503394,740,455.7384335217421,752,456.48845051966873,764,457.3570480892272,776,457.0028572235856,788,457.2049285356229,800,456.10518200842307,812,455.3951894361944,824,456.93793958513425,836,457.4787124817817,848,459.298058816853,860,460.3836022628684,872,461.7362816664013,884,461.7250641743681,896,459.90981234823494,908,455.7973010769729,920,451.60143059345046,932,452.27042082265143,944,454.20577331573213,956,454.959249857086,968,454.7384152992663,980,453.49355317551954,992,448.1965121111898,1004,441.4943424815533,1016,432.20029100712054,1028,414.00583053025457,1040,396.8791380035668,1052,375.3982185746622,1064,354.11049556754506,1076,337.08280179920393,1088,333.5524687707107,1100,328.26823898302564,1112,328.9025772703553,1124,330.37905372079877,1136,338.50779984262545,1148,343.67725528618394,1160,357.3798951636945,1172,373.67274324334403,1184,399.14950226778956,1196,432.9355140518146,1208,458.95305157068833,1220,477.26743104014986,1232,490.21787798870946,1244,501.2699112278824,1256,508.21969634903326,1268,519.8374004110292,1280,535.8589698956962,1292,549.4046216199195,1304,563.2753031799325,1316,582.1903295437551,1328,597.1188005395902,1340,612.5256204882021,1352,623.8049729179011,1364,632.1099932114294,1376,635.2538105246254,1388,638.3832328556196,1400,637.7944203931747,1412,635.6465934985863,1424,635.2234080225344,1436,633.0354231632441,1448,628.2056557191254,1460,627.4460714601673,1472,632.2691420830097,1484,639.9580617893889,1496,639.0197542856413,1508,640.5554451155808,1520,642.3249012950464,1532,642.9757837431339,1544,642.8996395771264,1556,641.7856878078737,1568,639.5427563976,1580,634.1882483597374,1592,630.5787636588093,1604,623.9878502627334,1616,618.4996699519957,1628,609.8289627184727,1640,600.0839290309955,1652,591.5520099804212,1664,583.6426437918135,1676,577.9116317164039,1688,575.9566140291213,1700,580.3631398358789,1712,585.300050518174,1724,592.046908945008,1736,599.3862797121437,1748,607.831765453841,1760,616.2329624582412,1772,625.4491373669794,1784,638.6328569510852,1796,647.5208112414521,1808,654.3272235041741,1820,662.1955032656842,1832,667.6043258118057,1844,671.1679466868759,1856,672.7770831928865,1868,673.0929037459418,1880,674.3287002463262,1892,677.726931556208,1904,683.8416947413293,1916,690.4191589564334,1928,694.4700899129657,1940,701.4604070641099" fill="none" stroke="#0090ff" stroke-width="2"/><line x1="80" y1="50" x2="80" y2="900" stroke="#666666" stroke-width="0.5" stroke-dasharray="4,4" opacity="0.90"/><line x1="152" y1="50" x2="152" y2="900" stroke="#666666" stroke-width="0.5" stroke-dasharray="4,4" opacity="0.90"/><line x1="224" y1="50" x2="224" y2="900" stroke="#666666" stroke-width="0.5" stroke-dasharray="4,4" opacity="0.90"/><line x1="296" y1="50" x2="296" y2="900" stroke="#666666" stroke-width="0.5" stroke-dasharray="4,4" opacity="0.90"/><line x1="368" y1="50" x2="368" y2="900" stroke="#666666" stroke-width="0.5" stroke-dasharray="4,4" opacity="0.90"/><line x1="434" y1="30" x2="434" y2="950" stroke="black" stroke-width="0.7"/><line x1="440" y1="50" x2="440" y2="900" stroke="#666666" stroke-width="0.5" stroke-dasharray="4,4" opacity="0.90"/><line x1="512" y1="50" x2="512" y2="900" stroke="#666666" stroke-width="0.5" stroke-dasharray="4,4" opacity="0.90"/><line x1="584" y1="50" x2="584" y2="900" stroke="#666666" stroke-width="0.5" stroke-dasharray="4,4" opacity="0.90"/><line x1="656" y1="50" x2="656" y2="900" stroke="#666666" stroke-width="0.5" stroke-dasharray="4,4" opacity="0.90"/><line x1="728" y1="50" x2="728" y2="900" stroke="#666666" stroke-width="0.5" stroke-dasharray="4,4" opacity="0.90"/><line x1="800" y1="50" x2="800" y2="900" stroke="#666666" stroke-width="0.5" stroke-dasharray="4,4" opacity="0.90"/><line x1="872" y1="50" x2="872" y2="900" stroke="#666666" stroke-width="0.5" stroke-dasharray="4,4" opacity="0.90"/><line x1="944" y1="50" x2="944" y2="900" stroke="#666666" stroke-width="0.5" stroke-dasharray="4,4" opacity="0.90"/><line x1="1016" y1="50" x2="1016" y2="900" stroke="#666666" stroke-width="0.5" stroke-dasharray="4,4" opacity="0.90"/><line x1="1088" y1="50" x2="1088" y2="900" stroke="#666666" stroke-width="0.5" stroke-dasharray="4,4" opacity="0.90"/><line x1="1160" y1="50" x2="1160" y2="900" stroke="#666666" stroke-width="0.5" stroke-dasharray="4,4" opacity="0.90"/><line x1="1232" y1="50" x2="1232" y2="900" stroke="#666666" stroke-width="0.5" stroke-dasharray="4,4" opacity="0.90"/><line x1="1304" y1="50" x2="1304" y2="900" stroke="#666666" stroke-width="0.5" stroke-dasharray="4,4" opacity="0.90"/><line x1="1370" y1="30" x2="1370" y2="950" stroke="black" stroke-width="0.7"/><line x1="1376" y1="50" x2="1376" y2="900" stroke="#666666" stroke-width="0.5" stroke-dasharray="4,4" opacity="0.90"/><line x1="1448" y1="50" x2="1448" y2="900" stroke="#666666" stroke-width="0.5" stroke-dasharray="4,4" opacity="0.90"/><line x1="1520" y1="50" x2="1520" y2="900" stroke="#666666" stroke-width="0.5" stroke-dasharray="4,4" opacity="0.90"/><line x1="1592" y1="50" x2="1592" y2="900" stroke="#666666" stroke-width="0.5" stroke-dasharray="4,4" opacity="0.90"/><line x1="1664" y1="50" x2="1664" y2="900" stroke="#666666" stroke-width="0.5" stroke-dasharray="4,4" opacity="0.90"/><line x1="1736" y1="50" x2="1736" y2="900" stroke="#666666" stroke-width="0.5" stroke-dasharray="4,4" opacity="0.90"/><line x1="1808" y1="50" x2="1808" y2="900" stroke="#666666" stroke-width="0.5" stroke-dasharray="4,4" opacity="0.90"/><line x1="1880" y1="50" x2="1880" y2="900" stroke="#666666" stroke-width="0.5" stroke-dasharray="4,4" opacity="0.90"/><text x="80" y="1040" text-anchor="middle" font-size="20" fill="black">13:30</text><text x="152" y="1040" text-anchor="middle" font-size="20" fill="black">14:00</text><text x="224" y="1040" text-anchor="middle" font-size="20" fill="black">14:30</text><text x="296" y="1040" text-anchor="middle" font-size="20" fill="black">15:00</text><text x="368" y="1040" text-anchor="middle" font-size="20" fill="black">15:30</text><text x="440" y="1040" text-anchor="middle" font-size="20" fill="black">16:00</text><text x="512" y="1040" text-anchor="middle" font-size="20" fill="black">16:30</text><text x="584" y="1040" text-anchor="middle" font-size="20" fill="black">17:00</text><text x="656" y="1040" text-anchor="middle" font-size="20" fill="black">17:30</text><text x="728" y="1040" text-anchor="middle" font-size="20" fill="black">18:00</text><text x="800" y="1040" text-anchor="middle" font-size="20" fill="black">18:30</text><text x="872" y="1040" text-anchor="middle" font-size="20" fill="black">19:00</text><text x="944" y="1040" text-anchor="middle" font-size="20" fill="black">19:30</text><text x="1016" y="1040" text-anchor="middle" font-size="20" fill="black">13:30</text><text x="1088" y="1040" text-anchor="middle" font-size="20" fill="black">14:00</text><text x="1160" y="1040" text-anchor="middle" font-size="20" fill="black">14:30</text><text x="1232" y="1040" text-anchor="middle" font-size="20" fill="black">15:00</text><text x="1304" y="1040" text-anchor="middle" font-size="20" fill="black">15:30</text><text x="1376" y="1040" text-anchor="middle" font-size="20" fill="black">16:00</text><text x="1448" y="1040" text-anchor="middle" font-size="20" fill="black">16:30</text><text x="1520" y="1040" text-anchor="middle" font-size="20" fill="black">17:00</text><text x="1592" y="1040" text-anchor="middle" font-size="20" fill="black">17:30</text><text x="1664" y="1040" text-anchor="middle" font-size="20" fill="black">18:00</text><text x="1736" y="1040" text-anchor="middle" font-size="20" fill="black">18:30</text><text x="1808" y="1040" text-anchor="middle" font-size="20" fill="black">19:00</text><text x="1880" y="1040" text-anchor="middle" font-size="20" fill="black">19:30</text><text x="1942" y="50" text-anchor="end" font-size="40" fill="#ef5350" font-weight="bold"> -0.92% (Tue)</text></svg>