<svg xmlns="http://www.w3.org/2000/svg" width="1992" height="1050"><rect width="100%" height="100%" fill="white"/><text x="42" y="854.0" text-anchor="end" font-size="20" fill="black">598</text><text x="42" y="822.0" text-anchor="end" font-size="20" fill="black">599</text><text x="42" y="790.0" text-anchor="end" font-size="20" fill="black">600</text><text x="42" y="758.0" text-anchor="end" font-size="20" fill="black">601</text><text x="42" y="726.0" text-anchor="end" font-size="20" fill="black">602</text><text x="42" y="694.0" text-anchor="end" font-size="20" fill="black">603</text><text x="42" y="662.0" text-anchor="end" font-size="20" fill="black">604</text><text x="42" y="630.0" text-anchor="end" font-size="20" fill="black">605</text><text x="42" y="598.0" text-anchor="end" font-size="20" fill="black">606</text><text x="42" y="566.0" text-anchor="end" font-size="20" fill="black">607</text><text x="42" y="534.0" text-anchor="end" font-size="20" fill="black">608</text><text x="42" y="502.0" text-anchor="end" font-size="20" fill="black">609</text><text x="42" y="470.0" text-anchor="end" font-size="20" fill="black">610</text><text x="42" y="438.0" text-anchor="end" font-size="20" fill="black">611</text><text x="42" y="405.99999999999994" text-anchor="end" font-size="20" fill="black">612</text><text x="42" y="374.0" text-anchor="end" font-size="20" fill="black">613</text><text x="42" y="342.0" text-anchor="end" font-size="20" fill="black">614</text><text x="42" y="310.0" text-anchor="end" font-size="20" fill="black">615</text><text x="42" y="278.0" text-anchor="end" font-size="20" fill="black">616</text><text x="42" y="246.0" text-anchor="end" font-size="20" fill="black">617</text><text x="42" y="214.0" text-anchor="end" font-size="20" fill="black">618</text><text x="42" y="182.0" text-anchor="end" font-size="20" fill="black">619</text><text x="42" y="150.0" text-anchor="end" font-size="20" fill="black">620</text><text x="42" y="118.0" text-anchor="end" font-size="20" fill="black">621</text><text x="42" y="86.0" text-anchor="end" font-size="20" fill="black">622</text><text x="42" y="54.0" text-anchor="end" font-size="20" fill="black">623</text><line x1="80" y1="478.656348479999" x2="80" y2="593.3885094399993" stroke="#ef5350" stroke-width="2"/><rect x="76" y="543.8523395199991" width="8" height="38.829965439999796" fill="#ef5350"/><line x1="92" y1="581.5637462400009" x2="92" y2="691.8216726399987" stroke="#ef5350" stroke-width="2"/><rect x="88" y="584.4400400000013" width="8" height="102.90739775999828" fill="#ef5350"/><line x1="104" y1="633.3370336000007" x2="104" y2="693.1000252800004" stroke="#26a69a" stroke-width="2"/><rect x="100" y="647.7185020799989" width="8" height="39.3093475200003" fill="#26a69a"/><line x1="116" y1="631.0999161600012" x2="116" y2="680.3164976000007" stroke="#ef5350" stroke-width="2"/><rect x="112" y="648.6772665600001" width="8" height="29.40211360000103" fill="#ef5350"/><line x1="128" y1="617.9968003200011" x2="128" y2="682.2340268799999" stroke="#26a69a" stroke-width="2"/><rect x="124" y="631.4195043200016" width="8" height="46.02069951999874" fill="#26a69a"/><line x1="140" y1="593.7080975999997" x2="140" y2="641.6463264000013" stroke="#26a69a" stroke-width="2"/><rect x="136" y="618.9555647999987" width="8" height="13.422704000000522" fill="#26a69a"/><line x1="152" y1="611.9246246399998" x2="152" y2="678.0793801600012" stroke="#ef5350" stroke-width="2"/><rect x="148" y="613.5225654399983" width="8" height="61.64856224000323" fill="#ef5350"/><line x1="164" y1="648.0380902399993" x2="164" y2="719.625845120001" stroke="#26a69a" stroke-width="2"/><rect x="160" y="651.5535603200005" width="8" height="23.01034975999937" fill="#26a69a"/><line x1="176" y1="611.9246246399998" x2="176" y2="657.3061478400014" stroke="#26a69a" stroke-width="2"/><rect x="172" y="617.6772121600006" width="8" height="33.87634815999991" fill="#26a69a"/><line x1="188" y1="594.0276857600002" x2="188" y2="639.4092089600017" stroke="#ef5350" stroke-width="2"/><rect x="184" y="618.6359766399983" width="8" height="5.4329993600003945" fill="#ef5350"/><line x1="200" y1="598.5019206399993" x2="200" y2="663.6979116799994" stroke="#ef5350" stroke-width="2"/><rect x="196" y="622.7906230400004" width="8" height="37.07223040000099" fill="#ef5350"/><line x1="212" y1="609.0483308799994" x2="212" y2="661.1412060799994" stroke="#26a69a" stroke-width="2"/><rect x="208" y="652.5123248000018" width="8" height="8.309293119997164" fill="#26a69a"/><line x1="224" y1="643.8834438400008" x2="224" y2="692.78043712" stroke="#ef5350" stroke-width="2"/><rect x="220" y="655.0690304000018" width="8" height="37.07223039999735" fill="#ef5350"/><line x1="236" y1="657.6257360000018" x2="236" y2="715.4711987199989" stroke="#ef5350" stroke-width="2"/><rect x="232" y="691.5020844799983" width="8" height="20.1340560000026" fill="#ef5350"/><line x1="248" y1="695.33714272" x2="248" y2="733.0485494400018" stroke="#ef5350" stroke-width="2"/><rect x="244" y="713.2340812799994" width="8" height="15.979409600000508" fill="#ef5350"/><line x1="260" y1="717.0691398400013" x2="260" y2="749.3475471999991" stroke="#ef5350" stroke-width="2"/><rect x="256" y="730.1722556800014" width="8" height="6.391763839998021" fill="#ef5350"/><line x1="272" y1="707.4814940799988" x2="272" y2="753.1826054400008" stroke="#ef5350" stroke-width="2"/><rect x="268" y="736.8836076799998" width="8" height="4.474234559998877" fill="#ef5350"/><line x1="284" y1="741.6774303999991" x2="284" y2="765.3269567999996" stroke="#ef5350" stroke-width="2"/><rect x="280" y="741.6774303999991" width="8" height="23.329938240000047" fill="#ef5350"/><line x1="296" y1="735.9248431999986" x2="296" y2="768.5228387200004" stroke="#26a69a" stroke-width="2"/><rect x="292" y="748.3887824000012" width="8" height="17.25776255999881" fill="#26a69a"/><line x1="308" y1="740.0794896000007" x2="308" y2="776.1609964800009" stroke="#ef5350" stroke-width="2"/><rect x="304" y="747.43001792" width="8" height="26.2062316800002" fill="#ef5350"/><line x1="320" y1="763.08983936" x2="320" y2="799.5228931199999" stroke="#ef5350" stroke-width="2"/><rect x="316" y="772.9970732799993" width="8" height="19.175291520001338" fill="#ef5350"/><line x1="332" y1="765.64654496" x2="332" y2="805.5950688000012" stroke="#26a69a" stroke-width="2"/><rect x="328" y="766.9248976000017" width="8" height="26.206231679996563" fill="#26a69a"/><line x1="344" y1="748.7083708799983" x2="344" y2="774.9146025599985" stroke="#ef5350" stroke-width="2"/><rect x="340" y="767.8836623999996" width="8" height="4.154646400002093" fill="#ef5350"/><line x1="356" y1="765.9661331200004" x2="356" y2="791.5331884799998" stroke="#ef5350" stroke-width="2"/><rect x="352" y="771.3991324800008" width="8" height="15.02064479999899" fill="#ef5350"/><line x1="368" y1="765.9661331200004" x2="368" y2="794.7290704000006" stroke="#26a69a" stroke-width="2"/><rect x="364" y="768.8424268800009" width="8" height="18.216527040000074" fill="#26a69a"/><line x1="380" y1="766.9248976000017" x2="380" y2="809.7497155199999" stroke="#ef5350" stroke-width="2"/><rect x="376" y="769.8011913599985" width="8" height="36.081506880000234" fill="#ef5350"/><line x1="392" y1="780.3476015999986" x2="392" y2="817.4198319999996" stroke="#26a69a" stroke-width="2"/><rect x="388" y="781.9775014400002" width="8" height="22.33921471999929" fill="#26a69a"/><line x1="404" y1="777.7908963199989" x2="404" y2="812.3064207999996" stroke="#ef5350" stroke-width="2"/><rect x="400" y="780.9867782399997" width="8" height="25.567055359999358" fill="#ef5350"/><line x1="416" y1="775.5537788799993" x2="416" y2="809.4301273599995" stroke="#26a69a" stroke-width="2"/><rect x="412" y="806.2342454399986" width="8" height="2.2371171200029494" fill="#26a69a"/><line x1="428" y1="801.1208342399987" x2="428" y2="845.5435929599989" stroke="#ef5350" stroke-width="2"/><rect x="424" y="806.2342454399986" width="8" height="18.53611488000024" fill="#ef5350"/><line x1="440" y1="815.8218912000011" x2="440" y2="840.1105935999985" stroke="#ef5350" stroke-width="2"/><rect x="436" y="822.85283136" width="8" height="16.29899776000093" fill="#ef5350"/><line x1="452" y1="824.1311840000017" x2="452" y2="852.8941212799982" stroke="#26a69a" stroke-width="2"/><rect x="448" y="831.1621241600005" width="8" height="7.030940479999117" fill="#26a69a"/><line x1="464" y1="800.162069760001" x2="464" y2="846.5023574400002" stroke="#26a69a" stroke-width="2"/><rect x="460" y="805.2754806400008" width="8" height="26.2062316800002" fill="#26a69a"/><line x1="476" y1="780.6671900799993" x2="476" y2="807.5125980800003" stroke="#26a69a" stroke-width="2"/><rect x="472" y="788.6568947199994" width="8" height="16.938174080001772" fill="#26a69a"/><line x1="488" y1="742.6361952000007" x2="488" y2="798.8837167999991" stroke="#26a69a" stroke-width="2"/><rect x="484" y="753.1826054400008" width="8" height="36.11346559999947" fill="#26a69a"/><line x1="500" y1="734.0073139199994" x2="500" y2="766.6372684800008" stroke="#ef5350" stroke-width="2"/><rect x="496" y="752.8630172800003" width="8" height="5.113411199999973" fill="#ef5350"/><line x1="512" y1="737.5227840000007" x2="512" y2="761.4918985600016" stroke="#26a69a" stroke-width="2"/><rect x="508" y="746.4712534399987" width="8" height="13.742292160000943" fill="#26a69a"/><line x1="524" y1="738.4815484799983" x2="524" y2="777.7908963199989" stroke="#ef5350" stroke-width="2"/><rect x="520" y="748.3887824000012" width="8" height="16.618586239997967" fill="#ef5350"/><line x1="536" y1="760.53313376" x2="536" y2="786.1001891199994" stroke="#ef5350" stroke-width="2"/><rect x="532" y="764.0486038400013" width="8" height="10.226822399999946" fill="#ef5350"/><line x1="548" y1="762.7702511999996" x2="548" y2="807.5125980800003" stroke="#ef5350" stroke-width="2"/><rect x="544" y="774.2754262400013" width="8" height="29.402113599997392" fill="#ef5350"/><line x1="560" y1="778.4300726399997" x2="560" y2="814.8631263999996" stroke="#26a69a" stroke-width="2"/><rect x="556" y="779.0692489600006" width="8" height="23.649526080000214" fill="#26a69a"/><line x1="572" y1="746.4712534399987" x2="572" y2="780.6671900799993" stroke="#26a69a" stroke-width="2"/><rect x="568" y="749.5073411199992" width="8" height="29.88149600000179" fill="#26a69a"/><line x1="584" y1="736.5640195199994" x2="584" y2="755.4197228800003" stroke="#26a69a" stroke-width="2"/><rect x="580" y="748.3887824000012" width="8" height="2" fill="#26a69a"/><line x1="596" y1="729.2134908799999" x2="596" y2="764.3681920000017" stroke="#26a69a" stroke-width="2"/><rect x="592" y="738.8011366399987" width="8" height="9.907234239999525" fill="#26a69a"/><line x1="608" y1="722.182550720001" x2="608" y2="741.6774303999991" stroke="#26a69a" stroke-width="2"/><rect x="604" y="724.1000800000002" width="8" height="15.020645119999244" fill="#26a69a"/><line x1="620" y1="718.6670806399998" x2="620" y2="743.5949596799983" stroke="#26a69a" stroke-width="2"/><rect x="616" y="722.8217270399982" width="8" height="2" fill="#26a69a"/><line x1="632" y1="702.3680828799988" x2="632" y2="730.1722556800014" stroke="#26a69a" stroke-width="2"/><rect x="628" y="702.3680828799988" width="8" height="19.81446784000218" fill="#26a69a"/><line x1="644" y1="687.66702592" x2="644" y2="702.3680828799988" stroke="#26a69a" stroke-width="2"/><rect x="640" y="689.5845551999992" width="8" height="12.783527679999679" fill="#26a69a"/><line x1="656" y1="677.4402038400003" x2="656" y2="692.78043712" stroke="#ef5350" stroke-width="2"/><rect x="652" y="689.5845551999992" width="8" height="2.2371174399995652" fill="#ef5350"/><line x1="668" y1="666.5742054399998" x2="668" y2="708.1206703999997" stroke="#26a69a" stroke-width="2"/><rect x="664" y="668.1721462399983" width="8" height="21.731997120001324" fill="#26a69a"/><line x1="680" y1="662.7391472000018" x2="680" y2="684.4711439999992" stroke="#ef5350" stroke-width="2"/><rect x="676" y="667.8525580800015" width="8" height="13.1031158400001" fill="#ef5350"/><line x1="692" y1="673.2855574399982" x2="692" y2="716.7495516800009" stroke="#ef5350" stroke-width="2"/><rect x="688" y="680.6360857600012" width="8" height="33.55676031999974" fill="#ef5350"/><line x1="704" y1="713.8732579200005" x2="704" y2="738.1619603200015" stroke="#ef5350" stroke-width="2"/><rect x="700" y="714.1928460800009" width="8" height="3.5154700799976126" fill="#ef5350"/><line x1="716" y1="671.3680281599991" x2="716" y2="719.3062569600006" stroke="#26a69a" stroke-width="2"/><rect x="712" y="686.7082614399988" width="8" height="31.000054719999753" fill="#26a69a"/><line x1="728" y1="665.6154409599985" x2="728" y2="702.6876710399993" stroke="#26a69a" stroke-width="2"/><rect x="724" y="679.038144959999" width="8" height="8.948469440001645" fill="#26a69a"/><line x1="740" y1="664.3370880000002" x2="740" y2="687.9866144000007" stroke="#26a69a" stroke-width="2"/><rect x="736" y="674.8834982400003" width="8" height="4.4742348799991305" fill="#26a69a"/><line x1="752" y1="663.378323519999" x2="752" y2="685.1103206400003" stroke="#26a69a" stroke-width="2"/><rect x="748" y="666.5742054399998" width="8" height="8.948469440001645" fill="#26a69a"/><line x1="764" y1="660.821617919999" x2="764" y2="686.0690851200015" stroke="#ef5350" stroke-width="2"/><rect x="760" y="666.5742054399998" width="8" height="16.61858592000135" fill="#ef5350"/><line x1="776" y1="654.7494422400014" x2="776" y2="682.5536150400003" stroke="#26a69a" stroke-width="2"/><rect x="772" y="658.264912319999" width="8" height="24.28870272000131" fill="#26a69a"/><line x1="788" y1="658.5845004799994" x2="788" y2="675.8422630399982" stroke="#ef5350" stroke-width="2"/><rect x="784" y="658.5845004799994" width="8" height="4.793823039999552" fill="#ef5350"/><line x1="800" y1="621.1926822399982" x2="800" y2="664.0174998399998" stroke="#26a69a" stroke-width="2"/><rect x="796" y="623.4297993600012" width="8" height="40.26811231999818" fill="#26a69a"/><line x1="812" y1="590.8318038399993" x2="812" y2="629.8215631999992" stroke="#26a69a" stroke-width="2"/><rect x="808" y="598.8215087999997" width="8" height="25.88664351999978" fill="#26a69a"/><line x1="824" y1="548.3265743999982" x2="824" y2="598.1823321599986" stroke="#26a69a" stroke-width="2"/><rect x="820" y="554.079161919999" width="8" height="44.1031702399996" fill="#26a69a"/><line x1="836" y1="553.1203971200011" x2="836" y2="590.5122156799989" stroke="#ef5350" stroke-width="2"/><rect x="832" y="554.3987500799994" width="8" height="15.02064479999899" fill="#ef5350"/><line x1="848" y1="548.965750719999" x2="848" y2="579.3266291200016" stroke="#26a69a" stroke-width="2"/><rect x="844" y="550.5636918400014" width="8" height="19.015497279997362" fill="#26a69a"/><line x1="860" y1="536.8213993600002" x2="860" y2="573.8936297600012" stroke="#26a69a" stroke-width="2"/><rect x="856" y="538.0997523199985" width="8" height="12.14435104000222" fill="#26a69a"/><line x1="872" y1="529.1512828800005" x2="872" y2="559.1925727999987" stroke="#ef5350" stroke-width="2"/><rect x="868" y="539.0585167999998" width="8" height="6.711351999998442" fill="#ef5350"/><line x1="884" y1="541.2956342399993" x2="884" y2="578.3678643200001" stroke="#26a69a" stroke-width="2"/><rect x="880" y="542.8935750400015" width="8" height="2.2371174399995652" fill="#26a69a"/><line x1="896" y1="531.7079884800005" x2="896" y2="551.522456319999" stroke="#ef5350" stroke-width="2"/><rect x="892" y="541.9348105600002" width="8" height="3.4835113599983742" fill="#ef5350"/><line x1="908" y1="541.9348105600002" x2="908" y2="585.398804479999" stroke="#ef5350" stroke-width="2"/><rect x="904" y="545.130692480001" width="8" height="25.567055359999358" fill="#ef5350"/><line x1="920" y1="567.82145408" x2="920" y2="596.9039795200006" stroke="#ef5350" stroke-width="2"/><rect x="916" y="569.0998067200017" width="8" height="24.608290879998094" fill="#ef5350"/><line x1="932" y1="566.5431014399983" x2="932" y2="607.7699779200011" stroke="#26a69a" stroke-width="2"/><rect x="928" y="583.8328223999997" width="8" height="10.194863360000454" fill="#26a69a"/><line x1="944" y1="551.2028681599986" x2="944" y2="584.4400400000013" stroke="#26a69a" stroke-width="2"/><rect x="940" y="566.2235129600012" width="8" height="18.216527040000074" fill="#26a69a"/><line x1="956" y1="544.8111043200006" x2="956" y2="566.2235129600012" stroke="#26a69a" stroke-width="2"/><rect x="952" y="546.7286332799995" width="8" height="18.536115200000495" fill="#26a69a"/><line x1="968" y1="521.1615779200001" x2="968" y2="563.6668076800015" stroke="#26a69a" stroke-width="2"/><rect x="964" y="525.3162246399988" width="8" height="20.773232319999806" fill="#26a69a"/><line x1="980" y1="525.6358127999993" x2="980" y2="574.2132179200016" stroke="#ef5350" stroke-width="2"/><rect x="976" y="525.6358127999993" width="8" height="48.57740512000237" fill="#ef5350"/><line x1="992" y1="528.5121065599997" x2="992" y2="573.5740416000008" stroke="#26a69a" stroke-width="2"/><rect x="988" y="544.4915161600002" width="8" height="18.21652671999982" fill="#26a69a"/><line x1="1004" y1="493.03781728000104" x2="1004" y2="549.9245152000003" stroke="#26a69a" stroke-width="2"/><rect x="1000" y="499.1099926399984" width="8" height="46.97946432000026" fill="#26a69a"/><line x1="1016" y1="166.41868479999903" x2="1016" y2="217.23320736000096" stroke="#26a69a" stroke-width="2"/><rect x="1012" y="182.07850623999911" width="8" height="23.96911456000089" fill="#26a69a"/><line x1="1028" y1="145.96504063999964" x2="1028" y2="179.52180063999913" stroke="#26a69a" stroke-width="2"/><rect x="1024" y="149.80009888000131" width="8" height="29.721701759997813" fill="#26a69a"/><line x1="1040" y1="128.06810176" x2="1040" y2="152.03721632000088" stroke="#26a69a" stroke-width="2"/><rect x="1036" y="136.05780672000037" width="8" height="14.061880320001364" fill="#26a69a"/><line x1="1052" y1="123.27427904000069" x2="1052" y2="150.43927519999852" stroke="#ef5350" stroke-width="2"/><rect x="1048" y="136.05780672000037" width="8" height="10.226822079999693" fill="#ef5350"/><line x1="1064" y1="145.3258643199988" x2="1064" y2="168.0166259200014" stroke="#ef5350" stroke-width="2"/><rect x="1060" y="145.96504063999964" width="8" height="3.1958819200008293" fill="#ef5350"/><line x1="1076" y1="114.96498591999989" x2="1076" y2="153.63515711999935" stroke="#26a69a" stroke-width="2"/><rect x="1072" y="130.30521919999956" width="8" height="17.57735071999923" fill="#26a69a"/><line x1="1088" y1="122.31551455999943" x2="1088" y2="142.4495705599984" stroke="#26a69a" stroke-width="2"/><rect x="1084" y="128.7072784000011" width="8" height="2.2371171199993114" fill="#26a69a"/><line x1="1100" y1="119.1196326399986" x2="1100" y2="134.45986560000165" stroke="#26a69a" stroke-width="2"/><rect x="1096" y="126.47016096000152" width="8" height="2" fill="#26a69a"/><line x1="1112" y1="110.81033952000143" x2="1112" y2="143.08874687999923" stroke="#ef5350" stroke-width="2"/><rect x="1108" y="126.1505728000011" width="8" height="13.422704000000522" fill="#ef5350"/><line x1="1124" y1="122.95469088000027" x2="1124" y2="149.4805107200009" stroke="#ef5350" stroke-width="2"/><rect x="1120" y="137.65574751999884" width="8" height="2" fill="#ef5350"/><line x1="1136" y1="114.64539775999947" x2="1136" y2="142.1299824000016" stroke="#26a69a" stroke-width="2"/><rect x="1132" y="114.64539775999947" width="8" height="24.28870272000131" fill="#26a69a"/><line x1="1148" y1="106.33610495999892" x2="1148" y2="127.42892543999915" stroke="#ef5350" stroke-width="2"/><rect x="1144" y="115.28457408000031" width="8" height="9.58764575999885" fill="#ef5350"/><line x1="1160" y1="112.08869215999948" x2="1160" y2="129.3464547199983" stroke="#26a69a" stroke-width="2"/><rect x="1156" y="116.24333887999819" width="8" height="7.670116480003344" fill="#26a69a"/><line x1="1172" y1="108.57322207999823" x2="1172" y2="136.3773948800008" stroke="#ef5350" stroke-width="2"/><rect x="1168" y="115.92375072000141" width="8" height="19.1752915199977" fill="#ef5350"/><line x1="1184" y1="129.98563103999913" x2="1184" y2="146.28462880000006" stroke="#ef5350" stroke-width="2"/><rect x="1180" y="133.18151295999996" width="8" height="11.664968960001715" fill="#ef5350"/><line x1="1196" y1="134.14027744000123" x2="1196" y2="159.06815647999974" stroke="#ef5350" stroke-width="2"/><rect x="1192" y="145.3258643199988" width="8" height="8.309292800000549" fill="#ef5350"/><line x1="1208" y1="152.9959807999985" x2="1208" y2="203.81050336000044" stroke="#ef5350" stroke-width="2"/><rect x="1204" y="153.31556895999893" width="8" height="36.75264224000057" fill="#ef5350"/><line x1="1220" y1="192.3053283199988" x2="1220" y2="221.7074422400001" stroke="#ef5350" stroke-width="2"/><rect x="1216" y="193.58368128000075" width="8" height="23.969114240000636" fill="#ef5350"/><line x1="1232" y1="215.95485471999928" x2="1232" y2="239.9239689599999" stroke="#ef5350" stroke-width="2"/><rect x="1228" y="217.55279552000138" width="8" height="12.144351359998836" fill="#ef5350"/><line x1="1244" y1="211.48061984000014" x2="1244" y2="255.5837904" stroke="#26a69a" stroke-width="2"/><rect x="1240" y="225.54250048000176" width="8" height="4.634028799999214" fill="#26a69a"/><line x1="1256" y1="205.72803263999958" x2="1256" y2="233.53220511999825" stroke="#ef5350" stroke-width="2"/><rect x="1252" y="225.22291232000134" width="8" height="2" fill="#ef5350"/><line x1="1268" y1="213.3981491199993" x2="1268" y2="238.32602816000144" stroke="#26a69a" stroke-width="2"/><rect x="1264" y="220.4290892800018" width="8" height="5.752587519997178" fill="#26a69a"/><line x1="1280" y1="214.35691360000055" x2="1280" y2="251.42914400000154" stroke="#ef5350" stroke-width="2"/><rect x="1276" y="220.74867743999857" width="8" height="20.77323264000006" fill="#ef5350"/><line x1="1292" y1="230.01673504000064" x2="1292" y2="248.2332620800007" stroke="#ef5350" stroke-width="2"/><rect x="1288" y="240.24355712000033" width="8" height="5.752587520000816" fill="#ef5350"/><line x1="1304" y1="221.7074422400001" x2="1304" y2="247.59408575999987" stroke="#26a69a" stroke-width="2"/><rect x="1300" y="238.96520447999865" width="8" height="8.628881280001224" fill="#26a69a"/><line x1="1316" y1="232.89302880000105" x2="1316" y2="252.7074966399996" stroke="#ef5350" stroke-width="2"/><rect x="1312" y="236.72808703999908" width="8" height="12.144351360002474" fill="#ef5350"/><line x1="1328" y1="243.11985088000074" x2="1328" y2="271.2436118400001" stroke="#ef5350" stroke-width="2"/><rect x="1324" y="243.11985088000074" width="8" height="3.5154700799976126" fill="#ef5350"/><line x1="1340" y1="241.2023219199982" x2="1340" y2="263.5734953600004" stroke="#26a69a" stroke-width="2"/><rect x="1336" y="244.71779199999946" width="8" height="2" fill="#26a69a"/><line x1="1352" y1="234.8105580800002" x2="1352" y2="261.0167897600004" stroke="#ef5350" stroke-width="2"/><rect x="1348" y="245.99614464000115" width="8" height="11.824763199998415" fill="#ef5350"/><line x1="1364" y1="215.63526655999885" x2="1364" y2="260.69720159999997" stroke="#26a69a" stroke-width="2"/><rect x="1360" y="217.23320736000096" width="8" height="40.5877004799986" fill="#26a69a"/><line x1="1376" y1="185.27438815999994" x2="1376" y2="225.22291232000134" stroke="#26a69a" stroke-width="2"/><rect x="1372" y="189.74862303999907" width="8" height="27.484584320001886" fill="#26a69a"/><line x1="1388" y1="175.36715424000067" x2="1388" y2="200.6146214399996" stroke="#ef5350" stroke-width="2"/><rect x="1384" y="191.02697568000076" width="8" height="6.391763839998021" fill="#ef5350"/><line x1="1400" y1="194.54244575999837" x2="1400" y2="221.7074422400001" stroke="#ef5350" stroke-width="2"/><rect x="1396" y="197.41873951999878" width="8" height="22.371173440002167" fill="#ef5350"/><line x1="1412" y1="201.57338592000087" x2="1412" y2="227.77961792000133" stroke="#26a69a" stroke-width="2"/><rect x="1408" y="207.3259734400017" width="8" height="12.144351359998836" fill="#26a69a"/><line x1="1424" y1="192.62491679999948" x2="1424" y2="212.75897279999845" stroke="#ef5350" stroke-width="2"/><rect x="1420" y="205.0888559999985" width="8" height="2" fill="#ef5350"/><line x1="1436" y1="183.03727104000063" x2="1436" y2="204.13009152000086" stroke="#26a69a" stroke-width="2"/><rect x="1432" y="194.8620339199988" width="8" height="9.268057600002066" fill="#26a69a"/><line x1="1448" y1="175.36715424000067" x2="1448" y2="192.9445049599999" stroke="#26a69a" stroke-width="2"/><rect x="1444" y="180.16097728000022" width="8" height="12.783527679999679" fill="#26a69a"/><line x1="1460" y1="165.4599203200014" x2="1460" y2="181.7589180799987" stroke="#26a69a" stroke-width="2"/><rect x="1456" y="168.0166259200014" width="8" height="10.865998399996897" fill="#26a69a"/><line x1="1472" y1="146.60421696000049" x2="1472" y2="169.29497855999944" stroke="#26a69a" stroke-width="2"/><rect x="1468" y="162.583626560001" width="8" height="6.072175679997599" fill="#26a69a"/><line x1="1484" y1="142.7691587199988" x2="1484" y2="161.3052739199993" stroke="#26a69a" stroke-width="2"/><rect x="1480" y="149.00112832000013" width="8" height="12.304145599999174" fill="#26a69a"/><line x1="1496" y1="130.30521919999956" x2="1496" y2="148.84133440000005" stroke="#26a69a" stroke-width="2"/><rect x="1492" y="131.58357184000124" width="8" height="17.25776255999881" fill="#26a69a"/><line x1="1508" y1="121.99592607999875" x2="1508" y2="135.41863039999953" stroke="#26a69a" stroke-width="2"/><rect x="1504" y="131.42377792000116" width="8" height="2" fill="#26a69a"/><line x1="1520" y1="118.48045600000114" x2="1520" y2="131.58357184000124" stroke="#26a69a" stroke-width="2"/><rect x="1516" y="126.47016096000152" width="8" height="3.835058239998034" fill="#26a69a"/><line x1="1532" y1="117.52169151999988" x2="1532" y2="128.7072784000011" stroke="#26a69a" stroke-width="2"/><rect x="1528" y="123.27427904000069" width="8" height="2.396911359999649" fill="#26a69a"/><line x1="1544" y1="116.88251519999903" x2="1544" y2="123.91345536000154" stroke="#26a69a" stroke-width="2"/><rect x="1540" y="122.31551455999943" width="8" height="2" fill="#26a69a"/><line x1="1556" y1="113.6866332799982" x2="1556" y2="123.91345536000154" stroke="#26a69a" stroke-width="2"/><rect x="1552" y="119.43922079999902" width="8" height="2" fill="#26a69a"/><line x1="1568" y1="116.88251519999903" x2="1568" y2="127.74851359999957" stroke="#26a69a" stroke-width="2"/><rect x="1564" y="117.20210335999946" width="8" height="2.2371174399995652" fill="#26a69a"/><line x1="1580" y1="116.24333887999819" x2="1580" y2="136.05780672000037" stroke="#ef5350" stroke-width="2"/><rect x="1576" y="117.52169151999988" width="8" height="15.979409600000508" fill="#ef5350"/><line x1="1592" y1="109.21239839999907" x2="1592" y2="132.86192479999954" stroke="#26a69a" stroke-width="2"/><rect x="1588" y="116.24333887999819" width="8" height="15.659821440000087" fill="#26a69a"/><line x1="1604" y1="102.18145824000021" x2="1604" y2="116.24333887999819" stroke="#26a69a" stroke-width="2"/><rect x="1600" y="104.7381638400002" width="8" height="11.505175039997994" fill="#26a69a"/><line x1="1616" y1="101.22269375999895" x2="1616" y2="111.76910399999906" stroke="#26a69a" stroke-width="2"/><rect x="1612" y="104.57836992000011" width="8" height="2" fill="#26a69a"/><line x1="1628" y1="95.31031232000169" x2="1628" y2="106.97528127999976" stroke="#26a69a" stroke-width="2"/><rect x="1624" y="95.47010624000177" width="8" height="7.67011679999996" fill="#26a69a"/><line x1="1640" y1="94.5113417600005" x2="1640" y2="105.69692832000146" stroke="#ef5350" stroke-width="2"/><rect x="1636" y="95.78969439999855" width="8" height="8.309293120000802" fill="#ef5350"/><line x1="1652" y1="103.77939935999893" x2="1652" y2="123.27427904000069" stroke="#ef5350" stroke-width="2"/><rect x="1648" y="103.77939935999893" width="8" height="18.855703360000916" fill="#ef5350"/><line x1="1664" y1="108.57322207999823" x2="1664" y2="125.51139648000026" stroke="#26a69a" stroke-width="2"/><rect x="1660" y="109.53198687999975" width="8" height="12.783527679999679" fill="#26a69a"/><line x1="1676" y1="99.3051644799998" x2="1676" y2="111.44951583999864" stroke="#26a69a" stroke-width="2"/><rect x="1672" y="101.86187007999979" width="8" height="7.989704960000381" fill="#26a69a"/><line x1="1688" y1="100.26392928000132" x2="1688" y2="118.80004416000156" stroke="#ef5350" stroke-width="2"/><rect x="1684" y="101.54228191999937" width="8" height="8.309293120000802" fill="#ef5350"/><line x1="1700" y1="98.66598815999896" x2="1700" y2="113.6866332799982" stroke="#26a69a" stroke-width="2"/><rect x="1696" y="101.22269375999895" width="8" height="8.628881280001224" fill="#26a69a"/><line x1="1712" y1="99.3051644799998" x2="1712" y2="105.37734016000104" stroke="#26a69a" stroke-width="2"/><rect x="1708" y="99.3051644799998" width="8" height="2" fill="#26a69a"/><line x1="1724" y1="83.64534303999972" x2="1724" y2="99.9443411200009" stroke="#26a69a" stroke-width="2"/><rect x="1720" y="90.99587167999925" width="8" height="8.62888096000097" fill="#26a69a"/><line x1="1736" y1="87.48040160000164" x2="1736" y2="96.26907679999931" stroke="#ef5350" stroke-width="2"/><rect x="1732" y="90.99587167999925" width="8" height="5.273205120000057" fill="#ef5350"/><line x1="1748" y1="85.24328415999844" x2="1748" y2="98.34639999999854" stroke="#26a69a" stroke-width="2"/><rect x="1744" y="85.56287231999886" width="8" height="11.505175040001632" fill="#26a69a"/><line x1="1760" y1="79.49069664000126" x2="1760" y2="89.71751872000095" stroke="#26a69a" stroke-width="2"/><rect x="1756" y="81.72781408000083" width="8" height="4.953616959999636" fill="#26a69a"/><line x1="1772" y1="76.29481472000043" x2="1772" y2="84.60410784000123" stroke="#26a69a" stroke-width="2"/><rect x="1768" y="81.08863775999998" width="8" height="2" fill="#26a69a"/><line x1="1784" y1="68.14531583999997" x2="1784" y2="83.64534303999972" stroke="#26a69a" stroke-width="2"/><rect x="1780" y="71.82058016000155" width="8" height="8.948469439998007" fill="#26a69a"/><line x1="1796" y1="67.66593343999921" x2="1796" y2="81.4082259200004" stroke="#ef5350" stroke-width="2"/><rect x="1792" y="73.0989327999996" width="8" height="5.752587520000816" fill="#ef5350"/><line x1="1808" y1="70.2226390399992" x2="1808" y2="79.49069664000126" stroke="#26a69a" stroke-width="2"/><rect x="1804" y="70.86181568000029" width="8" height="7.989704640000127" fill="#26a69a"/><line x1="1820" y1="65.10922815999947" x2="1820" y2="76.29481472000043" stroke="#26a69a" stroke-width="2"/><rect x="1816" y="68.3051100800003" width="8" height="2.5567055999999866" fill="#26a69a"/><line x1="1832" y1="58.07828800000061" x2="1832" y2="69.58346271999835" stroke="#26a69a" stroke-width="2"/><rect x="1828" y="60.954581440000766" width="8" height="7.67011679999996" fill="#26a69a"/><line x1="1844" y1="60.634993280000344" x2="1844" y2="78.21234399999958" stroke="#ef5350" stroke-width="2"/><rect x="1840" y="60.954581440000766" width="8" height="9.108263679998345" fill="#ef5350"/><line x1="1856" y1="68.3051100800003" x2="1856" y2="82.84637279999879" stroke="#ef5350" stroke-width="2"/><rect x="1852" y="70.2226390399992" width="8" height="3.5154700800012506" fill="#ef5350"/><line x1="1868" y1="63.830875200001174" x2="1868" y2="75.97522656000001" stroke="#26a69a" stroke-width="2"/><rect x="1864" y="72.45975647999876" width="8" height="2.5567055999999866" fill="#26a69a"/><line x1="1880" y1="71.18140384000071" x2="1880" y2="81.72781408000083" stroke="#26a69a" stroke-width="2"/><rect x="1876" y="73.0989327999996" width="8" height="2" fill="#26a69a"/><line x1="1892" y1="51.6865238399987" x2="1892" y2="77.2535792000017" stroke="#26a69a" stroke-width="2"/><rect x="1888" y="55.841170560001046" width="8" height="18.85570335999728" fill="#26a69a"/><line x1="1904" y1="51.36693567999828" x2="1904" y2="63.830875200001174" stroke="#26a69a" stroke-width="2"/><rect x="1900" y="52.96487680000064" width="8" height="3.1958819200008293" fill="#26a69a"/><line x1="1916" y1="36.66587903999971" x2="1916" y2="58.39787616000103" stroke="#26a69a" stroke-width="2"/><rect x="1912" y="37.94423168000151" width="8" height="15.340233279999552" fill="#26a69a"/><line x1="1928" y1="33.789585279999415" x2="1928" y2="56.48034687999825" stroke="#ef5350" stroke-width="2"/><rect x="1924" y="37.94423168000151" width="8" height="5.752587519997064" fill="#ef5350"/><line x1="1940" y1="42.09887807999985" x2="1940" y2="72.14016831999834" stroke="#ef5350" stroke-width="2"/><rect x="1936" y="43.37723104000179" width="8" height="24.608290879998094" fill="#ef5350"/><rect x="75" y="930.9102850568032" width="10" height="89.08971494319678" fill="#ef5350" opacity="0.9"/><rect x="87" y="903.1520001884933" width="10" height="116.84799981150672" fill="#ef5350" opacity="0.9"/><rect x="99" y="946.6391649748086" width="10" height="73.36083502519136" fill="#26a69a" opacity="0.9"/><rect x="111" y="971.8704619263227" width="10" height="48.12953807367728" fill="#ef5350" opacity="0.9"/><rect x="123" y="958.0020694990399" width="10" height="61.99793050096014" fill="#26a69a" opacity="0.9"/><rect x="135" y="964.537484635835" width="10" height="55.46251536416503" fill="#26a69a" opacity="0.9"/><rect x="147" y="960.0958174128514" width="10" height="59.904182587148625" fill="#ef5350" opacity="0.9"/><rect x="159" y="961.2055715469407" width="10" height="58.794428453059254" fill="#26a69a" opacity="0.9"/><rect x="171" y="976.0797522884261" width="10" height="43.92024771157389" fill="#26a69a" opacity="0.9"/><rect x="183" y="977.9517260878614" width="10" height="42.0482739121386" fill="#ef5350" opacity="0.9"/><rect x="195" y="987.189074458769" width="10" height="32.81092554123097" fill="#ef5350" opacity="0.9"/><rect x="207" y="987.7466022124398" width="10" height="32.253397787560175" fill="#26a69a" opacity="0.9"/><rect x="219" y="970.2700362456853" width="10" height="49.72996375431467" fill="#ef5350" opacity="0.9"/><rect x="231" y="978.1393357968357" width="10" height="41.86066420316433" fill="#ef5350" opacity="0.9"/><rect x="243" y="974.475792358954" width="10" height="45.52420764104602" fill="#ef5350" opacity="0.9"/><rect x="255" y="979.5356586072703" width="10" height="40.46434139272969" fill="#ef5350" opacity="0.9"/><rect x="267" y="983.7349352643422" width="10" height="36.2650647356578" fill="#ef5350" opacity="0.9"/><rect x="279" y="980.5373236311658" width="10" height="39.462676368834195" fill="#ef5350" opacity="0.9"/><rect x="291" y="983.1909554645378" width="10" height="36.80904453546225" fill="#26a69a" opacity="0.9"/><rect x="303" y="979.6944052840947" width="10" height="40.30559471590527" fill="#ef5350" opacity="0.9"/><rect x="315" y="955.1593553530125" width="10" height="64.84064464698747" fill="#ef5350" opacity="0.9"/><rect x="327" y="976.7117937883613" width="10" height="43.28820621163868" fill="#26a69a" opacity="0.9"/><rect x="339" y="988.499986255699" width="10" height="31.500013744300986" fill="#ef5350" opacity="0.9"/><rect x="351" y="992.0174474084139" width="10" height="27.982552591586114" fill="#ef5350" opacity="0.9"/><rect x="363" y="994.1447706861547" width="10" height="25.855229313845257" fill="#26a69a" opacity="0.9"/><rect x="375" y="990.9330220576396" width="10" height="29.06697794236038" fill="#ef5350" opacity="0.9"/><rect x="387" y="983.3252569202556" width="10" height="36.67474307974442" fill="#26a69a" opacity="0.9"/><rect x="399" y="995.1258192585146" width="10" height="24.87418074148536" fill="#ef5350" opacity="0.9"/><rect x="411" y="991.3482962957145" width="10" height="28.651703704285524" fill="#26a69a" opacity="0.9"/><rect x="423" y="979.9400355781049" width="10" height="40.059964421895074" fill="#ef5350" opacity="0.9"/><rect x="435" y="991.6660841700995" width="10" height="28.333915829900548" fill="#ef5350" opacity="0.9"/><rect x="447" y="980.7682278883649" width="10" height="39.23177211163511" fill="#26a69a" opacity="0.9"/><rect x="459" y="989.0124523367275" width="10" height="30.987547663272494" fill="#26a69a" opacity="0.9"/><rect x="471" y="992.1358447443756" width="10" height="27.864155255624382" fill="#26a69a" opacity="0.9"/><rect x="483" y="976.5406772406155" width="10" height="43.45932275938446" fill="#26a69a" opacity="0.9"/><rect x="495" y="987.5380815311937" width="10" height="32.46191846880629" fill="#ef5350" opacity="0.9"/><rect x="507" y="991.8554610034911" width="10" height="28.144538996508913" fill="#26a69a" opacity="0.9"/><rect x="519" y="995.4942646995299" width="10" height="24.505735300470064" fill="#ef5350" opacity="0.9"/><rect x="531" y="997.8206839949578" width="10" height="22.17931600504221" fill="#ef5350" opacity="0.9"/><rect x="543" y="994.7950724717358" width="10" height="25.204927528264193" fill="#ef5350" opacity="0.9"/><rect x="555" y="996.8140121185465" width="10" height="23.185987881453457" fill="#26a69a" opacity="0.9"/><rect x="567" y="993.5810579970234" width="10" height="26.418942002976564" fill="#26a69a" opacity="0.9"/><rect x="579" y="992.4118106742169" width="10" height="27.588189325783105" fill="#26a69a" opacity="0.9"/><rect x="591" y="987.1858347306706" width="10" height="32.81416526932935" fill="#26a69a" opacity="0.9"/><rect x="603" y="988.7576918998943" width="10" height="31.242308100105674" fill="#26a69a" opacity="0.9"/><rect x="615" y="990.6137615795736" width="10" height="29.386238420426366" fill="#26a69a" opacity="0.9"/><rect x="627" y="988.386595772253" width="10" height="31.61340422774697" fill="#26a69a" opacity="0.9"/><rect x="639" y="990.5389533125729" width="10" height="29.461046687427142" fill="#26a69a" opacity="0.9"/><rect x="651" y="992.4503928906621" width="10" height="27.5496071093379" fill="#ef5350" opacity="0.9"/><rect x="663" y="987.4299924209997" width="10" height="32.570007579000276" fill="#26a69a" opacity="0.9"/><rect x="675" y="986.7437591055995" width="10" height="33.25624089440055" fill="#ef5350" opacity="0.9"/><rect x="687" y="992.4624682408473" width="10" height="27.53753175915267" fill="#ef5350" opacity="0.9"/><rect x="699" y="997.8180333083318" width="10" height="22.181966691668208" fill="#ef5350" opacity="0.9"/><rect x="711" y="979.3489324605048" width="10" height="40.651067539495216" fill="#26a69a" opacity="0.9"/><rect x="723" y="995.3131344467527" width="10" height="24.686865553247344" fill="#26a69a" opacity="0.9"/><rect x="735" y="995.2624768801222" width="10" height="24.73752311987778" fill="#26a69a" opacity="0.9"/><rect x="747" y="997.3718343929535" width="10" height="22.628165607046526" fill="#26a69a" opacity="0.9"/><rect x="759" y="996.7327243953489" width="10" height="23.267275604651104" fill="#ef5350" opacity="0.9"/><rect x="771" y="998.7339927979863" width="10" height="21.266007202013725" fill="#26a69a" opacity="0.9"/><rect x="783" y="998.356417214148" width="10" height="21.643582785852004" fill="#ef5350" opacity="0.9"/><rect x="795" y="981.0804198687615" width="10" height="38.91958013123849" fill="#26a69a" opacity="0.9"/><rect x="807" y="962.9821206278397" width="10" height="57.01787937216034" fill="#26a69a" opacity="0.9"/><rect x="819" y="959.9406049848617" width="10" height="60.05939501513831" fill="#26a69a" opacity="0.9"/><rect x="831" y="963.6094497959953" width="10" height="56.39055020400474" fill="#ef5350" opacity="0.9"/><rect x="843" y="979.2979803731381" width="10" height="40.7020196268619" fill="#26a69a" opacity="0.9"/><rect x="855" y="985.9877243757143" width="10" height="34.012275624285735" fill="#26a69a" opacity="0.9"/><rect x="867" y="966.0739993167119" width="10" height="53.926000683288066" fill="#ef5350" opacity="0.9"/><rect x="879" y="963.4948812296044" width="10" height="56.5051187703956" fill="#26a69a" opacity="0.9"/><rect x="891" y="991.7547349117027" width="10" height="28.245265088297288" fill="#ef5350" opacity="0.9"/><rect x="903" y="987.1602114266192" width="10" height="32.839788573380815" fill="#ef5350" opacity="0.9"/><rect x="915" y="993.5483661953026" width="10" height="26.451633804697394" fill="#ef5350" opacity="0.9"/><rect x="927" y="991.6716800640877" width="10" height="28.328319935912305" fill="#26a69a" opacity="0.9"/><rect x="939" y="992.1711872327224" width="10" height="27.828812767277554" fill="#26a69a" opacity="0.9"/><rect x="951" y="995.6220866990509" width="10" height="24.377913300949103" fill="#26a69a" opacity="0.9"/><rect x="963" y="985.2911828345461" width="10" height="34.708817165453866" fill="#26a69a" opacity="0.9"/><rect x="975" y="985.9079092561977" width="10" height="34.09209074380226" fill="#ef5350" opacity="0.9"/><rect x="987" y="952.3879152251513" width="10" height="67.61208477484865" fill="#26a69a" opacity="0.9"/><rect x="999" y="899.881936454206" width="10" height="120.11806354579403" fill="#26a69a" opacity="0.9"/><rect x="1011" y="878.9044024959651" width="10" height="141.0955975040349" fill="#26a69a" opacity="0.9"/><rect x="1023" y="971.6516330193087" width="10" height="48.34836698069125" fill="#26a69a" opacity="0.9"/><rect x="1035" y="961.6656129369215" width="10" height="58.33438706307845" fill="#26a69a" opacity="0.9"/><rect x="1047" y="974.225155212428" width="10" height="45.774844787571965" fill="#ef5350" opacity="0.9"/><rect x="1059" y="981.0477280670408" width="10" height="38.952271932959206" fill="#ef5350" opacity="0.9"/><rect x="1071" y="985.2791074843609" width="10" height="34.72089251563909" fill="#26a69a" opacity="0.9"/><rect x="1083" y="989.122603092075" width="10" height="30.877396907925004" fill="#26a69a" opacity="0.9"/><rect x="1095" y="992.189152997632" width="10" height="27.81084700236795" fill="#26a69a" opacity="0.9"/><rect x="1107" y="983.9776203509902" width="10" height="36.02237964900985" fill="#ef5350" opacity="0.9"/><rect x="1119" y="990.3260148202835" width="10" height="29.67398517971651" fill="#ef5350" opacity="0.9"/><rect x="1131" y="986.9699510310189" width="10" height="33.03004896898108" fill="#26a69a" opacity="0.9"/><rect x="1143" y="986.9402044366603" width="10" height="33.05979556333966" fill="#ef5350" opacity="0.9"/><rect x="1155" y="992.8594821932763" width="10" height="27.140517806723665" fill="#26a69a" opacity="0.9"/><rect x="1167" y="994.0564144652877" width="10" height="25.94358553471227" fill="#ef5350" opacity="0.9"/><rect x="1179" y="987.0150127036611" width="10" height="32.984987296338886" fill="#ef5350" opacity="0.9"/><rect x="1191" y="970.8726256719981" width="10" height="49.127374328001906" fill="#ef5350" opacity="0.9"/><rect x="1203" y="959.4776183875186" width="10" height="60.522381612481354" fill="#ef5350" opacity="0.9"/><rect x="1215" y="982.2543795233477" width="10" height="37.745620476652334" fill="#ef5350" opacity="0.9"/><rect x="1227" y="986.131155974255" width="10" height="33.868844025745034" fill="#ef5350" opacity="0.9"/><rect x="1239" y="975.3888066412462" width="10" height="44.61119335875378" fill="#26a69a" opacity="0.9"/><rect x="1251" y="992.1641187350531" width="10" height="27.83588126494692" fill="#ef5350" opacity="0.9"/><rect x="1263" y="997.5912523414398" width="10" height="22.408747658560173" fill="#26a69a" opacity="0.9"/><rect x="1275" y="996.0950870014254" width="10" height="23.90491299857456" fill="#ef5350" opacity="0.9"/><rect x="1287" y="1000.0988018896451" width="10" height="19.901198110354926" fill="#ef5350" opacity="0.9"/><rect x="1299" y="994.2313597826044" width="10" height="25.768640217395614" fill="#26a69a" opacity="0.9"/><rect x="1311" y="998.8356024519833" width="10" height="21.164397548016723" fill="#ef5350" opacity="0.9"/><rect x="1323" y="993.8749896917742" width="10" height="26.125010308225797" fill="#ef5350" opacity="0.9"/><rect x="1335" y="996.2809295859823" width="10" height="23.719070414017665" fill="#26a69a" opacity="0.9"/><rect x="1347" y="992.9130849672689" width="10" height="27.0869150327311" fill="#ef5350" opacity="0.9"/><rect x="1359" y="996.442621470169" width="10" height="23.557378529831" fill="#26a69a" opacity="0.9"/><rect x="1371" y="991.9753309431339" width="10" height="28.02466905686606" fill="#26a69a" opacity="0.9"/><rect x="1383" y="993.1001056347707" width="10" height="26.89989436522933" fill="#ef5350" opacity="0.9"/><rect x="1395" y="992.7781944700787" width="10" height="27.221805529921312" fill="#ef5350" opacity="0.9"/><rect x="1407" y="1001.4544808384809" width="10" height="18.54551916151911" fill="#26a69a" opacity="0.9"/><rect x="1419" y="1002.8917420312506" width="10" height="17.1082579687494" fill="#ef5350" opacity="0.9"/><rect x="1431" y="1005.0205379126727" width="10" height="14.979462087327306" fill="#26a69a" opacity="0.9"/><rect x="1443" y="999.6956030017553" width="10" height="20.30439699824467" fill="#26a69a" opacity="0.9"/><rect x="1455" y="995.1470247515226" width="10" height="24.852975248477378" fill="#26a69a" opacity="0.9"/><rect x="1467" y="991.3880565951047" width="10" height="28.611943404895328" fill="#26a69a" opacity="0.9"/><rect x="1479" y="1002.3881115723087" width="10" height="17.61188842769127" fill="#26a69a" opacity="0.9"/><rect x="1491" y="988.4401985462456" width="10" height="31.559801453754403" fill="#26a69a" opacity="0.9"/><rect x="1503" y="993.7153594527412" width="10" height="26.284640547258846" fill="#26a69a" opacity="0.9"/><rect x="1515" y="999.552760444687" width="10" height="20.44723955531299" fill="#26a69a" opacity="0.9"/><rect x="1527" y="991.5535772488622" width="10" height="28.44642275113779" fill="#26a69a" opacity="0.9"/><rect x="1539" y="1002.2060977573228" width="10" height="17.793902242677177" fill="#26a69a" opacity="0.9"/><rect x="1551" y="998.1973760165874" width="10" height="21.80262398341256" fill="#26a69a" opacity="0.9"/><rect x="1563" y="1003.5685506830918" width="10" height="16.431449316908243" fill="#26a69a" opacity="0.9"/><rect x="1575" y="996.1121692041264" width="10" height="23.887830795873583" fill="#ef5350" opacity="0.9"/><rect x="1587" y="986.0799093661522" width="10" height="33.92009063384785" fill="#26a69a" opacity="0.9"/><rect x="1599" y="986.5461356915936" width="10" height="33.45386430840642" fill="#26a69a" opacity="0.9"/><rect x="1611" y="994.5759490439857" width="10" height="25.424050956014298" fill="#26a69a" opacity="0.9"/><rect x="1623" y="1001.2724670234949" width="10" height="18.72753297650513" fill="#26a69a" opacity="0.9"/><rect x="1635" y="1000.7767886244311" width="10" height="19.223211375568894" fill="#ef5350" opacity="0.9"/><rect x="1647" y="994.9882780746983" width="10" height="25.011721925301686" fill="#ef5350" opacity="0.9"/><rect x="1659" y="993.5203867253614" width="10" height="26.47961327463861" fill="#26a69a" opacity="0.9"/><rect x="1671" y="989.8727474072358" width="10" height="30.127252592764194" fill="#26a69a" opacity="0.9"/><rect x="1683" y="988.7261781811185" width="10" height="31.273821818881515" fill="#ef5350" opacity="0.9"/><rect x="1695" y="996.7253613769434" width="10" height="23.274638623056603" fill="#26a69a" opacity="0.9"/><rect x="1707" y="1002.0273236704352" width="10" height="17.97267632956482" fill="#26a69a" opacity="0.9"/><rect x="1719" y="986.1797518957318" width="10" height="33.82024810426822" fill="#26a69a" opacity="0.9"/><rect x="1731" y="999.5271371406357" width="10" height="20.47286285936434" fill="#ef5350" opacity="0.9"/><rect x="1743" y="1003.0993791502881" width="10" height="16.900620849711913" fill="#26a69a" opacity="0.9"/><rect x="1755" y="997.4378070378675" width="10" height="22.562192962132485" fill="#26a69a" opacity="0.9"/><rect x="1767" y="996.511244801709" width="10" height="23.48875519829096" fill="#26a69a" opacity="0.9"/><rect x="1779" y="987.1649237583988" width="10" height="32.8350762416012" fill="#26a69a" opacity="0.9"/><rect x="1791" y="998.7496023970061" width="10" height="21.25039760299387" fill="#ef5350" opacity="0.9"/><rect x="1803" y="995.8853882372345" width="10" height="24.11461176276555" fill="#26a69a" opacity="0.9"/><rect x="1815" y="990.477103957966" width="10" height="29.52289604203395" fill="#26a69a" opacity="0.9"/><rect x="1827" y="990.3628299123113" width="10" height="29.637170087688673" fill="#26a69a" opacity="0.9"/><rect x="1839" y="991.547981354874" width="10" height="28.45201864512603" fill="#ef5350" opacity="0.9"/><rect x="1851" y="990.1024735814899" width="10" height="29.897526418510097" fill="#ef5350" opacity="0.9"/><rect x="1863" y="994.5803668550291" width="10" height="25.41963314497093" fill="#26a69a" opacity="0.9"/><rect x="1875" y="990.9418576797264" width="10" height="29.058142320273646" fill="#26a69a" opacity="0.9"/><rect x="1887" y="985.805416039992" width="10" height="34.194583960008" fill="#26a69a" opacity="0.9"/><rect x="1899" y="987.3543005917903" width="10" height="32.64569940820968" fill="#26a69a" opacity="0.9"/><rect x="1911" y="979.4487749900844" width="10" height="40.55122500991558" fill="#26a69a" opacity="0.9"/><rect x="1923" y="958.0326996556071" width="10" height="61.967300344392925" fill="#ef5350" opacity="0.9"/><rect x="1935" y="860.0" width="10" height="160.0" fill="#ef5350" opacity="0.9"/><rect x="1004" y="206.0476208" width="12" height="293.0623718399984" fill="#00ff00" opacity="0.50"/><polyline points="320,691.8137589280013,332,698.9672007062836,344,705.9263538580635,356,713.592394183961,368,718.8543020597754,380,727.1427207436063,392,732.3650808099264,404,739.4306763137429,416,745.7929209924332,428,753.3145818807752,440,761.4895578083197,452,768.125040318002,464,771.6631774915259,476,773.2816267513808,488,771.3674342455342,500,770.092100363101,512,767.8424958942342,524,767.5724837747803,536,768.2108592476616,548,771.5886383516918,560,772.3010774572467,572,770.1302454251272,584,768.0596298989258,596,765.2731067314089,608,761.351866090321,620,757.682329037907,632,752.4143055942986,644,746.430519842459,656,741.2296772517475,668,734.2718171553897,680,729.1940892282109,692,727.7653994045722,704,726.8075819527112,716,722.9885990467374,728,718.8028415146655,740,714.6200469170799,752,710.0442524906939,764,707.4869704782468,776,702.799155415556,788,699.0447904731227,800,691.8433627480626,812,682.9841385625332,824,670.7074741203869,836,661.0609903832083,848,650.5374381409965,860,639.8290871104255,872,630.8710663189559,884,622.4922576257231,896,615.1518827966065,908,610.9181556578842,920,609.2791025095139,932,606.8556472609853,944,602.9859201846994,956,597.6280833366327,968,590.7412396512373,980,589.1671423435,992,584.9123208022174,1004,576.7406705010544,1016,539.1537977142871,1028,502.07249306340236,1040,467.2139515068884,1052,436.64925410623255,1064,409.2694130065902,1076,382.70139454882155,1088,358.511478725126,1100,336.412305604641,1112,317.6657314327713,1124,300.64367134202985,1136,282.9295500485023,1148,267.8764709810239,1160,253.43522030473832,1172,242.16510810809632,1184,232.89666751875484,1196,225.34795224268237,1208,221.9879769052859,1220,221.56557867811352,1232,222.34001374496074,1244,222.64501248163288,1256,222.98183765481008,1268,222.73871876197154,1280,224.52759412559317,1292,226.57221798411047,1304,227.75250241228787,1316,229.76392488730562,1328,231.3707245132755,1340,232.64187379772557,1352,235.03987703984603,1364,233.3440037370019,1376,229.19206271824078,1388,226.16603193745323,1400,225.55878251102695,1412,223.8223245042609,1424,222.09905861242441,1436,219.50505626076483,1448,215.7580011197424,1460,211.2112034816746,1472,206.58000567961062,1484,201.0963030739331,1496,194.47604295641577,1508,188.47106533389888,1520,182.56621729829203,1532,176.91936603559952,1544,171.7189992284002,1556,166.7399727114098,1568,162.0220803922275,1580,159.3057966520173,1592,155.2046101975393,1604,150.39828197301176,1616,146.03448082510658,1628,141.21882610271496,1640,137.68360338055209,1652,136.25041284145118,1664,133.7058008451204,1676,130.67304553415306,1688,128.69004834423322,1700,126.07410981240173,1712,123.5246864474102,1724,120.42670408860795,1736,118.12597768017076,1748,115.02472955063058,1760,111.85359474390498,1772,108.92359884067628,1784,105.38997801394726,1796,102.8625058526195,1808,99.81482107427291,1820,96.81389621767448,1832,93.39872338170608,1844,91.17625878535546,1856,89.51548262674987,1868,87.89112775563262,1880,86.48234728366515,1892,83.5641399766464,1904,80.64992443601659,1916,76.58271560211142,1928,73.45072546857409,1940,72.93022989251767" fill="none" stroke="#0090ff" stroke-width="2"/><line x1="80" y1="50" x2="80" y2="850" stroke="#666666" stroke-width="0.5" stroke-dasharray="4,4"/><line x1="152" y1="50" x2="152" y2="850" stroke="#666666" stroke-width="0.5" stroke-dasharray="4,4"/><line x1="224" y1="50" x2="224" y2="850" stroke="#666666" stroke-width="0.5" stroke-dasharray="4,4"/><line x1="296" y1="50" x2="296" y2="850" stroke="#666666" stroke-width="0.5" stroke-dasharray="4,4"/><line x1="368" y1="50" x2="368" y2="850" stroke="#666666" stroke-width="0.5" stroke-dasharray="4,4"/><line x1="440" y1="50" x2="440" y2="850" stroke="#666666" stroke-width="0.5" stroke-dasharray="4,4"/><line x1="512" y1="50" x2="512" y2="850" stroke="#666666" stroke-width="0.5" stroke-dasharray="4,4"/><line x1="584" y1="50" x2="584" y2="850" stroke="#666666" stroke-width="0.5" stroke-dasharray="4,4"/><line x1="656" y1="50" x2="656" y2="850" stroke="#666666" stroke-width="0.5" stroke-dasharray="4,4"/><line x1="728" y1="50" x2="728" y2="850" stroke="#666666" stroke-width="0.5" stroke-dasharray="4,4"/><line x1="800" y1="50" x2="800" y2="850" stroke="#666666" stroke-width="0.5" stroke-dasharray="4,4"/><line x1="872" y1="50" x2="872" y2="850" stroke="#666666" stroke-width="0.5" stroke-dasharray="4,4"/><line x1="944" y1="50" x2="944" y2="850" stroke="#666666" stroke-width="0.5" stroke-dasharray="4,4"/><line x1="1016" y1="50" x2="1016" y2="850" stroke="#666666" stroke-width="0.5" stroke-dasharray="4,4"/><line x1="1088" y1="50" x2="1088" y2="850" stroke="#666666" stroke-width="0.5" stroke-dasharray="4,4"/><line x1="1160" y1="50" x2="1160" y2="850" stroke="#666666" stroke-width="0.5" stroke-dasharray="4,4"/><line x1="1232" y1="50" x2="1232" y2="850" stroke="#666666" stroke-width="0.5" stroke-dasharray="4,4"/><line x1="1304" y1="50" x2="1304" y2="850" stroke="#666666" stroke-width="0.5" stroke-dasharray="4,4"/><line x1="1376" y1="50" x2="1376" y2="850" stroke="#666666" stroke-width="0.5" stroke-dasharray="4,4"/><line x1="1448" y1="50" x2="1448" y2="850" stroke="#666666" stroke-width="0.5" stroke-dasharray="4,4"/><line x1="1520" y1="50" x2="1520" y2="850" stroke="#666666" stroke-width="0.5" stroke-dasharray="4,4"/><line x1="1592" y1="50" x2="1592" y2="850" stroke="#666666" stroke-width="0.5" stroke-dasharray="4,4"/><line x1="1664" y1="50" x2="1664" y2="850" stroke="#666666" stroke-width="0.5" stroke-dasharray="4,4"/><line x1="1736" y1="50" x2="1736" y2="850" stroke="#666666" stroke-width="0.5" stroke-dasharray="4,4"/><line x1="1808" y1="50" x2="1808" y2="850" stroke="#666666" stroke-width="0.5" stroke-dasharray="4,4"/><line x1="1880" y1="50" x2="1880" y2="850" stroke="#666666" stroke-width="0.5" stroke-dasharray="4,4"/><text x="80" y="1040" text-anchor="middle" font-size="20" fill="black">09:30</text><text x="152" y="1040" text-anchor="middle" font-size="20" fill="black">10:00</text><text x="224" y="1040" text-anchor="middle" font-size="20" fill="black">10:30</text><text x="296" y="1040" text-anchor="middle" font-size="20" fill="black">11:00</text><text x="368" y="1040" text-anchor="middle" font-size="20" fill="black">11:30</text><text x="440" y="1040" text-anchor="middle" font-size="20" fill="black">12:00</text><text x="512" y="1040" text-anchor="middle" font-size="20" fill="black">12:30</text><text x="584" y="1040" text-anchor="middle" font-size="20" fill="black">13:00</text><text x="656" y="1040" text-anchor="middle" font-size="20" fill="black">13:30</text><text x="728" y="1040" text-anchor="middle" font-size="20" fill="black">14:00</text><text x="800" y="1040" text-anchor="middle" font-size="20" fill="black">14:30</text><text x="872" y="1040" text-anchor="middle" font-size="20" fill="black">15:00</text><text x="944" y="1040" text-anchor="middle" font-size="20" fill="black">15:30</text><text x="1016" y="1040" text-anchor="middle" font-size="20" fill="black">09:30</text><text x="1088" y="1040" text-anchor="middle" font-size="20" fill="black">10:00</text><text x="1160" y="1040" text-anchor="middle" font-size="20" fill="black">10:30</text><text x="1232" y="1040" text-anchor="middle" font-size="20" fill="black">11:00</text><text x="1304" y="1040" text-anchor="middle" font-size="20" fill="black">11:30</text><text x="1376" y="1040" text-anchor="middle" font-size="20" fill="black">12:00</text><text x="1448" y="1040" text-anchor="middle" font-size="20" fill="black">12:30</text><text x="1520" y="1040" text-anchor="middle" font-size="20" fill="black">13:00</text><text x="1592" y="1040" text-anchor="middle" font-size="20" fill="black">13:30</text><text x="1664" y="1040" text-anchor="middle" font-size="20" fill="black">14:00</text><text x="1736" y="1040" text-anchor="middle" font-size="20" fill="black">14:30</text><text x="1808" y="1040" text-anchor="middle" font-size="20" fill="black">15:00</text><text x="1880" y="1040" text-anchor="middle" font-size="20" fill="black">15:30</text><text x="1942" y="50" text-anchor="end" font-size="40" fill="#26a69a" font-weight="bold"> +0.70% (Mon)</text></svg>