<svg xmlns="http://www.w3.org/2000/svg" width="1992" height="1050"><rect width="100%" height="100%" fill="white"/><text x="42" y="854.0" text-anchor="end" font-size="20" fill="black">610</text><text x="42" y="800.6666666666666" text-anchor="end" font-size="20" fill="black">611</text><text x="42" y="747.3333333333334" text-anchor="end" font-size="20" fill="black">612</text><text x="42" y="694.0" text-anchor="end" font-size="20" fill="black">613</text><text x="42" y="640.6666666666666" text-anchor="end" font-size="20" fill="black">614</text><text x="42" y="587.3333333333334" text-anchor="end" font-size="20" fill="black">615</text><text x="42" y="534.0" text-anchor="end" font-size="20" fill="black">616</text><text x="42" y="480.6666666666667" text-anchor="end" font-size="20" fill="black">617</text><text x="42" y="427.3333333333333" text-anchor="end" font-size="20" fill="black">618</text><text x="42" y="374.0" text-anchor="end" font-size="20" fill="black">619</text><text x="42" y="320.66666666666674" text-anchor="end" font-size="20" fill="black">620</text><text x="42" y="267.33333333333337" text-anchor="end" font-size="20" fill="black">621</text><text x="42" y="214.0" text-anchor="end" font-size="20" fill="black">622</text><text x="42" y="160.66666666666663" text-anchor="end" font-size="20" fill="black">623</text><text x="42" y="107.33333333333337" text-anchor="end" font-size="20" fill="black">624</text><text x="42" y="54.0" text-anchor="end" font-size="20" fill="black">625</text><line x1="80" y1="394.9075082666665" x2="80" y2="491.8492597333352" stroke="#ef5350" stroke-width="2"/><rect x="76" y="439.6498549333349" width="8" height="50.6014639999982" fill="#ef5350"/><line x1="92" y1="399.1686837333328" x2="92" y2="507.82866933333327" stroke="#26a69a" stroke-width="2"/><rect x="88" y="422.6051514666688" width="8" height="67.11351999999647" fill="#26a69a"/><line x1="104" y1="411.4195647999987" x2="104" y2="480.66367306666507" stroke="#ef5350" stroke-width="2"/><rect x="100" y="423.67044533333075" width="8" height="34.62205440000014" fill="#ef5350"/><line x1="116" y1="337.38163359999817" x2="116" y2="462.02102826666913" stroke="#26a69a" stroke-width="2"/><rect x="112" y="351.76310240000015" width="8" height="107.5946911999988" fill="#26a69a"/><line x1="128" y1="270.8007600000019" x2="128" y2="362.94868906666426" stroke="#26a69a" stroke-width="2"/><rect x="124" y="278.2578181333338" width="8" height="74.57057813333444" fill="#26a69a"/><line x1="140" y1="247.3642927999996" x2="140" y2="297.96575626666413" stroke="#26a69a" stroke-width="2"/><rect x="136" y="247.3642927999996" width="8" height="28.762937066664335" fill="#26a69a"/><line x1="152" y1="246.29899893333152" x2="152" y2="308.6186960000002" stroke="#ef5350" stroke-width="2"/><rect x="148" y="253.7560565333357" width="8" height="39.94852426666216" fill="#ef5350"/><line x1="164" y1="213.27488586666732" x2="164" y2="302.2269322666641" stroke="#26a69a" stroke-width="2"/><rect x="160" y="261.74576160000163" width="8" height="33.02411306666431" fill="#26a69a"/><line x1="176" y1="261.2131146666676" x2="176" y2="307.28707893333194" stroke="#ef5350" stroke-width="2"/><rect x="172" y="261.2131146666676" width="8" height="41.54646453333055" fill="#ef5350"/><line x1="188" y1="270.8007600000019" x2="188" y2="312.8798720000002" stroke="#26a69a" stroke-width="2"/><rect x="184" y="301.16163840000206" width="8" height="2" fill="#26a69a"/><line x1="200" y1="251.62546879999957" x2="200" y2="341.11016266666405" stroke="#26a69a" stroke-width="2"/><rect x="196" y="255.88664479999954" width="8" height="45.27499360000252" fill="#26a69a"/><line x1="212" y1="213.27488586666732" x2="212" y2="277.1925242666657" stroke="#26a69a" stroke-width="2"/><rect x="208" y="251.09282186666553" width="8" height="5.859116800002084" fill="#26a69a"/><line x1="224" y1="215.40547359999744" x2="224" y2="266.0069370666679" stroke="#26a69a" stroke-width="2"/><rect x="220" y="239.90723520000154" width="8" height="10.652939733329958" fill="#26a69a"/><line x1="236" y1="220.73194346666548" x2="236" y2="253.22340960000167" stroke="#26a69a" stroke-width="2"/><rect x="232" y="230.3195893333335" width="8" height="9.587645866668026" fill="#26a69a"/><line x1="248" y1="196.76282933333516" x2="248" y2="237.24399999999753" stroke="#ef5350" stroke-width="2"/><rect x="244" y="230.3195893333335" width="8" height="2" fill="#ef5350"/><line x1="260" y1="189.30577119999725" x2="260" y2="238.3092938666656" stroke="#ef5350" stroke-width="2"/><rect x="256" y="229.78694239999948" width="8" height="2" fill="#ef5350"/><line x1="272" y1="211.6769445333315" x2="272" y2="246.83164586666555" stroke="#26a69a" stroke-width="2"/><rect x="268" y="229.25429546666544" width="8" height="2" fill="#26a69a"/><line x1="284" y1="204.75253386666736" x2="284" y2="262.27840853333566" stroke="#26a69a" stroke-width="2"/><rect x="280" y="209.01370986666734" width="8" height="20.773232533332134" fill="#26a69a"/><line x1="296" y1="194.09959413333127" x2="296" y2="262.8110554666637" stroke="#ef5350" stroke-width="2"/><rect x="292" y="206.88312159999748" width="8" height="13.316174933333969" fill="#ef5350"/><line x1="308" y1="194.09959413333127" x2="308" y2="244.70105760000172" stroke="#26a69a" stroke-width="2"/><rect x="304" y="219.1340026666694" width="8" height="4.793822933327988" fill="#26a69a"/><line x1="320" y1="217.53606133333358" x2="320" y2="276.65987679999796" stroke="#ef5350" stroke-width="2"/><rect x="316" y="218.0687082666676" width="8" height="44.74234719999606" fill="#ef5350"/><line x1="332" y1="243.1031167999996" x2="332" y2="287.31281653333406" stroke="#ef5350" stroke-width="2"/><rect x="328" y="260.68046719999984" width="8" height="10.120292800002062" fill="#ef5350"/><line x1="344" y1="218.60135573333537" x2="344" y2="286.247522666666" stroke="#26a69a" stroke-width="2"/><rect x="340" y="221.26459039999952" width="8" height="51.13411093333218" fill="#26a69a"/><line x1="356" y1="174.92430240000124" x2="356" y2="223.9278255999974" stroke="#26a69a" stroke-width="2"/><rect x="352" y="182.38136053333312" width="8" height="39.41587680000043" fill="#26a69a"/><line x1="368" y1="172.7937146666651" x2="368" y2="196.76282933333516" stroke="#26a69a" stroke-width="2"/><rect x="364" y="176.52224373333104" width="8" height="4.793822933334013" fill="#26a69a"/><line x1="380" y1="174.92430240000124" x2="380" y2="199.42606399999931" stroke="#ef5350" stroke-width="2"/><rect x="376" y="175.45694933333527" width="8" height="6.924411199997849" fill="#ef5350"/><line x1="392" y1="147.7593061333331" x2="392" y2="188.77312426666924" stroke="#26a69a" stroke-width="2"/><rect x="388" y="150.42254133333097" width="8" height="30.893525333334082" fill="#26a69a"/><line x1="404" y1="126.45342666666693" x2="404" y2="159.47753973333113" stroke="#26a69a" stroke-width="2"/><rect x="400" y="134.97577866666688" width="8" height="15.446762666664085" fill="#26a69a"/><line x1="416" y1="128.58401493333076" x2="416" y2="141.900189333331" stroke="#26a69a" stroke-width="2"/><rect x="412" y="129.64930879999883" width="8" height="7.989704533332201" fill="#26a69a"/><line x1="428" y1="123.79019200000278" x2="428" y2="144.5634245333349" stroke="#ef5350" stroke-width="2"/><rect x="424" y="129.64930879999883" width="8" height="12.250880533332179" fill="#ef5350"/><line x1="440" y1="128.58401493333076" x2="440" y2="158.9448927999971" stroke="#ef5350" stroke-width="2"/><rect x="436" y="139.7696016000009" width="8" height="17.044703466666192" fill="#ef5350"/><line x1="452" y1="139.7696016000009" x2="452" y2="172.26106773333106" stroke="#ef5350" stroke-width="2"/><rect x="448" y="156.8143050666671" width="8" height="11.185586666663994" fill="#ef5350"/><line x1="464" y1="143.49813013333312" x2="464" y2="183.97930133333523" stroke="#26a69a" stroke-width="2"/><rect x="460" y="150.42254133333097" width="8" height="20.77323253333816" fill="#26a69a"/><line x1="476" y1="139.23695466666686" x2="476" y2="165.33665706666704" stroke="#26a69a" stroke-width="2"/><rect x="472" y="144.03077760000087" width="8" height="7.457057599998166" fill="#26a69a"/><line x1="488" y1="131.24724960000094" x2="488" y2="148.55827680000107" stroke="#26a69a" stroke-width="2"/><rect x="484" y="144.03077760000087" width="8" height="2" fill="#26a69a"/><line x1="500" y1="113.13725226666668" x2="500" y2="144.03077760000087" stroke="#26a69a" stroke-width="2"/><rect x="496" y="122.7248981333347" width="8" height="21.30587946666617" fill="#26a69a"/><line x1="512" y1="102.48431253333058" x2="512" y2="126.98607360000096" stroke="#26a69a" stroke-width="2"/><rect x="508" y="104.08225333333269" width="8" height="18.109997333334263" fill="#26a69a"/><line x1="524" y1="77.9825509333325" x2="524" y2="106.74548853333056" stroke="#26a69a" stroke-width="2"/><rect x="520" y="83.84166773333459" width="8" height="21.838526400000205" fill="#26a69a"/><line x1="536" y1="74.25402186666656" x2="536" y2="93.42931360000262" stroke="#26a69a" stroke-width="2"/><rect x="532" y="74.25402186666656" width="8" height="9.587645866668026" fill="#26a69a"/><line x1="548" y1="71.05814026666849" x2="548" y2="91.29872586666647" stroke="#ef5350" stroke-width="2"/><rect x="544" y="73.72137493333253" width="8" height="17.577350933333946" fill="#ef5350"/><line x1="560" y1="83.84166773333459" x2="560" y2="99.28843039999867" stroke="#ef5350" stroke-width="2"/><rect x="556" y="90.76607893333244" width="8" height="2" fill="#ef5350"/><line x1="572" y1="89.70078453333065" x2="572" y2="105.94651786666873" stroke="#26a69a" stroke-width="2"/><rect x="568" y="92.36401973333454" width="8" height="2" fill="#26a69a"/><line x1="584" y1="80.11313920000248" x2="584" y2="97.15784266666856" stroke="#26a69a" stroke-width="2"/><rect x="580" y="86.50490293333246" width="8" height="5.859116800002084" fill="#26a69a"/><line x1="596" y1="83.84166773333459" x2="596" y2="99.82107733333271" stroke="#ef5350" stroke-width="2"/><rect x="592" y="89.16813760000264" width="8" height="4.261175999999978" fill="#ef5350"/><line x1="608" y1="82.77637386666652" x2="608" y2="101.41901866666853" stroke="#26a69a" stroke-width="2"/><rect x="604" y="83.84166773333459" width="8" height="9.05499893333399" fill="#26a69a"/><line x1="620" y1="64.13372959999833" x2="620" y2="84.37431466666862" stroke="#26a69a" stroke-width="2"/><rect x="616" y="79.04784480000058" width="8" height="5.326469866668049" fill="#26a69a"/><line x1="632" y1="71.05814026666849" x2="632" y2="84.37431466666862" stroke="#ef5350" stroke-width="2"/><rect x="628" y="80.64578613333038" width="8" height="3.1958816000042134" fill="#ef5350"/><line x1="644" y1="68.92755199999851" x2="644" y2="93.96196053333063" stroke="#26a69a" stroke-width="2"/><rect x="640" y="69.99284640000042" width="8" height="14.914115200002243" fill="#26a69a"/><line x1="656" y1="58.80725973333631" x2="656" y2="75.8519632000025" stroke="#26a69a" stroke-width="2"/><rect x="652" y="63.601082133330465" width="8" height="7.457058133338023" fill="#26a69a"/><line x1="668" y1="32.174910400002204" x2="668" y2="65.1990234666664" stroke="#26a69a" stroke-width="2"/><rect x="664" y="34.83814506666624" width="8" height="29.29558453333209" fill="#26a69a"/><line x1="680" y1="28.446381333336262" x2="680" y2="40.69726186666833" stroke="#26a69a" stroke-width="2"/><rect x="676" y="33.240204266664136" width="8" height="2.663234666670178" fill="#26a69a"/><line x1="692" y1="25.783146133332252" x2="692" y2="38.566674133332185" stroke="#ef5350" stroke-width="2"/><rect x="688" y="34.83814506666624" width="8" height="2" fill="#ef5350"/><line x1="704" y1="14.064912533334223" x2="704" y2="34.83814506666624" stroke="#26a69a" stroke-width="2"/><rect x="700" y="17.793441600000165" width="8" height="17.04470346666608" fill="#26a69a"/><line x1="716" y1="16.728147733332094" x2="716" y2="27.38108746666819" stroke="#ef5350" stroke-width="2"/><rect x="712" y="19.924029333336307" width="8" height="3.462205333332008" fill="#ef5350"/><line x1="728" y1="26.315793066666288" x2="728" y2="55.61137759999838" stroke="#ef5350" stroke-width="2"/><rect x="724" y="26.315793066666288" width="8" height="22.903820800001995" fill="#ef5350"/><line x1="740" y1="45.49108480000234" x2="740" y2="76.3846101333304" stroke="#ef5350" stroke-width="2"/><rect x="736" y="49.21961386666828" width="8" height="15.446762666664085" fill="#ef5350"/><line x1="752" y1="33.240204266664136" x2="752" y2="63.06843520000257" stroke="#26a69a" stroke-width="2"/><rect x="748" y="43.893144000000234" width="8" height="19.175291200002334" fill="#26a69a"/><line x1="764" y1="30.04432213333223" x2="764" y2="46.556378666664386" stroke="#26a69a" stroke-width="2"/><rect x="760" y="38.566674133332185" width="8" height="6.9244106666701555" fill="#26a69a"/><line x1="776" y1="19.39138240000227" x2="776" y2="42.82785013333216" stroke="#26a69a" stroke-width="2"/><rect x="772" y="19.924029333336307" width="8" height="17.577350933327807" fill="#26a69a"/><line x1="788" y1="18.858735466668236" x2="788" y2="42.29520266666441" stroke="#ef5350" stroke-width="2"/><rect x="784" y="20.456676266664203" width="8" height="18.908968000002233" fill="#ef5350"/><line x1="800" y1="21.521970666666107" x2="800" y2="42.29520266666441" stroke="#26a69a" stroke-width="2"/><rect x="796" y="23.119911466668214" width="8" height="16.245732799998223" fill="#26a69a"/><line x1="812" y1="14.597559466668258" x2="812" y2="25.783146133332252" stroke="#26a69a" stroke-width="2"/><rect x="808" y="17.793441600000165" width="8" height="6.924410666664016" fill="#26a69a"/><line x1="824" y1="15.130206400002294" x2="824" y2="30.576969066666265" stroke="#ef5350" stroke-width="2"/><rect x="820" y="18.3260885333342" width="8" height="11.451910399997928" fill="#ef5350"/><line x1="836" y1="27.38108746666819" x2="836" y2="38.566674133332185" stroke="#ef5350" stroke-width="2"/><rect x="832" y="30.576969066666265" width="8" height="6.924411199997849" fill="#ef5350"/><line x1="848" y1="16.195500799998058" x2="848" y2="38.566674133332185" stroke="#26a69a" stroke-width="2"/><rect x="844" y="17.26079466666613" width="8" height="20.77323253333202" fill="#26a69a"/><line x1="860" y1="9.27108960000021" x2="860" y2="26.315793066666288" stroke="#ef5350" stroke-width="2"/><rect x="856" y="16.195500799998058" width="8" height="10.12029226666823" fill="#ef5350"/><line x1="872" y1="7.673148799998103" x2="872" y2="32.70755733333624" stroke="#ef5350" stroke-width="2"/><rect x="868" y="27.913734400002227" width="8" height="2" fill="#ef5350"/><line x1="884" y1="25.783146133332252" x2="884" y2="44.42579093333427" stroke="#ef5350" stroke-width="2"/><rect x="880" y="30.04432213333223" width="8" height="4.261175999999978" fill="#ef5350"/><line x1="896" y1="26.315793066666288" x2="896" y2="36.968732800002385" stroke="#26a69a" stroke-width="2"/><rect x="892" y="28.446381333336262" width="8" height="5.859116799995945" fill="#26a69a"/><line x1="908" y1="22.054617600000142" x2="908" y2="42.29520266666441" stroke="#ef5350" stroke-width="2"/><rect x="904" y="27.913734400002227" width="8" height="13.848821333328146" fill="#ef5350"/><line x1="920" y1="33.50652746666435" x2="920" y2="57.74196533333452" stroke="#ef5350" stroke-width="2"/><rect x="916" y="43.893144000000234" width="8" height="11.185586666664108" fill="#ef5350"/><line x1="932" y1="51.882848533332435" x2="932" y2="70.52549333333445" stroke="#ef5350" stroke-width="2"/><rect x="928" y="54.546083733330306" width="8" height="9.587645866668026" fill="#ef5350"/><line x1="944" y1="63.601082133330465" x2="944" y2="88.10284373333457" stroke="#ef5350" stroke-width="2"/><rect x="940" y="64.13372959999833" width="8" height="19.707938133336256" fill="#ef5350"/><line x1="956" y1="71.05814026666849" x2="956" y2="94.49460746666466" stroke="#ef5350" stroke-width="2"/><rect x="952" y="82.24372693333248" width="8" height="5.326469866668049" fill="#ef5350"/><line x1="968" y1="66.79696426666851" x2="968" y2="103.01695946666462" stroke="#ef5350" stroke-width="2"/><rect x="964" y="87.57019680000053" width="8" height="7.989704533332201" fill="#ef5350"/><line x1="980" y1="86.50490293333246" x2="980" y2="120.59430986666484" stroke="#ef5350" stroke-width="2"/><rect x="976" y="96.09254880000049" width="8" height="18.109997333334263" fill="#ef5350"/><line x1="992" y1="103.54960639999865" x2="992" y2="139.23695466666686" stroke="#ef5350" stroke-width="2"/><rect x="988" y="114.73519306666878" width="8" height="17.577350400000228" fill="#ef5350"/><line x1="1004" y1="121.65960373333291" x2="1004" y2="196.2301818666674" stroke="#ef5350" stroke-width="2"/><rect x="1000" y="132.84519039999702" width="8" height="46.34028800000419" fill="#ef5350"/><line x1="1016" y1="251.09282186666553" x2="1016" y2="316.60840106666615" stroke="#ef5350" stroke-width="2"/><rect x="1012" y="263.87634933333175" width="8" height="35.154701333334174" fill="#ef5350"/><line x1="1028" y1="272.3987013333317" x2="1028" y2="332.58781066666415" stroke="#26a69a" stroke-width="2"/><rect x="1024" y="300.096344533334" width="8" height="2" fill="#26a69a"/><line x1="1040" y1="294.2372277333319" x2="1040" y2="374.6669226666684" stroke="#ef5350" stroke-width="2"/><rect x="1036" y="302.2269322666641" width="8" height="47.40558186666618" fill="#ef5350"/><line x1="1052" y1="264.9416431999998" x2="1052" y2="352.8283962666682" stroke="#26a69a" stroke-width="2"/><rect x="1048" y="320.8695770666661" width="8" height="28.762937066664165" fill="#26a69a"/><line x1="1064" y1="292.10663946666807" x2="1064" y2="417.27868160000077" stroke="#ef5350" stroke-width="2"/><rect x="1060" y="321.40222400000016" width="8" height="93.74586933333063" fill="#ef5350"/><line x1="1076" y1="403.42985973333276" x2="1076" y2="475.337203199997" stroke="#ef5350" stroke-width="2"/><rect x="1072" y="414.6154464000029" width="8" height="56.46058079999415" fill="#ef5350"/><line x1="1088" y1="474.27190933333503" x2="1088" y2="598.9113039999999" stroke="#ef5350" stroke-width="2"/><rect x="1084" y="477.46779093333316" width="8" height="117.18233706666672" fill="#ef5350"/><line x1="1100" y1="521.6774906666676" x2="1100" y2="598.3786570666658" stroke="#26a69a" stroke-width="2"/><rect x="1096" y="563.7566026666657" width="8" height="32.4914661333363" fill="#26a69a"/><line x1="1112" y1="500.3716112000014" x2="1112" y2="589.856305066666" stroke="#ef5350" stroke-width="2"/><rect x="1108" y="562.1586618666636" width="8" height="23.969114666670066" fill="#ef5350"/><line x1="1124" y1="482.7942608000012" x2="1124" y2="609.564243733336" stroke="#26a69a" stroke-width="2"/><rect x="1120" y="502.5021994666652" width="8" height="81.49498879999868" fill="#26a69a"/><line x1="1136" y1="429.52956213333283" x2="1136" y2="504.1001402666673" stroke="#26a69a" stroke-width="2"/><rect x="1132" y="449.77014773333093" width="8" height="54.329992533336394" fill="#26a69a"/><line x1="1148" y1="431.6601504000028" x2="1148" y2="484.39220159999724" stroke="#ef5350" stroke-width="2"/><rect x="1144" y="449.77014773333093" width="8" height="31.95881920000221" fill="#ef5350"/><line x1="1160" y1="471.6086741333311" x2="1160" y2="569.6157200000016" stroke="#ef5350" stroke-width="2"/><rect x="1156" y="475.86985013333106" width="8" height="79.89704800000254" fill="#ef5350"/><line x1="1172" y1="556.2995450666676" x2="1172" y2="682.5368810666685" stroke="#ef5350" stroke-width="2"/><rect x="1168" y="557.8974858666636" width="8" height="108.39366186666678" fill="#ef5350"/><line x1="1184" y1="652.1760026666683" x2="1184" y2="720.3548170666667" stroke="#ef5350" stroke-width="2"/><rect x="1180" y="667.0901183999983" width="8" height="46.340287466670475" fill="#ef5350"/><line x1="1196" y1="663.8942362666664" x2="1196" y2="728.3445215999988" stroke="#26a69a" stroke-width="2"/><rect x="1192" y="696.6520261333304" width="8" height="16.24573280000436" fill="#26a69a"/><line x1="1208" y1="664.4268832000005" x2="1208" y2="742.7259904000008" stroke="#ef5350" stroke-width="2"/><rect x="1204" y="696.9183493333306" width="8" height="2" fill="#ef5350"/><line x1="1220" y1="671.8839413333324" x2="1220" y2="757.1074592000028" stroke="#ef5350" stroke-width="2"/><rect x="1216" y="696.9183493333306" width="8" height="45.27499413333612" fill="#ef5350"/><line x1="1232" y1="676.6777642666664" x2="1232" y2="746.4545194666667" stroke="#26a69a" stroke-width="2"/><rect x="1228" y="678.8083520000025" width="8" height="64.98293226666635" fill="#26a69a"/><line x1="1244" y1="654.3065903999984" x2="1244" y2="719.2895231999986" stroke="#ef5350" stroke-width="2"/><rect x="1240" y="678.8083520000025" width="8" height="26.09970240000007" fill="#ef5350"/><line x1="1256" y1="683.6021749333304" x2="1256" y2="734.2036384000008" stroke="#26a69a" stroke-width="2"/><rect x="1252" y="694.7877616000005" width="8" height="12.783527466666214" fill="#26a69a"/><line x1="1268" y1="666.2911477333304" x2="1268" y2="751.2483424000008" stroke="#ef5350" stroke-width="2"/><rect x="1264" y="694.7877616000005" width="8" height="32.491466133330164" fill="#ef5350"/><line x1="1280" y1="688.9286447999984" x2="1280" y2="760.303340800001" stroke="#ef5350" stroke-width="2"/><rect x="1276" y="725.1486400000007" width="8" height="22.903820266668163" fill="#ef5350"/><line x1="1292" y1="694.7877616000005" x2="1292" y2="774.152162666669" stroke="#26a69a" stroke-width="2"/><rect x="1288" y="701.7121722666647" width="8" height="47.40558186666624" fill="#26a69a"/><line x1="1304" y1="702.7774661333327" x2="1304" y2="748.0524602666688" stroke="#ef5350" stroke-width="2"/><rect x="1300" y="703.3101136000005" width="8" height="37.81793599999821" fill="#ef5350"/><line x1="1316" y1="741.6606965333327" x2="1316" y2="818.3618623999973" stroke="#ef5350" stroke-width="2"/><rect x="1312" y="742.7259904000008" width="8" height="59.65646239999842" fill="#ef5350"/><line x1="1328" y1="785.8703962666672" x2="1328" y2="843.3962709333355" stroke="#26a69a" stroke-width="2"/><rect x="1324" y="798.1212767999992" width="8" height="4.793822933334013" fill="#26a69a"/><line x1="1340" y1="801.3171589333311" x2="1340" y2="838.0698010666674" stroke="#ef5350" stroke-width="2"/><rect x="1336" y="801.3171589333311" width="8" height="27.69764320000229" fill="#ef5350"/><line x1="1352" y1="764.564516800001" x2="1352" y2="840.2003887999975" stroke="#26a69a" stroke-width="2"/><rect x="1348" y="778.945985599997" width="8" height="49.53616960000238" fill="#26a69a"/><line x1="1364" y1="782.6745141333353" x2="1364" y2="872.1592079999997" stroke="#ef5350" stroke-width="2"/><rect x="1360" y="782.6745141333353" width="8" height="63.917638399998395" fill="#ef5350"/><line x1="1376" y1="780.0112794666651" x2="1376" y2="846.5921525333337" stroke="#26a69a" stroke-width="2"/><rect x="1372" y="788.533631466665" width="8" height="58.05852106666862" fill="#26a69a"/><line x1="1388" y1="769.890986666669" x2="1388" y2="831.1453903999973" stroke="#26a69a" stroke-width="2"/><rect x="1384" y="773.8858389333351" width="8" height="15.180439466663984" fill="#26a69a"/><line x1="1400" y1="732.0730506666647" x2="1400" y2="801.3171589333311" stroke="#ef5350" stroke-width="2"/><rect x="1396" y="772.820545066667" width="8" height="25.83337866666625" fill="#ef5350"/><line x1="1412" y1="774.152162666669" x2="1412" y2="825.8189205333352" stroke="#26a69a" stroke-width="2"/><rect x="1408" y="794.9253952000012" width="8" height="7.457057599998052" fill="#26a69a"/><line x1="1424" y1="798.6539237333333" x2="1424" y2="853.5165637333315" stroke="#ef5350" stroke-width="2"/><rect x="1420" y="802.9150997333332" width="8" height="44.209700266668165" fill="#ef5350"/><line x1="1436" y1="812.5027456000013" x2="1436" y2="875.3550901333316" stroke="#26a69a" stroke-width="2"/><rect x="1432" y="815.6986277333332" width="8" height="33.55675999999835" fill="#26a69a"/><line x1="1448" y1="769.358339733335" x2="1448" y2="833.2759781333334" stroke="#26a69a" stroke-width="2"/><rect x="1444" y="811.4374517333332" width="8" height="7.457057599998166" fill="#26a69a"/><line x1="1460" y1="766.1624575999971" x2="1460" y2="810.3721578666651" stroke="#26a69a" stroke-width="2"/><rect x="1456" y="808.7742165333353" width="8" height="2" fill="#26a69a"/><line x1="1472" y1="745.389225066665" x2="1472" y2="812.5027456000013" stroke="#26a69a" stroke-width="2"/><rect x="1468" y="757.1074592000028" width="8" height="52.199404266666534" fill="#26a69a"/><line x1="1484" y1="705.4407013333306" x2="1484" y2="758.7053999999989" stroke="#26a69a" stroke-width="2"/><rect x="1480" y="719.2895231999986" width="8" height="39.41587680000032" fill="#26a69a"/><line x1="1496" y1="676.6777642666664" x2="1496" y2="718.7568757333307" stroke="#26a69a" stroke-width="2"/><rect x="1492" y="681.4715866666666" width="8" height="33.55676053333207" fill="#26a69a"/><line x1="1508" y1="671.3512943999983" x2="1508" y2="709.1692304000026" stroke="#ef5350" stroke-width="2"/><rect x="1504" y="679.3409989333304" width="8" height="15.979409600004146" fill="#ef5350"/><line x1="1520" y1="681.4715866666666" x2="1520" y2="758.7053999999989" stroke="#ef5350" stroke-width="2"/><rect x="1516" y="695.3204085333346" width="8" height="60.72175680000021" fill="#ef5350"/><line x1="1532" y1="752.8462832000029" x2="1532" y2="826.8842143999973" stroke="#ef5350" stroke-width="2"/><rect x="1528" y="756.0421653333348" width="8" height="67.37984373333052" fill="#ef5350"/><line x1="1544" y1="797.5886298666652" x2="1544" y2="839.1350949333355" stroke="#26a69a" stroke-width="2"/><rect x="1540" y="806.6436287999992" width="8" height="17.044703466666192" fill="#26a69a"/><line x1="1556" y1="787.4683370666693" x2="1556" y2="822.6230383999973" stroke="#26a69a" stroke-width="2"/><rect x="1552" y="803.4477466666673" width="8" height="6.391764266663813" fill="#26a69a"/><line x1="1568" y1="738.9974613333349" x2="1568" y2="808.2415696000013" stroke="#26a69a" stroke-width="2"/><rect x="1564" y="741.6606965333327" width="8" height="59.65646239999842" fill="#26a69a"/><line x1="1580" y1="694.7877616000005" x2="1580" y2="744.8565781333309" stroke="#26a69a" stroke-width="2"/><rect x="1576" y="714.4957002666646" width="8" height="28.762937066670247" fill="#26a69a"/><line x1="1592" y1="680.6726165333324" x2="1592" y2="716.0936410666667" stroke="#26a69a" stroke-width="2"/><rect x="1588" y="696.3857024000026" width="8" height="19.707938666664063" fill="#26a69a"/><line x1="1604" y1="653.2412965333364" x2="1604" y2="702.2448191999987" stroke="#26a69a" stroke-width="2"/><rect x="1600" y="668.1554122666664" width="8" height="27.16499626666814" fill="#26a69a"/><line x1="1616" y1="653.7739434666644" x2="1616" y2="678.8083520000025" stroke="#26a69a" stroke-width="2"/><rect x="1612" y="662.2962954666643" width="8" height="5.859116800002084" fill="#26a69a"/><line x1="1628" y1="659.6330602666665" x2="1628" y2="705.9733482666646" stroke="#ef5350" stroke-width="2"/><rect x="1624" y="661.2310016000023" width="8" height="13.848821333328146" fill="#ef5350"/><line x1="1640" y1="662.2962954666643" x2="1640" y2="692.6571738666644" stroke="#26a69a" stroke-width="2"/><rect x="1636" y="669.7533530666685" width="8" height="2.663235199997871" fill="#26a69a"/><line x1="1652" y1="670.2860000000026" x2="1652" y2="733.6709914666668" stroke="#ef5350" stroke-width="2"/><rect x="1648" y="672.4165882666664" width="8" height="33.556759999998235" fill="#ef5350"/><line x1="1664" y1="658.5677663999984" x2="1664" y2="717.1589349333348" stroke="#26a69a" stroke-width="2"/><rect x="1660" y="660.1657072000005" width="8" height="46.8729349333322" fill="#26a69a"/><line x1="1676" y1="602.6398330666658" x2="1676" y2="662.8289423999984" stroke="#26a69a" stroke-width="2"/><rect x="1672" y="648.9801205333364" width="8" height="11.185586666664108" fill="#26a69a"/><line x1="1688" y1="614.358066666664" x2="1688" y2="648.4474736000024" stroke="#26a69a" stroke-width="2"/><rect x="1684" y="621.2824773333341" width="8" height="27.164996266668254" fill="#26a69a"/><line x1="1700" y1="615.423360533332" x2="1700" y2="662.8289423999984" stroke="#ef5350" stroke-width="2"/><rect x="1696" y="620.217183466666" width="8" height="17.577350400000228" fill="#ef5350"/><line x1="1712" y1="620.217183466666" x2="1712" y2="650.0454149333322" stroke="#26a69a" stroke-width="2"/><rect x="1708" y="625.0110064" width="8" height="13.848821333334286" fill="#26a69a"/><line x1="1724" y1="567.4851317333316" x2="1724" y2="623.945712533332" stroke="#26a69a" stroke-width="2"/><rect x="1720" y="574.4095424000018" width="8" height="49.53617013333019" fill="#26a69a"/><line x1="1736" y1="573.3442485333337" x2="1736" y2="600.509244800002" stroke="#ef5350" stroke-width="2"/><rect x="1732" y="577.0727775999997" width="8" height="8.52235146666635" fill="#ef5350"/><line x1="1748" y1="565.3545440000016" x2="1748" y2="590.921598933334" stroke="#ef5350" stroke-width="2"/><rect x="1744" y="585.595129066666" width="8" height="3.4622058666657267" fill="#ef5350"/><line x1="1760" y1="589.856305066666" x2="1760" y2="649.5127674666643" stroke="#ef5350" stroke-width="2"/><rect x="1756" y="589.856305066666" width="8" height="20.240585599997985" fill="#ef5350"/><line x1="1772" y1="607.4336559999998" x2="1772" y2="658.5677663999984" stroke="#ef5350" stroke-width="2"/><rect x="1768" y="610.629537599998" width="8" height="30.36087840000016" fill="#ef5350"/><line x1="1784" y1="627.1415941333362" x2="1784" y2="671.3512943999983" stroke="#ef5350" stroke-width="2"/><rect x="1780" y="639.9251221333361" width="8" height="2.130587733330117" fill="#ef5350"/><line x1="1796" y1="582.9318944000017" x2="1796" y2="648.4474736000024" stroke="#26a69a" stroke-width="2"/><rect x="1792" y="610.629537599998" width="8" height="32.22514293333609" fill="#26a69a"/><line x1="1808" y1="598.9113039999999" x2="1808" y2="641.5230629333322" stroke="#ef5350" stroke-width="2"/><rect x="1804" y="611.6948314666661" width="8" height="7.98970506666592" fill="#ef5350"/><line x1="1820" y1="601.574538666664" x2="1820" y2="632.4680639999982" stroke="#26a69a" stroke-width="2"/><rect x="1816" y="617.5539482666682" width="8" height="2.1305882666638354" fill="#26a69a"/><line x1="1832" y1="597.3133631999978" x2="1832" y2="638.3271808000003" stroke="#ef5350" stroke-width="2"/><rect x="1828" y="614.890713599998" width="8" height="11.718233600004169" fill="#ef5350"/><line x1="1844" y1="616.4886544000001" x2="1844" y2="667.0901183999983" stroke="#ef5350" stroke-width="2"/><rect x="1840" y="625.0110064" width="8" height="2" fill="#ef5350"/><line x1="1856" y1="618.0865957333359" x2="1856" y2="644.1862976000024" stroke="#26a69a" stroke-width="2"/><rect x="1852" y="622.3477712000022" width="8" height="3.1958821333319065" fill="#26a69a"/><line x1="1868" y1="611.6948314666661" x2="1868" y2="679.8736458666644" stroke="#ef5350" stroke-width="2"/><rect x="1864" y="622.8804181333362" width="8" height="53.2646986666623" fill="#ef5350"/><line x1="1880" y1="655.9045317333342" x2="1880" y2="720.3548170666667" stroke="#26a69a" stroke-width="2"/><rect x="1876" y="663.3615893333324" width="8" height="9.587645866668026" fill="#26a69a"/><line x1="1892" y1="653.2412965333364" x2="1892" y2="707.0386421333327" stroke="#ef5350" stroke-width="2"/><rect x="1888" y="663.3615893333324" width="8" height="43.14440586666626" fill="#ef5350"/><line x1="1904" y1="690.5265856000005" x2="1904" y2="741.6606965333327" stroke="#ef5350" stroke-width="2"/><rect x="1900" y="707.0386421333327" width="8" height="33.024113066670225" fill="#ef5350"/><line x1="1916" y1="728.3445215999988" x2="1916" y2="796.5233359999971" stroke="#ef5350" stroke-width="2"/><rect x="1912" y="738.9974613333349" width="8" height="57.525874666662276" fill="#ef5350"/><line x1="1928" y1="759.770693866667" x2="1928" y2="817.2965685333353" stroke="#ef5350" stroke-width="2"/><rect x="1924" y="794.9253952000012" width="8" height="19.175291199996195" fill="#ef5350"/><line x1="1940" y1="788.0009839999972" x2="1940" y2="841.2656826666656" stroke="#26a69a" stroke-width="2"/><rect x="1936" y="802.3824527999992" width="8" height="11.718233599998143" fill="#26a69a"/><rect x="75" y="963.2431410521147" width="10" height="56.75685894788535" fill="#ef5350" opacity="0.9"/><rect x="87" y="975.3682429038631" width="10" height="44.63175709613688" fill="#26a69a" opacity="0.9"/><rect x="99" y="988.9024567199831" width="10" height="31.097543280016907" fill="#ef5350" opacity="0.9"/><rect x="111" y="977.532662320992" width="10" height="42.46733767900798" fill="#26a69a" opacity="0.9"/><rect x="123" y="982.9979155272293" width="10" height="37.00208447277066" fill="#26a69a" opacity="0.9"/><rect x="135" y="990.7056512372894" width="10" height="29.29434876271057" fill="#26a69a" opacity="0.9"/><rect x="147" y="960.7532843700818" width="10" height="59.246715629918185" fill="#ef5350" opacity="0.9"/><rect x="159" y="986.0888370483642" width="10" height="33.91116295163579" fill="#26a69a" opacity="0.9"/><rect x="171" y="992.4280619705104" width="10" height="27.571938029489615" fill="#ef5350" opacity="0.9"/><rect x="183" y="996.3021257715619" width="10" height="23.69787422843808" fill="#26a69a" opacity="0.9"/><rect x="195" y="990.0769608554431" width="10" height="29.923039144556924" fill="#26a69a" opacity="0.9"/><rect x="207" y="1000.736653235258" width="10" height="19.263346764741982" fill="#26a69a" opacity="0.9"/><rect x="219" y="1001.5344454242055" width="10" height="18.4655545757945" fill="#26a69a" opacity="0.9"/><rect x="231" y="1001.4990763581163" width="10" height="18.500923641883674" fill="#26a69a" opacity="0.9"/><rect x="243" y="990.762367313681" width="10" height="29.23763268631899" fill="#ef5350" opacity="0.9"/><rect x="255" y="995.9584807625766" width="10" height="24.04151923742336" fill="#ef5350" opacity="0.9"/><rect x="267" y="996.7573193735977" width="10" height="23.24268062640226" fill="#26a69a" opacity="0.9"/><rect x="279" y="991.1328007277517" width="10" height="28.867199272248286" fill="#26a69a" opacity="0.9"/><rect x="291" y="996.7319959594156" width="10" height="23.2680040405844" fill="#ef5350" opacity="0.9"/><rect x="303" y="1001.2985818888058" width="10" height="18.701418111194243" fill="#26a69a" opacity="0.9"/><rect x="315" y="997.4820713018049" width="10" height="22.517928698195078" fill="#ef5350" opacity="0.9"/><rect x="327" y="995.6165100289091" width="10" height="24.383489971090853" fill="#ef5350" opacity="0.9"/><rect x="339" y="997.5161846614058" width="10" height="22.48381533859424" fill="#26a69a" opacity="0.9"/><rect x="351" y="986.234289716601" width="10" height="33.76571028339902" fill="#26a69a" opacity="0.9"/><rect x="363" y="1003.5961061937024" width="10" height="16.40389380629756" fill="#26a69a" opacity="0.9"/><rect x="375" y="1001.6780145327098" width="10" height="18.321985467290233" fill="#ef5350" opacity="0.9"/><rect x="387" y="997.063083903517" width="10" height="22.936916096482946" fill="#26a69a" opacity="0.9"/><rect x="399" y="998.788633902959" width="10" height="21.211366097041036" fill="#26a69a" opacity="0.9"/><rect x="411" y="1002.017055284571" width="10" height="17.98294471542897" fill="#26a69a" opacity="0.9"/><rect x="423" y="997.4209602527039" width="10" height="22.579039747296065" fill="#ef5350" opacity="0.9"/><rect x="435" y="1004.1718476186225" width="10" height="15.82815238137755" fill="#ef5350" opacity="0.9"/><rect x="447" y="1006.6035232333605" width="10" height="13.396476766639466" fill="#ef5350" opacity="0.9"/><rect x="459" y="1005.3233304684622" width="10" height="14.676669531537755" fill="#26a69a" opacity="0.9"/><rect x="471" y="1008.0840011831546" width="10" height="11.915998816845445" fill="#26a69a" opacity="0.9"/><rect x="483" y="1004.1297814512618" width="10" height="15.870218548738194" fill="#26a69a" opacity="0.9"/><rect x="495" y="998.4255254434039" width="10" height="21.5744745565961" fill="#26a69a" opacity="0.9"/><rect x="507" y="1000.4394693663426" width="10" height="19.560530633657436" fill="#26a69a" opacity="0.9"/><rect x="519" y="998.5496311013383" width="10" height="21.450368898661736" fill="#26a69a" opacity="0.9"/><rect x="531" y="1000.7201197664943" width="10" height="19.27988023350565" fill="#26a69a" opacity="0.9"/><rect x="543" y="1003.418005156768" width="10" height="16.581994843231996" fill="#ef5350" opacity="0.9"/><rect x="555" y="1005.1282773939347" width="10" height="14.871722606065305" fill="#ef5350" opacity="0.9"/><rect x="567" y="1004.9466185219497" width="10" height="15.053381478050255" fill="#26a69a" opacity="0.9"/><rect x="579" y="1003.2497404873258" width="10" height="16.750259512674234" fill="#26a69a" opacity="0.9"/><rect x="591" y="1006.0261075331227" width="10" height="13.97389246687726" fill="#ef5350" opacity="0.9"/><rect x="603" y="1005.7094602136375" width="10" height="14.290539786362501" fill="#26a69a" opacity="0.9"/><rect x="615" y="1000.4267030170441" width="10" height="19.573296982955867" fill="#26a69a" opacity="0.9"/><rect x="627" y="1004.1000630643703" width="10" height="15.89993693562974" fill="#ef5350" opacity="0.9"/><rect x="639" y="1002.4728767398511" width="10" height="17.52712326014887" fill="#26a69a" opacity="0.9"/><rect x="651" y="1004.0519276489827" width="10" height="15.948072351017345" fill="#26a69a" opacity="0.9"/><rect x="663" y="1000.9438448058398" width="10" height="19.05615519416017" fill="#26a69a" opacity="0.9"/><rect x="675" y="1005.2747764842451" width="10" height="14.72522351575492" fill="#26a69a" opacity="0.9"/><rect x="687" y="1004.2898840285296" width="10" height="15.710115971470373" fill="#ef5350" opacity="0.9"/><rect x="699" y="1001.8456513489078" width="10" height="18.154348651092164" fill="#26a69a" opacity="0.9"/><rect x="711" y="1005.7354114810639" width="10" height="14.26458851893608" fill="#ef5350" opacity="0.9"/><rect x="723" y="996.9538374390285" width="10" height="23.04616256097154" fill="#ef5350" opacity="0.9"/><rect x="735" y="1000.6573344420757" width="10" height="19.342665557924306" fill="#ef5350" opacity="0.9"/><rect x="747" y="993.3685861303032" width="10" height="26.631413869696758" fill="#26a69a" opacity="0.9"/><rect x="759" y="1000.701912022413" width="10" height="19.298087977586988" fill="#26a69a" opacity="0.9"/><rect x="771" y="1004.9307129064304" width="10" height="15.069287093569642" fill="#26a69a" opacity="0.9"/><rect x="783" y="999.300962150216" width="10" height="20.699037849783963" fill="#ef5350" opacity="0.9"/><rect x="795" y="1005.2622194193614" width="10" height="14.737780580638628" fill="#26a69a" opacity="0.9"/><rect x="807" y="1004.8273264055541" width="10" height="15.172673594445882" fill="#26a69a" opacity="0.9"/><rect x="819" y="1004.5548380975767" width="10" height="15.445161902423251" fill="#ef5350" opacity="0.9"/><rect x="831" y="1005.2446395285241" width="10" height="14.75536047147591" fill="#ef5350" opacity="0.9"/><rect x="843" y="997.4797691732429" width="10" height="22.520230826757142" fill="#26a69a" opacity="0.9"/><rect x="855" y="995.7100601622931" width="10" height="24.289939837706925" fill="#ef5350" opacity="0.9"/><rect x="867" y="1001.1031102454488" width="10" height="18.89688975455124" fill="#ef5350" opacity="0.9"/><rect x="879" y="998.8424199975444" width="10" height="21.157580002455575" fill="#ef5350" opacity="0.9"/><rect x="891" y="1003.2239985043141" width="10" height="16.776001495685932" fill="#26a69a" opacity="0.9"/><rect x="903" y="999.8568215557366" width="10" height="20.143178444263413" fill="#ef5350" opacity="0.9"/><rect x="915" y="1001.9666177406212" width="10" height="18.033382259378754" fill="#ef5350" opacity="0.9"/><rect x="927" y="998.1038552979652" width="10" height="21.896144702034803" fill="#ef5350" opacity="0.9"/><rect x="939" y="995.9176703017044" width="10" height="24.082329698295553" fill="#ef5350" opacity="0.9"/><rect x="951" y="996.0913763659296" width="10" height="23.90862363407041" fill="#ef5350" opacity="0.9"/><rect x="963" y="986.5262414751481" width="10" height="33.47375852485186" fill="#ef5350" opacity="0.9"/><rect x="975" y="983.6190716701454" width="10" height="36.380928329854555" fill="#ef5350" opacity="0.9"/><rect x="987" y="985.9408729671508" width="10" height="34.05912703284923" fill="#ef5350" opacity="0.9"/><rect x="999" y="956.7831590226697" width="10" height="63.21684097733032" fill="#ef5350" opacity="0.9"/><rect x="1011" y="970.3705310801308" width="10" height="49.62946891986917" fill="#ef5350" opacity="0.9"/><rect x="1023" y="977.5226166690851" width="10" height="42.477383330914904" fill="#26a69a" opacity="0.9"/><rect x="1035" y="974.982741011932" width="10" height="45.017258988067965" fill="#ef5350" opacity="0.9"/><rect x="1047" y="994.9656354991015" width="10" height="25.034364500898505" fill="#26a69a" opacity="0.9"/><rect x="1059" y="982.3016262794254" width="10" height="37.69837372057464" fill="#ef5350" opacity="0.9"/><rect x="1071" y="979.1372459287205" width="10" height="40.86275407127948" fill="#ef5350" opacity="0.9"/><rect x="1083" y="965.4722293533948" width="10" height="54.52777064660518" fill="#ef5350" opacity="0.9"/><rect x="1095" y="981.8995909187307" width="10" height="38.10040908126928" fill="#26a69a" opacity="0.9"/><rect x="1107" y="994.0301341652621" width="10" height="25.969865834737902" fill="#ef5350" opacity="0.9"/><rect x="1119" y="992.1446908729672" width="10" height="27.855309127032797" fill="#26a69a" opacity="0.9"/><rect x="1131" y="997.6645673114486" width="10" height="22.33543268855135" fill="#26a69a" opacity="0.9"/><rect x="1143" y="1002.8004068489022" width="10" height="17.199593151097815" fill="#ef5350" opacity="0.9"/><rect x="1155" y="998.9269709010949" width="10" height="21.073029098905067" fill="#ef5350" opacity="0.9"/><rect x="1167" y="984.0610803540534" width="10" height="35.93891964594661" fill="#ef5350" opacity="0.9"/><rect x="1179" y="988.4296832271099" width="10" height="31.570316772890124" fill="#ef5350" opacity="0.9"/><rect x="1191" y="990.8586381444564" width="10" height="29.14136185554355" fill="#26a69a" opacity="0.9"/><rect x="1203" y="991.6034813764776" width="10" height="28.39651862352241" fill="#ef5350" opacity="0.9"/><rect x="1215" y="988.4832600372805" width="10" height="31.516739962719498" fill="#ef5350" opacity="0.9"/><rect x="1227" y="995.7033630610217" width="10" height="24.29663693897828" fill="#26a69a" opacity="0.9"/><rect x="1239" y="997.7011920840263" width="10" height="22.298807915973725" fill="#ef5350" opacity="0.9"/><rect x="1251" y="997.4159374267505" width="10" height="22.584062573249525" fill="#26a69a" opacity="0.9"/><rect x="1263" y="995.813655947584" width="10" height="24.18634405241596" fill="#ef5350" opacity="0.9"/><rect x="1275" y="996.2123427576431" width="10" height="23.787657242356886" fill="#ef5350" opacity="0.9"/><rect x="1287" y="995.8140745164135" width="10" height="24.185925483586516" fill="#26a69a" opacity="0.9"/><rect x="1299" y="999.0291016954828" width="10" height="20.970898304517164" fill="#ef5350" opacity="0.9"/><rect x="1311" y="984.8672439195901" width="10" height="35.13275608040988" fill="#ef5350" opacity="0.9"/><rect x="1323" y="983.8540980678863" width="10" height="36.1459019321137" fill="#26a69a" opacity="0.9"/><rect x="1335" y="997.1616568628546" width="10" height="22.838343137145444" fill="#ef5350" opacity="0.9"/><rect x="1347" y="986.866328649083" width="10" height="33.133671350916984" fill="#26a69a" opacity="0.9"/><rect x="1359" y="977.0297518723979" width="10" height="42.970248127602076" fill="#ef5350" opacity="0.9"/><rect x="1371" y="997.8694567534685" width="10" height="22.130543246531488" fill="#26a69a" opacity="0.9"/><rect x="1383" y="997.5911084818788" width="10" height="22.40889151812121" fill="#26a69a" opacity="0.9"/><rect x="1395" y="997.6591259166657" width="10" height="22.340874083334256" fill="#ef5350" opacity="0.9"/><rect x="1407" y="1001.911994508377" width="10" height="18.088005491622994" fill="#26a69a" opacity="0.9"/><rect x="1419" y="1002.2409896083312" width="10" height="17.759010391668767" fill="#ef5350" opacity="0.9"/><rect x="1431" y="999.5094094272862" width="10" height="20.490590572713813" fill="#26a69a" opacity="0.9"/><rect x="1443" y="998.9049960375485" width="10" height="21.09500396245153" fill="#26a69a" opacity="0.9"/><rect x="1455" y="1003.9567032402808" width="10" height="16.04329675971917" fill="#26a69a" opacity="0.9"/><rect x="1467" y="1001.9601299237646" width="10" height="18.03987007623539" fill="#26a69a" opacity="0.9"/><rect x="1479" y="1000.9442633746693" width="10" height="19.055736625330724" fill="#26a69a" opacity="0.9"/><rect x="1491" y="1004.2649791831769" width="10" height="15.735020816823067" fill="#26a69a" opacity="0.9"/><rect x="1503" y="1003.8914065028854" width="10" height="16.10859349711461" fill="#ef5350" opacity="0.9"/><rect x="1515" y="1000.6642408277618" width="10" height="19.335759172238227" fill="#ef5350" opacity="0.9"/><rect x="1527" y="1000.9610061278477" width="10" height="19.038993872152332" fill="#ef5350" opacity="0.9"/><rect x="1539" y="1004.9778018997443" width="10" height="15.02219810025565" fill="#26a69a" opacity="0.9"/><rect x="1551" y="1005.2504994921364" width="10" height="14.749500507863559" fill="#26a69a" opacity="0.9"/><rect x="1563" y="1003.9531454052304" width="10" height="16.04685459476957" fill="#26a69a" opacity="0.9"/><rect x="1575" y="1003.8905693652264" width="10" height="16.109430634773616" fill="#26a69a" opacity="0.9"/><rect x="1587" y="1003.2890859572948" width="10" height="16.710914042705213" fill="#26a69a" opacity="0.9"/><rect x="1599" y="1004.2944882856536" width="10" height="15.705511714346358" fill="#26a69a" opacity="0.9"/><rect x="1611" y="1004.1239214876495" width="10" height="15.876078512350546" fill="#26a69a" opacity="0.9"/><rect x="1623" y="998.6253920594703" width="10" height="21.3746079405297" fill="#ef5350" opacity="0.9"/><rect x="1635" y="1004.7438219240772" width="10" height="15.256178075922776" fill="#26a69a" opacity="0.9"/><rect x="1647" y="1003.2792495898026" width="10" height="16.72075041019741" fill="#ef5350" opacity="0.9"/><rect x="1659" y="994.0883152325569" width="10" height="25.91168476744315" fill="#26a69a" opacity="0.9"/><rect x="1671" y="997.6905185788751" width="10" height="22.30948142112493" fill="#26a69a" opacity="0.9"/><rect x="1683" y="1003.5427386679465" width="10" height="16.457261332053463" fill="#26a69a" opacity="0.9"/><rect x="1695" y="1001.1688255516738" width="10" height="18.831174448326237" fill="#ef5350" opacity="0.9"/><rect x="1707" y="1003.5898276612606" width="10" height="16.410172338739358" fill="#26a69a" opacity="0.9"/><rect x="1719" y="999.5684276322398" width="10" height="20.431572367760168" fill="#26a69a" opacity="0.9"/><rect x="1731" y="1003.1674917123372" width="10" height="16.83250828766279" fill="#ef5350" opacity="0.9"/><rect x="1743" y="1004.6282969271467" width="10" height="15.371703072853279" fill="#ef5350" opacity="0.9"/><rect x="1755" y="998.5517239454856" width="10" height="21.448276054514395" fill="#ef5350" opacity="0.9"/><rect x="1767" y="1004.9009945195388" width="10" height="15.099005480461187" fill="#ef5350" opacity="0.9"/><rect x="1779" y="1003.6603565090244" width="10" height="16.339643490975618" fill="#ef5350" opacity="0.9"/><rect x="1791" y="1000.8810594814212" width="10" height="19.118940518578825" fill="#26a69a" opacity="0.9"/><rect x="1803" y="1002.9902278130616" width="10" height="17.00977218693845" fill="#ef5350" opacity="0.9"/><rect x="1815" y="1006.2004414505922" width="10" height="13.799558549407834" fill="#26a69a" opacity="0.9"/><rect x="1827" y="1004.91166802469" width="10" height="15.088331975309984" fill="#ef5350" opacity="0.9"/><rect x="1839" y="1002.0976297842417" width="10" height="17.90237021575831" fill="#ef5350" opacity="0.9"/><rect x="1851" y="1004.4242446227857" width="10" height="15.57575537721425" fill="#26a69a" opacity="0.9"/><rect x="1863" y="1001.4833800270117" width="10" height="18.516619972988337" fill="#ef5350" opacity="0.9"/><rect x="1875" y="985.0639712694356" width="10" height="34.93602873056443" fill="#26a69a" opacity="0.9"/><rect x="1887" y="1002.5306392383163" width="10" height="17.469360761683674" fill="#ef5350" opacity="0.9"/><rect x="1899" y="994.4980941165966" width="10" height="25.501905883403424" fill="#ef5350" opacity="0.9"/><rect x="1911" y="987.8811487761047" width="10" height="32.11885122389526" fill="#ef5350" opacity="0.9"/><rect x="1923" y="979.6003923385161" width="10" height="40.399607661483856" fill="#ef5350" opacity="0.9"/><rect x="1935" y="860.0" width="10" height="160.0" fill="#26a69a" opacity="0.9"/><rect x="1004" y="179.18547840000122" width="12" height="84.69087093333053" fill="#ff0000" opacity="0.50"/><polyline points="320,283.9913824799987,332,282.7351327200024,344,276.8807953561918,356,267.8808491825839,368,259.1800296159878,380,251.86587065573497,392,242.20460119645702,404,231.99233238409454,416,222.24537775703232,428,214.5934550500109,440,209.09067886112098,452,205.17727056323565,464,199.96253444610068,476,194.63570046075495,488,189.81618399782747,500,183.42653772501455,512,175.8699392115219,524,167.10534192788452,536,158.26235906491388,548,151.88487018889032,560,146.11476120582063,572,140.9956429703501,584,135.80604868110947,596,131.7701691495738,608,127.20554996707506,620,122.61910185592569,632,118.92601289187348,644,114.2657113212166,656,109.44050854141699,668,102.33552154382176,680,95.75501513647396,692,90.05486502188432,704,83.17282469599377,716,77.47886374081645,728,74.78750660994285,740,73.82358945978922,752,70.97307084456895,764,67.88674734826293,776,63.318869442076334,788,61.037609901559335,800,57.42640052680747,812,53.6518330099716,824,51.378134526482086,836,50.0565388826908,848,46.93313467164137,860,44.96957832830958,872,43.4973970779962,884,42.62197813088892,896,41.27192129302182,908,41.31864838257877,920,42.62913240963826,932,44.6771892849149,944,48.40713961333677,956,52.13695458349923,968,56.27247332158129,980,61.789623113175594,992,68.50609171826966,1004,79.04698568795845,1016,99.99784901926739,1028,119.0548485920408,1040,141.01462626264038,1052,158.14366919636086,1064,182.62028101892906,1076,210.09225684569776,1088,246.7168160032512,1100,276.91108139976984,1112,306.3602904601066,1124,325.0404722702539,1136,336.9194889810266,1148,350.71086783362864,1160,370.24001357645824,1172,398.43535968663974,1184,428.4348878942607,1196,453.9793772503617,1208,477.1671504900102,1220,502.40774029731256,1232,519.2077985547137,1244,536.8935372066455,1256,551.9310823869697,1268,568.630905753289,1280,585.7186728498043,1292,596.7656727942691,1304,610.5144705852884,1316,628.7876117485939,1328,644.9146274677757,1340,662.4479774359255,1352,673.543025832502,1364,690.0238950421044,1376,699.4057747015904,1388,706.4991141522296,1400,715.2757626837653,1412,722.8614419710235,1424,734.6960474975882,1436,742.4105789486081,1448,748.9845668328659,1460,754.6788191852951,1472,754.9101182343171,1484,751.5176806120022,1496,744.8466240457795,1508,740.1298416160231,1520,741.6453010176701,1532,749.4335589270971,1544,754.8821370102269,1556,759.5074331679825,1568,757.8077439646828,1580,753.6827874220156,1592,748.2259221818216,1604,740.6001593327588,1616,733.1426484883681,1628,727.6128555783604,1640,722.102426767724,1652,720.5663240533371,1664,714.813884353019,1676,708.5440020844786,1688,700.2333806796074,1700,694.2868238402843,1712,687.6891269412105,1724,676.9005950801389,1736,668.2048364121874,1748,660.6669791284912,1760,655.8507802273622,1772,654.4355074438014,1784,653.2564791031231,1796,649.1967703885408,1808,646.3860814499458,1820,643.6401640039245,1832,642.0181433559264,1844,640.5506008648808,1856,638.8169980396499,1868,642.3720569692038,1880,644.3710600515018,1892,650.2886729227914,1904,658.8385855206192,1916,671.9514188996072,1928,685.4894443758349,1940,696.6221118448022" fill="none" stroke="#0090ff" stroke-width="2"/><line x1="80" y1="50" x2="80" y2="850" stroke="#666666" stroke-width="0.5" stroke-dasharray="4,4"/><line x1="152" y1="50" x2="152" y2="850" stroke="#666666" stroke-width="0.5" stroke-dasharray="4,4"/><line x1="224" y1="50" x2="224" y2="850" stroke="#666666" stroke-width="0.5" stroke-dasharray="4,4"/><line x1="296" y1="50" x2="296" y2="850" stroke="#666666" stroke-width="0.5" stroke-dasharray="4,4"/><line x1="368" y1="50" x2="368" y2="850" stroke="#666666" stroke-width="0.5" stroke-dasharray="4,4"/><line x1="440" y1="50" x2="440" y2="850" stroke="#666666" stroke-width="0.5" stroke-dasharray="4,4"/><line x1="512" y1="50" x2="512" y2="850" stroke="#666666" stroke-width="0.5" stroke-dasharray="4,4"/><line x1="584" y1="50" x2="584" y2="850" stroke="#666666" stroke-width="0.5" stroke-dasharray="4,4"/><line x1="656" y1="50" x2="656" y2="850" stroke="#666666" stroke-width="0.5" stroke-dasharray="4,4"/><line x1="728" y1="50" x2="728" y2="850" stroke="#666666" stroke-width="0.5" stroke-dasharray="4,4"/><line x1="800" y1="50" x2="800" y2="850" stroke="#666666" stroke-width="0.5" stroke-dasharray="4,4"/><line x1="872" y1="50" x2="872" y2="850" stroke="#666666" stroke-width="0.5" stroke-dasharray="4,4"/><line x1="944" y1="50" x2="944" y2="850" stroke="#666666" stroke-width="0.5" stroke-dasharray="4,4"/><line x1="1016" y1="50" x2="1016" y2="850" stroke="#666666" stroke-width="0.5" stroke-dasharray="4,4"/><line x1="1088" y1="50" x2="1088" y2="850" stroke="#666666" stroke-width="0.5" stroke-dasharray="4,4"/><line x1="1160" y1="50" x2="1160" y2="850" stroke="#666666" stroke-width="0.5" stroke-dasharray="4,4"/><line x1="1232" y1="50" x2="1232" y2="850" stroke="#666666" stroke-width="0.5" stroke-dasharray="4,4"/><line x1="1304" y1="50" x2="1304" y2="850" stroke="#666666" stroke-width="0.5" stroke-dasharray="4,4"/><line x1="1376" y1="50" x2="1376" y2="850" stroke="#666666" stroke-width="0.5" stroke-dasharray="4,4"/><line x1="1448" y1="50" x2="1448" y2="850" stroke="#666666" stroke-width="0.5" stroke-dasharray="4,4"/><line x1="1520" y1="50" x2="1520" y2="850" stroke="#666666" stroke-width="0.5" stroke-dasharray="4,4"/><line x1="1592" y1="50" x2="1592" y2="850" stroke="#666666" stroke-width="0.5" stroke-dasharray="4,4"/><line x1="1664" y1="50" x2="1664" y2="850" stroke="#666666" stroke-width="0.5" stroke-dasharray="4,4"/><line x1="1736" y1="50" x2="1736" y2="850" stroke="#666666" stroke-width="0.5" stroke-dasharray="4,4"/><line x1="1808" y1="50" x2="1808" y2="850" stroke="#666666" stroke-width="0.5" stroke-dasharray="4,4"/><line x1="1880" y1="50" x2="1880" y2="850" stroke="#666666" stroke-width="0.5" stroke-dasharray="4,4"/><text x="80" y="1040" text-anchor="middle" font-size="20" fill="black">09:30</text><text x="152" y="1040" text-anchor="middle" font-size="20" fill="black">10:00</text><text x="224" y="1040" text-anchor="middle" font-size="20" fill="black">10:30</text><text x="296" y="1040" text-anchor="middle" font-size="20" fill="black">11:00</text><text x="368" y="1040" text-anchor="middle" font-size="20" fill="black">11:30</text><text x="440" y="1040" text-anchor="middle" font-size="20" fill="black">12:00</text><text x="512" y="1040" text-anchor="middle" font-size="20" fill="black">12:30</text><text x="584" y="1040" text-anchor="middle" font-size="20" fill="black">13:00</text><text x="656" y="1040" text-anchor="middle" font-size="20" fill="black">13:30</text><text x="728" y="1040" text-anchor="middle" font-size="20" fill="black">14:00</text><text x="800" y="1040" text-anchor="middle" font-size="20" fill="black">14:30</text><text x="872" y="1040" text-anchor="middle" font-size="20" fill="black">15:00</text><text x="944" y="1040" text-anchor="middle" font-size="20" fill="black">15:30</text><text x="1016" y="1040" text-anchor="middle" font-size="20" fill="black">09:30</text><text x="1088" y="1040" text-anchor="middle" font-size="20" fill="black">10:00</text><text x="1160" y="1040" text-anchor="middle" font-size="20" fill="black">10:30</text><text x="1232" y="1040" text-anchor="middle" font-size="20" fill="black">11:00</text><text x="1304" y="1040" text-anchor="middle" font-size="20" fill="black">11:30</text><text x="1376" y="1040" text-anchor="middle" font-size="20" fill="black">12:00</text><text x="1448" y="1040" text-anchor="middle" font-size="20" fill="black">12:30</text><text x="1520" y="1040" text-anchor="middle" font-size="20" fill="black">13:00</text><text x="1592" y="1040" text-anchor="middle" font-size="20" fill="black">13:30</text><text x="1664" y="1040" text-anchor="middle" font-size="20" fill="black">14:00</text><text x="1736" y="1040" text-anchor="middle" font-size="20" fill="black">14:30</text><text x="1808" y="1040" text-anchor="middle" font-size="20" fill="black">15:00</text><text x="1880" y="1040" text-anchor="middle" font-size="20" fill="black">15:30</text><text x="1942" y="50" text-anchor="end" font-size="40" fill="#ef5350" font-weight="bold"> -1.63% (Thu)</text></svg>