<svg xmlns="http://www.w3.org/2000/svg" width="1992" height="1050"><rect width="100%" height="100%" fill="white"/><text x="42" y="854.0" text-anchor="end" font-size="20" fill="black">564</text><text x="42" y="720.6666666666667" text-anchor="end" font-size="20" fill="black">565</text><text x="42" y="587.3333333333334" text-anchor="end" font-size="20" fill="black">566</text><text x="42" y="454.0" text-anchor="end" font-size="20" fill="black">567</text><text x="42" y="320.66666666666674" text-anchor="end" font-size="20" fill="black">568</text><text x="42" y="187.33333333333326" text-anchor="end" font-size="20" fill="black">569</text><text x="42" y="54.0" text-anchor="end" font-size="20" fill="black">570</text><line x1="80" y1="5.58390800000177" x2="80" y2="142.58170133333192" stroke="#26a69a" stroke-width="2"/><rect x="76" y="20.214739999998187" width="8" height="111.72635600000842" fill="#26a69a"/><line x1="92" y1="-44.95896800000685" x2="92" y2="37.50572399999328" stroke="#26a69a" stroke-width="2"/><rect x="88" y="-25.007831999998075" width="8" height="41.23234533332527" fill="#26a69a"/><line x1="104" y1="-32.988286666659405" x2="104" y2="74.74784266666279" stroke="#ef5350" stroke-width="2"/><rect x="100" y="-26.337908000004973" width="8" height="78.4744640000099" fill="#ef5350"/><line x1="116" y1="42.160987999992926" x2="116" y2="199.77495466666073" stroke="#ef5350" stroke-width="2"/><rect x="112" y="52.13655600000493" width="8" height="99.0906373333321" fill="#ef5350"/><line x1="128" y1="148.56704133333847" x2="128" y2="262.2885120000017" stroke="#ef5350" stroke-width="2"/><rect x="124" y="155.88245866667125" width="8" height="3.9902266666558717" fill="#ef5350"/><line x1="140" y1="139.92155066666783" x2="140" y2="223.71631733334038" stroke="#26a69a" stroke-width="2"/><rect x="136" y="149.2320800000016" width="8" height="16.09391599999981" fill="#26a69a"/><line x1="152" y1="139.92155066666783" x2="152" y2="255.638133333332" stroke="#ef5350" stroke-width="2"/><rect x="148" y="158.54260933333535" width="8" height="69.29694266665751" fill="#ef5350"/><line x1="164" y1="197.1148039999964" x2="164" y2="271.59904133333544" stroke="#26a69a" stroke-width="2"/><rect x="160" y="211.74563599999306" width="8" height="13.300757333339106" fill="#26a69a"/><line x1="176" y1="166.52306399999657" x2="176" y2="230.36669599999482" stroke="#26a69a" stroke-width="2"/><rect x="172" y="209.08548533332873" width="8" height="5.32030266667789" fill="#26a69a"/><line x1="188" y1="190.46442533332697" x2="188" y2="256.9682093333388" stroke="#ef5350" stroke-width="2"/><rect x="184" y="213.07571199999984" width="8" height="11.970681333332323" fill="#ef5350"/><line x1="200" y1="210.54856799999766" x2="200" y2="268.9388893333369" stroke="#ef5350" stroke-width="2"/><rect x="196" y="222.3862413333336" width="8" height="12.103689333328703" fill="#ef5350"/><line x1="212" y1="229.16962799999965" x2="212" y2="312.8313866666606" stroke="#ef5350" stroke-width="2"/><rect x="208" y="234.4899306666623" width="8" height="17.024968000002218" fill="#ef5350"/><line x1="224" y1="222.3862413333336" x2="224" y2="272.929117333327" stroke="#ef5350" stroke-width="2"/><rect x="220" y="247.6576786666708" width="8" height="6.6503786666694396" fill="#ef5350"/><line x1="236" y1="222.3862413333336" x2="236" y2="263.618586666674" stroke="#26a69a" stroke-width="2"/><rect x="232" y="233.6918840000028" width="8" height="16.62594666666655" fill="#26a69a"/><line x1="248" y1="195.78472800000486" x2="248" y2="275.5892680000063" stroke="#ef5350" stroke-width="2"/><rect x="244" y="237.01707333333002" width="8" height="26.601513333343973" fill="#ef5350"/><line x1="260" y1="222.3862413333336" x2="260" y2="280.9095706666692" stroke="#ef5350" stroke-width="2"/><rect x="256" y="266.27873866667255" width="8" height="4.655263999999761" fill="#ef5350"/><line x1="272" y1="261.0914440000063" x2="272" y2="392.6359266666623" stroke="#ef5350" stroke-width="2"/><rect x="268" y="272.929117333327" width="8" height="79.13950133333861" fill="#ef5350"/><line x1="284" y1="326.1321439999999" x2="284" y2="385.98554799999266" stroke="#26a69a" stroke-width="2"/><rect x="280" y="351.40358133333694" width="8" height="2" fill="#26a69a"/><line x1="296" y1="307.51108399999794" x2="296" y2="385.98554799999266" stroke="#ef5350" stroke-width="2"/><rect x="292" y="355.3938079999928" width="8" height="17.290984000010212" fill="#ef5350"/><line x1="308" y1="372.68479200000303" x2="308" y2="419.23744000000625" stroke="#ef5350" stroke-width="2"/><rect x="304" y="375.4779506666637" width="8" height="22.478278666676488" fill="#ef5350"/><line x1="320" y1="340.76297599999634" x2="320" y2="409.9269106666725" stroke="#ef5350" stroke-width="2"/><rect x="316" y="397.95622933334016" width="8" height="10.640605333325482" fill="#ef5350"/><line x1="332" y1="403.2765320000029" x2="332" y2="465.7900879999943" stroke="#ef5350" stroke-width="2"/><rect x="328" y="407.2667586666739" width="8" height="49.2127999999866" fill="#ef5350"/><line x1="344" y1="417.9073639999994" x2="344" y2="485.74122400000306" stroke="#ef5350" stroke-width="2"/><rect x="340" y="453.8194079999963" width="8" height="26.601513333343973" fill="#ef5350"/><line x1="356" y1="471.1103906666722" x2="356" y2="578.8465199999943" stroke="#ef5350" stroke-width="2"/><rect x="352" y="480.4209213333403" width="8" height="79.80453999998645" fill="#ef5350"/><line x1="368" y1="469.78031599999974" x2="368" y2="594.8074279999977" stroke="#26a69a" stroke-width="2"/><rect x="364" y="488.40137466666727" width="8" height="77.14438933333736" fill="#26a69a"/><line x1="380" y1="492.39160133333826" x2="380" y2="545.5946279999959" stroke="#ef5350" stroke-width="2"/><rect x="376" y="492.39160133333826" width="8" height="53.20302666665759" fill="#ef5350"/><line x1="392" y1="533.623947999998" x2="392" y2="644.0202279999994" stroke="#ef5350" stroke-width="2"/><rect x="388" y="548.2547799999944" width="8" height="30.591739999999845" fill="#ef5350"/><line x1="404" y1="429.8780453333317" x2="404" y2="569.5359906666605" stroke="#26a69a" stroke-width="2"/><rect x="400" y="451.15925599999775" width="8" height="118.37673466666274" fill="#26a69a"/><line x1="416" y1="405.93668400000143" x2="416" y2="464.460013333337" stroke="#26a69a" stroke-width="2"/><rect x="412" y="411.2569866666642" width="8" height="43.892496000004655" fill="#26a69a"/><line x1="428" y1="384.65547333333535" x2="428" y2="495.0517533333368" stroke="#ef5350" stroke-width="2"/><rect x="424" y="407.2667586666739" width="8" height="23.941362666664645" fill="#ef5350"/><line x1="440" y1="408.59683466666564" x2="440" y2="464.460013333337" stroke="#26a69a" stroke-width="2"/><rect x="436" y="436.5284240000013" width="8" height="2.660150666664208" fill="#26a69a"/><line x1="452" y1="432.5381973333303" x2="452" y2="495.0517533333368" stroke="#ef5350" stroke-width="2"/><rect x="448" y="437.858499999993" width="8" height="41.232345333340504" fill="#ef5350"/><line x1="464" y1="460.4697853333315" x2="464" y2="509.68258533333335" stroke="#ef5350" stroke-width="2"/><rect x="460" y="476.43069333333494" width="8" height="21.281210666666084" fill="#ef5350"/><line x1="476" y1="465.7900879999943" x2="476" y2="530.9637959999994" stroke="#26a69a" stroke-width="2"/><rect x="472" y="483.0810720000045" width="8" height="17.290983999995092" fill="#26a69a"/><line x1="488" y1="479.0908453333335" x2="488" y2="534.9540226666704" stroke="#ef5350" stroke-width="2"/><rect x="484" y="484.41114799999616" width="8" height="45.222571999996376" fill="#ef5350"/><line x1="500" y1="507.02243466666914" x2="500" y2="554.9051586666641" stroke="#26a69a" stroke-width="2"/><rect x="496" y="516.3329640000029" width="8" height="14.63083199999653" fill="#26a69a"/><line x1="512" y1="492.39160133333826" x2="512" y2="546.9247040000027" stroke="#ef5350" stroke-width="2"/><rect x="508" y="525.6434933333367" width="8" height="20.0841426666708" fill="#ef5350"/><line x1="524" y1="526.9735693333283" x2="524" y2="609.4382599999941" stroke="#ef5350" stroke-width="2"/><rect x="520" y="545.5946279999959" width="8" height="49.87783733333049" fill="#ef5350"/><line x1="536" y1="513.6728120000043" x2="536" y2="600.1277306666603" stroke="#26a69a" stroke-width="2"/><rect x="532" y="513.6728120000043" width="8" height="81.13461599999334" fill="#26a69a"/><line x1="548" y1="497.711904000001" x2="548" y2="548.387788000006" stroke="#26a69a" stroke-width="2"/><rect x="544" y="516.3329640000029" width="8" height="2.793158666660588" fill="#26a69a"/><line x1="560" y1="489.73145066667405" x2="560" y2="516.3329640000029" stroke="#26a69a" stroke-width="2"/><rect x="556" y="500.3720559999996" width="8" height="9.310529333333761" fill="#26a69a"/><line x1="572" y1="424.55774266666896" x2="572" y2="496.3818293333285" stroke="#26a69a" stroke-width="2"/><rect x="568" y="424.55774266666896" width="8" height="71.82408666665953" fill="#26a69a"/><line x1="584" y1="383.3253973333285" x2="584" y2="448.4991053333336" stroke="#26a69a" stroke-width="2"/><rect x="580" y="411.2569866666642" width="8" height="22.611285333338515" fill="#26a69a"/><line x1="596" y1="401.94645599999603" x2="596" y2="438.52353733333683" stroke="#ef5350" stroke-width="2"/><rect x="592" y="412.72006933333313" width="8" height="14.49782533333439" fill="#ef5350"/><line x1="608" y1="397.95622933334016" x2="608" y2="424.55774266666896" stroke="#26a69a" stroke-width="2"/><rect x="604" y="407.2667586666739" width="8" height="17.290983999995035" fill="#26a69a"/><line x1="620" y1="383.3253973333285" x2="620" y2="409.9269106666725" stroke="#26a69a" stroke-width="2"/><rect x="616" y="404.6066079999946" width="8" height="3.990226666671049" fill="#26a69a"/><line x1="632" y1="403.2765320000029" x2="632" y2="433.8682720000027" stroke="#ef5350" stroke-width="2"/><rect x="628" y="406.0696906666635" width="8" height="9.177522666671678" fill="#ef5350"/><line x1="644" y1="370.02464000000447" x2="644" y2="436.5284240000013" stroke="#ef5350" stroke-width="2"/><rect x="640" y="415.3802213333317" width="8" height="11.17263466667282" fill="#ef5350"/><line x1="656" y1="403.2765320000029" x2="656" y2="439.1885746666655" stroke="#ef5350" stroke-width="2"/><rect x="652" y="423.2276666666621" width="8" height="9.310530666668171" fill="#ef5350"/><line x1="668" y1="433.8682720000027" x2="668" y2="521.6532666666657" stroke="#ef5350" stroke-width="2"/><rect x="664" y="437.858499999993" width="8" height="42.56242133334729" fill="#ef5350"/><line x1="680" y1="473.77054266667074" x2="680" y2="557.5653093333282" stroke="#ef5350" stroke-width="2"/><rect x="676" y="483.0810720000045" width="8" height="43.89249733332383" fill="#ef5350"/><line x1="692" y1="501.7021320000064" x2="692" y2="555.5701959999927" stroke="#ef5350" stroke-width="2"/><rect x="688" y="524.3134173333298" width="8" height="22.61128666667298" fill="#ef5350"/><line x1="704" y1="507.02243466666914" x2="704" y2="569.5359906666605" stroke="#26a69a" stroke-width="2"/><rect x="700" y="509.81559333332973" width="8" height="43.75948933334257" fill="#26a69a"/><line x1="716" y1="459.1397106666742" x2="716" y2="517.6630399999946" stroke="#26a69a" stroke-width="2"/><rect x="712" y="472.44046666666384" width="8" height="43.892497333339065" fill="#26a69a"/><line x1="728" y1="441.183688000001" x2="728" y2="489.73145066667405" stroke="#26a69a" stroke-width="2"/><rect x="724" y="443.1788026666709" width="8" height="31.92181599999151" fill="#26a69a"/><line x1="740" y1="441.84872666666405" x2="740" y2="487.7363373333386" stroke="#ef5350" stroke-width="2"/><rect x="736" y="443.1788026666709" width="8" height="42.56242133333217" fill="#ef5350"/><line x1="752" y1="471.1103906666722" x2="752" y2="501.7021320000064" stroke="#26a69a" stroke-width="2"/><rect x="748" y="472.44046666666384" width="8" height="14.63083199999653" fill="#26a69a"/><line x1="764" y1="455.14948266666886" x2="764" y2="488.40137466666727" stroke="#26a69a" stroke-width="2"/><rect x="760" y="469.78031599999974" width="8" height="6.6503773333352" fill="#26a69a"/><line x1="776" y1="469.78031599999974" x2="776" y2="542.9344773333318" stroke="#ef5350" stroke-width="2"/><rect x="772" y="469.78031599999974" width="8" height="50.54287466667415" fill="#ef5350"/><line x1="788" y1="513.6728120000043" x2="788" y2="545.5946279999959" stroke="#26a69a" stroke-width="2"/><rect x="784" y="520.3231906666739" width="8" height="2" fill="#26a69a"/><line x1="800" y1="468.45023999999285" x2="800" y2="519.1261226666635" stroke="#26a69a" stroke-width="2"/><rect x="796" y="473.77054266667074" width="8" height="45.355579999992756" fill="#26a69a"/><line x1="812" y1="448.4991053333336" x2="812" y2="488.40137466666727" stroke="#26a69a" stroke-width="2"/><rect x="808" y="451.15925599999775" width="8" height="25.27143733333719" fill="#26a69a"/><line x1="824" y1="427.2178946666675" x2="824" y2="480.4209213333403" stroke="#ef5350" stroke-width="2"/><rect x="820" y="451.15925599999775" width="8" height="21.281210666666084" fill="#ef5350"/><line x1="836" y1="455.28249066666524" x2="836" y2="500.3720559999996" stroke="#ef5350" stroke-width="2"/><rect x="832" y="469.78031599999974" width="8" height="19.951134666674307" fill="#ef5350"/><line x1="848" y1="472.44046666666384" x2="848" y2="513.6728120000043" stroke="#ef5350" stroke-width="2"/><rect x="844" y="490.3964880000027" width="8" height="5.985341333325778" fill="#ef5350"/><line x1="860" y1="493.7216773333299" x2="860" y2="529.6337199999925" stroke="#ef5350" stroke-width="2"/><rect x="856" y="495.0517533333368" width="8" height="19.951134666659186" fill="#ef5350"/><line x1="872" y1="503.0322066666637" x2="872" y2="522.9833426666725" stroke="#26a69a" stroke-width="2"/><rect x="868" y="509.68258533333335" width="8" height="6.650378666669553" fill="#26a69a"/><line x1="884" y1="491.19453333332785" x2="884" y2="517.6630399999946" stroke="#ef5350" stroke-width="2"/><rect x="880" y="505.69235866666224" width="8" height="3.3251893333424505" fill="#ef5350"/><line x1="896" y1="499.0419799999927" x2="896" y2="540.2743253333332" stroke="#26a69a" stroke-width="2"/><rect x="892" y="501.7021320000064" width="8" height="7.980453333326977" fill="#26a69a"/><line x1="908" y1="497.711904000001" x2="908" y2="534.9540226666704" stroke="#ef5350" stroke-width="2"/><rect x="904" y="501.03709333332824" width="8" height="23.276324000001523" fill="#ef5350"/><line x1="920" y1="511.01266133334013" x2="920" y2="557.5653093333282" stroke="#ef5350" stroke-width="2"/><rect x="916" y="525.6434933333367" width="8" height="14.63083199999653" fill="#ef5350"/><line x1="932" y1="541.60440133334" x2="932" y2="582.8367466666654" stroke="#ef5350" stroke-width="2"/><rect x="928" y="541.60440133334" width="8" height="39.90227066665284" fill="#ef5350"/><line x1="944" y1="561.5555359999993" x2="944" y2="596.1375040000045" stroke="#ef5350" stroke-width="2"/><rect x="940" y="580.1765960000012" width="8" height="15.295869333325186" fill="#ef5350"/><line x1="956" y1="592.8123146666621" x2="956" y2="694.6961106666702" stroke="#ef5350" stroke-width="2"/><rect x="952" y="595.4724653333263" width="8" height="88.45003200000667" fill="#ef5350"/><line x1="968" y1="608.1081853333368" x2="968" y2="686.5826493333316" stroke="#26a69a" stroke-width="2"/><rect x="964" y="609.4382599999941" width="8" height="77.14438933333747" fill="#26a69a"/><line x1="980" y1="585.4968986666639" x2="980" y2="617.4187146666706" stroke="#26a69a" stroke-width="2"/><rect x="976" y="593.4773520000059" width="8" height="17.290983999995092" fill="#26a69a"/><line x1="992" y1="566.8758386666619" x2="992" y2="622.7390173333333" stroke="#26a69a" stroke-width="2"/><rect x="988" y="586.8269746666707" width="8" height="6.6503773333352" fill="#26a69a"/><line x1="1004" y1="583.5017853333284" x2="1004" y2="658.6510599999958" stroke="#26a69a" stroke-width="2"/><rect x="1000" y="592.1472773333335" width="8" height="5.320302666662769" fill="#26a69a"/><line x1="1016" y1="465.7900879999943" x2="1016" y2="598.7976546666687" stroke="#ef5350" stroke-width="2"/><rect x="1012" y="477.7607693333266" width="8" height="9.310529333333761" fill="#ef5350"/><line x1="1028" y1="415.2472133333352" x2="1028" y2="493.7216773333299" stroke="#26a69a" stroke-width="2"/><rect x="1024" y="461.7998613333384" width="8" height="19.951134666659186" fill="#26a69a"/><line x1="1040" y1="411.2569866666642" x2="1040" y2="495.0517533333368" stroke="#26a69a" stroke-width="2"/><rect x="1036" y="415.11420533333876" width="8" height="49.345807999998215" fill="#26a69a"/><line x1="1052" y1="354.06373200000115" x2="1052" y2="488.40137466666727" stroke="#ef5350" stroke-width="2"/><rect x="1048" y="417.9073639999994" width="8" height="54.53310266666443" fill="#ef5350"/><line x1="1064" y1="464.460013333337" x2="1064" y2="521.6532666666657" stroke="#ef5350" stroke-width="2"/><rect x="1060" y="467.1201640000012" width="8" height="31.92181599999151" fill="#ef5350"/><line x1="1076" y1="471.1103906666722" x2="1076" y2="533.623947999998" stroke="#26a69a" stroke-width="2"/><rect x="1072" y="498.37694266666404" width="8" height="3.990226666670992" fill="#26a69a"/><line x1="1088" y1="488.40137466666727" x2="1088" y2="542.9344773333318" stroke="#ef5350" stroke-width="2"/><rect x="1084" y="503.0322066666637" width="8" height="11.970681333332323" fill="#ef5350"/><line x1="1100" y1="443.1788026666709" x2="1100" y2="525.6434933333367" stroke="#26a69a" stroke-width="2"/><rect x="1096" y="497.711904000001" width="8" height="14.630833333330884" fill="#26a69a"/><line x1="1112" y1="485.74122400000306" x2="1112" y2="541.60440133334" stroke="#ef5350" stroke-width="2"/><rect x="1108" y="500.3720559999996" width="8" height="3.990226666670992" fill="#ef5350"/><line x1="1124" y1="443.1788026666709" x2="1124" y2="508.35250933332645" stroke="#26a69a" stroke-width="2"/><rect x="1120" y="460.4697853333315" width="8" height="46.55264933333763" fill="#26a69a"/><line x1="1136" y1="368.69456533333204" x2="1136" y2="472.44046666666384" stroke="#26a69a" stroke-width="2"/><rect x="1132" y="388.6457000000064" width="8" height="65.17370799998992" fill="#26a69a"/><line x1="1148" y1="384.65547333333535" x2="1148" y2="432.5381973333303" stroke="#ef5350" stroke-width="2"/><rect x="1144" y="388.6457000000064" width="8" height="38.57219466666112" fill="#ef5350"/><line x1="1160" y1="348.7434293333384" x2="1160" y2="417.9073639999994" stroke="#26a69a" stroke-width="2"/><rect x="1156" y="389.9757759999981" width="8" height="27.931588000001284" fill="#26a69a"/><line x1="1172" y1="362.0441866666624" x2="1172" y2="409.9269106666725" stroke="#ef5350" stroke-width="2"/><rect x="1168" y="388.6457000000064" width="8" height="9.310529333333761" fill="#ef5350"/><line x1="1184" y1="356.7238839999997" x2="1184" y2="397.95622933334016" stroke="#26a69a" stroke-width="2"/><rect x="1180" y="380.0002080000013" width="8" height="13.965794666667819" fill="#26a69a"/><line x1="1196" y1="356.5908760000032" x2="1196" y2="385.98554799999266" stroke="#ef5350" stroke-width="2"/><rect x="1192" y="377.34005600000273" width="8" height="7.3154173333326185" fill="#ef5350"/><line x1="1208" y1="322.14191599999435" x2="1208" y2="388.6457000000064" stroke="#26a69a" stroke-width="2"/><rect x="1204" y="333.447559999998" width="8" height="51.20791333333733" fill="#26a69a"/><line x1="1220" y1="308.8411600000047" x2="1220" y2="397.95622933334016" stroke="#ef5350" stroke-width="2"/><rect x="1216" y="335.4426733333337" width="8" height="53.20302666667271" fill="#ef5350"/><line x1="1232" y1="359.38403466666387" x2="1232" y2="422.56262933333346" stroke="#ef5350" stroke-width="2"/><rect x="1228" y="391.30585066667055" width="8" height="23.941362666664645" fill="#ef5350"/><line x1="1244" y1="396.6261533333333" x2="1244" y2="432.5381973333303" stroke="#ef5350" stroke-width="2"/><rect x="1240" y="409.9269106666725" width="8" height="10.640605333325482" fill="#ef5350"/><line x1="1256" y1="412.58706133333664" x2="1256" y2="512.3427373333319" stroke="#ef5350" stroke-width="2"/><rect x="1252" y="412.58706133333664" width="8" height="81.13461599999329" fill="#ef5350"/><line x1="1268" y1="455.14948266666886" x2="1268" y2="517.6630399999946" stroke="#26a69a" stroke-width="2"/><rect x="1264" y="477.7607693333266" width="8" height="17.290984000010212" fill="#26a69a"/><line x1="1280" y1="425.8878186666607" x2="1280" y2="492.39160133333826" stroke="#26a69a" stroke-width="2"/><rect x="1276" y="431.20812133333857" width="8" height="51.87295066666593" fill="#26a69a"/><line x1="1292" y1="420.56751599999797" x2="1292" y2="487.07129866666037" stroke="#ef5350" stroke-width="2"/><rect x="1288" y="432.5381973333303" width="8" height="46.55264800000322" fill="#ef5350"/><line x1="1304" y1="461.7998613333384" x2="1304" y2="513.6728120000043" stroke="#ef5350" stroke-width="2"/><rect x="1300" y="479.0908453333335" width="8" height="23.94136133333018" fill="#ef5350"/><line x1="1316" y1="460.4697853333315" x2="1316" y2="500.3720559999996" stroke="#26a69a" stroke-width="2"/><rect x="1312" y="473.77054266667074" width="8" height="25.271437333321956" fill="#26a69a"/><line x1="1328" y1="420.56751599999797" x2="1328" y2="473.77054266667074" stroke="#26a69a" stroke-width="2"/><rect x="1324" y="425.8878186666607" width="8" height="47.88272400001006" fill="#26a69a"/><line x1="1340" y1="423.2276666666621" x2="1340" y2="449.8291800000061" stroke="#26a69a" stroke-width="2"/><rect x="1336" y="423.2276666666621" width="8" height="3.990228000005402" fill="#26a69a"/><line x1="1352" y1="397.95622933334016" x2="1352" y2="435.19834799999444" stroke="#26a69a" stroke-width="2"/><rect x="1348" y="397.95622933334016" width="8" height="29.261665333327358" fill="#26a69a"/><line x1="1364" y1="340.76297599999634" x2="1364" y2="401.81344933333395" stroke="#26a69a" stroke-width="2"/><rect x="1360" y="344.7532026666674" width="8" height="53.070018666661156" fill="#26a69a"/><line x1="1376" y1="342.0930520000032" x2="1376" y2="383.3253973333285" stroke="#ef5350" stroke-width="2"/><rect x="1372" y="343.4231266666605" width="8" height="15.960908000003371" fill="#ef5350"/><line x1="1388" y1="358.05396000000655" x2="1388" y2="378.0050946666658" stroke="#26a69a" stroke-width="2"/><rect x="1384" y="363.37426266666927" width="8" height="2" fill="#26a69a"/><line x1="1400" y1="334.1125973333267" x2="1400" y2="376.6750186666741" stroke="#26a69a" stroke-width="2"/><rect x="1396" y="344.7532026666674" width="8" height="14.630831999996474" fill="#26a69a"/><line x1="1412" y1="296.8704786666724" x2="1412" y2="346.08327866667423" stroke="#26a69a" stroke-width="2"/><rect x="1408" y="319.48176533333026" width="8" height="23.27632400000158" fill="#26a69a"/><line x1="1424" y1="288.8900253333304" x2="1424" y2="318.1516893333385" stroke="#26a69a" stroke-width="2"/><rect x="1420" y="302.1907813333353" width="8" height="15.9609080000032" fill="#26a69a"/><line x1="1436" y1="306.18100800000616" x2="1436" y2="332.7825213333351" stroke="#ef5350" stroke-width="2"/><rect x="1432" y="307.51108399999794" width="8" height="14.630831999996417" fill="#ef5350"/><line x1="1448" y1="303.52085733332683" x2="1448" y2="338.1028239999978" stroke="#ef5350" stroke-width="2"/><rect x="1444" y="319.48176533333026" width="8" height="10.640605333340545" fill="#ef5350"/><line x1="1460" y1="326.1321439999999" x2="1460" y2="358.05396000000655" stroke="#ef5350" stroke-width="2"/><rect x="1456" y="328.792294666664" width="8" height="22.611286666672925" fill="#ef5350"/><line x1="1472" y1="339.4329000000046" x2="1472" y2="376.6750186666741" stroke="#ef5350" stroke-width="2"/><rect x="1468" y="351.40358133333694" width="8" height="6.65037866666961" fill="#ef5350"/><line x1="1484" y1="338.1028239999978" x2="1484" y2="362.0441866666624" stroke="#26a69a" stroke-width="2"/><rect x="1480" y="343.4231266666605" width="8" height="12.635718666676155" fill="#26a69a"/><line x1="1496" y1="322.14191599999435" x2="1496" y2="344.7532026666674" stroke="#26a69a" stroke-width="2"/><rect x="1492" y="338.1028239999978" width="8" height="6.65037866666961" fill="#26a69a"/><line x1="1508" y1="325.9991360000033" x2="1508" y2="361.911178666666" stroke="#26a69a" stroke-width="2"/><rect x="1504" y="328.792294666664" width="8" height="9.310529333333761" fill="#26a69a"/><line x1="1520" y1="308.1761213333266" x2="1520" y2="332.7825213333351" stroke="#26a69a" stroke-width="2"/><rect x="1516" y="314.82649999999626" width="8" height="12.635718666675984" fill="#26a69a"/><line x1="1532" y1="310.1712359999965" x2="1532" y2="348.7434293333384" stroke="#ef5350" stroke-width="2"/><rect x="1528" y="316.15657600000304" width="8" height="27.26655066665745" fill="#ef5350"/><line x1="1544" y1="322.00890933333244" x2="1544" y2="354.06373200000115" stroke="#26a69a" stroke-width="2"/><rect x="1540" y="332.7825213333351" width="8" height="10.640605333325368" fill="#26a69a"/><line x1="1556" y1="319.48176533333026" x2="1556" y2="339.4329000000046" stroke="#26a69a" stroke-width="2"/><rect x="1552" y="330.1223706666708" width="8" height="3.9902266666558717" fill="#26a69a"/><line x1="1568" y1="322.14191599999435" x2="1568" y2="355.3938079999928" stroke="#ef5350" stroke-width="2"/><rect x="1564" y="327.46221866667224" width="8" height="26.60151333332891" fill="#ef5350"/><line x1="1580" y1="340.0979373333333" x2="1580" y2="358.05396000000655" stroke="#ef5350" stroke-width="2"/><rect x="1576" y="352.73365733332867" width="8" height="2" fill="#ef5350"/><line x1="1592" y1="323.47199200000136" x2="1592" y2="360.7141106666707" stroke="#26a69a" stroke-width="2"/><rect x="1588" y="323.47199200000136" width="8" height="30.458733333337705" fill="#26a69a"/><line x1="1604" y1="302.1907813333353" x2="1604" y2="339.4329000000046" stroke="#26a69a" stroke-width="2"/><rect x="1600" y="302.1907813333353" width="8" height="25.271437333336962" fill="#26a69a"/><line x1="1616" y1="275.5892680000063" x2="1616" y2="298.2005546666642" stroke="#26a69a" stroke-width="2"/><rect x="1612" y="284.8997973333401" width="8" height="13.3007573333241" fill="#26a69a"/><line x1="1628" y1="283.56972266666776" x2="1628" y2="330.1223706666708" stroke="#ef5350" stroke-width="2"/><rect x="1624" y="283.56972266666776" width="8" height="43.892496000004485" fill="#ef5350"/><line x1="1640" y1="308.8411600000047" x2="1640" y2="354.06373200000115" stroke="#26a69a" stroke-width="2"/><rect x="1636" y="316.8216133333317" width="8" height="10.640605333340545" fill="#26a69a"/><line x1="1652" y1="288.8900253333304" x2="1652" y2="320.81184133333704" stroke="#26a69a" stroke-width="2"/><rect x="1648" y="306.18100800000616" width="8" height="6.650378666654433" fill="#26a69a"/><line x1="1664" y1="250.31783066666935" x2="1664" y2="395.29607866666083" stroke="#ef5350" stroke-width="2"/><rect x="1660" y="306.18100800000616" width="8" height="35.912043999997024" fill="#ef5350"/><line x1="1676" y1="287.55994933333864" x2="1676" y2="346.08327866667423" stroke="#26a69a" stroke-width="2"/><rect x="1672" y="298.2005546666642" width="8" height="42.56242133333217" fill="#26a69a"/><line x1="1688" y1="259.6283600000031" x2="1688" y2="316.8216133333317" stroke="#ef5350" stroke-width="2"/><rect x="1684" y="295.5404026666656" width="8" height="10.640605333340545" fill="#ef5350"/><line x1="1700" y1="291.5501759999945" x2="1700" y2="331.4524466666626" stroke="#ef5350" stroke-width="2"/><rect x="1696" y="307.51108399999794" width="8" height="13.965794666667762" fill="#ef5350"/><line x1="1712" y1="285.5648360000032" x2="1712" y2="331.4524466666626" stroke="#26a69a" stroke-width="2"/><rect x="1708" y="300.86070533332827" width="8" height="25.271438666671656" fill="#26a69a"/><line x1="1724" y1="252.97798133333345" x2="1724" y2="306.18100800000616" stroke="#26a69a" stroke-width="2"/><rect x="1720" y="262.2885120000017" width="8" height="34.58196666667072" fill="#26a69a"/><line x1="1736" y1="190.46442533332697" x2="1736" y2="275.5892680000063" stroke="#26a69a" stroke-width="2"/><rect x="1732" y="214.40578800000662" width="8" height="47.88272399999505" fill="#26a69a"/><line x1="1748" y1="151.89223066666568" x2="1748" y2="338.1028239999978" stroke="#ef5350" stroke-width="2"/><rect x="1744" y="209.08548533332873" width="8" height="95.76544800000511" fill="#ef5350"/><line x1="1760" y1="250.31783066666935" x2="1760" y2="391.30585066667055" stroke="#26a69a" stroke-width="2"/><rect x="1756" y="282.23964666666075" width="8" height="27.93158933333575" fill="#26a69a"/><line x1="1772" y1="237.01707333333002" x2="1772" y2="395.29607866666083" stroke="#ef5350" stroke-width="2"/><rect x="1768" y="279.5794946666622" width="8" height="86.45491866667129" fill="#ef5350"/><line x1="1784" y1="374.01486799999475" x2="1784" y2="504.3622826666706" stroke="#ef5350" stroke-width="2"/><rect x="1780" y="374.01486799999475" width="8" height="110.39628000000141" fill="#ef5350"/><line x1="1796" y1="441.84872666666405" x2="1796" y2="757.0766599999994" stroke="#ef5350" stroke-width="2"/><rect x="1792" y="489.73145066667405" width="8" height="231.30015866666633" fill="#ef5350"/><line x1="1808" y1="683.922497333333" x2="1808" y2="891.4143013333311" stroke="#ef5350" stroke-width="2"/><rect x="1804" y="726.4849186666652" width="8" height="81.13461600000846" fill="#ef5350"/><line x1="1820" y1="691.9029519999942" x2="1820" y2="890.0842266666738" stroke="#26a69a" stroke-width="2"/><rect x="1816" y="717.1743893333314" width="8" height="91.77522133333389" fill="#26a69a"/><line x1="1832" y1="538.9442506666607" x2="1832" y2="774.3676426666601" stroke="#26a69a" stroke-width="2"/><rect x="1828" y="632.0495466666671" width="8" height="79.80454000000168" fill="#26a69a"/><line x1="1844" y1="584.1668226666721" x2="1844" y2="711.8540866666688" stroke="#ef5350" stroke-width="2"/><rect x="1840" y="621.4089413333264" width="8" height="58.52332933333548" fill="#ef5350"/><line x1="1856" y1="618.6157826666658" x2="1856" y2="804.9593839999943" stroke="#ef5350" stroke-width="2"/><rect x="1852" y="695.8931786666653" width="8" height="90.44514533334223" fill="#ef5350"/><line x1="1868" y1="737.1255240000058" x2="1868" y2="823.5804426666618" stroke="#26a69a" stroke-width="2"/><rect x="1864" y="774.3676426666601" width="8" height="5.32030266667789" fill="#26a69a"/><line x1="1880" y1="671.9518173333352" x2="1880" y2="774.3676426666601" stroke="#26a69a" stroke-width="2"/><rect x="1876" y="711.8540866666688" width="8" height="57.193253333328585" fill="#26a69a"/><line x1="1892" y1="679.9322706666619" x2="1892" y2="782.3480973333366" stroke="#ef5350" stroke-width="2"/><rect x="1888" y="718.5044653333382" width="8" height="61.183479999999804" fill="#ef5350"/><line x1="1904" y1="687.9127253333384" x2="1904" y2="807.6195346666736" stroke="#26a69a" stroke-width="2"/><rect x="1900" y="778.3578706666655" width="8" height="2.660150666664208" fill="#26a69a"/><line x1="1916" y1="646.6803786666636" x2="1916" y2="775.6977186666669" stroke="#26a69a" stroke-width="2"/><rect x="1912" y="681.2623466666689" width="8" height="94.43537199999798" fill="#26a69a"/><line x1="1928" y1="544.2645533333385" x2="1928" y2="679.9322706666619" stroke="#26a69a" stroke-width="2"/><rect x="1924" y="581.5066719999928" width="8" height="98.42559866666909" fill="#26a69a"/><line x1="1940" y1="467.1201640000012" x2="1940" y2="646.6803786666636" stroke="#26a69a" stroke-width="2"/><rect x="1936" y="484.41114799999616" width="8" height="97.09552399999666" fill="#26a69a"/><rect x="75" y="981.2760720256267" width="10" height="38.72392797437328" fill="#26a69a" opacity="0.9"/><rect x="87" y="990.0897072548692" width="10" height="29.910292745130846" fill="#26a69a" opacity="0.9"/><rect x="99" y="999.6325558020834" width="10" height="20.367444197916598" fill="#ef5350" opacity="0.9"/><rect x="111" y="988.1866758744235" width="10" height="31.813324125576514" fill="#ef5350" opacity="0.9"/><rect x="123" y="990.263549248394" width="10" height="29.736450751605958" fill="#ef5350" opacity="0.9"/><rect x="135" y="993.8219256291302" width="10" height="26.17807437086981" fill="#26a69a" opacity="0.9"/><rect x="147" y="988.368466395676" width="10" height="31.631533604323977" fill="#ef5350" opacity="0.9"/><rect x="159" y="1001.6360975976643" width="10" height="18.363902402335725" fill="#26a69a" opacity="0.9"/><rect x="171" y="996.1457161708951" width="10" height="23.85428382910493" fill="#26a69a" opacity="0.9"/><rect x="183" y="989.5381819922259" width="10" height="30.461818007774127" fill="#ef5350" opacity="0.9"/><rect x="195" y="993.680390554756" width="10" height="26.319609445244055" fill="#ef5350" opacity="0.9"/><rect x="207" y="991.2171161715788" width="10" height="28.782883828421177" fill="#ef5350" opacity="0.9"/><rect x="219" y="998.0287480299617" width="10" height="21.971251970038338" fill="#ef5350" opacity="0.9"/><rect x="231" y="1001.7678893154693" width="10" height="18.232110684530653" fill="#26a69a" opacity="0.9"/><rect x="243" y="999.4787133299374" width="10" height="20.521286670062636" fill="#ef5350" opacity="0.9"/><rect x="255" y="1002.0460877859333" width="10" height="17.95391221406669" fill="#ef5350" opacity="0.9"/><rect x="267" y="991.7496675293241" width="10" height="28.250332470675858" fill="#ef5350" opacity="0.9"/><rect x="279" y="994.7590826886194" width="10" height="25.2409173113806" fill="#26a69a" opacity="0.9"/><rect x="291" y="996.39340255105" width="10" height="23.60659744894997" fill="#ef5350" opacity="0.9"/><rect x="303" y="995.9352083881753" width="10" height="24.064791611824717" fill="#ef5350" opacity="0.9"/><rect x="315" y="997.294406629585" width="10" height="22.705593370415045" fill="#ef5350" opacity="0.9"/><rect x="327" y="989.6020266181664" width="10" height="30.397973381833594" fill="#ef5350" opacity="0.9"/><rect x="339" y="988.739483157668" width="10" height="31.26051684233198" fill="#ef5350" opacity="0.9"/><rect x="351" y="973.6083068097515" width="10" height="46.391693190248475" fill="#ef5350" opacity="0.9"/><rect x="363" y="984.393946127785" width="10" height="35.60605387221506" fill="#26a69a" opacity="0.9"/><rect x="375" y="994.3126831152758" width="10" height="25.68731688472417" fill="#ef5350" opacity="0.9"/><rect x="387" y="982.9639803491882" width="10" height="37.036019650811795" fill="#ef5350" opacity="0.9"/><rect x="399" y="992.4847781420616" width="10" height="27.5152218579384" fill="#26a69a" opacity="0.9"/><rect x="411" y="984.5885568550497" width="10" height="35.41144314495034" fill="#26a69a" opacity="0.9"/><rect x="423" y="992.8993836044949" width="10" height="27.100616395505085" fill="#ef5350" opacity="0.9"/><rect x="435" y="999.8897291346874" width="10" height="20.1102708653126" fill="#26a69a" opacity="0.9"/><rect x="447" y="1000.0686992106172" width="10" height="19.931300789382817" fill="#ef5350" opacity="0.9"/><rect x="459" y="1001.1827751130742" width="10" height="18.81722488692583" fill="#ef5350" opacity="0.9"/><rect x="471" y="1001.1696985029419" width="10" height="18.830301497058144" fill="#26a69a" opacity="0.9"/><rect x="483" y="1001.8148112694739" width="10" height="18.18518873052608" fill="#ef5350" opacity="0.9"/><rect x="495" y="1002.9842704619035" width="10" height="17.01572953809648" fill="#26a69a" opacity="0.9"/><rect x="507" y="1004.2285996574441" width="10" height="15.771400342555921" fill="#ef5350" opacity="0.9"/><rect x="519" y="1002.8004287076891" width="10" height="17.199571292310907" fill="#ef5350" opacity="0.9"/><rect x="531" y="1003.2732379054177" width="10" height="16.72676209458234" fill="#26a69a" opacity="0.9"/><rect x="543" y="1005.5211328275905" width="10" height="14.478867172409537" fill="#26a69a" opacity="0.9"/><rect x="555" y="1005.4360066596697" width="10" height="14.563993340330285" fill="#26a69a" opacity="0.9"/><rect x="567" y="1000.4566386445453" width="10" height="19.54336135545475" fill="#26a69a" opacity="0.9"/><rect x="579" y="996.8546735633677" width="10" height="23.14532643663233" fill="#26a69a" opacity="0.9"/><rect x="591" y="999.4092278133514" width="10" height="20.590772186648564" fill="#ef5350" opacity="0.9"/><rect x="603" y="1000.8935512654398" width="10" height="19.106448734560217" fill="#26a69a" opacity="0.9"/><rect x="615" y="998.463353013774" width="10" height="21.536646986225946" fill="#26a69a" opacity="0.9"/><rect x="627" y="1004.6344873797892" width="10" height="15.36551262021078" fill="#ef5350" opacity="0.9"/><rect x="639" y="996.8200590071349" width="10" height="23.179940992865113" fill="#ef5350" opacity="0.9"/><rect x="651" y="1004.6350001880297" width="10" height="15.364999811970279" fill="#ef5350" opacity="0.9"/><rect x="663" y="996.6559603701792" width="10" height="23.344039629820827" fill="#ef5350" opacity="0.9"/><rect x="675" y="995.8880300300506" width="10" height="24.111969969949428" fill="#ef5350" opacity="0.9"/><rect x="687" y="1002.2776207065131" width="10" height="17.722379293486938" fill="#ef5350" opacity="0.9"/><rect x="699" y="1003.1611893048713" width="10" height="16.8388106951287" fill="#26a69a" opacity="0.9"/><rect x="711" y="995.4598351492443" width="10" height="24.540164850755673" fill="#26a69a" opacity="0.9"/><rect x="723" y="996.1623824387109" width="10" height="23.837617561289107" fill="#26a69a" opacity="0.9"/><rect x="735" y="1003.2052908135532" width="10" height="16.794709186446767" fill="#ef5350" opacity="0.9"/><rect x="747" y="1005.3308809703699" width="10" height="14.66911902963011" fill="#26a69a" opacity="0.9"/><rect x="759" y="1006.0606070965823" width="10" height="13.939392903417684" fill="#26a69a" opacity="0.9"/><rect x="771" y="1004.3619297999707" width="10" height="15.638070200029347" fill="#ef5350" opacity="0.9"/><rect x="783" y="1005.3395987104582" width="10" height="14.660401289541824" fill="#26a69a" opacity="0.9"/><rect x="795" y="998.618221102401" width="10" height="21.38177889759902" fill="#26a69a" opacity="0.9"/><rect x="807" y="1005.6480528671109" width="10" height="14.351947132889109" fill="#26a69a" opacity="0.9"/><rect x="819" y="992.4540096476323" width="10" height="27.545990352367653" fill="#ef5350" opacity="0.9"/><rect x="831" y="998.0802852581306" width="10" height="21.91971474186937" fill="#ef5350" opacity="0.9"/><rect x="843" y="1006.8495625745709" width="10" height="13.150437425429118" fill="#ef5350" opacity="0.9"/><rect x="855" y="1004.0732187605767" width="10" height="15.926781239423349" fill="#ef5350" opacity="0.9"/><rect x="867" y="1003.7004071697429" width="10" height="16.299592830257097" fill="#26a69a" opacity="0.9"/><rect x="879" y="1000.4315110407614" width="10" height="19.568488959238607" fill="#ef5350" opacity="0.9"/><rect x="891" y="1005.1498596614782" width="10" height="14.850140338521783" fill="#26a69a" opacity="0.9"/><rect x="903" y="1000.5422776207065" width="10" height="19.4577223792935" fill="#ef5350" opacity="0.9"/><rect x="915" y="1004.1070641044488" width="10" height="15.892935895551204" fill="#ef5350" opacity="0.9"/><rect x="927" y="996.0511030505253" width="10" height="23.948896949474715" fill="#ef5350" opacity="0.9"/><rect x="939" y="965.0236404598865" width="10" height="54.97635954011355" fill="#ef5350" opacity="0.9"/><rect x="951" y="953.5921191629602" width="10" height="66.40788083703978" fill="#ef5350" opacity="0.9"/><rect x="963" y="983.8916504562284" width="10" height="36.108349543771624" fill="#26a69a" opacity="0.9"/><rect x="975" y="989.6656148399867" width="10" height="30.334385160013312" fill="#26a69a" opacity="0.9"/><rect x="987" y="979.6038043534" width="10" height="40.39619564659995" fill="#26a69a" opacity="0.9"/><rect x="999" y="860.0" width="10" height="160.0" fill="#26a69a" opacity="0.9"/><rect x="1011" y="984.6813751465777" width="10" height="35.31862485342231" fill="#ef5350" opacity="0.9"/><rect x="1023" y="995.19189284359" width="10" height="24.80810715640996" fill="#26a69a" opacity="0.9"/><rect x="1035" y="1000.9456013018491" width="10" height="19.054398698150862" fill="#26a69a" opacity="0.9"/><rect x="1047" y="980.2058412277313" width="10" height="39.7941587722687" fill="#ef5350" opacity="0.9"/><rect x="1059" y="997.9813132677167" width="10" height="22.0186867322833" fill="#ef5350" opacity="0.9"/><rect x="1071" y="996.19315093314" width="10" height="23.806849066859968" fill="#26a69a" opacity="0.9"/><rect x="1083" y="1000.4915096048984" width="10" height="19.508490395101603" fill="#ef5350" opacity="0.9"/><rect x="1095" y="1004.0983463643605" width="10" height="15.90165363563949" fill="#26a69a" opacity="0.9"/><rect x="1107" y="1004.6916654986035" width="10" height="15.30833450139653" fill="#ef5350" opacity="0.9"/><rect x="1119" y="1001.7440437322867" width="10" height="18.25595626771326" fill="#26a69a" opacity="0.9"/><rect x="1131" y="1002.7101744573635" width="10" height="17.28982554263655" fill="#26a69a" opacity="0.9"/><rect x="1143" y="999.711271866998" width="10" height="20.288728133001996" fill="#ef5350" opacity="0.9"/><rect x="1155" y="999.9007545118578" width="10" height="20.099245488142174" fill="#26a69a" opacity="0.9"/><rect x="1167" y="1000.4966376873032" width="10" height="19.503362312696822" fill="#ef5350" opacity="0.9"/><rect x="1179" y="1005.9172771933663" width="10" height="14.082722806633683" fill="#26a69a" opacity="0.9"/><rect x="1191" y="1004.9831969833201" width="10" height="15.016803016679887" fill="#ef5350" opacity="0.9"/><rect x="1203" y="999.9156259508319" width="10" height="20.084374049168105" fill="#26a69a" opacity="0.9"/><rect x="1215" y="1000.7122735524279" width="10" height="19.28772644757214" fill="#ef5350" opacity="0.9"/><rect x="1227" y="1004.3529556557621" width="10" height="15.647044344237884" fill="#ef5350" opacity="0.9"/><rect x="1239" y="1002.7424813765141" width="10" height="17.257518623485907" fill="#ef5350" opacity="0.9"/><rect x="1251" y="994.2716584560369" width="10" height="25.728341543963097" fill="#ef5350" opacity="0.9"/><rect x="1263" y="1003.3365697231177" width="10" height="16.66343027688231" fill="#26a69a" opacity="0.9"/><rect x="1275" y="1003.1911885869398" width="10" height="16.808811413060198" fill="#26a69a" opacity="0.9"/><rect x="1287" y="1001.3317459069356" width="10" height="18.668254093064434" fill="#ef5350" opacity="0.9"/><rect x="1299" y="1004.8644818756475" width="10" height="15.13551812435253" fill="#ef5350" opacity="0.9"/><rect x="1311" y="1008.1751718762287" width="10" height="11.82482812377134" fill="#26a69a" opacity="0.9"/><rect x="1323" y="1001.4866139955625" width="10" height="18.513386004437507" fill="#26a69a" opacity="0.9"/><rect x="1335" y="1007.8772302885059" width="10" height="12.12276971149413" fill="#26a69a" opacity="0.9"/><rect x="1347" y="1005.0019144840978" width="10" height="14.998085515902176" fill="#26a69a" opacity="0.9"/><rect x="1359" y="997.3062012191161" width="10" height="22.693798780883867" fill="#26a69a" opacity="0.9"/><rect x="1371" y="1002.5983822609373" width="10" height="17.401617739062658" fill="#ef5350" opacity="0.9"/><rect x="1383" y="1003.0937550212474" width="10" height="16.906244978752625" fill="#26a69a" opacity="0.9"/><rect x="1395" y="1007.3321151288687" width="10" height="12.667884871131264" fill="#26a69a" opacity="0.9"/><rect x="1407" y="1000.3858711073581" width="10" height="19.61412889264193" fill="#26a69a" opacity="0.9"/><rect x="1419" y="1005.2352422335192" width="10" height="14.764757766480784" fill="#26a69a" opacity="0.9"/><rect x="1431" y="1004.3488531898382" width="10" height="15.651146810161777" fill="#ef5350" opacity="0.9"/><rect x="1443" y="1007.3698065345445" width="10" height="12.630193465455477" fill="#ef5350" opacity="0.9"/><rect x="1455" y="1007.3133976280909" width="10" height="12.686602371909089" fill="#ef5350" opacity="0.9"/><rect x="1467" y="1003.374773937034" width="10" height="16.62522606296602" fill="#ef5350" opacity="0.9"/><rect x="1479" y="1006.5139295811724" width="10" height="13.48607041882758" fill="#26a69a" opacity="0.9"/><rect x="1491" y="1007.9621000523065" width="10" height="12.037899947693518" fill="#26a69a" opacity="0.9"/><rect x="1503" y="1004.4237231929492" width="10" height="15.576276807050817" fill="#26a69a" opacity="0.9"/><rect x="1515" y="1007.778258298092" width="10" height="12.221741701907945" fill="#26a69a" opacity="0.9"/><rect x="1527" y="1006.8413576427231" width="10" height="13.158642357276904" fill="#ef5350" opacity="0.9"/><rect x="1539" y="1007.2057078975888" width="10" height="12.794292102411191" fill="#26a69a" opacity="0.9"/><rect x="1551" y="1008.0797895434981" width="10" height="11.920210456501877" fill="#26a69a" opacity="0.9"/><rect x="1563" y="1006.6785410263686" width="10" height="13.321458973631366" fill="#ef5350" opacity="0.9"/><rect x="1575" y="1006.2367567271895" width="10" height="13.763243272810541" fill="#ef5350" opacity="0.9"/><rect x="1587" y="1006.244705254917" width="10" height="13.755294745083006" fill="#26a69a" opacity="0.9"/><rect x="1599" y="1005.7965108527318" width="10" height="14.203489147268215" fill="#26a69a" opacity="0.9"/><rect x="1611" y="1001.7876324327281" width="10" height="18.21236756727194" fill="#26a69a" opacity="0.9"/><rect x="1623" y="1006.625208969358" width="10" height="13.374791030641973" fill="#ef5350" opacity="0.9"/><rect x="1635" y="1005.3834438150199" width="10" height="14.61655618498014" fill="#26a69a" opacity="0.9"/><rect x="1647" y="1006.0785553849994" width="10" height="13.92144461500061" fill="#26a69a" opacity="0.9"/><rect x="1659" y="993.3391166707122" width="10" height="26.6608833292878" fill="#ef5350" opacity="0.9"/><rect x="1671" y="998.6384770279002" width="10" height="21.361522972099806" fill="#26a69a" opacity="0.9"/><rect x="1683" y="1004.4485943926128" width="10" height="15.55140560738721" fill="#ef5350" opacity="0.9"/><rect x="1695" y="1002.8960674445398" width="10" height="17.103932555460233" fill="#ef5350" opacity="0.9"/><rect x="1707" y="1004.4693631263525" width="10" height="15.530636873647495" fill="#26a69a" opacity="0.9"/><rect x="1719" y="1004.0068100934336" width="10" height="15.993189906566386" fill="#26a69a" opacity="0.9"/><rect x="1731" y="994.4644743544599" width="10" height="25.535525645540133" fill="#26a69a" opacity="0.9"/><rect x="1743" y="979.6866228842387" width="10" height="40.31337711576134" fill="#ef5350" opacity="0.9"/><rect x="1755" y="989.7176648763962" width="10" height="30.282335123603843" fill="#26a69a" opacity="0.9"/><rect x="1767" y="987.0538824711887" width="10" height="32.94611752881133" fill="#ef5350" opacity="0.9"/><rect x="1779" y="973.7570211994927" width="10" height="46.24297880050733" fill="#ef5350" opacity="0.9"/><rect x="1791" y="954.4090226900553" width="10" height="65.59097730994472" fill="#ef5350" opacity="0.9"/><rect x="1803" y="954.3605623113293" width="10" height="65.63943768867068" fill="#ef5350" opacity="0.9"/><rect x="1815" y="977.979484251659" width="10" height="42.02051574834104" fill="#26a69a" opacity="0.9"/><rect x="1827" y="983.0465424759066" width="10" height="36.95345752409344" fill="#26a69a" opacity="0.9"/><rect x="1839" y="996.4485294369024" width="10" height="23.55147056309761" fill="#ef5350" opacity="0.9"/><rect x="1851" y="993.193479130414" width="10" height="26.806520869586052" fill="#ef5350" opacity="0.9"/><rect x="1863" y="994.8103635126681" width="10" height="25.18963648733188" fill="#26a69a" opacity="0.9"/><rect x="1875" y="994.4029373656015" width="10" height="25.597062634398526" fill="#26a69a" opacity="0.9"/><rect x="1887" y="1002.7501735001214" width="10" height="17.249826499878623" fill="#ef5350" opacity="0.9"/><rect x="1899" y="998.3751499964103" width="10" height="21.6248500035897" fill="#26a69a" opacity="0.9"/><rect x="1911" y="992.1735035400862" width="10" height="27.826496459913756" fill="#26a69a" opacity="0.9"/><rect x="1923" y="988.5925635967686" width="10" height="31.407436403231372" fill="#26a69a" opacity="0.9"/><rect x="1935" y="937.6225013418482" width="10" height="82.37749865815181" fill="#26a69a" opacity="0.9"/><rect x="1004" y="477.7607693333266" width="12" height="114.38650800000687" fill="#00ff00" opacity="0.50"/><polyline points="320,236.33588506983574,332,257.3019492219071,344,278.55137513727936,356,305.3774785845235,368,322.8083258304498,380,344.0260688942241,392,366.38992138047496,404,374.463191344239,416,377.96736232732354,428,383.037910804084,440,388.13224539417206,452,396.79496919790535,464,406.40610584572033,476,413.70848357470703,488,424.74898228188067,500,433.47126625503734,512,444.16234908788584,524,458.5728363493521,536,463.8204530779907,548,468.8216445943757,560,471.82644568062335,572,467.3246644411847,584,461.984885605519,596,458.67374361134046,608,453.77784028326766,620,449.0948657800952,632,445.8712798327876,644,444.0314299439554,656,442.9368363619839,668,446.5067492163901,680,454.170255894193,692,463.0040128566483,704,467.4622586163272,716,467.93637366874157,728,465.57850976378177,740,467.4987682624609,752,467.9694062057175,764,468.14187380517376,776,473.1115230300778,788,477.60787232879613,800,477.2424123609653,812,474.7583022313544,824,474.53755598709597,836,475.9845935756251,848,477.9271874573018,860,481.4582065566052,872,484.1462426305801,884,486.5149383800448,896,487.96133777241266,908,491.42344058774745,920,496.0759058016114,932,504.2121692490733,944,512.9036260190029,956,529.1911375727523,968,536.8337206610704,980,542.2283522171559,992,546.4758400694942,1004,550.8255007612964,1016,544.7536719903686,1028,536.8533090706478,1040,525.2591087147115,1052,520.2287618529984,1064,518.2109731050787,1076,516.3220178252232,1088,516.196386413291,1100,514.4359595167771,1112,513.476561721518,1124,508.42829730360484,1136,497.02043089373547,1148,490.3725703006785,1160,480.8109708434737,1172,472.92004308060314,1184,464.07053497769084,1196,456.50719577347445,1208,444.7872304617249,1220,439.44041803679283,1232,437.13630330313816,1244,435.5583235599776,1256,441.0976905860177,1268,444.58941237147275,1280,443.3150037011728,1292,446.722226713761,1304,452.0850819473708,1316,454.1503639206288,1328,451.4586929440611,1340,448.77002377478067,1352,443.93061478035634,1364,434.4851469600144,1376,427.33266007492904,1388,421.24138413128094,1400,413.95679542036606,1412,404.9591735073136,1424,395.17170758598087,1436,388.21648933969,1448,382.68371613273,1460,379.70465567564133,1472,377.6426846589099,1484,374.3836791358414,1496,370.9283595990958,1508,366.9154010341117,1520,361.9545533165668,1532,360.18965554038306,1544,357.57945228256176,1556,354.96449212866236,1568,354.87870544974004,1580,354.8010889307079,1592,351.817365413505,1604,347.0910240725364,1616,341.1680500973792,1628,339.8627328182556,1640,337.6683404863645,1652,334.66954691624164,1664,335.3765474004074,1676,331.83597666385754,1688,329.3926463149244,1700,328.6387636817683,1712,325.99323431525886,1724,319.9261179042726,1736,309.8765626752993,1748,309.3979313094071,1760,306.8114280101024,1772,312.45171232659845,1784,328.82880143835496,1796,366.18144980930083,1808,408.2231721766675,1820,437.6470976201593,1832,456.1616165769768,1844,477.4731074426654,1856,506.88884235288845,1868,532.3630138113307,1880,549.4574017023145,1892,571.3841201433752,1904,591.0959059074988,1916,599.683185979787,1928,597.9520894102885,1940,587.1386664188321" fill="none" stroke="#0090ff" stroke-width="2"/><line x1="80" y1="50" x2="80" y2="850" stroke="#666666" stroke-width="0.5" stroke-dasharray="4,4"/><line x1="152" y1="50" x2="152" y2="850" stroke="#666666" stroke-width="0.5" stroke-dasharray="4,4"/><line x1="224" y1="50" x2="224" y2="850" stroke="#666666" stroke-width="0.5" stroke-dasharray="4,4"/><line x1="296" y1="50" x2="296" y2="850" stroke="#666666" stroke-width="0.5" stroke-dasharray="4,4"/><line x1="368" y1="50" x2="368" y2="850" stroke="#666666" stroke-width="0.5" stroke-dasharray="4,4"/><line x1="440" y1="50" x2="440" y2="850" stroke="#666666" stroke-width="0.5" stroke-dasharray="4,4"/><line x1="512" y1="50" x2="512" y2="850" stroke="#666666" stroke-width="0.5" stroke-dasharray="4,4"/><line x1="584" y1="50" x2="584" y2="850" stroke="#666666" stroke-width="0.5" stroke-dasharray="4,4"/><line x1="656" y1="50" x2="656" y2="850" stroke="#666666" stroke-width="0.5" stroke-dasharray="4,4"/><line x1="728" y1="50" x2="728" y2="850" stroke="#666666" stroke-width="0.5" stroke-dasharray="4,4"/><line x1="800" y1="50" x2="800" y2="850" stroke="#666666" stroke-width="0.5" stroke-dasharray="4,4"/><line x1="872" y1="50" x2="872" y2="850" stroke="#666666" stroke-width="0.5" stroke-dasharray="4,4"/><line x1="944" y1="50" x2="944" y2="850" stroke="#666666" stroke-width="0.5" stroke-dasharray="4,4"/><line x1="1016" y1="50" x2="1016" y2="850" stroke="#666666" stroke-width="0.5" stroke-dasharray="4,4"/><line x1="1088" y1="50" x2="1088" y2="850" stroke="#666666" stroke-width="0.5" stroke-dasharray="4,4"/><line x1="1160" y1="50" x2="1160" y2="850" stroke="#666666" stroke-width="0.5" stroke-dasharray="4,4"/><line x1="1232" y1="50" x2="1232" y2="850" stroke="#666666" stroke-width="0.5" stroke-dasharray="4,4"/><line x1="1304" y1="50" x2="1304" y2="850" stroke="#666666" stroke-width="0.5" stroke-dasharray="4,4"/><line x1="1376" y1="50" x2="1376" y2="850" stroke="#666666" stroke-width="0.5" stroke-dasharray="4,4"/><line x1="1448" y1="50" x2="1448" y2="850" stroke="#666666" stroke-width="0.5" stroke-dasharray="4,4"/><line x1="1520" y1="50" x2="1520" y2="850" stroke="#666666" stroke-width="0.5" stroke-dasharray="4,4"/><line x1="1592" y1="50" x2="1592" y2="850" stroke="#666666" stroke-width="0.5" stroke-dasharray="4,4"/><line x1="1664" y1="50" x2="1664" y2="850" stroke="#666666" stroke-width="0.5" stroke-dasharray="4,4"/><line x1="1736" y1="50" x2="1736" y2="850" stroke="#666666" stroke-width="0.5" stroke-dasharray="4,4"/><line x1="1808" y1="50" x2="1808" y2="850" stroke="#666666" stroke-width="0.5" stroke-dasharray="4,4"/><line x1="1880" y1="50" x2="1880" y2="850" stroke="#666666" stroke-width="0.5" stroke-dasharray="4,4"/><text x="80" y="1040" text-anchor="middle" font-size="20" fill="black">09:30</text><text x="152" y="1040" text-anchor="middle" font-size="20" fill="black">10:00</text><text x="224" y="1040" text-anchor="middle" font-size="20" fill="black">10:30</text><text x="296" y="1040" text-anchor="middle" font-size="20" fill="black">11:00</text><text x="368" y="1040" text-anchor="middle" font-size="20" fill="black">11:30</text><text x="440" y="1040" text-anchor="middle" font-size="20" fill="black">12:00</text><text x="512" y="1040" text-anchor="middle" font-size="20" fill="black">12:30</text><text x="584" y="1040" text-anchor="middle" font-size="20" fill="black">13:00</text><text x="656" y="1040" text-anchor="middle" font-size="20" fill="black">13:30</text><text x="728" y="1040" text-anchor="middle" font-size="20" fill="black">14:00</text><text x="800" y="1040" text-anchor="middle" font-size="20" fill="black">14:30</text><text x="872" y="1040" text-anchor="middle" font-size="20" fill="black">15:00</text><text x="944" y="1040" text-anchor="middle" font-size="20" fill="black">15:30</text><text x="1016" y="1040" text-anchor="middle" font-size="20" fill="black">09:30</text><text x="1088" y="1040" text-anchor="middle" font-size="20" fill="black">10:00</text><text x="1160" y="1040" text-anchor="middle" font-size="20" fill="black">10:30</text><text x="1232" y="1040" text-anchor="middle" font-size="20" fill="black">11:00</text><text x="1304" y="1040" text-anchor="middle" font-size="20" fill="black">11:30</text><text x="1376" y="1040" text-anchor="middle" font-size="20" fill="black">12:00</text><text x="1448" y="1040" text-anchor="middle" font-size="20" fill="black">12:30</text><text x="1520" y="1040" text-anchor="middle" font-size="20" fill="black">13:00</text><text x="1592" y="1040" text-anchor="middle" font-size="20" fill="black">13:30</text><text x="1664" y="1040" text-anchor="middle" font-size="20" fill="black">14:00</text><text x="1736" y="1040" text-anchor="middle" font-size="20" fill="black">14:30</text><text x="1808" y="1040" text-anchor="middle" font-size="20" fill="black">15:00</text><text x="1880" y="1040" text-anchor="middle" font-size="20" fill="black">15:30</text><text x="1942" y="50" text-anchor="end" font-size="40" fill="#ef5350" font-weight="bold"> -0.01% (Wed)</text></svg>