<svg xmlns="http://www.w3.org/2000/svg" width="1992" height="1050"><rect width="100%" height="100%" fill="white"/><text x="42" y="854.0" text-anchor="end" font-size="20" fill="black">568</text><text x="42" y="654.0" text-anchor="end" font-size="20" fill="black">569</text><text x="42" y="454.0" text-anchor="end" font-size="20" fill="black">570</text><text x="42" y="254.0" text-anchor="end" font-size="20" fill="black">571</text><text x="42" y="54.0" text-anchor="end" font-size="20" fill="black">572</text><line x1="80" y1="546.9751679999945" x2="80" y2="894.1249180000113" stroke="#ef5350" stroke-width="2"/><rect x="76" y="648.725958" width="8" height="125.69215000000895" fill="#ef5350"/><line x1="92" y1="574.9067579999974" x2="92" y2="780.4034479999927" stroke="#26a69a" stroke-width="2"/><rect x="88" y="630.7699360000015" width="8" height="133.67260400000305" fill="#26a69a"/><line x1="104" y1="632.7650499999891" x2="104" y2="782.398562000003" stroke="#ef5350" stroke-width="2"/><rect x="100" y="632.7650499999891" width="8" height="97.76056000000608" fill="#ef5350"/><line x1="116" y1="654.7112980000065" x2="116" y2="882.1542359999967" stroke="#26a69a" stroke-width="2"/><rect x="112" y="666.6819779999969" width="8" height="61.848520000012286" fill="#26a69a"/><line x1="128" y1="656.7064119999941" x2="128" y2="780.4034479999927" stroke="#ef5350" stroke-width="2"/><rect x="124" y="682.6428860000078" width="8" height="11.970681999991939" fill="#ef5350"/><line x1="140" y1="544.9800560000085" x2="140" y2="720.5500439999923" stroke="#26a69a" stroke-width="2"/><rect x="136" y="547.972725999989" width="8" height="136.66527400000632" fill="#26a69a"/><line x1="152" y1="427.2683579999921" x2="152" y2="608.8236880000068" stroke="#26a69a" stroke-width="2"/><rect x="148" y="427.2683579999921" width="8" height="111.72635600000831" fill="#26a69a"/><line x1="164" y1="367.41495399999167" x2="164" y2="477.1461959999897" stroke="#26a69a" stroke-width="2"/><rect x="160" y="399.3367699999908" width="8" height="37.90715600000567" fill="#26a69a"/><line x1="176" y1="357.43938600001" x2="176" y2="475.15108200000213" stroke="#26a69a" stroke-width="2"/><rect x="172" y="381.3807479999923" width="8" height="25.93647600001532" fill="#26a69a"/><line x1="188" y1="341.4784779999991" x2="188" y2="463.18040199998904" stroke="#ef5350" stroke-width="2"/><rect x="184" y="383.3758620000026" width="8" height="79.80453999998645" fill="#ef5350"/><line x1="200" y1="397.34165600000324" x2="200" y2="538.9947140000004" stroke="#26a69a" stroke-width="2"/><rect x="196" y="409.3123379999952" width="8" height="49.87783599999602" fill="#26a69a"/><line x1="212" y1="373.4002939999982" x2="212" y2="467.17062800000804" stroke="#ef5350" stroke-width="2"/><rect x="208" y="417.2927919999893" width="8" height="17.956020000019635" fill="#ef5350"/><line x1="224" y1="363.4247259999938" x2="224" y2="475.15108200000213" stroke="#26a69a" stroke-width="2"/><rect x="220" y="406.3196659999903" width="8" height="32.91937400001643" fill="#26a69a"/><line x1="236" y1="309.55666199999996" x2="236" y2="411.3074500000039" stroke="#26a69a" stroke-width="2"/><rect x="232" y="385.37097599999015" width="8" height="23.94136200000503" fill="#26a69a"/><line x1="248" y1="369.41006800000196" x2="248" y2="471.1608560000059" stroke="#ef5350" stroke-width="2"/><rect x="244" y="385.37097599999015" width="8" height="53.8680640000166" fill="#ef5350"/><line x1="260" y1="277.63484600000083" x2="260" y2="471.1608560000059" stroke="#26a69a" stroke-width="2"/><rect x="256" y="281.6250739999987" width="8" height="157.61396600000808" fill="#26a69a"/><line x1="272" y1="279.6299600000111" x2="272" y2="365.4198400000041" stroke="#ef5350" stroke-width="2"/><rect x="268" y="287.6104140000052" width="8" height="55.863178000004154" fill="#ef5350"/><line x1="284" y1="283.6201860000074" x2="284" y2="413.30256399999143" stroke="#26a69a" stroke-width="2"/><rect x="280" y="291.6006400000015" width="8" height="65.83874600000854" fill="#26a69a"/><line x1="296" y1="239.72768999999516" x2="296" y2="317.53711599999406" stroke="#26a69a" stroke-width="2"/><rect x="292" y="239.72768999999516" width="8" height="53.868063999993865" fill="#26a69a"/><line x1="308" y1="213.79121400000258" x2="308" y2="287.6104140000052" stroke="#ef5350" stroke-width="2"/><rect x="304" y="243.71791599999142" width="8" height="13.965796000002229" fill="#ef5350"/><line x1="320" y1="195.8351920000041" x2="320" y2="299.5810939999956" stroke="#26a69a" stroke-width="2"/><rect x="316" y="219.77655400000913" width="8" height="35.91204399999697" fill="#26a69a"/><line x1="332" y1="181.86939800000346" x2="332" y2="239.72768999999516" stroke="#ef5350" stroke-width="2"/><rect x="328" y="215.78632799999014" width="8" height="11.97068000001309" fill="#ef5350"/><line x1="344" y1="137.97690199999124" x2="344" y2="227.75700800000322" stroke="#26a69a" stroke-width="2"/><rect x="340" y="153.93781000000217" width="8" height="70.82652799999778" fill="#26a69a"/><line x1="356" y1="141.96712800001023" x2="356" y2="169.89871799999037" stroke="#ef5350" stroke-width="2"/><rect x="352" y="153.93781000000217" width="8" height="3.9902259999962553" fill="#ef5350"/><line x1="368" y1="116.03065199999492" x2="368" y2="187.85473800001" stroke="#ef5350" stroke-width="2"/><rect x="364" y="155.93292200001088" width="8" height="23.94136199998229" fill="#ef5350"/><line x1="380" y1="155.93292200001088" x2="380" y2="245.7130300000017" stroke="#26a69a" stroke-width="2"/><rect x="376" y="179.87428399999317" width="8" height="2" fill="#26a69a"/><line x1="392" y1="171.89382999999907" x2="392" y2="233.74235000001136" stroke="#26a69a" stroke-width="2"/><rect x="388" y="179.87428399999317" width="8" height="3.990227999997842" fill="#26a69a"/><line x1="404" y1="159.92315000000872" x2="404" y2="221.77166799999668" stroke="#ef5350" stroke-width="2"/><rect x="400" y="181.86939800000346" width="8" height="17.956021999998484" fill="#ef5350"/><line x1="416" y1="74.13326999999299" x2="416" y2="201.8205339999895" stroke="#26a69a" stroke-width="2"/><rect x="412" y="128.0013340000096" width="8" height="73.8191999999799" fill="#26a69a"/><line x1="428" y1="108.05019800000082" x2="428" y2="164.91093399999954" stroke="#ef5350" stroke-width="2"/><rect x="424" y="128.0013340000096" width="8" height="17.956021999998484" fill="#ef5350"/><line x1="440" y1="116.03065199999492" x2="440" y2="158.9255919999914" stroke="#26a69a" stroke-width="2"/><rect x="436" y="133.9866739999934" width="8" height="15.960908000010932" fill="#26a69a"/><line x1="452" y1="82.11372400000982" x2="452" y2="151.94269599999188" stroke="#26a69a" stroke-width="2"/><rect x="448" y="116.03065199999492" width="8" height="25.93647600001532" fill="#26a69a"/><line x1="464" y1="96.07951800001047" x2="464" y2="153.93781000000217" stroke="#26a69a" stroke-width="2"/><rect x="460" y="104.05997200000456" width="8" height="17.956021999998484" fill="#26a69a"/><line x1="476" y1="96.07951800001047" x2="476" y2="175.8840579999969" stroke="#ef5350" stroke-width="2"/><rect x="472" y="104.05997200000456" width="8" height="63.84363199999825" fill="#ef5350"/><line x1="488" y1="120.02087999999276" x2="488" y2="167.90360400000282" stroke="#26a69a" stroke-width="2"/><rect x="484" y="135.9817880000037" width="8" height="31.921815999999126" fill="#26a69a"/><line x1="500" y1="126.0062199999993" x2="500" y2="163.91337600000497" stroke="#ef5350" stroke-width="2"/><rect x="496" y="141.96712800001023" width="8" height="19.951135999986036" fill="#ef5350"/><line x1="512" y1="153.93781000000217" x2="512" y2="201.8205339999895" stroke="#ef5350" stroke-width="2"/><rect x="508" y="165.90848999999253" width="8" height="2" fill="#ef5350"/><line x1="524" y1="133.9866739999934" x2="524" y2="203.8156459999982" stroke="#26a69a" stroke-width="2"/><rect x="520" y="153.93781000000217" width="8" height="21.94624799999474" fill="#26a69a"/><line x1="536" y1="104.05997200000456" x2="536" y2="167.90360400000282" stroke="#26a69a" stroke-width="2"/><rect x="532" y="112.04042599999866" width="8" height="39.90226999999322" fill="#26a69a"/><line x1="548" y1="92.08928999998989" x2="548" y2="141.96712800001023" stroke="#ef5350" stroke-width="2"/><rect x="544" y="116.03065199999492" width="8" height="18.953578000014204" fill="#ef5350"/><line x1="560" y1="124.01110599998901" x2="560" y2="189.84985199999755" stroke="#ef5350" stroke-width="2"/><rect x="556" y="139.97201399999994" width="8" height="21.946249999996326" fill="#ef5350"/><line x1="572" y1="143.9622419999978" x2="572" y2="195.8351920000041" stroke="#26a69a" stroke-width="2"/><rect x="568" y="167.90360400000282" width="8" height="2" fill="#26a69a"/><line x1="584" y1="159.92315000000872" x2="584" y2="287.6104140000052" stroke="#ef5350" stroke-width="2"/><rect x="580" y="169.89871799999037" width="8" height="87.78499400000328" fill="#ef5350"/><line x1="596" y1="195.8351920000041" x2="596" y2="265.6641660000105" stroke="#26a69a" stroke-width="2"/><rect x="592" y="203.8156459999982" width="8" height="53.86806599999545" fill="#26a69a"/><line x1="608" y1="175.8840579999969" x2="608" y2="225.76189599999452" stroke="#ef5350" stroke-width="2"/><rect x="604" y="203.8156459999982" width="8" height="19.951136000008773" fill="#ef5350"/><line x1="620" y1="201.8205339999895" x2="620" y2="247.70814399998926" stroke="#26a69a" stroke-width="2"/><rect x="616" y="211.7960999999923" width="8" height="13.965796000002229" fill="#26a69a"/><line x1="632" y1="191.84496600000784" x2="632" y2="239.72768999999516" stroke="#ef5350" stroke-width="2"/><rect x="628" y="203.8156459999982" width="8" height="11.970681999991939" fill="#ef5350"/><line x1="644" y1="215.78632799999014" x2="644" y2="277.63484600000083" stroke="#ef5350" stroke-width="2"/><rect x="640" y="215.78632799999014" width="8" height="12.96823800000766" fill="#ef5350"/><line x1="656" y1="195.8351920000041" x2="656" y2="253.6934839999958" stroke="#ef5350" stroke-width="2"/><rect x="652" y="229.75212199999078" width="8" height="21.946248000017476" fill="#ef5350"/><line x1="668" y1="247.70814399998926" x2="668" y2="289.6055279999928" stroke="#ef5350" stroke-width="2"/><rect x="664" y="251.69837000000825" width="8" height="25.93647599999258" fill="#ef5350"/><line x1="680" y1="273.6446200000046" x2="680" y2="353.449159999991" stroke="#26a69a" stroke-width="2"/><rect x="676" y="279.6299600000111" width="8" height="2" fill="#26a69a"/><line x1="692" y1="249.70325799999955" x2="692" y2="285.61529999999493" stroke="#26a69a" stroke-width="2"/><rect x="688" y="251.69837000000825" width="8" height="29.926703999990423" fill="#26a69a"/><line x1="704" y1="213.79121400000258" x2="704" y2="257.68371199999365" stroke="#26a69a" stroke-width="2"/><rect x="700" y="233.74235000001136" width="8" height="15.960907999988194" fill="#26a69a"/><line x1="716" y1="211.7960999999923" x2="716" y2="261.6739379999899" stroke="#ef5350" stroke-width="2"/><rect x="712" y="233.74235000001136" width="8" height="17.956019999996897" fill="#ef5350"/><line x1="728" y1="247.70814399998926" x2="728" y2="295.5908679999993" stroke="#ef5350" stroke-width="2"/><rect x="724" y="251.69837000000825" width="8" height="15.960907999988194" fill="#ef5350"/><line x1="740" y1="251.69837000000825" x2="740" y2="303.5713219999934" stroke="#26a69a" stroke-width="2"/><rect x="736" y="263.6690520000002" width="8" height="11.970679999990352" fill="#26a69a"/><line x1="752" y1="233.74235000001136" x2="752" y2="281.6250739999987" stroke="#26a69a" stroke-width="2"/><rect x="748" y="235.73746199999732" width="8" height="25.93647599999258" fill="#26a69a"/><line x1="764" y1="227.75700800000322" x2="764" y2="317.53711599999406" stroke="#ef5350" stroke-width="2"/><rect x="760" y="235.73746199999732" width="8" height="79.80454000000918" fill="#ef5350"/><line x1="776" y1="277.63484600000083" x2="776" y2="361.42961400000786" stroke="#26a69a" stroke-width="2"/><rect x="772" y="305.5664360000037" width="8" height="9.9755660000028" fill="#26a69a"/><line x1="788" y1="285.61529999999493" x2="788" y2="327.51268399999844" stroke="#ef5350" stroke-width="2"/><rect x="784" y="303.5713219999934" width="8" height="9.975568000004387" fill="#ef5350"/><line x1="800" y1="287.6104140000052" x2="800" y2="329.50779800000873" stroke="#ef5350" stroke-width="2"/><rect x="796" y="313.5468899999978" width="8" height="3.9902259999962553" fill="#ef5350"/><line x1="812" y1="301.57620800000586" x2="812" y2="333.498024000005" stroke="#ef5350" stroke-width="2"/><rect x="808" y="317.53711599999406" width="8" height="7.9804540000168345" fill="#ef5350"/><line x1="824" y1="323.5224560000006" x2="824" y2="377.39052199999605" stroke="#ef5350" stroke-width="2"/><rect x="820" y="327.51268399999844" width="8" height="43.892496000012216" fill="#ef5350"/><line x1="836" y1="323.5224560000006" x2="836" y2="393.351430000007" stroke="#26a69a" stroke-width="2"/><rect x="832" y="335.49313799999254" width="8" height="41.89738400000351" fill="#26a69a"/><line x1="848" y1="315.5420020000065" x2="848" y2="355.4442719999997" stroke="#ef5350" stroke-width="2"/><rect x="844" y="333.498024000005" width="8" height="17.956021999998484" fill="#ef5350"/><line x1="860" y1="317.53711599999406" x2="860" y2="377.39052199999605" stroke="#ef5350" stroke-width="2"/><rect x="856" y="351.4540460000035" width="8" height="25.93647599999258" fill="#ef5350"/><line x1="872" y1="352.45160199999646" x2="872" y2="397.34165600000324" stroke="#26a69a" stroke-width="2"/><rect x="868" y="377.39052199999605" width="8" height="2" fill="#26a69a"/><line x1="884" y1="303.5713219999934" x2="884" y2="385.37097599999015" stroke="#26a69a" stroke-width="2"/><rect x="880" y="303.5713219999934" width="8" height="70.82652799999778" fill="#26a69a"/><line x1="896" y1="277.63484600000083" x2="896" y2="313.5468899999978" stroke="#ef5350" stroke-width="2"/><rect x="892" y="303.5713219999934" width="8" height="8.978010000009817" fill="#ef5350"/><line x1="908" y1="307.56154799998967" x2="908" y2="401.3318840000011" stroke="#ef5350" stroke-width="2"/><rect x="904" y="313.5468899999978" width="8" height="55.863178000004154" fill="#ef5350"/><line x1="920" y1="347.46381800000563" x2="920" y2="381.3807479999923" stroke="#ef5350" stroke-width="2"/><rect x="916" y="371.40518000001066" width="8" height="2" fill="#ef5350"/><line x1="932" y1="357.43938600001" x2="932" y2="397.34165600000324" stroke="#ef5350" stroke-width="2"/><rect x="928" y="373.4002939999982" width="8" height="5.985340000006545" fill="#ef5350"/><line x1="944" y1="357.43938600001" x2="944" y2="415.2976780000017" stroke="#ef5350" stroke-width="2"/><rect x="940" y="379.38563400000476" width="8" height="21.946249999996326" fill="#ef5350"/><line x1="956" y1="377.39052199999605" x2="956" y2="411.3074500000039" stroke="#26a69a" stroke-width="2"/><rect x="952" y="385.37097599999015" width="8" height="17.956020000019635" fill="#26a69a"/><line x1="968" y1="373.4002939999982" x2="968" y2="428.2659160000094" stroke="#ef5350" stroke-width="2"/><rect x="964" y="385.37097599999015" width="8" height="29.926702000011574" fill="#ef5350"/><line x1="980" y1="397.34165600000324" x2="980" y2="441.2341539999943" stroke="#26a69a" stroke-width="2"/><rect x="976" y="409.3123379999952" width="8" height="9.9755660000028" fill="#26a69a"/><line x1="992" y1="373.4002939999982" x2="992" y2="473.15596999999343" stroke="#ef5350" stroke-width="2"/><rect x="988" y="409.3123379999952" width="8" height="31.921815999999126" fill="#ef5350"/><line x1="1004" y1="445.22437999999056" x2="1004" y2="692.6184539999895" stroke="#ef5350" stroke-width="2"/><rect x="1000" y="445.22437999999056" width="8" height="213.47714400001223" fill="#ef5350"/><line x1="1016" y1="550.9653959999923" x2="1016" y2="774.4181080000089" stroke="#26a69a" stroke-width="2"/><rect x="1012" y="612.813914000003" width="8" height="149.63351199999124" fill="#26a69a"/><line x1="1028" y1="584.8823260000017" x2="1028" y2="790.3790159999971" stroke="#ef5350" stroke-width="2"/><rect x="1024" y="610.8187999999927" width="8" height="109.7312439999996" fill="#ef5350"/><line x1="1040" y1="535.0044880000041" x2="1040" y2="694.6135679999998" stroke="#26a69a" stroke-width="2"/><rect x="1036" y="630.7699360000015" width="8" height="53.868063999993865" fill="#26a69a"/><line x1="1052" y1="626.7797080000037" x2="1052" y2="967.9441179999912" stroke="#ef5350" stroke-width="2"/><rect x="1048" y="628.9743340000086" width="8" height="263.1554699999924" fill="#ef5350"/><line x1="1064" y1="610.8187999999927" x2="1064" y2="910.0858259999995" stroke="#26a69a" stroke-width="2"/><rect x="1060" y="636.755276000008" width="8" height="255.374527999993" fill="#26a69a"/><line x1="1076" y1="592.8627799999958" x2="1076" y2="698.603793999996" stroke="#ef5350" stroke-width="2"/><rect x="1072" y="638.7503899999956" width="8" height="5.985340000006545" fill="#ef5350"/><line x1="1088" y1="554.9556220000113" x2="1088" y2="656.7064119999941" stroke="#26a69a" stroke-width="2"/><rect x="1084" y="586.8774380000104" width="8" height="67.8338599999961" fill="#26a69a"/><line x1="1100" y1="582.8872119999915" x2="1100" y2="678.6526599999888" stroke="#ef5350" stroke-width="2"/><rect x="1096" y="590.8676660000083" width="8" height="27.931588000001284" fill="#ef5350"/><line x1="1112" y1="493.1071040000006" x2="1112" y2="690.6233400000019" stroke="#26a69a" stroke-width="2"/><rect x="1108" y="580.8920980000039" width="8" height="31.921815999999126" fill="#26a69a"/><line x1="1124" y1="485.1266500000065" x2="1124" y2="612.813914000003" stroke="#26a69a" stroke-width="2"/><rect x="1120" y="564.931189999993" width="8" height="23.94136200000503" fill="#26a69a"/><line x1="1136" y1="403.3269960000098" x2="1136" y2="558.9458500000092" stroke="#26a69a" stroke-width="2"/><rect x="1132" y="419.287903999998" width="8" height="133.67260600000463" fill="#26a69a"/><line x1="1148" y1="387.36608799999885" x2="1148" y2="447.21949400000085" stroke="#26a69a" stroke-width="2"/><rect x="1144" y="411.3074500000039" width="8" height="17.956021999998484" fill="#26a69a"/><line x1="1160" y1="385.37097599999015" x2="1160" y2="463.18040199998904" stroke="#ef5350" stroke-width="2"/><rect x="1156" y="415.2976780000017" width="8" height="41.89738400000351" fill="#ef5350"/><line x1="1172" y1="391.3563159999967" x2="1172" y2="515.0533519999954" stroke="#ef5350" stroke-width="2"/><rect x="1168" y="453.2048340000074" width="8" height="47.88272399998732" fill="#ef5350"/><line x1="1184" y1="399.3367699999908" x2="1184" y2="548.9702820000048" stroke="#26a69a" stroke-width="2"/><rect x="1180" y="401.3318840000011" width="8" height="111.72635600000831" fill="#26a69a"/><line x1="1196" y1="367.41495399999167" x2="1196" y2="497.09733199999846" stroke="#ef5350" stroke-width="2"/><rect x="1192" y="395.34654199999295" width="8" height="57.858292000014444" fill="#ef5350"/><line x1="1208" y1="429.26347200000237" x2="1208" y2="481.13642400001027" stroke="#26a69a" stroke-width="2"/><rect x="1204" y="451.2097199999971" width="8" height="2" fill="#26a69a"/><line x1="1220" y1="383.3758620000026" x2="1220" y2="525.0289199999997" stroke="#ef5350" stroke-width="2"/><rect x="1216" y="439.23904000000675" width="8" height="73.81920000000264" fill="#ef5350"/><line x1="1232" y1="477.1461959999897" x2="1232" y2="531.0142600000063" stroke="#26a69a" stroke-width="2"/><rect x="1228" y="493.1071040000006" width="8" height="19.951136000008773" fill="#26a69a"/><line x1="1244" y1="469.1657419999956" x2="1244" y2="556.9507359999989" stroke="#ef5350" stroke-width="2"/><rect x="1240" y="499.09244400000716" width="8" height="37.90715799998452" fill="#ef5350"/><line x1="1256" y1="461.1852880000015" x2="1256" y2="554.9556220000113" stroke="#26a69a" stroke-width="2"/><rect x="1252" y="483.13153599999623" width="8" height="59.853406000001996" fill="#26a69a"/><line x1="1268" y1="461.1852880000015" x2="1268" y2="562.9360760000054" stroke="#ef5350" stroke-width="2"/><rect x="1264" y="479.14131" width="8" height="33.916930000009415" fill="#ef5350"/><line x1="1280" y1="457.19506200000524" x2="1280" y2="525.0289199999997" stroke="#26a69a" stroke-width="2"/><rect x="1276" y="475.15108200000213" width="8" height="39.90226999999322" fill="#26a69a"/><line x1="1292" y1="445.22437999999056" x2="1292" y2="588.872551999998" stroke="#ef5350" stroke-width="2"/><rect x="1288" y="469.1657419999956" width="8" height="109.73124199999802" fill="#ef5350"/><line x1="1304" y1="546.9751679999945" x2="1304" y2="646.7308439999897" stroke="#ef5350" stroke-width="2"/><rect x="1300" y="586.8774380000104" width="8" height="59.85340599997926" fill="#ef5350"/><line x1="1316" y1="540.9898280000107" x2="1316" y2="652.7161839999962" stroke="#26a69a" stroke-width="2"/><rect x="1312" y="548.9702820000048" width="8" height="97.76056199998493" fill="#26a69a"/><line x1="1328" y1="531.0142600000063" x2="1328" y2="564.931189999993" stroke="#26a69a" stroke-width="2"/><rect x="1324" y="546.9751679999945" width="8" height="2" fill="#26a69a"/><line x1="1340" y1="517.0484660000056" x2="1340" y2="605.8310160000019" stroke="#ef5350" stroke-width="2"/><rect x="1336" y="540.9898280000107" width="8" height="55.86317799998142" fill="#ef5350"/><line x1="1352" y1="517.0484660000056" x2="1352" y2="626.7797080000037" stroke="#26a69a" stroke-width="2"/><rect x="1348" y="544.9800560000085" width="8" height="52.870505999999295" fill="#26a69a"/><line x1="1364" y1="511.0631259999991" x2="1364" y2="560.9409639999967" stroke="#ef5350" stroke-width="2"/><rect x="1360" y="531.0142600000063" width="8" height="3.990227999997842" fill="#ef5350"/><line x1="1376" y1="461.1852880000015" x2="1376" y2="531.0142600000063" stroke="#26a69a" stroke-width="2"/><rect x="1372" y="467.17062800000804" width="8" height="63.84363199999825" fill="#26a69a"/><line x1="1388" y1="447.21949400000085" x2="1388" y2="477.1461959999897" stroke="#ef5350" stroke-width="2"/><rect x="1384" y="463.18040199998904" width="8" height="7.9804540000168345" fill="#ef5350"/><line x1="1400" y1="409.3123379999952" x2="1400" y2="477.1461959999897" stroke="#26a69a" stroke-width="2"/><rect x="1396" y="411.3074500000039" width="8" height="60.85096199999498" fill="#26a69a"/><line x1="1412" y1="352.45160199999646" x2="1412" y2="415.2976780000017" stroke="#26a69a" stroke-width="2"/><rect x="1408" y="381.3807479999923" width="8" height="29.926702000011574" fill="#26a69a"/><line x1="1424" y1="357.43938600001" x2="1424" y2="437.24392599999646" stroke="#ef5350" stroke-width="2"/><rect x="1420" y="381.3807479999923" width="8" height="39.90227000001596" fill="#ef5350"/><line x1="1436" y1="403.3269960000098" x2="1436" y2="443.229266000003" stroke="#26a69a" stroke-width="2"/><rect x="1432" y="415.2976780000017" width="8" height="3.9902259999962553" fill="#26a69a"/><line x1="1448" y1="391.3563159999967" x2="1448" y2="421.28301800000827" stroke="#26a69a" stroke-width="2"/><rect x="1444" y="407.3172240000076" width="8" height="7.980453999994097" fill="#26a69a"/><line x1="1460" y1="393.351430000007" x2="1460" y2="427.2683579999921" stroke="#ef5350" stroke-width="2"/><rect x="1456" y="408.3147800000006" width="8" height="14.963351999995211" fill="#ef5350"/><line x1="1472" y1="383.3758620000026" x2="1472" y2="433.2537000000002" stroke="#ef5350" stroke-width="2"/><rect x="1468" y="420.28546199999255" width="8" height="6.982895999999528" fill="#ef5350"/><line x1="1484" y1="415.2976780000017" x2="1484" y2="481.13642400001027" stroke="#ef5350" stroke-width="2"/><rect x="1480" y="433.2537000000002" width="8" height="39.90226999999322" fill="#ef5350"/><line x1="1496" y1="439.23904000000675" x2="1496" y2="501.0875579999947" stroke="#26a69a" stroke-width="2"/><rect x="1492" y="467.17062800000804" width="8" height="3.990227999997842" fill="#26a69a"/><line x1="1508" y1="423.2781319999958" x2="1508" y2="471.1608560000059" stroke="#26a69a" stroke-width="2"/><rect x="1504" y="431.2585859999899" width="8" height="27.931588000001284" fill="#26a69a"/><line x1="1520" y1="411.3074500000039" x2="1520" y2="463.18040199998904" stroke="#26a69a" stroke-width="2"/><rect x="1516" y="417.2927919999893" width="8" height="16.958464000003914" fill="#26a69a"/><line x1="1532" y1="411.3074500000039" x2="1532" y2="501.2870699999894" stroke="#ef5350" stroke-width="2"/><rect x="1528" y="421.28301800000827" width="8" height="77.8094259999989" fill="#ef5350"/><line x1="1544" y1="479.14131" x2="1544" y2="568.9214179999908" stroke="#26a69a" stroke-width="2"/><rect x="1540" y="481.13642400001027" width="8" height="19.95113399998445" fill="#26a69a"/><line x1="1556" y1="477.1461959999897" x2="1556" y2="529.0191479999976" stroke="#ef5350" stroke-width="2"/><rect x="1552" y="485.1266500000065" width="8" height="8.97800999998708" fill="#ef5350"/><line x1="1568" y1="443.4287779999977" x2="1568" y2="493.1071040000006" stroke="#26a69a" stroke-width="2"/><rect x="1564" y="455.19994799999495" width="8" height="37.90715600000567" fill="#26a69a"/><line x1="1580" y1="425.2732460000061" x2="1580" y2="473.15596999999343" stroke="#26a69a" stroke-width="2"/><rect x="1576" y="442.23171000001" width="8" height="16.958463999981177" fill="#26a69a"/><line x1="1592" y1="427.2683579999921" x2="1592" y2="529.0191479999976" stroke="#ef5350" stroke-width="2"/><rect x="1588" y="439.23904000000675" width="8" height="81.79965399999674" fill="#ef5350"/><line x1="1604" y1="499.09244400000716" x2="1604" y2="556.9507359999989" stroke="#ef5350" stroke-width="2"/><rect x="1600" y="523.0338059999895" width="8" height="25.93647600001532" fill="#ef5350"/><line x1="1616" y1="545.9776120000015" x2="1616" y2="594.8578920000045" stroke="#ef5350" stroke-width="2"/><rect x="1612" y="546.9751679999945" width="8" height="25.93647600001532" fill="#ef5350"/><line x1="1628" y1="558.9458500000092" x2="1628" y2="604.8334600000089" stroke="#ef5350" stroke-width="2"/><rect x="1624" y="573.9092000000028" width="8" height="8.978011999988667" fill="#ef5350"/><line x1="1640" y1="572.9116440000098" x2="1640" y2="716.5598159999945" stroke="#ef5350" stroke-width="2"/><rect x="1636" y="584.8823260000017" width="8" height="119.7068100000024" fill="#ef5350"/><line x1="1652" y1="592.8627799999958" x2="1652" y2="718.5549300000048" stroke="#26a69a" stroke-width="2"/><rect x="1648" y="600.8432339999899" width="8" height="107.73612800001047" fill="#26a69a"/><line x1="1664" y1="547.972725999989" x2="1664" y2="624.784595999995" stroke="#26a69a" stroke-width="2"/><rect x="1660" y="580.8920980000039" width="8" height="27.93159000000287" fill="#26a69a"/><line x1="1676" y1="530.0167039999906" x2="1676" y2="586.8774380000104" stroke="#26a69a" stroke-width="2"/><rect x="1672" y="532.0118180000009" width="8" height="44.890054000006785" fill="#26a69a"/><line x1="1688" y1="475.15108200000213" x2="1688" y2="550.9653959999923" stroke="#26a69a" stroke-width="2"/><rect x="1684" y="511.0631259999991" width="8" height="19.951134000007187" fill="#26a69a"/><line x1="1700" y1="447.21949400000085" x2="1700" y2="511.0631259999991" stroke="#26a69a" stroke-width="2"/><rect x="1696" y="449.21460800001114" width="8" height="59.85340399997767" fill="#26a69a"/><line x1="1712" y1="447.21949400000085" x2="1712" y2="488.1193200000098" stroke="#ef5350" stroke-width="2"/><rect x="1708" y="449.21460800001114" width="8" height="20.94869000000017" fill="#ef5350"/><line x1="1724" y1="436.2463700000035" x2="1724" y2="475.15108200000213" stroke="#26a69a" stroke-width="2"/><rect x="1720" y="438.24148199998945" width="8" height="32.91937400001643" fill="#26a69a"/><line x1="1736" y1="393.351430000007" x2="1736" y2="447.21949400000085" stroke="#26a69a" stroke-width="2"/><rect x="1732" y="427.2683579999921" width="8" height="9.975568000004387" fill="#26a69a"/><line x1="1748" y1="387.36608799999885" x2="1748" y2="429.26347200000237" stroke="#26a69a" stroke-width="2"/><rect x="1744" y="404.32455400000435" width="8" height="18.953577999991467" fill="#26a69a"/><line x1="1760" y1="371.40518000001066" x2="1760" y2="421.28301800000827" stroke="#ef5350" stroke-width="2"/><rect x="1756" y="406.3196659999903" width="8" height="6.982898000001114" fill="#ef5350"/><line x1="1772" y1="381.3807479999923" x2="1772" y2="435.2488120000089" stroke="#26a69a" stroke-width="2"/><rect x="1768" y="387.36608799999885" width="8" height="27.93159000000287" fill="#26a69a"/><line x1="1784" y1="385.37097599999015" x2="1784" y2="423.2781319999958" stroke="#ef5350" stroke-width="2"/><rect x="1780" y="389.36120200000914" width="8" height="11.970681999991939" fill="#ef5350"/><line x1="1796" y1="329.50779800000873" x2="1796" y2="405.32210999999734" stroke="#26a69a" stroke-width="2"/><rect x="1792" y="385.37097599999015" width="8" height="17.956020000019635" fill="#26a69a"/><line x1="1808" y1="371.40518000001066" x2="1808" y2="419.287903999998" stroke="#ef5350" stroke-width="2"/><rect x="1804" y="385.37097599999015" width="8" height="17.956020000019635" fill="#ef5350"/><line x1="1820" y1="405.32210999999734" x2="1820" y2="449.21460800001114" stroke="#ef5350" stroke-width="2"/><rect x="1816" y="405.32210999999734" width="8" height="23.94136200000503" fill="#ef5350"/><line x1="1832" y1="395.34654199999295" x2="1832" y2="433.2537000000002" stroke="#26a69a" stroke-width="2"/><rect x="1828" y="397.34165600000324" width="8" height="35.91204399999697" fill="#26a69a"/><line x1="1844" y1="385.37097599999015" x2="1844" y2="419.287903999998" stroke="#ef5350" stroke-width="2"/><rect x="1840" y="397.34165600000324" width="8" height="7.980453999994097" fill="#ef5350"/><line x1="1856" y1="245.7130300000017" x2="1856" y2="409.3123379999952" stroke="#26a69a" stroke-width="2"/><rect x="1852" y="319.53223000000435" width="8" height="85.78987999999299" fill="#26a69a"/><line x1="1868" y1="297.5859820000096" x2="1868" y2="355.4442719999997" stroke="#26a69a" stroke-width="2"/><rect x="1864" y="299.5810939999956" width="8" height="17.956021999998484" fill="#26a69a"/><line x1="1880" y1="251.69837000000825" x2="1880" y2="313.5468899999978" stroke="#26a69a" stroke-width="2"/><rect x="1876" y="289.6055279999928" width="8" height="11.97068000001309" fill="#26a69a"/><line x1="1892" y1="287.6104140000052" x2="1892" y2="401.3318840000011" stroke="#ef5350" stroke-width="2"/><rect x="1888" y="287.6104140000052" width="8" height="99.75567399999363" fill="#ef5350"/><line x1="1904" y1="385.37097599999015" x2="1904" y2="459.1901739999912" stroke="#ef5350" stroke-width="2"/><rect x="1900" y="391.3563159999967" width="8" height="57.858292000014444" fill="#ef5350"/><line x1="1916" y1="367.41495399999167" x2="1916" y2="453.2048340000074" stroke="#26a69a" stroke-width="2"/><rect x="1912" y="369.41006800000196" width="8" height="79.80454000000918" fill="#26a69a"/><line x1="1928" y1="145.95735600000808" x2="1928" y2="403.3269960000098" stroke="#26a69a" stroke-width="2"/><rect x="1924" y="263.6690520000002" width="8" height="103.74590199999147" fill="#26a69a"/><line x1="1940" y1="149.94758200000433" x2="1940" y2="265.6641660000105" stroke="#26a69a" stroke-width="2"/><rect x="1936" y="203.8156459999982" width="8" height="61.848520000012286" fill="#26a69a"/><rect x="75" y="965.4661483801483" width="10" height="54.5338516198517" fill="#ef5350" opacity="0.9"/><rect x="87" y="995.7812674086086" width="10" height="24.21873259139136" fill="#26a69a" opacity="0.9"/><rect x="99" y="988.3111947412075" width="10" height="31.688805258792513" fill="#ef5350" opacity="0.9"/><rect x="111" y="987.0398247069164" width="10" height="32.96017529308358" fill="#26a69a" opacity="0.9"/><rect x="123" y="998.5356961586551" width="10" height="21.464303841344872" fill="#ef5350" opacity="0.9"/><rect x="135" y="996.5679817774421" width="10" height="23.432018222557872" fill="#26a69a" opacity="0.9"/><rect x="147" y="991.8449101870535" width="10" height="28.15508981294647" fill="#26a69a" opacity="0.9"/><rect x="159" y="995.4782802461036" width="10" height="24.521719753896377" fill="#26a69a" opacity="0.9"/><rect x="171" y="993.9159930179874" width="10" height="26.084006982012625" fill="#26a69a" opacity="0.9"/><rect x="183" y="993.6359078473365" width="10" height="26.36409215266349" fill="#ef5350" opacity="0.9"/><rect x="195" y="997.8090221468451" width="10" height="22.19097785315489" fill="#26a69a" opacity="0.9"/><rect x="207" y="992.2240309981555" width="10" height="27.775969001844487" fill="#ef5350" opacity="0.9"/><rect x="219" y="996.9303903242179" width="10" height="23.06960967578209" fill="#26a69a" opacity="0.9"/><rect x="231" y="994.8020525136484" width="10" height="25.19794748635161" fill="#26a69a" opacity="0.9"/><rect x="243" y="990.667624011191" width="10" height="29.332375988808963" fill="#ef5350" opacity="0.9"/><rect x="255" y="998.8228995159633" width="10" height="21.177100484036714" fill="#26a69a" opacity="0.9"/><rect x="267" y="1001.1666398445141" width="10" height="18.833360155485934" fill="#ef5350" opacity="0.9"/><rect x="279" y="999.9296227980044" width="10" height="20.070377201995598" fill="#26a69a" opacity="0.9"/><rect x="291" y="991.4496960843784" width="10" height="28.550303915621612" fill="#26a69a" opacity="0.9"/><rect x="303" y="993.0754280196586" width="10" height="26.924571980341398" fill="#ef5350" opacity="0.9"/><rect x="315" y="992.3425642803204" width="10" height="27.657435719679597" fill="#26a69a" opacity="0.9"/><rect x="327" y="1003.5858948489088" width="10" height="16.414105151091235" fill="#ef5350" opacity="0.9"/><rect x="339" y="994.3882692283886" width="10" height="25.611730771611406" fill="#26a69a" opacity="0.9"/><rect x="351" y="1003.8207950086037" width="10" height="16.17920499139632" fill="#ef5350" opacity="0.9"/><rect x="363" y="996.0434023694277" width="10" height="23.956597630572332" fill="#ef5350" opacity="0.9"/><rect x="375" y="1000.362903724978" width="10" height="19.63709627502203" fill="#26a69a" opacity="0.9"/><rect x="387" y="1003.252887507892" width="10" height="16.747112492108045" fill="#26a69a" opacity="0.9"/><rect x="399" y="1000.7253122717538" width="10" height="19.27468772824625" fill="#ef5350" opacity="0.9"/><rect x="411" y="995.075947956771" width="10" height="24.92405204322904" fill="#26a69a" opacity="0.9"/><rect x="423" y="1002.839723195385" width="10" height="17.160276804615023" fill="#ef5350" opacity="0.9"/><rect x="435" y="1003.8845492021442" width="10" height="16.11545079785583" fill="#26a69a" opacity="0.9"/><rect x="447" y="1001.1814951905817" width="10" height="18.8185048094183" fill="#26a69a" opacity="0.9"/><rect x="459" y="1001.3235494373538" width="10" height="18.67645056264621" fill="#26a69a" opacity="0.9"/><rect x="471" y="1004.6353631513141" width="10" height="15.364636848685905" fill="#ef5350" opacity="0.9"/><rect x="483" y="1002.3637331484668" width="10" height="17.63626685153315" fill="#26a69a" opacity="0.9"/><rect x="495" y="1006.1063518983894" width="10" height="13.893648101610552" fill="#ef5350" opacity="0.9"/><rect x="507" y="1003.5623738843016" width="10" height="16.437626115698436" fill="#ef5350" opacity="0.9"/><rect x="519" y="1005.0250064992139" width="10" height="14.974993500786127" fill="#26a69a" opacity="0.9"/><rect x="531" y="1005.4025798784337" width="10" height="14.597420121566302" fill="#26a69a" opacity="0.9"/><rect x="543" y="1007.3269661669493" width="10" height="12.673033833050681" fill="#ef5350" opacity="0.9"/><rect x="555" y="1001.4504388516817" width="10" height="18.549561148318276" fill="#ef5350" opacity="0.9"/><rect x="567" y="1003.8019163396427" width="10" height="16.19808366035727" fill="#26a69a" opacity="0.9"/><rect x="579" y="992.4227212518105" width="10" height="27.577278748189542" fill="#ef5350" opacity="0.9"/><rect x="591" y="1000.9236930390324" width="10" height="19.0763069609676" fill="#26a69a" opacity="0.9"/><rect x="603" y="1003.8594808056549" width="10" height="16.140519194345075" fill="#ef5350" opacity="0.9"/><rect x="615" y="1004.8953317074983" width="10" height="15.104668292501742" fill="#26a69a" opacity="0.9"/><rect x="627" y="1006.9410366555664" width="10" height="13.05896334443355" fill="#ef5350" opacity="0.9"/><rect x="639" y="1004.189702769284" width="10" height="15.810297230715946" fill="#ef5350" opacity="0.9"/><rect x="651" y="1004.587702249347" width="10" height="15.41229775065301" fill="#ef5350" opacity="0.9"/><rect x="663" y="1004.0838584285519" width="10" height="15.916141571448065" fill="#ef5350" opacity="0.9"/><rect x="675" y="997.5072729298456" width="10" height="22.492727070154388" fill="#26a69a" opacity="0.9"/><rect x="687" y="1001.42041867317" width="10" height="18.579581326829953" fill="#26a69a" opacity="0.9"/><rect x="699" y="1004.2014632515877" width="10" height="15.798536748412289" fill="#26a69a" opacity="0.9"/><rect x="711" y="1004.8789289295485" width="10" height="15.121071070451535" fill="#ef5350" opacity="0.9"/><rect x="723" y="1000.7457383725969" width="10" height="19.25426162740314" fill="#ef5350" opacity="0.9"/><rect x="735" y="1003.2730041223585" width="10" height="16.726995877641457" fill="#26a69a" opacity="0.9"/><rect x="747" y="1003.1485905990419" width="10" height="16.85140940095812" fill="#26a69a" opacity="0.9"/><rect x="759" y="1004.2156996249025" width="10" height="15.784300375097473" fill="#ef5350" opacity="0.9"/><rect x="771" y="999.4607509377437" width="10" height="20.539249062256317" fill="#26a69a" opacity="0.9"/><rect x="783" y="1003.6611000383763" width="10" height="16.338899961623724" fill="#ef5350" opacity="0.9"/><rect x="795" y="1002.230963492987" width="10" height="17.76903650701297" fill="#ef5350" opacity="0.9"/><rect x="807" y="1003.5481375109867" width="10" height="16.45186248901325" fill="#ef5350" opacity="0.9"/><rect x="819" y="1002.6376285915894" width="10" height="17.36237140841058" fill="#ef5350" opacity="0.9"/><rect x="831" y="1002.2975030639151" width="10" height="17.702496936084913" fill="#26a69a" opacity="0.9"/><rect x="843" y="1003.9981307022865" width="10" height="16.001869297713483" fill="#ef5350" opacity="0.9"/><rect x="855" y="1003.2782653907575" width="10" height="16.721734609242503" fill="#ef5350" opacity="0.9"/><rect x="867" y="998.712412879585" width="10" height="21.28758712041497" fill="#26a69a" opacity="0.9"/><rect x="879" y="1000.6448458138873" width="10" height="19.355154186112713" fill="#26a69a" opacity="0.9"/><rect x="891" y="999.4691070699067" width="10" height="20.530892930093273" fill="#ef5350" opacity="0.9"/><rect x="903" y="997.4042139665012" width="10" height="22.595786033498825" fill="#ef5350" opacity="0.9"/><rect x="915" y="1005.5984847547011" width="10" height="14.401515245298924" fill="#ef5350" opacity="0.9"/><rect x="927" y="1006.4288367026084" width="10" height="13.57116329739165" fill="#ef5350" opacity="0.9"/><rect x="939" y="991.1717773183625" width="10" height="28.8282226816375" fill="#ef5350" opacity="0.9"/><rect x="951" y="1002.445437551839" width="10" height="17.55456244816105" fill="#26a69a" opacity="0.9"/><rect x="963" y="1000.6203963901509" width="10" height="19.37960360984914" fill="#ef5350" opacity="0.9"/><rect x="975" y="999.4771537156935" width="10" height="20.522846284306524" fill="#26a69a" opacity="0.9"/><rect x="987" y="962.9939712053875" width="10" height="57.00602879461246" fill="#ef5350" opacity="0.9"/><rect x="999" y="860.0" width="10" height="160.0" fill="#ef5350" opacity="0.9"/><rect x="1011" y="979.7118062862872" width="10" height="40.28819371371276" fill="#26a69a" opacity="0.9"/><rect x="1023" y="990.7097141583828" width="10" height="29.29028584161722" fill="#ef5350" opacity="0.9"/><rect x="1035" y="995.774768194704" width="10" height="24.225231805295948" fill="#26a69a" opacity="0.9"/><rect x="1047" y="984.0910385124847" width="10" height="35.908961487515285" fill="#ef5350" opacity="0.9"/><rect x="1059" y="988.9227398209931" width="10" height="31.077260179006885" fill="#26a69a" opacity="0.9"/><rect x="1071" y="988.8048255115809" width="10" height="31.19517448841907" fill="#ef5350" opacity="0.9"/><rect x="1083" y="988.5361913368573" width="10" height="31.463808663142686" fill="#26a69a" opacity="0.9"/><rect x="1095" y="999.8909370009533" width="10" height="20.109062999046728" fill="#ef5350" opacity="0.9"/><rect x="1107" y="996.5661248591837" width="10" height="23.433875140816326" fill="#26a69a" opacity="0.9"/><rect x="1119" y="1002.1891828321717" width="10" height="17.810817167828304" fill="#26a69a" opacity="0.9"/><rect x="1131" y="991.9683952512411" width="10" height="28.031604748758923" fill="#26a69a" opacity="0.9"/><rect x="1143" y="999.8875326508127" width="10" height="20.11246734918734" fill="#26a69a" opacity="0.9"/><rect x="1155" y="995.947771079117" width="10" height="24.052228920882953" fill="#ef5350" opacity="0.9"/><rect x="1167" y="1004.7053070723827" width="10" height="15.294692927617348" fill="#ef5350" opacity="0.9"/><rect x="1179" y="998.4846309065475" width="10" height="21.515369093452478" fill="#26a69a" opacity="0.9"/><rect x="1191" y="997.7034872924894" width="10" height="22.2965127075106" fill="#ef5350" opacity="0.9"/><rect x="1203" y="1005.4338380024511" width="10" height="14.566161997548875" fill="#26a69a" opacity="0.9"/><rect x="1215" y="999.7569293999678" width="10" height="20.243070600032183" fill="#ef5350" opacity="0.9"/><rect x="1227" y="999.4867477933622" width="10" height="20.513252206637844" fill="#26a69a" opacity="0.9"/><rect x="1239" y="1002.7926812661707" width="10" height="17.20731873382931" fill="#ef5350" opacity="0.9"/><rect x="1251" y="995.7623887396477" width="10" height="24.23761126035231" fill="#26a69a" opacity="0.9"/><rect x="1263" y="1001.7995394842719" width="10" height="18.200460515728082" fill="#ef5350" opacity="0.9"/><rect x="1275" y="1004.6242216417634" width="10" height="15.37577835823663" fill="#26a69a" opacity="0.9"/><rect x="1287" y="996.484729942188" width="10" height="23.515270057812018" fill="#ef5350" opacity="0.9"/><rect x="1299" y="998.5620025006499" width="10" height="21.437997499350104" fill="#ef5350" opacity="0.9"/><rect x="1311" y="1002.2501516483244" width="10" height="17.74984835167561" fill="#26a69a" opacity="0.9"/><rect x="1323" y="1003.2451503484816" width="10" height="16.754849651518384" fill="#26a69a" opacity="0.9"/><rect x="1335" y="1003.5097612003119" width="10" height="16.490238799688086" fill="#ef5350" opacity="0.9"/><rect x="1347" y="1002.4751482439743" width="10" height="17.52485175602567" fill="#26a69a" opacity="0.9"/><rect x="1359" y="1004.2441723715322" width="10" height="15.755827628467841" fill="#ef5350" opacity="0.9"/><rect x="1371" y="1000.4034464402877" width="10" height="19.596553559712333" fill="#26a69a" opacity="0.9"/><rect x="1383" y="1001.7193825127817" width="10" height="18.28061748721825" fill="#ef5350" opacity="0.9"/><rect x="1395" y="1002.4754577303507" width="10" height="17.52454226964926" fill="#26a69a" opacity="0.9"/><rect x="1407" y="998.254682528875" width="10" height="21.745317471124963" fill="#26a69a" opacity="0.9"/><rect x="1419" y="998.784213718912" width="10" height="21.215786281087958" fill="#ef5350" opacity="0.9"/><rect x="1431" y="1000.8054692432439" width="10" height="19.19453075675608" fill="#26a69a" opacity="0.9"/><rect x="1443" y="1002.822391958306" width="10" height="17.177608041694043" fill="#26a69a" opacity="0.9"/><rect x="1455" y="1006.3143267433368" width="10" height="13.685673256663222" fill="#ef5350" opacity="0.9"/><rect x="1467" y="1005.6526448705728" width="10" height="14.347355129427228" fill="#ef5350" opacity="0.9"/><rect x="1479" y="1002.6113222495945" width="10" height="17.388677750405463" fill="#ef5350" opacity="0.9"/><rect x="1491" y="999.9707844860669" width="10" height="20.02921551393308" fill="#26a69a" opacity="0.9"/><rect x="1503" y="1004.1739189640872" width="10" height="15.826081035912807" fill="#26a69a" opacity="0.9"/><rect x="1515" y="1002.1387365528169" width="10" height="17.86126344718309" fill="#26a69a" opacity="0.9"/><rect x="1527" y="994.5114448061996" width="10" height="25.48855519380038" fill="#ef5350" opacity="0.9"/><rect x="1539" y="993.5572983077285" width="10" height="26.4427016922715" fill="#26a69a" opacity="0.9"/><rect x="1551" y="1005.1444682405081" width="10" height="14.855531759491896" fill="#ef5350" opacity="0.9"/><rect x="1563" y="1000.3495958107924" width="10" height="19.65040418920762" fill="#26a69a" opacity="0.9"/><rect x="1575" y="1002.7985615073225" width="10" height="17.20143849267754" fill="#26a69a" opacity="0.9"/><rect x="1587" y="996.8527092437391" width="10" height="23.147290756260873" fill="#ef5350" opacity="0.9"/><rect x="1599" y="1001.9025984476164" width="10" height="18.097401552383644" fill="#ef5350" opacity="0.9"/><rect x="1611" y="1001.7778754379232" width="10" height="18.22212456207683" fill="#ef5350" opacity="0.9"/><rect x="1623" y="1001.6370591366568" width="10" height="18.36294086334317" fill="#ef5350" opacity="0.9"/><rect x="1635" y="999.3202441228538" width="10" height="20.67975587714625" fill="#ef5350" opacity="0.9"/><rect x="1647" y="999.9014595377512" width="10" height="20.09854046224882" fill="#26a69a" opacity="0.9"/><rect x="1659" y="995.1585808192723" width="10" height="24.841419180727712" fill="#26a69a" opacity="0.9"/><rect x="1671" y="1000.9122420431053" width="10" height="19.087757956894734" fill="#26a69a" opacity="0.9"/><rect x="1683" y="993.4112207380631" width="10" height="26.588779261936907" fill="#26a69a" opacity="0.9"/><rect x="1695" y="995.0366431869669" width="10" height="24.9633568130331" fill="#26a69a" opacity="0.9"/><rect x="1707" y="1003.1504475173003" width="10" height="16.849552482699664" fill="#ef5350" opacity="0.9"/><rect x="1719" y="996.7805989180356" width="10" height="23.219401081964406" fill="#26a69a" opacity="0.9"/><rect x="1731" y="998.5722155510714" width="10" height="21.427784448928605" fill="#26a69a" opacity="0.9"/><rect x="1743" y="1003.5215216826156" width="10" height="16.47847831738443" fill="#26a69a" opacity="0.9"/><rect x="1755" y="1000.4931974894465" width="10" height="19.506802510553484" fill="#ef5350" opacity="0.9"/><rect x="1767" y="1003.8734076925933" width="10" height="16.126592307406668" fill="#26a69a" opacity="0.9"/><rect x="1779" y="1002.8217729855531" width="10" height="17.17822701444686" fill="#ef5350" opacity="0.9"/><rect x="1791" y="994.3409178127979" width="10" height="25.659082187202102" fill="#26a69a" opacity="0.9"/><rect x="1803" y="1000.5628319241387" width="10" height="19.437168075861337" fill="#ef5350" opacity="0.9"/><rect x="1815" y="990.6295571868926" width="10" height="29.37044281310739" fill="#ef5350" opacity="0.9"/><rect x="1827" y="999.7300040852201" width="10" height="20.269995914779884" fill="#26a69a" opacity="0.9"/><rect x="1839" y="996.4240706124117" width="10" height="23.575929387588303" fill="#ef5350" opacity="0.9"/><rect x="1851" y="977.1975389643347" width="10" height="42.80246103566526" fill="#26a69a" opacity="0.9"/><rect x="1863" y="985.1850728530931" width="10" height="34.81492714690694" fill="#26a69a" opacity="0.9"/><rect x="1875" y="989.5868975847683" width="10" height="30.41310241523172" fill="#26a69a" opacity="0.9"/><rect x="1887" y="997.4593025415021" width="10" height="22.540697458497903" fill="#ef5350" opacity="0.9"/><rect x="1899" y="990.8895257430768" width="10" height="29.110474256923226" fill="#ef5350" opacity="0.9"/><rect x="1911" y="987.2592505477909" width="10" height="32.740749452209116" fill="#26a69a" opacity="0.9"/><rect x="1923" y="936.5635251736219" width="10" height="83.43647482637812" fill="#26a69a" opacity="0.9"/><rect x="1935" y="913.045655430248" width="10" height="106.95434456975204" fill="#26a69a" opacity="0.9"/><rect x="1004" y="658.7015240000028" width="12" height="103.74590199999147" fill="#ff2400" opacity="0.60"/><polyline points="320,437.3816840380641,332,417.41742917729425,344,392.3241321127989,356,370.00069438777246,368,351.8934172079753,380,335.51064261673673,392,320.6881322722893,404,309.1773977701678,416,291.9225345539644,428,278.02108897740254,440,264.3035256462099,452,250.18229958466236,464,236.26588743375123,476,229.75519377339424,488,220.82439322355185,500,215.21428567846215,512,210.7085064709736,524,205.3017734737523,536,196.41974038102035,548,190.5687393923472,560,187.84012268831702,572,185.94140662276004,584,192.77400713488078,596,193.82559178868632,608,196.67713371356967,620,198.11703526465863,632,199.79982504899,644,202.5574194252613,656,207.23750995618957,668,213.94201815082852,680,220.19801261265002,692,223.19804664953153,704,224.202266016232,716,226.8209425861187,728,230.71030786363735,740,233.84923587661888,752,234.02906693597743,764,241.79220360872478,776,247.86594002694073,788,254.1212685958044,800,260.16087311049887,812,266.3853204333236,824,276.38721182063364,836,282.0163476472544,848,288.62946177609956,860,297.0828960831341,872,304.73124140855816,884,304.62077289346325,896,305.3758737607495,908,311.4743684502173,920,317.37207564542587,932,323.2781288220622,944,330.7118197913951,956,335.9174537160243,968,343.47747507640634,980,349.74746202149163,992,358.46048030516613,1004,387.05486541896335,1016,408.55572718858184,1028,438.26947164682224,1040,456.6028492042733,1052,498.0816068038848,1064,511.28862291780024,1076,523.9978712113498,1088,529.9864013816887,1100,538.4447682977225,1112,542.4873711265036,1124,544.6248776858738,1136,532.6880230491042,1148,521.1279684730016,1160,515.0391202374749,1172,513.710400024388,1184,503.0076842125254,1196,498.2645556208354,1208,493.7831427045694,1220,495.61886625651823,1232,495.37965080351114,1244,499.3434556793545,1256,497.7994633289427,1268,499.2526801547683,1280,496.95728985432197,1292,504.7610702491511,1304,518.2820010825708,1316,521.2046945032853,1328,523.6590253124859,1340,530.6298806160612,1352,531.9965639859447,1364,532.2830329396538,1376,526.0818515168239,1388,520.8512805152395,1400,510.4185347518978,1412,498.1292217279133,1424,490.810535658602,1436,483.6188349292115,1448,476.3520148407224,1460,471.29735933208394,1472,467.1041211099691,1484,467.6804876709184,1496,467.63192960702327,1508,464.167801644453,1520,459.7035150116426,1532,463.45484158196086,1544,465.13880181225886,1556,467.8974549729901,1568,466.6881685946237,1580,464.358982061799,1592,469.75704986541587,1604,477.3011672115672,1616,486.40692690569267,1628,495.595525486101,1640,515.4996788683775,1652,523.627636499964,1664,529.0813947380457,1676,529.3604826677665,1688,527.6178772708363,1700,520.1508992450499,1712,515.3901753169521,1724,508.04268071535716,1736,500.34988807578884,1748,491.2046181638061,1760,483.7853749101214,1772,474.6025856806,1784,467.62442361577996,1796,459.7907619380976,1808,454.4132604201877,1820,452.0180424754244,1832,446.81076757301526,1844,442.85946685176896,1856,431.1140157230284,1868,418.58707079702526,1880,406.3031143401531,1892,404.499588022054,1904,408.7581613532848,1916,405.0107238910641,1928,391.54961228239245,1940,373.67018692216334" fill="none" stroke="#0090ff" stroke-width="2"/><line x1="80" y1="50" x2="80" y2="900" stroke="#666666" stroke-width="0.5" stroke-dasharray="4,4" opacity="0.90"/><line x1="152" y1="50" x2="152" y2="900" stroke="#666666" stroke-width="0.5" stroke-dasharray="4,4" opacity="0.90"/><line x1="224" y1="50" x2="224" y2="900" stroke="#666666" stroke-width="0.5" stroke-dasharray="4,4" opacity="0.90"/><line x1="296" y1="50" x2="296" y2="900" stroke="#666666" stroke-width="0.5" stroke-dasharray="4,4" opacity="0.90"/><line x1="368" y1="50" x2="368" y2="900" stroke="#666666" stroke-width="0.5" stroke-dasharray="4,4" opacity="0.90"/><line x1="434" y1="30" x2="434" y2="950" stroke="black" stroke-width="0.7"/><line x1="440" y1="50" x2="440" y2="900" stroke="#666666" stroke-width="0.5" stroke-dasharray="4,4" opacity="0.90"/><line x1="512" y1="50" x2="512" y2="900" stroke="#666666" stroke-width="0.5" stroke-dasharray="4,4" opacity="0.90"/><line x1="584" y1="50" x2="584" y2="900" stroke="#666666" stroke-width="0.5" stroke-dasharray="4,4" opacity="0.90"/><line x1="656" y1="50" x2="656" y2="900" stroke="#666666" stroke-width="0.5" stroke-dasharray="4,4" opacity="0.90"/><line x1="728" y1="50" x2="728" y2="900" stroke="#666666" stroke-width="0.5" stroke-dasharray="4,4" opacity="0.90"/><line x1="800" y1="50" x2="800" y2="900" stroke="#666666" stroke-width="0.5" stroke-dasharray="4,4" opacity="0.90"/><line x1="872" y1="50" x2="872" y2="900" stroke="#666666" stroke-width="0.5" stroke-dasharray="4,4" opacity="0.90"/><line x1="944" y1="50" x2="944" y2="900" stroke="#666666" stroke-width="0.5" stroke-dasharray="4,4" opacity="0.90"/><line x1="1016" y1="50" x2="1016" y2="900" stroke="#666666" stroke-width="0.5" stroke-dasharray="4,4" opacity="0.90"/><line x1="1088" y1="50" x2="1088" y2="900" stroke="#666666" stroke-width="0.5" stroke-dasharray="4,4" opacity="0.90"/><line x1="1160" y1="50" x2="1160" y2="900" stroke="#666666" stroke-width="0.5" stroke-dasharray="4,4" opacity="0.90"/><line x1="1232" y1="50" x2="1232" y2="900" stroke="#666666" stroke-width="0.5" stroke-dasharray="4,4" opacity="0.90"/><line x1="1304" y1="50" x2="1304" y2="900" stroke="#666666" stroke-width="0.5" stroke-dasharray="4,4" opacity="0.90"/><line x1="1370" y1="30" x2="1370" y2="950" stroke="black" stroke-width="0.7"/><line x1="1376" y1="50" x2="1376" y2="900" stroke="#666666" stroke-width="0.5" stroke-dasharray="4,4" opacity="0.90"/><line x1="1448" y1="50" x2="1448" y2="900" stroke="#666666" stroke-width="0.5" stroke-dasharray="4,4" opacity="0.90"/><line x1="1520" y1="50" x2="1520" y2="900" stroke="#666666" stroke-width="0.5" stroke-dasharray="4,4" opacity="0.90"/><line x1="1592" y1="50" x2="1592" y2="900" stroke="#666666" stroke-width="0.5" stroke-dasharray="4,4" opacity="0.90"/><line x1="1664" y1="50" x2="1664" y2="900" stroke="#666666" stroke-width="0.5" stroke-dasharray="4,4" opacity="0.90"/><line x1="1736" y1="50" x2="1736" y2="900" stroke="#666666" stroke-width="0.5" stroke-dasharray="4,4" opacity="0.90"/><line x1="1808" y1="50" x2="1808" y2="900" stroke="#666666" stroke-width="0.5" stroke-dasharray="4,4" opacity="0.90"/><line x1="1880" y1="50" x2="1880" y2="900" stroke="#666666" stroke-width="0.5" stroke-dasharray="4,4" opacity="0.90"/><text x="80" y="1040" text-anchor="middle" font-size="20" fill="black">13:30</text><text x="152" y="1040" text-anchor="middle" font-size="20" fill="black">14:00</text><text x="224" y="1040" text-anchor="middle" font-size="20" fill="black">14:30</text><text x="296" y="1040" text-anchor="middle" font-size="20" fill="black">15:00</text><text x="368" y="1040" text-anchor="middle" font-size="20" fill="black">15:30</text><text x="440" y="1040" text-anchor="middle" font-size="20" fill="black">16:00</text><text x="512" y="1040" text-anchor="middle" font-size="20" fill="black">16:30</text><text x="584" y="1040" text-anchor="middle" font-size="20" fill="black">17:00</text><text x="656" y="1040" text-anchor="middle" font-size="20" fill="black">17:30</text><text x="728" y="1040" text-anchor="middle" font-size="20" fill="black">18:00</text><text x="800" y="1040" text-anchor="middle" font-size="20" fill="black">18:30</text><text x="872" y="1040" text-anchor="middle" font-size="20" fill="black">19:00</text><text x="944" y="1040" text-anchor="middle" font-size="20" fill="black">19:30</text><text x="1016" y="1040" text-anchor="middle" font-size="20" fill="black">13:30</text><text x="1088" y="1040" text-anchor="middle" font-size="20" fill="black">14:00</text><text x="1160" y="1040" text-anchor="middle" font-size="20" fill="black">14:30</text><text x="1232" y="1040" text-anchor="middle" font-size="20" fill="black">15:00</text><text x="1304" y="1040" text-anchor="middle" font-size="20" fill="black">15:30</text><text x="1376" y="1040" text-anchor="middle" font-size="20" fill="black">16:00</text><text x="1448" y="1040" text-anchor="middle" font-size="20" fill="black">16:30</text><text x="1520" y="1040" text-anchor="middle" font-size="20" fill="black">17:00</text><text x="1592" y="1040" text-anchor="middle" font-size="20" fill="black">17:30</text><text x="1664" y="1040" text-anchor="middle" font-size="20" fill="black">18:00</text><text x="1736" y="1040" text-anchor="middle" font-size="20" fill="black">18:30</text><text x="1808" y="1040" text-anchor="middle" font-size="20" fill="black">19:00</text><text x="1880" y="1040" text-anchor="middle" font-size="20" fill="black">19:30</text><text x="1942" y="50" text-anchor="end" font-size="40" fill="#26a69a" font-weight="bold"> +0.49% (Tue)</text></svg>