<svg xmlns="http://www.w3.org/2000/svg" width="1992" height="1050"><rect width="100%" height="100%" fill="white"/><text x="42" y="854.0" text-anchor="end" font-size="20" fill="black">595</text><text x="42" y="792.4615384615385" text-anchor="end" font-size="20" fill="black">596</text><text x="42" y="730.9230769230769" text-anchor="end" font-size="20" fill="black">597</text><text x="42" y="669.3846153846154" text-anchor="end" font-size="20" fill="black">598</text><text x="42" y="607.8461538461538" text-anchor="end" font-size="20" fill="black">599</text><text x="42" y="546.3076923076923" text-anchor="end" font-size="20" fill="black">600</text><text x="42" y="484.7692307692308" text-anchor="end" font-size="20" fill="black">601</text><text x="42" y="423.2307692307692" text-anchor="end" font-size="20" fill="black">602</text><text x="42" y="361.6923076923077" text-anchor="end" font-size="20" fill="black">603</text><text x="42" y="300.1538461538462" text-anchor="end" font-size="20" fill="black">604</text><text x="42" y="238.61538461538453" text-anchor="end" font-size="20" fill="black">605</text><text x="42" y="177.0769230769231" text-anchor="end" font-size="20" fill="black">606</text><text x="42" y="115.53846153846155" text-anchor="end" font-size="20" fill="black">607</text><text x="42" y="54.0" text-anchor="end" font-size="20" fill="black">608</text><line x1="80" y1="187.2657963076913" x2="80" y2="281.2984763076902" stroke="#26a69a" stroke-width="2"/><rect x="76" y="212.40263692307758" width="8" height="63.364505230765644" fill="#26a69a"/><line x1="92" y1="210.0057255384645" x2="92" y2="264.08988123077086" stroke="#ef5350" stroke-width="2"/><rect x="88" y="210.0057255384645" width="8" height="43.636079999997946" fill="#ef5350"/><line x1="104" y1="203.24520615384665" x2="104" y2="286.21521784615163" stroke="#26a69a" stroke-width="2"/><rect x="100" y="206.93276246153732" width="8" height="44.86526523076873" fill="#26a69a"/><line x1="116" y1="158.3799409230778" x2="116" y2="272.07958584615244" stroke="#ef5350" stroke-width="2"/><rect x="112" y="208.1619476923081" width="8" height="60.844675076924204" fill="#ef5350"/><line x1="128" y1="237.04780369230662" x2="128" y2="303.42381230769274" stroke="#26a69a" stroke-width="2"/><rect x="124" y="247.4958787692301" width="8" height="18.43778030768999" fill="#26a69a"/><line x1="140" y1="200.78683569230498" x2="140" y2="271.46499323076705" stroke="#ef5350" stroke-width="2"/><rect x="136" y="245.03750830769536" width="8" height="4.916741538461565" fill="#ef5350"/><line x1="152" y1="232.13106215384528" x2="152" y2="290.5173661538496" stroke="#26a69a" stroke-width="2"/><rect x="148" y="241.96454461538315" width="8" height="8.604297846152122" fill="#26a69a"/><line x1="164" y1="214.30787446154045" x2="164" y2="278.8401052307703" stroke="#ef5350" stroke-width="2"/><rect x="160" y="243.19373046153908" width="8" height="21.510743384617285" fill="#ef5350"/><line x1="176" y1="249.33965723077142" x2="176" y2="321.86159261538285" stroke="#ef5350" stroke-width="2"/><rect x="172" y="262.86069599999996" width="8" height="14.135631384614044" fill="#ef5350"/><line x1="188" y1="207.5473550769227" x2="188" y2="296.0487003076896" stroke="#26a69a" stroke-width="2"/><rect x="184" y="237.66239630769212" width="8" height="39.948523692307276" fill="#26a69a"/><line x1="200" y1="175.58853599999702" x2="200" y2="241.96454461538315" stroke="#26a69a" stroke-width="2"/><rect x="196" y="215.5370596923044" width="8" height="22.12533661538771" fill="#26a69a"/><line x1="212" y1="192.18253784615285" x2="212" y2="275.7671421538432" stroke="#ef5350" stroke-width="2"/><rect x="208" y="215.5370596923044" width="8" height="7.9897046153885185" fill="#ef5350"/><line x1="224" y1="178.0469064615388" x2="224" y2="222.29757907692215" stroke="#26a69a" stroke-width="2"/><rect x="220" y="181.11986953845894" width="8" height="40.563116923077814" fill="#26a69a"/><line x1="236" y1="128.8794923076939" x2="236" y2="187.8803895384617" stroke="#26a69a" stroke-width="2"/><rect x="232" y="155.30697723077265" width="8" height="27.042078153842112" fill="#26a69a"/><line x1="248" y1="79.712078153849" x2="248" y2="158.9945335384632" stroke="#26a69a" stroke-width="2"/><rect x="244" y="92.61852430769204" width="8" height="63.91763815384434" fill="#26a69a"/><line x1="260" y1="79.0974855384635" x2="260" y2="153.46319938461625" stroke="#ef5350" stroke-width="2"/><rect x="256" y="92.61852430769204" width="8" height="36.26096800000187" fill="#ef5350"/><line x1="272" y1="132.56704861538446" x2="272" y2="187.2657963076913" stroke="#ef5350" stroke-width="2"/><rect x="268" y="133.79623384615536" width="8" height="4.9167415384614515" fill="#ef5350"/><line x1="284" y1="124.57734338461773" x2="284" y2="200.78683569230498" stroke="#ef5350" stroke-width="2"/><rect x="280" y="141.78593846153694" width="8" height="43.636079999997946" fill="#ef5350"/><line x1="296" y1="159.6091261538486" x2="296" y2="202.01602092307576" stroke="#ef5350" stroke-width="2"/><rect x="292" y="183.57824061538577" width="8" height="6.760519384617737" fill="#ef5350"/><line x1="308" y1="155.30697723077265" x2="308" y2="232.74565476923067" stroke="#26a69a" stroke-width="2"/><rect x="304" y="158.3799409230778" width="8" height="31.344226461540302" fill="#26a69a"/><line x1="320" y1="149.7756430769257" x2="320" y2="186.6512036923059" stroke="#ef5350" stroke-width="2"/><rect x="316" y="158.3799409230778" width="8" height="2" fill="#ef5350"/><line x1="332" y1="155.30697723077265" x2="332" y2="195.8700941538434" stroke="#ef5350" stroke-width="2"/><rect x="328" y="161.45290399999794" width="8" height="4.916741538461565" fill="#ef5350"/><line x1="344" y1="155.921569846151" x2="344" y2="221.06839384615137" stroke="#ef5350" stroke-width="2"/><rect x="340" y="166.9842381538449" width="8" height="49.78200676923029" fill="#ef5350"/><line x1="356" y1="215.5370596923044" x2="356" y2="314.48648061538665" stroke="#ef5350" stroke-width="2"/><rect x="352" y="217.38083753846058" width="8" height="69.44897292307655" fill="#ef5350"/><line x1="368" y1="254.25639815384784" x2="368" y2="342.7577439999998" stroke="#26a69a" stroke-width="2"/><rect x="364" y="254.25639815384784" width="8" height="32.573412307689296" fill="#26a69a"/><line x1="380" y1="235.20402523077223" x2="380" y2="286.82981046153714" stroke="#ef5350" stroke-width="2"/><rect x="376" y="254.25639815384784" width="8" height="18.437780307690105" fill="#ef5350"/><line x1="392" y1="270.2358080000033" x2="392" y2="376.56034092307476" stroke="#ef5350" stroke-width="2"/><rect x="388" y="272.69417846153794" width="8" height="72.52193600000356" fill="#ef5350"/><line x1="404" y1="339.68478030769455" x2="404" y2="399.30027015384786" stroke="#ef5350" stroke-width="2"/><rect x="400" y="343.37233661538517" width="8" height="42.406894769227165" fill="#ef5350"/><line x1="416" y1="314.48648061538665" x2="416" y2="385.16463876923393" stroke="#26a69a" stroke-width="2"/><rect x="412" y="361.1955243076898" width="8" height="23.96911446154411" fill="#26a69a"/><line x1="428" y1="355.04959753846447" x2="428" y2="420.19642092307964" stroke="#ef5350" stroke-width="2"/><rect x="424" y="358.73715323077005" width="8" height="23.354521846151556" fill="#ef5350"/><line x1="440" y1="379.633304615387" x2="440" y2="439.2487938461552" stroke="#ef5350" stroke-width="2"/><rect x="436" y="387.00841661538317" width="8" height="2.458370461541733" fill="#ef5350"/><line x1="452" y1="346.4452996923053" x2="452" y2="399.91486276923337" stroke="#26a69a" stroke-width="2"/><rect x="448" y="387.62300923076856" width="8" height="2" fill="#26a69a"/><line x1="464" y1="348.28907815384673" x2="464" y2="410.97753107692023" stroke="#26a69a" stroke-width="2"/><rect x="460" y="369.7998215384639" width="8" height="11.67726092307231" fill="#26a69a"/><line x1="476" y1="346.4452996923053" x2="476" y2="482.27028123076775" stroke="#ef5350" stroke-width="2"/><rect x="472" y="371.6435993846132" width="8" height="100.17860676923118" fill="#ef5350"/><line x1="488" y1="426.9569403076905" x2="488" y2="496.4059132307669" stroke="#26a69a" stroke-width="2"/><rect x="484" y="442.3217575384604" width="8" height="28.88585599999857" fill="#26a69a"/><line x1="500" y1="430.0299040000027" x2="500" y2="534.5106590769249" stroke="#ef5350" stroke-width="2"/><rect x="496" y="443.5509427692313" width="8" height="80.51164061538515" fill="#ef5350"/><line x1="512" y1="522.8333981538456" x2="512" y2="701.6798670769206" stroke="#ef5350" stroke-width="2"/><rect x="508" y="522.8333981538456" width="8" height="162.86705969231184" fill="#ef5350"/><line x1="524" y1="600.2720756923106" x2="524" y2="686.9296430769211" stroke="#26a69a" stroke-width="2"/><rect x="520" y="663.5751212307696" width="8" height="22.739929230766165" fill="#26a69a"/><line x1="536" y1="592.8969630769224" x2="536" y2="707.8257938461529" stroke="#26a69a" stroke-width="2"/><rect x="532" y="634.6892652307711" width="8" height="28.27126338461312" fill="#26a69a"/><line x1="548" y1="621.1682264615355" x2="548" y2="736.0970572307662" stroke="#26a69a" stroke-width="2"/><rect x="544" y="626.0849679999969" width="8" height="12.291853538464807" fill="#26a69a"/><line x1="560" y1="545.5733273846188" x2="560" y2="631.0017095384585" stroke="#26a69a" stroke-width="2"/><rect x="556" y="556.6359956923056" width="8" height="72.52193538461847" fill="#26a69a"/><line x1="572" y1="438.6342012307698" x2="572" y2="557.2505883076911" stroke="#26a69a" stroke-width="2"/><rect x="568" y="447.8530916923074" width="8" height="109.39749661538377" fill="#26a69a"/><line x1="584" y1="431.2590892307666" x2="584" y2="570.1570344615412" stroke="#ef5350" stroke-width="2"/><rect x="580" y="444.78012800000215" width="8" height="101.40779199999508" fill="#ef5350"/><line x1="596" y1="469.97842769231" x2="596" y2="596.584519384613" stroke="#26a69a" stroke-width="2"/><rect x="592" y="501.3226547692284" width="8" height="41.17770892307817" fill="#26a69a"/><line x1="608" y1="452.1552406153835" x2="608" y2="527.7501396923071" stroke="#26a69a" stroke-width="2"/><rect x="604" y="504.3956178461555" width="8" height="3.68755630769067" fill="#26a69a"/><line x1="620" y1="392.53975076923007" x2="620" y2="522.8333981538456" stroke="#26a69a" stroke-width="2"/><rect x="616" y="436.79042338461346" width="8" height="67.60519446154206" fill="#26a69a"/><line x1="632" y1="432.48827446153746" x2="632" y2="524.0625833846165" stroke="#ef5350" stroke-width="2"/><rect x="628" y="441.707164923075" width="8" height="54.08415569230641" fill="#ef5350"/><line x1="644" y1="436.17583076922807" x2="644" y2="509.9269520000024" stroke="#26a69a" stroke-width="2"/><rect x="640" y="442.9363501538459" width="8" height="51.62578523077167" fill="#26a69a"/><line x1="656" y1="402.373233230768" x2="656" y2="477.35354030769133" stroke="#ef5350" stroke-width="2"/><rect x="652" y="445.39472061538754" width="8" height="13.521039384613687" fill="#ef5350"/><line x1="668" y1="433.10286707692285" x2="668" y2="493.33294953846166" stroke="#ef5350" stroke-width="2"/><rect x="664" y="460.7595378461506" width="8" height="31.344226461540188" fill="#ef5350"/><line x1="680" y1="487.1870227692293" x2="680" y2="559.0943661538474" stroke="#ef5350" stroke-width="2"/><rect x="676" y="492.10376430769077" width="8" height="35.03178276923097" fill="#ef5350"/><line x1="692" y1="509.9269520000024" x2="692" y2="568.3132559999999" stroke="#26a69a" stroke-width="2"/><rect x="688" y="519.145841846155" width="8" height="6.1459267692323465" fill="#26a69a"/><line x1="704" y1="516.0728787692278" x2="704" y2="593.5115563076929" stroke="#ef5350" stroke-width="2"/><rect x="700" y="519.145841846155" width="8" height="65.14682400000027" fill="#ef5350"/><line x1="716" y1="538.1982153846155" x2="716" y2="581.2197027692281" stroke="#26a69a" stroke-width="2"/><rect x="712" y="539.4274006153864" width="8" height="39.333931076921886" fill="#26a69a"/><line x1="728" y1="530.2085101538488" x2="728" y2="644.5227483076941" stroke="#ef5350" stroke-width="2"/><rect x="724" y="540.0419932307718" width="8" height="104.48075507692226" fill="#ef5350"/><line x1="740" y1="634.6892652307711" x2="740" y2="697.992311384615" stroke="#ef5350" stroke-width="2"/><rect x="736" y="642.6789704615378" width="8" height="43.021487384619604" fill="#ef5350"/><line x1="752" y1="669.1064553846165" x2="752" y2="787.7228418461527" stroke="#ef5350" stroke-width="2"/><rect x="748" y="683.856679384616" width="8" height="85.42838215384666" fill="#ef5350"/><line x1="764" y1="743.4721692307693" x2="764" y2="838.1194412307685" stroke="#ef5350" stroke-width="2"/><rect x="760" y="770.5142467692335" width="8" height="55.31334092307725" fill="#ef5350"/><line x1="776" y1="723.8052036923084" x2="776" y2="831.3589218461507" stroke="#26a69a" stroke-width="2"/><rect x="772" y="756.3786153846124" width="8" height="69.44897230769834" fill="#26a69a"/><line x1="788" y1="736.0970572307662" x2="788" y2="816.6086978461512" stroke="#ef5350" stroke-width="2"/><rect x="784" y="755.7640227692341" width="8" height="31.344226461533253" fill="#ef5350"/><line x1="800" y1="758.8369858461542" x2="800" y2="867.005297230767" stroke="#ef5350" stroke-width="2"/><rect x="796" y="786.4936566153818" width="8" height="63.917638153851385" fill="#ef5350"/><line x1="812" y1="741.628391384613" x2="812" y2="864.5469267692323" stroke="#26a69a" stroke-width="2"/><rect x="808" y="777.2747661538443" width="8" height="68.21978769231248" fill="#26a69a"/><line x1="824" y1="661.7313433846133" x2="824" y2="784.0352861538472" stroke="#26a69a" stroke-width="2"/><rect x="820" y="688.158828307692" width="8" height="87.27216000000294" fill="#26a69a"/><line x1="836" y1="640.220599384618" x2="836" y2="704.1382381538474" stroke="#ef5350" stroke-width="2"/><rect x="832" y="686.9296430769211" width="8" height="9.218889846152479" fill="#ef5350"/><line x1="848" y1="648.8248972307701" x2="848" y2="717.0446843076907" stroke="#26a69a" stroke-width="2"/><rect x="844" y="648.8248972307701" width="8" height="43.021487384612556" fill="#26a69a"/><line x1="860" y1="634.0746726153856" x2="860" y2="668.4918627692311" stroke="#26a69a" stroke-width="2"/><rect x="856" y="636.5330436923055" width="8" height="11.062667692308764" fill="#26a69a"/><line x1="872" y1="618.7098560000007" x2="872" y2="687.5442356923066" stroke="#ef5350" stroke-width="2"/><rect x="868" y="633.4600800000002" width="8" height="19.052372923075495" fill="#ef5350"/><line x1="884" y1="628.5433384615387" x2="884" y2="672.7940110769221" stroke="#26a69a" stroke-width="2"/><rect x="880" y="650.6686750769264" width="8" height="2" fill="#26a69a"/><line x1="896" y1="608.8763729230777" x2="896" y2="705.3674233846183" stroke="#ef5350" stroke-width="2"/><rect x="892" y="653.1270455384611" width="8" height="49.167414153845016" fill="#ef5350"/><line x1="908" y1="685.0858646153868" x2="908" y2="744.0867618461548" stroke="#ef5350" stroke-width="2"/><rect x="904" y="699.221496615386" width="8" height="38.10474584615099" fill="#ef5350"/><line x1="920" y1="696.7631255384591" x2="920" y2="793.8687686153851" stroke="#26a69a" stroke-width="2"/><rect x="916" y="709.6695723076944" width="8" height="27.656670153842583" fill="#26a69a"/><line x1="932" y1="695.5339403076953" x2="932" y2="752.6910590769219" stroke="#ef5350" stroke-width="2"/><rect x="928" y="705.9820159999967" width="8" height="25.812892307693232" fill="#ef5350"/><line x1="944" y1="716.4300916923052" x2="944" y2="771.7434326153824" stroke="#ef5350" stroke-width="2"/><rect x="940" y="731.1803156923046" width="8" height="14.750224000006483" fill="#ef5350"/><line x1="956" y1="672.1794184615367" x2="956" y2="758.8369858461542" stroke="#26a69a" stroke-width="2"/><rect x="952" y="718.8884621538468" width="8" height="26.427484923078737" fill="#26a69a"/><line x1="968" y1="663.5751212307696" x2="968" y2="718.8884621538468" stroke="#26a69a" stroke-width="2"/><rect x="964" y="674.6377895384635" width="8" height="43.636079999997946" fill="#26a69a"/><line x1="980" y1="631.0017095384585" x2="980" y2="705.3674233846183" stroke="#26a69a" stroke-width="2"/><rect x="976" y="632.8454873846148" width="8" height="43.021487384612556" fill="#26a69a"/><line x1="992" y1="582.448887999999" x2="992" y2="656.2000092307663" stroke="#26a69a" stroke-width="2"/><rect x="988" y="589.8240000000022" width="8" height="44.86526523076884" fill="#26a69a"/><line x1="1004" y1="568.9278492307704" x2="1004" y2="637.7622289230762" stroke="#ef5350" stroke-width="2"/><rect x="1000" y="588.5948147692313" width="8" height="2.4583704615347415" fill="#ef5350"/><line x1="1016" y1="634.6892652307711" x2="1016" y2="770.5142467692335" stroke="#26a69a" stroke-width="2"/><rect x="1012" y="649.4394898461555" width="8" height="66.37600861538613" fill="#26a69a"/><line x1="1028" y1="597.1991119999984" x2="1028" y2="725.0343889230792" stroke="#ef5350" stroke-width="2"/><rect x="1024" y="653.7416381538466" width="8" height="62.68845353845859" fill="#ef5350"/><line x1="1040" y1="701.6798670769206" x2="1040" y2="812.3065489230752" stroke="#ef5350" stroke-width="2"/><rect x="1036" y="715.8154984615417" width="8" height="65.76141661537872" fill="#ef5350"/><line x1="1052" y1="644.5227483076941" x2="1052" y2="804.3168443076936" stroke="#26a69a" stroke-width="2"/><rect x="1048" y="673.4086043076926" width="8" height="108.16831076922779" fill="#26a69a"/><line x1="1064" y1="529.5939175384634" x2="1064" y2="677.7107526153836" stroke="#26a69a" stroke-width="2"/><rect x="1060" y="550.4900689230803" width="8" height="123.53312799999776" fill="#26a69a"/><line x1="1076" y1="491.4891716923054" x2="1076" y2="600.8866683076891" stroke="#ef5350" stroke-width="2"/><rect x="1072" y="550.182772307695" width="8" height="40.87041292307106" fill="#ef5350"/><line x1="1088" y1="499.478876307694" x2="1088" y2="656.2000092307663" stroke="#26a69a" stroke-width="2"/><rect x="1084" y="551.7192541538442" width="8" height="39.948523692307276" fill="#26a69a"/><line x1="1100" y1="503.78102523077007" x2="1100" y2="603.3450387692308" stroke="#ef5350" stroke-width="2"/><rect x="1096" y="552.3338467692296" width="8" height="41.17770953846332" fill="#ef5350"/><line x1="1112" y1="418.9672356923088" x2="1112" y2="599.6574830769252" stroke="#26a69a" stroke-width="2"/><rect x="1108" y="431.2590892307666" width="8" height="162.86705969231167" fill="#26a69a"/><line x1="1124" y1="385.77923138461233" x2="1124" y2="488.41620861538524" stroke="#ef5350" stroke-width="2"/><rect x="1120" y="430.0299040000027" width="8" height="45.47985784615423" fill="#ef5350"/><line x1="1136" y1="433.71746030769333" x2="1136" y2="510.5415446153879" stroke="#26a69a" stroke-width="2"/><rect x="1132" y="452.7698332307689" width="8" height="18.437780307690105" fill="#26a69a"/><line x1="1148" y1="423.88397723077037" x2="1148" y2="483.4994670769237" stroke="#ef5350" stroke-width="2"/><rect x="1144" y="453.38442584615433" width="8" height="8.604297230767031" fill="#ef5350"/><line x1="1160" y1="455.22820369231056" x2="1160" y2="542.5003636923066" stroke="#ef5350" stroke-width="2"/><rect x="1156" y="461.98872307692136" width="8" height="78.05327015385046" fill="#ef5350"/><line x1="1172" y1="532.6668812307687" x2="1172" y2="615.0222996923101" stroke="#ef5350" stroke-width="2"/><rect x="1168" y="538.812808000001" width="8" height="74.36571384615274" fill="#ef5350"/><line x1="1184" y1="532.0522886153832" x2="1184" y2="645.7519335384649" stroke="#26a69a" stroke-width="2"/><rect x="1180" y="612.5639292307684" width="8" height="2.4583704615416764" fill="#26a69a"/><line x1="1196" y1="524.0625833846165" x2="1196" y2="637.1476363076908" stroke="#26a69a" stroke-width="2"/><rect x="1192" y="563.3965150769235" width="8" height="49.1674141538449" fill="#26a69a"/><line x1="1208" y1="526.5209544615362" x2="1208" y2="605.8034098461505" stroke="#ef5350" stroke-width="2"/><rect x="1204" y="561.5527366153821" width="8" height="31.95881969231084" fill="#ef5350"/><line x1="1220" y1="591.6677778461515" x2="1220" y2="700.4506818461568" stroke="#ef5350" stroke-width="2"/><rect x="1216" y="594.1261489230783" width="8" height="84.19919630769073" fill="#ef5350"/><line x1="1232" y1="559.7089587692328" x2="1232" y2="695.5339403076953" stroke="#26a69a" stroke-width="2"/><rect x="1228" y="587.3656295384606" width="8" height="89.11593784615218" fill="#26a69a"/><line x1="1244" y1="541.2711784615357" x2="1244" y2="612.5639292307684" stroke="#ef5350" stroke-width="2"/><rect x="1240" y="591.6677778461515" width="8" height="20.89615138461693" fill="#ef5350"/><line x1="1256" y1="561.5527366153821" x2="1256" y2="712.1279427692291" stroke="#ef5350" stroke-width="2"/><rect x="1252" y="613.7931144615393" width="8" height="98.3348283076898" fill="#ef5350"/><line x1="1268" y1="638.9914141538471" x2="1268" y2="719.5030547692322" stroke="#26a69a" stroke-width="2"/><rect x="1264" y="702.2944596923061" width="8" height="10.448075692308407" fill="#26a69a"/><line x1="1280" y1="686.9296430769211" x2="1280" y2="752.0764664615364" stroke="#ef5350" stroke-width="2"/><rect x="1276" y="704.1382381538474" width="8" height="44.25067261538345" fill="#ef5350"/><line x1="1292" y1="686.9296430769211" x2="1292" y2="773.5872104615387" stroke="#26a69a" stroke-width="2"/><rect x="1288" y="721.961425230767" width="8" height="23.96911446154411" fill="#26a69a"/><line x1="1304" y1="688.158828307692" x2="1304" y2="766.826691076921" stroke="#ef5350" stroke-width="2"/><rect x="1300" y="720.7322400000031" width="8" height="29.500448615384016" fill="#ef5350"/><line x1="1316" y1="694.3047550769244" x2="1316" y2="810.462771076926" stroke="#26a69a" stroke-width="2"/><rect x="1312" y="699.221496615386" width="8" height="47.32363569230347" fill="#26a69a"/><line x1="1328" y1="629.7725236923095" x2="1328" y2="701.6798670769206" stroke="#26a69a" stroke-width="2"/><rect x="1324" y="640.8351920000034" width="8" height="55.927933538455704" fill="#26a69a"/><line x1="1340" y1="570.7716270769197" x2="1340" y2="655.5854166153879" stroke="#26a69a" stroke-width="2"/><rect x="1336" y="579.9905169230792" width="8" height="60.844675076924204" fill="#26a69a"/><line x1="1352" y1="530.8231027692343" x2="1352" y2="603.9596313846162" stroke="#26a69a" stroke-width="2"/><rect x="1348" y="570.710167999998" width="8" height="9.280348923081192" fill="#26a69a"/><line x1="1364" y1="516.6874713846132" x2="1364" y2="577.5321464615374" stroke="#26a69a" stroke-width="2"/><rect x="1360" y="553.5630320000005" width="8" height="17.8231876923046" fill="#26a69a"/><line x1="1376" y1="452.7698332307689" x2="1376" y2="552.948439384615" stroke="#26a69a" stroke-width="2"/><rect x="1372" y="467.5200572307683" width="8" height="85.42838215384666" fill="#26a69a"/><line x1="1388" y1="431.2590892307666" x2="1388" y2="482.27028123076775" stroke="#26a69a" stroke-width="2"/><rect x="1384" y="434.9466455384642" width="8" height="34.41718953846038" fill="#26a69a"/><line x1="1400" y1="435.5612381538426" x2="1400" y2="468.7492424615392" stroke="#ef5350" stroke-width="2"/><rect x="1396" y="435.5612381538426" width="8" height="15.97940923077033" fill="#ef5350"/><line x1="1412" y1="406.0607895384587" x2="1412" y2="474.28057661538617" stroke="#ef5350" stroke-width="2"/><rect x="1408" y="451.54064738461295" width="8" height="9.833483076923017" fill="#ef5350"/><line x1="1424" y1="416.5088652307672" x2="1424" y2="465.06168676923363" stroke="#26a69a" stroke-width="2"/><rect x="1420" y="423.88397723077037" width="8" height="36.87556061538021" fill="#26a69a"/><line x1="1436" y1="394.9981212307718" x2="1436" y2="444.78012800000215" stroke="#26a69a" stroke-width="2"/><rect x="1432" y="406.0607895384587" width="8" height="17.82318769231165" fill="#26a69a"/><line x1="1448" y1="370.41441415384935" x2="1448" y2="436.17583076922807" stroke="#ef5350" stroke-width="2"/><rect x="1444" y="405.4461969230802" width="8" height="28.27126338461312" fill="#ef5350"/><line x1="1460" y1="388.23760184615406" x2="1460" y2="450.92605476922756" stroke="#26a69a" stroke-width="2"/><rect x="1456" y="430.6444966153811" width="8" height="2" fill="#26a69a"/><line x1="1472" y1="416.5088652307672" x2="1472" y2="474.89516923077156" stroke="#ef5350" stroke-width="2"/><rect x="1468" y="429.4153113846173" width="8" height="23.969114461537004" fill="#ef5350"/><line x1="1484" y1="399.30027015384786" x2="1484" y2="491.4891716923054" stroke="#26a69a" stroke-width="2"/><rect x="1480" y="400.52945538461876" width="8" height="52.240377846150125" fill="#26a69a"/><line x1="1496" y1="369.7998215384639" x2="1496" y2="500.7080615384649" stroke="#ef5350" stroke-width="2"/><rect x="1492" y="400.52945538461876" width="8" height="92.8034941538429" fill="#ef5350"/><line x1="1508" y1="465.06168676923363" x2="1508" y2="522.8333981538456" stroke="#26a69a" stroke-width="2"/><rect x="1504" y="474.28057661538617" width="8" height="15.364817230769916" fill="#26a69a"/><line x1="1520" y1="466.2908719999975" x2="1520" y2="520.3750276923109" stroke="#ef5350" stroke-width="2"/><rect x="1516" y="473.0513913846153" width="8" height="35.031782769230915" fill="#ef5350"/><line x1="1532" y1="468.13464984615376" x2="1532" y2="530.2085101538488" stroke="#ef5350" stroke-width="2"/><rect x="1528" y="509.312359384617" width="8" height="2" fill="#ef5350"/><line x1="1544" y1="482.8848744615383" x2="1544" y2="554.1776246153859" stroke="#26a69a" stroke-width="2"/><rect x="1540" y="501.9372473846138" width="8" height="9.833482461537983" fill="#26a69a"/><line x1="1556" y1="500.7080615384649" x2="1556" y2="570.7716270769197" stroke="#ef5350" stroke-width="2"/><rect x="1552" y="507.40712184615404" width="8" height="52.91642953846417" fill="#ef5350"/><line x1="1568" y1="497.02050584615233" x2="1568" y2="582.448887999999" stroke="#26a69a" stroke-width="2"/><rect x="1564" y="514.2291009230786" width="8" height="45.47985784615423" fill="#26a69a"/><line x1="1580" y1="511.77072984615177" x2="1580" y2="544.344142153848" stroke="#ef5350" stroke-width="2"/><rect x="1576" y="513.6145083076931" width="8" height="23.354521230766522" fill="#ef5350"/><line x1="1592" y1="479.1973181538476" x2="1592" y2="550.4900689230803" stroke="#26a69a" stroke-width="2"/><rect x="1588" y="481.0410959999969" width="8" height="54.69874830769885" fill="#26a69a"/><line x1="1604" y1="453.9990184615398" x2="1604" y2="503.1664326153847" stroke="#ef5350" stroke-width="2"/><rect x="1600" y="481.65568861538236" width="8" height="14.750224615384525" fill="#ef5350"/><line x1="1616" y1="484.7286523076946" x2="1616" y2="554.7922172307713" stroke="#ef5350" stroke-width="2"/><rect x="1612" y="500.0934689230794" width="8" height="44.86526584615399" fill="#ef5350"/><line x1="1628" y1="508.0831741538462" x2="1628" y2="575.0737760000028" stroke="#26a69a" stroke-width="2"/><rect x="1624" y="508.69776676923163" width="8" height="36.875560615387144" fill="#26a69a"/><line x1="1640" y1="412.82130892307646" x2="1640" y2="511.77072984615177" stroke="#26a69a" stroke-width="2"/><rect x="1636" y="420.81101353845816" width="8" height="87.27216061538803" fill="#26a69a"/><line x1="1652" y1="409.7483458461563" x2="1652" y2="462.60331569230686" stroke="#ef5350" stroke-width="2"/><rect x="1648" y="423.2693846153849" width="8" height="2" fill="#ef5350"/><line x1="1664" y1="387.00841661538317" x2="1664" y2="425.1131624615412" stroke="#26a69a" stroke-width="2"/><rect x="1660" y="415.2796800000033" width="8" height="9.833482461537926" fill="#26a69a"/><line x1="1676" y1="364.8830800000024" x2="1676" y2="410.97753107692023" stroke="#26a69a" stroke-width="2"/><rect x="1672" y="377.72806707692394" width="8" height="33.249463999996294" fill="#26a69a"/><line x1="1688" y1="358.1225606153846" x2="1688" y2="402.373233230768" stroke="#26a69a" stroke-width="2"/><rect x="1684" y="378.4041193846161" width="8" height="2" fill="#26a69a"/><line x1="1700" y1="319.4032221538482" x2="1700" y2="380.86248984615077" stroke="#26a69a" stroke-width="2"/><rect x="1696" y="320.0178147692336" width="8" height="59.00089723076786" fill="#26a69a"/><line x1="1712" y1="286.21521784615163" x2="1712" y2="320.0178147692336" stroke="#26a69a" stroke-width="2"/><rect x="1708" y="307.7259612307689" width="8" height="12.291853538464693" fill="#26a69a"/><line x1="1724" y1="289.2881809230787" x2="1724" y2="326.1637415384589" stroke="#ef5350" stroke-width="2"/><rect x="1720" y="307.1113686153834" width="8" height="2" fill="#ef5350"/><line x1="1736" y1="293.5903298461549" x2="1736" y2="337.8410024615382" stroke="#ef5350" stroke-width="2"/><rect x="1732" y="305.2675907692342" width="8" height="11.677260923072254" fill="#ef5350"/><line x1="1748" y1="289.2881809230787" x2="1748" y2="328.6221120000007" stroke="#ef5350" stroke-width="2"/><rect x="1744" y="316.330258461536" width="8" height="11.677260923079302" fill="#ef5350"/><line x1="1760" y1="312.02811015384486" x2="1760" y2="354.4350049230791" stroke="#ef5350" stroke-width="2"/><rect x="1756" y="328.6221120000007" width="8" height="19.052373538460586" fill="#ef5350"/><line x1="1772" y1="319.4032221538482" x2="1772" y2="363.03930215384617" stroke="#26a69a" stroke-width="2"/><rect x="1768" y="340.91396553845834" width="8" height="5.531334153846956" fill="#26a69a"/><line x1="1784" y1="324.31996369230967" x2="1784" y2="358.1225606153846" stroke="#ef5350" stroke-width="2"/><rect x="1780" y="340.29937292307994" width="8" height="2" fill="#ef5350"/><line x1="1796" y1="328.0075193846153" x2="1796" y2="348.28907815384673" stroke="#26a69a" stroke-width="2"/><rect x="1792" y="337.8410024615382" width="8" height="3.687556307690727" fill="#26a69a"/><line x1="1808" y1="298.50707138461644" x2="1808" y2="335.99722461538204" stroke="#26a69a" stroke-width="2"/><rect x="1804" y="304.03840492307813" width="8" height="30.11504123076952" fill="#26a69a"/><line x1="1820" y1="294.20492246154026" x2="1820" y2="326.1637415384589" stroke="#26a69a" stroke-width="2"/><rect x="1816" y="296.0487003076896" width="8" height="9.21889046154456" fill="#26a69a"/><line x1="1832" y1="251.79802769230605" x2="1832" y2="299.7362566153872" stroke="#26a69a" stroke-width="2"/><rect x="1828" y="261.01691753845864" width="8" height="33.80259753846701" fill="#26a69a"/><line x1="1844" y1="253.64180553846245" x2="1844" y2="292.361144615384" stroke="#ef5350" stroke-width="2"/><rect x="1840" y="262.86069599999996" width="8" height="12.906446153843262" fill="#ef5350"/><line x1="1856" y1="253.64180553846245" x2="1856" y2="277.6109199999994" stroke="#26a69a" stroke-width="2"/><rect x="1852" y="259.7877323076948" width="8" height="17.20859507691921" fill="#26a69a"/><line x1="1868" y1="259.1731396923094" x2="1868" y2="299.12166400000183" stroke="#ef5350" stroke-width="2"/><rect x="1864" y="259.1731396923094" width="8" height="33.18800492307457" fill="#ef5350"/><line x1="1880" y1="292.9757372307695" x2="1880" y2="354.4350049230791" stroke="#ef5350" stroke-width="2"/><rect x="1876" y="293.5903298461549" width="8" height="27.04207753845708" fill="#ef5350"/><line x1="1892" y1="299.12166400000183" x2="1892" y2="330.4658904615351" stroke="#26a69a" stroke-width="2"/><rect x="1888" y="306.4967759999979" width="8" height="12.291853538464807" fill="#26a69a"/><line x1="1904" y1="298.50707138461644" x2="1904" y2="331.0804830769205" stroke="#ef5350" stroke-width="2"/><rect x="1900" y="305.2675907692342" width="8" height="20.28155815383934" fill="#ef5350"/><line x1="1916" y1="315.10107323077204" x2="1916" y2="348.28907815384673" stroke="#26a69a" stroke-width="2"/><rect x="1912" y="320.0178147692336" width="8" height="3.6875563076905564" fill="#26a69a"/><line x1="1928" y1="315.7156658461505" x2="1928" y2="352.59122646153764" stroke="#ef5350" stroke-width="2"/><rect x="1924" y="321.86159261538285" width="8" height="4.9167415384614515" fill="#ef5350"/><line x1="1940" y1="318.1740369230772" x2="1940" y2="361.1955243076898" stroke="#ef5350" stroke-width="2"/><rect x="1936" y="325.5491489230735" width="8" height="25.812892307693346" fill="#ef5350"/><rect x="75" y="920.483673860341" width="10" height="99.51632613965899" fill="#26a69a" opacity="0.9"/><rect x="87" y="944.5055257195326" width="10" height="75.49447428046744" fill="#ef5350" opacity="0.9"/><rect x="99" y="963.4990718905029" width="10" height="56.50092810949707" fill="#26a69a" opacity="0.9"/><rect x="111" y="948.4762489843641" width="10" height="71.52375101563587" fill="#ef5350" opacity="0.9"/><rect x="123" y="967.170554157336" width="10" height="52.82944584266397" fill="#26a69a" opacity="0.9"/><rect x="135" y="971.9306659268213" width="10" height="48.06933407317865" fill="#ef5350" opacity="0.9"/><rect x="147" y="978.4485708434897" width="10" height="41.55142915651027" fill="#26a69a" opacity="0.9"/><rect x="159" y="969.9545523605689" width="10" height="50.04544763943113" fill="#ef5350" opacity="0.9"/><rect x="171" y="968.8276094409543" width="10" height="51.17239055904565" fill="#ef5350" opacity="0.9"/><rect x="183" y="973.4826896018708" width="10" height="46.51731039812921" fill="#26a69a" opacity="0.9"/><rect x="195" y="973.1243270380426" width="10" height="46.875672961957434" fill="#26a69a" opacity="0.9"/><rect x="207" y="980.0887814351678" width="10" height="39.91121856483221" fill="#ef5350" opacity="0.9"/><rect x="219" y="985.0216338690606" width="10" height="34.978366130939435" fill="#26a69a" opacity="0.9"/><rect x="231" y="974.504270624839" width="10" height="45.49572937516098" fill="#26a69a" opacity="0.9"/><rect x="243" y="961.7746378391233" width="10" height="58.22536216087667" fill="#26a69a" opacity="0.9"/><rect x="255" y="969.2705257525614" width="10" height="50.72947424743859" fill="#ef5350" opacity="0.9"/><rect x="267" y="967.5662392738947" width="10" height="52.433760726105334" fill="#ef5350" opacity="0.9"/><rect x="279" y="967.9173355000231" width="10" height="52.082664499976886" fill="#ef5350" opacity="0.9"/><rect x="291" y="983.4365813862851" width="10" height="36.56341861371493" fill="#ef5350" opacity="0.9"/><rect x="303" y="979.2290415700573" width="10" height="40.77095842994265" fill="#26a69a" opacity="0.9"/><rect x="315" y="993.8753360681186" width="10" height="26.1246639318814" fill="#ef5350" opacity="0.9"/><rect x="327" y="991.5811550834638" width="10" height="28.41884491653616" fill="#ef5350" opacity="0.9"/><rect x="339" y="983.8514232113249" width="10" height="36.148576788675086" fill="#ef5350" opacity="0.9"/><rect x="351" y="954.626543271041" width="10" height="65.37345672895901" fill="#ef5350" opacity="0.9"/><rect x="363" y="959.691180647761" width="10" height="60.30881935223897" fill="#26a69a" opacity="0.9"/><rect x="375" y="977.892035433305" width="10" height="42.107964566695046" fill="#ef5350" opacity="0.9"/><rect x="387" y="963.6328385617936" width="10" height="56.36716143820638" fill="#ef5350" opacity="0.9"/><rect x="399" y="974.5666950714414" width="10" height="45.43330492855864" fill="#ef5350" opacity="0.9"/><rect x="411" y="973.2798927224325" width="10" height="46.720107277567536" fill="#26a69a" opacity="0.9"/><rect x="423" y="976.0632303495108" width="10" height="43.93676965048917" fill="#ef5350" opacity="0.9"/><rect x="435" y="970.679864978234" width="10" height="49.320135021765964" fill="#ef5350" opacity="0.9"/><rect x="447" y="978.684396530654" width="10" height="41.315603469346" fill="#26a69a" opacity="0.9"/><rect x="459" y="985.3000667181916" width="10" height="34.6999332818084" fill="#26a69a" opacity="0.9"/><rect x="471" y="976.3713891255953" width="10" height="43.62861087440467" fill="#ef5350" opacity="0.9"/><rect x="483" y="974.324593910809" width="10" height="45.67540608919103" fill="#26a69a" opacity="0.9"/><rect x="495" y="977.8695758440512" width="10" height="42.130424155948845" fill="#ef5350" opacity="0.9"/><rect x="507" y="909.4338862355746" width="10" height="110.56611376442538" fill="#ef5350" opacity="0.9"/><rect x="519" y="950.4308938255947" width="10" height="69.5691061744053" fill="#26a69a" opacity="0.9"/><rect x="531" y="966.1744053163169" width="10" height="53.82559468368311" fill="#26a69a" opacity="0.9"/><rect x="543" y="953.2353698896177" width="10" height="66.76463011038231" fill="#26a69a" opacity="0.9"/><rect x="555" y="965.6730280150347" width="10" height="54.326971984965326" fill="#26a69a" opacity="0.9"/><rect x="567" y="961.0965564165065" width="10" height="58.90344358349353" fill="#26a69a" opacity="0.9"/><rect x="579" y="960.4257413315894" width="10" height="59.57425866841061" fill="#ef5350" opacity="0.9"/><rect x="591" y="945.1736984998315" width="10" height="74.82630150016848" fill="#26a69a" opacity="0.9"/><rect x="603" y="966.9855928340698" width="10" height="53.01440716593015" fill="#26a69a" opacity="0.9"/><rect x="615" y="966.6414326575639" width="10" height="53.35856734243612" fill="#26a69a" opacity="0.9"/><rect x="627" y="977.2492948349551" width="10" height="42.750705165044906" fill="#ef5350" opacity="0.9"/><rect x="639" y="993.0582033649749" width="10" height="26.94179663502507" fill="#26a69a" opacity="0.9"/><rect x="651" y="990.3491805552803" width="10" height="29.650819444719673" fill="#ef5350" opacity="0.9"/><rect x="663" y="999.502454040414" width="10" height="20.497545959585977" fill="#ef5350" opacity="0.9"/><rect x="675" y="984.9314652239683" width="10" height="35.0685347760317" fill="#ef5350" opacity="0.9"/><rect x="687" y="987.1952597055151" width="10" height="32.80474029448487" fill="#26a69a" opacity="0.9"/><rect x="699" y="993.4132630480304" width="10" height="26.586736951969556" fill="#ef5350" opacity="0.9"/><rect x="711" y="984.3399192775939" width="10" height="35.660080722406065" fill="#26a69a" opacity="0.9"/><rect x="723" y="992.3431296777048" width="10" height="27.656870322295163" fill="#ef5350" opacity="0.9"/><rect x="735" y="980.177628927951" width="10" height="39.82237107204901" fill="#ef5350" opacity="0.9"/><rect x="747" y="958.8638090142222" width="10" height="61.13619098577783" fill="#ef5350" opacity="0.9"/><rect x="759" y="950.3849837828554" width="10" height="69.61501621714456" fill="#ef5350" opacity="0.9"/><rect x="771" y="973.8469973510896" width="10" height="46.15300264891039" fill="#26a69a" opacity="0.9"/><rect x="783" y="988.3582040255511" width="10" height="31.641795974448883" fill="#ef5350" opacity="0.9"/><rect x="795" y="976.0886625314599" width="10" height="43.91133746854007" fill="#ef5350" opacity="0.9"/><rect x="807" y="978.5727591605398" width="10" height="41.42724083946018" fill="#26a69a" opacity="0.9"/><rect x="819" y="971.768164192809" width="10" height="48.23183580719103" fill="#26a69a" opacity="0.9"/><rect x="831" y="970.5130694992172" width="10" height="49.48693050078282" fill="#ef5350" opacity="0.9"/><rect x="843" y="994.4526796271708" width="10" height="25.547320372829176" fill="#26a69a" opacity="0.9"/><rect x="855" y="995.9109014882781" width="10" height="24.089098511721886" fill="#26a69a" opacity="0.9"/><rect x="867" y="985.056314117173" width="10" height="34.943685882827026" fill="#ef5350" opacity="0.9"/><rect x="879" y="995.4247174385499" width="10" height="24.57528256145008" fill="#26a69a" opacity="0.9"/><rect x="891" y="967.6104978762477" width="10" height="52.38950212375232" fill="#ef5350" opacity="0.9"/><rect x="903" y="980.7562936393122" width="10" height="39.24370636068784" fill="#ef5350" opacity="0.9"/><rect x="915" y="969.5050302874167" width="10" height="50.49496971258327" fill="#26a69a" opacity="0.9"/><rect x="927" y="980.5984159383814" width="10" height="39.401584061618564" fill="#ef5350" opacity="0.9"/><rect x="939" y="969.2216431171267" width="10" height="50.778356882873254" fill="#ef5350" opacity="0.9"/><rect x="951" y="978.7745651757463" width="10" height="41.22543482425374" fill="#26a69a" opacity="0.9"/><rect x="963" y="981.2183666594003" width="10" height="38.78163334059968" fill="#26a69a" opacity="0.9"/><rect x="975" y="955.1662339892855" width="10" height="64.8337660107145" fill="#26a69a" opacity="0.9"/><rect x="987" y="948.6539439699305" width="10" height="71.34605603006946" fill="#26a69a" opacity="0.9"/><rect x="999" y="865.9181017683624" width="10" height="154.08189823163764" fill="#ef5350" opacity="0.9"/><rect x="1011" y="869.5568855155467" width="10" height="150.4431144844533" fill="#26a69a" opacity="0.9"/><rect x="1023" y="928.7904190034549" width="10" height="91.20958099654513" fill="#ef5350" opacity="0.9"/><rect x="1035" y="935.7053301889908" width="10" height="84.29466981100916" fill="#ef5350" opacity="0.9"/><rect x="1047" y="914.0869846680274" width="10" height="105.91301533197259" fill="#26a69a" opacity="0.9"/><rect x="1059" y="925.7554018615036" width="10" height="94.24459813849637" fill="#26a69a" opacity="0.9"/><rect x="1071" y="939.0963978782294" width="10" height="80.90360212177063" fill="#ef5350" opacity="0.9"/><rect x="1083" y="918.0649742705588" width="10" height="101.93502572944124" fill="#26a69a" opacity="0.9"/><rect x="1095" y="951.401940772742" width="10" height="68.59805922725798" fill="#ef5350" opacity="0.9"/><rect x="1107" y="911.4843146192109" width="10" height="108.51568538078914" fill="#26a69a" opacity="0.9"/><rect x="1119" y="948.021772590053" width="10" height="71.97822740994695" fill="#ef5350" opacity="0.9"/><rect x="1131" y="979.6399199381701" width="10" height="40.360080061829876" fill="#26a69a" opacity="0.9"/><rect x="1143" y="973.198311567349" width="10" height="46.80168843265096" fill="#ef5350" opacity="0.9"/><rect x="1155" y="962.3840193416698" width="10" height="57.61598065833016" fill="#ef5350" opacity="0.9"/><rect x="1167" y="952.2616806378524" width="10" height="67.73831936214765" fill="#ef5350" opacity="0.9"/><rect x="1179" y="956.5055521425787" width="10" height="63.49444785742128" fill="#26a69a" opacity="0.9"/><rect x="1191" y="976.4698149726191" width="10" height="43.53018502738087" fill="#26a69a" opacity="0.9"/><rect x="1203" y="987.8588084527324" width="10" height="32.14119154726757" fill="#ef5350" opacity="0.9"/><rect x="1215" y="982.103868994537" width="10" height="37.89613100546296" fill="#ef5350" opacity="0.9"/><rect x="1227" y="973.4453670491403" width="10" height="46.55463295085974" fill="#26a69a" opacity="0.9"/><rect x="1239" y="978.6256052529016" width="10" height="41.37439474709845" fill="#ef5350" opacity="0.9"/><rect x="1251" y="979.749905867898" width="10" height="40.25009413210205" fill="#ef5350" opacity="0.9"/><rect x="1263" y="970.0893098960913" width="10" height="49.91069010390868" fill="#26a69a" opacity="0.9"/><rect x="1275" y="987.8082743769115" width="10" height="32.19172562308847" fill="#ef5350" opacity="0.9"/><rect x="1287" y="980.9974039357128" width="10" height="39.00259606428722" fill="#26a69a" opacity="0.9"/><rect x="1299" y="975.647067372162" width="10" height="44.35293262783796" fill="#ef5350" opacity="0.9"/><rect x="1311" y="962.1442301975783" width="10" height="57.85576980242172" fill="#26a69a" opacity="0.9"/><rect x="1323" y="974.5627316145142" width="10" height="45.43726838548582" fill="#26a69a" opacity="0.9"/><rect x="1335" y="975.2896956725656" width="10" height="44.710304327434415" fill="#26a69a" opacity="0.9"/><rect x="1347" y="961.5219674600187" width="10" height="58.478032539981314" fill="#26a69a" opacity="0.9"/><rect x="1359" y="986.5753089844962" width="10" height="33.424691015503754" fill="#26a69a" opacity="0.9"/><rect x="1371" y="977.1498781236995" width="10" height="42.85012187630048" fill="#26a69a" opacity="0.9"/><rect x="1383" y="980.8431594036318" width="10" height="39.15684059636817" fill="#26a69a" opacity="0.9"/><rect x="1395" y="975.5499626774473" width="10" height="44.4500373225527" fill="#ef5350" opacity="0.9"/><rect x="1407" y="958.0242167218248" width="10" height="61.975783278175186" fill="#ef5350" opacity="0.9"/><rect x="1419" y="981.4908543231406" width="10" height="38.50914567685936" fill="#26a69a" opacity="0.9"/><rect x="1431" y="957.2047720021403" width="10" height="62.79522799785968" fill="#26a69a" opacity="0.9"/><rect x="1443" y="966.020160784236" width="10" height="53.979839215763946" fill="#ef5350" opacity="0.9"/><rect x="1455" y="985.0338545279193" width="10" height="34.96614547208071" fill="#26a69a" opacity="0.9"/><rect x="1467" y="978.2328927290382" width="10" height="41.76710727096179" fill="#ef5350" opacity="0.9"/><rect x="1479" y="979.168929139996" width="10" height="40.83107086000405" fill="#26a69a" opacity="0.9"/><rect x="1491" y="975.8885079566397" width="10" height="44.11149204336027" fill="#ef5350" opacity="0.9"/><rect x="1503" y="982.5210228361177" width="10" height="37.47897716388229" fill="#26a69a" opacity="0.9"/><rect x="1515" y="981.7217256891461" width="10" height="38.27827431085393" fill="#ef5350" opacity="0.9"/><rect x="1527" y="993.2864324263622" width="10" height="26.71356757363776" fill="#ef5350" opacity="0.9"/><rect x="1539" y="997.8265723363918" width="10" height="22.17342766360821" fill="#26a69a" opacity="0.9"/><rect x="1551" y="999.2874365021171" width="10" height="20.71256349788291" fill="#ef5350" opacity="0.9"/><rect x="1563" y="994.0388286663627" width="10" height="25.961171333637253" fill="#26a69a" opacity="0.9"/><rect x="1575" y="1003.0583354802059" width="10" height="16.94166451979413" fill="#ef5350" opacity="0.9"/><rect x="1587" y="992.9293910148432" width="10" height="27.07060898515681" fill="#26a69a" opacity="0.9"/><rect x="1599" y="998.0789124274191" width="10" height="21.92108757258086" fill="#ef5350" opacity="0.9"/><rect x="1611" y="997.8956025445393" width="10" height="22.104397455460685" fill="#ef5350" opacity="0.9"/><rect x="1623" y="989.5317175640594" width="10" height="30.468282435940637" fill="#26a69a" opacity="0.9"/><rect x="1635" y="967.4783826453432" width="10" height="52.52161735465677" fill="#26a69a" opacity="0.9"/><rect x="1647" y="970.5754939458195" width="10" height="49.42450605418048" fill="#ef5350" opacity="0.9"/><rect x="1659" y="990.2041840893628" width="10" height="29.795815910637202" fill="#26a69a" opacity="0.9"/><rect x="1671" y="982.3221894136066" width="10" height="37.677810586393434" fill="#26a69a" opacity="0.9"/><rect x="1683" y="993.2051815593561" width="10" height="26.794818440643894" fill="#26a69a" opacity="0.9"/><rect x="1695" y="983.4048737308681" width="10" height="36.595126269131924" fill="#26a69a" opacity="0.9"/><rect x="1707" y="968.9983683768984" width="10" height="51.001631623101616" fill="#26a69a" opacity="0.9"/><rect x="1719" y="984.9895959255663" width="10" height="35.01040407443372" fill="#ef5350" opacity="0.9"/><rect x="1731" y="995.2420681318246" width="10" height="24.757931868175433" fill="#ef5350" opacity="0.9"/><rect x="1743" y="995.0369592358455" width="10" height="24.96304076415447" fill="#ef5350" opacity="0.9"/><rect x="1755" y="996.4555465276815" width="10" height="23.544453472318537" fill="#ef5350" opacity="0.9"/><rect x="1767" y="995.9214707067505" width="10" height="24.078529293249517" fill="#26a69a" opacity="0.9"/><rect x="1779" y="1000.8648923591156" width="10" height="19.13510764088437" fill="#ef5350" opacity="0.9"/><rect x="1791" y="1001.2090525356216" width="10" height="18.790947464378405" fill="#26a69a" opacity="0.9"/><rect x="1803" y="987.4565175746286" width="10" height="32.543482425371394" fill="#26a69a" opacity="0.9"/><rect x="1815" y="988.4870163756829" width="10" height="31.512983624317144" fill="#26a69a" opacity="0.9"/><rect x="1827" y="984.1936016593673" width="10" height="35.806398340632654" fill="#26a69a" opacity="0.9"/><rect x="1839" y="992.0934318912956" width="10" height="27.90656810870439" fill="#ef5350" opacity="0.9"/><rect x="1851" y="997.4599525706321" width="10" height="22.54004742936786" fill="#26a69a" opacity="0.9"/><rect x="1863" y="995.2810421249413" width="10" height="24.718957875058663" fill="#ef5350" opacity="0.9"/><rect x="1875" y="987.5866510770694" width="10" height="32.413348922930595" fill="#ef5350" opacity="0.9"/><rect x="1887" y="997.2713580785161" width="10" height="22.728641921483927" fill="#26a69a" opacity="0.9"/><rect x="1899" y="990.3320055752628" width="10" height="29.66799442473723" fill="#ef5350" opacity="0.9"/><rect x="1911" y="979.8843331153432" width="10" height="40.115666884656775" fill="#26a69a" opacity="0.9"/><rect x="1923" y="974.3454020596764" width="10" height="45.65459794032358" fill="#ef5350" opacity="0.9"/><rect x="1935" y="860.0" width="10" height="160.0" fill="#ef5350" opacity="0.9"/><rect x="1004" y="591.0531852307661" width="12" height="124.76231323077559" fill="#ff2400" opacity="0.60"/><polyline points="320,202.00299731721736,332,198.60934476686316,344,200.3385733531734,356,208.57583403016042,368,212.92636394670035,380,218.61853675763996,392,230.6754489199193,404,245.44723772607813,416,256.470884067179,428,268.43476892525086,440,279.96162779684073,452,290.21509269531145,464,297.7945906803702,476,314.36864929689295,488,326.55465960561537,500,345.3649380607553,512,377.7778447069837,524,404.9966329473416,536,426.87212173623965,548,445.8447737613614,560,456.39631870716795,572,455.58267803908865,584,464.21174870203265,596,467.7461207084259,608,471.2365490072583,620,467.9559656146222,632,470.6069518051733,644,467.97165640981314,656,467.1091900850745,668,469.48962572532065,680,474.97971347309146,692,479.1860114133809,704,489.1961689784064,716,493.9800958009703,728,508.31749127780245,740,525.2111071414499,752,548.4562456554509,764,574.8725639446723,776,592.1588545580003,788,610.7254635744539,800,633.5526855930067,812,647.2405027892819,824,651.137486171991,836,655.4242525292395,848,654.7957425008112,860,653.0564378523825,872,653.0046297638784,884,652.7821578889345,896,657.4976152035421,908,665.1003416090624,920,669.345030247027,932,675.2926376813705,944,682.0200569205064,956,685.5313336093926,968,684.4938532216894,980,679.5749612372044,992,671.0272506431885,1004,663.4106729848589,1016,662.0800841145095,1028,667.2562753123972,1040,678.1439552899708,1052,677.6929694821355,1064,665.5784075241312,1076,658.4807673057114,1088,648.3130041483911,1100,643.0938186397515,1112,622.9190825055622,1124,608.8800995856218,1136,594.0124551708742,1148,581.4387664000255,1160,577.496216574379,1172,580.8945313621664,1184,583.9106644925079,1196,581.9569359767369,1208,583.0573760082539,1220,592.130515934213,1232,591.6767172298513,1244,593.6659755156562,1256,604.9480676350448,1268,614.2191525928795,1280,626.9972248001487,1292,636.0414343649679,1304,646.9167919126238,1316,651.8981923605049,1328,650.8445732785522,1340,644.0965679113665,1352,637.1073869674196,1364,629.150781732425,1376,613.757379398934,1388,596.7277856979379,1400,582.9004391919066,1412,571.32650502711,1424,557.2843595226984,1436,542.8821147622959,1448,532.4854810047187,1460,522.786339634303,1472,516.1766335592451,1484,505.16261659023746,1496,504.0359816329258,1508,501.20213353601895,1520,501.85747073771313,1532,502.6845253927254,1544,502.6133560586179,1556,508.10956513728695,1568,508.6923780692674,1580,511.38539249490907,1592,508.495459495393,1604,507.3440741368569,1616,510.92642276851336,1628,510.7141698161985,1640,502.15196445641106,1652,494.75640306496086,1664,487.187191344492,1676,476.7625128428125,1688,467.39504679917445,1700,453.35911993918046,1712,439.48929530028744,1724,426.9404063412856,1736,416.46463923186207,1748,408.04015162736437,1760,402.29104057127466,1772,396.44560485385927,1784,391.21540998865106,1796,386.13213308130634,1808,378.31368278052304,1820,370.4789225450161,1832,360.05396968724267,1844,352.02665277929555,1856,343.24199368676585,1868,338.3961985371081,1880,336.7044089035377,1892,333.82749148415587,1904,333.0390779069114,1916,331.79895760808563,1928,331.32080299339157,1940,333.2294923493324" fill="none" stroke="#0090ff" stroke-width="2"/><line x1="80" y1="50" x2="80" y2="900" stroke="#666666" stroke-width="0.5" stroke-dasharray="4,4" opacity="0.90"/><line x1="152" y1="50" x2="152" y2="900" stroke="#666666" stroke-width="0.5" stroke-dasharray="4,4" opacity="0.90"/><line x1="224" y1="50" x2="224" y2="900" stroke="#666666" stroke-width="0.5" stroke-dasharray="4,4" opacity="0.90"/><line x1="296" y1="50" x2="296" y2="900" stroke="#666666" stroke-width="0.5" stroke-dasharray="4,4" opacity="0.90"/><line x1="368" y1="50" x2="368" y2="900" stroke="#666666" stroke-width="0.5" stroke-dasharray="4,4" opacity="0.90"/><line x1="434" y1="30" x2="434" y2="950" stroke="black" stroke-width="0.7"/><line x1="440" y1="50" x2="440" y2="900" stroke="#666666" stroke-width="0.5" stroke-dasharray="4,4" opacity="0.90"/><line x1="512" y1="50" x2="512" y2="900" stroke="#666666" stroke-width="0.5" stroke-dasharray="4,4" opacity="0.90"/><line x1="584" y1="50" x2="584" y2="900" stroke="#666666" stroke-width="0.5" stroke-dasharray="4,4" opacity="0.90"/><line x1="656" y1="50" x2="656" y2="900" stroke="#666666" stroke-width="0.5" stroke-dasharray="4,4" opacity="0.90"/><line x1="728" y1="50" x2="728" y2="900" stroke="#666666" stroke-width="0.5" stroke-dasharray="4,4" opacity="0.90"/><line x1="800" y1="50" x2="800" y2="900" stroke="#666666" stroke-width="0.5" stroke-dasharray="4,4" opacity="0.90"/><line x1="872" y1="50" x2="872" y2="900" stroke="#666666" stroke-width="0.5" stroke-dasharray="4,4" opacity="0.90"/><line x1="944" y1="50" x2="944" y2="900" stroke="#666666" stroke-width="0.5" stroke-dasharray="4,4" opacity="0.90"/><line x1="1016" y1="50" x2="1016" y2="900" stroke="#666666" stroke-width="0.5" stroke-dasharray="4,4" opacity="0.90"/><line x1="1088" y1="50" x2="1088" y2="900" stroke="#666666" stroke-width="0.5" stroke-dasharray="4,4" opacity="0.90"/><line x1="1160" y1="50" x2="1160" y2="900" stroke="#666666" stroke-width="0.5" stroke-dasharray="4,4" opacity="0.90"/><line x1="1232" y1="50" x2="1232" y2="900" stroke="#666666" stroke-width="0.5" stroke-dasharray="4,4" opacity="0.90"/><line x1="1304" y1="50" x2="1304" y2="900" stroke="#666666" stroke-width="0.5" stroke-dasharray="4,4" opacity="0.90"/><line x1="1370" y1="30" x2="1370" y2="950" stroke="black" stroke-width="0.7"/><line x1="1376" y1="50" x2="1376" y2="900" stroke="#666666" stroke-width="0.5" stroke-dasharray="4,4" opacity="0.90"/><line x1="1448" y1="50" x2="1448" y2="900" stroke="#666666" stroke-width="0.5" stroke-dasharray="4,4" opacity="0.90"/><line x1="1520" y1="50" x2="1520" y2="900" stroke="#666666" stroke-width="0.5" stroke-dasharray="4,4" opacity="0.90"/><line x1="1592" y1="50" x2="1592" y2="900" stroke="#666666" stroke-width="0.5" stroke-dasharray="4,4" opacity="0.90"/><line x1="1664" y1="50" x2="1664" y2="900" stroke="#666666" stroke-width="0.5" stroke-dasharray="4,4" opacity="0.90"/><line x1="1736" y1="50" x2="1736" y2="900" stroke="#666666" stroke-width="0.5" stroke-dasharray="4,4" opacity="0.90"/><line x1="1808" y1="50" x2="1808" y2="900" stroke="#666666" stroke-width="0.5" stroke-dasharray="4,4" opacity="0.90"/><line x1="1880" y1="50" x2="1880" y2="900" stroke="#666666" stroke-width="0.5" stroke-dasharray="4,4" opacity="0.90"/><text x="80" y="1040" text-anchor="middle" font-size="20" fill="black">13:30</text><text x="152" y="1040" text-anchor="middle" font-size="20" fill="black">14:00</text><text x="224" y="1040" text-anchor="middle" font-size="20" fill="black">14:30</text><text x="296" y="1040" text-anchor="middle" font-size="20" fill="black">15:00</text><text x="368" y="1040" text-anchor="middle" font-size="20" fill="black">15:30</text><text x="440" y="1040" text-anchor="middle" font-size="20" fill="black">16:00</text><text x="512" y="1040" text-anchor="middle" font-size="20" fill="black">16:30</text><text x="584" y="1040" text-anchor="middle" font-size="20" fill="black">17:00</text><text x="656" y="1040" text-anchor="middle" font-size="20" fill="black">17:30</text><text x="728" y="1040" text-anchor="middle" font-size="20" fill="black">18:00</text><text x="800" y="1040" text-anchor="middle" font-size="20" fill="black">18:30</text><text x="872" y="1040" text-anchor="middle" font-size="20" fill="black">19:00</text><text x="944" y="1040" text-anchor="middle" font-size="20" fill="black">19:30</text><text x="1016" y="1040" text-anchor="middle" font-size="20" fill="black">13:30</text><text x="1088" y="1040" text-anchor="middle" font-size="20" fill="black">14:00</text><text x="1160" y="1040" text-anchor="middle" font-size="20" fill="black">14:30</text><text x="1232" y="1040" text-anchor="middle" font-size="20" fill="black">15:00</text><text x="1304" y="1040" text-anchor="middle" font-size="20" fill="black">15:30</text><text x="1376" y="1040" text-anchor="middle" font-size="20" fill="black">16:00</text><text x="1448" y="1040" text-anchor="middle" font-size="20" fill="black">16:30</text><text x="1520" y="1040" text-anchor="middle" font-size="20" fill="black">17:00</text><text x="1592" y="1040" text-anchor="middle" font-size="20" fill="black">17:30</text><text x="1664" y="1040" text-anchor="middle" font-size="20" fill="black">18:00</text><text x="1736" y="1040" text-anchor="middle" font-size="20" fill="black">18:30</text><text x="1808" y="1040" text-anchor="middle" font-size="20" fill="black">19:00</text><text x="1880" y="1040" text-anchor="middle" font-size="20" fill="black">19:30</text><text x="1942" y="50" text-anchor="end" font-size="40" fill="#26a69a" font-weight="bold"> +0.99% (Fri)</text></svg>