<svg xmlns="http://www.w3.org/2000/svg" width="1992" height="1050"><rect width="100%" height="100%" fill="white"/><text x="42" y="854.0" text-anchor="end" font-size="20" fill="black">549</text><text x="42" y="654.0" text-anchor="end" font-size="20" fill="black">550</text><text x="42" y="454.0" text-anchor="end" font-size="20" fill="black">551</text><text x="42" y="254.0" text-anchor="end" font-size="20" fill="black">552</text><text x="42" y="54.0" text-anchor="end" font-size="20" fill="black">553</text><line x1="80" y1="68.8391460000048" x2="80" y2="419.9791219999952" stroke="#ef5350" stroke-width="2"/><rect x="76" y="216.47754600001008" width="8" height="77.8094259999989" fill="#ef5350"/><line x1="92" y1="180.56550199999037" x2="92" y2="314.2381059999934" stroke="#ef5350" stroke-width="2"/><rect x="88" y="282.3162899999943" width="8" height="27.93159000000287" fill="#ef5350"/><line x1="104" y1="136.6730060000009" x2="104" y2="352.1452640000007" stroke="#26a69a" stroke-width="2"/><rect x="100" y="190.54106999999476" width="8" height="121.7019240000127" fill="#26a69a"/><line x1="116" y1="163.6070380000092" x2="116" y2="318.22833399999126" stroke="#26a69a" stroke-width="2"/><rect x="112" y="176.57527599999412" width="8" height="13.965794000000642" fill="#26a69a"/><line x1="128" y1="54.87335200000416" x2="128" y2="184.55573000001095" stroke="#26a69a" stroke-width="2"/><rect x="124" y="126.69743799999651" width="8" height="43.892496000012216" fill="#26a69a"/><line x1="140" y1="120.71209799998996" x2="140" y2="212.4873179999895" stroke="#ef5350" stroke-width="2"/><rect x="136" y="128.6925520000068" width="8" height="71.82408599999235" fill="#ef5350"/><line x1="152" y1="156.62414000000808" x2="152" y2="406.01332799999454" stroke="#ef5350" stroke-width="2"/><rect x="148" y="202.51175000000785" width="8" height="67.8338599999961" fill="#ef5350"/><line x1="164" y1="210.49220400000195" x2="164" y2="282.3162899999943" stroke="#ef5350" stroke-width="2"/><rect x="160" y="268.35049599999365" width="8" height="5.985340000006545" fill="#ef5350"/><line x1="176" y1="238.42379400000482" x2="176" y2="342.1696959999963" stroke="#ef5350" stroke-width="2"/><rect x="172" y="272.3407239999915" width="8" height="65.83874400000695" fill="#ef5350"/><line x1="188" y1="244.40913400001136" x2="188" y2="392.0475339999939" stroke="#26a69a" stroke-width="2"/><rect x="184" y="244.40913400001136" width="8" height="93.77033399998709" fill="#26a69a"/><line x1="200" y1="188.5459560000072" x2="200" y2="274.3358360000002" stroke="#26a69a" stroke-width="2"/><rect x="196" y="204.5068639999954" width="8" height="39.90227000001596" fill="#26a69a"/><line x1="212" y1="124.70232400000896" x2="212" y2="264.3602699999974" stroke="#ef5350" stroke-width="2"/><rect x="208" y="202.51175000000785" width="8" height="43.892497999991065" fill="#ef5350"/><line x1="224" y1="240.41890799999237" x2="224" y2="332.1941279999919" stroke="#ef5350" stroke-width="2"/><rect x="220" y="248.3993620000092" width="8" height="83.7947659999827" fill="#ef5350"/><line x1="236" y1="268.35049599999365" x2="236" y2="342.1696959999963" stroke="#26a69a" stroke-width="2"/><rect x="232" y="318.22833399999126" width="8" height="15.960908000010932" fill="#26a69a"/><line x1="248" y1="268.35049599999365" x2="248" y2="340.17458200000874" stroke="#ef5350" stroke-width="2"/><rect x="244" y="322.21856000001026" width="8" height="11.970681999991939" fill="#ef5350"/><line x1="260" y1="270.34561000000394" x2="260" y2="374.0915119999954" stroke="#26a69a" stroke-width="2"/><rect x="256" y="280.32117800000833" width="8" height="57.85828999999012" fill="#26a69a"/><line x1="272" y1="264.3602699999974" x2="272" y2="459.88139200001115" stroke="#ef5350" stroke-width="2"/><rect x="268" y="282.3162899999943" width="8" height="99.75567599999522" fill="#ef5350"/><line x1="284" y1="388.05730599999606" x2="284" y2="509.75923000000876" stroke="#ef5350" stroke-width="2"/><rect x="280" y="388.05730599999606" width="8" height="67.8338599999961" fill="#ef5350"/><line x1="296" y1="354.1403760000094" x2="296" y2="481.8276400000059" stroke="#26a69a" stroke-width="2"/><rect x="292" y="427.9595759999893" width="8" height="23.94136200000503" fill="#26a69a"/><line x1="308" y1="392.0475339999939" x2="308" y2="449.90582400000676" stroke="#26a69a" stroke-width="2"/><rect x="304" y="405.01577200000156" width="8" height="18.953577999991467" fill="#26a69a"/><line x1="320" y1="374.0915119999954" x2="320" y2="449.90582400000676" stroke="#ef5350" stroke-width="2"/><rect x="316" y="404.018214000007" width="8" height="5.9853399999838075" fill="#ef5350"/><line x1="332" y1="348.15503600000284" x2="332" y2="433.9449159999958" stroke="#26a69a" stroke-width="2"/><rect x="328" y="404.018214000007" width="8" height="2" fill="#26a69a"/><line x1="344" y1="370.1012839999976" x2="344" y2="439.93025800000396" stroke="#26a69a" stroke-width="2"/><rect x="340" y="396.03775999999016" width="8" height="9.975568000004387" fill="#26a69a"/><line x1="356" y1="318.22833399999126" x2="356" y2="415.98889599999893" stroke="#26a69a" stroke-width="2"/><rect x="352" y="330.19901400000435" width="8" height="69.82897400000638" fill="#26a69a"/><line x1="368" y1="286.30651799999214" x2="368" y2="360.1257179999948" stroke="#ef5350" stroke-width="2"/><rect x="364" y="336.18435599998975" width="8" height="7.9804540000168345" fill="#ef5350"/><line x1="380" y1="320.22344800000155" x2="380" y2="376.0866260000057" stroke="#26a69a" stroke-width="2"/><rect x="376" y="324.2136739999978" width="8" height="25.93647599999258" fill="#26a69a"/><line x1="392" y1="302.26742600000307" x2="392" y2="366.1110580000013" stroke="#ef5350" stroke-width="2"/><rect x="388" y="322.21856000001026" width="8" height="43.892497999991065" fill="#ef5350"/><line x1="404" y1="344.1648100000066" x2="404" y2="427.9595759999893" stroke="#ef5350" stroke-width="2"/><rect x="400" y="364.11594399999103" width="8" height="13.965794000000642" fill="#ef5350"/><line x1="416" y1="350.1501499999904" x2="416" y2="406.01332799999454" stroke="#ef5350" stroke-width="2"/><rect x="412" y="376.0866260000057" width="8" height="3.9902259999962553" fill="#ef5350"/><line x1="428" y1="256.3798160000033" x2="428" y2="380.07685200000196" stroke="#26a69a" stroke-width="2"/><rect x="424" y="294.286972000009" width="8" height="83.7947659999827" fill="#26a69a"/><line x1="440" y1="188.5459560000072" x2="440" y2="290.29674400001113" stroke="#26a69a" stroke-width="2"/><rect x="436" y="196.5264100000013" width="8" height="93.77033400000983" fill="#26a69a"/><line x1="452" y1="154.6290259999978" x2="452" y2="204.5068639999954" stroke="#26a69a" stroke-width="2"/><rect x="448" y="170.58993400000872" width="8" height="25.93647599999258" fill="#26a69a"/><line x1="464" y1="160.61436800000592" x2="464" y2="230.44334000001072" stroke="#ef5350" stroke-width="2"/><rect x="460" y="166.59970799998973" width="8" height="31.921815999999126" fill="#ef5350"/><line x1="476" y1="132.68277800000305" x2="476" y2="423.969349999993" stroke="#ef5350" stroke-width="2"/><rect x="472" y="198.52152399998886" width="8" height="147.6383980000037" fill="#ef5350"/><line x1="488" y1="316.2332200000037" x2="488" y2="749.1728499999908" stroke="#ef5350" stroke-width="2"/><rect x="484" y="360.1257179999948" width="8" height="193.52600800000346" fill="#ef5350"/><line x1="500" y1="429.9546899999996" x2="500" y2="677.3487639999985" stroke="#26a69a" stroke-width="2"/><rect x="496" y="457.88627800000086" width="8" height="103.74590199999147" fill="#26a69a"/><line x1="512" y1="352.1452640000007" x2="512" y2="475.84229999999934" stroke="#26a69a" stroke-width="2"/><rect x="508" y="376.0866260000057" width="8" height="91.77521999999954" fill="#26a69a"/><line x1="524" y1="318.22833399999126" x2="524" y2="469.8569599999928" stroke="#ef5350" stroke-width="2"/><rect x="520" y="374.0915119999954" width="8" height="51.87295000000631" fill="#ef5350"/><line x1="536" y1="370.1012839999976" x2="536" y2="521.7299099999991" stroke="#ef5350" stroke-width="2"/><rect x="532" y="421.9742360000055" width="8" height="63.84363199999825" fill="#ef5350"/><line x1="548" y1="449.90582400000676" x2="548" y2="593.5539959999915" stroke="#ef5350" stroke-width="2"/><rect x="544" y="471.8520740000031" width="8" height="83.79476600000544" fill="#ef5350"/><line x1="560" y1="515.7445699999926" x2="560" y2="641.4367200000015" stroke="#ef5350" stroke-width="2"/><rect x="556" y="565.6224079999902" width="8" height="69.8289720000048" fill="#ef5350"/><line x1="572" y1="521.7299099999991" x2="572" y2="667.3731959999941" stroke="#26a69a" stroke-width="2"/><rect x="568" y="575.5979759999946" width="8" height="55.863178000004154" fill="#26a69a"/><line x1="584" y1="505.7690020000109" x2="584" y2="629.4660400000112" stroke="#ef5350" stroke-width="2"/><rect x="580" y="581.5833160000011" width="8" height="23.94136200000503" fill="#ef5350"/><line x1="596" y1="519.7347979999904" x2="596" y2="623.4807000000046" stroke="#26a69a" stroke-width="2"/><rect x="592" y="533.700591999991" width="8" height="71.82408600001509" fill="#26a69a"/><line x1="608" y1="448.90826799999104" x2="608" y2="534.6981480000068" stroke="#26a69a" stroke-width="2"/><rect x="604" y="463.871620000009" width="8" height="67.8338579999945" fill="#26a69a"/><line x1="620" y1="439.93025800000396" x2="620" y2="519.7347979999904" stroke="#26a69a" stroke-width="2"/><rect x="616" y="439.93025800000396" width="8" height="23.94136200000503" fill="#26a69a"/><line x1="632" y1="384.0670799999998" x2="632" y2="505.7690020000109" stroke="#ef5350" stroke-width="2"/><rect x="628" y="439.93025800000396" width="8" height="63.84363199999825" fill="#ef5350"/><line x1="644" y1="488.810538000007" x2="644" y2="595.5491100000017" stroke="#ef5350" stroke-width="2"/><rect x="640" y="507.76411599999847" width="8" height="61.8485180000107" fill="#ef5350"/><line x1="656" y1="300.2723119999928" x2="656" y2="577.5930880000033" stroke="#26a69a" stroke-width="2"/><rect x="652" y="519.7347979999904" width="8" height="46.88516600001549" fill="#26a69a"/><line x1="668" y1="507.76411599999847" x2="668" y2="631.4611539999987" stroke="#ef5350" stroke-width="2"/><rect x="664" y="517.7396840000029" width="8" height="73.81920000000264" fill="#ef5350"/><line x1="680" y1="543.6761599999954" x2="680" y2="687.3243320000029" stroke="#ef5350" stroke-width="2"/><rect x="676" y="593.5539959999915" width="8" height="27.93159000000287" fill="#ef5350"/><line x1="692" y1="557.6419539999961" x2="692" y2="659.392742" stroke="#26a69a" stroke-width="2"/><rect x="688" y="581.5833160000011" width="8" height="45.88760999999977" fill="#26a69a"/><line x1="704" y1="569.6126340000092" x2="704" y2="655.4025160000037" stroke="#ef5350" stroke-width="2"/><rect x="700" y="575.5979759999946" width="8" height="43.892496000012216" fill="#ef5350"/><line x1="716" y1="548.663944000009" x2="716" y2="643.4318339999891" stroke="#26a69a" stroke-width="2"/><rect x="712" y="579.5882019999908" width="8" height="45.88760999999977" fill="#26a69a"/><line x1="728" y1="523.7250240000094" x2="728" y2="583.5784299999887" stroke="#26a69a" stroke-width="2"/><rect x="724" y="560.6346239999993" width="8" height="8.978010000009817" fill="#26a69a"/><line x1="740" y1="533.700591999991" x2="740" y2="601.5344500000083" stroke="#26a69a" stroke-width="2"/><rect x="736" y="533.700591999991" width="8" height="29.926702000011574" fill="#26a69a"/><line x1="752" y1="525.720137999997" x2="752" y2="599.5393379999996" stroke="#ef5350" stroke-width="2"/><rect x="748" y="535.6957060000013" width="8" height="45.88760999999977" fill="#ef5350"/><line x1="764" y1="583.5784299999887" x2="764" y2="832.9676159999963" stroke="#ef5350" stroke-width="2"/><rect x="760" y="583.5784299999887" width="8" height="208.4893600000214" fill="#ef5350"/><line x1="776" y1="769.123983999998" x2="776" y2="952.6744259999987" stroke="#ef5350" stroke-width="2"/><rect x="772" y="799.0506880000112" width="8" height="31.921815999999126" fill="#ef5350"/><line x1="788" y1="779.0995520000024" x2="788" y2="984.5962419999978" stroke="#ef5350" stroke-width="2"/><rect x="784" y="819.0018219999956" width="8" height="158.61152400000265" fill="#ef5350"/><line x1="800" y1="878.8552279999976" x2="800" y2="1001.5547080000033" stroke="#26a69a" stroke-width="2"/><rect x="796" y="884.8405680000042" width="8" height="87.78499400000328" fill="#26a69a"/><line x1="812" y1="789.0751200000068" x2="812" y2="894.8161360000086" stroke="#26a69a" stroke-width="2"/><rect x="808" y="807.0311420000053" width="8" height="73.81919800000105" fill="#26a69a"/><line x1="824" y1="671.3634239999919" x2="824" y2="813.0164819999891" stroke="#26a69a" stroke-width="2"/><rect x="820" y="693.3096720000094" width="8" height="113.72146999999586" fill="#26a69a"/><line x1="836" y1="647.4220620000096" x2="836" y2="709.2705799999976" stroke="#26a69a" stroke-width="2"/><rect x="832" y="665.3780820000065" width="8" height="25.93647599999258" fill="#26a69a"/><line x1="848" y1="605.5246780000061" x2="848" y2="669.3683100000044" stroke="#26a69a" stroke-width="2"/><rect x="844" y="619.4904720000068" width="8" height="47.88272399998732" fill="#26a69a"/><line x1="860" y1="529.7103639999932" x2="860" y2="613.5051320000002" stroke="#26a69a" stroke-width="2"/><rect x="856" y="541.6810460000079" width="8" height="65.8387459999858" fill="#26a69a"/><line x1="872" y1="485.8178680000037" x2="872" y2="601.5344500000083" stroke="#ef5350" stroke-width="2"/><rect x="868" y="549.661500000002" width="8" height="45.88760999999977" fill="#ef5350"/><line x1="884" y1="589.5637699999952" x2="884" y2="699.2950119999932" stroke="#ef5350" stroke-width="2"/><rect x="880" y="599.5393379999996" width="8" height="69.8289720000048" fill="#ef5350"/><line x1="896" y1="593.5539959999915" x2="896" y2="679.3438780000088" stroke="#26a69a" stroke-width="2"/><rect x="892" y="641.4367200000015" width="8" height="29.926703999990423" fill="#26a69a"/><line x1="908" y1="615.5002460000105" x2="908" y2="667.3731959999941" stroke="#26a69a" stroke-width="2"/><rect x="904" y="643.4318339999891" width="8" height="2" fill="#26a69a"/><line x1="920" y1="615.5002460000105" x2="920" y2="687.3243320000029" stroke="#ef5350" stroke-width="2"/><rect x="916" y="645.4269479999994" width="8" height="29.926702000011574" fill="#ef5350"/><line x1="932" y1="627.4709260000009" x2="932" y2="689.3194439999888" stroke="#ef5350" stroke-width="2"/><rect x="928" y="673.3585360000006" width="8" height="13.965796000002229" fill="#ef5350"/><line x1="944" y1="611.5100179999899" x2="944" y2="687.3243320000029" stroke="#26a69a" stroke-width="2"/><rect x="940" y="635.451379999995" width="8" height="49.87783799999761" fill="#26a69a"/><line x1="956" y1="617.4953579999965" x2="956" y2="685.3292179999926" stroke="#ef5350" stroke-width="2"/><rect x="952" y="633.4562660000074" width="8" height="27.93159000000287" fill="#ef5350"/><line x1="968" y1="633.4562660000074" x2="968" y2="709.2705799999976" stroke="#26a69a" stroke-width="2"/><rect x="964" y="655.4025160000037" width="8" height="5.985340000006545" fill="#26a69a"/><line x1="980" y1="627.4709260000009" x2="980" y2="713.2608059999939" stroke="#ef5350" stroke-width="2"/><rect x="976" y="655.4025160000037" width="8" height="29.926701999988836" fill="#ef5350"/><line x1="992" y1="539.6859319999976" x2="992" y2="681.3389899999947" stroke="#26a69a" stroke-width="2"/><rect x="988" y="583.5784299999887" width="8" height="77.80942600002163" fill="#26a69a"/><line x1="1004" y1="473.84718599998905" x2="1004" y2="593.5539959999915" stroke="#26a69a" stroke-width="2"/><rect x="1000" y="507.76411599999847" width="8" height="57.85829199999171" fill="#26a69a"/><line x1="1016" y1="211.48976199999652" x2="1016" y2="419.9791219999952" stroke="#ef5350" stroke-width="2"/><rect x="1012" y="244.40913400001136" width="8" height="157.61396599998534" fill="#ef5350"/><line x1="1028" y1="332.1941279999919" x2="1028" y2="447.91071199999806" stroke="#ef5350" stroke-width="2"/><rect x="1024" y="408.00844200000483" width="8" height="25.936473999990994" fill="#ef5350"/><line x1="1040" y1="310.24787999999717" x2="1040" y2="461.8765059999987" stroke="#26a69a" stroke-width="2"/><rect x="1036" y="384.0670799999998" width="8" height="51.87295000000631" fill="#26a69a"/><line x1="1052" y1="328.20390199999565" x2="1052" y2="394.0426460000026" stroke="#26a69a" stroke-width="2"/><rect x="1048" y="370.1012839999976" width="8" height="15.960908000010932" fill="#26a69a"/><line x1="1064" y1="304.2625399999906" x2="1064" y2="445.9155980000105" stroke="#26a69a" stroke-width="2"/><rect x="1060" y="331.1965719999989" width="8" height="40.89982600000894" fill="#26a69a"/><line x1="1076" y1="298.2771980000052" x2="1076" y2="499.78366200000437" stroke="#ef5350" stroke-width="2"/><rect x="1072" y="332.1941279999919" width="8" height="166.59197799999674" fill="#ef5350"/><line x1="1088" y1="421.9742360000055" x2="1088" y2="535.6957060000013" stroke="#26a69a" stroke-width="2"/><rect x="1084" y="434.1444279999905" width="8" height="63.64412000000357" fill="#26a69a"/><line x1="1100" y1="429.9546899999996" x2="1100" y2="573.602862000007" stroke="#ef5350" stroke-width="2"/><rect x="1096" y="429.9546899999996" width="8" height="81.79965399999674" fill="#ef5350"/><line x1="1112" y1="471.8520740000031" x2="1112" y2="563.6272940000026" stroke="#26a69a" stroke-width="2"/><rect x="1108" y="497.7885479999941" width="8" height="11.970682000014676" fill="#26a69a"/><line x1="1124" y1="441.9253699999899" x2="1124" y2="527.7152520000072" stroke="#26a69a" stroke-width="2"/><rect x="1120" y="507.76411599999847" width="8" height="2" fill="#26a69a"/><line x1="1136" y1="463.871620000009" x2="1136" y2="613.5051320000002" stroke="#ef5350" stroke-width="2"/><rect x="1132" y="503.7738900000022" width="8" height="105.74101400000018" fill="#ef5350"/><line x1="1148" y1="533.700591999991" x2="1148" y2="659.392742" stroke="#26a69a" stroke-width="2"/><rect x="1144" y="539.6859319999976" width="8" height="75.81431400001293" fill="#26a69a"/><line x1="1160" y1="312.24299400000746" x2="1160" y2="545.6712720000041" stroke="#26a69a" stroke-width="2"/><rect x="1156" y="314.2381059999934" width="8" height="227.44294000001446" fill="#26a69a"/><line x1="1172" y1="228.44822600000043" x2="1172" y2="334.1892420000022" stroke="#26a69a" stroke-width="2"/><rect x="1168" y="248.19984999999178" width="8" height="62.04803000000538" fill="#26a69a"/><line x1="1184" y1="216.47754600001008" x2="1184" y2="340.17458200000874" stroke="#ef5350" stroke-width="2"/><rect x="1180" y="243.41157799999564" width="8" height="40.89982600000894" fill="#ef5350"/><line x1="1196" y1="280.32117800000833" x2="1196" y2="481.8276400000059" stroke="#ef5350" stroke-width="2"/><rect x="1192" y="290.29674400001113" width="8" height="127.6872639999965" fill="#ef5350"/><line x1="1208" y1="368.1061719999889" x2="1208" y2="679.3438780000088" stroke="#ef5350" stroke-width="2"/><rect x="1204" y="422.17374800000016" width="8" height="175.37047599998914" fill="#ef5350"/><line x1="1220" y1="449.90582400000676" x2="1220" y2="699.2950119999932" stroke="#26a69a" stroke-width="2"/><rect x="1216" y="449.90582400000676" width="8" height="148.63595599999826" fill="#26a69a"/><line x1="1232" y1="370.1012839999976" x2="1232" y2="491.8032080000103" stroke="#26a69a" stroke-width="2"/><rect x="1228" y="417.98400800000763" width="8" height="31.921815999999126" fill="#26a69a"/><line x1="1244" y1="351.945752000006" x2="1244" y2="431.94980400000986" stroke="#26a69a" stroke-width="2"/><rect x="1240" y="391.04997599999933" width="8" height="40.89982800001053" fill="#26a69a"/><line x1="1256" y1="354.1403760000094" x2="1256" y2="425.96446200000173" stroke="#ef5350" stroke-width="2"/><rect x="1252" y="386.0621920000085" width="8" height="19.951135999986036" fill="#ef5350"/><line x1="1268" y1="398.03287400000045" x2="1268" y2="489.808094" stroke="#ef5350" stroke-width="2"/><rect x="1264" y="415.98889599999893" width="8" height="69.8289720000048" fill="#ef5350"/><line x1="1280" y1="445.9155980000105" x2="1280" y2="591.5588840000055" stroke="#ef5350" stroke-width="2"/><rect x="1276" y="475.84229999999934" width="8" height="103.74590199999147" fill="#ef5350"/><line x1="1292" y1="531.7054780000035" x2="1292" y2="631.4611539999987" stroke="#26a69a" stroke-width="2"/><rect x="1288" y="565.6224079999902" width="8" height="15.960908000010932" fill="#26a69a"/><line x1="1304" y1="475.84229999999934" x2="1304" y2="565.6224079999902" stroke="#26a69a" stroke-width="2"/><rect x="1300" y="501.7787759999919" width="8" height="61.8485180000107" fill="#26a69a"/><line x1="1316" y1="463.871620000009" x2="1316" y2="519.9343080000062" stroke="#26a69a" stroke-width="2"/><rect x="1312" y="469.8569599999928" width="8" height="39.90227000001596" fill="#26a69a"/><line x1="1328" y1="459.88139200001115" x2="1328" y2="519.7347979999904" stroke="#ef5350" stroke-width="2"/><rect x="1324" y="469.8569599999928" width="8" height="31.921815999999126" fill="#ef5350"/><line x1="1340" y1="435.9400300000061" x2="1340" y2="511.7543439999963" stroke="#26a69a" stroke-width="2"/><rect x="1336" y="447.91071199999806" width="8" height="57.85829000001286" fill="#26a69a"/><line x1="1352" y1="404.018214000007" x2="1352" y2="473.84718599998905" stroke="#26a69a" stroke-width="2"/><rect x="1348" y="442.92292800000723" width="8" height="2.9926700000032724" fill="#26a69a"/><line x1="1364" y1="366.1110580000013" x2="1364" y2="463.871620000009" stroke="#26a69a" stroke-width="2"/><rect x="1360" y="390.05242000000635" width="8" height="57.85829199999171" fill="#26a69a"/><line x1="1376" y1="360.1257179999948" x2="1376" y2="402.0230999999967" stroke="#26a69a" stroke-width="2"/><rect x="1372" y="362.1208300000035" width="8" height="27.93159000000287" fill="#26a69a"/><line x1="1388" y1="352.1452640000007" x2="1388" y2="419.9791219999952" stroke="#ef5350" stroke-width="2"/><rect x="1384" y="364.11594399999103" width="8" height="19.951136000008773" fill="#ef5350"/><line x1="1400" y1="312.24299400000746" x2="1400" y2="398.03287400000045" stroke="#26a69a" stroke-width="2"/><rect x="1396" y="326.2087880000081" width="8" height="53.868063999993865" fill="#26a69a"/><line x1="1412" y1="306.2576519999993" x2="1412" y2="370.1012839999976" stroke="#26a69a" stroke-width="2"/><rect x="1408" y="324.2136739999978" width="8" height="2" fill="#26a69a"/><line x1="1424" y1="196.32689800000662" x2="1424" y2="332.1941279999919" stroke="#26a69a" stroke-width="2"/><rect x="1420" y="196.5264100000013" width="8" height="123.69703800000025" fill="#26a69a"/><line x1="1436" y1="118.71698400000241" x2="1436" y2="200.51663799999915" stroke="#ef5350" stroke-width="2"/><rect x="1432" y="192.53618400000505" width="8" height="3.9902259999962553" fill="#ef5350"/><line x1="1448" y1="166.59970799998973" x2="1448" y2="336.18435599998975" stroke="#ef5350" stroke-width="2"/><rect x="1444" y="188.5459560000072" width="8" height="97.76056199998493" fill="#ef5350"/><line x1="1460" y1="290.29674400001113" x2="1460" y2="471.8520740000031" stroke="#ef5350" stroke-width="2"/><rect x="1456" y="292.2918579999987" width="8" height="41.89738400000351" fill="#ef5350"/><line x1="1472" y1="276.3309500000105" x2="1472" y2="376.0866260000057" stroke="#26a69a" stroke-width="2"/><rect x="1468" y="324.2136739999978" width="8" height="9.975568000004387" fill="#26a69a"/><line x1="1484" y1="284.3114040000046" x2="1484" y2="364.11594399999103" stroke="#26a69a" stroke-width="2"/><rect x="1480" y="312.44250400000055" width="8" height="5.985342000008131" fill="#26a69a"/><line x1="1496" y1="284.3114040000046" x2="1496" y2="348.15503600000284" stroke="#26a69a" stroke-width="2"/><rect x="1492" y="286.30651799999214" width="8" height="23.94136200000503" fill="#26a69a"/><line x1="1508" y1="260.37004199999956" x2="1508" y2="360.1257179999948" stroke="#ef5350" stroke-width="2"/><rect x="1504" y="288.3016320000024" width="8" height="67.8338579999945" fill="#ef5350"/><line x1="1520" y1="294.286972000009" x2="1520" y2="376.0866260000057" stroke="#26a69a" stroke-width="2"/><rect x="1516" y="330.39852599999904" width="8" height="3.790716000003158" fill="#26a69a"/><line x1="1532" y1="336.18435599998975" x2="1532" y2="411.9986680000011" stroke="#ef5350" stroke-width="2"/><rect x="1528" y="336.18435599998975" width="8" height="63.84363200002099" fill="#ef5350"/><line x1="1544" y1="326.2087880000081" x2="1544" y2="419.9791219999952" stroke="#26a69a" stroke-width="2"/><rect x="1540" y="380.07685200000196" width="8" height="21.94624799999474" fill="#26a69a"/><line x1="1556" y1="382.0719659999895" x2="1556" y2="529.7103639999932" stroke="#ef5350" stroke-width="2"/><rect x="1552" y="384.0670799999998" width="8" height="69.8289720000048" fill="#ef5350"/><line x1="1568" y1="370.1012839999976" x2="1568" y2="511.7543439999963" stroke="#26a69a" stroke-width="2"/><rect x="1564" y="380.07685200000196" width="8" height="65.83874600000854" fill="#26a69a"/><line x1="1580" y1="344.1648100000066" x2="1580" y2="419.9791219999952" stroke="#26a69a" stroke-width="2"/><rect x="1576" y="360.1257179999948" width="8" height="19.951134000007187" fill="#26a69a"/><line x1="1592" y1="300.2723119999928" x2="1592" y2="453.8960520000046" stroke="#ef5350" stroke-width="2"/><rect x="1588" y="346.15992199999255" width="8" height="93.77033600001141" fill="#ef5350"/><line x1="1604" y1="398.03287400000045" x2="1604" y2="455.89116599999215" stroke="#26a69a" stroke-width="2"/><rect x="1600" y="419.9791219999952" width="8" height="27.93159000000287" fill="#26a69a"/><line x1="1616" y1="399.8284759999933" x2="1616" y2="449.90582400000676" stroke="#ef5350" stroke-width="2"/><rect x="1612" y="406.01332799999454" width="8" height="9.975568000004387" fill="#ef5350"/><line x1="1628" y1="358.1306040000072" x2="1628" y2="419.9791219999952" stroke="#26a69a" stroke-width="2"/><rect x="1624" y="380.07685200000196" width="8" height="27.93159000000287" fill="#26a69a"/><line x1="1640" y1="256.3798160000033" x2="1640" y2="415.98889599999893" stroke="#26a69a" stroke-width="2"/><rect x="1636" y="282.3162899999943" width="8" height="97.76056200000767" fill="#26a69a"/><line x1="1652" y1="234.43356600000698" x2="1652" y2="300.2723119999928" stroke="#26a69a" stroke-width="2"/><rect x="1648" y="252.38958800000546" width="8" height="19.951135999986036" fill="#26a69a"/><line x1="1664" y1="251.39203199998974" x2="1664" y2="300.2723119999928" stroke="#26a69a" stroke-width="2"/><rect x="1660" y="258.17541799999617" width="8" height="2" fill="#26a69a"/><line x1="1676" y1="220.46777200000633" x2="1676" y2="268.35049599999365" stroke="#26a69a" stroke-width="2"/><rect x="1672" y="254.384701999993" width="8" height="9.975568000004387" fill="#26a69a"/><line x1="1688" y1="222.4628859999939" x2="1688" y2="266.3553820000061" stroke="#ef5350" stroke-width="2"/><rect x="1684" y="244.40913400001136" width="8" height="17.956021999998484" fill="#ef5350"/><line x1="1700" y1="244.40913400001136" x2="1700" y2="280.32117800000833" stroke="#ef5350" stroke-width="2"/><rect x="1696" y="266.3553820000061" width="8" height="7.980453999994097" fill="#ef5350"/><line x1="1712" y1="266.3553820000061" x2="1712" y2="366.1110580000013" stroke="#ef5350" stroke-width="2"/><rect x="1708" y="270.34561000000394" width="8" height="38.106668000000354" fill="#ef5350"/><line x1="1724" y1="302.26742600000307" x2="1724" y2="372.09639800000787" stroke="#ef5350" stroke-width="2"/><rect x="1720" y="304.2625399999906" width="8" height="55.863178000004154" fill="#ef5350"/><line x1="1736" y1="348.15503600000284" x2="1736" y2="429.9546899999996" stroke="#ef5350" stroke-width="2"/><rect x="1732" y="350.1501499999904" width="8" height="33.916930000009415" fill="#ef5350"/><line x1="1748" y1="328.20390199999565" x2="1748" y2="397.03531800000746" stroke="#26a69a" stroke-width="2"/><rect x="1744" y="330.19901400000435" width="8" height="59.853406000001996" fill="#26a69a"/><line x1="1760" y1="324.2136739999978" x2="1760" y2="437.93514399999367" stroke="#ef5350" stroke-width="2"/><rect x="1756" y="328.20390199999565" width="8" height="101.75078800000392" fill="#ef5350"/><line x1="1772" y1="384.0670799999998" x2="1772" y2="459.88139200001115" stroke="#26a69a" stroke-width="2"/><rect x="1768" y="396.03775999999016" width="8" height="35.912044000019705" fill="#26a69a"/><line x1="1784" y1="378.0817379999917" x2="1784" y2="435.9400300000061" stroke="#ef5350" stroke-width="2"/><rect x="1780" y="398.03287400000045" width="8" height="5.985340000006545" fill="#ef5350"/><line x1="1796" y1="370.1012839999976" x2="1796" y2="427.9595759999893" stroke="#ef5350" stroke-width="2"/><rect x="1792" y="410.0035539999908" width="8" height="13.965796000002229" fill="#ef5350"/><line x1="1808" y1="417.98400800000763" x2="1808" y2="469.8569599999928" stroke="#ef5350" stroke-width="2"/><rect x="1804" y="429.9546899999996" width="8" height="25.93647599999258" fill="#ef5350"/><line x1="1820" y1="429.9546899999996" x2="1820" y2="515.7445699999926" stroke="#ef5350" stroke-width="2"/><rect x="1816" y="443.9204840000002" width="8" height="59.853406000001996" fill="#ef5350"/><line x1="1832" y1="485.8178680000037" x2="1832" y2="555.6468400000085" stroke="#26a69a" stroke-width="2"/><rect x="1828" y="513.749456000005" width="8" height="2" fill="#26a69a"/><line x1="1844" y1="473.84718599998905" x2="1844" y2="549.661500000002" stroke="#26a69a" stroke-width="2"/><rect x="1840" y="483.82275399999344" width="8" height="28.929145999995853" fill="#26a69a"/><line x1="1856" y1="451.9009379999943" x2="1856" y2="525.720137999997" stroke="#ef5350" stroke-width="2"/><rect x="1852" y="483.82275399999344" width="8" height="33.916930000009415" fill="#ef5350"/><line x1="1868" y1="463.871620000009" x2="1868" y2="527.7152520000072" stroke="#26a69a" stroke-width="2"/><rect x="1864" y="465.86673199999495" width="8" height="51.8729520000079" fill="#26a69a"/><line x1="1880" y1="457.88627800000086" x2="1880" y2="499.78366200000437" stroke="#ef5350" stroke-width="2"/><rect x="1876" y="465.86673199999495" width="8" height="2" fill="#ef5350"/><line x1="1892" y1="457.88627800000086" x2="1892" y2="525.720137999997" stroke="#ef5350" stroke-width="2"/><rect x="1888" y="465.86673199999495" width="8" height="51.8729520000079" fill="#ef5350"/><line x1="1904" y1="479.8325279999972" x2="1904" y2="555.6468400000085" stroke="#ef5350" stroke-width="2"/><rect x="1900" y="517.7396840000029" width="8" height="9.975568000004387" fill="#ef5350"/><line x1="1916" y1="435.9400300000061" x2="1916" y2="537.69081800001" stroke="#26a69a" stroke-width="2"/><rect x="1912" y="439.93025800000396" width="8" height="87.78499400000328" fill="#26a69a"/><line x1="1928" y1="404.018214000007" x2="1928" y2="515.94408200001" stroke="#ef5350" stroke-width="2"/><rect x="1924" y="431.94980400000986" width="8" height="13.965794000000642" fill="#ef5350"/><line x1="1940" y1="408.00844200000483" x2="1940" y2="469.8569599999928" stroke="#ef5350" stroke-width="2"/><rect x="1936" y="439.93025800000396" width="8" height="17.956019999996897" fill="#ef5350"/><rect x="75" y="950.8641819656207" width="10" height="69.13581803437933" fill="#ef5350" opacity="0.9"/><rect x="87" y="985.2960695036234" width="10" height="34.70393049637664" fill="#ef5350" opacity="0.9"/><rect x="99" y="984.036287676689" width="10" height="35.96371232331103" fill="#26a69a" opacity="0.9"/><rect x="111" y="993.1169463793988" width="10" height="26.88305362060123" fill="#26a69a" opacity="0.9"/><rect x="123" y="987.9922862898258" width="10" height="32.007713710174244" fill="#26a69a" opacity="0.9"/><rect x="135" y="994.8508119167079" width="10" height="25.149188083292074" fill="#ef5350" opacity="0.9"/><rect x="147" y="979.6891592571685" width="10" height="40.31084074283149" fill="#ef5350" opacity="0.9"/><rect x="159" y="995.2333454636106" width="10" height="24.76665453638941" fill="#ef5350" opacity="0.9"/><rect x="171" y="984.5696855774823" width="10" height="35.430314422517654" fill="#ef5350" opacity="0.9"/><rect x="183" y="997.2491683118952" width="10" height="22.750831688104768" fill="#26a69a" opacity="0.9"/><rect x="195" y="999.6380688216534" width="10" height="20.361931178346595" fill="#26a69a" opacity="0.9"/><rect x="207" y="987.6914172079922" width="10" height="32.30858279200777" fill="#ef5350" opacity="0.9"/><rect x="219" y="995.1082698881627" width="10" height="24.89173011183732" fill="#ef5350" opacity="0.9"/><rect x="231" y="1000.2900951032841" width="10" height="19.709904896715898" fill="#26a69a" opacity="0.9"/><rect x="243" y="994.7416394212999" width="10" height="25.25836057870015" fill="#ef5350" opacity="0.9"/><rect x="255" y="998.2093704959182" width="10" height="21.790629504081835" fill="#26a69a" opacity="0.9"/><rect x="267" y="981.3671491078516" width="10" height="38.63285089214844" fill="#ef5350" opacity="0.9"/><rect x="279" y="978.9271008541816" width="10" height="41.07289914581838" fill="#ef5350" opacity="0.9"/><rect x="291" y="987.7550295281513" width="10" height="32.24497047184866" fill="#26a69a" opacity="0.9"/><rect x="303" y="1004.0793262824902" width="10" height="15.920673717509771" fill="#26a69a" opacity="0.9"/><rect x="315" y="1000.5621667158564" width="10" height="19.437833284143608" fill="#ef5350" opacity="0.9"/><rect x="327" y="998.1023470653803" width="10" height="21.897652934619714" fill="#26a69a" opacity="0.9"/><rect x="339" y="994.9273186260885" width="10" height="25.07268137391145" fill="#26a69a" opacity="0.9"/><rect x="351" y="995.2084163111158" width="10" height="24.791583688884202" fill="#26a69a" opacity="0.9"/><rect x="363" y="990.7834917432928" width="10" height="29.216508256707243" fill="#ef5350" opacity="0.9"/><rect x="375" y="992.5461547498631" width="10" height="27.45384525013685" fill="#26a69a" opacity="0.9"/><rect x="387" y="999.8817727779385" width="10" height="20.118227222061478" fill="#ef5350" opacity="0.9"/><rect x="399" y="997.4387158334504" width="10" height="22.561284166549626" fill="#ef5350" opacity="0.9"/><rect x="411" y="1004.6711787477542" width="10" height="15.328821252245802" fill="#ef5350" opacity="0.9"/><rect x="423" y="998.4057950250581" width="10" height="21.59420497494193" fill="#26a69a" opacity="0.9"/><rect x="435" y="993.5600835556421" width="10" height="26.43991644435789" fill="#26a69a" opacity="0.9"/><rect x="447" y="994.5873365636166" width="10" height="25.412663436383355" fill="#26a69a" opacity="0.9"/><rect x="459" y="1002.7795718489695" width="10" height="17.220428151030546" fill="#ef5350" opacity="0.9"/><rect x="471" y="965.7572015163802" width="10" height="54.24279848361982" fill="#ef5350" opacity="0.9"/><rect x="483" y="882.0549931373196" width="10" height="137.94500686268043" fill="#ef5350" opacity="0.9"/><rect x="495" y="978.7586141683548" width="10" height="41.241385831645175" fill="#26a69a" opacity="0.9"/><rect x="507" y="985.3485066864572" width="10" height="34.6514933135428" fill="#26a69a" opacity="0.9"/><rect x="519" y="980.7847525280166" width="10" height="39.21524747198339" fill="#ef5350" opacity="0.9"/><rect x="531" y="998.1100836989132" width="10" height="21.889916301086828" fill="#ef5350" opacity="0.9"/><rect x="543" y="996.6925605105032" width="10" height="23.3074394894968" fill="#ef5350" opacity="0.9"/><rect x="555" y="998.1779941488127" width="10" height="21.822005851187328" fill="#ef5350" opacity="0.9"/><rect x="567" y="978.0309408032917" width="10" height="41.96905919670826" fill="#26a69a" opacity="0.9"/><rect x="579" y="978.4938493763414" width="10" height="41.50615062365864" fill="#ef5350" opacity="0.9"/><rect x="591" y="988.4410110347318" width="10" height="31.558988965268213" fill="#26a69a" opacity="0.9"/><rect x="603" y="995.1839169715951" width="10" height="24.816083028404933" fill="#26a69a" opacity="0.9"/><rect x="615" y="1001.8675087180399" width="10" height="18.132491281960142" fill="#26a69a" opacity="0.9"/><rect x="627" y="999.1794583783443" width="10" height="20.820541621655707" fill="#ef5350" opacity="0.9"/><rect x="639" y="1000.9924095028783" width="10" height="19.00759049712167" fill="#ef5350" opacity="0.9"/><rect x="651" y="943.9751396175811" width="10" height="76.02486038241886" fill="#26a69a" opacity="0.9"/><rect x="663" y="996.7746547885463" width="10" height="23.225345211453714" fill="#ef5350" opacity="0.9"/><rect x="675" y="998.1853009693715" width="10" height="21.814699030628503" fill="#ef5350" opacity="0.9"/><rect x="687" y="999.1338982030952" width="10" height="20.866101796904786" fill="#26a69a" opacity="0.9"/><rect x="699" y="1004.1227373928691" width="10" height="15.877262607130888" fill="#ef5350" opacity="0.9"/><rect x="711" y="1001.3801008054695" width="10" height="18.61989919453049" fill="#26a69a" opacity="0.9"/><rect x="723" y="1004.615303061128" width="10" height="15.384696938872025" fill="#26a69a" opacity="0.9"/><rect x="735" y="1003.3615386158303" width="10" height="16.63846138416966" fill="#26a69a" opacity="0.9"/><rect x="747" y="999.9256137012915" width="10" height="20.074386298708532" fill="#ef5350" opacity="0.9"/><rect x="759" y="968.734945800584" width="10" height="51.265054199416" fill="#ef5350" opacity="0.9"/><rect x="771" y="960.5358335076464" width="10" height="59.46416649235357" fill="#ef5350" opacity="0.9"/><rect x="783" y="986.6925318563049" width="10" height="33.30746814369513" fill="#ef5350" opacity="0.9"/><rect x="795" y="976.6005232256604" width="10" height="43.39947677433963" fill="#26a69a" opacity="0.9"/><rect x="807" y="987.0617412010121" width="10" height="32.93825879898793" fill="#26a69a" opacity="0.9"/><rect x="819" y="977.691388553794" width="10" height="42.30861144620599" fill="#26a69a" opacity="0.9"/><rect x="831" y="1002.2771204823075" width="10" height="17.72287951769249" fill="#26a69a" opacity="0.9"/><rect x="843" y="993.3146603474609" width="10" height="26.68533965253914" fill="#26a69a" opacity="0.9"/><rect x="855" y="964.9289519153899" width="10" height="55.071048084610084" fill="#26a69a" opacity="0.9"/><rect x="867" y="969.3929894638513" width="10" height="50.607010536148664" fill="#ef5350" opacity="0.9"/><rect x="879" y="974.7252492198894" width="10" height="45.274750780110594" fill="#ef5350" opacity="0.9"/><rect x="891" y="996.8993005510202" width="10" height="23.100699448979753" fill="#26a69a" opacity="0.9"/><rect x="903" y="998.8248626747547" width="10" height="21.17513732524526" fill="#26a69a" opacity="0.9"/><rect x="915" y="991.6027152718281" width="10" height="28.39728472817194" fill="#ef5350" opacity="0.9"/><rect x="927" y="995.3300533827713" width="10" height="24.669946617228675" fill="#ef5350" opacity="0.9"/><rect x="939" y="993.7603764015485" width="10" height="26.239623598451544" fill="#26a69a" opacity="0.9"/><rect x="951" y="989.9101117800275" width="10" height="30.089888219972522" fill="#ef5350" opacity="0.9"/><rect x="963" y="993.4074999498552" width="10" height="26.59250005014485" fill="#26a69a" opacity="0.9"/><rect x="975" y="966.1655238417256" width="10" height="53.834476158274356" fill="#ef5350" opacity="0.9"/><rect x="987" y="929.1345572496555" width="10" height="90.86544275034453" fill="#26a69a" opacity="0.9"/><rect x="999" y="877.6592958517317" width="10" height="142.3407041482683" fill="#26a69a" opacity="0.9"/><rect x="1011" y="969.7342609652453" width="10" height="50.26573903475469" fill="#ef5350" opacity="0.9"/><rect x="1023" y="993.5759866356819" width="10" height="26.424013364318057" fill="#ef5350" opacity="0.9"/><rect x="1035" y="989.2920407233465" width="10" height="30.70795927665347" fill="#26a69a" opacity="0.9"/><rect x="1047" y="987.1644665018096" width="10" height="32.83553349819044" fill="#26a69a" opacity="0.9"/><rect x="1059" y="979.9676780643516" width="10" height="40.03232193564838" fill="#26a69a" opacity="0.9"/><rect x="1071" y="985.2505093283743" width="10" height="34.74949067162572" fill="#ef5350" opacity="0.9"/><rect x="1083" y="984.2473258469464" width="10" height="35.75267415305359" fill="#26a69a" opacity="0.9"/><rect x="1095" y="979.0401416663562" width="10" height="40.95985833364375" fill="#ef5350" opacity="0.9"/><rect x="1107" y="995.4263314889581" width="10" height="24.573668511041888" fill="#26a69a" opacity="0.9"/><rect x="1119" y="999.392215800498" width="10" height="20.60778419950202" fill="#26a69a" opacity="0.9"/><rect x="1131" y="993.2506182143277" width="10" height="26.749381785672313" fill="#ef5350" opacity="0.9"/><rect x="1143" y="990.4692984592638" width="10" height="29.53070154073623" fill="#26a69a" opacity="0.9"/><rect x="1155" y="964.9349692970266" width="10" height="55.065030702973445" fill="#26a69a" opacity="0.9"/><rect x="1167" y="962.1003527331807" width="10" height="57.89964726681933" fill="#26a69a" opacity="0.9"/><rect x="1179" y="970.3673754760179" width="10" height="49.632624523982145" fill="#ef5350" opacity="0.9"/><rect x="1191" y="939.3486327649296" width="10" height="80.65136723507044" fill="#ef5350" opacity="0.9"/><rect x="1203" y="972.1059689560416" width="10" height="47.89403104395842" fill="#ef5350" opacity="0.9"/><rect x="1215" y="987.0462679339463" width="10" height="32.9537320660537" fill="#26a69a" opacity="0.9"/><rect x="1227" y="982.1657416136326" width="10" height="37.834258386367424" fill="#26a69a" opacity="0.9"/><rect x="1239" y="992.9046187702191" width="10" height="27.095381229780855" fill="#26a69a" opacity="0.9"/><rect x="1251" y="993.0606408797985" width="10" height="26.939359120201516" fill="#ef5350" opacity="0.9"/><rect x="1263" y="990.229033006771" width="10" height="29.770966993228967" fill="#ef5350" opacity="0.9"/><rect x="1275" y="992.1692087716232" width="10" height="27.830791228376825" fill="#ef5350" opacity="0.9"/><rect x="1287" y="989.054354148698" width="10" height="30.945645851301947" fill="#26a69a" opacity="0.9"/><rect x="1299" y="996.340973497732" width="10" height="23.659026502268034" fill="#26a69a" opacity="0.9"/><rect x="1311" y="1001.752318840995" width="10" height="18.24768115900497" fill="#26a69a" opacity="0.9"/><rect x="1323" y="1002.0196625108528" width="10" height="17.980337489147246" fill="#ef5350" opacity="0.9"/><rect x="1335" y="997.8281263879377" width="10" height="22.171873612062313" fill="#26a69a" opacity="0.9"/><rect x="1347" y="996.2722034218843" width="10" height="23.727796578115658" fill="#26a69a" opacity="0.9"/><rect x="1359" y="1000.074328990312" width="10" height="19.925671009688017" fill="#26a69a" opacity="0.9"/><rect x="1371" y="999.7390748705546" width="10" height="20.260925129445354" fill="#26a69a" opacity="0.9"/><rect x="1383" y="995.6597199338661" width="10" height="24.340280066133914" fill="#ef5350" opacity="0.9"/><rect x="1395" y="990.7753252967858" width="10" height="29.22467470321419" fill="#26a69a" opacity="0.9"/><rect x="1407" y="1002.3428818673368" width="10" height="17.657118132663186" fill="#26a69a" opacity="0.9"/><rect x="1419" y="980.9343274429854" width="10" height="39.065672557014636" fill="#26a69a" opacity="0.9"/><rect x="1431" y="976.318565914685" width="10" height="43.681434085315004" fill="#ef5350" opacity="0.9"/><rect x="1443" y="959.1909487118505" width="10" height="60.809051288149476" fill="#ef5350" opacity="0.9"/><rect x="1455" y="979.1398582763353" width="10" height="40.8601417236647" fill="#ef5350" opacity="0.9"/><rect x="1467" y="1003.0813005567511" width="10" height="16.918699443248897" fill="#26a69a" opacity="0.9"/><rect x="1479" y="980.4954883964824" width="10" height="39.504511603517585" fill="#26a69a" opacity="0.9"/><rect x="1491" y="1000.7577316190482" width="10" height="19.242268380951828" fill="#26a69a" opacity="0.9"/><rect x="1503" y="977.9595918495999" width="10" height="42.04040815040014" fill="#ef5350" opacity="0.9"/><rect x="1515" y="998.9314562923187" width="10" height="21.06854370768133" fill="#26a69a" opacity="0.9"/><rect x="1527" y="997.8547747923287" width="10" height="22.145225207671274" fill="#ef5350" opacity="0.9"/><rect x="1539" y="996.2949835095089" width="10" height="23.70501649049106" fill="#26a69a" opacity="0.9"/><rect x="1551" y="993.5802847654224" width="10" height="26.419715234577552" fill="#ef5350" opacity="0.9"/><rect x="1563" y="999.9965328420094" width="10" height="20.0034671579906" fill="#26a69a" opacity="0.9"/><rect x="1575" y="1000.0936705741442" width="10" height="19.9063294258558" fill="#26a69a" opacity="0.9"/><rect x="1587" y="993.1208146961652" width="10" height="26.879185303834788" fill="#ef5350" opacity="0.9"/><rect x="1599" y="995.0343420566264" width="10" height="24.96565794337357" fill="#26a69a" opacity="0.9"/><rect x="1611" y="993.2351449472619" width="10" height="26.764855052738085" fill="#ef5350" opacity="0.9"/><rect x="1623" y="999.5405012765445" width="10" height="20.459498723455454" fill="#26a69a" opacity="0.9"/><rect x="1635" y="983.0098942946626" width="10" height="36.99010570533744" fill="#26a69a" opacity="0.9"/><rect x="1647" y="992.8384275722158" width="10" height="27.161572427784222" fill="#26a69a" opacity="0.9"/><rect x="1659" y="991.0620105504757" width="10" height="28.937989449524252" fill="#26a69a" opacity="0.9"/><rect x="1671" y="992.1700683975713" width="10" height="27.8299316024287" fill="#26a69a" opacity="0.9"/><rect x="1683" y="998.8983606933169" width="10" height="21.10163930668307" fill="#ef5350" opacity="0.9"/><rect x="1695" y="996.23352025422" width="10" height="23.766479745779975" fill="#ef5350" opacity="0.9"/><rect x="1707" y="990.0846158474909" width="10" height="29.91538415250909" fill="#ef5350" opacity="0.9"/><rect x="1719" y="994.8250231382651" width="10" height="25.174976861734876" fill="#ef5350" opacity="0.9"/><rect x="1731" y="993.5059271209121" width="10" height="26.494072879087867" fill="#ef5350" opacity="0.9"/><rect x="1743" y="997.5668000997166" width="10" height="22.433199900283398" fill="#26a69a" opacity="0.9"/><rect x="1755" y="990.8380779909969" width="10" height="29.161922009003092" fill="#ef5350" opacity="0.9"/><rect x="1767" y="995.2539764863649" width="10" height="24.746023513635123" fill="#26a69a" opacity="0.9"/><rect x="1779" y="992.1361131726214" width="10" height="27.863886827378565" fill="#ef5350" opacity="0.9"/><rect x="1791" y="993.7182547300918" width="10" height="26.281745269908242" fill="#ef5350" opacity="0.9"/><rect x="1803" y="994.2714240276914" width="10" height="25.72857597230859" fill="#ef5350" opacity="0.9"/><rect x="1815" y="984.8937645599145" width="10" height="35.10623544008547" fill="#ef5350" opacity="0.9"/><rect x="1827" y="973.0279177853744" width="10" height="46.97208221462563" fill="#26a69a" opacity="0.9"/><rect x="1839" y="990.8806294754276" width="10" height="29.119370524572446" fill="#26a69a" opacity="0.9"/><rect x="1851" y="987.0845212886366" width="10" height="32.91547871136345" fill="#ef5350" opacity="0.9"/><rect x="1863" y="986.6912424173828" width="10" height="33.308757582617204" fill="#26a69a" opacity="0.9"/><rect x="1875" y="977.5933911957111" width="10" height="42.40660880428891" fill="#ef5350" opacity="0.9"/><rect x="1887" y="978.6980105390141" width="10" height="41.30198946098585" fill="#ef5350" opacity="0.9"/><rect x="1899" y="975.1834298502245" width="10" height="44.81657014977554" fill="#ef5350" opacity="0.9"/><rect x="1911" y="967.415419970257" width="10" height="52.58458002974305" fill="#26a69a" opacity="0.9"/><rect x="1923" y="958.0975045058726" width="10" height="61.90249549412738" fill="#ef5350" opacity="0.9"/><rect x="1935" y="860.0" width="10" height="160.0" fill="#ef5350" opacity="0.9"/><rect x="1004" y="244.40913400001136" width="12" height="263.3549819999871" fill="#00ff00" opacity="0.60"/><polyline points="320,302.01328639047915,332,311.7280414009201,344,319.75753841036294,356,320.7519646570063,368,322.981759451568,380,323.0990846466739,392,327.1954630612754,404,332.04177496020293,416,336.6165442020929,428,332.5851563733295,440,319.62718052825494,452,305.4331570493787,464,295.251096758966,476,300.09955630573586,488,324.2473819909037,500,336.9748958965374,512,340.6998225730604,524,348.82026442323877,536,361.8676552400757,548,380.3228156933983,560,404.6207741987928,572,420.90431722747326,584,438.48720872961167,596,447.5551499934454,608,449.10909951788653,620,448.2349241352267,632,453.5243494556653,644,464.58037655513635,656,469.8331785974915,668,481.42610292154586,680,494.76510130996303,692,503.0335027090132,704,514.1246426414909,716,520.3592673422918,728,524.19501559541,740,525.1003085863204,752,530.4796426257326,764,555.3927995185177,776,581.6384856596187,788,619.3503771205997,800,644.6351572043568,812,660.1014414706015,824,663.2641300924433,836,663.4654588455533,848,659.2773648602588,860,648.0777154449925,872,643.074991116896,884,645.5791167248208,896,645.1846027510328,908,645.017672393783,920,647.9068131181748,932,651.660862535482,944,650.117102294007,956,651.1905074088645,968,651.5916510842089,980,654.804752695236,992,648.0212933909343,1004,634.6634669727564,1016,612.5072415467912,1028,595.5013057804308,1040,575.3647128489547,1052,555.8158148633311,1064,534.4235060191977,1076,531.0294679221215,1088,521.8023212628623,1100,520.8453710473577,1112,518.6494831380969,1124,517.6127815058862,1136,526.365364600565,1148,527.6339900671928,1160,507.3105725369942,1172,482.63336086679374,1184,463.74555545089606,1196,459.3873128365203,1208,472.54511389969593,1220,470.3889910521184,1232,465.39804028525396,1244,458.3172722580912,1256,453.33594423350405,1268,456.42946078269233,1280,468.1588647081526,1292,477.4411069264261,1304,479.7589801715276,1316,478.8159306313901,1328,481.00286828555454,1340,477.8512343536022,1352,474.52472898658016,1364,466.47974717834586,1376,456.5408026851628,1388,449.63854338182045,1400,437.8833285835526,1412,427.05764719464696,1424,405.1022912713506,1436,385.23792162645805,1448,375.8158831858509,1460,371.85144116815536,1472,367.31451096165983,1484,362.0886055367464,1496,354.87126386658474,1508,354.9916663554768,1520,352.6494625120904,1532,357.16170303476247,1544,359.34409817432424,1556,368.3490461577321,1568,369.465980047471,1580,368.5764312810534,1592,375.37203382571533,1604,379.6203279375504,1616,383.08400108635396,1628,382.797605935275,1640,373.22795679856426,1652,361.7195407225154,1664,351.8581957013339,1676,342.575005825006,1688,334.9359725083332,1700,329.1645309361229,1712,327.19193541840923,1724,330.32848614045633,1736,335.44644746041286,1748,334.94669189276465,1760,343.99507266487035,1772,348.95151907774107,1784,354.19596621318306,1796,360.8410503833511,1808,369.8934423468472,1820,382.6439611709702,1832,395.13019877372244,1844,403.5771087952753,1856,414.4497350052461,1868,419.3465918618813,1880,423.96709225599807,1892,432.8978152792388,1904,441.92804734789206,1916,441.73778169572415,1928,442.13566896280554,1940,443.63572696634037" fill="none" stroke="#0090ff" stroke-width="2"/><line x1="80" y1="50" x2="80" y2="900" stroke="#666666" stroke-width="0.5" stroke-dasharray="4,4" opacity="0.90"/><line x1="152" y1="50" x2="152" y2="900" stroke="#666666" stroke-width="0.5" stroke-dasharray="4,4" opacity="0.90"/><line x1="224" y1="50" x2="224" y2="900" stroke="#666666" stroke-width="0.5" stroke-dasharray="4,4" opacity="0.90"/><line x1="296" y1="50" x2="296" y2="900" stroke="#666666" stroke-width="0.5" stroke-dasharray="4,4" opacity="0.90"/><line x1="368" y1="50" x2="368" y2="900" stroke="#666666" stroke-width="0.5" stroke-dasharray="4,4" opacity="0.90"/><line x1="440" y1="50" x2="440" y2="900" stroke="#666666" stroke-width="0.5" stroke-dasharray="4,4" opacity="0.90"/><line x1="512" y1="50" x2="512" y2="900" stroke="#666666" stroke-width="0.5" stroke-dasharray="4,4" opacity="0.90"/><line x1="584" y1="50" x2="584" y2="900" stroke="#666666" stroke-width="0.5" stroke-dasharray="4,4" opacity="0.90"/><line x1="656" y1="50" x2="656" y2="900" stroke="#666666" stroke-width="0.5" stroke-dasharray="4,4" opacity="0.90"/><line x1="728" y1="50" x2="728" y2="900" stroke="#666666" stroke-width="0.5" stroke-dasharray="4,4" opacity="0.90"/><line x1="800" y1="50" x2="800" y2="900" stroke="#666666" stroke-width="0.5" stroke-dasharray="4,4" opacity="0.90"/><line x1="872" y1="50" x2="872" y2="900" stroke="#666666" stroke-width="0.5" stroke-dasharray="4,4" opacity="0.90"/><line x1="944" y1="50" x2="944" y2="900" stroke="#666666" stroke-width="0.5" stroke-dasharray="4,4" opacity="0.90"/><line x1="1010" y1="30" x2="1010" y2="950" stroke="black" stroke-width="0.7"/><line x1="1016" y1="50" x2="1016" y2="900" stroke="#666666" stroke-width="0.5" stroke-dasharray="4,4" opacity="0.90"/><line x1="1088" y1="50" x2="1088" y2="900" stroke="#666666" stroke-width="0.5" stroke-dasharray="4,4" opacity="0.90"/><line x1="1160" y1="50" x2="1160" y2="900" stroke="#666666" stroke-width="0.5" stroke-dasharray="4,4" opacity="0.90"/><line x1="1232" y1="50" x2="1232" y2="900" stroke="#666666" stroke-width="0.5" stroke-dasharray="4,4" opacity="0.90"/><line x1="1304" y1="50" x2="1304" y2="900" stroke="#666666" stroke-width="0.5" stroke-dasharray="4,4" opacity="0.90"/><line x1="1376" y1="50" x2="1376" y2="900" stroke="#666666" stroke-width="0.5" stroke-dasharray="4,4" opacity="0.90"/><line x1="1448" y1="50" x2="1448" y2="900" stroke="#666666" stroke-width="0.5" stroke-dasharray="4,4" opacity="0.90"/><line x1="1520" y1="50" x2="1520" y2="900" stroke="#666666" stroke-width="0.5" stroke-dasharray="4,4" opacity="0.90"/><line x1="1592" y1="50" x2="1592" y2="900" stroke="#666666" stroke-width="0.5" stroke-dasharray="4,4" opacity="0.90"/><line x1="1664" y1="50" x2="1664" y2="900" stroke="#666666" stroke-width="0.5" stroke-dasharray="4,4" opacity="0.90"/><line x1="1736" y1="50" x2="1736" y2="900" stroke="#666666" stroke-width="0.5" stroke-dasharray="4,4" opacity="0.90"/><line x1="1808" y1="50" x2="1808" y2="900" stroke="#666666" stroke-width="0.5" stroke-dasharray="4,4" opacity="0.90"/><line x1="1880" y1="50" x2="1880" y2="900" stroke="#666666" stroke-width="0.5" stroke-dasharray="4,4" opacity="0.90"/><line x1="1946" y1="30" x2="1946" y2="950" stroke="black" stroke-width="0.7"/><text x="80" y="1040" text-anchor="middle" font-size="20" fill="black">09:30</text><text x="152" y="1040" text-anchor="middle" font-size="20" fill="black">10:00</text><text x="224" y="1040" text-anchor="middle" font-size="20" fill="black">10:30</text><text x="296" y="1040" text-anchor="middle" font-size="20" fill="black">11:00</text><text x="368" y="1040" text-anchor="middle" font-size="20" fill="black">11:30</text><text x="440" y="1040" text-anchor="middle" font-size="20" fill="black">12:00</text><text x="512" y="1040" text-anchor="middle" font-size="20" fill="black">12:30</text><text x="584" y="1040" text-anchor="middle" font-size="20" fill="black">13:00</text><text x="656" y="1040" text-anchor="middle" font-size="20" fill="black">13:30</text><text x="728" y="1040" text-anchor="middle" font-size="20" fill="black">14:00</text><text x="800" y="1040" text-anchor="middle" font-size="20" fill="black">14:30</text><text x="872" y="1040" text-anchor="middle" font-size="20" fill="black">15:00</text><text x="944" y="1040" text-anchor="middle" font-size="20" fill="black">15:30</text><text x="1016" y="1040" text-anchor="middle" font-size="20" fill="black">09:30</text><text x="1088" y="1040" text-anchor="middle" font-size="20" fill="black">10:00</text><text x="1160" y="1040" text-anchor="middle" font-size="20" fill="black">10:30</text><text x="1232" y="1040" text-anchor="middle" font-size="20" fill="black">11:00</text><text x="1304" y="1040" text-anchor="middle" font-size="20" fill="black">11:30</text><text x="1376" y="1040" text-anchor="middle" font-size="20" fill="black">12:00</text><text x="1448" y="1040" text-anchor="middle" font-size="20" fill="black">12:30</text><text x="1520" y="1040" text-anchor="middle" font-size="20" fill="black">13:00</text><text x="1592" y="1040" text-anchor="middle" font-size="20" fill="black">13:30</text><text x="1664" y="1040" text-anchor="middle" font-size="20" fill="black">14:00</text><text x="1736" y="1040" text-anchor="middle" font-size="20" fill="black">14:30</text><text x="1808" y="1040" text-anchor="middle" font-size="20" fill="black">15:00</text><text x="1880" y="1040" text-anchor="middle" font-size="20" fill="black">15:30</text><text x="1942" y="50" text-anchor="end" font-size="40" fill="#ef5350" font-weight="bold"> -0.19% (Tue)</text></svg>