<svg xmlns="http://www.w3.org/2000/svg" width="1992" height="1050"><rect width="100%" height="100%" fill="white"/><text x="42" y="854.0" text-anchor="end" font-size="20" fill="black">484</text><text x="42" y="806.9411764705883" text-anchor="end" font-size="20" fill="black">485</text><text x="42" y="759.8823529411765" text-anchor="end" font-size="20" fill="black">486</text><text x="42" y="712.8235294117646" text-anchor="end" font-size="20" fill="black">487</text><text x="42" y="665.7647058823529" text-anchor="end" font-size="20" fill="black">488</text><text x="42" y="618.7058823529412" text-anchor="end" font-size="20" fill="black">489</text><text x="42" y="571.6470588235294" text-anchor="end" font-size="20" fill="black">490</text><text x="42" y="524.5882352941177" text-anchor="end" font-size="20" fill="black">491</text><text x="42" y="477.5294117647059" text-anchor="end" font-size="20" fill="black">492</text><text x="42" y="430.4705882352941" text-anchor="end" font-size="20" fill="black">493</text><text x="42" y="383.4117647058823" text-anchor="end" font-size="20" fill="black">494</text><text x="42" y="336.3529411764706" text-anchor="end" font-size="20" fill="black">495</text><text x="42" y="289.2941176470588" text-anchor="end" font-size="20" fill="black">496</text><text x="42" y="242.23529411764707" text-anchor="end" font-size="20" fill="black">497</text><text x="42" y="195.17647058823536" text-anchor="end" font-size="20" fill="black">498</text><text x="42" y="148.11764705882354" text-anchor="end" font-size="20" fill="black">499</text><text x="42" y="101.05882352941182" text-anchor="end" font-size="20" fill="black">500</text><text x="42" y="54.0" text-anchor="end" font-size="20" fill="black">501</text><line x1="80" y1="365.6090268235296" x2="80" y2="435.84109647058807" stroke="#ef5350" stroke-width="2"/><rect x="76" y="394.6382823529401" width="8" height="7.023207058824369" fill="#ef5350"/><line x1="92" y1="377.78258541176433" x2="92" y2="514.9692287058823" stroke="#ef5350" stroke-width="2"/><rect x="88" y="399.3204202352953" width="8" height="44.012096941175" fill="#ef5350"/><line x1="104" y1="350.62618494117646" x2="104" y2="445.2053727058817" stroke="#26a69a" stroke-width="2"/><rect x="100" y="384.8057924705887" width="8" height="58.994938823528116" fill="#26a69a"/><line x1="116" y1="377.78258541176433" x2="116" y2="474.70284188235274" stroke="#ef5350" stroke-width="2"/><rect x="112" y="385.27400611764654" width="8" height="86.61955294117644" fill="#ef5350"/><line x1="128" y1="407.2800545882354" x2="128" y2="510.2870908235298" stroke="#ef5350" stroke-width="2"/><rect x="124" y="476.1074832941176" width="8" height="15.45105552941095" fill="#ef5350"/><line x1="140" y1="459.2517863529418" x2="140" y2="563.6634640000011" stroke="#ef5350" stroke-width="2"/><rect x="136" y="493.431393882354" width="8" height="14.51462776470396" fill="#ef5350"/><line x1="152" y1="324.40621223529297" x2="152" y2="505.13673882352816" stroke="#26a69a" stroke-width="2"/><rect x="148" y="371.6958061176469" width="8" height="133.44093270588127" fill="#26a69a"/><line x1="164" y1="307.08230164705924" x2="164" y2="395.5747096470585" stroke="#26a69a" stroke-width="2"/><rect x="160" y="352.03082635294135" width="8" height="13.109986352941746" fill="#26a69a"/><line x1="176" y1="330.4929915294131" x2="176" y2="405.87541317647054" stroke="#ef5350" stroke-width="2"/><rect x="172" y="356.24475058823595" width="8" height="22.47426258823532" fill="#ef5350"/><line x1="188" y1="368.41830964705935" x2="188" y2="459.2517863529418" stroke="#ef5350" stroke-width="2"/><rect x="184" y="381.06008188235194" width="8" height="63.67707670588328" fill="#ef5350"/><line x1="200" y1="422.7311101176463" x2="200" y2="529.483856470589" stroke="#ef5350" stroke-width="2"/><rect x="196" y="450.8239383529411" width="8" height="34.17960705882365" fill="#ef5350"/><line x1="212" y1="459.2517863529418" x2="212" y2="519.6513665882349" stroke="#ef5350" stroke-width="2"/><rect x="208" y="486.8764009411761" width="8" height="7.491420705882263" fill="#ef5350"/><line x1="224" y1="431.6271722352934" x2="224" y2="514.5010150588245" stroke="#26a69a" stroke-width="2"/><rect x="220" y="455.5060762352936" width="8" height="36.98888988235336" fill="#26a69a"/><line x1="236" y1="371.6958061176469" x2="236" y2="459.2517863529418" stroke="#26a69a" stroke-width="2"/><rect x="232" y="389.95614399999903" width="8" height="67.42278729411737" fill="#26a69a"/><line x1="248" y1="386.2104338823535" x2="248" y2="448.4828691764693" stroke="#ef5350" stroke-width="2"/><rect x="244" y="386.2104338823535" width="8" height="17.323910588233673" fill="#ef5350"/><line x1="260" y1="375.90973035294155" x2="260" y2="467.2114211764705" stroke="#ef5350" stroke-width="2"/><rect x="256" y="408.68469600000026" width="8" height="37.457103999999845" fill="#ef5350"/><line x1="272" y1="396.51113741176556" x2="272" y2="488.281042352941" stroke="#26a69a" stroke-width="2"/><rect x="268" y="398.3839924705883" width="8" height="49.63066305882313" fill="#26a69a"/><line x1="284" y1="374.9733025882345" x2="284" y2="432.09538635293995" stroke="#ef5350" stroke-width="2"/><rect x="280" y="397.91577882353045" width="8" height="26.219972705880764" fill="#ef5350"/><line x1="296" y1="428.34967576470586" x2="296" y2="492.0267524705891" stroke="#ef5350" stroke-width="2"/><rect x="292" y="428.34967576470586" width="8" height="40.734600470587395" fill="#ef5350"/><line x1="308" y1="461.12464188235316" x2="308" y2="509.8188767058833" stroke="#ef5350" stroke-width="2"/><rect x="304" y="470.02070400000025" width="8" height="31.370324705882467" fill="#ef5350"/><line x1="320" y1="494.83603529411886" x2="320" y2="582.8602296470575" stroke="#ef5350" stroke-width="2"/><rect x="316" y="501.3910287058827" width="8" height="31.370324235293765" fill="#ef5350"/><line x1="332" y1="523.3970771764716" x2="332" y2="566.0045327058817" stroke="#ef5350" stroke-width="2"/><rect x="328" y="533.6977807058836" width="8" height="22.942476235293157" fill="#ef5350"/><line x1="344" y1="526.2063600000013" x2="344" y2="580.9873745882348" stroke="#26a69a" stroke-width="2"/><rect x="340" y="529.0156428235284" width="8" height="27.156400000001895" fill="#26a69a"/><line x1="356" y1="511.6917322352947" x2="356" y2="577.7098776470586" stroke="#26a69a" stroke-width="2"/><rect x="352" y="527.6110014117635" width="8" height="2" fill="#26a69a"/><line x1="368" y1="529.483856470589" x2="368" y2="608.143774588234" stroke="#ef5350" stroke-width="2"/><rect x="364" y="529.483856470589" width="8" height="74.44599435294163" fill="#ef5350"/><line x1="380" y1="540.7209877647052" x2="380" y2="610.016630117648" stroke="#26a69a" stroke-width="2"/><rect x="376" y="565.068105411766" width="8" height="32.30675199999814" fill="#26a69a"/><line x1="392" y1="560.3859670588222" x2="392" y2="620.7855472941179" stroke="#ef5350" stroke-width="2"/><rect x="388" y="560.3859670588222" width="8" height="44.94852517647064" fill="#ef5350"/><line x1="404" y1="567.8773882352931" x2="404" y2="624.9994715294125" stroke="#26a69a" stroke-width="2"/><rect x="400" y="583.3284432941181" width="8" height="20.1331934117635" fill="#26a69a"/><line x1="416" y1="563.6634640000011" x2="416" y2="618.4444785882346" stroke="#26a69a" stroke-width="2"/><rect x="412" y="570.2184569411763" width="8" height="14.982841882353114" fill="#26a69a"/><line x1="428" y1="440.52323435294056" x2="428" y2="578.1780917647051" stroke="#26a69a" stroke-width="2"/><rect x="424" y="483.59890399999983" width="8" height="88.02419435294144" fill="#26a69a"/><line x1="440" y1="415.23968941176406" x2="440" y2="493.431393882354" stroke="#26a69a" stroke-width="2"/><rect x="436" y="483.130690352942" width="8" height="5.618565647056812" fill="#26a69a"/><line x1="452" y1="440.52323435294056" x2="452" y2="486.4081868235296" stroke="#26a69a" stroke-width="2"/><rect x="448" y="440.52323435294056" width="8" height="45.88495247058904" fill="#26a69a"/><line x1="464" y1="417.580758588236" x2="464" y2="461.592855529411" stroke="#ef5350" stroke-width="2"/><rect x="460" y="442.3960898823519" width="8" height="8.427848470589254" fill="#ef5350"/><line x1="476" y1="393.2336409411753" x2="476" y2="453.1650070588245" stroke="#26a69a" stroke-width="2"/><rect x="472" y="418.9854000000008" width="8" height="30.433896941175476" fill="#26a69a"/><line x1="488" y1="344.53940564705914" x2="488" y2="427.6473552941163" stroke="#26a69a" stroke-width="2"/><rect x="484" y="357.6493920000009" width="8" height="59.463152470588625" fill="#26a69a"/><line x1="500" y1="326.7472814117649" x2="500" y2="375.44151623529507" stroke="#26a69a" stroke-width="2"/><rect x="496" y="330.4929915294131" width="8" height="24.81533129411588" fill="#26a69a"/><line x1="512" y1="315.9783637647064" x2="512" y2="341.73012282352937" stroke="#26a69a" stroke-width="2"/><rect x="508" y="326.7472814117649" width="8" height="2.341068705883231" fill="#26a69a"/><line x1="524" y1="298.1862395294122" x2="524" y2="345.007619294117" stroke="#26a69a" stroke-width="2"/><rect x="520" y="301.93195011764624" width="8" height="27.156400000001895" fill="#26a69a"/><line x1="536" y1="287.88553600000023" x2="536" y2="319.72407435294053" stroke="#ef5350" stroke-width="2"/><rect x="532" y="298.1862395294122" width="8" height="6.554992941175215" fill="#ef5350"/><line x1="548" y1="305.6776602352944" x2="548" y2="370.7593783529399" stroke="#ef5350" stroke-width="2"/><rect x="544" y="305.6776602352944" width="8" height="4.682137882352549" fill="#ef5350"/><line x1="560" y1="225.1448865882353" x2="560" y2="309.42337082352856" stroke="#26a69a" stroke-width="2"/><rect x="556" y="250.89664564705822" width="8" height="58.526725176470336" fill="#26a69a"/><line x1="572" y1="215.7806108235303" x2="572" y2="258.38806635294054" stroke="#26a69a" stroke-width="2"/><rect x="568" y="222.33560376470564" width="8" height="28.561041882352583" fill="#26a69a"/><line x1="584" y1="206.88454870588316" x2="584" y2="254.64235623529498" stroke="#26a69a" stroke-width="2"/><rect x="580" y="219.9945350588223" width="8" height="2" fill="#26a69a"/><line x1="596" y1="204.54347952941134" x2="596" y2="364.6725990588226" stroke="#ef5350" stroke-width="2"/><rect x="592" y="225.1448865882353" width="8" height="113.30773976470641" fill="#ef5350"/><line x1="608" y1="246.68272141176362" x2="608" y2="345.47583341176346" stroke="#26a69a" stroke-width="2"/><rect x="604" y="273.8391218823541" width="8" height="66.95457317646827" fill="#26a69a"/><line x1="620" y1="247.61914917647061" x2="620" y2="304.7412324705874" stroke="#26a69a" stroke-width="2"/><rect x="616" y="272.4344804705893" width="8" height="5.150351999998975" fill="#26a69a"/><line x1="632" y1="254.17414211764594" x2="632" y2="297.71802588235164" stroke="#ef5350" stroke-width="2"/><rect x="628" y="272.9026941176471" width="8" height="7.959634823528745" fill="#ef5350"/><line x1="644" y1="272.9026941176471" x2="644" y2="319.72407435294053" stroke="#ef5350" stroke-width="2"/><rect x="640" y="278.0530461176461" width="8" height="18.260338352943336" fill="#ef5350"/><line x1="656" y1="271.4980527058822" x2="656" y2="359.0540334117657" stroke="#ef5350" stroke-width="2"/><rect x="652" y="300.5273087058814" width="8" height="11.705344941176918" fill="#ef5350"/><line x1="668" y1="278.9894738823531" x2="668" y2="333.77048847058927" stroke="#26a69a" stroke-width="2"/><rect x="664" y="286.4808945882353" width="8" height="21.069620705881903" fill="#26a69a"/><line x1="680" y1="287.4173218823537" x2="680" y2="337.5161985882347" stroke="#ef5350" stroke-width="2"/><rect x="676" y="287.4173218823537" width="8" height="37.925318117646384" fill="#ef5350"/><line x1="692" y1="242.93701129411818" x2="692" y2="320.192288000001" stroke="#26a69a" stroke-width="2"/><rect x="688" y="255.1573915294124" width="8" height="65.03489647058859" fill="#26a69a"/><line x1="704" y1="220.46274870588286" x2="704" y2="256.9834249411756" stroke="#26a69a" stroke-width="2"/><rect x="700" y="230.29523858823427" width="8" height="23.878903529411673" fill="#26a69a"/><line x1="716" y1="190.96527952941176" x2="716" y2="233.10452141176404" stroke="#26a69a" stroke-width="2"/><rect x="712" y="195.6474174117642" width="8" height="35.584248941177066" fill="#26a69a"/><line x1="728" y1="168.95923105882287" x2="728" y2="233.5727350588246" stroke="#26a69a" stroke-width="2"/><rect x="724" y="168.95923105882287" width="8" height="29.965682823528937" fill="#26a69a"/><line x1="740" y1="90.29931247058926" x2="740" y2="186.2831416470592" stroke="#26a69a" stroke-width="2"/><rect x="736" y="91.23574023529352" width="8" height="78.42581129411883" fill="#26a69a"/><line x1="752" y1="68.29326400000036" x2="752" y2="110.43250588235264" stroke="#26a69a" stroke-width="2"/><rect x="748" y="82.5737849411754" width="8" height="8.19374117647169" fill="#26a69a"/><line x1="764" y1="62.206484705882986" x2="764" y2="138.05712000000096" stroke="#ef5350" stroke-width="2"/><rect x="760" y="76.2528983529404" width="8" height="59.46315294117733" fill="#ef5350"/><line x1="776" y1="81.40325035294211" x2="776" y2="151.63532047058914" stroke="#26a69a" stroke-width="2"/><rect x="772" y="86.5536018823525" width="8" height="44.4803110588241" fill="#26a69a"/><line x1="788" y1="84.68074682352972" x2="788" y2="147.42139623529454" stroke="#ef5350" stroke-width="2"/><rect x="784" y="84.68074682352972" width="8" height="58.99493882352806" fill="#ef5350"/><line x1="800" y1="108.55965082352986" x2="800" y2="142.7392578823535" stroke="#26a69a" stroke-width="2"/><rect x="796" y="126.35177505882416" width="8" height="16.387482823529353" fill="#26a69a"/><line x1="812" y1="109.49607811764827" x2="812" y2="186.75135529411705" stroke="#ef5350" stroke-width="2"/><rect x="808" y="127.75641647058899" width="8" height="15.45105552941095" fill="#ef5350"/><line x1="824" y1="113.24178870588241" x2="824" y2="152.57174776470492" stroke="#ef5350" stroke-width="2"/><rect x="820" y="140.86640282353073" width="8" height="5.618565647056812" fill="#ef5350"/><line x1="836" y1="103.40929882352827" x2="836" y2="160.06316847058713" stroke="#26a69a" stroke-width="2"/><rect x="832" y="108.55965082352986" width="8" height="32.77496564705871" fill="#26a69a"/><line x1="848" y1="94.98145035294169" x2="848" y2="131.9703407058836" stroke="#ef5350" stroke-width="2"/><rect x="844" y="106.68679529411861" width="8" height="2.3410691764692046" fill="#ef5350"/><line x1="860" y1="80.93503670588154" x2="860" y2="135.71605129411773" stroke="#ef5350" stroke-width="2"/><rect x="856" y="111.36893364705963" width="8" height="21.06962070588179" fill="#ef5350"/><line x1="872" y1="53.77863623529379" x2="872" y2="131.9703407058836" stroke="#26a69a" stroke-width="2"/><rect x="868" y="72.08579576470527" width="8" height="56.6070484705881" fill="#26a69a"/><line x1="884" y1="46.28721552941147" x2="884" y2="91.23574023529352" stroke="#26a69a" stroke-width="2"/><rect x="880" y="55.18327764705862" width="8" height="18.260337882352133" fill="#26a69a"/><line x1="896" y1="48.6282842352947" x2="896" y2="82.33967811764637" stroke="#26a69a" stroke-width="2"/><rect x="892" y="59.397201882353215" width="8" height="3.2774964705876073" fill="#26a69a"/><line x1="908" y1="48.16007058823425" x2="908" y2="168.95923105882287" stroke="#ef5350" stroke-width="2"/><rect x="904" y="58.460774117646224" width="8" height="67.89100094117794" fill="#ef5350"/><line x1="920" y1="108.09143670588344" x2="920" y2="179.7281482352954" stroke="#ef5350" stroke-width="2"/><rect x="916" y="122.13785082352956" width="8" height="14.982841411764412" fill="#ef5350"/><line x1="932" y1="77.18932611764751" x2="932" y2="146.0167548235297" stroke="#26a69a" stroke-width="2"/><rect x="928" y="85.14896094117614" width="8" height="53.8445868235292" fill="#26a69a"/><line x1="944" y1="82.80789176470694" x2="944" y2="142.7392578823535" stroke="#ef5350" stroke-width="2"/><rect x="940" y="87.02181599999892" width="8" height="29.02925552941315" fill="#ef5350"/><line x1="956" y1="102.4728710588239" x2="956" y2="142.27104423529295" stroke="#26a69a" stroke-width="2"/><rect x="952" y="110.43250588235264" width="8" height="2.341069176471933" fill="#26a69a"/><line x1="968" y1="83.27610541176477" x2="968" y2="124.01070588235223" stroke="#26a69a" stroke-width="2"/><rect x="964" y="91.23574023529352" width="8" height="21.06962070588179" fill="#26a69a"/><line x1="980" y1="90.29931247058926" x2="980" y2="135.2478371764712" stroke="#ef5350" stroke-width="2"/><rect x="976" y="90.29931247058926" width="8" height="27.624614117645592" fill="#ef5350"/><line x1="992" y1="67.35683623529326" x2="992" y2="185.81492752941278" stroke="#26a69a" stroke-width="2"/><rect x="988" y="83.74431952941131" width="8" height="54.31280047058965" fill="#26a69a"/><line x1="1004" y1="83.74431952941131" x2="1004" y2="129.16105788235393" stroke="#ef5350" stroke-width="2"/><rect x="1000" y="83.74431952941131" width="8" height="34.64782117646996" fill="#ef5350"/><line x1="1016" y1="509.8188767058833" x2="1016" y2="594.0973609411766" stroke="#ef5350" stroke-width="2"/><rect x="1012" y="511.2235181176482" width="8" height="34.64782117647013" fill="#ef5350"/><line x1="1028" y1="502.79567011764755" x2="1028" y2="606.2709195294112" stroke="#26a69a" stroke-width="2"/><rect x="1024" y="524.8017185882364" width="8" height="24.3471176470581" fill="#26a69a"/><line x1="1040" y1="506.54138023529305" x2="1040" y2="587.0741538823522" stroke="#ef5350" stroke-width="2"/><rect x="1036" y="527.6110014117635" width="8" height="55.24922823529403" fill="#ef5350"/><line x1="1052" y1="516.3738701176471" x2="1052" y2="592.2245054117652" stroke="#26a69a" stroke-width="2"/><rect x="1048" y="531.3567115294117" width="8" height="51.97173176470642" fill="#26a69a"/><line x1="1064" y1="475.63926964705973" x2="1064" y2="543.530270588235" stroke="#26a69a" stroke-width="2"/><rect x="1060" y="523.3970771764716" width="8" height="7.491420705882206" fill="#26a69a"/><line x1="1076" y1="500.4546009411757" x2="1076" y2="565.5363190588239" stroke="#ef5350" stroke-width="2"/><rect x="1072" y="525.2699322352943" width="8" height="20.601407058824066" fill="#ef5350"/><line x1="1088" y1="428.34967576470586" x2="1088" y2="575.8370225882359" stroke="#26a69a" stroke-width="2"/><rect x="1084" y="458.3153590588234" width="8" height="86.15133882353001" fill="#26a69a"/><line x1="1100" y1="379.655440470587" x2="1100" y2="459.2517863529418" stroke="#26a69a" stroke-width="2"/><rect x="1096" y="405.40719952941265" width="8" height="52.90815952941074" fill="#26a69a"/><line x1="1112" y1="382.46472329411677" x2="1112" y2="426.9450343529409" stroke="#26a69a" stroke-width="2"/><rect x="1108" y="406.8118409411775" width="8" height="2" fill="#26a69a"/><line x1="1124" y1="342.19833647058726" x2="1124" y2="413.83504799999923" stroke="#26a69a" stroke-width="2"/><rect x="1120" y="359.9904611764701" width="8" height="49.16244894117665" fill="#26a69a"/><line x1="1136" y1="315.5101501176458" x2="1136" y2="368.8865232941172" stroke="#26a69a" stroke-width="2"/><rect x="1132" y="349.22154352941163" width="8" height="9.832489882354082" fill="#26a69a"/><line x1="1148" y1="332.36584705882444" x2="1148" y2="408.21648235294236" stroke="#26a69a" stroke-width="2"/><rect x="1144" y="342.19833647058726" width="8" height="8.89606258823568" fill="#26a69a"/><line x1="1160" y1="332.8340607058823" x2="1160" y2="385.74222023529296" stroke="#ef5350" stroke-width="2"/><rect x="1156" y="342.66655058823636" width="8" height="34.17960705882359" fill="#ef5350"/><line x1="1172" y1="295.37695670588244" x2="1172" y2="391.36078541176386" stroke="#26a69a" stroke-width="2"/><rect x="1168" y="303.80480517647163" width="8" height="71.63671105882344" fill="#26a69a"/><line x1="1184" y1="281.79875670588285" x2="1184" y2="334.2387021176471" stroke="#26a69a" stroke-width="2"/><rect x="1180" y="298.65445317647004" width="8" height="6.554993411766532" fill="#26a69a"/><line x1="1196" y1="287.4173218823537" x2="1196" y2="347.8169021176467" stroke="#ef5350" stroke-width="2"/><rect x="1192" y="301.93195011764624" width="8" height="42.13924188235501" fill="#ef5350"/><line x1="1208" y1="339.3890536470601" x2="1208" y2="407.74826870588186" stroke="#ef5350" stroke-width="2"/><rect x="1204" y="343.1347642352942" width="8" height="59.931366588235164" fill="#ef5350"/><line x1="1220" y1="370.291164705882" x2="1220" y2="425.07217929411826" stroke="#26a69a" stroke-width="2"/><rect x="1216" y="374.50508894117667" width="8" height="26.219972705883492" fill="#26a69a"/><line x1="1232" y1="325.3426400000001" x2="1232" y2="373.10044752941184" stroke="#26a69a" stroke-width="2"/><rect x="1228" y="352.03082635294135" width="8" height="18.260338352940664" fill="#26a69a"/><line x1="1244" y1="308.955156705882" x2="1244" y2="381.5282960000011" stroke="#26a69a" stroke-width="2"/><rect x="1240" y="309.42337082352856" width="8" height="39.798172705883076" fill="#26a69a"/><line x1="1256" y1="301.93195011764624" x2="1256" y2="358.58581976470515" stroke="#ef5350" stroke-width="2"/><rect x="1252" y="310.8280122352934" width="8" height="30.433896941178148" fill="#ef5350"/><line x1="1268" y1="333.3022743529401" x2="1268" y2="370.291164705882" stroke="#ef5350" stroke-width="2"/><rect x="1264" y="347.34868847058885" width="8" height="14.046414117646123" fill="#ef5350"/><line x1="1280" y1="352.03082635294135" x2="1280" y2="437.24573788235296" stroke="#ef5350" stroke-width="2"/><rect x="1276" y="367.0136682352944" width="8" height="26.688186352941386" fill="#ef5350"/><line x1="1292" y1="368.41830964705935" x2="1292" y2="468.6160625882354" stroke="#ef5350" stroke-width="2"/><rect x="1288" y="393.2336409411753" width="8" height="3.745710117648116" fill="#ef5350"/><line x1="1304" y1="323.93799858823513" x2="1304" y2="413.83504799999923" stroke="#26a69a" stroke-width="2"/><rect x="1300" y="362.7997439999998" width="8" height="34.17960705882359" fill="#26a69a"/><line x1="1316" y1="356.71296423529384" x2="1316" y2="475.63926964705973" stroke="#ef5350" stroke-width="2"/><rect x="1312" y="363.26795764705764" width="8" height="98.79311152941392" fill="#ef5350"/><line x1="1328" y1="457.3789312941164" x2="1328" y2="496.70889035294164" stroke="#ef5350" stroke-width="2"/><rect x="1324" y="468.6160625882354" width="8" height="8.427848470589197" fill="#ef5350"/><line x1="1340" y1="458.3153590588234" x2="1340" y2="506.54138023529305" stroke="#ef5350" stroke-width="2"/><rect x="1336" y="475.17105552941064" width="8" height="26.21997317647208" fill="#ef5350"/><line x1="1352" y1="502.3274560000011" x2="1352" y2="559.4495397647065" stroke="#ef5350" stroke-width="2"/><rect x="1348" y="502.3274560000011" width="8" height="35.1160352941165" fill="#ef5350"/><line x1="1364" y1="536.5070635294106" x2="1364" y2="583.7966574117645" stroke="#ef5350" stroke-width="2"/><rect x="1360" y="541.6574150588236" width="8" height="34.647821176470075" fill="#ef5350"/><line x1="1376" y1="552.4263327058821" x2="1376" y2="654.96515482353" stroke="#ef5350" stroke-width="2"/><rect x="1372" y="581.4555882352954" width="8" height="73.04135294117418" fill="#ef5350"/><line x1="1388" y1="615.1669816470584" x2="1388" y2="683.9944103529406" stroke="#26a69a" stroke-width="2"/><rect x="1384" y="621.7219750588222" width="8" height="31.838538352943033" fill="#26a69a"/><line x1="1400" y1="619.380905882353" x2="1400" y2="675.0983482352935" stroke="#ef5350" stroke-width="2"/><rect x="1396" y="619.380905882353" width="8" height="54.78101458823619" fill="#ef5350"/><line x1="1412" y1="645.6008785882365" x2="1412" y2="692.4222588235299" stroke="#26a69a" stroke-width="2"/><rect x="1408" y="651.2194442352933" width="8" height="18.26033835294072" fill="#26a69a"/><line x1="1424" y1="599.2477124705896" x2="1424" y2="654.96515482353" stroke="#ef5350" stroke-width="2"/><rect x="1420" y="653.0922997647046" width="8" height="2" fill="#ef5350"/><line x1="1436" y1="655.9015825882344" x2="1436" y2="719.1104451764712" stroke="#ef5350" stroke-width="2"/><rect x="1432" y="655.9015825882344" width="8" height="32.77496564705871" fill="#ef5350"/><line x1="1448" y1="631.0862508235299" x2="1448" y2="691.9540447058835" stroke="#26a69a" stroke-width="2"/><rect x="1444" y="663.8612169411772" width="8" height="23.410689882351107" fill="#26a69a"/><line x1="1460" y1="655.9015825882344" x2="1460" y2="701.7865345882349" stroke="#ef5350" stroke-width="2"/><rect x="1456" y="660.1155063529404" width="8" height="39.32995952941383" fill="#ef5350"/><line x1="1472" y1="642.7915957647067" x2="1472" y2="706.9368865882365" stroke="#26a69a" stroke-width="2"/><rect x="1468" y="680.0145929411776" width="8" height="19.899086588234468" fill="#26a69a"/><line x1="1484" y1="680.2486997647065" x2="1484" y2="760.3132597647051" stroke="#ef5350" stroke-width="2"/><rect x="1480" y="684.9308381176477" width="8" height="64.14529035294117" fill="#ef5350"/><line x1="1496" y1="717.2375901176458" x2="1496" y2="755.6311218823527" stroke="#26a69a" stroke-width="2"/><rect x="1492" y="721.4515143529404" width="8" height="23.878903529411673" fill="#26a69a"/><line x1="1508" y1="645.1326649411759" x2="1508" y2="726.1336522352929" stroke="#26a69a" stroke-width="2"/><rect x="1504" y="666.670499764707" width="8" height="53.844586823529085" fill="#26a69a"/><line x1="1520" y1="656.8380098823528" x2="1520" y2="705.0640315294111" stroke="#ef5350" stroke-width="2"/><rect x="1516" y="669.9479962352946" width="8" height="16.85569694117578" fill="#ef5350"/><line x1="1532" y1="663.8612169411772" x2="1532" y2="709.2779552941171" stroke="#ef5350" stroke-width="2"/><rect x="1528" y="686.3354795294125" width="8" height="11.705344941176804" fill="#ef5350"/><line x1="1544" y1="676.034775529412" x2="1544" y2="723.7925835294124" stroke="#26a69a" stroke-width="2"/><rect x="1540" y="678.8440583529416" width="8" height="17.32391058823373" fill="#26a69a"/><line x1="1556" y1="639.5140992941165" x2="1556" y2="678.8440583529416" stroke="#26a69a" stroke-width="2"/><rect x="1552" y="646.069092705883" width="8" height="32.77496564705859" fill="#26a69a"/><line x1="1568" y1="628.2769680000001" x2="1568" y2="665.734072" stroke="#26a69a" stroke-width="2"/><rect x="1564" y="645.6008785882365" width="8" height="2.3410691764692046" fill="#26a69a"/><line x1="1580" y1="635.7683891764709" x2="1580" y2="720.515086588236" stroke="#ef5350" stroke-width="2"/><rect x="1576" y="647.9419477647057" width="8" height="63.67707670588334" fill="#ef5350"/><line x1="1592" y1="679.780486117646" x2="1592" y2="728.4747214117648" stroke="#26a69a" stroke-width="2"/><rect x="1588" y="708.8097416470592" width="8" height="2" fill="#26a69a"/><line x1="1604" y1="698.9772517647051" x2="1604" y2="779.5100254117642" stroke="#ef5350" stroke-width="2"/><rect x="1600" y="708.8097416470592" width="8" height="66.48635952941038" fill="#ef5350"/><line x1="1616" y1="778.1053839999994" x2="1616" y2="816.9671294117641" stroke="#ef5350" stroke-width="2"/><rect x="1612" y="778.1053839999994" width="8" height="6.554993411766418" fill="#ef5350"/><line x1="1628" y1="730.815790117648" x2="1628" y2="796.36572235294" stroke="#26a69a" stroke-width="2"/><rect x="1624" y="754.2264804705877" width="8" height="29.4974691764711" fill="#26a69a"/><line x1="1640" y1="704.1276037647067" x2="1640" y2="753.7582663529413" stroke="#26a69a" stroke-width="2"/><rect x="1636" y="726.1336522352929" width="8" height="26.219972705883492" fill="#26a69a"/><line x1="1652" y1="714.8965209411766" x2="1652" y2="742.9893491764715" stroke="#26a69a" stroke-width="2"/><rect x="1648" y="728.0065072941184" width="8" height="2.8092828235296565" fill="#26a69a"/><line x1="1664" y1="720.0468729411756" x2="1664" y2="801.9842879999995" stroke="#ef5350" stroke-width="2"/><rect x="1660" y="729.4111487058832" width="8" height="67.42278729411737" fill="#ef5350"/><line x1="1676" y1="757.9721905882359" x2="1676" y2="801.0478602352952" stroke="#26a69a" stroke-width="2"/><rect x="1672" y="772.955032470589" width="8" height="22.942475764704568" fill="#26a69a"/><line x1="1688" y1="737.3707835294119" x2="1688" y2="787.0014461176464" stroke="#ef5350" stroke-width="2"/><rect x="1684" y="771.5503910588241" width="8" height="8.427848000000722" fill="#ef5350"/><line x1="1700" y1="758.9086183529403" x2="1700" y2="829.1406879999987" stroke="#ef5350" stroke-width="2"/><rect x="1696" y="783.7239496470588" width="8" height="34.647821176470075" fill="#ef5350"/><line x1="1712" y1="801.5160738823531" x2="1712" y2="833.8228263529398" stroke="#26a69a" stroke-width="2"/><rect x="1708" y="804.3253567058828" width="8" height="13.109986352941746" fill="#26a69a"/><line x1="1724" y1="806.1982122352941" x2="1724" y2="854.8924470588244" stroke="#ef5350" stroke-width="2"/><rect x="1720" y="806.1982122352941" width="8" height="26.219972705883492" fill="#ef5350"/><line x1="1736" y1="817.4353430588245" x2="1736" y2="861.9156541176461" stroke="#ef5350" stroke-width="2"/><rect x="1732" y="833.5887190588223" width="8" height="6.78910023529545" fill="#ef5350"/><line x1="1748" y1="810.4121360000001" x2="1748" y2="853.956019764706" stroke="#26a69a" stroke-width="2"/><rect x="1744" y="837.1003228235302" width="8" height="2" fill="#26a69a"/><line x1="1760" y1="774.3596734117652" x2="1760" y2="841.7824607058826" stroke="#26a69a" stroke-width="2"/><rect x="1756" y="795.4292945882357" width="8" height="43.54388329411711" fill="#26a69a"/><line x1="1772" y1="664.7976447058816" x2="1772" y2="798.2385774117655" stroke="#26a69a" stroke-width="2"/><rect x="1768" y="694.7633275294105" width="8" height="101.6023948235295" fill="#26a69a"/><line x1="1784" y1="630.1498235294115" x2="1784" y2="697.1043967058824" stroke="#26a69a" stroke-width="2"/><rect x="1780" y="681.1851275294109" width="8" height="3.277496470590222" fill="#26a69a"/><line x1="1796" y1="678.3758447058811" x2="1796" y2="817.4353430588245" stroke="#ef5350" stroke-width="2"/><rect x="1792" y="680.7169138823531" width="8" height="125.48129835294105" fill="#ef5350"/><line x1="1808" y1="743.9257764705872" x2="1808" y2="833.8228263529398" stroke="#26a69a" stroke-width="2"/><rect x="1804" y="757.0357632941175" width="8" height="50.09887623529505" fill="#26a69a"/><line x1="1820" y1="709.7461694117635" x2="1820" y2="772.018604705882" stroke="#26a69a" stroke-width="2"/><rect x="1816" y="750.0125562352931" width="8" height="11.237130823530379" fill="#26a69a"/><line x1="1832" y1="715.364735058823" x2="1832" y2="768.2728941176479" stroke="#26a69a" stroke-width="2"/><rect x="1828" y="718.6422315294107" width="8" height="35.584248941177066" fill="#26a69a"/><line x1="1844" y1="695.2315416470597" x2="1844" y2="756.0993355294105" stroke="#26a69a" stroke-width="2"/><rect x="1840" y="722.3879421176474" width="8" height="2" fill="#26a69a"/><line x1="1856" y1="710.6825967058819" x2="1856" y2="826.3314051764717" stroke="#ef5350" stroke-width="2"/><rect x="1852" y="724.2607971764702" width="8" height="81.00098729411695" fill="#ef5350"/><line x1="1868" y1="735.4979284705892" x2="1868" y2="813.6896329411765" stroke="#26a69a" stroke-width="2"/><rect x="1864" y="745.7986320000011" width="8" height="57.122083294116806" fill="#26a69a"/><line x1="1880" y1="690.5494032941185" x2="1880" y2="756.5675491764711" stroke="#ef5350" stroke-width="2"/><rect x="1876" y="745.3304178823521" width="8" height="8.427848470589197" fill="#ef5350"/><line x1="1892" y1="706.468672941176" x2="1892" y2="772.4868183529398" stroke="#ef5350" stroke-width="2"/><rect x="1888" y="752.3536249411763" width="8" height="12.173559058823344" fill="#ef5350"/><line x1="1904" y1="758.9086183529403" x2="1904" y2="811.3485637647073" stroke="#ef5350" stroke-width="2"/><rect x="1900" y="769.6775355294128" width="8" height="34.17960752940951" fill="#ef5350"/><line x1="1916" y1="759.8450456470587" x2="1916" y2="820.7128400000008" stroke="#26a69a" stroke-width="2"/><rect x="1912" y="760.7814734117657" width="8" height="46.82138023529342" fill="#26a69a"/><line x1="1928" y1="735.4979284705892" x2="1928" y2="787.0014461176464" stroke="#26a69a" stroke-width="2"/><rect x="1924" y="737.8389971764698" width="8" height="22.942476235295885" fill="#26a69a"/><line x1="1940" y1="731.7522178823524" x2="1940" y2="787.0014461176464" stroke="#ef5350" stroke-width="2"/><rect x="1936" y="736.9025698823541" width="8" height="24.347117176469396" fill="#ef5350"/><rect x="75" y="971.3752054932102" width="10" height="48.62479450678984" fill="#ef5350" opacity="0.9"/><rect x="87" y="974.3469941166832" width="10" height="45.65300588331684" fill="#ef5350" opacity="0.9"/><rect x="99" y="971.6112253474223" width="10" height="48.388774652577695" fill="#26a69a" opacity="0.9"/><rect x="111" y="984.6253548226812" width="10" height="35.374645177318826" fill="#ef5350" opacity="0.9"/><rect x="123" y="984.0177292405606" width="10" height="35.982270759439416" fill="#ef5350" opacity="0.9"/><rect x="135" y="979.399087636577" width="10" height="40.60091236342305" fill="#ef5350" opacity="0.9"/><rect x="147" y="960.4498385127313" width="10" height="59.550161487268724" fill="#26a69a" opacity="0.9"/><rect x="159" y="978.1312407825393" width="10" height="41.868759217460706" fill="#26a69a" opacity="0.9"/><rect x="171" y="993.219860555347" width="10" height="26.780139444652946" fill="#ef5350" opacity="0.9"/><rect x="183" y="989.2730694210245" width="10" height="30.726930578975498" fill="#ef5350" opacity="0.9"/><rect x="195" y="988.7468482231114" width="10" height="31.253151776888558" fill="#ef5350" opacity="0.9"/><rect x="207" y="988.9297437876297" width="10" height="31.070256212370282" fill="#ef5350" opacity="0.9"/><rect x="219" y="995.9389784278382" width="10" height="24.06102157216185" fill="#26a69a" opacity="0.9"/><rect x="231" y="994.3069262444563" width="10" height="25.69307375554365" fill="#26a69a" opacity="0.9"/><rect x="243" y="1001.605040728622" width="10" height="18.394959271377957" fill="#ef5350" opacity="0.9"/><rect x="255" y="995.1503073808403" width="10" height="24.84969261915967" fill="#ef5350" opacity="0.9"/><rect x="267" y="1000.2761405864287" width="10" height="19.72385941357129" fill="#26a69a" opacity="0.9"/><rect x="279" y="1000.6712690097738" width="10" height="19.328730990226177" fill="#ef5350" opacity="0.9"/><rect x="291" y="1001.5048710480551" width="10" height="18.495128951944935" fill="#ef5350" opacity="0.9"/><rect x="303" y="1000.967020652398" width="10" height="19.03297934760201" fill="#ef5350" opacity="0.9"/><rect x="315" y="990.2478076319253" width="10" height="29.752192368074702" fill="#ef5350" opacity="0.9"/><rect x="327" y="1002.458200963109" width="10" height="17.541799036891007" fill="#ef5350" opacity="0.9"/><rect x="339" y="992.5821047790716" width="10" height="27.417895220928358" fill="#26a69a" opacity="0.9"/><rect x="351" y="992.2303215473177" width="10" height="27.769678452682342" fill="#26a69a" opacity="0.9"/><rect x="363" y="993.9567288123947" width="10" height="26.04327118760534" fill="#ef5350" opacity="0.9"/><rect x="375" y="996.3100555558492" width="10" height="23.689944444150797" fill="#26a69a" opacity="0.9"/><rect x="387" y="995.3609544399749" width="10" height="24.639045560025124" fill="#ef5350" opacity="0.9"/><rect x="399" y="1001.5305081430814" width="10" height="18.46949185691858" fill="#26a69a" opacity="0.9"/><rect x="411" y="999.4248304515829" width="10" height="20.57516954841708" fill="#26a69a" opacity="0.9"/><rect x="423" y="958.2643422367177" width="10" height="61.73565776328235" fill="#26a69a" opacity="0.9"/><rect x="435" y="988.2399209214553" width="10" height="31.760079078544663" fill="#26a69a" opacity="0.9"/><rect x="447" y="999.0857336173676" width="10" height="20.914266382632377" fill="#26a69a" opacity="0.9"/><rect x="459" y="997.0426950137172" width="10" height="22.957304986282793" fill="#ef5350" opacity="0.9"/><rect x="471" y="997.7935711680472" width="10" height="22.20642883195285" fill="#26a69a" opacity="0.9"/><rect x="483" y="990.2253421362836" width="10" height="29.774657863716357" fill="#26a69a" opacity="0.9"/><rect x="495" y="998.3533584594485" width="10" height="21.646641540551514" fill="#26a69a" opacity="0.9"/><rect x="507" y="1001.9322440651447" width="10" height="18.067755934855313" fill="#26a69a" opacity="0.9"/><rect x="519" y="997.0350303152042" width="10" height="22.964969684795847" fill="#26a69a" opacity="0.9"/><rect x="531" y="1001.42293806395" width="10" height="18.577061936049972" fill="#ef5350" opacity="0.9"/><rect x="543" y="993.2029453586287" width="10" height="26.797054641371346" fill="#ef5350" opacity="0.9"/><rect x="555" y="992.3000967337813" width="10" height="27.699903266218712" fill="#26a69a" opacity="0.9"/><rect x="567" y="998.5164315278123" width="10" height="21.4835684721877" fill="#26a69a" opacity="0.9"/><rect x="579" y="987.7425084179533" width="10" height="32.25749158204667" fill="#26a69a" opacity="0.9"/><rect x="591" y="948.5862067142759" width="10" height="71.41379328572407" fill="#ef5350" opacity="0.9"/><rect x="603" y="983.2877327821799" width="10" height="36.71226721782011" fill="#26a69a" opacity="0.9"/><rect x="615" y="994.1591825731185" width="10" height="25.840817426881472" fill="#26a69a" opacity="0.9"/><rect x="627" y="995.0255578050418" width="10" height="24.974442194958215" fill="#ef5350" opacity="0.9"/><rect x="639" y="1001.2083265055846" width="10" height="18.791673494415363" fill="#ef5350" opacity="0.9"/><rect x="651" y="991.5293980832968" width="10" height="28.47060191670323" fill="#ef5350" opacity="0.9"/><rect x="663" y="998.1091453068258" width="10" height="21.89085469317422" fill="#26a69a" opacity="0.9"/><rect x="675" y="1002.493881456187" width="10" height="17.506118543813045" fill="#ef5350" opacity="0.9"/><rect x="687" y="996.2252152723082" width="10" height="23.77478472769178" fill="#26a69a" opacity="0.9"/><rect x="699" y="985.8572568836921" width="10" height="34.142743116307884" fill="#26a69a" opacity="0.9"/><rect x="711" y="997.73489657943" width="10" height="22.26510342056997" fill="#26a69a" opacity="0.9"/><rect x="723" y="986.4685826650949" width="10" height="33.531417334905086" fill="#26a69a" opacity="0.9"/><rect x="735" y="980.5968950042023" width="10" height="39.40310499579766" fill="#26a69a" opacity="0.9"/><rect x="747" y="992.9198801135433" width="10" height="27.080119886456714" fill="#26a69a" opacity="0.9"/><rect x="759" y="989.6367461504713" width="10" height="30.363253849528746" fill="#ef5350" opacity="0.9"/><rect x="771" y="997.0627818098203" width="10" height="22.937218190179692" fill="#26a69a" opacity="0.9"/><rect x="783" y="994.6809106719033" width="10" height="25.319089328096652" fill="#ef5350" opacity="0.9"/><rect x="795" y="996.8820006448918" width="10" height="23.117999355108168" fill="#26a69a" opacity="0.9"/><rect x="807" y="988.2719012152512" width="10" height="31.728098784748795" fill="#ef5350" opacity="0.9"/><rect x="819" y="996.4839649221108" width="10" height="23.516035077889228" fill="#ef5350" opacity="0.9"/><rect x="831" y="1000.6414031155678" width="10" height="19.358596884432245" fill="#26a69a" opacity="0.9"/><rect x="843" y="1001.4435534599506" width="10" height="18.556446540049365" fill="#ef5350" opacity="0.9"/><rect x="855" y="999.806479577543" width="10" height="20.193520422457027" fill="#ef5350" opacity="0.9"/><rect x="867" y="991.3779542126769" width="10" height="28.622045787323145" fill="#26a69a" opacity="0.9"/><rect x="879" y="993.6834426654121" width="10" height="26.316557334587856" fill="#26a69a" opacity="0.9"/><rect x="891" y="991.7056861490969" width="10" height="28.29431385090311" fill="#26a69a" opacity="0.9"/><rect x="903" y="974.9921502915229" width="10" height="45.007849708477124" fill="#ef5350" opacity="0.9"/><rect x="915" y="988.8834912966026" width="10" height="31.116508703397358" fill="#ef5350" opacity="0.9"/><rect x="927" y="984.8175008854048" width="10" height="35.1824991145952" fill="#26a69a" opacity="0.9"/><rect x="939" y="979.9950840209538" width="10" height="40.004915979046245" fill="#ef5350" opacity="0.9"/><rect x="951" y="997.6355197987092" width="10" height="22.364480201290803" fill="#26a69a" opacity="0.9"/><rect x="963" y="991.1453702577982" width="10" height="28.854629742201837" fill="#26a69a" opacity="0.9"/><rect x="975" y="987.3344292971207" width="10" height="32.665570702879336" fill="#ef5350" opacity="0.9"/><rect x="987" y="934.5611299351408" width="10" height="85.4388700648592" fill="#26a69a" opacity="0.9"/><rect x="999" y="933.7129913996797" width="10" height="86.28700860032029" fill="#ef5350" opacity="0.9"/><rect x="1011" y="950.4162195592534" width="10" height="69.58378044074664" fill="#ef5350" opacity="0.9"/><rect x="1023" y="955.6261001485366" width="10" height="64.37389985146342" fill="#26a69a" opacity="0.9"/><rect x="1035" y="968.723484107644" width="10" height="51.276515892355974" fill="#ef5350" opacity="0.9"/><rect x="1047" y="970.9708265716597" width="10" height="49.0291734283403" fill="#26a69a" opacity="0.9"/><rect x="1059" y="955.0176816665697" width="10" height="64.98231833343027" fill="#26a69a" opacity="0.9"/><rect x="1071" y="989.343901807283" width="10" height="30.656098192716968" fill="#ef5350" opacity="0.9"/><rect x="1083" y="964.7478842789104" width="10" height="55.25211572108958" fill="#26a69a" opacity="0.9"/><rect x="1095" y="976.987350604454" width="10" height="43.012649395545964" fill="#26a69a" opacity="0.9"/><rect x="1107" y="975.8413460267789" width="10" height="44.158653973221135" fill="#26a69a" opacity="0.9"/><rect x="1119" y="979.9636323270553" width="10" height="40.03636767294472" fill="#26a69a" opacity="0.9"/><rect x="1131" y="984.8833115726376" width="10" height="35.11668842736242" fill="#26a69a" opacity="0.9"/><rect x="1143" y="982.8651171641673" width="10" height="37.13488283583274" fill="#26a69a" opacity="0.9"/><rect x="1155" y="996.375866243082" width="10" height="23.624133756918013" fill="#ef5350" opacity="0.9"/><rect x="1167" y="989.8785806035554" width="10" height="30.121419396444594" fill="#26a69a" opacity="0.9"/><rect x="1179" y="997.6246835008114" width="10" height="22.375316499188557" fill="#26a69a" opacity="0.9"/><rect x="1191" y="994.3460426368678" width="10" height="25.653957363132236" fill="#ef5350" opacity="0.9"/><rect x="1203" y="993.4751743058162" width="10" height="26.524825694183846" fill="#ef5350" opacity="0.9"/><rect x="1215" y="993.3485746303766" width="10" height="26.65142536962344" fill="#26a69a" opacity="0.9"/><rect x="1227" y="996.1850416801019" width="10" height="23.814958319898096" fill="#26a69a" opacity="0.9"/><rect x="1239" y="1002.4814593585969" width="10" height="17.518540641403092" fill="#26a69a" opacity="0.9"/><rect x="1251" y="991.907082710026" width="10" height="28.092917289974025" fill="#ef5350" opacity="0.9"/><rect x="1263" y="1001.9303939655035" width="10" height="18.069606034496474" fill="#ef5350" opacity="0.9"/><rect x="1275" y="989.7984977190914" width="10" height="30.201502280908585" fill="#ef5350" opacity="0.9"/><rect x="1287" y="973.6061613604047" width="10" height="46.39383863959529" fill="#ef5350" opacity="0.9"/><rect x="1299" y="987.8828516907267" width="10" height="32.11714830927326" fill="#26a69a" opacity="0.9"/><rect x="1311" y="987.4850802678944" width="10" height="32.51491973210557" fill="#ef5350" opacity="0.9"/><rect x="1323" y="1000.2700616876081" width="10" height="19.729938312391937" fill="#ef5350" opacity="0.9"/><rect x="1335" y="1001.7456483013442" width="10" height="18.254351698655796" fill="#ef5350" opacity="0.9"/><rect x="1347" y="993.8703027291613" width="10" height="26.129697270838733" fill="#ef5350" opacity="0.9"/><rect x="1359" y="991.9057612102823" width="10" height="28.09423878971768" fill="#ef5350" opacity="0.9"/><rect x="1371" y="979.0496831043615" width="10" height="40.95031689563848" fill="#ef5350" opacity="0.9"/><rect x="1383" y="972.813525814176" width="10" height="47.186474185823954" fill="#26a69a" opacity="0.9"/><rect x="1395" y="996.1678621834347" width="10" height="23.83213781656525" fill="#ef5350" opacity="0.9"/><rect x="1407" y="995.8882328376828" width="10" height="24.111767162317165" fill="#26a69a" opacity="0.9"/><rect x="1419" y="986.9538373709555" width="10" height="33.04616262904449" fill="#ef5350" opacity="0.9"/><rect x="1431" y="985.058278138694" width="10" height="34.94172186130595" fill="#ef5350" opacity="0.9"/><rect x="1443" y="996.6288012940125" width="10" height="23.371198705987467" fill="#26a69a" opacity="0.9"/><rect x="1455" y="1002.7962405975293" width="10" height="17.203759402470723" fill="#ef5350" opacity="0.9"/><rect x="1467" y="994.7858377515474" width="10" height="25.214162248452567" fill="#26a69a" opacity="0.9"/><rect x="1479" y="987.3558375929675" width="10" height="32.64416240703247" fill="#ef5350" opacity="0.9"/><rect x="1491" y="997.0590816105382" width="10" height="22.940918389461785" fill="#26a69a" opacity="0.9"/><rect x="1503" y="991.7284159446873" width="10" height="28.2715840553127" fill="#26a69a" opacity="0.9"/><rect x="1515" y="999.3399901680419" width="10" height="20.660009831958064" fill="#ef5350" opacity="0.9"/><rect x="1527" y="1001.8209737867311" width="10" height="18.179026213268912" fill="#ef5350" opacity="0.9"/><rect x="1539" y="999.2662504823475" width="10" height="20.73374951765254" fill="#26a69a" opacity="0.9"/><rect x="1551" y="997.3077878622892" width="10" height="22.69221213771084" fill="#26a69a" opacity="0.9"/><rect x="1563" y="997.0844544056158" width="10" height="22.915545594384184" fill="#26a69a" opacity="0.9"/><rect x="1575" y="1002.1222757282785" width="10" height="17.87772427172149" fill="#ef5350" opacity="0.9"/><rect x="1587" y="1002.7407376082969" width="10" height="17.259262391703146" fill="#26a69a" opacity="0.9"/><rect x="1599" y="990.9149007025093" width="10" height="29.08509929749073" fill="#ef5350" opacity="0.9"/><rect x="1611" y="988.7431480238292" width="10" height="31.256851976170765" fill="#ef5350" opacity="0.9"/><rect x="1623" y="999.2765581803477" width="10" height="20.723441819652294" fill="#26a69a" opacity="0.9"/><rect x="1635" y="1001.1388156190698" width="10" height="18.86118438093024" fill="#26a69a" opacity="0.9"/><rect x="1647" y="999.3479191665036" width="10" height="20.65208083349637" fill="#26a69a" opacity="0.9"/><rect x="1659" y="996.0708641022524" width="10" height="23.929135897747642" fill="#ef5350" opacity="0.9"/><rect x="1671" y="995.4061497312069" width="10" height="24.593850268793062" fill="#26a69a" opacity="0.9"/><rect x="1683" y="997.5356144180907" width="10" height="22.464385581909255" fill="#ef5350" opacity="0.9"/><rect x="1695" y="993.673927867258" width="10" height="26.326072132741956" fill="#ef5350" opacity="0.9"/><rect x="1707" y="995.921798931171" width="10" height="24.078201068829003" fill="#26a69a" opacity="0.9"/><rect x="1719" y="986.8327879944392" width="10" height="33.16721200556083" fill="#ef5350" opacity="0.9"/><rect x="1731" y="993.0361720909826" width="10" height="26.96382790901737" fill="#ef5350" opacity="0.9"/><rect x="1743" y="997.5932318069131" width="10" height="22.40676819308692" fill="#26a69a" opacity="0.9"/><rect x="1755" y="995.6049032926487" width="10" height="24.395096707351286" fill="#26a69a" opacity="0.9"/><rect x="1767" y="961.2200085633183" width="10" height="58.77999143668171" fill="#26a69a" opacity="0.9"/><rect x="1779" y="969.7666760052648" width="10" height="50.2333239947352" fill="#26a69a" opacity="0.9"/><rect x="1791" y="976.8626010286554" width="10" height="43.13739897134462" fill="#ef5350" opacity="0.9"/><rect x="1803" y="975.5226002886155" width="10" height="44.477399711384464" fill="#26a69a" opacity="0.9"/><rect x="1815" y="993.7320738559777" width="10" height="26.26792614402234" fill="#26a69a" opacity="0.9"/><rect x="1827" y="990.316525618594" width="10" height="29.683474381405972" fill="#26a69a" opacity="0.9"/><rect x="1839" y="997.8733897525624" width="10" height="22.12661024743761" fill="#26a69a" opacity="0.9"/><rect x="1851" y="990.1761823458206" width="10" height="29.82381765417938" fill="#ef5350" opacity="0.9"/><rect x="1863" y="990.8482971154303" width="10" height="29.15170288456966" fill="#26a69a" opacity="0.9"/><rect x="1875" y="987.3915180860455" width="10" height="32.608481913954506" fill="#ef5350" opacity="0.9"/><rect x="1887" y="993.2999434398109" width="10" height="26.70005656018907" fill="#ef5350" opacity="0.9"/><rect x="1899" y="982.5365923279011" width="10" height="37.463407672098924" fill="#ef5350" opacity="0.9"/><rect x="1911" y="986.7955217016688" width="10" height="33.204478298331196" fill="#26a69a" opacity="0.9"/><rect x="1923" y="975.5564306820525" width="10" height="44.44356931794755" fill="#26a69a" opacity="0.9"/><rect x="1935" y="860.0" width="10" height="160.0" fill="#ef5350" opacity="0.9"/><rect x="1004" y="118.39214070588127" width="12" height="392.83137741176694" fill="#ff0000" opacity="0.50"/><polyline points="320,445.0292349635862,332,455.65885610430996,344,462.64521674423605,356,468.83243433162,368,481.6988549498948,380,489.6387835653112,392,500.65742248626145,404,508.53085303939116,416,514.405862934799,428,511.47186684577133,440,508.7727071797872,452,502.27275738675417,464,497.3728698597263,476,489.9073965397533,488,477.3113961073972,500,463.32869090949373,512,450.32093762399523,524,436.1886530995809,536,423.66985113491654,548,412.878417514222,560,397.4515820983015,572,380.77386987605246,584,365.4615522744119,596,362.88927361522514,608,354.4083067835238,620,346.6012757061007,632,340.3404236332496,644,336.1473722844253,656,333.86978003324714,668,329.3565528480084,680,328.9742754339119,692,321.94409601443374,704,313.21563340241426,716,302.0186604509249,728,289.3463338421524,740,270.47865826054795,752,252.5829560396553,764,241.4527746353167,776,226.7004724683669,788,218.79334991395694,800,209.98939040394578,812,203.62920769880736,824,198.1868992008806,836,189.6509707839922,848,181.97257970652356,860,177.25505348237357,872,167.23893369973723,884,156.5669664566244,896,147.31270316383677,908,145.3164242966924,920,144.53587838608178,932,138.87998148656527,944,136.70579958588326,956,134.2035811379286,968,130.1114058138677,980,128.9506935066637,992,124.64532455644928,1004,124.04978323734747,1016,164.22326476656372,1028,198.56406989243783,1040,235.16370415478264,1052,263.37256199998706,1064,288.13680154060364,1076,312.68294799331886,1088,326.5527014281307,1100,334.0626536282531,1112,340.9911476580553,1124,342.8006060883811,1136,343.41212393990855,1148,343.29652513330774,1160,346.4917282298569,1172,342.42630698667574,1184,338.2575590047509,1196,338.8112383376317,1208,344.93075190771646,1220,347.7473554347131,1232,348.1553050459725,1244,344.4665494057383,1256,344.16134557437977,1268,345.80265576617364,1280,350.3644842254182,1292,354.8039953524093,1304,355.5654952236102,1316,365.7079308381687,1328,376.31135752585044,1340,388.2237071620426,1352,402.4351151746193,1364,418.9941743232553,1376,441.42300926165694,1388,458.59433933757884,1400,479.1245851597711,1412,495.51457173839106,1424,510.5665661834738,1436,527.5294216169801,1448,540.5134021240456,1460,555.6497891486448,1472,567.4940561765037,1484,584.7875868711767,1496,597.8031990122979,1508,604.3619895601456,1520,612.2135803807477,1532,620.3876036274003,1544,625.9548850298308,1556,627.8705238561222,1568,629.5591290687031,1580,637.3743572022169,1592,644.1777271493453,1604,656.6651913424053,1616,668.8552090632959,1628,676.9858063401791,1640,681.6665535682847,1652,686.0798824945558,1664,696.6278875903112,1676,703.8971394836688,1688,711.1429584908258,1700,721.355226332036,1712,729.2571435104974,1724,739.0820045991325,1736,748.7292250462735,1748,757.1455200726792,1760,760.7915938360667,1772,754.5031875211488,1784,747.5205151409842,1796,753.1088672452022,1808,753.4828573450983,1820,753.1523524774992,1832,749.8656742919673,1844,747.2487474182237,1856,752.7737985660679,1868,752.1094969883479,1880,752.2665226421182,1892,753.4342046762022,1904,758.2363892840717,1916,758.4787782486139,1928,756.5130848131716,1940,756.9641897889489" fill="none" stroke="#0090ff" stroke-width="2"/><line x1="80" y1="50" x2="80" y2="850" stroke="#666666" stroke-width="0.5" stroke-dasharray="4,4"/><line x1="152" y1="50" x2="152" y2="850" stroke="#666666" stroke-width="0.5" stroke-dasharray="4,4"/><line x1="224" y1="50" x2="224" y2="850" stroke="#666666" stroke-width="0.5" stroke-dasharray="4,4"/><line x1="296" y1="50" x2="296" y2="850" stroke="#666666" stroke-width="0.5" stroke-dasharray="4,4"/><line x1="368" y1="50" x2="368" y2="850" stroke="#666666" stroke-width="0.5" stroke-dasharray="4,4"/><line x1="440" y1="50" x2="440" y2="850" stroke="#666666" stroke-width="0.5" stroke-dasharray="4,4"/><line x1="512" y1="50" x2="512" y2="850" stroke="#666666" stroke-width="0.5" stroke-dasharray="4,4"/><line x1="584" y1="50" x2="584" y2="850" stroke="#666666" stroke-width="0.5" stroke-dasharray="4,4"/><line x1="656" y1="50" x2="656" y2="850" stroke="#666666" stroke-width="0.5" stroke-dasharray="4,4"/><line x1="728" y1="50" x2="728" y2="850" stroke="#666666" stroke-width="0.5" stroke-dasharray="4,4"/><line x1="800" y1="50" x2="800" y2="850" stroke="#666666" stroke-width="0.5" stroke-dasharray="4,4"/><line x1="872" y1="50" x2="872" y2="850" stroke="#666666" stroke-width="0.5" stroke-dasharray="4,4"/><line x1="944" y1="50" x2="944" y2="850" stroke="#666666" stroke-width="0.5" stroke-dasharray="4,4"/><line x1="1016" y1="50" x2="1016" y2="850" stroke="#666666" stroke-width="0.5" stroke-dasharray="4,4"/><line x1="1088" y1="50" x2="1088" y2="850" stroke="#666666" stroke-width="0.5" stroke-dasharray="4,4"/><line x1="1160" y1="50" x2="1160" y2="850" stroke="#666666" stroke-width="0.5" stroke-dasharray="4,4"/><line x1="1232" y1="50" x2="1232" y2="850" stroke="#666666" stroke-width="0.5" stroke-dasharray="4,4"/><line x1="1304" y1="50" x2="1304" y2="850" stroke="#666666" stroke-width="0.5" stroke-dasharray="4,4"/><line x1="1376" y1="50" x2="1376" y2="850" stroke="#666666" stroke-width="0.5" stroke-dasharray="4,4"/><line x1="1448" y1="50" x2="1448" y2="850" stroke="#666666" stroke-width="0.5" stroke-dasharray="4,4"/><line x1="1520" y1="50" x2="1520" y2="850" stroke="#666666" stroke-width="0.5" stroke-dasharray="4,4"/><line x1="1592" y1="50" x2="1592" y2="850" stroke="#666666" stroke-width="0.5" stroke-dasharray="4,4"/><line x1="1664" y1="50" x2="1664" y2="850" stroke="#666666" stroke-width="0.5" stroke-dasharray="4,4"/><line x1="1736" y1="50" x2="1736" y2="850" stroke="#666666" stroke-width="0.5" stroke-dasharray="4,4"/><line x1="1808" y1="50" x2="1808" y2="850" stroke="#666666" stroke-width="0.5" stroke-dasharray="4,4"/><line x1="1880" y1="50" x2="1880" y2="850" stroke="#666666" stroke-width="0.5" stroke-dasharray="4,4"/><text x="80" y="1040" text-anchor="middle" font-size="20" fill="black">09:30</text><text x="152" y="1040" text-anchor="middle" font-size="20" fill="black">10:00</text><text x="224" y="1040" text-anchor="middle" font-size="20" fill="black">10:30</text><text x="296" y="1040" text-anchor="middle" font-size="20" fill="black">11:00</text><text x="368" y="1040" text-anchor="middle" font-size="20" fill="black">11:30</text><text x="440" y="1040" text-anchor="middle" font-size="20" fill="black">12:00</text><text x="512" y="1040" text-anchor="middle" font-size="20" fill="black">12:30</text><text x="584" y="1040" text-anchor="middle" font-size="20" fill="black">13:00</text><text x="656" y="1040" text-anchor="middle" font-size="20" fill="black">13:30</text><text x="728" y="1040" text-anchor="middle" font-size="20" fill="black">14:00</text><text x="800" y="1040" text-anchor="middle" font-size="20" fill="black">14:30</text><text x="872" y="1040" text-anchor="middle" font-size="20" fill="black">15:00</text><text x="944" y="1040" text-anchor="middle" font-size="20" fill="black">15:30</text><text x="1016" y="1040" text-anchor="middle" font-size="20" fill="black">09:30</text><text x="1088" y="1040" text-anchor="middle" font-size="20" fill="black">10:00</text><text x="1160" y="1040" text-anchor="middle" font-size="20" fill="black">10:30</text><text x="1232" y="1040" text-anchor="middle" font-size="20" fill="black">11:00</text><text x="1304" y="1040" text-anchor="middle" font-size="20" fill="black">11:30</text><text x="1376" y="1040" text-anchor="middle" font-size="20" fill="black">12:00</text><text x="1448" y="1040" text-anchor="middle" font-size="20" fill="black">12:30</text><text x="1520" y="1040" text-anchor="middle" font-size="20" fill="black">13:00</text><text x="1592" y="1040" text-anchor="middle" font-size="20" fill="black">13:30</text><text x="1664" y="1040" text-anchor="middle" font-size="20" fill="black">14:00</text><text x="1736" y="1040" text-anchor="middle" font-size="20" fill="black">14:30</text><text x="1808" y="1040" text-anchor="middle" font-size="20" fill="black">15:00</text><text x="1880" y="1040" text-anchor="middle" font-size="20" fill="black">15:30</text><text x="1942" y="50" text-anchor="end" font-size="40" fill="#ef5350" font-weight="bold"> -1.08% (Thu)</text></svg>