<svg xmlns="http://www.w3.org/2000/svg" width="1992" height="1050"><rect width="100%" height="100%" fill="white"/><text x="42" y="854.0" text-anchor="end" font-size="20" fill="black">422</text><text x="42" y="831.7777777777778" text-anchor="end" font-size="20" fill="black">423</text><text x="42" y="809.5555555555555" text-anchor="end" font-size="20" fill="black">424</text><text x="42" y="787.3333333333334" text-anchor="end" font-size="20" fill="black">425</text><text x="42" y="765.1111111111111" text-anchor="end" font-size="20" fill="black">426</text><text x="42" y="742.8888888888889" text-anchor="end" font-size="20" fill="black">427</text><text x="42" y="720.6666666666667" text-anchor="end" font-size="20" fill="black">428</text><text x="42" y="698.4444444444445" text-anchor="end" font-size="20" fill="black">429</text><text x="42" y="676.2222222222222" text-anchor="end" font-size="20" fill="black">430</text><text x="42" y="654.0" text-anchor="end" font-size="20" fill="black">431</text><text x="42" y="631.7777777777778" text-anchor="end" font-size="20" fill="black">432</text><text x="42" y="609.5555555555555" text-anchor="end" font-size="20" fill="black">433</text><text x="42" y="587.3333333333334" text-anchor="end" font-size="20" fill="black">434</text><text x="42" y="565.1111111111111" text-anchor="end" font-size="20" fill="black">435</text><text x="42" y="542.8888888888889" text-anchor="end" font-size="20" fill="black">436</text><text x="42" y="520.6666666666666" text-anchor="end" font-size="20" fill="black">437</text><text x="42" y="498.44444444444446" text-anchor="end" font-size="20" fill="black">438</text><text x="42" y="476.22222222222223" text-anchor="end" font-size="20" fill="black">439</text><text x="42" y="454.0" text-anchor="end" font-size="20" fill="black">440</text><text x="42" y="431.77777777777777" text-anchor="end" font-size="20" fill="black">441</text><text x="42" y="409.55555555555554" text-anchor="end" font-size="20" fill="black">442</text><text x="42" y="387.3333333333333" text-anchor="end" font-size="20" fill="black">443</text><text x="42" y="365.1111111111111" text-anchor="end" font-size="20" fill="black">444</text><text x="42" y="342.8888888888889" text-anchor="end" font-size="20" fill="black">445</text><text x="42" y="320.66666666666674" text-anchor="end" font-size="20" fill="black">446</text><text x="42" y="298.44444444444446" text-anchor="end" font-size="20" fill="black">447</text><text x="42" y="276.2222222222223" text-anchor="end" font-size="20" fill="black">448</text><text x="42" y="254.0" text-anchor="end" font-size="20" fill="black">449</text><text x="42" y="231.77777777777771" text-anchor="end" font-size="20" fill="black">450</text><text x="42" y="209.55555555555554" text-anchor="end" font-size="20" fill="black">451</text><text x="42" y="187.33333333333326" text-anchor="end" font-size="20" fill="black">452</text><text x="42" y="165.1111111111111" text-anchor="end" font-size="20" fill="black">453</text><text x="42" y="142.8888888888889" text-anchor="end" font-size="20" fill="black">454</text><text x="42" y="120.66666666666674" text-anchor="end" font-size="20" fill="black">455</text><text x="42" y="98.44444444444446" text-anchor="end" font-size="20" fill="black">456</text><text x="42" y="76.22222222222229" text-anchor="end" font-size="20" fill="black">457</text><text x="42" y="54.0" text-anchor="end" font-size="20" fill="black">458</text><line x1="80" y1="48.83675977777739" x2="80" y2="128.10889711111156" stroke="#26a69a" stroke-width="2"/><rect x="76" y="52.15821799999958" width="8" height="68.64347088888962" fill="#26a69a"/><line x1="92" y1="40.42239866666682" x2="92" y2="86.47995333333381" stroke="#26a69a" stroke-width="2"/><rect x="88" y="48.39389866666704" width="8" height="2.8785971111107074" fill="#26a69a"/><line x1="104" y1="52.15821799999958" x2="104" y2="101.53723088888887" stroke="#ef5350" stroke-width="2"/><rect x="100" y="52.15821799999958" width="8" height="33.214582666667184" fill="#ef5350"/><line x1="116" y1="82.71563400000002" x2="116" y2="111.05874466666648" stroke="#ef5350" stroke-width="2"/><rect x="112" y="85.15137022222291" width="8" height="18.60016622222122" fill="#ef5350"/><line x1="128" y1="52.82250955555514" x2="128" y2="106.85156422222235" stroke="#26a69a" stroke-width="2"/><rect x="124" y="75.1869953333337" width="8" height="29.671693777777364" fill="#26a69a"/><line x1="140" y1="59.686856666667154" x2="140" y2="101.98009200000047" stroke="#ef5350" stroke-width="2"/><rect x="136" y="72.30839822222174" width="8" height="13.064402444445022" fill="#ef5350"/><line x1="152" y1="78.0655924444444" x2="152" y2="129.43748044444487" stroke="#ef5350" stroke-width="2"/><rect x="148" y="87.14424511111179" width="8" height="36.97890199999972" fill="#ef5350"/><line x1="164" y1="105.74441133333289" x2="164" y2="137.4089802222228" stroke="#ef5350" stroke-width="2"/><rect x="160" y="124.78743888888926" width="8" height="2.6571666666668534" fill="#ef5350"/><line x1="176" y1="123.90171666666618" x2="176" y2="148.70193844444407" stroke="#ef5350" stroke-width="2"/><rect x="172" y="127.66603599999996" width="8" height="3.1000277777783367" fill="#ef5350"/><line x1="188" y1="111.50160577777797" x2="188" y2="138.29470244444462" stroke="#ef5350" stroke-width="2"/><rect x="184" y="130.54463311111078" width="8" height="7.75006933333384" fill="#ef5350"/><line x1="200" y1="132.75893866666718" x2="200" y2="156.45200777777802" stroke="#ef5350" stroke-width="2"/><rect x="196" y="138.7375635555561" width="8" height="11.292958222221387" fill="#ef5350"/><line x1="212" y1="102.4229531111107" x2="212" y2="150.69481333333283" stroke="#26a69a" stroke-width="2"/><rect x="208" y="121.9088417777773" width="8" height="27.45738822222222" fill="#26a69a"/><line x1="224" y1="107.73728644444418" x2="224" y2="138.516133111111" stroke="#ef5350" stroke-width="2"/><rect x="220" y="122.57313333333286" width="8" height="14.392985777778335" fill="#ef5350"/><line x1="236" y1="132.31607755555558" x2="236" y2="158.4448826666669" stroke="#ef5350" stroke-width="2"/><rect x="232" y="136.3239706666667" width="8" height="13.485120444444306" fill="#ef5350"/><line x1="248" y1="140.2875773333335" x2="248" y2="168.85211866666623" stroke="#ef5350" stroke-width="2"/><rect x="244" y="148.70193844444407" width="8" height="9.078652444444856" fill="#ef5350"/><line x1="260" y1="156.45200777777802" x2="260" y2="195.20235422222254" stroke="#ef5350" stroke-width="2"/><rect x="256" y="158.4448826666669" width="8" height="34.32173555555528" fill="#ef5350"/><line x1="272" y1="190.55231266666692" x2="272" y2="206.71674288888903" stroke="#ef5350" stroke-width="2"/><rect x="268" y="193.20947933333377" width="8" height="2" fill="#ef5350"/><line x1="284" y1="184.79511822222196" x2="284" y2="206.27388177777743" stroke="#ef5350" stroke-width="2"/><rect x="280" y="195.64521533333289" width="8" height="8.192930444445551" fill="#ef5350"/><line x1="296" y1="189.44515977777758" x2="296" y2="208.7096177777779" stroke="#26a69a" stroke-width="2"/><rect x="292" y="196.08807644444437" width="8" height="8.414360888889405" fill="#26a69a"/><line x1="308" y1="193.87377088888923" x2="308" y2="228.6383675555561" stroke="#ef5350" stroke-width="2"/><rect x="304" y="194.98092355555502" width="8" height="21.478763555555474" fill="#ef5350"/><line x1="320" y1="172.17357688888853" x2="320" y2="216.4596871111105" stroke="#26a69a" stroke-width="2"/><rect x="316" y="187.67371533333392" width="8" height="28.78597177777658" fill="#26a69a"/><line x1="332" y1="158.46702577777774" x2="332" y2="188.33800711111053" stroke="#26a69a" stroke-width="2"/><rect x="328" y="167.9663964444444" width="8" height="19.707318888889517" fill="#26a69a"/><line x1="344" y1="163.09492422222252" x2="344" y2="188.780868222222" stroke="#ef5350" stroke-width="2"/><rect x="340" y="167.52353533333292" width="8" height="2.657166444444215" fill="#ef5350"/><line x1="356" y1="148.92336888888917" x2="356" y2="175.0521740000005" stroke="#ef5350" stroke-width="2"/><rect x="352" y="172.61643800000002" width="8" height="2" fill="#ef5350"/><line x1="368" y1="140.95186911111136" x2="368" y2="177.37719488888945" stroke="#26a69a" stroke-width="2"/><rect x="364" y="147.59478555555586" width="8" height="27.457388444444632" fill="#26a69a"/><line x1="380" y1="131.8732164444441" x2="380" y2="165.9735213333331" stroke="#26a69a" stroke-width="2"/><rect x="376" y="133.4232304444438" width="8" height="13.950124666666852" fill="#26a69a"/><line x1="392" y1="114.82306400000027" x2="392" y2="134.97324422222232" stroke="#26a69a" stroke-width="2"/><rect x="388" y="127.44460555555611" width="8" height="5.97862488888768" fill="#26a69a"/><line x1="404" y1="120.8016888888892" x2="404" y2="154.01627155555514" stroke="#ef5350" stroke-width="2"/><rect x="400" y="127.66603599999996" width="8" height="14.835846888888682" fill="#ef5350"/><line x1="416" y1="135.85896644444415" x2="416" y2="167.08067422222257" stroke="#26a69a" stroke-width="2"/><rect x="412" y="136.08039688888937" width="8" height="7.971499999999082" fill="#26a69a"/><line x1="428" y1="117.81237644444468" x2="428" y2="142.08116488888948" stroke="#ef5350" stroke-width="2"/><rect x="424" y="136.74468866666598" width="8" height="3.5428886666675226" fill="#ef5350"/><line x1="440" y1="113.05161955555536" x2="440" y2="142.2804524444448" stroke="#26a69a" stroke-width="2"/><rect x="436" y="133.4232304444438" width="8" height="7.750069111111543" fill="#26a69a"/><line x1="452" y1="117.03736955555541" x2="452" y2="143.16617466666662" stroke="#ef5350" stroke-width="2"/><rect x="448" y="130.3232026666667" width="8" height="11.735819111110459" fill="#ef5350"/><line x1="464" y1="103.08724488888856" x2="464" y2="144.05189688888845" stroke="#26a69a" stroke-width="2"/><rect x="460" y="108.18014755555566" width="8" height="32.55029088888932" fill="#26a69a"/><line x1="476" y1="92.90143933333309" x2="476" y2="114.60163355555494" stroke="#26a69a" stroke-width="2"/><rect x="472" y="94.89431444444438" width="8" height="13.728694222222884" fill="#26a69a"/><line x1="488" y1="87.58710622222202" x2="488" y2="106.18727244444449" stroke="#ef5350" stroke-width="2"/><rect x="484" y="95.33717555555597" width="8" height="2" fill="#ef5350"/><line x1="500" y1="95.33717555555597" x2="500" y2="123.01599444444435" stroke="#26a69a" stroke-width="2"/><rect x="496" y="95.7800366666662" width="8" height="2" fill="#26a69a"/><line x1="512" y1="86.92281444444404" x2="512" y2="132.09464711111173" stroke="#ef5350" stroke-width="2"/><rect x="508" y="94.89431444444438" width="8" height="37.20033266666735" fill="#ef5350"/><line x1="524" y1="121.9088417777773" x2="524" y2="138.7375635555561" stroke="#26a69a" stroke-width="2"/><rect x="520" y="129.43748044444487" width="8" height="3.542888888888683" fill="#26a69a"/><line x1="536" y1="99.32292533333361" x2="536" y2="130.98749422222227" stroke="#26a69a" stroke-width="2"/><rect x="532" y="123.68028599999991" width="8" height="5.3143333333334795" fill="#26a69a"/><line x1="548" y1="113.49448066666685" x2="548" y2="134.97324422222232" stroke="#26a69a" stroke-width="2"/><rect x="544" y="113.49448066666685" width="8" height="11.071527555554894" fill="#26a69a"/><line x1="560" y1="113.71591133333311" x2="560" y2="147.81621622222224" stroke="#ef5350" stroke-width="2"/><rect x="556" y="115.2659251111105" width="8" height="31.885999333333757" fill="#ef5350"/><line x1="572" y1="141.17329955555533" x2="572" y2="155.34485488888845" stroke="#26a69a" stroke-width="2"/><rect x="568" y="147.15192444444426" width="8" height="2" fill="#26a69a"/><line x1="584" y1="128.5517582222218" x2="584" y2="150.47338288888898" stroke="#26a69a" stroke-width="2"/><rect x="580" y="143.38760511111047" width="8" height="3.3214582222223044" fill="#26a69a"/><line x1="596" y1="123.90171666666618" x2="596" y2="148.25907733333383" stroke="#ef5350" stroke-width="2"/><rect x="592" y="143.38760511111047" width="8" height="3.9857500000001664" fill="#ef5350"/><line x1="608" y1="131.8732164444441" x2="608" y2="154.23770222222277" stroke="#26a69a" stroke-width="2"/><rect x="604" y="142.2804524444448" width="8" height="4.871471999999471" fill="#26a69a"/><line x1="620" y1="137.85184133333303" x2="620" y2="153.79484111111128" stroke="#ef5350" stroke-width="2"/><rect x="616" y="142.50188288888864" width="8" height="7.750069333333954" fill="#ef5350"/><line x1="632" y1="137.85184133333303" x2="632" y2="174.1664517777774" stroke="#ef5350" stroke-width="2"/><rect x="628" y="149.36622999999952" width="8" height="13.728694222222998" fill="#ef5350"/><line x1="644" y1="156.00914666666642" x2="644" y2="169.2949797777777" stroke="#ef5350" stroke-width="2"/><rect x="640" y="161.54491044444387" width="8" height="2.4357360000004746" fill="#ef5350"/><line x1="656" y1="154.6805633333331" x2="656" y2="171.2878546666667" stroke="#26a69a" stroke-width="2"/><rect x="652" y="154.6805633333331" width="8" height="11.735819111111596" fill="#26a69a"/><line x1="668" y1="136.08039688888937" x2="668" y2="156.23057711111164" stroke="#26a69a" stroke-width="2"/><rect x="664" y="146.70906333333278" width="8" height="7.5286388888899864" fill="#26a69a"/><line x1="680" y1="136.9661191111112" x2="680" y2="152.02339666666626" stroke="#26a69a" stroke-width="2"/><rect x="676" y="138.9589942222226" width="8" height="7.971499777777808" fill="#26a69a"/><line x1="692" y1="134.75181355555605" x2="692" y2="157.11629933333347" stroke="#ef5350" stroke-width="2"/><rect x="688" y="139.40185533333283" width="8" height="15.057277333333786" fill="#ef5350"/><line x1="704" y1="151.8019662222224" x2="704" y2="167.08067422222257" stroke="#ef5350" stroke-width="2"/><rect x="700" y="154.23770222222277" width="8" height="5.757194222221301" fill="#ef5350"/><line x1="716" y1="160.21632711111056" x2="716" y2="180.14507666666634" stroke="#ef5350" stroke-width="2"/><rect x="712" y="160.88061866666726" width="8" height="18.600166444443516" fill="#ef5350"/><line x1="728" y1="166.6378131111111" x2="728" y2="181.2522295555557" stroke="#26a69a" stroke-width="2"/><rect x="724" y="179.92364622222237" width="8" height="2" fill="#26a69a"/><line x1="740" y1="177.9307711111112" x2="740" y2="189.66659044444384" stroke="#ef5350" stroke-width="2"/><rect x="736" y="179.03792400000054" width="8" height="3.764319333332537" fill="#ef5350"/><line x1="752" y1="181.47365999999977" x2="752" y2="201.62384022222182" stroke="#ef5350" stroke-width="2"/><rect x="748" y="184.35225711111173" width="8" height="15.50013866666643" fill="#ef5350"/><line x1="764" y1="191.65946533333283" x2="764" y2="207.15960400000063" stroke="#ef5350" stroke-width="2"/><rect x="760" y="201.40240955555555" width="8" height="2" fill="#ef5350"/><line x1="776" y1="187.23085444444473" x2="776" y2="207.60246511111086" stroke="#26a69a" stroke-width="2"/><rect x="772" y="200.2952568888885" width="8" height="2" fill="#26a69a"/><line x1="788" y1="195.20235422222254" x2="788" y2="206.938173333333" stroke="#26a69a" stroke-width="2"/><rect x="784" y="198.08095133333325" width="8" height="3.5428888888885695" fill="#26a69a"/><line x1="800" y1="176.82361844444415" x2="800" y2="210.48106222222282" stroke="#ef5350" stroke-width="2"/><rect x="796" y="198.30238199999962" width="8" height="2" fill="#ef5350"/><line x1="812" y1="175.93789622222232" x2="812" y2="203.17385400000046" stroke="#26a69a" stroke-width="2"/><rect x="808" y="180.8093684444442" width="8" height="19.043027333333953" fill="#26a69a"/><line x1="824" y1="162.43063266666695" x2="824" y2="184.573687777778" stroke="#26a69a" stroke-width="2"/><rect x="820" y="165.75209088888926" width="8" height="14.392985777777085" fill="#26a69a"/><line x1="836" y1="158.66631311111075" x2="836" y2="179.48078511111078" stroke="#26a69a" stroke-width="2"/><rect x="832" y="163.31635488888878" width="8" height="4.428610888889352" fill="#26a69a"/><line x1="848" y1="154.45913266666662" x2="848" y2="170.18070177777713" stroke="#ef5350" stroke-width="2"/><rect x="844" y="164.86636866666618" width="8" height="2" fill="#ef5350"/><line x1="860" y1="156.8948688888895" x2="860" y2="176.3807573333338" stroke="#26a69a" stroke-width="2"/><rect x="856" y="160.21632711111056" width="8" height="5.757194222222552" fill="#26a69a"/><line x1="872" y1="155.78771600000005" x2="872" y2="173.72359066666706" stroke="#ef5350" stroke-width="2"/><rect x="868" y="161.7663408888891" width="8" height="5.757194444443826" fill="#ef5350"/><line x1="884" y1="154.23770222222277" x2="884" y2="172.17357688888853" stroke="#ef5350" stroke-width="2"/><rect x="880" y="168.18782688888837" width="8" height="3.9857500000001664" fill="#ef5350"/><line x1="896" y1="165.9735213333331" x2="896" y2="186.12370155555539" stroke="#ef5350" stroke-width="2"/><rect x="892" y="172.39500733333375" width="8" height="4.893615333332946" fill="#ef5350"/><line x1="908" y1="176.60218777777777" x2="908" y2="227.3097842222228" stroke="#ef5350" stroke-width="2"/><rect x="904" y="176.60218777777777" width="8" height="35.87174933333392" fill="#ef5350"/><line x1="920" y1="200.2952568888885" x2="920" y2="226.64549244444493" stroke="#ef5350" stroke-width="2"/><rect x="916" y="211.58821488888861" width="8" height="2.8785973333331185" fill="#ef5350"/><line x1="932" y1="205.8310206666672" x2="932" y2="230.6312424444451" stroke="#ef5350" stroke-width="2"/><rect x="928" y="215.3525344444448" width="8" height="10.407235777776918" fill="#ef5350"/><line x1="944" y1="220.88829822222226" x2="944" y2="241.4813393333336" stroke="#ef5350" stroke-width="2"/><rect x="940" y="226.09191622222193" width="8" height="9.632228888889017" fill="#ef5350"/><line x1="956" y1="228.41693688888859" x2="956" y2="244.13850600000035" stroke="#26a69a" stroke-width="2"/><rect x="952" y="230.85267288888895" width="8" height="6.421486000000641" fill="#26a69a"/><line x1="968" y1="208.2667566666663" x2="968" y2="235.94557555555616" stroke="#26a69a" stroke-width="2"/><rect x="964" y="210.03820111111122" width="8" height="21.035902444444105" fill="#26a69a"/><line x1="980" y1="208.04532622222246" x2="980" y2="245.02422822222218" stroke="#ef5350" stroke-width="2"/><rect x="976" y="211.14535399999954" width="8" height="29.450263333333282" fill="#ef5350"/><line x1="992" y1="224.65261755555605" x2="992" y2="251.00285311111122" stroke="#26a69a" stroke-width="2"/><rect x="988" y="227.75264533333313" width="8" height="12.84297199999969" fill="#26a69a"/><line x1="1004" y1="224.8740479999999" x2="1004" y2="260.30293622222246" stroke="#ef5350" stroke-width="2"/><rect x="1000" y="227.75264533333313" width="8" height="19.928749555555783" fill="#ef5350"/><line x1="1016" y1="476.6405851111105" x2="1016" y2="557.6841668888884" stroke="#26a69a" stroke-width="2"/><rect x="1012" y="523.5838619999994" width="8" height="2.4357360000004746" fill="#26a69a"/><line x1="1028" y1="512.7337648888885" x2="1028" y2="579.162930444444" stroke="#ef5350" stroke-width="2"/><rect x="1024" y="522.0338479999997" width="8" height="33.65744399999983" fill="#ef5350"/><line x1="1040" y1="553.6984168888883" x2="1040" y2="605.5131660000004" stroke="#ef5350" stroke-width="2"/><rect x="1036" y="556.5770140000003" width="8" height="37.64319377777758" fill="#ef5350"/><line x1="1052" y1="518.2695286666672" x2="1052" y2="606.8417493333337" stroke="#26a69a" stroke-width="2"/><rect x="1048" y="555.4698613333333" width="8" height="39.63606866666646" fill="#26a69a"/><line x1="1064" y1="505.20512622222213" x2="1064" y2="559.4556113333333" stroke="#ef5350" stroke-width="2"/><rect x="1060" y="554.3627086666662" width="8" height="2" fill="#ef5350"/><line x1="1076" y1="483.9477933333329" x2="1076" y2="573.4057360000002" stroke="#26a69a" stroke-width="2"/><rect x="1072" y="505.20512622222213" width="8" height="51.8147488888884" fill="#26a69a"/><line x1="1088" y1="502.76939000000056" x2="1088" y2="544.6197642222223" stroke="#ef5350" stroke-width="2"/><rect x="1084" y="505.8694177777776" width="8" height="23.250208000000498" fill="#ef5350"/><line x1="1100" y1="514.7266397777773" x2="1100" y2="586.0272773333337" stroke="#ef5350" stroke-width="2"/><rect x="1096" y="529.341056222222" width="8" height="54.91477688888915" fill="#ef5350"/><line x1="1112" y1="580.9343746666665" x2="1112" y2="621.6775962222224" stroke="#ef5350" stroke-width="2"/><rect x="1108" y="584.0344024444448" width="8" height="23.9144995555547" fill="#ef5350"/><line x1="1124" y1="588.9058746666668" x2="1124" y2="638.949179333334" stroke="#26a69a" stroke-width="2"/><rect x="1120" y="597.098805111111" width="8" height="11.071527555556145" fill="#26a69a"/><line x1="1136" y1="572.0771526666668" x2="1136" y2="627.6562211111114" stroke="#ef5350" stroke-width="2"/><rect x="1132" y="598.8702493333335" width="8" height="21.25733311111037" fill="#ef5350"/><line x1="1148" y1="608.8346242222226" x2="1148" y2="655.113609555556" stroke="#ef5350" stroke-width="2"/><rect x="1144" y="620.1275824444439" width="8" height="32.55029088888932" fill="#ef5350"/><line x1="1160" y1="625.6633462222226" x2="1160" y2="674.5994980000003" stroke="#ef5350" stroke-width="2"/><rect x="1156" y="653.563595555555" width="8" height="20.593041333333645" fill="#ef5350"/><line x1="1172" y1="656.8850539999996" x2="1172" y2="688.328192222222" stroke="#26a69a" stroke-width="2"/><rect x="1168" y="663.7494008888893" width="8" height="10.40723599999933" fill="#26a69a"/><line x1="1184" y1="659.542220444444" x2="1184" y2="697.1854142222217" stroke="#ef5350" stroke-width="2"/><rect x="1180" y="663.5279704444441" width="8" height="29.007402222223163" fill="#ef5350"/><line x1="1196" y1="689.6567755555553" x2="1196" y2="762.2859964444451" stroke="#ef5350" stroke-width="2"/><rect x="1192" y="692.9782337777776" width="8" height="69.30776266666749" fill="#ef5350"/><line x1="1208" y1="691.4282200000002" x2="1208" y2="792.4005513333327" stroke="#26a69a" stroke-width="2"/><rect x="1204" y="709.1426639999996" width="8" height="52.03617955555603" fill="#26a69a"/><line x1="1220" y1="659.9850815555556" x2="1220" y2="728.407122" stroke="#26a69a" stroke-width="2"/><rect x="1216" y="686.1138866666668" width="8" height="25.021652222221746" fill="#26a69a"/><line x1="1232" y1="572.5200137777783" x2="1232" y2="701.6140253333333" stroke="#26a69a" stroke-width="2"/><rect x="1228" y="583.1486802222217" width="8" height="104.5152202222223" fill="#26a69a"/><line x1="1244" y1="572.2985833333332" x2="1244" y2="651.1278595555559" stroke="#ef5350" stroke-width="2"/><rect x="1240" y="582.9272497777778" width="8" height="41.40751311111137" fill="#ef5350"/><line x1="1256" y1="541.0768755555561" x2="1256" y2="629.4276655555551" stroke="#26a69a" stroke-width="2"/><rect x="1252" y="561.0056251111107" width="8" height="64.87915155555584" fill="#26a69a"/><line x1="1268" y1="530.4482091111115" x2="1268" y2="597.9845271111117" stroke="#ef5350" stroke-width="2"/><rect x="1264" y="561.4484862222222" width="8" height="24.135930222222328" fill="#ef5350"/><line x1="1280" y1="539.7482922222227" x2="1280" y2="589.3487357777783" stroke="#26a69a" stroke-width="2"/><rect x="1276" y="549.2698060000002" width="8" height="35.87174933333279" fill="#26a69a"/><line x1="1292" y1="549.7126671111106" x2="1292" y2="644.7063735555553" stroke="#ef5350" stroke-width="2"/><rect x="1288" y="549.7126671111106" width="8" height="91.22938711111226" fill="#ef5350"/><line x1="1304" y1="608.8346242222226" x2="1304" y2="653.1207344444447" stroke="#ef5350" stroke-width="2"/><rect x="1300" y="639.1706097777778" width="8" height="4.428611111110513" fill="#ef5350"/><line x1="1316" y1="632.0848322222218" x2="1316" y2="692.3139422222221" stroke="#ef5350" stroke-width="2"/><rect x="1312" y="641.8277764444447" width="8" height="38.086054888889066" fill="#ef5350"/><line x1="1328" y1="635.6277208888893" x2="1328" y2="684.5638728888894" stroke="#26a69a" stroke-width="2"/><rect x="1324" y="648.6921235555554" width="8" height="33.2145826666673" fill="#26a69a"/><line x1="1340" y1="599.5345411111114" x2="1340" y2="672.3851924444439" stroke="#26a69a" stroke-width="2"/><rect x="1336" y="607.7274715555556" width="8" height="41.407513111111484" fill="#26a69a"/><line x1="1352" y1="599.3131104444451" x2="1352" y2="645.3706651111108" stroke="#ef5350" stroke-width="2"/><rect x="1348" y="607.0631797777777" width="8" height="23.250208000000498" fill="#ef5350"/><line x1="1364" y1="610.163207555556" x2="1364" y2="675.7066506666661" stroke="#ef5350" stroke-width="2"/><rect x="1360" y="629.8926697777777" width="8" height="42.04966155555587" fill="#ef5350"/><line x1="1376" y1="634.299137555556" x2="1376" y2="674.3780675555552" stroke="#26a69a" stroke-width="2"/><rect x="1372" y="659.542220444444" width="8" height="12.842971999999918" fill="#26a69a"/><line x1="1388" y1="621.013304666667" x2="1388" y2="664.1922619999996" stroke="#ef5350" stroke-width="2"/><rect x="1384" y="659.542220444444" width="8" height="2" fill="#ef5350"/><line x1="1400" y1="626.7704988888884" x2="1400" y2="669.7280257777784" stroke="#26a69a" stroke-width="2"/><rect x="1396" y="644.7063735555553" width="8" height="17.271583111111568" fill="#26a69a"/><line x1="1412" y1="631.6419711111116" x2="1412" y2="715.7855806666664" stroke="#ef5350" stroke-width="2"/><rect x="1408" y="641.3849153333331" width="8" height="71.07920688888885" fill="#ef5350"/><line x1="1424" y1="706.4854973333329" x2="1424" y2="739.4786495555561" stroke="#ef5350" stroke-width="2"/><rect x="1420" y="712.0212611111116" width="8" height="12.621541555554586" fill="#ef5350"/><line x1="1436" y1="717.3355944444438" x2="1436" y2="748.3358715555559" stroke="#ef5350" stroke-width="2"/><rect x="1432" y="723.9785108888883" width="8" height="11.071527555556145" fill="#ef5350"/><line x1="1448" y1="726.4142471111111" x2="1448" y2="759.1859686666668" stroke="#ef5350" stroke-width="2"/><rect x="1444" y="735.2714691111108" width="8" height="23.02877733333412" fill="#ef5350"/><line x1="1460" y1="700.7283031111115" x2="1460" y2="763.8360102222224" stroke="#26a69a" stroke-width="2"/><rect x="1456" y="708.9212335555557" width="8" height="49.157582444444074" fill="#26a69a"/><line x1="1472" y1="692.0925115555558" x2="1472" y2="739.9215106666664" stroke="#ef5350" stroke-width="2"/><rect x="1468" y="707.924796" width="8" height="31.996714666666435" fill="#ef5350"/><line x1="1484" y1="732.8357331111116" x2="1484" y2="757.4145242222219" stroke="#ef5350" stroke-width="2"/><rect x="1480" y="741.0286633333335" width="8" height="11.315101333333473" fill="#ef5350"/><line x1="1496" y1="724.1999415555559" x2="1496" y2="760.5145520000001" stroke="#26a69a" stroke-width="2"/><rect x="1492" y="741.2500939999998" width="8" height="11.071527555556145" fill="#26a69a"/><line x1="1508" y1="719.9927611111106" x2="1508" y2="747.2287188888888" stroke="#26a69a" stroke-width="2"/><rect x="1504" y="740.6079453333329" width="8" height="2" fill="#26a69a"/><line x1="1520" y1="710.249816888889" x2="1520" y2="752.5430519999999" stroke="#26a69a" stroke-width="2"/><rect x="1516" y="732.8578760000003" width="8" height="7.971500000000219" fill="#26a69a"/><line x1="1532" y1="721.5427748888892" x2="1532" y2="755.421649333333" stroke="#ef5350" stroke-width="2"/><rect x="1528" y="734.385746888889" width="8" height="15.16799266666635" fill="#ef5350"/><line x1="1544" y1="745.9001355555554" x2="1544" y2="789.0790931111118" stroke="#ef5350" stroke-width="2"/><rect x="1540" y="746.7858577777772" width="8" height="36.97890200000097" fill="#ef5350"/><line x1="1556" y1="781.1075933333339" x2="1556" y2="811.0007177777776" stroke="#ef5350" stroke-width="2"/><rect x="1552" y="783.7647597777782" width="8" height="2" fill="#ef5350"/><line x1="1568" y1="759.8502602222222" x2="1568" y2="790.629106888889" stroke="#26a69a" stroke-width="2"/><rect x="1564" y="763.3931491111108" width="8" height="21.25733288888921" fill="#26a69a"/><line x1="1580" y1="740.3643717777779" x2="1580" y2="764.0574408888888" stroke="#26a69a" stroke-width="2"/><rect x="1576" y="759.4073991111107" width="8" height="3.54288888888982" fill="#26a69a"/><line x1="1592" y1="738.592927333333" x2="1592" y2="788.4148013333338" stroke="#26a69a" stroke-width="2"/><rect x="1588" y="755.6430797777782" width="8" height="4.20718044444402" fill="#26a69a"/><line x1="1604" y1="707.8140806666663" x2="1604" y2="758.9645380000004" stroke="#26a69a" stroke-width="2"/><rect x="1600" y="718.6641777777772" width="8" height="36.31461044444541" fill="#26a69a"/><line x1="1616" y1="699.621150222222" x2="1616" y2="727.0785386666666" stroke="#ef5350" stroke-width="2"/><rect x="1612" y="719.5499000000002" width="8" height="4.650041555555731" fill="#ef5350"/><line x1="1628" y1="685.0067339999997" x2="1628" y2="733.5000246666672" stroke="#26a69a" stroke-width="2"/><rect x="1624" y="686.7781784444446" width="8" height="38.75034644444463" fill="#26a69a"/><line x1="1640" y1="685.2281644444449" x2="1640" y2="718.6641777777772" stroke="#ef5350" stroke-width="2"/><rect x="1636" y="686.7781784444446" width="8" height="16.585148222222642" fill="#ef5350"/><line x1="1652" y1="679.0281091111108" x2="1652" y2="727.2999693333329" stroke="#26a69a" stroke-width="2"/><rect x="1648" y="680.5781228888893" width="8" height="21.478763555555588" fill="#26a69a"/><line x1="1664" y1="654.4493177777781" x2="1664" y2="679.9138313333337" stroke="#26a69a" stroke-width="2"/><rect x="1660" y="672.6066231111115" width="8" height="6.86434711111076" fill="#26a69a"/><line x1="1676" y1="666.4065675555561" x2="1676" y2="719.1070388888887" stroke="#ef5350" stroke-width="2"/><rect x="1672" y="673.0494842222217" width="8" height="42.07180466666682" fill="#ef5350"/><line x1="1688" y1="711.1355388888885" x2="1688" y2="739.2572191111109" stroke="#ef5350" stroke-width="2"/><rect x="1684" y="713.3498444444449" width="8" height="22.807346888889015" fill="#ef5350"/><line x1="1700" y1="736.6000524444441" x2="1700" y2="768.2646213333328" stroke="#ef5350" stroke-width="2"/><rect x="1696" y="737.4857746666672" width="8" height="26.350235555555173" fill="#ef5350"/><line x1="1712" y1="756.528802" x2="1712" y2="780.8861626666662" stroke="#ef5350" stroke-width="2"/><rect x="1708" y="763.6145797777772" width="8" height="15.500138444445383" fill="#ef5350"/><line x1="1724" y1="774.5753919999995" x2="1724" y2="795.9434402222225" stroke="#ef5350" stroke-width="2"/><rect x="1720" y="780.8861626666662" width="8" height="8.635791555555784" fill="#ef5350"/><line x1="1736" y1="777.3432737777777" x2="1736" y2="807.9006900000005" stroke="#ef5350" stroke-width="2"/><rect x="1732" y="786.8647875555553" width="8" height="11.071527555556145" fill="#ef5350"/><line x1="1748" y1="785.7576348888895" x2="1748" y2="826.5008562222217" stroke="#ef5350" stroke-width="2"/><rect x="1744" y="798.1577457777778" width="8" height="17.49301355555542" fill="#ef5350"/><line x1="1760" y1="809.4507037777779" x2="1760" y2="846.6510364444439" stroke="#ef5350" stroke-width="2"/><rect x="1756" y="814.9864675555554" width="8" height="25.021652444444157" fill="#ef5350"/><line x1="1772" y1="792.2012637777774" x2="1772" y2="848.4224808888889" stroke="#26a69a" stroke-width="2"/><rect x="1768" y="798.3791762222218" width="8" height="42.736096444444684" fill="#26a69a"/><line x1="1784" y1="779.1368613333336" x2="1784" y2="816.0936204444447" stroke="#26a69a" stroke-width="2"/><rect x="1780" y="788.1933708888887" width="8" height="9.5215137777775" fill="#26a69a"/><line x1="1796" y1="782.4361764444449" x2="1796" y2="817.8650646666673" stroke="#ef5350" stroke-width="2"/><rect x="1792" y="788.1933708888887" width="8" height="19.928749555555783" fill="#ef5350"/><line x1="1808" y1="791.2933986666669" x2="1808" y2="833.1437728888886" stroke="#ef5350" stroke-width="2"/><rect x="1804" y="809.0078426666663" width="8" height="6.200055555555309" fill="#ef5350"/><line x1="1820" y1="800.8149122222221" x2="1820" y2="835.800939333333" stroke="#26a69a" stroke-width="2"/><rect x="1816" y="804.1363706666667" width="8" height="10.407235777778283" fill="#26a69a"/><line x1="1832" y1="744.1286911111105" x2="1832" y2="812.1078704444446" stroke="#26a69a" stroke-width="2"/><rect x="1828" y="754.5359271111112" width="8" height="50.26473511111112" fill="#26a69a"/><line x1="1844" y1="751.6573300000005" x2="1844" y2="808.5649815555561" stroke="#ef5350" stroke-width="2"/><rect x="1840" y="755.421649333333" width="8" height="41.62894355555534" fill="#ef5350"/><line x1="1856" y1="731.5071497777783" x2="1856" y2="798.1577457777778" stroke="#26a69a" stroke-width="2"/><rect x="1852" y="735.492899555556" width="8" height="62.66484622222174" fill="#26a69a"/><line x1="1868" y1="722.8713582222225" x2="1868" y2="762.2859964444451" stroke="#ef5350" stroke-width="2"/><rect x="1864" y="736.1571913333339" width="8" height="5.535763777777447" fill="#ef5350"/><line x1="1880" y1="689.213914444445" x2="1880" y2="755.421649333333" stroke="#26a69a" stroke-width="2"/><rect x="1876" y="690.9853588888886" width="8" height="53.586193333333426" fill="#26a69a"/><line x1="1892" y1="677.0352339999995" x2="1892" y2="731.7285802222223" stroke="#ef5350" stroke-width="2"/><rect x="1888" y="691.8710811111105" width="8" height="20.371610666667493" fill="#ef5350"/><line x1="1904" y1="700.9497335555554" x2="1904" y2="735.0500384444445" stroke="#ef5350" stroke-width="2"/><rect x="1900" y="711.3569695555561" width="8" height="2" fill="#ef5350"/><line x1="1916" y1="695.6354004444443" x2="1916" y2="771.1653615555557" stroke="#ef5350" stroke-width="2"/><rect x="1912" y="713.5712751111113" width="8" height="51.8147488888884" fill="#ef5350"/><line x1="1928" y1="765.6074546666661" x2="1928" y2="832.4794811111108" stroke="#ef5350" stroke-width="2"/><rect x="1924" y="765.6074546666661" width="8" height="51.1504573333342" fill="#ef5350"/><line x1="1940" y1="820.0793702222225" x2="1940" y2="859.7154388888889" stroke="#ef5350" stroke-width="2"/><rect x="1936" y="820.0793702222225" width="8" height="35.87174933333267" fill="#ef5350"/><rect x="75" y="919.0323464078142" width="10" height="100.9676535921858" fill="#26a69a" opacity="0.9"/><rect x="87" y="948.2255880473481" width="10" height="71.77441195265192" fill="#26a69a" opacity="0.9"/><rect x="99" y="964.7277333171044" width="10" height="55.27226668289563" fill="#ef5350" opacity="0.9"/><rect x="111" y="969.2380488695494" width="10" height="50.7619511304506" fill="#ef5350" opacity="0.9"/><rect x="123" y="968.3623680126586" width="10" height="51.637631987341365" fill="#26a69a" opacity="0.9"/><rect x="135" y="980.090603414174" width="10" height="39.909396585826016" fill="#ef5350" opacity="0.9"/><rect x="147" y="972.5584243678301" width="10" height="47.44157563216993" fill="#ef5350" opacity="0.9"/><rect x="159" y="978.7792502206129" width="10" height="41.22074977938712" fill="#ef5350" opacity="0.9"/><rect x="171" y="990.9139457748836" width="10" height="29.086054225116413" fill="#ef5350" opacity="0.9"/><rect x="183" y="982.3744028238444" width="10" height="37.625597176155566" fill="#ef5350" opacity="0.9"/><rect x="195" y="978.2233058454797" width="10" height="41.77669415452033" fill="#ef5350" opacity="0.9"/><rect x="207" y="978.7290417795089" width="10" height="41.27095822049114" fill="#26a69a" opacity="0.9"/><rect x="219" y="995.5267321912181" width="10" height="24.473267808781884" fill="#ef5350" opacity="0.9"/><rect x="231" y="997.8500136932112" width="10" height="22.149986306788833" fill="#ef5350" opacity="0.9"/><rect x="243" y="990.5179837507227" width="10" height="29.482016249277308" fill="#ef5350" opacity="0.9"/><rect x="255" y="988.5673858138332" width="10" height="31.432614186166802" fill="#ef5350" opacity="0.9"/><rect x="267" y="982.6790767732708" width="10" height="37.32092322672918" fill="#ef5350" opacity="0.9"/><rect x="279" y="998.3580318291088" width="10" height="21.641968170891232" fill="#ef5350" opacity="0.9"/><rect x="291" y="993.3844292973861" width="10" height="26.615570702613923" fill="#26a69a" opacity="0.9"/><rect x="303" y="987.501369321121" width="10" height="32.49863067887895" fill="#ef5350" opacity="0.9"/><rect x="315" y="973.0584547971883" width="10" height="46.94154520281165" fill="#26a69a" opacity="0.9"/><rect x="327" y="984.0326507013967" width="10" height="35.96734929860327" fill="#26a69a" opacity="0.9"/><rect x="339" y="993.6375254845875" width="10" height="26.362474515412487" fill="#ef5350" opacity="0.9"/><rect x="351" y="991.6205154733286" width="10" height="28.379484526671376" fill="#ef5350" opacity="0.9"/><rect x="363" y="993.7039375589569" width="10" height="26.29606244104309" fill="#26a69a" opacity="0.9"/><rect x="375" y="986.4657061132581" width="10" height="33.53429388674192" fill="#26a69a" opacity="0.9"/><rect x="387" y="987.0426467455801" width="10" height="32.9573532544199" fill="#26a69a" opacity="0.9"/><rect x="399" y="997.9431275294404" width="10" height="22.056872470559597" fill="#ef5350" opacity="0.9"/><rect x="411" y="992.346255667468" width="10" height="27.65374433253203" fill="#26a69a" opacity="0.9"/><rect x="423" y="997.1936524358701" width="10" height="22.80634756412985" fill="#ef5350" opacity="0.9"/><rect x="435" y="998.7519398715881" width="10" height="21.248060128411907" fill="#26a69a" opacity="0.9"/><rect x="447" y="997.5206919636065" width="10" height="22.47930803639349" fill="#ef5350" opacity="0.9"/><rect x="459" y="997.7114840398016" width="10" height="22.288515960198424" fill="#26a69a" opacity="0.9"/><rect x="471" y="997.54785016584" width="10" height="22.452149834159968" fill="#26a69a" opacity="0.9"/><rect x="483" y="995.5847001186745" width="10" height="24.415299881325495" fill="#ef5350" opacity="0.9"/><rect x="495" y="990.8708121595715" width="10" height="29.12918784042847" fill="#26a69a" opacity="0.9"/><rect x="507" y="992.0981803243769" width="10" height="27.901819675623074" fill="#ef5350" opacity="0.9"/><rect x="519" y="999.8665672640964" width="10" height="20.133432735903625" fill="#26a69a" opacity="0.9"/><rect x="531" y="999.4927425980586" width="10" height="20.507257401941388" fill="#26a69a" opacity="0.9"/><rect x="543" y="998.2694823966162" width="10" height="21.73051760338376" fill="#26a69a" opacity="0.9"/><rect x="555" y="996.088610291209" width="10" height="23.911389708791035" fill="#ef5350" opacity="0.9"/><rect x="567" y="996.875969935794" width="10" height="23.124030064205954" fill="#26a69a" opacity="0.9"/><rect x="579" y="999.8040349329033" width="10" height="20.195965067096722" fill="#26a69a" opacity="0.9"/><rect x="591" y="1003.8663542585887" width="10" height="16.13364574141133" fill="#ef5350" opacity="0.9"/><rect x="603" y="1000.9225420685877" width="10" height="19.077457931412255" fill="#26a69a" opacity="0.9"/><rect x="615" y="1001.6610625931899" width="10" height="18.338937406810146" fill="#ef5350" opacity="0.9"/><rect x="627" y="997.9134589051517" width="10" height="22.086541094848258" fill="#ef5350" opacity="0.9"/><rect x="639" y="1005.164927121687" width="10" height="14.835072878312985" fill="#ef5350" opacity="0.9"/><rect x="651" y="1003.9238657456714" width="10" height="16.076134254328622" fill="#26a69a" opacity="0.9"/><rect x="663" y="1003.6180506953108" width="10" height="16.381949304689215" fill="#26a69a" opacity="0.9"/><rect x="675" y="1003.1225846696893" width="10" height="16.87741533031067" fill="#26a69a" opacity="0.9"/><rect x="687" y="999.6417703800627" width="10" height="20.358229619937333" fill="#ef5350" opacity="0.9"/><rect x="699" y="998.4634695554271" width="10" height="21.536530444572918" fill="#ef5350" opacity="0.9"/><rect x="711" y="998.6054225116392" width="10" height="21.394577488360824" fill="#ef5350" opacity="0.9"/><rect x="723" y="1001.9251133493594" width="10" height="18.074886650640565" fill="#26a69a" opacity="0.9"/><rect x="735" y="1000.317302133098" width="10" height="19.682697866902004" fill="#ef5350" opacity="0.9"/><rect x="747" y="1000.6203785412166" width="10" height="19.37962145878339" fill="#ef5350" opacity="0.9"/><rect x="759" y="999.9909472659222" width="10" height="20.00905273407784" fill="#ef5350" opacity="0.9"/><rect x="771" y="1001.4645650123239" width="10" height="18.535434987676126" fill="#26a69a" opacity="0.9"/><rect x="783" y="1004.475017496881" width="10" height="15.524982503118963" fill="#26a69a" opacity="0.9"/><rect x="795" y="972.1560721784377" width="10" height="47.84392782156226" fill="#ef5350" opacity="0.9"/><rect x="807" y="995.9046648206189" width="10" height="24.095335179381095" fill="#26a69a" opacity="0.9"/><rect x="819" y="992.7855795271278" width="10" height="27.214420472872234" fill="#26a69a" opacity="0.9"/><rect x="831" y="999.2768463013115" width="10" height="20.72315369868852" fill="#26a69a" opacity="0.9"/><rect x="843" y="999.1983385570398" width="10" height="20.801661442960153" fill="#ef5350" opacity="0.9"/><rect x="855" y="994.9388369899278" width="10" height="25.061163010072164" fill="#26a69a" opacity="0.9"/><rect x="867" y="997.8714663907738" width="10" height="22.128533609226224" fill="#ef5350" opacity="0.9"/><rect x="879" y="997.2616620515473" width="10" height="22.73833794845268" fill="#ef5350" opacity="0.9"/><rect x="891" y="989.6728843988681" width="10" height="30.327115601131936" fill="#ef5350" opacity="0.9"/><rect x="903" y="982.9565925204638" width="10" height="37.0434074795362" fill="#ef5350" opacity="0.9"/><rect x="915" y="985.9661321242735" width="10" height="34.033867875726514" fill="#ef5350" opacity="0.9"/><rect x="927" y="993.6363843836533" width="10" height="26.363615616346692" fill="#ef5350" opacity="0.9"/><rect x="939" y="981.8506374950553" width="10" height="38.14936250494475" fill="#ef5350" opacity="0.9"/><rect x="951" y="992.9063080059642" width="10" height="27.093691994035794" fill="#26a69a" opacity="0.9"/><rect x="963" y="989.0662751422573" width="10" height="30.93372485774273" fill="#26a69a" opacity="0.9"/><rect x="975" y="981.287846514317" width="10" height="38.71215348568296" fill="#ef5350" opacity="0.9"/><rect x="987" y="957.9982046678635" width="10" height="62.00179533213645" fill="#26a69a" opacity="0.9"/><rect x="999" y="862.6252168091775" width="10" height="157.37478319082254" fill="#ef5350" opacity="0.9"/><rect x="1011" y="903.2029942488513" width="10" height="116.79700575114873" fill="#26a69a" opacity="0.9"/><rect x="1023" y="908.442701518425" width="10" height="111.557298481575" fill="#ef5350" opacity="0.9"/><rect x="1035" y="917.673751635578" width="10" height="102.32624836442199" fill="#ef5350" opacity="0.9"/><rect x="1047" y="931.1170617411678" width="10" height="88.88293825883216" fill="#26a69a" opacity="0.9"/><rect x="1059" y="960.74757325868" width="10" height="59.25242674132005" fill="#ef5350" opacity="0.9"/><rect x="1071" y="933.6224629522563" width="10" height="86.37753704774366" fill="#26a69a" opacity="0.9"/><rect x="1083" y="972.072087149682" width="10" height="47.927912850317966" fill="#ef5350" opacity="0.9"/><rect x="1095" y="966.6765054924991" width="10" height="53.32349450750087" fill="#ef5350" opacity="0.9"/><rect x="1107" y="946.174116787877" width="10" height="73.82588321212302" fill="#ef5350" opacity="0.9"/><rect x="1119" y="939.2223016766576" width="10" height="80.7776983233424" fill="#26a69a" opacity="0.9"/><rect x="1131" y="952.6179137631988" width="10" height="67.38208623680123" fill="#ef5350" opacity="0.9"/><rect x="1143" y="938.6789094118005" width="10" height="81.32109058819947" fill="#ef5350" opacity="0.9"/><rect x="1155" y="922.8787694367526" width="10" height="97.12123056324742" fill="#ef5350" opacity="0.9"/><rect x="1167" y="913.1940175881691" width="10" height="106.80598241183088" fill="#26a69a" opacity="0.9"/><rect x="1179" y="930.247086388948" width="10" height="89.75291361105201" fill="#ef5350" opacity="0.9"/><rect x="1191" y="897.1871101238474" width="10" height="122.81288987615255" fill="#ef5350" opacity="0.9"/><rect x="1203" y="910.2177981316374" width="10" height="109.78220186836256" fill="#26a69a" opacity="0.9"/><rect x="1215" y="946.2628944405562" width="10" height="73.73710555944376" fill="#26a69a" opacity="0.9"/><rect x="1227" y="888.4077077564434" width="10" height="131.59229224355659" fill="#26a69a" opacity="0.9"/><rect x="1239" y="938.0001825761494" width="10" height="81.99981742385057" fill="#ef5350" opacity="0.9"/><rect x="1251" y="957.3270090983781" width="10" height="62.672990901621915" fill="#26a69a" opacity="0.9"/><rect x="1263" y="963.8175912120014" width="10" height="56.18240878799861" fill="#ef5350" opacity="0.9"/><rect x="1275" y="969.6310440312814" width="10" height="50.36895596871864" fill="#26a69a" opacity="0.9"/><rect x="1287" y="932.1353802148312" width="10" height="87.86461978516877" fill="#ef5350" opacity="0.9"/><rect x="1299" y="974.7408940145452" width="10" height="45.25910598545477" fill="#ef5350" opacity="0.9"/><rect x="1311" y="972.238003225512" width="10" height="47.76199677448801" fill="#ef5350" opacity="0.9"/><rect x="1323" y="980.660697440891" width="10" height="39.339302559109" fill="#26a69a" opacity="0.9"/><rect x="1335" y="976.3801996165901" width="10" height="43.61980038340994" fill="#26a69a" opacity="0.9"/><rect x="1347" y="987.671393360314" width="10" height="32.32860663968597" fill="#ef5350" opacity="0.9"/><rect x="1359" y="986.2509509174452" width="10" height="33.74904908255485" fill="#ef5350" opacity="0.9"/><rect x="1371" y="988.708425889298" width="10" height="31.29157411070196" fill="#26a69a" opacity="0.9"/><rect x="1383" y="986.5152298938016" width="10" height="33.484770106198425" fill="#ef5350" opacity="0.9"/><rect x="1395" y="985.9512978121292" width="10" height="34.048702187870845" fill="#26a69a" opacity="0.9"/><rect x="1407" y="980.5892645224112" width="10" height="39.41073547758879" fill="#ef5350" opacity="0.9"/><rect x="1419" y="989.9065818701883" width="10" height="30.093418129811653" fill="#ef5350" opacity="0.9"/><rect x="1431" y="994.2105863737333" width="10" height="25.78941362626665" fill="#ef5350" opacity="0.9"/><rect x="1443" y="975.3164653257463" width="10" height="44.68353467425368" fill="#ef5350" opacity="0.9"/><rect x="1455" y="976.408270699571" width="10" height="43.59172930042905" fill="#26a69a" opacity="0.9"/><rect x="1467" y="984.3286522837234" width="10" height="35.671347716276614" fill="#ef5350" opacity="0.9"/><rect x="1479" y="985.7910872409701" width="10" height="34.208912759029886" fill="#ef5350" opacity="0.9"/><rect x="1491" y="988.592718254572" width="10" height="31.40728174542801" fill="#26a69a" opacity="0.9"/><rect x="1503" y="981.179213705383" width="10" height="38.82078629461705" fill="#26a69a" opacity="0.9"/><rect x="1515" y="987.1672549675927" width="10" height="32.832745032407274" fill="#26a69a" opacity="0.9"/><rect x="1527" y="974.2169004655692" width="10" height="45.78309953443079" fill="#ef5350" opacity="0.9"/><rect x="1539" y="973.2499315339439" width="10" height="46.750068466056064" fill="#ef5350" opacity="0.9"/><rect x="1551" y="970.5498585034842" width="10" height="49.45014149651581" fill="#ef5350" opacity="0.9"/><rect x="1563" y="984.7134315187293" width="10" height="35.286568481270706" fill="#26a69a" opacity="0.9"/><rect x="1575" y="990.9064145087181" width="10" height="29.093585491281942" fill="#26a69a" opacity="0.9"/><rect x="1587" y="967.0784012415178" width="10" height="52.92159875848222" fill="#26a69a" opacity="0.9"/><rect x="1599" y="973.5653318321516" width="10" height="46.43466816784837" fill="#26a69a" opacity="0.9"/><rect x="1611" y="988.2392051851626" width="10" height="31.760794814837368" fill="#ef5350" opacity="0.9"/><rect x="1623" y="982.5613151568633" width="10" height="37.438684843136684" fill="#26a69a" opacity="0.9"/><rect x="1635" y="990.0375802574324" width="10" height="29.96241974256759" fill="#ef5350" opacity="0.9"/><rect x="1647" y="991.4356571219913" width="10" height="28.564342878008688" fill="#26a69a" opacity="0.9"/><rect x="1659" y="975.0416882207954" width="10" height="44.958311779204564" fill="#26a69a" opacity="0.9"/><rect x="1671" y="983.4029912059154" width="10" height="36.59700879408456" fill="#ef5350" opacity="0.9"/><rect x="1683" y="994.4493046891641" width="10" height="25.550695310835863" fill="#ef5350" opacity="0.9"/><rect x="1695" y="982.3561452088975" width="10" height="37.64385479110251" fill="#ef5350" opacity="0.9"/><rect x="1707" y="991.1770836503058" width="10" height="28.822916349694196" fill="#ef5350" opacity="0.9"/><rect x="1719" y="993.3848857377598" width="10" height="26.61511426224024" fill="#ef5350" opacity="0.9"/><rect x="1731" y="988.6016188418587" width="10" height="31.39838115814132" fill="#ef5350" opacity="0.9"/><rect x="1743" y="972.2024008763656" width="10" height="47.79759912363443" fill="#ef5350" opacity="0.9"/><rect x="1755" y="962.2348842162919" width="10" height="57.7651157837081" fill="#ef5350" opacity="0.9"/><rect x="1767" y="970.6470803030765" width="10" height="49.35291969692355" fill="#26a69a" opacity="0.9"/><rect x="1779" y="980.86130298512" width="10" height="39.138697014879995" fill="#26a69a" opacity="0.9"/><rect x="1791" y="990.4842071630709" width="10" height="29.51579283692911" fill="#ef5350" opacity="0.9"/><rect x="1803" y="982.9324011806591" width="10" height="37.0675988193409" fill="#ef5350" opacity="0.9"/><rect x="1815" y="970.3168456927243" width="10" height="49.683154307275686" fill="#26a69a" opacity="0.9"/><rect x="1827" y="949.103779326294" width="10" height="70.89622067370601" fill="#26a69a" opacity="0.9"/><rect x="1839" y="978.264841919484" width="10" height="41.735158080516044" fill="#ef5350" opacity="0.9"/><rect x="1851" y="971.9858199190579" width="10" height="48.01418008094208" fill="#26a69a" opacity="0.9"/><rect x="1863" y="977.2177677022792" width="10" height="42.78223229772084" fill="#ef5350" opacity="0.9"/><rect x="1875" y="963.7906612299547" width="10" height="56.20933877004529" fill="#26a69a" opacity="0.9"/><rect x="1887" y="942.2124425645864" width="10" height="77.78755743541365" fill="#ef5350" opacity="0.9"/><rect x="1899" y="973.1164227246447" width="10" height="46.883577275355265" fill="#ef5350" opacity="0.9"/><rect x="1911" y="959.861166053008" width="10" height="60.13883394699201" fill="#ef5350" opacity="0.9"/><rect x="1923" y="928.9373307366948" width="10" height="91.06266926330522" fill="#ef5350" opacity="0.9"/><rect x="1935" y="860.0" width="10" height="160.0" fill="#ef5350" opacity="0.9"/><rect x="1004" y="247.68139488888892" width="12" height="278.33820311111094" fill="#ff0000" opacity="0.50"/><polyline points="320,139.60166994814801,332,142.30307247160385,344,144.95808478647837,356,147.71874540998874,368,147.70693970956597,380,146.34658644622118,392,144.5463977899674,404,144.3516820851022,416,143.56394063784387,428,143.25190603741476,440,142.31584169522705,452,142.29138265546908,464,139.04269359833404,476,134.83808605986826,488,131.2448035779754,500,127.86720672927845,512,128.26982009897722,524,128.38102584616365,536,127.93333633700536,548,126.55820722554449,560,128.51951362734496,572,130.29402894326017,584,131.54103619734144,596,133.04887609389073,608,133.92807384156208,620,135.48272892543434,632,138.11246181084266,644,140.57609844261503,656,141.91938081315936,668,142.37554105317645,680,142.05015564070504,692,143.23196297650998,704,144.82843283059822,716,148.1286568573131,728,151.1567510825431,740,154.17060748737993,752,158.5212539912277,764,162.62626220370237,776,166.213785507053,788,169.2487536809848,800,172.14229762671107,812,172.96773294268507,824,172.2805289375616,836,171.42679807578304,848,170.82308388867204,860,169.8129165765232,872,169.5948802676487,884,169.84047042205304,896,170.54981825487334,908,174.54259147927792,920,178.34489821670127,932,182.86060031246564,944,187.8952236266224,956,191.9864092706474,968,193.70562754116793,980,198.17134085470673,992,200.98860794791005,1004,205.43554003752683,1016,235.7353802244296,1028,266.20737182210337,1040,297.4466895321673,1052,322.0203249418016,1064,344.2536141219471,1076,359.58232956006793,1088,375.7287387236589,1100,395.5884619986553,1112,415.81326580830665,1124,433.0785552657163,1136,450.8927483303574,1148,470.1103792830218,1160,489.5433561978658,1172,506.1344080732018,1184,523.8868808916272,1196,546.5915585633247,1208,562.072616223961,1220,573.8860705518379,1232,574.768223853779,1244,579.4888466190274,1256,577.7285398087492,1268,578.4767185359581,1280,575.6951078182473,1292,581.9091027138647,1304,587.7843520638672,1316,596.5585881847687,1328,601.5236867915102,1340,602.114523435705,1352,604.8001295635219,1364,611.1946249701709,1376,615.7991578724818,1388,620.0916955777479,1400,622.4359506232531,1412,631.0100622041066,1424,639.9274660576831,1436,648.9867586659468,1448,659.3975670258033,1460,664.1141066953032,1472,671.3338594544819,1484,679.0490885223095,1496,684.9729938058999,1508,690.2715606180373,1520,694.3274001782243,1532,699.5870515474937,1544,707.6039761408538,1556,715.0260931009838,1568,719.632479387662,1580,723.4205669803714,1592,726.4893777229822,1604,725.7441205853436,1616,725.5970559158401,1628,721.9000199661828,1640,720.134620604324,1652,716.3673351076152,1664,712.1996482508052,1676,712.4778997401474,1688,714.733070368071,1700,719.4095408303712,1712,725.0957482010234,1724,731.2315773458989,1736,737.5844095140147,1748,745.0192999729982,1760,754.0658542612846,1772,758.2861706385175,1784,761.1344754242673,1796,765.6094892357121,1808,770.3331472344278,1820,773.5525018470222,1832,771.7413994912212,1844,774.1517988624272,1856,770.4699989284386,1868,767.7293280886943,1880,760.4203786410936,1892,755.8320275112541,1904,751.6595735683836,1916,752.9668545618708,1928,759.0421933655016,1940,768.2716149074117" fill="none" stroke="#0090ff" stroke-width="2"/><line x1="80" y1="50" x2="80" y2="850" stroke="#666666" stroke-width="0.5" stroke-dasharray="4,4"/><line x1="152" y1="50" x2="152" y2="850" stroke="#666666" stroke-width="0.5" stroke-dasharray="4,4"/><line x1="224" y1="50" x2="224" y2="850" stroke="#666666" stroke-width="0.5" stroke-dasharray="4,4"/><line x1="296" y1="50" x2="296" y2="850" stroke="#666666" stroke-width="0.5" stroke-dasharray="4,4"/><line x1="368" y1="50" x2="368" y2="850" stroke="#666666" stroke-width="0.5" stroke-dasharray="4,4"/><line x1="440" y1="50" x2="440" y2="850" stroke="#666666" stroke-width="0.5" stroke-dasharray="4,4"/><line x1="512" y1="50" x2="512" y2="850" stroke="#666666" stroke-width="0.5" stroke-dasharray="4,4"/><line x1="584" y1="50" x2="584" y2="850" stroke="#666666" stroke-width="0.5" stroke-dasharray="4,4"/><line x1="656" y1="50" x2="656" y2="850" stroke="#666666" stroke-width="0.5" stroke-dasharray="4,4"/><line x1="728" y1="50" x2="728" y2="850" stroke="#666666" stroke-width="0.5" stroke-dasharray="4,4"/><line x1="800" y1="50" x2="800" y2="850" stroke="#666666" stroke-width="0.5" stroke-dasharray="4,4"/><line x1="872" y1="50" x2="872" y2="850" stroke="#666666" stroke-width="0.5" stroke-dasharray="4,4"/><line x1="944" y1="50" x2="944" y2="850" stroke="#666666" stroke-width="0.5" stroke-dasharray="4,4"/><line x1="1016" y1="50" x2="1016" y2="850" stroke="#666666" stroke-width="0.5" stroke-dasharray="4,4"/><line x1="1088" y1="50" x2="1088" y2="850" stroke="#666666" stroke-width="0.5" stroke-dasharray="4,4"/><line x1="1160" y1="50" x2="1160" y2="850" stroke="#666666" stroke-width="0.5" stroke-dasharray="4,4"/><line x1="1232" y1="50" x2="1232" y2="850" stroke="#666666" stroke-width="0.5" stroke-dasharray="4,4"/><line x1="1304" y1="50" x2="1304" y2="850" stroke="#666666" stroke-width="0.5" stroke-dasharray="4,4"/><line x1="1376" y1="50" x2="1376" y2="850" stroke="#666666" stroke-width="0.5" stroke-dasharray="4,4"/><line x1="1448" y1="50" x2="1448" y2="850" stroke="#666666" stroke-width="0.5" stroke-dasharray="4,4"/><line x1="1520" y1="50" x2="1520" y2="850" stroke="#666666" stroke-width="0.5" stroke-dasharray="4,4"/><line x1="1592" y1="50" x2="1592" y2="850" stroke="#666666" stroke-width="0.5" stroke-dasharray="4,4"/><line x1="1664" y1="50" x2="1664" y2="850" stroke="#666666" stroke-width="0.5" stroke-dasharray="4,4"/><line x1="1736" y1="50" x2="1736" y2="850" stroke="#666666" stroke-width="0.5" stroke-dasharray="4,4"/><line x1="1808" y1="50" x2="1808" y2="850" stroke="#666666" stroke-width="0.5" stroke-dasharray="4,4"/><line x1="1880" y1="50" x2="1880" y2="850" stroke="#666666" stroke-width="0.5" stroke-dasharray="4,4"/><text x="80" y="1040" text-anchor="middle" font-size="20" fill="black">09:30</text><text x="152" y="1040" text-anchor="middle" font-size="20" fill="black">10:00</text><text x="224" y="1040" text-anchor="middle" font-size="20" fill="black">10:30</text><text x="296" y="1040" text-anchor="middle" font-size="20" fill="black">11:00</text><text x="368" y="1040" text-anchor="middle" font-size="20" fill="black">11:30</text><text x="440" y="1040" text-anchor="middle" font-size="20" fill="black">12:00</text><text x="512" y="1040" text-anchor="middle" font-size="20" fill="black">12:30</text><text x="584" y="1040" text-anchor="middle" font-size="20" fill="black">13:00</text><text x="656" y="1040" text-anchor="middle" font-size="20" fill="black">13:30</text><text x="728" y="1040" text-anchor="middle" font-size="20" fill="black">14:00</text><text x="800" y="1040" text-anchor="middle" font-size="20" fill="black">14:30</text><text x="872" y="1040" text-anchor="middle" font-size="20" fill="black">15:00</text><text x="944" y="1040" text-anchor="middle" font-size="20" fill="black">15:30</text><text x="1016" y="1040" text-anchor="middle" font-size="20" fill="black">09:30</text><text x="1088" y="1040" text-anchor="middle" font-size="20" fill="black">10:00</text><text x="1160" y="1040" text-anchor="middle" font-size="20" fill="black">10:30</text><text x="1232" y="1040" text-anchor="middle" font-size="20" fill="black">11:00</text><text x="1304" y="1040" text-anchor="middle" font-size="20" fill="black">11:30</text><text x="1376" y="1040" text-anchor="middle" font-size="20" fill="black">12:00</text><text x="1448" y="1040" text-anchor="middle" font-size="20" fill="black">12:30</text><text x="1520" y="1040" text-anchor="middle" font-size="20" fill="black">13:00</text><text x="1592" y="1040" text-anchor="middle" font-size="20" fill="black">13:30</text><text x="1664" y="1040" text-anchor="middle" font-size="20" fill="black">14:00</text><text x="1736" y="1040" text-anchor="middle" font-size="20" fill="black">14:30</text><text x="1808" y="1040" text-anchor="middle" font-size="20" fill="black">15:00</text><text x="1880" y="1040" text-anchor="middle" font-size="20" fill="black">15:30</text><text x="1942" y="50" text-anchor="end" font-size="40" fill="#ef5350" font-weight="bold"> -3.40% (Fri)</text></svg>