<svg xmlns="http://www.w3.org/2000/svg" width="1992" height="1050"><rect width="100%" height="100%" fill="white"/><text x="42" y="854.0" text-anchor="end" font-size="20" fill="black">516</text><text x="42" y="787.3333333333334" text-anchor="end" font-size="20" fill="black">517</text><text x="42" y="720.6666666666667" text-anchor="end" font-size="20" fill="black">518</text><text x="42" y="654.0" text-anchor="end" font-size="20" fill="black">519</text><text x="42" y="587.3333333333334" text-anchor="end" font-size="20" fill="black">520</text><text x="42" y="520.6666666666666" text-anchor="end" font-size="20" fill="black">521</text><text x="42" y="454.0" text-anchor="end" font-size="20" fill="black">522</text><text x="42" y="387.3333333333333" text-anchor="end" font-size="20" fill="black">523</text><text x="42" y="320.66666666666674" text-anchor="end" font-size="20" fill="black">524</text><text x="42" y="254.0" text-anchor="end" font-size="20" fill="black">525</text><text x="42" y="187.33333333333326" text-anchor="end" font-size="20" fill="black">526</text><text x="42" y="120.66666666666674" text-anchor="end" font-size="20" fill="black">527</text><text x="42" y="54.0" text-anchor="end" font-size="20" fill="black">528</text><line x1="80" y1="482.9794033333352" x2="80" y2="562.5757493333367" stroke="#ef5350" stroke-width="2"/><rect x="76" y="512.1647306666697" width="8" height="43.7779899999972" fill="#ef5350"/><line x1="92" y1="498.2353699999976" x2="92" y2="595.077590666665" stroke="#26a69a" stroke-width="2"/><rect x="88" y="512.1647306666697" width="8" height="47.757807333331016" fill="#26a69a"/><line x1="104" y1="496.24546133333445" x2="104" y2="561.2491439999985" stroke="#ef5350" stroke-width="2"/><rect x="100" y="506.1950046666652" width="8" height="7.959634666667625" fill="#ef5350"/><line x1="116" y1="371.54451933333047" x2="116" y2="528.7473026666703" stroke="#26a69a" stroke-width="2"/><rect x="112" y="374.1977306666665" width="8" height="141.94681733333704" fill="#26a69a"/><line x1="128" y1="354.2986439999974" x2="128" y2="456.4472879999963" stroke="#ef5350" stroke-width="2"/><rect x="124" y="372.2078220000033" width="8" height="45.10459599999501" fill="#ef5350"/><line x1="140" y1="385.47388000000257" x2="140" y2="506.8583073333306" stroke="#ef5350" stroke-width="2"/><rect x="136" y="415.9858126666677" width="8" height="57.04404733332922" fill="#ef5350"/><line x1="152" y1="468.38673999999776" x2="152" y2="645.4886099999991" stroke="#ef5350" stroke-width="2"/><rect x="148" y="472.36655733333157" width="8" height="120.72112466667022" fill="#ef5350"/><line x1="164" y1="578.4950186666644" x2="164" y2="636.8656726666662" stroke="#ef5350" stroke-width="2"/><rect x="160" y="595.077590666665" width="8" height="9.286240666665435" fill="#ef5350"/><line x1="176" y1="547.9830859999993" x2="176" y2="626.252826000003" stroke="#26a69a" stroke-width="2"/><rect x="172" y="589.107864666668" width="8" height="15.255966666662403" fill="#26a69a"/><line x1="188" y1="585.1280473333342" x2="188" y2="653.4482446666668" stroke="#ef5350" stroke-width="2"/><rect x="184" y="592.4243793333366" width="8" height="39.79817266666328" fill="#ef5350"/><line x1="200" y1="583.1381386666635" x2="200" y2="670.6941193333325" stroke="#26a69a" stroke-width="2"/><rect x="196" y="586.454653333332" width="8" height="41.78808133333405" fill="#26a69a"/><line x1="212" y1="585.7913506666667" x2="212" y2="712.4822006666666" stroke="#ef5350" stroke-width="2"/><rect x="208" y="585.7913506666667" width="8" height="112.76149000000248" fill="#ef5350"/><line x1="224" y1="679.980359999998" x2="224" y2="742.9941333333318" stroke="#26a69a" stroke-width="2"/><rect x="220" y="680.6436626666634" width="8" height="16.582572000000482" fill="#26a69a"/><line x1="236" y1="613.6500713333362" x2="236" y2="683.9601773333318" stroke="#26a69a" stroke-width="2"/><rect x="232" y="627.5794320000008" width="8" height="55.05413933333318" fill="#26a69a"/><line x1="248" y1="601.7106193333348" x2="248" y2="666.7143019999987" stroke="#ef5350" stroke-width="2"/><rect x="244" y="621.6097059999962" width="8" height="44.441293333337285" fill="#ef5350"/><line x1="260" y1="614.3133746666687" x2="260" y2="672.6840280000033" stroke="#26a69a" stroke-width="2"/><rect x="256" y="646.8152153333298" width="8" height="16.582572000000596" fill="#26a69a"/><line x1="272" y1="643.8303526666687" x2="272" y2="741.6675280000012" stroke="#ef5350" stroke-width="2"/><rect x="268" y="649.4684273333329" width="8" height="87.55598000000191" fill="#ef5350"/><line x1="284" y1="730.391378666665" x2="284" y2="809.9877246666665" stroke="#ef5350" stroke-width="2"/><rect x="280" y="730.391378666665" width="8" height="78.26974000000371" fill="#ef5350"/><line x1="296" y1="770.1895520000031" x2="296" y2="853.1024119999984" stroke="#26a69a" stroke-width="2"/><rect x="292" y="784.782215333333" width="8" height="25.868811999998798" fill="#26a69a"/><line x1="308" y1="768.1996433333325" x2="308" y2="815.2941479999981" stroke="#ef5350" stroke-width="2"/><rect x="304" y="790.7519413333299" width="8" height="24.54220666666822" fill="#ef5350"/><line x1="320" y1="785.4455179999983" x2="320" y2="876.9813160000012" stroke="#ef5350" stroke-width="2"/><rect x="316" y="811.3806606666685" width="8" height="54.987809333329096" fill="#ef5350"/><line x1="332" y1="789.4253353333321" x2="332" y2="866.3684699999976" stroke="#26a69a" stroke-width="2"/><rect x="328" y="790.7519413333299" width="8" height="74.95322533333524" fill="#26a69a"/><line x1="344" y1="707.1757780000023" x2="344" y2="790.7519413333299" stroke="#26a69a" stroke-width="2"/><rect x="340" y="707.1757780000023" width="8" height="83.5761633333276" fill="#26a69a"/><line x1="356" y1="667.3776046666642" x2="356" y2="720.4418353333342" stroke="#26a69a" stroke-width="2"/><rect x="352" y="672.6840280000033" width="8" height="35.81835599999681" fill="#26a69a"/><line x1="368" y1="640.8454893333328" x2="368" y2="703.1959606666685" stroke="#ef5350" stroke-width="2"/><rect x="364" y="670.6941193333325" width="8" height="24.542206666668335" fill="#ef5350"/><line x1="380" y1="665.3876960000009" x2="380" y2="726.4115613333312" stroke="#26a69a" stroke-width="2"/><rect x="376" y="667.3776046666642" width="8" height="28.52202400000192" fill="#26a69a"/><line x1="392" y1="658.7546673333311" x2="392" y2="687.2766913333332" stroke="#26a69a" stroke-width="2"/><rect x="388" y="664.7243933333357" width="8" height="2.6532113333284997" fill="#26a69a"/><line x1="404" y1="644.1620040000013" x2="404" y2="679.980359999998" stroke="#26a69a" stroke-width="2"/><rect x="400" y="646.1519126666644" width="8" height="21.225691999999754" fill="#26a69a"/><line x1="416" y1="574.5152013333305" x2="416" y2="648.8051240000004" stroke="#26a69a" stroke-width="2"/><rect x="412" y="589.107864666668" width="8" height="58.37065400000188" fill="#26a69a"/><line x1="428" y1="550.6362973333353" x2="428" y2="603.0372253333326" stroke="#26a69a" stroke-width="2"/><rect x="424" y="576.5051100000013" width="8" height="11.276149333328476" fill="#26a69a"/><line x1="440" y1="579.1583213333297" x2="440" y2="626.252826000003" stroke="#ef5350" stroke-width="2"/><rect x="436" y="579.1583213333297" width="8" height="37.80826466666747" fill="#ef5350"/><line x1="452" y1="602.3739226666672" x2="452" y2="644.8253066666666" stroke="#ef5350" stroke-width="2"/><rect x="448" y="613.6500713333362" width="8" height="2" fill="#ef5350"/><line x1="464" y1="605.0271340000032" x2="464" y2="672.0207253333303" stroke="#ef5350" stroke-width="2"/><rect x="460" y="619.6197973333332" width="8" height="47.757807333331016" fill="#ef5350"/><line x1="476" y1="656.7647586666681" x2="476" y2="708.5023840000001" stroke="#ef5350" stroke-width="2"/><rect x="472" y="668.0409079999965" width="8" height="19.235783333336713" fill="#ef5350"/><line x1="488" y1="658.0913646666659" x2="488" y2="695.2363260000009" stroke="#ef5350" stroke-width="2"/><rect x="484" y="681.9702686666687" width="8" height="8.622937333332857" fill="#ef5350"/><line x1="500" y1="680.6436626666634" x2="500" y2="740.3409220000034" stroke="#ef5350" stroke-width="2"/><rect x="496" y="688.603297333331" width="8" height="24.542206666668108" fill="#ef5350"/><line x1="512" y1="705.1858693333315" x2="512" y2="743.6574366666642" stroke="#26a69a" stroke-width="2"/><rect x="508" y="712.4822006666666" width="8" height="2" fill="#26a69a"/><line x1="524" y1="695.2363260000009" x2="524" y2="721.768441333332" stroke="#26a69a" stroke-width="2"/><rect x="520" y="706.5124753333369" width="8" height="5.306422666664503" fill="#26a69a"/><line x1="536" y1="667.3776046666642" x2="536" y2="733.0445906666682" stroke="#ef5350" stroke-width="2"/><rect x="532" y="705.8491719999968" width="8" height="22.55229800000518" fill="#ef5350"/><line x1="548" y1="683.9601773333318" x2="548" y2="725.0849560000006" stroke="#26a69a" stroke-width="2"/><rect x="544" y="687.3430219999971" width="8" height="33.09881333333715" fill="#26a69a"/><line x1="560" y1="665.3876960000009" x2="560" y2="687.2766913333332" stroke="#26a69a" stroke-width="2"/><rect x="556" y="676.0005426666642" width="8" height="9.949543333338397" fill="#26a69a"/><line x1="572" y1="663.3977873333304" x2="572" y2="686.6797186666645" stroke="#26a69a" stroke-width="2"/><rect x="568" y="665.3876960000009" width="8" height="7.959634666667625" fill="#26a69a"/><line x1="584" y1="655.4381533333299" x2="584" y2="705.8491719999968" stroke="#ef5350" stroke-width="2"/><rect x="580" y="672.0207253333303" width="8" height="5.969726000004584" fill="#ef5350"/><line x1="596" y1="636.8656726666662" x2="596" y2="690.5932060000016" stroke="#26a69a" stroke-width="2"/><rect x="592" y="640.1821866666675" width="8" height="39.79817333333051" fill="#26a69a"/><line x1="608" y1="647.4785186666699" x2="608" y2="674.0106340000011" stroke="#ef5350" stroke-width="2"/><rect x="604" y="648.1418213333351" width="8" height="17.909177999998406" fill="#ef5350"/><line x1="620" y1="654.111547333332" x2="620" y2="668.0409079999965" stroke="#ef5350" stroke-width="2"/><rect x="616" y="662.7344846666649" width="8" height="2" fill="#ef5350"/><line x1="632" y1="638.1922779999968" x2="632" y2="675.3372393333318" stroke="#26a69a" stroke-width="2"/><rect x="628" y="639.5188840000022" width="8" height="28.522023999994303" fill="#26a69a"/><line x1="644" y1="633.5491579999976" x2="644" y2="689.9299026666692" stroke="#ef5350" stroke-width="2"/><rect x="640" y="637.5289753333315" width="8" height="31.175235333338037" fill="#ef5350"/><line x1="656" y1="622.9363120000016" x2="656" y2="672.0207253333303" stroke="#26a69a" stroke-width="2"/><rect x="652" y="629.5693406666638" width="8" height="39.13487000000566" fill="#26a69a"/><line x1="668" y1="593.0876820000018" x2="668" y2="634.212460666663" stroke="#26a69a" stroke-width="2"/><rect x="664" y="599.7207106666641" width="8" height="28.52202400000192" fill="#26a69a"/><line x1="680" y1="585.7913506666667" x2="680" y2="609.6702540000024" stroke="#ef5350" stroke-width="2"/><rect x="676" y="605.0271340000032" width="8" height="4.643119999999158" fill="#ef5350"/><line x1="692" y1="585.1280473333342" x2="692" y2="604.3638313333304" stroke="#26a69a" stroke-width="2"/><rect x="688" y="593.7509846666671" width="8" height="10.612846666663245" fill="#26a69a"/><line x1="704" y1="583.1381386666635" x2="704" y2="610.3335573333349" stroke="#ef5350" stroke-width="2"/><rect x="700" y="593.7509846666671" width="8" height="2" fill="#ef5350"/><line x1="716" y1="572.5252926666675" x2="716" y2="611.6601626666655" stroke="#26a69a" stroke-width="2"/><rect x="712" y="582.4748359999982" width="8" height="15.91926933333525" fill="#26a69a"/><line x1="728" y1="577.8317159999991" x2="728" y2="609.6702540000024" stroke="#ef5350" stroke-width="2"/><rect x="724" y="577.8317159999991" width="8" height="28.52202400000192" fill="#ef5350"/><line x1="740" y1="579.1583213333297" x2="740" y2="602.3739226666672" stroke="#26a69a" stroke-width="2"/><rect x="736" y="583.8014420000036" width="8" height="18.572480666663637" fill="#26a69a"/><line x1="752" y1="551.9629033333331" x2="752" y2="582.4748359999982" stroke="#26a69a" stroke-width="2"/><rect x="748" y="565.2289613333323" width="8" height="17.245874666665827" fill="#26a69a"/><line x1="764" y1="557.2693266666647" x2="764" y2="579.8216246666698" stroke="#ef5350" stroke-width="2"/><rect x="760" y="563.9023553333345" width="8" height="5.306422666664389" fill="#ef5350"/><line x1="776" y1="555.2794180000016" x2="776" y2="581.1482300000004" stroke="#26a69a" stroke-width="2"/><rect x="772" y="565.2289613333323" width="8" height="4.643119999999158" fill="#26a69a"/><line x1="788" y1="563.9023553333345" x2="788" y2="583.8014420000036" stroke="#ef5350" stroke-width="2"/><rect x="784" y="567.218870000003" width="8" height="5.306422666664503" fill="#ef5350"/><line x1="800" y1="565.8922639999977" x2="800" y2="593.0876820000018" stroke="#ef5350" stroke-width="2"/><rect x="796" y="572.5252926666675" width="8" height="19.235783333328982" fill="#ef5350"/><line x1="812" y1="565.2289613333323" x2="812" y2="593.0876820000018" stroke="#26a69a" stroke-width="2"/><rect x="808" y="566.5555666666629" width="8" height="23.878904000002876" fill="#26a69a"/><line x1="824" y1="559.2592353333354" x2="824" y2="579.1583213333297" stroke="#26a69a" stroke-width="2"/><rect x="820" y="563.9023553333345" width="8" height="2" fill="#26a69a"/><line x1="836" y1="531.4005139999987" x2="836" y2="569.2087779999989" stroke="#26a69a" stroke-width="2"/><rect x="832" y="534.7170286666673" width="8" height="29.185326666667265" fill="#26a69a"/><line x1="848" y1="517.4711533333342" x2="848" y2="544.0032686666655" stroke="#26a69a" stroke-width="2"/><rect x="844" y="520.1243653333298" width="8" height="20.562389333334295" fill="#26a69a"/><line x1="860" y1="493.59224999999844" x2="860" y2="524.7674853333365" stroke="#26a69a" stroke-width="2"/><rect x="856" y="494.91885533333664" width="8" height="27.195417999996607" fill="#26a69a"/><line x1="872" y1="460.42710533333013" x2="872" y2="500.22527866666826" stroke="#26a69a" stroke-width="2"/><rect x="868" y="471.039952000001" width="8" height="25.205509333333453" fill="#26a69a"/><line x1="884" y1="465.0702259999965" x2="884" y2="499.5619753333358" stroke="#ef5350" stroke-width="2"/><rect x="880" y="472.36655733333157" width="8" height="2" fill="#ef5350"/><line x1="896" y1="460.42710533333013" x2="896" y2="477.0096773333307" stroke="#26a69a" stroke-width="2"/><rect x="892" y="467.7234373333325" width="8" height="2" fill="#26a69a"/><line x1="908" y1="442.517927999999" x2="908" y2="473.0298599999969" stroke="#26a69a" stroke-width="2"/><rect x="904" y="442.517927999999" width="8" height="23.8789033333357" fill="#26a69a"/><line x1="920" y1="431.9050813333358" x2="920" y2="457.1105913333364" stroke="#26a69a" stroke-width="2"/><rect x="916" y="437.2115046666674" width="8" height="8.622937333332914" fill="#26a69a"/><line x1="932" y1="437.9411379999965" x2="932" y2="453.1307740000026" stroke="#ef5350" stroke-width="2"/><rect x="928" y="439.8647160000034" width="8" height="6.633029333329432" fill="#ef5350"/><line x1="944" y1="449.15095666666883" x2="944" y2="475.0197686666676" stroke="#ef5350" stroke-width="2"/><rect x="940" y="449.15095666666883" width="8" height="2" fill="#ef5350"/><line x1="956" y1="451.8041679999973" x2="956" y2="599.0574079999988" stroke="#ef5350" stroke-width="2"/><rect x="952" y="452.4674706666701" width="8" height="141.94681733332948" fill="#ef5350"/><line x1="968" y1="575.841807333336" x2="968" y2="698.5528406666692" stroke="#ef5350" stroke-width="2"/><rect x="964" y="601.7106193333348" width="8" height="78.26974066666321" fill="#ef5350"/><line x1="980" y1="581.8115333333329" x2="980" y2="711.8188980000014" stroke="#26a69a" stroke-width="2"/><rect x="976" y="593.7509846666671" width="8" height="92.86240400000065" fill="#26a69a"/><line x1="992" y1="547.9830859999993" x2="992" y2="658.7546673333311" stroke="#26a69a" stroke-width="2"/><rect x="988" y="548.5800586666679" width="8" height="45.83422933333168" fill="#26a69a"/><line x1="1004" y1="501.55188399999895" x2="1004" y2="568.5454753333337" stroke="#ef5350" stroke-width="2"/><rect x="1000" y="545.9931773333361" width="8" height="2.6532113333284997" fill="#ef5350"/><line x1="1016" y1="197.75916399999755" x2="1016" y2="311.1839566666656" stroke="#26a69a" stroke-width="2"/><rect x="1012" y="239.5472453333316" width="8" height="59.69725999999969" fill="#26a69a"/><line x1="1028" y1="224.29127933333643" x2="1028" y2="311.84725999999796" stroke="#ef5350" stroke-width="2"/><rect x="1024" y="238.88394266666637" width="8" height="17.909177999998292" fill="#ef5350"/><line x1="1040" y1="221.63806800000043" x2="1040" y2="274.0389953333306" stroke="#26a69a" stroke-width="2"/><rect x="1036" y="226.2811879999997" width="8" height="31.17523533333042" fill="#26a69a"/><line x1="1052" y1="201.07567866666614" x2="1052" y2="258.78302933333543" stroke="#26a69a" stroke-width="2"/><rect x="1048" y="222.96467333333112" width="8" height="2" fill="#26a69a"/><line x1="1064" y1="152.65456800000266" x2="1064" y2="248.1701833333318" stroke="#26a69a" stroke-width="2"/><rect x="1060" y="168.5738373333304" width="8" height="52.40092733333768" fill="#26a69a"/><line x1="1076" y1="146.02153933333284" x2="1076" y2="211.02522133332968" stroke="#26a69a" stroke-width="2"/><rect x="1072" y="150.66465933333188" width="8" height="15.91926933333525" fill="#26a69a"/><line x1="1088" y1="84.99767400000269" x2="1088" y2="151.32796199999734" stroke="#26a69a" stroke-width="2"/><rect x="1084" y="100.91694333333021" width="8" height="50.41101866666713" fill="#26a69a"/><line x1="1100" y1="81.68115933333411" x2="1100" y2="146.68484199999807" stroke="#ef5350" stroke-width="2"/><rect x="1096" y="94.94721733333336" width="8" height="27.195417999996607" fill="#ef5350"/><line x1="1112" y1="64.43528466666817" x2="1112" y2="130.76557266666282" stroke="#26a69a" stroke-width="2"/><rect x="1108" y="102.90685200000098" width="8" height="15.919268666668131" fill="#26a69a"/><line x1="1124" y1="85.66097666666792" x2="1124" y2="112.85639533333165" stroke="#ef5350" stroke-width="2"/><rect x="1120" y="101.58024600000317" width="8" height="2" fill="#ef5350"/><line x1="1136" y1="88.31418866666354" x2="1136" y2="140.71511600000122" stroke="#26a69a" stroke-width="2"/><rect x="1132" y="99.5903373333324" width="8" height="2" fill="#26a69a"/><line x1="1148" y1="91.63070266666477" x2="1148" y2="122.80593800000293" stroke="#26a69a" stroke-width="2"/><rect x="1144" y="102.2435486666684" width="8" height="2" fill="#26a69a"/><line x1="1160" y1="49.17931799999826" x2="1160" y2="104.89676066666402" stroke="#26a69a" stroke-width="2"/><rect x="1156" y="53.82243866666454" width="8" height="51.07432199999948" fill="#26a69a"/><line x1="1172" y1="37.23986666666406" x2="1172" y2="65.76189066666598" stroke="#26a69a" stroke-width="2"/><rect x="1168" y="45.19950066666445" width="8" height="9.286240666665549" fill="#26a69a"/><line x1="1184" y1="41.882986666663214" x2="1184" y2="94.94721733333336" stroke="#ef5350" stroke-width="2"/><rect x="1180" y="41.882986666663214" width="8" height="43.777990000004706" fill="#ef5350"/><line x1="1196" y1="48.51601533333303" x2="1196" y2="108.21327466666548" stroke="#26a69a" stroke-width="2"/><rect x="1192" y="52.49583266666673" width="8" height="33.16514400000119" fill="#26a69a"/><line x1="1208" y1="34.58665466666844" x2="1208" y2="73.72152466666648" stroke="#ef5350" stroke-width="2"/><rect x="1204" y="53.15913533333219" width="8" height="2.6532120000031227" fill="#ef5350"/><line x1="1220" y1="8.054539333329558" x2="1220" y2="55.81234733333531" stroke="#26a69a" stroke-width="2"/><rect x="1216" y="37.903169333336905" width="8" height="16.582571999993093" fill="#26a69a"/><line x1="1232" y1="-4.548215333329608" x2="1232" y2="37.903169333336905" stroke="#26a69a" stroke-width="2"/><rect x="1228" y="18.999037333333035" width="8" height="18.24082933333102" fill="#26a69a"/><line x1="1244" y1="4.074722000003362" x2="1244" y2="43.87289533333387" stroke="#ef5350" stroke-width="2"/><rect x="1240" y="18.66738600000042" width="8" height="6.633028666669816" fill="#ef5350"/><line x1="1256" y1="10.707751333332794" x2="1256" y2="32.59674599999778" stroke="#26a69a" stroke-width="2"/><rect x="1252" y="14.024265333334029" width="8" height="8.62293733333297" fill="#26a69a"/><line x1="1268" y1="6.727933999998982" x2="1268" y2="43.20959266666853" stroke="#ef5350" stroke-width="2"/><rect x="1264" y="14.024265333334029" width="8" height="13.929360666664593" fill="#ef5350"/><line x1="1280" y1="27.95362599999862" x2="1280" y2="58.46555866666381" stroke="#ef5350" stroke-width="2"/><rect x="1276" y="27.95362599999862" width="8" height="17.245874666665827" fill="#ef5350"/><line x1="1292" y1="45.86280399999703" x2="1292" y2="80.35455400000342" stroke="#ef5350" stroke-width="2"/><rect x="1288" y="46.526106666669875" width="8" height="24.542206666660604" fill="#ef5350"/><line x1="1304" y1="49.84262133333084" x2="1304" y2="82.34446266666669" stroke="#26a69a" stroke-width="2"/><rect x="1300" y="69.74170733333267" width="8" height="2.6532120000031227" fill="#26a69a"/><line x1="1316" y1="57.138952666666" x2="1316" y2="101.58024600000317" stroke="#ef5350" stroke-width="2"/><rect x="1312" y="70.40501066666525" width="8" height="27.858720666669342" fill="#ef5350"/><line x1="1328" y1="84.99767400000269" x2="1328" y2="134.0820873333314" stroke="#ef5350" stroke-width="2"/><rect x="1324" y="99.5903373333324" width="8" height="7.296332000002394" fill="#ef5350"/><line x1="1340" y1="80.35455400000342" x2="1340" y2="114.84630400000242" stroke="#26a69a" stroke-width="2"/><rect x="1336" y="83.67106799999715" width="8" height="24.542206666668335" fill="#26a69a"/><line x1="1352" y1="75.04813066666429" x2="1352" y2="108.87657799999783" stroke="#26a69a" stroke-width="2"/><rect x="1348" y="78.36464533333287" width="8" height="7.959634666667625" fill="#26a69a"/><line x1="1364" y1="79.69125066666334" x2="1364" y2="107.54997200000003" stroke="#ef5350" stroke-width="2"/><rect x="1360" y="81.01785666666888" width="8" height="10.612845999995898" fill="#ef5350"/><line x1="1376" y1="81.68115933333411" x2="1376" y2="110.20318333333603" stroke="#ef5350" stroke-width="2"/><rect x="1372" y="88.9774913333365" width="8" height="21.225691999999526" fill="#ef5350"/><line x1="1388" y1="97.60042866666936" x2="1388" y2="151.9912653333297" stroke="#26a69a" stroke-width="2"/><rect x="1384" y="97.60042866666936" width="8" height="12.60275466666667" fill="#26a69a"/><line x1="1400" y1="75.71143333332952" x2="1400" y2="131.4288760000029" stroke="#26a69a" stroke-width="2"/><rect x="1396" y="80.35455400000342" width="8" height="14.592663333329938" fill="#26a69a"/><line x1="1412" y1="79.0279479999981" x2="1412" y2="110.8664866666686" stroke="#ef5350" stroke-width="2"/><rect x="1408" y="80.35455400000342" width="8" height="22.552297999997563" fill="#ef5350"/><line x1="1424" y1="61.11876999999981" x2="1424" y2="103.57015466666621" stroke="#26a69a" stroke-width="2"/><rect x="1420" y="61.11876999999981" width="8" height="41.78808200000117" fill="#26a69a"/><line x1="1436" y1="41.882986666663214" x2="1436" y2="67.08849599999667" stroke="#26a69a" stroke-width="2"/><rect x="1432" y="41.882986666663214" width="8" height="20.56238933333441" fill="#26a69a"/><line x1="1448" y1="38.56647200000225" x2="1448" y2="71.73161600000344" stroke="#ef5350" stroke-width="2"/><rect x="1444" y="41.882986666663214" width="8" height="26.532115333338766" fill="#ef5350"/><line x1="1460" y1="49.84262133333084" x2="1460" y2="71.73161600000344" stroke="#ef5350" stroke-width="2"/><rect x="1456" y="69.07840466666744" width="8" height="2" fill="#ef5350"/><line x1="1472" y1="63.771982000002936" x2="1472" y2="83.00776533333192" stroke="#ef5350" stroke-width="2"/><rect x="1468" y="69.41005599999994" width="8" height="6.964680666669665" fill="#ef5350"/><line x1="1484" y1="60.455467333334354" x2="1484" y2="88.9774913333365" stroke="#26a69a" stroke-width="2"/><rect x="1480" y="66.42519333333144" width="8" height="9.286239999998088" fill="#26a69a"/><line x1="1496" y1="44.53619799999922" x2="1496" y2="71.73161600000344" stroke="#26a69a" stroke-width="2"/><rect x="1492" y="59.128861333336545" width="8" height="9.286240666665435" fill="#26a69a"/><line x1="1508" y1="59.79216466666912" x2="1508" y2="82.34446266666669" stroke="#ef5350" stroke-width="2"/><rect x="1504" y="61.782073333332164" width="8" height="9.949542666671277" fill="#ef5350"/><line x1="1520" y1="62.44537599999762" x2="1520" y2="87.65088533333096" stroke="#26a69a" stroke-width="2"/><rect x="1516" y="66.42519333333144" width="8" height="6.633028666669816" fill="#26a69a"/><line x1="1532" y1="55.81234733333531" x2="1532" y2="79.0279479999981" stroke="#ef5350" stroke-width="2"/><rect x="1528" y="65.09858733333363" width="8" height="12.005781999997907" fill="#ef5350"/><line x1="1544" y1="73.72152466666648" x2="1544" y2="88.31418866666354" stroke="#ef5350" stroke-width="2"/><rect x="1540" y="79.0279479999981" width="8" height="7.959634666667625" fill="#ef5350"/><line x1="1556" y1="77.36969066666757" x2="1556" y2="187.14631800000166" stroke="#ef5350" stroke-width="2"/><rect x="1552" y="86.98758266666573" width="8" height="90.87249466667049" fill="#ef5350"/><line x1="1568" y1="128.11236133333455" x2="1568" y2="218.9848559999973" stroke="#26a69a" stroke-width="2"/><rect x="1564" y="175.87016866666545" width="8" height="2.6532120000031227" fill="#26a69a"/><line x1="1580" y1="173.8802600000024" x2="1580" y2="240.21054866666418" stroke="#ef5350" stroke-width="2"/><rect x="1576" y="173.8802600000024" width="8" height="59.69725999999946" fill="#ef5350"/><line x1="1592" y1="215.0050386666635" x2="1592" y2="345.01240399999915" stroke="#ef5350" stroke-width="2"/><rect x="1588" y="236.23073133333037" width="8" height="108.78167266666878" fill="#ef5350"/><line x1="1604" y1="286.6417499999973" x2="1604" y2="367.56470199999666" stroke="#26a69a" stroke-width="2"/><rect x="1600" y="294.6013846666649" width="8" height="48.421110666671154" fill="#26a69a"/><line x1="1616" y1="236.23073133333037" x2="1616" y2="340.36928400000005" stroke="#ef5350" stroke-width="2"/><rect x="1612" y="292.61147600000186" width="8" height="8.291286000000355" fill="#ef5350"/><line x1="1628" y1="264.08945199999994" x2="1628" y2="321.79680333333636" stroke="#26a69a" stroke-width="2"/><rect x="1624" y="301.8977166666673" width="8" height="2" fill="#26a69a"/><line x1="1640" y1="282.66193266666346" x2="1640" y2="382.1573653333341" stroke="#ef5350" stroke-width="2"/><rect x="1636" y="291.9481733333366" width="8" height="42.4513846666664" fill="#ef5350"/><line x1="1652" y1="295.2646879999975" x2="1652" y2="349.65552399999825" stroke="#26a69a" stroke-width="2"/><rect x="1648" y="330.4197406666692" width="8" height="5.969725999997081" fill="#26a69a"/><line x1="1664" y1="285.97844733333204" x2="1664" y2="370.21791333333266" stroke="#ef5350" stroke-width="2"/><rect x="1660" y="331.7463459999999" width="8" height="9.949543333330723" fill="#ef5350"/><line x1="1676" y1="337.71607199999676" x2="1676" y2="462.4170140000009" stroke="#ef5350" stroke-width="2"/><rect x="1672" y="341.6958893333306" width="8" height="82.91286066666999" fill="#ef5350"/><line x1="1688" y1="319.8068946666656" x2="1688" y2="424.6087500000006" stroke="#26a69a" stroke-width="2"/><rect x="1684" y="342.35919266666315" width="8" height="80.2596486666668" fill="#26a69a"/><line x1="1700" y1="317.15368266666997" x2="1700" y2="416.649115333333" stroke="#ef5350" stroke-width="2"/><rect x="1696" y="348.3289186666677" width="8" height="51.07432199999948" fill="#ef5350"/><line x1="1712" y1="380.8307593333363" x2="1712" y2="439.8647160000034" stroke="#26a69a" stroke-width="2"/><rect x="1708" y="381.49406266666875" width="8" height="14.592663333329881" fill="#26a69a"/><line x1="1724" y1="370.8812166666651" x2="1724" y2="419.9656300000015" stroke="#ef5350" stroke-width="2"/><rect x="1720" y="384.1472739999972" width="8" height="3.3165146666685246" fill="#ef5350"/><line x1="1736" y1="354.9619473333299" x2="1736" y2="410.6793893333361" stroke="#26a69a" stroke-width="2"/><rect x="1732" y="366.23809599999885" width="8" height="23.21560133333753" fill="#26a69a"/><line x1="1748" y1="363.5848846666704" x2="1748" y2="482.9794033333352" stroke="#ef5350" stroke-width="2"/><rect x="1744" y="367.56470199999666" width="8" height="112.09818733333731" fill="#ef5350"/><line x1="1760" y1="447.1610479999981" x2="1760" y2="551.2996006666677" stroke="#ef5350" stroke-width="2"/><rect x="1756" y="482.31610066666997" width="8" height="52.069275999997444" fill="#ef5350"/><line x1="1772" y1="529.4106053333356" x2="1772" y2="601.7106193333348" stroke="#26a69a" stroke-width="2"/><rect x="1768" y="530.0739080000009" width="8" height="7.959634666667625" fill="#26a69a"/><line x1="1784" y1="471.039952000001" x2="1784" y2="545.9931773333361" stroke="#26a69a" stroke-width="2"/><rect x="1780" y="488.21949666667024" width="8" height="39.86450266665997" fill="#26a69a"/><line x1="1796" y1="444.5078366666697" x2="1796" y2="494.2555526666638" stroke="#26a69a" stroke-width="2"/><rect x="1792" y="475.68307200000015" width="8" height="10.612846000003628" fill="#26a69a"/><line x1="1808" y1="478.9995860000014" x2="1808" y2="627.5794320000008" stroke="#ef5350" stroke-width="2"/><rect x="1804" y="478.9995860000014" width="8" height="145.26333133333083" fill="#ef5350"/><line x1="1820" y1="578.4950186666644" x2="1820" y2="634.8757640000031" stroke="#ef5350" stroke-width="2"/><rect x="1816" y="618.2931913333354" width="8" height="2.6532119999956194" fill="#ef5350"/><line x1="1832" y1="589.7711680000006" x2="1832" y2="644.8253066666666" stroke="#ef5350" stroke-width="2"/><rect x="1828" y="616.9665859999972" width="8" height="9.949543333338283" fill="#ef5350"/><line x1="1844" y1="587.1179559999973" x2="1844" y2="656.7647586666681" stroke="#26a69a" stroke-width="2"/><rect x="1840" y="602.3739226666672" width="8" height="23.215600666662795" fill="#26a69a"/><line x1="1856" y1="605.0271340000032" x2="1856" y2="660.7445760000019" stroke="#ef5350" stroke-width="2"/><rect x="1852" y="605.0271340000032" width="8" height="9.94954333333078" fill="#ef5350"/><line x1="1868" y1="598.3941053333334" x2="1868" y2="669.3675133333347" stroke="#ef5350" stroke-width="2"/><rect x="1864" y="612.323465999998" width="8" height="31.83853800000327" fill="#ef5350"/><line x1="1880" y1="601.7106193333348" x2="1880" y2="656.1014560000028" stroke="#26a69a" stroke-width="2"/><rect x="1876" y="615.6399799999994" width="8" height="25.205509333333453" fill="#26a69a"/><line x1="1892" y1="599.7207106666641" x2="1892" y2="674.6739366666663" stroke="#ef5350" stroke-width="2"/><rect x="1888" y="614.3133746666687" width="8" height="46.431201333333206" fill="#ef5350"/><line x1="1904" y1="622.2730086666692" x2="1904" y2="679.980359999998" stroke="#ef5350" stroke-width="2"/><rect x="1900" y="654.4431986666648" width="8" height="2" fill="#ef5350"/><line x1="1916" y1="553.9528120000037" x2="1916" y2="655.4381533333299" stroke="#26a69a" stroke-width="2"/><rect x="1912" y="579.8216246666698" width="8" height="75.61652866666009" fill="#26a69a"/><line x1="1928" y1="510.8381246666644" x2="1928" y2="626.252826000003" stroke="#ef5350" stroke-width="2"/><rect x="1924" y="577.1684126666665" width="8" height="7.296332000002394" fill="#ef5350"/><line x1="1940" y1="560.5858406666661" x2="1940" y2="617.62988866667" stroke="#ef5350" stroke-width="2"/><rect x="1936" y="585.1280473333342" width="8" height="20.56238933333441" fill="#ef5350"/><rect x="75" y="955.0215903748716" width="10" height="64.97840962512839" fill="#ef5350" opacity="0.9"/><rect x="87" y="969.1719917120819" width="10" height="50.828008287918124" fill="#26a69a" opacity="0.9"/><rect x="99" y="983.228805738861" width="10" height="36.771194261139044" fill="#ef5350" opacity="0.9"/><rect x="111" y="966.1589156060105" width="10" height="53.84108439398949" fill="#26a69a" opacity="0.9"/><rect x="123" y="982.7112461476851" width="10" height="37.288753852314926" fill="#ef5350" opacity="0.9"/><rect x="135" y="960.7478279038183" width="10" height="59.25217209618165" fill="#ef5350" opacity="0.9"/><rect x="147" y="954.1653753068794" width="10" height="65.83462469312065" fill="#ef5350" opacity="0.9"/><rect x="159" y="985.7443455852907" width="10" height="34.255654414709284" fill="#ef5350" opacity="0.9"/><rect x="171" y="989.8360698553097" width="10" height="30.163930144690312" fill="#26a69a" opacity="0.9"/><rect x="183" y="998.4844079187924" width="10" height="21.515592081207615" fill="#ef5350" opacity="0.9"/><rect x="195" y="996.3732523113889" width="10" height="23.62674768861109" fill="#26a69a" opacity="0.9"/><rect x="207" y="985.7234516741246" width="10" height="34.27654832587541" fill="#ef5350" opacity="0.9"/><rect x="219" y="974.6570786829872" width="10" height="45.34292131701284" fill="#26a69a" opacity="0.9"/><rect x="231" y="986.7189594832239" width="10" height="33.2810405167761" fill="#26a69a" opacity="0.9"/><rect x="243" y="995.7551407727265" width="10" height="24.244859227273537" fill="#ef5350" opacity="0.9"/><rect x="255" y="970.5518604286734" width="10" height="49.44813957132658" fill="#26a69a" opacity="0.9"/><rect x="267" y="984.0188567548273" width="10" height="35.98114324517269" fill="#ef5350" opacity="0.9"/><rect x="279" y="991.9816133581738" width="10" height="28.01838664182617" fill="#ef5350" opacity="0.9"/><rect x="291" y="972.575087493253" width="10" height="47.42491250674698" fill="#26a69a" opacity="0.9"/><rect x="303" y="1000.1067330628732" width="10" height="19.893266937126782" fill="#ef5350" opacity="0.9"/><rect x="315" y="984.8950951543537" width="10" height="35.104904845646274" fill="#ef5350" opacity="0.9"/><rect x="327" y="994.1123570072955" width="10" height="25.887642992704514" fill="#26a69a" opacity="0.9"/><rect x="339" y="994.9846777984782" width="10" height="25.015322201521826" fill="#26a69a" opacity="0.9"/><rect x="351" y="987.7949959082757" width="10" height="32.20500409172428" fill="#26a69a" opacity="0.9"/><rect x="363" y="994.8562673027702" width="10" height="25.14373269722978" fill="#ef5350" opacity="0.9"/><rect x="375" y="1001.5640833667055" width="10" height="18.435916633294482" fill="#26a69a" opacity="0.9"/><rect x="387" y="998.0891647659012" width="10" height="21.91083523409884" fill="#26a69a" opacity="0.9"/><rect x="399" y="1005.1756829697213" width="10" height="14.824317030278735" fill="#26a69a" opacity="0.9"/><rect x="411" y="989.6166837880661" width="10" height="30.383316211933902" fill="#26a69a" opacity="0.9"/><rect x="423" y="991.4531715215991" width="10" height="28.546828478400926" fill="#26a69a" opacity="0.9"/><rect x="435" y="1001.043476746818" width="10" height="18.956523253182013" fill="#ef5350" opacity="0.9"/><rect x="447" y="1005.6214197412637" width="10" height="14.378580258736292" fill="#ef5350" opacity="0.9"/><rect x="459" y="1001.3007330280501" width="10" height="18.699266971949896" fill="#ef5350" opacity="0.9"/><rect x="471" y="1001.2863684641234" width="10" height="18.71363153587663" fill="#ef5350" opacity="0.9"/><rect x="483" y="1003.7827555586509" width="10" height="16.217244441349067" fill="#ef5350" opacity="0.9"/><rect x="495" y="1001.6263298103878" width="10" height="18.3736701896122" fill="#ef5350" opacity="0.9"/><rect x="507" y="1003.3627008862501" width="10" height="16.63729911374992" fill="#26a69a" opacity="0.9"/><rect x="519" y="1007.1083697525813" width="10" height="12.891630247418675" fill="#26a69a" opacity="0.9"/><rect x="531" y="997.8985078265109" width="10" height="22.101492173489078" fill="#ef5350" opacity="0.9"/><rect x="543" y="1007.475754357251" width="10" height="12.524245642748951" fill="#26a69a" opacity="0.9"/><rect x="555" y="1005.3332578830986" width="10" height="14.666742116901446" fill="#26a69a" opacity="0.9"/><rect x="567" y="1006.3722946737938" width="10" height="13.627705326206183" fill="#26a69a" opacity="0.9"/><rect x="579" y="1005.1064718889837" width="10" height="14.89352811101628" fill="#ef5350" opacity="0.9"/><rect x="591" y="1001.9223268852402" width="10" height="18.07767311475982" fill="#26a69a" opacity="0.9"/><rect x="603" y="1005.7228422683822" width="10" height="14.277157731617763" fill="#ef5350" opacity="0.9"/><rect x="615" y="1003.1119739522574" width="10" height="16.888026047742642" fill="#ef5350" opacity="0.9"/><rect x="627" y="1005.3580694026083" width="10" height="14.641930597391706" fill="#26a69a" opacity="0.9"/><rect x="639" y="1003.1276443856319" width="10" height="16.872355614368075" fill="#ef5350" opacity="0.9"/><rect x="651" y="1004.3773614472516" width="10" height="15.622638552748413" fill="#26a69a" opacity="0.9"/><rect x="663" y="1004.533630491181" width="10" height="15.466369508818957" fill="#26a69a" opacity="0.9"/><rect x="675" y="999.9125938049553" width="10" height="20.08740619504465" fill="#ef5350" opacity="0.9"/><rect x="687" y="1007.1427576480421" width="10" height="12.857242351957893" fill="#26a69a" opacity="0.9"/><rect x="699" y="976.4996604739435" width="10" height="43.50033952605645" fill="#ef5350" opacity="0.9"/><rect x="711" y="1006.9381714345411" width="10" height="13.061828565458882" fill="#26a69a" opacity="0.9"/><rect x="723" y="1003.857625406996" width="10" height="16.14237459300398" fill="#ef5350" opacity="0.9"/><rect x="735" y="1005.854735082618" width="10" height="14.145264917381951" fill="#26a69a" opacity="0.9"/><rect x="747" y="1004.0182473490851" width="10" height="15.981752650914927" fill="#26a69a" opacity="0.9"/><rect x="759" y="1006.0632389044625" width="10" height="13.936761095537463" fill="#ef5350" opacity="0.9"/><rect x="771" y="1006.7327146414083" width="10" height="13.267285358591721" fill="#26a69a" opacity="0.9"/><rect x="783" y="988.5071300471855" width="10" height="31.492869952814544" fill="#ef5350" opacity="0.9"/><rect x="795" y="1001.8431041387356" width="10" height="18.15689586126439" fill="#ef5350" opacity="0.9"/><rect x="807" y="1001.7699754496543" width="10" height="18.23002455034566" fill="#26a69a" opacity="0.9"/><rect x="819" y="1005.3167168700921" width="10" height="14.683283129907863" fill="#26a69a" opacity="0.9"/><rect x="831" y="1003.2743370536103" width="10" height="16.72566294638966" fill="#26a69a" opacity="0.9"/><rect x="843" y="998.2349868542476" width="10" height="21.76501314575239" fill="#26a69a" opacity="0.9"/><rect x="855" y="995.3124510298957" width="10" height="24.68754897010433" fill="#26a69a" opacity="0.9"/><rect x="867" y="995.5749307889192" width="10" height="24.425069211080768" fill="#26a69a" opacity="0.9"/><rect x="879" y="997.3770306269914" width="10" height="22.622969373008573" fill="#ef5350" opacity="0.9"/><rect x="891" y="999.2143889401564" width="10" height="20.78561105984363" fill="#26a69a" opacity="0.9"/><rect x="903" y="994.5633172566295" width="10" height="25.43668274337051" fill="#26a69a" opacity="0.9"/><rect x="915" y="1000.044921909007" width="10" height="19.95507809099297" fill="#26a69a" opacity="0.9"/><rect x="927" y="991.1027632197518" width="10" height="28.89723678024825" fill="#ef5350" opacity="0.9"/><rect x="939" y="999.8285828704752" width="10" height="20.171417129524798" fill="#ef5350" opacity="0.9"/><rect x="951" y="932.518412759215" width="10" height="87.48158724078496" fill="#ef5350" opacity="0.9"/><rect x="963" y="954.7538871380565" width="10" height="65.24611286194352" fill="#ef5350" opacity="0.9"/><rect x="975" y="966.3582783417199" width="10" height="53.64172165828006" fill="#26a69a" opacity="0.9"/><rect x="987" y="960.4553131474936" width="10" height="59.5446868525064" fill="#26a69a" opacity="0.9"/><rect x="999" y="933.8308115543329" width="10" height="86.16918844566715" fill="#ef5350" opacity="0.9"/><rect x="1011" y="902.7894241986314" width="10" height="117.21057580136858" fill="#26a69a" opacity="0.9"/><rect x="1023" y="973.4500200233315" width="10" height="46.54997997666851" fill="#ef5350" opacity="0.9"/><rect x="1035" y="978.5947103581565" width="10" height="41.405289641843524" fill="#26a69a" opacity="0.9"/><rect x="1047" y="969.676492608779" width="10" height="50.32350739122103" fill="#26a69a" opacity="0.9"/><rect x="1059" y="978.9129072136228" width="10" height="41.087092786377184" fill="#26a69a" opacity="0.9"/><rect x="1071" y="990.7841310744694" width="10" height="29.21586892553057" fill="#26a69a" opacity="0.9"/><rect x="1083" y="959.9294830498146" width="10" height="60.07051695018538" fill="#26a69a" opacity="0.9"/><rect x="1095" y="988.8566677694008" width="10" height="31.143332230599185" fill="#ef5350" opacity="0.9"/><rect x="1107" y="979.6803231591593" width="10" height="40.31967684084066" fill="#26a69a" opacity="0.9"/><rect x="1119" y="997.3404662824508" width="10" height="22.659533717549152" fill="#ef5350" opacity="0.9"/><rect x="1131" y="997.6725924120279" width="10" height="22.32740758797206" fill="#26a69a" opacity="0.9"/><rect x="1143" y="1003.9777653962008" width="10" height="16.022234603799234" fill="#26a69a" opacity="0.9"/><rect x="1155" y="993.3048943986906" width="10" height="26.695105601309365" fill="#26a69a" opacity="0.9"/><rect x="1167" y="976.6515766197134" width="10" height="43.34842338028659" fill="#26a69a" opacity="0.9"/><rect x="1179" y="985.5776295857783" width="10" height="34.422370414221746" fill="#ef5350" opacity="0.9"/><rect x="1191" y="999.8699354029914" width="10" height="20.13006459700864" fill="#26a69a" opacity="0.9"/><rect x="1203" y="999.7289015026205" width="10" height="20.271098497379512" fill="#ef5350" opacity="0.9"/><rect x="1215" y="988.3560844810474" width="10" height="31.643915518952554" fill="#26a69a" opacity="0.9"/><rect x="1227" y="985.7356397889715" width="10" height="34.264360211028475" fill="#26a69a" opacity="0.9"/><rect x="1239" y="988.4544599794543" width="10" height="31.545540020545673" fill="#ef5350" opacity="0.9"/><rect x="1251" y="997.9751188341197" width="10" height="22.024881165880288" fill="#26a69a" opacity="0.9"/><rect x="1263" y="997.4166420002438" width="10" height="22.58335799975623" fill="#ef5350" opacity="0.9"/><rect x="1275" y="998.0604356380478" width="10" height="21.939564361952193" fill="#ef5350" opacity="0.9"/><rect x="1287" y="993.0606968119374" width="10" height="26.93930318806258" fill="#ef5350" opacity="0.9"/><rect x="1299" y="994.1006041822645" width="10" height="25.899395817735467" fill="#26a69a" opacity="0.9"/><rect x="1311" y="997.8366966726446" width="10" height="22.16330332735538" fill="#ef5350" opacity="0.9"/><rect x="1323" y="991.7356746121568" width="10" height="28.2643253878432" fill="#ef5350" opacity="0.9"/><rect x="1335" y="996.6261556944613" width="10" height="23.373844305538682" fill="#26a69a" opacity="0.9"/><rect x="1347" y="1003.1541970644055" width="10" height="16.84580293559452" fill="#26a69a" opacity="0.9"/><rect x="1359" y="1002.6179200111434" width="10" height="17.382079988856617" fill="#ef5350" opacity="0.9"/><rect x="1371" y="1002.3075583723643" width="10" height="17.69244162763573" fill="#ef5350" opacity="0.9"/><rect x="1383" y="976.1971340518518" width="10" height="43.802865948148224" fill="#26a69a" opacity="0.9"/><rect x="1395" y="989.5796841537095" width="10" height="30.420315846290464" fill="#26a69a" opacity="0.9"/><rect x="1407" y="995.621506799227" width="10" height="24.37849320077305" fill="#ef5350" opacity="0.9"/><rect x="1419" y="995.803893232114" width="10" height="24.19610676788602" fill="#26a69a" opacity="0.9"/><rect x="1431" y="1003.0714919993732" width="10" height="16.928508000626834" fill="#26a69a" opacity="0.9"/><rect x="1443" y="996.6927550363032" width="10" height="23.307244963696803" fill="#ef5350" opacity="0.9"/><rect x="1455" y="1004.4809604234499" width="10" height="15.519039576550085" fill="#ef5350" opacity="0.9"/><rect x="1467" y="1000.8911253112323" width="10" height="19.10887468876774" fill="#ef5350" opacity="0.9"/><rect x="1479" y="1003.5520519561925" width="10" height="16.447948043807514" fill="#26a69a" opacity="0.9"/><rect x="1491" y="1004.6141591071336" width="10" height="15.38584089286644" fill="#26a69a" opacity="0.9"/><rect x="1503" y="999.9848519144047" width="10" height="20.015148085595342" fill="#ef5350" opacity="0.9"/><rect x="1515" y="1001.3577559939407" width="10" height="18.642244006059286" fill="#26a69a" opacity="0.9"/><rect x="1527" y="1003.8598018560758" width="10" height="16.14019814392418" fill="#ef5350" opacity="0.9"/><rect x="1539" y="1005.038566677694" width="10" height="14.961433322305993" fill="#ef5350" opacity="0.9"/><rect x="1551" y="979.5728065746174" width="10" height="40.4271934253826" fill="#ef5350" opacity="0.9"/><rect x="1563" y="968.2034718715721" width="10" height="51.796528128427894" fill="#26a69a" opacity="0.9"/><rect x="1575" y="977.9913986732366" width="10" height="42.00860132676337" fill="#ef5350" opacity="0.9"/><rect x="1587" y="951.5009663433914" width="10" height="68.49903365660862" fill="#ef5350" opacity="0.9"/><rect x="1599" y="959.2460780387582" width="10" height="60.75392196124176" fill="#26a69a" opacity="0.9"/><rect x="1611" y="974.2909999477653" width="10" height="45.70900005223473" fill="#ef5350" opacity="0.9"/><rect x="1623" y="978.9507774276113" width="10" height="41.04922257238866" fill="#26a69a" opacity="0.9"/><rect x="1635" y="983.0263959744398" width="10" height="36.973604025560235" fill="#ef5350" opacity="0.9"/><rect x="1647" y="984.1590200755663" width="10" height="35.84097992443367" fill="#26a69a" opacity="0.9"/><rect x="1659" y="981.4332352480282" width="10" height="38.566764751971846" fill="#ef5350" opacity="0.9"/><rect x="1671" y="951.9837027492905" width="10" height="68.0162972507095" fill="#ef5350" opacity="0.9"/><rect x="1683" y="973.3786324935141" width="10" height="46.62136750648585" fill="#26a69a" opacity="0.9"/><rect x="1695" y="983.142183065485" width="10" height="36.85781693451497" fill="#ef5350" opacity="0.9"/><rect x="1707" y="994.08493374889" width="10" height="25.915066251110034" fill="#26a69a" opacity="0.9"/><rect x="1719" y="996.254418191632" width="10" height="23.745581808368" fill="#ef5350" opacity="0.9"/><rect x="1731" y="994.0453223756377" width="10" height="25.95467762436226" fill="#26a69a" opacity="0.9"/><rect x="1743" y="978.5476990580329" width="10" height="41.45230094196711" fill="#ef5350" opacity="0.9"/><rect x="1755" y="952.4037574216914" width="10" height="67.59624257830865" fill="#ef5350" opacity="0.9"/><rect x="1767" y="941.2437971201226" width="10" height="78.75620287987738" fill="#26a69a" opacity="0.9"/><rect x="1779" y="972.3800776557032" width="10" height="47.61992234429681" fill="#26a69a" opacity="0.9"/><rect x="1791" y="971.4572632458691" width="10" height="48.54273675413094" fill="#26a69a" opacity="0.9"/><rect x="1803" y="954.1423049466334" width="10" height="65.85769505336657" fill="#ef5350" opacity="0.9"/><rect x="1815" y="969.8275381749169" width="10" height="50.17246182508313" fill="#ef5350" opacity="0.9"/><rect x="1827" y="967.5723016384309" width="10" height="52.42769836156913" fill="#ef5350" opacity="0.9"/><rect x="1839" y="966.957672418296" width="10" height="53.042327581703944" fill="#26a69a" opacity="0.9"/><rect x="1851" y="985.450524959518" width="10" height="34.54947504048198" fill="#ef5350" opacity="0.9"/><rect x="1863" y="980.3136698413804" width="10" height="39.686330158619626" fill="#ef5350" opacity="0.9"/><rect x="1875" y="977.331934602058" width="10" height="42.66806539794197" fill="#26a69a" opacity="0.9"/><rect x="1887" y="988.9937840614281" width="10" height="31.006215938571927" fill="#ef5350" opacity="0.9"/><rect x="1899" y="989.2997928020476" width="10" height="30.70020719795241" fill="#ef5350" opacity="0.9"/><rect x="1911" y="971.9809168944684" width="10" height="48.01908310553165" fill="#26a69a" opacity="0.9"/><rect x="1923" y="887.1882019048282" width="10" height="132.81179809517175" fill="#ef5350" opacity="0.9"/><rect x="1935" y="860.0" width="10" height="160.0" fill="#ef5350" opacity="0.9"/><rect x="1004" y="299.2445053333313" width="12" height="249.40188333333333" fill="#00ff00" opacity="0.50"/><polyline points="320,639.7289298047554,332,654.1120737598551,344,659.1657598779648,356,660.4532139848288,368,663.7658913196067,380,664.1098640193225,392,664.1683906206556,404,662.4525355774192,416,655.4673288240185,428,647.9471175074423,440,644.9965906972087,452,642.2007230117591,464,644.5985212646065,476,648.6631088901959,488,652.6564514720803,500,658.4173136175953,512,663.5663504794138,524,667.6564576083592,536,673.4416968837497,548,674.7656326091071,560,674.8832430907821,572,673.978905272611,584,674.3609572783953,596,671.1058362677552,608,670.6244232263846,620,669.936172188947,632,667.0392875995276,644,667.1978517011592,656,663.6141839835848,668,657.5290912867331,680,652.971106783237,692,647.3310951530872,704,642.2913992337423,716,636.5945836876714,728,633.7145033364626,740,628.9608784472724,752,622.8911720554682,764,617.7785630978027,776,612.773839120238,788,608.9406442198955,800,607.3044948656237,812,603.4236445609622,824,599.659712253568,836,593.4746947691034,848,586.4889491085554,860,577.7679877966269,872,567.6034129588515,884,558.5964079151532,896,549.9418392883172,908,539.7109905941912,920,529.9491347915742,932,522.0013834145979,944,515.1895908989218,956,522.7348001466453,968,537.7105677517269,980,543.0477503150541,992,543.5746368247313,1004,544.0576608096762,1016,515.0566688595518,1028,490.46014046023174,1040,465.30024022592136,1052,442.2206624266285,1064,416.159060036792,1076,390.87387901741596,1088,363.2589327617855,1100,340.29547586383916,1112,317.687035495851,1124,297.29495160735655,1136,278.4659407241179,1148,261.6828557662682,1160,241.88662556630334,1172,223.1545184330041,1184,210.0598954076379,1196,195.05379419421547,1208,181.7927040169859,1220,168.0889388090161,1232,153.88990057323713,1244,141.64328286785053,1256,129.48909072170704,1268,119.81904646249859,1280,112.71242305337341,1292,108.74631736574725,1304,105.03159260075176,1316,104.38703438480843,1328,104.62509485610099,1340,102.62947325075697,1352,100.31853725862061,1364,99.49112444033585,1376,100.51132052538674,1388,100.23409272931372,1400,98.34080332652024,1412,98.77566510494944,1424,95.189294142574,1436,90.11250295438913,1448,88.04608381587218,1460,86.30280986515118,1472,85.35727908434478,1484,83.5542232985365,1496,81.22799834947432,1508,80.32358098285681,1520,78.9999250162357,1532,78.81939590358047,1544,79.59731845244278,1556,88.95567644109792,1568,97.2332471292475,1580,110.21841597407729,1592,132.5797481670254,1604,148.01038021460795,1616,162.5715594322628,1628,175.84071726411526,1640,190.94155923896028,1652,204.22519556541374,1664,217.31764259093325,1676,237.05965282036527,1688,247.08818042477856,1700,261.59437663829226,1712,273.01339435528007,1724,283.9134319087407,1736,291.7538761079111,1748,309.6499726055679,1760,331.05334442091134,1772,350.0076838093946,1784,363.1707136053213,1796,373.88617630957316,1808,397.7315802166004,1820,418.9901347991433,1832,438.79261046906777,1844,454.3717830593172,1856,469.66748727588765,1868,486.2860126781849,1880,498.60543813740605,1892,514.0472607909866,1904,527.5130600807339,1916,532.4948281365323,1928,537.4443439965489,1940,543.9439718698926" fill="none" stroke="#0090ff" stroke-width="2"/><line x1="80" y1="50" x2="80" y2="850" stroke="#666666" stroke-width="0.5" stroke-dasharray="4,4"/><line x1="152" y1="50" x2="152" y2="850" stroke="#666666" stroke-width="0.5" stroke-dasharray="4,4"/><line x1="224" y1="50" x2="224" y2="850" stroke="#666666" stroke-width="0.5" stroke-dasharray="4,4"/><line x1="296" y1="50" x2="296" y2="850" stroke="#666666" stroke-width="0.5" stroke-dasharray="4,4"/><line x1="368" y1="50" x2="368" y2="850" stroke="#666666" stroke-width="0.5" stroke-dasharray="4,4"/><line x1="440" y1="50" x2="440" y2="850" stroke="#666666" stroke-width="0.5" stroke-dasharray="4,4"/><line x1="512" y1="50" x2="512" y2="850" stroke="#666666" stroke-width="0.5" stroke-dasharray="4,4"/><line x1="584" y1="50" x2="584" y2="850" stroke="#666666" stroke-width="0.5" stroke-dasharray="4,4"/><line x1="656" y1="50" x2="656" y2="850" stroke="#666666" stroke-width="0.5" stroke-dasharray="4,4"/><line x1="728" y1="50" x2="728" y2="850" stroke="#666666" stroke-width="0.5" stroke-dasharray="4,4"/><line x1="800" y1="50" x2="800" y2="850" stroke="#666666" stroke-width="0.5" stroke-dasharray="4,4"/><line x1="872" y1="50" x2="872" y2="850" stroke="#666666" stroke-width="0.5" stroke-dasharray="4,4"/><line x1="944" y1="50" x2="944" y2="850" stroke="#666666" stroke-width="0.5" stroke-dasharray="4,4"/><line x1="1016" y1="50" x2="1016" y2="850" stroke="#666666" stroke-width="0.5" stroke-dasharray="4,4"/><line x1="1088" y1="50" x2="1088" y2="850" stroke="#666666" stroke-width="0.5" stroke-dasharray="4,4"/><line x1="1160" y1="50" x2="1160" y2="850" stroke="#666666" stroke-width="0.5" stroke-dasharray="4,4"/><line x1="1232" y1="50" x2="1232" y2="850" stroke="#666666" stroke-width="0.5" stroke-dasharray="4,4"/><line x1="1304" y1="50" x2="1304" y2="850" stroke="#666666" stroke-width="0.5" stroke-dasharray="4,4"/><line x1="1376" y1="50" x2="1376" y2="850" stroke="#666666" stroke-width="0.5" stroke-dasharray="4,4"/><line x1="1448" y1="50" x2="1448" y2="850" stroke="#666666" stroke-width="0.5" stroke-dasharray="4,4"/><line x1="1520" y1="50" x2="1520" y2="850" stroke="#666666" stroke-width="0.5" stroke-dasharray="4,4"/><line x1="1592" y1="50" x2="1592" y2="850" stroke="#666666" stroke-width="0.5" stroke-dasharray="4,4"/><line x1="1664" y1="50" x2="1664" y2="850" stroke="#666666" stroke-width="0.5" stroke-dasharray="4,4"/><line x1="1736" y1="50" x2="1736" y2="850" stroke="#666666" stroke-width="0.5" stroke-dasharray="4,4"/><line x1="1808" y1="50" x2="1808" y2="850" stroke="#666666" stroke-width="0.5" stroke-dasharray="4,4"/><line x1="1880" y1="50" x2="1880" y2="850" stroke="#666666" stroke-width="0.5" stroke-dasharray="4,4"/><text x="80" y="1040" text-anchor="middle" font-size="20" fill="black">09:30</text><text x="152" y="1040" text-anchor="middle" font-size="20" fill="black">10:00</text><text x="224" y="1040" text-anchor="middle" font-size="20" fill="black">10:30</text><text x="296" y="1040" text-anchor="middle" font-size="20" fill="black">11:00</text><text x="368" y="1040" text-anchor="middle" font-size="20" fill="black">11:30</text><text x="440" y="1040" text-anchor="middle" font-size="20" fill="black">12:00</text><text x="512" y="1040" text-anchor="middle" font-size="20" fill="black">12:30</text><text x="584" y="1040" text-anchor="middle" font-size="20" fill="black">13:00</text><text x="656" y="1040" text-anchor="middle" font-size="20" fill="black">13:30</text><text x="728" y="1040" text-anchor="middle" font-size="20" fill="black">14:00</text><text x="800" y="1040" text-anchor="middle" font-size="20" fill="black">14:30</text><text x="872" y="1040" text-anchor="middle" font-size="20" fill="black">15:00</text><text x="944" y="1040" text-anchor="middle" font-size="20" fill="black">15:30</text><text x="1016" y="1040" text-anchor="middle" font-size="20" fill="black">09:30</text><text x="1088" y="1040" text-anchor="middle" font-size="20" fill="black">10:00</text><text x="1160" y="1040" text-anchor="middle" font-size="20" fill="black">10:30</text><text x="1232" y="1040" text-anchor="middle" font-size="20" fill="black">11:00</text><text x="1304" y="1040" text-anchor="middle" font-size="20" fill="black">11:30</text><text x="1376" y="1040" text-anchor="middle" font-size="20" fill="black">12:00</text><text x="1448" y="1040" text-anchor="middle" font-size="20" fill="black">12:30</text><text x="1520" y="1040" text-anchor="middle" font-size="20" fill="black">13:00</text><text x="1592" y="1040" text-anchor="middle" font-size="20" fill="black">13:30</text><text x="1664" y="1040" text-anchor="middle" font-size="20" fill="black">14:00</text><text x="1736" y="1040" text-anchor="middle" font-size="20" fill="black">14:30</text><text x="1808" y="1040" text-anchor="middle" font-size="20" fill="black">15:00</text><text x="1880" y="1040" text-anchor="middle" font-size="20" fill="black">15:30</text><text x="1942" y="50" text-anchor="end" font-size="40" fill="#ef5350" font-weight="bold"> -0.88% (Fri)</text></svg>