<svg xmlns="http://www.w3.org/2000/svg" width="1992" height="1050"><rect width="100%" height="100%" fill="white"/><text x="42" y="854.0" text-anchor="end" font-size="20" fill="black">618</text><text x="42" y="774.0" text-anchor="end" font-size="20" fill="black">619</text><text x="42" y="694.0" text-anchor="end" font-size="20" fill="black">620</text><text x="42" y="614.0" text-anchor="end" font-size="20" fill="black">621</text><text x="42" y="534.0" text-anchor="end" font-size="20" fill="black">622</text><text x="42" y="454.0" text-anchor="end" font-size="20" fill="black">623</text><text x="42" y="374.0" text-anchor="end" font-size="20" fill="black">624</text><text x="42" y="294.0" text-anchor="end" font-size="20" fill="black">625</text><text x="42" y="214.0" text-anchor="end" font-size="20" fill="black">626</text><text x="42" y="134.0" text-anchor="end" font-size="20" fill="black">627</text><text x="42" y="54.0" text-anchor="end" font-size="20" fill="black">628</text><line x1="80" y1="416.4000000000033" x2="80" y2="628.4000000000015" stroke="#ef5350" stroke-width="2"/><rect x="76" y="447.60000000000224" width="8" height="154.39999999999594" fill="#ef5350"/><line x1="92" y1="558.8000000000011" x2="92" y2="659.6000000000004" stroke="#ef5350" stroke-width="2"/><rect x="88" y="602.7999999999975" width="8" height="52.80000000000655" fill="#ef5350"/><line x1="104" y1="616.4000000000033" x2="104" y2="780.3999999999996" stroke="#ef5350" stroke-width="2"/><rect x="100" y="655.600000000004" width="8" height="111.99999999999818" fill="#ef5350"/><line x1="116" y1="661.1999999999989" x2="116" y2="812.3999999999978" stroke="#26a69a" stroke-width="2"/><rect x="112" y="709.2000000000007" width="8" height="57.60000000000218" fill="#26a69a"/><line x1="128" y1="671.5999999999985" x2="128" y2="770.7999999999993" stroke="#26a69a" stroke-width="2"/><rect x="124" y="707.6000000000022" width="8" height="8.000000000001819" fill="#26a69a"/><line x1="140" y1="694.7999999999956" x2="140" y2="806.8000000000029" stroke="#ef5350" stroke-width="2"/><rect x="136" y="711.5999999999985" width="8" height="89.60000000000036" fill="#ef5350"/><line x1="152" y1="781.1999999999989" x2="152" y2="866.0000000000036" stroke="#26a69a" stroke-width="2"/><rect x="148" y="788.4000000000015" width="8" height="15.19999999999527" fill="#26a69a"/><line x1="164" y1="651.5999999999985" x2="164" y2="801.9999999999982" stroke="#26a69a" stroke-width="2"/><rect x="160" y="657.2000000000025" width="8" height="132.79999999999745" fill="#26a69a"/><line x1="176" y1="650.0" x2="176" y2="704.399999999996" stroke="#26a69a" stroke-width="2"/><rect x="172" y="657.2000000000025" width="8" height="2" fill="#26a69a"/><line x1="188" y1="617.2000000000025" x2="188" y2="677.2000000000025" stroke="#26a69a" stroke-width="2"/><rect x="184" y="642.7999999999975" width="8" height="12.800000000006548" fill="#26a69a"/><line x1="200" y1="609.2000000000007" x2="200" y2="666.8000000000029" stroke="#26a69a" stroke-width="2"/><rect x="196" y="630.0" width="8" height="9.600000000000364" fill="#26a69a"/><line x1="212" y1="590.0" x2="212" y2="650.0" stroke="#26a69a" stroke-width="2"/><rect x="208" y="618.0000000000018" width="8" height="8.800000000001091" fill="#26a69a"/><line x1="224" y1="604.399999999996" x2="224" y2="682.7999999999975" stroke="#ef5350" stroke-width="2"/><rect x="220" y="620.3999999999996" width="8" height="58.400000000001455" fill="#ef5350"/><line x1="236" y1="673.9999999999964" x2="236" y2="760.3999999999996" stroke="#ef5350" stroke-width="2"/><rect x="232" y="680.3999999999996" width="8" height="6.400000000003274" fill="#ef5350"/><line x1="248" y1="618.0000000000018" x2="248" y2="707.6000000000022" stroke="#26a69a" stroke-width="2"/><rect x="244" y="644.399999999996" width="8" height="43.200000000006185" fill="#26a69a"/><line x1="260" y1="631.5999999999985" x2="260" y2="717.2000000000025" stroke="#ef5350" stroke-width="2"/><rect x="256" y="646.8000000000029" width="8" height="56.799999999993815" fill="#ef5350"/><line x1="272" y1="693.1999999999971" x2="272" y2="782.7999999999975" stroke="#ef5350" stroke-width="2"/><rect x="268" y="702.7999999999975" width="8" height="73.60000000000582" fill="#ef5350"/><line x1="284" y1="643.5999999999967" x2="284" y2="786.0000000000036" stroke="#26a69a" stroke-width="2"/><rect x="280" y="646.0000000000036" width="8" height="131.99999999999818" fill="#26a69a"/><line x1="296" y1="644.399999999996" x2="296" y2="683.5999999999967" stroke="#ef5350" stroke-width="2"/><rect x="292" y="646.0000000000036" width="8" height="17.599999999993088" fill="#ef5350"/><line x1="308" y1="661.9999999999982" x2="308" y2="741.1999999999989" stroke="#ef5350" stroke-width="2"/><rect x="304" y="661.9999999999982" width="8" height="69.60000000000036" fill="#ef5350"/><line x1="320" y1="685.2000000000044" x2="320" y2="753.9999999999964" stroke="#ef5350" stroke-width="2"/><rect x="316" y="722.7999999999975" width="8" height="18.400000000001455" fill="#ef5350"/><line x1="332" y1="715.600000000004" x2="332" y2="781.1999999999989" stroke="#26a69a" stroke-width="2"/><rect x="328" y="728.4000000000015" width="8" height="14.399999999995998" fill="#26a69a"/><line x1="344" y1="675.600000000004" x2="344" y2="747.6000000000022" stroke="#ef5350" stroke-width="2"/><rect x="340" y="726.8000000000029" width="8" height="12.799999999997453" fill="#ef5350"/><line x1="356" y1="707.6000000000022" x2="356" y2="766.8000000000029" stroke="#ef5350" stroke-width="2"/><rect x="352" y="736.4000000000033" width="8" height="25.599999999994907" fill="#ef5350"/><line x1="368" y1="745.600000000004" x2="368" y2="790.0" stroke="#ef5350" stroke-width="2"/><rect x="364" y="765.2000000000044" width="8" height="11.999999999998181" fill="#ef5350"/><line x1="380" y1="742.7999999999975" x2="380" y2="840.3999999999996" stroke="#26a69a" stroke-width="2"/><rect x="376" y="761.1999999999989" width="8" height="16.80000000000291" fill="#26a69a"/><line x1="392" y1="709.2000000000007" x2="392" y2="763.9999999999964" stroke="#26a69a" stroke-width="2"/><rect x="388" y="718.0000000000018" width="8" height="44.799999999995634" fill="#26a69a"/><line x1="404" y1="659.6000000000004" x2="404" y2="715.600000000004" stroke="#26a69a" stroke-width="2"/><rect x="400" y="679.6000000000004" width="8" height="35.19999999999527" fill="#26a69a"/><line x1="416" y1="673.9999999999964" x2="416" y2="747.6000000000022" stroke="#ef5350" stroke-width="2"/><rect x="412" y="678.8000000000011" width="8" height="50.399999999999636" fill="#ef5350"/><line x1="428" y1="668.4000000000015" x2="428" y2="741.9999999999982" stroke="#26a69a" stroke-width="2"/><rect x="424" y="675.600000000004" width="8" height="51.99999999999818" fill="#26a69a"/><line x1="440" y1="669.2000000000007" x2="440" y2="726.0000000000036" stroke="#ef5350" stroke-width="2"/><rect x="436" y="673.9999999999964" width="8" height="41.60000000000764" fill="#ef5350"/><line x1="452" y1="703.5999999999967" x2="452" y2="738.0000000000018" stroke="#ef5350" stroke-width="2"/><rect x="448" y="717.2000000000025" width="8" height="3.1999999999970896" fill="#ef5350"/><line x1="464" y1="706.8000000000029" x2="464" y2="743.5999999999967" stroke="#26a69a" stroke-width="2"/><rect x="460" y="712.3999999999978" width="8" height="11.199999999998909" fill="#26a69a"/><line x1="476" y1="670.0" x2="476" y2="726.8000000000029" stroke="#26a69a" stroke-width="2"/><rect x="472" y="670.0" width="8" height="43.19999999999709" fill="#26a69a"/><line x1="488" y1="657.2000000000025" x2="488" y2="706.0000000000036" stroke="#ef5350" stroke-width="2"/><rect x="484" y="670.0" width="8" height="36.00000000000364" fill="#ef5350"/><line x1="500" y1="706.8000000000029" x2="500" y2="759.6000000000004" stroke="#ef5350" stroke-width="2"/><rect x="496" y="707.6000000000022" width="8" height="32.79999999999745" fill="#ef5350"/><line x1="512" y1="681.1999999999989" x2="512" y2="742.7999999999975" stroke="#26a69a" stroke-width="2"/><rect x="508" y="690.7999999999993" width="8" height="48.00000000000182" fill="#26a69a"/><line x1="524" y1="679.6000000000004" x2="524" y2="700.3999999999996" stroke="#26a69a" stroke-width="2"/><rect x="520" y="684.399999999996" width="8" height="8.000000000001819" fill="#26a69a"/><line x1="536" y1="656.4000000000033" x2="536" y2="693.1999999999971" stroke="#26a69a" stroke-width="2"/><rect x="532" y="670.0" width="8" height="16.000000000003638" fill="#26a69a"/><line x1="548" y1="639.6000000000004" x2="548" y2="668.4000000000015" stroke="#26a69a" stroke-width="2"/><rect x="544" y="646.0000000000036" width="8" height="20.0" fill="#26a69a"/><line x1="560" y1="610.7999999999993" x2="560" y2="645.2000000000044" stroke="#26a69a" stroke-width="2"/><rect x="556" y="623.5999999999967" width="8" height="21.60000000000764" fill="#26a69a"/><line x1="572" y1="618.8000000000011" x2="572" y2="662.7999999999975" stroke="#ef5350" stroke-width="2"/><rect x="568" y="622.7999999999975" width="8" height="34.40000000000509" fill="#ef5350"/><line x1="584" y1="649.2000000000007" x2="584" y2="693.1999999999971" stroke="#ef5350" stroke-width="2"/><rect x="580" y="656.4000000000033" width="8" height="18.39999999999236" fill="#ef5350"/><line x1="596" y1="678.8000000000011" x2="596" y2="723.5999999999967" stroke="#ef5350" stroke-width="2"/><rect x="592" y="678.8000000000011" width="8" height="31.19999999999891" fill="#ef5350"/><line x1="608" y1="707.6000000000022" x2="608" y2="770.7999999999993" stroke="#ef5350" stroke-width="2"/><rect x="604" y="709.2000000000007" width="8" height="50.399999999999636" fill="#ef5350"/><line x1="620" y1="690.0" x2="620" y2="773.1999999999971" stroke="#26a69a" stroke-width="2"/><rect x="616" y="690.0" width="8" height="70.39999999999964" fill="#26a69a"/><line x1="632" y1="678.0000000000018" x2="632" y2="732.3999999999978" stroke="#ef5350" stroke-width="2"/><rect x="628" y="687.6000000000022" width="8" height="31.99999999999818" fill="#ef5350"/><line x1="644" y1="687.6000000000022" x2="644" y2="731.5999999999985" stroke="#26a69a" stroke-width="2"/><rect x="640" y="698.8000000000011" width="8" height="20.799999999999272" fill="#26a69a"/><line x1="656" y1="690.7999999999993" x2="656" y2="718.0000000000018" stroke="#ef5350" stroke-width="2"/><rect x="652" y="698.0000000000018" width="8" height="16.799999999993815" fill="#ef5350"/><line x1="668" y1="683.9999999999964" x2="668" y2="717.2000000000025" stroke="#26a69a" stroke-width="2"/><rect x="664" y="701.9999999999982" width="8" height="11.999999999998181" fill="#26a69a"/><line x1="680" y1="686.8000000000029" x2="680" y2="708.4000000000015" stroke="#26a69a" stroke-width="2"/><rect x="676" y="693.9999999999964" width="8" height="8.800000000001091" fill="#26a69a"/><line x1="692" y1="664.399999999996" x2="692" y2="711.5999999999985" stroke="#26a69a" stroke-width="2"/><rect x="688" y="681.9999999999982" width="8" height="13.60000000000582" fill="#26a69a"/><line x1="704" y1="675.600000000004" x2="704" y2="742.7999999999975" stroke="#ef5350" stroke-width="2"/><rect x="700" y="681.1999999999989" width="8" height="61.599999999998545" fill="#ef5350"/><line x1="716" y1="731.5999999999985" x2="716" y2="764.399999999996" stroke="#ef5350" stroke-width="2"/><rect x="712" y="743.5999999999967" width="8" height="7.200000000002547" fill="#ef5350"/><line x1="728" y1="701.1999999999989" x2="728" y2="760.3999999999996" stroke="#26a69a" stroke-width="2"/><rect x="724" y="718.8000000000011" width="8" height="32.79999999999745" fill="#26a69a"/><line x1="740" y1="702.7999999999975" x2="740" y2="736.4000000000033" stroke="#ef5350" stroke-width="2"/><rect x="736" y="721.1999999999989" width="8" height="15.200000000004366" fill="#ef5350"/><line x1="752" y1="733.1999999999971" x2="752" y2="784.399999999996" stroke="#ef5350" stroke-width="2"/><rect x="748" y="736.4000000000033" width="8" height="47.19999999999345" fill="#ef5350"/><line x1="764" y1="749.2000000000007" x2="764" y2="817.2000000000025" stroke="#26a69a" stroke-width="2"/><rect x="760" y="750.7999999999993" width="8" height="32.79999999999745" fill="#26a69a"/><line x1="776" y1="718.8000000000011" x2="776" y2="770.7999999999993" stroke="#ef5350" stroke-width="2"/><rect x="772" y="750.0" width="8" height="11.999999999998181" fill="#ef5350"/><line x1="788" y1="757.2000000000025" x2="788" y2="773.1999999999971" stroke="#26a69a" stroke-width="2"/><rect x="784" y="759.6000000000004" width="8" height="2" fill="#26a69a"/><line x1="800" y1="725.2000000000044" x2="800" y2="761.9999999999982" stroke="#26a69a" stroke-width="2"/><rect x="796" y="744.399999999996" width="8" height="15.200000000004366" fill="#26a69a"/><line x1="812" y1="741.1999999999989" x2="812" y2="773.1999999999971" stroke="#ef5350" stroke-width="2"/><rect x="808" y="743.5999999999967" width="8" height="28.00000000000182" fill="#ef5350"/><line x1="824" y1="755.600000000004" x2="824" y2="786.8000000000029" stroke="#ef5350" stroke-width="2"/><rect x="820" y="770.7999999999993" width="8" height="2.399999999997817" fill="#ef5350"/><line x1="836" y1="758.0000000000018" x2="836" y2="778.8000000000011" stroke="#26a69a" stroke-width="2"/><rect x="832" y="758.0000000000018" width="8" height="15.999999999994543" fill="#26a69a"/><line x1="848" y1="723.5999999999967" x2="848" y2="762.7999999999975" stroke="#26a69a" stroke-width="2"/><rect x="844" y="745.2000000000044" width="8" height="10.799999999999272" fill="#26a69a"/><line x1="860" y1="746.0000000000036" x2="860" y2="778.8000000000011" stroke="#ef5350" stroke-width="2"/><rect x="856" y="746.8000000000029" width="8" height="2" fill="#ef5350"/><line x1="872" y1="727.6000000000022" x2="872" y2="759.6000000000004" stroke="#26a69a" stroke-width="2"/><rect x="868" y="737.2000000000025" width="8" height="11.199999999998909" fill="#26a69a"/><line x1="884" y1="735.600000000004" x2="884" y2="762.7999999999975" stroke="#26a69a" stroke-width="2"/><rect x="880" y="738.0000000000018" width="8" height="2" fill="#26a69a"/><line x1="896" y1="704.399999999996" x2="896" y2="738.0000000000018" stroke="#26a69a" stroke-width="2"/><rect x="892" y="707.6000000000022" width="8" height="30.399999999999636" fill="#26a69a"/><line x1="908" y1="699.6000000000004" x2="908" y2="734.7999999999956" stroke="#ef5350" stroke-width="2"/><rect x="904" y="706.8000000000029" width="8" height="21.599999999998545" fill="#ef5350"/><line x1="920" y1="700.3999999999996" x2="920" y2="736.4000000000033" stroke="#26a69a" stroke-width="2"/><rect x="916" y="711.5999999999985" width="8" height="15.200000000004366" fill="#26a69a"/><line x1="932" y1="652.3999999999978" x2="932" y2="705.2000000000044" stroke="#26a69a" stroke-width="2"/><rect x="928" y="668.4000000000015" width="8" height="36.80000000000291" fill="#26a69a"/><line x1="944" y1="635.2000000000044" x2="944" y2="670.7999999999993" stroke="#26a69a" stroke-width="2"/><rect x="940" y="635.2000000000044" width="8" height="32.39999999999782" fill="#26a69a"/><line x1="956" y1="622.7999999999975" x2="956" y2="658.0000000000018" stroke="#ef5350" stroke-width="2"/><rect x="952" y="634.7999999999956" width="8" height="20.800000000008367" fill="#ef5350"/><line x1="968" y1="646.0000000000036" x2="968" y2="685.2000000000044" stroke="#ef5350" stroke-width="2"/><rect x="964" y="653.9999999999964" width="8" height="6.400000000003274" fill="#ef5350"/><line x1="980" y1="637.2000000000025" x2="980" y2="667.6000000000022" stroke="#26a69a" stroke-width="2"/><rect x="976" y="646.0000000000036" width="8" height="14.399999999995998" fill="#26a69a"/><line x1="992" y1="626.8000000000029" x2="992" y2="677.2000000000025" stroke="#26a69a" stroke-width="2"/><rect x="988" y="638.0000000000018" width="8" height="9.600000000000364" fill="#26a69a"/><line x1="1004" y1="622.7999999999975" x2="1004" y2="660.3999999999996" stroke="#ef5350" stroke-width="2"/><rect x="1000" y="638.8000000000011" width="8" height="16.80000000000291" fill="#ef5350"/><line x1="1016" y1="577.2000000000025" x2="1016" y2="702.7999999999975" stroke="#ef5350" stroke-width="2"/><rect x="1012" y="577.2000000000025" width="8" height="72.79999999999745" fill="#ef5350"/><line x1="1028" y1="430.0" x2="1028" y2="654.7999999999956" stroke="#26a69a" stroke-width="2"/><rect x="1024" y="497.20000000000255" width="8" height="151.99999999999818" fill="#26a69a"/><line x1="1040" y1="455.600000000004" x2="1040" y2="539.6000000000004" stroke="#ef5350" stroke-width="2"/><rect x="1036" y="495.600000000004" width="8" height="6.399999999994179" fill="#ef5350"/><line x1="1052" y1="470.0" x2="1052" y2="653.1999999999971" stroke="#ef5350" stroke-width="2"/><rect x="1048" y="503.5999999999967" width="8" height="89.60000000000036" fill="#ef5350"/><line x1="1064" y1="495.600000000004" x2="1064" y2="632.3999999999978" stroke="#26a69a" stroke-width="2"/><rect x="1060" y="529.2000000000007" width="8" height="61.599999999998545" fill="#26a69a"/><line x1="1076" y1="519.6000000000004" x2="1076" y2="619.6000000000004" stroke="#ef5350" stroke-width="2"/><rect x="1072" y="536.4000000000033" width="8" height="3.1999999999970896" fill="#ef5350"/><line x1="1088" y1="488.40000000000146" x2="1088" y2="598.0000000000018" stroke="#ef5350" stroke-width="2"/><rect x="1084" y="533.9999999999964" width="8" height="48.80000000000109" fill="#ef5350"/><line x1="1100" y1="569.2000000000007" x2="1100" y2="763.5999999999967" stroke="#ef5350" stroke-width="2"/><rect x="1096" y="579.6000000000004" width="8" height="131.1999999999989" fill="#ef5350"/><line x1="1112" y1="504.399999999996" x2="1112" y2="720.3999999999996" stroke="#26a69a" stroke-width="2"/><rect x="1108" y="510.0" width="8" height="205.600000000004" fill="#26a69a"/><line x1="1124" y1="471.9999999999982" x2="1124" y2="541.1999999999989" stroke="#26a69a" stroke-width="2"/><rect x="1120" y="471.9999999999982" width="8" height="37.20000000000255" fill="#26a69a"/><line x1="1136" y1="385.20000000000437" x2="1136" y2="501.1999999999989" stroke="#26a69a" stroke-width="2"/><rect x="1132" y="413.9999999999963" width="8" height="56.80000000000297" fill="#26a69a"/><line x1="1148" y1="298.0000000000018" x2="1148" y2="415.60000000000394" stroke="#26a69a" stroke-width="2"/><rect x="1144" y="313.99999999999636" width="8" height="98.40000000000146" fill="#26a69a"/><line x1="1160" y1="263.5999999999967" x2="1160" y2="354.79999999999563" stroke="#26a69a" stroke-width="2"/><rect x="1156" y="296.4000000000033" width="8" height="12.799999999997453" fill="#26a69a"/><line x1="1172" y1="283.5999999999967" x2="1172" y2="333.99999999999636" stroke="#ef5350" stroke-width="2"/><rect x="1168" y="288.40000000000146" width="8" height="43.99999999999636" fill="#ef5350"/><line x1="1184" y1="323.5999999999967" x2="1184" y2="450.7999999999993" stroke="#ef5350" stroke-width="2"/><rect x="1180" y="333.99999999999636" width="8" height="114.40000000000504" fill="#ef5350"/><line x1="1196" y1="413.9999999999963" x2="1196" y2="486.00000000000364" stroke="#ef5350" stroke-width="2"/><rect x="1192" y="449.2000000000007" width="8" height="16.000000000003638" fill="#ef5350"/><line x1="1208" y1="396.4000000000032" x2="1208" y2="470.7999999999993" stroke="#26a69a" stroke-width="2"/><rect x="1204" y="458.0000000000018" width="8" height="8.000000000001819" fill="#26a69a"/><line x1="1220" y1="383.5999999999967" x2="1220" y2="480.39999999999964" stroke="#26a69a" stroke-width="2"/><rect x="1216" y="388.40000000000146" width="8" height="71.19999999999891" fill="#26a69a"/><line x1="1232" y1="308.40000000000146" x2="1232" y2="388.40000000000146" stroke="#26a69a" stroke-width="2"/><rect x="1228" y="334.79999999999563" width="8" height="52.80000000000655" fill="#26a69a"/><line x1="1244" y1="244.399999999996" x2="1244" y2="343.5999999999967" stroke="#26a69a" stroke-width="2"/><rect x="1240" y="250.79999999999927" width="8" height="81.59999999999854" fill="#26a69a"/><line x1="1256" y1="220.39999999999964" x2="1256" y2="294.79999999999563" stroke="#26a69a" stroke-width="2"/><rect x="1252" y="238.40000000000146" width="8" height="12.399999999997817" fill="#26a69a"/><line x1="1268" y1="232.39999999999782" x2="1268" y2="268.40000000000146" stroke="#ef5350" stroke-width="2"/><rect x="1264" y="240.39999999999964" width="8" height="8.000000000001819" fill="#ef5350"/><line x1="1280" y1="239.60000000000036" x2="1280" y2="274.79999999999563" stroke="#ef5350" stroke-width="2"/><rect x="1276" y="249.12000000000262" width="8" height="10.479999999997744" fill="#ef5350"/><line x1="1292" y1="259.60000000000036" x2="1292" y2="300.39999999999964" stroke="#ef5350" stroke-width="2"/><rect x="1288" y="261.1999999999989" width="8" height="31.19999999999891" fill="#ef5350"/><line x1="1304" y1="267.6000000000022" x2="1304" y2="317.20000000000255" stroke="#ef5350" stroke-width="2"/><rect x="1300" y="292.3999999999978" width="8" height="15.200000000004366" fill="#ef5350"/><line x1="1316" y1="286.8000000000029" x2="1316" y2="327.6000000000022" stroke="#26a69a" stroke-width="2"/><rect x="1312" y="288.40000000000146" width="8" height="17.600000000002183" fill="#26a69a"/><line x1="1328" y1="268.40000000000146" x2="1328" y2="313.1999999999971" stroke="#26a69a" stroke-width="2"/><rect x="1324" y="285.20000000000437" width="8" height="2.399999999997817" fill="#26a69a"/><line x1="1340" y1="223.59999999999673" x2="1340" y2="283.5999999999967" stroke="#26a69a" stroke-width="2"/><rect x="1336" y="229.20000000000073" width="8" height="54.399999999996" fill="#26a69a"/><line x1="1352" y1="190.0" x2="1352" y2="229.20000000000073" stroke="#26a69a" stroke-width="2"/><rect x="1348" y="193.59999999999673" width="8" height="34.80000000000473" fill="#26a69a"/><line x1="1364" y1="183.59999999999673" x2="1364" y2="210.79999999999927" stroke="#ef5350" stroke-width="2"/><rect x="1360" y="193.99999999999636" width="8" height="9.200000000000728" fill="#ef5350"/><line x1="1376" y1="173.1999999999971" x2="1376" y2="224.399999999996" stroke="#26a69a" stroke-width="2"/><rect x="1372" y="178.8000000000011" width="8" height="24.799999999995634" fill="#26a69a"/><line x1="1388" y1="173.99999999999636" x2="1388" y2="193.99999999999636" stroke="#ef5350" stroke-width="2"/><rect x="1384" y="176.40000000000327" width="8" height="7.199999999993452" fill="#ef5350"/><line x1="1400" y1="181.99999999999818" x2="1400" y2="216.40000000000327" stroke="#ef5350" stroke-width="2"/><rect x="1396" y="184.399999999996" width="8" height="12.000000000007276" fill="#ef5350"/><line x1="1412" y1="196.40000000000327" x2="1412" y2="249.20000000000073" stroke="#ef5350" stroke-width="2"/><rect x="1408" y="197.20000000000255" width="8" height="51.19999999999891" fill="#ef5350"/><line x1="1424" y1="192.39999999999782" x2="1424" y2="247.60000000000218" stroke="#26a69a" stroke-width="2"/><rect x="1420" y="198.00000000000182" width="8" height="49.600000000000364" fill="#26a69a"/><line x1="1436" y1="179.60000000000036" x2="1436" y2="204.399999999996" stroke="#26a69a" stroke-width="2"/><rect x="1432" y="197.60000000000218" width="8" height="2" fill="#26a69a"/><line x1="1448" y1="173.1999999999971" x2="1448" y2="211.59999999999854" stroke="#26a69a" stroke-width="2"/><rect x="1444" y="178.00000000000182" width="8" height="20.799999999999272" fill="#26a69a"/><line x1="1460" y1="176.40000000000327" x2="1460" y2="199.60000000000036" stroke="#ef5350" stroke-width="2"/><rect x="1456" y="178.00000000000182" width="8" height="13.999999999996362" fill="#ef5350"/><line x1="1472" y1="192.39999999999782" x2="1472" y2="213.99999999999636" stroke="#ef5350" stroke-width="2"/><rect x="1468" y="193.99999999999636" width="8" height="8.800000000001091" fill="#ef5350"/><line x1="1484" y1="168.40000000000146" x2="1484" y2="210.79999999999927" stroke="#26a69a" stroke-width="2"/><rect x="1480" y="185.20000000000437" width="8" height="16.799999999993815" fill="#26a69a"/><line x1="1496" y1="159.60000000000036" x2="1496" y2="186.8000000000029" stroke="#26a69a" stroke-width="2"/><rect x="1492" y="180.39999999999964" width="8" height="2" fill="#26a69a"/><line x1="1508" y1="155.600000000004" x2="1508" y2="189.20000000000073" stroke="#26a69a" stroke-width="2"/><rect x="1504" y="178.00000000000182" width="8" height="3.1999999999970896" fill="#26a69a"/><line x1="1520" y1="178.00000000000182" x2="1520" y2="211.59999999999854" stroke="#ef5350" stroke-width="2"/><rect x="1516" y="178.00000000000182" width="8" height="28.80000000000109" fill="#ef5350"/><line x1="1532" y1="184.399999999996" x2="1532" y2="241.1999999999989" stroke="#ef5350" stroke-width="2"/><rect x="1528" y="206.00000000000364" width="8" height="33.19999999999709" fill="#ef5350"/><line x1="1544" y1="224.399999999996" x2="1544" y2="246.8000000000029" stroke="#26a69a" stroke-width="2"/><rect x="1540" y="237.20000000000255" width="8" height="2" fill="#26a69a"/><line x1="1556" y1="225.20000000000437" x2="1556" y2="246.8000000000029" stroke="#26a69a" stroke-width="2"/><rect x="1552" y="235.600000000004" width="8" height="2" fill="#26a69a"/><line x1="1568" y1="226.8000000000029" x2="1568" y2="245.20000000000437" stroke="#ef5350" stroke-width="2"/><rect x="1564" y="236.40000000000327" width="8" height="2.399999999997817" fill="#ef5350"/><line x1="1580" y1="203.59999999999673" x2="1580" y2="254.79999999999563" stroke="#26a69a" stroke-width="2"/><rect x="1576" y="204.399999999996" width="8" height="34.40000000000509" fill="#26a69a"/><line x1="1592" y1="166.8000000000029" x2="1592" y2="206.8000000000029" stroke="#26a69a" stroke-width="2"/><rect x="1588" y="171.59999999999854" width="8" height="33.60000000000582" fill="#26a69a"/><line x1="1604" y1="121.99999999999818" x2="1604" y2="173.1999999999971" stroke="#26a69a" stroke-width="2"/><rect x="1600" y="126.00000000000364" width="8" height="46.39999999999418" fill="#26a69a"/><line x1="1616" y1="108.40000000000146" x2="1616" y2="148.40000000000146" stroke="#ef5350" stroke-width="2"/><rect x="1612" y="124.399999999996" width="8" height="21.60000000000764" fill="#ef5350"/><line x1="1628" y1="121.19999999999891" x2="1628" y2="150.79999999999927" stroke="#26a69a" stroke-width="2"/><rect x="1624" y="126.00000000000364" width="8" height="20.0" fill="#26a69a"/><line x1="1640" y1="114.79999999999563" x2="1640" y2="135.600000000004" stroke="#26a69a" stroke-width="2"/><rect x="1636" y="117.60000000000218" width="8" height="7.600000000002183" fill="#26a69a"/><line x1="1652" y1="93.19999999999709" x2="1652" y2="122.79999999999745" stroke="#26a69a" stroke-width="2"/><rect x="1648" y="104.399999999996" width="8" height="12.800000000006548" fill="#26a69a"/><line x1="1664" y1="103.59999999999673" x2="1664" y2="123.59999999999673" stroke="#ef5350" stroke-width="2"/><rect x="1660" y="104.399999999996" width="8" height="8.800000000001091" fill="#ef5350"/><line x1="1676" y1="110.79999999999927" x2="1676" y2="129.20000000000073" stroke="#ef5350" stroke-width="2"/><rect x="1672" y="113.99999999999636" width="8" height="2" fill="#ef5350"/><line x1="1688" y1="106.00000000000364" x2="1688" y2="125.20000000000437" stroke="#ef5350" stroke-width="2"/><rect x="1684" y="115.600000000004" width="8" height="2.399999999997817" fill="#ef5350"/><line x1="1700" y1="95.20000000000437" x2="1700" y2="118.80000000000109" stroke="#26a69a" stroke-width="2"/><rect x="1696" y="101.19999999999891" width="8" height="17.600000000002183" fill="#26a69a"/><line x1="1712" y1="98.80000000000109" x2="1712" y2="110.0" stroke="#ef5350" stroke-width="2"/><rect x="1708" y="100.39999999999964" width="8" height="2.399999999997817" fill="#ef5350"/><line x1="1724" y1="100.39999999999964" x2="1724" y2="113.19999999999709" stroke="#ef5350" stroke-width="2"/><rect x="1720" y="102.79999999999745" width="8" height="7.200000000002547" fill="#ef5350"/><line x1="1736" y1="105.600000000004" x2="1736" y2="121.19999999999891" stroke="#ef5350" stroke-width="2"/><rect x="1732" y="109.20000000000073" width="8" height="10.399999999999636" fill="#ef5350"/><line x1="1748" y1="103.59999999999673" x2="1748" y2="121.99999999999818" stroke="#26a69a" stroke-width="2"/><rect x="1744" y="108.40000000000146" width="8" height="11.199999999998909" fill="#26a69a"/><line x1="1760" y1="100.39999999999964" x2="1760" y2="114.79999999999563" stroke="#26a69a" stroke-width="2"/><rect x="1756" y="103.59999999999673" width="8" height="4.000000000005457" fill="#26a69a"/><line x1="1772" y1="88.00000000000182" x2="1772" y2="110.79999999999927" stroke="#26a69a" stroke-width="2"/><rect x="1768" y="98.00000000000182" width="8" height="5.599999999994907" fill="#26a69a"/><line x1="1784" y1="83.59999999999673" x2="1784" y2="99.60000000000036" stroke="#ef5350" stroke-width="2"/><rect x="1780" y="98.00000000000182" width="8" height="2" fill="#ef5350"/><line x1="1796" y1="99.60000000000036" x2="1796" y2="120.39999999999964" stroke="#ef5350" stroke-width="2"/><rect x="1792" y="99.60000000000036" width="8" height="19.200000000000728" fill="#ef5350"/><line x1="1808" y1="87.60000000000218" x2="1808" y2="127.60000000000218" stroke="#26a69a" stroke-width="2"/><rect x="1804" y="99.60000000000036" width="8" height="19.200000000000728" fill="#26a69a"/><line x1="1820" y1="80.39999999999964" x2="1820" y2="106.00000000000364" stroke="#26a69a" stroke-width="2"/><rect x="1816" y="87.60000000000218" width="8" height="11.999999999998181" fill="#26a69a"/><line x1="1832" y1="85.20000000000437" x2="1832" y2="99.60000000000036" stroke="#ef5350" stroke-width="2"/><rect x="1828" y="86.80000000000291" width="8" height="8.800000000001091" fill="#ef5350"/><line x1="1844" y1="80.39999999999964" x2="1844" y2="99.60000000000036" stroke="#26a69a" stroke-width="2"/><rect x="1840" y="85.20000000000437" width="8" height="11.999999999998181" fill="#26a69a"/><line x1="1856" y1="61.19999999999891" x2="1856" y2="88.40000000000146" stroke="#26a69a" stroke-width="2"/><rect x="1852" y="67.60000000000218" width="8" height="16.799999999993815" fill="#26a69a"/><line x1="1868" y1="59.600000000000364" x2="1868" y2="93.19999999999709" stroke="#ef5350" stroke-width="2"/><rect x="1864" y="67.60000000000218" width="8" height="25.599999999994907" fill="#ef5350"/><line x1="1880" y1="83.59999999999673" x2="1880" y2="99.60000000000036" stroke="#26a69a" stroke-width="2"/><rect x="1876" y="86.40000000000327" width="8" height="7.599999999993088" fill="#26a69a"/><line x1="1892" y1="87.60000000000218" x2="1892" y2="102.79999999999745" stroke="#ef5350" stroke-width="2"/><rect x="1888" y="87.60000000000218" width="8" height="11.999999999998181" fill="#ef5350"/><line x1="1904" y1="98.00000000000182" x2="1904" y2="116.00000000000364" stroke="#ef5350" stroke-width="2"/><rect x="1900" y="98.00000000000182" width="8" height="5.599999999994907" fill="#ef5350"/><line x1="1916" y1="97.20000000000255" x2="1916" y2="112.39999999999782" stroke="#26a69a" stroke-width="2"/><rect x="1912" y="101.59999999999854" width="8" height="2" fill="#26a69a"/><line x1="1928" y1="101.19999999999891" x2="1928" y2="138.00000000000182" stroke="#ef5350" stroke-width="2"/><rect x="1924" y="110.79999999999927" width="8" height="9.600000000000364" fill="#ef5350"/><line x1="1940" y1="117.20000000000255" x2="1940" y2="159.60000000000036" stroke="#ef5350" stroke-width="2"/><rect x="1936" y="120.39999999999964" width="8" height="39.20000000000073" fill="#ef5350"/><rect x="75" y="920.4026488185062" width="10" height="99.59735118149376" fill="#ef5350" opacity="0.9"/><rect x="87" y="935.058396252495" width="10" height="84.94160374750504" fill="#ef5350" opacity="0.9"/><rect x="99" y="876.6899152651989" width="10" height="143.31008473480108" fill="#ef5350" opacity="0.9"/><rect x="111" y="909.7170856909526" width="10" height="110.28291430904744" fill="#26a69a" opacity="0.9"/><rect x="123" y="952.0986890326639" width="10" height="67.90131096733614" fill="#26a69a" opacity="0.9"/><rect x="135" y="951.7178769887063" width="10" height="68.28212301129372" fill="#ef5350" opacity="0.9"/><rect x="147" y="927.7510658425673" width="10" height="92.2489341574327" fill="#26a69a" opacity="0.9"/><rect x="159" y="961.0608969562935" width="10" height="58.939103043706496" fill="#26a69a" opacity="0.9"/><rect x="171" y="973.5200322606007" width="10" height="46.479967739399285" fill="#26a69a" opacity="0.9"/><rect x="183" y="975.1364861814558" width="10" height="44.86351381854422" fill="#26a69a" opacity="0.9"/><rect x="195" y="993.4394314829985" width="10" height="26.560568517001457" fill="#26a69a" opacity="0.9"/><rect x="207" y="988.7209381950803" width="10" height="31.279061804919706" fill="#26a69a" opacity="0.9"/><rect x="219" y="971.254942440697" width="10" height="48.74505755930295" fill="#ef5350" opacity="0.9"/><rect x="231" y="977.8173877536527" width="10" height="42.182612246347276" fill="#ef5350" opacity="0.9"/><rect x="243" y="967.5647558009481" width="10" height="52.43524419905191" fill="#26a69a" opacity="0.9"/><rect x="255" y="985.1524896712817" width="10" height="34.84751032871827" fill="#ef5350" opacity="0.9"/><rect x="267" y="984.2892903428703" width="10" height="35.710709657129655" fill="#ef5350" opacity="0.9"/><rect x="279" y="967.1169877932176" width="10" height="52.88301220678238" fill="#26a69a" opacity="0.9"/><rect x="291" y="988.3812127652559" width="10" height="31.618787234744104" fill="#ef5350" opacity="0.9"/><rect x="303" y="998.7354199584569" width="10" height="21.264580041543127" fill="#ef5350" opacity="0.9"/><rect x="315" y="998.7605284448716" width="10" height="21.239471555128375" fill="#ef5350" opacity="0.9"/><rect x="327" y="987.7660548480936" width="10" height="32.23394515190637" fill="#26a69a" opacity="0.9"/><rect x="339" y="990.2647296779774" width="10" height="29.735270322022643" fill="#ef5350" opacity="0.9"/><rect x="351" y="993.0757388615964" width="10" height="26.924261138403608" fill="#ef5350" opacity="0.9"/><rect x="363" y="992.5648192062167" width="10" height="27.435180793783275" fill="#ef5350" opacity="0.9"/><rect x="375" y="976.9461993613821" width="10" height="43.05380063861787" fill="#26a69a" opacity="0.9"/><rect x="387" y="993.3500300540974" width="10" height="26.649969945902626" fill="#26a69a" opacity="0.9"/><rect x="399" y="977.017720504503" width="10" height="42.98227949549698" fill="#26a69a" opacity="0.9"/><rect x="411" y="987.1649729005882" width="10" height="32.83502709941183" fill="#ef5350" opacity="0.9"/><rect x="423" y="991.4452089710846" width="10" height="28.55479102891536" fill="#26a69a" opacity="0.9"/><rect x="435" y="976.9020692943501" width="10" height="43.0979307056499" fill="#ef5350" opacity="0.9"/><rect x="447" y="1000.1255170699665" width="10" height="19.874482930033537" fill="#ef5350" opacity="0.9"/><rect x="459" y="978.0486901739587" width="10" height="41.951309826041324" fill="#26a69a" opacity="0.9"/><rect x="471" y="997.165378694308" width="10" height="22.834621305692053" fill="#26a69a" opacity="0.9"/><rect x="483" y="989.8683199379136" width="10" height="30.13168006208639" fill="#ef5350" opacity="0.9"/><rect x="495" y="984.2832034370728" width="10" height="35.71679656292724" fill="#ef5350" opacity="0.9"/><rect x="507" y="999.3323171582266" width="10" height="20.6676828417734" fill="#26a69a" opacity="0.9"/><rect x="519" y="983.5386987717131" width="10" height="36.46130122828686" fill="#26a69a" opacity="0.9"/><rect x="531" y="986.7506828747441" width="10" height="33.24931712525586" fill="#26a69a" opacity="0.9"/><rect x="543" y="993.2982913548184" width="10" height="26.70170864518161" fill="#26a69a" opacity="0.9"/><rect x="555" y="967.2828559762002" width="10" height="52.71714402379985" fill="#26a69a" opacity="0.9"/><rect x="567" y="992.7341112737104" width="10" height="27.26588872628963" fill="#ef5350" opacity="0.9"/><rect x="579" y="978.4024915734398" width="10" height="41.59750842656024" fill="#ef5350" opacity="0.9"/><rect x="591" y="978.875368067585" width="10" height="41.124631932415014" fill="#ef5350" opacity="0.9"/><rect x="603" y="962.1458879147021" width="10" height="57.85411208529786" fill="#ef5350" opacity="0.9"/><rect x="615" y="982.5606090963735" width="10" height="37.43939090362653" fill="#26a69a" opacity="0.9"/><rect x="627" y="988.2385509106265" width="10" height="31.761449089373514" fill="#ef5350" opacity="0.9"/><rect x="639" y="995.8829437290921" width="10" height="24.117056270907938" fill="#26a69a" opacity="0.9"/><rect x="651" y="993.3367149476653" width="10" height="26.663285052334686" fill="#ef5350" opacity="0.9"/><rect x="663" y="998.5938993986645" width="10" height="21.406100601335538" fill="#26a69a" opacity="0.9"/><rect x="675" y="995.5793593024406" width="10" height="24.420640697559406" fill="#26a69a" opacity="0.9"/><rect x="687" y="995.9605517780105" width="10" height="24.03944822198946" fill="#26a69a" opacity="0.9"/><rect x="699" y="991.1427658392702" width="10" height="28.85723416072983" fill="#ef5350" opacity="0.9"/><rect x="711" y="973.3370446550626" width="10" height="46.66295534493736" fill="#ef5350" opacity="0.9"/><rect x="723" y="968.9228966570206" width="10" height="51.0771033429794" fill="#26a69a" opacity="0.9"/><rect x="735" y="983.3694067042195" width="10" height="36.6305932957805" fill="#ef5350" opacity="0.9"/><rect x="747" y="976.2484877843409" width="10" height="43.75151221565909" fill="#ef5350" opacity="0.9"/><rect x="759" y="971.6315697369189" width="10" height="48.36843026308111" fill="#26a69a" opacity="0.9"/><rect x="771" y="986.4079139920211" width="10" height="33.59208600797888" fill="#ef5350" opacity="0.9"/><rect x="783" y="993.7669831012278" width="10" height="26.233016898772235" fill="#26a69a" opacity="0.9"/><rect x="795" y="989.5187032861683" width="10" height="30.48129671383174" fill="#26a69a" opacity="0.9"/><rect x="807" y="994.101002056867" width="10" height="25.898997943133054" fill="#ef5350" opacity="0.9"/><rect x="819" y="991.6654788746325" width="10" height="28.334521125367473" fill="#ef5350" opacity="0.9"/><rect x="831" y="995.0840373431671" width="10" height="24.915962656832903" fill="#26a69a" opacity="0.9"/><rect x="843" y="990.7261932237521" width="10" height="29.273806776247852" fill="#26a69a" opacity="0.9"/><rect x="855" y="997.9475460892899" width="10" height="22.052453910710142" fill="#ef5350" opacity="0.9"/><rect x="867" y="998.6346055811854" width="10" height="21.365394418814617" fill="#26a69a" opacity="0.9"/><rect x="879" y="994.8417024061032" width="10" height="25.158297593896805" fill="#26a69a" opacity="0.9"/><rect x="891" y="985.5013454598023" width="10" height="34.49865454019766" fill="#26a69a" opacity="0.9"/><rect x="903" y="986.5966080717443" width="10" height="33.4033919282557" fill="#ef5350" opacity="0.9"/><rect x="915" y="993.4261163765664" width="10" height="26.57388362343363" fill="#26a69a" opacity="0.9"/><rect x="927" y="951.3747276743709" width="10" height="68.62527232562911" fill="#26a69a" opacity="0.9"/><rect x="939" y="981.5003461927672" width="10" height="38.49965380723279" fill="#26a69a" opacity="0.9"/><rect x="951" y="969.5281633522619" width="10" height="50.47183664773809" fill="#ef5350" opacity="0.9"/><rect x="963" y="974.5700235106736" width="10" height="45.42997648932635" fill="#ef5350" opacity="0.9"/><rect x="975" y="978.7231954226469" width="10" height="41.27680457735312" fill="#26a69a" opacity="0.9"/><rect x="987" y="951.0528825303268" width="10" height="68.94711746967323" fill="#26a69a" opacity="0.9"/><rect x="999" y="884.3141452082102" width="10" height="135.68585479178978" fill="#ef5350" opacity="0.9"/><rect x="1011" y="925.5742361567277" width="10" height="94.4257638432723" fill="#ef5350" opacity="0.9"/><rect x="1023" y="931.7360869818839" width="10" height="88.26391301811611" fill="#26a69a" opacity="0.9"/><rect x="1035" y="961.799695147468" width="10" height="58.200304852531985" fill="#ef5350" opacity="0.9"/><rect x="1047" y="939.4002622441915" width="10" height="80.59973775580852" fill="#ef5350" opacity="0.9"/><rect x="1059" y="967.4837238675185" width="10" height="52.516276132481494" fill="#26a69a" opacity="0.9"/><rect x="1071" y="965.6390109792563" width="10" height="54.36098902074366" fill="#ef5350" opacity="0.9"/><rect x="1083" y="947.5407378851553" width="10" height="72.4592621148447" fill="#ef5350" opacity="0.9"/><rect x="1095" y="936.0361054962223" width="10" height="83.96389450377774" fill="#ef5350" opacity="0.9"/><rect x="1107" y="947.2215557623977" width="10" height="72.77844423760234" fill="#26a69a" opacity="0.9"/><rect x="1119" y="958.0623349877882" width="10" height="61.93766501221182" fill="#26a69a" opacity="0.9"/><rect x="1131" y="967.9406222339452" width="10" height="52.05937776605481" fill="#26a69a" opacity="0.9"/><rect x="1143" y="940.6476975010715" width="10" height="79.35230249892845" fill="#26a69a" opacity="0.9"/><rect x="1155" y="956.9469095003918" width="10" height="63.053090499608174" fill="#26a69a" opacity="0.9"/><rect x="1167" y="985.3921615870593" width="10" height="34.60783841294074" fill="#ef5350" opacity="0.9"/><rect x="1179" y="979.386668154577" width="10" height="40.61333184542298" fill="#ef5350" opacity="0.9"/><rect x="1191" y="969.2599590655585" width="10" height="50.74004093444148" fill="#ef5350" opacity="0.9"/><rect x="1203" y="987.0443760794747" width="10" height="32.95562392052534" fill="#26a69a" opacity="0.9"/><rect x="1215" y="985.065751263667" width="10" height="34.93424873633296" fill="#26a69a" opacity="0.9"/><rect x="1227" y="981.2987174382242" width="10" height="38.70128256177577" fill="#26a69a" opacity="0.9"/><rect x="1239" y="976.3763128060889" width="10" height="43.62368719391111" fill="#26a69a" opacity="0.9"/><rect x="1251" y="975.0798018712163" width="10" height="44.92019812878368" fill="#26a69a" opacity="0.9"/><rect x="1263" y="993.0285653416656" width="10" height="26.971434658334374" fill="#ef5350" opacity="0.9"/><rect x="1275" y="985.2426519634075" width="10" height="34.757348036592475" fill="#ef5350" opacity="0.9"/><rect x="1287" y="980.0642168561639" width="10" height="39.93578314383615" fill="#ef5350" opacity="0.9"/><rect x="1299" y="991.5928164366746" width="10" height="28.40718356332536" fill="#ef5350" opacity="0.9"/><rect x="1311" y="997.5149953460533" width="10" height="22.485004653946703" fill="#26a69a" opacity="0.9"/><rect x="1323" y="993.8548628036796" width="10" height="26.145137196320434" fill="#26a69a" opacity="0.9"/><rect x="1335" y="982.2939265361194" width="10" height="37.70607346388056" fill="#26a69a" opacity="0.9"/><rect x="1347" y="950.8645688822158" width="10" height="69.13543111778415" fill="#26a69a" opacity="0.9"/><rect x="1359" y="976.5056595542864" width="10" height="43.49434044571365" fill="#ef5350" opacity="0.9"/><rect x="1371" y="989.884298065632" width="10" height="30.115701934367962" fill="#26a69a" opacity="0.9"/><rect x="1383" y="993.793613314092" width="10" height="26.206386685908" fill="#ef5350" opacity="0.9"/><rect x="1395" y="990.3377725475476" width="10" height="29.662227452452385" fill="#ef5350" opacity="0.9"/><rect x="1407" y="994.1261105432817" width="10" height="25.873889456718302" fill="#ef5350" opacity="0.9"/><rect x="1419" y="989.1211522512675" width="10" height="30.878847748732483" fill="#26a69a" opacity="0.9"/><rect x="1431" y="993.391497099843" width="10" height="26.608502900156964" fill="#26a69a" opacity="0.9"/><rect x="1443" y="988.9313168767072" width="10" height="31.06868312329277" fill="#26a69a" opacity="0.9"/><rect x="1455" y="993.3104651664135" width="10" height="26.68953483358655" fill="#ef5350" opacity="0.9"/><rect x="1467" y="999.7865525033668" width="10" height="20.213447496633194" fill="#ef5350" opacity="0.9"/><rect x="1479" y="982.619575996287" width="10" height="37.38042400371296" fill="#26a69a" opacity="0.9"/><rect x="1491" y="984.4368978084603" width="10" height="35.563102191539656" fill="#26a69a" opacity="0.9"/><rect x="1503" y="987.6629578811481" width="10" height="32.337042118851855" fill="#26a69a" opacity="0.9"/><rect x="1515" y="968.0262193467229" width="10" height="51.97378065327712" fill="#ef5350" opacity="0.9"/><rect x="1527" y="972.5864530839054" width="10" height="47.41354691609456" fill="#ef5350" opacity="0.9"/><rect x="1539" y="982.8021831702127" width="10" height="37.19781682978726" fill="#26a69a" opacity="0.9"/><rect x="1551" y="990.5626076304436" width="10" height="29.43739236955639" fill="#26a69a" opacity="0.9"/><rect x="1563" y="995.7844119414947" width="10" height="24.21558805850532" fill="#ef5350" opacity="0.9"/><rect x="1575" y="995.3906652227173" width="10" height="24.609334777282697" fill="#26a69a" opacity="0.9"/><rect x="1587" y="986.8043237320849" width="10" height="33.19567626791513" fill="#26a69a" opacity="0.9"/><rect x="1599" y="977.8307028600849" width="10" height="42.1692971399151" fill="#26a69a" opacity="0.9"/><rect x="1611" y="990.7075520747472" width="10" height="29.29244792525276" fill="#ef5350" opacity="0.9"/><rect x="1623" y="989.8150595121853" width="10" height="30.184940487814742" fill="#26a69a" opacity="0.9"/><rect x="1635" y="985.4572153927703" width="10" height="34.54278460722969" fill="#26a69a" opacity="0.9"/><rect x="1647" y="981.74572458273" width="10" height="38.25427541727004" fill="#26a69a" opacity="0.9"/><rect x="1659" y="997.1589113568981" width="10" height="22.841088643101898" fill="#ef5350" opacity="0.9"/><rect x="1671" y="998.6684639946841" width="10" height="21.33153600531591" fill="#ef5350" opacity="0.9"/><rect x="1683" y="992.4335702999576" width="10" height="27.566429700042363" fill="#ef5350" opacity="0.9"/><rect x="1695" y="991.639609524993" width="10" height="28.360390475006966" fill="#26a69a" opacity="0.9"/><rect x="1707" y="996.550601208758" width="10" height="23.449398791241947" fill="#ef5350" opacity="0.9"/><rect x="1719" y="994.901049737629" width="10" height="25.098950262370977" fill="#ef5350" opacity="0.9"/><rect x="1731" y="994.7873006855377" width="10" height="25.21269931446227" fill="#ef5350" opacity="0.9"/><rect x="1743" y="999.3916644897524" width="10" height="20.60833551024757" fill="#26a69a" opacity="0.9"/><rect x="1755" y="997.7820583379197" width="10" height="22.217941662080307" fill="#26a69a" opacity="0.9"/><rect x="1767" y="977.1786430765251" width="10" height="42.82135692347492" fill="#26a69a" opacity="0.9"/><rect x="1779" y="972.9718303072112" width="10" height="47.028169692788765" fill="#ef5350" opacity="0.9"/><rect x="1791" y="993.0304674997274" width="10" height="26.969532500272635" fill="#ef5350" opacity="0.9"/><rect x="1803" y="984.2603775403321" width="10" height="35.739622459667885" fill="#26a69a" opacity="0.9"/><rect x="1815" y="986.1062317234313" width="10" height="33.89376827656872" fill="#26a69a" opacity="0.9"/><rect x="1827" y="972.3756939706661" width="10" height="47.624306029333866" fill="#ef5350" opacity="0.9"/><rect x="1839" y="981.8442563703273" width="10" height="38.155743629672656" fill="#26a69a" opacity="0.9"/><rect x="1851" y="973.8631815749361" width="10" height="46.13681842506389" fill="#26a69a" opacity="0.9"/><rect x="1863" y="977.8641808419712" width="10" height="42.13581915802877" fill="#ef5350" opacity="0.9"/><rect x="1875" y="982.3209371805959" width="10" height="37.679062819404066" fill="#26a69a" opacity="0.9"/><rect x="1887" y="984.4981472980479" width="10" height="35.50185270195209" fill="#ef5350" opacity="0.9"/><rect x="1899" y="920.8047650327552" width="10" height="99.1952349672448" fill="#ef5350" opacity="0.9"/><rect x="1911" y="930.7351714098035" width="10" height="89.26482859019654" fill="#26a69a" opacity="0.9"/><rect x="1923" y="914.5139478910139" width="10" height="105.48605210898609" fill="#ef5350" opacity="0.9"/><rect x="1935" y="860.0" width="10" height="160.0" fill="#ef5350" opacity="0.9"/><rect x="1004" y="577.2000000000025" width="12" height="78.40000000000146" fill="#00ff00" opacity="0.60"/><polyline points="320,693.4285714285761,332,696.7591836734755,344,700.8392614188597,356,706.6640936646854,368,713.3817990299576,380,717.9359134080551,392,717.9420168930028,404,714.290396236529,416,715.7103584997094,428,711.890324356882,440,712.2436267990815,452,713.020424246788,464,712.9613362232794,476,708.8697803924879,488,708.5964679741483,500,711.6253757861341,512,709.6420066636438,524,707.2380060290106,536,703.6915292643425,548,698.1970979058315,560,691.092612390994,572,687.8647445442311,584,686.6204831590676,596,688.8471038105854,608,695.5854748762431,620,695.053524888026,632,697.3912844225015,644,697.52544781084,656,699.170643257421,668,699.4401058043331,680,698.9220004896379,692,697.3103813953912,704,701.6427260244018,716,706.3243711649375,728,707.5125262920847,740,710.2637142642652,752,717.2481224295734,764,720.4435393410404,776,724.4012974990346,788,727.7535548800824,800,729.3389306057907,812,733.3637943576196,824,737.1577187045114,836,739.1426978755044,848,739.7195837921208,860,740.5462900976363,872,740.2275958026257,884,740.0154438214213,896,736.9282586955705,908,736.1160435817146,920,733.7811822882122,932,727.5544030226683,944,718.7587455919402,956,712.7436269641385,968,707.758519634217,980,701.87675585953,992,695.793255301478,1004,691.965326225145,1016,687.968628489416,1028,669.800187680903,1040,653.8192174255801,1052,648.0459586231518,1064,636.7272958971353,1076,627.4770772402644,1088,623.2221175030918,1100,631.5628682170882,1112,619.9854521964153,1124,605.8915996062842,1136,587.6162091675906,1148,561.5575225802058,1160,536.3044251916199,1172,516.8849561257503,1184,510.3625793518677,1196,506.06138131835905,1208,501.4841069070917,1220,490.71419196356146,1232,475.8652213003643,1244,454.4304383193776,1256,433.85611086038807,1268,416.1936241117746,1280,401.2799456249468,1292,390.9104269939962,1304,382.9761006136141,1316,373.96885293613195,1328,365.5146764660276,1340,352.53232632640896,1352,337.39591429532084,1364,324.6153510290969,1376,310.72817474061594,1388,298.62072952721974,1400,288.8854219532004,1412,285.0296674814672,1424,276.74112772132503,1436,269.20387746215056,1448,260.5177938943234,1460,253.99228971391494,1472,249.11683355067908,1484,243.02951606965507,1496,237.06480025349265,1508,231.43958118173032,1520,229.09295440252208,1532,230.05553017371312,1544,230.73595587145064,1556,231.19919816940637,1568,231.92308405803487,1580,229.30183795727316,1592,223.80642481848554,1604,214.49152721672363,1616,207.96852462465722,1628,200.16199846993004,1640,192.29895099660098,1652,183.92762233025678,1664,177.19165829879785,1676,171.32578607986943,1688,166.24713978654654,1700,160.05217409258876,1712,154.59958608376837,1724,150.35200645675104,1736,147.4232439370553,1748,143.70674451447485,1760,139.8870545607133,1772,135.8978112692148,1784,132.3646863864269,1796,131.07281149248593,1808,128.07540087414964,1820,124.22060079089533,1832,121.49482928700309,1844,118.03817887871446,1856,113.23454279502585,1868,111.3264911002534,1880,108.95253956689885,1892,108.06182151291068,1904,107.636886130731,1916,107.06194459447033,1928,108.33223558547616,1940,113.21487981543214" fill="none" stroke="#0090ff" stroke-width="2"/><line x1="80" y1="50" x2="80" y2="900" stroke="#666666" stroke-width="0.5" stroke-dasharray="4,4" opacity="0.90"/><line x1="152" y1="50" x2="152" y2="900" stroke="#666666" stroke-width="0.5" stroke-dasharray="4,4" opacity="0.90"/><line x1="224" y1="50" x2="224" y2="900" stroke="#666666" stroke-width="0.5" stroke-dasharray="4,4" opacity="0.90"/><line x1="296" y1="50" x2="296" y2="900" stroke="#666666" stroke-width="0.5" stroke-dasharray="4,4" opacity="0.90"/><line x1="368" y1="50" x2="368" y2="900" stroke="#666666" stroke-width="0.5" stroke-dasharray="4,4" opacity="0.90"/><line x1="440" y1="50" x2="440" y2="900" stroke="#666666" stroke-width="0.5" stroke-dasharray="4,4" opacity="0.90"/><line x1="512" y1="50" x2="512" y2="900" stroke="#666666" stroke-width="0.5" stroke-dasharray="4,4" opacity="0.90"/><line x1="584" y1="50" x2="584" y2="900" stroke="#666666" stroke-width="0.5" stroke-dasharray="4,4" opacity="0.90"/><line x1="656" y1="50" x2="656" y2="900" stroke="#666666" stroke-width="0.5" stroke-dasharray="4,4" opacity="0.90"/><line x1="728" y1="50" x2="728" y2="900" stroke="#666666" stroke-width="0.5" stroke-dasharray="4,4" opacity="0.90"/><line x1="800" y1="50" x2="800" y2="900" stroke="#666666" stroke-width="0.5" stroke-dasharray="4,4" opacity="0.90"/><line x1="872" y1="50" x2="872" y2="900" stroke="#666666" stroke-width="0.5" stroke-dasharray="4,4" opacity="0.90"/><line x1="944" y1="50" x2="944" y2="900" stroke="#666666" stroke-width="0.5" stroke-dasharray="4,4" opacity="0.90"/><line x1="1010" y1="30" x2="1010" y2="950" stroke="black" stroke-width="0.7"/><line x1="1016" y1="50" x2="1016" y2="900" stroke="#666666" stroke-width="0.5" stroke-dasharray="4,4" opacity="0.90"/><line x1="1088" y1="50" x2="1088" y2="900" stroke="#666666" stroke-width="0.5" stroke-dasharray="4,4" opacity="0.90"/><line x1="1160" y1="50" x2="1160" y2="900" stroke="#666666" stroke-width="0.5" stroke-dasharray="4,4" opacity="0.90"/><line x1="1232" y1="50" x2="1232" y2="900" stroke="#666666" stroke-width="0.5" stroke-dasharray="4,4" opacity="0.90"/><line x1="1304" y1="50" x2="1304" y2="900" stroke="#666666" stroke-width="0.5" stroke-dasharray="4,4" opacity="0.90"/><line x1="1376" y1="50" x2="1376" y2="900" stroke="#666666" stroke-width="0.5" stroke-dasharray="4,4" opacity="0.90"/><line x1="1448" y1="50" x2="1448" y2="900" stroke="#666666" stroke-width="0.5" stroke-dasharray="4,4" opacity="0.90"/><line x1="1520" y1="50" x2="1520" y2="900" stroke="#666666" stroke-width="0.5" stroke-dasharray="4,4" opacity="0.90"/><line x1="1592" y1="50" x2="1592" y2="900" stroke="#666666" stroke-width="0.5" stroke-dasharray="4,4" opacity="0.90"/><line x1="1664" y1="50" x2="1664" y2="900" stroke="#666666" stroke-width="0.5" stroke-dasharray="4,4" opacity="0.90"/><line x1="1736" y1="50" x2="1736" y2="900" stroke="#666666" stroke-width="0.5" stroke-dasharray="4,4" opacity="0.90"/><line x1="1808" y1="50" x2="1808" y2="900" stroke="#666666" stroke-width="0.5" stroke-dasharray="4,4" opacity="0.90"/><line x1="1880" y1="50" x2="1880" y2="900" stroke="#666666" stroke-width="0.5" stroke-dasharray="4,4" opacity="0.90"/><line x1="1946" y1="30" x2="1946" y2="950" stroke="black" stroke-width="0.7"/><text x="80" y="1040" text-anchor="middle" font-size="20" fill="black">09:30</text><text x="152" y="1040" text-anchor="middle" font-size="20" fill="black">10:00</text><text x="224" y="1040" text-anchor="middle" font-size="20" fill="black">10:30</text><text x="296" y="1040" text-anchor="middle" font-size="20" fill="black">11:00</text><text x="368" y="1040" text-anchor="middle" font-size="20" fill="black">11:30</text><text x="440" y="1040" text-anchor="middle" font-size="20" fill="black">12:00</text><text x="512" y="1040" text-anchor="middle" font-size="20" fill="black">12:30</text><text x="584" y="1040" text-anchor="middle" font-size="20" fill="black">13:00</text><text x="656" y="1040" text-anchor="middle" font-size="20" fill="black">13:30</text><text x="728" y="1040" text-anchor="middle" font-size="20" fill="black">14:00</text><text x="800" y="1040" text-anchor="middle" font-size="20" fill="black">14:30</text><text x="872" y="1040" text-anchor="middle" font-size="20" fill="black">15:00</text><text x="944" y="1040" text-anchor="middle" font-size="20" fill="black">15:30</text><text x="1016" y="1040" text-anchor="middle" font-size="20" fill="black">09:30</text><text x="1088" y="1040" text-anchor="middle" font-size="20" fill="black">10:00</text><text x="1160" y="1040" text-anchor="middle" font-size="20" fill="black">10:30</text><text x="1232" y="1040" text-anchor="middle" font-size="20" fill="black">11:00</text><text x="1304" y="1040" text-anchor="middle" font-size="20" fill="black">11:30</text><text x="1376" y="1040" text-anchor="middle" font-size="20" fill="black">12:00</text><text x="1448" y="1040" text-anchor="middle" font-size="20" fill="black">12:30</text><text x="1520" y="1040" text-anchor="middle" font-size="20" fill="black">13:00</text><text x="1592" y="1040" text-anchor="middle" font-size="20" fill="black">13:30</text><text x="1664" y="1040" text-anchor="middle" font-size="20" fill="black">14:00</text><text x="1736" y="1040" text-anchor="middle" font-size="20" fill="black">14:30</text><text x="1808" y="1040" text-anchor="middle" font-size="20" fill="black">15:00</text><text x="1880" y="1040" text-anchor="middle" font-size="20" fill="black">15:30</text><text x="1942" y="50" text-anchor="end" font-size="40" fill="#26a69a" font-weight="bold"> +0.84% (Fri)</text></svg>