<svg xmlns="http://www.w3.org/2000/svg" width="1056" height="1050"><rect width="100%" height="100%" fill="white"/><text x="42" y="854.0" text-anchor="end" font-size="20" fill="black">251</text><text x="42" y="654.0" text-anchor="end" font-size="20" fill="black">252</text><text x="42" y="454.0" text-anchor="end" font-size="20" fill="black">253</text><text x="42" y="254.0" text-anchor="end" font-size="20" fill="black">254</text><text x="42" y="54.0" text-anchor="end" font-size="20" fill="black">255</text><line x1="21176" y1="150.0" x2="21176" y2="316.0003662109375" stroke="#ef5350" stroke-width="2"/><rect x="21172" y="150.0" width="8" height="166.0003662109375" fill="#ef5350"/><line x1="21188" y1="207.9986572265625" x2="21188" y2="361.99951171875" stroke="#ef5350" stroke-width="2"/><rect x="21184" y="311.99951171875" width="8" height="50.0" fill="#ef5350"/><line x1="21200" y1="279.998779296875" x2="21200" y2="376.0009765625" stroke="#ef5350" stroke-width="2"/><rect x="21196" y="361.99951171875" width="8" height="11.99951171875" fill="#ef5350"/><line x1="21212" y1="344.000244140625" x2="21212" y2="432.000732421875" stroke="#26a69a" stroke-width="2"/><rect x="21208" y="364.00146484375" width="8" height="3.997802734375" fill="#26a69a"/><line x1="21224" y1="332.080078125" x2="21224" y2="470.001220703125" stroke="#ef5350" stroke-width="2"/><rect x="21220" y="345.9991455078125" width="8" height="83.9996337890625" fill="#ef5350"/><line x1="21236" y1="422.0001220703125" x2="21236" y2="520.001220703125" stroke="#ef5350" stroke-width="2"/><rect x="21232" y="438.00048828125" width="8" height="60.0006103515625" fill="#ef5350"/><line x1="21248" y1="511.99951171875" x2="21248" y2="607.9986572265625" stroke="#ef5350" stroke-width="2"/><rect x="21244" y="511.99951171875" width="8" height="77.9998779296875" fill="#ef5350"/><line x1="21260" y1="489.9993896484375" x2="21260" y2="604.0008544921875" stroke="#26a69a" stroke-width="2"/><rect x="21256" y="564.00146484375" width="8" height="39.9993896484375" fill="#26a69a"/><line x1="21272" y1="554.0008544921875" x2="21272" y2="626.0009765625" stroke="#ef5350" stroke-width="2"/><rect x="21268" y="571.319580078125" width="8" height="30.279541015625" fill="#ef5350"/><line x1="21284" y1="595.9991455078125" x2="21284" y2="694.000244140625" stroke="#ef5350" stroke-width="2"/><rect x="21280" y="604.0008544921875" width="8" height="89.9993896484375" fill="#ef5350"/><line x1="21296" y1="605.999755859375" x2="21296" y2="788.00048828125" stroke="#ef5350" stroke-width="2"/><rect x="21292" y="683.9996337890625" width="8" height="104.0008544921875" fill="#ef5350"/><line x1="21308" y1="764.599609375" x2="21308" y2="874.798583984375" stroke="#ef5350" stroke-width="2"/><rect x="21304" y="795.9991455078125" width="8" height="18.0023193359375" fill="#ef5350"/><line x1="21320" y1="676.0009765625" x2="21320" y2="833.9996337890625" stroke="#26a69a" stroke-width="2"/><rect x="21316" y="716.0003662109375" width="8" height="105.999755859375" fill="#26a69a"/><line x1="21332" y1="677.9998779296875" x2="21332" y2="788.00048828125" stroke="#ef5350" stroke-width="2"/><rect x="21328" y="722.0001220703125" width="8" height="35.99853515625" fill="#ef5350"/><line x1="21344" y1="594.000244140625" x2="21344" y2="794.000244140625" stroke="#26a69a" stroke-width="2"/><rect x="21340" y="594.000244140625" width="8" height="160.0006103515625" fill="#26a69a"/><line x1="21356" y1="555.999755859375" x2="21356" y2="616.0003662109375" stroke="#26a69a" stroke-width="2"/><rect x="21352" y="564.00146484375" width="8" height="29.998779296875" fill="#26a69a"/><line x1="21368" y1="560.0006103515625" x2="21368" y2="710.0006103515625" stroke="#ef5350" stroke-width="2"/><rect x="21364" y="560.0006103515625" width="8" height="101.9989013671875" fill="#ef5350"/><line x1="21380" y1="639.9993896484375" x2="21380" y2="695.9991455078125" stroke="#26a69a" stroke-width="2"/><rect x="21376" y="648.0010986328125" width="8" height="19.9981689453125" fill="#26a69a"/><line x1="21392" y1="627.9998779296875" x2="21392" y2="698.0010986328125" stroke="#ef5350" stroke-width="2"/><rect x="21388" y="642.0013427734375" width="8" height="13.9984130859375" fill="#ef5350"/><line x1="21404" y1="573.9990234375" x2="21404" y2="647.9400634765625" stroke="#26a69a" stroke-width="2"/><rect x="21400" y="577.9998779296875" width="8" height="57.9986572265625" fill="#26a69a"/><line x1="21416" y1="561.99951171875" x2="21416" y2="657.9986572265625" stroke="#ef5350" stroke-width="2"/><rect x="21412" y="564.00146484375" width="8" height="67.999267578125" fill="#ef5350"/><line x1="21428" y1="472.0001220703125" x2="21428" y2="633.9996337890625" stroke="#26a69a" stroke-width="2"/><rect x="21424" y="472.0001220703125" width="8" height="160.0006103515625" fill="#26a69a"/><line x1="21440" y1="445.9991455078125" x2="21440" y2="488.00048828125" stroke="#26a69a" stroke-width="2"/><rect x="21436" y="455.999755859375" width="8" height="10.0006103515625" fill="#26a69a"/><line x1="21452" y1="420.001220703125" x2="21452" y2="460.8795166015625" stroke="#26a69a" stroke-width="2"/><rect x="21448" y="447.979736328125" width="8" height="10.0189208984375" fill="#26a69a"/><line x1="21464" y1="432.000732421875" x2="21464" y2="583.4014892578125" stroke="#ef5350" stroke-width="2"/><rect x="21460" y="439.9993896484375" width="8" height="132.000732421875" fill="#ef5350"/><line x1="21476" y1="566.0003662109375" x2="21476" y2="661.99951171875" stroke="#ef5350" stroke-width="2"/><rect x="21472" y="579.998779296875" width="8" height="68.0023193359375" fill="#ef5350"/><line x1="21488" y1="605.999755859375" x2="21488" y2="685.99853515625" stroke="#ef5350" stroke-width="2"/><rect x="21484" y="650.0" width="8" height="23.9990234375" fill="#ef5350"/><line x1="21500" y1="657.9986572265625" x2="21500" y2="710.0006103515625" stroke="#ef5350" stroke-width="2"/><rect x="21496" y="676.0009765625" width="8" height="2" fill="#ef5350"/><line x1="21512" y1="583.9996337890625" x2="21512" y2="682.000732421875" stroke="#26a69a" stroke-width="2"/><rect x="21508" y="586.99951171875" width="8" height="95.001220703125" fill="#26a69a"/><line x1="21524" y1="564.00146484375" x2="21524" y2="660.0006103515625" stroke="#ef5350" stroke-width="2"/><rect x="21520" y="589.1815185546875" width="8" height="35.8184814453125" fill="#ef5350"/><line x1="21536" y1="597.0001220703125" x2="21536" y2="660.0006103515625" stroke="#ef5350" stroke-width="2"/><rect x="21532" y="633.9996337890625" width="8" height="8.001708984375" fill="#ef5350"/><line x1="21548" y1="602.9998779296875" x2="21548" y2="651.0009765625" stroke="#26a69a" stroke-width="2"/><rect x="21544" y="623.980712890625" width="8" height="18.0206298828125" fill="#26a69a"/><line x1="21560" y1="600.0" x2="21560" y2="639.9993896484375" stroke="#ef5350" stroke-width="2"/><rect x="21556" y="622.0001220703125" width="8" height="17.999267578125" fill="#ef5350"/><line x1="21572" y1="633.9996337890625" x2="21572" y2="689.9993896484375" stroke="#ef5350" stroke-width="2"/><rect x="21568" y="642.0013427734375" width="8" height="29.998779296875" fill="#ef5350"/><line x1="21584" y1="635.99853515625" x2="21584" y2="677.9998779296875" stroke="#26a69a" stroke-width="2"/><rect x="21580" y="664.00146484375" width="8" height="7.9986572265625" fill="#26a69a"/><line x1="21596" y1="623.9990234375" x2="21596" y2="670.001220703125" stroke="#26a69a" stroke-width="2"/><rect x="21592" y="654.0008544921875" width="8" height="11.99951171875" fill="#26a69a"/><line x1="21608" y1="642.0013427734375" x2="21608" y2="701.9989013671875" stroke="#ef5350" stroke-width="2"/><rect x="21604" y="660.0006103515625" width="8" height="16.0003662109375" fill="#ef5350"/><line x1="21620" y1="627.9998779296875" x2="21620" y2="682.000732421875" stroke="#26a69a" stroke-width="2"/><rect x="21616" y="638.00048828125" width="8" height="44.000244140625" fill="#26a69a"/><line x1="21632" y1="579.998779296875" x2="21632" y2="635.99853515625" stroke="#26a69a" stroke-width="2"/><rect x="21628" y="611.99951171875" width="8" height="23.9990234375" fill="#26a69a"/><line x1="21644" y1="592.0013427734375" x2="21644" y2="685.99853515625" stroke="#ef5350" stroke-width="2"/><rect x="21640" y="610.0006103515625" width="8" height="73.9990234375" fill="#ef5350"/><line x1="21656" y1="685.99853515625" x2="21656" y2="776.0009765625" stroke="#ef5350" stroke-width="2"/><rect x="21652" y="685.99853515625" width="8" height="48.0010986328125" fill="#ef5350"/><line x1="21668" y1="684.4390869140625" x2="21668" y2="744.000244140625" stroke="#26a69a" stroke-width="2"/><rect x="21664" y="684.4390869140625" width="8" height="45.5596923828125" fill="#26a69a"/><line x1="21680" y1="679.0008544921875" x2="21680" y2="745.9991455078125" stroke="#ef5350" stroke-width="2"/><rect x="21676" y="689.9993896484375" width="8" height="14.00146484375" fill="#ef5350"/><line x1="21692" y1="644.000244140625" x2="21692" y2="694.000244140625" stroke="#ef5350" stroke-width="2"/><rect x="21688" y="689.9993896484375" width="8" height="2.001953125" fill="#ef5350"/><line x1="21704" y1="638.00048828125" x2="21704" y2="682.000732421875" stroke="#26a69a" stroke-width="2"/><rect x="21700" y="645.9991455078125" width="8" height="33.9996337890625" fill="#26a69a"/><line x1="21716" y1="627.9998779296875" x2="21716" y2="710.0006103515625" stroke="#ef5350" stroke-width="2"/><rect x="21712" y="645.9991455078125" width="8" height="48.0010986328125" fill="#ef5350"/><line x1="21728" y1="685.99853515625" x2="21728" y2="739.9993896484375" stroke="#ef5350" stroke-width="2"/><rect x="21724" y="700.0" width="8" height="39.9993896484375" fill="#ef5350"/><line x1="21740" y1="735.99853515625" x2="21740" y2="777.9998779296875" stroke="#ef5350" stroke-width="2"/><rect x="21736" y="744.000244140625" width="8" height="7.9986572265625" fill="#ef5350"/><line x1="21752" y1="722.0001220703125" x2="21752" y2="785.99853515625" stroke="#26a69a" stroke-width="2"/><rect x="21748" y="751.9989013671875" width="8" height="2.001953125" fill="#26a69a"/><line x1="21764" y1="720.001220703125" x2="21764" y2="767.999267578125" stroke="#26a69a" stroke-width="2"/><rect x="21760" y="750.0" width="8" height="2" fill="#26a69a"/><line x1="21776" y1="705.999755859375" x2="21776" y2="761.99951171875" stroke="#26a69a" stroke-width="2"/><rect x="21772" y="714.00146484375" width="8" height="45.9991455078125" fill="#26a69a"/><line x1="21788" y1="685.99853515625" x2="21788" y2="726.0009765625" stroke="#26a69a" stroke-width="2"/><rect x="21784" y="707.9986572265625" width="8" height="10.0006103515625" fill="#26a69a"/><line x1="21800" y1="660.0006103515625" x2="21800" y2="714.00146484375" stroke="#26a69a" stroke-width="2"/><rect x="21796" y="667.999267578125" width="8" height="44.000244140625" fill="#26a69a"/><line x1="21812" y1="616.0003662109375" x2="21812" y2="670.001220703125" stroke="#26a69a" stroke-width="2"/><rect x="21808" y="644.000244140625" width="8" height="23.9990234375" fill="#26a69a"/><line x1="21824" y1="592.0013427734375" x2="21824" y2="657.9986572265625" stroke="#26a69a" stroke-width="2"/><rect x="21820" y="604.0008544921875" width="8" height="39.9993896484375" fill="#26a69a"/><line x1="21836" y1="589.9993896484375" x2="21836" y2="635.99853515625" stroke="#ef5350" stroke-width="2"/><rect x="21832" y="605.999755859375" width="8" height="29.998779296875" fill="#ef5350"/><line x1="21848" y1="625.6805419921875" x2="21848" y2="670.001220703125" stroke="#ef5350" stroke-width="2"/><rect x="21844" y="639.9993896484375" width="8" height="26.0009765625" fill="#ef5350"/><line x1="21860" y1="648.0010986328125" x2="21860" y2="695.9991455078125" stroke="#26a69a" stroke-width="2"/><rect x="21856" y="649.9786376953125" width="8" height="24.0203857421875" fill="#26a69a"/><line x1="21872" y1="638.00048828125" x2="21872" y2="695.9991455078125" stroke="#ef5350" stroke-width="2"/><rect x="21868" y="645.9991455078125" width="8" height="26.0009765625" fill="#ef5350"/><line x1="21884" y1="655.999755859375" x2="21884" y2="689.9993896484375" stroke="#ef5350" stroke-width="2"/><rect x="21880" y="673.9990234375" width="8" height="8.001708984375" fill="#ef5350"/><line x1="21896" y1="666.0003662109375" x2="21896" y2="716.0003662109375" stroke="#ef5350" stroke-width="2"/><rect x="21892" y="679.998779296875" width="8" height="18.0023193359375" fill="#ef5350"/><line x1="21908" y1="679.998779296875" x2="21908" y2="720.001220703125" stroke="#ef5350" stroke-width="2"/><rect x="21904" y="694.000244140625" width="8" height="13.9801025390625" fill="#ef5350"/><line x1="21920" y1="684.9212646484375" x2="21920" y2="729.998779296875" stroke="#ef5350" stroke-width="2"/><rect x="21916" y="703.8604736328125" width="8" height="14.1387939453125" fill="#ef5350"/><line x1="21932" y1="714.00146484375" x2="21932" y2="735.99853515625" stroke="#26a69a" stroke-width="2"/><rect x="21928" y="714.00146484375" width="8" height="3.997802734375" fill="#26a69a"/><line x1="21944" y1="689.9993896484375" x2="21944" y2="733.9996337890625" stroke="#26a69a" stroke-width="2"/><rect x="21940" y="695.9991455078125" width="8" height="16.0003662109375" fill="#26a69a"/><line x1="21956" y1="644.000244140625" x2="21956" y2="698.0010986328125" stroke="#26a69a" stroke-width="2"/><rect x="21952" y="648.779296875" width="8" height="45.220947265625" fill="#26a69a"/><line x1="21968" y1="666.0003662109375" x2="21968" y2="729.998779296875" stroke="#ef5350" stroke-width="2"/><rect x="21964" y="666.0003662109375" width="8" height="27.9998779296875" fill="#ef5350"/><line x1="21980" y1="648.0010986328125" x2="21980" y2="698.0010986328125" stroke="#26a69a" stroke-width="2"/><rect x="21976" y="648.0010986328125" width="8" height="50.0" fill="#26a69a"/><line x1="21992" y1="638.018798828125" x2="21992" y2="677.9998779296875" stroke="#ef5350" stroke-width="2"/><rect x="21988" y="648.05908203125" width="8" height="29.9407958984375" fill="#ef5350"/><line x1="22004" y1="651.5411376953125" x2="22004" y2="700.0" stroke="#ef5350" stroke-width="2"/><rect x="22000" y="677.9998779296875" width="8" height="14.00146484375" fill="#ef5350"/><line x1="22016" y1="692.999267578125" x2="22016" y2="738.00048828125" stroke="#ef5350" stroke-width="2"/><rect x="22012" y="694.000244140625" width="8" height="26.0009765625" fill="#ef5350"/><line x1="22028" y1="701.9989013671875" x2="22028" y2="735.99853515625" stroke="#26a69a" stroke-width="2"/><rect x="22024" y="714.00146484375" width="8" height="2" fill="#26a69a"/><line x1="22040" y1="700.0" x2="22040" y2="764.00146484375" stroke="#ef5350" stroke-width="2"/><rect x="22036" y="704.0008544921875" width="8" height="33.9996337890625" fill="#ef5350"/><line x1="22052" y1="705.999755859375" x2="22052" y2="750.0" stroke="#26a69a" stroke-width="2"/><rect x="22048" y="711.981201171875" width="8" height="24.017333984375" fill="#26a69a"/><line x1="22064" y1="702.9998779296875" x2="22064" y2="767.999267578125" stroke="#ef5350" stroke-width="2"/><rect x="22060" y="710.1409912109375" width="8" height="41.85791015625" fill="#ef5350"/><line x1="22076" y1="714.00146484375" x2="22076" y2="755.999755859375" stroke="#26a69a" stroke-width="2"/><rect x="22072" y="727.9998779296875" width="8" height="26.0009765625" fill="#26a69a"/><line x1="22088" y1="710.0189208984375" x2="22088" y2="782.9986572265625" stroke="#ef5350" stroke-width="2"/><rect x="22084" y="732.000732421875" width="8" height="44.000244140625" fill="#ef5350"/><line x1="22100" y1="742.999267578125" x2="22100" y2="788.00048828125" stroke="#ef5350" stroke-width="2"/><rect x="22096" y="767.999267578125" width="8" height="10.0006103515625" fill="#ef5350"/><rect x="21171" y="881.5296701747792" width="10" height="138.4703298252208" fill="#ef5350" opacity="0.9"/><rect x="21183" y="959.1472467581282" width="10" height="60.852753241871824" fill="#ef5350" opacity="0.9"/><rect x="21195" y="952.4767430934035" width="10" height="67.52325690659654" fill="#ef5350" opacity="0.9"/><rect x="21207" y="966.5401240368352" width="10" height="53.45987596316479" fill="#26a69a" opacity="0.9"/><rect x="21219" y="983.1852565307273" width="10" height="36.814743469272685" fill="#ef5350" opacity="0.9"/><rect x="21231" y="979.7407677128359" width="10" height="40.25923228716408" fill="#ef5350" opacity="0.9"/><rect x="21243" y="974.6218990791205" width="10" height="45.37810092087955" fill="#ef5350" opacity="0.9"/><rect x="21255" y="973.2799285848524" width="10" height="46.72007141514757" fill="#26a69a" opacity="0.9"/><rect x="21267" y="982.8974816763766" width="10" height="37.10251832362337" fill="#ef5350" opacity="0.9"/><rect x="21279" y="976.326818267243" width="10" height="43.67318173275703" fill="#ef5350" opacity="0.9"/><rect x="21291" y="977.1419845893629" width="10" height="42.85801541063711" fill="#ef5350" opacity="0.9"/><rect x="21303" y="977.9407066340914" width="10" height="42.059293365908616" fill="#ef5350" opacity="0.9"/><rect x="21315" y="860.0" width="10" height="160.0" fill="#26a69a" opacity="0.9"/><rect x="21327" y="870.1543412892313" width="10" height="149.8456587107687" fill="#ef5350" opacity="0.9"/><rect x="21339" y="987.575291298628" width="10" height="32.42470870137197" fill="#26a69a" opacity="0.9"/><rect x="21351" y="983.1946532606653" width="10" height="36.80534673933471" fill="#26a69a" opacity="0.9"/><rect x="21363" y="984.227118962601" width="10" height="35.772881037398975" fill="#ef5350" opacity="0.9"/><rect x="21375" y="985.626057132118" width="10" height="34.373942867881965" fill="#26a69a" opacity="0.9"/><rect x="21387" y="988.172570945311" width="10" height="31.82742905468899" fill="#ef5350" opacity="0.9"/><rect x="21399" y="987.6434175906785" width="10" height="32.356582409321504" fill="#26a69a" opacity="0.9"/><rect x="21411" y="993.8493704190942" width="10" height="26.150629580905843" fill="#ef5350" opacity="0.9"/><rect x="21423" y="983.5170785566622" width="10" height="36.48292144333777" fill="#26a69a" opacity="0.9"/><rect x="21435" y="992.5925577898892" width="10" height="27.407442210110844" fill="#26a69a" opacity="0.9"/><rect x="21447" y="991.6299802668672" width="10" height="28.370019733132835" fill="#26a69a" opacity="0.9"/><rect x="21459" y="991.2623332080436" width="10" height="28.73766679195637" fill="#ef5350" opacity="0.9"/><rect x="21471" y="986.5516350310093" width="10" height="33.448364968990745" fill="#ef5350" opacity="0.9"/><rect x="21483" y="990.9827804923887" width="10" height="29.017219507611344" fill="#ef5350" opacity="0.9"/><rect x="21495" y="975.2338611163315" width="10" height="44.76613888366853" fill="#ef5350" opacity="0.9"/><rect x="21507" y="987.5500375869198" width="10" height="32.44996241308024" fill="#26a69a" opacity="0.9"/><rect x="21519" y="986.901663221199" width="10" height="33.09833677880101" fill="#ef5350" opacity="0.9"/><rect x="21531" y="996.3729797030634" width="10" height="23.62702029693662" fill="#ef5350" opacity="0.9"/><rect x="21543" y="996.3629956775043" width="10" height="23.637004322495727" fill="#26a69a" opacity="0.9"/><rect x="21555" y="998.8002725051682" width="10" height="21.19972749483179" fill="#ef5350" opacity="0.9"/><rect x="21567" y="995.5037821838" width="10" height="24.496217816199987" fill="#ef5350" opacity="0.9"/><rect x="21579" y="1000.3953674121406" width="10" height="19.60463258785944" fill="#26a69a" opacity="0.9"/><rect x="21591" y="999.7493422289043" width="10" height="20.25065777109569" fill="#26a69a" opacity="0.9"/><rect x="21603" y="995.2066105995114" width="10" height="24.79338940048865" fill="#ef5350" opacity="0.9"/><rect x="21615" y="992.8703486186807" width="10" height="27.129651381319263" fill="#26a69a" opacity="0.9"/><rect x="21627" y="996.7940706634091" width="10" height="23.205929336590884" fill="#26a69a" opacity="0.9"/><rect x="21639" y="984.6335275324187" width="10" height="35.366472467581275" fill="#ef5350" opacity="0.9"/><rect x="21651" y="986.1223219319677" width="10" height="33.87767806803231" fill="#ef5350" opacity="0.9"/><rect x="21663" y="995.9601108814132" width="10" height="24.039889118586757" fill="#26a69a" opacity="0.9"/><rect x="21675" y="974.1720306333395" width="10" height="45.827969366660454" fill="#ef5350" opacity="0.9"/><rect x="21687" y="996.6936431121969" width="10" height="23.306356887803076" fill="#ef5350" opacity="0.9"/><rect x="21699" y="1000.7882681826725" width="10" height="19.211731817327518" fill="#26a69a" opacity="0.9"/><rect x="21711" y="996.7547218567938" width="10" height="23.24527814320618" fill="#ef5350" opacity="0.9"/><rect x="21723" y="999.5050272505168" width="10" height="20.494972749483168" fill="#ef5350" opacity="0.9"/><rect x="21735" y="996.7306427363278" width="10" height="23.26935726367219" fill="#ef5350" opacity="0.9"/><rect x="21747" y="993.1598853598947" width="10" height="26.8401146401053" fill="#26a69a" opacity="0.9"/><rect x="21759" y="994.3303655327945" width="10" height="25.66963446720547" fill="#26a69a" opacity="0.9"/><rect x="21771" y="994.4942210110881" width="10" height="25.505778988911857" fill="#26a69a" opacity="0.9"/><rect x="21783" y="993.132869761323" width="10" height="26.867130238676964" fill="#26a69a" opacity="0.9"/><rect x="21795" y="993.2421067468521" width="10" height="26.757893253147927" fill="#26a69a" opacity="0.9"/><rect x="21807" y="992.857428115016" width="10" height="27.142571884984022" fill="#26a69a" opacity="0.9"/><rect x="21819" y="987.2863418530352" width="10" height="32.713658146964804" fill="#26a69a" opacity="0.9"/><rect x="21831" y="994.6709969930464" width="10" height="25.3290030069536" fill="#ef5350" opacity="0.9"/><rect x="21843" y="985.1262685585416" width="10" height="34.8737314414584" fill="#ef5350" opacity="0.9"/><rect x="21855" y="993.1810280022552" width="10" height="26.818971997744825" fill="#26a69a" opacity="0.9"/><rect x="21867" y="995.043342416839" width="10" height="24.956657583161018" fill="#ef5350" opacity="0.9"/><rect x="21879" y="996.2314414583725" width="10" height="23.7685585416275" fill="#ef5350" opacity="0.9"/><rect x="21891" y="994.1165899267055" width="10" height="25.8834100732945" fill="#ef5350" opacity="0.9"/><rect x="21903" y="995.8203345235858" width="10" height="24.179665476414243" fill="#ef5350" opacity="0.9"/><rect x="21915" y="995.8808259725615" width="10" height="24.119174027438476" fill="#ef5350" opacity="0.9"/><rect x="21927" y="996.8463399736892" width="10" height="23.15366002631083" fill="#26a69a" opacity="0.9"/><rect x="21939" y="994.109542379252" width="10" height="25.890457620747952" fill="#26a69a" opacity="0.9"/><rect x="21951" y="993.4905327945875" width="10" height="26.509467205412534" fill="#26a69a" opacity="0.9"/><rect x="21963" y="998.4478951324938" width="10" height="21.55210486750616" fill="#ef5350" opacity="0.9"/><rect x="21975" y="994.2152555910543" width="10" height="25.7847444089457" fill="#26a69a" opacity="0.9"/><rect x="21987" y="990.8882258973877" width="10" height="29.111774102612344" fill="#ef5350" opacity="0.9"/><rect x="21999" y="998.8496053373426" width="10" height="21.15039466265739" fill="#ef5350" opacity="0.9"/><rect x="22011" y="985.3553138507799" width="10" height="34.64468614922009" fill="#ef5350" opacity="0.9"/><rect x="22023" y="994.6251879345988" width="10" height="25.374812065401215" fill="#26a69a" opacity="0.9"/><rect x="22035" y="991.7732803984213" width="10" height="28.22671960157868" fill="#ef5350" opacity="0.9"/><rect x="22047" y="992.5755262168765" width="10" height="27.424473783123517" fill="#26a69a" opacity="0.9"/><rect x="22059" y="986.8241401992107" width="10" height="33.17585980078934" fill="#ef5350" opacity="0.9"/><rect x="22071" y="986.0741636910356" width="10" height="33.92583630896445" fill="#26a69a" opacity="0.9"/><rect x="22083" y="968.6485153166698" width="10" height="51.35148468333023" fill="#ef5350" opacity="0.9"/><rect x="22095" y="958.4601108814132" width="10" height="61.53988911858676" fill="#ef5350" opacity="0.9"/><polyline points="320,583.667842320034,332,573.0328213438725,344,561.8868151072547,356,551.0385218901945,368,553.0348647644928,380,562.079267990049,392,572.7382923183768,404,582.7632052337378,416,583.1666629942163,428,587.1507903280985,440,592.3746524657474,452,595.3847534585918,464,599.6337664290536,476,606.5258002996472,488,611.999673113371,500,615.9997856256382,512,621.7141847624816,524,623.265261288077,536,622.1923327576633,548,628.0787423797051,560,638.1664463234529,572,642.5733644749357,584,648.4236016194359,596,652.5738626817201,608,651.9476991413512,620,655.952703426999,632,663.9571497338011,644,672.3420784607924,656,679.9284425471171,668,686.6019242092932,680,689.2114042697187,692,691.0006664560854,704,688.8100570391373,716,684.5424558107027,728,676.8718271137004,740,672.9791326415636,752,672.3144882195982,764,670.1872643601462,776,670.3599174754004,788,671.4685665179218,800,673.9954743383862,812,677.2321288470835,824,681.1147134881367,836,684.2467850458149,848,685.3660574707703,860,681.8816040806951,872,683.03576027688,884,679.6991258345884,896,679.5372927007861,908,680.7243450886574,920,684.4649999090791,932,687.2779965695258,944,692.1087100658781,956,694.0013282664495,968,699.5249066569954,980,702.2368086829658,992,709.2619675286358,1004,715.8084351858747" fill="none" stroke="#0090ff" stroke-width="2"/><line x1="80" y1="50" x2="80" y2="900" stroke="#666666" stroke-width="0.5" stroke-dasharray="4,4" opacity="0.90"/><line x1="152" y1="50" x2="152" y2="900" stroke="#666666" stroke-width="0.5" stroke-dasharray="4,4" opacity="0.90"/><line x1="224" y1="50" x2="224" y2="900" stroke="#666666" stroke-width="0.5" stroke-dasharray="4,4" opacity="0.90"/><line x1="290" y1="30" x2="290" y2="950" stroke="black" stroke-width="0.7"/><line x1="296" y1="50" x2="296" y2="900" stroke="#666666" stroke-width="0.5" stroke-dasharray="4,4" opacity="0.90"/><line x1="368" y1="50" x2="368" y2="900" stroke="#666666" stroke-width="0.5" stroke-dasharray="4,4" opacity="0.90"/><line x1="440" y1="50" x2="440" y2="900" stroke="#666666" stroke-width="0.5" stroke-dasharray="4,4" opacity="0.90"/><line x1="512" y1="50" x2="512" y2="900" stroke="#666666" stroke-width="0.5" stroke-dasharray="4,4" opacity="0.90"/><line x1="584" y1="50" x2="584" y2="900" stroke="#666666" stroke-width="0.5" stroke-dasharray="4,4" opacity="0.90"/><line x1="656" y1="50" x2="656" y2="900" stroke="#666666" stroke-width="0.5" stroke-dasharray="4,4" opacity="0.90"/><line x1="728" y1="50" x2="728" y2="900" stroke="#666666" stroke-width="0.5" stroke-dasharray="4,4" opacity="0.90"/><line x1="800" y1="50" x2="800" y2="900" stroke="#666666" stroke-width="0.5" stroke-dasharray="4,4" opacity="0.90"/><line x1="872" y1="50" x2="872" y2="900" stroke="#666666" stroke-width="0.5" stroke-dasharray="4,4" opacity="0.90"/><line x1="944" y1="50" x2="944" y2="900" stroke="#666666" stroke-width="0.5" stroke-dasharray="4,4" opacity="0.90"/><text x="80" y="1040" text-anchor="middle" font-size="20" fill="black">14:30</text><text x="152" y="1040" text-anchor="middle" font-size="20" fill="black">15:00</text><text x="224" y="1040" text-anchor="middle" font-size="20" fill="black">15:30</text><text x="296" y="1040" text-anchor="middle" font-size="20" fill="black">16:00</text><text x="368" y="1040" text-anchor="middle" font-size="20" fill="black">16:30</text><text x="440" y="1040" text-anchor="middle" font-size="20" fill="black">17:00</text><text x="512" y="1040" text-anchor="middle" font-size="20" fill="black">17:30</text><text x="584" y="1040" text-anchor="middle" font-size="20" fill="black">18:00</text><text x="656" y="1040" text-anchor="middle" font-size="20" fill="black">18:30</text><text x="728" y="1040" text-anchor="middle" font-size="20" fill="black">19:00</text><text x="800" y="1040" text-anchor="middle" font-size="20" fill="black">19:30</text><text x="872" y="1040" text-anchor="middle" font-size="20" fill="black">20:00</text><text x="944" y="1040" text-anchor="middle" font-size="20" fill="black">20:30</text><text x="1006" y="50" text-anchor="end" font-size="40" fill="#ef5350" font-weight="bold">▼ -1.23% (Mon)</text></svg>