<svg xmlns="http://www.w3.org/2000/svg" width="1056" height="1050"><rect width="100%" height="100%" fill="white"/><text x="42" y="854.0" text-anchor="end" font-size="20" fill="black">241</text><text x="42" y="787.3333333333334" text-anchor="end" font-size="20" fill="black">242</text><text x="42" y="720.6666666666667" text-anchor="end" font-size="20" fill="black">243</text><text x="42" y="654.0" text-anchor="end" font-size="20" fill="black">244</text><text x="42" y="587.3333333333334" text-anchor="end" font-size="20" fill="black">245</text><text x="42" y="520.6666666666666" text-anchor="end" font-size="20" fill="black">246</text><text x="42" y="454.0" text-anchor="end" font-size="20" fill="black">247</text><text x="42" y="387.3333333333333" text-anchor="end" font-size="20" fill="black">248</text><text x="42" y="320.66666666666674" text-anchor="end" font-size="20" fill="black">249</text><text x="42" y="254.0" text-anchor="end" font-size="20" fill="black">250</text><text x="42" y="187.33333333333326" text-anchor="end" font-size="20" fill="black">251</text><text x="42" y="120.66666666666674" text-anchor="end" font-size="20" fill="black">252</text><text x="42" y="54.0" text-anchor="end" font-size="20" fill="black">253</text><line x1="6632" y1="112.66682942708326" x2="6632" y2="167.33296712239576" stroke="#ef5350" stroke-width="2"/><rect x="6628" y="125.99995930989576" width="8" height="16.473388671875" fill="#ef5350"/><line x1="6644" y1="120.00020345052076" x2="6644" y2="151.99991861979174" stroke="#26a69a" stroke-width="2"/><rect x="6640" y="130.6671142578125" width="8" height="9.999593098958258" fill="#26a69a"/><line x1="6656" y1="115.33304850260424" x2="6656" y2="170.06632486979174" stroke="#ef5350" stroke-width="2"/><rect x="6652" y="124.66634114583326" width="8" height="4.6671549479167425" fill="#ef5350"/><line x1="6668" y1="94.66654459635424" x2="6668" y2="155.999755859375" stroke="#26a69a" stroke-width="2"/><rect x="6664" y="129.66715494791674" width="8" height="2" fill="#26a69a"/><line x1="6680" y1="100.0" x2="6680" y2="123.333740234375" stroke="#26a69a" stroke-width="2"/><rect x="6676" y="106.5338134765625" width="8" height="16.7999267578125" fill="#26a69a"/><line x1="6692" y1="77.4932861328125" x2="6692" y2="107.39949544270826" stroke="#26a69a" stroke-width="2"/><rect x="6688" y="88.00048828125" width="8" height="17.999267578125" fill="#26a69a"/><line x1="6704" y1="71.01338704427076" x2="6704" y2="100.0" stroke="#ef5350" stroke-width="2"/><rect x="6700" y="80.6671142578125" width="8" height="6.6660563151042425" fill="#ef5350"/><line x1="6716" y1="90.66670735677076" x2="6716" y2="146.00016276041674" stroke="#ef5350" stroke-width="2"/><rect x="6712" y="90.66670735677076" width="8" height="47.99296061197924" fill="#ef5350"/><line x1="6728" y1="125.99995930989576" x2="6728" y2="157.99967447916674" stroke="#ef5350" stroke-width="2"/><rect x="6724" y="143.33292643229174" width="8" height="5.3334554036457575" fill="#ef5350"/><line x1="6740" y1="114.00044759114576" x2="6740" y2="164.00044759114576" stroke="#26a69a" stroke-width="2"/><rect x="6736" y="129.99979654947924" width="8" height="23.333740234375" fill="#26a69a"/><line x1="6752" y1="98.00618489583326" x2="6752" y2="140.66670735677076" stroke="#26a69a" stroke-width="2"/><rect x="6748" y="102.66621907552076" width="8" height="20.000203450520985" fill="#26a69a"/><line x1="6764" y1="93.33292643229174" x2="6764" y2="116.0003662109375" stroke="#26a69a" stroke-width="2"/><rect x="6760" y="97.2137451171875" width="8" height="8.60595703125" fill="#26a69a"/><line x1="6776" y1="83.33333333333326" x2="6776" y2="110.19999186197924" stroke="#ef5350" stroke-width="2"/><rect x="6772" y="92.58626302083326" width="8" height="4.747517903645985" fill="#ef5350"/><line x1="6788" y1="64.666748046875" x2="6788" y2="96.00016276041674" stroke="#26a69a" stroke-width="2"/><rect x="6784" y="74.90030924479174" width="8" height="16.432698567708258" fill="#26a69a"/><line x1="6800" y1="68.00028483072924" x2="6800" y2="90.00040690104174" stroke="#26a69a" stroke-width="2"/><rect x="6796" y="73.13334147135424" width="8" height="2" fill="#26a69a"/><line x1="6812" y1="72.49959309895826" x2="6812" y2="116.66666666666674" stroke="#ef5350" stroke-width="2"/><rect x="6808" y="72.66642252604174" width="8" height="44.000244140625" fill="#ef5350"/><line x1="6824" y1="114.00044759114576" x2="6824" y2="140.66670735677076" stroke="#ef5350" stroke-width="2"/><rect x="6820" y="118.00028483072924" width="8" height="22.666422526041515" fill="#ef5350"/><line x1="6836" y1="133.8531494140625" x2="6836" y2="164.00044759114576" stroke="#ef5350" stroke-width="2"/><rect x="6832" y="141.3330078125" width="8" height="21.333821614583258" fill="#ef5350"/><line x1="6848" y1="164.666748046875" x2="6848" y2="204.33349609375" stroke="#ef5350" stroke-width="2"/><rect x="6844" y="164.666748046875" width="8" height="35.333251953125" fill="#ef5350"/><line x1="6860" y1="196.00016276041674" x2="6860" y2="225.33365885416674" stroke="#ef5350" stroke-width="2"/><rect x="6856" y="205.999755859375" width="8" height="19.333902994791742" fill="#ef5350"/><line x1="6872" y1="225.13326009114576" x2="6872" y2="264.00044759114576" stroke="#ef5350" stroke-width="2"/><rect x="6868" y="225.33365885416674" width="8" height="38.666788736979015" fill="#ef5350"/><line x1="6884" y1="264.00044759114576" x2="6884" y2="321.33382161458326" stroke="#ef5350" stroke-width="2"/><rect x="6880" y="264.00044759114576" width="8" height="43.33292643229174" fill="#ef5350"/><line x1="6896" y1="286.6668701171875" x2="6896" y2="338.6667887369792" stroke="#ef5350" stroke-width="2"/><rect x="6892" y="300.66630045572924" width="8" height="24.6673583984375" fill="#ef5350"/><line x1="6908" y1="285.333251953125" x2="6908" y2="343.3329264322917" stroke="#ef5350" stroke-width="2"/><rect x="6904" y="325.99995930989576" width="8" height="2.666219075520985" fill="#ef5350"/><line x1="6920" y1="319.3328857421875" x2="6920" y2="365.3330485026042" stroke="#ef5350" stroke-width="2"/><rect x="6916" y="342.0003255208333" width="8" height="12.666829427083371" fill="#ef5350"/><line x1="6932" y1="353.3335367838542" x2="6932" y2="422.6664225260417" stroke="#ef5350" stroke-width="2"/><rect x="6928" y="361.99951171875" width="8" height="33.333333333333314" fill="#ef5350"/><line x1="6944" y1="396.6664632161458" x2="6944" y2="444.000244140625" stroke="#ef5350" stroke-width="2"/><rect x="6940" y="399.3336995442708" width="8" height="39.9993896484375" fill="#ef5350"/><line x1="6956" y1="409.9995930989583" x2="6956" y2="467.33296712239587" stroke="#26a69a" stroke-width="2"/><rect x="6952" y="436.6668701171875" width="8" height="7.3333740234375" fill="#26a69a"/><line x1="6968" y1="403.9998372395833" x2="6968" y2="512.6668294270834" stroke="#ef5350" stroke-width="2"/><rect x="6964" y="435.9995524088542" width="8" height="64.00044759114581" fill="#ef5350"/><line x1="6980" y1="497.33378092447913" x2="6980" y2="590.6667073567709" stroke="#ef5350" stroke-width="2"/><rect x="6976" y="505.33345540364587" width="8" height="58.76668294270826" fill="#ef5350"/><line x1="6992" y1="507.3333740234375" x2="6992" y2="585.9995524088541" stroke="#26a69a" stroke-width="2"/><rect x="6988" y="535.9995524088541" width="8" height="30.6671142578125" fill="#26a69a"/><line x1="7004" y1="529.9997965494791" x2="7004" y2="620.0663248697916" stroke="#ef5350" stroke-width="2"/><rect x="7000" y="538.6667887369791" width="8" height="38.3331298828125" fill="#ef5350"/><line x1="7016" y1="579.3202718098959" x2="7016" y2="648.6663818359375" stroke="#ef5350" stroke-width="2"/><rect x="7012" y="583.3333333333334" width="8" height="23.333740234375" fill="#ef5350"/><line x1="7028" y1="613.3331298828125" x2="7028" y2="674.0000406901042" stroke="#ef5350" stroke-width="2"/><rect x="7024" y="613.3331298828125" width="8" height="36.6668701171875" fill="#ef5350"/><line x1="7040" y1="611.99951171875" x2="7040" y2="699.0936279296875" stroke="#ef5350" stroke-width="2"/><rect x="7036" y="647.3337809244791" width="8" height="2.6662190755208712" fill="#ef5350"/><line x1="7052" y1="606.6670735677084" x2="7052" y2="679.33349609375" stroke="#26a69a" stroke-width="2"/><rect x="7048" y="631.9997151692709" width="8" height="18.66658528645837" fill="#26a69a"/><line x1="7064" y1="603.3335367838541" x2="7064" y2="675.9999593098958" stroke="#ef5350" stroke-width="2"/><rect x="7060" y="638.6667887369791" width="8" height="29.333496093750114" fill="#ef5350"/><line x1="7076" y1="640.0004069010416" x2="7076" y2="722.6664225260416" stroke="#26a69a" stroke-width="2"/><rect x="7072" y="642.0003255208334" width="8" height="22.66642252604163" fill="#26a69a"/><line x1="7088" y1="633.9996337890625" x2="7088" y2="697.3337809244792" stroke="#ef5350" stroke-width="2"/><rect x="7084" y="644.6665445963541" width="8" height="51.333618164062614" fill="#ef5350"/><line x1="7100" y1="688.6667887369792" x2="7100" y2="726.666259765625" stroke="#ef5350" stroke-width="2"/><rect x="7096" y="698.333740234375" width="8" height="14.9993896484375" fill="#ef5350"/><line x1="7112" y1="654.6671549479167" x2="7112" y2="721.3338216145833" stroke="#ef5350" stroke-width="2"/><rect x="7108" y="711.99951171875" width="8" height="2" fill="#ef5350"/><line x1="7124" y1="650.0" x2="7124" y2="713.3331298828125" stroke="#26a69a" stroke-width="2"/><rect x="7120" y="672.0001220703125" width="8" height="41.3330078125" fill="#26a69a"/><line x1="7136" y1="627.9998779296875" x2="7136" y2="687.3331705729167" stroke="#26a69a" stroke-width="2"/><rect x="7132" y="643.9870198567709" width="8" height="32.67923990885413" fill="#26a69a"/><line x1="7148" y1="590.6667073567709" x2="7148" y2="645.3328450520834" stroke="#26a69a" stroke-width="2"/><rect x="7144" y="592.6666259765625" width="8" height="52.66621907552087" fill="#26a69a"/><line x1="7160" y1="539.3330891927084" x2="7160" y2="609.3332926432291" stroke="#26a69a" stroke-width="2"/><rect x="7156" y="541.3330078125" width="8" height="51.3336181640625" fill="#26a69a"/><line x1="7172" y1="534.6669514973959" x2="7172" y2="618.6665852864584" stroke="#ef5350" stroke-width="2"/><rect x="7168" y="538.00048828125" width="8" height="55.33243815104163" fill="#ef5350"/><line x1="7184" y1="566.6666666666666" x2="7184" y2="615.3330485026041" stroke="#ef5350" stroke-width="2"/><rect x="7180" y="583.3333333333334" width="8" height="31.999715169270758" fill="#ef5350"/><line x1="7196" y1="588.00048828125" x2="7196" y2="619.6665445963541" stroke="#26a69a" stroke-width="2"/><rect x="7192" y="598.0000813802084" width="8" height="20.67362467447913" fill="#26a69a"/><line x1="7208" y1="590.0004069010416" x2="7208" y2="664.0004475911458" stroke="#ef5350" stroke-width="2"/><rect x="7204" y="600.6663004557291" width="8" height="29.33349609375" fill="#ef5350"/><line x1="7220" y1="630.6671142578125" x2="7220" y2="694.000244140625" stroke="#ef5350" stroke-width="2"/><rect x="7216" y="630.6671142578125" width="8" height="53.99983723958326" fill="#ef5350"/><line x1="7232" y1="683.9996337890625" x2="7232" y2="707.9996744791667" stroke="#ef5350" stroke-width="2"/><rect x="7228" y="694.6665445963542" width="8" height="11.333211263020758" fill="#ef5350"/><line x1="7244" y1="702.7069091796875" x2="7244" y2="729.33349609375" stroke="#ef5350" stroke-width="2"/><rect x="7240" y="704.6671549479167" width="8" height="19.332885742187386" fill="#ef5350"/><line x1="7256" y1="727.9998779296875" x2="7256" y2="767.3329671223959" stroke="#ef5350" stroke-width="2"/><rect x="7252" y="728.6661783854166" width="8" height="33.2672119140625" fill="#ef5350"/><line x1="7268" y1="722.0001220703125" x2="7268" y2="775.9999593098959" stroke="#26a69a" stroke-width="2"/><rect x="7264" y="748.6735026041666" width="8" height="13.993326822916742" fill="#26a69a"/><line x1="7280" y1="739.4602457682291" x2="7280" y2="783.3333333333334" stroke="#ef5350" stroke-width="2"/><rect x="7276" y="749.3336995442709" width="8" height="31.999715169270758" fill="#ef5350"/><line x1="7292" y1="752.6662190755209" x2="7292" y2="796.0001627604166" stroke="#26a69a" stroke-width="2"/><rect x="7288" y="752.6662190755209" width="8" height="24.493408203125" fill="#26a69a"/><line x1="7304" y1="738.00048828125" x2="7304" y2="781.9997151692709" stroke="#26a69a" stroke-width="2"/><rect x="7300" y="747.3337809244791" width="8" height="7.3333740234375" fill="#26a69a"/><line x1="7316" y1="716.0003662109375" x2="7316" y2="768.0002848307291" stroke="#26a69a" stroke-width="2"/><rect x="7312" y="740.032958984375" width="8" height="13.006591796875" fill="#26a69a"/><line x1="7328" y1="717.3329671223958" x2="7328" y2="756.6670735677084" stroke="#ef5350" stroke-width="2"/><rect x="7324" y="740.6667073567709" width="8" height="14.866129557291629" fill="#ef5350"/><line x1="7340" y1="688.00048828125" x2="7340" y2="755.3334554036459" stroke="#26a69a" stroke-width="2"/><rect x="7336" y="699.3662516276042" width="8" height="55.96720377604163" fill="#26a69a"/><line x1="7352" y1="705.999755859375" x2="7352" y2="755.999755859375" stroke="#ef5350" stroke-width="2"/><rect x="7348" y="706.6670735677083" width="8" height="37.33317057291674" fill="#ef5350"/><line x1="7364" y1="722.6664225260416" x2="7364" y2="751.9999186197916" stroke="#ef5350" stroke-width="2"/><rect x="7360" y="741.3330078125" width="8" height="2" fill="#ef5350"/><line x1="7376" y1="713.00048828125" x2="7376" y2="756.6670735677084" stroke="#26a69a" stroke-width="2"/><rect x="7372" y="716.3330078125" width="8" height="28.33353678385413" fill="#26a69a"/><line x1="7388" y1="713.4663899739583" x2="7388" y2="753.9998372395834" stroke="#ef5350" stroke-width="2"/><rect x="7384" y="716.6666666666667" width="8" height="32.333374023437386" fill="#ef5350"/><line x1="7400" y1="701.3336181640625" x2="7400" y2="744.000244140625" stroke="#26a69a" stroke-width="2"/><rect x="7396" y="705.999755859375" width="8" height="30.6671142578125" fill="#26a69a"/><line x1="7412" y1="667.3329671223958" x2="7412" y2="711.99951171875" stroke="#26a69a" stroke-width="2"/><rect x="7408" y="667.340087890625" width="8" height="37.32706705729174" fill="#26a69a"/><line x1="7424" y1="672.7335611979167" x2="7424" y2="741.2668863932291" stroke="#ef5350" stroke-width="2"/><rect x="7420" y="673.333740234375" width="8" height="65.99934895833337" fill="#ef5350"/><line x1="7436" y1="717.3329671223958" x2="7436" y2="742.0003255208334" stroke="#26a69a" stroke-width="2"/><rect x="7432" y="735.3403727213541" width="8" height="3.326416015625" fill="#26a69a"/><line x1="7448" y1="733.9996337890625" x2="7448" y2="754.6671549479166" stroke="#26a69a" stroke-width="2"/><rect x="7444" y="734.6598307291666" width="8" height="3.3406575520833712" fill="#26a69a"/><line x1="7460" y1="713.3331298828125" x2="7460" y2="744.000244140625" stroke="#26a69a" stroke-width="2"/><rect x="7456" y="726.666259765625" width="8" height="12.000528971354129" fill="#26a69a"/><line x1="7472" y1="703.9937337239583" x2="7472" y2="754.6671549479166" stroke="#ef5350" stroke-width="2"/><rect x="7468" y="729.9997965494791" width="8" height="23.333740234375" fill="#ef5350"/><line x1="7484" y1="735.9995524088541" x2="7484" y2="772.0001220703125" stroke="#26a69a" stroke-width="2"/><rect x="7480" y="740.0004069010416" width="8" height="11.339314778645871" fill="#26a69a"/><line x1="7496" y1="727.9998779296875" x2="7496" y2="763.9129638671875" stroke="#ef5350" stroke-width="2"/><rect x="7492" y="738.00048828125" width="8" height="25.9124755859375" fill="#ef5350"/><line x1="7508" y1="764.0004475911459" x2="7508" y2="814.0869140625" stroke="#ef5350" stroke-width="2"/><rect x="7504" y="764.0004475911459" width="8" height="48.11299641927076" fill="#ef5350"/><line x1="7520" y1="800.0" x2="7520" y2="837.9730224609375" stroke="#ef5350" stroke-width="2"/><rect x="7516" y="811.3332112630209" width="8" height="16.0003662109375" fill="#ef5350"/><line x1="7532" y1="819.3328857421875" x2="7532" y2="865.8599853515625" stroke="#ef5350" stroke-width="2"/><rect x="7528" y="827.3335774739584" width="8" height="37.33317057291663" fill="#ef5350"/><line x1="7544" y1="813.3331298828125" x2="7544" y2="864.0004475911459" stroke="#26a69a" stroke-width="2"/><rect x="7540" y="842.0003255208334" width="8" height="22.0001220703125" fill="#26a69a"/><line x1="7556" y1="809.9995930989584" x2="7556" y2="860.6669108072916" stroke="#26a69a" stroke-width="2"/><rect x="7552" y="843.3329264322916" width="8" height="4.0008544921875" fill="#26a69a"/><rect x="6627" y="876.7905089594432" width="10" height="143.20949104055683" fill="#ef5350" opacity="0.9"/><rect x="6639" y="982.1967248195159" width="10" height="37.80327518048409" fill="#26a69a" opacity="0.9"/><rect x="6651" y="970.460896056944" width="10" height="49.539103943056034" fill="#ef5350" opacity="0.9"/><rect x="6663" y="987.1876302244648" width="10" height="32.81236977553522" fill="#26a69a" opacity="0.9"/><rect x="6675" y="984.5559697710302" width="10" height="35.44403022896984" fill="#26a69a" opacity="0.9"/><rect x="6687" y="983.2665363952742" width="10" height="36.733463604725785" fill="#26a69a" opacity="0.9"/><rect x="6699" y="995.1218900989987" width="10" height="24.878109901001267" fill="#ef5350" opacity="0.9"/><rect x="6711" y="986.3323722533197" width="10" height="33.667627746680296" fill="#ef5350" opacity="0.9"/><rect x="6723" y="1001.8186656004685" width="10" height="18.181334399531465" fill="#ef5350" opacity="0.9"/><rect x="6735" y="1001.1686695423982" width="10" height="18.83133045760178" fill="#26a69a" opacity="0.9"/><rect x="6747" y="998.290779263197" width="10" height="21.70922073680299" fill="#26a69a" opacity="0.9"/><rect x="6759" y="999.4463278108775" width="10" height="20.553672189122494" fill="#26a69a" opacity="0.9"/><rect x="6771" y="993.0261913074818" width="10" height="26.97380869251822" fill="#ef5350" opacity="0.9"/><rect x="6783" y="997.1428330085934" width="10" height="22.857166991406643" fill="#26a69a" opacity="0.9"/><rect x="6795" y="992.3170663032583" width="10" height="27.682933696741657" fill="#26a69a" opacity="0.9"/><rect x="6807" y="989.060328419061" width="10" height="30.939671580939034" fill="#ef5350" opacity="0.9"/><rect x="6819" y="860.0" width="10" height="160.0" fill="#ef5350" opacity="0.9"/><rect x="6831" y="995.2393032920745" width="10" height="24.76069670792549" fill="#ef5350" opacity="0.9"/><rect x="6843" y="984.5242935498767" width="10" height="35.47570645012331" fill="#ef5350" opacity="0.9"/><rect x="6855" y="985.3947561071755" width="10" height="34.60524389282455" fill="#ef5350" opacity="0.9"/><rect x="6867" y="994.896777754001" width="10" height="25.10322224599895" fill="#ef5350" opacity="0.9"/><rect x="6879" y="984.7396918537206" width="10" height="35.260308146279385" fill="#ef5350" opacity="0.9"/><rect x="6891" y="970.7426032504027" width="10" height="49.25739674959732" fill="#ef5350" opacity="0.9"/><rect x="6903" y="960.8469517620426" width="10" height="59.153048237957364" fill="#ef5350" opacity="0.9"/><rect x="6915" y="972.3281037065402" width="10" height="47.67189629345978" fill="#ef5350" opacity="0.9"/><rect x="6927" y="975.4556026084313" width="10" height="44.54439739156874" fill="#ef5350" opacity="0.9"/><rect x="6939" y="951.3723828402167" width="10" height="68.62761715978331" fill="#ef5350" opacity="0.9"/><rect x="6951" y="977.0482830080302" width="10" height="42.95171699196976" fill="#26a69a" opacity="0.9"/><rect x="6963" y="968.5653909831173" width="10" height="51.434609016882746" fill="#ef5350" opacity="0.9"/><rect x="6975" y="951.2642613386794" width="10" height="68.73573866132062" fill="#ef5350" opacity="0.9"/><rect x="6987" y="953.8536868305758" width="10" height="66.14631316942416" fill="#26a69a" opacity="0.9"/><rect x="6999" y="954.5860410636453" width="10" height="65.41395893635467" fill="#ef5350" opacity="0.9"/><rect x="7011" y="945.4434389395083" width="10" height="74.55656106049173" fill="#ef5350" opacity="0.9"/><rect x="7023" y="962.9726373762516" width="10" height="57.027362623748445" fill="#ef5350" opacity="0.9"/><rect x="7035" y="950.9352509882981" width="10" height="69.0647490117019" fill="#ef5350" opacity="0.9"/><rect x="7047" y="960.9288875874264" width="10" height="59.0711124125736" fill="#26a69a" opacity="0.9"/><rect x="7059" y="959.9393224385904" width="10" height="60.06067756140965" fill="#ef5350" opacity="0.9"/><rect x="7071" y="966.1026703758348" width="10" height="53.897329624165195" fill="#26a69a" opacity="0.9"/><rect x="7083" y="984.6294586041064" width="10" height="35.37054139589361" fill="#ef5350" opacity="0.9"/><rect x="7095" y="983.4063341179651" width="10" height="36.593665882034884" fill="#ef5350" opacity="0.9"/><rect x="7107" y="971.6950016330852" width="10" height="48.30499836691479" fill="#ef5350" opacity="0.9"/><rect x="7119" y="978.0695243780198" width="10" height="41.930475621980236" fill="#26a69a" opacity="0.9"/><rect x="7131" y="982.9734257622002" width="10" height="37.026574237799764" fill="#26a69a" opacity="0.9"/><rect x="7143" y="983.2817409814279" width="10" height="36.7182590185721" fill="#26a69a" opacity="0.9"/><rect x="7155" y="977.6214114361013" width="10" height="42.37858856389869" fill="#26a69a" opacity="0.9"/><rect x="7167" y="958.892740091678" width="10" height="61.10725990832202" fill="#ef5350" opacity="0.9"/><rect x="7179" y="979.0489531360867" width="10" height="40.95104686391335" fill="#ef5350" opacity="0.9"/><rect x="7191" y="984.2763743256485" width="10" height="35.723625674351524" fill="#26a69a" opacity="0.9"/><rect x="7203" y="979.072604714548" width="10" height="40.92739528545201" fill="#ef5350" opacity="0.9"/><rect x="7215" y="979.5844924483889" width="10" height="40.415507551611086" fill="#ef5350" opacity="0.9"/><rect x="7227" y="1000.4831961166361" width="10" height="19.516803883363878" fill="#ef5350" opacity="0.9"/><rect x="7239" y="995.2984322382277" width="10" height="24.701567761772253" fill="#ef5350" opacity="0.9"/><rect x="7251" y="979.732314813772" width="10" height="40.26768518622805" fill="#ef5350" opacity="0.9"/><rect x="7263" y="984.8642849902578" width="10" height="35.13571500974217" fill="#26a69a" opacity="0.9"/><rect x="7275" y="988.9969759767539" width="10" height="31.0030240232461" fill="#ef5350" opacity="0.9"/><rect x="7287" y="994.269166225546" width="10" height="25.730833774454027" fill="#26a69a" opacity="0.9"/><rect x="7299" y="985.0150638029486" width="10" height="34.98493619705141" fill="#26a69a" opacity="0.9"/><rect x="7311" y="983.3505839687349" width="10" height="36.649416031265105" fill="#26a69a" opacity="0.9"/><rect x="7323" y="985.8910169052473" width="10" height="34.108983094752716" fill="#ef5350" opacity="0.9"/><rect x="7335" y="993.859487098627" width="10" height="26.140512901372972" fill="#26a69a" opacity="0.9"/><rect x="7347" y="996.941372242057" width="10" height="23.058627757942986" fill="#ef5350" opacity="0.9"/><rect x="7359" y="997.0030352859026" width="10" height="22.99696471409743" fill="#ef5350" opacity="0.9"/><rect x="7371" y="996.0578168466815" width="10" height="23.942183153318524" fill="#26a69a" opacity="0.9"/><rect x="7383" y="994.2324218090079" width="10" height="25.76757819099214" fill="#ef5350" opacity="0.9"/><rect x="7395" y="994.914516437847" width="10" height="25.085483562152945" fill="#26a69a" opacity="0.9"/><rect x="7407" y="996.3796472536012" width="10" height="23.620352746398794" fill="#26a69a" opacity="0.9"/><rect x="7419" y="988.863935847909" width="10" height="31.136064152090967" fill="#ef5350" opacity="0.9"/><rect x="7431" y="997.5385745982047" width="10" height="22.46142540179528" fill="#26a69a" opacity="0.9"/><rect x="7443" y="992.0091734336461" width="10" height="27.990826566353917" fill="#26a69a" opacity="0.9"/><rect x="7455" y="995.3246179143813" width="10" height="24.675382085618708" fill="#26a69a" opacity="0.9"/><rect x="7467" y="998.3190766874275" width="10" height="21.68092331257253" fill="#ef5350" opacity="0.9"/><rect x="7479" y="996.0100913401435" width="10" height="23.989908659856496" fill="#26a69a" opacity="0.9"/><rect x="7491" y="997.7683327889716" width="10" height="22.231667211028366" fill="#ef5350" opacity="0.9"/><rect x="7503" y="981.2020914752953" width="10" height="38.79790852470467" fill="#ef5350" opacity="0.9"/><rect x="7515" y="985.4918965187129" width="10" height="34.508103481287094" fill="#ef5350" opacity="0.9"/><rect x="7527" y="969.7226289292593" width="10" height="50.27737107074074" fill="#ef5350" opacity="0.9"/><rect x="7539" y="967.4005507438984" width="10" height="52.59944925610159" fill="#26a69a" opacity="0.9"/><rect x="7551" y="922.8202817916633" width="10" height="97.17971820833668" fill="#26a69a" opacity="0.9"/><polyline points="320,139.22956194196377,332,155.2394488068653,344,171.43889738279836,356,186.41292414495183,368,202.43713660237677,380,220.80815645473035,392,241.6200548107288,404,260.1959419827722,416,283.03442369869845,428,309.8025869984742,440,331.3451551327962,452,354.7408468934634,464,378.73382086244004,476,404.56869506601646,488,427.94310505972817,500,447.37706792730404,512,468.3888028704871,524,484.92323359909244,536,505.02579828112175,548,524.864591766997,560,542.750519163197,572,555.0600051543503,584,563.5292446498189,596,566.3042333476028,608,563.926021391878,620,566.726679014774,632,571.355857061233,644,573.8934022344685,656,579.236868359707,668,589.2778286585345,680,600.3942026776637,692,612.1661872502765,704,626.4297303978196,716,638.071994417472,728,651.715939207573,740,661.330251575949,752,669.5210638948577,764,676.2364824748129,776,683.7885162309306,788,685.2721100782333,800,690.8652657032217,812,695.7987285863965,824,697.7543742269763,836,702.634913890131,848,702.9553750300597,860,699.5634429215424,872,703.3510282807015,884,706.3976325131439,896,709.0892704384789,908,710.7632694220172,920,714.8175805993351,932,717.215945009021,944,721.6632801383714,956,730.2775814595179,968,739.5210096513684,980,751.4396514033214,992,760.0644775097502,1004,767.9948059785639" fill="none" stroke="#0090ff" stroke-width="2"/><line x1="80" y1="50" x2="80" y2="900" stroke="#666666" stroke-width="0.5" stroke-dasharray="4,4" opacity="0.90"/><line x1="152" y1="50" x2="152" y2="900" stroke="#666666" stroke-width="0.5" stroke-dasharray="4,4" opacity="0.90"/><line x1="224" y1="50" x2="224" y2="900" stroke="#666666" stroke-width="0.5" stroke-dasharray="4,4" opacity="0.90"/><line x1="290" y1="30" x2="290" y2="950" stroke="black" stroke-width="0.7"/><line x1="296" y1="50" x2="296" y2="900" stroke="#666666" stroke-width="0.5" stroke-dasharray="4,4" opacity="0.90"/><line x1="368" y1="50" x2="368" y2="900" stroke="#666666" stroke-width="0.5" stroke-dasharray="4,4" opacity="0.90"/><line x1="440" y1="50" x2="440" y2="900" stroke="#666666" stroke-width="0.5" stroke-dasharray="4,4" opacity="0.90"/><line x1="512" y1="50" x2="512" y2="900" stroke="#666666" stroke-width="0.5" stroke-dasharray="4,4" opacity="0.90"/><line x1="584" y1="50" x2="584" y2="900" stroke="#666666" stroke-width="0.5" stroke-dasharray="4,4" opacity="0.90"/><line x1="656" y1="50" x2="656" y2="900" stroke="#666666" stroke-width="0.5" stroke-dasharray="4,4" opacity="0.90"/><line x1="728" y1="50" x2="728" y2="900" stroke="#666666" stroke-width="0.5" stroke-dasharray="4,4" opacity="0.90"/><line x1="800" y1="50" x2="800" y2="900" stroke="#666666" stroke-width="0.5" stroke-dasharray="4,4" opacity="0.90"/><line x1="872" y1="50" x2="872" y2="900" stroke="#666666" stroke-width="0.5" stroke-dasharray="4,4" opacity="0.90"/><line x1="944" y1="50" x2="944" y2="900" stroke="#666666" stroke-width="0.5" stroke-dasharray="4,4" opacity="0.90"/><text x="80" y="1040" text-anchor="middle" font-size="20" fill="black">14:30</text><text x="152" y="1040" text-anchor="middle" font-size="20" fill="black">15:00</text><text x="224" y="1040" text-anchor="middle" font-size="20" fill="black">15:30</text><text x="296" y="1040" text-anchor="middle" font-size="20" fill="black">16:00</text><text x="368" y="1040" text-anchor="middle" font-size="20" fill="black">16:30</text><text x="440" y="1040" text-anchor="middle" font-size="20" fill="black">17:00</text><text x="512" y="1040" text-anchor="middle" font-size="20" fill="black">17:30</text><text x="584" y="1040" text-anchor="middle" font-size="20" fill="black">18:00</text><text x="656" y="1040" text-anchor="middle" font-size="20" fill="black">18:30</text><text x="728" y="1040" text-anchor="middle" font-size="20" fill="black">19:00</text><text x="800" y="1040" text-anchor="middle" font-size="20" fill="black">19:30</text><text x="872" y="1040" text-anchor="middle" font-size="20" fill="black">20:00</text><text x="944" y="1040" text-anchor="middle" font-size="20" fill="black">20:30</text><text x="1006" y="50" text-anchor="end" font-size="40" fill="#ef5350" font-weight="bold">▼ -4.27% (Thu)</text></svg>