<svg xmlns="http://www.w3.org/2000/svg" width="624" height="1050"><rect width="100%" height="100%" fill="white"/><text x="42" y="854.0" text-anchor="end" font-size="20" fill="black">254</text><text x="42" y="54.0" text-anchor="end" font-size="20" fill="black">255</text><line x1="11312" y1="842.00439453125" x2="11312" y2="1181.99462890625" stroke="#26a69a" stroke-width="2"/><rect x="11308" y="842.00439453125" width="8" height="279.99267578125" fill="#26a69a"/><line x1="11324" y1="642.00439453125" x2="11324" y2="1026.0009765625" stroke="#ef5350" stroke-width="2"/><rect x="11320" y="830.0048828125" width="8" height="188.00048828125" fill="#ef5350"/><line x1="11336" y1="978.0029296875" x2="11336" y2="1338.0859375" stroke="#ef5350" stroke-width="2"/><rect x="11332" y="1009.99755859375" width="8" height="107.2021484375" fill="#ef5350"/><line x1="11348" y1="869.9951171875" x2="11348" y2="1241.9189453125" stroke="#26a69a" stroke-width="2"/><rect x="11344" y="869.9951171875" width="8" height="300.0" fill="#26a69a"/><line x1="11360" y1="810.400390625" x2="11360" y2="1090.00244140625" stroke="#ef5350" stroke-width="2"/><rect x="11356" y="857.99560546875" width="8" height="84.08203125" fill="#ef5350"/><line x1="11372" y1="898.47412109375" x2="11372" y2="1085.205078125" stroke="#ef5350" stroke-width="2"/><rect x="11368" y="930.0048828125" width="8" height="119.9951171875" fill="#ef5350"/><line x1="11384" y1="897.998046875" x2="11384" y2="1090.00244140625" stroke="#ef5350" stroke-width="2"/><rect x="11380" y="1042.00439453125" width="8" height="47.998046875" fill="#ef5350"/><line x1="11396" y1="985.99853515625" x2="11396" y2="1154.00390625" stroke="#26a69a" stroke-width="2"/><rect x="11392" y="1006.005859375" width="8" height="139.990234375" fill="#26a69a"/><line x1="11408" y1="929.7607421875" x2="11408" y2="1106.005859375" stroke="#26a69a" stroke-width="2"/><rect x="11404" y="930.79833984375" width="8" height="56.005859375" fill="#26a69a"/><line x1="11420" y1="842.00439453125" x2="11420" y2="961.99951171875" stroke="#26a69a" stroke-width="2"/><rect x="11416" y="858.0810546875" width="8" height="43.9208984375" fill="#26a69a"/><line x1="11432" y1="774.560546875" x2="11432" y2="978.0029296875" stroke="#ef5350" stroke-width="2"/><rect x="11428" y="861.99951171875" width="8" height="100.0" fill="#ef5350"/><line x1="11444" y1="921.9970703125" x2="11444" y2="1137.9150390625" stroke="#ef5350" stroke-width="2"/><rect x="11440" y="938.00048828125" width="8" height="128.0029296875" fill="#ef5350"/><line x1="11456" y1="866.00341796875" x2="11456" y2="1138.00048828125" stroke="#26a69a" stroke-width="2"/><rect x="11452" y="952.001953125" width="8" height="105.99365234375" fill="#26a69a"/><line x1="11468" y1="881.99462890625" x2="11468" y2="1050.0" stroke="#ef5350" stroke-width="2"/><rect x="11464" y="954.00390625" width="8" height="95.99609375" fill="#ef5350"/><line x1="11480" y1="876.2451171875" x2="11480" y2="956.79931640625" stroke="#ef5350" stroke-width="2"/><rect x="11476" y="938.00048828125" width="8" height="7.99560546875" fill="#ef5350"/><line x1="11492" y1="806.005859375" x2="11492" y2="961.99951171875" stroke="#26a69a" stroke-width="2"/><rect x="11488" y="806.005859375" width="8" height="115.9912109375" fill="#26a69a"/><line x1="11504" y1="654.00390625" x2="11504" y2="785.99853515625" stroke="#26a69a" stroke-width="2"/><rect x="11500" y="661.99951171875" width="8" height="116.00341796875" fill="#26a69a"/><line x1="11516" y1="690.00244140625" x2="11516" y2="818.00537109375" stroke="#ef5350" stroke-width="2"/><rect x="11512" y="690.00244140625" width="8" height="79.99267578125" fill="#ef5350"/><line x1="11528" y1="674.08447265625" x2="11528" y2="818.00537109375" stroke="#26a69a" stroke-width="2"/><rect x="11524" y="705.2001953125" width="8" height="34.6435546875" fill="#26a69a"/><line x1="11540" y1="554.00390625" x2="11540" y2="714.24560546875" stroke="#26a69a" stroke-width="2"/><rect x="11536" y="554.00390625" width="8" height="123.9990234375" fill="#26a69a"/><line x1="11552" y1="554.00390625" x2="11552" y2="641.9189453125" stroke="#ef5350" stroke-width="2"/><rect x="11548" y="555.35888671875" width="8" height="23.681640625" fill="#ef5350"/><line x1="11564" y1="538.00048828125" x2="11564" y2="602.001953125" stroke="#ef5350" stroke-width="2"/><rect x="11560" y="561.99951171875" width="8" height="34.24072265625" fill="#ef5350"/><line x1="11576" y1="609.99755859375" x2="11576" y2="814.00146484375" stroke="#ef5350" stroke-width="2"/><rect x="11572" y="609.99755859375" width="8" height="159.99755859375" fill="#ef5350"/><line x1="11588" y1="815.283203125" x2="11588" y2="1073.9990234375" stroke="#ef5350" stroke-width="2"/><rect x="11584" y="815.283203125" width="8" height="91.44287109375" fill="#ef5350"/><line x1="11600" y1="762.40234375" x2="11600" y2="1014.00146484375" stroke="#26a69a" stroke-width="2"/><rect x="11596" y="785.99853515625" width="8" height="128.0029296875" fill="#26a69a"/><line x1="11612" y1="673.9990234375" x2="11612" y2="833.99658203125" stroke="#26a69a" stroke-width="2"/><rect x="11608" y="738.00048828125" width="8" height="71.9970703125" fill="#26a69a"/><line x1="11624" y1="730.0048828125" x2="11624" y2="961.99951171875" stroke="#ef5350" stroke-width="2"/><rect x="11620" y="730.0048828125" width="8" height="47.998046875" fill="#ef5350"/><line x1="11636" y1="678.0029296875" x2="11636" y2="793.994140625" stroke="#26a69a" stroke-width="2"/><rect x="11632" y="729.91943359375" width="8" height="52.0751953125" fill="#26a69a"/><line x1="11648" y1="573.9990234375" x2="11648" y2="778.0029296875" stroke="#26a69a" stroke-width="2"/><rect x="11644" y="638.00048828125" width="8" height="92.00439453125" fill="#26a69a"/><line x1="11660" y1="581.99462890625" x2="11660" y2="697.998046875" stroke="#26a69a" stroke-width="2"/><rect x="11656" y="609.99755859375" width="8" height="32.0068359375" fill="#26a69a"/><line x1="11672" y1="618.00537109375" x2="11672" y2="778.0029296875" stroke="#ef5350" stroke-width="2"/><rect x="11668" y="618.00537109375" width="8" height="35.99853515625" fill="#ef5350"/><line x1="11684" y1="530.0048828125" x2="11684" y2="650.0" stroke="#26a69a" stroke-width="2"/><rect x="11680" y="557.51953125" width="8" height="92.48046875" fill="#26a69a"/><line x1="11696" y1="526.2451171875" x2="11696" y2="612.24365234375" stroke="#ef5350" stroke-width="2"/><rect x="11692" y="554.00390625" width="8" height="27.99072265625" fill="#ef5350"/><line x1="11708" y1="578.0029296875" x2="11708" y2="673.9990234375" stroke="#ef5350" stroke-width="2"/><rect x="11704" y="585.99853515625" width="8" height="88.00048828125" fill="#ef5350"/><line x1="11720" y1="593.994140625" x2="11720" y2="698.08349609375" stroke="#26a69a" stroke-width="2"/><rect x="11716" y="678.0029296875" width="8" height="19.9951171875" fill="#26a69a"/><line x1="11732" y1="554.00390625" x2="11732" y2="666.00341796875" stroke="#26a69a" stroke-width="2"/><rect x="11728" y="657.99560546875" width="8" height="2" fill="#26a69a"/><line x1="11744" y1="657.99560546875" x2="11744" y2="745.99609375" stroke="#ef5350" stroke-width="2"/><rect x="11740" y="657.99560546875" width="8" height="86.4013671875" fill="#ef5350"/><line x1="11756" y1="650.0" x2="11756" y2="820.2392578125" stroke="#ef5350" stroke-width="2"/><rect x="11752" y="706.005859375" width="8" height="111.99951171875" fill="#ef5350"/><line x1="11768" y1="730.0048828125" x2="11768" y2="850.0" stroke="#ef5350" stroke-width="2"/><rect x="11764" y="818.00537109375" width="8" height="31.99462890625" fill="#ef5350"/><line x1="11780" y1="761.99951171875" x2="11780" y2="873.9990234375" stroke="#26a69a" stroke-width="2"/><rect x="11776" y="769.9951171875" width="8" height="96.00830078125" fill="#26a69a"/><line x1="11792" y1="521.9970703125" x2="11792" y2="778.0029296875" stroke="#26a69a" stroke-width="2"/><rect x="11788" y="530.0048828125" width="8" height="247.998046875" fill="#26a69a"/><line x1="11804" y1="98.8037109375" x2="11804" y2="521.9970703125" stroke="#26a69a" stroke-width="2"/><rect x="11800" y="130.0048828125" width="8" height="391.9921875" fill="#26a69a"/><rect x="11307" y="860.0" width="10" height="160.0" fill="#26a69a" opacity="0.9"/><rect x="11319" y="975.6955597754588" width="10" height="44.30444022454117" fill="#ef5350" opacity="0.9"/><rect x="11331" y="983.5470601891813" width="10" height="36.45293981081875" fill="#ef5350" opacity="0.9"/><rect x="11343" y="994.8684719650926" width="10" height="25.131528034907433" fill="#26a69a" opacity="0.9"/><rect x="11355" y="994.8863304898593" width="10" height="25.113669510140653" fill="#ef5350" opacity="0.9"/><rect x="11367" y="999.3875716573307" width="10" height="20.61242834266932" fill="#ef5350" opacity="0.9"/><rect x="11379" y="993.2897783757077" width="10" height="26.71022162429233" fill="#ef5350" opacity="0.9"/><rect x="11391" y="994.4961217237048" width="10" height="25.503878276295154" fill="#26a69a" opacity="0.9"/><rect x="11403" y="993.15941114491" width="10" height="26.840588855090004" fill="#26a69a" opacity="0.9"/><rect x="11415" y="993.3996083030235" width="10" height="26.600391696976544" fill="#26a69a" opacity="0.9"/><rect x="11427" y="991.5333924648932" width="10" height="28.466607535106846" fill="#ef5350" opacity="0.9"/><rect x="11439" y="995.6015644067696" width="10" height="24.398435593230374" fill="#ef5350" opacity="0.9"/><rect x="11451" y="989.570740593022" width="10" height="30.429259406977962" fill="#26a69a" opacity="0.9"/><rect x="11463" y="993.5201533451993" width="10" height="26.479846654800667" fill="#ef5350" opacity="0.9"/><rect x="11475" y="1001.5189865882479" width="10" height="18.481013411752087" fill="#ef5350" opacity="0.9"/><rect x="11487" y="1002.2083256442463" width="10" height="17.791674355753685" fill="#26a69a" opacity="0.9"/><rect x="11499" y="1000.0420865900337" width="10" height="19.957913409966295" fill="#26a69a" opacity="0.9"/><rect x="11511" y="1000.7841082940942" width="10" height="19.215891705905847" fill="#ef5350" opacity="0.9"/><rect x="11523" y="995.9587349021056" width="10" height="24.04126509789444" fill="#26a69a" opacity="0.9"/><rect x="11535" y="990.7154720305738" width="10" height="29.28452796942622" fill="#26a69a" opacity="0.9"/><rect x="11547" y="999.8670730473191" width="10" height="20.13292695268092" fill="#ef5350" opacity="0.9"/><rect x="11559" y="1003.4968182061707" width="10" height="16.5031817938293" fill="#ef5350" opacity="0.9"/><rect x="11571" y="991.6289355723954" width="10" height="28.37106442760455" fill="#ef5350" opacity="0.9"/><rect x="11583" y="983.2131057760422" width="10" height="36.7868942239578" fill="#ef5350" opacity="0.9"/><rect x="11595" y="994.202348991291" width="10" height="25.797651008708954" fill="#26a69a" opacity="0.9"/><rect x="11607" y="998.6535862894152" width="10" height="21.346413710584784" fill="#26a69a" opacity="0.9"/><rect x="11619" y="998.0901498330228" width="10" height="21.909850166977208" fill="#ef5350" opacity="0.9"/><rect x="11631" y="998.8223493484614" width="10" height="21.177650651538556" fill="#26a69a" opacity="0.9"/><rect x="11643" y="978.4930976801776" width="10" height="41.506902319822416" fill="#26a69a" opacity="0.9"/><rect x="11655" y="982.9443349783019" width="10" height="37.05566502169813" fill="#26a69a" opacity="0.9"/><rect x="11667" y="1000.9903742551506" width="10" height="19.00962574484936" fill="#ef5350" opacity="0.9"/><rect x="11679" y="991.4985683415979" width="10" height="28.50143165840211" fill="#26a69a" opacity="0.9"/><rect x="11691" y="998.2258746212505" width="10" height="21.774125378749545" fill="#ef5350" opacity="0.9"/><rect x="11703" y="925.0755713239715" width="10" height="94.92442867602847" fill="#ef5350" opacity="0.9"/><rect x="11715" y="994.433616887021" width="10" height="25.566383112978997" fill="#26a69a" opacity="0.9"/><rect x="11727" y="983.3934768761868" width="10" height="36.60652312381319" fill="#26a69a" opacity="0.9"/><rect x="11739" y="999.9947614994018" width="10" height="20.00523850059824" fill="#ef5350" opacity="0.9"/><rect x="11751" y="998.8339573895599" width="10" height="21.16604261044006" fill="#ef5350" opacity="0.9"/><rect x="11763" y="984.6123211915208" width="10" height="35.38767880847922" fill="#ef5350" opacity="0.9"/><rect x="11775" y="997.3222332680505" width="10" height="22.677766731949532" fill="#26a69a" opacity="0.9"/><rect x="11787" y="978.3841606791002" width="10" height="41.615839320899795" fill="#26a69a" opacity="0.9"/><rect x="11799" y="930.4983123694095" width="10" height="89.50168763059048" fill="#26a69a" opacity="0.9"/><polyline points="320,878.3613223121392,332,851.4926472705156,344,843.7309777388009,356,849.7305107368902,368,843.6607987768411,380,833.5979120629872,392,828.3031518367579,404,818.9332739088513,416,801.7015800395711,428,783.4440541875892,440,771.1164210506695,452,750.7738601172832,464,734.6996476209824,476,728.9186357939798,488,724.069520926696,500,717.7767670735648,512,720.3120247481138,524,729.6161529715164,536,741.0812812599488,548,743.8349799197113,560,723.4702087666392,572,666.9497015329171" fill="none" stroke="#0090ff" stroke-width="2"/><line x1="80" y1="50" x2="80" y2="900" stroke="#666666" stroke-width="0.5" stroke-dasharray="4,4" opacity="0.90"/><line x1="152" y1="50" x2="152" y2="900" stroke="#666666" stroke-width="0.5" stroke-dasharray="4,4" opacity="0.90"/><line x1="224" y1="50" x2="224" y2="900" stroke="#666666" stroke-width="0.5" stroke-dasharray="4,4" opacity="0.90"/><line x1="290" y1="30" x2="290" y2="950" stroke="black" stroke-width="0.7"/><line x1="296" y1="50" x2="296" y2="900" stroke="#666666" stroke-width="0.5" stroke-dasharray="4,4" opacity="0.90"/><line x1="368" y1="50" x2="368" y2="900" stroke="#666666" stroke-width="0.5" stroke-dasharray="4,4" opacity="0.90"/><line x1="440" y1="50" x2="440" y2="900" stroke="#666666" stroke-width="0.5" stroke-dasharray="4,4" opacity="0.90"/><line x1="512" y1="50" x2="512" y2="900" stroke="#666666" stroke-width="0.5" stroke-dasharray="4,4" opacity="0.90"/><text x="80" y="1040" text-anchor="middle" font-size="20" fill="black">14:30</text><text x="152" y="1040" text-anchor="middle" font-size="20" fill="black">15:00</text><text x="224" y="1040" text-anchor="middle" font-size="20" fill="black">15:30</text><text x="296" y="1040" text-anchor="middle" font-size="20" fill="black">16:00</text><text x="368" y="1040" text-anchor="middle" font-size="20" fill="black">16:30</text><text x="440" y="1040" text-anchor="middle" font-size="20" fill="black">17:00</text><text x="512" y="1040" text-anchor="middle" font-size="20" fill="black">17:30</text><text x="574" y="50" text-anchor="end" font-size="40" fill="#26a69a" font-weight="bold">▲ +0.49% (Fri)</text></svg>