<svg xmlns="http://www.w3.org/2000/svg" width="1056" height="1050"><rect width="100%" height="100%" fill="white"/><text x="42" y="854.0" text-anchor="end" font-size="20" fill="black">257</text><text x="42" y="454.0" text-anchor="end" font-size="20" fill="black">258</text><text x="42" y="54.0" text-anchor="end" font-size="20" fill="black">259</text><line x1="46004" y1="909.99755859375" x2="46004" y2="1181.99462890625" stroke="#26a69a" stroke-width="2"/><rect x="46000" y="933.99658203125" width="8" height="80.0048828125" fill="#26a69a"/><line x1="46016" y1="826.0009765625" x2="46016" y2="933.99658203125" stroke="#26a69a" stroke-width="2"/><rect x="46012" y="850.0" width="8" height="80.0048828125" fill="#26a69a"/><line x1="46028" y1="714.0380859375" x2="46028" y2="933.99658203125" stroke="#26a69a" stroke-width="2"/><rect x="46024" y="750.03662109375" width="8" height="107.958984375" fill="#26a69a"/><line x1="46040" y1="685.99853515625" x2="46040" y2="802.001953125" stroke="#ef5350" stroke-width="2"/><rect x="46036" y="742.00439453125" width="8" height="56.55517578125" fill="#ef5350"/><line x1="46052" y1="673.9990234375" x2="46052" y2="790.00244140625" stroke="#26a69a" stroke-width="2"/><rect x="46048" y="733.99658203125" width="8" height="44.00634765625" fill="#26a69a"/><line x1="46064" y1="606.005859375" x2="46064" y2="723.9990234375" stroke="#26a69a" stroke-width="2"/><rect x="46060" y="671.9970703125" width="8" height="52.001953125" fill="#26a69a"/><line x1="46076" y1="645.99609375" x2="46076" y2="706.005859375" stroke="#26a69a" stroke-width="2"/><rect x="46072" y="658.3984375" width="8" height="23.59619140625" fill="#26a69a"/><line x1="46088" y1="633.9599609375" x2="46088" y2="733.99658203125" stroke="#ef5350" stroke-width="2"/><rect x="46084" y="659.99755859375" width="8" height="73.9990234375" fill="#ef5350"/><line x1="46100" y1="645.99609375" x2="46100" y2="797.998046875" stroke="#26a69a" stroke-width="2"/><rect x="46096" y="667.919921875" width="8" height="54.0771484375" fill="#26a69a"/><line x1="46112" y1="530.0048828125" x2="46112" y2="681.99462890625" stroke="#26a69a" stroke-width="2"/><rect x="46108" y="538.00048828125" width="8" height="119.9951171875" fill="#26a69a"/><line x1="46124" y1="474.84130859375" x2="46124" y2="531.23779296875" stroke="#26a69a" stroke-width="2"/><rect x="46120" y="502.03857421875" width="8" height="29.19921875" fill="#26a69a"/><line x1="46136" y1="500.0" x2="46136" y2="650.0" stroke="#ef5350" stroke-width="2"/><rect x="46132" y="500.0" width="8" height="140.00244140625" fill="#ef5350"/><line x1="46148" y1="545.99609375" x2="46148" y2="654.00390625" stroke="#26a69a" stroke-width="2"/><rect x="46144" y="581.99462890625" width="8" height="56.005859375" fill="#26a69a"/><line x1="46160" y1="509.99755859375" x2="46160" y2="621.9970703125" stroke="#26a69a" stroke-width="2"/><rect x="46156" y="569.9951171875" width="8" height="16.00341796875" fill="#26a69a"/><line x1="46172" y1="557.99560546875" x2="46172" y2="673.9990234375" stroke="#ef5350" stroke-width="2"/><rect x="46168" y="569.9951171875" width="8" height="85.48583984375" fill="#ef5350"/><line x1="46184" y1="533.99658203125" x2="46184" y2="652.001953125" stroke="#26a69a" stroke-width="2"/><rect x="46180" y="533.99658203125" width="8" height="96.00830078125" fill="#26a69a"/><line x1="46196" y1="445.99609375" x2="46196" y2="538.00048828125" stroke="#26a69a" stroke-width="2"/><rect x="46192" y="478.0029296875" width="8" height="36.03515625" fill="#26a69a"/><line x1="46208" y1="433.99658203125" x2="46208" y2="519.76318359375" stroke="#ef5350" stroke-width="2"/><rect x="46204" y="466.0400390625" width="8" height="27.9541015625" fill="#ef5350"/><line x1="46220" y1="443.994140625" x2="46220" y2="554.00390625" stroke="#26a69a" stroke-width="2"/><rect x="46216" y="484.31396484375" width="8" height="13.68408203125" fill="#26a69a"/><line x1="46232" y1="457.99560546875" x2="46232" y2="521.9970703125" stroke="#26a69a" stroke-width="2"/><rect x="46228" y="461.99951171875" width="8" height="25.8056640625" fill="#26a69a"/><line x1="46244" y1="442.00439453125" x2="46244" y2="493.994140625" stroke="#ef5350" stroke-width="2"/><rect x="46240" y="461.99951171875" width="8" height="16.00341796875" fill="#ef5350"/><line x1="46256" y1="466.00341796875" x2="46256" y2="573.9990234375" stroke="#ef5350" stroke-width="2"/><rect x="46252" y="478.0029296875" width="8" height="76.0009765625" fill="#ef5350"/><line x1="46268" y1="447.998046875" x2="46268" y2="606.005859375" stroke="#26a69a" stroke-width="2"/><rect x="46264" y="468.00537109375" width="8" height="94.03076171875" fill="#26a69a"/><line x1="46280" y1="385.99853515625" x2="46280" y2="478.0029296875" stroke="#26a69a" stroke-width="2"/><rect x="46276" y="403.91845703125" width="8" height="50.52490234375" fill="#26a69a"/><line x1="46292" y1="321.9970703125" x2="46292" y2="409.99755859375" stroke="#ef5350" stroke-width="2"/><rect x="46288" y="393.994140625" width="8" height="16.00341796875" fill="#ef5350"/><line x1="46304" y1="357.99560546875" x2="46304" y2="433.99658203125" stroke="#26a69a" stroke-width="2"/><rect x="46300" y="397.998046875" width="8" height="20.00732421875" fill="#26a69a"/><line x1="46316" y1="397.998046875" x2="46316" y2="438.00048828125" stroke="#ef5350" stroke-width="2"/><rect x="46312" y="400.0" width="8" height="28.0029296875" fill="#ef5350"/><line x1="46328" y1="391.796875" x2="46328" y2="469.9951171875" stroke="#ef5350" stroke-width="2"/><rect x="46324" y="430.0048828125" width="8" height="15.9912109375" fill="#ef5350"/><line x1="46340" y1="397.998046875" x2="46340" y2="450.0" stroke="#26a69a" stroke-width="2"/><rect x="46336" y="419.83642578125" width="8" height="10.16845703125" fill="#26a69a"/><line x1="46352" y1="382.04345703125" x2="46352" y2="430.0048828125" stroke="#26a69a" stroke-width="2"/><rect x="46348" y="407.99560546875" width="8" height="10.009765625" fill="#26a69a"/><line x1="46364" y1="293.994140625" x2="46364" y2="402.001953125" stroke="#26a69a" stroke-width="2"/><rect x="46360" y="318.00537109375" width="8" height="83.99658203125" fill="#26a69a"/><line x1="46376" y1="307.8369140625" x2="46376" y2="361.99951171875" stroke="#ef5350" stroke-width="2"/><rect x="46372" y="321.9970703125" width="8" height="40.00244140625" fill="#ef5350"/><line x1="46388" y1="357.99560546875" x2="46388" y2="385.99853515625" stroke="#ef5350" stroke-width="2"/><rect x="46384" y="357.99560546875" width="8" height="8.0078125" fill="#ef5350"/><line x1="46400" y1="350.0" x2="46400" y2="390.00244140625" stroke="#ef5350" stroke-width="2"/><rect x="46396" y="368.00537109375" width="8" height="2" fill="#ef5350"/><line x1="46412" y1="314.0380859375" x2="46412" y2="373.9990234375" stroke="#26a69a" stroke-width="2"/><rect x="46408" y="333.99658203125" width="8" height="32.0068359375" fill="#26a69a"/><line x1="46424" y1="318.00537109375" x2="46424" y2="369.9951171875" stroke="#ef5350" stroke-width="2"/><rect x="46420" y="333.99658203125" width="8" height="35.99853515625" fill="#ef5350"/><line x1="46436" y1="368.00537109375" x2="46436" y2="418.00537109375" stroke="#ef5350" stroke-width="2"/><rect x="46432" y="373.9990234375" width="8" height="16.00341796875" fill="#ef5350"/><line x1="46448" y1="361.99951171875" x2="46448" y2="406.005859375" stroke="#26a69a" stroke-width="2"/><rect x="46444" y="378.0029296875" width="8" height="2.44140625" fill="#26a69a"/><line x1="46460" y1="366.00341796875" x2="46460" y2="393.994140625" stroke="#ef5350" stroke-width="2"/><rect x="46456" y="376.1962890625" width="8" height="9.80224609375" fill="#ef5350"/><line x1="46472" y1="383.99658203125" x2="46472" y2="466.00341796875" stroke="#ef5350" stroke-width="2"/><rect x="46468" y="383.99658203125" width="8" height="70.00732421875" fill="#ef5350"/><line x1="46484" y1="418.00537109375" x2="46484" y2="492.00439453125" stroke="#26a69a" stroke-width="2"/><rect x="46480" y="445.99609375" width="8" height="8.28857421875" fill="#26a69a"/><line x1="46496" y1="423.3642578125" x2="46496" y2="478.0029296875" stroke="#ef5350" stroke-width="2"/><rect x="46492" y="450.0" width="8" height="4.04052734375" fill="#ef5350"/><line x1="46508" y1="431.99462890625" x2="46508" y2="502.001953125" stroke="#26a69a" stroke-width="2"/><rect x="46504" y="452.001953125" width="8" height="5.99365234375" fill="#26a69a"/><line x1="46520" y1="454.00390625" x2="46520" y2="518.00537109375" stroke="#ef5350" stroke-width="2"/><rect x="46516" y="456.005859375" width="8" height="57.99560546875" fill="#ef5350"/><line x1="46532" y1="469.9951171875" x2="46532" y2="506.005859375" stroke="#26a69a" stroke-width="2"/><rect x="46528" y="490.00244140625" width="8" height="11.962890625" fill="#26a69a"/><line x1="46544" y1="411.99951171875" x2="46544" y2="506.005859375" stroke="#26a69a" stroke-width="2"/><rect x="46540" y="426.0009765625" width="8" height="67.76123046875" fill="#26a69a"/><line x1="46556" y1="369.9951171875" x2="46556" y2="426.0009765625" stroke="#26a69a" stroke-width="2"/><rect x="46552" y="376.07421875" width="8" height="45.9228515625" fill="#26a69a"/><line x1="46568" y1="369.9951171875" x2="46568" y2="409.99755859375" stroke="#ef5350" stroke-width="2"/><rect x="46564" y="381.99462890625" width="8" height="4.00390625" fill="#ef5350"/><line x1="46580" y1="297.998046875" x2="46580" y2="390.00244140625" stroke="#26a69a" stroke-width="2"/><rect x="46576" y="326.0009765625" width="8" height="64.00146484375" fill="#26a69a"/><line x1="46592" y1="323.9990234375" x2="46592" y2="405.95703125" stroke="#ef5350" stroke-width="2"/><rect x="46588" y="326.123046875" width="8" height="79.833984375" fill="#ef5350"/><line x1="46604" y1="400.0" x2="46604" y2="442.00439453125" stroke="#ef5350" stroke-width="2"/><rect x="46600" y="406.005859375" width="8" height="25.98876953125" fill="#ef5350"/><line x1="46616" y1="432.23876953125" x2="46616" y2="469.9951171875" stroke="#ef5350" stroke-width="2"/><rect x="46612" y="432.23876953125" width="8" height="5.76171875" fill="#ef5350"/><line x1="46628" y1="398.40087890625" x2="46628" y2="444.1650390625" stroke="#26a69a" stroke-width="2"/><rect x="46624" y="409.99755859375" width="8" height="23.9990234375" fill="#26a69a"/><line x1="46640" y1="407.99560546875" x2="46640" y2="433.99658203125" stroke="#ef5350" stroke-width="2"/><rect x="46636" y="409.99755859375" width="8" height="8.0078125" fill="#ef5350"/><line x1="46652" y1="381.99462890625" x2="46652" y2="442.00439453125" stroke="#ef5350" stroke-width="2"/><rect x="46648" y="421.9970703125" width="8" height="14.404296875" fill="#ef5350"/><line x1="46664" y1="378.0029296875" x2="46664" y2="435.99853515625" stroke="#26a69a" stroke-width="2"/><rect x="46660" y="390.00244140625" width="8" height="43.95751953125" fill="#26a69a"/><line x1="46676" y1="366.00341796875" x2="46676" y2="390.00244140625" stroke="#26a69a" stroke-width="2"/><rect x="46672" y="378.0029296875" width="8" height="7.99560546875" fill="#26a69a"/><line x1="46688" y1="369.9951171875" x2="46688" y2="406.005859375" stroke="#ef5350" stroke-width="2"/><rect x="46684" y="385.99853515625" width="8" height="4.00390625" fill="#ef5350"/><line x1="46700" y1="388.00048828125" x2="46700" y2="466.00341796875" stroke="#ef5350" stroke-width="2"/><rect x="46696" y="390.00244140625" width="8" height="67.9931640625" fill="#ef5350"/><line x1="46712" y1="409.99755859375" x2="46712" y2="468.00537109375" stroke="#26a69a" stroke-width="2"/><rect x="46708" y="414.00146484375" width="8" height="47.998046875" fill="#26a69a"/><line x1="46724" y1="402.001953125" x2="46724" y2="447.998046875" stroke="#ef5350" stroke-width="2"/><rect x="46720" y="414.00146484375" width="8" height="16.00341796875" fill="#ef5350"/><line x1="46736" y1="402.001953125" x2="46736" y2="443.994140625" stroke="#26a69a" stroke-width="2"/><rect x="46732" y="409.99755859375" width="8" height="23.9990234375" fill="#26a69a"/><line x1="46748" y1="373.9990234375" x2="46748" y2="409.99755859375" stroke="#26a69a" stroke-width="2"/><rect x="46744" y="397.998046875" width="8" height="6.005859375" fill="#26a69a"/><line x1="46760" y1="390.00244140625" x2="46760" y2="461.99951171875" stroke="#ef5350" stroke-width="2"/><rect x="46756" y="397.998046875" width="8" height="50.0" fill="#ef5350"/><line x1="46772" y1="433.99658203125" x2="46772" y2="483.99658203125" stroke="#ef5350" stroke-width="2"/><rect x="46768" y="442.00439453125" width="8" height="41.9921875" fill="#ef5350"/><line x1="46784" y1="457.99560546875" x2="46784" y2="499.1943359375" stroke="#ef5350" stroke-width="2"/><rect x="46780" y="485.99853515625" width="8" height="9.99755859375" fill="#ef5350"/><line x1="46796" y1="473.9990234375" x2="46796" y2="521.9970703125" stroke="#26a69a" stroke-width="2"/><rect x="46792" y="481.99462890625" width="8" height="16.00341796875" fill="#26a69a"/><line x1="46808" y1="456.005859375" x2="46808" y2="481.99462890625" stroke="#26a69a" stroke-width="2"/><rect x="46804" y="464.00146484375" width="8" height="2.001953125" fill="#26a69a"/><line x1="46820" y1="466.00341796875" x2="46820" y2="500.0" stroke="#ef5350" stroke-width="2"/><rect x="46816" y="466.00341796875" width="8" height="19.9951171875" fill="#ef5350"/><line x1="46832" y1="485.99853515625" x2="46832" y2="533.99658203125" stroke="#ef5350" stroke-width="2"/><rect x="46828" y="485.99853515625" width="8" height="35.99853515625" fill="#ef5350"/><line x1="46844" y1="490.00244140625" x2="46844" y2="540.00244140625" stroke="#26a69a" stroke-width="2"/><rect x="46840" y="506.005859375" width="8" height="11.99951171875" fill="#26a69a"/><line x1="46856" y1="478.0029296875" x2="46856" y2="518.00537109375" stroke="#26a69a" stroke-width="2"/><rect x="46852" y="490.00244140625" width="8" height="15.95458984375" fill="#26a69a"/><line x1="46868" y1="454.00390625" x2="46868" y2="495.99609375" stroke="#26a69a" stroke-width="2"/><rect x="46864" y="473.9990234375" width="8" height="16.00341796875" fill="#26a69a"/><line x1="46880" y1="438.00048828125" x2="46880" y2="478.0029296875" stroke="#ef5350" stroke-width="2"/><rect x="46876" y="473.3642578125" width="8" height="2" fill="#ef5350"/><line x1="46892" y1="459.99755859375" x2="46892" y2="490.00244140625" stroke="#26a69a" stroke-width="2"/><rect x="46888" y="469.9951171875" width="8" height="8.0078125" fill="#26a69a"/><line x1="46904" y1="442.00439453125" x2="46904" y2="478.0029296875" stroke="#26a69a" stroke-width="2"/><rect x="46900" y="468.00537109375" width="8" height="3.99169921875" fill="#26a69a"/><line x1="46916" y1="478.0029296875" x2="46916" y2="606.005859375" stroke="#ef5350" stroke-width="2"/><rect x="46912" y="478.0029296875" width="8" height="93.994140625" fill="#ef5350"/><line x1="46928" y1="561.99951171875" x2="46928" y2="645.99609375" stroke="#ef5350" stroke-width="2"/><rect x="46924" y="569.9951171875" width="8" height="68.00537109375" fill="#ef5350"/><rect x="45999" y="999.1059548806267" width="10" height="20.894045119373345" fill="#26a69a" opacity="0.9"/><rect x="46011" y="1004.6891768648328" width="10" height="15.310823135167198" fill="#26a69a" opacity="0.9"/><rect x="46023" y="974.4761642169859" width="10" height="45.52383578301408" fill="#26a69a" opacity="0.9"/><rect x="46035" y="998.0613233225166" width="10" height="21.938676677483386" fill="#ef5350" opacity="0.9"/><rect x="46047" y="1003.3905279009099" width="10" height="16.609472099090112" fill="#26a69a" opacity="0.9"/><rect x="46059" y="1006.6374684510806" width="10" height="13.362531548919378" fill="#26a69a" opacity="0.9"/><rect x="46071" y="1006.8175358968377" width="10" height="13.18246410316226" fill="#26a69a" opacity="0.9"/><rect x="46083" y="1007.1609860937313" width="10" height="12.839013906268747" fill="#ef5350" opacity="0.9"/><rect x="46095" y="1006.3169950582197" width="10" height="13.683004941780268" fill="#26a69a" opacity="0.9"/><rect x="46107" y="1005.5778489469554" width="10" height="14.422151053044558" fill="#26a69a" opacity="0.9"/><rect x="46119" y="1006.5205341930193" width="10" height="13.47946580698067" fill="#26a69a" opacity="0.9"/><rect x="46131" y="1007.9392281207802" width="10" height="12.060771879219828" fill="#ef5350" opacity="0.9"/><rect x="46143" y="1007.8010845051504" width="10" height="12.198915494849643" fill="#26a69a" opacity="0.9"/><rect x="46155" y="1006.5779408541715" width="10" height="13.422059145828484" fill="#26a69a" opacity="0.9"/><rect x="46167" y="1005.0309303131208" width="10" height="14.969069686879152" fill="#ef5350" opacity="0.9"/><rect x="46179" y="1007.0158433901037" width="10" height="12.984156609896331" fill="#26a69a" opacity="0.9"/><rect x="46191" y="1007.2015666645457" width="10" height="12.79843333545432" fill="#26a69a" opacity="0.9"/><rect x="46203" y="1008.0450628150473" width="10" height="11.954937184952655" fill="#ef5350" opacity="0.9"/><rect x="46215" y="1006.6863206713468" width="10" height="13.313679328653166" fill="#26a69a" opacity="0.9"/><rect x="46227" y="1008.6855147157593" width="10" height="11.314485284240732" fill="#26a69a" opacity="0.9"/><rect x="46239" y="1008.0715038141494" width="10" height="11.928496185850577" fill="#ef5350" opacity="0.9"/><rect x="46251" y="1008.2222316486034" width="10" height="11.777768351396617" fill="#ef5350" opacity="0.9"/><rect x="46263" y="1008.6129080150163" width="10" height="11.387091984983726" fill="#26a69a" opacity="0.9"/><rect x="46275" y="1007.5669331975935" width="10" height="12.433066802406529" fill="#26a69a" opacity="0.9"/><rect x="46287" y="1007.8503609125679" width="10" height="12.149639087432092" fill="#ef5350" opacity="0.9"/><rect x="46299" y="1008.4006023457549" width="10" height="11.599397654245081" fill="#26a69a" opacity="0.9"/><rect x="46311" y="1009.0908255388945" width="10" height="10.909174461105522" fill="#ef5350" opacity="0.9"/><rect x="46323" y="1008.5938902910631" width="10" height="11.406109708936924" fill="#ef5350" opacity="0.9"/><rect x="46335" y="1009.0004736756524" width="10" height="10.999526324347585" fill="#26a69a" opacity="0.9"/><rect x="46347" y="1009.0060588064788" width="10" height="10.99394119352121" fill="#26a69a" opacity="0.9"/><rect x="46359" y="1008.1769850191238" width="10" height="11.823014980876223" fill="#26a69a" opacity="0.9"/><rect x="46371" y="1008.7873196320884" width="10" height="11.212680367911616" fill="#ef5350" opacity="0.9"/><rect x="46383" y="1009.0935120575198" width="10" height="10.906487942480226" fill="#ef5350" opacity="0.9"/><rect x="46395" y="1008.2942727664779" width="10" height="11.705727233522111" fill="#ef5350" opacity="0.9"/><rect x="46407" y="1008.9249683627083" width="10" height="11.075031637291659" fill="#26a69a" opacity="0.9"/><rect x="46419" y="1008.9096269274004" width="10" height="11.090373072599618" fill="#ef5350" opacity="0.9"/><rect x="46431" y="1008.6816263335384" width="10" height="11.318373666461639" fill="#ef5350" opacity="0.9"/><rect x="46443" y="1008.6189880308525" width="10" height="11.381011969147494" fill="#26a69a" opacity="0.9"/><rect x="46455" y="1009.1203772437733" width="10" height="10.879622756226695" fill="#ef5350" opacity="0.9"/><rect x="46467" y="1008.6783742320445" width="10" height="11.321625767955538" fill="#ef5350" opacity="0.9"/><rect x="46479" y="1008.6575183637688" width="10" height="11.342481636231241" fill="#26a69a" opacity="0.9"/><rect x="46491" y="1008.7064412818936" width="10" height="11.293558718106397" fill="#ef5350" opacity="0.9"/><rect x="46503" y="1007.9272094848247" width="10" height="12.072790515175257" fill="#26a69a" opacity="0.9"/><rect x="46515" y="1007.2990590115025" width="10" height="12.70094098849745" fill="#ef5350" opacity="0.9"/><rect x="46527" y="1007.5269182096474" width="10" height="12.47308179035258" fill="#26a69a" opacity="0.9"/><rect x="46539" y="1007.4369198356982" width="10" height="12.563080164301823" fill="#26a69a" opacity="0.9"/><rect x="46551" y="1007.9747184457783" width="10" height="12.025281554221692" fill="#26a69a" opacity="0.9"/><rect x="46563" y="1008.6499536929026" width="10" height="11.350046307097386" fill="#ef5350" opacity="0.9"/><rect x="46575" y="1007.7180852191987" width="10" height="12.281914780801344" fill="#26a69a" opacity="0.9"/><rect x="46587" y="1007.7568276456906" width="10" height="12.243172354309422" fill="#ef5350" opacity="0.9"/><rect x="46599" y="1008.4877728053617" width="10" height="11.512227194638285" fill="#ef5350" opacity="0.9"/><rect x="46611" y="1001.4503665683966" width="10" height="18.54963343160341" fill="#ef5350" opacity="0.9"/><rect x="46623" y="1008.670385374027" width="10" height="11.329614625973022" fill="#26a69a" opacity="0.9"/><rect x="46635" y="1008.5725395377774" width="10" height="11.427460462222598" fill="#ef5350" opacity="0.9"/><rect x="46647" y="1007.9328653135096" width="10" height="12.067134686490363" fill="#ef5350" opacity="0.9"/><rect x="46659" y="1008.8127708611706" width="10" height="11.187229138829366" fill="#26a69a" opacity="0.9"/><rect x="46671" y="1008.4908128132798" width="10" height="11.509187186720169" fill="#26a69a" opacity="0.9"/><rect x="46683" y="1008.1979822831166" width="10" height="11.80201771688337" fill="#ef5350" opacity="0.9"/><rect x="46695" y="1008.5091235586474" width="10" height="11.490876441352611" fill="#ef5350" opacity="0.9"/><rect x="46707" y="1008.8861552383578" width="10" height="11.113844761642213" fill="#26a69a" opacity="0.9"/><rect x="46719" y="1008.3262281985478" width="10" height="11.673771801452176" fill="#ef5350" opacity="0.9"/><rect x="46731" y="1008.8985980614647" width="10" height="11.101401938535332" fill="#26a69a" opacity="0.9"/><rect x="46743" y="1008.5224147560571" width="10" height="11.47758524394294" fill="#26a69a" opacity="0.9"/><rect x="46755" y="1008.6836765714366" width="10" height="11.31632342856335" fill="#ef5350" opacity="0.9"/><rect x="46767" y="1007.4437068301202" width="10" height="12.556293169879837" fill="#ef5350" opacity="0.9"/><rect x="46779" y="1007.7672909287578" width="10" height="12.232709071242198" fill="#ef5350" opacity="0.9"/><rect x="46791" y="1008.0292264947295" width="10" height="11.970773505270472" fill="#26a69a" opacity="0.9"/><rect x="46803" y="1007.9629119033984" width="10" height="12.037088096601565" fill="#26a69a" opacity="0.9"/><rect x="46815" y="1008.4445764137804" width="10" height="11.555423586219604" fill="#ef5350" opacity="0.9"/><rect x="46827" y="1008.2884755420758" width="10" height="11.711524457924156" fill="#ef5350" opacity="0.9"/><rect x="46839" y="1006.8393815351333" width="10" height="13.16061846486673" fill="#26a69a" opacity="0.9"/><rect x="46851" y="1007.2067983060793" width="10" height="12.79320169392065" fill="#26a69a" opacity="0.9"/><rect x="46863" y="1008.1438277234582" width="10" height="11.85617227654177" fill="#26a69a" opacity="0.9"/><rect x="46875" y="1007.793873323577" width="10" height="12.206126676422969" fill="#ef5350" opacity="0.9"/><rect x="46887" y="1008.1559170572723" width="10" height="11.84408294272771" fill="#26a69a" opacity="0.9"/><rect x="46899" y="1007.7793095647132" width="10" height="12.22069043528677" fill="#26a69a" opacity="0.9"/><rect x="46911" y="1002.8940875380885" width="10" height="17.105912461911544" fill="#ef5350" opacity="0.9"/><rect x="46923" y="860.0" width="10" height="160.0" fill="#ef5350" opacity="0.9"/><polyline points="320,621.7995489211262,332,615.3428210476704,344,601.3106829568187,356,582.511423344863,368,566.0815314638057,380,550.0735805505883,392,538.4478042779165,404,529.6428794657459,416,519.1851219719865,428,508.59564420977676,440,490.4441896273056,452,478.2113631598122,464,467.52489218924893,476,458.2363421890932,488,446.4039840788246,500,439.12694913678934,512,434.448424591028,524,429.0726631716325,536,424.9703652654034,548,427.73546440678274,560,429.47457196328287,572,431.81418676142584,584,433.73683117699784,596,441.3810820024082,608,446.0116876599159,620,444.1059056506447,632,437.62669737438955,644,432.70972954410354,656,422.5469911649043,668,420.9669949825184,680,422.01724583239866,692,423.539459398944,704,422.24975456035736,716,421.84552756352787,728,423.231798003917,740,420.06709737556776,752,416.06098616716736,764,413.5792199994512,776,417.8093519489039,788,417.4466960341306,800,418.6427138225554,812,417.8193657055317,824,415.93162105500596,836,418.98556637120237,848,425.17709167216253,860,431.92175853671415,872,436.6906033338182,884,439.29163776333553,896,443.73991370553085,908,451.19297623953116,920,456.4132508238572,932,459.61222135551907,944,460.9823929823733,956,462.2220720733367,968,462.96236208420396,980,463.4426486565417,992,473.7811650047206,1004,489.4211005548641" fill="none" stroke="#0090ff" stroke-width="2"/><line x1="80" y1="50" x2="80" y2="900" stroke="#666666" stroke-width="0.5" stroke-dasharray="4,4" opacity="0.90"/><line x1="152" y1="50" x2="152" y2="900" stroke="#666666" stroke-width="0.5" stroke-dasharray="4,4" opacity="0.90"/><line x1="224" y1="50" x2="224" y2="900" stroke="#666666" stroke-width="0.5" stroke-dasharray="4,4" opacity="0.90"/><line x1="290" y1="30" x2="290" y2="950" stroke="black" stroke-width="0.7"/><line x1="296" y1="50" x2="296" y2="900" stroke="#666666" stroke-width="0.5" stroke-dasharray="4,4" opacity="0.90"/><line x1="368" y1="50" x2="368" y2="900" stroke="#666666" stroke-width="0.5" stroke-dasharray="4,4" opacity="0.90"/><line x1="440" y1="50" x2="440" y2="900" stroke="#666666" stroke-width="0.5" stroke-dasharray="4,4" opacity="0.90"/><line x1="512" y1="50" x2="512" y2="900" stroke="#666666" stroke-width="0.5" stroke-dasharray="4,4" opacity="0.90"/><line x1="584" y1="50" x2="584" y2="900" stroke="#666666" stroke-width="0.5" stroke-dasharray="4,4" opacity="0.90"/><line x1="656" y1="50" x2="656" y2="900" stroke="#666666" stroke-width="0.5" stroke-dasharray="4,4" opacity="0.90"/><line x1="728" y1="50" x2="728" y2="900" stroke="#666666" stroke-width="0.5" stroke-dasharray="4,4" opacity="0.90"/><line x1="800" y1="50" x2="800" y2="900" stroke="#666666" stroke-width="0.5" stroke-dasharray="4,4" opacity="0.90"/><line x1="872" y1="50" x2="872" y2="900" stroke="#666666" stroke-width="0.5" stroke-dasharray="4,4" opacity="0.90"/><line x1="944" y1="50" x2="944" y2="900" stroke="#666666" stroke-width="0.5" stroke-dasharray="4,4" opacity="0.90"/><text x="80" y="1040" text-anchor="middle" font-size="20" fill="black">14:30</text><text x="152" y="1040" text-anchor="middle" font-size="20" fill="black">15:00</text><text x="224" y="1040" text-anchor="middle" font-size="20" fill="black">15:30</text><text x="296" y="1040" text-anchor="middle" font-size="20" fill="black">16:00</text><text x="368" y="1040" text-anchor="middle" font-size="20" fill="black">16:30</text><text x="440" y="1040" text-anchor="middle" font-size="20" fill="black">17:00</text><text x="512" y="1040" text-anchor="middle" font-size="20" fill="black">17:30</text><text x="584" y="1040" text-anchor="middle" font-size="20" fill="black">18:00</text><text x="656" y="1040" text-anchor="middle" font-size="20" fill="black">18:30</text><text x="728" y="1040" text-anchor="middle" font-size="20" fill="black">19:00</text><text x="800" y="1040" text-anchor="middle" font-size="20" fill="black">19:30</text><text x="872" y="1040" text-anchor="middle" font-size="20" fill="black">20:00</text><text x="944" y="1040" text-anchor="middle" font-size="20" fill="black">20:30</text><text x="1006" y="50" text-anchor="end" font-size="40" fill="#26a69a" font-weight="bold">▲ +0.37% (Mon)</text></svg>