<svg xmlns="http://www.w3.org/2000/svg" width="1056" height="1050"><rect width="100%" height="100%" fill="white"/><text x="42" y="854.0" text-anchor="end" font-size="20" fill="black">257</text><text x="42" y="587.3333333333334" text-anchor="end" font-size="20" fill="black">258</text><text x="42" y="320.66666666666674" text-anchor="end" font-size="20" fill="black">259</text><text x="42" y="54.0" text-anchor="end" font-size="20" fill="black">260</text><line x1="38528" y1="423.3317057291667" x2="38528" y2="548.6653645833334" stroke="#26a69a" stroke-width="2"/><rect x="38524" y="423.3317057291667" width="8" height="35.416666666666686" fill="#26a69a"/><line x1="38540" y1="359.3343098958333" x2="38540" y2="465.99934895833337" stroke="#26a69a" stroke-width="2"/><rect x="38536" y="364.6647135416667" width="8" height="61.336263020833314" fill="#26a69a"/><line x1="38552" y1="273.22591145833326" x2="38552" y2="479.32942708333337" stroke="#ef5350" stroke-width="2"/><rect x="38548" y="359.3343098958333" width="8" height="42.667643229166686" fill="#ef5350"/><line x1="38564" y1="383.3333333333333" x2="38564" y2="489.99837239583337" stroke="#ef5350" stroke-width="2"/><rect x="38560" y="402.001953125" width="8" height="45.328776041666686" fill="#ef5350"/><line x1="38576" y1="399.3326822916667" x2="38576" y2="535.3352864583334" stroke="#ef5350" stroke-width="2"/><rect x="38572" y="444.6695963541667" width="8" height="47.99804687499994" fill="#ef5350"/><line x1="38588" y1="450.0" x2="38588" y2="513.9973958333334" stroke="#ef5350" stroke-width="2"/><rect x="38584" y="497.998046875" width="8" height="7.999674479166629" fill="#ef5350"/><line x1="38600" y1="471.32975260416663" x2="38600" y2="652.6692708333333" stroke="#ef5350" stroke-width="2"/><rect x="38596" y="535.3352864583334" width="8" height="35.99446614583326" fill="#ef5350"/><line x1="38612" y1="503.33658854166663" x2="38612" y2="620.6705729166666" stroke="#ef5350" stroke-width="2"/><rect x="38608" y="567.333984375" width="8" height="53.33658854166663" fill="#ef5350"/><line x1="38624" y1="588.6637369791666" x2="38624" y2="657.9996744791667" stroke="#ef5350" stroke-width="2"/><rect x="38620" y="604.6630859375" width="8" height="7.999674479166629" fill="#ef5350"/><line x1="38636" y1="615.33203125" x2="38636" y2="743.3349609375" stroke="#ef5350" stroke-width="2"/><rect x="38632" y="615.33203125" width="8" height="87.73600260416674" fill="#ef5350"/><line x1="38648" y1="689.9983723958333" x2="38648" y2="834.0006510416666" stroke="#ef5350" stroke-width="2"/><rect x="38644" y="697.998046875" width="8" height="114.66471354166663" fill="#ef5350"/><line x1="38660" y1="786.0026041666666" x2="38660" y2="865.9993489583334" stroke="#26a69a" stroke-width="2"/><rect x="38656" y="799.3326822916666" width="8" height="15.250651041666742" fill="#26a69a"/><line x1="38672" y1="756.6650390625" x2="38672" y2="839.3310546875" stroke="#26a69a" stroke-width="2"/><rect x="38668" y="795.3369140625" width="8" height="6.6650390625" fill="#26a69a"/><line x1="38684" y1="703.3365885416667" x2="38684" y2="828.6702473958334" stroke="#ef5350" stroke-width="2"/><rect x="38680" y="794.0022786458334" width="8" height="21.32975260416663" fill="#ef5350"/><line x1="38696" y1="791.3330078125" x2="38696" y2="857.9996744791666" stroke="#ef5350" stroke-width="2"/><rect x="38692" y="810.0016276041666" width="8" height="15.999348958333371" fill="#ef5350"/><line x1="38708" y1="778.0029296875" x2="38708" y2="881.9986979166666" stroke="#ef5350" stroke-width="2"/><rect x="38704" y="820.6705729166666" width="8" height="47.998046875" fill="#ef5350"/><line x1="38720" y1="679.5979817708333" x2="38720" y2="879.3294270833334" stroke="#26a69a" stroke-width="2"/><rect x="38716" y="681.9986979166667" width="8" height="197.33072916666663" fill="#26a69a"/><line x1="38732" y1="639.3310546875" x2="38732" y2="705.9977213541667" stroke="#26a69a" stroke-width="2"/><rect x="38728" y="660.6689453125" width="8" height="22.664388020833258" fill="#26a69a"/><line x1="38744" y1="636.669921875" x2="38744" y2="681.9986979166667" stroke="#ef5350" stroke-width="2"/><rect x="38740" y="660.6689453125" width="8" height="14.7705078125" fill="#ef5350"/><line x1="38756" y1="627.3356119791666" x2="38756" y2="691.3330078125" stroke="#26a69a" stroke-width="2"/><rect x="38752" y="648.6653645833334" width="8" height="30.664062499999886" fill="#26a69a"/><line x1="38768" y1="615.33203125" x2="38768" y2="664.6647135416667" stroke="#26a69a" stroke-width="2"/><rect x="38764" y="636.669921875" width="8" height="10.660807291666629" fill="#26a69a"/><line x1="38780" y1="583.3333333333334" x2="38780" y2="634.0006510416666" stroke="#26a69a" stroke-width="2"/><rect x="38776" y="610.0016276041666" width="8" height="23.9990234375" fill="#26a69a"/><line x1="38792" y1="594.0022786458334" x2="38792" y2="634.0006510416666" stroke="#ef5350" stroke-width="2"/><rect x="38788" y="607.3323567708334" width="8" height="20.003255208333258" fill="#ef5350"/><line x1="38804" y1="619.3359375" x2="38804" y2="788.6637369791666" stroke="#ef5350" stroke-width="2"/><rect x="38800" y="619.3359375" width="8" height="13.330078125" fill="#ef5350"/><line x1="38816" y1="526.0009765625" x2="38816" y2="657.9996744791667" stroke="#26a69a" stroke-width="2"/><rect x="38812" y="526.0009765625" width="8" height="107.99967447916663" fill="#26a69a"/><line x1="38828" y1="505.99772135416663" x2="38828" y2="535.3352864583334" stroke="#26a69a" stroke-width="2"/><rect x="38824" y="505.99772135416663" width="8" height="17.333984375" fill="#26a69a"/><line x1="38840" y1="436.669921875" x2="38840" y2="524.6663411458334" stroke="#26a69a" stroke-width="2"/><rect x="38836" y="460.6689453125" width="8" height="42.66764322916663" fill="#26a69a"/><line x1="38852" y1="399.3326822916667" x2="38852" y2="460.6689453125" stroke="#26a69a" stroke-width="2"/><rect x="38848" y="402.001953125" width="8" height="53.32845052083337" fill="#26a69a"/><line x1="38864" y1="343.3349609375" x2="38864" y2="397.998046875" stroke="#26a69a" stroke-width="2"/><rect x="38860" y="343.3349609375" width="8" height="53.328450520833314" fill="#26a69a"/><line x1="38876" y1="319.3359375" x2="38876" y2="364.6647135416667" stroke="#ef5350" stroke-width="2"/><rect x="38872" y="337.99641927083326" width="8" height="26.668294270833428" fill="#ef5350"/><line x1="38888" y1="343.3349609375" x2="38888" y2="380.6640625" stroke="#26a69a" stroke-width="2"/><rect x="38884" y="344.6695963541667" width="8" height="22.664388020833314" fill="#26a69a"/><line x1="38900" y1="340.6656901041667" x2="38900" y2="378.0029296875" stroke="#ef5350" stroke-width="2"/><rect x="38896" y="345.99609375" width="8" height="32.0068359375" fill="#ef5350"/><line x1="38912" y1="371.3297526041667" x2="38912" y2="402.001953125" stroke="#ef5350" stroke-width="2"/><rect x="38908" y="379.3294270833333" width="8" height="20.00325520833337" fill="#ef5350"/><line x1="38924" y1="397.998046875" x2="38924" y2="527.3356119791666" stroke="#ef5350" stroke-width="2"/><rect x="38920" y="407.3323567708333" width="8" height="85.33528645833331" fill="#ef5350"/><line x1="38936" y1="428.6702473958333" x2="38936" y2="511.33626302083337" stroke="#26a69a" stroke-width="2"/><rect x="38932" y="428.6702473958333" width="8" height="66.66666666666669" fill="#26a69a"/><line x1="38948" y1="436.669921875" x2="38948" y2="505.99772135416663" stroke="#ef5350" stroke-width="2"/><rect x="38944" y="436.669921875" width="8" height="37.3291015625" fill="#ef5350"/><line x1="38960" y1="444.6695963541667" x2="38960" y2="610.0016276041666" stroke="#26a69a" stroke-width="2"/><rect x="38956" y="462.00358072916663" width="8" height="11.995442708333371" fill="#26a69a"/><line x1="38972" y1="457.99967447916663" x2="38972" y2="519.3359375" stroke="#ef5350" stroke-width="2"/><rect x="38968" y="465.99934895833337" width="8" height="50.66731770833326" fill="#ef5350"/><line x1="38984" y1="508.6669921875" x2="38984" y2="586.0026041666666" stroke="#ef5350" stroke-width="2"/><rect x="38980" y="516.6666666666666" width="8" height="61.36067708333337" fill="#ef5350"/><line x1="38996" y1="530.029296875" x2="38996" y2="594.0022786458334" stroke="#26a69a" stroke-width="2"/><rect x="38992" y="532.666015625" width="8" height="53.33658854166663" fill="#26a69a"/><line x1="39008" y1="532.666015625" x2="39008" y2="673.9990234375" stroke="#ef5350" stroke-width="2"/><rect x="39004" y="535.3352864583334" width="8" height="114.66471354166663" fill="#ef5350"/><line x1="39020" y1="647.3307291666666" x2="39020" y2="762.0035807291666" stroke="#ef5350" stroke-width="2"/><rect x="39016" y="647.3307291666666" width="8" height="53.33658854166663" fill="#ef5350"/><line x1="39032" y1="703.3365885416667" x2="39032" y2="770.0032552083334" stroke="#ef5350" stroke-width="2"/><rect x="39028" y="716.6666666666667" width="8" height="28.377278645833258" fill="#ef5350"/><line x1="39044" y1="673.9990234375" x2="39044" y2="754.00390625" stroke="#26a69a" stroke-width="2"/><rect x="39040" y="717.626953125" width="8" height="28.369140625" fill="#26a69a"/><line x1="39056" y1="642.0003255208334" x2="39056" y2="737.9964192708334" stroke="#26a69a" stroke-width="2"/><rect x="39052" y="642.0003255208334" width="8" height="79.99674479166663" fill="#26a69a"/><line x1="39068" y1="623.3317057291666" x2="39068" y2="665.9993489583333" stroke="#ef5350" stroke-width="2"/><rect x="39064" y="642.0003255208334" width="8" height="15.999348958333371" fill="#ef5350"/><line x1="39080" y1="652.6692708333333" x2="39080" y2="731.9173177083334" stroke="#ef5350" stroke-width="2"/><rect x="39076" y="657.9996744791667" width="8" height="61.33626302083326" fill="#ef5350"/><line x1="39092" y1="681.9742838541667" x2="39092" y2="740.6656901041666" stroke="#ef5350" stroke-width="2"/><rect x="39088" y="712.6627604166667" width="8" height="4.00390625" fill="#ef5350"/><line x1="39104" y1="668.6686197916667" x2="39104" y2="730.029296875" stroke="#26a69a" stroke-width="2"/><rect x="39100" y="687.3372395833333" width="8" height="31.998697916666742" fill="#26a69a"/><line x1="39116" y1="639.3310546875" x2="39116" y2="689.9983723958333" stroke="#26a69a" stroke-width="2"/><rect x="39112" y="657.9996744791667" width="8" height="26.668294270833258" fill="#26a69a"/><line x1="39128" y1="656.6650390625" x2="39128" y2="740.6656901041666" stroke="#ef5350" stroke-width="2"/><rect x="39124" y="660.6689453125" width="8" height="77.32747395833337" fill="#ef5350"/><line x1="39140" y1="700.6673177083333" x2="39140" y2="756.6650390625" stroke="#ef5350" stroke-width="2"/><rect x="39136" y="737.9964192708334" width="8" height="13.338216145833258" fill="#ef5350"/><line x1="39152" y1="748.6653645833334" x2="39152" y2="808.6669921875" stroke="#ef5350" stroke-width="2"/><rect x="39148" y="748.6653645833334" width="8" height="23.9990234375" fill="#ef5350"/><line x1="39164" y1="762.0035807291666" x2="39164" y2="823.3317057291666" stroke="#ef5350" stroke-width="2"/><rect x="39160" y="772.6643880208334" width="8" height="33.33333333333326" fill="#ef5350"/><line x1="39176" y1="776.6682942708334" x2="39176" y2="835.3352864583334" stroke="#ef5350" stroke-width="2"/><rect x="39172" y="807.3323567708334" width="8" height="21.337890625" fill="#ef5350"/><line x1="39188" y1="803.3365885416666" x2="39188" y2="850.0" stroke="#ef5350" stroke-width="2"/><rect x="39184" y="839.3310546875" width="8" height="2.6692708333333712" fill="#ef5350"/><line x1="39200" y1="808.6669921875" x2="39200" y2="855.3304036458334" stroke="#26a69a" stroke-width="2"/><rect x="39196" y="834.0006510416666" width="8" height="21.329752604166742" fill="#26a69a"/><line x1="39212" y1="742.0003255208334" x2="39212" y2="836.669921875" stroke="#26a69a" stroke-width="2"/><rect x="39208" y="770.0032552083334" width="8" height="63.99739583333326" fill="#26a69a"/><line x1="39224" y1="727.3356119791666" x2="39224" y2="788.6637369791666" stroke="#ef5350" stroke-width="2"/><rect x="39220" y="772.6643880208334" width="8" height="4.00390625" fill="#ef5350"/><line x1="39236" y1="731.3313802083334" x2="39236" y2="799.3326822916666" stroke="#26a69a" stroke-width="2"/><rect x="39232" y="737.9964192708334" width="8" height="34.66796875" fill="#26a69a"/><line x1="39248" y1="727.3356119791666" x2="39248" y2="772.6643880208334" stroke="#ef5350" stroke-width="2"/><rect x="39244" y="743.3349609375" width="8" height="26.66829427083337" fill="#ef5350"/><line x1="39260" y1="751.3346354166666" x2="39260" y2="780.6640625" stroke="#26a69a" stroke-width="2"/><rect x="39256" y="756.640625" width="8" height="14.558919270833371" fill="#26a69a"/><line x1="39272" y1="721.9970703125" x2="39272" y2="762.0035807291666" stroke="#ef5350" stroke-width="2"/><rect x="39268" y="750.0" width="8" height="12.003580729166629" fill="#ef5350"/><line x1="39284" y1="754.00390625" x2="39284" y2="794.0022786458334" stroke="#ef5350" stroke-width="2"/><rect x="39280" y="762.0035807291666" width="8" height="10.693359375" fill="#ef5350"/><line x1="39296" y1="713.9973958333333" x2="39296" y2="777.9703776041666" stroke="#26a69a" stroke-width="2"/><rect x="39292" y="732.666015625" width="8" height="42.66764322916663" fill="#26a69a"/><line x1="39308" y1="688.6637369791667" x2="39308" y2="751.3346354166666" stroke="#ef5350" stroke-width="2"/><rect x="39304" y="719.3359375" width="8" height="21.32975260416663" fill="#ef5350"/><line x1="39320" y1="737.9964192708334" x2="39320" y2="794.0022786458334" stroke="#ef5350" stroke-width="2"/><rect x="39316" y="737.9964192708334" width="8" height="36.00260416666663" fill="#ef5350"/><line x1="39332" y1="744.6695963541666" x2="39332" y2="778.0029296875" stroke="#26a69a" stroke-width="2"/><rect x="39328" y="759.3343098958334" width="8" height="18.66861979166663" fill="#26a69a"/><line x1="39344" y1="764.6647135416666" x2="39344" y2="807.3323567708334" stroke="#ef5350" stroke-width="2"/><rect x="39340" y="764.6647135416666" width="8" height="37.33723958333337" fill="#ef5350"/><line x1="39356" y1="779.3294270833334" x2="39356" y2="807.3323567708334" stroke="#26a69a" stroke-width="2"/><rect x="39352" y="781.9986979166666" width="8" height="22.66438802083337" fill="#26a69a"/><line x1="39368" y1="783.3333333333334" x2="39368" y2="823.3317057291666" stroke="#ef5350" stroke-width="2"/><rect x="39364" y="786.0026041666666" width="8" height="7.9996744791667425" fill="#ef5350"/><line x1="39380" y1="796.6634114583334" x2="39380" y2="842.0003255208334" stroke="#ef5350" stroke-width="2"/><rect x="39376" y="796.6634114583334" width="8" height="42.66764322916663" fill="#ef5350"/><line x1="39392" y1="841.30859375" x2="39392" y2="900.6673177083334" stroke="#ef5350" stroke-width="2"/><rect x="39388" y="842.0003255208334" width="8" height="37.3291015625" fill="#ef5350"/><line x1="39404" y1="821.9970703125" x2="39404" y2="895.3369140625" stroke="#26a69a" stroke-width="2"/><rect x="39400" y="821.9970703125" width="8" height="61.8408203125" fill="#26a69a"/><line x1="39416" y1="791.3330078125" x2="39416" y2="826.025390625" stroke="#26a69a" stroke-width="2"/><rect x="39412" y="797.998046875" width="8" height="21.337890625" fill="#26a69a"/><line x1="39428" y1="762.0035807291666" x2="39428" y2="818.0013020833334" stroke="#26a69a" stroke-width="2"/><rect x="39424" y="773.9990234375" width="8" height="25.33365885416663" fill="#26a69a"/><line x1="39440" y1="679.3294270833333" x2="39440" y2="799.3326822916666" stroke="#26a69a" stroke-width="2"/><rect x="39436" y="679.3294270833333" width="8" height="104.00390625000011" fill="#26a69a"/><line x1="39452" y1="623.3317057291666" x2="39452" y2="697.998046875" stroke="#26a69a" stroke-width="2"/><rect x="39448" y="644.6695963541666" width="8" height="34.65983072916663" fill="#26a69a"/><rect x="38523" y="860.0" width="10" height="160.0" fill="#26a69a" opacity="0.9"/><rect x="38535" y="976.174708153935" width="10" height="43.825291846065056" fill="#26a69a" opacity="0.9"/><rect x="38547" y="963.0227706511607" width="10" height="56.97722934883927" fill="#ef5350" opacity="0.9"/><rect x="38559" y="968.8559930164084" width="10" height="51.14400698359157" fill="#ef5350" opacity="0.9"/><rect x="38571" y="982.1869590305828" width="10" height="37.813040969417216" fill="#ef5350" opacity="0.9"/><rect x="38583" y="985.9214050039209" width="10" height="34.07859499607912" fill="#ef5350" opacity="0.9"/><rect x="38595" y="959.1477651027565" width="10" height="60.852234897243534" fill="#ef5350" opacity="0.9"/><rect x="38607" y="978.6663115687928" width="10" height="41.33368843120718" fill="#ef5350" opacity="0.9"/><rect x="38619" y="987.6636039475047" width="10" height="32.336396052495274" fill="#ef5350" opacity="0.9"/><rect x="38631" y="969.4248894018081" width="10" height="50.57511059819194" fill="#ef5350" opacity="0.9"/><rect x="38643" y="974.1321555920517" width="10" height="45.86784440794827" fill="#ef5350" opacity="0.9"/><rect x="38655" y="974.358530486632" width="10" height="45.64146951336795" fill="#26a69a" opacity="0.9"/><rect x="38667" y="970.0181987660349" width="10" height="49.98180123396514" fill="#26a69a" opacity="0.9"/><rect x="38679" y="961.6970719221152" width="10" height="58.30292807788476" fill="#ef5350" opacity="0.9"/><rect x="38691" y="977.6712977347714" width="10" height="42.32870226522857" fill="#ef5350" opacity="0.9"/><rect x="38703" y="973.6742272922307" width="10" height="46.32577270776926" fill="#ef5350" opacity="0.9"/><rect x="38715" y="980.9515143444745" width="10" height="39.048485655525496" fill="#26a69a" opacity="0.9"/><rect x="38727" y="984.4965747850918" width="10" height="35.50342521490825" fill="#26a69a" opacity="0.9"/><rect x="38739" y="981.8311213694941" width="10" height="38.1688786305059" fill="#ef5350" opacity="0.9"/><rect x="38751" y="989.1535354432066" width="10" height="30.84646455679342" fill="#26a69a" opacity="0.9"/><rect x="38763" y="988.6490005474426" width="10" height="31.350999452557403" fill="#26a69a" opacity="0.9"/><rect x="38775" y="984.8021069140515" width="10" height="35.19789308594852" fill="#26a69a" opacity="0.9"/><rect x="38787" y="976.9677600722032" width="10" height="43.03223992779681" fill="#ef5350" opacity="0.9"/><rect x="38799" y="974.4828147424801" width="10" height="45.51718525751994" fill="#ef5350" opacity="0.9"/><rect x="38811" y="994.2188586562504" width="10" height="25.781141343749596" fill="#26a69a" opacity="0.9"/><rect x="38823" y="993.914066314528" width="10" height="26.085933685472014" fill="#26a69a" opacity="0.9"/><rect x="38835" y="986.4592303253585" width="10" height="33.540769674641524" fill="#26a69a" opacity="0.9"/><rect x="38847" y="980.4787902999097" width="10" height="39.52120970009025" fill="#26a69a" opacity="0.9"/><rect x="38859" y="990.4599997040851" width="10" height="29.540000295914865" fill="#26a69a" opacity="0.9"/><rect x="38871" y="988.1977303327564" width="10" height="31.80226966724365" fill="#ef5350" opacity="0.9"/><rect x="38883" y="980.0193824256144" width="10" height="39.98061757438563" fill="#26a69a" opacity="0.9"/><rect x="38895" y="995.3958601506207" width="10" height="24.604139849379294" fill="#ef5350" opacity="0.9"/><rect x="38907" y="998.6546229304452" width="10" height="21.345377069554843" fill="#ef5350" opacity="0.9"/><rect x="38919" y="987.4801367126814" width="10" height="32.51986328731857" fill="#ef5350" opacity="0.9"/><rect x="38931" y="996.5913563259206" width="10" height="23.40864367407937" fill="#26a69a" opacity="0.9"/><rect x="38943" y="995.304126533209" width="10" height="24.695873466791" fill="#ef5350" opacity="0.9"/><rect x="38955" y="959.7928595735866" width="10" height="60.20714042641339" fill="#26a69a" opacity="0.9"/><rect x="38967" y="996.534392708657" width="10" height="23.465607291342963" fill="#ef5350" opacity="0.9"/><rect x="38979" y="993.1165756728365" width="10" height="26.88342432716354" fill="#ef5350" opacity="0.9"/><rect x="38991" y="987.816000118366" width="10" height="32.18399988163401" fill="#26a69a" opacity="0.9"/><rect x="39003" y="977.8436681610369" width="10" height="42.15633183896307" fill="#ef5350" opacity="0.9"/><rect x="39015" y="953.8634648675041" width="10" height="66.13653513249585" fill="#ef5350" opacity="0.9"/><rect x="39027" y="977.7563732670484" width="10" height="42.24362673295161" fill="#ef5350" opacity="0.9"/><rect x="39039" y="993.2164469498572" width="10" height="26.783553050142814" fill="#26a69a" opacity="0.9"/><rect x="39051" y="994.0893958897421" width="10" height="25.91060411025785" fill="#26a69a" opacity="0.9"/><rect x="39063" y="994.3631171675027" width="10" height="25.63688283249735" fill="#ef5350" opacity="0.9"/><rect x="39075" y="997.058162072588" width="10" height="22.941837927412053" fill="#ef5350" opacity="0.9"/><rect x="39087" y="991.8951869442349" width="10" height="28.104813055765135" fill="#ef5350" opacity="0.9"/><rect x="39099" y="995.9928684510335" width="10" height="24.007131548966527" fill="#26a69a" opacity="0.9"/><rect x="39111" y="992.9020373740512" width="10" height="27.097962625948753" fill="#26a69a" opacity="0.9"/><rect x="39123" y="994.9475490848832" width="10" height="25.052450915116765" fill="#ef5350" opacity="0.9"/><rect x="39135" y="993.0751475875538" width="10" height="26.92485241244617" fill="#ef5350" opacity="0.9"/><rect x="39147" y="990.5177031085859" width="10" height="29.48229689141408" fill="#ef5350" opacity="0.9"/><rect x="39159" y="988.7074437391806" width="10" height="31.292556260819424" fill="#ef5350" opacity="0.9"/><rect x="39171" y="993.9458771657271" width="10" height="26.054122834272903" fill="#ef5350" opacity="0.9"/><rect x="39183" y="995.299687809786" width="10" height="24.70031219021405" fill="#ef5350" opacity="0.9"/><rect x="39195" y="996.3457469631734" width="10" height="23.654253036826617" fill="#26a69a" opacity="0.9"/><rect x="39207" y="987.6110790536642" width="10" height="32.388920946335816" fill="#26a69a" opacity="0.9"/><rect x="39219" y="990.9571367274772" width="10" height="29.042863272522823" fill="#ef5350" opacity="0.9"/><rect x="39231" y="996.2747273884031" width="10" height="23.725272611596893" fill="#26a69a" opacity="0.9"/><rect x="39243" y="997.2897154778286" width="10" height="22.710284522171378" fill="#ef5350" opacity="0.9"/><rect x="39255" y="989.1453977835974" width="10" height="30.854602216402554" fill="#26a69a" opacity="0.9"/><rect x="39267" y="986.6094071345082" width="10" height="33.39059286549184" fill="#ef5350" opacity="0.9"/><rect x="39279" y="997.0152544128308" width="10" height="22.984745587169186" fill="#ef5350" opacity="0.9"/><rect x="39291" y="996.6993652625505" width="10" height="23.300634737449514" fill="#26a69a" opacity="0.9"/><rect x="39303" y="990.2595173628065" width="10" height="29.74048263719351" fill="#ef5350" opacity="0.9"/><rect x="39315" y="980.1288709367186" width="10" height="39.87112906328139" fill="#ef5350" opacity="0.9"/><rect x="39327" y="995.4654001509166" width="10" height="24.534599849083406" fill="#26a69a" opacity="0.9"/><rect x="39339" y="991.1161909834732" width="10" height="28.88380901652681" fill="#ef5350" opacity="0.9"/><rect x="39351" y="991.9218192847737" width="10" height="28.078180715226267" fill="#26a69a" opacity="0.9"/><rect x="39363" y="992.9264503528785" width="10" height="27.073549647121467" fill="#ef5350" opacity="0.9"/><rect x="39375" y="991.5615429002619" width="10" height="28.438457099738116" fill="#ef5350" opacity="0.9"/><rect x="39387" y="991.1480018346723" width="10" height="28.8519981653277" fill="#ef5350" opacity="0.9"/><rect x="39399" y="961.3626880909051" width="10" height="58.63731190909493" fill="#26a69a" opacity="0.9"/><rect x="39411" y="984.097829464246" width="10" height="35.90217053575395" fill="#26a69a" opacity="0.9"/><rect x="39423" y="986.4370367082427" width="10" height="33.56296329175734" fill="#26a69a" opacity="0.9"/><rect x="39435" y="969.5462145087073" width="10" height="50.453785491292706" fill="#26a69a" opacity="0.9"/><rect x="39447" y="947.9259325018124" width="10" height="72.07406749818756" fill="#26a69a" opacity="0.9"/><polyline points="320,636.4181082589312,332,633.9022529584781,344,633.2768585794989,356,633.2186830600222,368,623.0074729173945,380,611.8636870542256,392,597.4641878407359,404,578.8487369154305,416,556.4188534889581,428,538.1565544463532,440,519.7292251042351,452,506.2314826835973,464,496.05064455104184,476,495.7284539489592,488,489.34195808675815,500,487.88072621540175,512,485.41623616909726,524,488.39246764505333,536,496.9291225121955,548,500.3326361419871,560,514.5866707951276,572,532.3086371678073,584,552.5691427053971,596,568.2889341739307,608,575.3090666831667,620,583.1843626637389,632,596.1511793148171,644,607.6288447769002,656,615.2201204727438,668,619.2943637114544,680,630.5993213837761,692,642.0979227202375,704,654.5328241774466,716,668.9580524799869,728,684.1687377100698,740,699.2003175015725,752,712.038444505394,764,717.558902667588,776,723.1883685345565,788,724.5986590808722,800,728.9229063311117,812,731.562689061487,824,734.4618216012653,836,738.103261458688,848,737.5854285221521,860,737.8787867680634,872,741.3188093080104,884,743.034571268754,896,748.6505123979138,908,751.8265300663643,920,755.8432680263044,932,763.7944858035553,944,774.7978135444858,956,779.2929808557195,968,781.0744157146928,980,780.4005688311463,992,770.7747458075422,1004,758.7647315738953" fill="none" stroke="#0090ff" stroke-width="2"/><line x1="80" y1="50" x2="80" y2="900" stroke="#666666" stroke-width="0.5" stroke-dasharray="4,4" opacity="0.90"/><line x1="152" y1="50" x2="152" y2="900" stroke="#666666" stroke-width="0.5" stroke-dasharray="4,4" opacity="0.90"/><line x1="224" y1="50" x2="224" y2="900" stroke="#666666" stroke-width="0.5" stroke-dasharray="4,4" opacity="0.90"/><line x1="290" y1="30" x2="290" y2="950" stroke="black" stroke-width="0.7"/><line x1="296" y1="50" x2="296" y2="900" stroke="#666666" stroke-width="0.5" stroke-dasharray="4,4" opacity="0.90"/><line x1="368" y1="50" x2="368" y2="900" stroke="#666666" stroke-width="0.5" stroke-dasharray="4,4" opacity="0.90"/><line x1="440" y1="50" x2="440" y2="900" stroke="#666666" stroke-width="0.5" stroke-dasharray="4,4" opacity="0.90"/><line x1="512" y1="50" x2="512" y2="900" stroke="#666666" stroke-width="0.5" stroke-dasharray="4,4" opacity="0.90"/><line x1="584" y1="50" x2="584" y2="900" stroke="#666666" stroke-width="0.5" stroke-dasharray="4,4" opacity="0.90"/><line x1="656" y1="50" x2="656" y2="900" stroke="#666666" stroke-width="0.5" stroke-dasharray="4,4" opacity="0.90"/><line x1="728" y1="50" x2="728" y2="900" stroke="#666666" stroke-width="0.5" stroke-dasharray="4,4" opacity="0.90"/><line x1="800" y1="50" x2="800" y2="900" stroke="#666666" stroke-width="0.5" stroke-dasharray="4,4" opacity="0.90"/><line x1="872" y1="50" x2="872" y2="900" stroke="#666666" stroke-width="0.5" stroke-dasharray="4,4" opacity="0.90"/><line x1="944" y1="50" x2="944" y2="900" stroke="#666666" stroke-width="0.5" stroke-dasharray="4,4" opacity="0.90"/><text x="80" y="1040" text-anchor="middle" font-size="20" fill="black">14:30</text><text x="152" y="1040" text-anchor="middle" font-size="20" fill="black">15:00</text><text x="224" y="1040" text-anchor="middle" font-size="20" fill="black">15:30</text><text x="296" y="1040" text-anchor="middle" font-size="20" fill="black">16:00</text><text x="368" y="1040" text-anchor="middle" font-size="20" fill="black">16:30</text><text x="440" y="1040" text-anchor="middle" font-size="20" fill="black">17:00</text><text x="512" y="1040" text-anchor="middle" font-size="20" fill="black">17:30</text><text x="584" y="1040" text-anchor="middle" font-size="20" fill="black">18:00</text><text x="656" y="1040" text-anchor="middle" font-size="20" fill="black">18:30</text><text x="728" y="1040" text-anchor="middle" font-size="20" fill="black">19:00</text><text x="800" y="1040" text-anchor="middle" font-size="20" fill="black">19:30</text><text x="872" y="1040" text-anchor="middle" font-size="20" fill="black">20:00</text><text x="944" y="1040" text-anchor="middle" font-size="20" fill="black">20:30</text><text x="1006" y="50" text-anchor="end" font-size="40" fill="#ef5350" font-weight="bold">▼ -0.27% (Tue)</text></svg>