<svg xmlns="http://www.w3.org/2000/svg" width="1056" height="1050"><rect width="100%" height="100%" fill="white"/><text x="42" y="854.0" text-anchor="end" font-size="20" fill="black">250</text><text x="42" y="654.0" text-anchor="end" font-size="20" fill="black">251</text><text x="42" y="454.0" text-anchor="end" font-size="20" fill="black">252</text><text x="42" y="254.0" text-anchor="end" font-size="20" fill="black">253</text><text x="42" y="54.0" text-anchor="end" font-size="20" fill="black">254</text><line x1="42272" y1="372.0001220703125" x2="42272" y2="589.9993896484375" stroke="#26a69a" stroke-width="2"/><rect x="42268" y="372.0001220703125" width="8" height="200.0" fill="#26a69a"/><line x1="42284" y1="354.0008544921875" x2="42284" y2="504.0008544921875" stroke="#ef5350" stroke-width="2"/><rect x="42280" y="360.0006103515625" width="8" height="92.19970703125" fill="#ef5350"/><line x1="42296" y1="382.000732421875" x2="42296" y2="564.00146484375" stroke="#26a69a" stroke-width="2"/><rect x="42292" y="394.000244140625" width="8" height="66.0003662109375" fill="#26a69a"/><line x1="42308" y1="394.000244140625" x2="42308" y2="522.0001220703125" stroke="#ef5350" stroke-width="2"/><rect x="42304" y="398.0010986328125" width="8" height="60.198974609375" fill="#ef5350"/><line x1="42320" y1="329.998779296875" x2="42320" y2="477.9998779296875" stroke="#26a69a" stroke-width="2"/><rect x="42316" y="400.0" width="8" height="72.0001220703125" fill="#26a69a"/><line x1="42332" y1="339.9993896484375" x2="42332" y2="464.00146484375" stroke="#26a69a" stroke-width="2"/><rect x="42328" y="407.9986572265625" width="8" height="2.9998779296875" fill="#26a69a"/><line x1="42344" y1="400.0" x2="42344" y2="500.0" stroke="#ef5350" stroke-width="2"/><rect x="42340" y="427.9998779296875" width="8" height="30.70068359375" fill="#ef5350"/><line x1="42356" y1="420.001220703125" x2="42356" y2="533.9996337890625" stroke="#ef5350" stroke-width="2"/><rect x="42352" y="455.999755859375" width="8" height="61.981201171875" fill="#ef5350"/><line x1="42368" y1="464.00146484375" x2="42368" y2="526.0009765625" stroke="#26a69a" stroke-width="2"/><rect x="42364" y="494.000244140625" width="8" height="27.9998779296875" fill="#26a69a"/><line x1="42380" y1="467.999267578125" x2="42380" y2="539.9993896484375" stroke="#ef5350" stroke-width="2"/><rect x="42376" y="495.9991455078125" width="8" height="42.0013427734375" fill="#ef5350"/><line x1="42392" y1="364.00146484375" x2="42392" y2="545.9991455078125" stroke="#26a69a" stroke-width="2"/><rect x="42388" y="414.00146484375" width="8" height="125.9979248046875" fill="#26a69a"/><line x1="42404" y1="335.99853515625" x2="42404" y2="411.99951171875" stroke="#26a69a" stroke-width="2"/><rect x="42400" y="336.0198974609375" width="8" height="74.9786376953125" fill="#26a69a"/><line x1="42416" y1="273.9990234375" x2="42416" y2="357.9986572265625" stroke="#26a69a" stroke-width="2"/><rect x="42412" y="285.99853515625" width="8" height="64.00146484375" fill="#26a69a"/><line x1="42428" y1="276.0009765625" x2="42428" y2="339.9993896484375" stroke="#ef5350" stroke-width="2"/><rect x="42424" y="292.0013427734375" width="8" height="5.999755859375" fill="#ef5350"/><line x1="42440" y1="233.9996337890625" x2="42440" y2="307.9986572265625" stroke="#26a69a" stroke-width="2"/><rect x="42436" y="279.998779296875" width="8" height="18.0023193359375" fill="#26a69a"/><line x1="42452" y1="280.999755859375" x2="42452" y2="361.99951171875" stroke="#ef5350" stroke-width="2"/><rect x="42448" y="285.99853515625" width="8" height="72.0001220703125" fill="#ef5350"/><line x1="42464" y1="357.9986572265625" x2="42464" y2="418.0206298828125" stroke="#ef5350" stroke-width="2"/><rect x="42460" y="361.99951171875" width="8" height="25.0" fill="#ef5350"/><line x1="42476" y1="329.998779296875" x2="42476" y2="422.0001220703125" stroke="#26a69a" stroke-width="2"/><rect x="42472" y="329.998779296875" width="8" height="66.0003662109375" fill="#26a69a"/><line x1="42488" y1="254.0008544921875" x2="42488" y2="339.9993896484375" stroke="#26a69a" stroke-width="2"/><rect x="42484" y="298.3795166015625" width="8" height="27.6214599609375" fill="#26a69a"/><line x1="42500" y1="276.0009765625" x2="42500" y2="332.000732421875" stroke="#26a69a" stroke-width="2"/><rect x="42496" y="276.0009765625" width="8" height="41.998291015625" fill="#26a69a"/><line x1="42512" y1="205.999755859375" x2="42512" y2="269.500732421875" stroke="#26a69a" stroke-width="2"/><rect x="42508" y="260.0006103515625" width="8" height="7.9986572265625" fill="#26a69a"/><line x1="42524" y1="260.0006103515625" x2="42524" y2="301.9989013671875" stroke="#ef5350" stroke-width="2"/><rect x="42520" y="265.179443359375" width="8" height="12.8204345703125" fill="#ef5350"/><line x1="42536" y1="263.00048828125" x2="42536" y2="348.0010986328125" stroke="#ef5350" stroke-width="2"/><rect x="42532" y="276.0009765625" width="8" height="72.0001220703125" fill="#ef5350"/><line x1="42548" y1="250.0" x2="42548" y2="389.9993896484375" stroke="#26a69a" stroke-width="2"/><rect x="42544" y="251.9989013671875" width="8" height="100.0" fill="#26a69a"/><line x1="42560" y1="251.9989013671875" x2="42560" y2="307.9986572265625" stroke="#ef5350" stroke-width="2"/><rect x="42556" y="260.0006103515625" width="8" height="2" fill="#ef5350"/><line x1="42572" y1="216.0003662109375" x2="42572" y2="261.99951171875" stroke="#26a69a" stroke-width="2"/><rect x="42568" y="216.0003662109375" width="8" height="38.00048828125" fill="#26a69a"/><line x1="42584" y1="205.999755859375" x2="42584" y2="354.0008544921875" stroke="#ef5350" stroke-width="2"/><rect x="42580" y="211.8011474609375" width="8" height="137.59765625" fill="#ef5350"/><line x1="42596" y1="329.998779296875" x2="42596" y2="372.0001220703125" stroke="#26a69a" stroke-width="2"/><rect x="42592" y="329.998779296875" width="8" height="8.001708984375" fill="#26a69a"/><line x1="42608" y1="266.0003662109375" x2="42608" y2="382.000732421875" stroke="#ef5350" stroke-width="2"/><rect x="42604" y="314.00146484375" width="8" height="55.999755859375" fill="#ef5350"/><line x1="42620" y1="244.000244140625" x2="42620" y2="382.000732421875" stroke="#26a69a" stroke-width="2"/><rect x="42616" y="260.0006103515625" width="8" height="119.9981689453125" fill="#26a69a"/><line x1="42632" y1="252.2003173828125" x2="42632" y2="292.0013427734375" stroke="#ef5350" stroke-width="2"/><rect x="42628" y="270.001220703125" width="8" height="15.997314453125" fill="#ef5350"/><line x1="42644" y1="261.99951171875" x2="42644" y2="335.99853515625" stroke="#ef5350" stroke-width="2"/><rect x="42640" y="290.4205322265625" width="8" height="43.5791015625" fill="#ef5350"/><line x1="42656" y1="305.999755859375" x2="42656" y2="370.001220703125" stroke="#26a69a" stroke-width="2"/><rect x="42652" y="335.99853515625" width="8" height="6.0028076171875" fill="#26a69a"/><line x1="42668" y1="320.001220703125" x2="42668" y2="370.001220703125" stroke="#ef5350" stroke-width="2"/><rect x="42664" y="338.00048828125" width="8" height="27.9998779296875" fill="#ef5350"/><line x1="42680" y1="354.0008544921875" x2="42680" y2="394.000244140625" stroke="#ef5350" stroke-width="2"/><rect x="42676" y="373.9990234375" width="8" height="10.0006103515625" fill="#ef5350"/><line x1="42692" y1="366.0003662109375" x2="42692" y2="401.9989013671875" stroke="#26a69a" stroke-width="2"/><rect x="42688" y="382.6385498046875" width="8" height="4.7210693359375" fill="#26a69a"/><line x1="42704" y1="398.0010986328125" x2="42704" y2="451.9989013671875" stroke="#ef5350" stroke-width="2"/><rect x="42700" y="398.0010986328125" width="8" height="43.9788818359375" fill="#ef5350"/><line x1="42716" y1="410.99853515625" x2="42716" y2="466.0186767578125" stroke="#26a69a" stroke-width="2"/><rect x="42712" y="439.9993896484375" width="8" height="2.001953125" fill="#26a69a"/><line x1="42728" y1="392.0013427734375" x2="42728" y2="472.0001220703125" stroke="#ef5350" stroke-width="2"/><rect x="42724" y="435.99853515625" width="8" height="36.0015869140625" fill="#ef5350"/><line x1="42740" y1="482.000732421875" x2="42740" y2="526.15966796875" stroke="#ef5350" stroke-width="2"/><rect x="42736" y="482.000732421875" width="8" height="37.4603271484375" fill="#ef5350"/><line x1="42752" y1="482.000732421875" x2="42752" y2="543.0999755859375" stroke="#26a69a" stroke-width="2"/><rect x="42748" y="483.9996337890625" width="8" height="44.000244140625" fill="#26a69a"/><line x1="42764" y1="457.9986572265625" x2="42764" y2="504.998779296875" stroke="#26a69a" stroke-width="2"/><rect x="42760" y="473.9990234375" width="8" height="30.999755859375" fill="#26a69a"/><line x1="42776" y1="439.9993896484375" x2="42776" y2="485.99853515625" stroke="#ef5350" stroke-width="2"/><rect x="42772" y="479.998779296875" width="8" height="4.0008544921875" fill="#ef5350"/><line x1="42788" y1="470.001220703125" x2="42788" y2="504.998779296875" stroke="#ef5350" stroke-width="2"/><rect x="42784" y="489.9993896484375" width="8" height="14.00146484375" fill="#ef5350"/><line x1="42800" y1="461.99951171875" x2="42800" y2="510.0006103515625" stroke="#26a69a" stroke-width="2"/><rect x="42796" y="488.00048828125" width="8" height="13.458251953125" fill="#26a69a"/><line x1="42812" y1="488.00048828125" x2="42812" y2="523.9990234375" stroke="#ef5350" stroke-width="2"/><rect x="42808" y="494.000244140625" width="8" height="17.999267578125" fill="#ef5350"/><line x1="42824" y1="511.99951171875" x2="42824" y2="555.999755859375" stroke="#ef5350" stroke-width="2"/><rect x="42820" y="514.00146484375" width="8" height="25.9979248046875" fill="#ef5350"/><line x1="42836" y1="538.00048828125" x2="42836" y2="567.999267578125" stroke="#ef5350" stroke-width="2"/><rect x="42832" y="545.9991455078125" width="8" height="17.0013427734375" fill="#ef5350"/><line x1="42848" y1="551.9989013671875" x2="42848" y2="615.0787353515625" stroke="#ef5350" stroke-width="2"/><rect x="42844" y="567.999267578125" width="8" height="35.0006103515625" fill="#ef5350"/><line x1="42860" y1="583.9996337890625" x2="42860" y2="636.1602783203125" stroke="#ef5350" stroke-width="2"/><rect x="42856" y="600.0" width="8" height="29.998779296875" fill="#ef5350"/><line x1="42872" y1="605.999755859375" x2="42872" y2="651.9989013671875" stroke="#ef5350" stroke-width="2"/><rect x="42868" y="633.9996337890625" width="8" height="4.0008544921875" fill="#ef5350"/><line x1="42884" y1="626.0009765625" x2="42884" y2="650.0" stroke="#ef5350" stroke-width="2"/><rect x="42880" y="639.9993896484375" width="8" height="9.1400146484375" fill="#ef5350"/><line x1="42896" y1="654.998779296875" x2="42896" y2="714.00146484375" stroke="#ef5350" stroke-width="2"/><rect x="42892" y="660.0006103515625" width="8" height="45.9991455078125" fill="#ef5350"/><line x1="42908" y1="629.0008544921875" x2="42908" y2="701.9989013671875" stroke="#26a69a" stroke-width="2"/><rect x="42904" y="657.9986572265625" width="8" height="44.000244140625" fill="#26a69a"/><line x1="42920" y1="614.00146484375" x2="42920" y2="651.800537109375" stroke="#26a69a" stroke-width="2"/><rect x="42916" y="647.0001220703125" width="8" height="2" fill="#26a69a"/><line x1="42932" y1="622.0001220703125" x2="42932" y2="673.9990234375" stroke="#ef5350" stroke-width="2"/><rect x="42928" y="650.0" width="8" height="13.00048828125" fill="#ef5350"/><line x1="42944" y1="651.9989013671875" x2="42944" y2="700.0" stroke="#ef5350" stroke-width="2"/><rect x="42940" y="666.0003662109375" width="8" height="4.0008544921875" fill="#ef5350"/><line x1="42956" y1="679.998779296875" x2="42956" y2="724.6002197265625" stroke="#ef5350" stroke-width="2"/><rect x="42952" y="679.998779296875" width="8" height="22.0001220703125" fill="#ef5350"/><line x1="42968" y1="700.0" x2="42968" y2="735.99853515625" stroke="#ef5350" stroke-width="2"/><rect x="42964" y="705.999755859375" width="8" height="11.0015869140625" fill="#ef5350"/><line x1="42980" y1="725.0" x2="42980" y2="757.9986572265625" stroke="#ef5350" stroke-width="2"/><rect x="42976" y="725.0" width="8" height="13.00048828125" fill="#ef5350"/><line x1="42992" y1="738.00048828125" x2="42992" y2="784.2010498046875" stroke="#ef5350" stroke-width="2"/><rect x="42988" y="738.00048828125" width="8" height="44.9981689453125" fill="#ef5350"/><line x1="43004" y1="732.000732421875" x2="43004" y2="800.0" stroke="#26a69a" stroke-width="2"/><rect x="43000" y="742.0013427734375" width="8" height="43.9971923828125" fill="#26a69a"/><line x1="43016" y1="704.0008544921875" x2="43016" y2="766.0003662109375" stroke="#ef5350" stroke-width="2"/><rect x="43012" y="738.00048828125" width="8" height="26.0009765625" fill="#ef5350"/><line x1="43028" y1="739.00146484375" x2="43028" y2="773.9990234375" stroke="#26a69a" stroke-width="2"/><rect x="43024" y="745.9991455078125" width="8" height="20.001220703125" fill="#26a69a"/><line x1="43040" y1="708.9996337890625" x2="43040" y2="763.00048828125" stroke="#26a69a" stroke-width="2"/><rect x="43036" y="714.00146484375" width="8" height="28.997802734375" fill="#26a69a"/><line x1="43052" y1="714.00146484375" x2="43052" y2="746.0205078125" stroke="#ef5350" stroke-width="2"/><rect x="43048" y="714.00146484375" width="8" height="7.9986572265625" fill="#ef5350"/><line x1="43064" y1="729.0008544921875" x2="43064" y2="752.020263671875" stroke="#ef5350" stroke-width="2"/><rect x="43060" y="729.0008544921875" width="8" height="19.000244140625" fill="#ef5350"/><line x1="43076" y1="729.998779296875" x2="43076" y2="776.0009765625" stroke="#ef5350" stroke-width="2"/><rect x="43072" y="748.0010986328125" width="8" height="25.9979248046875" fill="#ef5350"/><line x1="43088" y1="738.00048828125" x2="43088" y2="814.00146484375" stroke="#ef5350" stroke-width="2"/><rect x="43084" y="775.0" width="8" height="39.00146484375" fill="#ef5350"/><line x1="43100" y1="723.9990234375" x2="43100" y2="816.0003662109375" stroke="#26a69a" stroke-width="2"/><rect x="43096" y="767.999267578125" width="8" height="47.979736328125" fill="#26a69a"/><line x1="43112" y1="778.0609130859375" x2="43112" y2="826.0009765625" stroke="#ef5350" stroke-width="2"/><rect x="43108" y="778.0609130859375" width="8" height="19.940185546875" fill="#ef5350"/><line x1="43124" y1="769.000244140625" x2="43124" y2="812.0208740234375" stroke="#ef5350" stroke-width="2"/><rect x="43120" y="798.0010986328125" width="8" height="3.997802734375" fill="#ef5350"/><line x1="43136" y1="776.0009765625" x2="43136" y2="814.00146484375" stroke="#ef5350" stroke-width="2"/><rect x="43132" y="789.9993896484375" width="8" height="4.0191650390625" fill="#ef5350"/><line x1="43148" y1="776.0009765625" x2="43148" y2="833.9996337890625" stroke="#ef5350" stroke-width="2"/><rect x="43144" y="797.0001220703125" width="8" height="29.0008544921875" fill="#ef5350"/><line x1="43160" y1="814.00146484375" x2="43160" y2="850.0" stroke="#26a69a" stroke-width="2"/><rect x="43156" y="814.00146484375" width="8" height="9.99755859375" fill="#26a69a"/><line x1="43172" y1="790.020751953125" x2="43172" y2="823.9990234375" stroke="#26a69a" stroke-width="2"/><rect x="43168" y="807.9986572265625" width="8" height="7.000732421875" fill="#26a69a"/><line x1="43184" y1="793.9788818359375" x2="43184" y2="861.99951171875" stroke="#ef5350" stroke-width="2"/><rect x="43180" y="823.9990234375" width="8" height="20.001220703125" fill="#ef5350"/><line x1="43196" y1="773.9990234375" x2="43196" y2="850.0" stroke="#26a69a" stroke-width="2"/><rect x="43192" y="779.998779296875" width="8" height="68.0023193359375" fill="#26a69a"/><rect x="42267" y="860.0" width="10" height="160.0" fill="#26a69a" opacity="0.9"/><rect x="42279" y="990.3679751848582" width="10" height="29.63202481514179" fill="#ef5350" opacity="0.9"/><rect x="42291" y="988.2608343524495" width="10" height="31.73916564755052" fill="#26a69a" opacity="0.9"/><rect x="42303" y="987.5446858827436" width="10" height="32.45531411725642" fill="#ef5350" opacity="0.9"/><rect x="42315" y="992.280741538636" width="10" height="27.719258461364007" fill="#26a69a" opacity="0.9"/><rect x="42327" y="992.4986029334349" width="10" height="27.50139706656512" fill="#26a69a" opacity="0.9"/><rect x="42339" y="988.2120382593765" width="10" height="31.787961740623473" fill="#ef5350" opacity="0.9"/><rect x="42351" y="984.6185400856867" width="10" height="35.38145991431327" fill="#ef5350" opacity="0.9"/><rect x="42363" y="1000.1403545714447" width="10" height="19.859645428555268" fill="#26a69a" opacity="0.9"/><rect x="42375" y="998.7823653754263" width="10" height="21.217634624573748" fill="#ef5350" opacity="0.9"/><rect x="42387" y="1000.8293716035084" width="10" height="19.170628396491566" fill="#26a69a" opacity="0.9"/><rect x="42399" y="1000.2276206134135" width="10" height="19.772379386586522" fill="#26a69a" opacity="0.9"/><rect x="42411" y="981.2702372178533" width="10" height="38.729762782146736" fill="#26a69a" opacity="0.9"/><rect x="42423" y="1003.5722789597726" width="10" height="16.427721040227425" fill="#ef5350" opacity="0.9"/><rect x="42435" y="1003.2926631733253" width="10" height="16.70733682667469" fill="#26a69a" opacity="0.9"/><rect x="42447" y="1002.7158164133049" width="10" height="17.28418358669512" fill="#ef5350" opacity="0.9"/><rect x="42459" y="1002.090578507042" width="10" height="17.909421492958018" fill="#ef5350" opacity="0.9"/><rect x="42471" y="1003.0914045985762" width="10" height="16.90859540142378" fill="#26a69a" opacity="0.9"/><rect x="42483" y="1004.1351550541414" width="10" height="15.864844945858636" fill="#26a69a" opacity="0.9"/><rect x="42495" y="1005.7974617932665" width="10" height="14.202538206733493" fill="#26a69a" opacity="0.9"/><rect x="42507" y="1000.8868740534368" width="10" height="19.113125946563173" fill="#26a69a" opacity="0.9"/><rect x="42519" y="1004.7320466822706" width="10" height="15.267953317729393" fill="#ef5350" opacity="0.9"/><rect x="42531" y="1005.9671345152382" width="10" height="14.032865484761828" fill="#ef5350" opacity="0.9"/><rect x="42543" y="1004.5089209786755" width="10" height="15.491079021324481" fill="#26a69a" opacity="0.9"/><rect x="42555" y="1005.0116624687179" width="10" height="14.988337531282127" fill="#ef5350" opacity="0.9"/><rect x="42567" y="1006.689964607647" width="10" height="13.31003539235303" fill="#26a69a" opacity="0.9"/><rect x="42579" y="1003.3461161549488" width="10" height="16.653883845051155" fill="#ef5350" opacity="0.9"/><rect x="42591" y="1005.3921100159549" width="10" height="14.607889984045073" fill="#26a69a" opacity="0.9"/><rect x="42603" y="1001.3543851692273" width="10" height="18.64561483077273" fill="#ef5350" opacity="0.9"/><rect x="42615" y="1005.7193070549837" width="10" height="14.280692945016312" fill="#26a69a" opacity="0.9"/><rect x="42627" y="1005.2353955925587" width="10" height="14.764604407441311" fill="#ef5350" opacity="0.9"/><rect x="42639" y="1005.5281721509966" width="10" height="14.471827849003375" fill="#ef5350" opacity="0.9"/><rect x="42651" y="1005.7508929077612" width="10" height="14.249107092238773" fill="#26a69a" opacity="0.9"/><rect x="42663" y="1005.9007232350392" width="10" height="14.099276764960791" fill="#ef5350" opacity="0.9"/><rect x="42675" y="1005.4273403902067" width="10" height="14.572659609793277" fill="#ef5350" opacity="0.9"/><rect x="42687" y="1006.5032841187952" width="10" height="13.49671588120475" fill="#26a69a" opacity="0.9"/><rect x="42699" y="1003.1861621569088" width="10" height="16.813837843091164" fill="#ef5350" opacity="0.9"/><rect x="42711" y="1004.9699529451783" width="10" height="15.030047054821694" fill="#26a69a" opacity="0.9"/><rect x="42723" y="1005.4174191928599" width="10" height="14.582580807140062" fill="#ef5350" opacity="0.9"/><rect x="42735" y="1003.6520534853773" width="10" height="16.347946514622663" fill="#ef5350" opacity="0.9"/><rect x="42747" y="1005.6196901346854" width="10" height="14.380309865314644" fill="#26a69a" opacity="0.9"/><rect x="42759" y="1005.605112048788" width="10" height="14.394887951212013" fill="#26a69a" opacity="0.9"/><rect x="42771" y="1006.4243194868513" width="10" height="13.575680513148654" fill="#ef5350" opacity="0.9"/><rect x="42783" y="1006.1094733261523" width="10" height="13.890526673847717" fill="#ef5350" opacity="0.9"/><rect x="42795" y="1004.2831631206823" width="10" height="15.716836879317725" fill="#26a69a" opacity="0.9"/><rect x="42807" y="1006.6383338867606" width="10" height="13.36166611323938" fill="#ef5350" opacity="0.9"/><rect x="42819" y="1004.6789986474776" width="10" height="15.321001352522444" fill="#ef5350" opacity="0.9"/><rect x="42831" y="1006.3232852526463" width="10" height="13.676714747353685" fill="#ef5350" opacity="0.9"/><rect x="42843" y="1002.9925975719389" width="10" height="17.00740242806114" fill="#ef5350" opacity="0.9"/><rect x="42855" y="1003.601232658152" width="10" height="16.398767341848043" fill="#ef5350" opacity="0.9"/><rect x="42867" y="1003.1294696006414" width="10" height="16.870530399358586" fill="#ef5350" opacity="0.9"/><rect x="42879" y="1002.4325561053834" width="10" height="17.567443894616645" fill="#ef5350" opacity="0.9"/><rect x="42891" y="1003.8249657819928" width="10" height="16.175034218007227" fill="#ef5350" opacity="0.9"/><rect x="42903" y="1000.1579697585707" width="10" height="19.842030241429256" fill="#26a69a" opacity="0.9"/><rect x="42915" y="1002.714196625983" width="10" height="17.28580337401695" fill="#26a69a" opacity="0.9"/><rect x="42927" y="1004.3202157556713" width="10" height="15.679784244328744" fill="#ef5350" opacity="0.9"/><rect x="42939" y="1005.7215342625514" width="10" height="14.278465737448641" fill="#ef5350" opacity="0.9"/><rect x="42951" y="1004.4898884776429" width="10" height="15.510111522357079" fill="#ef5350" opacity="0.9"/><rect x="42963" y="1005.1635175301483" width="10" height="14.836482469851717" fill="#ef5350" opacity="0.9"/><rect x="42975" y="1004.6089428458043" width="10" height="15.391057154195664" fill="#ef5350" opacity="0.9"/><rect x="42987" y="981.6205162262195" width="10" height="38.37948377378052" fill="#ef5350" opacity="0.9"/><rect x="42999" y="1005.4599386100605" width="10" height="14.540061389939524" fill="#26a69a" opacity="0.9"/><rect x="43011" y="1003.0318774144955" width="10" height="16.96812258550449" fill="#ef5350" opacity="0.9"/><rect x="43023" y="1003.8964388975727" width="10" height="16.103561102427307" fill="#26a69a" opacity="0.9"/><rect x="43035" y="1002.569428134086" width="10" height="17.430571865913976" fill="#26a69a" opacity="0.9"/><rect x="43047" y="1006.1374146574555" width="10" height="13.862585342544548" fill="#ef5350" opacity="0.9"/><rect x="43059" y="1004.2503624274133" width="10" height="15.749637572586721" fill="#ef5350" opacity="0.9"/><rect x="43071" y="1003.5064750998193" width="10" height="16.49352490018066" fill="#ef5350" opacity="0.9"/><rect x="43083" y="1001.8277680140598" width="10" height="18.172231985940243" fill="#ef5350" opacity="0.9"/><rect x="43095" y="997.4199217642723" width="10" height="22.580078235727683" fill="#26a69a" opacity="0.9"/><rect x="43107" y="1002.1782494958412" width="10" height="17.821750504158786" fill="#ef5350" opacity="0.9"/><rect x="43119" y="1000.8909235217416" width="10" height="19.10907647825843" fill="#ef5350" opacity="0.9"/><rect x="43131" y="1003.5269249147586" width="10" height="16.473075085241362" fill="#ef5350" opacity="0.9"/><rect x="43143" y="996.1670162707636" width="10" height="23.83298372923639" fill="#ef5350" opacity="0.9"/><rect x="43155" y="999.6248572562423" width="10" height="20.375142743757692" fill="#26a69a" opacity="0.9"/><rect x="43167" y="945.3184501874904" width="10" height="74.68154981250962" fill="#26a69a" opacity="0.9"/><rect x="43179" y="971.7159216994809" width="10" height="48.28407830051913" fill="#ef5350" opacity="0.9"/><rect x="43191" y="947.9198286265014" width="10" height="72.08017137349862" fill="#26a69a" opacity="0.9"/><polyline points="320,375.65029325939463,332,366.3502537041836,344,364.60271512595455,356,353.8785423870195,368,344.99097473408824,380,332.70615487473947,392,334.2959309543744,404,333.8866784155698,416,337.32615863343085,428,329.9618207018227,440,325.7748411260536,452,326.55815471300684,464,327.45723856474456,476,331.12801262628295,488,336.1634051179749,500,340.58960937385336,512,350.2458351924133,524,358.7937927596556,536,369.5753479320956,548,383.85017761192444,560,393.38822105736995,572,401.0654403316721,584,408.96393494666654,596,418.0150701414789,608,424.6803480595531,620,432.99645888423584,632,443.18721419510894,644,454.59800220331203,656,468.7315141772501,668,484.0903013315028,680,498.7484143743359,692,513.0713657955255,704,531.4454981825634,716,543.498179996277,728,553.3555078128529,740,563.7978869050812,752,573.912490123945,764,586.1111959566358,776,598.5769242249035,788,611.8553588969348,800,628.1547206426126,812,638.9972560836441,824,650.9024188227045,836,659.9592499355708,848,665.1061275458687,860,670.5246032148636,872,677.9033170641924,884,687.0552890997487,896,699.1454010753671,908,705.7029121708695,920,714.4932156434322,932,722.8270904742658,944,729.6072299231469,956,738.78758674594,968,745.9508132314454,980,751.860131707167,992,760.6353805103538,1004,762.4795137281183" fill="none" stroke="#0090ff" stroke-width="2"/><line x1="80" y1="50" x2="80" y2="900" stroke="#666666" stroke-width="0.5" stroke-dasharray="4,4" opacity="0.90"/><line x1="152" y1="50" x2="152" y2="900" stroke="#666666" stroke-width="0.5" stroke-dasharray="4,4" opacity="0.90"/><line x1="224" y1="50" x2="224" y2="900" stroke="#666666" stroke-width="0.5" stroke-dasharray="4,4" opacity="0.90"/><line x1="290" y1="30" x2="290" y2="950" stroke="black" stroke-width="0.7"/><line x1="296" y1="50" x2="296" y2="900" stroke="#666666" stroke-width="0.5" stroke-dasharray="4,4" opacity="0.90"/><line x1="368" y1="50" x2="368" y2="900" stroke="#666666" stroke-width="0.5" stroke-dasharray="4,4" opacity="0.90"/><line x1="440" y1="50" x2="440" y2="900" stroke="#666666" stroke-width="0.5" stroke-dasharray="4,4" opacity="0.90"/><line x1="512" y1="50" x2="512" y2="900" stroke="#666666" stroke-width="0.5" stroke-dasharray="4,4" opacity="0.90"/><line x1="584" y1="50" x2="584" y2="900" stroke="#666666" stroke-width="0.5" stroke-dasharray="4,4" opacity="0.90"/><line x1="656" y1="50" x2="656" y2="900" stroke="#666666" stroke-width="0.5" stroke-dasharray="4,4" opacity="0.90"/><line x1="728" y1="50" x2="728" y2="900" stroke="#666666" stroke-width="0.5" stroke-dasharray="4,4" opacity="0.90"/><line x1="800" y1="50" x2="800" y2="900" stroke="#666666" stroke-width="0.5" stroke-dasharray="4,4" opacity="0.90"/><line x1="872" y1="50" x2="872" y2="900" stroke="#666666" stroke-width="0.5" stroke-dasharray="4,4" opacity="0.90"/><line x1="944" y1="50" x2="944" y2="900" stroke="#666666" stroke-width="0.5" stroke-dasharray="4,4" opacity="0.90"/><text x="80" y="1040" text-anchor="middle" font-size="20" fill="black">14:30</text><text x="152" y="1040" text-anchor="middle" font-size="20" fill="black">15:00</text><text x="224" y="1040" text-anchor="middle" font-size="20" fill="black">15:30</text><text x="296" y="1040" text-anchor="middle" font-size="20" fill="black">16:00</text><text x="368" y="1040" text-anchor="middle" font-size="20" fill="black">16:30</text><text x="440" y="1040" text-anchor="middle" font-size="20" fill="black">17:00</text><text x="512" y="1040" text-anchor="middle" font-size="20" fill="black">17:30</text><text x="584" y="1040" text-anchor="middle" font-size="20" fill="black">18:00</text><text x="656" y="1040" text-anchor="middle" font-size="20" fill="black">18:30</text><text x="728" y="1040" text-anchor="middle" font-size="20" fill="black">19:00</text><text x="800" y="1040" text-anchor="middle" font-size="20" fill="black">19:30</text><text x="872" y="1040" text-anchor="middle" font-size="20" fill="black">20:00</text><text x="944" y="1040" text-anchor="middle" font-size="20" fill="black">20:30</text><text x="1006" y="50" text-anchor="end" font-size="40" fill="#ef5350" font-weight="bold">▼ -0.41% (Tue)</text></svg>