<svg xmlns="http://www.w3.org/2000/svg" width="1992" height="1050"><rect width="100%" height="100%" fill="white"/><text x="42" y="854.0" text-anchor="end" font-size="20" fill="black">434</text><text x="42" y="654.0" text-anchor="end" font-size="20" fill="black">435</text><text x="42" y="454.0" text-anchor="end" font-size="20" fill="black">436</text><text x="42" y="254.0" text-anchor="end" font-size="20" fill="black">437</text><text x="42" y="54.0" text-anchor="end" font-size="20" fill="black">438</text><line x1="80" y1="834.7080419999998" x2="80" y2="981.2852320000047" stroke="#26a69a" stroke-width="2"/><rect x="76" y="870.3619539999977" width="8" height="87.15400400000135" fill="#26a69a"/><line x1="92" y1="751.5155840000034" x2="92" y2="921.8620460000011" stroke="#26a69a" stroke-width="2"/><rect x="88" y="771.3233120000041" width="8" height="114.88482400000066" fill="#26a69a"/><line x1="104" y1="757.4579019999987" x2="104" y2="828.7657240000044" stroke="#26a69a" stroke-width="2"/><rect x="100" y="761.4194480000037" width="8" height="19.80772800000068" fill="#26a69a"/><line x1="116" y1="591.0729859999947" x2="116" y2="777.2656299999994" stroke="#26a69a" stroke-width="2"/><rect x="112" y="616.8230320000021" width="8" height="148.5579619999953" fill="#26a69a"/><line x1="128" y1="585.1306679999993" x2="128" y2="658.4192619999953" stroke="#26a69a" stroke-width="2"/><rect x="124" y="606.9191680000017" width="8" height="11.884638000003633" fill="#26a69a"/><line x1="140" y1="529.6690280000007" x2="140" y2="614.8422600000004" stroke="#26a69a" stroke-width="2"/><rect x="136" y="551.4575300000047" width="8" height="63.38472999999567" fill="#26a69a"/><line x1="152" y1="509.8613" x2="152" y2="597.0153040000014" stroke="#26a69a" stroke-width="2"/><rect x="148" y="531.6498000000024" width="8" height="25.750047999997605" fill="#26a69a"/><line x1="164" y1="517.7843919999987" x2="164" y2="589.0922120000027" stroke="#ef5350" stroke-width="2"/><rect x="160" y="533.6305739999943" width="8" height="53.4808660000067" fill="#ef5350"/><line x1="176" y1="541.5536640000028" x2="176" y2="632.6692139999977" stroke="#ef5350" stroke-width="2"/><rect x="172" y="583.149893999996" width="8" height="23.76927400000568" fill="#ef5350"/><line x1="188" y1="517.7843919999987" x2="188" y2="618.8038060000054" stroke="#26a69a" stroke-width="2"/><rect x="184" y="543.5344379999947" width="8" height="59.42318400000204" fill="#26a69a"/><line x1="200" y1="404.8803399999997" x2="200" y2="547.4959839999997" stroke="#26a69a" stroke-width="2"/><rect x="196" y="432.611159999999" width="8" height="114.88482400000066" fill="#26a69a"/><line x1="212" y1="357.3417919999997" x2="212" y2="434.5919320000007" stroke="#26a69a" stroke-width="2"/><rect x="208" y="381.1110660000054" width="8" height="45.557775999998285" fill="#26a69a"/><line x1="224" y1="343.4763819999944" x2="224" y2="414.78420400000005" stroke="#ef5350" stroke-width="2"/><rect x="220" y="387.05338400000073" width="8" height="5.942319999996926" fill="#ef5350"/><line x1="236" y1="385.072611999999" x2="236" y2="434.5919320000007" stroke="#26a69a" stroke-width="2"/><rect x="232" y="398.93802200000437" width="8" height="2" fill="#26a69a"/><line x1="248" y1="299.8993799999994" x2="248" y2="412.80343199999834" stroke="#26a69a" stroke-width="2"/><rect x="244" y="315.74556399999665" width="8" height="81.21168600000601" fill="#26a69a"/><line x1="260" y1="202.8415119999977" x2="260" y2="321.68788200000336" stroke="#26a69a" stroke-width="2"/><rect x="256" y="236.5146500000037" width="8" height="73.28859399999601" fill="#26a69a"/><line x1="272" y1="228.5915599999953" x2="272" y2="280.0916519999987" stroke="#ef5350" stroke-width="2"/><rect x="268" y="238.49542399999564" width="8" height="16.04426000000103" fill="#ef5350"/><line x1="284" y1="250.38005999999768" x2="284" y2="343.4763819999944" stroke="#ef5350" stroke-width="2"/><rect x="280" y="250.38005999999768" width="8" height="67.34627600000067" fill="#ef5350"/><line x1="296" y1="238.49542399999564" x2="296" y2="349.41870200000267" stroke="#ef5350" stroke-width="2"/><rect x="292" y="313.7647900000047" width="8" height="23.967351999999664" fill="#ef5350"/><line x1="308" y1="333.5725180000054" x2="308" y2="406.861114000003" stroke="#ef5350" stroke-width="2"/><rect x="304" y="345.45715599999767" width="8" height="49.5193200000017" fill="#ef5350"/><line x1="320" y1="387.05338400000073" x2="320" y2="449.44772799999555" stroke="#ef5350" stroke-width="2"/><rect x="316" y="387.05338400000073" width="8" height="52.49047999999448" fill="#ef5350"/><line x1="332" y1="446.47657000000436" x2="332" y2="539.572892000001" stroke="#ef5350" stroke-width="2"/><rect x="328" y="446.47657000000436" width="8" height="35.65390999999636" fill="#ef5350"/><line x1="344" y1="468.2650699999954" x2="344" y2="521.7459360000021" stroke="#ef5350" stroke-width="2"/><rect x="340" y="490.05357199999935" width="8" height="2" fill="#ef5350"/><line x1="356" y1="436.572706000004" x2="356" y2="495.9958899999947" stroke="#26a69a" stroke-width="2"/><rect x="352" y="464.30352400000174" width="8" height="19.807730000002266" fill="#26a69a"/><line x1="368" y1="436.572706000004" x2="368" y2="497.9766619999964" stroke="#26a69a" stroke-width="2"/><rect x="364" y="468.2650699999954" width="8" height="2" fill="#26a69a"/><line x1="380" y1="446.47657000000436" x2="380" y2="497.9766619999964" stroke="#ef5350" stroke-width="2"/><rect x="376" y="462.32275200000004" width="8" height="29.71159200000102" fill="#ef5350"/><line x1="392" y1="454.3996600000014" x2="392" y2="513.822846000005" stroke="#ef5350" stroke-width="2"/><rect x="388" y="494.01511800000435" width="8" height="15.846181999995679" fill="#ef5350"/><line x1="404" y1="499.9574359999997" x2="404" y2="573.2460299999957" stroke="#26a69a" stroke-width="2"/><rect x="400" y="499.9574359999997" width="8" height="9.90386400000034" fill="#26a69a"/><line x1="416" y1="468.2650699999954" x2="416" y2="517.7843919999987" stroke="#ef5350" stroke-width="2"/><rect x="412" y="495.9958899999947" width="8" height="17.82695600001034" fill="#ef5350"/><line x1="428" y1="482.1304800000007" x2="428" y2="535.611345999996" stroke="#ef5350" stroke-width="2"/><rect x="424" y="513.822846000005" width="8" height="9.90386400000034" fill="#ef5350"/><line x1="440" y1="478.1689339999957" x2="440" y2="543.5344379999947" stroke="#26a69a" stroke-width="2"/><rect x="436" y="513.822846000005" width="8" height="9.90386400000034" fill="#26a69a"/><line x1="452" y1="486.09202599999435" x2="452" y2="526.6978679999966" stroke="#ef5350" stroke-width="2"/><rect x="448" y="513.822846000005" width="8" height="9.90386400000034" fill="#ef5350"/><line x1="464" y1="503.9189820000047" x2="464" y2="563.3421659999954" stroke="#26a69a" stroke-width="2"/><rect x="460" y="513.822846000005" width="8" height="9.90386400000034" fill="#26a69a"/><line x1="476" y1="455.39004800000384" x2="476" y2="523.7267100000054" stroke="#26a69a" stroke-width="2"/><rect x="472" y="458.36120599999504" width="8" height="63.38473000000704" fill="#26a69a"/><line x1="488" y1="444.49579600000106" x2="488" y2="525.7074819999957" stroke="#ef5350" stroke-width="2"/><rect x="484" y="458.36120599999504" width="8" height="53.4808660000067" fill="#ef5350"/><line x1="500" y1="466.28429800000504" x2="500" y2="523.7267100000054" stroke="#ef5350" stroke-width="2"/><rect x="496" y="501.9382080000014" width="8" height="2" fill="#ef5350"/><line x1="512" y1="484.111254000004" x2="512" y2="515.8036179999954" stroke="#ef5350" stroke-width="2"/><rect x="508" y="495.9958899999947" width="8" height="5.942318000006708" fill="#ef5350"/><line x1="524" y1="511.84207200000174" x2="524" y2="616.8230320000021" stroke="#ef5350" stroke-width="2"/><rect x="520" y="511.84207200000174" width="8" height="42.58661599999414" fill="#ef5350"/><line x1="536" y1="515.8036179999954" x2="536" y2="573.2460299999957" stroke="#ef5350" stroke-width="2"/><rect x="532" y="539.572892000001" width="8" height="25.75004599999602" fill="#ef5350"/><line x1="548" y1="482.1304800000007" x2="548" y2="567.3037120000004" stroke="#26a69a" stroke-width="2"/><rect x="544" y="519.7651640000004" width="8" height="47.53854799999999" fill="#26a69a"/><line x1="560" y1="515.8036179999954" x2="560" y2="559.3806200000017" stroke="#ef5350" stroke-width="2"/><rect x="556" y="515.8036179999954" width="8" height="25.750046000007387" fill="#ef5350"/><line x1="572" y1="521.7459360000021" x2="572" y2="581.1691219999943" stroke="#ef5350" stroke-width="2"/><rect x="568" y="537.5921199999993" width="8" height="15.846181999995679" fill="#ef5350"/><line x1="584" y1="515.8036179999954" x2="584" y2="672.2846720000007" stroke="#26a69a" stroke-width="2"/><rect x="580" y="537.5921199999993" width="8" height="17.826953999997386" fill="#26a69a"/><line x1="596" y1="497.9766619999964" x2="596" y2="577.2075760000007" stroke="#ef5350" stroke-width="2"/><rect x="592" y="541.5536640000028" width="8" height="35.653911999997945" fill="#ef5350"/><line x1="608" y1="569.2844840000021" x2="608" y2="632.6692139999977" stroke="#26a69a" stroke-width="2"/><rect x="604" y="575.2268019999974" width="8" height="3.9615460000050007" fill="#26a69a"/><line x1="620" y1="567.3037120000004" x2="620" y2="602.9576219999967" stroke="#ef5350" stroke-width="2"/><rect x="616" y="581.1691219999943" width="8" height="13.86541000000534" fill="#ef5350"/><line x1="632" y1="597.0153040000014" x2="632" y2="692.0924000000014" stroke="#ef5350" stroke-width="2"/><rect x="628" y="597.0153040000014" width="8" height="83.19245799999635" fill="#ef5350"/><line x1="644" y1="634.649988000001" x2="644" y2="680.2077619999977" stroke="#26a69a" stroke-width="2"/><rect x="640" y="662.3808080000003" width="8" height="9.90386400000034" fill="#26a69a"/><line x1="656" y1="606.9191680000017" x2="656" y2="684.1693080000027" stroke="#26a69a" stroke-width="2"/><rect x="652" y="630.688441999996" width="8" height="41.59623000000465" fill="#26a69a"/><line x1="668" y1="614.8422600000004" x2="668" y2="658.4192619999953" stroke="#ef5350" stroke-width="2"/><rect x="664" y="632.6692139999977" width="8" height="3.9615460000050007" fill="#ef5350"/><line x1="680" y1="563.3421659999954" x2="680" y2="650.4961699999967" stroke="#26a69a" stroke-width="2"/><rect x="676" y="569.2844840000021" width="8" height="69.3270499999926" fill="#26a69a"/><line x1="692" y1="535.611345999996" x2="692" y2="581.3671979999981" stroke="#26a69a" stroke-width="2"/><rect x="688" y="565.3229379999971" width="8" height="2" fill="#26a69a"/><line x1="704" y1="533.6305739999943" x2="704" y2="567.3037120000004" stroke="#26a69a" stroke-width="2"/><rect x="700" y="546.5055979999988" width="8" height="10.894250000001193" fill="#26a69a"/><line x1="716" y1="501.9382080000014" x2="716" y2="544.5248239999955" stroke="#26a69a" stroke-width="2"/><rect x="712" y="509.8613" width="8" height="33.67313799999465" fill="#26a69a"/><line x1="728" y1="487.0824119999952" x2="728" y2="515.8036179999954" stroke="#26a69a" stroke-width="2"/><rect x="724" y="505.899753999995" width="8" height="2" fill="#26a69a"/><line x1="740" y1="490.05357199999935" x2="740" y2="539.572892000001" stroke="#26a69a" stroke-width="2"/><rect x="736" y="490.05357199999935" width="8" height="13.86541000000534" fill="#26a69a"/><line x1="752" y1="456.3804340000047" x2="752" y2="509.8613" stroke="#26a69a" stroke-width="2"/><rect x="748" y="470.24584399999867" width="8" height="19.80772800000068" fill="#26a69a"/><line x1="764" y1="436.572706000004" x2="764" y2="478.1689339999957" stroke="#26a69a" stroke-width="2"/><rect x="760" y="452.4188879999997" width="8" height="21.788502000003973" fill="#26a69a"/><line x1="776" y1="446.47657000000436" x2="776" y2="525.7074819999957" stroke="#ef5350" stroke-width="2"/><rect x="772" y="456.3804340000047" width="8" height="55.46163799999704" fill="#ef5350"/><line x1="788" y1="458.36120599999504" x2="788" y2="533.6305739999943" stroke="#26a69a" stroke-width="2"/><rect x="784" y="476.1881620000054" width="8" height="45.5577739999967" fill="#26a69a"/><line x1="800" y1="434.5919320000007" x2="800" y2="490.05357199999935" stroke="#26a69a" stroke-width="2"/><rect x="796" y="470.24584399999867" width="8" height="2" fill="#26a69a"/><line x1="812" y1="466.28429800000504" x2="812" y2="503.9189820000047" stroke="#ef5350" stroke-width="2"/><rect x="808" y="466.28429800000504" width="8" height="9.90386400000034" fill="#ef5350"/><line x1="824" y1="458.36120599999504" x2="824" y2="522.7363240000045" stroke="#ef5350" stroke-width="2"/><rect x="820" y="476.1881620000054" width="8" height="25.75004599999602" fill="#ef5350"/><line x1="836" y1="468.2650699999954" x2="836" y2="511.84207200000174" stroke="#26a69a" stroke-width="2"/><rect x="832" y="484.111254000004" width="8" height="7.923089999997046" fill="#26a69a"/><line x1="848" y1="484.111254000004" x2="848" y2="519.7651640000004" stroke="#ef5350" stroke-width="2"/><rect x="844" y="484.111254000004" width="8" height="23.76927399999431" fill="#ef5350"/><line x1="860" y1="490.05357199999935" x2="860" y2="553.438301999995" stroke="#ef5350" stroke-width="2"/><rect x="856" y="509.8613" width="8" height="25.75004599999602" fill="#ef5350"/><line x1="872" y1="539.572892000001" x2="872" y2="616.8230320000021" stroke="#ef5350" stroke-width="2"/><rect x="868" y="539.572892000001" width="8" height="31.692366000004313" fill="#ef5350"/><line x1="884" y1="553.438301999995" x2="884" y2="598.9960760000031" stroke="#26a69a" stroke-width="2"/><rect x="880" y="563.3421659999954" width="8" height="11.884636000002047" fill="#26a69a"/><line x1="896" y1="535.611345999996" x2="896" y2="585.1306679999993" stroke="#26a69a" stroke-width="2"/><rect x="892" y="553.438301999995" width="8" height="7.923092000010001" fill="#26a69a"/><line x1="908" y1="470.24584399999867" x2="908" y2="565.3229379999971" stroke="#26a69a" stroke-width="2"/><rect x="904" y="484.111254000004" width="8" height="73.28859399999601" fill="#26a69a"/><line x1="920" y1="462.32275200000004" x2="920" y2="509.8613" stroke="#26a69a" stroke-width="2"/><rect x="916" y="470.24584399999867" width="8" height="11.884636000002047" fill="#26a69a"/><line x1="932" y1="462.32275200000004" x2="932" y2="492.03434400000106" stroke="#ef5350" stroke-width="2"/><rect x="928" y="468.2650699999954" width="8" height="13.86541000000534" fill="#ef5350"/><line x1="944" y1="436.572706000004" x2="944" y2="486.09202599999435" stroke="#26a69a" stroke-width="2"/><rect x="940" y="468.2650699999954" width="8" height="13.86541000000534" fill="#26a69a"/><line x1="956" y1="456.3804340000047" x2="956" y2="484.111254000004" stroke="#ef5350" stroke-width="2"/><rect x="952" y="464.30352400000174" width="8" height="13.865409999993972" fill="#ef5350"/><line x1="968" y1="448.4573419999947" x2="968" y2="494.01511800000435" stroke="#26a69a" stroke-width="2"/><rect x="964" y="462.32275200000004" width="8" height="15.846181999995679" fill="#26a69a"/><line x1="980" y1="414.78420400000005" x2="980" y2="476.1881620000054" stroke="#26a69a" stroke-width="2"/><rect x="976" y="456.3804340000047" width="8" height="6.932703999996193" fill="#26a69a"/><line x1="992" y1="420.7265219999954" x2="992" y2="494.01511800000435" stroke="#ef5350" stroke-width="2"/><rect x="988" y="452.4188879999997" width="8" height="29.71159200000102" fill="#ef5350"/><line x1="1004" y1="400.9187939999947" x2="1004" y2="494.01511800000435" stroke="#26a69a" stroke-width="2"/><rect x="1000" y="476.1881620000054" width="8" height="2" fill="#26a69a"/><line x1="1016" y1="345.45715599999767" x2="1016" y2="488.07279799999606" stroke="#ef5350" stroke-width="2"/><rect x="1012" y="430.6303879999973" width="8" height="25.750046000007387" fill="#ef5350"/><line x1="1028" y1="438.55347799999436" x2="1028" y2="569.2844840000021" stroke="#ef5350" stroke-width="2"/><rect x="1024" y="464.30352400000174" width="8" height="101.01941399999532" fill="#ef5350"/><line x1="1040" y1="565.3229379999971" x2="1040" y2="729.7270819999994" stroke="#ef5350" stroke-width="2"/><rect x="1036" y="565.3229379999971" width="8" height="120.82714200000737" fill="#ef5350"/><line x1="1052" y1="686.1500800000044" x2="1052" y2="801.0349040000051" stroke="#ef5350" stroke-width="2"/><rect x="1048" y="686.1500800000044" width="8" height="85.17323199999964" fill="#ef5350"/><line x1="1064" y1="636.6307600000027" x2="1064" y2="787.1694939999998" stroke="#26a69a" stroke-width="2"/><rect x="1060" y="642.5730779999981" width="8" height="134.69255200000134" fill="#26a69a"/><line x1="1076" y1="557.399848" x2="1076" y2="650.4961699999967" stroke="#26a69a" stroke-width="2"/><rect x="1072" y="565.3229379999971" width="8" height="79.2309140000043" fill="#26a69a"/><line x1="1088" y1="490.05357199999935" x2="1088" y2="585.1306679999993" stroke="#26a69a" stroke-width="2"/><rect x="1084" y="492.03434400000106" width="8" height="69.32705000000396" fill="#26a69a"/><line x1="1100" y1="422.7072959999987" x2="1100" y2="559.3806200000017" stroke="#ef5350" stroke-width="2"/><rect x="1096" y="488.07279799999606" width="8" height="53.4808660000067" fill="#ef5350"/><line x1="1112" y1="458.36120599999504" x2="1112" y2="656.4384880000034" stroke="#ef5350" stroke-width="2"/><rect x="1108" y="545.5152099999964" width="8" height="99.03864200000498" fill="#ef5350"/><line x1="1124" y1="575.2268019999974" x2="1124" y2="696.053945999995" stroke="#ef5350" stroke-width="2"/><rect x="1120" y="644.5538520000014" width="8" height="31.692364000002726" fill="#ef5350"/><line x1="1136" y1="515.8036179999954" x2="1136" y2="672.2846720000007" stroke="#26a69a" stroke-width="2"/><rect x="1132" y="543.5344379999947" width="8" height="122.80791400000908" fill="#26a69a"/><line x1="1148" y1="515.8036179999954" x2="1148" y2="612.8614859999971" stroke="#ef5350" stroke-width="2"/><rect x="1144" y="547.4959839999997" width="8" height="45.5577739999967" fill="#ef5350"/><line x1="1160" y1="478.1689339999957" x2="1160" y2="595.0345319999997" stroke="#26a69a" stroke-width="2"/><rect x="1156" y="497.9766619999964" width="8" height="95.07709599999998" fill="#26a69a"/><line x1="1172" y1="299.8993799999994" x2="1172" y2="495.9958899999947" stroke="#26a69a" stroke-width="2"/><rect x="1168" y="335.5532919999973" width="8" height="160.44259799999736" fill="#26a69a"/><line x1="1184" y1="319.70711000000165" x2="1184" y2="396.95725000000266" stroke="#ef5350" stroke-width="2"/><rect x="1180" y="333.5725180000054" width="8" height="25.750047999997605" fill="#ef5350"/><line x1="1196" y1="337.53406399999903" x2="1196" y2="424.6880680000004" stroke="#26a69a" stroke-width="2"/><rect x="1192" y="343.4763819999944" width="8" height="7.923092000010001" fill="#26a69a"/><line x1="1208" y1="262.2646980000013" x2="1208" y2="363.28411199999664" stroke="#26a69a" stroke-width="2"/><rect x="1204" y="272.16856200000166" width="8" height="67.34627600000067" fill="#26a69a"/><line x1="1220" y1="260.283923999998" x2="1220" y2="347.4379279999994" stroke="#ef5350" stroke-width="2"/><rect x="1216" y="266.22624200000473" width="8" height="43.57700199999499" fill="#ef5350"/><line x1="1232" y1="229.58194599999615" x2="1232" y2="307.822471999998" stroke="#26a69a" stroke-width="2"/><rect x="1228" y="274.14933400000336" width="8" height="33.67313799999465" fill="#26a69a"/><line x1="1244" y1="216.70692200000303" x2="1244" y2="276.1301079999953" stroke="#26a69a" stroke-width="2"/><rect x="1240" y="258.3031519999963" width="8" height="13.86541000000534" fill="#26a69a"/><line x1="1256" y1="238.49542399999564" x2="1256" y2="297.9186079999977" stroke="#ef5350" stroke-width="2"/><rect x="1252" y="260.283923999998" width="8" height="2" fill="#ef5350"/><line x1="1268" y1="246.41851400000405" x2="1268" y2="314.7551779999958" stroke="#ef5350" stroke-width="2"/><rect x="1264" y="264.245470000003" width="8" height="5.942317999995339" fill="#ef5350"/><line x1="1280" y1="232.5531039999987" x2="1280" y2="301.8801540000027" stroke="#ef5350" stroke-width="2"/><rect x="1276" y="268.20701599999666" width="8" height="16.8365680000079" fill="#ef5350"/><line x1="1292" y1="216.70692200000303" x2="1292" y2="301.8801540000027" stroke="#26a69a" stroke-width="2"/><rect x="1288" y="222.64923999999837" width="8" height="60.41357200000448" fill="#26a69a"/><line x1="1304" y1="188.97610200000372" x2="1304" y2="240.47619599999734" stroke="#26a69a" stroke-width="2"/><rect x="1300" y="208.78383199999462" width="8" height="13.865408000003754" fill="#26a69a"/><line x1="1316" y1="202.8415119999977" x2="1316" y2="290.1935940000044" stroke="#ef5350" stroke-width="2"/><rect x="1312" y="202.8415119999977" width="8" height="63.38473000000704" fill="#ef5350"/><line x1="1328" y1="260.283923999998" x2="1328" y2="329.610974000002" stroke="#ef5350" stroke-width="2"/><rect x="1324" y="264.245470000003" width="8" height="53.48086599999533" fill="#ef5350"/><line x1="1340" y1="297.9186079999977" x2="1340" y2="396.95725000000266" stroke="#ef5350" stroke-width="2"/><rect x="1336" y="319.70711000000165" width="8" height="35.65390999999636" fill="#ef5350"/><line x1="1352" y1="353.3802479999963" x2="1352" y2="416.76497800000334" stroke="#ef5350" stroke-width="2"/><rect x="1348" y="353.3802479999963" width="8" height="49.5193200000017" fill="#ef5350"/><line x1="1364" y1="402.899567999998" x2="1364" y2="501.9382080000014" stroke="#ef5350" stroke-width="2"/><rect x="1360" y="404.8803399999997" width="8" height="59.42318400000204" fill="#ef5350"/><line x1="1376" y1="434.5919320000007" x2="1376" y2="503.9189820000047" stroke="#26a69a" stroke-width="2"/><rect x="1372" y="452.4188879999997" width="8" height="7.923091999998633" fill="#26a69a"/><line x1="1388" y1="394.97647599999937" x2="1388" y2="476.1881620000054" stroke="#26a69a" stroke-width="2"/><rect x="1384" y="404.8803399999997" width="8" height="49.5193200000017" fill="#26a69a"/><line x1="1400" y1="363.28411199999664" x2="1400" y2="414.78420400000005" stroke="#26a69a" stroke-width="2"/><rect x="1396" y="365.26488399999835" width="8" height="37.63468399999965" fill="#26a69a"/><line x1="1412" y1="351.3994740000044" x2="1412" y2="428.6496140000054" stroke="#ef5350" stroke-width="2"/><rect x="1408" y="357.3417919999997" width="8" height="47.53854799999999" fill="#ef5350"/><line x1="1424" y1="349.41870200000267" x2="1424" y2="422.7072959999987" stroke="#26a69a" stroke-width="2"/><rect x="1420" y="349.41870200000267" width="8" height="53.48086599999533" fill="#26a69a"/><line x1="1436" y1="347.4379279999994" x2="1436" y2="389.034158000004" stroke="#ef5350" stroke-width="2"/><rect x="1432" y="347.4379279999994" width="8" height="33.67313800000602" fill="#ef5350"/><line x1="1448" y1="379.1302940000037" x2="1448" y2="452.4188879999997" stroke="#ef5350" stroke-width="2"/><rect x="1444" y="383.0918399999973" width="8" height="41.596228000003066" fill="#ef5350"/><line x1="1460" y1="319.70711000000165" x2="1460" y2="424.6880680000004" stroke="#26a69a" stroke-width="2"/><rect x="1456" y="335.5532919999973" width="8" height="89.13477600000306" fill="#26a69a"/><line x1="1472" y1="303.8609260000044" x2="1472" y2="343.4763819999944" stroke="#26a69a" stroke-width="2"/><rect x="1468" y="303.8609260000044" width="8" height="29.71159200000102" fill="#26a69a"/><line x1="1484" y1="278.110879999997" x2="1484" y2="337.53406399999903" stroke="#26a69a" stroke-width="2"/><rect x="1480" y="305.8416999999963" width="8" height="2" fill="#26a69a"/><line x1="1496" y1="288.01474399999734" x2="1496" y2="309.8032439999997" stroke="#26a69a" stroke-width="2"/><rect x="1492" y="299.8993799999994" width="8" height="9.90386400000034" fill="#26a69a"/><line x1="1508" y1="264.245470000003" x2="1508" y2="315.74556399999665" stroke="#26a69a" stroke-width="2"/><rect x="1504" y="286.03397199999563" width="8" height="9.90386400000034" fill="#26a69a"/><line x1="1520" y1="212.74537599999803" x2="1520" y2="357.3417919999997" stroke="#26a69a" stroke-width="2"/><rect x="1516" y="226.61078600000337" width="8" height="71.3078219999943" fill="#26a69a"/><line x1="1532" y1="214.72615000000133" x2="1532" y2="288.01474399999734" stroke="#ef5350" stroke-width="2"/><rect x="1528" y="232.5531039999987" width="8" height="33.67313800000602" fill="#ef5350"/><line x1="1544" y1="208.78383199999462" x2="1544" y2="270.18778799999836" stroke="#26a69a" stroke-width="2"/><rect x="1540" y="238.49542399999564" width="8" height="29.71159200000102" fill="#26a69a"/><line x1="1556" y1="234.533878000002" x2="1556" y2="307.822471999998" stroke="#ef5350" stroke-width="2"/><rect x="1552" y="236.5146500000037" width="8" height="51.500093999993624" fill="#ef5350"/><line x1="1568" y1="301.8801540000027" x2="1568" y2="418.74575000000505" stroke="#ef5350" stroke-width="2"/><rect x="1564" y="301.8801540000027" width="8" height="61.40395799999396" fill="#ef5350"/><line x1="1580" y1="258.3031519999963" x2="1580" y2="363.28411199999664" stroke="#26a69a" stroke-width="2"/><rect x="1576" y="262.2646980000013" width="8" height="101.01941399999532" fill="#26a69a"/><line x1="1592" y1="256.3223780000044" x2="1592" y2="307.822471999998" stroke="#ef5350" stroke-width="2"/><rect x="1588" y="260.283923999998" width="8" height="37.63468399999965" fill="#ef5350"/><line x1="1604" y1="276.1301079999953" x2="1604" y2="312.77440400000387" stroke="#ef5350" stroke-width="2"/><rect x="1600" y="289.99551599999904" width="8" height="7.923091999998633" fill="#ef5350"/><line x1="1616" y1="274.14933400000336" x2="1616" y2="313.7647900000047" stroke="#26a69a" stroke-width="2"/><rect x="1612" y="276.1301079999953" width="8" height="23.769272000004094" fill="#26a69a"/><line x1="1628" y1="250.38005999999768" x2="1628" y2="327.6301999999987" stroke="#ef5350" stroke-width="2"/><rect x="1624" y="276.1301079999953" width="8" height="29.71159200000102" fill="#ef5350"/><line x1="1640" y1="291.97629000000234" x2="1640" y2="335.5532919999973" stroke="#ef5350" stroke-width="2"/><rect x="1636" y="303.8609260000044" width="8" height="26.74043399999846" fill="#ef5350"/><line x1="1652" y1="305.8416999999963" x2="1652" y2="341.49561000000404" stroke="#ef5350" stroke-width="2"/><rect x="1648" y="325.649427999997" width="8" height="3.9615460000050007" fill="#ef5350"/><line x1="1664" y1="331.5917460000037" x2="1664" y2="396.95725000000266" stroke="#ef5350" stroke-width="2"/><rect x="1660" y="331.5917460000037" width="8" height="25.75004599999602" fill="#ef5350"/><line x1="1676" y1="327.6301999999987" x2="1676" y2="355.361019999998" stroke="#26a69a" stroke-width="2"/><rect x="1672" y="341.49561000000404" width="8" height="9.90386400000034" fill="#26a69a"/><line x1="1688" y1="317.72633599999835" x2="1688" y2="365.26488399999835" stroke="#ef5350" stroke-width="2"/><rect x="1684" y="337.53406399999903" width="8" height="15.846183999997265" fill="#ef5350"/><line x1="1700" y1="315.74556399999665" x2="1700" y2="371.20720200000505" stroke="#26a69a" stroke-width="2"/><rect x="1696" y="337.53406399999903" width="8" height="17.826955999998972" fill="#26a69a"/><line x1="1712" y1="333.5725180000054" x2="1712" y2="406.861114000003" stroke="#ef5350" stroke-width="2"/><rect x="1708" y="337.53406399999903" width="8" height="37.63468399999965" fill="#ef5350"/><line x1="1724" y1="280.0916519999987" x2="1724" y2="377.1495200000004" stroke="#26a69a" stroke-width="2"/><rect x="1720" y="286.03397199999563" width="8" height="91.11554800000476" fill="#26a69a"/><line x1="1736" y1="256.3223780000044" x2="1736" y2="311.784018000003" stroke="#ef5350" stroke-width="2"/><rect x="1732" y="288.01474399999734" width="8" height="21.788500000002387" fill="#ef5350"/><line x1="1748" y1="238.49542399999564" x2="1748" y2="301.8801540000027" stroke="#26a69a" stroke-width="2"/><rect x="1744" y="262.2646980000013" width="8" height="37.634681999998065" fill="#26a69a"/><line x1="1760" y1="248.39928799999598" x2="1760" y2="276.1301079999953" stroke="#26a69a" stroke-width="2"/><rect x="1756" y="252.36083400000098" width="8" height="5.942317999995339" fill="#26a69a"/><line x1="1772" y1="226.61078600000337" x2="1772" y2="262.2646980000013" stroke="#26a69a" stroke-width="2"/><rect x="1768" y="244.43774200000234" width="8" height="11.884636000002047" fill="#26a69a"/><line x1="1784" y1="202.8415119999977" x2="1784" y2="244.43774200000234" stroke="#26a69a" stroke-width="2"/><rect x="1780" y="226.61078600000337" width="8" height="15.846183999997265" fill="#26a69a"/><line x1="1796" y1="179.07223800000338" x2="1796" y2="228.5915599999953" stroke="#26a69a" stroke-width="2"/><rect x="1792" y="212.74537599999803" width="8" height="15.846183999997265" fill="#26a69a"/><line x1="1808" y1="206.8030580000027" x2="1808" y2="269.1974019999975" stroke="#ef5350" stroke-width="2"/><rect x="1804" y="212.74537599999803" width="8" height="31.692366000004313" fill="#ef5350"/><line x1="1820" y1="198.87996800000565" x2="1820" y2="248.39928799999598" stroke="#26a69a" stroke-width="2"/><rect x="1816" y="236.5146500000037" width="8" height="7.923091999998633" fill="#26a69a"/><line x1="1832" y1="236.5146500000037" x2="1832" y2="305.8416999999963" stroke="#ef5350" stroke-width="2"/><rect x="1828" y="236.5146500000037" width="8" height="43.57700199999499" fill="#ef5350"/><line x1="1844" y1="276.1301079999953" x2="1844" y2="313.7647900000047" stroke="#ef5350" stroke-width="2"/><rect x="1840" y="282.072426000002" width="8" height="11.884636000002047" fill="#ef5350"/><line x1="1856" y1="272.16856200000166" x2="1856" y2="333.5725180000054" stroke="#ef5350" stroke-width="2"/><rect x="1852" y="291.97629000000234" width="8" height="15.846181999995679" fill="#ef5350"/><line x1="1868" y1="288.01474399999734" x2="1868" y2="337.53406399999903" stroke="#ef5350" stroke-width="2"/><rect x="1864" y="305.8416999999963" width="8" height="15.846182000007047" fill="#ef5350"/><line x1="1880" y1="301.8801540000027" x2="1880" y2="351.3994740000044" stroke="#26a69a" stroke-width="2"/><rect x="1876" y="317.72633599999835" width="8" height="13.86541000000534" fill="#26a69a"/><line x1="1892" y1="266.22624200000473" x2="1892" y2="331.5917460000037" stroke="#ef5350" stroke-width="2"/><rect x="1888" y="317.72633599999835" width="8" height="2" fill="#ef5350"/><line x1="1904" y1="315.74556399999665" x2="1904" y2="376.15913399999954" stroke="#ef5350" stroke-width="2"/><rect x="1900" y="315.74556399999665" width="8" height="45.55777400000807" fill="#ef5350"/><line x1="1916" y1="347.4379279999994" x2="1916" y2="381.1110660000054" stroke="#ef5350" stroke-width="2"/><rect x="1912" y="365.26488399999835" width="8" height="3.9615460000050007" fill="#ef5350"/><line x1="1928" y1="272.16856200000166" x2="1928" y2="373.187975999997" stroke="#26a69a" stroke-width="2"/><rect x="1924" y="327.6301999999987" width="8" height="29.71159200000102" fill="#26a69a"/><line x1="1940" y1="284.0531980000037" x2="1940" y2="377.1495200000004" stroke="#26a69a" stroke-width="2"/><rect x="1936" y="291.97629000000234" width="8" height="43.57700199999499" fill="#26a69a"/><rect x="75" y="978.8126988977639" width="10" height="41.18730110223612" fill="#26a69a" opacity="0.9"/><rect x="87" y="985.0076397816603" width="10" height="34.99236021833974" fill="#26a69a" opacity="0.9"/><rect x="99" y="997.721553668149" width="10" height="22.278446331851" fill="#26a69a" opacity="0.9"/><rect x="111" y="980.1858837910178" width="10" height="39.81411620898223" fill="#26a69a" opacity="0.9"/><rect x="123" y="986.4705262492361" width="10" height="33.52947375076394" fill="#26a69a" opacity="0.9"/><rect x="135" y="989.2722185925942" width="10" height="30.727781407405814" fill="#26a69a" opacity="0.9"/><rect x="147" y="981.4835929102826" width="10" height="38.516407089717404" fill="#26a69a" opacity="0.9"/><rect x="159" y="996.4803525890957" width="10" height="23.519647410904327" fill="#ef5350" opacity="0.9"/><rect x="171" y="996.733650867247" width="10" height="23.26634913275302" fill="#ef5350" opacity="0.9"/><rect x="183" y="999.3492223229151" width="10" height="20.650777677084875" fill="#26a69a" opacity="0.9"/><rect x="195" y="986.1136957575502" width="10" height="33.886304242449796" fill="#26a69a" opacity="0.9"/><rect x="207" y="995.6109981243019" width="10" height="24.389001875698114" fill="#26a69a" opacity="0.9"/><rect x="219" y="998.6707306792556" width="10" height="21.3292693207444" fill="#ef5350" opacity="0.9"/><rect x="231" y="989.1473476785601" width="10" height="30.852652321439905" fill="#26a69a" opacity="0.9"/><rect x="243" y="990.6809679866805" width="10" height="29.319032013319543" fill="#26a69a" opacity="0.9"/><rect x="255" y="991.1148548968366" width="10" height="28.88514510316338" fill="#26a69a" opacity="0.9"/><rect x="267" y="998.3103437374866" width="10" height="21.68965626251338" fill="#ef5350" opacity="0.9"/><rect x="279" y="1000.5568347067377" width="10" height="19.44316529326227" fill="#ef5350" opacity="0.9"/><rect x="291" y="998.983303125461" width="10" height="21.01669687453898" fill="#ef5350" opacity="0.9"/><rect x="303" y="995.2233450652279" width="10" height="24.77665493477207" fill="#ef5350" opacity="0.9"/><rect x="315" y="989.140629939514" width="10" height="30.859370060485958" fill="#ef5350" opacity="0.9"/><rect x="327" y="991.7036449661742" width="10" height="28.296355033825762" fill="#ef5350" opacity="0.9"/><rect x="339" y="1001.988503445805" width="10" height="18.01149655419499" fill="#ef5350" opacity="0.9"/><rect x="351" y="1001.4115682100781" width="10" height="18.588431789921856" fill="#26a69a" opacity="0.9"/><rect x="363" y="995.5702965289047" width="10" height="24.42970347109531" fill="#26a69a" opacity="0.9"/><rect x="375" y="1003.7038978692913" width="10" height="16.296102130708732" fill="#ef5350" opacity="0.9"/><rect x="387" y="1003.3075512655694" width="10" height="16.692448734430627" fill="#ef5350" opacity="0.9"/><rect x="399" y="996.8284895361336" width="10" height="23.17151046386641" fill="#26a69a" opacity="0.9"/><rect x="411" y="999.9056091803832" width="10" height="20.09439081961682" fill="#ef5350" opacity="0.9"/><rect x="423" y="1003.1803093848132" width="10" height="16.8196906151868" fill="#ef5350" opacity="0.9"/><rect x="435" y="1001.6470842378133" width="10" height="18.35291576218674" fill="#26a69a" opacity="0.9"/><rect x="447" y="1007.1157189824864" width="10" height="12.884281017513558" fill="#ef5350" opacity="0.9"/><rect x="459" y="999.0192627874138" width="10" height="20.980737212586178" fill="#26a69a" opacity="0.9"/><rect x="471" y="1003.9872283925899" width="10" height="16.01277160741006" fill="#26a69a" opacity="0.9"/><rect x="483" y="998.2301260300533" width="10" height="21.76987396994673" fill="#ef5350" opacity="0.9"/><rect x="495" y="1005.6496712259478" width="10" height="14.350328774052173" fill="#ef5350" opacity="0.9"/><rect x="507" y="1004.1516154186601" width="10" height="15.848384581339928" fill="#ef5350" opacity="0.9"/><rect x="519" y="996.855360492318" width="10" height="23.144639507681973" fill="#ef5350" opacity="0.9"/><rect x="531" y="998.3048114818015" width="10" height="21.695188518198506" fill="#ef5350" opacity="0.9"/><rect x="543" y="1003.585349533183" width="10" height="16.414650466816965" fill="#26a69a" opacity="0.9"/><rect x="555" y="1002.8116240595166" width="10" height="17.18837594048341" fill="#ef5350" opacity="0.9"/><rect x="567" y="1000.0304800944172" width="10" height="19.969519905582843" fill="#ef5350" opacity="0.9"/><rect x="579" y="985.9386393812304" width="10" height="34.06136061876964" fill="#26a69a" opacity="0.9"/><rect x="591" y="998.1684808952771" width="10" height="21.83151910472293" fill="#ef5350" opacity="0.9"/><rect x="603" y="993.9264262682037" width="10" height="26.073573731796273" fill="#26a69a" opacity="0.9"/><rect x="615" y="998.3708033889018" width="10" height="21.629196611098223" fill="#ef5350" opacity="0.9"/><rect x="627" y="989.318057282556" width="10" height="30.68194271744403" fill="#ef5350" opacity="0.9"/><rect x="639" y="998.4253356235116" width="10" height="21.574664376488386" fill="#26a69a" opacity="0.9"/><rect x="651" y="983.1776486332694" width="10" height="36.82235136673057" fill="#26a69a" opacity="0.9"/><rect x="663" y="998.3372146936711" width="10" height="21.662785306328942" fill="#ef5350" opacity="0.9"/><rect x="675" y="997.7816181584438" width="10" height="22.218381841556152" fill="#26a69a" opacity="0.9"/><rect x="687" y="1001.0385361124576" width="10" height="18.961463887542436" fill="#26a69a" opacity="0.9"/><rect x="699" y="1000.6496975700226" width="10" height="19.350302429977432" fill="#26a69a" opacity="0.9"/><rect x="711" y="998.0376825644377" width="10" height="21.96231743556234" fill="#26a69a" opacity="0.9"/><rect x="723" y="1004.1828331471686" width="10" height="15.817166852831406" fill="#26a69a" opacity="0.9"/><rect x="735" y="1001.6506406878965" width="10" height="18.349359312103502" fill="#26a69a" opacity="0.9"/><rect x="747" y="1000.1292703745073" width="10" height="19.870729625492686" fill="#26a69a" opacity="0.9"/><rect x="759" y="1002.7128337794263" width="10" height="17.28716622057368" fill="#26a69a" opacity="0.9"/><rect x="771" y="1002.9289869122637" width="10" height="17.071013087736333" fill="#ef5350" opacity="0.9"/><rect x="783" y="996.5439735294738" width="10" height="23.45602647052624" fill="#26a69a" opacity="0.9"/><rect x="795" y="1000.9318426099602" width="10" height="19.0681573900398" fill="#26a69a" opacity="0.9"/><rect x="807" y="1003.7734462264748" width="10" height="16.22655377352521" fill="#ef5350" opacity="0.9"/><rect x="819" y="1005.4240342262218" width="10" height="14.575965773778194" fill="#ef5350" opacity="0.9"/><rect x="831" y="1003.4608737802694" width="10" height="16.539126219730633" fill="#26a69a" opacity="0.9"/><rect x="843" y="1003.6884865855972" width="10" height="16.31151341440284" fill="#ef5350" opacity="0.9"/><rect x="855" y="994.0177084870071" width="10" height="25.9822915129929" fill="#ef5350" opacity="0.9"/><rect x="867" y="993.6138538219983" width="10" height="26.386146178001695" fill="#ef5350" opacity="0.9"/><rect x="879" y="999.2255368922422" width="10" height="20.77446310775781" fill="#26a69a" opacity="0.9"/><rect x="891" y="998.5810291049337" width="10" height="21.41897089506631" fill="#26a69a" opacity="0.9"/><rect x="903" y="992.8124670699067" width="10" height="27.18753293009331" fill="#26a69a" opacity="0.9"/><rect x="915" y="997.5903601761892" width="10" height="22.409639823810835" fill="#26a69a" opacity="0.9"/><rect x="927" y="998.3214082488566" width="10" height="21.678591751143358" fill="#ef5350" opacity="0.9"/><rect x="939" y="994.4365792745896" width="10" height="25.563420725410424" fill="#26a69a" opacity="0.9"/><rect x="951" y="997.3761828489536" width="10" height="22.62381715104641" fill="#ef5350" opacity="0.9"/><rect x="963" y="995.0008693544648" width="10" height="24.99913064553516" fill="#26a69a" opacity="0.9"/><rect x="975" y="987.2213323779215" width="10" height="32.7786676220785" fill="#26a69a" opacity="0.9"/><rect x="987" y="974.7401683913254" width="10" height="45.25983160867463" fill="#ef5350" opacity="0.9"/><rect x="999" y="923.9564321692765" width="10" height="96.04356783072353" fill="#26a69a" opacity="0.9"/><rect x="1011" y="981.8309395350798" width="10" height="38.16906046492022" fill="#ef5350" opacity="0.9"/><rect x="1023" y="986.3899133806824" width="10" height="33.6100866193176" fill="#ef5350" opacity="0.9"/><rect x="1035" y="970.626145967249" width="10" height="49.373854032750955" fill="#ef5350" opacity="0.9"/><rect x="1047" y="946.2174387236822" width="10" height="73.78256127631778" fill="#ef5350" opacity="0.9"/><rect x="1059" y="964.2806486964952" width="10" height="55.71935130350482" fill="#26a69a" opacity="0.9"/><rect x="1071" y="983.018398701764" width="10" height="36.981601298236" fill="#26a69a" opacity="0.9"/><rect x="1083" y="990.2328552761912" width="10" height="29.76714472380877" fill="#26a69a" opacity="0.9"/><rect x="1095" y="977.2486511833758" width="10" height="42.75134881662416" fill="#ef5350" opacity="0.9"/><rect x="1107" y="980.8679318847604" width="10" height="39.132068115239576" fill="#ef5350" opacity="0.9"/><rect x="1119" y="991.9296771270206" width="10" height="28.070322872979432" fill="#ef5350" opacity="0.9"/><rect x="1131" y="994.3919260679888" width="10" height="25.608073932011166" fill="#26a69a" opacity="0.9"/><rect x="1143" y="994.683554974815" width="10" height="25.316445025184976" fill="#ef5350" opacity="0.9"/><rect x="1155" y="985.7299943096799" width="10" height="34.27000569032009" fill="#26a69a" opacity="0.9"/><rect x="1167" y="972.3047904065418" width="10" height="47.69520959345823" fill="#26a69a" opacity="0.9"/><rect x="1179" y="994.9996838711037" width="10" height="25.000316128896316" fill="#ef5350" opacity="0.9"/><rect x="1191" y="992.3121930915298" width="10" height="27.68780690847018" fill="#26a69a" opacity="0.9"/><rect x="1203" y="989.4777023751818" width="10" height="30.52229762481818" fill="#26a69a" opacity="0.9"/><rect x="1215" y="986.6301713418618" width="10" height="33.3698286581382" fill="#ef5350" opacity="0.9"/><rect x="1227" y="979.9246822904593" width="10" height="40.07531770954074" fill="#26a69a" opacity="0.9"/><rect x="1239" y="998.3297066323843" width="10" height="21.670293367615727" fill="#26a69a" opacity="0.9"/><rect x="1251" y="994.4310470189046" width="10" height="25.568952981095435" fill="#ef5350" opacity="0.9"/><rect x="1263" y="994.039442348627" width="10" height="25.96055765137305" fill="#ef5350" opacity="0.9"/><rect x="1275" y="992.6046123205969" width="10" height="27.395387679403143" fill="#ef5350" opacity="0.9"/><rect x="1287" y="1000.6927701321418" width="10" height="19.307229867858155" fill="#26a69a" opacity="0.9"/><rect x="1299" y="998.9809321587388" width="10" height="21.019067841261176" fill="#26a69a" opacity="0.9"/><rect x="1311" y="997.0260700963139" width="10" height="22.9739299036861" fill="#ef5350" opacity="0.9"/><rect x="1323" y="1000.2351735547641" width="10" height="19.76482644523594" fill="#ef5350" opacity="0.9"/><rect x="1335" y="997.9349406731438" width="10" height="22.065059326856158" fill="#ef5350" opacity="0.9"/><rect x="1347" y="1000.3023509452254" width="10" height="19.697649054774615" fill="#ef5350" opacity="0.9"/><rect x="1359" y="995.0000790322241" width="10" height="24.999920967775893" fill="#ef5350" opacity="0.9"/><rect x="1371" y="999.9115365971886" width="10" height="20.088463402811385" fill="#26a69a" opacity="0.9"/><rect x="1383" y="999.5428512718919" width="10" height="20.45714872810811" fill="#26a69a" opacity="0.9"/><rect x="1395" y="1000.1348026301924" width="10" height="19.86519736980756" fill="#26a69a" opacity="0.9"/><rect x="1407" y="1002.299495247529" width="10" height="17.700504752471033" fill="#ef5350" opacity="0.9"/><rect x="1419" y="1004.620276507408" width="10" height="15.379723492592007" fill="#26a69a" opacity="0.9"/><rect x="1431" y="1006.5794853421569" width="10" height="13.420514657843114" fill="#ef5350" opacity="0.9"/><rect x="1443" y="1005.412179392611" width="10" height="14.587820607388949" fill="#ef5350" opacity="0.9"/><rect x="1455" y="1000.3454235073448" width="10" height="19.654576492655224" fill="#26a69a" opacity="0.9"/><rect x="1467" y="1005.0478408396383" width="10" height="14.952159160361703" fill="#26a69a" opacity="0.9"/><rect x="1479" y="996.9478281944824" width="10" height="23.05217180551756" fill="#26a69a" opacity="0.9"/><rect x="1491" y="1001.1717054100192" width="10" height="18.82829458998083" fill="#26a69a" opacity="0.9"/><rect x="1503" y="999.8060285780522" width="10" height="20.193971421947822" fill="#26a69a" opacity="0.9"/><rect x="1515" y="989.3227992160004" width="10" height="30.677200783999638" fill="#26a69a" opacity="0.9"/><rect x="1527" y="995.0826677063794" width="10" height="24.917332293620575" fill="#ef5350" opacity="0.9"/><rect x="1539" y="997.2924086914371" width="10" height="22.707591308562883" fill="#26a69a" opacity="0.9"/><rect x="1551" y="997.3959409049717" width="10" height="22.604059095028333" fill="#ef5350" opacity="0.9"/><rect x="1563" y="944.5028346224367" width="10" height="75.4971653775633" fill="#ef5350" opacity="0.9"/><rect x="1575" y="996.4858848447807" width="10" height="23.514115155219315" fill="#26a69a" opacity="0.9"/><rect x="1587" y="1002.9625756074944" width="10" height="17.037424392505613" fill="#ef5350" opacity="0.9"/><rect x="1599" y="1001.0776570633733" width="10" height="18.922342936626706" fill="#ef5350" opacity="0.9"/><rect x="1611" y="1002.3978903664988" width="10" height="17.602109633501186" fill="#26a69a" opacity="0.9"/><rect x="1623" y="997.7002149676495" width="10" height="22.29978503235054" fill="#ef5350" opacity="0.9"/><rect x="1635" y="1000.2478187106157" width="10" height="19.75218128938434" fill="#ef5350" opacity="0.9"/><rect x="1647" y="1005.7777034289447" width="10" height="14.222296571055267" fill="#ef5350" opacity="0.9"/><rect x="1659" y="997.3489167316487" width="10" height="22.65108326835127" fill="#ef5350" opacity="0.9"/><rect x="1671" y="1007.2129286180952" width="10" height="12.787071381904752" fill="#26a69a" opacity="0.9"/><rect x="1683" y="1006.140461337436" width="10" height="13.859538662563978" fill="#ef5350" opacity="0.9"/><rect x="1695" y="1004.9636715210015" width="10" height="15.036328478998485" fill="#26a69a" opacity="0.9"/><rect x="1707" y="1002.7645998861937" width="10" height="17.23540011380635" fill="#ef5350" opacity="0.9"/><rect x="1719" y="995.1269257518599" width="10" height="24.873074248140142" fill="#26a69a" opacity="0.9"/><rect x="1731" y="993.9777972138506" width="10" height="26.022202786149364" fill="#ef5350" opacity="0.9"/><rect x="1743" y="1001.7577293515143" width="10" height="18.242270648485714" fill="#26a69a" opacity="0.9"/><rect x="1755" y="1001.0875360913823" width="10" height="18.912463908617724" fill="#26a69a" opacity="0.9"/><rect x="1767" y="1000.889955531202" width="10" height="19.110044468798037" fill="#26a69a" opacity="0.9"/><rect x="1779" y="998.191400240258" width="10" height="21.808599759742037" fill="#26a69a" opacity="0.9"/><rect x="1791" y="995.128111235221" width="10" height="24.871888764778987" fill="#26a69a" opacity="0.9"/><rect x="1803" y="998.743440325402" width="10" height="21.256559674597952" fill="#ef5350" opacity="0.9"/><rect x="1815" y="1004.5040991380218" width="10" height="15.495900861978157" fill="#26a69a" opacity="0.9"/><rect x="1827" y="998.9244241185272" width="10" height="21.075575881472787" fill="#ef5350" opacity="0.9"/><rect x="1839" y="1000.0921252291935" width="10" height="19.90787477080653" fill="#ef5350" opacity="0.9"/><rect x="1851" y="994.1868374465215" width="10" height="25.81316255347849" fill="#ef5350" opacity="0.9"/><rect x="1863" y="1002.6365676831967" width="10" height="17.363432316803255" fill="#ef5350" opacity="0.9"/><rect x="1875" y="998.0254325697064" width="10" height="21.974567430293632" fill="#26a69a" opacity="0.9"/><rect x="1887" y="994.3350228666568" width="10" height="25.6649771333432" fill="#ef5350" opacity="0.9"/><rect x="1899" y="991.5246369786507" width="10" height="28.475363021349267" fill="#ef5350" opacity="0.9"/><rect x="1911" y="990.2407584985986" width="10" height="29.759241501401448" fill="#ef5350" opacity="0.9"/><rect x="1923" y="977.107578663407" width="10" height="42.892421336592975" fill="#26a69a" opacity="0.9"/><rect x="1935" y="860.0" width="10" height="160.0" fill="#26a69a" opacity="0.9"/><rect x="1004" y="430.6303879999973" width="12" height="45.55777400000807" fill="#00ff00" opacity="0.60"/><polyline points="320,490.18939606189633,332,489.42188024648203,344,489.67068631824304,356,487.25476609746465,368,485.44622361198435,380,486.0736636489378,392,488.33915282522184,404,489.4456559847299,416,491.767293129044,428,494.8110471167638,440,496.6216946294594,452,499.2031246647457,464,500.5954790776286,476,496.5731673559503,488,498.0273487506224,500,498.58845667913556,512,498.9074806144572,524,504.19521465117896,536,510.01690258916597,548,510.9453084378174,560,513.8603899199325,572,517.6297148799335,584,519.5308963199409,596,525.0239134323238,608,529.8051409149593,620,536.0174638754415,632,549.7498732206282,644,560.4766289138979,656,567.1634682554327,668,573.7794008025276,680,573.3513134880013,692,572.5867062986708,704,570.1027912226095,716,564.3655063442679,728,558.7973394543269,740,552.2503139824835,752,544.4403644603426,764,535.6764143212672,776,533.4064769573388,788,527.9571136280765,800,522.460802234923,812,518.0538841173188,824,516.5190578204374,836,513.4326003137289,848,512.9038315219418,860,515.0664519484167,872,520.418719191423,884,524.5066665065337,896,527.2620603630571,908,523.1524597570456,920,518.1137344468539,932,514.6867578328738,944,510.2656447059303,956,507.20881511489324,968,502.93395196108577,980,498.5002835838486,992,496.9412546711055,1004,494.96476965481406,1016,491.2900710210238,1028,498.3408202571127,1040,516.2274164231007,1052,540.5222636209032,1064,550.2413887998614,1076,551.677726818923,1088,545.9974046456864,1100,545.5741912508643,1112,555.0008256079309,1124,566.5480056452793,1136,564.3562372981137,1148,567.089334507807,1160,560.5071752213462,1172,539.0829958669315,1184,521.9629549272213,1196,504.96423369605736,1208,482.79321734405585,1220,466.3179817874834,1232,448.01620580772124,1244,429.9482959212696,1256,413.9784294525725,1268,400.28408264756763,1280,389.30879706208543,1292,373.4364582942703,1304,357.75525579005034,1316,349.03820685766505,1328,346.0561239188337,1340,346.94230449798624,1352,352.27156768864916,1364,362.94127781354746,1376,371.46295497416304,1388,374.64556307186285,1400,373.7521650650251,1412,376.71675315407356,1424,374.11693875844776,1436,374.7830461147828,1448,379.53590534194745,1460,375.3470850236681,1472,368.5388794023652,1484,362.5677194592754,1496,356.59930617744067,1508,349.87879816053464,1520,338.1389874785782,1532,331.2901545758564,1544,322.45256118768566,1556,319.17276907456653,1568,323.37384935318596,1580,317.5539301767003,1592,315.6838994932059,1604,313.99196697004754,1616,310.38607563956475,1628,309.9532779596075,1640,311.91976196345195,1652,313.604639300263,1664,317.7700824145177,1676,320.02965647027395,1688,323.2059032826214,1700,324.5704900176065,1712,329.3893717302126,1724,325.26028604161183,1736,323.7881867995611,1748,317.928806913892,1760,311.6842380649473,1772,305.27980986828425,1784,297.7875218808322,1796,289.6882698921786,1808,285.3786958072078,1820,280.72497715889995,1832,280.66466047710037,1844,281.9306034792817,1856,284.39649571935206,1868,287.9480563175093,1880,290.78408295393956,1892,293.5386569583329,1904,299.9924361051512,1916,306.586149809425,1928,308.59034506567014,1940,307.0080541070297" fill="none" stroke="#0090ff" stroke-width="2"/><line x1="80" y1="50" x2="80" y2="900" stroke="#666666" stroke-width="0.5" stroke-dasharray="4,4" opacity="0.90"/><line x1="152" y1="50" x2="152" y2="900" stroke="#666666" stroke-width="0.5" stroke-dasharray="4,4" opacity="0.90"/><line x1="224" y1="50" x2="224" y2="900" stroke="#666666" stroke-width="0.5" stroke-dasharray="4,4" opacity="0.90"/><line x1="296" y1="50" x2="296" y2="900" stroke="#666666" stroke-width="0.5" stroke-dasharray="4,4" opacity="0.90"/><line x1="368" y1="50" x2="368" y2="900" stroke="#666666" stroke-width="0.5" stroke-dasharray="4,4" opacity="0.90"/><line x1="440" y1="50" x2="440" y2="900" stroke="#666666" stroke-width="0.5" stroke-dasharray="4,4" opacity="0.90"/><line x1="512" y1="50" x2="512" y2="900" stroke="#666666" stroke-width="0.5" stroke-dasharray="4,4" opacity="0.90"/><line x1="584" y1="50" x2="584" y2="900" stroke="#666666" stroke-width="0.5" stroke-dasharray="4,4" opacity="0.90"/><line x1="656" y1="50" x2="656" y2="900" stroke="#666666" stroke-width="0.5" stroke-dasharray="4,4" opacity="0.90"/><line x1="728" y1="50" x2="728" y2="900" stroke="#666666" stroke-width="0.5" stroke-dasharray="4,4" opacity="0.90"/><line x1="800" y1="50" x2="800" y2="900" stroke="#666666" stroke-width="0.5" stroke-dasharray="4,4" opacity="0.90"/><line x1="872" y1="50" x2="872" y2="900" stroke="#666666" stroke-width="0.5" stroke-dasharray="4,4" opacity="0.90"/><line x1="944" y1="50" x2="944" y2="900" stroke="#666666" stroke-width="0.5" stroke-dasharray="4,4" opacity="0.90"/><line x1="1010" y1="30" x2="1010" y2="950" stroke="black" stroke-width="0.7"/><line x1="1016" y1="50" x2="1016" y2="900" stroke="#666666" stroke-width="0.5" stroke-dasharray="4,4" opacity="0.90"/><line x1="1088" y1="50" x2="1088" y2="900" stroke="#666666" stroke-width="0.5" stroke-dasharray="4,4" opacity="0.90"/><line x1="1160" y1="50" x2="1160" y2="900" stroke="#666666" stroke-width="0.5" stroke-dasharray="4,4" opacity="0.90"/><line x1="1232" y1="50" x2="1232" y2="900" stroke="#666666" stroke-width="0.5" stroke-dasharray="4,4" opacity="0.90"/><line x1="1304" y1="50" x2="1304" y2="900" stroke="#666666" stroke-width="0.5" stroke-dasharray="4,4" opacity="0.90"/><line x1="1376" y1="50" x2="1376" y2="900" stroke="#666666" stroke-width="0.5" stroke-dasharray="4,4" opacity="0.90"/><line x1="1448" y1="50" x2="1448" y2="900" stroke="#666666" stroke-width="0.5" stroke-dasharray="4,4" opacity="0.90"/><line x1="1520" y1="50" x2="1520" y2="900" stroke="#666666" stroke-width="0.5" stroke-dasharray="4,4" opacity="0.90"/><line x1="1592" y1="50" x2="1592" y2="900" stroke="#666666" stroke-width="0.5" stroke-dasharray="4,4" opacity="0.90"/><line x1="1664" y1="50" x2="1664" y2="900" stroke="#666666" stroke-width="0.5" stroke-dasharray="4,4" opacity="0.90"/><line x1="1736" y1="50" x2="1736" y2="900" stroke="#666666" stroke-width="0.5" stroke-dasharray="4,4" opacity="0.90"/><line x1="1808" y1="50" x2="1808" y2="900" stroke="#666666" stroke-width="0.5" stroke-dasharray="4,4" opacity="0.90"/><line x1="1880" y1="50" x2="1880" y2="900" stroke="#666666" stroke-width="0.5" stroke-dasharray="4,4" opacity="0.90"/><line x1="1946" y1="30" x2="1946" y2="950" stroke="black" stroke-width="0.7"/><text x="80" y="1040" text-anchor="middle" font-size="20" fill="black">09:30</text><text x="152" y="1040" text-anchor="middle" font-size="20" fill="black">10:00</text><text x="224" y="1040" text-anchor="middle" font-size="20" fill="black">10:30</text><text x="296" y="1040" text-anchor="middle" font-size="20" fill="black">11:00</text><text x="368" y="1040" text-anchor="middle" font-size="20" fill="black">11:30</text><text x="440" y="1040" text-anchor="middle" font-size="20" fill="black">12:00</text><text x="512" y="1040" text-anchor="middle" font-size="20" fill="black">12:30</text><text x="584" y="1040" text-anchor="middle" font-size="20" fill="black">13:00</text><text x="656" y="1040" text-anchor="middle" font-size="20" fill="black">13:30</text><text x="728" y="1040" text-anchor="middle" font-size="20" fill="black">14:00</text><text x="800" y="1040" text-anchor="middle" font-size="20" fill="black">14:30</text><text x="872" y="1040" text-anchor="middle" font-size="20" fill="black">15:00</text><text x="944" y="1040" text-anchor="middle" font-size="20" fill="black">15:30</text><text x="1016" y="1040" text-anchor="middle" font-size="20" fill="black">09:30</text><text x="1088" y="1040" text-anchor="middle" font-size="20" fill="black">10:00</text><text x="1160" y="1040" text-anchor="middle" font-size="20" fill="black">10:30</text><text x="1232" y="1040" text-anchor="middle" font-size="20" fill="black">11:00</text><text x="1304" y="1040" text-anchor="middle" font-size="20" fill="black">11:30</text><text x="1376" y="1040" text-anchor="middle" font-size="20" fill="black">12:00</text><text x="1448" y="1040" text-anchor="middle" font-size="20" fill="black">12:30</text><text x="1520" y="1040" text-anchor="middle" font-size="20" fill="black">13:00</text><text x="1592" y="1040" text-anchor="middle" font-size="20" fill="black">13:30</text><text x="1664" y="1040" text-anchor="middle" font-size="20" fill="black">14:00</text><text x="1736" y="1040" text-anchor="middle" font-size="20" fill="black">14:30</text><text x="1808" y="1040" text-anchor="middle" font-size="20" fill="black">15:00</text><text x="1880" y="1040" text-anchor="middle" font-size="20" fill="black">15:30</text><text x="1942" y="50" text-anchor="end" font-size="40" fill="#26a69a" font-weight="bold"> +0.16% (Thu)</text></svg>