<svg xmlns="http://www.w3.org/2000/svg" width="1992" height="1050"><rect width="100%" height="100%" fill="white"/><text x="42" y="854.0" text-anchor="end" font-size="20" fill="black">491</text><text x="42" y="754.0" text-anchor="end" font-size="20" fill="black">492</text><text x="42" y="654.0" text-anchor="end" font-size="20" fill="black">493</text><text x="42" y="554.0" text-anchor="end" font-size="20" fill="black">494</text><text x="42" y="454.0" text-anchor="end" font-size="20" fill="black">495</text><text x="42" y="354.0" text-anchor="end" font-size="20" fill="black">496</text><text x="42" y="254.0" text-anchor="end" font-size="20" fill="black">497</text><text x="42" y="154.0" text-anchor="end" font-size="20" fill="black">498</text><text x="42" y="54.0" text-anchor="end" font-size="20" fill="black">499</text><line x1="80" y1="671.7352559999995" x2="80" y2="885.30619" stroke="#ef5350" stroke-width="2"/><rect x="76" y="707.4959700000022" width="8" height="161.91656899999884" fill="#ef5350"/><line x1="92" y1="808.8179949999983" x2="92" y2="893.2530159999999" stroke="#26a69a" stroke-width="2"/><rect x="88" y="848.552122000001" width="8" height="29.303919000000178" fill="#26a69a"/><line x1="104" y1="746.2367449999988" x2="104" y2="884.3128369999988" stroke="#26a69a" stroke-width="2"/><rect x="100" y="768.0905150000001" width="8" height="86.42172699999833" fill="#26a69a"/><line x1="116" y1="694.582379000002" x2="116" y2="812.7914079999982" stroke="#ef5350" stroke-width="2"/><rect x="112" y="755.1769229999991" width="8" height="52.64771900000369" fill="#ef5350"/><line x1="128" y1="735.309860000001" x2="128" y2="803.8512290000028" stroke="#26a69a" stroke-width="2"/><rect x="124" y="743.2566850000001" width="8" height="52.647718999998006" fill="#26a69a"/><line x1="140" y1="678.6887279999974" x2="140" y2="747.230098" stroke="#26a69a" stroke-width="2"/><rect x="136" y="694.582379000002" width="8" height="44.70089299999813" fill="#26a69a"/><line x1="152" y1="633.9878349999992" x2="152" y2="734.316505999999" stroke="#26a69a" stroke-width="2"/><rect x="148" y="656.8349580000017" width="8" height="33.77400800000032" fill="#26a69a"/><line x1="164" y1="643.9213670000015" x2="164" y2="697.5624390000007" stroke="#ef5350" stroke-width="2"/><rect x="160" y="657.8283109999973" width="8" height="33.77400800000032" fill="#ef5350"/><line x1="176" y1="622.0675970000002" x2="176" y2="702.5292040000011" stroke="#26a69a" stroke-width="2"/><rect x="172" y="662.7950769999984" width="8" height="26.82053600000245" fill="#26a69a"/><line x1="188" y1="631.0077750000005" x2="188" y2="683.6554939999985" stroke="#26a69a" stroke-width="2"/><rect x="184" y="645.9080729999982" width="8" height="18.873710000002575" fill="#26a69a"/><line x1="200" y1="518.7588650000009" x2="200" y2="674.7153149999974" stroke="#26a69a" stroke-width="2"/><rect x="196" y="523.6262959999976" width="8" height="127.24854300000175" fill="#26a69a"/><line x1="212" y1="489.95162300000175" x2="212" y2="664.7817830000008" stroke="#ef5350" stroke-width="2"/><rect x="208" y="521.7389249999997" width="8" height="107.28214399999842" fill="#ef5350"/><line x1="224" y1="537.6325759999986" x2="224" y2="631.0077750000005" stroke="#26a69a" stroke-width="2"/><rect x="220" y="544.5860480000022" width="8" height="86.42172699999833" fill="#26a69a"/><line x1="236" y1="519.7522189999972" x2="236" y2="555.512933" stroke="#26a69a" stroke-width="2"/><rect x="232" y="539.619282000001" width="8" height="6.953472999998667" fill="#26a69a"/><line x1="248" y1="514.7854530000018" x2="248" y2="577.3667030000013" stroke="#ef5350" stroke-width="2"/><rect x="244" y="541.6059889999985" width="8" height="2" fill="#ef5350"/><line x1="260" y1="524.7189849999984" x2="260" y2="563.4597589999998" stroke="#26a69a" stroke-width="2"/><rect x="256" y="532.6658099999975" width="8" height="4.966766000001144" fill="#26a69a"/><line x1="272" y1="503.8585679999983" x2="272" y2="551.5395210000008" stroke="#26a69a" stroke-width="2"/><rect x="268" y="523.7256310000021" width="8" height="2.98005999999873" fill="#26a69a"/><line x1="284" y1="487.96491699999933" x2="284" y2="532.6658099999975" stroke="#26a69a" stroke-width="2"/><rect x="280" y="496.9050949999996" width="8" height="26.82053600000245" fill="#26a69a"/><line x1="296" y1="480.01809099999946" x2="296" y2="531.6724570000019" stroke="#ef5350" stroke-width="2"/><rect x="292" y="490.94497599999727" width="8" height="3.973412999999937" fill="#ef5350"/><line x1="308" y1="488.95827000000054" x2="308" y2="563.4597589999998" stroke="#ef5350" stroke-width="2"/><rect x="304" y="490.94497599999727" width="8" height="57.614485000004834" fill="#ef5350"/><line x1="320" y1="496.9050949999996" x2="320" y2="560.4796990000011" stroke="#26a69a" stroke-width="2"/><rect x="316" y="507.83197999999743" width="8" height="34.76736200000232" fill="#26a69a"/><line x1="332" y1="477.0380320000015" x2="332" y2="513.7921000000006" stroke="#26a69a" stroke-width="2"/><rect x="328" y="502.86521500000276" width="8" height="4.966764999994666" fill="#26a69a"/><line x1="344" y1="481.01144400000067" x2="344" y2="532.6658099999975" stroke="#26a69a" stroke-width="2"/><rect x="340" y="499.88515499999835" width="8" height="2.980060000004414" fill="#26a69a"/><line x1="356" y1="479.02473799999825" x2="356" y2="507.83197999999743" stroke="#ef5350" stroke-width="2"/><rect x="352" y="498.8918020000028" width="8" height="3.973412999999937" fill="#ef5350"/><line x1="368" y1="479.02473799999825" x2="368" y2="520.7455719999984" stroke="#ef5350" stroke-width="2"/><rect x="364" y="503.3618909999973" width="8" height="13.410268000001224" fill="#ef5350"/><line x1="380" y1="481.01144400000067" x2="380" y2="540.6126350000022" stroke="#26a69a" stroke-width="2"/><rect x="376" y="486.9715639999981" width="8" height="29.800595000000385" fill="#26a69a"/><line x1="392" y1="450.2174959999991" x2="392" y2="494.4217120000019" stroke="#26a69a" stroke-width="2"/><rect x="388" y="480.01809099999946" width="8" height="5.960119000002351" fill="#26a69a"/><line x1="404" y1="457.17096800000263" x2="404" y2="487.96491699999933" stroke="#26a69a" stroke-width="2"/><rect x="400" y="472.0712660000004" width="8" height="6.953471999997873" fill="#26a69a"/><line x1="416" y1="441.277316999998" x2="416" y2="520.7455719999984" stroke="#ef5350" stroke-width="2"/><rect x="412" y="467.10449999999923" width="8" height="26.82053600000245" fill="#ef5350"/><line x1="428" y1="439.29061100000126" x2="428" y2="491.9383289999985" stroke="#26a69a" stroke-width="2"/><rect x="424" y="441.277316999998" width="8" height="46.68760000000134" fill="#26a69a"/><line x1="440" y1="391.6096579999987" x2="440" y2="456.1776150000014" stroke="#ef5350" stroke-width="2"/><rect x="436" y="441.277316999998" width="8" height="3.973412999999937" fill="#ef5350"/><line x1="452" y1="437.30390399999806" x2="452" y2="468.09785300000044" stroke="#ef5350" stroke-width="2"/><rect x="448" y="446.24408299999914" width="8" height="2" fill="#ef5350"/><line x1="464" y1="439.29061100000126" x2="464" y2="459.15767399999936" stroke="#26a69a" stroke-width="2"/><rect x="460" y="442.2706699999992" width="8" height="2" fill="#26a69a"/><line x1="476" y1="393.59636400000113" x2="476" y2="452.2042020000015" stroke="#26a69a" stroke-width="2"/><rect x="472" y="430.3504320000002" width="8" height="10.92688499999781" fill="#26a69a"/><line x1="488" y1="400.5498369999998" x2="488" y2="448.23078900000155" stroke="#26a69a" stroke-width="2"/><rect x="484" y="415.45013400000244" width="8" height="14.900297999997747" fill="#26a69a"/><line x1="500" y1="413.463428" x2="500" y2="469.09120600000165" stroke="#ef5350" stroke-width="2"/><rect x="496" y="418.43019400000117" width="8" height="42.7141870000014" fill="#ef5350"/><line x1="512" y1="447.23743600000034" x2="512" y2="504.8519209999995" stroke="#ef5350" stroke-width="2"/><rect x="508" y="458.16432099999815" width="8" height="38.740774000001466" fill="#ef5350"/><line x1="524" y1="435.3171980000013" x2="524" y2="526.7056910000008" stroke="#26a69a" stroke-width="2"/><rect x="520" y="456.1776150000014" width="8" height="43.707539999996925" fill="#26a69a"/><line x1="536" y1="407.50330899999767" x2="536" y2="471.07791299999917" stroke="#26a69a" stroke-width="2"/><rect x="532" y="419.4235470000024" width="8" height="40.72748099999899" fill="#26a69a"/><line x1="548" y1="382.66947899999764" x2="548" y2="440.28396400000247" stroke="#26a69a" stroke-width="2"/><rect x="544" y="404.52324899999894" width="8" height="15.893650999998954" fill="#26a69a"/><line x1="560" y1="355.8489430000009" x2="560" y2="420.4168999999979" stroke="#26a69a" stroke-width="2"/><rect x="556" y="383.66283199999884" width="8" height="19.86706399999889" fill="#26a69a"/><line x1="572" y1="376.70936000000097" x2="572" y2="415.45013400000244" stroke="#26a69a" stroke-width="2"/><rect x="568" y="381.6761260000021" width="8" height="2" fill="#26a69a"/><line x1="584" y1="299.22781199999804" x2="584" y2="380.6827730000009" stroke="#26a69a" stroke-width="2"/><rect x="580" y="328.0350539999972" width="8" height="52.64771900000369" fill="#26a69a"/><line x1="596" y1="304.1945779999992" x2="596" y2="343.92870500000186" stroke="#26a69a" stroke-width="2"/><rect x="592" y="316.1148159999982" width="8" height="10.926885000003494" fill="#26a69a"/><line x1="608" y1="299.22781199999804" x2="608" y2="328.0350539999972" stroke="#26a69a" stroke-width="2"/><rect x="604" y="303.201224999998" width="8" height="11.920238000004701" fill="#26a69a"/><line x1="620" y1="287.307573999999" x2="620" y2="314.6247860000017" stroke="#26a69a" stroke-width="2"/><rect x="616" y="299.22781199999804" width="8" height="2" fill="#26a69a"/><line x1="632" y1="294.2610460000026" x2="632" y2="347.9021180000018" stroke="#ef5350" stroke-width="2"/><rect x="628" y="295.2543989999981" width="8" height="17.781022000002622" fill="#ef5350"/><line x1="644" y1="302.20787100000166" x2="644" y2="356.8422960000021" stroke="#ef5350" stroke-width="2"/><rect x="640" y="310.15469700000153" width="8" height="31.787301999997908" fill="#ef5350"/><line x1="656" y1="305.1879310000004" x2="656" y2="356.8422960000021" stroke="#26a69a" stroke-width="2"/><rect x="652" y="311.14805000000274" width="8" height="26.820535999996764" fill="#26a69a"/><line x1="668" y1="297.2411050000005" x2="668" y2="321.08158199999934" stroke="#26a69a" stroke-width="2"/><rect x="664" y="312.14140299999826" width="8" height="2" fill="#26a69a"/><line x1="680" y1="307.1746370000028" x2="680" y2="360.815709000002" stroke="#ef5350" stroke-width="2"/><rect x="676" y="311.14805000000274" width="8" height="41.72083399999451" fill="#ef5350"/><line x1="692" y1="312.14140299999826" x2="692" y2="358.8290029999996" stroke="#26a69a" stroke-width="2"/><rect x="688" y="319.0948750000018" width="8" height="33.77400899999543" fill="#26a69a"/><line x1="704" y1="296.2477519999993" x2="704" y2="327.0417010000017" stroke="#26a69a" stroke-width="2"/><rect x="700" y="298.2344590000025" width="8" height="23.840475999998034" fill="#26a69a"/><line x1="716" y1="297.2411050000005" x2="716" y2="332.00846700000284" stroke="#ef5350" stroke-width="2"/><rect x="712" y="298.2344590000025" width="8" height="23.840475999998034" fill="#ef5350"/><line x1="728" y1="304.1945779999992" x2="728" y2="333.99517299999957" stroke="#ef5350" stroke-width="2"/><rect x="724" y="323.06828800000176" width="8" height="6.953472999998667" fill="#ef5350"/><line x1="740" y1="312.14140299999826" x2="740" y2="342.93535200000065" stroke="#26a69a" stroke-width="2"/><rect x="736" y="322.07493500000055" width="8" height="7.8474900000003345" fill="#26a69a"/><line x1="752" y1="319.0948750000018" x2="752" y2="335.9818800000028" stroke="#ef5350" stroke-width="2"/><rect x="748" y="321.08158199999934" width="8" height="12.913591000000224" fill="#ef5350"/><line x1="764" y1="303.201224999998" x2="764" y2="351.87553100000173" stroke="#26a69a" stroke-width="2"/><rect x="760" y="303.201224999998" width="8" height="28.807242000004862" fill="#26a69a"/><line x1="776" y1="272.4072760000013" x2="776" y2="308.1679899999983" stroke="#26a69a" stroke-width="2"/><rect x="772" y="285.3208670000015" width="8" height="18.873710999997684" fill="#26a69a"/><line x1="788" y1="265.4538039999977" x2="788" y2="311.14805000000274" stroke="#26a69a" stroke-width="2"/><rect x="784" y="266.4471569999989" width="8" height="20.860417000000098" fill="#26a69a"/><line x1="800" y1="249.56015299999876" x2="800" y2="274.393981999998" stroke="#26a69a" stroke-width="2"/><rect x="796" y="263.4670970000002" width="8" height="2" fill="#26a69a"/><line x1="812" y1="234.65985500000102" x2="812" y2="270.42056899999807" stroke="#26a69a" stroke-width="2"/><rect x="808" y="243.6000340000021" width="8" height="19.867062999998097" fill="#26a69a"/><line x1="824" y1="222.739617000002" x2="824" y2="260.48703800000226" stroke="#ef5350" stroke-width="2"/><rect x="820" y="244.59338699999762" width="8" height="5.960119000002351" fill="#ef5350"/><line x1="836" y1="243.6000340000021" x2="836" y2="270.42056899999807" stroke="#ef5350" stroke-width="2"/><rect x="832" y="252.54021200000238" width="8" height="4.966765999995459" fill="#ef5350"/><line x1="848" y1="250.55350599999997" x2="848" y2="274.393981999998" stroke="#ef5350" stroke-width="2"/><rect x="844" y="256.5136250000023" width="8" height="5.960118999996666" fill="#ef5350"/><line x1="860" y1="260.48703800000226" x2="860" y2="278.36739499999794" stroke="#ef5350" stroke-width="2"/><rect x="856" y="263.4670970000002" width="8" height="8.94017900000108" fill="#ef5350"/><line x1="872" y1="255.5202720000011" x2="872" y2="273.4006290000025" stroke="#26a69a" stroke-width="2"/><rect x="868" y="263.4670970000002" width="8" height="8.94017900000108" fill="#26a69a"/><line x1="884" y1="221.746263" x2="884" y2="265.4538039999977" stroke="#26a69a" stroke-width="2"/><rect x="880" y="221.746263" width="8" height="39.73412799999778" fill="#26a69a"/><line x1="896" y1="214.79279100000213" x2="896" y2="238.63326800000095" stroke="#26a69a" stroke-width="2"/><rect x="892" y="214.79279100000213" width="8" height="7.946825999999874" fill="#26a69a"/><line x1="908" y1="195.91908099999955" x2="908" y2="233.6665019999998" stroke="#26a69a" stroke-width="2"/><rect x="904" y="197.90578700000196" width="8" height="17.880356999995684" fill="#26a69a"/><line x1="920" y1="160.1583660000017" x2="920" y2="201.8792000000019" stroke="#26a69a" stroke-width="2"/><rect x="916" y="170.0918979999983" width="8" height="26.82053600000245" fill="#26a69a"/><line x1="932" y1="148.2381280000027" x2="932" y2="190.9523149999984" stroke="#26a69a" stroke-width="2"/><rect x="928" y="158.1716599999993" width="8" height="11.920237999999017" fill="#26a69a"/><line x1="944" y1="151.21818700000063" x2="944" y2="175.05866399999945" stroke="#26a69a" stroke-width="2"/><rect x="940" y="152.21154100000263" width="8" height="7.94682499999908" fill="#26a69a"/><line x1="956" y1="149.2314809999982" x2="956" y2="198.8991399999975" stroke="#ef5350" stroke-width="2"/><rect x="952" y="153.20489399999815" width="8" height="38.740774000001466" fill="#ef5350"/><line x1="968" y1="170.0918979999983" x2="968" y2="208.83267199999977" stroke="#26a69a" stroke-width="2"/><rect x="964" y="176.05201700000066" width="8" height="16.88700400000016" fill="#26a69a"/><line x1="980" y1="152.21154100000263" x2="980" y2="180.0254300000006" stroke="#26a69a" stroke-width="2"/><rect x="976" y="165.12513199999717" width="8" height="12.913591000000224" fill="#26a69a"/><line x1="992" y1="166.11848499999837" x2="992" y2="237.63991399999895" stroke="#ef5350" stroke-width="2"/><rect x="988" y="166.11848499999837" width="8" height="65.56131000000391" fill="#ef5350"/><line x1="1004" y1="232.6731479999978" x2="1004" y2="303.201224999998" stroke="#ef5350" stroke-width="2"/><rect x="1000" y="232.6731479999978" width="8" height="34.76736200000232" fill="#ef5350"/><line x1="1016" y1="322.07493500000055" x2="1016" y2="445.25072999999793" stroke="#ef5350" stroke-width="2"/><rect x="1012" y="343.92870500000186" width="8" height="98.34196499999734" fill="#ef5350"/><line x1="1028" y1="388.629598" x2="1028" y2="467.10449999999923" stroke="#ef5350" stroke-width="2"/><rect x="1024" y="447.23743600000034" width="8" height="17.88035800000216" fill="#ef5350"/><line x1="1040" y1="458.16432099999815" x2="1040" y2="621.0742429999982" stroke="#ef5350" stroke-width="2"/><rect x="1036" y="462.1377339999981" width="8" height="128.1425610000042" fill="#ef5350"/><line x1="1052" y1="511.80539299999737" x2="1052" y2="616.1074770000027" stroke="#26a69a" stroke-width="2"/><rect x="1048" y="546.5727549999997" width="8" height="43.70754000000261" fill="#26a69a"/><line x1="1064" y1="461.14438100000257" x2="1064" y2="545.5794009999977" stroke="#26a69a" stroke-width="2"/><rect x="1060" y="461.14438100000257" width="8" height="84.43501999999512" fill="#26a69a"/><line x1="1076" y1="396.57642399999986" x2="1076" y2="459.15767399999936" stroke="#26a69a" stroke-width="2"/><rect x="1072" y="404.52324899999894" width="8" height="54.63442500000042" fill="#26a69a"/><line x1="1088" y1="327.0417010000017" x2="1088" y2="440.28396400000247" stroke="#26a69a" stroke-width="2"/><rect x="1084" y="330.0217610000004" width="8" height="79.46825399999966" fill="#26a69a"/><line x1="1100" y1="302.20787100000166" x2="1100" y2="366.7758279999987" stroke="#26a69a" stroke-width="2"/><rect x="1096" y="324.0616409999973" width="8" height="8.94017900000108" fill="#26a69a"/><line x1="1112" y1="302.20787100000166" x2="1112" y2="349.8888239999985" stroke="#ef5350" stroke-width="2"/><rect x="1108" y="322.07493500000055" width="8" height="26.820535999996764" fill="#ef5350"/><line x1="1124" y1="294.2610460000026" x2="1124" y2="348.8954709999973" stroke="#26a69a" stroke-width="2"/><rect x="1120" y="301.21451800000045" width="8" height="43.707539999996925" fill="#26a69a"/><line x1="1136" y1="254.5269189999999" x2="1136" y2="323.06828800000176" stroke="#ef5350" stroke-width="2"/><rect x="1132" y="293.2676930000014" width="8" height="3.9734119999991435" fill="#ef5350"/><line x1="1148" y1="247.57344600000124" x2="1148" y2="314.12811000000147" stroke="#26a69a" stroke-width="2"/><rect x="1144" y="271.41392300000007" width="8" height="27.81388899999797" fill="#26a69a"/><line x1="1160" y1="267.44051000000013" x2="1160" y2="293.2676930000014" stroke="#ef5350" stroke-width="2"/><rect x="1156" y="272.4072760000013" width="8" height="4.966766000001144" fill="#ef5350"/><line x1="1172" y1="270.42056899999807" x2="1172" y2="326.0483480000005" stroke="#ef5350" stroke-width="2"/><rect x="1168" y="278.36739499999794" width="8" height="7.946825000004765" fill="#ef5350"/><line x1="1184" y1="265.4538039999977" x2="1184" y2="320.08822899999814" stroke="#ef5350" stroke-width="2"/><rect x="1180" y="280.35410100000036" width="8" height="10.430208999997603" fill="#ef5350"/><line x1="1196" y1="274.393981999998" x2="1196" y2="341.94199899999944" stroke="#ef5350" stroke-width="2"/><rect x="1192" y="291.28098599999817" width="8" height="37.74742100000026" fill="#ef5350"/><line x1="1208" y1="325.0549949999993" x2="1208" y2="415.350798999998" stroke="#ef5350" stroke-width="2"/><rect x="1204" y="326.0483480000005" width="8" height="87.41507999999953" fill="#ef5350"/><line x1="1220" y1="330.0217610000004" x2="1220" y2="415.45013400000244" stroke="#26a69a" stroke-width="2"/><rect x="1216" y="363.79576900000075" width="8" height="51.65436500000169" fill="#26a69a"/><line x1="1232" y1="350.88217699999973" x2="1232" y2="387.6362449999988" stroke="#26a69a" stroke-width="2"/><rect x="1228" y="359.8223560000008" width="8" height="6.953471999997873" fill="#26a69a"/><line x1="1244" y1="358.8290029999996" x2="1244" y2="404.52324899999894" stroke="#ef5350" stroke-width="2"/><rect x="1240" y="365.7824749999975" width="8" height="19.867064000004575" fill="#ef5350"/><line x1="1256" y1="387.6362449999988" x2="1256" y2="455.1842620000002" stroke="#ef5350" stroke-width="2"/><rect x="1252" y="387.6362449999988" width="8" height="60.69388000000231" fill="#ef5350"/><line x1="1268" y1="406.50995600000215" x2="1268" y2="466.111146999998" stroke="#26a69a" stroke-width="2"/><rect x="1264" y="413.463428" width="8" height="34.76736100000153" fill="#26a69a"/><line x1="1280" y1="361.80906199999754" x2="1280" y2="418.43019400000117" stroke="#26a69a" stroke-width="2"/><rect x="1276" y="365.7824749999975" width="8" height="46.68760000000134" fill="#26a69a"/><line x1="1292" y1="286.3142200000027" x2="1292" y2="372.73594700000103" stroke="#26a69a" stroke-width="2"/><rect x="1288" y="291.28098599999817" width="8" height="71.52143000000137" fill="#26a69a"/><line x1="1304" y1="285.3208670000015" x2="1304" y2="362.80241599999954" stroke="#ef5350" stroke-width="2"/><rect x="1300" y="291.28098599999817" width="8" height="69.53472300000385" fill="#ef5350"/><line x1="1316" y1="338.9619390000007" x2="1316" y2="386.6428919999976" stroke="#26a69a" stroke-width="2"/><rect x="1312" y="345.9154109999986" width="8" height="17.88035800000216" fill="#26a69a"/><line x1="1328" y1="302.20787100000166" x2="1328" y2="351.87553100000173" stroke="#26a69a" stroke-width="2"/><rect x="1324" y="307.1746370000028" width="8" height="32.780654999999115" fill="#26a69a"/><line x1="1340" y1="297.2411050000005" x2="1340" y2="333.99517299999957" stroke="#26a69a" stroke-width="2"/><rect x="1336" y="308.1679899999983" width="8" height="2" fill="#26a69a"/><line x1="1352" y1="283.3341609999991" x2="1352" y2="325.0549949999993" stroke="#26a69a" stroke-width="2"/><rect x="1348" y="310.15469700000153" width="8" height="2" fill="#26a69a"/><line x1="1364" y1="300.22116499999925" x2="1364" y2="324.0616409999973" stroke="#ef5350" stroke-width="2"/><rect x="1360" y="305.1879310000004" width="8" height="10.92688499999781" fill="#ef5350"/><line x1="1376" y1="303.201224999998" x2="1376" y2="332.00846700000284" stroke="#26a69a" stroke-width="2"/><rect x="1372" y="317.1081689999994" width="8" height="2" fill="#26a69a"/><line x1="1388" y1="290.28763300000264" x2="1388" y2="344.9220579999974" stroke="#ef5350" stroke-width="2"/><rect x="1384" y="313.13475599999947" width="8" height="28.80724299999997" fill="#ef5350"/><line x1="1400" y1="332.00846700000284" x2="1400" y2="364.78912200000195" stroke="#ef5350" stroke-width="2"/><rect x="1396" y="343.92870500000186" width="8" height="15.893650999998954" fill="#ef5350"/><line x1="1412" y1="340.94864599999823" x2="1412" y2="386.6428919999976" stroke="#ef5350" stroke-width="2"/><rect x="1408" y="355.8489430000009" width="8" height="26.820535999996764" fill="#ef5350"/><line x1="1424" y1="360.815709000002" x2="1424" y2="393.59636400000113" stroke="#26a69a" stroke-width="2"/><rect x="1420" y="375.71600699999976" width="8" height="8.94017900000108" fill="#26a69a"/><line x1="1436" y1="355.8489430000009" x2="1436" y2="383.66283199999884" stroke="#26a69a" stroke-width="2"/><rect x="1432" y="367.7691820000007" width="8" height="10.92688499999781" fill="#26a69a"/><line x1="1448" y1="345.9154109999986" x2="1448" y2="393.59636400000113" stroke="#26a69a" stroke-width="2"/><rect x="1444" y="348.398794000002" width="8" height="19.370387999998684" fill="#26a69a"/><line x1="1460" y1="342.93535200000065" x2="1460" y2="394.58971700000234" stroke="#ef5350" stroke-width="2"/><rect x="1456" y="346.9087650000006" width="8" height="2" fill="#ef5350"/><line x1="1472" y1="337.9685859999995" x2="1472" y2="378.6960669999985" stroke="#ef5350" stroke-width="2"/><rect x="1468" y="341.94199899999944" width="8" height="15.396973999997954" fill="#ef5350"/><line x1="1484" y1="322.07493500000055" x2="1484" y2="361.80906199999754" stroke="#26a69a" stroke-width="2"/><rect x="1480" y="331.01511400000163" width="8" height="21.85376999999562" fill="#26a69a"/><line x1="1496" y1="322.07493500000055" x2="1496" y2="358.8290029999996" stroke="#ef5350" stroke-width="2"/><rect x="1492" y="330.0217610000004" width="8" height="26.820535000001655" fill="#ef5350"/><line x1="1508" y1="348.8954709999973" x2="1508" y2="383.66283199999884" stroke="#ef5350" stroke-width="2"/><rect x="1504" y="358.8290029999996" width="8" height="18.873710000002575" fill="#ef5350"/><line x1="1520" y1="358.8290029999996" x2="1520" y2="397.56977700000107" stroke="#26a69a" stroke-width="2"/><rect x="1516" y="371.7425939999998" width="8" height="7.946825999999874" fill="#26a69a"/><line x1="1532" y1="361.80906199999754" x2="1532" y2="397.56977700000107" stroke="#ef5350" stroke-width="2"/><rect x="1528" y="370.7492409999986" width="8" height="26.82053600000245" fill="#ef5350"/><line x1="1544" y1="384.65618600000084" x2="1544" y2="414.45678100000123" stroke="#ef5350" stroke-width="2"/><rect x="1540" y="395.58307099999865" width="8" height="2" fill="#ef5350"/><line x1="1556" y1="384.65618600000084" x2="1556" y2="409.4900150000001" stroke="#ef5350" stroke-width="2"/><rect x="1552" y="395.58307099999865" width="8" height="5.960119000002351" fill="#ef5350"/><line x1="1568" y1="370.7492409999986" x2="1568" y2="405.51660200000015" stroke="#ef5350" stroke-width="2"/><rect x="1564" y="395.58307099999865" width="8" height="2.8807239999991907" fill="#ef5350"/><line x1="1580" y1="387.6362449999988" x2="1580" y2="446.24408299999914" stroke="#ef5350" stroke-width="2"/><rect x="1576" y="397.56977700000107" width="8" height="45.69424599999934" fill="#ef5350"/><line x1="1592" y1="419.4235470000024" x2="1592" y2="490.94497599999727" stroke="#ef5350" stroke-width="2"/><rect x="1588" y="439.29061100000126" width="8" height="43.707539999996925" fill="#ef5350"/><line x1="1604" y1="479.02473799999825" x2="1604" y2="557.4996399999975" stroke="#ef5350" stroke-width="2"/><rect x="1600" y="485.9782100000018" width="8" height="70.52807599999937" fill="#ef5350"/><line x1="1616" y1="496.9050949999996" x2="1616" y2="583.326821999998" stroke="#26a69a" stroke-width="2"/><rect x="1612" y="511.80539299999737" width="8" height="46.68760000000134" fill="#26a69a"/><line x1="1628" y1="470.08455899999717" x2="1628" y2="520.7455719999984" stroke="#26a69a" stroke-width="2"/><rect x="1624" y="475.0513249999983" width="8" height="35.76071500000353" fill="#26a69a"/><line x1="1640" y1="444.2573770000024" x2="1640" y2="522.7322780000009" stroke="#ef5350" stroke-width="2"/><rect x="1636" y="470.08455899999717" width="8" height="29.80059600000118" fill="#ef5350"/><line x1="1652" y1="501.87186100000076" x2="1652" y2="542.5993419999998" stroke="#ef5350" stroke-width="2"/><rect x="1648" y="501.87186100000076" width="8" height="37.74742100000026" fill="#ef5350"/><line x1="1664" y1="497.8984490000016" x2="1664" y2="542.5993419999998" stroke="#26a69a" stroke-width="2"/><rect x="1660" y="501.87186100000076" width="8" height="40.72748099999899" fill="#26a69a"/><line x1="1676" y1="447.23743600000034" x2="1676" y2="513.7921000000006" stroke="#26a69a" stroke-width="2"/><rect x="1672" y="454.1909079999982" width="8" height="51.65436600000248" fill="#26a69a"/><line x1="1688" y1="439.29061100000126" x2="1688" y2="475.0513249999983" stroke="#ef5350" stroke-width="2"/><rect x="1684" y="452.2042020000015" width="8" height="21.853770000001305" fill="#ef5350"/><line x1="1700" y1="463.1310869999993" x2="1700" y2="505.8452740000007" stroke="#ef5350" stroke-width="2"/><rect x="1696" y="476.0446790000003" width="8" height="25.827182000000448" fill="#ef5350"/><line x1="1712" y1="453.1975550000027" x2="1712" y2="503.8585679999983" stroke="#26a69a" stroke-width="2"/><rect x="1708" y="461.14438100000257" width="8" height="41.720834000000195" fill="#26a69a"/><line x1="1724" y1="465.1177940000025" x2="1724" y2="497.8984490000016" stroke="#ef5350" stroke-width="2"/><rect x="1720" y="465.1177940000025" width="8" height="29.8005949999947" fill="#ef5350"/><line x1="1736" y1="461.14438100000257" x2="1736" y2="503.8585679999983" stroke="#26a69a" stroke-width="2"/><rect x="1732" y="474.0579720000028" width="8" height="26.820535999996764" fill="#26a69a"/><line x1="1748" y1="444.2573770000024" x2="1748" y2="477.0380320000015" stroke="#26a69a" stroke-width="2"/><rect x="1744" y="467.10449999999923" width="8" height="8.94017900000108" fill="#26a69a"/><line x1="1760" y1="433.3304919999989" x2="1760" y2="470.08455899999717" stroke="#26a69a" stroke-width="2"/><rect x="1756" y="457.17096800000263" width="8" height="9.933531999996603" fill="#26a69a"/><line x1="1772" y1="440.28396400000247" x2="1772" y2="457.17096800000263" stroke="#26a69a" stroke-width="2"/><rect x="1768" y="448.23078900000155" width="8" height="6.953472999998667" fill="#26a69a"/><line x1="1784" y1="436.31055100000253" x2="1784" y2="466.111146999998" stroke="#ef5350" stroke-width="2"/><rect x="1780" y="448.23078900000155" width="8" height="14.900297999997747" fill="#ef5350"/><line x1="1796" y1="451.2108490000003" x2="1796" y2="483.9915039999994" stroke="#ef5350" stroke-width="2"/><rect x="1792" y="464.1244400000005" width="8" height="13.906945000002224" fill="#ef5350"/><line x1="1808" y1="478.03138500000273" x2="1808" y2="567.433170999999" stroke="#ef5350" stroke-width="2"/><rect x="1804" y="478.03138500000273" width="8" height="60.594543999997086" fill="#ef5350"/><line x1="1820" y1="507.83197999999743" x2="1820" y2="594.2537070000014" stroke="#26a69a" stroke-width="2"/><rect x="1816" y="517.7655119999997" width="8" height="18.873710999997684" fill="#26a69a"/><line x1="1832" y1="485.9782100000018" x2="1832" y2="530.6791040000007" stroke="#26a69a" stroke-width="2"/><rect x="1828" y="494.02437100000043" width="8" height="22.74778799999808" fill="#26a69a"/><line x1="1844" y1="491.9383289999985" x2="1844" y2="555.512933" stroke="#ef5350" stroke-width="2"/><rect x="1840" y="493.9250360000017" width="8" height="39.73412699999699" fill="#ef5350"/><line x1="1856" y1="517.7655119999997" x2="1856" y2="558.4929929999987" stroke="#ef5350" stroke-width="2"/><rect x="1852" y="530.6791040000007" width="8" height="16.88700400000016" fill="#ef5350"/><line x1="1868" y1="529.6857499999987" x2="1868" y2="569.4198780000022" stroke="#ef5350" stroke-width="2"/><rect x="1864" y="548.5594610000021" width="8" height="7.94682499999908" fill="#ef5350"/><line x1="1880" y1="543.592695000001" x2="1880" y2="579.3534099999988" stroke="#ef5350" stroke-width="2"/><rect x="1876" y="558.4929929999987" width="8" height="16.88700400000016" fill="#ef5350"/><line x1="1892" y1="552.532874000002" x2="1892" y2="618.0941840000003" stroke="#26a69a" stroke-width="2"/><rect x="1888" y="557.4996399999975" width="8" height="19.867063000003782" fill="#26a69a"/><line x1="1904" y1="525.7123379999996" x2="1904" y2="582.3334690000024" stroke="#ef5350" stroke-width="2"/><rect x="1900" y="558.4929929999987" width="8" height="19.867063000003782" fill="#ef5350"/><line x1="1916" y1="551.5395210000008" x2="1916" y2="585.3135290000012" stroke="#26a69a" stroke-width="2"/><rect x="1912" y="567.433170999999" width="8" height="10.926885000003494" fill="#26a69a"/><line x1="1928" y1="552.532874000002" x2="1928" y2="635.9745410000016" stroke="#ef5350" stroke-width="2"/><rect x="1924" y="565.4464650000023" width="8" height="62.58125100000029" fill="#ef5350"/><line x1="1940" y1="619.0875370000015" x2="1940" y2="690.608966000002" stroke="#ef5350" stroke-width="2"/><rect x="1936" y="630.0144219999993" width="8" height="12.913591000000224" fill="#ef5350"/><rect x="75" y="972.4640553669195" width="10" height="47.535944633080476" fill="#ef5350" opacity="0.9"/><rect x="87" y="995.7427745195198" width="10" height="24.2572254804802" fill="#26a69a" opacity="0.9"/><rect x="99" y="987.5591766445177" width="10" height="32.44082335548228" fill="#26a69a" opacity="0.9"/><rect x="111" y="986.9881240556919" width="10" height="33.011875944308144" fill="#ef5350" opacity="0.9"/><rect x="123" y="997.1525352135558" width="10" height="22.84746478644422" fill="#26a69a" opacity="0.9"/><rect x="135" y="986.1461667181128" width="10" height="33.853833281887205" fill="#26a69a" opacity="0.9"/><rect x="147" y="975.9338293828083" width="10" height="44.06617061719169" fill="#26a69a" opacity="0.9"/><rect x="159" y="999.5407210046626" width="10" height="20.4592789953374" fill="#ef5350" opacity="0.9"/><rect x="171" y="993.1588224781896" width="10" height="26.841177521810437" fill="#26a69a" opacity="0.9"/><rect x="183" y="998.6914528942538" width="10" height="21.308547105746243" fill="#26a69a" opacity="0.9"/><rect x="195" y="976.0755771448995" width="10" height="43.92442285510049" fill="#26a69a" opacity="0.9"/><rect x="207" y="977.4341624291261" width="10" height="42.565837570873896" fill="#ef5350" opacity="0.9"/><rect x="219" y="992.9179731288483" width="10" height="27.082026871151697" fill="#26a69a" opacity="0.9"/><rect x="231" y="1002.5840332721394" width="10" height="17.415966727860564" fill="#26a69a" opacity="0.9"/><rect x="243" y="1000.5321430312089" width="10" height="19.467856968791125" fill="#ef5350" opacity="0.9"/><rect x="255" y="1001.2457556902182" width="10" height="18.754244309781825" fill="#26a69a" opacity="0.9"/><rect x="267" y="997.0725228664728" width="10" height="22.92747713352719" fill="#26a69a" opacity="0.9"/><rect x="279" y="997.9863694702127" width="10" height="22.013630529787292" fill="#26a69a" opacity="0.9"/><rect x="291" y="943.1267363085472" width="10" height="76.87326369145285" fill="#ef5350" opacity="0.9"/><rect x="303" y="991.4489139440807" width="10" height="28.551086055919313" fill="#ef5350" opacity="0.9"/><rect x="315" y="998.0164248696245" width="10" height="21.98357513037547" fill="#26a69a" opacity="0.9"/><rect x="327" y="980.9441456955794" width="10" height="39.05585430442056" fill="#26a69a" opacity="0.9"/><rect x="339" y="988.4567770864134" width="10" height="31.543222913586646" fill="#26a69a" opacity="0.9"/><rect x="351" y="1001.8261498221045" width="10" height="18.173850177895474" fill="#ef5350" opacity="0.9"/><rect x="363" y="996.2626516985363" width="10" height="23.737348301463726" fill="#ef5350" opacity="0.9"/><rect x="375" y="995.4588728412913" width="10" height="24.54112715870872" fill="#26a69a" opacity="0.9"/><rect x="387" y="986.196123665784" width="10" height="33.803876334216056" fill="#26a69a" opacity="0.9"/><rect x="399" y="1003.2476889834777" width="10" height="16.7523110165223" fill="#26a69a" opacity="0.9"/><rect x="411" y="987.4332688902247" width="10" height="32.56673110977533" fill="#ef5350" opacity="0.9"/><rect x="423" y="967.0780465614998" width="10" height="52.92195343850017" fill="#26a69a" opacity="0.9"/><rect x="435" y="956.5850567803357" width="10" height="63.41494321966434" fill="#ef5350" opacity="0.9"/><rect x="447" y="988.2260815882248" width="10" height="31.773918411775185" fill="#ef5350" opacity="0.9"/><rect x="459" y="981.3291797312885" width="10" height="38.67082026871151" fill="#26a69a" opacity="0.9"/><rect x="471" y="977.0458791610482" width="10" height="42.95412083895178" fill="#26a69a" opacity="0.9"/><rect x="483" y="1000.8461001088493" width="10" height="19.153899891150672" fill="#26a69a" opacity="0.9"/><rect x="495" y="987.3061426737934" width="10" height="32.693857326206626" fill="#ef5350" opacity="0.9"/><rect x="507" y="1000.940327847546" width="10" height="19.059672152454027" fill="#ef5350" opacity="0.9"/><rect x="519" y="990.9802121748737" width="10" height="29.019787825126286" fill="#26a69a" opacity="0.9"/><rect x="531" y="1001.9975468295615" width="10" height="18.002453170438457" fill="#26a69a" opacity="0.9"/><rect x="543" y="998.1151203028285" width="10" height="21.884879697171527" fill="#26a69a" opacity="0.9"/><rect x="555" y="980.1553945380404" width="10" height="39.844605461959645" fill="#26a69a" opacity="0.9"/><rect x="567" y="998.300326547853" width="10" height="21.699673452146953" fill="#26a69a" opacity="0.9"/><rect x="579" y="980.9177456825824" width="10" height="39.08225431741755" fill="#26a69a" opacity="0.9"/><rect x="591" y="997.614332363979" width="10" height="22.385667636021026" fill="#26a69a" opacity="0.9"/><rect x="603" y="992.7628222832356" width="10" height="27.23717771676445" fill="#26a69a" opacity="0.9"/><rect x="615" y="985.0398030965184" width="10" height="34.960196903481574" fill="#26a69a" opacity="0.9"/><rect x="627" y="993.3809887414099" width="10" height="26.61901125859015" fill="#ef5350" opacity="0.9"/><rect x="639" y="1000.624339999675" width="10" height="19.375660000324956" fill="#ef5350" opacity="0.9"/><rect x="651" y="994.4869462089581" width="10" height="25.513053791041898" fill="#26a69a" opacity="0.9"/><rect x="663" y="1000.3644014101668" width="10" height="19.635598589833194" fill="#26a69a" opacity="0.9"/><rect x="675" y="996.1452731792114" width="10" height="23.854726820788642" fill="#ef5350" opacity="0.9"/><rect x="687" y="989.6167530420938" width="10" height="30.38324695790618" fill="#26a69a" opacity="0.9"/><rect x="699" y="992.8773577242376" width="10" height="27.12264227576236" fill="#26a69a" opacity="0.9"/><rect x="711" y="1001.888697545205" width="10" height="18.11130245479501" fill="#ef5350" opacity="0.9"/><rect x="723" y="997.8892986531932" width="10" height="22.110701346806763" fill="#ef5350" opacity="0.9"/><rect x="735" y="998.9091514629669" width="10" height="21.09084853703314" fill="#26a69a" opacity="0.9"/><rect x="747" y="999.7584195733758" width="10" height="20.241580426624182" fill="#ef5350" opacity="0.9"/><rect x="759" y="999.1747762091206" width="10" height="20.825223790879363" fill="#26a69a" opacity="0.9"/><rect x="771" y="978.3735967377708" width="10" height="41.626403262229246" fill="#26a69a" opacity="0.9"/><rect x="783" y="988.4880509479635" width="10" height="31.51194905203647" fill="#26a69a" opacity="0.9"/><rect x="795" y="995.3995743505596" width="10" height="24.600425649440353" fill="#26a69a" opacity="0.9"/><rect x="807" y="986.3382775819213" width="10" height="33.66172241807874" fill="#26a69a" opacity="0.9"/><rect x="819" y="992.6860591685214" width="10" height="27.31394083147859" fill="#ef5350" opacity="0.9"/><rect x="831" y="998.2637726837035" width="10" height="21.73622731629655" fill="#ef5350" opacity="0.9"/><rect x="843" y="996.1948239728364" width="10" height="23.80517602716361" fill="#ef5350" opacity="0.9"/><rect x="855" y="998.4384189235293" width="10" height="21.561581076470702" fill="#ef5350" opacity="0.9"/><rect x="867" y="999.1199454128962" width="10" height="20.880054587103814" fill="#26a69a" opacity="0.9"/><rect x="879" y="991.6637694344711" width="10" height="28.336230565528922" fill="#26a69a" opacity="0.9"/><rect x="891" y="994.6494078274008" width="10" height="25.35059217259925" fill="#26a69a" opacity="0.9"/><rect x="903" y="982.0586323980959" width="10" height="37.94136760190406" fill="#26a69a" opacity="0.9"/><rect x="915" y="986.7265608499991" width="10" height="33.273439150000854" fill="#26a69a" opacity="0.9"/><rect x="927" y="984.645833671795" width="10" height="35.354166328205" fill="#26a69a" opacity="0.9"/><rect x="939" y="988.741084918688" width="10" height="31.25891508131201" fill="#26a69a" opacity="0.9"/><rect x="951" y="992.3972836417396" width="10" height="27.60271635826041" fill="#ef5350" opacity="0.9"/><rect x="963" y="984.1836303673257" width="10" height="35.81636963267431" fill="#26a69a" opacity="0.9"/><rect x="975" y="978.5807353012851" width="10" height="41.41926469871487" fill="#26a69a" opacity="0.9"/><rect x="987" y="944.7765340438322" width="10" height="75.22346595616784" fill="#ef5350" opacity="0.9"/><rect x="999" y="887.1920133868374" width="10" height="132.8079866131626" fill="#ef5350" opacity="0.9"/><rect x="1011" y="967.8196838496905" width="10" height="52.18031615030952" fill="#ef5350" opacity="0.9"/><rect x="1023" y="978.1274673858301" width="10" height="41.87253261416993" fill="#ef5350" opacity="0.9"/><rect x="1035" y="975.5885984436177" width="10" height="44.411401556382316" fill="#ef5350" opacity="0.9"/><rect x="1047" y="974.1634038958296" width="10" height="45.83659610417044" fill="#26a69a" opacity="0.9"/><rect x="1059" y="985.0251815508586" width="10" height="34.97481844914137" fill="#26a69a" opacity="0.9"/><rect x="1071" y="986.3711760596559" width="10" height="33.62882394034409" fill="#26a69a" opacity="0.9"/><rect x="1083" y="976.1564018000747" width="10" height="43.84359819992528" fill="#26a69a" opacity="0.9"/><rect x="1095" y="993.0215424106055" width="10" height="26.978457589394452" fill="#26a69a" opacity="0.9"/><rect x="1107" y="991.9923480577713" width="10" height="28.007651942228676" fill="#ef5350" opacity="0.9"/><rect x="1119" y="1000.2242782642601" width="10" height="19.77572173573992" fill="#26a69a" opacity="0.9"/><rect x="1131" y="997.6671323899728" width="10" height="22.332867610027165" fill="#ef5350" opacity="0.9"/><rect x="1143" y="995.1664419280945" width="10" height="24.833558071905486" fill="#26a69a" opacity="0.9"/><rect x="1155" y="1001.2559095413709" width="10" height="18.744090458629103" fill="#ef5350" opacity="0.9"/><rect x="1167" y="998.3340373336799" width="10" height="21.66596266632007" fill="#ef5350" opacity="0.9"/><rect x="1179" y="1000.4151706659302" width="10" height="19.58482933406981" fill="#ef5350" opacity="0.9"/><rect x="1191" y="995.934073075236" width="10" height="24.06592692476397" fill="#ef5350" opacity="0.9"/><rect x="1203" y="989.9664516757916" width="10" height="30.03354832420837" fill="#ef5350" opacity="0.9"/><rect x="1215" y="999.8863580978993" width="10" height="20.113641902100653" fill="#26a69a" opacity="0.9"/><rect x="1227" y="1007.165450912222" width="10" height="12.834549087777987" fill="#26a69a" opacity="0.9"/><rect x="1239" y="997.256104495313" width="10" height="22.743895504686975" fill="#ef5350" opacity="0.9"/><rect x="1251" y="992.7498253537602" width="10" height="27.25017464623977" fill="#ef5350" opacity="0.9"/><rect x="1263" y="998.3015450099914" width="10" height="21.6984549900086" fill="#26a69a" opacity="0.9"/><rect x="1275" y="995.2200542621806" width="10" height="24.77994573781939" fill="#26a69a" opacity="0.9"/><rect x="1287" y="992.3343297645931" width="10" height="27.66567023540688" fill="#26a69a" opacity="0.9"/><rect x="1299" y="997.8917355774698" width="10" height="22.10826442253017" fill="#ef5350" opacity="0.9"/><rect x="1311" y="997.5079200038991" width="10" height="22.49207999610087" fill="#26a69a" opacity="0.9"/><rect x="1323" y="1000.8473185709876" width="10" height="19.152681429012432" fill="#26a69a" opacity="0.9"/><rect x="1335" y="997.8373109352915" width="10" height="22.162689064708502" fill="#26a69a" opacity="0.9"/><rect x="1347" y="991.5857878576186" width="10" height="28.414212142381416" fill="#26a69a" opacity="0.9"/><rect x="1359" y="999.0318099848911" width="10" height="20.968190015108917" fill="#ef5350" opacity="0.9"/><rect x="1371" y="999.907884262343" width="10" height="20.092115737656968" fill="#26a69a" opacity="0.9"/><rect x="1383" y="996.7642519454779" width="10" height="23.235748054522105" fill="#ef5350" opacity="0.9"/><rect x="1395" y="1001.8866667749744" width="10" height="18.1133332250256" fill="#ef5350" opacity="0.9"/><rect x="1407" y="1002.5316394001917" width="10" height="17.468360599808307" fill="#ef5350" opacity="0.9"/><rect x="1419" y="1005.1265576007668" width="10" height="14.873442399233227" fill="#26a69a" opacity="0.9"/><rect x="1431" y="1005.5412408818416" width="10" height="14.458759118158355" fill="#26a69a" opacity="0.9"/><rect x="1443" y="1004.5104219128231" width="10" height="15.489578087176938" fill="#26a69a" opacity="0.9"/><rect x="1455" y="1004.0571539973681" width="10" height="15.942846002631882" fill="#ef5350" opacity="0.9"/><rect x="1467" y="1006.9729338943674" width="10" height="13.02706610563257" fill="#ef5350" opacity="0.9"/><rect x="1479" y="1007.1877893847578" width="10" height="12.81221061524218" fill="#26a69a" opacity="0.9"/><rect x="1491" y="1004.738680486735" width="10" height="15.261319513264993" fill="#ef5350" opacity="0.9"/><rect x="1503" y="999.4330901824444" width="10" height="20.566909817555597" fill="#ef5350" opacity="0.9"/><rect x="1515" y="1001.3667895959579" width="10" height="18.633210404042075" fill="#26a69a" opacity="0.9"/><rect x="1527" y="999.5277240751873" width="10" height="20.47227592481272" fill="#ef5350" opacity="0.9"/><rect x="1539" y="993.5138011144867" width="10" height="26.486198885513318" fill="#ef5350" opacity="0.9"/><rect x="1551" y="997.3028122106152" width="10" height="22.69718778938477" fill="#ef5350" opacity="0.9"/><rect x="1563" y="1001.6571897389242" width="10" height="18.342810261075783" fill="#ef5350" opacity="0.9"/><rect x="1575" y="992.8440530924569" width="10" height="27.155946907543125" fill="#ef5350" opacity="0.9"/><rect x="1587" y="989.7057007781912" width="10" height="30.294299221808842" fill="#ef5350" opacity="0.9"/><rect x="1599" y="986.1599759556805" width="10" height="33.840024044319534" fill="#ef5350" opacity="0.9"/><rect x="1611" y="987.8256136987636" width="10" height="32.17438630123638" fill="#26a69a" opacity="0.9"/><rect x="1623" y="995.3902328074993" width="10" height="24.609767192500726" fill="#26a69a" opacity="0.9"/><rect x="1635" y="998.6991698211298" width="10" height="21.30083017887023" fill="#ef5350" opacity="0.9"/><rect x="1647" y="998.6947021266226" width="10" height="21.305297873377413" fill="#ef5350" opacity="0.9"/><rect x="1659" y="999.1122284860202" width="10" height="20.88777151397983" fill="#26a69a" opacity="0.9"/><rect x="1671" y="990.4038795834484" width="10" height="29.59612041655157" fill="#26a69a" opacity="0.9"/><rect x="1683" y="998.612659009309" width="10" height="21.387340990690973" fill="#ef5350" opacity="0.9"/><rect x="1695" y="1000.1796013191884" width="10" height="19.82039868081165" fill="#ef5350" opacity="0.9"/><rect x="1707" y="993.7851120172859" width="10" height="26.214887982714117" fill="#26a69a" opacity="0.9"/><rect x="1719" y="999.8603642389486" width="10" height="20.13963576105141" fill="#ef5350" opacity="0.9"/><rect x="1731" y="989.5343037707341" width="10" height="30.46569622926586" fill="#26a69a" opacity="0.9"/><rect x="1743" y="999.3031208876903" width="10" height="20.696879112309716" fill="#26a69a" opacity="0.9"/><rect x="1755" y="987.5201858560915" width="10" height="32.47981414390847" fill="#26a69a" opacity="0.9"/><rect x="1767" y="987.9169983591377" width="10" height="32.083001640862335" fill="#26a69a" opacity="0.9"/><rect x="1779" y="994.2050753009602" width="10" height="25.794924699039825" fill="#ef5350" opacity="0.9"/><rect x="1791" y="989.0095527431645" width="10" height="30.990447256835523" fill="#ef5350" opacity="0.9"/><rect x="1803" y="981.7239614641041" width="10" height="38.27603853589585" fill="#ef5350" opacity="0.9"/><rect x="1815" y="978.3914675157994" width="10" height="41.60853248420062" fill="#26a69a" opacity="0.9"/><rect x="1827" y="994.7147986288239" width="10" height="25.285201371176072" fill="#26a69a" opacity="0.9"/><rect x="1839" y="993.2461455981024" width="10" height="26.75385440189757" fill="#ef5350" opacity="0.9"/><rect x="1851" y="991.6666125127939" width="10" height="28.333387487206096" fill="#ef5350" opacity="0.9"/><rect x="1863" y="994.509284681494" width="10" height="25.490715318505977" fill="#ef5350" opacity="0.9"/><rect x="1875" y="988.9145126963755" width="10" height="31.085487303624518" fill="#ef5350" opacity="0.9"/><rect x="1887" y="975.2860136792683" width="10" height="44.71398632073169" fill="#26a69a" opacity="0.9"/><rect x="1899" y="987.9730476175004" width="10" height="32.026952382499644" fill="#ef5350" opacity="0.9"/><rect x="1911" y="991.9915357496791" width="10" height="28.008464250320912" fill="#26a69a" opacity="0.9"/><rect x="1923" y="958.151999090215" width="10" height="61.848000909785014" fill="#ef5350" opacity="0.9"/><rect x="1935" y="860.0" width="10" height="160.0" fill="#ef5350" opacity="0.9"/><rect x="1004" y="267.44051000000013" width="12" height="76.48819500000172" fill="#ff2400" opacity="0.60"/><polyline points="320,625.8780519404695,332,614.1625436604215,344,603.2789828356215,356,593.7157668512782,368,586.3878041987789,380,576.9195908465122,392,567.6908765754149,404,558.5842469968043,416,552.426226901872,428,541.8406164350245,440,532.6415796316894,452,524.5078516667661,464,516.6757391270721,476,508.45428130544406,488,499.596743466833,500,495.93461370808427,512,496.0270404977905,524,492.23185711704787,536,485.2977323439916,548,477.60492440647226,560,468.6580584629951,572,460.3740648950918,584,447.7703495717492,596,435.231727326817,608,422.6573937718797,620,410.90219550789016,632,401.5815503166607,644,395.90159304840995,656,387.82982704379947,668,380.62140570629595,680,377.97830840093525,692,372.37036236275003,704,365.3098001377259,716,361.19219393413005,728,358.22358127373377,740,354.7808530571899,752,352.8012644803198,764,348.0774511964796,776,342.10063365395627,788,334.89554063929745,800,328.092831721267,812,320.04589860495685,824,313.42757549971907,836,308.10180430927403,848,303.75627475601163,860,300.77065582686373,872,297.2179359385905,884,290.03015756348987,896,282.86469408125186,908,274.77336959732384,920,264.80370563567703,932,254.64827271799209,944,244.8923935067569,956,239.84984822039905,968,233.77386429464195,980,227.23588979039278,992,227.65911885797436,1004,231.44782277626064,1016,251.5261891785201,1028,271.86824678056496,1040,302.193203753842,1052,325.46744672966383,1064,338.38905951731135,1076,344.68755375376077,1088,343.2908115867349,1100,341.45946200704316,1112,342.1676533397033,1124,338.2673547359218,1136,334.36009285630917,1148,328.3652195366642,1160,323.5089169141247,1172,319.96656482706385,1184,317.18730246258247,1196,318.3150267042379,1208,327.3767792086005,1220,330.84525442682775,1232,333.60497838617675,1244,338.56160320654,1256,349.01574813924867,1268,355.1536224117058,1280,356.1658940867801,1292,349.986379030895,1304,351.01774378985624,1316,350.53180733368094,1328,346.4025530161848,1340,342.7611660622631,1352,339.6557880563364,1364,337.4137907176362,1376,335.4799219826248,1388,336.0953578890417,1400,338.35507199484596,1412,342.5754917096242,1424,345.73173126108827,1436,347.8305360933689,1448,347.8846558940006,1460,347.9809239993301,1472,348.87216676129924,1484,347.17149506974465,1496,348.0925237297697,1508,350.9125417555083,1520,352.89635625498477,1532,357.1509677545066,1544,360.9057731112216,1556,364.77600329110373,1568,367.9843644062373,1580,375.1538557008871,1592,385.4247409674656,1604,401.7182214467539,1616,412.2027139756369,1628,418.1882959779557,1640,425.9689492181508,1652,436.7927904354701,1664,442.99079715590324,1676,444.0574743791501,1688,446.9146646287527,1700,452.14868333077334,1712,453.00541644212444,1724,456.99712811430686,1736,458.6219703891345,1748,459.4298303520759,1760,459.2147006042637,1772,458.16861378481235,1784,458.6412302814949,1796,460.4879116832592,1808,467.9296276181901,1820,472.6759023212196,1832,474.7090898144336,1844,480.32338249877284,1856,486.727451594129,1868,493.3730548708809,1880,501.18323983555797,1892,506.54670651788365,1904,513.3860731352286,1916,518.5334157890168,1928,528.9614443805362,1940,539.8154032966715" fill="none" stroke="#0090ff" stroke-width="2"/><line x1="80" y1="50" x2="80" y2="900" stroke="#666666" stroke-width="0.5" stroke-dasharray="4,4" opacity="0.90"/><line x1="152" y1="50" x2="152" y2="900" stroke="#666666" stroke-width="0.5" stroke-dasharray="4,4" opacity="0.90"/><line x1="224" y1="50" x2="224" y2="900" stroke="#666666" stroke-width="0.5" stroke-dasharray="4,4" opacity="0.90"/><line x1="296" y1="50" x2="296" y2="900" stroke="#666666" stroke-width="0.5" stroke-dasharray="4,4" opacity="0.90"/><line x1="368" y1="50" x2="368" y2="900" stroke="#666666" stroke-width="0.5" stroke-dasharray="4,4" opacity="0.90"/><line x1="440" y1="50" x2="440" y2="900" stroke="#666666" stroke-width="0.5" stroke-dasharray="4,4" opacity="0.90"/><line x1="512" y1="50" x2="512" y2="900" stroke="#666666" stroke-width="0.5" stroke-dasharray="4,4" opacity="0.90"/><line x1="584" y1="50" x2="584" y2="900" stroke="#666666" stroke-width="0.5" stroke-dasharray="4,4" opacity="0.90"/><line x1="656" y1="50" x2="656" y2="900" stroke="#666666" stroke-width="0.5" stroke-dasharray="4,4" opacity="0.90"/><line x1="728" y1="50" x2="728" y2="900" stroke="#666666" stroke-width="0.5" stroke-dasharray="4,4" opacity="0.90"/><line x1="800" y1="50" x2="800" y2="900" stroke="#666666" stroke-width="0.5" stroke-dasharray="4,4" opacity="0.90"/><line x1="872" y1="50" x2="872" y2="900" stroke="#666666" stroke-width="0.5" stroke-dasharray="4,4" opacity="0.90"/><line x1="944" y1="50" x2="944" y2="900" stroke="#666666" stroke-width="0.5" stroke-dasharray="4,4" opacity="0.90"/><line x1="1010" y1="30" x2="1010" y2="950" stroke="black" stroke-width="0.7"/><line x1="1016" y1="50" x2="1016" y2="900" stroke="#666666" stroke-width="0.5" stroke-dasharray="4,4" opacity="0.90"/><line x1="1088" y1="50" x2="1088" y2="900" stroke="#666666" stroke-width="0.5" stroke-dasharray="4,4" opacity="0.90"/><line x1="1160" y1="50" x2="1160" y2="900" stroke="#666666" stroke-width="0.5" stroke-dasharray="4,4" opacity="0.90"/><line x1="1232" y1="50" x2="1232" y2="900" stroke="#666666" stroke-width="0.5" stroke-dasharray="4,4" opacity="0.90"/><line x1="1304" y1="50" x2="1304" y2="900" stroke="#666666" stroke-width="0.5" stroke-dasharray="4,4" opacity="0.90"/><line x1="1376" y1="50" x2="1376" y2="900" stroke="#666666" stroke-width="0.5" stroke-dasharray="4,4" opacity="0.90"/><line x1="1448" y1="50" x2="1448" y2="900" stroke="#666666" stroke-width="0.5" stroke-dasharray="4,4" opacity="0.90"/><line x1="1520" y1="50" x2="1520" y2="900" stroke="#666666" stroke-width="0.5" stroke-dasharray="4,4" opacity="0.90"/><line x1="1592" y1="50" x2="1592" y2="900" stroke="#666666" stroke-width="0.5" stroke-dasharray="4,4" opacity="0.90"/><line x1="1664" y1="50" x2="1664" y2="900" stroke="#666666" stroke-width="0.5" stroke-dasharray="4,4" opacity="0.90"/><line x1="1736" y1="50" x2="1736" y2="900" stroke="#666666" stroke-width="0.5" stroke-dasharray="4,4" opacity="0.90"/><line x1="1808" y1="50" x2="1808" y2="900" stroke="#666666" stroke-width="0.5" stroke-dasharray="4,4" opacity="0.90"/><line x1="1880" y1="50" x2="1880" y2="900" stroke="#666666" stroke-width="0.5" stroke-dasharray="4,4" opacity="0.90"/><line x1="1946" y1="30" x2="1946" y2="950" stroke="black" stroke-width="0.7"/><text x="80" y="1040" text-anchor="middle" font-size="20" fill="black">09:30</text><text x="152" y="1040" text-anchor="middle" font-size="20" fill="black">10:00</text><text x="224" y="1040" text-anchor="middle" font-size="20" fill="black">10:30</text><text x="296" y="1040" text-anchor="middle" font-size="20" fill="black">11:00</text><text x="368" y="1040" text-anchor="middle" font-size="20" fill="black">11:30</text><text x="440" y="1040" text-anchor="middle" font-size="20" fill="black">12:00</text><text x="512" y="1040" text-anchor="middle" font-size="20" fill="black">12:30</text><text x="584" y="1040" text-anchor="middle" font-size="20" fill="black">13:00</text><text x="656" y="1040" text-anchor="middle" font-size="20" fill="black">13:30</text><text x="728" y="1040" text-anchor="middle" font-size="20" fill="black">14:00</text><text x="800" y="1040" text-anchor="middle" font-size="20" fill="black">14:30</text><text x="872" y="1040" text-anchor="middle" font-size="20" fill="black">15:00</text><text x="944" y="1040" text-anchor="middle" font-size="20" fill="black">15:30</text><text x="1016" y="1040" text-anchor="middle" font-size="20" fill="black">09:30</text><text x="1088" y="1040" text-anchor="middle" font-size="20" fill="black">10:00</text><text x="1160" y="1040" text-anchor="middle" font-size="20" fill="black">10:30</text><text x="1232" y="1040" text-anchor="middle" font-size="20" fill="black">11:00</text><text x="1304" y="1040" text-anchor="middle" font-size="20" fill="black">11:30</text><text x="1376" y="1040" text-anchor="middle" font-size="20" fill="black">12:00</text><text x="1448" y="1040" text-anchor="middle" font-size="20" fill="black">12:30</text><text x="1520" y="1040" text-anchor="middle" font-size="20" fill="black">13:00</text><text x="1592" y="1040" text-anchor="middle" font-size="20" fill="black">13:30</text><text x="1664" y="1040" text-anchor="middle" font-size="20" fill="black">14:00</text><text x="1736" y="1040" text-anchor="middle" font-size="20" fill="black">14:30</text><text x="1808" y="1040" text-anchor="middle" font-size="20" fill="black">15:00</text><text x="1880" y="1040" text-anchor="middle" font-size="20" fill="black">15:30</text><text x="1942" y="50" text-anchor="end" font-size="40" fill="#ef5350" font-weight="bold"> -0.60% (Wed)</text></svg>