<svg xmlns="http://www.w3.org/2000/svg" width="1992" height="1050"><rect width="100%" height="100%" fill="white"/><text x="42" y="854.0" text-anchor="end" font-size="20" fill="black">475</text><text x="42" y="720.6666666666667" text-anchor="end" font-size="20" fill="black">476</text><text x="42" y="587.3333333333334" text-anchor="end" font-size="20" fill="black">477</text><text x="42" y="454.0" text-anchor="end" font-size="20" fill="black">478</text><text x="42" y="320.66666666666674" text-anchor="end" font-size="20" fill="black">479</text><text x="42" y="187.33333333333326" text-anchor="end" font-size="20" fill="black">480</text><text x="42" y="54.0" text-anchor="end" font-size="20" fill="black">481</text><line x1="80" y1="486.8782426666636" x2="80" y2="657.7349906666693" stroke="#26a69a" stroke-width="2"/><rect x="76" y="554.4262599999987" width="8" height="6.622354666668116" fill="#26a69a"/><line x1="92" y1="547.8039053333305" x2="92" y2="786.2086693333367" stroke="#ef5350" stroke-width="2"/><rect x="88" y="555.750730666667" width="8" height="160.12853333333317" fill="#ef5350"/><line x1="104" y1="685.5488800000028" x2="104" y2="904.0865799999968" stroke="#ef5350" stroke-width="2"/><rect x="100" y="705.4159439999996" width="8" height="193.37275333333162" fill="#ef5350"/><line x1="116" y1="612.7029800000022" x2="116" y2="908.059993333336" stroke="#26a69a" stroke-width="2"/><rect x="112" y="663.0328746666692" width="8" height="235.75582266666208" fill="#26a69a"/><line x1="128" y1="610.0540386666656" x2="128" y2="725.2830079999967" stroke="#ef5350" stroke-width="2"/><rect x="124" y="655.0860493333328" width="8" height="23.840476000001672" fill="#ef5350"/><line x1="140" y1="606.080625333334" x2="140" y2="706.7404146666679" stroke="#26a69a" stroke-width="2"/><rect x="136" y="648.4636946666645" width="8" height="34.43624400000169" fill="#26a69a"/><line x1="152" y1="459.0643546666646" x2="152" y2="680.2509960000027" stroke="#26a69a" stroke-width="2"/><rect x="148" y="533.2347253333334" width="8" height="117.87791066666762" fill="#26a69a"/><line x1="164" y1="497.4740106666635" x2="164" y2="608.7295666666629" stroke="#ef5350" stroke-width="2"/><rect x="160" y="529.2613120000018" width="8" height="19.867063999996958" fill="#ef5350"/><line x1="176" y1="461.71329600000115" x2="176" y2="559.7241439999985" stroke="#26a69a" stroke-width="2"/><rect x="172" y="541.1815506666699" width="8" height="10.59576666666544" fill="#26a69a"/><line x1="188" y1="367.67586133333526" x2="188" y2="549.1283759999988" stroke="#26a69a" stroke-width="2"/><rect x="184" y="384.89398266666893" width="8" height="148.34074266666443" fill="#26a69a"/><line x1="200" y1="333.2396173333336" x2="200" y2="537.2081373333307" stroke="#ef5350" stroke-width="2"/><rect x="196" y="380.9205706666641" width="8" height="153.63862533333753" fill="#ef5350"/><line x1="212" y1="357.08009333333547" x2="212" y2="546.4794346666698" stroke="#26a69a" stroke-width="2"/><rect x="208" y="365.0269199999987" width="8" height="166.88333466666637" fill="#26a69a"/><line x1="224" y1="293.50549066666645" x2="224" y2="421.97916799999956" stroke="#ef5350" stroke-width="2"/><rect x="220" y="369.00033200000354" width="8" height="17.218121333326053" fill="#ef5350"/><line x1="236" y1="319.99490799999717" x2="236" y2="410.05893066666584" stroke="#26a69a" stroke-width="2"/><rect x="232" y="351.7822106666699" width="8" height="37.08518533333063" fill="#26a69a"/><line x1="248" y1="284.2341933333348" x2="248" y2="361.0535066666671" stroke="#26a69a" stroke-width="2"/><rect x="244" y="354.4311519999989" width="8" height="2" fill="#26a69a"/><line x1="260" y1="204.76593866666622" x2="260" y2="383.56951200000066" stroke="#26a69a" stroke-width="2"/><rect x="256" y="207.414881333337" width="8" height="149.66521199999846" fill="#26a69a"/><line x1="272" y1="198.14358399999787" x2="272" y2="416.681285333334" stroke="#ef5350" stroke-width="2"/><rect x="268" y="206.0904093333345" width="8" height="201.31957866666795" fill="#ef5350"/><line x1="284" y1="334.5640880000019" x2="284" y2="436.5483479999966" stroke="#26a69a" stroke-width="2"/><rect x="280" y="391.5163373333371" width="8" height="25.16494799999691" fill="#26a69a"/><line x1="296" y1="239.2021826666678" x2="296" y2="403.4365759999976" stroke="#26a69a" stroke-width="2"/><rect x="292" y="259.06924666666487" width="8" height="120.52685333333852" fill="#26a69a"/><line x1="308" y1="224.63300266666306" x2="308" y2="337.2130306666652" stroke="#ef5350" stroke-width="2"/><rect x="304" y="261.7181880000014" width="8" height="27.813889333333464" fill="#ef5350"/><line x1="320" y1="216.68617733333417" x2="320" y2="289.5320773333349" stroke="#26a69a" stroke-width="2"/><rect x="316" y="224.63300266666306" width="8" height="60.925662666666994" fill="#26a69a"/><line x1="332" y1="94.83485333333488" x2="332" y2="231.2553573333314" stroke="#26a69a" stroke-width="2"/><rect x="328" y="109.40403333333211" width="8" height="115.22896933333095" fill="#26a69a"/><line x1="344" y1="100.13273733333494" x2="344" y2="224.63300266666306" stroke="#ef5350" stroke-width="2"/><rect x="340" y="108.07956266666383" width="8" height="94.03743466666583" fill="#ef5350"/><line x1="356" y1="191.52122933332976" x2="356" y2="257.6123279999972" stroke="#26a69a" stroke-width="2"/><rect x="352" y="198.14358399999787" width="8" height="2.6489426666710187" fill="#26a69a"/><line x1="368" y1="159.73392799999897" x2="368" y2="225.95747333333134" stroke="#26a69a" stroke-width="2"/><rect x="364" y="171.65416666666715" width="8" height="17.218121333333556" fill="#26a69a"/><line x1="380" y1="147.813689333331" x2="380" y2="216.68617733333417" stroke="#26a69a" stroke-width="2"/><rect x="376" y="172.97863733333543" width="8" height="2" fill="#26a69a"/><line x1="392" y1="169.00522400000386" x2="392" y2="224.63300266666306" stroke="#26a69a" stroke-width="2"/><rect x="388" y="170.32969599999888" width="8" height="2.648941333336552" fill="#26a69a"/><line x1="404" y1="165.03181199999904" x2="404" y2="212.7127640000026" stroke="#26a69a" stroke-width="2"/><rect x="400" y="170.32969599999888" width="8" height="2" fill="#26a69a"/><line x1="416" y1="153.11157333333085" x2="416" y2="251.12242133333598" stroke="#ef5350" stroke-width="2"/><rect x="412" y="171.65416666666715" width="8" height="55.62777733333246" fill="#ef5350"/><line x1="428" y1="179.60099200000354" x2="428" y2="281.58525199999826" stroke="#26a69a" stroke-width="2"/><rect x="424" y="188.8722880000007" width="8" height="42.383069333330695" fill="#26a69a"/><line x1="440" y1="127.94662666666841" x2="440" y2="198.14358399999787" stroke="#26a69a" stroke-width="2"/><rect x="436" y="143.8402773333337" width="8" height="42.38306933333047" fill="#26a69a"/><line x1="452" y1="114.70191733333195" x2="452" y2="178.27652133333527" stroke="#ef5350" stroke-width="2"/><rect x="448" y="147.813689333331" width="8" height="18.5425933333363" fill="#ef5350"/><line x1="464" y1="109.40403333333211" x2="464" y2="162.38286933333552" stroke="#26a69a" stroke-width="2"/><rect x="460" y="139.86686400000212" width="8" height="21.19153466666512" fill="#26a69a"/><line x1="476" y1="127.94662666666841" x2="476" y2="227.2819439999996" stroke="#ef5350" stroke-width="2"/><rect x="472" y="138.54239333333385" width="8" height="87.41507999999749" fill="#ef5350"/><line x1="488" y1="149.13816133333353" x2="488" y2="261.7181880000014" stroke="#26a69a" stroke-width="2"/><rect x="484" y="155.76051600000187" width="8" height="71.52142799999774" fill="#26a69a"/><line x1="500" y1="116.02638800000022" x2="500" y2="166.3562826666673" stroke="#ef5350" stroke-width="2"/><rect x="496" y="154.43604399999913" width="8" height="6.622354666668116" fill="#ef5350"/><line x1="512" y1="159.73392799999897" x2="512" y2="240.52665333333607" stroke="#ef5350" stroke-width="2"/><rect x="508" y="159.73392799999897" width="8" height="80.7927253333371" fill="#ef5350"/><line x1="524" y1="202.2494440000021" x2="524" y2="249.7979506666677" stroke="#26a69a" stroke-width="2"/><rect x="520" y="221.98406133333424" width="8" height="14.569179999997004" fill="#26a69a"/><line x1="536" y1="219.33511866666322" x2="536" y2="260.39371733333314" stroke="#ef5350" stroke-width="2"/><rect x="532" y="219.33511866666322" width="8" height="34.43624400000158" fill="#ef5350"/><line x1="548" y1="244.50006666666764" x2="548" y2="317.34596666666835" stroke="#ef5350" stroke-width="2"/><rect x="544" y="253.7713626666648" width="8" height="55.62777866666693" fill="#ef5350"/><line x1="560" y1="281.58525199999826" x2="560" y2="330.5906759999971" stroke="#26a69a" stroke-width="2"/><rect x="556" y="301.45231600000284" width="8" height="14.569179999997232" fill="#26a69a"/><line x1="572" y1="300.12784533333456" x2="572" y2="444.4951746666675" stroke="#ef5350" stroke-width="2"/><rect x="568" y="300.12784533333456" width="8" height="136.42050266666206" fill="#ef5350"/><line x1="584" y1="351.7822106666699" x2="584" y2="453.76647066666465" stroke="#26a69a" stroke-width="2"/><rect x="580" y="371.64927333333253" width="8" height="70.19695866666399" fill="#26a69a"/><line x1="596" y1="363.70244800000364" x2="596" y2="418.0057560000023" stroke="#ef5350" stroke-width="2"/><rect x="592" y="375.62268666666415" width="8" height="34.43624400000169" fill="#ef5350"/><line x1="608" y1="379.5961000000034" x2="608" y2="459.0643546666646" stroke="#26a69a" stroke-width="2"/><rect x="604" y="391.5163373333371" width="8" height="3.973413333331621" fill="#26a69a"/><line x1="620" y1="375.62268666666415" x2="620" y2="414.03234266666306" stroke="#26a69a" stroke-width="2"/><rect x="616" y="375.62268666666415" width="8" height="21.19153466667285" fill="#26a69a"/><line x1="632" y1="362.37797733333537" x2="632" y2="423.3036400000022" stroke="#ef5350" stroke-width="2"/><rect x="628" y="386.2184533333296" width="8" height="29.13836133333615" fill="#ef5350"/><line x1="644" y1="305.42572800000016" x2="644" y2="431.2504653333311" stroke="#26a69a" stroke-width="2"/><rect x="640" y="319.99490799999717" width="8" height="96.68637733333685" fill="#26a69a"/><line x1="656" y1="314.6970253333318" x2="656" y2="452.44199999999637" stroke="#ef5350" stroke-width="2"/><rect x="652" y="325.9550279999985" width="8" height="126.48697199999788" fill="#ef5350"/><line x1="668" y1="338.5375013333335" x2="668" y2="473.6335346666692" stroke="#26a69a" stroke-width="2"/><rect x="664" y="339.8619720000018" width="8" height="112.58002799999457" fill="#26a69a"/><line x1="680" y1="323.96832133333646" x2="680" y2="395.4897506666687" stroke="#ef5350" stroke-width="2"/><rect x="676" y="339.8619720000018" width="8" height="42.38306933333058" fill="#ef5350"/><line x1="692" y1="289.5320773333349" x2="692" y2="392.8408079999978" stroke="#26a69a" stroke-width="2"/><rect x="688" y="294.8299613333347" width="8" height="92.71296399999756" fill="#26a69a"/><line x1="704" y1="237.87771199999952" x2="704" y2="296.154432000003" stroke="#26a69a" stroke-width="2"/><rect x="700" y="259.06924666666487" width="8" height="37.08518533333813" fill="#26a69a"/><line x1="716" y1="224.63300266666306" x2="716" y2="267.01607200000126" stroke="#26a69a" stroke-width="2"/><rect x="712" y="233.90429866666796" width="8" height="21.19153466666512" fill="#26a69a"/><line x1="728" y1="192.8457013333325" x2="728" y2="244.50006666666764" stroke="#26a69a" stroke-width="2"/><rect x="724" y="224.63300266666306" width="8" height="11.920238666668183" fill="#26a69a"/><line x1="740" y1="203.44146799999794" x2="740" y2="236.55324133333124" stroke="#26a69a" stroke-width="2"/><rect x="736" y="212.7127640000026" width="8" height="11.920238666660453" fill="#26a69a"/><line x1="752" y1="198.14358399999787" x2="752" y2="241.85112399999684" stroke="#ef5350" stroke-width="2"/><rect x="748" y="207.414881333337" width="8" height="23.840475999994396" fill="#ef5350"/><line x1="764" y1="203.44146799999794" x2="764" y2="239.06973600000288" stroke="#26a69a" stroke-width="2"/><rect x="760" y="214.16968266667027" width="8" height="18.41014533332941" fill="#26a69a"/><line x1="776" y1="208.73935199999778" x2="776" y2="267.01607200000126" stroke="#ef5350" stroke-width="2"/><rect x="772" y="217.34841333333566" width="8" height="43.045303999997486" fill="#ef5350"/><line x1="788" y1="229.93088666666313" x2="788" y2="416.681285333334" stroke="#ef5350" stroke-width="2"/><rect x="784" y="264.3671306666647" width="8" height="45.03201066666702" fill="#ef5350"/><line x1="800" y1="286.88313599999833" x2="800" y2="357.08009333333547" stroke="#26a69a" stroke-width="2"/><rect x="796" y="300.12784533333456" width="8" height="14.569179999997232" fill="#26a69a"/><line x1="812" y1="294.8299613333347" x2="812" y2="331.91514666666535" stroke="#26a69a" stroke-width="2"/><rect x="808" y="304.1012573333319" width="8" height="2" fill="#26a69a"/><line x1="824" y1="274.96289733333015" x2="824" y2="314.6970253333318" stroke="#26a69a" stroke-width="2"/><rect x="820" y="277.6118386666667" width="8" height="37.085186666665095" fill="#26a69a"/><line x1="836" y1="273.6384266666694" x2="836" y2="304.1012573333319" stroke="#ef5350" stroke-width="2"/><rect x="832" y="273.6384266666694" width="8" height="10.59576666666544" fill="#ef5350"/><line x1="848" y1="267.01607200000126" x2="848" y2="326.6172626666655" stroke="#ef5350" stroke-width="2"/><rect x="844" y="284.2341933333348" width="8" height="18.542593333328796" fill="#ef5350"/><line x1="860" y1="290.85654800000316" x2="860" y2="317.34596666666835" stroke="#26a69a" stroke-width="2"/><rect x="856" y="300.12784533333456" width="8" height="3.9734119999973245" fill="#26a69a"/><line x1="872" y1="278.93631066666944" x2="872" y2="319.99490799999717" stroke="#26a69a" stroke-width="2"/><rect x="868" y="282.90972266666654" width="8" height="17.218122666668023" fill="#26a69a"/><line x1="884" y1="259.06924666666487" x2="884" y2="312.0480826666683" stroke="#26a69a" stroke-width="2"/><rect x="880" y="264.3671306666647" width="8" height="22.516005333333624" fill="#26a69a"/><line x1="896" y1="247.14900799999668" x2="896" y2="286.88313599999833" stroke="#ef5350" stroke-width="2"/><rect x="892" y="263.0426586666697" width="8" height="3.973413333331564" fill="#ef5350"/><line x1="908" y1="252.44689199999652" x2="908" y2="285.55866533333005" stroke="#26a69a" stroke-width="2"/><rect x="904" y="252.44689199999652" width="8" height="13.24470933333646" fill="#26a69a"/><line x1="920" y1="231.2553573333314" x2="920" y2="260.39371733333314" stroke="#26a69a" stroke-width="2"/><rect x="916" y="241.85112399999684" width="8" height="14.569180000004508" fill="#26a69a"/><line x1="932" y1="223.30853200000251" x2="932" y2="259.06924666666487" stroke="#26a69a" stroke-width="2"/><rect x="928" y="228.60641600000235" width="8" height="18.54259199999433" fill="#26a69a"/><line x1="944" y1="225.95747333333134" x2="944" y2="273.6384266666694" stroke="#ef5350" stroke-width="2"/><rect x="940" y="225.95747333333134" width="8" height="26.489418666665188" fill="#ef5350"/><line x1="956" y1="218.01064800000245" x2="956" y2="272.3139560000011" stroke="#ef5350" stroke-width="2"/><rect x="952" y="249.7979506666677" width="8" height="14.569179999997004" fill="#ef5350"/><line x1="968" y1="221.98406133333424" x2="968" y2="309.3991413333317" stroke="#26a69a" stroke-width="2"/><rect x="964" y="236.55324133333124" width="8" height="27.813889333333464" fill="#26a69a"/><line x1="980" y1="195.49464266666905" x2="980" y2="237.87771199999952" stroke="#26a69a" stroke-width="2"/><rect x="976" y="211.38829333333433" width="8" height="26.489418666665188" fill="#26a69a"/><line x1="992" y1="207.414881333337" x2="992" y2="292.1810186666637" stroke="#ef5350" stroke-width="2"/><rect x="988" y="212.7127640000026" width="8" height="68.87248799999566" fill="#ef5350"/><line x1="1004" y1="281.58525199999826" x2="1004" y2="363.70244800000364" stroke="#ef5350" stroke-width="2"/><rect x="1000" y="281.58525199999826" width="8" height="71.52142933333238" fill="#ef5350"/><line x1="1016" y1="427.27705199999946" x2="1016" y2="692.1712346666634" stroke="#26a69a" stroke-width="2"/><rect x="1012" y="436.5483479999966" width="8" height="202.64405066667075" fill="#26a69a"/><line x1="1028" y1="419.330226666663" x2="1028" y2="494.82506933333445" stroke="#ef5350" stroke-width="2"/><rect x="1024" y="431.2504653333311" width="8" height="31.78730133333835" fill="#ef5350"/><line x1="1040" y1="343.8353853333335" x2="1040" y2="525.287899999997" stroke="#26a69a" stroke-width="2"/><rect x="1036" y="384.89398266666893" width="8" height="91.38849333332922" fill="#26a69a"/><line x1="1052" y1="347.8087973333307" x2="1052" y2="441.8462319999965" stroke="#ef5350" stroke-width="2"/><rect x="1048" y="378.2716280000007" width="8" height="9.271297333331574" fill="#ef5350"/><line x1="1064" y1="318.6704373333366" x2="1064" y2="420.6546973333313" stroke="#26a69a" stroke-width="2"/><rect x="1060" y="327.9417333333338" width="8" height="64.89907466666403" fill="#26a69a"/><line x1="1076" y1="212.7127640000026" x2="1076" y2="339.8619720000018" stroke="#26a69a" stroke-width="2"/><rect x="1072" y="284.2341933333348" width="8" height="38.40965733333337" fill="#26a69a"/><line x1="1088" y1="72.31884800000148" x2="1088" y2="290.85654800000316" stroke="#26a69a" stroke-width="2"/><rect x="1084" y="76.29225999999858" width="8" height="213.2398173333363" fill="#26a69a"/><line x1="1100" y1="8.744243999998048" x2="1100" y2="84.23908666666944" stroke="#26a69a" stroke-width="2"/><rect x="1096" y="25.962365333331604" width="8" height="47.68095333333815" fill="#26a69a"/><line x1="1112" y1="7.419773333329772" x2="1112" y2="421.97916799999956" stroke="#ef5350" stroke-width="2"/><rect x="1108" y="23.31342400000267" width="8" height="263.56971199999566" fill="#ef5350"/><line x1="1124" y1="134.56898133333652" x2="1124" y2="330.5906759999971" stroke="#26a69a" stroke-width="2"/><rect x="1120" y="274.96289733333015" width="8" height="6.622354666668116" fill="#26a69a"/><line x1="1136" y1="268.34054266666953" x2="1136" y2="562.3730853333351" stroke="#ef5350" stroke-width="2"/><rect x="1132" y="270.9894853333328" width="8" height="186.75039733333665" fill="#ef5350"/><line x1="1148" y1="416.681285333334" x2="1148" y2="492.17612666666355" stroke="#ef5350" stroke-width="2"/><rect x="1144" y="455.0909413333329" width="8" height="21.191534666665234" fill="#ef5350"/><line x1="1160" y1="274.96289733333015" x2="1160" y2="575.6177946666639" stroke="#26a69a" stroke-width="2"/><rect x="1156" y="310.723612" width="8" height="173.50568933333466" fill="#26a69a"/><line x1="1172" y1="286.88313599999833" x2="1172" y2="453.76647066666465" stroke="#ef5350" stroke-width="2"/><rect x="1168" y="319.99490799999717" width="8" height="90.06402266666868" fill="#ef5350"/><line x1="1184" y1="363.70244800000364" x2="1184" y2="633.8945146666674" stroke="#ef5350" stroke-width="2"/><rect x="1180" y="416.681285333334" width="8" height="105.95767199999955" fill="#ef5350"/><line x1="1196" y1="339.8619720000018" x2="1196" y2="555.750730666667" stroke="#26a69a" stroke-width="2"/><rect x="1192" y="437.8728199999993" width="8" height="83.44166666666598" fill="#26a69a"/><line x1="1208" y1="264.3671306666647" x2="1208" y2="447.1441159999965" stroke="#26a69a" stroke-width="2"/><rect x="1204" y="310.723612" width="8" height="119.20238266667042" fill="#26a69a"/><line x1="1220" y1="317.34596666666835" x2="1220" y2="562.3730853333351" stroke="#ef5350" stroke-width="2"/><rect x="1216" y="317.34596666666835" width="8" height="243.70264799999848" fill="#ef5350"/><line x1="1232" y1="481.71280666666314" x2="1232" y2="590.1869746666686" stroke="#ef5350" stroke-width="2"/><rect x="1228" y="557.0752013333353" width="8" height="2" fill="#ef5350"/><line x1="1244" y1="420.6546973333313" x2="1244" y2="583.5646200000004" stroke="#26a69a" stroke-width="2"/><rect x="1240" y="457.7398826666695" width="8" height="99.33531866666578" fill="#26a69a"/><line x1="1256" y1="441.8462319999965" x2="1256" y2="531.9102546666651" stroke="#26a69a" stroke-width="2"/><rect x="1252" y="457.7398826666695" width="8" height="6.622354666660613" fill="#26a69a"/><line x1="1268" y1="387.5429253333323" x2="1268" y2="476.28247599999816" stroke="#26a69a" stroke-width="2"/><rect x="1264" y="457.7398826666695" width="8" height="2" fill="#26a69a"/><line x1="1280" y1="325.29279199999723" x2="1280" y2="474.9580053333299" stroke="#26a69a" stroke-width="2"/><rect x="1276" y="355.7556226666672" width="8" height="109.93108666666552" fill="#26a69a"/><line x1="1292" y1="354.2987053333339" x2="1292" y2="468.33565066666927" stroke="#ef5350" stroke-width="2"/><rect x="1288" y="354.2987053333339" width="8" height="31.919747999995707" fill="#ef5350"/><line x1="1304" y1="269.6650133333303" x2="1304" y2="388.86739600000055" stroke="#26a69a" stroke-width="2"/><rect x="1300" y="296.154432000003" width="8" height="92.71296399999756" fill="#26a69a"/><line x1="1316" y1="278.93631066666944" x2="1316" y2="334.5640880000019" stroke="#ef5350" stroke-width="2"/><rect x="1312" y="300.12784533333456" width="8" height="14.569179999997232" fill="#ef5350"/><line x1="1328" y1="202.11699733332966" x2="1328" y2="312.0480826666683" stroke="#26a69a" stroke-width="2"/><rect x="1324" y="243.17559599999936" width="8" height="68.87248666666892" fill="#26a69a"/><line x1="1340" y1="220.65959066666596" x2="1340" y2="277.6118386666667" stroke="#ef5350" stroke-width="2"/><rect x="1336" y="241.85112399999684" width="8" height="27.813889333333464" fill="#ef5350"/><line x1="1352" y1="178.27652133333527" x2="1352" y2="257.7447759999966" stroke="#26a69a" stroke-width="2"/><rect x="1348" y="218.01064800000245" width="8" height="38.409655999998904" fill="#26a69a"/><line x1="1364" y1="192.8457013333325" x2="1364" y2="255.09583333333308" stroke="#ef5350" stroke-width="2"/><rect x="1360" y="212.7127640000026" width="8" height="26.489418666665188" fill="#ef5350"/><line x1="1376" y1="227.2819439999996" x2="1376" y2="282.90972266666654" stroke="#ef5350" stroke-width="2"/><rect x="1372" y="239.2021826666678" width="8" height="43.707539999998744" fill="#ef5350"/><line x1="1388" y1="221.98406133333424" x2="1388" y2="301.45231600000284" stroke="#26a69a" stroke-width="2"/><rect x="1384" y="251.12242133333598" width="8" height="38.27720933333376" fill="#26a69a"/><line x1="1400" y1="220.65959066666596" x2="1400" y2="265.691601333333" stroke="#ef5350" stroke-width="2"/><rect x="1396" y="251.12242133333598" width="8" height="5.297882666665373" fill="#ef5350"/><line x1="1412" y1="228.60641600000235" x2="1412" y2="298.80337333333205" stroke="#ef5350" stroke-width="2"/><rect x="1408" y="245.8245373333359" width="8" height="17.218121333333784" fill="#ef5350"/><line x1="1424" y1="203.44146799999794" x2="1424" y2="277.6118386666667" stroke="#26a69a" stroke-width="2"/><rect x="1420" y="219.33511866666322" width="8" height="39.73412800000165" fill="#26a69a"/><line x1="1436" y1="202.11699733332966" x2="1436" y2="267.01607200000126" stroke="#ef5350" stroke-width="2"/><rect x="1432" y="220.65959066666596" width="8" height="39.73412666666718" fill="#ef5350"/><line x1="1448" y1="265.691601333333" x2="1448" y2="384.89398266666893" stroke="#ef5350" stroke-width="2"/><rect x="1444" y="265.691601333333" width="8" height="63.57460400000332" fill="#ef5350"/><line x1="1460" y1="298.80337333333205" x2="1460" y2="357.08009333333547" stroke="#ef5350" stroke-width="2"/><rect x="1456" y="325.29279199999723" width="8" height="13.244709333336289" fill="#ef5350"/><line x1="1472" y1="349.13326799999896" x2="1472" y2="492.17612666666355" stroke="#ef5350" stroke-width="2"/><rect x="1468" y="349.13326799999896" width="8" height="91.3884933333369" fill="#ef5350"/><line x1="1484" y1="443.1707026666648" x2="1484" y2="595.4848586666685" stroke="#ef5350" stroke-width="2"/><rect x="1480" y="447.1441159999965" width="8" height="120.52685333333858" fill="#ef5350"/><line x1="1496" y1="546.4794346666698" x2="1496" y2="667.0062866666665" stroke="#ef5350" stroke-width="2"/><rect x="1492" y="570.319910666664" width="8" height="71.52142933333232" fill="#ef5350"/><line x1="1508" y1="519.990015999997" x2="1508" y2="655.0860493333328" stroke="#26a69a" stroke-width="2"/><rect x="1504" y="614.0274506666705" width="8" height="26.489418666665188" fill="#26a69a"/><line x1="1520" y1="612.7029800000022" x2="1520" y2="742.5011293333304" stroke="#ef5350" stroke-width="2"/><rect x="1516" y="614.0274506666705" width="8" height="74.17037066666114" fill="#ef5350"/><line x1="1532" y1="602.1072120000023" x2="1532" y2="708.0648853333362" stroke="#26a69a" stroke-width="2"/><rect x="1528" y="623.2987466666676" width="8" height="60.92566266666688" fill="#26a69a"/><line x1="1544" y1="576.9422653333322" x2="1544" y2="656.410520000001" stroke="#ef5350" stroke-width="2"/><rect x="1540" y="627.2721599999992" width="8" height="10.59576666666544" fill="#ef5350"/><line x1="1556" y1="615.3519213333311" x2="1556" y2="667.0062866666665" stroke="#26a69a" stroke-width="2"/><rect x="1552" y="626.0801360000036" width="8" height="15.761203999992745" fill="#26a69a"/><line x1="1568" y1="473.6335346666692" x2="1568" y2="629.9211013333357" stroke="#26a69a" stroke-width="2"/><rect x="1564" y="519.990015999997" width="8" height="109.93108533333873" fill="#26a69a"/><line x1="1580" y1="398.1386919999977" x2="1580" y2="542.5060213333305" stroke="#ef5350" stroke-width="2"/><rect x="1576" y="522.6389573333336" width="8" height="9.271297333331518" fill="#ef5350"/><line x1="1592" y1="443.1707026666648" x2="1592" y2="553.1017893333304" stroke="#26a69a" stroke-width="2"/><rect x="1588" y="453.76647066666465" width="8" height="88.73955066666588" fill="#26a69a"/><line x1="1604" y1="436.5483479999966" x2="1604" y2="529.2613120000018" stroke="#ef5350" stroke-width="2"/><rect x="1600" y="451.1175293333357" width="8" height="78.14378266666608" fill="#ef5350"/><line x1="1616" y1="501.44742266666833" x2="1616" y2="615.3519213333311" stroke="#26a69a" stroke-width="2"/><rect x="1612" y="514.6921319999971" width="8" height="17.218122666668023" fill="#26a69a"/><line x1="1628" y1="476.28247599999816" x2="1628" y2="547.8039053333305" stroke="#ef5350" stroke-width="2"/><rect x="1624" y="508.06977733333645" width="8" height="39.73412799999403" fill="#ef5350"/><line x1="1640" y1="489.5271853333346" x2="1640" y2="559.7241439999985" stroke="#26a69a" stroke-width="2"/><rect x="1636" y="502.77189466666334" width="8" height="45.032010666667134" fill="#26a69a"/><line x1="1652" y1="473.6335346666692" x2="1652" y2="518.7979920000013" stroke="#26a69a" stroke-width="2"/><rect x="1648" y="478.9314173333347" width="8" height="9.271297333331631" fill="#26a69a"/><line x1="1664" y1="463.0377666666694" x2="1664" y2="523.9634293333362" stroke="#26a69a" stroke-width="2"/><rect x="1660" y="478.9314173333347" width="8" height="2" fill="#26a69a"/><line x1="1676" y1="436.5483479999966" x2="1676" y2="489.5271853333346" stroke="#ef5350" stroke-width="2"/><rect x="1672" y="485.55377200000294" width="8" height="2.6489426666634017" fill="#ef5350"/><line x1="1688" y1="465.6867093333327" x2="1688" y2="521.3144866666653" stroke="#ef5350" stroke-width="2"/><rect x="1684" y="489.5271853333346" width="8" height="15.761204000000362" fill="#ef5350"/><line x1="1700" y1="469.66012133333004" x2="1700" y2="534.5591960000016" stroke="#26a69a" stroke-width="2"/><rect x="1696" y="469.66012133333004" width="8" height="30.462830666670015" fill="#26a69a"/><line x1="1712" y1="463.0377666666694" x2="1712" y2="598.1337999999974" stroke="#ef5350" stroke-width="2"/><rect x="1708" y="470.9845919999983" width="8" height="41.05859866666981" fill="#ef5350"/><line x1="1724" y1="485.55377200000294" x2="1724" y2="541.1815506666699" stroke="#ef5350" stroke-width="2"/><rect x="1720" y="502.77189466666334" width="8" height="11.920237333333716" fill="#ef5350"/><line x1="1736" y1="517.3410746666681" x2="1736" y2="567.670969333335" stroke="#ef5350" stroke-width="2"/><rect x="1732" y="517.3410746666681" width="8" height="2.648941333328935" fill="#ef5350"/><line x1="1748" y1="486.8782426666636" x2="1748" y2="531.9102546666651" stroke="#26a69a" stroke-width="2"/><rect x="1744" y="500.25539999999944" width="8" height="22.383557333334124" fill="#26a69a"/><line x1="1760" y1="472.3090626666666" x2="1760" y2="501.44742266666833" stroke="#ef5350" stroke-width="2"/><rect x="1756" y="492.17612666666355" width="8" height="9.271296000004781" fill="#ef5350"/><line x1="1772" y1="474.9580053333299" x2="1772" y2="512.0431906666681" stroke="#ef5350" stroke-width="2"/><rect x="1768" y="500.12295200000005" width="8" height="5.29788399999984" fill="#ef5350"/><line x1="1784" y1="468.33565066666927" x2="1784" y2="530.5857839999968" stroke="#ef5350" stroke-width="2"/><rect x="1780" y="501.44742266666833" width="8" height="15.893651999999747" fill="#ef5350"/><line x1="1796" y1="474.9580053333299" x2="1796" y2="543.8304919999988" stroke="#ef5350" stroke-width="2"/><rect x="1792" y="510.71871999999985" width="8" height="27.813889333333464" fill="#ef5350"/><line x1="1808" y1="523.9634293333362" x2="1808" y2="580.9156786666639" stroke="#26a69a" stroke-width="2"/><rect x="1804" y="525.287899999997" width="8" height="15.893650666672897" fill="#26a69a"/><line x1="1820" y1="527.9368413333335" x2="1820" y2="614.0274506666705" stroke="#ef5350" stroke-width="2"/><rect x="1816" y="527.9368413333335" width="8" height="45.03201066666702" fill="#ef5350"/><line x1="1832" y1="568.9954400000033" x2="1832" y2="632.5700439999991" stroke="#ef5350" stroke-width="2"/><rect x="1828" y="579.5912066666688" width="8" height="3.9734133333316777" fill="#ef5350"/><line x1="1844" y1="568.9954400000033" x2="1844" y2="598.1337999999974" stroke="#26a69a" stroke-width="2"/><rect x="1840" y="579.5912066666688" width="8" height="3.9734133333316777" fill="#26a69a"/><line x1="1856" y1="529.2613120000018" x2="1856" y2="587.5380319999977" stroke="#26a69a" stroke-width="2"/><rect x="1852" y="549.1283759999988" width="8" height="30.462830666670015" fill="#26a69a"/><line x1="1868" y1="546.4794346666698" x2="1868" y2="623.2987466666676" stroke="#ef5350" stroke-width="2"/><rect x="1864" y="557.0752013333353" width="8" height="46.356482666662146" fill="#ef5350"/><line x1="1880" y1="533.2347253333334" x2="1880" y2="614.6896866666642" stroke="#26a69a" stroke-width="2"/><rect x="1876" y="538.5326093333333" width="8" height="58.27672000000348" fill="#26a69a"/><line x1="1892" y1="516.0166039999998" x2="1892" y2="542.5060213333305" stroke="#26a69a" stroke-width="2"/><rect x="1888" y="517.3410746666681" width="8" height="19.867062666662605" fill="#26a69a"/><line x1="1904" y1="510.71871999999985" x2="1904" y2="570.319910666664" stroke="#ef5350" stroke-width="2"/><rect x="1900" y="514.6921319999971" width="8" height="49.005424000006315" fill="#ef5350"/><line x1="1916" y1="477.60694666666643" x2="1916" y2="576.9422653333322" stroke="#26a69a" stroke-width="2"/><rect x="1912" y="484.89153733333603" width="8" height="84.1039026666673" fill="#26a69a"/><line x1="1928" y1="420.6546973333313" x2="1928" y2="530.5857839999968" stroke="#26a69a" stroke-width="2"/><rect x="1924" y="451.1175293333357" width="8" height="41.05859733332784" fill="#26a69a"/><line x1="1940" y1="339.8619720000018" x2="1940" y2="477.60694666666643" stroke="#26a69a" stroke-width="2"/><rect x="1936" y="395.4897506666687" width="8" height="55.627778666666984" fill="#26a69a"/><rect x="75" y="914.001067995728" width="10" height="105.99893200427198" fill="#26a69a" opacity="0.9"/><rect x="87" y="948.9063723745105" width="10" height="71.09362762548949" fill="#ef5350" opacity="0.9"/><rect x="99" y="961.8264506941972" width="10" height="58.173549305802794" fill="#ef5350" opacity="0.9"/><rect x="111" y="963.691705233179" width="10" height="56.30829476682095" fill="#26a69a" opacity="0.9"/><rect x="123" y="966.6126735493058" width="10" height="53.38732645069422" fill="#ef5350" opacity="0.9"/><rect x="135" y="988.4296902812389" width="10" height="31.57030971876111" fill="#26a69a" opacity="0.9"/><rect x="147" y="968.2317550729797" width="10" height="51.768244927020305" fill="#26a69a" opacity="0.9"/><rect x="159" y="983.6498754004984" width="10" height="36.350124599501555" fill="#ef5350" opacity="0.9"/><rect x="171" y="987.5977216091136" width="10" height="32.40227839088641" fill="#26a69a" opacity="0.9"/><rect x="183" y="971.1735493058028" width="10" height="48.826450694197206" fill="#26a69a" opacity="0.9"/><rect x="195" y="967.9551441794233" width="10" height="52.044855820576686" fill="#ef5350" opacity="0.9"/><rect x="207" y="996.5437878248487" width="10" height="23.456212175151336" fill="#26a69a" opacity="0.9"/><rect x="219" y="979.8600925596297" width="10" height="40.13990744037028" fill="#ef5350" opacity="0.9"/><rect x="231" y="993.3782484870061" width="10" height="26.62175151299391" fill="#26a69a" opacity="0.9"/><rect x="243" y="990.3349946600214" width="10" height="29.66500533997862" fill="#26a69a" opacity="0.9"/><rect x="255" y="982.7436810252759" width="10" height="37.25631897472408" fill="#26a69a" opacity="0.9"/><rect x="267" y="965.4736561053755" width="10" height="54.52634389462446" fill="#ef5350" opacity="0.9"/><rect x="279" y="995.4741901032396" width="10" height="24.525809896760393" fill="#26a69a" opacity="0.9"/><rect x="291" y="999.0140619437523" width="10" height="20.985938056247733" fill="#26a69a" opacity="0.9"/><rect x="303" y="977.1804912780349" width="10" height="42.81950872196512" fill="#ef5350" opacity="0.9"/><rect x="315" y="986.1724813100748" width="10" height="33.82751868992523" fill="#26a69a" opacity="0.9"/><rect x="327" y="975.6276254894981" width="10" height="44.37237451050191" fill="#26a69a" opacity="0.9"/><rect x="339" y="986.3001067995729" width="10" height="33.69989320042714" fill="#ef5350" opacity="0.9"/><rect x="351" y="994.684941260235" width="10" height="25.31505873976505" fill="#26a69a" opacity="0.9"/><rect x="363" y="998.7080811676753" width="10" height="21.291918832324654" fill="#26a69a" opacity="0.9"/><rect x="375" y="995.381274474902" width="10" height="24.618725525097943" fill="#26a69a" opacity="0.9"/><rect x="387" y="990.7317550729797" width="10" height="29.268244927020305" fill="#26a69a" opacity="0.9"/><rect x="399" y="984.8556425774296" width="10" height="35.14435742257035" fill="#26a69a" opacity="0.9"/><rect x="411" y="987.6655393378427" width="10" height="32.33446066215731" fill="#ef5350" opacity="0.9"/><rect x="423" y="997.6390174439302" width="10" height="22.360982556069757" fill="#26a69a" opacity="0.9"/><rect x="435" y="993.4957280170879" width="10" height="26.504271982912087" fill="#26a69a" opacity="0.9"/><rect x="447" y="993.6078675685297" width="10" height="26.39213243147026" fill="#ef5350" opacity="0.9"/><rect x="459" y="998.8586685653257" width="10" height="21.14133143467427" fill="#26a69a" opacity="0.9"/><rect x="471" y="998.2776788892844" width="10" height="21.722321110715598" fill="#ef5350" opacity="0.9"/><rect x="483" y="1002.4012103951584" width="10" height="17.598789604841613" fill="#26a69a" opacity="0.9"/><rect x="495" y="999.4001423994304" width="10" height="20.599857600569635" fill="#ef5350" opacity="0.9"/><rect x="507" y="995.1527233891064" width="10" height="24.847276610893573" fill="#ef5350" opacity="0.9"/><rect x="519" y="1002.6975792096831" width="10" height="17.302420790316887" fill="#26a69a" opacity="0.9"/><rect x="531" y="1003.3533285866856" width="10" height="16.64667141331438" fill="#ef5350" opacity="0.9"/><rect x="543" y="998.2653969384122" width="10" height="21.73460306158779" fill="#ef5350" opacity="0.9"/><rect x="555" y="999.4241723033108" width="10" height="20.575827696689203" fill="#26a69a" opacity="0.9"/><rect x="567" y="983.5521537913849" width="10" height="36.44784620861515" fill="#ef5350" opacity="0.9"/><rect x="579" y="997.0841936632254" width="10" height="22.915806336774608" fill="#26a69a" opacity="0.9"/><rect x="591" y="1001.4822000711997" width="10" height="18.517799928800287" fill="#ef5350" opacity="0.9"/><rect x="603" y="996.3643645425418" width="10" height="23.635635457458193" fill="#26a69a" opacity="0.9"/><rect x="615" y="1001.5542897828409" width="10" height="18.445710217159103" fill="#26a69a" opacity="0.9"/><rect x="627" y="998.3011747953008" width="10" height="21.698825204699233" fill="#ef5350" opacity="0.9"/><rect x="639" y="989.7187611249554" width="10" height="30.28123887504455" fill="#26a69a" opacity="0.9"/><rect x="651" y="993.626023495906" width="10" height="26.373976504094003" fill="#ef5350" opacity="0.9"/><rect x="663" y="994.9279102883588" width="10" height="25.072089711641183" fill="#26a69a" opacity="0.9"/><rect x="675" y="999.6703453186187" width="10" height="20.32965468138127" fill="#ef5350" opacity="0.9"/><rect x="687" y="998.8271626913493" width="10" height="21.17283730865074" fill="#26a69a" opacity="0.9"/><rect x="699" y="997.4601281594873" width="10" height="22.53987184051266" fill="#26a69a" opacity="0.9"/><rect x="711" y="997.4932360270559" width="10" height="22.5067639729441" fill="#26a69a" opacity="0.9"/><rect x="723" y="995.1067995728017" width="10" height="24.89320042719828" fill="#26a69a" opacity="0.9"/><rect x="735" y="997.9636881452474" width="10" height="22.036311854752626" fill="#26a69a" opacity="0.9"/><rect x="747" y="998.2589889640442" width="10" height="21.741011035955808" fill="#ef5350" opacity="0.9"/><rect x="759" y="998.0720897116412" width="10" height="21.927910288358817" fill="#26a69a" opacity="0.9"/><rect x="771" y="1004.2584549661801" width="10" height="15.741545033819875" fill="#ef5350" opacity="0.9"/><rect x="783" y="983.0224279102883" width="10" height="36.97757208971166" fill="#ef5350" opacity="0.9"/><rect x="795" y="1002.6986472054111" width="10" height="17.301352794588865" fill="#26a69a" opacity="0.9"/><rect x="807" y="1006.500711997152" width="10" height="13.499288002847948" fill="#26a69a" opacity="0.9"/><rect x="819" y="1003.815236739053" width="10" height="16.184763260946966" fill="#26a69a" opacity="0.9"/><rect x="831" y="1006.5834816660733" width="10" height="13.41651833392666" fill="#ef5350" opacity="0.9"/><rect x="843" y="1006.1050195799216" width="10" height="13.894980420078355" fill="#ef5350" opacity="0.9"/><rect x="855" y="1004.4597721609114" width="10" height="15.54022783908863" fill="#26a69a" opacity="0.9"/><rect x="867" y="1002.6367034531862" width="10" height="17.363296546813785" fill="#26a69a" opacity="0.9"/><rect x="879" y="987.5763616945533" width="10" height="32.42363830544673" fill="#26a69a" opacity="0.9"/><rect x="891" y="1000.9898540405839" width="10" height="19.01014595941615" fill="#ef5350" opacity="0.9"/><rect x="903" y="1004.3962264150944" width="10" height="15.603773584905639" fill="#26a69a" opacity="0.9"/><rect x="915" y="1001.8624065503737" width="10" height="18.13759344962625" fill="#26a69a" opacity="0.9"/><rect x="927" y="992.8009967960128" width="10" height="27.199003203987218" fill="#26a69a" opacity="0.9"/><rect x="939" y="988.7783908864365" width="10" height="31.221609113563545" fill="#ef5350" opacity="0.9"/><rect x="951" y="992.9638661445355" width="10" height="27.036133855464527" fill="#ef5350" opacity="0.9"/><rect x="963" y="995.2573869704521" width="10" height="24.742613029547897" fill="#26a69a" opacity="0.9"/><rect x="975" y="987.0316838732645" width="10" height="32.968316126735544" fill="#26a69a" opacity="0.9"/><rect x="987" y="974.8944464222143" width="10" height="45.10555357778571" fill="#ef5350" opacity="0.9"/><rect x="999" y="918.815058739765" width="10" height="101.18494126023495" fill="#ef5350" opacity="0.9"/><rect x="1011" y="958.7730509077963" width="10" height="61.226949092203654" fill="#26a69a" opacity="0.9"/><rect x="1023" y="972.4727661089356" width="10" height="47.527233891064384" fill="#ef5350" opacity="0.9"/><rect x="1035" y="992.4720541117836" width="10" height="27.527945888216436" fill="#26a69a" opacity="0.9"/><rect x="1047" y="986.7892488430047" width="10" height="33.21075115699534" fill="#ef5350" opacity="0.9"/><rect x="1059" y="992.6648273406906" width="10" height="27.335172659309364" fill="#26a69a" opacity="0.9"/><rect x="1071" y="979.5177999288003" width="10" height="40.48220007119971" fill="#26a69a" opacity="0.9"/><rect x="1083" y="946.3431826272695" width="10" height="73.65681737273053" fill="#26a69a" opacity="0.9"/><rect x="1095" y="964.4243503025988" width="10" height="55.57564969740122" fill="#26a69a" opacity="0.9"/><rect x="1107" y="943.5717337130651" width="10" height="76.4282662869349" fill="#ef5350" opacity="0.9"/><rect x="1119" y="962.6359914560342" width="10" height="57.36400854396584" fill="#26a69a" opacity="0.9"/><rect x="1131" y="942.8844784620861" width="10" height="77.11552153791388" fill="#ef5350" opacity="0.9"/><rect x="1143" y="987.4455322178711" width="10" height="32.55446778212888" fill="#ef5350" opacity="0.9"/><rect x="1155" y="967.3004627981488" width="10" height="52.69953720185117" fill="#26a69a" opacity="0.9"/><rect x="1167" y="981.812388750445" width="10" height="38.18761124955495" fill="#ef5350" opacity="0.9"/><rect x="1179" y="978.3915984336063" width="10" height="41.608401566393695" fill="#ef5350" opacity="0.9"/><rect x="1191" y="982.0062299750801" width="10" height="37.993770024919854" fill="#26a69a" opacity="0.9"/><rect x="1203" y="988.563189747241" width="10" height="31.43681025275896" fill="#26a69a" opacity="0.9"/><rect x="1215" y="976.1002135991456" width="10" height="43.899786400854396" fill="#ef5350" opacity="0.9"/><rect x="1227" y="983.6632253470987" width="10" height="36.33677465290134" fill="#ef5350" opacity="0.9"/><rect x="1239" y="994.2871128515486" width="10" height="25.712887148451387" fill="#26a69a" opacity="0.9"/><rect x="1251" y="993.2773228907084" width="10" height="26.722677109291567" fill="#26a69a" opacity="0.9"/><rect x="1263" y="991.937522249911" width="10" height="28.062477750088988" fill="#26a69a" opacity="0.9"/><rect x="1275" y="985.4206123175508" width="10" height="34.57938768244924" fill="#26a69a" opacity="0.9"/><rect x="1287" y="996.8946244215023" width="10" height="23.10537557849773" fill="#ef5350" opacity="0.9"/><rect x="1299" y="987.8065147739409" width="10" height="32.193485226059124" fill="#26a69a" opacity="0.9"/><rect x="1311" y="999.0765396938413" width="10" height="20.923460306158745" fill="#ef5350" opacity="0.9"/><rect x="1323" y="982.8376646493414" width="10" height="37.16233535065862" fill="#26a69a" opacity="0.9"/><rect x="1335" y="1001.0202919188323" width="10" height="18.9797080811677" fill="#ef5350" opacity="0.9"/><rect x="1347" y="993.4519401922392" width="10" height="26.54805980776075" fill="#26a69a" opacity="0.9"/><rect x="1359" y="985.6475614097544" width="10" height="34.35243859024558" fill="#ef5350" opacity="0.9"/><rect x="1371" y="1000.3009967960128" width="10" height="19.699003203987218" fill="#ef5350" opacity="0.9"/><rect x="1383" y="999.253292986828" width="10" height="20.746707013172" fill="#26a69a" opacity="0.9"/><rect x="1395" y="1001.3406906372375" width="10" height="18.659309362762542" fill="#ef5350" opacity="0.9"/><rect x="1407" y="1003.7447490210039" width="10" height="16.25525097899606" fill="#ef5350" opacity="0.9"/><rect x="1419" y="999.245817016732" width="10" height="20.754182983268038" fill="#26a69a" opacity="0.9"/><rect x="1431" y="996.5838376646493" width="10" height="23.41616233535069" fill="#ef5350" opacity="0.9"/><rect x="1443" y="983.7860448558206" width="10" height="36.21395514417941" fill="#ef5350" opacity="0.9"/><rect x="1455" y="1001.1164115343539" width="10" height="18.883588465646085" fill="#ef5350" opacity="0.9"/><rect x="1467" y="986.627981488074" width="10" height="33.372018511925944" fill="#ef5350" opacity="0.9"/><rect x="1479" y="972.6383054467782" width="10" height="47.36169455322181" fill="#ef5350" opacity="0.9"/><rect x="1491" y="974.1671413314347" width="10" height="45.832858668565336" fill="#ef5350" opacity="0.9"/><rect x="1503" y="972.9629761480954" width="10" height="47.037023851904564" fill="#26a69a" opacity="0.9"/><rect x="1515" y="973.2123531505874" width="10" height="46.78764684941257" fill="#ef5350" opacity="0.9"/><rect x="1527" y="990.6393734425062" width="10" height="29.360626557493788" fill="#26a69a" opacity="0.9"/><rect x="1539" y="997.7137771448914" width="10" height="22.286222855108576" fill="#ef5350" opacity="0.9"/><rect x="1551" y="1002.689569241723" width="10" height="17.310430758276993" fill="#26a69a" opacity="0.9"/><rect x="1563" y="975.2650409398362" width="10" height="44.73495906016376" fill="#26a69a" opacity="0.9"/><rect x="1575" y="988.7869348522606" width="10" height="31.21306514773937" fill="#ef5350" opacity="0.9"/><rect x="1587" y="998.9430402278391" width="10" height="21.056959772160894" fill="#26a69a" opacity="0.9"/><rect x="1599" y="1001.8853684585262" width="10" height="18.11463154147384" fill="#ef5350" opacity="0.9"/><rect x="1611" y="994.1002135991456" width="10" height="25.899786400854396" fill="#26a69a" opacity="0.9"/><rect x="1623" y="1002.876468494126" width="10" height="17.123531505873984" fill="#ef5350" opacity="0.9"/><rect x="1635" y="1004.3508365966536" width="10" height="15.649163403346392" fill="#26a69a" opacity="0.9"/><rect x="1647" y="1005.4733001067996" width="10" height="14.52669989320043" fill="#26a69a" opacity="0.9"/><rect x="1659" y="1001.4320042719829" width="10" height="18.56799572801708" fill="#26a69a" opacity="0.9"/><rect x="1671" y="1001.4677821288715" width="10" height="18.532217871128523" fill="#ef5350" opacity="0.9"/><rect x="1683" y="1006.6331434674262" width="10" height="13.36685653257382" fill="#ef5350" opacity="0.9"/><rect x="1695" y="1004.7566749733" width="10" height="15.24332502669995" fill="#26a69a" opacity="0.9"/><rect x="1707" y="996.4861160555358" width="10" height="23.51388394446417" fill="#ef5350" opacity="0.9"/><rect x="1719" y="1003.5567817728729" width="10" height="16.44321822712709" fill="#ef5350" opacity="0.9"/><rect x="1731" y="1004.9409042363831" width="10" height="15.059095763616938" fill="#ef5350" opacity="0.9"/><rect x="1743" y="1003.7837308650766" width="10" height="16.216269134923436" fill="#26a69a" opacity="0.9"/><rect x="1755" y="1001.2194731221075" width="10" height="18.7805268778925" fill="#ef5350" opacity="0.9"/><rect x="1767" y="1001.1703453186187" width="10" height="18.82965468138127" fill="#ef5350" opacity="0.9"/><rect x="1779" y="1006.7351370594517" width="10" height="13.264862940548255" fill="#ef5350" opacity="0.9"/><rect x="1791" y="1004.6669633321467" width="10" height="15.333036667853321" fill="#ef5350" opacity="0.9"/><rect x="1803" y="1001.4544321822713" width="10" height="18.545567817728738" fill="#26a69a" opacity="0.9"/><rect x="1815" y="999.9923460306159" width="10" height="20.007653969384137" fill="#ef5350" opacity="0.9"/><rect x="1827" y="1002.0316838732645" width="10" height="17.968316126735544" fill="#ef5350" opacity="0.9"/><rect x="1839" y="1002.9053043787825" width="10" height="17.09469562121751" fill="#26a69a" opacity="0.9"/><rect x="1851" y="995.4522961908152" width="10" height="24.54770380918478" fill="#26a69a" opacity="0.9"/><rect x="1863" y="983.4544321822713" width="10" height="36.54556781772874" fill="#ef5350" opacity="0.9"/><rect x="1875" y="992.7347810608758" width="10" height="27.265218939124225" fill="#26a69a" opacity="0.9"/><rect x="1887" y="998.9104663581346" width="10" height="21.089533641865387" fill="#26a69a" opacity="0.9"/><rect x="1899" y="988.2064791740833" width="10" height="31.793520825916744" fill="#ef5350" opacity="0.9"/><rect x="1911" y="1000.2427910288359" width="10" height="19.75720897116412" fill="#26a69a" opacity="0.9"/><rect x="1923" y="953.8837664649342" width="10" height="66.11623353506582" fill="#26a69a" opacity="0.9"/><rect x="1935" y="860.0" width="10" height="160.0" fill="#26a69a" opacity="0.9"/><rect x="1004" y="353.10668133333064" width="12" height="286.08571733333673" fill="#ff0000" opacity="0.50"/><polyline points="320,460.8779332381042,332,427.4042284852688,344,405.9483017088951,356,386.15737621281215,368,365.7284991131746,380,347.37136941985983,392,330.5102576655902,404,315.25496607839614,416,306.8765830233133,428,295.6380787353737,440,281.1811452685106,452,270.24544406833684,464,257.8284364427798,476,254.79310662283297,488,245.36143132542452,500,237.3325710722081,512,237.63676938278877,524,236.14603528284692,536,237.82463789082908,548,244.6412572663121,560,250.0518342885698,572,267.81340702298917,584,277.7025371477823,596,290.30790795910275,608,299.9468059947428,620,307.1540327253995,632,317.45905957694345,644,317.7005689505677,656,330.5330861933651,668,331.42155150828034,680,336.2618838725666,692,332.31598648787144,704,325.3401065048972,716,316.6319343298255,728,307.8701313142876,740,298.80752490340296,752,292.3739851348273,764,284.925956328334,776,282.58955261452843,788,285.14284677821706,800,286.56998949775243,812,288.23963405352515,824,287.22746306430054,836,286.94238975658664,848,288.45042755754093,860,289.56256258380404,872,288.92895878217746,884,286.5897370568898,896,284.72557848004567,908,281.65141786289496,920,277.86091368548114,932,273.1700091440114,944,271.1963789398169,956,270.54597434237166,968,267.30857119864595,980,261.98283044956656,992,263.8497277400802,1004,272.3503899870518,1016,287.9882907501876,1028,304.65966940889757,1040,312.30103257630617,1052,319.4669271245932,1064,320.27405152542383,1076,316.84168407855395,1088,293.93221511869183,1100,268.41127704389396,1112,270.1705017063812,1124,270.62692033752387,1136,288.4472024641127,1148,306.33627613419776,1160,306.7541176452248,1172,316.5926712663122,1184,336.21612708222233,1196,345.8977168839131,1208,342.5478021330643,1220,363.3574033267375,1232,381.9328574860947,1244,389.15257416996,1256,395.6846987886972,1268,401.59471630089075,1280,397.229088335727,1292,396.18045643073856,1304,386.65416838971396,1316,379.8011071462497,1328,366.78915370375006,1340,357.5392355732295,1352,344.25079866149036,1364,334.24616856674834,1376,329.35698324293594,1388,321.9060725848824,1400,315.66933271966104,1412,310.6572685241417,1424,301.95992091867083,1436,298.0012348629241,1448,300.97885109820095,1460,304.5558654063068,1472,317.5049983517358,1484,341.33032892141273,1496,369.95042521461227,1508,393.19585621005143,1520,421.29128145988943,1532,440.53008767005696,1544,459.3241675744972,1556,475.2056883769304,1568,479.47086243627075,1580,484.46509026773583,1592,481.54141221048883,1604,486.0861645713991,1616,488.81054242174287,1628,494.4289579371343,1640,495.223523339943,1652,493.67189419645763,1664,492.26803925711613,1676,491.88086548659464,1688,493.1577725196197,1700,490.919900978065,1712,492.93164285317437,1724,495.0040703909659,1736,497.3836842584964,1748,497.65718099577805,1760,498.0181563930122,1772,498.72317349844104,1784,500.49630694303835,1796,504.11881193259285,1808,506.13491555805774,1820,512.5000523620505,1832,519.2681064228054,1844,525.0131635888844,1856,527.3098504851836,1868,534.5595489151643,1880,534.9379356216559,1892,533.262044102139,1904,536.1606642828898,1916,531.2778902876971,1928,523.6435701968048,1940,511.43844452726626" fill="none" stroke="#0090ff" stroke-width="2"/><line x1="80" y1="50" x2="80" y2="850" stroke="#666666" stroke-width="0.5" stroke-dasharray="4,4"/><line x1="152" y1="50" x2="152" y2="850" stroke="#666666" stroke-width="0.5" stroke-dasharray="4,4"/><line x1="224" y1="50" x2="224" y2="850" stroke="#666666" stroke-width="0.5" stroke-dasharray="4,4"/><line x1="296" y1="50" x2="296" y2="850" stroke="#666666" stroke-width="0.5" stroke-dasharray="4,4"/><line x1="368" y1="50" x2="368" y2="850" stroke="#666666" stroke-width="0.5" stroke-dasharray="4,4"/><line x1="440" y1="50" x2="440" y2="850" stroke="#666666" stroke-width="0.5" stroke-dasharray="4,4"/><line x1="512" y1="50" x2="512" y2="850" stroke="#666666" stroke-width="0.5" stroke-dasharray="4,4"/><line x1="584" y1="50" x2="584" y2="850" stroke="#666666" stroke-width="0.5" stroke-dasharray="4,4"/><line x1="656" y1="50" x2="656" y2="850" stroke="#666666" stroke-width="0.5" stroke-dasharray="4,4"/><line x1="728" y1="50" x2="728" y2="850" stroke="#666666" stroke-width="0.5" stroke-dasharray="4,4"/><line x1="800" y1="50" x2="800" y2="850" stroke="#666666" stroke-width="0.5" stroke-dasharray="4,4"/><line x1="872" y1="50" x2="872" y2="850" stroke="#666666" stroke-width="0.5" stroke-dasharray="4,4"/><line x1="944" y1="50" x2="944" y2="850" stroke="#666666" stroke-width="0.5" stroke-dasharray="4,4"/><line x1="1016" y1="50" x2="1016" y2="850" stroke="#666666" stroke-width="0.5" stroke-dasharray="4,4"/><line x1="1088" y1="50" x2="1088" y2="850" stroke="#666666" stroke-width="0.5" stroke-dasharray="4,4"/><line x1="1160" y1="50" x2="1160" y2="850" stroke="#666666" stroke-width="0.5" stroke-dasharray="4,4"/><line x1="1232" y1="50" x2="1232" y2="850" stroke="#666666" stroke-width="0.5" stroke-dasharray="4,4"/><line x1="1304" y1="50" x2="1304" y2="850" stroke="#666666" stroke-width="0.5" stroke-dasharray="4,4"/><line x1="1376" y1="50" x2="1376" y2="850" stroke="#666666" stroke-width="0.5" stroke-dasharray="4,4"/><line x1="1448" y1="50" x2="1448" y2="850" stroke="#666666" stroke-width="0.5" stroke-dasharray="4,4"/><line x1="1520" y1="50" x2="1520" y2="850" stroke="#666666" stroke-width="0.5" stroke-dasharray="4,4"/><line x1="1592" y1="50" x2="1592" y2="850" stroke="#666666" stroke-width="0.5" stroke-dasharray="4,4"/><line x1="1664" y1="50" x2="1664" y2="850" stroke="#666666" stroke-width="0.5" stroke-dasharray="4,4"/><line x1="1736" y1="50" x2="1736" y2="850" stroke="#666666" stroke-width="0.5" stroke-dasharray="4,4"/><line x1="1808" y1="50" x2="1808" y2="850" stroke="#666666" stroke-width="0.5" stroke-dasharray="4,4"/><line x1="1880" y1="50" x2="1880" y2="850" stroke="#666666" stroke-width="0.5" stroke-dasharray="4,4"/><text x="80" y="1040" text-anchor="middle" font-size="20" fill="black">09:30</text><text x="152" y="1040" text-anchor="middle" font-size="20" fill="black">10:00</text><text x="224" y="1040" text-anchor="middle" font-size="20" fill="black">10:30</text><text x="296" y="1040" text-anchor="middle" font-size="20" fill="black">11:00</text><text x="368" y="1040" text-anchor="middle" font-size="20" fill="black">11:30</text><text x="440" y="1040" text-anchor="middle" font-size="20" fill="black">12:00</text><text x="512" y="1040" text-anchor="middle" font-size="20" fill="black">12:30</text><text x="584" y="1040" text-anchor="middle" font-size="20" fill="black">13:00</text><text x="656" y="1040" text-anchor="middle" font-size="20" fill="black">13:30</text><text x="728" y="1040" text-anchor="middle" font-size="20" fill="black">14:00</text><text x="800" y="1040" text-anchor="middle" font-size="20" fill="black">14:30</text><text x="872" y="1040" text-anchor="middle" font-size="20" fill="black">15:00</text><text x="944" y="1040" text-anchor="middle" font-size="20" fill="black">15:30</text><text x="1016" y="1040" text-anchor="middle" font-size="20" fill="black">09:30</text><text x="1088" y="1040" text-anchor="middle" font-size="20" fill="black">10:00</text><text x="1160" y="1040" text-anchor="middle" font-size="20" fill="black">10:30</text><text x="1232" y="1040" text-anchor="middle" font-size="20" fill="black">11:00</text><text x="1304" y="1040" text-anchor="middle" font-size="20" fill="black">11:30</text><text x="1376" y="1040" text-anchor="middle" font-size="20" fill="black">12:00</text><text x="1448" y="1040" text-anchor="middle" font-size="20" fill="black">12:30</text><text x="1520" y="1040" text-anchor="middle" font-size="20" fill="black">13:00</text><text x="1592" y="1040" text-anchor="middle" font-size="20" fill="black">13:30</text><text x="1664" y="1040" text-anchor="middle" font-size="20" fill="black">14:00</text><text x="1736" y="1040" text-anchor="middle" font-size="20" fill="black">14:30</text><text x="1808" y="1040" text-anchor="middle" font-size="20" fill="black">15:00</text><text x="1880" y="1040" text-anchor="middle" font-size="20" fill="black">15:30</text><text x="1942" y="50" text-anchor="end" font-size="40" fill="#26a69a" font-weight="bold"> +0.38% (Thu)</text></svg>