<svg xmlns="http://www.w3.org/2000/svg" width="1992" height="1050"><rect width="100%" height="100%" fill="white"/><text x="42" y="854.0" text-anchor="end" font-size="20" fill="black">505</text><text x="42" y="739.7142857142858" text-anchor="end" font-size="20" fill="black">506</text><text x="42" y="625.4285714285714" text-anchor="end" font-size="20" fill="black">507</text><text x="42" y="511.14285714285717" text-anchor="end" font-size="20" fill="black">508</text><text x="42" y="396.8571428571429" text-anchor="end" font-size="20" fill="black">509</text><text x="42" y="282.57142857142856" text-anchor="end" font-size="20" fill="black">510</text><text x="42" y="168.28571428571433" text-anchor="end" font-size="20" fill="black">511</text><text x="42" y="54.0" text-anchor="end" font-size="20" fill="black">512</text><line x1="80" y1="730.6957200000007" x2="80" y2="854.4391451428575" stroke="#26a69a" stroke-width="2"/><rect x="76" y="756.8067188571409" width="8" height="90.82086171428523" fill="#26a69a"/><line x1="92" y1="673.9326811428587" x2="92" y2="815.8402788571428" stroke="#26a69a" stroke-width="2"/><rect x="88" y="678.47372457143" width="8" height="80.60351542857074" fill="#26a69a"/><line x1="104" y1="620.5754240000001" x2="104" y2="689.8263325714262" stroke="#26a69a" stroke-width="2"/><rect x="100" y="670.5268994285689" width="8" height="2" fill="#26a69a"/><line x1="116" y1="665.9858559999975" x2="116" y2="727.2899382857174" stroke="#ef5350" stroke-width="2"/><rect x="112" y="667.1211165714275" width="8" height="44.275170285715944" fill="#ef5350"/><line x1="128" y1="651.22746514286" x2="128" y2="732.9662422857123" stroke="#26a69a" stroke-width="2"/><rect x="124" y="663.7153337142861" width="8" height="49.951475428568756" fill="#26a69a"/><line x1="140" y1="561.5418639999981" x2="140" y2="668.2563771428574" stroke="#26a69a" stroke-width="2"/><rect x="136" y="563.812385142858" width="8" height="99.90294857142806" fill="#26a69a"/><line x1="152" y1="551.3245165714254" x2="152" y2="614.8991211428568" stroke="#ef5350" stroke-width="2"/><rect x="148" y="568.3534285714294" width="8" height="4.541043428571356" fill="#ef5350"/><line x1="164" y1="520.6724754285719" x2="164" y2="581.9765577142854" stroke="#26a69a" stroke-width="2"/><rect x="160" y="547.9187348571421" width="8" height="19.29943314285731" fill="#26a69a"/><line x1="176" y1="512.7256502857173" x2="176" y2="571.7592114285708" stroke="#26a69a" stroke-width="2"/><rect x="172" y="544.5129520000007" width="8" height="2.2705222857114222" fill="#26a69a"/><line x1="188" y1="541.1071702857173" x2="188" y2="601.2759908571427" stroke="#ef5350" stroke-width="2"/><rect x="184" y="546.7834742857121" width="8" height="14.758389714285954" fill="#ef5350"/><line x1="200" y1="545.6482125714306" x2="200" y2="592.1939051428581" stroke="#26a69a" stroke-width="2"/><rect x="196" y="557.0008205714267" width="8" height="2.2705222857179024" fill="#26a69a"/><line x1="212" y1="543.3776914285708" x2="212" y2="594.4644262857114" stroke="#ef5350" stroke-width="2"/><rect x="208" y="556.4331908571407" width="8" height="6.243933714287323" fill="#ef5350"/><line x1="224" y1="543.3776914285708" x2="224" y2="626.2517280000013" stroke="#ef5350" stroke-width="2"/><rect x="220" y="561.5418639999981" width="8" height="36.32834514286128" fill="#ef5350"/><line x1="236" y1="522.9429977142835" x2="236" y2="611.4933382857154" stroke="#26a69a" stroke-width="2"/><rect x="232" y="578.6843017142863" width="8" height="19.185907428573046" fill="#26a69a"/><line x1="248" y1="536.566126857146" x2="248" y2="600.1407302857128" stroke="#26a69a" stroke-width="2"/><rect x="244" y="540.5395394285733" width="8" height="32.35493257142741" fill="#26a69a"/><line x1="260" y1="454.8273508571453" x2="260" y2="541.1071702857173" stroke="#26a69a" stroke-width="2"/><rect x="256" y="455.9626114285688" width="8" height="84.00929714286059" fill="#26a69a"/><line x1="272" y1="436.6631782857114" x2="272" y2="479.80308799999744" stroke="#ef5350" stroke-width="2"/><rect x="268" y="452.5568285714274" width="8" height="14.75839085714398" fill="#ef5350"/><line x1="284" y1="413.9579622857127" x2="284" y2="479.80308799999744" stroke="#26a69a" stroke-width="2"/><rect x="280" y="430.9868742857167" width="8" height="38.59886628571462" fill="#26a69a"/><line x1="296" y1="401.4700937142867" x2="296" y2="491.1556960000001" stroke="#ef5350" stroke-width="2"/><rect x="292" y="427.5810914285687" width="8" height="32.922563428571436" fill="#ef5350"/><line x1="308" y1="451.4215679999974" x2="308" y2="507.049346285716" stroke="#ef5350" stroke-width="2"/><rect x="304" y="460.50365485714013" width="8" height="22.705214857147155" fill="#ef5350"/><line x1="320" y1="457.09787199999874" x2="320" y2="525.2135188571433" stroke="#26a69a" stroke-width="2"/><rect x="316" y="467.31521942857137" width="8" height="20.434693714287278" fill="#26a69a"/><line x1="332" y1="450.28630742857393" x2="332" y2="480.9383485714274" stroke="#26a69a" stroke-width="2"/><rect x="328" y="457.09787199999874" width="8" height="12.487868571432557" fill="#26a69a"/><line x1="344" y1="442.33948228571273" x2="344" y2="488.8851737142886" stroke="#26a69a" stroke-width="2"/><rect x="340" y="443.4747428571427" width="8" height="15.893650285715921" fill="#26a69a"/><line x1="356" y1="435.52791771428804" x2="356" y2="457.09787199999874" stroke="#26a69a" stroke-width="2"/><rect x="352" y="441.2042205714313" width="8" height="3.4057828571413893" fill="#26a69a"/><line x1="368" y1="404.8758765714281" x2="368" y2="453.6920891428573" stroke="#26a69a" stroke-width="2"/><rect x="364" y="420.769526857144" width="8" height="22.7052159999987" fill="#26a69a"/><line x1="380" y1="401.4700937142867" x2="380" y2="435.52791771428804" stroke="#26a69a" stroke-width="2"/><rect x="376" y="415.0932228571427" width="8" height="5.676304000001323" fill="#26a69a"/><line x1="392" y1="392.38800800000195" x2="392" y2="418.49900571428407" stroke="#ef5350" stroke-width="2"/><rect x="388" y="413.9579622857127" width="8" height="2" fill="#ef5350"/><line x1="404" y1="365.1417485714254" x2="404" y2="427.5810914285687" stroke="#26a69a" stroke-width="2"/><rect x="400" y="369.68279200000325" width="8" height="45.41043085713943" fill="#26a69a"/><line x1="416" y1="331.0839257142886" x2="416" y2="381.0353999999994" stroke="#26a69a" stroke-width="2"/><rect x="412" y="335.6249680000019" width="8" height="29.51678057142351" fill="#26a69a"/><line x1="428" y1="327.67814285714064" x2="428" y2="346.97757599999807" stroke="#26a69a" stroke-width="2"/><rect x="424" y="334.48970742857193" width="8" height="2.2705222857114222" fill="#26a69a"/><line x1="440" y1="336.76022971428335" x2="440" y2="418.49900571428407" stroke="#ef5350" stroke-width="2"/><rect x="436" y="336.76022971428335" width="8" height="63.68812914285763" fill="#ef5350"/><line x1="452" y1="398.0643108571452" x2="452" y2="428.71635199999866" stroke="#ef5350" stroke-width="2"/><rect x="448" y="399.19957257142676" width="8" height="13.623129142855987" fill="#ef5350"/><line x1="464" y1="365.1417485714254" x2="464" y2="421.90478742857397" stroke="#26a69a" stroke-width="2"/><rect x="460" y="382.17066057142927" width="8" height="36.3283451428548" fill="#26a69a"/><line x1="476" y1="369.68279200000325" x2="476" y2="396.92905028571533" stroke="#ef5350" stroke-width="2"/><rect x="472" y="378.7648777142879" width="8" height="7.946826285712746" fill="#ef5350"/><line x1="488" y1="360.60070514285405" x2="488" y2="407.1463977142879" stroke="#ef5350" stroke-width="2"/><rect x="484" y="388.9822251428541" width="8" height="3.4057828571478694" fill="#ef5350"/><line x1="500" y1="371.9533131428567" x2="500" y2="403.74061485714003" stroke="#26a69a" stroke-width="2"/><rect x="496" y="376.49435657142806" width="8" height="17.028911999997376" fill="#26a69a"/><line x1="512" y1="346.97757599999807" x2="512" y2="419.63426628571403" stroke="#ef5350" stroke-width="2"/><rect x="508" y="376.49435657142806" width="8" height="41.43701828571204" fill="#ef5350"/><line x1="524" y1="352.6538799999993" x2="524" y2="416.22848342857264" stroke="#26a69a" stroke-width="2"/><rect x="520" y="368.5475314285733" width="8" height="46.5456914285694" fill="#26a69a"/><line x1="536" y1="354.9244011428592" x2="536" y2="386.7117040000006" stroke="#26a69a" stroke-width="2"/><rect x="532" y="361.735966857142" width="8" height="5.676302857143355" fill="#26a69a"/><line x1="548" y1="331.0839257142886" x2="548" y2="363.43885714285796" stroke="#26a69a" stroke-width="2"/><rect x="544" y="344.7070548571446" width="8" height="18.164172571427343" fill="#26a69a"/><line x1="560" y1="345.8423154285746" x2="560" y2="366.2770091428554" stroke="#ef5350" stroke-width="2"/><rect x="556" y="345.8423154285746" width="8" height="9.08208571428463" fill="#ef5350"/><line x1="572" y1="335.6249680000019" x2="572" y2="357.19492342857063" stroke="#26a69a" stroke-width="2"/><rect x="568" y="337.8954902857133" width="8" height="17.02891085714589" fill="#26a69a"/><line x1="584" y1="333.35444685714197" x2="584" y2="365.1417485714254" stroke="#ef5350" stroke-width="2"/><rect x="580" y="335.6249680000019" width="8" height="22.7052159999987" fill="#ef5350"/><line x1="596" y1="345.8423154285746" x2="596" y2="404.8758765714281" stroke="#ef5350" stroke-width="2"/><rect x="592" y="358.3301840000006" width="8" height="43.13990971428609" fill="#ef5350"/><line x1="608" y1="379.90013942856945" x2="608" y2="434.392656" stroke="#26a69a" stroke-width="2"/><rect x="604" y="390.11748571428404" width="8" height="9.082086857142713" fill="#26a69a"/><line x1="620" y1="384.4411817142827" x2="620" y2="438.93369942857134" stroke="#ef5350" stroke-width="2"/><rect x="616" y="390.11748571428404" width="8" height="22.7052159999987" fill="#ef5350"/><line x1="632" y1="382.17066057142927" x2="632" y2="412.82270171428274" stroke="#26a69a" stroke-width="2"/><rect x="628" y="391.252746285714" width="8" height="20.434694857145246" fill="#26a69a"/><line x1="644" y1="369.68279200000325" x2="644" y2="396.92905028571533" stroke="#ef5350" stroke-width="2"/><rect x="640" y="390.11748571428404" width="8" height="3.4057828571413893" fill="#ef5350"/><line x1="656" y1="396.92905028571533" x2="656" y2="446.880524571426" stroke="#ef5350" stroke-width="2"/><rect x="652" y="396.92905028571533" width="8" height="35.19308457142472" fill="#ef5350"/><line x1="668" y1="383.30592114285923" x2="668" y2="430.9868742857167" stroke="#26a69a" stroke-width="2"/><rect x="664" y="386.7117040000006" width="8" height="40.869387428568075" fill="#26a69a"/><line x1="680" y1="390.11748571428404" x2="680" y2="450.28630742857393" stroke="#ef5350" stroke-width="2"/><rect x="676" y="390.11748571428404" width="8" height="42.00464914285601" fill="#ef5350"/><line x1="692" y1="423.0400491428554" x2="692" y2="452.5568285714274" stroke="#26a69a" stroke-width="2"/><rect x="688" y="429.8516137142867" width="8" height="2" fill="#26a69a"/><line x1="704" y1="344.7070548571446" x2="704" y2="423.0400491428554" stroke="#26a69a" stroke-width="2"/><rect x="700" y="346.97757599999807" width="8" height="76.06247314285736" fill="#26a69a"/><line x1="716" y1="340.16601142857326" x2="716" y2="392.38800800000195" stroke="#ef5350" stroke-width="2"/><rect x="712" y="346.97757599999807" width="8" height="24.975737142858634" fill="#ef5350"/><line x1="728" y1="308.37870971428333" x2="728" y2="430.9868742857167" stroke="#26a69a" stroke-width="2"/><rect x="724" y="378.7648777142879" width="8" height="2" fill="#26a69a"/><line x1="740" y1="332.219186285712" x2="740" y2="400.3348331428567" stroke="#26a69a" stroke-width="2"/><rect x="736" y="336.76022971428335" width="8" height="43.13990971428609" fill="#26a69a"/><line x1="752" y1="332.219186285712" x2="752" y2="361.735966857142" stroke="#ef5350" stroke-width="2"/><rect x="748" y="340.16601142857326" width="8" height="19.29943314285731" fill="#ef5350"/><line x1="764" y1="309.5139702857133" x2="764" y2="356.0596628571408" stroke="#26a69a" stroke-width="2"/><rect x="760" y="351.5186194285694" width="8" height="2" fill="#26a69a"/><line x1="776" y1="343.57179428571465" x2="776" y2="399.19957257142676" stroke="#ef5350" stroke-width="2"/><rect x="772" y="350.38335885714594" width="8" height="19.29943314285731" fill="#ef5350"/><line x1="788" y1="337.8954902857133" x2="788" y2="373.08857371428655" stroke="#26a69a" stroke-width="2"/><rect x="784" y="358.3301840000006" width="8" height="9.082085714284744" fill="#26a69a"/><line x1="800" y1="300.43188457142867" x2="800" y2="361.735966857142" stroke="#26a69a" stroke-width="2"/><rect x="796" y="303.837666285712" width="8" height="57.89830057143001" fill="#26a69a"/><line x1="812" y1="278.8619291428598" x2="812" y2="314.05501371428466" stroke="#ef5350" stroke-width="2"/><rect x="808" y="302.7024057142886" width="8" height="5.67630399999473" fill="#ef5350"/><line x1="824" y1="311.78449142857323" x2="824" y2="433.25739542857" stroke="#ef5350" stroke-width="2"/><rect x="820" y="311.78449142857323" width="8" height="31.787302857141412" fill="#ef5350"/><line x1="836" y1="256.15671314285464" x2="836" y2="367.41226971428534" stroke="#26a69a" stroke-width="2"/><rect x="832" y="273.1856251428586" width="8" height="71.521429714286" fill="#26a69a"/><line x1="848" y1="241.3983234285687" x2="848" y2="348.1128365714279" stroke="#ef5350" stroke-width="2"/><rect x="844" y="273.1856251428586" width="8" height="52.22199657142869" fill="#ef5350"/><line x1="860" y1="231.1809760000025" x2="860" y2="320.86657828571595" stroke="#26a69a" stroke-width="2"/><rect x="856" y="231.1809760000025" width="8" height="89.68560228571346" fill="#26a69a"/><line x1="872" y1="222.09889028571138" x2="872" y2="272.05036457142864" stroke="#ef5350" stroke-width="2"/><rect x="868" y="228.91045485714255" width="8" height="19.299433142857424" fill="#ef5350"/><line x1="884" y1="231.1809760000025" x2="884" y2="269.7798434285687" stroke="#ef5350" stroke-width="2"/><rect x="880" y="248.20988799999998" width="8" height="2" fill="#ef5350"/><line x1="896" y1="215.28732571428657" x2="896" y2="274.32088571428847" stroke="#26a69a" stroke-width="2"/><rect x="892" y="222.09889028571138" width="8" height="28.381520000000023" fill="#26a69a"/><line x1="908" y1="174.41793714285393" x2="908" y2="224.3694114285712" stroke="#26a69a" stroke-width="2"/><rect x="904" y="209.61102171428524" width="8" height="13.6231291428561" fill="#26a69a"/><line x1="920" y1="178.9589805714253" x2="920" y2="228.91045485714255" stroke="#26a69a" stroke-width="2"/><rect x="916" y="194.8526319999993" width="8" height="11.466133714286912" fill="#26a69a"/><line x1="932" y1="188.0410662857165" x2="932" y2="235.72201942857384" stroke="#ef5350" stroke-width="2"/><rect x="928" y="194.8526319999993" width="8" height="37.46360571428477" fill="#ef5350"/><line x1="944" y1="210.7462822857152" x2="944" y2="241.3983234285687" stroke="#ef5350" stroke-width="2"/><rect x="940" y="233.4514982857139" width="8" height="3.405781714283421" fill="#ef5350"/><line x1="956" y1="220.9636297142879" x2="956" y2="276.591408" stroke="#ef5350" stroke-width="2"/><rect x="952" y="236.85727999999733" width="8" height="31.787301714289924" fill="#ef5350"/><line x1="968" y1="220.9636297142879" x2="968" y2="268.64458171428726" stroke="#26a69a" stroke-width="2"/><rect x="964" y="241.3983234285687" width="8" height="23.840476571428667" fill="#26a69a"/><line x1="980" y1="184.6352845714266" x2="980" y2="241.3983234285687" stroke="#26a69a" stroke-width="2"/><rect x="976" y="214.1520651428566" width="8" height="27.246258285712088" fill="#26a69a"/><line x1="992" y1="219.82836914285792" x2="992" y2="300.43188457142867" stroke="#ef5350" stroke-width="2"/><rect x="988" y="222.09889028571138" width="8" height="65.84512571429116" fill="#ef5350"/><line x1="1004" y1="236.85727999999733" x2="1004" y2="304.97292685714194" stroke="#26a69a" stroke-width="2"/><rect x="1000" y="257.2919748571427" width="8" height="30.652041142859844" fill="#26a69a"/><line x1="1016" y1="194.8526319999993" x2="1016" y2="326.54288228571727" stroke="#26a69a" stroke-width="2"/><rect x="1012" y="247.07462742857" width="8" height="78.33299428571729" fill="#26a69a"/><line x1="1028" y1="197.12315314285922" x2="1028" y2="266.3740605714273" stroke="#26a69a" stroke-width="2"/><rect x="1024" y="226.63993371428273" width="8" height="22.705214857147098" fill="#26a69a"/><line x1="1040" y1="208.47576114285528" x2="1040" y2="322.0018388571459" stroke="#ef5350" stroke-width="2"/><rect x="1036" y="226.63993371428273" width="8" height="88.55034057143189" fill="#ef5350"/><line x1="1052" y1="243.66884457142862" x2="1052" y2="348.1128365714279" stroke="#26a69a" stroke-width="2"/><rect x="1048" y="266.3740605714273" width="8" height="49.95147428571727" fill="#26a69a"/><line x1="1064" y1="225.50467314285925" x2="1064" y2="273.1856251428586" stroke="#26a69a" stroke-width="2"/><rect x="1060" y="241.3983234285687" width="8" height="20.434693714287278" fill="#26a69a"/><line x1="1076" y1="224.3694114285712" x2="1076" y2="283.4029725714312" stroke="#ef5350" stroke-width="2"/><rect x="1072" y="241.3983234285687" width="8" height="12.4878685714325" fill="#ef5350"/><line x1="1088" y1="211.88154285714518" x2="1088" y2="319.731317714286" stroke="#ef5350" stroke-width="2"/><rect x="1084" y="255.02145257143115" width="8" height="47.68095314285745" fill="#ef5350"/><line x1="1100" y1="298.16136228571725" x2="1100" y2="361.735966857142" stroke="#ef5350" stroke-width="2"/><rect x="1096" y="307.24344914285996" width="8" height="42.00464914285601" fill="#ef5350"/><line x1="1112" y1="332.219186285712" x2="1112" y2="384.4411817142827" stroke="#ef5350" stroke-width="2"/><rect x="1108" y="348.1128365714279" width="8" height="29.51678057142999" fill="#ef5350"/><line x1="1124" y1="275.45614742857003" x2="1124" y2="391.252746285714" stroke="#26a69a" stroke-width="2"/><rect x="1120" y="276.591408" width="8" height="101.03820914285791" fill="#26a69a"/><line x1="1136" y1="274.32088571428847" x2="1136" y2="341.3012720000032" stroke="#ef5350" stroke-width="2"/><rect x="1132" y="275.5696731428543" width="8" height="58.920034285717634" fill="#ef5350"/><line x1="1148" y1="287.94401600000253" x2="1148" y2="332.219186285712" stroke="#26a69a" stroke-width="2"/><rect x="1144" y="304.97292685714194" width="8" height="27.246259428570056" fill="#26a69a"/><line x1="1160" y1="252.75093142857133" x2="1160" y2="309.5139702857133" stroke="#26a69a" stroke-width="2"/><rect x="1156" y="270.9151039999987" width="8" height="34.057822857143265" fill="#26a69a"/><line x1="1172" y1="259.5624960000025" x2="1172" y2="348.1128365714279" stroke="#ef5350" stroke-width="2"/><rect x="1168" y="270.9151039999987" width="8" height="43.13990971428598" fill="#ef5350"/><line x1="1184" y1="294.75558057142734" x2="1184" y2="348.1128365714279" stroke="#ef5350" stroke-width="2"/><rect x="1180" y="315.1902742857146" width="8" height="19.29943314285731" fill="#ef5350"/><line x1="1196" y1="279.9971897142833" x2="1196" y2="342.4365325714267" stroke="#26a69a" stroke-width="2"/><rect x="1192" y="287.94401600000253" width="8" height="45.41043085713943" fill="#26a69a"/><line x1="1208" y1="257.8596045714286" x2="1208" y2="298.16136228571725" stroke="#26a69a" stroke-width="2"/><rect x="1204" y="274.32088571428847" width="8" height="15.893651428567523" fill="#26a69a"/><line x1="1220" y1="266.3740605714273" x2="1220" y2="309.5139702857133" stroke="#ef5350" stroke-width="2"/><rect x="1216" y="271.48273371428456" width="8" height="18.731803428571425" fill="#ef5350"/><line x1="1232" y1="291.34979771428596" x2="1232" y2="364.0064880000019" stroke="#ef5350" stroke-width="2"/><rect x="1228" y="291.34979771428596" width="8" height="42.00464914285601" fill="#ef5350"/><line x1="1244" y1="290.214537142856" x2="1244" y2="332.219186285712" stroke="#26a69a" stroke-width="2"/><rect x="1240" y="294.75558057142734" width="8" height="37.463605714284654" fill="#26a69a"/><line x1="1256" y1="268.64458171428726" x2="1256" y2="312.9197531428547" stroke="#26a69a" stroke-width="2"/><rect x="1252" y="274.32088571428847" width="8" height="20.43469485713888" fill="#26a69a"/><line x1="1268" y1="272.05036457142864" x2="1268" y2="290.214537142856" stroke="#26a69a" stroke-width="2"/><rect x="1264" y="273.1856251428586" width="8" height="2" fill="#26a69a"/><line x1="1280" y1="265.23879999999735" x2="1280" y2="297.0261017142873" stroke="#26a69a" stroke-width="2"/><rect x="1276" y="270.9151039999987" width="8" height="2" fill="#26a69a"/><line x1="1292" y1="231.1809760000025" x2="1292" y2="281.13245142857136" stroke="#26a69a" stroke-width="2"/><rect x="1288" y="256.15671314285464" width="8" height="12.487868571432614" fill="#26a69a"/><line x1="1304" y1="228.91045485714255" x2="1304" y2="265.23879999999735" stroke="#ef5350" stroke-width="2"/><rect x="1300" y="253.8861920000012" width="8" height="2" fill="#ef5350"/><line x1="1316" y1="245.93936685714004" x2="1316" y2="276.591408" stroke="#26a69a" stroke-width="2"/><rect x="1312" y="256.15671314285464" width="8" height="2" fill="#26a69a"/><line x1="1328" y1="239.12780228571523" x2="1328" y2="298.16136228571725" stroke="#ef5350" stroke-width="2"/><rect x="1324" y="256.15671314285464" width="8" height="34.05782400000135" fill="#ef5350"/><line x1="1340" y1="244.80410628571656" x2="1340" y2="290.214537142856" stroke="#26a69a" stroke-width="2"/><rect x="1336" y="244.80410628571656" width="8" height="45.41043085713943" fill="#26a69a"/><line x1="1352" y1="215.28732571428657" x2="1352" y2="250.4804102857114" stroke="#26a69a" stroke-width="2"/><rect x="1348" y="218.69310742857" width="8" height="23.840476571428667" fill="#26a69a"/><line x1="1364" y1="186.90580571428654" x2="1364" y2="234.58675885714388" stroke="#ef5350" stroke-width="2"/><rect x="1360" y="217.55784685714002" width="8" height="15.89365142857389" fill="#ef5350"/><line x1="1376" y1="222.09889028571138" x2="1376" y2="266.3740605714273" stroke="#ef5350" stroke-width="2"/><rect x="1372" y="239.12780228571523" width="8" height="20.434693714287278" fill="#ef5350"/><line x1="1388" y1="244.80410628571656" x2="1388" y2="274.32088571428847" stroke="#26a69a" stroke-width="2"/><rect x="1384" y="244.80410628571656" width="8" height="11.352606857138085" fill="#26a69a"/><line x1="1400" y1="240.2630628571452" x2="1400" y2="291.34979771428596" stroke="#ef5350" stroke-width="2"/><rect x="1396" y="246.50699657142593" width="8" height="36.32834514286128" fill="#ef5350"/><line x1="1412" y1="262.9682788571439" x2="1412" y2="291.34979771428596" stroke="#26a69a" stroke-width="2"/><rect x="1408" y="281.13245142857136" width="8" height="3.4057817142833073" fill="#26a69a"/><line x1="1424" y1="256.15671314285464" x2="1424" y2="292.4850582857159" stroke="#ef5350" stroke-width="2"/><rect x="1420" y="284.53823314285466" width="8" height="7.9468251428612575" fill="#ef5350"/><line x1="1436" y1="267.5093211428573" x2="1436" y2="293.6203199999974" stroke="#26a69a" stroke-width="2"/><rect x="1432" y="270.9151039999987" width="8" height="19.29943314285731" fill="#26a69a"/><line x1="1448" y1="220.9636297142879" x2="1448" y2="284.53823314285466" stroke="#26a69a" stroke-width="2"/><rect x="1444" y="222.09889028571138" width="8" height="52.22199542857709" fill="#26a69a"/><line x1="1460" y1="207.34050057142542" x2="1460" y2="235.72201942857384" stroke="#ef5350" stroke-width="2"/><rect x="1456" y="226.63993371428273" width="8" height="9.082085714291111" fill="#ef5350"/><line x1="1472" y1="217.55784685714002" x2="1472" y2="261.83301714285597" stroke="#ef5350" stroke-width="2"/><rect x="1468" y="236.85727999999733" width="8" height="7.946826285719226" fill="#ef5350"/><line x1="1484" y1="226.63993371428273" x2="1484" y2="242.53358399999865" stroke="#26a69a" stroke-width="2"/><rect x="1480" y="232.31623771428406" width="8" height="10.217346285714598" fill="#26a69a"/><line x1="1496" y1="213.01680342856866" x2="1496" y2="232.31623771428406" stroke="#26a69a" stroke-width="2"/><rect x="1492" y="220.39599885714392" width="8" height="9.649716571428598" fill="#26a69a"/><line x1="1508" y1="211.88154285714518" x2="1508" y2="240.2630628571452" stroke="#ef5350" stroke-width="2"/><rect x="1504" y="220.9636297142879" width="8" height="14.758389714285954" fill="#ef5350"/><line x1="1520" y1="215.28732571428657" x2="1520" y2="244.80410628571656" stroke="#26a69a" stroke-width="2"/><rect x="1516" y="222.09889028571138" width="8" height="13.623129142862467" fill="#26a69a"/><line x1="1532" y1="192.58210971428787" x2="1532" y2="223.23415085714134" stroke="#26a69a" stroke-width="2"/><rect x="1528" y="198.2584137142827" width="8" height="24.975737142858634" fill="#26a69a"/><line x1="1544" y1="188.0410662857165" x2="1544" y2="208.47576114285528" stroke="#ef5350" stroke-width="2"/><rect x="1540" y="197.12315314285922" width="8" height="3.4057817142833073" fill="#ef5350"/><line x1="1556" y1="185.77054514285658" x2="1556" y2="217.55784685714002" stroke="#ef5350" stroke-width="2"/><rect x="1552" y="198.2584137142827" width="8" height="13.623129142862467" fill="#ef5350"/><line x1="1568" y1="194.8526319999993" x2="1568" y2="230.04571542857252" stroke="#26a69a" stroke-width="2"/><rect x="1564" y="205.0699782857139" width="8" height="4.541043428571356" fill="#26a69a"/><line x1="1580" y1="188.0410662857165" x2="1580" y2="206.3187657142862" stroke="#26a69a" stroke-width="2"/><rect x="1576" y="194.8526319999993" width="8" height="10.217346285714598" fill="#26a69a"/><line x1="1592" y1="151.7127222857133" x2="1592" y2="198.2584137142827" stroke="#26a69a" stroke-width="2"/><rect x="1588" y="161.9300685714279" width="8" height="32.92256342857138" fill="#26a69a"/><line x1="1604" y1="109.70807314285719" x2="1604" y2="166.47111199999927" stroke="#26a69a" stroke-width="2"/><rect x="1600" y="113.11385485714061" width="8" height="53.35725714285866" fill="#26a69a"/><line x1="1616" y1="109.70807314285719" x2="1616" y2="140.36011428571715" stroke="#ef5350" stroke-width="2"/><rect x="1612" y="114.24911542857058" width="8" height="2" fill="#ef5350"/><line x1="1628" y1="108.57281257142733" x2="1628" y2="156.2537645714266" stroke="#ef5350" stroke-width="2"/><rect x="1624" y="114.24911542857058" width="8" height="31.219672000003925" fill="#ef5350"/><line x1="1640" y1="141.49537485714063" x2="1640" y2="182.36476342857327" stroke="#ef5350" stroke-width="2"/><rect x="1636" y="144.90115657143053" width="8" height="37.463606857142736" fill="#ef5350"/><line x1="1652" y1="123.33120228571329" x2="1652" y2="195.98789257142926" stroke="#26a69a" stroke-width="2"/><rect x="1648" y="141.49537485714063" width="8" height="39.73412685714459" fill="#26a69a"/><line x1="1664" y1="133.54854971428597" x2="1664" y2="180.09424114285525" stroke="#ef5350" stroke-width="2"/><rect x="1660" y="143.76589600000057" width="8" height="20.32116799999642" fill="#ef5350"/><line x1="1676" y1="131.27802742857443" x2="1676" y2="164.2005908571458" stroke="#26a69a" stroke-width="2"/><rect x="1672" y="136.38670171428328" width="8" height="25.543366857144633" fill="#26a69a"/><line x1="1688" y1="132.41328799999792" x2="1688" y2="161.9300685714279" stroke="#ef5350" stroke-width="2"/><rect x="1684" y="140.36011428571715" width="8" height="5.676303999994843" fill="#ef5350"/><line x1="1700" y1="135.70554514285504" x2="1700" y2="160.79480799999794" stroke="#ef5350" stroke-width="2"/><rect x="1696" y="146.036418285712" width="8" height="11.352606857144565" fill="#ef5350"/><line x1="1712" y1="142.6306354285706" x2="1712" y2="161.9300685714279" stroke="#26a69a" stroke-width="2"/><rect x="1708" y="158.41076000000226" width="8" height="2" fill="#26a69a"/><line x1="1724" y1="119.9254194285719" x2="1724" y2="156.2537645714266" stroke="#26a69a" stroke-width="2"/><rect x="1720" y="122.19594171428332" width="8" height="34.057822857143265" fill="#26a69a"/><line x1="1736" y1="123.33120228571329" x2="1736" y2="150.57746057143174" stroke="#ef5350" stroke-width="2"/><rect x="1732" y="124.46646285714326" width="8" height="23.840476571428667" fill="#ef5350"/><line x1="1748" y1="118.79015885714193" x2="1748" y2="147.17167885714196" stroke="#26a69a" stroke-width="2"/><rect x="1744" y="119.9254194285719" width="8" height="27.246259428570056" fill="#26a69a"/><line x1="1760" y1="107.43755085714577" x2="1760" y2="131.27802742857443" stroke="#ef5350" stroke-width="2"/><rect x="1756" y="122.19594171428332" width="8" height="2.270521142859934" fill="#ef5350"/><line x1="1772" y1="116.51963771428848" x2="1772" y2="160.79480799999794" stroke="#ef5350" stroke-width="2"/><rect x="1768" y="124.46646285714326" width="8" height="26.110997714288487" fill="#ef5350"/><line x1="1784" y1="149.4422000000019" x2="1784" y2="183.50002400000324" stroke="#ef5350" stroke-width="2"/><rect x="1780" y="149.4422000000019" width="8" height="29.516780571423396" fill="#ef5350"/><line x1="1796" y1="164.2005908571458" x2="1796" y2="191.4468491428579" stroke="#ef5350" stroke-width="2"/><rect x="1792" y="175.5531977142839" width="8" height="13.623130285714069" fill="#ef5350"/><line x1="1808" y1="182.36476342857327" x2="1808" y2="240.2630628571452" stroke="#ef5350" stroke-width="2"/><rect x="1804" y="190.31158857142793" width="8" height="19.29943314285731" fill="#ef5350"/><line x1="1820" y1="186.90580571428654" x2="1820" y2="223.23415085714134" stroke="#26a69a" stroke-width="2"/><rect x="1816" y="197.12315314285922" width="8" height="9.08208571428463" fill="#26a69a"/><line x1="1832" y1="193.71737028571135" x2="1832" y2="240.2630628571452" stroke="#ef5350" stroke-width="2"/><rect x="1828" y="193.71737028571135" width="8" height="10.217347428572566" fill="#ef5350"/><line x1="1844" y1="193.71737028571135" x2="1844" y2="215.28732571428657" stroke="#ef5350" stroke-width="2"/><rect x="1840" y="207.34050057142542" width="8" height="2" fill="#ef5350"/><line x1="1856" y1="209.61102171428524" x2="1856" y2="248.20988799999998" stroke="#ef5350" stroke-width="2"/><rect x="1852" y="211.88154285714518" width="8" height="2" fill="#ef5350"/><line x1="1868" y1="188.0410662857165" x2="1868" y2="232.31623771428406" stroke="#ef5350" stroke-width="2"/><rect x="1864" y="214.1520651428566" width="8" height="18.164172571427457" fill="#ef5350"/><line x1="1880" y1="224.3694114285712" x2="1880" y2="259.5624960000025" stroke="#ef5350" stroke-width="2"/><rect x="1876" y="228.91045485714255" width="8" height="12.487868571426134" fill="#ef5350"/><line x1="1892" y1="201.66419657143058" x2="1892" y2="251.61567085714137" stroke="#26a69a" stroke-width="2"/><rect x="1888" y="207.34050057142542" width="8" height="31.78730171428981" fill="#26a69a"/><line x1="1904" y1="206.20523885714385" x2="1904" y2="249.34514857142983" stroke="#ef5350" stroke-width="2"/><rect x="1900" y="206.20523885714385" width="8" height="39.73412799999619" fill="#ef5350"/><line x1="1916" y1="208.47576114285528" x2="1916" y2="242.53358399999865" stroke="#26a69a" stroke-width="2"/><rect x="1912" y="237.99254171428527" width="8" height="4.541042285713388" fill="#26a69a"/><line x1="1928" y1="200.52893485714253" x2="1928" y2="262.9682788571439" stroke="#26a69a" stroke-width="2"/><rect x="1924" y="206.20523885714385" width="8" height="29.51678057142999" fill="#26a69a"/><line x1="1940" y1="192.58210971428787" x2="1940" y2="248.20988799999998" stroke="#26a69a" stroke-width="2"/><rect x="1936" y="193.71737028571135" width="8" height="15.89365142857389" fill="#26a69a"/><rect x="75" y="931.6351503802675" width="10" height="88.36484961973247" fill="#26a69a" opacity="0.9"/><rect x="87" y="971.5712992026278" width="10" height="48.428700797372244" fill="#26a69a" opacity="0.9"/><rect x="99" y="943.0926763006224" width="10" height="76.90732369937757" fill="#26a69a" opacity="0.9"/><rect x="111" y="983.7477264529597" width="10" height="36.25227354704032" fill="#ef5350" opacity="0.9"/><rect x="123" y="986.4397212650515" width="10" height="33.5602787349485" fill="#26a69a" opacity="0.9"/><rect x="135" y="978.1041495591046" width="10" height="41.8958504408954" fill="#26a69a" opacity="0.9"/><rect x="147" y="971.7031073728157" width="10" height="48.29689262718432" fill="#ef5350" opacity="0.9"/><rect x="159" y="979.1424986377904" width="10" height="40.85750136220963" fill="#26a69a" opacity="0.9"/><rect x="171" y="978.4017252097035" width="10" height="41.5982747902965" fill="#26a69a" opacity="0.9"/><rect x="183" y="974.8152767012272" width="10" height="45.18472329877284" fill="#ef5350" opacity="0.9"/><rect x="195" y="994.0195544231522" width="10" height="25.980445576847842" fill="#26a69a" opacity="0.9"/><rect x="207" y="989.0010590700138" width="10" height="30.998940929986247" fill="#ef5350" opacity="0.9"/><rect x="219" y="988.8491055463036" width="10" height="31.150894453696424" fill="#ef5350" opacity="0.9"/><rect x="231" y="988.2907914629748" width="10" height="31.709208537025233" fill="#26a69a" opacity="0.9"/><rect x="243" y="993.906740443428" width="10" height="26.09325955657198" fill="#26a69a" opacity="0.9"/><rect x="255" y="961.9803841814847" width="10" height="58.01961581851526" fill="#26a69a" opacity="0.9"/><rect x="267" y="984.7785929717658" width="10" height="35.22140702823424" fill="#ef5350" opacity="0.9"/><rect x="279" y="980.3155337943102" width="10" height="39.68446620568977" fill="#26a69a" opacity="0.9"/><rect x="291" y="970.4897815092515" width="10" height="49.51021849074846" fill="#ef5350" opacity="0.9"/><rect x="303" y="986.9934306961467" width="10" height="33.006569303853325" fill="#ef5350" opacity="0.9"/><rect x="315" y="985.1630814332748" width="10" height="34.83691856672522" fill="#26a69a" opacity="0.9"/><rect x="327" y="998.5603171070505" width="10" height="21.439682892949463" fill="#26a69a" opacity="0.9"/><rect x="339" y="1001.7530678495507" width="10" height="18.24693215044931" fill="#26a69a" opacity="0.9"/><rect x="351" y="1000.6312594491301" width="10" height="19.368740550869916" fill="#26a69a" opacity="0.9"/><rect x="363" y="999.42944521615" width="10" height="20.570554783849957" fill="#26a69a" opacity="0.9"/><rect x="375" y="1001.4526142913056" width="10" height="18.547385708694378" fill="#26a69a" opacity="0.9"/><rect x="387" y="995.8827118331888" width="10" height="24.11728816681125" fill="#ef5350" opacity="0.9"/><rect x="399" y="984.1022846749499" width="10" height="35.89771532505006" fill="#26a69a" opacity="0.9"/><rect x="411" y="992.2928098355371" width="10" height="27.707190164462872" fill="#26a69a" opacity="0.9"/><rect x="423" y="980.963638596195" width="10" height="39.03636140380502" fill="#26a69a" opacity="0.9"/><rect x="435" y="975.9894630208054" width="10" height="44.010536979194626" fill="#ef5350" opacity="0.9"/><rect x="447" y="995.8550839197869" width="10" height="24.14491608021308" fill="#ef5350" opacity="0.9"/><rect x="459" y="999.2435323822168" width="10" height="20.756467617783187" fill="#26a69a" opacity="0.9"/><rect x="471" y="1000.2139628404565" width="10" height="19.786037159543525" fill="#ef5350" opacity="0.9"/><rect x="483" y="1000.7837885543694" width="10" height="19.21621144563062" fill="#ef5350" opacity="0.9"/><rect x="495" y="1006.0313653561315" width="10" height="13.96863464386854" fill="#26a69a" opacity="0.9"/><rect x="507" y="992.665786666462" width="10" height="27.334213333537946" fill="#ef5350" opacity="0.9"/><rect x="519" y="998.9321427749169" width="10" height="21.067857225083117" fill="#26a69a" opacity="0.9"/><rect x="531" y="1004.4300975418831" width="10" height="15.569902458116871" fill="#26a69a" opacity="0.9"/><rect x="543" y="992.528222680982" width="10" height="27.471777319017974" fill="#26a69a" opacity="0.9"/><rect x="555" y="1003.0009286048671" width="10" height="16.999071395132887" fill="#ef5350" opacity="0.9"/><rect x="567" y="998.4486542903848" width="10" height="21.551345709615248" fill="#26a69a" opacity="0.9"/><rect x="579" y="1002.0575504785002" width="10" height="17.94244952149984" fill="#ef5350" opacity="0.9"/><rect x="591" y="1000.0165383759391" width="10" height="19.98346162406085" fill="#ef5350" opacity="0.9"/><rect x="603" y="970.9030490472207" width="10" height="49.09695095277925" fill="#26a69a" opacity="0.9"/><rect x="615" y="1001.9769690644114" width="10" height="18.023030935588622" fill="#ef5350" opacity="0.9"/><rect x="627" y="1003.7992601858745" width="10" height="16.20073981412554" fill="#26a69a" opacity="0.9"/><rect x="639" y="995.0907116490027" width="10" height="24.909288350997258" fill="#ef5350" opacity="0.9"/><rect x="651" y="990.7162920270447" width="10" height="29.283707972955312" fill="#ef5350" opacity="0.9"/><rect x="663" y="996.5239096567232" width="10" height="23.476090343276837" fill="#26a69a" opacity="0.9"/><rect x="675" y="988.6246287499137" width="10" height="31.375371250086346" fill="#ef5350" opacity="0.9"/><rect x="687" y="999.5226894238813" width="10" height="20.477310576118725" fill="#26a69a" opacity="0.9"/><rect x="699" y="984.1235811915305" width="10" height="35.87641880846945" fill="#26a69a" opacity="0.9"/><rect x="711" y="995.1453918942772" width="10" height="24.854608105722832" fill="#ef5350" opacity="0.9"/><rect x="723" y="973.7999508837095" width="10" height="46.20004911629053" fill="#26a69a" opacity="0.9"/><rect x="735" y="974.6011603723629" width="10" height="45.39883962763713" fill="#26a69a" opacity="0.9"/><rect x="747" y="998.1844623684797" width="10" height="21.81553763152033" fill="#ef5350" opacity="0.9"/><rect x="759" y="995.5482989647207" width="10" height="24.451701035279257" fill="#26a69a" opacity="0.9"/><rect x="771" y="997.8834332287054" width="10" height="22.11656677129463" fill="#ef5350" opacity="0.9"/><rect x="783" y="1001.0289862858108" width="10" height="18.971013714189212" fill="#26a69a" opacity="0.9"/><rect x="795" y="998.9695555743152" width="10" height="21.030444425684777" fill="#26a69a" opacity="0.9"/><rect x="807" y="997.2894330905658" width="10" height="22.710566909434192" fill="#ef5350" opacity="0.9"/><rect x="819" y="966.9913969747435" width="10" height="53.00860302525655" fill="#ef5350" opacity="0.9"/><rect x="831" y="981.6756329478217" width="10" height="38.32436705217833" fill="#26a69a" opacity="0.9"/><rect x="843" y="986.5231805867862" width="10" height="33.476819413213775" fill="#ef5350" opacity="0.9"/><rect x="855" y="990.1355302640768" width="10" height="29.864469735923194" fill="#26a69a" opacity="0.9"/><rect x="867" y="986.6578666646202" width="10" height="33.3421333353798" fill="#ef5350" opacity="0.9"/><rect x="879" y="985.1406337536357" width="10" height="34.85936624636429" fill="#ef5350" opacity="0.9"/><rect x="891" y="984.1713544584545" width="10" height="35.828645541545484" fill="#26a69a" opacity="0.9"/><rect x="903" y="961.9988027904193" width="10" height="58.00119720958071" fill="#26a69a" opacity="0.9"/><rect x="915" y="976.0268758202037" width="10" height="43.97312417979629" fill="#26a69a" opacity="0.9"/><rect x="927" y="981.3832375309855" width="10" height="38.616762469014475" fill="#ef5350" opacity="0.9"/><rect x="939" y="979.6743359707758" width="10" height="40.325664029224185" fill="#ef5350" opacity="0.9"/><rect x="951" y="964.5820126934914" width="10" height="55.41798730650862" fill="#ef5350" opacity="0.9"/><rect x="963" y="977.8842774149482" width="10" height="42.1157225850518" fill="#26a69a" opacity="0.9"/><rect x="975" y="972.4887761601805" width="10" height="47.511223839819536" fill="#26a69a" opacity="0.9"/><rect x="987" y="894.9573685947369" width="10" height="125.04263140526314" fill="#ef5350" opacity="0.9"/><rect x="999" y="860.0" width="10" height="160.0" fill="#26a69a" opacity="0.9"/><rect x="1011" y="930.3705977606041" width="10" height="89.62940223939586" fill="#26a69a" opacity="0.9"/><rect x="1023" y="989.010268374481" width="10" height="30.98973162551897" fill="#26a69a" opacity="0.9"/><rect x="1035" y="988.1785530647797" width="10" height="31.82144693522025" fill="#ef5350" opacity="0.9"/><rect x="1047" y="981.3630921774633" width="10" height="38.63690782253673" fill="#26a69a" opacity="0.9"/><rect x="1059" y="996.4122468400574" width="10" height="23.587753159942622" fill="#26a69a" opacity="0.9"/><rect x="1071" y="996.0300607046653" width="10" height="23.96993929533471" fill="#ef5350" opacity="0.9"/><rect x="1083" y="977.1176028180472" width="10" height="42.8823971819528" fill="#ef5350" opacity="0.9"/><rect x="1095" y="983.8691741556219" width="10" height="36.13082584437814" fill="#ef5350" opacity="0.9"/><rect x="1107" y="979.4596440603823" width="10" height="40.54035593961771" fill="#ef5350" opacity="0.9"/><rect x="1119" y="986.6895236487264" width="10" height="33.310476351273564" fill="#26a69a" opacity="0.9"/><rect x="1131" y="997.6117587469206" width="10" height="22.3882412530794" fill="#ef5350" opacity="0.9"/><rect x="1143" y="997.9933693007836" width="10" height="22.00663069921643" fill="#26a69a" opacity="0.9"/><rect x="1155" y="989.9841523218959" width="10" height="30.015847678104137" fill="#26a69a" opacity="0.9"/><rect x="1167" y="991.2314374956832" width="10" height="28.768562504316833" fill="#ef5350" opacity="0.9"/><rect x="1179" y="1003.4642717358771" width="10" height="16.535728264122895" fill="#ef5350" opacity="0.9"/><rect x="1191" y="1000.0787011810933" width="10" height="19.921298818906735" fill="#26a69a" opacity="0.9"/><rect x="1203" y="995.7555083152345" width="10" height="24.244491684765535" fill="#26a69a" opacity="0.9"/><rect x="1215" y="998.2379914506956" width="10" height="21.76200854930437" fill="#ef5350" opacity="0.9"/><rect x="1227" y="988.5354136128869" width="10" height="31.46458638711306" fill="#ef5350" opacity="0.9"/><rect x="1239" y="986.3234537961521" width="10" height="33.67654620384792" fill="#26a69a" opacity="0.9"/><rect x="1251" y="983.5779299018442" width="10" height="36.422070098155814" fill="#26a69a" opacity="0.9"/><rect x="1263" y="999.7120557469897" width="10" height="20.287944253010323" fill="#26a69a" opacity="0.9"/><rect x="1275" y="1001.6074457226619" width="10" height="18.39255427733815" fill="#26a69a" opacity="0.9"/><rect x="1287" y="994.4086475368948" width="10" height="25.59135246310518" fill="#26a69a" opacity="0.9"/><rect x="1299" y="1000.462614061073" width="10" height="19.537385938926946" fill="#ef5350" opacity="0.9"/><rect x="1311" y="998.1476251506105" width="10" height="21.852374849389548" fill="#26a69a" opacity="0.9"/><rect x="1323" y="999.698817371818" width="10" height="20.301182628182005" fill="#ef5350" opacity="0.9"/><rect x="1335" y="1001.860701595512" width="10" height="18.139298404488045" fill="#26a69a" opacity="0.9"/><rect x="1347" y="990.209204699815" width="10" height="29.790795300184982" fill="#26a69a" opacity="0.9"/><rect x="1359" y="994.7965894875789" width="10" height="25.2034105124211" fill="#ef5350" opacity="0.9"/><rect x="1371" y="1001.25403866373" width="10" height="18.745961336270057" fill="#ef5350" opacity="0.9"/><rect x="1383" y="997.9904913931375" width="10" height="22.009508606862482" fill="#26a69a" opacity="0.9"/><rect x="1395" y="993.5682985042555" width="10" height="26.431701495744505" fill="#ef5350" opacity="0.9"/><rect x="1407" y="989.9306232396798" width="10" height="30.06937676032021" fill="#26a69a" opacity="0.9"/><rect x="1419" y="995.9040083497694" width="10" height="24.095991650230644" fill="#ef5350" opacity="0.9"/><rect x="1431" y="994.7056476059646" width="10" height="25.2943523940354" fill="#26a69a" opacity="0.9"/><rect x="1443" y="995.4890140672126" width="10" height="24.510985932787435" fill="#26a69a" opacity="0.9"/><rect x="1455" y="996.1630200379117" width="10" height="23.83697996208832" fill="#ef5350" opacity="0.9"/><rect x="1467" y="1004.6315510771049" width="10" height="15.36844892289514" fill="#ef5350" opacity="0.9"/><rect x="1479" y="1000.6997536511055" width="10" height="19.30024634889446" fill="#26a69a" opacity="0.9"/><rect x="1491" y="999.5059975595343" width="10" height="20.494002440465692" fill="#26a69a" opacity="0.9"/><rect x="1503" y="1001.0192013998143" width="10" height="18.98079860018572" fill="#ef5350" opacity="0.9"/><rect x="1515" y="1003.5074403505675" width="10" height="16.49255964943245" fill="#26a69a" opacity="0.9"/><rect x="1527" y="997.6152122360959" width="10" height="22.384787763904114" fill="#26a69a" opacity="0.9"/><rect x="1539" y="1002.6757250408663" width="10" height="17.32427495913373" fill="#ef5350" opacity="0.9"/><rect x="1551" y="1001.4192305626118" width="10" height="18.5807694373882" fill="#ef5350" opacity="0.9"/><rect x="1563" y="1001.821562051526" width="10" height="18.17843794847397" fill="#26a69a" opacity="0.9"/><rect x="1575" y="1003.7440043590708" width="10" height="16.2559956409292" fill="#26a69a" opacity="0.9"/><rect x="1587" y="984.1460288711695" width="10" height="35.853971128830494" fill="#26a69a" opacity="0.9"/><rect x="1599" y="984.9892558114549" width="10" height="35.01074418854512" fill="#26a69a" opacity="0.9"/><rect x="1611" y="986.64347712639" width="10" height="33.35652287360995" fill="#ef5350" opacity="0.9"/><rect x="1623" y="995.4659908060444" width="10" height="24.534009193955626" fill="#ef5350" opacity="0.9"/><rect x="1635" y="999.4651312709608" width="10" height="20.534868729039204" fill="#ef5350" opacity="0.9"/><rect x="1647" y="973.5455438478009" width="10" height="46.4544561521991" fill="#26a69a" opacity="0.9"/><rect x="1659" y="997.5530494309418" width="10" height="22.44695056905823" fill="#ef5350" opacity="0.9"/><rect x="1671" y="979.2449521499889" width="10" height="40.755047850011124" fill="#26a69a" opacity="0.9"/><rect x="1683" y="1001.054887454625" width="10" height="18.94511254537497" fill="#ef5350" opacity="0.9"/><rect x="1695" y="1002.5761494363138" width="10" height="17.423850563686187" fill="#ef5350" opacity="0.9"/><rect x="1707" y="1006.111371188691" width="10" height="13.88862881130899" fill="#26a69a" opacity="0.9"/><rect x="1719" y="1003.7388241253079" width="10" height="16.26117587469207" fill="#26a69a" opacity="0.9"/><rect x="1731" y="997.2491423835215" width="10" height="22.75085761647847" fill="#ef5350" opacity="0.9"/><rect x="1743" y="996.382892182068" width="10" height="23.617107817932038" fill="#26a69a" opacity="0.9"/><rect x="1755" y="995.6588106183281" width="10" height="24.34118938167194" fill="#ef5350" opacity="0.9"/><rect x="1767" y="998.7646485499183" width="10" height="21.23535145008168" fill="#ef5350" opacity="0.9"/><rect x="1779" y="999.0046660475967" width="10" height="20.995333952403257" fill="#ef5350" opacity="0.9"/><rect x="1791" y="989.0770358318688" width="10" height="30.922964168131216" fill="#ef5350" opacity="0.9"/><rect x="1803" y="972.8997413720328" width="10" height="47.10025862796715" fill="#ef5350" opacity="0.9"/><rect x="1815" y="1001.0715793189719" width="10" height="18.928420681028115" fill="#26a69a" opacity="0.9"/><rect x="1827" y="986.7850701825745" width="10" height="33.214929817425514" fill="#ef5350" opacity="0.9"/><rect x="1839" y="998.752561337805" width="10" height="21.24743866219501" fill="#ef5350" opacity="0.9"/><rect x="1851" y="985.7133373751948" width="10" height="34.28666262480522" fill="#ef5350" opacity="0.9"/><rect x="1863" y="999.7402592419207" width="10" height="20.25974075807926" fill="#ef5350" opacity="0.9"/><rect x="1875" y="982.9125576540832" width="10" height="37.08744234591677" fill="#ef5350" opacity="0.9"/><rect x="1887" y="989.1351695663185" width="10" height="30.864830433681504" fill="#26a69a" opacity="0.9"/><rect x="1899" y="983.4449705685978" width="10" height="36.555029431402204" fill="#ef5350" opacity="0.9"/><rect x="1911" y="989.6301696814348" width="10" height="30.369830318565164" fill="#26a69a" opacity="0.9"/><rect x="1923" y="971.2017758608781" width="10" height="48.798224139121885" fill="#26a69a" opacity="0.9"/><rect x="1935" y="894.2879672762715" width="10" height="125.7120327237285" fill="#26a69a" opacity="0.9"/><rect x="1004" y="257.2919748571427" width="12" height="68.11564685714461" fill="#ff2400" opacity="0.60"/><polyline points="320,560.5076955047675,332,550.6591408852663,344,540.4511029778275,356,530.9990189391231,368,520.500972074173,380,510.46213881541007,392,501.3793849146233,404,488.8368522560865,416,474.24524423169845,428,460.93519310759024,440,455.1745422265997,452,451.14103360637534,464,444.5724266506659,476,439.0618816363193,488,434.61675081380884,500,429.081284695485,512,428.0193885204036,524,422.3554021307076,536,416.5821225808421,548,409.73687803572307,560,404.5166421411652,572,398.1717705358798,584,394.3773337229426,596,395.05283467449647,608,394.5828014401935,620,396.31993479962534,632,395.8373454173462,644,395.61695714631117,656,399.0936407378156,668,397.9144086675466,680,401.17228735226877,692,403.90365176769717,704,398.48212074219714,716,395.95556763749425,728,394.31835907337575,740,388.8366324677463,752,386.0393764776161,764,382.75168533008843,776,381.5070288224563,788,379.2997102679367,800,372.1128489362919,812,366.0429309151498,824,363.90282266473025,836,355.2630895674091,848,352.4197116766378,860,340.8731654217198,872,332.04809138155724,884,324.17162063774026,896,314.4504082232613,908,304.4657047462222,920,294.0263644846774,932,288.14920955416187,944,283.26426388234074,956,281.87191319966587,968,278.017285602417,980,271.9348836538886,992,273.45956292494645,1004,271.9197926327719,1016,269.5535864228467,1028,265.4665718791746,1040,270.2021625845646,1052,269.8375814404569,1064,267.1290806774193,1076,265.8678531843309,1088,269.37590580623043,1100,276.98278128046434,1112,286.5681942197431,1124,285.61802410357427,1136,290.2724701345245,1148,291.6725136319201,1160,289.69561747649743,1172,292.0155599753343,1184,296.06071687563986,1196,295.28769774462614,1208,293.29085850364595,1220,292.99787551690315,1232,296.8413585016866,1244,296.642712984515,1256,294.51682467306455,1268,292.48528186066585,1280,290.4309792072711,1292,287.1667633916071,1304,284.10530521825547,1316,281.44353454440534,1328,282.27886812521444,1340,278.7098431881142,1352,272.99396359196305,1364,269.22801451517967,1376,268.30748894230317,1388,266.0690715464365,1400,267.66585918146905,1412,268.9483917764327,1424,271.1899790630339,1436,271.1638004856013,1448,266.490951895139,1460,263.56057737451533,1472,261.77424679463,1484,258.9687221203088,1496,255.29512942857764,1508,253.4310237142888,1520,250.44701100680743,1532,245.4766684075172,1544,241.19593187890916,1556,238.40408530541026,1568,235.22940844639254,1580,231.38400116578327,1592,224.7693409187052,1604,214.13548510331566,1616,204.73061767851118,1628,199.08663384518536,1640,197.49407475788496,1652,192.16086524352897,1664,189.48716988700528,1676,184.42998244198475,1688,180.77345252234284,1700,178.54636420048723,1712,176.62868760996514,1724,171.44461657228146,1736,169.24102827288152,1748,164.54430362104438,1760,160.72736640543815,1772,159.7607087069589,1784,161.58911555119505,1796,164.21646911774462,1808,168.5397598412237,1820,171.26198777471348,1832,174.3736763403831,1844,177.621493940621,1856,180.99247579661358,1868,185.88045312210068,1880,191.16786934176037,1892,192.70811993505959,1904,197.77776249906572,1916,201.60774147194775,1928,202.04559836577448,1940,201.25243378671644" fill="none" stroke="#0090ff" stroke-width="2"/><line x1="80" y1="50" x2="80" y2="900" stroke="#666666" stroke-width="0.5" stroke-dasharray="4,4" opacity="0.90"/><line x1="152" y1="50" x2="152" y2="900" stroke="#666666" stroke-width="0.5" stroke-dasharray="4,4" opacity="0.90"/><line x1="224" y1="50" x2="224" y2="900" stroke="#666666" stroke-width="0.5" stroke-dasharray="4,4" opacity="0.90"/><line x1="296" y1="50" x2="296" y2="900" stroke="#666666" stroke-width="0.5" stroke-dasharray="4,4" opacity="0.90"/><line x1="368" y1="50" x2="368" y2="900" stroke="#666666" stroke-width="0.5" stroke-dasharray="4,4" opacity="0.90"/><line x1="440" y1="50" x2="440" y2="900" stroke="#666666" stroke-width="0.5" stroke-dasharray="4,4" opacity="0.90"/><line x1="512" y1="50" x2="512" y2="900" stroke="#666666" stroke-width="0.5" stroke-dasharray="4,4" opacity="0.90"/><line x1="584" y1="50" x2="584" y2="900" stroke="#666666" stroke-width="0.5" stroke-dasharray="4,4" opacity="0.90"/><line x1="656" y1="50" x2="656" y2="900" stroke="#666666" stroke-width="0.5" stroke-dasharray="4,4" opacity="0.90"/><line x1="728" y1="50" x2="728" y2="900" stroke="#666666" stroke-width="0.5" stroke-dasharray="4,4" opacity="0.90"/><line x1="800" y1="50" x2="800" y2="900" stroke="#666666" stroke-width="0.5" stroke-dasharray="4,4" opacity="0.90"/><line x1="872" y1="50" x2="872" y2="900" stroke="#666666" stroke-width="0.5" stroke-dasharray="4,4" opacity="0.90"/><line x1="944" y1="50" x2="944" y2="900" stroke="#666666" stroke-width="0.5" stroke-dasharray="4,4" opacity="0.90"/><line x1="1010" y1="30" x2="1010" y2="950" stroke="black" stroke-width="0.7"/><line x1="1016" y1="50" x2="1016" y2="900" stroke="#666666" stroke-width="0.5" stroke-dasharray="4,4" opacity="0.90"/><line x1="1088" y1="50" x2="1088" y2="900" stroke="#666666" stroke-width="0.5" stroke-dasharray="4,4" opacity="0.90"/><line x1="1160" y1="50" x2="1160" y2="900" stroke="#666666" stroke-width="0.5" stroke-dasharray="4,4" opacity="0.90"/><line x1="1232" y1="50" x2="1232" y2="900" stroke="#666666" stroke-width="0.5" stroke-dasharray="4,4" opacity="0.90"/><line x1="1304" y1="50" x2="1304" y2="900" stroke="#666666" stroke-width="0.5" stroke-dasharray="4,4" opacity="0.90"/><line x1="1376" y1="50" x2="1376" y2="900" stroke="#666666" stroke-width="0.5" stroke-dasharray="4,4" opacity="0.90"/><line x1="1448" y1="50" x2="1448" y2="900" stroke="#666666" stroke-width="0.5" stroke-dasharray="4,4" opacity="0.90"/><line x1="1520" y1="50" x2="1520" y2="900" stroke="#666666" stroke-width="0.5" stroke-dasharray="4,4" opacity="0.90"/><line x1="1592" y1="50" x2="1592" y2="900" stroke="#666666" stroke-width="0.5" stroke-dasharray="4,4" opacity="0.90"/><line x1="1664" y1="50" x2="1664" y2="900" stroke="#666666" stroke-width="0.5" stroke-dasharray="4,4" opacity="0.90"/><line x1="1736" y1="50" x2="1736" y2="900" stroke="#666666" stroke-width="0.5" stroke-dasharray="4,4" opacity="0.90"/><line x1="1808" y1="50" x2="1808" y2="900" stroke="#666666" stroke-width="0.5" stroke-dasharray="4,4" opacity="0.90"/><line x1="1880" y1="50" x2="1880" y2="900" stroke="#666666" stroke-width="0.5" stroke-dasharray="4,4" opacity="0.90"/><line x1="1946" y1="30" x2="1946" y2="950" stroke="black" stroke-width="0.7"/><text x="80" y="1040" text-anchor="middle" font-size="20" fill="black">09:30</text><text x="152" y="1040" text-anchor="middle" font-size="20" fill="black">10:00</text><text x="224" y="1040" text-anchor="middle" font-size="20" fill="black">10:30</text><text x="296" y="1040" text-anchor="middle" font-size="20" fill="black">11:00</text><text x="368" y="1040" text-anchor="middle" font-size="20" fill="black">11:30</text><text x="440" y="1040" text-anchor="middle" font-size="20" fill="black">12:00</text><text x="512" y="1040" text-anchor="middle" font-size="20" fill="black">12:30</text><text x="584" y="1040" text-anchor="middle" font-size="20" fill="black">13:00</text><text x="656" y="1040" text-anchor="middle" font-size="20" fill="black">13:30</text><text x="728" y="1040" text-anchor="middle" font-size="20" fill="black">14:00</text><text x="800" y="1040" text-anchor="middle" font-size="20" fill="black">14:30</text><text x="872" y="1040" text-anchor="middle" font-size="20" fill="black">15:00</text><text x="944" y="1040" text-anchor="middle" font-size="20" fill="black">15:30</text><text x="1016" y="1040" text-anchor="middle" font-size="20" fill="black">09:30</text><text x="1088" y="1040" text-anchor="middle" font-size="20" fill="black">10:00</text><text x="1160" y="1040" text-anchor="middle" font-size="20" fill="black">10:30</text><text x="1232" y="1040" text-anchor="middle" font-size="20" fill="black">11:00</text><text x="1304" y="1040" text-anchor="middle" font-size="20" fill="black">11:30</text><text x="1376" y="1040" text-anchor="middle" font-size="20" fill="black">12:00</text><text x="1448" y="1040" text-anchor="middle" font-size="20" fill="black">12:30</text><text x="1520" y="1040" text-anchor="middle" font-size="20" fill="black">13:00</text><text x="1592" y="1040" text-anchor="middle" font-size="20" fill="black">13:30</text><text x="1664" y="1040" text-anchor="middle" font-size="20" fill="black">14:00</text><text x="1736" y="1040" text-anchor="middle" font-size="20" fill="black">14:30</text><text x="1808" y="1040" text-anchor="middle" font-size="20" fill="black">15:00</text><text x="1880" y="1040" text-anchor="middle" font-size="20" fill="black">15:30</text><text x="1942" y="50" text-anchor="end" font-size="40" fill="#26a69a" font-weight="bold"> +0.23% (Fri)</text></svg>