<svg xmlns="http://www.w3.org/2000/svg" width="1992" height="1050"><rect width="100%" height="100%" fill="white"/><text x="42" y="854.0" text-anchor="end" font-size="20" fill="black">448</text><text x="42" y="754.0" text-anchor="end" font-size="20" fill="black">449</text><text x="42" y="654.0" text-anchor="end" font-size="20" fill="black">450</text><text x="42" y="554.0" text-anchor="end" font-size="20" fill="black">451</text><text x="42" y="454.0" text-anchor="end" font-size="20" fill="black">452</text><text x="42" y="354.0" text-anchor="end" font-size="20" fill="black">453</text><text x="42" y="254.0" text-anchor="end" font-size="20" fill="black">454</text><text x="42" y="154.0" text-anchor="end" font-size="20" fill="black">455</text><text x="42" y="54.0" text-anchor="end" font-size="20" fill="black">456</text><line x1="80" y1="436.8795949999992" x2="80" y2="488.3796889999985" stroke="#26a69a" stroke-width="2"/><rect x="76" y="453.7161640000022" width="8" height="28.721206000000166" fill="#26a69a"/><line x1="92" y1="442.821914000001" x2="92" y2="494.32200699999953" stroke="#ef5350" stroke-width="2"/><rect x="88" y="458.6680960000024" width="8" height="17.826955999998972" fill="#ef5350"/><line x1="104" y1="467.58157400000186" x2="104" y2="526.0143719999974" stroke="#26a69a" stroke-width="2"/><rect x="100" y="467.58157400000186" width="8" height="6.932704999996986" fill="#26a69a"/><line x1="116" y1="449.754618999998" x2="116" y2="478.4758239999974" stroke="#26a69a" stroke-width="2"/><rect x="112" y="450.74500499999886" width="8" height="16.83656900000301" fill="#26a69a"/><line x1="128" y1="428.95650400000136" x2="128" y2="466.5911870000002" stroke="#ef5350" stroke-width="2"/><rect x="124" y="449.754618999998" width="8" height="10.894250000001193" fill="#ef5350"/><line x1="140" y1="439.94979299999954" x2="140" y2="467.58157400000186" stroke="#26a69a" stroke-width="2"/><rect x="136" y="440.8411409999985" width="8" height="15.846182000001363" fill="#26a69a"/><line x1="152" y1="425.985344999998" x2="152" y2="464.6104149999985" stroke="#ef5350" stroke-width="2"/><rect x="148" y="439.85075400000255" width="8" height="18.817341999999826" fill="#ef5350"/><line x1="164" y1="436.8795949999992" x2="164" y2="491.8460410000023" stroke="#ef5350" stroke-width="2"/><rect x="160" y="460.15367599999877" width="8" height="12.379830000003267" fill="#ef5350"/><line x1="176" y1="439.94979299999954" x2="176" y2="486.3989160000017" stroke="#26a69a" stroke-width="2"/><rect x="172" y="439.94979299999954" width="8" height="31.593327000001636" fill="#26a69a"/><line x1="188" y1="429.9468900000022" x2="188" y2="460.6488689999992" stroke="#ef5350" stroke-width="2"/><rect x="184" y="443.81230000000187" width="8" height="7.923090999997839" fill="#ef5350"/><line x1="200" y1="444.3074930000023" x2="200" y2="485.40852900000004" stroke="#ef5350" stroke-width="2"/><rect x="196" y="451.7353909999997" width="8" height="10.894251000001987" fill="#ef5350"/><line x1="212" y1="449.754618999998" x2="212" y2="494.32200699999953" stroke="#26a69a" stroke-width="2"/><rect x="208" y="459.65848299999834" width="8" height="2.971159000003354" fill="#26a69a"/><line x1="224" y1="461.63925500000005" x2="224" y2="480.4565969999999" stroke="#ef5350" stroke-width="2"/><rect x="220" y="461.63925500000005" width="8" height="4.95193200000017" fill="#ef5350"/><line x1="236" y1="461.63925500000005" x2="236" y2="476.49505200000135" stroke="#26a69a" stroke-width="2"/><rect x="232" y="464.6104149999985" width="8" height="2.971159000003354" fill="#26a69a"/><line x1="248" y1="447.7738460000012" x2="248" y2="495.3123930000004" stroke="#ef5350" stroke-width="2"/><rect x="244" y="466.5911870000002" width="8" height="16.836568999997326" fill="#ef5350"/><line x1="260" y1="465.60080099999936" x2="260" y2="486.3989160000017" stroke="#26a69a" stroke-width="2"/><rect x="256" y="478.4758239999974" width="8" height="7.427898000003097" fill="#26a69a"/><line x1="272" y1="468.5719600000027" x2="272" y2="485.90372200000047" stroke="#26a69a" stroke-width="2"/><rect x="268" y="471.5431200000012" width="8" height="5.942318000001023" fill="#26a69a"/><line x1="284" y1="444.8026860000027" x2="284" y2="474.51427899999885" stroke="#26a69a" stroke-width="2"/><rect x="280" y="450.74500499999886" width="8" height="19.80772800000068" fill="#26a69a"/><line x1="296" y1="429.9468900000022" x2="296" y2="463.62002800000255" stroke="#26a69a" stroke-width="2"/><rect x="292" y="429.9468900000022" width="8" height="19.80772899999579" fill="#26a69a"/><line x1="308" y1="408.15838899999903" x2="308" y2="429.9468900000022" stroke="#26a69a" stroke-width="2"/><rect x="304" y="427.9661169999997" width="8" height="2" fill="#26a69a"/><line x1="320" y1="409.1487760000007" x2="320" y2="430.9372769999982" stroke="#26a69a" stroke-width="2"/><rect x="316" y="418.0622529999994" width="8" height="8.913477999999486" fill="#26a69a"/><line x1="332" y1="414.10070800000085" x2="332" y2="432.819010999998" stroke="#ef5350" stroke-width="2"/><rect x="328" y="417.0718669999985" width="8" height="2" fill="#ef5350"/><line x1="344" y1="408.15838899999903" x2="344" y2="424.0045720000012" stroke="#ef5350" stroke-width="2"/><rect x="340" y="415.0910940000017" width="8" height="5.942318999996132" fill="#ef5350"/><line x1="356" y1="413.1103209999992" x2="356" y2="428.95650400000136" stroke="#26a69a" stroke-width="2"/><rect x="352" y="417.0718669999985" width="8" height="2" fill="#26a69a"/><line x1="368" y1="410.13916200000153" x2="368" y2="426.97573099999886" stroke="#ef5350" stroke-width="2"/><rect x="364" y="415.0910940000017" width="8" height="3.9615459999993163" fill="#ef5350"/><line x1="380" y1="416.08148099999767" x2="380" y2="429.9468900000022" stroke="#26a69a" stroke-width="2"/><rect x="376" y="416.08148099999767" width="8" height="2" fill="#26a69a"/><line x1="392" y1="413.6055150000004" x2="392" y2="431.92766299999903" stroke="#ef5350" stroke-width="2"/><rect x="388" y="418.0622529999994" width="8" height="7.923091999998633" fill="#ef5350"/><line x1="404" y1="424.0045720000012" x2="404" y2="439.85075400000255" stroke="#ef5350" stroke-width="2"/><rect x="400" y="425.985344999998" width="8" height="9.90386400000034" fill="#ef5350"/><line x1="416" y1="437.86998200000085" x2="416" y2="499.2739389999997" stroke="#ef5350" stroke-width="2"/><rect x="412" y="438.8603680000017" width="8" height="28.721206000000166" fill="#ef5350"/><line x1="428" y1="451.7353909999997" x2="428" y2="468.5719600000027" stroke="#26a69a" stroke-width="2"/><rect x="424" y="451.7353909999997" width="8" height="13.865409999999656" fill="#26a69a"/><line x1="440" y1="449.754618999998" x2="440" y2="465.60080099999936" stroke="#ef5350" stroke-width="2"/><rect x="436" y="453.7161640000022" width="8" height="2.9711589999976695" fill="#ef5350"/><line x1="452" y1="428.95650400000136" x2="452" y2="456.6873229999999" stroke="#26a69a" stroke-width="2"/><rect x="448" y="433.90843600000153" width="8" height="21.788500999997495" fill="#26a69a"/><line x1="464" y1="422.0237989999987" x2="464" y2="441.83152699999937" stroke="#26a69a" stroke-width="2"/><rect x="460" y="428.95650400000136" width="8" height="3.9615459999993163" fill="#26a69a"/><line x1="476" y1="424.99495800000204" x2="476" y2="435.88920899999835" stroke="#ef5350" stroke-width="2"/><rect x="472" y="428.95650400000136" width="8" height="3.9615459999993163" fill="#ef5350"/><line x1="488" y1="423.50937900000076" x2="488" y2="445.7930729999987" stroke="#ef5350" stroke-width="2"/><rect x="484" y="437.86998200000085" width="8" height="7.923090999997839" fill="#ef5350"/><line x1="500" y1="440.8411409999985" x2="500" y2="453.7161640000022" stroke="#ef5350" stroke-width="2"/><rect x="496" y="446.78345899999954" width="8" height="4.456738999999743" fill="#ef5350"/><line x1="512" y1="447.7738460000012" x2="512" y2="470.55273299999953" stroke="#ef5350" stroke-width="2"/><rect x="508" y="449.754618999998" width="8" height="17.826955000003863" fill="#ef5350"/><line x1="524" y1="458.6680960000024" x2="524" y2="483.42775599999754" stroke="#26a69a" stroke-width="2"/><rect x="520" y="458.6680960000024" width="8" height="7.923090999997839" fill="#26a69a"/><line x1="536" y1="450.74500499999886" x2="536" y2="464.6104149999985" stroke="#26a69a" stroke-width="2"/><rect x="532" y="451.7353909999997" width="8" height="6.93270500000267" fill="#26a69a"/><line x1="548" y1="454.70655099999817" x2="548" y2="509.17780300000004" stroke="#ef5350" stroke-width="2"/><rect x="544" y="454.70655099999817" width="8" height="48.528934000000845" fill="#ef5350"/><line x1="560" y1="488.3796889999985" x2="560" y2="521.0624399999972" stroke="#26a69a" stroke-width="2"/><rect x="556" y="491.35084800000186" width="8" height="13.865408999998863" fill="#26a69a"/><line x1="572" y1="482.4373700000024" x2="572" y2="495.3123930000004" stroke="#26a69a" stroke-width="2"/><rect x="568" y="490.3604610000002" width="8" height="2.971159999998463" fill="#26a69a"/><line x1="584" y1="473.02869900000246" x2="584" y2="495.3123930000004" stroke="#26a69a" stroke-width="2"/><rect x="580" y="484.4181429999992" width="8" height="6.93270500000267" fill="#26a69a"/><line x1="596" y1="466.5911870000002" x2="596" y2="484.4181429999992" stroke="#26a69a" stroke-width="2"/><rect x="592" y="470.0575399999991" width="8" height="13.865409999999656" fill="#26a69a"/><line x1="608" y1="460.6488689999992" x2="608" y2="475.5046649999997" stroke="#26a69a" stroke-width="2"/><rect x="604" y="463.62002800000255" width="8" height="6.932704999996986" fill="#26a69a"/><line x1="620" y1="445.7930729999987" x2="620" y2="461.63925500000005" stroke="#26a69a" stroke-width="2"/><rect x="616" y="457.6777100000015" width="8" height="2.9711589999976695" fill="#26a69a"/><line x1="632" y1="438.8603680000017" x2="632" y2="460.6488689999992" stroke="#26a69a" stroke-width="2"/><rect x="628" y="443.81230000000187" width="8" height="13.865409999999656" fill="#26a69a"/><line x1="644" y1="438.8603680000017" x2="644" y2="462.6296420000017" stroke="#ef5350" stroke-width="2"/><rect x="640" y="440.8411409999985" width="8" height="15.846182000001363" fill="#ef5350"/><line x1="656" y1="458.6680960000024" x2="656" y2="487.38930200000254" stroke="#ef5350" stroke-width="2"/><rect x="652" y="458.6680960000024" width="8" height="16.737530999995442" fill="#ef5350"/><line x1="668" y1="475.5046649999997" x2="668" y2="577.5144650000016" stroke="#ef5350" stroke-width="2"/><rect x="664" y="475.5046649999997" width="8" height="74.27898099999766" fill="#ef5350"/><line x1="680" y1="542.8509410000004" x2="680" y2="614.1587630000004" stroke="#ef5350" stroke-width="2"/><rect x="676" y="549.2884530000026" width="8" height="51.00489999999809" fill="#ef5350"/><line x1="692" y1="561.6682830000002" x2="692" y2="625.0530130000016" stroke="#26a69a" stroke-width="2"/><rect x="688" y="593.360647999998" width="8" height="7.923091000003524" fill="#26a69a"/><line x1="704" y1="575.5336929999999" x2="704" y2="601.2837390000016" stroke="#ef5350" stroke-width="2"/><rect x="700" y="593.360647999998" width="8" height="3.9615459999993163" fill="#ef5350"/><line x1="716" y1="566.6202150000004" x2="716" y2="630.0049450000017" stroke="#26a69a" stroke-width="2"/><rect x="712" y="567.6106010000012" width="8" height="27.730819999999312" fill="#26a69a"/><line x1="728" y1="569.591373999998" x2="728" y2="733.0051319999995" stroke="#ef5350" stroke-width="2"/><rect x="724" y="570.5817609999997" width="8" height="96.06748100000004" fill="#ef5350"/><line x1="740" y1="604.254899" x2="740" y2="664.668469999998" stroke="#26a69a" stroke-width="2"/><rect x="736" y="613.1683759999987" width="8" height="41.59622900000386" fill="#26a69a"/><line x1="752" y1="598.3125799999982" x2="752" y2="638.9184230000012" stroke="#ef5350" stroke-width="2"/><rect x="748" y="616.1395350000021" width="8" height="2" fill="#ef5350"/><line x1="764" y1="607.2260579999977" x2="764" y2="663.6780830000021" stroke="#ef5350" stroke-width="2"/><rect x="760" y="620.1010810000014" width="8" height="20.798114999996642" fill="#ef5350"/><line x1="776" y1="643.8703550000014" x2="776" y2="754.7936330000027" stroke="#ef5350" stroke-width="2"/><rect x="772" y="643.8703550000014" width="8" height="40.60584299999732" fill="#ef5350"/><line x1="788" y1="675.5627199999992" x2="788" y2="765.6878829999982" stroke="#ef5350" stroke-width="2"/><rect x="784" y="685.4665839999996" width="8" height="70.31743499999834" fill="#ef5350"/><line x1="800" y1="716.1685630000022" x2="800" y2="762.7167240000006" stroke="#26a69a" stroke-width="2"/><rect x="796" y="729.0435860000002" width="8" height="33.673138000000336" fill="#26a69a"/><line x1="812" y1="715.1781760000006" x2="812" y2="765.6878829999982" stroke="#ef5350" stroke-width="2"/><rect x="808" y="730.0339730000019" width="8" height="13.865408999998863" fill="#ef5350"/><line x1="824" y1="732.0147449999979" x2="824" y2="777.5725200000011" stroke="#26a69a" stroke-width="2"/><rect x="820" y="744.8897690000024" width="8" height="2" fill="#26a69a"/><line x1="836" y1="662.6876970000012" x2="836" y2="751.8224739999994" stroke="#26a69a" stroke-width="2"/><rect x="832" y="668.6300150000022" width="8" height="79.23091299999783" fill="#26a69a"/><line x1="848" y1="661.6973099999996" x2="848" y2="699.3319939999992" stroke="#ef5350" stroke-width="2"/><rect x="844" y="666.6492419999997" width="8" height="28.721206000000166" fill="#ef5350"/><line x1="860" y1="668.6300150000022" x2="860" y2="705.2743120000002" stroke="#26a69a" stroke-width="2"/><rect x="856" y="668.6300150000022" width="8" height="29.711592999996128" fill="#26a69a"/><line x1="872" y1="650.8030599999984" x2="872" y2="675.5627199999992" stroke="#26a69a" stroke-width="2"/><rect x="868" y="652.7838330000009" width="8" height="17.82695499999818" fill="#26a69a"/><line x1="884" y1="647.8319010000007" x2="884" y2="664.668469999998" stroke="#ef5350" stroke-width="2"/><rect x="880" y="654.7646050000026" width="8" height="2" fill="#ef5350"/><line x1="896" y1="648.8222870000016" x2="896" y2="677.5434930000017" stroke="#ef5350" stroke-width="2"/><rect x="892" y="653.7742190000017" width="8" height="20.798114999996642" fill="#ef5350"/><line x1="908" y1="653.7742190000017" x2="908" y2="754.2984400000023" stroke="#ef5350" stroke-width="2"/><rect x="904" y="675.5627199999992" width="8" height="60.413570999998" fill="#ef5350"/><line x1="920" y1="649.8126730000024" x2="920" y2="734.985905000002" stroke="#26a69a" stroke-width="2"/><rect x="916" y="652.7838330000009" width="8" height="81.21168499999953" fill="#26a69a"/><line x1="932" y1="642.8799690000005" x2="932" y2="671.6011739999999" stroke="#26a69a" stroke-width="2"/><rect x="928" y="644.8607410000022" width="8" height="6.932704999996986" fill="#26a69a"/><line x1="944" y1="543.8413270000012" x2="944" y2="645.8511279999982" stroke="#26a69a" stroke-width="2"/><rect x="940" y="564.6394419999979" width="8" height="81.21168600000033" fill="#26a69a"/><line x1="956" y1="550.2788389999978" x2="956" y2="614.6539560000008" stroke="#ef5350" stroke-width="2"/><rect x="952" y="564.6394419999979" width="8" height="49.51932100000249" fill="#ef5350"/><line x1="968" y1="597.3221939999974" x2="968" y2="662.6876970000012" stroke="#ef5350" stroke-width="2"/><rect x="964" y="607.2260579999977" width="8" height="45.062581000001956" fill="#ef5350"/><line x1="980" y1="625.0530130000016" x2="980" y2="662.6876970000012" stroke="#ef5350" stroke-width="2"/><rect x="976" y="651.2982529999988" width="8" height="10.399057000000766" fill="#ef5350"/><line x1="992" y1="617.129921999998" x2="992" y2="705.2743120000002" stroke="#26a69a" stroke-width="2"/><rect x="988" y="619.1106950000005" width="8" height="37.13948999999843" fill="#26a69a"/><line x1="1004" y1="520.072054000002" x2="1004" y2="612.1779899999979" stroke="#26a69a" stroke-width="2"/><rect x="1000" y="522.052825999998" width="8" height="90.12516399999981" fill="#26a69a"/><line x1="1016" y1="34.782712999998466" x2="1016" y2="154.6194679999985" stroke="#ef5350" stroke-width="2"/><rect x="1012" y="36.76348500000017" width="8" height="107.95211899999799" fill="#ef5350"/><line x1="1028" y1="102.12898799999834" x2="1028" y2="157.59062700000186" stroke="#26a69a" stroke-width="2"/><rect x="1024" y="127.87903500000084" width="8" height="19.80772800000068" fill="#26a69a"/><line x1="1040" y1="127.87903500000084" x2="1040" y2="206.1195619999978" stroke="#ef5350" stroke-width="2"/><rect x="1036" y="127.87903500000084" width="8" height="38.625070000000505" fill="#ef5350"/><line x1="1052" y1="157.59062700000186" x2="1052" y2="257.619655000002" stroke="#ef5350" stroke-width="2"/><rect x="1048" y="170.46565100000066" width="8" height="44.56738800000153" fill="#ef5350"/><line x1="1064" y1="206.1195619999978" x2="1064" y2="359.6294549999982" stroke="#ef5350" stroke-width="2"/><rect x="1060" y="212.06187999999884" width="8" height="127.75984699999867" fill="#ef5350"/><line x1="1076" y1="323.97554400000104" x2="1076" y2="382.40834299999733" stroke="#ef5350" stroke-width="2"/><rect x="1072" y="340.81211299999836" width="8" height="8.913477999999486" fill="#ef5350"/><line x1="1088" y1="282.3793149999972" x2="1088" y2="359.6294549999982" stroke="#26a69a" stroke-width="2"/><rect x="1084" y="317.04283999999916" width="8" height="32.68275099999869" fill="#26a69a"/><line x1="1100" y1="282.3793149999972" x2="1100" y2="353.68713699999716" stroke="#26a69a" stroke-width="2"/><rect x="1096" y="292.2831789999975" width="8" height="21.78850100000318" fill="#26a69a"/><line x1="1112" y1="220.97535799999832" x2="1112" y2="293.27356599999916" stroke="#26a69a" stroke-width="2"/><rect x="1108" y="229.8888350000027" width="8" height="63.384730999996464" fill="#26a69a"/><line x1="1124" y1="202.1580159999985" x2="1124" y2="278.41776999999865" stroke="#ef5350" stroke-width="2"/><rect x="1120" y="232.85999500000116" width="8" height="21.788500999997495" fill="#ef5350"/><line x1="1136" y1="247.71579100000167" x2="1136" y2="333.87940900000217" stroke="#ef5350" stroke-width="2"/><rect x="1132" y="250.68694999999934" width="8" height="48.528934000000845" fill="#ef5350"/><line x1="1148" y1="249.6965639999985" x2="1148" y2="324.9659310000027" stroke="#26a69a" stroke-width="2"/><rect x="1144" y="249.6965639999985" width="8" height="51.5000930000042" fill="#26a69a"/><line x1="1160" y1="215.0330390000022" x2="1160" y2="296.2447250000025" stroke="#ef5350" stroke-width="2"/><rect x="1156" y="245.73501799999917" width="8" height="2.971159000003354" fill="#ef5350"/><line x1="1172" y1="202.1580159999985" x2="1172" y2="254.64849599999866" stroke="#26a69a" stroke-width="2"/><rect x="1168" y="203.14840199999935" width="8" height="46.54816199999914" fill="#26a69a"/><line x1="1184" y1="198.19646999999918" x2="1184" y2="286.3408610000022" stroke="#ef5350" stroke-width="2"/><rect x="1180" y="205.12917500000185" width="8" height="65.36550299999817" fill="#ef5350"/><line x1="1196" y1="251.6773360000002" x2="1196" y2="321.0043849999977" stroke="#ef5350" stroke-width="2"/><rect x="1192" y="269.50429199999917" width="8" height="45.557775000003176" fill="#ef5350"/><line x1="1208" y1="315.06206700000234" x2="1208" y2="395.283366000001" stroke="#ef5350" stroke-width="2"/><rect x="1204" y="316.0524529999975" width="8" height="79.23091300000351" fill="#ef5350"/><line x1="1220" y1="380.4275700000005" x2="1220" y2="468.5719600000027" stroke="#ef5350" stroke-width="2"/><rect x="1216" y="395.283366000001" width="8" height="61.403956999998854" fill="#ef5350"/><line x1="1232" y1="350.7159769999987" x2="1232" y2="461.63925500000005" stroke="#26a69a" stroke-width="2"/><rect x="1228" y="372.5044790000027" width="8" height="82.2020719999955" fill="#26a69a"/><line x1="1244" y1="259.60042799999883" x2="1244" y2="394.29298000000017" stroke="#26a69a" stroke-width="2"/><rect x="1240" y="266.5331330000015" width="8" height="112.90404999999737" fill="#26a69a"/><line x1="1256" y1="243.75424500000236" x2="1256" y2="300.20627100000183" stroke="#ef5350" stroke-width="2"/><rect x="1252" y="265.54274599999985" width="8" height="15.846183000002156" fill="#ef5350"/><line x1="1268" y1="252.66772300000184" x2="1268" y2="297.2351109999977" stroke="#ef5350" stroke-width="2"/><rect x="1264" y="279.4081559999995" width="8" height="8.913477999999486" fill="#ef5350"/><line x1="1280" y1="245.73501799999917" x2="1280" y2="288.321633999999" stroke="#26a69a" stroke-width="2"/><rect x="1276" y="252.66772300000184" width="8" height="35.65391099999715" fill="#26a69a"/><line x1="1292" y1="239.79269999999815" x2="1292" y2="274.45622399999934" stroke="#26a69a" stroke-width="2"/><rect x="1288" y="246.72540400000003" width="8" height="3.9615459999993163" fill="#26a69a"/><line x1="1304" y1="220.97535799999832" x2="1304" y2="249.6965639999985" stroke="#26a69a" stroke-width="2"/><rect x="1300" y="227.908063000001" width="8" height="18.322147999998606" fill="#26a69a"/><line x1="1316" y1="181.35990100000186" x2="1316" y2="233.85038100000202" stroke="#26a69a" stroke-width="2"/><rect x="1312" y="190.27337900000134" width="8" height="35.65391099999715" fill="#26a69a"/><line x1="1328" y1="181.35990100000186" x2="1328" y2="213.0522659999997" stroke="#ef5350" stroke-width="2"/><rect x="1324" y="192.25415199999816" width="8" height="4.95193200000017" fill="#ef5350"/><line x1="1340" y1="191.2637650000022" x2="1340" y2="210.08110700000202" stroke="#ef5350" stroke-width="2"/><rect x="1336" y="195.2253110000015" width="8" height="2" fill="#ef5350"/><line x1="1352" y1="167.4944919999973" x2="1352" y2="196.21569700000236" stroke="#26a69a" stroke-width="2"/><rect x="1348" y="180.369515000001" width="8" height="13.865409999999656" fill="#26a69a"/><line x1="1364" y1="162.0473660000016" x2="1364" y2="202.1580159999985" stroke="#ef5350" stroke-width="2"/><rect x="1360" y="182.35028799999782" width="8" height="16.83656900000301" fill="#ef5350"/><line x1="1376" y1="156.600241000001" x2="1376" y2="215.0330390000022" stroke="#26a69a" stroke-width="2"/><rect x="1372" y="182.35028799999782" width="8" height="14.85579600000051" fill="#26a69a"/><line x1="1388" y1="183.34067399999867" x2="1388" y2="233.85038100000202" stroke="#ef5350" stroke-width="2"/><rect x="1384" y="188.29260599999884" width="8" height="28.721206000000166" fill="#ef5350"/><line x1="1400" y1="218.9945850000015" x2="1400" y2="266.5331330000015" stroke="#ef5350" stroke-width="2"/><rect x="1396" y="218.9945850000015" width="8" height="23.769273999999996" fill="#ef5350"/><line x1="1412" y1="205.12917500000185" x2="1412" y2="248.70617700000253" stroke="#26a69a" stroke-width="2"/><rect x="1408" y="208.10033399999952" width="8" height="36.6442979999988" fill="#26a69a"/><line x1="1424" y1="191.2637650000022" x2="1424" y2="220.97535799999832" stroke="#26a69a" stroke-width="2"/><rect x="1420" y="195.2253110000015" width="8" height="14.85579600000051" fill="#26a69a"/><line x1="1436" y1="174.42719599999919" x2="1436" y2="204.138789000001" stroke="#26a69a" stroke-width="2"/><rect x="1432" y="178.3887419999985" width="8" height="17.826955000003863" fill="#26a69a"/><line x1="1448" y1="168.48487799999816" x2="1448" y2="193.244537999999" stroke="#ef5350" stroke-width="2"/><rect x="1444" y="175.41758300000083" width="8" height="13.865409999999656" fill="#ef5350"/><line x1="1460" y1="169.47526399999902" x2="1460" y2="201.16762999999764" stroke="#ef5350" stroke-width="2"/><rect x="1456" y="186.31183300000203" width="8" height="13.865409999999656" fill="#ef5350"/><line x1="1472" y1="193.73973099999944" x2="1472" y2="247.71579100000167" stroke="#ef5350" stroke-width="2"/><rect x="1468" y="200.17724300000168" width="8" height="40.60584299999732" fill="#ef5350"/><line x1="1484" y1="242.7638590000015" x2="1484" y2="315.06206700000234" stroke="#ef5350" stroke-width="2"/><rect x="1480" y="242.7638590000015" width="8" height="54.471251999996184" fill="#ef5350"/><line x1="1496" y1="297.2351109999977" x2="1496" y2="353.68713699999716" stroke="#ef5350" stroke-width="2"/><rect x="1492" y="299.2158840000002" width="8" height="30.70197899999698" fill="#ef5350"/><line x1="1508" y1="308.1293619999997" x2="1508" y2="368.5429329999977" stroke="#ef5350" stroke-width="2"/><rect x="1504" y="332.8890220000005" width="8" height="35.65391099999715" fill="#ef5350"/><line x1="1520" y1="347.74481800000103" x2="1520" y2="412.11993499999835" stroke="#ef5350" stroke-width="2"/><rect x="1516" y="369.5333189999985" width="8" height="27.730819999999312" fill="#ef5350"/><line x1="1532" y1="363.5910009999975" x2="1532" y2="397.26413899999784" stroke="#26a69a" stroke-width="2"/><rect x="1528" y="388.35066099999835" width="8" height="8.913477999999486" fill="#26a69a"/><line x1="1544" y1="339.8217269999975" x2="1544" y2="398.2545249999987" stroke="#26a69a" stroke-width="2"/><rect x="1540" y="340.81211299999836" width="8" height="48.528934000000845" fill="#26a69a"/><line x1="1556" y1="331.89863599999967" x2="1556" y2="405.18723000000136" stroke="#ef5350" stroke-width="2"/><rect x="1552" y="342.79288600000086" width="8" height="54.47125299999698" fill="#ef5350"/><line x1="1568" y1="384.38911499999904" x2="1568" y2="434.8988220000024" stroke="#26a69a" stroke-width="2"/><rect x="1564" y="389.3410469999992" width="8" height="7.923091999998633" fill="#26a69a"/><line x1="1580" y1="359.6294549999982" x2="1580" y2="411.1295489999975" stroke="#26a69a" stroke-width="2"/><rect x="1576" y="364.58138699999836" width="8" height="29.711593000001812" fill="#26a69a"/><line x1="1592" y1="362.60061400000154" x2="1592" y2="406.1776160000022" stroke="#ef5350" stroke-width="2"/><rect x="1588" y="362.60061400000154" width="8" height="33.673138000000336" fill="#ef5350"/><line x1="1604" y1="395.283366000001" x2="1604" y2="524.0335990000005" stroke="#ef5350" stroke-width="2"/><rect x="1600" y="397.26413899999784" width="8" height="118.84636900000487" fill="#ef5350"/><line x1="1616" y1="449.754618999998" x2="1616" y2="570.5817609999997" stroke="#ef5350" stroke-width="2"/><rect x="1612" y="518.0912809999995" width="8" height="41.596228999998175" fill="#ef5350"/><line x1="1628" y1="535.9182359999977" x2="1628" y2="575.5336929999999" stroke="#26a69a" stroke-width="2"/><rect x="1624" y="557.7067370000009" width="8" height="3.9615459999993163" fill="#26a69a"/><line x1="1640" y1="533.9374630000009" x2="1640" y2="628.0241719999992" stroke="#ef5350" stroke-width="2"/><rect x="1636" y="559.6875099999977" width="8" height="51.5000930000042" fill="#ef5350"/><line x1="1652" y1="606.2356710000017" x2="1652" y2="683.4858110000027" stroke="#ef5350" stroke-width="2"/><rect x="1648" y="610.197217000001" width="8" height="62.3943440000005" fill="#ef5350"/><line x1="1664" y1="654.7646050000026" x2="1664" y2="730.0339730000019" stroke="#ef5350" stroke-width="2"/><rect x="1660" y="676.5531060000001" width="8" height="48.52893500000164" fill="#ef5350"/><line x1="1676" y1="685.4665839999996" x2="1676" y2="756.7744059999995" stroke="#26a69a" stroke-width="2"/><rect x="1672" y="696.3608350000015" width="8" height="28.226011999998946" fill="#26a69a"/><line x1="1688" y1="675.5627199999992" x2="1688" y2="747.8609280000001" stroke="#ef5350" stroke-width="2"/><rect x="1684" y="693.3896749999974" width="8" height="6.93270500000267" fill="#ef5350"/><line x1="1700" y1="655.7549919999985" x2="1700" y2="775.5917479999994" stroke="#ef5350" stroke-width="2"/><rect x="1696" y="703.2935399999985" width="8" height="72.29820800000084" fill="#ef5350"/><line x1="1712" y1="713.1974039999989" x2="1712" y2="792.4283160000016" stroke="#ef5350" stroke-width="2"/><rect x="1708" y="775.5917479999994" width="8" height="16.836568000002217" fill="#ef5350"/><line x1="1724" y1="711.216631000002" x2="1724" y2="792.4283160000016" stroke="#26a69a" stroke-width="2"/><rect x="1720" y="758.755179000002" width="8" height="33.67313699999954" fill="#26a69a"/><line x1="1736" y1="753.8032460000011" x2="1736" y2="824.1206820000002" stroke="#ef5350" stroke-width="2"/><rect x="1732" y="764.6974969999974" width="8" height="24.75966000000085" fill="#ef5350"/><line x1="1748" y1="727.0628129999977" x2="1748" y2="810.2552720000006" stroke="#26a69a" stroke-width="2"/><rect x="1744" y="729.0435860000002" width="8" height="63.384730000001355" fill="#26a69a"/><line x1="1760" y1="715.1781760000006" x2="1760" y2="808.2744989999981" stroke="#ef5350" stroke-width="2"/><rect x="1756" y="731.0243590000027" width="8" height="72.29820799999516" fill="#ef5350"/><line x1="1772" y1="781.5340660000004" x2="1772" y2="848.8803420000011" stroke="#ef5350" stroke-width="2"/><rect x="1768" y="798.3706349999977" width="8" height="26.74043300000335" fill="#ef5350"/><line x1="1784" y1="817.1879769999975" x2="1784" y2="878.5919340000021" stroke="#ef5350" stroke-width="2"/><rect x="1780" y="829.0726140000004" width="8" height="40.60584200000221" fill="#ef5350"/><line x1="1796" y1="851.8515009999987" x2="1796" y2="884.5342529999982" stroke="#ef5350" stroke-width="2"/><rect x="1792" y="866.7072969999992" width="8" height="3.9615459999993163" fill="#ef5350"/><line x1="1808" y1="805.3033400000004" x2="1808" y2="878.5919340000021" stroke="#26a69a" stroke-width="2"/><rect x="1804" y="858.7842060000014" width="8" height="12.87502299999801" fill="#26a69a"/><line x1="1820" y1="831.0533860000021" x2="1820" y2="897.4092760000019" stroke="#26a69a" stroke-width="2"/><rect x="1816" y="841.9476369999984" width="8" height="13.865409999999656" fill="#26a69a"/><line x1="1832" y1="834.0245460000006" x2="1832" y2="892.4573440000017" stroke="#26a69a" stroke-width="2"/><rect x="1828" y="839.9668640000016" width="8" height="2.9711589999976695" fill="#26a69a"/><line x1="1844" y1="809.2648849999989" x2="1844" y2="877.6015480000012" stroke="#26a69a" stroke-width="2"/><rect x="1840" y="831.0533860000021" width="8" height="10.894250999996302" fill="#26a69a"/><line x1="1856" y1="796.3898620000009" x2="1856" y2="859.7745920000023" stroke="#ef5350" stroke-width="2"/><rect x="1852" y="828.0822269999987" width="8" height="3.9615459999993163" fill="#ef5350"/><line x1="1868" y1="809.2648849999989" x2="1868" y2="848.8803420000011" stroke="#26a69a" stroke-width="2"/><rect x="1864" y="831.0533860000021" width="8" height="2" fill="#26a69a"/><line x1="1880" y1="763.211917000001" x2="1880" y2="830.0630000000012" stroke="#26a69a" stroke-width="2"/><rect x="1876" y="766.6782699999999" width="8" height="61.403956999998854" fill="#26a69a"/><line x1="1892" y1="738.9474500000006" x2="1892" y2="772.6205880000009" stroke="#26a69a" stroke-width="2"/><rect x="1888" y="744.8897690000024" width="8" height="21.788500999997495" fill="#26a69a"/><line x1="1904" y1="721.1204950000024" x2="1904" y2="773.6109750000026" stroke="#26a69a" stroke-width="2"/><rect x="1900" y="731.0243590000027" width="8" height="13.865409999999656" fill="#26a69a"/><line x1="1916" y1="727.0628129999977" x2="1916" y2="765.6878829999982" stroke="#ef5350" stroke-width="2"/><rect x="1912" y="732.0147449999979" width="8" height="2.971160000004147" fill="#ef5350"/><line x1="1928" y1="672.5915610000015" x2="1928" y2="760.7359509999981" stroke="#26a69a" stroke-width="2"/><rect x="1924" y="700.3223800000001" width="8" height="33.673138000000336" fill="#26a69a"/><line x1="1940" y1="698.3416079999984" x2="1940" y2="770.6398149999984" stroke="#ef5350" stroke-width="2"/><rect x="1936" y="703.2935399999985" width="8" height="18.817340999999033" fill="#ef5350"/><rect x="75" y="932.5163507211643" width="10" height="87.48364927883574" fill="#26a69a" opacity="0.9"/><rect x="87" y="982.8022176342347" width="10" height="37.197782365765306" fill="#ef5350" opacity="0.9"/><rect x="99" y="977.5735962923927" width="10" height="42.42640370760728" fill="#26a69a" opacity="0.9"/><rect x="111" y="991.9138645452839" width="10" height="28.0861354547161" fill="#26a69a" opacity="0.9"/><rect x="123" y="987.9146153068738" width="10" height="32.08538469312623" fill="#ef5350" opacity="0.9"/><rect x="135" y="989.8803112773054" width="10" height="30.119688722694605" fill="#26a69a" opacity="0.9"/><rect x="147" y="988.340528131903" width="10" height="31.659471868096944" fill="#ef5350" opacity="0.9"/><rect x="159" y="983.953626034102" width="10" height="36.046373965898056" fill="#ef5350" opacity="0.9"/><rect x="171" y="991.0057317759843" width="10" height="28.99426822401574" fill="#26a69a" opacity="0.9"/><rect x="183" y="995.2995105611943" width="10" height="24.700489438805675" fill="#ef5350" opacity="0.9"/><rect x="195" y="988.051051788112" width="10" height="31.948948211888023" fill="#ef5350" opacity="0.9"/><rect x="207" y="994.27659789498" width="10" height="25.72340210502" fill="#26a69a" opacity="0.9"/><rect x="219" y="997.2861412298053" width="10" height="22.713858770194747" fill="#ef5350" opacity="0.9"/><rect x="231" y="998.0708314684608" width="10" height="21.929168531539176" fill="#26a69a" opacity="0.9"/><rect x="243" y="996.4530846194938" width="10" height="23.54691538050622" fill="#ef5350" opacity="0.9"/><rect x="255" y="1001.750285145027" width="10" height="18.249714854973035" fill="#26a69a" opacity="0.9"/><rect x="267" y="993.6377286574361" width="10" height="26.362271342563872" fill="#26a69a" opacity="0.9"/><rect x="279" y="1003.2525302109351" width="10" height="16.747469789064894" fill="#26a69a" opacity="0.9"/><rect x="291" y="997.4954882115993" width="10" height="22.50451178840069" fill="#26a69a" opacity="0.9"/><rect x="303" y="993.4688072997127" width="10" height="26.531192700287306" fill="#26a69a" opacity="0.9"/><rect x="315" y="1001.5950796240417" width="10" height="18.40492037595834" fill="#26a69a" opacity="0.9"/><rect x="327" y="1001.4499805090741" width="10" height="18.550019490925933" fill="#ef5350" opacity="0.9"/><rect x="339" y="1000.3685950651864" width="10" height="19.631404934813645" fill="#ef5350" opacity="0.9"/><rect x="351" y="1004.1332313067583" width="10" height="15.866768693241738" fill="#26a69a" opacity="0.9"/><rect x="363" y="997.7943490752639" width="10" height="22.20565092473612" fill="#ef5350" opacity="0.9"/><rect x="375" y="1002.4822776951619" width="10" height="17.517722304838117" fill="#26a69a" opacity="0.9"/><rect x="387" y="1001.4081111127153" width="10" height="18.591888887284654" fill="#ef5350" opacity="0.9"/><rect x="399" y="1001.4174956325888" width="10" height="18.58250436741116" fill="#ef5350" opacity="0.9"/><rect x="411" y="983.0534340123876" width="10" height="36.946565987612416" fill="#ef5350" opacity="0.9"/><rect x="423" y="998.330710480343" width="10" height="21.669289519657013" fill="#26a69a" opacity="0.9"/><rect x="435" y="1000.7446977462714" width="10" height="19.255302253728587" fill="#ef5350" opacity="0.9"/><rect x="447" y="1001.6246769559505" width="10" height="18.375323044049537" fill="#26a69a" opacity="0.9"/><rect x="459" y="997.8246682933168" width="10" height="22.17533170668321" fill="#26a69a" opacity="0.9"/><rect x="471" y="1000.3375539609892" width="10" height="19.662446039010774" fill="#ef5350" opacity="0.9"/><rect x="483" y="997.5164229097786" width="10" height="22.483577090221388" fill="#ef5350" opacity="0.9"/><rect x="495" y="996.4263748321615" width="10" height="23.573625167838486" fill="#ef5350" opacity="0.9"/><rect x="507" y="1001.9170408443181" width="10" height="18.08295915568192" fill="#ef5350" opacity="0.9"/><rect x="519" y="1002.2750963718003" width="10" height="17.72490362819974" fill="#26a69a" opacity="0.9"/><rect x="531" y="1006.6259041623955" width="10" height="13.3740958376045" fill="#26a69a" opacity="0.9"/><rect x="543" y="984.6018797915193" width="10" height="35.39812020848069" fill="#ef5350" opacity="0.9"/><rect x="555" y="999.1168444912869" width="10" height="20.883155508713116" fill="#26a69a" opacity="0.9"/><rect x="567" y="989.6161009485584" width="10" height="30.38389905144163" fill="#26a69a" opacity="0.9"/><rect x="579" y="1000.710769097498" width="10" height="19.289230902502027" fill="#26a69a" opacity="0.9"/><rect x="591" y="1006.0548922223987" width="10" height="13.945107777601265" fill="#26a69a" opacity="0.9"/><rect x="603" y="1004.5981259835698" width="10" height="15.401874016430156" fill="#26a69a" opacity="0.9"/><rect x="615" y="1000.7374788848302" width="10" height="19.26252111516976" fill="#26a69a" opacity="0.9"/><rect x="627" y="1002.6735775233531" width="10" height="17.32642247664694" fill="#26a69a" opacity="0.9"/><rect x="639" y="995.4410002454413" width="10" height="24.558999754558727" fill="#ef5350" opacity="0.9"/><rect x="651" y="991.711736424931" width="10" height="28.28826357506898" fill="#ef5350" opacity="0.9"/><rect x="663" y="970.0991871562018" width="10" height="49.900812843798235" fill="#ef5350" opacity="0.9"/><rect x="675" y="969.4718680969637" width="10" height="50.5281319030363" fill="#ef5350" opacity="0.9"/><rect x="687" y="990.5213461732816" width="10" height="29.478653826718414" fill="#26a69a" opacity="0.9"/><rect x="699" y="996.1491705528205" width="10" height="23.850829447179535" fill="#ef5350" opacity="0.9"/><rect x="711" y="995.7506894012677" width="10" height="24.249310598732336" fill="#26a69a" opacity="0.9"/><rect x="723" y="907.0749173440365" width="10" height="112.92508265596348" fill="#ef5350" opacity="0.9"/><rect x="735" y="975.3776186419877" width="10" height="44.62238135801226" fill="#26a69a" opacity="0.9"/><rect x="747" y="990.5567185943434" width="10" height="29.44328140565665" fill="#ef5350" opacity="0.9"/><rect x="759" y="980.2655097238064" width="10" height="39.73449027619358" fill="#ef5350" opacity="0.9"/><rect x="771" y="959.4946796991179" width="10" height="60.50532030088209" fill="#ef5350" opacity="0.9"/><rect x="783" y="976.1348772071669" width="10" height="43.86512279283306" fill="#ef5350" opacity="0.9"/><rect x="795" y="988.9404155176645" width="10" height="31.05958448233548" fill="#26a69a" opacity="0.9"/><rect x="807" y="984.1088315550871" width="10" height="35.891168444912864" fill="#ef5350" opacity="0.9"/><rect x="819" y="986.3950449735067" width="10" height="33.60495502649326" fill="#26a69a" opacity="0.9"/><rect x="831" y="995.5565020285001" width="10" height="24.443497971499937" fill="#26a69a" opacity="0.9"/><rect x="843" y="995.0627319059238" width="10" height="24.937268094076217" fill="#ef5350" opacity="0.9"/><rect x="855" y="991.0194476127225" width="10" height="28.9805523872775" fill="#26a69a" opacity="0.9"/><rect x="867" y="976.4640572888844" width="10" height="43.53594271111558" fill="#26a69a" opacity="0.9"/><rect x="879" y="986.3387378542657" width="10" height="33.66126214573433" fill="#ef5350" opacity="0.9"/><rect x="891" y="994.4101468316417" width="10" height="25.58985316835833" fill="#ef5350" opacity="0.9"/><rect x="903" y="964.3702987164864" width="10" height="55.629701283513555" fill="#ef5350" opacity="0.9"/><rect x="915" y="993.8903888078772" width="10" height="26.10961119212277" fill="#26a69a" opacity="0.9"/><rect x="927" y="990.4116194793758" width="10" height="29.58838052062424" fill="#26a69a" opacity="0.9"/><rect x="939" y="979.7031604175389" width="10" height="40.296839582461075" fill="#26a69a" opacity="0.9"/><rect x="951" y="985.1548445779132" width="10" height="34.845155422086805" fill="#ef5350" opacity="0.9"/><rect x="963" y="986.9263531755771" width="10" height="33.073646824422894" fill="#ef5350" opacity="0.9"/><rect x="975" y="984.5159753403693" width="10" height="35.48402465963068" fill="#ef5350" opacity="0.9"/><rect x="987" y="918.2937499097642" width="10" height="101.70625009023581" fill="#26a69a" opacity="0.9"/><rect x="999" y="865.2394496340037" width="10" height="154.76055036599632" fill="#26a69a" opacity="0.9"/><rect x="1011" y="860.0" width="10" height="160.0" fill="#ef5350" opacity="0.9"/><rect x="1023" y="919.1318597230845" width="10" height="100.86814027691548" fill="#26a69a" opacity="0.9"/><rect x="1035" y="937.3732006987858" width="10" height="82.62679930121419" fill="#ef5350" opacity="0.9"/><rect x="1047" y="918.7680291064494" width="10" height="101.23197089355062" fill="#ef5350" opacity="0.9"/><rect x="1059" y="954.2039761488818" width="10" height="65.7960238511182" fill="#ef5350" opacity="0.9"/><rect x="1071" y="973.4610109293562" width="10" height="46.538989070643765" fill="#ef5350" opacity="0.9"/><rect x="1083" y="957.3853283860069" width="10" height="62.614671613993096" fill="#26a69a" opacity="0.9"/><rect x="1095" y="985.486190318063" width="10" height="34.513809681937005" fill="#26a69a" opacity="0.9"/><rect x="1107" y="952.7371035040353" width="10" height="67.2628964959647" fill="#26a69a" opacity="0.9"/><rect x="1119" y="975.3408024486378" width="10" height="44.65919755136224" fill="#ef5350" opacity="0.9"/><rect x="1131" y="982.7596263517318" width="10" height="37.240373648268246" fill="#ef5350" opacity="0.9"/><rect x="1143" y="981.2862567315883" width="10" height="38.71374326841169" fill="#26a69a" opacity="0.9"/><rect x="1155" y="982.4080677995466" width="10" height="37.59193220045336" fill="#ef5350" opacity="0.9"/><rect x="1167" y="968.5543508077906" width="10" height="51.44564919220943" fill="#26a69a" opacity="0.9"/><rect x="1179" y="949.6120583861514" width="10" height="70.38794161384862" fill="#ef5350" opacity="0.9"/><rect x="1191" y="987.0808368104183" width="10" height="32.919163189581695" fill="#ef5350" opacity="0.9"/><rect x="1203" y="980.1536173714682" width="10" height="39.84638262853184" fill="#ef5350" opacity="0.9"/><rect x="1215" y="965.2322307725625" width="10" height="54.7677692274375" fill="#ef5350" opacity="0.9"/><rect x="1227" y="961.907223192758" width="10" height="58.09277680724199" fill="#26a69a" opacity="0.9"/><rect x="1239" y="979.9565424541241" width="10" height="40.04345754587587" fill="#26a69a" opacity="0.9"/><rect x="1251" y="977.5865902429869" width="10" height="42.41340975701314" fill="#ef5350" opacity="0.9"/><rect x="1263" y="987.7651848750415" width="10" height="32.23481512495846" fill="#ef5350" opacity="0.9"/><rect x="1275" y="999.4864501970749" width="10" height="20.513549802925127" fill="#26a69a" opacity="0.9"/><rect x="1287" y="995.1529676739385" width="10" height="24.84703232606148" fill="#26a69a" opacity="0.9"/><rect x="1299" y="994.4541818864328" width="10" height="25.54581811356718" fill="#26a69a" opacity="0.9"/><rect x="1311" y="967.9162034563908" width="10" height="52.083796543609196" fill="#26a69a" opacity="0.9"/><rect x="1323" y="992.929558350057" width="10" height="27.07044164994295" fill="#ef5350" opacity="0.9"/><rect x="1335" y="993.9885653234771" width="10" height="26.011434676522867" fill="#ef5350" opacity="0.9"/><rect x="1347" y="985.4067828422101" width="10" height="34.59321715778992" fill="#26a69a" opacity="0.9"/><rect x="1359" y="985.8572397961393" width="10" height="34.14276020386069" fill="#ef5350" opacity="0.9"/><rect x="1371" y="993.2645135209275" width="10" height="26.735486479072506" fill="#26a69a" opacity="0.9"/><rect x="1383" y="989.9229025598082" width="10" height="30.07709744019178" fill="#ef5350" opacity="0.9"/><rect x="1395" y="981.094235017253" width="10" height="38.90576498274697" fill="#ef5350" opacity="0.9"/><rect x="1407" y="988.4466453950882" width="10" height="31.55335460491176" fill="#26a69a" opacity="0.9"/><rect x="1419" y="992.3354460534484" width="10" height="27.664553946551564" fill="#26a69a" opacity="0.9"/><rect x="1431" y="996.6378874723879" width="10" height="23.362112527612112" fill="#26a69a" opacity="0.9"/><rect x="1443" y="999.7412760059483" width="10" height="20.258723994051707" fill="#ef5350" opacity="0.9"/><rect x="1455" y="1001.1179128827802" width="10" height="18.88208711721984" fill="#ef5350" opacity="0.9"/><rect x="1467" y="975.5162207816584" width="10" height="44.483779218341624" fill="#ef5350" opacity="0.9"/><rect x="1479" y="979.3147856720038" width="10" height="40.685214327996164" fill="#ef5350" opacity="0.9"/><rect x="1491" y="981.6984537198794" width="10" height="38.30154628012065" fill="#ef5350" opacity="0.9"/><rect x="1503" y="984.2965219525577" width="10" height="35.70347804744233" fill="#ef5350" opacity="0.9"/><rect x="1515" y="948.8677937715663" width="10" height="71.13220622843369" fill="#ef5350" opacity="0.9"/><rect x="1527" y="971.817276179201" width="10" height="48.18272382079897" fill="#26a69a" opacity="0.9"/><rect x="1539" y="965.1571546135743" width="10" height="54.842845386425665" fill="#26a69a" opacity="0.9"/><rect x="1551" y="987.8366516033092" width="10" height="32.16334839669082" fill="#ef5350" opacity="0.9"/><rect x="1563" y="988.3816756421177" width="10" height="31.61832435788233" fill="#26a69a" opacity="0.9"/><rect x="1575" y="992.7895124380983" width="10" height="27.210487561901687" fill="#26a69a" opacity="0.9"/><rect x="1587" y="993.8463537530861" width="10" height="26.153646246913922" fill="#ef5350" opacity="0.9"/><rect x="1599" y="951.5214472373417" width="10" height="68.4785527626583" fill="#ef5350" opacity="0.9"/><rect x="1611" y="953.0049232635029" width="10" height="66.99507673649714" fill="#ef5350" opacity="0.9"/><rect x="1623" y="984.8112267733134" width="10" height="35.188773226686635" fill="#26a69a" opacity="0.9"/><rect x="1635" y="966.7395290414796" width="10" height="53.260470958520386" fill="#ef5350" opacity="0.9"/><rect x="1647" y="956.3696345812339" width="10" height="63.63036541876613" fill="#ef5350" opacity="0.9"/><rect x="1659" y="975.7277334218847" width="10" height="44.27226657811525" fill="#ef5350" opacity="0.9"/><rect x="1671" y="965.9064724311681" width="10" height="54.09352756883186" fill="#26a69a" opacity="0.9"/><rect x="1683" y="988.0626019664179" width="10" height="31.9373980335821" fill="#ef5350" opacity="0.9"/><rect x="1695" y="977.7930496802045" width="10" height="42.20695031979551" fill="#ef5350" opacity="0.9"/><rect x="1707" y="961.8364783506345" width="10" height="58.16352164936552" fill="#ef5350" opacity="0.9"/><rect x="1719" y="960.2945295467998" width="10" height="59.70547045320018" fill="#26a69a" opacity="0.9"/><rect x="1731" y="979.2534253497538" width="10" height="40.7465746502462" fill="#ef5350" opacity="0.9"/><rect x="1743" y="983.2483432712993" width="10" height="36.75165672870071" fill="#26a69a" opacity="0.9"/><rect x="1755" y="989.1078931030997" width="10" height="30.89210689690026" fill="#ef5350" opacity="0.9"/><rect x="1767" y="971.4029135324777" width="10" height="48.59708646752233" fill="#ef5350" opacity="0.9"/><rect x="1779" y="972.3926194360625" width="10" height="47.607380563937454" fill="#ef5350" opacity="0.9"/><rect x="1791" y="982.2709094321643" width="10" height="37.72909056783567" fill="#ef5350" opacity="0.9"/><rect x="1803" y="955.8903021815399" width="10" height="64.10969781846006" fill="#26a69a" opacity="0.9"/><rect x="1815" y="969.8652960455076" width="10" height="50.13470395449235" fill="#26a69a" opacity="0.9"/><rect x="1827" y="959.8476820235912" width="10" height="60.15231797640877" fill="#26a69a" opacity="0.9"/><rect x="1839" y="947.0349248516524" width="10" height="72.96507514834764" fill="#26a69a" opacity="0.9"/><rect x="1851" y="973.2769299626063" width="10" height="46.723070037393654" fill="#ef5350" opacity="0.9"/><rect x="1863" y="982.2673000014438" width="10" height="37.7326999985562" fill="#26a69a" opacity="0.9"/><rect x="1875" y="966.5987612433767" width="10" height="53.40123875662334" fill="#26a69a" opacity="0.9"/><rect x="1887" y="967.1459509406177" width="10" height="52.854049059382305" fill="#26a69a" opacity="0.9"/><rect x="1899" y="926.5073704575315" width="10" height="93.49262954246853" fill="#26a69a" opacity="0.9"/><rect x="1911" y="961.3917964858582" width="10" height="58.60820351414179" fill="#ef5350" opacity="0.9"/><rect x="1923" y="930.6466656079003" width="10" height="89.35333439209967" fill="#26a69a" opacity="0.9"/><rect x="1935" y="889.7900755092907" width="10" height="130.20992449070934" fill="#ef5350" opacity="0.9"/><rect x="1004" y="36.76348500000017" width="12" height="485.2893409999979" fill="#00ff00" opacity="0.50"/><polyline points="320,454.5813373571377,332,451.05616808502873,344,448.1968580769319,356,445.23257321246206,368,442.73924623984726,380,440.2004114551005,392,438.8465956022287,404,438.5649397353518,416,441.3284287129386,428,442.3195679783703,440,443.6879255994768,452,442.75654563762146,464,441.44225595784405,476,440.6304268190013,488,441.1221074076707,500,442.08573508313407,512,444.51391021807467,524,445.8619279115908,536,446.4213053485821,548,451.832179601098,560,455.59586230575064,572,458.90677646710856,584,461.3364304226195,596,462.1670122871308,608,462.3053947359722,620,461.86466285635674,632,460.1453902033711,644,459.8160504697148,656,461.3007720440237,668,469.7277124207801,680,482.16253533308304,692,492.75283177755114,704,502.7118186558823,716,508.8926550696101,728,523.9170919201229,740,532.4172142134444,752,540.5794136216855,764,550.1336786100978,776,562.9282042662794,788,581.2954247171092,800,595.366678172627,812,609.5126499657056,824,622.4057089213545,836,626.8080237859863,848,633.3377784730374,860,636.6989438565554,872,638.2308380606901,884,639.8526438644353,896,643.1592810202005,908,651.9989962563727,920,652.0737426129074,932,651.3867900783453,944,643.1251378804063,956,640.3664355108447,968,641.501883462189,980,643.4252574181698,992,641.1095848069181,1004,629.7708458729289,1016,583.5751085517018,1028,540.1754824991542,1040,504.5877322611432,1052,477.011094807699,1064,463.9454407307767,1076,453.067359804038,1088,440.11264363222153,1100,426.0336470005825,1112,407.35318871481354,1124,392.80988464673214,1136,383.89617029941974,1148,371.1152554137641,1160,359.4572479457838,1172,344.57069118903974,1184,337.5158327900806,1196,335.377378905315,1208,341.08271100956813,1220,352.0926740562743,1232,354.03665547948435,1244,345.70298667191537,1256,339.577838322208,1268,334.6962950534248,1280,326.8840500959584,1292,319.2498933249112,1304,310.5506713892055,1316,299.09569116166494,1328,289.3919190510303,1340,280.5179931414102,1352,270.9800428422284,1364,264.14259657153707,1376,256.3528528980555,1388,252.60627757443217,1400,251.66890437686789,1412,247.5195167219283,1424,242.53911617698236,1436,236.4295567315594,1448,231.93940780474236,1460,228.91443972810066,1472,230.04478699209017,1484,236.4438654690332,1496,245.34615094817127,1508,257.0791778102489,1520,270.43012649498905,1532,281.6606535907056,1544,287.2941259154004,1556,297.7674604948845,1568,306.48875444775285,1580,312.02138611939176,1592,320.0454209651639,1604,338.71828639705086,1616,359.76297435923357,1628,378.6147612774016,1640,400.7645557271758,1652,426.65284194363835,1664,455.0746704251992,1676,478.05430514660543,1688,499.2226932278811,1700,525.5435555871316,1712,550.9611518169265,1724,570.7510591676964,1736,591.5802113421989,1748,604.6719613096116,1760,623.59106661346,1772,642.7834476978944,1784,664.3924961076209,1796,684.0378624783227,1808,700.6803713851468,1820,714.1343966817999,1832,726.1184411882937,1844,736.1122454560757,1856,745.2485814126419,1868,753.4204675638193,1880,754.6831154148833,1892,753.7504157563262,1904,751.5860293985781,1916,750.0050651701429,1928,745.273380868224,1940,743.067428499819" fill="none" stroke="#0090ff" stroke-width="2"/><line x1="80" y1="50" x2="80" y2="850" stroke="#666666" stroke-width="0.5" stroke-dasharray="4,4"/><line x1="152" y1="50" x2="152" y2="850" stroke="#666666" stroke-width="0.5" stroke-dasharray="4,4"/><line x1="224" y1="50" x2="224" y2="850" stroke="#666666" stroke-width="0.5" stroke-dasharray="4,4"/><line x1="296" y1="50" x2="296" y2="850" stroke="#666666" stroke-width="0.5" stroke-dasharray="4,4"/><line x1="368" y1="50" x2="368" y2="850" stroke="#666666" stroke-width="0.5" stroke-dasharray="4,4"/><line x1="440" y1="50" x2="440" y2="850" stroke="#666666" stroke-width="0.5" stroke-dasharray="4,4"/><line x1="512" y1="50" x2="512" y2="850" stroke="#666666" stroke-width="0.5" stroke-dasharray="4,4"/><line x1="584" y1="50" x2="584" y2="850" stroke="#666666" stroke-width="0.5" stroke-dasharray="4,4"/><line x1="656" y1="50" x2="656" y2="850" stroke="#666666" stroke-width="0.5" stroke-dasharray="4,4"/><line x1="728" y1="50" x2="728" y2="850" stroke="#666666" stroke-width="0.5" stroke-dasharray="4,4"/><line x1="800" y1="50" x2="800" y2="850" stroke="#666666" stroke-width="0.5" stroke-dasharray="4,4"/><line x1="872" y1="50" x2="872" y2="850" stroke="#666666" stroke-width="0.5" stroke-dasharray="4,4"/><line x1="944" y1="50" x2="944" y2="850" stroke="#666666" stroke-width="0.5" stroke-dasharray="4,4"/><line x1="1016" y1="50" x2="1016" y2="850" stroke="#666666" stroke-width="0.5" stroke-dasharray="4,4"/><line x1="1088" y1="50" x2="1088" y2="850" stroke="#666666" stroke-width="0.5" stroke-dasharray="4,4"/><line x1="1160" y1="50" x2="1160" y2="850" stroke="#666666" stroke-width="0.5" stroke-dasharray="4,4"/><line x1="1232" y1="50" x2="1232" y2="850" stroke="#666666" stroke-width="0.5" stroke-dasharray="4,4"/><line x1="1304" y1="50" x2="1304" y2="850" stroke="#666666" stroke-width="0.5" stroke-dasharray="4,4"/><line x1="1376" y1="50" x2="1376" y2="850" stroke="#666666" stroke-width="0.5" stroke-dasharray="4,4"/><line x1="1448" y1="50" x2="1448" y2="850" stroke="#666666" stroke-width="0.5" stroke-dasharray="4,4"/><line x1="1520" y1="50" x2="1520" y2="850" stroke="#666666" stroke-width="0.5" stroke-dasharray="4,4"/><line x1="1592" y1="50" x2="1592" y2="850" stroke="#666666" stroke-width="0.5" stroke-dasharray="4,4"/><line x1="1664" y1="50" x2="1664" y2="850" stroke="#666666" stroke-width="0.5" stroke-dasharray="4,4"/><line x1="1736" y1="50" x2="1736" y2="850" stroke="#666666" stroke-width="0.5" stroke-dasharray="4,4"/><line x1="1808" y1="50" x2="1808" y2="850" stroke="#666666" stroke-width="0.5" stroke-dasharray="4,4"/><line x1="1880" y1="50" x2="1880" y2="850" stroke="#666666" stroke-width="0.5" stroke-dasharray="4,4"/><text x="80" y="1040" text-anchor="middle" font-size="20" fill="black">09:30</text><text x="152" y="1040" text-anchor="middle" font-size="20" fill="black">10:00</text><text x="224" y="1040" text-anchor="middle" font-size="20" fill="black">10:30</text><text x="296" y="1040" text-anchor="middle" font-size="20" fill="black">11:00</text><text x="368" y="1040" text-anchor="middle" font-size="20" fill="black">11:30</text><text x="440" y="1040" text-anchor="middle" font-size="20" fill="black">12:00</text><text x="512" y="1040" text-anchor="middle" font-size="20" fill="black">12:30</text><text x="584" y="1040" text-anchor="middle" font-size="20" fill="black">13:00</text><text x="656" y="1040" text-anchor="middle" font-size="20" fill="black">13:30</text><text x="728" y="1040" text-anchor="middle" font-size="20" fill="black">14:00</text><text x="800" y="1040" text-anchor="middle" font-size="20" fill="black">14:30</text><text x="872" y="1040" text-anchor="middle" font-size="20" fill="black">15:00</text><text x="944" y="1040" text-anchor="middle" font-size="20" fill="black">15:30</text><text x="1016" y="1040" text-anchor="middle" font-size="20" fill="black">09:30</text><text x="1088" y="1040" text-anchor="middle" font-size="20" fill="black">10:00</text><text x="1160" y="1040" text-anchor="middle" font-size="20" fill="black">10:30</text><text x="1232" y="1040" text-anchor="middle" font-size="20" fill="black">11:00</text><text x="1304" y="1040" text-anchor="middle" font-size="20" fill="black">11:30</text><text x="1376" y="1040" text-anchor="middle" font-size="20" fill="black">12:00</text><text x="1448" y="1040" text-anchor="middle" font-size="20" fill="black">12:30</text><text x="1520" y="1040" text-anchor="middle" font-size="20" fill="black">13:00</text><text x="1592" y="1040" text-anchor="middle" font-size="20" fill="black">13:30</text><text x="1664" y="1040" text-anchor="middle" font-size="20" fill="black">14:00</text><text x="1736" y="1040" text-anchor="middle" font-size="20" fill="black">14:30</text><text x="1808" y="1040" text-anchor="middle" font-size="20" fill="black">15:00</text><text x="1880" y="1040" text-anchor="middle" font-size="20" fill="black">15:30</text><text x="1942" y="50" text-anchor="end" font-size="40" fill="#ef5350" font-weight="bold"> -1.50% (Thu)</text></svg>