<svg xmlns="http://www.w3.org/2000/svg" width="1992" height="1050"><rect width="100%" height="100%" fill="white"/><text x="42" y="854.0" text-anchor="end" font-size="20" fill="black">507</text><text x="42" y="694.0" text-anchor="end" font-size="20" fill="black">508</text><text x="42" y="534.0" text-anchor="end" font-size="20" fill="black">509</text><text x="42" y="374.0" text-anchor="end" font-size="20" fill="black">510</text><text x="42" y="214.0" text-anchor="end" font-size="20" fill="black">511</text><text x="42" y="54.0" text-anchor="end" font-size="20" fill="black">512</text><line x1="80" y1="290.9384463999959" x2="80" y2="445.10686079999687" stroke="#ef5350" stroke-width="2"/><rect x="76" y="316.3682880000033" width="8" height="17.483015999996496" fill="#ef5350"/><line x1="92" y1="211.47019199999704" x2="92" y2="324.31511359999604" stroke="#26a69a" stroke-width="2"/><rect x="88" y="273.4554303999994" width="8" height="50.85968319999665" fill="#26a69a"/><line x1="104" y1="241.66812800000116" x2="104" y2="349.74495520000346" stroke="#ef5350" stroke-width="2"/><rect x="100" y="268.6873344000014" width="8" height="76.28952479999504" fill="#ef5350"/><line x1="116" y1="284.580985599996" x2="116" y2="368.8173360000019" stroke="#26a69a" stroke-width="2"/><rect x="112" y="294.11717599999974" width="8" height="22.25111200000356" fill="#26a69a"/><line x1="128" y1="208.291460800001" x2="128" y2="316.3682880000033" stroke="#26a69a" stroke-width="2"/><rect x="124" y="260.7405087999996" width="8" height="38.144763199998124" fill="#26a69a"/><line x1="140" y1="171.736063999997" x2="140" y2="282.99162080000315" stroke="#26a69a" stroke-width="2"/><rect x="136" y="228.95320800000263" width="8" height="27.813889600001858" fill="#26a69a"/><line x1="152" y1="208.291460800001" x2="152" y2="411.73019359999665" stroke="#ef5350" stroke-width="2"/><rect x="148" y="233.72130239999933" width="8" height="178.00889119999732" fill="#ef5350"/><line x1="164" y1="362.300939200004" x2="164" y2="451.46432159999677" stroke="#26a69a" stroke-width="2"/><rect x="160" y="368.8173360000019" width="8" height="34.96603200000203" fill="#26a69a"/><line x1="176" y1="243.2574928000031" x2="176" y2="379.9428911999985" stroke="#26a69a" stroke-width="2"/><rect x="172" y="303.6533664000035" width="8" height="76.28952479999498" fill="#26a69a"/><line x1="188" y1="279.8128911999993" x2="188" y2="359.2811455999981" stroke="#ef5350" stroke-width="2"/><rect x="184" y="302.0640016000016" width="8" height="57.21714399999655" fill="#ef5350"/><line x1="200" y1="306.83209759999954" x2="200" y2="384.71098719999645" stroke="#26a69a" stroke-width="2"/><rect x="196" y="327.4938431999999" width="8" height="22.25111200000356" fill="#26a69a"/><line x1="212" y1="265.50860479999756" x2="212" y2="341.7981296000017" stroke="#26a69a" stroke-width="2"/><rect x="208" y="317.95765279999614" width="8" height="2" fill="#26a69a"/><line x1="224" y1="254.38304960000096" x2="224" y2="338.61939839999644" stroke="#26a69a" stroke-width="2"/><rect x="220" y="270.2767007999955" width="8" height="41.32349120000072" fill="#26a69a"/><line x1="236" y1="241.66812800000116" x2="236" y2="319.54701759999807" stroke="#ef5350" stroke-width="2"/><rect x="232" y="270.2767007999955" width="8" height="42.91285760000392" fill="#ef5350"/><line x1="248" y1="286.1703503999979" x2="248" y2="359.2811455999981" stroke="#ef5350" stroke-width="2"/><rect x="244" y="308.4214624000015" width="8" height="50.85968319999665" fill="#ef5350"/><line x1="260" y1="279.8128911999993" x2="260" y2="378.35352639999655" stroke="#26a69a" stroke-width="2"/><rect x="256" y="310.0108272000034" width="8" height="52.44904799999864" fill="#26a69a"/><line x1="272" y1="281.4022560000012" x2="272" y2="387.8897168000004" stroke="#ef5350" stroke-width="2"/><rect x="268" y="298.8852719999977" width="8" height="81.05761920000077" fill="#ef5350"/><line x1="284" y1="343.38749440000356" x2="284" y2="462.58987680000246" stroke="#ef5350" stroke-width="2"/><rect x="280" y="383.12162240000356" width="8" height="57.21714239999534" fill="#ef5350"/><line x1="296" y1="360.8705104" x2="296" y2="443.51749600000403" stroke="#26a69a" stroke-width="2"/><rect x="292" y="371.99606559999665" width="8" height="71.52143040000738" fill="#26a69a"/><line x1="308" y1="375.1747968000018" x2="308" y2="448.28559040000073" stroke="#ef5350" stroke-width="2"/><rect x="304" y="386.3003519999983" width="8" height="61.9852384000024" fill="#ef5350"/><line x1="320" y1="432.391939199997" x2="320" y2="513.4495599999991" stroke="#ef5350" stroke-width="2"/><rect x="316" y="443.51749600000403" width="8" height="44.502222399996754" fill="#ef5350"/><line x1="332" y1="391.0684479999963" x2="332" y2="488.0197184000008" stroke="#26a69a" stroke-width="2"/><rect x="328" y="391.0684479999963" width="8" height="96.95127040000449" fill="#26a69a"/><line x1="344" y1="379.9428911999985" x2="344" y2="507.0920991999992" stroke="#ef5350" stroke-width="2"/><rect x="340" y="389.47908160000225" width="8" height="111.09662079999907" fill="#ef5350"/><line x1="356" y1="430.8025744000043" x2="356" y2="503.91336960000444" stroke="#26a69a" stroke-width="2"/><rect x="352" y="454.6430512000006" width="8" height="39.734126399998786" fill="#26a69a"/><line x1="368" y1="422.8557488000024" x2="368" y2="473.71543199999905" stroke="#ef5350" stroke-width="2"/><rect x="364" y="453.0536863999987" width="8" height="7.94682560000183" fill="#ef5350"/><line x1="380" y1="429.21320960000224" x2="380" y2="554.7730511999998" stroke="#ef5350" stroke-width="2"/><rect x="376" y="470.5367024000043" width="8" height="69.93206399999508" fill="#ef5350"/><line x1="392" y1="497.55590880000454" x2="392" y2="557.9517823999959" stroke="#ef5350" stroke-width="2"/><rect x="388" y="542.0581312000013" width="8" height="7.94682560000183" fill="#ef5350"/><line x1="404" y1="522.9857504000029" x2="404" y2="591.328449599996" stroke="#ef5350" stroke-width="2"/><rect x="400" y="554.7730511999998" width="8" height="33.53560479999942" fill="#ef5350"/><line x1="416" y1="406.9620975999987" x2="416" y2="597.6859088000037" stroke="#26a69a" stroke-width="2"/><rect x="412" y="433.9813056000002" width="8" height="152.57904799999784" fill="#26a69a"/><line x1="428" y1="432.391939199997" x2="428" y2="567.4879727999996" stroke="#ef5350" stroke-width="2"/><rect x="424" y="435.57067040000226" width="8" height="114.43428640000087" fill="#ef5350"/><line x1="440" y1="507.0920991999992" x2="440" y2="589.7390848000032" stroke="#26a69a" stroke-width="2"/><rect x="436" y="508.68146400000114" width="8" height="49.27031839999472" fill="#26a69a"/><line x1="452" y1="499.1452735999974" x2="452" y2="573.8454335999995" stroke="#ef5350" stroke-width="2"/><rect x="448" y="513.4495599999991" width="8" height="42.91285760000392" fill="#ef5350"/><line x1="464" y1="538.8794015999974" x2="464" y2="615.1689248000002" stroke="#ef5350" stroke-width="2"/><rect x="460" y="553.1836863999979" width="8" height="28.608572800003458" fill="#ef5350"/><line x1="476" y1="561.1305119999997" x2="476" y2="604.0433696000036" stroke="#ef5350" stroke-width="2"/><rect x="472" y="584.9709887999961" width="8" height="3.1787296000038623" fill="#ef5350"/><line x1="488" y1="588.1497184" x2="488" y2="643.7774976000037" stroke="#ef5350" stroke-width="2"/><rect x="484" y="588.1497184" width="8" height="14.304286400001729" fill="#ef5350"/><line x1="500" y1="526.1644799999976" x2="500" y2="608.8114656000016" stroke="#26a69a" stroke-width="2"/><rect x="496" y="538.8794015999974" width="8" height="69.93206400000417" fill="#26a69a"/><line x1="512" y1="508.68146400000114" x2="512" y2="554.7730511999998" stroke="#26a69a" stroke-width="2"/><rect x="508" y="529.3432112000028" width="8" height="17.483015999996496" fill="#26a69a"/><line x1="524" y1="499.1452735999974" x2="524" y2="554.7730511999998" stroke="#ef5350" stroke-width="2"/><rect x="520" y="530.9325759999956" width="8" height="15.89365120000366" fill="#ef5350"/><line x1="536" y1="535.7006704000014" x2="536" y2="621.5263856000001" stroke="#ef5350" stroke-width="2"/><rect x="532" y="548.4155920000012" width="8" height="69.93206399999508" fill="#ef5350"/><line x1="548" y1="599.2752751999978" x2="548" y2="673.9754335999987" stroke="#ef5350" stroke-width="2"/><rect x="544" y="610.4008304000035" width="8" height="57.21714399999655" fill="#ef5350"/><line x1="560" y1="648.5455920000004" x2="560" y2="718.4776559999955" stroke="#ef5350" stroke-width="2"/><rect x="556" y="669.207339200002" width="8" height="14.30428480000046" fill="#ef5350"/><line x1="572" y1="681.9222592000006" x2="572" y2="896.486547200002" stroke="#ef5350" stroke-width="2"/><rect x="568" y="681.9222592000006" width="8" height="214.5642880000014" fill="#ef5350"/><line x1="584" y1="799.5352767999975" x2="584" y2="940.9887695999987" stroke="#26a69a" stroke-width="2"/><rect x="580" y="877.4141664000035" width="8" height="22.251110399993195" fill="#26a69a"/><line x1="596" y1="832.9119439999977" x2="596" y2="909.2014672000005" stroke="#26a69a" stroke-width="2"/><rect x="592" y="837.6800384000035" width="8" height="44.502222399996754" fill="#26a69a"/><line x1="608" y1="743.9074976000029" x2="608" y2="826.5544831999978" stroke="#26a69a" stroke-width="2"/><rect x="604" y="748.6755936000009" width="8" height="77.87888959999691" fill="#26a69a"/><line x1="620" y1="639.0094015999966" x2="620" y2="748.6755936000009" stroke="#26a69a" stroke-width="2"/><rect x="616" y="659.6711487999983" width="8" height="89.0044448000026" fill="#26a69a"/><line x1="632" y1="648.5455920000004" x2="632" y2="759.8011487999975" stroke="#ef5350" stroke-width="2"/><rect x="628" y="659.6711487999983" width="8" height="49.27031680000255" fill="#ef5350"/><line x1="644" y1="670.796704000004" x2="644" y2="735.9606720000011" stroke="#26a69a" stroke-width="2"/><rect x="640" y="681.9222592000006" width="8" height="34.96603200000209" fill="#26a69a"/><line x1="656" y1="577.0241632000034" x2="656" y2="691.4584496000043" stroke="#26a69a" stroke-width="2"/><rect x="652" y="586.560353599998" width="8" height="100.13000160000047" fill="#26a69a"/><line x1="668" y1="510.2708288000031" x2="668" y2="599.2752751999978" stroke="#ef5350" stroke-width="2"/><rect x="664" y="584.9709887999961" width="8" height="7.94682560000183" fill="#ef5350"/><line x1="680" y1="518.2176543999958" x2="680" y2="591.328449599996" stroke="#26a69a" stroke-width="2"/><rect x="676" y="529.3432112000028" width="8" height="60.395873600000414" fill="#26a69a"/><line x1="692" y1="507.0920991999992" x2="692" y2="554.7730511999998" stroke="#ef5350" stroke-width="2"/><rect x="688" y="530.9325759999956" width="8" height="12.714920000007623" fill="#ef5350"/><line x1="704" y1="489.6090832000027" x2="704" y2="550.0049568000031" stroke="#26a69a" stroke-width="2"/><rect x="700" y="492.7878127999975" width="8" height="57.217144000005646" fill="#26a69a"/><line x1="716" y1="392.65781279999834" x2="716" y2="495.9665440000026" stroke="#26a69a" stroke-width="2"/><rect x="712" y="454.6430512000006" width="8" height="36.555396799994924" fill="#26a69a"/><line x1="728" y1="433.9813056000002" x2="728" y2="475.304796800001" stroke="#26a69a" stroke-width="2"/><rect x="724" y="448.28559040000073" width="8" height="14.304286400001729" fill="#26a69a"/><line x1="740" y1="411.73019359999665" x2="740" y2="465.7686063999972" stroke="#26a69a" stroke-width="2"/><rect x="736" y="443.51749600000403" width="8" height="2" fill="#26a69a"/><line x1="752" y1="433.9813056000002" x2="752" y2="473.71543199999905" stroke="#26a69a" stroke-width="2"/><rect x="748" y="443.51749600000403" width="8" height="2" fill="#26a69a"/><line x1="764" y1="414.9089232000006" x2="764" y2="448.28559040000073" stroke="#26a69a" stroke-width="2"/><rect x="760" y="426.03447999999844" width="8" height="11.125555200005692" fill="#26a69a"/><line x1="776" y1="364.0492400000039" x2="776" y2="438.749399999997" stroke="#26a69a" stroke-width="2"/><rect x="772" y="391.0684479999963" width="8" height="31.787300800006108" fill="#26a69a"/><line x1="788" y1="370.4067008000038" x2="788" y2="437.16003520000413" stroke="#ef5350" stroke-width="2"/><rect x="784" y="383.12162240000356" width="8" height="42.91285759999488" fill="#ef5350"/><line x1="800" y1="392.65781279999834" x2="800" y2="437.16003520000413" stroke="#26a69a" stroke-width="2"/><rect x="796" y="392.65781279999834" width="8" height="25.429841599998326" fill="#26a69a"/><line x1="812" y1="348.15559040000153" x2="812" y2="403.7833680000039" stroke="#26a69a" stroke-width="2"/><rect x="808" y="392.65781279999834" width="8" height="6.357459199998573" fill="#26a69a"/><line x1="824" y1="344.97685919999645" x2="824" y2="403.7833680000039" stroke="#26a69a" stroke-width="2"/><rect x="820" y="383.12162240000356" width="8" height="11.125555199996654" fill="#26a69a"/><line x1="836" y1="371.99606559999665" x2="836" y2="410.14082880000393" stroke="#ef5350" stroke-width="2"/><rect x="832" y="378.35352639999655" width="8" height="19.072380800007522" fill="#ef5350"/><line x1="848" y1="383.12162240000356" x2="848" y2="421.26638400000047" stroke="#ef5350" stroke-width="2"/><rect x="844" y="400.6046384000001" width="8" height="19.072380799998427" fill="#ef5350"/><line x1="860" y1="413.3195583999987" x2="860" y2="456.23241600000256" stroke="#ef5350" stroke-width="2"/><rect x="856" y="413.3195583999987" width="8" height="25.429841599998326" fill="#ef5350"/><line x1="872" y1="400.6046384000001" x2="872" y2="451.46432159999677" stroke="#26a69a" stroke-width="2"/><rect x="868" y="418.2465904000037" width="8" height="7.787889599994742" fill="#26a69a"/><line x1="884" y1="389.47908160000225" x2="884" y2="451.46432159999677" stroke="#ef5350" stroke-width="2"/><rect x="880" y="421.26638400000047" width="8" height="2" fill="#ef5350"/><line x1="896" y1="411.73019359999665" x2="896" y2="459.4111455999973" stroke="#ef5350" stroke-width="2"/><rect x="892" y="418.08765439999667" width="8" height="41.32349120000066" fill="#ef5350"/><line x1="908" y1="441.92812960000083" x2="908" y2="502.32400320000124" stroke="#26a69a" stroke-width="2"/><rect x="904" y="451.46432159999677" width="8" height="11.125555200005692" fill="#26a69a"/><line x1="920" y1="427.62384480000037" x2="920" y2="475.304796800001" stroke="#26a69a" stroke-width="2"/><rect x="916" y="427.62384480000037" width="8" height="22.251110400002233" fill="#26a69a"/><line x1="932" y1="419.67701919999854" x2="932" y2="476.8941616000029" stroke="#ef5350" stroke-width="2"/><rect x="928" y="426.03447999999844" width="8" height="17.48301600000559" fill="#ef5350"/><line x1="944" y1="435.57067040000226" x2="944" y2="470.5367024000043" stroke="#ef5350" stroke-width="2"/><rect x="940" y="453.0536863999987" width="8" height="4.768094400005793" fill="#ef5350"/><line x1="956" y1="405.3727327999968" x2="956" y2="480.07289279999895" stroke="#26a69a" stroke-width="2"/><rect x="952" y="418.08765439999667" width="8" height="36.55539680000396" fill="#26a69a"/><line x1="968" y1="368.8173360000019" x2="968" y2="430.8025744000043" stroke="#26a69a" stroke-width="2"/><rect x="964" y="379.9428911999985" width="8" height="41.323492800001986" fill="#26a69a"/><line x1="980" y1="365.63860639999797" x2="980" y2="437.16003520000413" stroke="#ef5350" stroke-width="2"/><rect x="976" y="379.9428911999985" width="8" height="19.072380799998427" fill="#ef5350"/><line x1="992" y1="399.0152719999969" x2="992" y2="508.68146400000114" stroke="#ef5350" stroke-width="2"/><rect x="988" y="399.0152719999969" width="8" height="31.787302400007377" fill="#ef5350"/><line x1="1004" y1="394.2471776000002" x2="1004" y2="491.19844799999555" stroke="#ef5350" stroke-width="2"/><rect x="1000" y="440.3387647999989" width="8" height="6.357460799999899" fill="#ef5350"/><line x1="1016" y1="453.0536863999987" x2="1016" y2="556.362417600003" stroke="#26a69a" stroke-width="2"/><rect x="1012" y="484.84098719999565" width="8" height="46.091588799999954" fill="#26a69a"/><line x1="1028" y1="429.21320960000224" x2="1028" y2="591.328449599996" stroke="#ef5350" stroke-width="2"/><rect x="1024" y="476.8941616000029" width="8" height="108.0768271999932" fill="#ef5350"/><line x1="1040" y1="449.8749552000026" x2="1040" y2="602.4540048000017" stroke="#26a69a" stroke-width="2"/><rect x="1036" y="451.46432159999677" width="8" height="120.79174720000083" fill="#26a69a"/><line x1="1052" y1="451.46432159999677" x2="1052" y2="646.9562271999985" stroke="#ef5350" stroke-width="2"/><rect x="1048" y="451.46432159999677" width="8" height="187.54507999999987" fill="#ef5350"/><line x1="1064" y1="522.9857504000029" x2="1064" y2="670.796704000004" stroke="#26a69a" stroke-width="2"/><rect x="1060" y="573.8454335999995" width="8" height="65.16396799999711" fill="#26a69a"/><line x1="1076" y1="538.8794015999974" x2="1076" y2="637.4200368000038" stroke="#ef5350" stroke-width="2"/><rect x="1072" y="577.0241632000034" width="8" height="25.429841599998326" fill="#ef5350"/><line x1="1088" y1="608.8114656000016" x2="1088" y2="750.2649584000028" stroke="#ef5350" stroke-width="2"/><rect x="1084" y="613.5795599999983" width="8" height="109.66619200000423" fill="#ef5350"/><line x1="1100" y1="708.9414656000008" x2="1100" y2="918.7376591999964" stroke="#ef5350" stroke-width="2"/><rect x="1096" y="718.4776559999955" width="8" height="66.75333440000031" fill="#ef5350"/><line x1="1112" y1="670.796704000004" x2="1112" y2="805.8927375999974" stroke="#26a69a" stroke-width="2"/><rect x="1108" y="780.4628959999991" width="8" height="12.714919999998529" fill="#26a69a"/><line x1="1124" y1="702.5840064000022" x2="1124" y2="796.3565456000015" stroke="#26a69a" stroke-width="2"/><rect x="1120" y="764.5692448000045" width="8" height="22.251110399993195" fill="#26a69a"/><line x1="1136" y1="721.6563872000006" x2="1136" y2="832.9119439999977" stroke="#26a69a" stroke-width="2"/><rect x="1132" y="753.4436879999976" width="8" height="4.768095999997968" fill="#26a69a"/><line x1="1148" y1="724.8351168000045" x2="1148" y2="820.3559599999971" stroke="#26a69a" stroke-width="2"/><rect x="1144" y="753.4436879999976" width="8" height="6.357460799999899" fill="#26a69a"/><line x1="1160" y1="607.2221007999997" x2="1160" y2="772.5160703999973" stroke="#26a69a" stroke-width="2"/><rect x="1156" y="643.7774976000037" width="8" height="109.66619039999387" fill="#26a69a"/><line x1="1172" y1="608.8114656000016" x2="1172" y2="747.0862287999989" stroke="#ef5350" stroke-width="2"/><rect x="1168" y="648.5455920000004" width="8" height="57.21714399999655" fill="#ef5350"/><line x1="1184" y1="653.3136879999984" x2="1184" y2="809.0714672000013" stroke="#26a69a" stroke-width="2"/><rect x="1180" y="662.8498784000021" width="8" height="52.449047999998584" fill="#26a69a"/><line x1="1196" y1="642.1881328000018" x2="1196" y2="748.6755936000009" stroke="#ef5350" stroke-width="2"/><rect x="1192" y="666.0286079999969" width="8" height="58.80650880000758" fill="#ef5350"/><line x1="1208" y1="696.2265456000023" x2="1208" y2="775.6948000000011" stroke="#26a69a" stroke-width="2"/><rect x="1204" y="726.4244815999973" width="8" height="4.768096000007063" fill="#26a69a"/><line x1="1220" y1="648.5455920000004" x2="1220" y2="728.0138480000005" stroke="#26a69a" stroke-width="2"/><rect x="1216" y="696.2265456000023" width="8" height="22.251110399993195" fill="#26a69a"/><line x1="1232" y1="672.3860687999968" x2="1232" y2="734.3713071999991" stroke="#ef5350" stroke-width="2"/><rect x="1228" y="691.4584496000043" width="8" height="41.32349279999289" fill="#ef5350"/><line x1="1244" y1="654.9030528000003" x2="1244" y2="791.5884511999957" stroke="#26a69a" stroke-width="2"/><rect x="1240" y="673.9754335999987" width="8" height="63.574604800005545" fill="#26a69a"/><line x1="1256" y1="632.6519407999967" x2="1256" y2="705.762735999997" stroke="#26a69a" stroke-width="2"/><rect x="1252" y="658.0817824000042" width="8" height="17.483015999996496" fill="#26a69a"/><line x1="1268" y1="619.9370207999982" x2="1268" y2="658.0817824000042" stroke="#26a69a" stroke-width="2"/><rect x="1264" y="627.8838464" width="8" height="30.19793600000412" fill="#26a69a"/><line x1="1280" y1="575.4347984000015" x2="1280" y2="681.9222592000006" stroke="#ef5350" stroke-width="2"/><rect x="1276" y="626.2944815999981" width="8" height="4.768094400005793" fill="#ef5350"/><line x1="1292" y1="510.2708288000031" x2="1292" y2="631.0625760000039" stroke="#26a69a" stroke-width="2"/><rect x="1288" y="546.8262271999993" width="8" height="84.23634880000463" fill="#26a69a"/><line x1="1304" y1="495.9665440000026" x2="1304" y2="578.6135279999962" stroke="#26a69a" stroke-width="2"/><rect x="1300" y="542.0581312000013" width="8" height="11.125555199996597" fill="#26a69a"/><line x1="1316" y1="521.3963856000009" x2="1316" y2="639.0094015999966" stroke="#ef5350" stroke-width="2"/><rect x="1312" y="548.4155920000012" width="8" height="84.23634879999554" fill="#ef5350"/><line x1="1328" y1="608.8114656000016" x2="1328" y2="742.318132800001" stroke="#ef5350" stroke-width="2"/><rect x="1324" y="619.9370207999982" width="8" height="93.77254080000057" fill="#ef5350"/><line x1="1340" y1="529.3432112000028" x2="1340" y2="713.7095615999988" stroke="#26a69a" stroke-width="2"/><rect x="1336" y="529.3432112000028" width="8" height="184.366350399996" fill="#26a69a"/><line x1="1352" y1="470.5367024000043" x2="1352" y2="564.3092431999958" stroke="#26a69a" stroke-width="2"/><rect x="1348" y="480.07289279999895" width="8" height="55.627777600002446" fill="#26a69a"/><line x1="1364" y1="468.94733760000236" x2="1364" y2="573.8454335999995" stroke="#ef5350" stroke-width="2"/><rect x="1360" y="483.2516224000028" width="8" height="28.608572799994363" fill="#ef5350"/><line x1="1376" y1="475.304796800001" x2="1376" y2="538.8794015999974" stroke="#26a69a" stroke-width="2"/><rect x="1372" y="508.68146400000114" width="8" height="3.1787311999960366" fill="#26a69a"/><line x1="1388" y1="386.3003519999983" x2="1388" y2="515.038924800001" stroke="#26a69a" stroke-width="2"/><rect x="1384" y="443.51749600000403" width="8" height="68.34269919999315" fill="#26a69a"/><line x1="1400" y1="379.9428911999985" x2="1400" y2="446.6962255999988" stroke="#26a69a" stroke-width="2"/><rect x="1396" y="395.83654240000214" width="8" height="50.85968319999665" fill="#26a69a"/><line x1="1412" y1="324.31511359999604" x2="1412" y2="406.9620975999987" stroke="#ef5350" stroke-width="2"/><rect x="1408" y="395.83654240000214" width="8" height="4.768095999997968" fill="#ef5350"/><line x1="1424" y1="392.65781279999834" x2="1424" y2="484.84098719999565" stroke="#ef5350" stroke-width="2"/><rect x="1420" y="402.19400320000204" width="8" height="49.27031839999472" fill="#ef5350"/><line x1="1436" y1="387.8897168000004" x2="1436" y2="454.6430512000006" stroke="#26a69a" stroke-width="2"/><rect x="1432" y="426.03447999999844" width="8" height="28.60857120000219" fill="#26a69a"/><line x1="1448" y1="410.14082880000393" x2="1448" y2="457.8217808000045" stroke="#ef5350" stroke-width="2"/><rect x="1444" y="424.4451136000043" width="8" height="15.893651199994622" fill="#ef5350"/><line x1="1460" y1="392.65781279999834" x2="1460" y2="448.28559040000073" stroke="#26a69a" stroke-width="2"/><rect x="1456" y="403.7833680000039" width="8" height="33.37666720000021" fill="#26a69a"/><line x1="1472" y1="376.7641616000037" x2="1472" y2="491.19844799999555" stroke="#ef5350" stroke-width="2"/><rect x="1468" y="400.6046384000001" width="8" height="77.87888959999691" fill="#ef5350"/><line x1="1484" y1="349.74495520000346" x2="1484" y2="480.07289279999895" stroke="#26a69a" stroke-width="2"/><rect x="1480" y="371.99606559999665" width="8" height="101.7193664000024" fill="#26a69a"/><line x1="1496" y1="300.47463679999964" x2="1496" y2="370.4067008000038" stroke="#26a69a" stroke-width="2"/><rect x="1492" y="308.4214624000015" width="8" height="58.80650879999854" fill="#26a69a"/><line x1="1508" y1="259.15114399999766" x2="1508" y2="314.7789232000014" stroke="#26a69a" stroke-width="2"/><rect x="1504" y="272.6607471999978" width="8" height="30.99261920000572" fill="#26a69a"/><line x1="1520" y1="241.50919200000317" x2="1520" y2="298.8852719999977" stroke="#26a69a" stroke-width="2"/><rect x="1516" y="249.614953600003" width="8" height="20.661747199992533" fill="#26a69a"/><line x1="1532" y1="243.2574928000031" x2="1532" y2="295.70654240000295" stroke="#ef5350" stroke-width="2"/><rect x="1528" y="254.38304960000096" width="8" height="15.09896800000206" fill="#ef5350"/><line x1="1544" y1="248.02558880000106" x2="1544" y2="322.7257488000032" stroke="#ef5350" stroke-width="2"/><rect x="1540" y="278.2235247999961" width="8" height="23.84047680000549" fill="#ef5350"/><line x1="1556" y1="292.5278111999978" x2="1556" y2="343.38749440000356" stroke="#ef5350" stroke-width="2"/><rect x="1552" y="295.70654240000295" width="8" height="6.35745919999863" fill="#ef5350"/><line x1="1568" y1="257.5617791999957" x2="1568" y2="310.0108272000034" stroke="#26a69a" stroke-width="2"/><rect x="1564" y="278.2235247999961" width="8" height="19.072382399999697" fill="#26a69a"/><line x1="1580" y1="265.50860479999756" x2="1580" y2="290.9384463999959" stroke="#26a69a" stroke-width="2"/><rect x="1576" y="272.6607471999978" width="8" height="2" fill="#26a69a"/><line x1="1592" y1="233.72130239999933" x2="1592" y2="279.8128911999993" stroke="#26a69a" stroke-width="2"/><rect x="1588" y="249.614953600003" width="8" height="30.197937599996294" fill="#26a69a"/><line x1="1604" y1="228.95320800000263" x2="1604" y2="265.50860479999756" stroke="#ef5350" stroke-width="2"/><rect x="1600" y="251.20431839999583" width="8" height="14.304286400001729" fill="#ef5350"/><line x1="1616" y1="244.8468591999972" x2="1616" y2="300.47463679999964" stroke="#26a69a" stroke-width="2"/><rect x="1612" y="249.614953600003" width="8" height="15.893651199994565" fill="#26a69a"/><line x1="1628" y1="147.8955872000006" x2="1628" y2="263.9192399999956" stroke="#26a69a" stroke-width="2"/><rect x="1624" y="154.2530480000005" width="8" height="90.59381119999671" fill="#26a69a"/><line x1="1640" y1="132.0019375999982" x2="1640" y2="178.09352479999689" stroke="#26a69a" stroke-width="2"/><rect x="1636" y="139.94876159999876" width="8" height="14.304286400001729" fill="#26a69a"/><line x1="1652" y1="120.87638080000033" x2="1652" y2="181.27225440000075" stroke="#ef5350" stroke-width="2"/><rect x="1648" y="141.53812800000196" width="8" height="20.66174560000036" fill="#ef5350"/><line x1="1664" y1="162.19987360000232" x2="1664" y2="236.90003360000446" stroke="#ef5350" stroke-width="2"/><rect x="1660" y="162.19987360000232" width="8" height="57.21714399999655" fill="#ef5350"/><line x1="1676" y1="203.5233664000043" x2="1676" y2="281.4022560000012" stroke="#ef5350" stroke-width="2"/><rect x="1672" y="221.0063824000008" width="8" height="50.85968319999665" fill="#ef5350"/><line x1="1688" y1="221.0063824000008" x2="1688" y2="299.0442079999957" stroke="#26a69a" stroke-width="2"/><rect x="1684" y="262.3298752000028" width="8" height="12.714919999998529" fill="#26a69a"/><line x1="1700" y1="241.66812800000116" x2="1700" y2="383.12162240000356" stroke="#ef5350" stroke-width="2"/><rect x="1696" y="263.9192399999956" width="8" height="93.77254080000057" fill="#ef5350"/><line x1="1712" y1="255.9724144000029" x2="1712" y2="384.71098719999645" stroke="#26a69a" stroke-width="2"/><rect x="1708" y="282.99162080000315" width="8" height="69.93206399999508" fill="#26a69a"/><line x1="1724" y1="273.4554303999994" x2="1724" y2="364.0492400000039" stroke="#ef5350" stroke-width="2"/><rect x="1720" y="279.8128911999993" width="8" height="73.11079359999894" fill="#ef5350"/><line x1="1736" y1="325.90447839999797" x2="1736" y2="426.03447999999844" stroke="#ef5350" stroke-width="2"/><rect x="1732" y="352.9236847999982" width="8" height="12.714921599999741" fill="#ef5350"/><line x1="1748" y1="367.2279712" x2="1748" y2="437.16003520000413" stroke="#ef5350" stroke-width="2"/><rect x="1744" y="371.99606559999665" width="8" height="57.21714400000559" fill="#ef5350"/><line x1="1760" y1="435.57067040000226" x2="1760" y2="508.68146400000114" stroke="#ef5350" stroke-width="2"/><rect x="1756" y="440.3387647999989" width="8" height="57.217144000005646" fill="#ef5350"/><line x1="1772" y1="437.16003520000413" x2="1772" y2="508.68146400000114" stroke="#26a69a" stroke-width="2"/><rect x="1768" y="461.0005120000005" width="8" height="39.734126399998786" fill="#26a69a"/><line x1="1784" y1="389.47908160000225" x2="1784" y2="476.0994800000026" stroke="#26a69a" stroke-width="2"/><rect x="1780" y="408.5514640000019" width="8" height="55.6277776000025" fill="#26a69a"/><line x1="1796" y1="408.5514640000019" x2="1796" y2="468.7884000000031" stroke="#ef5350" stroke-width="2"/><rect x="1792" y="408.5514640000019" width="8" height="46.09158719999874" fill="#ef5350"/><line x1="1808" y1="448.28559040000073" x2="1808" y2="561.1305119999997" stroke="#ef5350" stroke-width="2"/><rect x="1804" y="461.0005120000005" width="8" height="68.34269920000224" fill="#ef5350"/><line x1="1820" y1="465.7686063999972" x2="1820" y2="573.8454335999995" stroke="#26a69a" stroke-width="2"/><rect x="1816" y="467.35797119999916" width="8" height="61.985240000003614" fill="#26a69a"/><line x1="1832" y1="416.4982880000025" x2="1832" y2="489.6090832000027" stroke="#26a69a" stroke-width="2"/><rect x="1828" y="427.62384480000037" width="8" height="44.502222399996754" fill="#26a69a"/><line x1="1844" y1="395.83654240000214" x2="1844" y2="432.391939199997" stroke="#26a69a" stroke-width="2"/><rect x="1840" y="399.0152719999969" width="8" height="30.197937600005332" fill="#26a69a"/><line x1="1856" y1="360.8705104" x2="1856" y2="445.10686079999687" stroke="#ef5350" stroke-width="2"/><rect x="1852" y="394.2471776000002" width="8" height="47.680952000000616" fill="#ef5350"/><line x1="1868" y1="419.67701919999854" x2="1868" y2="484.84098719999565" stroke="#ef5350" stroke-width="2"/><rect x="1864" y="430.8025744000043" width="8" height="28.608571199993037" fill="#ef5350"/><line x1="1880" y1="378.35352639999655" x2="1880" y2="513.4495599999991" stroke="#26a69a" stroke-width="2"/><rect x="1876" y="378.35352639999655" width="8" height="85.82571520000783" fill="#26a69a"/><line x1="1892" y1="313.18955839999944" x2="1892" y2="379.9428911999985" stroke="#26a69a" stroke-width="2"/><rect x="1888" y="352.9236847999982" width="8" height="27.019206400000257" fill="#26a69a"/><line x1="1904" y1="313.18955839999944" x2="1904" y2="376.7641616000037" stroke="#ef5350" stroke-width="2"/><rect x="1900" y="352.9236847999982" width="8" height="11.125555200005692" fill="#ef5350"/><line x1="1916" y1="335.44066880000173" x2="1916" y2="441.92812960000083" stroke="#ef5350" stroke-width="2"/><rect x="1912" y="364.0492400000039" width="8" height="55.62777919999462" fill="#ef5350"/><line x1="1928" y1="421.26638400000047" x2="1928" y2="627.8838464" stroke="#ef5350" stroke-width="2"/><rect x="1924" y="426.03447999999844" width="8" height="201.8493664000016" fill="#ef5350"/><line x1="1940" y1="515.038924800001" x2="1940" y2="681.9222592000006" stroke="#26a69a" stroke-width="2"/><rect x="1936" y="553.1836863999979" width="8" height="77.878889600006" fill="#26a69a"/><rect x="75" y="981.0036019213352" width="10" height="38.99639807866481" fill="#ef5350" opacity="0.9"/><rect x="87" y="988.9214259603765" width="10" height="31.078574039623504" fill="#26a69a" opacity="0.9"/><rect x="99" y="997.9893269506139" width="10" height="22.010673049386128" fill="#ef5350" opacity="0.9"/><rect x="111" y="1003.0820758429124" width="10" height="16.917924157087555" fill="#26a69a" opacity="0.9"/><rect x="123" y="998.0120281354993" width="10" height="21.98797186450065" fill="#26a69a" opacity="0.9"/><rect x="135" y="980.5485304766318" width="10" height="39.451469523368246" fill="#26a69a" opacity="0.9"/><rect x="147" y="982.7299397196228" width="10" height="37.27006028037715" fill="#ef5350" opacity="0.9"/><rect x="159" y="989.6125897278885" width="10" height="30.387410272111538" fill="#26a69a" opacity="0.9"/><rect x="171" y="996.5203856640271" width="10" height="23.479614335972883" fill="#26a69a" opacity="0.9"/><rect x="183" y="1001.7011453038815" width="10" height="18.298854696118497" fill="#ef5350" opacity="0.9"/><rect x="195" y="999.8012307534698" width="10" height="20.19876924653022" fill="#26a69a" opacity="0.9"/><rect x="207" y="1000.7651579886052" width="10" height="19.23484201139479" fill="#26a69a" opacity="0.9"/><rect x="219" y="995.0902110162448" width="10" height="24.90978898375522" fill="#26a69a" opacity="0.9"/><rect x="231" y="1001.7189570027916" width="10" height="18.281042997208374" fill="#ef5350" opacity="0.9"/><rect x="243" y="994.3979995017381" width="10" height="25.602000498261873" fill="#ef5350" opacity="0.9"/><rect x="255" y="993.2674804944435" width="10" height="26.732519505556525" fill="#26a69a" opacity="0.9"/><rect x="267" y="996.0806811752461" width="10" height="23.919318824753873" fill="#ef5350" opacity="0.9"/><rect x="279" y="985.2567562218709" width="10" height="34.74324377812911" fill="#ef5350" opacity="0.9"/><rect x="291" y="1003.1058247747926" width="10" height="16.89417522520739" fill="#26a69a" opacity="0.9"/><rect x="303" y="1001.8090632443369" width="10" height="18.190936755663074" fill="#ef5350" opacity="0.9"/><rect x="315" y="993.3380287920875" width="10" height="26.66197120791253" fill="#ef5350" opacity="0.9"/><rect x="327" y="992.7212550612" width="10" height="27.278744938799946" fill="#26a69a" opacity="0.9"/><rect x="339" y="1000.1787689205645" width="10" height="19.821231079435506" fill="#ef5350" opacity="0.9"/><rect x="351" y="994.8150028056336" width="10" height="25.18499719436636" fill="#26a69a" opacity="0.9"/><rect x="363" y="1003.0164170312438" width="10" height="16.983582968756195" fill="#ef5350" opacity="0.9"/><rect x="375" y="1000.706134907903" width="10" height="19.293865092097008" fill="#ef5350" opacity="0.9"/><rect x="387" y="1000.5601488266398" width="10" height="19.43985117336024" fill="#ef5350" opacity="0.9"/><rect x="399" y="993.4424542425604" width="10" height="26.557545757439584" fill="#ef5350" opacity="0.9"/><rect x="411" y="988.9277124423448" width="10" height="31.07228755765516" fill="#26a69a" opacity="0.9"/><rect x="423" y="1001.9540015786055" width="10" height="18.04599842139453" fill="#ef5350" opacity="0.9"/><rect x="435" y="998.5599998137338" width="10" height="21.44000018626616" fill="#26a69a" opacity="0.9"/><rect x="447" y="1000.6348881122626" width="10" height="19.365111887737385" fill="#ef5350" opacity="0.9"/><rect x="459" y="1002.7551787805622" width="10" height="17.244821219437767" fill="#ef5350" opacity="0.9"/><rect x="471" y="1003.1037292808032" width="10" height="16.896270719196764" fill="#ef5350" opacity="0.9"/><rect x="483" y="999.0960970260284" width="10" height="20.90390297397164" fill="#ef5350" opacity="0.9"/><rect x="495" y="993.363873217957" width="10" height="26.636126782042993" fill="#26a69a" opacity="0.9"/><rect x="507" y="997.3561385168093" width="10" height="22.643861483190676" fill="#26a69a" opacity="0.9"/><rect x="519" y="1001.5104553508439" width="10" height="18.489544649156073" fill="#ef5350" opacity="0.9"/><rect x="531" y="1000.6994991769366" width="10" height="19.30050082306343" fill="#ef5350" opacity="0.9"/><rect x="543" y="996.6118889015653" width="10" height="23.388111098434706" fill="#ef5350" opacity="0.9"/><rect x="555" y="999.1174012149208" width="10" height="20.882598785079153" fill="#ef5350" opacity="0.9"/><rect x="567" y="990.1343677312552" width="10" height="29.865632268744776" fill="#ef5350" opacity="0.9"/><rect x="579" y="985.5529193723762" width="10" height="34.44708062762379" fill="#26a69a" opacity="0.9"/><rect x="591" y="990.1553226711495" width="10" height="29.84467732885048" fill="#26a69a" opacity="0.9"/><rect x="603" y="986.0844763476937" width="10" height="33.91552365230632" fill="#26a69a" opacity="0.9"/><rect x="615" y="993.9387370690558" width="10" height="26.061262930944167" fill="#26a69a" opacity="0.9"/><rect x="627" y="995.6772985822819" width="10" height="24.32270141771812" fill="#ef5350" opacity="0.9"/><rect x="639" y="998.6776967261399" width="10" height="21.322303273860143" fill="#26a69a" opacity="0.9"/><rect x="651" y="991.0137767088171" width="10" height="28.98622329118291" fill="#26a69a" opacity="0.9"/><rect x="663" y="994.289033814288" width="10" height="25.710966185711982" fill="#ef5350" opacity="0.9"/><rect x="675" y="990.732631265236" width="10" height="29.267368734763977" fill="#26a69a" opacity="0.9"/><rect x="687" y="1005.6825838837885" width="10" height="14.317416116211461" fill="#ef5350" opacity="0.9"/><rect x="699" y="999.3164731439163" width="10" height="20.683526856083745" fill="#26a69a" opacity="0.9"/><rect x="711" y="994.4217484336183" width="10" height="25.57825156638171" fill="#26a69a" opacity="0.9"/><rect x="723" y="999.1523261147446" width="10" height="20.847673885255404" fill="#26a69a" opacity="0.9"/><rect x="735" y="993.4026398567613" width="10" height="26.59736014323869" fill="#26a69a" opacity="0.9"/><rect x="747" y="990.2716225875625" width="10" height="29.728377412437453" fill="#26a69a" opacity="0.9"/><rect x="759" y="999.9028622119569" width="10" height="20.097137788043142" fill="#26a69a" opacity="0.9"/><rect x="771" y="998.8788641491246" width="10" height="21.121135850875362" fill="#26a69a" opacity="0.9"/><rect x="783" y="1000.3778408495598" width="10" height="19.62215915044021" fill="#ef5350" opacity="0.9"/><rect x="795" y="1002.7663547485058" width="10" height="17.23364525149418" fill="#26a69a" opacity="0.9"/><rect x="807" y="995.4467942434452" width="10" height="24.553205756554803" fill="#26a69a" opacity="0.9"/><rect x="819" y="1005.4852581997844" width="10" height="14.514741800215575" fill="#26a69a" opacity="0.9"/><rect x="831" y="1003.2263156791845" width="10" height="16.773684320815505" fill="#ef5350" opacity="0.9"/><rect x="843" y="1001.6763486250067" width="10" height="18.323651374993347" fill="#ef5350" opacity="0.9"/><rect x="855" y="1003.6775453849074" width="10" height="16.322454615092624" fill="#ef5350" opacity="0.9"/><rect x="867" y="1004.2632359549515" width="10" height="15.736764045048517" fill="#26a69a" opacity="0.9"/><rect x="879" y="990.1224932653151" width="10" height="29.877506734684857" fill="#ef5350" opacity="0.9"/><rect x="891" y="1001.0068382953855" width="10" height="18.993161704614522" fill="#ef5350" opacity="0.9"/><rect x="903" y="991.456275189584" width="10" height="28.54372481041605" fill="#26a69a" opacity="0.9"/><rect x="915" y="1000.4033360264311" width="10" height="19.596663973568866" fill="#26a69a" opacity="0.9"/><rect x="927" y="991.8523235535853" width="10" height="28.14767644641472" fill="#ef5350" opacity="0.9"/><rect x="939" y="975.9590493907933" width="10" height="44.040950609206675" fill="#ef5350" opacity="0.9"/><rect x="951" y="994.2953202962563" width="10" height="25.70467970374375" fill="#26a69a" opacity="0.9"/><rect x="963" y="984.8855045367445" width="10" height="35.11449546325548" fill="#26a69a" opacity="0.9"/><rect x="975" y="989.9464717702035" width="10" height="30.053528229796484" fill="#ef5350" opacity="0.9"/><rect x="987" y="957.863411045116" width="10" height="62.13658895488402" fill="#ef5350" opacity="0.9"/><rect x="999" y="860.0" width="10" height="160.0" fill="#ef5350" opacity="0.9"/><rect x="1011" y="980.2240781572691" width="10" height="39.775921842730895" fill="#26a69a" opacity="0.9"/><rect x="1023" y="993.2514150405245" width="10" height="26.748584959475465" fill="#ef5350" opacity="0.9"/><rect x="1035" y="995.9158356480781" width="10" height="24.084164351921913" fill="#26a69a" opacity="0.9"/><rect x="1047" y="990.6599874736025" width="10" height="29.34001252639746" fill="#ef5350" opacity="0.9"/><rect x="1059" y="993.5989177937709" width="10" height="26.401082206229148" fill="#26a69a" opacity="0.9"/><rect x="1071" y="993.0551371035151" width="10" height="26.944862896484892" fill="#ef5350" opacity="0.9"/><rect x="1083" y="990.7982900769047" width="10" height="29.201709923095336" fill="#ef5350" opacity="0.9"/><rect x="1095" y="973.8880028312452" width="10" height="46.11199716875478" fill="#ef5350" opacity="0.9"/><rect x="1107" y="995.0793842972994" width="10" height="24.920615702700616" fill="#26a69a" opacity="0.9"/><rect x="1119" y="1004.7287848696021" width="10" height="15.271215130397877" fill="#26a69a" opacity="0.9"/><rect x="1131" y="1000.1592109766632" width="10" height="19.84078902333681" fill="#26a69a" opacity="0.9"/><rect x="1143" y="1003.2860372578831" width="10" height="16.713962742116905" fill="#26a69a" opacity="0.9"/><rect x="1155" y="989.708982451402" width="10" height="30.291017548598006" fill="#26a69a" opacity="0.9"/><rect x="1167" y="1000.5367491437579" width="10" height="19.463250856242098" fill="#ef5350" opacity="0.9"/><rect x="1179" y="997.7340259329023" width="10" height="22.26597406709766" fill="#26a69a" opacity="0.9"/><rect x="1191" y="1004.7270386246108" width="10" height="15.272961375389173" fill="#ef5350" opacity="0.9"/><rect x="1203" y="1003.3656660294813" width="10" height="16.634333970518696" fill="#26a69a" opacity="0.9"/><rect x="1215" y="1003.4851091868785" width="10" height="16.514890813121497" fill="#26a69a" opacity="0.9"/><rect x="1227" y="1007.2514103838712" width="10" height="12.748589616128811" fill="#ef5350" opacity="0.9"/><rect x="1239" y="1005.1845548123019" width="10" height="14.81544518769806" fill="#26a69a" opacity="0.9"/><rect x="1251" y="1002.6779947519517" width="10" height="17.3220052480483" fill="#26a69a" opacity="0.9"/><rect x="1263" y="1005.9368371545054" width="10" height="14.063162845494617" fill="#26a69a" opacity="0.9"/><rect x="1275" y="997.9680227617214" width="10" height="22.031977238278614" fill="#ef5350" opacity="0.9"/><rect x="1287" y="1000.1033311369451" width="10" height="19.896668863054856" fill="#26a69a" opacity="0.9"/><rect x="1299" y="1002.8498252590846" width="10" height="17.150174740915418" fill="#26a69a" opacity="0.9"/><rect x="1311" y="1004.0840712188557" width="10" height="15.915928781144316" fill="#ef5350" opacity="0.9"/><rect x="1323" y="1000.8894906319777" width="10" height="19.11050936802235" fill="#ef5350" opacity="0.9"/><rect x="1335" y="1001.4626082380854" width="10" height="18.53739176191459" fill="#26a69a" opacity="0.9"/><rect x="1347" y="993.3946071298019" width="10" height="26.605392870198102" fill="#26a69a" opacity="0.9"/><rect x="1359" y="986.1896002961631" width="10" height="33.81039970383688" fill="#ef5350" opacity="0.9"/><rect x="1371" y="1001.585543885465" width="10" height="18.414456114535028" fill="#26a69a" opacity="0.9"/><rect x="1383" y="984.8771225607868" width="10" height="35.1228774392132" fill="#26a69a" opacity="0.9"/><rect x="1395" y="994.5963729327369" width="10" height="25.403627067263074" fill="#26a69a" opacity="0.9"/><rect x="1407" y="992.9217239861883" width="10" height="27.07827601381166" fill="#ef5350" opacity="0.9"/><rect x="1419" y="1000.0464035502325" width="10" height="19.953596449767474" fill="#ef5350" opacity="0.9"/><rect x="1431" y="999.4848111610667" width="10" height="20.51518883893334" fill="#26a69a" opacity="0.9"/><rect x="1443" y="999.7931980265104" width="10" height="20.206801973489632" fill="#ef5350" opacity="0.9"/><rect x="1455" y="1000.4997287499447" width="10" height="19.500271250055334" fill="#26a69a" opacity="0.9"/><rect x="1467" y="1003.4267846041728" width="10" height="16.57321539582722" fill="#ef5350" opacity="0.9"/><rect x="1479" y="993.0725995534269" width="10" height="26.927400446573074" fill="#26a69a" opacity="0.9"/><rect x="1491" y="997.7137694910045" width="10" height="22.28623050899546" fill="#26a69a" opacity="0.9"/><rect x="1503" y="1000.6471118272009" width="10" height="19.352888172799112" fill="#26a69a" opacity="0.9"/><rect x="1515" y="1002.5781095384558" width="10" height="17.421890461544194" fill="#26a69a" opacity="0.9"/><rect x="1527" y="994.4779775223345" width="10" height="25.522022477665473" fill="#ef5350" opacity="0.9"/><rect x="1539" y="995.8250309085363" width="10" height="24.17496909146371" fill="#ef5350" opacity="0.9"/><rect x="1551" y="1004.8999168787384" width="10" height="15.100083121261605" fill="#ef5350" opacity="0.9"/><rect x="1563" y="1005.169886354376" width="10" height="14.83011364562401" fill="#26a69a" opacity="0.9"/><rect x="1575" y="1007.3963487181397" width="10" height="12.603651281860266" fill="#26a69a" opacity="0.9"/><rect x="1587" y="1004.6704602868964" width="10" height="15.3295397131036" fill="#26a69a" opacity="0.9"/><rect x="1599" y="1002.8257270782061" width="10" height="17.174272921793886" fill="#ef5350" opacity="0.9"/><rect x="1611" y="997.8552153352907" width="10" height="22.144784664709277" fill="#26a69a" opacity="0.9"/><rect x="1623" y="988.7415627262842" width="10" height="31.2584372737158" fill="#26a69a" opacity="0.9"/><rect x="1635" y="996.4009425066299" width="10" height="23.599057493370083" fill="#26a69a" opacity="0.9"/><rect x="1647" y="995.3968516366972" width="10" height="24.603148363302807" fill="#ef5350" opacity="0.9"/><rect x="1659" y="1000.8234825713108" width="10" height="19.17651742868918" fill="#ef5350" opacity="0.9"/><rect x="1671" y="988.0434139788076" width="10" height="31.95658602119238" fill="#ef5350" opacity="0.9"/><rect x="1683" y="994.6931149052488" width="10" height="25.306885094751237" fill="#26a69a" opacity="0.9"/><rect x="1695" y="1000.1756256795803" width="10" height="19.82437432041968" fill="#ef5350" opacity="0.9"/><rect x="1707" y="994.4832162573081" width="10" height="25.516783742691928" fill="#26a69a" opacity="0.9"/><rect x="1719" y="998.9997043025148" width="10" height="21.00029569748517" fill="#ef5350" opacity="0.9"/><rect x="1731" y="990.2775598205326" width="10" height="29.722440179467412" fill="#ef5350" opacity="0.9"/><rect x="1743" y="994.0396700295464" width="10" height="25.960329970453586" fill="#ef5350" opacity="0.9"/><rect x="1755" y="996.202569075631" width="10" height="23.797430924368996" fill="#ef5350" opacity="0.9"/><rect x="1767" y="1000.3991450384523" width="10" height="19.600854961547725" fill="#26a69a" opacity="0.9"/><rect x="1779" y="998.1943361125792" width="10" height="21.805663887420792" fill="#26a69a" opacity="0.9"/><rect x="1791" y="1000.9404809857203" width="10" height="19.059519014279658" fill="#ef5350" opacity="0.9"/><rect x="1803" y="998.1849063896268" width="10" height="21.815093610373196" fill="#ef5350" opacity="0.9"/><rect x="1815" y="999.4977333740014" width="10" height="20.502266625998573" fill="#26a69a" opacity="0.9"/><rect x="1827" y="1000.3844765805263" width="10" height="19.615523419473675" fill="#26a69a" opacity="0.9"/><rect x="1839" y="1000.8591059691311" width="10" height="19.140894030868935" fill="#26a69a" opacity="0.9"/><rect x="1851" y="1000.2660811701238" width="10" height="19.73391882987619" fill="#ef5350" opacity="0.9"/><rect x="1863" y="1002.5470263776127" width="10" height="17.452973622387276" fill="#ef5350" opacity="0.9"/><rect x="1875" y="980.7311877027099" width="10" height="39.26881229729008" fill="#26a69a" opacity="0.9"/><rect x="1887" y="1002.8131541142697" width="10" height="17.18684588573035" fill="#26a69a" opacity="0.9"/><rect x="1899" y="998.9892268325677" width="10" height="21.010773167432262" fill="#ef5350" opacity="0.9"/><rect x="1911" y="994.6808911903105" width="10" height="25.31910880968951" fill="#ef5350" opacity="0.9"/><rect x="1923" y="971.9143967422053" width="10" height="48.08560325779467" fill="#ef5350" opacity="0.9"/><rect x="1935" y="873.7523778035963" width="10" height="146.24762219640365" fill="#26a69a" opacity="0.9"/><rect x="1004" y="446.6962255999988" width="12" height="84.23635039999681" fill="#ff2400" opacity="0.60"/><polyline points="320,350.40340601904967,332,354.276267160094,344,368.20954670674837,356,376.44130903943733,368,384.49456646425466,380,399.3492521724147,392,413.69741451790105,404,430.32705656381955,416,430.67508028155316,428,442.0398304261653,440,448.38665267129727,452,458.67005885498656,464,470.39598269736416,476,481.6106241928537,488,493.1195175840094,500,497.47760177600867,512,500.51242172115053,524,504.92326033818244,536,515.7255837345474,548,530.1915257026849,560,544.7934398262441,572,578.2880214808847,584,606.7762257588947,596,628.7670650580458,608,640.1869249191896,620,642.0425652887843,632,648.4138891279508,644,651.6051624681495,656,645.4104187664234,668,640.4111231124716,680,629.8332267398564,692,621.625061907489,704,609.3548477067725,716,594.6203908966072,728,580.6837432302564,740,567.6202911130895,752,555.8009772928017,764,543.4422632649148,776,528.9304713349247,788,519.130853112556,800,507.08580165421154,812,496.1878979538051,824,485.419681234398,836,477.03932180254924,848,471.5762453642128,860,468.4498791390524,872,463.6686135448599,884,459.7816740453436,896,459.7463856219838,908,458.9576176198898,920,455.973448779896,932,454.787167562763,944,455.0761783472626,956,451.5534617808589,968,444.7334074398259,980,440.3792993026945,992,439.4672302643448,1004,440.15570601060057,1016,444.41144707625426,1028,457.7980700975604,1040,457.19485595494007,1052,474.51052696876104,1064,483.97099426697423,1076,495.2550905082171,1088,516.9684868407694,1100,542.5172967035542,1112,565.1787823508403,1124,584.1683502031356,1136,600.2898109456873,1148,614.8758944746623,1160,617.6284281056451,1172,626.0221717146305,1184,629.52957235133,1196,638.6062908702479,1208,646.969928082608,1220,651.6610345128356,1232,659.3868352639947,1244,660.7762255817124,1256,660.5196119453558,1268,657.4114437981734,1280,654.9020278173975,1292,644.6090944252592,1304,634.8423360228571,1316,634.6337269540163,1328,642.1647588250653,1340,631.4198495274377,1352,617.005853648634,1364,606.9919814154309,1376,597.6290749949203,1388,582.9517817573105,1400,565.131282770908,1412,549.4620785451116,1424,540.1289588360578,1436,529.2628179945314,1448,520.7938605474283,1460,509.6500041143463,1472,506.68176829393815,1484,493.8545585135671,1496,476.1942636456115,1508,456.8101192222184,1520,437.07724630581646,1532,421.1157959528828,1544,409.7775298240412,1556,399.5190985646059,1568,387.96713915845424,1580,376.9855780195575,1592,364.8550423605502,1604,355.39347687858935,1616,345.31933180443957,1628,327.1225428706839,1640,309.2964684639537,1652,295.28726895309774,1664,288.0615307289918,1676,286.5191054786101,1688,284.21536926160115,1700,291.21312274144657,1712,290.43012255654503,1724,296.381890389257,1736,302.97776810456526,1748,315.0001911041272,1760,332.3864499323008,1772,344.635408224467,1784,350.7226516316587,1796,360.619832542925,1808,376.68872574836314,1820,385.3238919818523,1832,389.3524589169101,1844,390.2727268295894,1856,395.19228899820524,1868,401.3083705793269,1880,399.1221949431929,1892,394.7223368343112,1904,391.8010895167572,1916,394.45593996278154,1928,416.6871691472716,1940,429.68683745704766" fill="none" stroke="#0090ff" stroke-width="2"/><line x1="80" y1="50" x2="80" y2="900" stroke="#666666" stroke-width="0.5" stroke-dasharray="4,4" opacity="0.90"/><line x1="152" y1="50" x2="152" y2="900" stroke="#666666" stroke-width="0.5" stroke-dasharray="4,4" opacity="0.90"/><line x1="224" y1="50" x2="224" y2="900" stroke="#666666" stroke-width="0.5" stroke-dasharray="4,4" opacity="0.90"/><line x1="296" y1="50" x2="296" y2="900" stroke="#666666" stroke-width="0.5" stroke-dasharray="4,4" opacity="0.90"/><line x1="368" y1="50" x2="368" y2="900" stroke="#666666" stroke-width="0.5" stroke-dasharray="4,4" opacity="0.90"/><line x1="440" y1="50" x2="440" y2="900" stroke="#666666" stroke-width="0.5" stroke-dasharray="4,4" opacity="0.90"/><line x1="512" y1="50" x2="512" y2="900" stroke="#666666" stroke-width="0.5" stroke-dasharray="4,4" opacity="0.90"/><line x1="584" y1="50" x2="584" y2="900" stroke="#666666" stroke-width="0.5" stroke-dasharray="4,4" opacity="0.90"/><line x1="656" y1="50" x2="656" y2="900" stroke="#666666" stroke-width="0.5" stroke-dasharray="4,4" opacity="0.90"/><line x1="728" y1="50" x2="728" y2="900" stroke="#666666" stroke-width="0.5" stroke-dasharray="4,4" opacity="0.90"/><line x1="800" y1="50" x2="800" y2="900" stroke="#666666" stroke-width="0.5" stroke-dasharray="4,4" opacity="0.90"/><line x1="872" y1="50" x2="872" y2="900" stroke="#666666" stroke-width="0.5" stroke-dasharray="4,4" opacity="0.90"/><line x1="944" y1="50" x2="944" y2="900" stroke="#666666" stroke-width="0.5" stroke-dasharray="4,4" opacity="0.90"/><line x1="1010" y1="30" x2="1010" y2="950" stroke="black" stroke-width="0.7"/><line x1="1016" y1="50" x2="1016" y2="900" stroke="#666666" stroke-width="0.5" stroke-dasharray="4,4" opacity="0.90"/><line x1="1088" y1="50" x2="1088" y2="900" stroke="#666666" stroke-width="0.5" stroke-dasharray="4,4" opacity="0.90"/><line x1="1160" y1="50" x2="1160" y2="900" stroke="#666666" stroke-width="0.5" stroke-dasharray="4,4" opacity="0.90"/><line x1="1232" y1="50" x2="1232" y2="900" stroke="#666666" stroke-width="0.5" stroke-dasharray="4,4" opacity="0.90"/><line x1="1304" y1="50" x2="1304" y2="900" stroke="#666666" stroke-width="0.5" stroke-dasharray="4,4" opacity="0.90"/><line x1="1376" y1="50" x2="1376" y2="900" stroke="#666666" stroke-width="0.5" stroke-dasharray="4,4" opacity="0.90"/><line x1="1448" y1="50" x2="1448" y2="900" stroke="#666666" stroke-width="0.5" stroke-dasharray="4,4" opacity="0.90"/><line x1="1520" y1="50" x2="1520" y2="900" stroke="#666666" stroke-width="0.5" stroke-dasharray="4,4" opacity="0.90"/><line x1="1592" y1="50" x2="1592" y2="900" stroke="#666666" stroke-width="0.5" stroke-dasharray="4,4" opacity="0.90"/><line x1="1664" y1="50" x2="1664" y2="900" stroke="#666666" stroke-width="0.5" stroke-dasharray="4,4" opacity="0.90"/><line x1="1736" y1="50" x2="1736" y2="900" stroke="#666666" stroke-width="0.5" stroke-dasharray="4,4" opacity="0.90"/><line x1="1808" y1="50" x2="1808" y2="900" stroke="#666666" stroke-width="0.5" stroke-dasharray="4,4" opacity="0.90"/><line x1="1880" y1="50" x2="1880" y2="900" stroke="#666666" stroke-width="0.5" stroke-dasharray="4,4" opacity="0.90"/><line x1="1946" y1="30" x2="1946" y2="950" stroke="black" stroke-width="0.7"/><text x="80" y="1040" text-anchor="middle" font-size="20" fill="black">09:30</text><text x="152" y="1040" text-anchor="middle" font-size="20" fill="black">10:00</text><text x="224" y="1040" text-anchor="middle" font-size="20" fill="black">10:30</text><text x="296" y="1040" text-anchor="middle" font-size="20" fill="black">11:00</text><text x="368" y="1040" text-anchor="middle" font-size="20" fill="black">11:30</text><text x="440" y="1040" text-anchor="middle" font-size="20" fill="black">12:00</text><text x="512" y="1040" text-anchor="middle" font-size="20" fill="black">12:30</text><text x="584" y="1040" text-anchor="middle" font-size="20" fill="black">13:00</text><text x="656" y="1040" text-anchor="middle" font-size="20" fill="black">13:30</text><text x="728" y="1040" text-anchor="middle" font-size="20" fill="black">14:00</text><text x="800" y="1040" text-anchor="middle" font-size="20" fill="black">14:30</text><text x="872" y="1040" text-anchor="middle" font-size="20" fill="black">15:00</text><text x="944" y="1040" text-anchor="middle" font-size="20" fill="black">15:30</text><text x="1016" y="1040" text-anchor="middle" font-size="20" fill="black">09:30</text><text x="1088" y="1040" text-anchor="middle" font-size="20" fill="black">10:00</text><text x="1160" y="1040" text-anchor="middle" font-size="20" fill="black">10:30</text><text x="1232" y="1040" text-anchor="middle" font-size="20" fill="black">11:00</text><text x="1304" y="1040" text-anchor="middle" font-size="20" fill="black">11:30</text><text x="1376" y="1040" text-anchor="middle" font-size="20" fill="black">12:00</text><text x="1448" y="1040" text-anchor="middle" font-size="20" fill="black">12:30</text><text x="1520" y="1040" text-anchor="middle" font-size="20" fill="black">13:00</text><text x="1592" y="1040" text-anchor="middle" font-size="20" fill="black">13:30</text><text x="1664" y="1040" text-anchor="middle" font-size="20" fill="black">14:00</text><text x="1736" y="1040" text-anchor="middle" font-size="20" fill="black">14:30</text><text x="1808" y="1040" text-anchor="middle" font-size="20" fill="black">15:00</text><text x="1880" y="1040" text-anchor="middle" font-size="20" fill="black">15:30</text><text x="1942" y="50" text-anchor="end" font-size="40" fill="#ef5350" font-weight="bold"> -0.03% (Wed)</text></svg>