<svg xmlns="http://www.w3.org/2000/svg" width="1992" height="1050"><rect width="100%" height="100%" fill="white"/><text x="42" y="854.0" text-anchor="end" font-size="20" fill="black">433</text><text x="42" y="765.1111111111111" text-anchor="end" font-size="20" fill="black">434</text><text x="42" y="676.2222222222222" text-anchor="end" font-size="20" fill="black">435</text><text x="42" y="587.3333333333334" text-anchor="end" font-size="20" fill="black">436</text><text x="42" y="498.44444444444446" text-anchor="end" font-size="20" fill="black">437</text><text x="42" y="409.55555555555554" text-anchor="end" font-size="20" fill="black">438</text><text x="42" y="320.66666666666674" text-anchor="end" font-size="20" fill="black">439</text><text x="42" y="231.77777777777771" text-anchor="end" font-size="20" fill="black">440</text><text x="42" y="142.8888888888889" text-anchor="end" font-size="20" fill="black">441</text><text x="42" y="54.0" text-anchor="end" font-size="20" fill="black">442</text><line x1="80" y1="808.0156373333315" x2="80" y2="908.3747937777794" stroke="#26a69a" stroke-width="2"/><rect x="76" y="836.1866284444457" width="8" height="31.692365333330827" fill="#26a69a"/><line x1="92" y1="758.7164026666667" x2="92" y2="844.1097200000008" stroke="#26a69a" stroke-width="2"/><rect x="88" y="770.1608684444434" width="8" height="66.02576000000226" fill="#26a69a"/><line x1="104" y1="745.5112506666662" x2="104" y2="837.9473155555539" stroke="#26a69a" stroke-width="2"/><rect x="100" y="756.9557155555534" width="8" height="16.72652622222199" fill="#26a69a"/><line x1="116" y1="756.0753724444465" x2="116" y2="931.2637244444431" stroke="#ef5350" stroke-width="2"/><rect x="112" y="756.9557155555534" width="8" height="138.2139262222255" fill="#ef5350"/><line x1="128" y1="738.4685031111126" x2="128" y2="902.2123893333325" stroke="#26a69a" stroke-width="2"/><rect x="124" y="754.3146853333333" width="8" height="139.09426933333225" fill="#26a69a"/><line x1="140" y1="720.8616337777787" x2="140" y2="799.2122026666644" stroke="#ef5350" stroke-width="2"/><rect x="136" y="758.7164026666667" width="8" height="22.888930666668898" fill="#ef5350"/><line x1="152" y1="754.3146853333333" x2="152" y2="846.750750222221" stroke="#ef5350" stroke-width="2"/><rect x="148" y="780.7249902222237" width="8" height="55.46163822222195" fill="#ef5350"/><line x1="164" y1="722.6223200000024" x2="164" y2="846.750750222221" stroke="#26a69a" stroke-width="2"/><rect x="160" y="754.3146853333333" width="8" height="73.06850844444546" fill="#26a69a"/><line x1="176" y1="753.4343422222214" x2="176" y2="825.6225066666653" stroke="#ef5350" stroke-width="2"/><rect x="172" y="756.9557155555534" width="8" height="48.418891555557934" fill="#ef5350"/><line x1="188" y1="721.7419768888906" x2="188" y2="841.4686897777756" stroke="#26a69a" stroke-width="2"/><rect x="184" y="745.5112506666662" width="8" height="58.98301333333325" fill="#26a69a"/><line x1="200" y1="744.6309075555544" x2="200" y2="808.8959813333329" stroke="#ef5350" stroke-width="2"/><rect x="196" y="744.6309075555544" width="8" height="46.65820355555502" fill="#ef5350"/><line x1="212" y1="747.2719377777796" x2="212" y2="806.2549502222232" stroke="#ef5350" stroke-width="2"/><rect x="208" y="786.8873937777759" width="8" height="2" fill="#ef5350"/><line x1="224" y1="706.7761377777767" x2="224" y2="797.4515155555562" stroke="#26a69a" stroke-width="2"/><rect x="220" y="752.5539982222199" width="8" height="32.57270933333734" fill="#26a69a"/><line x1="236" y1="670.2418835555566" x2="236" y2="764.8788071111135" stroke="#26a69a" stroke-width="2"/><rect x="232" y="694.4513288888882" width="8" height="53.70095199999821" fill="#26a69a"/><line x1="248" y1="689.1692684444429" x2="248" y2="747.2719377777796" stroke="#ef5350" stroke-width="2"/><rect x="244" y="695.3316728888897" width="8" height="51.05992177777807" fill="#ef5350"/><line x1="260" y1="726.143694222224" x2="260" y2="789.5284248888906" stroke="#ef5350" stroke-width="2"/><rect x="256" y="740.229190222221" width="8" height="28.170991111114176" fill="#ef5350"/><line x1="272" y1="751.673655111113" x2="272" y2="842.3490328888875" stroke="#ef5350" stroke-width="2"/><rect x="268" y="763.1181200000002" width="8" height="75.70953955555524" fill="#ef5350"/><line x1="284" y1="823.8618204444467" x2="284" y2="874.0413982222233" stroke="#26a69a" stroke-width="2"/><rect x="280" y="828.2635377777801" width="8" height="9.683777777773798" fill="#26a69a"/><line x1="296" y1="815.9387288888865" x2="296" y2="856.4345288888894" stroke="#ef5350" stroke-width="2"/><rect x="292" y="825.6225066666653" width="8" height="30.812022222224073" fill="#ef5350"/><line x1="308" y1="806.2549502222232" x2="308" y2="866.1183066666682" stroke="#26a69a" stroke-width="2"/><rect x="304" y="843.229376888889" width="8" height="7.923090666665416" fill="#26a69a"/><line x1="320" y1="837.0669724444421" x2="320" y2="888.1268942222201" stroke="#ef5350" stroke-width="2"/><rect x="316" y="845.8704071111091" width="8" height="2" fill="#ef5350"/><line x1="332" y1="834.4259422222219" x2="332" y2="873.1610551111114" stroke="#ef5350" stroke-width="2"/><rect x="328" y="843.229376888889" width="8" height="19.36755644444213" fill="#ef5350"/><line x1="344" y1="819.4601031111132" x2="344" y2="863.477276444443" stroke="#26a69a" stroke-width="2"/><rect x="340" y="836.6268008888912" width="8" height="26.850475555551725" fill="#26a69a"/><line x1="356" y1="778.0839591111089" x2="356" y2="839.7080026666673" stroke="#26a69a" stroke-width="2"/><rect x="352" y="778.0839591111089" width="8" height="54.581295999999725" fill="#26a69a"/><line x1="368" y1="774.5625857777769" x2="368" y2="846.750750222221" stroke="#ef5350" stroke-width="2"/><rect x="364" y="777.2036160000021" width="8" height="44.01717333332988" fill="#ef5350"/><line x1="380" y1="813.2976986666664" x2="380" y2="868.759337777778" stroke="#ef5350" stroke-width="2"/><rect x="376" y="822.9814764444452" width="8" height="38.73511288888949" fill="#ef5350"/><line x1="392" y1="851.1524675555544" x2="392" y2="895.1696417777789" stroke="#ef5350" stroke-width="2"/><rect x="388" y="859.0755591111096" width="8" height="23.769273777780768" fill="#ef5350"/><line x1="404" y1="851.1524675555544" x2="404" y2="895.1696417777789" stroke="#26a69a" stroke-width="2"/><rect x="400" y="874.9217413333351" width="8" height="5.282061333329921" fill="#26a69a"/><line x1="416" y1="852.9131546666678" x2="416" y2="881.9644897777785" stroke="#26a69a" stroke-width="2"/><rect x="412" y="853.7934986666642" width="8" height="22.008586666667384" fill="#26a69a"/><line x1="428" y1="850.2721244444425" x2="428" y2="874.0413982222233" stroke="#26a69a" stroke-width="2"/><rect x="424" y="856.4345288888894" width="8" height="2" fill="#26a69a"/><line x1="440" y1="815.0583857777797" x2="440" y2="869.6396808888899" stroke="#26a69a" stroke-width="2"/><rect x="436" y="822.1011333333333" width="8" height="33.453051555554566" fill="#26a69a"/><line x1="452" y1="808.0156373333315" x2="452" y2="856.4345288888894" stroke="#ef5350" stroke-width="2"/><rect x="448" y="818.5797591111118" width="8" height="36.094082666664235" fill="#ef5350"/><line x1="464" y1="844.9900631111127" x2="464" y2="892.5286115555537" stroke="#ef5350" stroke-width="2"/><rect x="460" y="847.6310942222224" width="8" height="41.37614311110963" fill="#ef5350"/><line x1="476" y1="862.5969333333311" x2="476" y2="887.2465502222237" stroke="#26a69a" stroke-width="2"/><rect x="472" y="879.3234586666687" width="8" height="7.042748444443191" fill="#26a69a"/><line x1="488" y1="859.0755591111096" x2="488" y2="891.6482675555573" stroke="#26a69a" stroke-width="2"/><rect x="484" y="859.0755591111096" width="8" height="20.247899555559115" fill="#26a69a"/><line x1="500" y1="830.9045680000004" x2="500" y2="862.5969333333311" stroke="#26a69a" stroke-width="2"/><rect x="496" y="841.0285182222246" width="8" height="21.568415111106447" fill="#26a69a"/><line x1="512" y1="822.9814764444452" x2="512" y2="849.3917813333358" stroke="#26a69a" stroke-width="2"/><rect x="508" y="825.6225066666653" width="8" height="14.965839111113837" fill="#26a69a"/><line x1="524" y1="793.9301422222242" x2="524" y2="826.5028506666669" stroke="#26a69a" stroke-width="2"/><rect x="520" y="817.6994159999999" width="8" height="8.80343466666693" fill="#26a69a"/><line x1="536" y1="811.537011555553" x2="536" y2="838.8276595555554" stroke="#ef5350" stroke-width="2"/><rect x="532" y="816.8190719999984" width="8" height="21.56841511111145" fill="#ef5350"/><line x1="548" y1="810.6566675555566" x2="548" y2="845.8704071111091" stroke="#26a69a" stroke-width="2"/><rect x="544" y="811.537011555553" width="8" height="27.29064800000242" fill="#26a69a"/><line x1="560" y1="776.3232720000007" x2="560" y2="824.7421635555535" stroke="#26a69a" stroke-width="2"/><rect x="556" y="777.2036160000021" width="8" height="35.213738666662834" fill="#26a69a"/><line x1="572" y1="735.8274728888874" x2="572" y2="779.8446462222223" stroke="#26a69a" stroke-width="2"/><rect x="568" y="756.9557155555534" width="8" height="20.247900444448646" fill="#26a69a"/><line x1="584" y1="734.0667857777792" x2="584" y2="879.3234586666687" stroke="#ef5350" stroke-width="2"/><rect x="580" y="754.3146853333333" width="8" height="101.23949955555463" fill="#ef5350"/><line x1="596" y1="855.114013333332" x2="596" y2="911.0158239999995" stroke="#ef5350" stroke-width="2"/><rect x="592" y="857.3148720000013" width="8" height="48.41889155555282" fill="#ef5350"/><line x1="608" y1="850.2721244444425" x2="608" y2="916.2978853333344" stroke="#26a69a" stroke-width="2"/><rect x="604" y="853.7934986666642" width="8" height="51.059920888893544" fill="#26a69a"/><line x1="620" y1="792.1694551111109" x2="620" y2="881.9644897777785" stroke="#26a69a" stroke-width="2"/><rect x="616" y="801.8532328888897" width="8" height="59.863356444445" fill="#26a69a"/><line x1="632" y1="694.4513288888882" x2="632" y2="814.1780417777783" stroke="#26a69a" stroke-width="2"/><rect x="628" y="711.1778551111103" width="8" height="90.67537777777943" fill="#26a69a"/><line x1="644" y1="687.4085813333345" x2="644" y2="798.3318595555577" stroke="#ef5350" stroke-width="2"/><rect x="640" y="712.0581991111117" width="8" height="79.23091199999772" fill="#ef5350"/><line x1="656" y1="757.8360595555548" x2="656" y2="889.8875804444439" stroke="#ef5350" stroke-width="2"/><rect x="652" y="794.810485333331" width="8" height="47.53854755555642" fill="#ef5350"/><line x1="668" y1="825.6225066666653" x2="668" y2="913.6568542222246" stroke="#ef5350" stroke-width="2"/><rect x="664" y="842.3490328888875" width="8" height="55.461639111111595" fill="#ef5350"/><line x1="680" y1="849.3917813333358" x2="680" y2="920.6996026666679" stroke="#ef5350" stroke-width="2"/><rect x="676" y="897.810671999999" width="8" height="2" fill="#ef5350"/><line x1="692" y1="839.7080026666673" x2="692" y2="902.2123893333325" stroke="#26a69a" stroke-width="2"/><rect x="688" y="842.3490328888875" width="8" height="52.820608888891456" fill="#26a69a"/><line x1="704" y1="826.5028506666669" x2="704" y2="887.2465502222237" stroke="#26a69a" stroke-width="2"/><rect x="700" y="845.8704071111091" width="8" height="2.6410302222251403" fill="#26a69a"/><line x1="716" y1="722.6223200000024" x2="716" y2="859.9559022222214" stroke="#26a69a" stroke-width="2"/><rect x="712" y="808.8959813333329" width="8" height="38.73511288888949" fill="#26a69a"/><line x1="728" y1="751.673655111113" x2="728" y2="866.9986506666646" stroke="#26a69a" stroke-width="2"/><rect x="724" y="766.6394942222219" width="8" height="36.974425777776105" fill="#26a69a"/><line x1="740" y1="768.4001813333351" x2="740" y2="842.3490328888875" stroke="#ef5350" stroke-width="2"/><rect x="736" y="768.4001813333351" width="8" height="29.051334222221044" fill="#ef5350"/><line x1="752" y1="763.9984640000016" x2="752" y2="818.5797591111118" stroke="#26a69a" stroke-width="2"/><rect x="748" y="770.1608684444434" width="8" height="25.529960888889036" fill="#26a69a"/><line x1="764" y1="746.3915946666677" x2="764" y2="845.8704071111091" stroke="#ef5350" stroke-width="2"/><rect x="760" y="772.8018986666686" width="8" height="49.29923466666469" fill="#ef5350"/><line x1="776" y1="778.0839591111089" x2="776" y2="872.28071111111" stroke="#ef5350" stroke-width="2"/><rect x="772" y="820.3404462222201" width="8" height="38.73511288888949" fill="#ef5350"/><line x1="788" y1="813.2976986666664" x2="788" y2="867.8789937777765" stroke="#ef5350" stroke-width="2"/><rect x="784" y="858.1952159999977" width="8" height="4.4017173333334085" fill="#ef5350"/><line x1="800" y1="833.5455982222205" x2="800" y2="879.3234586666687" stroke="#26a69a" stroke-width="2"/><rect x="796" y="851.1524675555544" width="8" height="8.803434666667044" fill="#26a69a"/><line x1="812" y1="795.6908293333324" x2="812" y2="860.8362462222228" stroke="#26a69a" stroke-width="2"/><rect x="808" y="800.092546666666" width="8" height="56.341982222223464" fill="#26a69a"/><line x1="824" y1="783.3660204444438" x2="824" y2="822.9814764444452" stroke="#26a69a" stroke-width="2"/><rect x="820" y="800.092546666666" width="8" height="2.6410302222251403" fill="#26a69a"/><line x1="836" y1="778.0839591111089" x2="836" y2="808.8959813333329" stroke="#26a69a" stroke-width="2"/><rect x="832" y="786.8873937777759" width="8" height="7.923091555555175" fill="#26a69a"/><line x1="848" y1="767.5198373333337" x2="848" y2="842.3490328888875" stroke="#ef5350" stroke-width="2"/><rect x="844" y="792.1694551111109" width="8" height="31.69236533333583" fill="#ef5350"/><line x1="860" y1="824.7421635555535" x2="860" y2="896.0499848888908" stroke="#ef5350" stroke-width="2"/><rect x="856" y="827.3831937777787" width="8" height="61.62404355555327" fill="#ef5350"/><line x1="872" y1="843.229376888889" x2="872" y2="903.092733333334" stroke="#ef5350" stroke-width="2"/><rect x="868" y="889.007237333332" width="8" height="13.205152000000453" fill="#ef5350"/><line x1="884" y1="847.1909226666664" x2="884" y2="910.1354808888876" stroke="#26a69a" stroke-width="2"/><rect x="880" y="849.3917813333358" width="8" height="50.17957777777656" fill="#26a69a"/><line x1="896" y1="778.9643031111104" x2="896" y2="852.9131546666678" stroke="#26a69a" stroke-width="2"/><rect x="892" y="780.7249902222237" width="8" height="68.66679111111205" fill="#26a69a"/><line x1="908" y1="748.1522808888864" x2="908" y2="801.8532328888897" stroke="#26a69a" stroke-width="2"/><rect x="904" y="765.75915111111" width="8" height="14.965839111113723" fill="#26a69a"/><line x1="920" y1="726.143694222224" x2="920" y2="778.9643031111104" stroke="#26a69a" stroke-width="2"/><rect x="916" y="735.8274728888874" width="8" height="22.888929777779254" fill="#26a69a"/><line x1="932" y1="698.8530462222217" x2="932" y2="781.6053333333356" stroke="#ef5350" stroke-width="2"/><rect x="928" y="734.947128888891" width="8" height="41.37614311110963" fill="#ef5350"/><line x1="944" y1="767.5198373333337" x2="944" y2="842.3490328888875" stroke="#ef5350" stroke-width="2"/><rect x="940" y="769.280524444442" width="8" height="48.418891555557934" fill="#ef5350"/><line x1="956" y1="793.0497982222228" x2="956" y2="825.6225066666653" stroke="#ef5350" stroke-width="2"/><rect x="952" y="819.4601031111132" width="8" height="2" fill="#ef5350"/><line x1="968" y1="719.1009466666653" x2="968" y2="820.3404462222201" stroke="#26a69a" stroke-width="2"/><rect x="964" y="727.9043813333324" width="8" height="92.4360648888877" fill="#26a69a"/><line x1="980" y1="686.5282382222226" x2="980" y2="741.1095333333328" stroke="#26a69a" stroke-width="2"/><rect x="976" y="716.9000880000011" width="8" height="11.884636444443117" fill="#26a69a"/><line x1="992" y1="705.0154506666685" x2="992" y2="755.1950293333347" stroke="#ef5350" stroke-width="2"/><rect x="988" y="716.4599164444452" width="8" height="7.04274755555366" fill="#ef5350"/><line x1="1004" y1="701.4940773333315" x2="1004" y2="765.75915111111" stroke="#ef5350" stroke-width="2"/><rect x="1000" y="725.2633511111121" width="8" height="32.572708444442696" fill="#ef5350"/><line x1="1016" y1="561.5194639999977" x2="1016" y2="664.5196506666657" stroke="#26a69a" stroke-width="2"/><rect x="1012" y="575.6049599999996" width="8" height="5.282060444445392" fill="#26a69a"/><line x1="1028" y1="564.1604951111125" x2="1028" y2="646.0324382222199" stroke="#ef5350" stroke-width="2"/><rect x="1024" y="574.7246168888877" width="8" height="60.74369955555687" fill="#ef5350"/><line x1="1040" y1="584.4083946666665" x2="1040" y2="668.0410248888873" stroke="#ef5350" stroke-width="2"/><rect x="1036" y="635.4683164444446" width="8" height="4.401717333333522" fill="#ef5350"/><line x1="1052" y1="584.4083946666665" x2="1052" y2="642.5110639999982" stroke="#26a69a" stroke-width="2"/><rect x="1048" y="608.1776684444422" width="8" height="29.93167822222256" fill="#26a69a"/><line x1="1064" y1="565.9211813333311" x2="1064" y2="623.143507555556" stroke="#26a69a" stroke-width="2"/><rect x="1060" y="596.7332035555551" width="8" height="7.92309066666553" fill="#26a69a"/><line x1="1076" y1="564.1604951111125" x2="1076" y2="619.6221333333344" stroke="#26a69a" stroke-width="2"/><rect x="1072" y="592.3314862222217" width="8" height="2" fill="#26a69a"/><line x1="1088" y1="586.1690817777799" x2="1088" y2="665.3999946666671" stroke="#ef5350" stroke-width="2"/><rect x="1084" y="586.1690817777799" width="8" height="40.49579999999776" fill="#ef5350"/><line x1="1100" y1="614.340072888889" x2="1100" y2="682.1265208888892" stroke="#ef5350" stroke-width="2"/><rect x="1096" y="624.0238506666678" width="8" height="29.93167822222256" fill="#ef5350"/><line x1="1112" y1="636.3486595555564" x2="1112" y2="711.1778551111103" stroke="#ef5350" stroke-width="2"/><rect x="1108" y="648.673468444445" width="8" height="44.01717422221941" fill="#ef5350"/><line x1="1124" y1="692.6906426666644" x2="1124" y2="783.3660204444438" stroke="#ef5350" stroke-width="2"/><rect x="1120" y="697.0923599999979" width="8" height="52.82060800000181" fill="#ef5350"/><line x1="1136" y1="685.6478942222212" x2="1136" y2="758.7164026666667" stroke="#26a69a" stroke-width="2"/><rect x="1132" y="692.6906426666644" width="8" height="58.983012444448605" fill="#26a69a"/><line x1="1148" y1="685.6478942222212" x2="1148" y2="728.7847244444442" stroke="#ef5350" stroke-width="2"/><rect x="1144" y="688.2889244444464" width="8" height="11.444465777776713" fill="#ef5350"/><line x1="1160" y1="627.5452248888895" x2="1160" y2="710.2975119999984" stroke="#26a69a" stroke-width="2"/><rect x="1156" y="687.4085813333345" width="8" height="9.683778666663443" fill="#26a69a"/><line x1="1172" y1="629.3059119999978" x2="1172" y2="689.1692684444429" stroke="#26a69a" stroke-width="2"/><rect x="1168" y="633.7076293333313" width="8" height="47.53854755555642" fill="#26a69a"/><line x1="1184" y1="615.2204160000009" x2="1184" y2="646.0324382222199" stroke="#26a69a" stroke-width="2"/><rect x="1180" y="628.425568888891" width="8" height="2.641030222220138" fill="#26a69a"/><line x1="1196" y1="582.6477075555532" x2="1196" y2="627.5452248888895" stroke="#26a69a" stroke-width="2"/><rect x="1192" y="608.6178399999982" width="8" height="18.92738488889131" fill="#26a69a"/><line x1="1208" y1="594.0921733333349" x2="1208" y2="625.7845377777762" stroke="#ef5350" stroke-width="2"/><rect x="1204" y="607.2973253333354" width="8" height="7.92309066666553" fill="#ef5350"/><line x1="1220" y1="599.3742337777753" x2="1220" y2="650.4341555555534" stroke="#ef5350" stroke-width="2"/><rect x="1216" y="605.5366382222221" width="8" height="36.094082666664235" fill="#ef5350"/><line x1="1232" y1="565.0408382222244" x2="1232" y2="642.5110639999982" stroke="#26a69a" stroke-width="2"/><rect x="1228" y="582.6477075555532" width="8" height="54.58129600000473" fill="#26a69a"/><line x1="1244" y1="578.2459902222197" x2="1244" y2="640.75037688889" stroke="#ef5350" stroke-width="2"/><rect x="1240" y="581.7673644444463" width="8" height="48.41889066666329" fill="#ef5350"/><line x1="1256" y1="591.4511422222201" x2="1256" y2="629.3059119999978" stroke="#26a69a" stroke-width="2"/><rect x="1252" y="609.9383555555555" width="8" height="19.367556444442243" fill="#26a69a"/><line x1="1268" y1="559.758777777779" x2="1268" y2="611.6990426666689" stroke="#26a69a" stroke-width="2"/><rect x="1264" y="597.6135466666669" width="8" height="8.803434666667044" fill="#26a69a"/><line x1="1280" y1="555.3570595555559" x2="1280" y2="597.6135466666669" stroke="#26a69a" stroke-width="2"/><rect x="1276" y="590.5707991111134" width="8" height="7.042747555553547" fill="#26a69a"/><line x1="1292" y1="586.1690817777799" x2="1292" y2="626.6648817777776" stroke="#ef5350" stroke-width="2"/><rect x="1288" y="594.0921733333349" width="8" height="23.769273777775766" fill="#ef5350"/><line x1="1304" y1="583.5280515555546" x2="1304" y2="629.3059119999978" stroke="#26a69a" stroke-width="2"/><rect x="1300" y="599.3742337777753" width="8" height="19.367556444447246" fill="#26a69a"/><line x1="1316" y1="568.5622124444459" x2="1316" y2="609.0580124444436" stroke="#26a69a" stroke-width="2"/><rect x="1312" y="572.9639297777794" width="8" height="28.170991111109174" fill="#26a69a"/><line x1="1328" y1="535.1091600000018" x2="1328" y2="596.7332035555551" stroke="#ef5350" stroke-width="2"/><rect x="1324" y="572.9639297777794" width="8" height="22.88892977777425" fill="#ef5350"/><line x1="1340" y1="554.476716444444" x2="1340" y2="596.7332035555551" stroke="#26a69a" stroke-width="2"/><rect x="1336" y="573.8442728888913" width="8" height="21.128243555555514" fill="#26a69a"/><line x1="1352" y1="547.4339688888904" x2="1352" y2="577.3656471111129" stroke="#26a69a" stroke-width="2"/><rect x="1348" y="553.5963733333322" width="8" height="17.60686933333386" fill="#26a69a"/><line x1="1364" y1="462.04065155555634" x2="1364" y2="556.2374035555573" stroke="#26a69a" stroke-width="2"/><rect x="1360" y="472.60477333333154" width="8" height="79.23091288889236" fill="#26a69a"/><line x1="1376" y1="454.11756000000116" x2="1376" y2="503.4167946666659" stroke="#ef5350" stroke-width="2"/><rect x="1372" y="470.84408622222327" width="8" height="13.205152000000453" fill="#ef5350"/><line x1="1388" y1="476.12614755555313" x2="1388" y2="510.8997146666651" stroke="#ef5350" stroke-width="2"/><rect x="1384" y="481.4082079999985" width="8" height="25.529960888889036" fill="#ef5350"/><line x1="1400" y1="490.21164266666545" x2="1400" y2="511.339886222221" stroke="#26a69a" stroke-width="2"/><rect x="1396" y="492.85267288889065" width="8" height="13.205152888885038" fill="#26a69a"/><line x1="1412" y1="483.16889511111185" x2="1412" y2="511.339886222221" stroke="#26a69a" stroke-width="2"/><rect x="1408" y="484.0492382222237" width="8" height="8.80343466666693" fill="#26a69a"/><line x1="1424" y1="464.6816817777764" x2="1424" y2="506.93816888888756" stroke="#26a69a" stroke-width="2"/><rect x="1420" y="467.3227120000016" width="8" height="17.606870222218504" fill="#26a69a"/><line x1="1436" y1="463.80133866666455" x2="1436" y2="523.6646951111096" stroke="#ef5350" stroke-width="2"/><rect x="1432" y="464.6816817777764" width="8" height="56.34198222222341" fill="#ef5350"/><line x1="1448" y1="494.613359999999" x2="1448" y2="534.2288168888899" stroke="#26a69a" stroke-width="2"/><rect x="1444" y="495.49370400000043" width="8" height="24.649616888887522" fill="#26a69a"/><line x1="1460" y1="486.69026844444386" x2="1460" y2="513.9809164444463" stroke="#ef5350" stroke-width="2"/><rect x="1456" y="497.2543902222242" width="8" height="5.282061333329864" fill="#ef5350"/><line x1="1472" y1="478.76717777777833" x2="1472" y2="511.339886222221" stroke="#26a69a" stroke-width="2"/><rect x="1468" y="494.17318844444304" width="8" height="3.9615457777775305" fill="#26a69a"/><line x1="1484" y1="462.9209946666682" x2="1484" y2="498.1347342222206" stroke="#26a69a" stroke-width="2"/><rect x="1480" y="465.5620257777779" width="8" height="26.410304000000906" fill="#26a69a"/><line x1="1496" y1="460.27996444444295" x2="1496" y2="476.12614755555313" stroke="#ef5350" stroke-width="2"/><rect x="1492" y="461.16030844444447" width="8" height="12.324807999998939" fill="#ef5350"/><line x1="1508" y1="469.08339911110994" x2="1508" y2="496.3740471111123" stroke="#ef5350" stroke-width="2"/><rect x="1504" y="473.4851164444434" width="8" height="21.12824355555557" fill="#ef5350"/><line x1="1520" y1="395.1345475555576" x2="1520" y2="527.1860684444467" stroke="#26a69a" stroke-width="2"/><rect x="1516" y="406.57901244444474" width="8" height="83.63263022222071" fill="#26a69a"/><line x1="1532" y1="338.7925653333342" x2="1532" y2="414.50210399999986" stroke="#26a69a" stroke-width="2"/><rect x="1528" y="356.3994346666681" width="8" height="51.94026488888994" fill="#26a69a"/><line x1="1544" y1="310.6215733333354" x2="1544" y2="356.3994346666681" stroke="#26a69a" stroke-width="2"/><rect x="1540" y="315.0232906666689" width="8" height="39.61545688888589" fill="#26a69a"/><line x1="1556" y1="272.7668044444424" x2="1556" y2="337.03187822222094" stroke="#26a69a" stroke-width="2"/><rect x="1552" y="276.2881777777794" width="8" height="38.73511288888949" fill="#26a69a"/><line x1="1568" y1="253.39924800000006" x2="1568" y2="302.69848266666486" stroke="#26a69a" stroke-width="2"/><rect x="1564" y="276.2881777777794" width="8" height="2" fill="#26a69a"/><line x1="1580" y1="248.11718666666525" x2="1580" y2="278.0488648888877" stroke="#26a69a" stroke-width="2"/><rect x="1576" y="274.5274915555557" width="8" height="2" fill="#26a69a"/><line x1="1592" y1="248.11718666666525" x2="1592" y2="273.6471475555543" stroke="#26a69a" stroke-width="2"/><rect x="1588" y="270.12577422222216" width="8" height="3.5213733333321215" fill="#26a69a"/><line x1="1604" y1="263.08302577777897" x2="1604" y2="298.29676533333145" stroke="#ef5350" stroke-width="2"/><rect x="1600" y="267.4847431111124" width="8" height="30.81202222221907" fill="#ef5350"/><line x1="1616" y1="231.39066044444303" x2="1616" y2="312.3822604444438" stroke="#26a69a" stroke-width="2"/><rect x="1612" y="240.1940959999996" width="8" height="58.102669333331846" fill="#26a69a"/><line x1="1628" y1="223.4675697777776" x2="1628" y2="261.3223386666657" stroke="#26a69a" stroke-width="2"/><rect x="1624" y="232.27100444444454" width="8" height="5.282060444445392" fill="#26a69a"/><line x1="1640" y1="209.38207377777576" x2="1640" y2="251.6385608888868" stroke="#26a69a" stroke-width="2"/><rect x="1636" y="224.34791288888948" width="8" height="8.80343466666693" fill="#26a69a"/><line x1="1652" y1="213.78379111110917" x2="1652" y2="238.43340888889145" stroke="#26a69a" stroke-width="2"/><rect x="1648" y="223.4675697777776" width="8" height="4.4017173333334085" fill="#26a69a"/><line x1="1664" y1="133.67253511111005" x2="1664" y2="229.6299742222244" stroke="#26a69a" stroke-width="2"/><rect x="1660" y="204.98035644444212" width="8" height="17.60686933333409" fill="#26a69a"/><line x1="1676" y1="123.10841333333485" x2="1676" y2="204.10001333333537" stroke="#26a69a" stroke-width="2"/><rect x="1672" y="130.1511608888884" width="8" height="73.94885244444697" fill="#26a69a"/><line x1="1688" y1="127.51013066666826" x2="1688" y2="151.2794044444439" stroke="#ef5350" stroke-width="2"/><rect x="1684" y="128.39047377778013" width="8" height="12.324808888888583" fill="#ef5350"/><line x1="1700" y1="118.70669600000133" x2="1700" y2="153.0400915555573" stroke="#ef5350" stroke-width="2"/><rect x="1696" y="138.07425244444346" width="8" height="9.24360622222298" fill="#ef5350"/><line x1="1712" y1="129.27081777777653" x2="1712" y2="152.15974844444543" stroke="#26a69a" stroke-width="2"/><rect x="1708" y="129.27081777777653" width="8" height="18.48721333333549" fill="#26a69a"/><line x1="1724" y1="90.53570488888704" x2="1724" y2="132.35201955555772" stroke="#26a69a" stroke-width="2"/><rect x="1720" y="94.93742222222056" width="8" height="36.97442577778122" fill="#26a69a"/><line x1="1736" y1="76.45020888889019" x2="1736" y2="105.50154400000088" stroke="#26a69a" stroke-width="2"/><rect x="1732" y="79.09123911111033" width="8" height="15.846183111110236" fill="#26a69a"/><line x1="1748" y1="67.64677422222326" x2="1748" y2="92.29639200000042" stroke="#26a69a" stroke-width="2"/><rect x="1744" y="68.52711822222477" width="8" height="11.444464888887069" fill="#26a69a"/><line x1="1760" y1="63.245056888889735" x2="1760" y2="87.01433066666539" stroke="#ef5350" stroke-width="2"/><rect x="1756" y="66.76643111111139" width="8" height="13.205152000000453" fill="#ef5350"/><line x1="1772" y1="73.80917866666493" x2="1772" y2="120.4673831111096" stroke="#ef5350" stroke-width="2"/><rect x="1768" y="79.09123911111033" width="8" height="25.529960888889036" fill="#ef5350"/><line x1="1784" y1="95.81776533333243" x2="1784" y2="138.07425244444346" stroke="#ef5350" stroke-width="2"/><rect x="1780" y="103.74085688888749" width="8" height="20.24789955555923" fill="#ef5350"/><line x1="1796" y1="114.30497866666781" x2="1796" y2="135.43322222222343" stroke="#ef5350" stroke-width="2"/><rect x="1792" y="126.62978755555639" width="8" height="7.04274755555366" fill="#ef5350"/><line x1="1808" y1="105.50154400000088" x2="1808" y2="133.67253511111005" stroke="#26a69a" stroke-width="2"/><rect x="1804" y="110.78360444444627" width="8" height="22.888930666663782" fill="#26a69a"/><line x1="1820" y1="79.09123911111033" x2="1820" y2="111.2237760000022" stroke="#26a69a" stroke-width="2"/><rect x="1816" y="93.1767351111123" width="8" height="16.726526222222105" fill="#26a69a"/><line x1="1832" y1="78.21089599999846" x2="1832" y2="104.62119999999936" stroke="#ef5350" stroke-width="2"/><rect x="1828" y="93.1767351111123" width="8" height="10.564121777775199" fill="#ef5350"/><line x1="1844" y1="90.53570488888704" x2="1844" y2="121.34772622222147" stroke="#ef5350" stroke-width="2"/><rect x="1840" y="101.98016977777922" width="8" height="14.085495999996851" fill="#ef5350"/><line x1="1856" y1="79.97158311111184" x2="1856" y2="118.70669600000133" stroke="#26a69a" stroke-width="2"/><rect x="1852" y="83.4929573333335" width="8" height="29.05133422222093" fill="#26a69a"/><line x1="1868" y1="71.16814844444491" x2="1868" y2="97.57845244444582" stroke="#26a69a" stroke-width="2"/><rect x="1864" y="84.37330044444536" width="8" height="2" fill="#26a69a"/><line x1="1880" y1="69.40746133333153" x2="1880" y2="95.81776533333243" stroke="#26a69a" stroke-width="2"/><rect x="1876" y="74.6895217777768" width="8" height="9.683778666668559" fill="#26a69a"/><line x1="1892" y1="64.12540088889114" x2="1892" y2="83.05278488888791" stroke="#26a69a" stroke-width="2"/><rect x="1888" y="65.88608711110987" width="8" height="8.80343466666693" fill="#26a69a"/><line x1="1904" y1="50.92024800000115" x2="1904" y2="72.04849155555678" stroke="#26a69a" stroke-width="2"/><rect x="1900" y="56.20230933333107" width="8" height="9.6837777777788" fill="#26a69a"/><line x1="1916" y1="46.51853066666763" x2="1916" y2="72.92883555555306" stroke="#ef5350" stroke-width="2"/><rect x="1912" y="57.08265244444294" width="8" height="11.44446577778183" fill="#ef5350"/><line x1="1928" y1="69.40746133333153" x2="1928" y2="103.74085688888749" stroke="#ef5350" stroke-width="2"/><rect x="1924" y="69.40746133333153" width="8" height="32.5727084444477" fill="#ef5350"/><line x1="1940" y1="82.61261333333198" x2="1940" y2="125.74944355555488" stroke="#ef5350" stroke-width="2"/><rect x="1936" y="100.21948266666584" width="8" height="22.008587555557142" fill="#ef5350"/><rect x="75" y="887.0488800236105" width="10" height="132.95111997638946" fill="#26a69a" opacity="0.9"/><rect x="87" y="934.2515341793794" width="10" height="85.7484658206206" fill="#26a69a" opacity="0.9"/><rect x="99" y="938.746298124383" width="10" height="81.25370187561703" fill="#26a69a" opacity="0.9"/><rect x="111" y="906.9907694812795" width="10" height="113.00923051872053" fill="#ef5350" opacity="0.9"/><rect x="123" y="958.832293585451" width="10" height="61.167706414549" fill="#26a69a" opacity="0.9"/><rect x="135" y="947.793834786945" width="10" height="72.20616521305499" fill="#ef5350" opacity="0.9"/><rect x="147" y="971.7148207325389" width="10" height="48.2851792674611" fill="#ef5350" opacity="0.9"/><rect x="159" y="971.2724275144767" width="10" height="48.7275724855233" fill="#26a69a" opacity="0.9"/><rect x="171" y="971.524307711096" width="10" height="48.47569228890404" fill="#ef5350" opacity="0.9"/><rect x="183" y="961.2827062618943" width="10" height="58.717293738105695" fill="#26a69a" opacity="0.9"/><rect x="195" y="968.4586967362433" width="10" height="51.54130326375673" fill="#ef5350" opacity="0.9"/><rect x="207" y="977.2033665442037" width="10" height="42.79663345579627" fill="#ef5350" opacity="0.9"/><rect x="219" y="969.551704134906" width="10" height="50.448295865093996" fill="#26a69a" opacity="0.9"/><rect x="231" y="961.6875464324605" width="10" height="58.31245356753948" fill="#26a69a" opacity="0.9"/><rect x="243" y="967.1098401196813" width="10" height="52.89015988031872" fill="#ef5350" opacity="0.9"/><rect x="255" y="976.0166291814656" width="10" height="43.983370818534354" fill="#ef5350" opacity="0.9"/><rect x="267" y="976.8122652934532" width="10" height="43.18773470654685" fill="#ef5350" opacity="0.9"/><rect x="279" y="973.0810799808672" width="10" height="46.91892001913277" fill="#26a69a" opacity="0.9"/><rect x="291" y="988.8670988489838" width="10" height="31.1329011510162" fill="#ef5350" opacity="0.9"/><rect x="303" y="993.9193576291713" width="10" height="26.08064237082874" fill="#26a69a" opacity="0.9"/><rect x="315" y="994.2930562481554" width="10" height="25.70694375184462" fill="#ef5350" opacity="0.9"/><rect x="327" y="988.9122846297107" width="10" height="31.08771537028929" fill="#ef5350" opacity="0.9"/><rect x="339" y="992.3842623217756" width="10" height="27.615737678224377" fill="#26a69a" opacity="0.9"/><rect x="351" y="989.1479834318804" width="10" height="30.852016568119552" fill="#26a69a" opacity="0.9"/><rect x="363" y="995.4016344226092" width="10" height="24.598365577390837" fill="#ef5350" opacity="0.9"/><rect x="375" y="991.5098564028455" width="10" height="28.490143597154542" fill="#ef5350" opacity="0.9"/><rect x="387" y="994.0094238812958" width="10" height="25.99057611870421" fill="#ef5350" opacity="0.9"/><rect x="399" y="997.013667680972" width="10" height="22.98633231902795" fill="#26a69a" opacity="0.9"/><rect x="411" y="999.6808499811726" width="10" height="20.319150018827372" fill="#26a69a" opacity="0.9"/><rect x="423" y="996.6366106593664" width="10" height="23.363389340633603" fill="#26a69a" opacity="0.9"/><rect x="435" y="996.9977915958518" width="10" height="23.002208404148178" fill="#26a69a" opacity="0.9"/><rect x="447" y="998.745076887066" width="10" height="21.254923112933966" fill="#ef5350" opacity="0.9"/><rect x="459" y="995.6388597714251" width="10" height="24.361140228574868" fill="#ef5350" opacity="0.9"/><rect x="471" y="1000.1400352123426" width="10" height="19.859964787657418" fill="#26a69a" opacity="0.9"/><rect x="483" y="999.822818819267" width="10" height="20.177181180732987" fill="#26a69a" opacity="0.9"/><rect x="495" y="996.1484210419189" width="10" height="23.851578958081063" fill="#26a69a" opacity="0.9"/><rect x="507" y="994.1819236523137" width="10" height="25.818076347686315" fill="#26a69a" opacity="0.9"/><rect x="519" y="987.5899899247921" width="10" height="32.41001007520788" fill="#26a69a" opacity="0.9"/><rect x="531" y="994.7098034825617" width="10" height="25.29019651743829" fill="#ef5350" opacity="0.9"/><rect x="543" y="997.2637160216159" width="10" height="22.736283978384108" fill="#26a69a" opacity="0.9"/><rect x="555" y="979.2388638422161" width="10" height="40.76113615778388" fill="#26a69a" opacity="0.9"/><rect x="567" y="990.0187256388598" width="10" height="29.98127436114021" fill="#26a69a" opacity="0.9"/><rect x="579" y="965.5280324849126" width="10" height="54.471967515087385" fill="#ef5350" opacity="0.9"/><rect x="591" y="982.5661249122236" width="10" height="37.433875087776414" fill="#ef5350" opacity="0.9"/><rect x="603" y="983.2790221959882" width="10" height="36.720977804011795" fill="#26a69a" opacity="0.9"/><rect x="615" y="981.9890902799687" width="10" height="38.01090972003135" fill="#26a69a" opacity="0.9"/><rect x="627" y="960.2986942937687" width="10" height="59.701305706231324" fill="#26a69a" opacity="0.9"/><rect x="639" y="960.8793926379744" width="10" height="59.12060736202557" fill="#ef5350" opacity="0.9"/><rect x="651" y="950.5819195815227" width="10" height="69.4180804184773" fill="#ef5350" opacity="0.9"/><rect x="663" y="982.2244837728092" width="10" height="37.77551622719079" fill="#ef5350" opacity="0.9"/><rect x="675" y="985.3368070750348" width="10" height="34.66319292496519" fill="#ef5350" opacity="0.9"/><rect x="687" y="994.1388750368916" width="10" height="25.86112496310841" fill="#26a69a" opacity="0.9"/><rect x="699" y="992.0911653657097" width="10" height="27.908834634290315" fill="#26a69a" opacity="0.9"/><rect x="711" y="964.5794363989783" width="10" height="55.42056360102174" fill="#26a69a" opacity="0.9"/><rect x="723" y="969.6292527045318" width="10" height="50.37074729546816" fill="#26a69a" opacity="0.9"/><rect x="735" y="978.7815104670215" width="10" height="41.21848953297854" fill="#ef5350" opacity="0.9"/><rect x="747" y="988.9702934022654" width="10" height="31.029706597734616" fill="#26a69a" opacity="0.9"/><rect x="759" y="978.0316707544193" width="10" height="41.96832924558066" fill="#ef5350" opacity="0.9"/><rect x="771" y="979.8049073386186" width="10" height="40.19509266138141" fill="#ef5350" opacity="0.9"/><rect x="783" y="989.4477971931896" width="10" height="30.552202806810442" fill="#ef5350" opacity="0.9"/><rect x="795" y="994.2744323790721" width="10" height="25.725567620927904" fill="#26a69a" opacity="0.9"/><rect x="807" y="995.7722799483009" width="10" height="24.227720051699066" fill="#26a69a" opacity="0.9"/><rect x="819" y="991.5877102818005" width="10" height="28.41228971819953" fill="#26a69a" opacity="0.9"/><rect x="831" y="993.4571193047088" width="10" height="26.54288069529116" fill="#26a69a" opacity="0.9"/><rect x="843" y="977.2638177913923" width="10" height="42.736182208607715" fill="#ef5350" opacity="0.9"/><rect x="855" y="978.1794404697692" width="10" height="41.82055953023075" fill="#ef5350" opacity="0.9"/><rect x="867" y="989.2893416513164" width="10" height="30.710658348683637" fill="#ef5350" opacity="0.9"/><rect x="879" y="989.2661381422945" width="10" height="30.733861857705506" fill="#26a69a" opacity="0.9"/><rect x="891" y="980.3422517580728" width="10" height="39.65774824192715" fill="#26a69a" opacity="0.9"/><rect x="903" y="974.9947588565147" width="10" height="45.00524114348525" fill="#26a69a" opacity="0.9"/><rect x="915" y="965.0725109656934" width="10" height="54.92748903430663" fill="#26a69a" opacity="0.9"/><rect x="927" y="968.8842979411975" width="10" height="51.115702058802526" fill="#ef5350" opacity="0.9"/><rect x="939" y="971.3563875800165" width="10" height="48.64361241998347" fill="#ef5350" opacity="0.9"/><rect x="951" y="979.6275226183328" width="10" height="40.37247738166718" fill="#ef5350" opacity="0.9"/><rect x="963" y="983.305889416961" width="10" height="36.69411058303899" fill="#26a69a" opacity="0.9"/><rect x="975" y="963.3942255828864" width="10" height="56.605774417113594" fill="#26a69a" opacity="0.9"/><rect x="987" y="942.1996519473647" width="10" height="77.80034805263529" fill="#ef5350" opacity="0.9"/><rect x="999" y="860.0" width="10" height="160.0" fill="#ef5350" opacity="0.9"/><rect x="1011" y="947.4613529274076" width="10" height="72.53864707259243" fill="#26a69a" opacity="0.9"/><rect x="1023" y="982.0461831245357" width="10" height="37.95381687546433" fill="#ef5350" opacity="0.9"/><rect x="1035" y="973.3482256439482" width="10" height="46.65177435605176" fill="#ef5350" opacity="0.9"/><rect x="1047" y="989.4566511637374" width="10" height="30.543348836262567" fill="#26a69a" opacity="0.9"/><rect x="1059" y="983.6979065956992" width="10" height="36.30209340430076" fill="#26a69a" opacity="0.9"/><rect x="1071" y="997.4643042509235" width="10" height="22.535695749076467" fill="#26a69a" opacity="0.9"/><rect x="1083" y="983.278716886659" width="10" height="36.721283113340974" fill="#ef5350" opacity="0.9"/><rect x="1095" y="982.858611249631" width="10" height="37.14138875036895" fill="#ef5350" opacity="0.9"/><rect x="1107" y="986.0396291509347" width="10" height="33.96037084906527" fill="#ef5350" opacity="0.9"/><rect x="1119" y="978.3766702964554" width="10" height="41.62332970354464" fill="#ef5350" opacity="0.9"/><rect x="1131" y="989.6810535207254" width="10" height="30.318946479274587" fill="#26a69a" opacity="0.9"/><rect x="1143" y="991.2863699738451" width="10" height="28.713630026154874" fill="#ef5350" opacity="0.9"/><rect x="1155" y="983.0311110206491" width="10" height="36.968888979350936" fill="#26a69a" opacity="0.9"/><rect x="1167" y="980.5150568384202" width="10" height="39.48494316157985" fill="#26a69a" opacity="0.9"/><rect x="1179" y="992.0664353100416" width="10" height="27.933564689958416" fill="#26a69a" opacity="0.9"/><rect x="1191" y="985.9413195469209" width="10" height="34.05868045307909" fill="#26a69a" opacity="0.9"/><rect x="1203" y="995.0380110114899" width="10" height="24.961988988510143" fill="#ef5350" opacity="0.9"/><rect x="1215" y="990.091694568547" width="10" height="29.90830543145296" fill="#ef5350" opacity="0.9"/><rect x="1227" y="989.593735052564" width="10" height="30.406264947435943" fill="#26a69a" opacity="0.9"/><rect x="1239" y="992.6419433956504" width="10" height="27.3580566043496" fill="#ef5350" opacity="0.9"/><rect x="1251" y="999.6054385768515" width="10" height="20.394561423148502" fill="#26a69a" opacity="0.9"/><rect x="1263" y="995.1628825271471" width="10" height="24.837117472852924" fill="#26a69a" opacity="0.9"/><rect x="1275" y="999.7580932414692" width="10" height="20.24190675853083" fill="#26a69a" opacity="0.9"/><rect x="1287" y="996.7327830980755" width="10" height="23.267216901924485" fill="#ef5350" opacity="0.9"/><rect x="1299" y="999.5144563967393" width="10" height="20.48554360326068" fill="#26a69a" opacity="0.9"/><rect x="1311" y="997.6868747519362" width="10" height="22.313125248063784" fill="#26a69a" opacity="0.9"/><rect x="1323" y="987.3155168378095" width="10" height="32.68448316219053" fill="#ef5350" opacity="0.9"/><rect x="1335" y="992.0417052543736" width="10" height="27.958294745626404" fill="#26a69a" opacity="0.9"/><rect x="1347" y="986.8273272203621" width="10" height="33.17267277963788" fill="#26a69a" opacity="0.9"/><rect x="1359" y="974.9874314326131" width="10" height="45.01256856738689" fill="#26a69a" opacity="0.9"/><rect x="1371" y="975.748567590397" width="10" height="44.25143240960301" fill="#ef5350" opacity="0.9"/><rect x="1383" y="997.851436480394" width="10" height="22.148563519606" fill="#ef5350" opacity="0.9"/><rect x="1395" y="993.7273180610822" width="10" height="26.2726819389178" fill="#26a69a" opacity="0.9"/><rect x="1407" y="993.9880522282492" width="10" height="26.011947771750783" fill="#26a69a" opacity="0.9"/><rect x="1419" y="1002.7540936892561" width="10" height="17.245906310743862" fill="#26a69a" opacity="0.9"/><rect x="1431" y="997.3018796877703" width="10" height="22.698120312229662" fill="#ef5350" opacity="0.9"/><rect x="1443" y="1000.6840964370401" width="10" height="19.315903562959875" fill="#26a69a" opacity="0.9"/><rect x="1455" y="1003.7576454544529" width="10" height="16.242354545547073" fill="#ef5350" opacity="0.9"/><rect x="1467" y="1005.5317979666398" width="10" height="14.468202033360171" fill="#26a69a" opacity="0.9"/><rect x="1479" y="1001.5774315343829" width="10" height="18.422568465617132" fill="#26a69a" opacity="0.9"/><rect x="1491" y="1002.8175980297372" width="10" height="17.182401970262845" fill="#ef5350" opacity="0.9"/><rect x="1503" y="1000.702109687465" width="10" height="19.297890312534946" fill="#ef5350" opacity="0.9"/><rect x="1515" y="972.0378380028699" width="10" height="47.962161997130124" fill="#26a69a" opacity="0.9"/><rect x="1527" y="946.7762387926034" width="10" height="73.22376120739659" fill="#26a69a" opacity="0.9"/><rect x="1539" y="963.5670306632336" width="10" height="56.432969336766405" fill="#26a69a" opacity="0.9"/><rect x="1551" y="971.3133389645943" width="10" height="48.68666103540568" fill="#26a69a" opacity="0.9"/><rect x="1563" y="969.0760321999572" width="10" height="50.92396780004276" fill="#26a69a" opacity="0.9"/><rect x="1575" y="977.2653443380385" width="10" height="42.73465566196148" fill="#26a69a" opacity="0.9"/><rect x="1587" y="983.5824996692483" width="10" height="36.41750033075175" fill="#26a69a" opacity="0.9"/><rect x="1599" y="984.0999989823023" width="10" height="35.90000101769772" fill="#ef5350" opacity="0.9"/><rect x="1611" y="980.4750613162903" width="10" height="39.524938683709706" fill="#26a69a" opacity="0.9"/><rect x="1623" y="981.6401217166526" width="10" height="38.35987828334737" fill="#26a69a" opacity="0.9"/><rect x="1635" y="986.73634504025" width="10" height="33.263654959750056" fill="#26a69a" opacity="0.9"/><rect x="1647" y="997.8031976063749" width="10" height="22.19680239362515" fill="#26a69a" opacity="0.9"/><rect x="1659" y="978.3937676188925" width="10" height="41.606232381107475" fill="#26a69a" opacity="0.9"/><rect x="1671" y="970.5610567773583" width="10" height="49.43894322264168" fill="#26a69a" opacity="0.9"/><rect x="1683" y="983.8942204943976" width="10" height="36.10577950560241" fill="#ef5350" opacity="0.9"/><rect x="1695" y="981.4688431829516" width="10" height="38.53115681704844" fill="#ef5350" opacity="0.9"/><rect x="1707" y="997.5693306601805" width="10" height="22.430669339819474" fill="#26a69a" opacity="0.9"/><rect x="1719" y="988.0781795422396" width="10" height="31.92182045776042" fill="#26a69a" opacity="0.9"/><rect x="1731" y="984.6971840302867" width="10" height="35.302815969713265" fill="#26a69a" opacity="0.9"/><rect x="1743" y="989.6544916090819" width="10" height="30.3455083909181" fill="#26a69a" opacity="0.9"/><rect x="1755" y="994.3138172825435" width="10" height="25.686182717456518" fill="#ef5350" opacity="0.9"/><rect x="1767" y="979.9731327790273" width="10" height="40.02686722097269" fill="#ef5350" opacity="0.9"/><rect x="1779" y="987.9817017942012" width="10" height="32.01829820579883" fill="#ef5350" opacity="0.9"/><rect x="1791" y="998.8360590671782" width="10" height="21.163940932821788" fill="#ef5350" opacity="0.9"/><rect x="1803" y="988.5074444591445" width="10" height="31.492555540855506" fill="#26a69a" opacity="0.9"/><rect x="1815" y="996.2919164266596" width="10" height="23.708083573340446" fill="#26a69a" opacity="0.9"/><rect x="1827" y="1002.1401166281638" width="10" height="17.85988337183619" fill="#ef5350" opacity="0.9"/><rect x="1839" y="999.9730310092509" width="10" height="20.026968990749083" fill="#ef5350" opacity="0.9"/><rect x="1851" y="999.7770224198817" width="10" height="20.222977580118254" fill="#26a69a" opacity="0.9"/><rect x="1863" y="994.1336847782945" width="10" height="25.866315221705463" fill="#26a69a" opacity="0.9"/><rect x="1875" y="992.6846867017433" width="10" height="27.315313298256683" fill="#26a69a" opacity="0.9"/><rect x="1887" y="987.1601143892287" width="10" height="32.83988561077126" fill="#26a69a" opacity="0.9"/><rect x="1899" y="982.0583954977051" width="10" height="37.94160450229492" fill="#26a69a" opacity="0.9"/><rect x="1911" y="981.5299050487986" width="10" height="38.47009495120142" fill="#ef5350" opacity="0.9"/><rect x="1923" y="953.0827082972899" width="10" height="66.91729170271014" fill="#ef5350" opacity="0.9"/><rect x="1935" y="864.203498844913" width="10" height="155.79650115508696" fill="#ef5350" opacity="0.9"/><rect x="1004" y="580.8870204444449" width="12" height="176.94903911110987" fill="#00ff00" opacity="0.50"/><polyline points="320,797.4074986179858,332,803.6160162099249,344,806.7599004650674,356,804.0288584313556,368,805.6661851839231,380,811.0043189124402,392,817.8462726244813,404,823.2820315491356,416,826.187885560325,428,829.068518258282,440,828.4049577892397,452,830.9067562643426,464,836.4401354137701,476,840.5242614378544,488,842.2910516924478,500,842.1708104095665,512,840.5947814816702,524,838.4142704834126,536,838.4117196860492,548,835.852223673621,560,830.2666419904199,572,823.2846489966201,584,826.35793812922,596,833.917540550773,608,835.8104889427624,620,832.5764645566778,632,821.0146922285276,644,818.1836845030577,656,820.4851462540875,668,827.8494820394119,680,834.5962947975648,692,835.3346508062613,704,836.3380561686325,716,833.7245252319361,728,827.3354746595841,740,824.4893833163436,752,819.3152390428269,764,819.5805623085915,776,823.341990575495,788,827.080556552432,800,829.3731195051098,812,826.5844935204971,824,824.0614509629874,836,820.5210645643951,848,820.8392317910693,860,827.3314227950929,872,834.4629434177831,884,835.8847375049764,896,830.63142823995,908,824.4531161324428,920,816.0125786806778,932,812.2326447110886,944,812.7532895957453,956,813.5597181421822,968,805.4020670175305,980,796.9733071110973,992,789.9761030052762,1004,786.9151464862575,1016,766.7903668209015,1028,754.2835048802873,1040,743.3869838229031,1052,730.5099061678094,1064,717.7692678237893,1076,705.8228124331638,1088,698.2839618945541,1100,694.0622063702044,1112,693.9315812555783,1124,699.263141897907,1136,698.6371895901659,1148,698.7415896503636,1160,697.6622555249328,1172,691.5713387447795,1184,685.5574559013601,1196,678.2298734345659,1208,672.2289727265131,1220,669.3148535038846,1232,661.0608396040435,1244,658.120402985666,1256,653.5316365637502,1268,648.2061041925995,1280,642.7170275181702,1292,640.3498293841645,1304,636.447391707366,1316,630.4013477140719,1328,627.1110155084999,1340,622.0379924018694,1352,615.5197429667725,1364,601.9087934778731,1376,590.684073929717,1388,582.7082734496394,1400,574.150597205759,1412,565.5695153978033,1424,556.2126769789655,1436,552.861342409541,1448,547.3977577991112,1460,543.1252524425822,1472,538.4631511094287,1484,531.5201867921284,1496,525.9930372352098,1508,523.0044965461426,1520,511.9163552031245,1532,497.1052199139396,1544,479.76408379515,1556,460.38542607921045,1568,442.8523548124051,1580,426.8214154546109,1592,411.89802105152216,1604,401.0788538402671,1616,385.7564959507221,1628,371.1388300929836,1640,357.15874274021394,1652,344.42625007712496,1664,331.145688778775,1676,312.00335278926,1688,295.690203253773,1700,281.55950376928763,1712,267.05581938914395,1724,250.663591087535,1736,234.32336708978153,1748,218.53324815001542,1760,205.33689909869076,1772,195.744927755959,1784,188.91100667866954,1796,183.6501998627126,1808,176.71052410859272,1820,168.75492515645317,1832,162.56310913097172,1844,158.13478119257525,1856,151.0260360631239,1868,144.67815648039402,1880,138.01257222300296,1892,131.1433831647264,1904,124.0061380379251,1916,118.72242186500443,1928,117.1279216662191,1940,117.61365010012628" fill="none" stroke="#0090ff" stroke-width="2"/><line x1="80" y1="50" x2="80" y2="850" stroke="#666666" stroke-width="0.5" stroke-dasharray="4,4"/><line x1="152" y1="50" x2="152" y2="850" stroke="#666666" stroke-width="0.5" stroke-dasharray="4,4"/><line x1="224" y1="50" x2="224" y2="850" stroke="#666666" stroke-width="0.5" stroke-dasharray="4,4"/><line x1="296" y1="50" x2="296" y2="850" stroke="#666666" stroke-width="0.5" stroke-dasharray="4,4"/><line x1="368" y1="50" x2="368" y2="850" stroke="#666666" stroke-width="0.5" stroke-dasharray="4,4"/><line x1="440" y1="50" x2="440" y2="850" stroke="#666666" stroke-width="0.5" stroke-dasharray="4,4"/><line x1="512" y1="50" x2="512" y2="850" stroke="#666666" stroke-width="0.5" stroke-dasharray="4,4"/><line x1="584" y1="50" x2="584" y2="850" stroke="#666666" stroke-width="0.5" stroke-dasharray="4,4"/><line x1="656" y1="50" x2="656" y2="850" stroke="#666666" stroke-width="0.5" stroke-dasharray="4,4"/><line x1="728" y1="50" x2="728" y2="850" stroke="#666666" stroke-width="0.5" stroke-dasharray="4,4"/><line x1="800" y1="50" x2="800" y2="850" stroke="#666666" stroke-width="0.5" stroke-dasharray="4,4"/><line x1="872" y1="50" x2="872" y2="850" stroke="#666666" stroke-width="0.5" stroke-dasharray="4,4"/><line x1="944" y1="50" x2="944" y2="850" stroke="#666666" stroke-width="0.5" stroke-dasharray="4,4"/><line x1="1016" y1="50" x2="1016" y2="850" stroke="#666666" stroke-width="0.5" stroke-dasharray="4,4"/><line x1="1088" y1="50" x2="1088" y2="850" stroke="#666666" stroke-width="0.5" stroke-dasharray="4,4"/><line x1="1160" y1="50" x2="1160" y2="850" stroke="#666666" stroke-width="0.5" stroke-dasharray="4,4"/><line x1="1232" y1="50" x2="1232" y2="850" stroke="#666666" stroke-width="0.5" stroke-dasharray="4,4"/><line x1="1304" y1="50" x2="1304" y2="850" stroke="#666666" stroke-width="0.5" stroke-dasharray="4,4"/><line x1="1376" y1="50" x2="1376" y2="850" stroke="#666666" stroke-width="0.5" stroke-dasharray="4,4"/><line x1="1448" y1="50" x2="1448" y2="850" stroke="#666666" stroke-width="0.5" stroke-dasharray="4,4"/><line x1="1520" y1="50" x2="1520" y2="850" stroke="#666666" stroke-width="0.5" stroke-dasharray="4,4"/><line x1="1592" y1="50" x2="1592" y2="850" stroke="#666666" stroke-width="0.5" stroke-dasharray="4,4"/><line x1="1664" y1="50" x2="1664" y2="850" stroke="#666666" stroke-width="0.5" stroke-dasharray="4,4"/><line x1="1736" y1="50" x2="1736" y2="850" stroke="#666666" stroke-width="0.5" stroke-dasharray="4,4"/><line x1="1808" y1="50" x2="1808" y2="850" stroke="#666666" stroke-width="0.5" stroke-dasharray="4,4"/><line x1="1880" y1="50" x2="1880" y2="850" stroke="#666666" stroke-width="0.5" stroke-dasharray="4,4"/><text x="80" y="1040" text-anchor="middle" font-size="20" fill="black">09:30</text><text x="152" y="1040" text-anchor="middle" font-size="20" fill="black">10:00</text><text x="224" y="1040" text-anchor="middle" font-size="20" fill="black">10:30</text><text x="296" y="1040" text-anchor="middle" font-size="20" fill="black">11:00</text><text x="368" y="1040" text-anchor="middle" font-size="20" fill="black">11:30</text><text x="440" y="1040" text-anchor="middle" font-size="20" fill="black">12:00</text><text x="512" y="1040" text-anchor="middle" font-size="20" fill="black">12:30</text><text x="584" y="1040" text-anchor="middle" font-size="20" fill="black">13:00</text><text x="656" y="1040" text-anchor="middle" font-size="20" fill="black">13:30</text><text x="728" y="1040" text-anchor="middle" font-size="20" fill="black">14:00</text><text x="800" y="1040" text-anchor="middle" font-size="20" fill="black">14:30</text><text x="872" y="1040" text-anchor="middle" font-size="20" fill="black">15:00</text><text x="944" y="1040" text-anchor="middle" font-size="20" fill="black">15:30</text><text x="1016" y="1040" text-anchor="middle" font-size="20" fill="black">09:30</text><text x="1088" y="1040" text-anchor="middle" font-size="20" fill="black">10:00</text><text x="1160" y="1040" text-anchor="middle" font-size="20" fill="black">10:30</text><text x="1232" y="1040" text-anchor="middle" font-size="20" fill="black">11:00</text><text x="1304" y="1040" text-anchor="middle" font-size="20" fill="black">11:30</text><text x="1376" y="1040" text-anchor="middle" font-size="20" fill="black">12:00</text><text x="1448" y="1040" text-anchor="middle" font-size="20" fill="black">12:30</text><text x="1520" y="1040" text-anchor="middle" font-size="20" fill="black">13:00</text><text x="1592" y="1040" text-anchor="middle" font-size="20" fill="black">13:30</text><text x="1664" y="1040" text-anchor="middle" font-size="20" fill="black">14:00</text><text x="1736" y="1040" text-anchor="middle" font-size="20" fill="black">14:30</text><text x="1808" y="1040" text-anchor="middle" font-size="20" fill="black">15:00</text><text x="1880" y="1040" text-anchor="middle" font-size="20" fill="black">15:30</text><text x="1942" y="50" text-anchor="end" font-size="40" fill="#26a69a" font-weight="bold"> +1.18% (Thu)</text></svg>