<svg xmlns="http://www.w3.org/2000/svg" width="1992" height="1050"><rect width="100%" height="100%" fill="white"/><text x="42" y="854.0" text-anchor="end" font-size="20" fill="black">421</text><text x="42" y="819.2173913043479" text-anchor="end" font-size="20" fill="black">422</text><text x="42" y="784.4347826086956" text-anchor="end" font-size="20" fill="black">423</text><text x="42" y="749.6521739130435" text-anchor="end" font-size="20" fill="black">424</text><text x="42" y="714.8695652173913" text-anchor="end" font-size="20" fill="black">425</text><text x="42" y="680.0869565217391" text-anchor="end" font-size="20" fill="black">426</text><text x="42" y="645.304347826087" text-anchor="end" font-size="20" fill="black">427</text><text x="42" y="610.5217391304348" text-anchor="end" font-size="20" fill="black">428</text><text x="42" y="575.7391304347826" text-anchor="end" font-size="20" fill="black">429</text><text x="42" y="540.9565217391305" text-anchor="end" font-size="20" fill="black">430</text><text x="42" y="506.17391304347825" text-anchor="end" font-size="20" fill="black">431</text><text x="42" y="471.39130434782606" text-anchor="end" font-size="20" fill="black">432</text><text x="42" y="436.60869565217394" text-anchor="end" font-size="20" fill="black">433</text><text x="42" y="401.82608695652175" text-anchor="end" font-size="20" fill="black">434</text><text x="42" y="367.0434782608695" text-anchor="end" font-size="20" fill="black">435</text><text x="42" y="332.2608695652174" text-anchor="end" font-size="20" fill="black">436</text><text x="42" y="297.47826086956525" text-anchor="end" font-size="20" fill="black">437</text><text x="42" y="262.6956521739131" text-anchor="end" font-size="20" fill="black">438</text><text x="42" y="227.91304347826087" text-anchor="end" font-size="20" fill="black">439</text><text x="42" y="193.13043478260875" text-anchor="end" font-size="20" fill="black">440</text><text x="42" y="158.3478260869565" text-anchor="end" font-size="20" fill="black">441</text><text x="42" y="123.56521739130437" text-anchor="end" font-size="20" fill="black">442</text><text x="42" y="88.78260869565213" text-anchor="end" font-size="20" fill="black">443</text><text x="42" y="54.0" text-anchor="end" font-size="20" fill="black">444</text><line x1="80" y1="716.9042326956514" x2="80" y2="882.1733140869563" stroke="#26a69a" stroke-width="2"/><rect x="76" y="740.0212020869573" width="8" height="99.71349599999996" fill="#26a69a"/><line x1="92" y1="581.652708521739" x2="92" y2="767.2440215652169" stroke="#26a69a" stroke-width="2"/><rect x="88" y="590.6234726956526" width="8" height="150.4328177391293" fill="#26a69a"/><line x1="104" y1="588.8983259130426" x2="104" y2="723.80482052174" stroke="#ef5350" stroke-width="2"/><rect x="100" y="591.3135318260865" width="8" height="70.04096765217389" fill="#ef5350"/><line x1="116" y1="523.6877697391304" x2="116" y2="669.2901756521737" stroke="#26a69a" stroke-width="2"/><rect x="112" y="534.3836810434783" width="8" height="124.21058330434755" fill="#26a69a"/><line x1="128" y1="512.9918584347824" x2="128" y2="588.8983259130426" stroke="#ef5350" stroke-width="2"/><rect x="124" y="538.1790045217397" width="8" height="33.46785147826108" fill="#ef5350"/><line x1="140" y1="541.2842688695649" x2="140" y2="586.4831200000006" stroke="#26a69a" stroke-width="2"/><rect x="136" y="569.9217088695644" width="8" height="2" fill="#26a69a"/><line x1="152" y1="379.1204518260874" x2="152" y2="571.3018264347818" stroke="#26a69a" stroke-width="2"/><rect x="148" y="437.7754493913036" width="8" height="132.83631826087048" fill="#26a69a"/><line x1="164" y1="409.8280681739138" x2="164" y2="549.5649746086953" stroke="#ef5350" stroke-width="2"/><rect x="160" y="441.915802434782" width="8" height="85.56729043478333" fill="#ef5350"/><line x1="176" y1="489.87488869565226" x2="176" y2="586.1035878260875" stroke="#26a69a" stroke-width="2"/><rect x="172" y="492.63512382608695" width="8" height="35.883057391305044" fill="#26a69a"/><line x1="188" y1="451.9216549565222" x2="188" y2="522.3076521739131" stroke="#26a69a" stroke-width="2"/><rect x="184" y="458.1321839999992" width="8" height="37.95323373913203" fill="#26a69a"/><line x1="200" y1="450.1965078260879" x2="200" y2="556.1205332173912" stroke="#ef5350" stroke-width="2"/><rect x="196" y="460.20236034782613" width="8" height="61.07020347826028" fill="#ef5350"/><line x1="212" y1="473.6585067826087" x2="212" y2="593.0386786086965" stroke="#ef5350" stroke-width="2"/><rect x="208" y="526.7930340869557" width="8" height="64.52049773913086" fill="#ef5350"/><line x1="224" y1="487.80471234782533" x2="224" y2="597.5240608695656" stroke="#26a69a" stroke-width="2"/><rect x="220" y="494.0152413913043" width="8" height="96.6082313043483" fill="#26a69a"/><line x1="236" y1="443.2959199999993" x2="236" y2="521.962622608696" stroke="#26a69a" stroke-width="2"/><rect x="232" y="457.4421252173915" width="8" height="34.50293982608582" fill="#26a69a"/><line x1="248" y1="447.43627269565127" x2="248" y2="533.003563478261" stroke="#ef5350" stroke-width="2"/><rect x="244" y="460.20236034782613" width="8" height="69.00587965217358" fill="#ef5350"/><line x1="260" y1="477.45383026087006" x2="260" y2="542.3193572173916" stroke="#26a69a" stroke-width="2"/><rect x="256" y="509.5415641739138" width="8" height="19.321646608695232" fill="#26a69a"/><line x1="272" y1="406.37777426086956" x2="272" y2="547.8398274782609" stroke="#26a69a" stroke-width="2"/><rect x="268" y="430.8748615652171" width="8" height="79.35676139130442" fill="#26a69a"/><line x1="284" y1="428.1146264347824" x2="284" y2="533.003563478261" stroke="#ef5350" stroke-width="2"/><rect x="280" y="430.52983234782636" width="8" height="89.36261391304271" fill="#ef5350"/><line x1="296" y1="494.0152413913043" x2="296" y2="564.7462681739121" stroke="#26a69a" stroke-width="2"/><rect x="292" y="518.1672991304347" width="8" height="2" fill="#26a69a"/><line x1="308" y1="372.9099227826084" x2="308" y2="519.8924462608691" stroke="#26a69a" stroke-width="2"/><rect x="304" y="400.16724521739053" width="8" height="118.3450834782613" fill="#26a69a"/><line x1="320" y1="338.7520121739133" x2="320" y2="428.45965565217307" stroke="#26a69a" stroke-width="2"/><rect x="316" y="355.65845286956454" width="8" height="43.473704000001305" fill="#26a69a"/><line x1="332" y1="324.2607777391305" x2="332" y2="374.6350695652164" stroke="#ef5350" stroke-width="2"/><rect x="328" y="356.3485116521742" width="8" height="7.590646608696261" fill="#ef5350"/><line x1="344" y1="315.2900132173904" x2="344" y2="375.67015791304306" stroke="#26a69a" stroke-width="2"/><rect x="340" y="315.2900132173904" width="8" height="50.029262608697366" fill="#26a69a"/><line x1="356" y1="321.1555130434788" x2="356" y2="392.57659826086996" stroke="#ef5350" stroke-width="2"/><rect x="352" y="321.1555130434788" width="8" height="65.9006149565219" fill="#ef5350"/><line x1="368" y1="348.0678059130439" x2="368" y2="396.71695130434824" stroke="#26a69a" stroke-width="2"/><rect x="364" y="380.1555401739121" width="8" height="9.315793739130527" fill="#26a69a"/><line x1="380" y1="318.74030713043476" x2="380" y2="399.82221565217355" stroke="#26a69a" stroke-width="2"/><rect x="376" y="344.6175119999996" width="8" height="37.9532337391301" fill="#26a69a"/><line x1="392" y1="343.9274532173919" x2="392" y2="419.1438619130445" stroke="#ef5350" stroke-width="2"/><rect x="388" y="345.997629565217" width="8" height="58.654997913044554" fill="#ef5350"/><line x1="404" y1="361.5239526956528" x2="404" y2="410.86315652173846" stroke="#ef5350" stroke-width="2"/><rect x="400" y="403.96256869565195" width="8" height="2" fill="#ef5350"/><line x1="416" y1="377.0502754782604" x2="416" y2="432.2549791304343" stroke="#26a69a" stroke-width="2"/><rect x="412" y="385.33098121739073" width="8" height="18.631587478261224" fill="#26a69a"/><line x1="428" y1="369.4596288695661" x2="428" y2="409.8280681739138" stroke="#26a69a" stroke-width="2"/><rect x="424" y="384.64092208695666" width="8" height="3.450294260868702" fill="#26a69a"/><line x1="440" y1="344.9625415652166" x2="440" y2="418.4538031304347" stroke="#26a69a" stroke-width="2"/><rect x="436" y="360.48886434782617" width="8" height="27.6023519999992" fill="#26a69a"/><line x1="452" y1="350.13798260869527" x2="452" y2="397.4070100869559" stroke="#26a69a" stroke-width="2"/><rect x="448" y="355.3134233043475" width="8" height="6.555558608696003" fill="#26a69a"/><line x1="464" y1="329.7812479999998" x2="464" y2="368.7695700869565" stroke="#26a69a" stroke-width="2"/><rect x="460" y="339.78710052173994" width="8" height="19.666675826085907" fill="#26a69a"/><line x1="476" y1="300.79877843478323" x2="476" y2="342.8923652173916" stroke="#26a69a" stroke-width="2"/><rect x="472" y="301.4888372173908" width="8" height="35.883057391305215" fill="#26a69a"/><line x1="488" y1="277.6818090434774" x2="488" y2="334.26663026086874" stroke="#26a69a" stroke-width="2"/><rect x="484" y="280.7870733913047" width="8" height="21.04679339130314" fill="#26a69a"/><line x1="500" y1="233.17301669565143" x2="500" y2="290.10286713043524" stroke="#26a69a" stroke-width="2"/><rect x="496" y="238.69348695652263" width="8" height="42.438615999999115" fill="#26a69a"/><line x1="512" y1="238.69348695652263" x2="512" y2="320.1204246956521" stroke="#ef5350" stroke-width="2"/><rect x="508" y="238.69348695652263" width="8" height="69.69593843478128" fill="#ef5350"/><line x1="524" y1="313.2198368695655" x2="524" y2="371.1847756521741" stroke="#ef5350" stroke-width="2"/><rect x="520" y="313.2198368695655" width="8" height="43.818733565216405" fill="#ef5350"/><line x1="536" y1="329.09118921739207" x2="536" y2="372.5648932173914" stroke="#ef5350" stroke-width="2"/><rect x="532" y="356.0034820869572" width="8" height="2" fill="#ef5350"/><line x1="548" y1="356.3485116521742" x2="548" y2="398.7871276521733" stroke="#ef5350" stroke-width="2"/><rect x="544" y="357.0385704347819" width="8" height="27.602351652174775" fill="#ef5350"/><line x1="560" y1="381.1906281739124" x2="560" y2="427.7695968695654" stroke="#ef5350" stroke-width="2"/><rect x="556" y="383.6058340869563" width="8" height="43.818733565218395" fill="#ef5350"/><line x1="572" y1="421.2140386086958" x2="572" y2="456.75206643478185" stroke="#ef5350" stroke-width="2"/><rect x="568" y="427.1140410434782" width="8" height="8.591232000000446" fill="#ef5350"/><line x1="584" y1="417.4187151304345" x2="584" y2="447.7813022608703" stroke="#26a69a" stroke-width="2"/><rect x="580" y="432.945037913044" width="8" height="6.900588173912979" fill="#26a69a"/><line x1="596" y1="387.4011575652177" x2="596" y2="453.9918313043472" stroke="#26a69a" stroke-width="2"/><rect x="592" y="409.8280681739138" width="8" height="24.152058086954924" fill="#26a69a"/><line x1="608" y1="382.22571652173906" x2="608" y2="432.60000869565135" stroke="#26a69a" stroke-width="2"/><rect x="604" y="402.5824507826082" width="8" height="7.935676173913237" fill="#26a69a"/><line x1="620" y1="370.1496876521737" x2="620" y2="406.37777426086956" stroke="#26a69a" stroke-width="2"/><rect x="616" y="378.085363826087" width="8" height="25.877204869564935" fill="#26a69a"/><line x1="632" y1="353.9333057391302" x2="632" y2="385.6760104347833" stroke="#ef5350" stroke-width="2"/><rect x="628" y="374.29004034782577" width="8" height="6.210529043478914" fill="#ef5350"/><line x1="644" y1="350.82804139130485" x2="644" y2="402.2374215652175" stroke="#ef5350" stroke-width="2"/><rect x="640" y="379.81051060869504" width="8" height="16.21638191304362" fill="#ef5350"/><line x1="656" y1="361.5239526956528" x2="656" y2="396.71695130434824" stroke="#26a69a" stroke-width="2"/><rect x="652" y="363.59412904347784" width="8" height="32.777792695653375" fill="#26a69a"/><line x1="668" y1="361.5239526956528" x2="668" y2="393.2666570434776" stroke="#ef5350" stroke-width="2"/><rect x="664" y="366.3543641739125" width="8" height="8.970764173913608" fill="#ef5350"/><line x1="680" y1="334.61165947826134" x2="680" y2="379.81051060869504" stroke="#26a69a" stroke-width="2"/><rect x="676" y="366.6993933913051" width="8" height="9.660823304347673" fill="#26a69a"/><line x1="692" y1="359.1087467826088" x2="692" y2="392.2315690434773" stroke="#ef5350" stroke-width="2"/><rect x="688" y="364.62921704347815" width="8" height="26.912293217391436" fill="#ef5350"/><line x1="704" y1="367.0444229565221" x2="704" y2="394.64677495652126" stroke="#26a69a" stroke-width="2"/><rect x="700" y="388.4362455652179" width="8" height="2" fill="#26a69a"/><line x1="716" y1="368.7695700869565" x2="716" y2="420.86900904347874" stroke="#ef5350" stroke-width="2"/><rect x="712" y="386.0210400000003" width="8" height="22.771940173913208" fill="#ef5350"/><line x1="728" y1="400.51227443478325" x2="728" y2="462.9625954782608" stroke="#ef5350" stroke-width="2"/><rect x="724" y="409.8280681739138" width="8" height="48.99417460869506" fill="#ef5350"/><line x1="740" y1="437.7754493913036" x2="740" y2="462.61756626087015" stroke="#26a69a" stroke-width="2"/><rect x="736" y="443.2959199999993" width="8" height="16.216381565217205" fill="#26a69a"/><line x1="752" y1="435.360243826086" x2="752" y2="487.4596827826083" stroke="#ef5350" stroke-width="2"/><rect x="748" y="443.64094921739195" width="8" height="38.298263304347074" fill="#ef5350"/><line x1="764" y1="444.67603756521663" x2="764" y2="490.21991791304293" stroke="#26a69a" stroke-width="2"/><rect x="760" y="458.82224278260884" width="8" height="24.186560695652986" fill="#26a69a"/><line x1="776" y1="440.88071408695725" x2="776" y2="477.1088010434774" stroke="#ef5350" stroke-width="2"/><rect x="772" y="455.37194886956456" width="8" height="20.011705043478514" fill="#ef5350"/><line x1="788" y1="437.08539060869595" x2="788" y2="476.0737126956527" stroke="#26a69a" stroke-width="2"/><rect x="784" y="441.915802434782" width="8" height="32.087733913043735" fill="#26a69a"/><line x1="800" y1="420.86900904347874" x2="800" y2="452.61171373912987" stroke="#ef5350" stroke-width="2"/><rect x="796" y="445.02106678260924" width="8" height="2" fill="#ef5350"/><line x1="812" y1="428.1146264347824" x2="812" y2="478.1438890434777" stroke="#ef5350" stroke-width="2"/><rect x="808" y="446.74621391304356" width="8" height="24.1520577391305" fill="#ef5350"/><line x1="824" y1="467.79300730434875" x2="824" y2="531.9684751304344" stroke="#ef5350" stroke-width="2"/><rect x="820" y="470.89827165217406" width="8" height="61.07020347826034" fill="#ef5350"/><line x1="836" y1="516.0971227826078" x2="836" y2="558.8807683478258" stroke="#ef5350" stroke-width="2"/><rect x="832" y="531.9684751304344" width="8" height="21.73685217391278" fill="#ef5350"/><line x1="848" y1="493.6702121739136" x2="848" y2="554.3953860869569" stroke="#26a69a" stroke-width="2"/><rect x="844" y="533.003563478261" width="8" height="20.70176382608622" fill="#26a69a"/><line x1="860" y1="526.448004869565" x2="860" y2="563.0211210434778" stroke="#ef5350" stroke-width="2"/><rect x="856" y="532.3135046956513" width="8" height="19.666675478261595" fill="#ef5350"/><line x1="872" y1="475.3836539130431" x2="872" y2="551.6351509565222" stroke="#26a69a" stroke-width="2"/><rect x="868" y="478.1438890434777" width="8" height="73.14623234782749" fill="#26a69a"/><line x1="884" y1="479.524006608695" x2="884" y2="537.8339749565226" stroke="#ef5350" stroke-width="2"/><rect x="880" y="479.524006608695" width="8" height="52.444468521739395" fill="#ef5350"/><line x1="896" y1="502.29594713043457" x2="896" y2="545.7696511304339" stroke="#ef5350" stroke-width="2"/><rect x="892" y="535.7637986086957" width="8" height="7.245617391303654" fill="#ef5350"/><line x1="908" y1="521.6175933913034" x2="908" y2="550.9450921739126" stroke="#26a69a" stroke-width="2"/><rect x="904" y="531.9684751304344" width="8" height="11.385970086957514" fill="#26a69a"/><line x1="920" y1="497.1205060869559" x2="920" y2="538.1790045217397" stroke="#26a69a" stroke-width="2"/><rect x="916" y="507.81641739130384" width="8" height="24.497087304347474" fill="#26a69a"/><line x1="932" y1="484.00938886956595" x2="932" y2="525.0678873043478" stroke="#26a69a" stroke-width="2"/><rect x="928" y="489.87488869565226" width="8" height="17.59649913043461" fill="#26a69a"/><line x1="944" y1="468.1380365217394" x2="944" y2="530.5883575652169" stroke="#ef5350" stroke-width="2"/><rect x="940" y="491.6000354782603" width="8" height="2" fill="#ef5350"/><line x1="956" y1="460.20236034782613" x2="956" y2="504.02109391304253" stroke="#26a69a" stroke-width="2"/><rect x="952" y="488.83980034782564" width="8" height="4.485382260870949" fill="#26a69a"/><line x1="968" y1="476.4187422608697" x2="968" y2="538.1790045217397" stroke="#ef5350" stroke-width="2"/><rect x="964" y="488.49477113043497" width="8" height="42.78364521739172" fill="#ef5350"/><line x1="980" y1="514.3719759999998" x2="980" y2="538.5240337391303" stroke="#26a69a" stroke-width="2"/><rect x="976" y="522.9977109565207" width="8" height="8.625734956523047" fill="#26a69a"/><line x1="992" y1="482.62927130434866" x2="992" y2="546.1146803478266" stroke="#26a69a" stroke-width="2"/><rect x="988" y="511.9567700869558" width="8" height="12.421058434784243" fill="#26a69a"/><line x1="1004" y1="448.81639026086856" x2="1004" y2="515.7520935652171" stroke="#26a69a" stroke-width="2"/><rect x="1000" y="459.1672723478259" width="8" height="52.09943895652225" fill="#26a69a"/><line x1="1016" y1="328.40113043478243" x2="1016" y2="415.34853878260947" stroke="#26a69a" stroke-width="2"/><rect x="1012" y="377.39530504347744" width="8" height="29.672528000001705" fill="#26a69a"/><line x1="1028" y1="364.2841878260874" x2="1028" y2="445.02106678260924" stroke="#ef5350" stroke-width="2"/><rect x="1024" y="379.4654813913044" width="8" height="22.771940173913094" fill="#ef5350"/><line x1="1040" y1="385.6760104347833" x2="1040" y2="495.0503297391309" stroke="#ef5350" stroke-width="2"/><rect x="1036" y="405.6877154782619" width="8" height="66.97020626086902" fill="#ef5350"/><line x1="1052" y1="403.6175391304349" x2="1052" y2="499.8807412173906" stroke="#26a69a" stroke-width="2"/><rect x="1048" y="417.0736855652175" width="8" height="57.274880000000906" fill="#26a69a"/><line x1="1064" y1="353.2432469565225" x2="1064" y2="453.6468017391302" stroke="#26a69a" stroke-width="2"/><rect x="1060" y="359.1087467826088" width="8" height="60.035115130435656" fill="#26a69a"/><line x1="1076" y1="328.0561008695654" x2="1076" y2="379.4654813913044" stroke="#26a69a" stroke-width="2"/><rect x="1072" y="353.58827652173954" width="8" height="6.210529043476981" fill="#26a69a"/><line x1="1088" y1="316.3251015652172" x2="1088" y2="384.64092208695666" stroke="#26a69a" stroke-width="2"/><rect x="1084" y="318.74030713043476" width="8" height="34.84796939130479" fill="#26a69a"/><line x1="1100" y1="280.442044173912" x2="1100" y2="356.0034820869572" stroke="#26a69a" stroke-width="2"/><rect x="1096" y="285.2724556521737" width="8" height="33.812881043478114" fill="#26a69a"/><line x1="1112" y1="281.8221617391314" x2="1112" y2="333.9216006956517" stroke="#ef5350" stroke-width="2"/><rect x="1108" y="285.61748486956435" width="8" height="32.43276347826077" fill="#ef5350"/><line x1="1124" y1="289.75783791304264" x2="1124" y2="347.0327179130436" stroke="#26a69a" stroke-width="2"/><rect x="1120" y="296.3133965217386" width="8" height="15.871352000000229" fill="#26a69a"/><line x1="1136" y1="287.6876615652177" x2="1136" y2="329.43621843478275" stroke="#26a69a" stroke-width="2"/><rect x="1132" y="295.27830817391396" width="8" height="3.105264695651613" fill="#26a69a"/><line x1="1148" y1="287.34263200000066" x2="1148" y2="338.40698295652265" stroke="#ef5350" stroke-width="2"/><rect x="1144" y="297.00345530434834" width="8" height="38.988321739130356" fill="#ef5350"/><line x1="1160" y1="314.25492521739216" x2="1160" y2="363.59412904347784" stroke="#26a69a" stroke-width="2"/><rect x="1156" y="317.70521913043444" width="8" height="17.94152869565164" fill="#26a69a"/><line x1="1172" y1="271.8163092173911" x2="1172" y2="322.88066017391316" stroke="#26a69a" stroke-width="2"/><rect x="1168" y="287.34263200000066" width="8" height="30.017557565216748" fill="#26a69a"/><line x1="1184" y1="250.76951582608785" x2="1184" y2="292.51807304347733" stroke="#26a69a" stroke-width="2"/><rect x="1180" y="258.7051919999992" width="8" height="25.877204869566754" fill="#26a69a"/><line x1="1196" y1="187.28410643478173" x2="1196" y2="266.2958386086955" stroke="#26a69a" stroke-width="2"/><rect x="1192" y="200.74025321739055" width="8" height="55.894762434783615" fill="#26a69a"/><line x1="1208" y1="195.90984139130455" x2="1208" y2="233.17301669565143" stroke="#ef5350" stroke-width="2"/><rect x="1204" y="201.08528243478327" width="8" height="12.766087652172814" fill="#ef5350"/><line x1="1220" y1="212.81628208695588" x2="1220" y2="236.62331060869576" stroke="#ef5350" stroke-width="2"/><rect x="1216" y="213.1613113043485" width="8" height="5.175441043476667" fill="#ef5350"/><line x1="1232" y1="198.32504730434857" x2="1232" y2="225.58236973913074" stroke="#26a69a" stroke-width="2"/><rect x="1228" y="216.9566347826078" width="8" height="3.4502939130443337" fill="#26a69a"/><line x1="1244" y1="190.38937113043528" x2="1244" y2="220.40692869565214" stroke="#26a69a" stroke-width="2"/><rect x="1240" y="198.6700768695656" width="8" height="17.251469913043934" fill="#26a69a"/><line x1="1256" y1="194.18469460869665" x2="1256" y2="253.87478052173958" stroke="#ef5350" stroke-width="2"/><rect x="1252" y="199.70516486956592" width="8" height="50.37429217391241" fill="#ef5350"/><line x1="1268" y1="236.96833982608632" x2="1268" y2="276.6467206956527" stroke="#ef5350" stroke-width="2"/><rect x="1264" y="249.38939826086857" width="8" height="4.140352695653974" fill="#ef5350"/><line x1="1280" y1="229.72272243478267" x2="1280" y2="272.50636800000075" stroke="#26a69a" stroke-width="2"/><rect x="1276" y="248.00928069565134" width="8" height="6.900587826088554" fill="#26a69a"/><line x1="1292" y1="240.41863373913066" x2="1292" y2="318.0502483478251" stroke="#ef5350" stroke-width="2"/><rect x="1288" y="247.6642511304343" width="8" height="68.31582086956587" fill="#ef5350"/><line x1="1304" y1="257.32507443478187" x2="1304" y2="316.3251015652172" stroke="#26a69a" stroke-width="2"/><rect x="1300" y="263.5356034782609" width="8" height="51.40938052173897" fill="#26a69a"/><line x1="1316" y1="245.24904556521665" x2="1316" y2="283.5473085217393" stroke="#ef5350" stroke-width="2"/><rect x="1312" y="260.4303391304355" width="8" height="2" fill="#ef5350"/><line x1="1328" y1="246.629163130434" x2="1328" y2="279.7519853913044" stroke="#26a69a" stroke-width="2"/><rect x="1324" y="250.76951582608785" width="8" height="10.005852521738348" fill="#26a69a"/><line x1="1340" y1="210.0560469565212" x2="1340" y2="266.2958386086955" stroke="#26a69a" stroke-width="2"/><rect x="1336" y="213.85137008695608" width="8" height="35.538028173912494" fill="#26a69a"/><line x1="1352" y1="179.6934598260874" x2="1352" y2="214.1963996521731" stroke="#26a69a" stroke-width="2"/><rect x="1348" y="198.32504730434857" width="8" height="14.146205217390275" fill="#26a69a"/><line x1="1364" y1="182.45369495652199" x2="1364" y2="203.1554587826082" stroke="#26a69a" stroke-width="2"/><rect x="1360" y="185.9039888695644" width="8" height="9.660823304349606" fill="#26a69a"/><line x1="1376" y1="166.92737217391254" x2="1376" y2="199.01510608695628" stroke="#ef5350" stroke-width="2"/><rect x="1372" y="184.52387130434704" width="8" height="2.1046793043494745" fill="#ef5350"/><line x1="1388" y1="175.2080775652164" x2="1388" y2="201.4303120000003" stroke="#ef5350" stroke-width="2"/><rect x="1384" y="187.97416556521773" width="8" height="3.4502939130422874" fill="#ef5350"/><line x1="1400" y1="170.7226956521738" x2="1400" y2="194.87475339130424" stroke="#26a69a" stroke-width="2"/><rect x="1396" y="173.82795999999917" width="8" height="15.526323130435799" fill="#26a69a"/><line x1="1412" y1="153.81625495652258" x2="1412" y2="180.3835186086951" stroke="#26a69a" stroke-width="2"/><rect x="1408" y="159.33672521739186" width="8" height="14.146205565216519" fill="#26a69a"/><line x1="1424" y1="154.85134330434732" x2="1424" y2="193.14960626086997" stroke="#ef5350" stroke-width="2"/><rect x="1420" y="159.33672521739186" width="8" height="20.529249391304006" fill="#ef5350"/><line x1="1436" y1="178.31334226087006" x2="1436" y2="205.57066469565223" stroke="#ef5350" stroke-width="2"/><rect x="1432" y="179.86597460869586" width="8" height="12.938602434781387" fill="#ef5350"/><line x1="1448" y1="174.86304834782572" x2="1448" y2="200.74025321739055" stroke="#26a69a" stroke-width="2"/><rect x="1444" y="175.89813634782615" width="8" height="15.181293565216833" fill="#26a69a"/><line x1="1460" y1="174.17298956521813" x2="1460" y2="205.91569426086926" stroke="#ef5350" stroke-width="2"/><rect x="1456" y="176.24316591304307" width="8" height="5.865499826088353" fill="#ef5350"/><line x1="1472" y1="163.82210747826082" x2="1472" y2="184.52387130434704" stroke="#26a69a" stroke-width="2"/><rect x="1468" y="179.00340104347777" width="8" height="2.760235130434694" fill="#26a69a"/><line x1="1484" y1="155.88643130434752" x2="1484" y2="176.24316591304307" stroke="#26a69a" stroke-width="2"/><rect x="1480" y="167.96246017391286" width="8" height="6.5555586086959465" fill="#26a69a"/><line x1="1496" y1="111.03260973913086" x2="1496" y2="167.27240139130515" stroke="#26a69a" stroke-width="2"/><rect x="1492" y="117.93319756521748" width="8" height="49.33920382608767" fill="#26a69a"/><line x1="1508" y1="99.3016100869562" x2="1508" y2="122.76360904347905" stroke="#26a69a" stroke-width="2"/><rect x="1504" y="114.17237704347872" width="8" height="3.4157913043480903" fill="#26a69a"/><line x1="1520" y1="96.8864041739123" x2="1520" y2="128.62910886956536" stroke="#26a69a" stroke-width="2"/><rect x="1516" y="99.3016100869562" width="8" height="12.766087652174974" fill="#26a69a"/><line x1="1532" y1="96.8864041739123" x2="1532" y2="121.0384622608691" stroke="#ef5350" stroke-width="2"/><rect x="1528" y="99.3016100869562" width="8" height="9.626320347827118" fill="#ef5350"/><line x1="1544" y1="107.58231582608653" x2="1544" y2="126.90396208695745" stroke="#ef5350" stroke-width="2"/><rect x="1540" y="107.58231582608653" width="8" height="16.21638156521726" fill="#ef5350"/><line x1="1556" y1="118.27822713043452" x2="1556" y2="143.46537321739163" stroke="#ef5350" stroke-width="2"/><rect x="1552" y="122.07355026086941" width="8" height="6.210529391305386" fill="#ef5350"/><line x1="1568" y1="114.13787408695612" x2="1568" y2="146.570637565217" stroke="#ef5350" stroke-width="2"/><rect x="1564" y="128.62910886956536" width="8" height="5.520470260869274" fill="#ef5350"/><line x1="1580" y1="114.82793286956576" x2="1580" y2="145.53554956521668" stroke="#26a69a" stroke-width="2"/><rect x="1576" y="118.24372417391396" width="8" height="15.90585495652067" fill="#26a69a"/><line x1="1592" y1="107.58231582608653" x2="1592" y2="126.21390330434781" stroke="#ef5350" stroke-width="2"/><rect x="1588" y="117.58816834782681" width="8" height="6.210529043476981" fill="#ef5350"/><line x1="1604" y1="105.51213913043523" x2="1604" y2="131.38934400000005" stroke="#26a69a" stroke-width="2"/><rect x="1600" y="115.51799165217346" width="8" height="6.5555586086959465" fill="#26a69a"/><line x1="1616" y1="112.75775652173877" x2="1616" y2="144.84549078260898" stroke="#ef5350" stroke-width="2"/><rect x="1612" y="116.89810956521717" width="8" height="20.35673426086919" fill="#ef5350"/><line x1="1628" y1="121.72852104347885" x2="1628" y2="153.47122573912998" stroke="#26a69a" stroke-width="2"/><rect x="1624" y="125.5238445217401" width="8" height="10.005852521738348" fill="#26a69a"/><line x1="1640" y1="106.89225669565246" x2="1640" y2="129.66419721739214" stroke="#26a69a" stroke-width="2"/><rect x="1636" y="113.1027860869558" width="8" height="9.660822956523248" fill="#26a69a"/><line x1="1652" y1="100.68172765217355" x2="1652" y2="123.79869739130379" stroke="#ef5350" stroke-width="2"/><rect x="1648" y="112.06769773913118" width="8" height="9.660823304347673" fill="#ef5350"/><line x1="1664" y1="115.51799165217346" x2="1664" y2="134.14957913043463" stroke="#ef5350" stroke-width="2"/><rect x="1660" y="119.31331513043483" width="8" height="7.9356761739132935" fill="#ef5350"/><line x1="1676" y1="116.89810956521717" x2="1676" y2="148.64081391304398" stroke="#ef5350" stroke-width="2"/><rect x="1672" y="125.86887373913078" width="8" height="11.38597008695558" fill="#ef5350"/><line x1="1688" y1="120.00337391304447" x2="1688" y2="135.52969704347845" stroke="#26a69a" stroke-width="2"/><rect x="1684" y="131.73437356521708" width="8" height="2" fill="#26a69a"/><line x1="1700" y1="104.13202156521788" x2="1700" y2="132.07940278260764" stroke="#26a69a" stroke-width="2"/><rect x="1696" y="105.51213913043523" width="8" height="26.567263652172414" fill="#26a69a"/><line x1="1712" y1="84.81037530434708" x2="1712" y2="108.96243339130388" stroke="#26a69a" stroke-width="2"/><rect x="1708" y="90.33084591304271" width="8" height="17.07895513043536" fill="#26a69a"/><line x1="1724" y1="87.57061043478166" x2="1724" y2="100.68172765217355" stroke="#26a69a" stroke-width="2"/><rect x="1720" y="90.33084591304271" width="8" height="2" fill="#26a69a"/><line x1="1736" y1="78.5998462608701" x2="1736" y2="109.30746260869648" stroke="#26a69a" stroke-width="2"/><rect x="1732" y="79.2899050434778" width="8" height="9.315793739130527" fill="#26a69a"/><line x1="1748" y1="70.31914052173977" x2="1748" y2="85.84546365217363" stroke="#ef5350" stroke-width="2"/><rect x="1744" y="79.63493426087041" width="8" height="2" fill="#ef5350"/><line x1="1760" y1="80.32499304347812" x2="1760" y2="96.54137495652162" stroke="#ef5350" stroke-width="2"/><rect x="1756" y="80.67002260869515" width="8" height="2" fill="#ef5350"/><line x1="1772" y1="69.62908173913013" x2="1772" y2="89.98581634782568" stroke="#26a69a" stroke-width="2"/><rect x="1768" y="79.2899050434778" width="8" height="2" fill="#26a69a"/><line x1="1784" y1="69.28405252173945" x2="1784" y2="87.22558121739098" stroke="#26a69a" stroke-width="2"/><rect x="1780" y="74.11446399999909" width="8" height="5.865499826088239" fill="#26a69a"/><line x1="1796" y1="69.97411130434716" x2="1796" y2="146.91566713043403" stroke="#ef5350" stroke-width="2"/><rect x="1792" y="71.00919930434748" width="8" height="75.90646782608655" fill="#ef5350"/><line x1="1808" y1="143.8104024347823" x2="1808" y2="220.75195826086917" stroke="#ef5350" stroke-width="2"/><rect x="1804" y="144.84549078260898" width="8" height="65.90061495652185" fill="#ef5350"/><line x1="1820" y1="191.42445947826002" x2="1820" y2="235.2431930434784" stroke="#ef5350" stroke-width="2"/><rect x="1816" y="208.67592939130384" width="8" height="3.105264347827301" fill="#ef5350"/><line x1="1832" y1="189.00925356521793" x2="1832" y2="216.2665760000001" stroke="#ef5350" stroke-width="2"/><rect x="1828" y="211.0911349565215" width="8" height="2" fill="#ef5350"/><line x1="1844" y1="204.91510886956507" x2="1844" y2="247.6642511304343" stroke="#ef5350" stroke-width="2"/><rect x="1840" y="210.0560469565212" width="8" height="9.660822956523248" fill="#ef5350"/><line x1="1856" y1="157.6115784347819" x2="1856" y2="227.65254608695568" stroke="#26a69a" stroke-width="2"/><rect x="1852" y="159.33672521739186" width="8" height="58.30996834782559" fill="#26a69a"/><line x1="1868" y1="155.19637252173993" x2="1868" y2="196.94492973913123" stroke="#ef5350" stroke-width="2"/><rect x="1864" y="159.6817547826089" width="8" height="27.602351652172842" fill="#ef5350"/><line x1="1880" y1="173.13790121739146" x2="1880" y2="204.53557634782555" stroke="#26a69a" stroke-width="2"/><rect x="1876" y="181.07357739130464" width="8" height="3.1052646956517265" fill="#26a69a"/><line x1="1892" y1="172.10281321739114" x2="1892" y2="201.08528243478327" stroke="#ef5350" stroke-width="2"/><rect x="1888" y="181.41860695652167" width="8" height="19.666675478261595" fill="#ef5350"/><line x1="1904" y1="184.52387130434704" x2="1904" y2="216.2665760000001" stroke="#ef5350" stroke-width="2"/><rect x="1900" y="197.98001808695597" width="8" height="17.596499130434495" fill="#ef5350"/><line x1="1916" y1="190.7344006956523" x2="1916" y2="252.49466295652223" stroke="#ef5350" stroke-width="2"/><rect x="1912" y="216.2665760000001" width="8" height="33.122822260868475" fill="#ef5350"/><line x1="1928" y1="221.09698747826178" x2="1928" y2="292.51807304347733" stroke="#ef5350" stroke-width="2"/><rect x="1924" y="249.04436869565154" width="8" height="40.71346921739109" fill="#ef5350"/><line x1="1940" y1="268.02098573912986" x2="1940" y2="332.1964539130437" stroke="#ef5350" stroke-width="2"/><rect x="1936" y="288.722749565218" width="8" height="37.2631749565204" fill="#ef5350"/><rect x="75" y="934.7103583173914" width="10" height="85.28964168260859" fill="#26a69a" opacity="0.9"/><rect x="87" y="944.2961784732522" width="10" height="75.70382152674779" fill="#26a69a" opacity="0.9"/><rect x="99" y="939.6410138832166" width="10" height="80.3589861167834" fill="#ef5350" opacity="0.9"/><rect x="111" y="959.3729505358162" width="10" height="60.627049464183756" fill="#26a69a" opacity="0.9"/><rect x="123" y="970.2196762891473" width="10" height="49.78032371085271" fill="#ef5350" opacity="0.9"/><rect x="135" y="980.5335712085061" width="10" height="39.466428791493854" fill="#26a69a" opacity="0.9"/><rect x="147" y="955.7834476137251" width="10" height="64.21655238627488" fill="#26a69a" opacity="0.9"/><rect x="159" y="976.9517108622497" width="10" height="43.04828913775032" fill="#ef5350" opacity="0.9"/><rect x="171" y="982.6472210877773" width="10" height="37.352778912222675" fill="#26a69a" opacity="0.9"/><rect x="183" y="983.260179552766" width="10" height="36.739820447234024" fill="#26a69a" opacity="0.9"/><rect x="195" y="987.8202896058581" width="10" height="32.17971039414192" fill="#ef5350" opacity="0.9"/><rect x="207" y="986.7934378933239" width="10" height="33.206562106676074" fill="#ef5350" opacity="0.9"/><rect x="219" y="994.1921677927525" width="10" height="25.807832207247543" fill="#26a69a" opacity="0.9"/><rect x="231" y="988.1779382718703" width="10" height="31.82206172812971" fill="#26a69a" opacity="0.9"/><rect x="243" y="983.488143260084" width="10" height="36.51185673991597" fill="#ef5350" opacity="0.9"/><rect x="255" y="987.4899870315041" width="10" height="32.51001296849586" fill="#26a69a" opacity="0.9"/><rect x="267" y="985.6343935018999" width="10" height="34.36560649810008" fill="#26a69a" opacity="0.9"/><rect x="279" y="987.0926925033496" width="10" height="32.907307496650446" fill="#ef5350" opacity="0.9"/><rect x="291" y="984.1590181200696" width="10" height="35.84098187993038" fill="#26a69a" opacity="0.9"/><rect x="303" y="979.4615805324487" width="10" height="40.53841946755131" fill="#26a69a" opacity="0.9"/><rect x="315" y="979.7307425001254" width="10" height="40.269257499874584" fill="#26a69a" opacity="0.9"/><rect x="327" y="989.1762497402718" width="10" height="30.823750259728172" fill="#ef5350" opacity="0.9"/><rect x="339" y="996.0832276508394" width="10" height="23.916772349160624" fill="#26a69a" opacity="0.9"/><rect x="351" y="991.8750343318836" width="10" height="28.124965668116374" fill="#ef5350" opacity="0.9"/><rect x="363" y="996.4056488188638" width="10" height="23.594351181136176" fill="#26a69a" opacity="0.9"/><rect x="375" y="991.5335067242726" width="10" height="28.46649327572743" fill="#26a69a" opacity="0.9"/><rect x="387" y="993.334646901055" width="10" height="26.665353098945047" fill="#ef5350" opacity="0.9"/><rect x="399" y="999.1928006935638" width="10" height="20.807199306436246" fill="#ef5350" opacity="0.9"/><rect x="411" y="993.0417212991424" width="10" height="26.95827870085759" fill="#26a69a" opacity="0.9"/><rect x="423" y="995.8146627593998" width="10" height="24.185337240600234" fill="#26a69a" opacity="0.9"/><rect x="435" y="993.1244760656019" width="10" height="26.875523934398075" fill="#26a69a" opacity="0.9"/><rect x="447" y="1001.0431399522816" width="10" height="18.95686004771835" fill="#26a69a" opacity="0.9"/><rect x="459" y="998.9318783779588" width="10" height="21.06812162204119" fill="#26a69a" opacity="0.9"/><rect x="471" y="999.6525493961171" width="10" height="20.347450603882862" fill="#26a69a" opacity="0.9"/><rect x="483" y="995.7479096360939" width="10" height="24.252090363906063" fill="#26a69a" opacity="0.9"/><rect x="495" y="996.9498241013406" width="10" height="23.050175898659404" fill="#26a69a" opacity="0.9"/><rect x="507" y="996.931314737991" width="10" height="23.068685262009012" fill="#ef5350" opacity="0.9"/><rect x="519" y="996.1945226614315" width="10" height="23.805477338568494" fill="#ef5350" opacity="0.9"/><rect x="531" y="999.3469657779784" width="10" height="20.653034222021574" fill="#ef5350" opacity="0.9"/><rect x="543" y="999.4766507366727" width="10" height="20.523349263327304" fill="#ef5350" opacity="0.9"/><rect x="555" y="1001.5825386248617" width="10" height="18.41746137513826" fill="#ef5350" opacity="0.9"/><rect x="567" y="1002.3950399682833" width="10" height="17.6049600317167" fill="#ef5350" opacity="0.9"/><rect x="579" y="1002.9545004024294" width="10" height="17.045499597570597" fill="#26a69a" opacity="0.9"/><rect x="591" y="999.0929695467236" width="10" height="20.907030453276434" fill="#26a69a" opacity="0.9"/><rect x="603" y="1001.4546448948788" width="10" height="18.54535510512119" fill="#26a69a" opacity="0.9"/><rect x="615" y="1003.1959580327054" width="10" height="16.804041967294552" fill="#26a69a" opacity="0.9"/><rect x="627" y="1003.6172550255907" width="10" height="16.38274497440932" fill="#ef5350" opacity="0.9"/><rect x="639" y="1003.5515766395116" width="10" height="16.44842336048839" fill="#ef5350" opacity="0.9"/><rect x="651" y="999.6584007432405" width="10" height="20.341599256759537" fill="#26a69a" opacity="0.9"/><rect x="663" y="999.6760741998581" width="10" height="20.323925800141865" fill="#ef5350" opacity="0.9"/><rect x="675" y="997.2363012798926" width="10" height="22.763698720107413" fill="#26a69a" opacity="0.9"/><rect x="687" y="1003.5630405032637" width="10" height="16.436959496736335" fill="#ef5350" opacity="0.9"/><rect x="699" y="998.8230910875624" width="10" height="21.176908912437625" fill="#26a69a" opacity="0.9"/><rect x="711" y="1001.1668541486051" width="10" height="18.833145851394875" fill="#ef5350" opacity="0.9"/><rect x="723" y="993.8900472167888" width="10" height="26.109952783211156" fill="#ef5350" opacity="0.9"/><rect x="735" y="998.4397681433556" width="10" height="21.56023185664435" fill="#26a69a" opacity="0.9"/><rect x="747" y="995.7488649580733" width="10" height="24.25113504192666" fill="#ef5350" opacity="0.9"/><rect x="759" y="1000.5246389479994" width="10" height="19.475361052000608" fill="#26a69a" opacity="0.9"/><rect x="771" y="1004.4273680640639" width="10" height="15.572631935936101" fill="#ef5350" opacity="0.9"/><rect x="783" y="999.0583391249728" width="10" height="20.941660875027196" fill="#26a69a" opacity="0.9"/><rect x="795" y="1000.5747933519143" width="10" height="19.42520664808569" fill="#ef5350" opacity="0.9"/><rect x="807" y="998.3768363079671" width="10" height="21.623163692032904" fill="#ef5350" opacity="0.9"/><rect x="819" y="988.8378269290936" width="10" height="31.16217307090642" fill="#ef5350" opacity="0.9"/><rect x="831" y="985.5180830509163" width="10" height="34.48191694908371" fill="#ef5350" opacity="0.9"/><rect x="843" y="996.1164250896211" width="10" height="23.88357491037891" fill="#26a69a" opacity="0.9"/><rect x="855" y="999.8978283143105" width="10" height="20.10217168568954" fill="#ef5350" opacity="0.9"/><rect x="867" y="989.0743885342256" width="10" height="30.92561146577441" fill="#26a69a" opacity="0.9"/><rect x="879" y="1000.6004676301089" width="10" height="19.399532369891062" fill="#ef5350" opacity="0.9"/><rect x="891" y="996.9672587274633" width="10" height="23.03274127253667" fill="#ef5350" opacity="0.9"/><rect x="903" y="996.3833181675969" width="10" height="23.61668183240306" fill="#26a69a" opacity="0.9"/><rect x="915" y="991.8654811120903" width="10" height="28.134518887909735" fill="#26a69a" opacity="0.9"/><rect x="927" y="993.0094791823399" width="10" height="26.990520817660126" fill="#26a69a" opacity="0.9"/><rect x="939" y="994.4558366590479" width="10" height="25.544163340952082" fill="#ef5350" opacity="0.9"/><rect x="951" y="986.7572550733568" width="10" height="33.24274492664324" fill="#26a69a" opacity="0.9"/><rect x="963" y="995.8475019524393" width="10" height="24.152498047560698" fill="#ef5350" opacity="0.9"/><rect x="975" y="976.3178547289632" width="10" height="43.6821452710368" fill="#26a69a" opacity="0.9"/><rect x="987" y="940.4329758040826" width="10" height="79.56702419591738" fill="#26a69a" opacity="0.9"/><rect x="999" y="860.0" width="10" height="160.0" fill="#26a69a" opacity="0.9"/><rect x="1011" y="979.0488814373774" width="10" height="40.95111856262258" fill="#26a69a" opacity="0.9"/><rect x="1023" y="979.0881690537775" width="10" height="40.911830946222494" fill="#ef5350" opacity="0.9"/><rect x="1035" y="984.9795202850681" width="10" height="35.02047971493187" fill="#ef5350" opacity="0.9"/><rect x="1047" y="987.4601332196501" width="10" height="32.53986678034994" fill="#26a69a" opacity="0.9"/><rect x="1059" y="991.2742562221315" width="10" height="28.7257437778685" fill="#26a69a" opacity="0.9"/><rect x="1071" y="988.2348993448879" width="10" height="31.765100655112064" fill="#26a69a" opacity="0.9"/><rect x="1083" y="993.401758270103" width="10" height="26.59824172989704" fill="#26a69a" opacity="0.9"/><rect x="1095" y="993.8163680091329" width="10" height="26.18363199086707" fill="#26a69a" opacity="0.9"/><rect x="1107" y="996.3193115949817" width="10" height="23.68068840501826" fill="#ef5350" opacity="0.9"/><rect x="1119" y="998.5167909779392" width="10" height="21.483209022060805" fill="#26a69a" opacity="0.9"/><rect x="1131" y="998.6197269212122" width="10" height="21.38027307878781" fill="#26a69a" opacity="0.9"/><rect x="1143" y="995.9663201236186" width="10" height="24.03367987638137" fill="#ef5350" opacity="0.9"/><rect x="1155" y="998.6596116138493" width="10" height="21.34038838615072" fill="#26a69a" opacity="0.9"/><rect x="1167" y="992.8119663631131" width="10" height="27.18803363688687" fill="#26a69a" opacity="0.9"/><rect x="1179" y="999.9550282178229" width="10" height="20.044971782177072" fill="#26a69a" opacity="0.9"/><rect x="1191" y="991.0290967191855" width="10" height="28.97090328081447" fill="#26a69a" opacity="0.9"/><rect x="1203" y="994.3538560377543" width="10" height="25.646143962245674" fill="#ef5350" opacity="0.9"/><rect x="1215" y="1001.1397468874416" width="10" height="18.86025311255844" fill="#ef5350" opacity="0.9"/><rect x="1227" y="1000.8098025588299" width="10" height="19.190197441170085" fill="#26a69a" opacity="0.9"/><rect x="1239" y="998.0098732526563" width="10" height="21.990126747343652" fill="#26a69a" opacity="0.9"/><rect x="1251" y="998.5206122658566" width="10" height="21.479387734143415" fill="#ef5350" opacity="0.9"/><rect x="1263" y="999.7938176338107" width="10" height="20.206182366189296" fill="#ef5350" opacity="0.9"/><rect x="1275" y="1001.8333106444363" width="10" height="18.166689355563676" fill="#26a69a" opacity="0.9"/><rect x="1287" y="1000.2466402520139" width="10" height="19.75335974798611" fill="#ef5350" opacity="0.9"/><rect x="1299" y="998.4736820736218" width="10" height="21.52631792637817" fill="#26a69a" opacity="0.9"/><rect x="1311" y="999.1408550609376" width="10" height="20.85914493906239" fill="#ef5350" opacity="0.9"/><rect x="1323" y="1002.8532362726203" width="10" height="17.14676372737972" fill="#26a69a" opacity="0.9"/><rect x="1335" y="1005.3896161277456" width="10" height="14.610383872254374" fill="#26a69a" opacity="0.9"/><rect x="1347" y="1000.022139586871" width="10" height="19.97786041312895" fill="#26a69a" opacity="0.9"/><rect x="1359" y="1004.9771558631693" width="10" height="15.022844136830713" fill="#26a69a" opacity="0.9"/><rect x="1371" y="1003.4863759144223" width="10" height="16.513624085577703" fill="#ef5350" opacity="0.9"/><rect x="1383" y="1006.9808242995699" width="10" height="13.019175700430083" fill="#ef5350" opacity="0.9"/><rect x="1395" y="1004.6468532888154" width="10" height="15.35314671118465" fill="#26a69a" opacity="0.9"/><rect x="1407" y="1001.4151184479839" width="10" height="18.5848815520161" fill="#26a69a" opacity="0.9"/><rect x="1419" y="1003.797691464437" width="10" height="16.20230853556302" fill="#ef5350" opacity="0.9"/><rect x="1431" y="1003.2040782695298" width="10" height="16.79592173047024" fill="#ef5350" opacity="0.9"/><rect x="1443" y="1002.9148545402871" width="10" height="17.085145459712862" fill="#26a69a" opacity="0.9"/><rect x="1455" y="1001.9049597928862" width="10" height="18.09504020711381" fill="#ef5350" opacity="0.9"/><rect x="1467" y="1000.579569961811" width="10" height="19.42043003818901" fill="#26a69a" opacity="0.9"/><rect x="1479" y="1000.6139615530669" width="10" height="19.38603844693307" fill="#26a69a" opacity="0.9"/><rect x="1491" y="995.4420871874604" width="10" height="24.5579128125396" fill="#26a69a" opacity="0.9"/><rect x="1503" y="998.4028688319039" width="10" height="21.597131168096098" fill="#26a69a" opacity="0.9"/><rect x="1515" y="1002.4401789318067" width="10" height="17.559821068193287" fill="#26a69a" opacity="0.9"/><rect x="1527" y="1001.7878134351706" width="10" height="18.21218656482938" fill="#ef5350" opacity="0.9"/><rect x="1539" y="998.2429718156133" width="10" height="21.75702818438674" fill="#ef5350" opacity="0.9"/><rect x="1551" y="998.7183639155782" width="10" height="21.281636084421848" fill="#ef5350" opacity="0.9"/><rect x="1563" y="1000.6442930259108" width="10" height="19.35570697408923" fill="#ef5350" opacity="0.9"/><rect x="1575" y="1004.4370406991046" width="10" height="15.562959300895386" fill="#26a69a" opacity="0.9"/><rect x="1587" y="1003.1897484398398" width="10" height="16.810251560160168" fill="#ef5350" opacity="0.9"/><rect x="1599" y="1005.4119467790125" width="10" height="14.58805322098749" fill="#26a69a" opacity="0.9"/><rect x="1611" y="1003.8238434036211" width="10" height="16.17615659637886" fill="#ef5350" opacity="0.9"/><rect x="1623" y="1001.4240745915401" width="10" height="18.575925408459852" fill="#26a69a" opacity="0.9"/><rect x="1635" y="1006.4770113707199" width="10" height="13.522988629280121" fill="#26a69a" opacity="0.9"/><rect x="1647" y="1005.7125149567597" width="10" height="14.287485043240281" fill="#ef5350" opacity="0.9"/><rect x="1659" y="1004.7029784551011" width="10" height="15.29702154489894" fill="#ef5350" opacity="0.9"/><rect x="1671" y="1002.6198988791684" width="10" height="17.38010112083157" fill="#ef5350" opacity="0.9"/><rect x="1683" y="1006.5307482320572" width="10" height="13.469251767942751" fill="#26a69a" opacity="0.9"/><rect x="1695" y="1007.0245302801243" width="10" height="12.975469719875719" fill="#26a69a" opacity="0.9"/><rect x="1707" y="1002.5624601451611" width="10" height="17.43753985483886" fill="#26a69a" opacity="0.9"/><rect x="1719" y="1001.5821803791196" width="10" height="18.417819620880437" fill="#26a69a" opacity="0.9"/><rect x="1731" y="1003.2043171000246" width="10" height="16.795682899975418" fill="#26a69a" opacity="0.9"/><rect x="1743" y="1003.3671994975007" width="10" height="16.63280050249932" fill="#ef5350" opacity="0.9"/><rect x="1755" y="1006.5674087130141" width="10" height="13.43259128698594" fill="#ef5350" opacity="0.9"/><rect x="1767" y="1005.9432252147683" width="10" height="14.05677478523171" fill="#26a69a" opacity="0.9"/><rect x="1779" y="1006.72336502614" width="10" height="13.276634973860041" fill="#26a69a" opacity="0.9"/><rect x="1791" y="998.3266819040523" width="10" height="21.673318095947707" fill="#ef5350" opacity="0.9"/><rect x="1803" y="990.9106367937484" width="10" height="29.08936320625162" fill="#ef5350" opacity="0.9"/><rect x="1815" y="984.6856393611762" width="10" height="35.314360638823814" fill="#ef5350" opacity="0.9"/><rect x="1827" y="994.5230674433434" width="10" height="25.476932556656607" fill="#ef5350" opacity="0.9"/><rect x="1839" y="997.1325294298878" width="10" height="22.867470570112232" fill="#ef5350" opacity="0.9"/><rect x="1851" y="995.9068513304053" width="10" height="24.09314866959471" fill="#26a69a" opacity="0.9"/><rect x="1863" y="996.1292025210947" width="10" height="23.870797478905274" fill="#ef5350" opacity="0.9"/><rect x="1875" y="998.14051353333" width="10" height="21.859486466669978" fill="#26a69a" opacity="0.9"/><rect x="1887" y="996.9495852708458" width="10" height="23.050414729154227" fill="#ef5350" opacity="0.9"/><rect x="1899" y="995.6797235298192" width="10" height="24.32027647018083" fill="#ef5350" opacity="0.9"/><rect x="1911" y="979.3180434050541" width="10" height="40.68195659494586" fill="#ef5350" opacity="0.9"/><rect x="1923" y="963.469610013685" width="10" height="56.53038998631496" fill="#ef5350" opacity="0.9"/><rect x="1935" y="919.5214553375033" width="10" height="100.47854466249669" fill="#ef5350" opacity="0.9"/><rect x="1004" y="407.06783304347914" width="12" height="52.09943930434673" fill="#00ff00" opacity="0.60"/><polyline points="320,511.39979405548416,332,497.35592397980685,344,480.0163134310068,356,471.1629624375786,368,462.495588888659,380,451.26910537545405,392,446.82944081381646,404,442.7797414899329,416,437.30843098778485,428,432.2924777591355,440,425.4540383866282,452,418.77397980736373,464,411.2514198753991,476,400.79784057463615,488,389.36824370003393,500,375.0182668673183,512,368.67266291722285,524,367.5646541093714,536,366.59502987535353,548,368.31368627645924,560,373.943294026527,572,379.8253872662352,584,384.88440161354845,596,387.2599889050118,608,388.7192709885925,620,387.7065179254971,632,387.02023711271664,644,387.8780138183372,656,385.56526288739803,668,384.5900119788676,680,382.8861435419561,692,383.7104641818512,704,384.1605385993143,716,386.50648541594387,728,393.3937004032467,740,398.1462927457948,752,406.1265708196951,764,411.14520624473505,776,417.2631536417157,788,419.61102495534044,800,422.1624687070052,812,426.8039737494014,824,436.8196405475947,836,447.9516107149048,848,456.0517966923686,860,465.18783321442083,872,466.4217432933781,884,472.66428918262295,896,479.3638250699923,908,484.3737917424159,920,486.60642275659563,932,486.9177052269824,944,487.527941168098,956,487.6528801375966,968,491.80769310999926,980,494.7781710001456,992,496.41422805603213,1004,492.86689894096446,1016,481.86960428406167,1028,474.28558688226747,1040,474.1305711543488,1052,468.6965820506212,1064,458.25964535842814,1076,448.2909435644575,1088,435.95278771359796,1100,421.6022798982225,1112,411.7401816553292,1124,400.7471544997493,1136,390.70250246871615,1148,385.4919571901222,1160,379.0360773749121,1172,370.303368291586,1184,359.67497054952935,1196,344.53833080361306,1208,332.0919535925045,1220,321.2581249025353,1232,311.3246496530179,1244,300.59564272126056,1256,295.7845774186136,1268,291.76030823174665,1280,287.5935437044992,1292,290.2970225897859,1304,287.74831600773484,1316,285.2780436922983,1328,281.9915172288486,1340,275.5019794058112,1352,268.1517953961485,1364,260.31867096504436,1376,253.30056426444014,1388,247.40760190385197,1400,240.4000169606286,1412,232.679703461273,1424,227.6498245229327,1436,224.33122952488895,1448,219.7185539842177,1460,216.1366598656375,1472,212.60015902543194,1484,208.34894961100247,1496,199.7379256066423,1508,191.58882574348434,1520,182.79956710953036,1532,175.76417314050514,1544,170.81508021201046,1556,166.76450873012232,1568,163.65832495872462,1580,159.3331248839802,1592,155.94889369420184,1604,152.09833159496077,1616,150.68466609316442,1628,148.2883973720776,1640,144.9373867734938,1652,142.72701860872985,1664,141.25292077021743,1676,140.87215153744296,1688,140.00188696866087,1700,136.71714907930675,1712,132.29940592061564,1724,128.302400205607,1736,123.63454352349913,1748,119.50982443016312,1760,115.94223545337672,1772,112.45153731909966,1784,108.80038747918468,1796,112.43041411263698,1808,121.79381331516004,1820,130.36404002220638,1832,138.08519473644708,1844,145.85963999136015,1856,147.14317191764883,1868,150.96611806213684,1880,153.83349514110466,1892,158.3336653595502,1904,163.78536553648587,1916,171.93813055785586,1928,183.15905506787317,1940,196.76161406347956" fill="none" stroke="#0090ff" stroke-width="2"/><line x1="80" y1="50" x2="80" y2="900" stroke="#666666" stroke-width="0.5" stroke-dasharray="4,4" opacity="0.90"/><line x1="152" y1="50" x2="152" y2="900" stroke="#666666" stroke-width="0.5" stroke-dasharray="4,4" opacity="0.90"/><line x1="224" y1="50" x2="224" y2="900" stroke="#666666" stroke-width="0.5" stroke-dasharray="4,4" opacity="0.90"/><line x1="296" y1="50" x2="296" y2="900" stroke="#666666" stroke-width="0.5" stroke-dasharray="4,4" opacity="0.90"/><line x1="368" y1="50" x2="368" y2="900" stroke="#666666" stroke-width="0.5" stroke-dasharray="4,4" opacity="0.90"/><line x1="440" y1="50" x2="440" y2="900" stroke="#666666" stroke-width="0.5" stroke-dasharray="4,4" opacity="0.90"/><line x1="512" y1="50" x2="512" y2="900" stroke="#666666" stroke-width="0.5" stroke-dasharray="4,4" opacity="0.90"/><line x1="584" y1="50" x2="584" y2="900" stroke="#666666" stroke-width="0.5" stroke-dasharray="4,4" opacity="0.90"/><line x1="656" y1="50" x2="656" y2="900" stroke="#666666" stroke-width="0.5" stroke-dasharray="4,4" opacity="0.90"/><line x1="728" y1="50" x2="728" y2="900" stroke="#666666" stroke-width="0.5" stroke-dasharray="4,4" opacity="0.90"/><line x1="800" y1="50" x2="800" y2="900" stroke="#666666" stroke-width="0.5" stroke-dasharray="4,4" opacity="0.90"/><line x1="872" y1="50" x2="872" y2="900" stroke="#666666" stroke-width="0.5" stroke-dasharray="4,4" opacity="0.90"/><line x1="944" y1="50" x2="944" y2="900" stroke="#666666" stroke-width="0.5" stroke-dasharray="4,4" opacity="0.90"/><line x1="1010" y1="30" x2="1010" y2="950" stroke="black" stroke-width="0.7"/><line x1="1016" y1="50" x2="1016" y2="900" stroke="#666666" stroke-width="0.5" stroke-dasharray="4,4" opacity="0.90"/><line x1="1088" y1="50" x2="1088" y2="900" stroke="#666666" stroke-width="0.5" stroke-dasharray="4,4" opacity="0.90"/><line x1="1160" y1="50" x2="1160" y2="900" stroke="#666666" stroke-width="0.5" stroke-dasharray="4,4" opacity="0.90"/><line x1="1232" y1="50" x2="1232" y2="900" stroke="#666666" stroke-width="0.5" stroke-dasharray="4,4" opacity="0.90"/><line x1="1304" y1="50" x2="1304" y2="900" stroke="#666666" stroke-width="0.5" stroke-dasharray="4,4" opacity="0.90"/><line x1="1376" y1="50" x2="1376" y2="900" stroke="#666666" stroke-width="0.5" stroke-dasharray="4,4" opacity="0.90"/><line x1="1448" y1="50" x2="1448" y2="900" stroke="#666666" stroke-width="0.5" stroke-dasharray="4,4" opacity="0.90"/><line x1="1520" y1="50" x2="1520" y2="900" stroke="#666666" stroke-width="0.5" stroke-dasharray="4,4" opacity="0.90"/><line x1="1592" y1="50" x2="1592" y2="900" stroke="#666666" stroke-width="0.5" stroke-dasharray="4,4" opacity="0.90"/><line x1="1664" y1="50" x2="1664" y2="900" stroke="#666666" stroke-width="0.5" stroke-dasharray="4,4" opacity="0.90"/><line x1="1736" y1="50" x2="1736" y2="900" stroke="#666666" stroke-width="0.5" stroke-dasharray="4,4" opacity="0.90"/><line x1="1808" y1="50" x2="1808" y2="900" stroke="#666666" stroke-width="0.5" stroke-dasharray="4,4" opacity="0.90"/><line x1="1880" y1="50" x2="1880" y2="900" stroke="#666666" stroke-width="0.5" stroke-dasharray="4,4" opacity="0.90"/><line x1="1946" y1="30" x2="1946" y2="950" stroke="black" stroke-width="0.7"/><text x="80" y="1040" text-anchor="middle" font-size="20" fill="black">09:30</text><text x="152" y="1040" text-anchor="middle" font-size="20" fill="black">10:00</text><text x="224" y="1040" text-anchor="middle" font-size="20" fill="black">10:30</text><text x="296" y="1040" text-anchor="middle" font-size="20" fill="black">11:00</text><text x="368" y="1040" text-anchor="middle" font-size="20" fill="black">11:30</text><text x="440" y="1040" text-anchor="middle" font-size="20" fill="black">12:00</text><text x="512" y="1040" text-anchor="middle" font-size="20" fill="black">12:30</text><text x="584" y="1040" text-anchor="middle" font-size="20" fill="black">13:00</text><text x="656" y="1040" text-anchor="middle" font-size="20" fill="black">13:30</text><text x="728" y="1040" text-anchor="middle" font-size="20" fill="black">14:00</text><text x="800" y="1040" text-anchor="middle" font-size="20" fill="black">14:30</text><text x="872" y="1040" text-anchor="middle" font-size="20" fill="black">15:00</text><text x="944" y="1040" text-anchor="middle" font-size="20" fill="black">15:30</text><text x="1016" y="1040" text-anchor="middle" font-size="20" fill="black">09:30</text><text x="1088" y="1040" text-anchor="middle" font-size="20" fill="black">10:00</text><text x="1160" y="1040" text-anchor="middle" font-size="20" fill="black">10:30</text><text x="1232" y="1040" text-anchor="middle" font-size="20" fill="black">11:00</text><text x="1304" y="1040" text-anchor="middle" font-size="20" fill="black">11:30</text><text x="1376" y="1040" text-anchor="middle" font-size="20" fill="black">12:00</text><text x="1448" y="1040" text-anchor="middle" font-size="20" fill="black">12:30</text><text x="1520" y="1040" text-anchor="middle" font-size="20" fill="black">13:00</text><text x="1592" y="1040" text-anchor="middle" font-size="20" fill="black">13:30</text><text x="1664" y="1040" text-anchor="middle" font-size="20" fill="black">14:00</text><text x="1736" y="1040" text-anchor="middle" font-size="20" fill="black">14:30</text><text x="1808" y="1040" text-anchor="middle" font-size="20" fill="black">15:00</text><text x="1880" y="1040" text-anchor="middle" font-size="20" fill="black">15:30</text><text x="1942" y="50" text-anchor="end" font-size="40" fill="#26a69a" font-weight="bold"> +0.54% (Tue)</text></svg>