<svg xmlns="http://www.w3.org/2000/svg" width="1992" height="1050"><rect width="100%" height="100%" fill="white"/><text x="42" y="854.0" text-anchor="end" font-size="20" fill="black">493</text><text x="42" y="739.7142857142858" text-anchor="end" font-size="20" fill="black">494</text><text x="42" y="625.4285714285714" text-anchor="end" font-size="20" fill="black">495</text><text x="42" y="511.14285714285717" text-anchor="end" font-size="20" fill="black">496</text><text x="42" y="396.8571428571429" text-anchor="end" font-size="20" fill="black">497</text><text x="42" y="282.57142857142856" text-anchor="end" font-size="20" fill="black">498</text><text x="42" y="168.28571428571433" text-anchor="end" font-size="20" fill="black">499</text><text x="42" y="54.0" text-anchor="end" font-size="20" fill="black">500</text><line x1="80" y1="528.7283988571419" x2="80" y2="644.3625371428554" stroke="#26a69a" stroke-width="2"/><rect x="76" y="528.7283988571419" width="8" height="111.09946628571379" fill="#26a69a"/><line x1="92" y1="527.5947302857146" x2="92" y2="644.3625371428554" stroke="#ef5350" stroke-width="2"/><rect x="88" y="529.8620662857112" width="8" height="88.42610628571492" fill="#ef5350"/><line x1="104" y1="582.01079542857" x2="104" y2="648.8972091428552" stroke="#26a69a" stroke-width="2"/><rect x="100" y="584.278131428573" width="8" height="22.673361142856947" fill="#26a69a"/><line x1="116" y1="574.0751188571396" x2="116" y2="634.1595245714286" stroke="#ef5350" stroke-width="2"/><rect x="112" y="583.1444639999972" width="8" height="34.01004000000148" fill="#ef5350"/><line x1="128" y1="588.8128034285728" x2="128" y2="640.9615325714315" stroke="#26a69a" stroke-width="2"/><rect x="124" y="596.748480000003" width="8" height="22.673359999998866" fill="#26a69a"/><line x1="140" y1="536.6640742857142" x2="140" y2="606.95149257143" stroke="#26a69a" stroke-width="2"/><rect x="136" y="569.5404468571398" width="8" height="28.34170057143251" fill="#26a69a"/><line x1="152" y1="540.0650788571446" x2="152" y2="616.0208365714295" stroke="#ef5350" stroke-width="2"/><rect x="148" y="563.8721074285709" width="8" height="19.27235657142637" fill="#ef5350"/><line x1="164" y1="586.5454674285697" x2="164" y2="665.9022297142851" stroke="#ef5350" stroke-width="2"/><rect x="160" y="586.5454674285697" width="8" height="27.208033142856607" fill="#ef5350"/><line x1="176" y1="509.45604228571545" x2="176" y2="633.0258560000012" stroke="#26a69a" stroke-width="2"/><rect x="172" y="544.5997508571444" width="8" height="77.08942514285411" fill="#26a69a"/><line x1="188" y1="524.1937268571421" x2="188" y2="562.7384388571435" stroke="#ef5350" stroke-width="2"/><rect x="184" y="538.9314102857172" width="8" height="6.802007999996476" fill="#ef5350"/><line x1="200" y1="535.5304068571448" x2="200" y2="653.431881142855" stroke="#ef5350" stroke-width="2"/><rect x="196" y="548.0007554285684" width="8" height="105.43112571428662" fill="#ef5350"/><line x1="212" y1="647.7635405714279" x2="212" y2="720.3182937142888" stroke="#ef5350" stroke-width="2"/><rect x="208" y="653.431881142855" width="8" height="39.67838057142876" fill="#ef5350"/><line x1="224" y1="673.8379051428573" x2="224" y2="758.8630068571417" stroke="#26a69a" stroke-width="2"/><rect x="220" y="680.6399131428602" width="8" height="18.13868914285706" fill="#26a69a"/><line x1="236" y1="636.4268605714317" x2="236" y2="696.5112662857141" stroke="#26a69a" stroke-width="2"/><rect x="232" y="651.1645451428584" width="8" height="30.6090365714291" fill="#26a69a"/><line x1="248" y1="622.8228445714259" x2="248" y2="665.9022297142851" stroke="#26a69a" stroke-width="2"/><rect x="244" y="628.6045508571403" width="8" height="23.693661714287373" fill="#26a69a"/><line x1="260" y1="592.2138079999968" x2="260" y2="668.1695657142882" stroke="#ef5350" stroke-width="2"/><rect x="256" y="628.4911840000015" width="8" height="30.6090365714291" fill="#ef5350"/><line x1="272" y1="622.8228445714259" x2="272" y2="681.7735817142875" stroke="#26a69a" stroke-width="2"/><rect x="268" y="640.9615325714315" width="8" height="20.406023999995796" fill="#26a69a"/><line x1="284" y1="627.3575165714257" x2="284" y2="698.7786022857173" stroke="#ef5350" stroke-width="2"/><rect x="280" y="631.8921885714254" width="8" height="47.614057142859" fill="#ef5350"/><line x1="296" y1="647.7635405714279" x2="296" y2="713.5162857142859" stroke="#ef5350" stroke-width="2"/><rect x="292" y="684.0409177142842" width="8" height="27.20803199999864" fill="#ef5350"/><line x1="308" y1="687.4419211428566" x2="308" y2="728.2539702857125" stroke="#26a69a" stroke-width="2"/><rect x="304" y="701.0459382857139" width="8" height="12.47034742857204" fill="#26a69a"/><line x1="320" y1="689.7092571428598" x2="320" y2="745.2589908571424" stroke="#ef5350" stroke-width="2"/><rect x="316" y="699.9122697142866" width="8" height="3.4010045714304624" fill="#ef5350"/><line x1="332" y1="686.3082537142873" x2="332" y2="731.6549748571431" stroke="#ef5350" stroke-width="2"/><rect x="328" y="702.1796057142833" width="8" height="3.4010045714303487" fill="#ef5350"/><line x1="344" y1="672.704237714288" x2="344" y2="774.7343588571441" stroke="#ef5350" stroke-width="2"/><rect x="340" y="707.8479462857168" width="8" height="38.544711999994774" fill="#ef5350"/><line x1="356" y1="735.0559782857155" x2="356" y2="786.0710399999983" stroke="#26a69a" stroke-width="2"/><rect x="352" y="737.3233142857121" width="8" height="9.069343999999546" fill="#26a69a"/><line x1="368" y1="713.5162857142859" x2="368" y2="765.6650148571446" stroke="#26a69a" stroke-width="2"/><rect x="364" y="721.4519622857161" width="8" height="10.203012571426939" fill="#26a69a"/><line x1="380" y1="714.6499542857132" x2="380" y2="775.8680274285715" stroke="#ef5350" stroke-width="2"/><rect x="376" y="718.0509577142857" width="8" height="48.747725714286275" fill="#ef5350"/><line x1="392" y1="728.2539702857125" x2="392" y2="765.6650148571446" stroke="#26a69a" stroke-width="2"/><rect x="388" y="737.3233142857121" width="8" height="28.34170057143251" fill="#26a69a"/><line x1="404" y1="690.842925714287" x2="404" y2="744.125322285715" stroke="#26a69a" stroke-width="2"/><rect x="400" y="699.9122697142866" width="8" height="37.411044571425464" fill="#26a69a"/><line x1="416" y1="689.7092571428598" x2="416" y2="727.1203028571433" stroke="#ef5350" stroke-width="2"/><rect x="412" y="695.3775977142868" width="8" height="21.539692571429555" fill="#ef5350"/><line x1="428" y1="685.17458514286" x2="428" y2="714.6499542857132" stroke="#26a69a" stroke-width="2"/><rect x="424" y="689.7092571428598" width="8" height="24.940697142853423" fill="#26a69a"/><line x1="440" y1="682.9072491428568" x2="440" y2="736.1896468571429" stroke="#ef5350" stroke-width="2"/><rect x="436" y="689.7092571428598" width="8" height="29.475369142853197" fill="#ef5350"/><line x1="452" y1="667.0358971428543" x2="452" y2="722.5856297142855" stroke="#26a69a" stroke-width="2"/><rect x="448" y="670.4369017142849" width="8" height="52.148728000000574" fill="#26a69a"/><line x1="464" y1="660.233889142858" x2="464" y2="713.5162857142859" stroke="#ef5350" stroke-width="2"/><rect x="460" y="672.704237714288" width="8" height="39.67838057142865" fill="#ef5350"/><line x1="476" y1="663.6348925714303" x2="476" y2="715.7836217142826" stroke="#26a69a" stroke-width="2"/><rect x="472" y="667.0358971428543" width="8" height="48.74772457142831" fill="#26a69a"/><line x1="488" y1="662.5012251428545" x2="488" y2="681.7735817142875" stroke="#ef5350" stroke-width="2"/><rect x="484" y="668.1695657142882" width="8" height="13.60401599999932" fill="#ef5350"/><line x1="500" y1="687.4419211428566" x2="500" y2="720.3182937142888" stroke="#ef5350" stroke-width="2"/><rect x="496" y="687.4419211428566" width="8" height="17.00502057142978" fill="#ef5350"/><line x1="512" y1="694.2439302857175" x2="512" y2="736.1896468571429" stroke="#ef5350" stroke-width="2"/><rect x="508" y="702.1796057142833" width="8" height="32.87637257143217" fill="#ef5350"/><line x1="524" y1="720.3182937142888" x2="524" y2="775.8680274285715" stroke="#ef5350" stroke-width="2"/><rect x="520" y="730.5213062857157" width="8" height="40.81204914285604" fill="#ef5350"/><line x1="536" y1="758.8630068571417" x2="536" y2="811.0117360000004" stroke="#26a69a" stroke-width="2"/><rect x="532" y="774.7343588571441" width="8" height="2" fill="#26a69a"/><line x1="548" y1="769.0660194285686" x2="548" y2="858.6257931428593" stroke="#ef5350" stroke-width="2"/><rect x="544" y="770.1996868571443" width="8" height="78.22309371428162" fill="#ef5350"/><line x1="560" y1="806.4770640000006" x2="560" y2="851.8237851428564" stroke="#26a69a" stroke-width="2"/><rect x="556" y="826.8830880000029" width="8" height="18.13868914285706" fill="#26a69a"/><line x1="572" y1="766.798683428572" x2="572" y2="845.02177714286" stroke="#26a69a" stroke-width="2"/><rect x="568" y="769.0660194285686" width="8" height="60.08440457143092" fill="#26a69a"/><line x1="584" y1="727.1203028571433" x2="584" y2="805.3433954285732" stroke="#26a69a" stroke-width="2"/><rect x="580" y="739.5906502857152" width="8" height="30.6090365714291" fill="#26a69a"/><line x1="596" y1="737.3233142857121" x2="596" y2="769.0660194285686" stroke="#ef5350" stroke-width="2"/><rect x="592" y="737.3233142857121" width="8" height="4.534671999999773" fill="#ef5350"/><line x1="608" y1="740.7243188571426" x2="608" y2="779.2690308571439" stroke="#ef5350" stroke-width="2"/><rect x="604" y="741.8579862857118" width="8" height="20.406025142860358" fill="#ef5350"/><line x1="620" y1="761.1303428571448" x2="620" y2="905.1061817142844" stroke="#ef5350" stroke-width="2"/><rect x="616" y="761.1303428571448" width="8" height="116.76780685714095" fill="#ef5350"/><line x1="632" y1="862.0267965714318" x2="632" y2="928.9132102857171" stroke="#ef5350" stroke-width="2"/><rect x="628" y="880.1654857142888" width="8" height="43.07938399999466" fill="#ef5350"/><line x1="644" y1="867.6951371428588" x2="644" y2="935.7152182857135" stroke="#26a69a" stroke-width="2"/><rect x="640" y="889.2348297142884" width="8" height="34.010039999995115" fill="#26a69a"/><line x1="656" y1="840.4871040000022" x2="656" y2="896.0368377142848" stroke="#26a69a" stroke-width="2"/><rect x="652" y="842.7544411428569" width="8" height="51.01506057143126" fill="#26a69a"/><line x1="668" y1="833.6850959999992" x2="668" y2="852.9574525714257" stroke="#26a69a" stroke-width="2"/><rect x="664" y="833.6850959999992" width="8" height="9.069345142857628" fill="#26a69a"/><line x1="680" y1="838.219767999999" x2="680" y2="864.2941325714283" stroke="#ef5350" stroke-width="2"/><rect x="676" y="841.6207725714295" width="8" height="2" fill="#ef5350"/><line x1="692" y1="840.4871040000022" x2="692" y2="867.6951371428588" stroke="#ef5350" stroke-width="2"/><rect x="688" y="843.8881085714262" width="8" height="19.27235657143285" fill="#ef5350"/><line x1="704" y1="814.4127405714308" x2="704" y2="864.2941325714283" stroke="#26a69a" stroke-width="2"/><rect x="700" y="818.9474125714306" width="8" height="45.34671999999773" fill="#26a69a"/><line x1="716" y1="803.0760594285701" x2="716" y2="829.1504239999995" stroke="#26a69a" stroke-width="2"/><rect x="712" y="813.279071999997" width="8" height="4.534671999999773" fill="#26a69a"/><line x1="728" y1="812.1454045714278" x2="728" y2="854.0911211428595" stroke="#ef5350" stroke-width="2"/><rect x="724" y="815.5464080000002" width="8" height="20.406024000002276" fill="#ef5350"/><line x1="740" y1="807.6107314285699" x2="740" y2="847.2891131428566" stroke="#26a69a" stroke-width="2"/><rect x="736" y="815.5464080000002" width="8" height="19.272356571426485" fill="#26a69a"/><line x1="752" y1="799.6750559999977" x2="752" y2="830.2840925714269" stroke="#ef5350" stroke-width="2"/><rect x="748" y="814.4127405714308" width="8" height="15.871351999996023" fill="#ef5350"/><line x1="764" y1="804.2097279999974" x2="764" y2="825.7494205714271" stroke="#26a69a" stroke-width="2"/><rect x="760" y="805.3433954285732" width="8" height="19.272356571426485" fill="#26a69a"/><line x1="776" y1="789.4720434285708" x2="776" y2="824.6157519999997" stroke="#ef5350" stroke-width="2"/><rect x="772" y="805.3433954285732" width="8" height="11.336681142854331" fill="#ef5350"/><line x1="788" y1="812.1454045714278" x2="788" y2="846.1554445714293" stroke="#ef5350" stroke-width="2"/><rect x="784" y="820.0810799999999" width="8" height="24.940697142860017" fill="#ef5350"/><line x1="800" y1="811.0117360000004" x2="800" y2="864.2941325714283" stroke="#26a69a" stroke-width="2"/><rect x="796" y="814.4127405714308" width="8" height="28.34170057142603" fill="#26a69a"/><line x1="812" y1="796.2740514285737" x2="812" y2="825.7494205714271" stroke="#26a69a" stroke-width="2"/><rect x="808" y="804.2097279999974" width="8" height="13.60401599999932" fill="#26a69a"/><line x1="824" y1="771.3333554285717" x2="824" y2="818.9474125714306" stroke="#26a69a" stroke-width="2"/><rect x="820" y="779.2690308571439" width="8" height="26.074364571429328" fill="#26a69a"/><line x1="836" y1="761.1303428571448" x2="836" y2="782.6700354285744" stroke="#26a69a" stroke-width="2"/><rect x="832" y="778.1353634285746" width="8" height="2.2673359999967033" fill="#26a69a"/><line x1="848" y1="777.5685291428545" x2="848" y2="818.9474125714306" stroke="#ef5350" stroke-width="2"/><rect x="844" y="777.5685291428545" width="8" height="32.30953828571853" fill="#ef5350"/><line x1="860" y1="779.2690308571439" x2="860" y2="826.8830880000029" stroke="#26a69a" stroke-width="2"/><rect x="856" y="780.4026994285713" width="8" height="30.6090365714291" fill="#26a69a"/><line x1="872" y1="770.7665211428581" x2="872" y2="799.6750559999977" stroke="#26a69a" stroke-width="2"/><rect x="868" y="777.0016948571408" width="8" height="2" fill="#26a69a"/><line x1="884" y1="767.9323508571413" x2="884" y2="801.9423920000008" stroke="#ef5350" stroke-width="2"/><rect x="880" y="779.2690308571439" width="8" height="3.4010045714304624" fill="#ef5350"/><line x1="896" y1="761.1303428571448" x2="896" y2="796.2740514285737" stroke="#26a69a" stroke-width="2"/><rect x="892" y="766.798683428572" width="8" height="14.73768342856863" fill="#26a69a"/><line x1="908" y1="767.9323508571413" x2="908" y2="798.5413874285704" stroke="#ef5350" stroke-width="2"/><rect x="904" y="767.9323508571413" width="8" height="23.807028571432625" fill="#ef5350"/><line x1="920" y1="783.8037040000017" x2="920" y2="828.0167565714302" stroke="#ef5350" stroke-width="2"/><rect x="916" y="792.8730480000013" width="8" height="22.673359999998866" fill="#ef5350"/><line x1="932" y1="790.6057119999981" x2="932" y2="815.5464080000002" stroke="#26a69a" stroke-width="2"/><rect x="928" y="801.9423920000008" width="8" height="12.470348571430009" fill="#26a69a"/><line x1="944" y1="804.2097279999974" x2="944" y2="824.6157519999997" stroke="#ef5350" stroke-width="2"/><rect x="940" y="804.2097279999974" width="8" height="5.668339428575564" fill="#ef5350"/><line x1="956" y1="787.2047074285741" x2="956" y2="811.0117360000004" stroke="#26a69a" stroke-width="2"/><rect x="952" y="800.8087234285734" width="8" height="7.935676571423755" fill="#26a69a"/><line x1="968" y1="775.8680274285715" x2="968" y2="801.9423920000008" stroke="#26a69a" stroke-width="2"/><rect x="964" y="786.0710399999983" width="8" height="15.871352000002503" fill="#26a69a"/><line x1="980" y1="770.1996868571443" x2="980" y2="805.910229714287" stroke="#26a69a" stroke-width="2"/><rect x="976" y="770.1996868571443" width="8" height="14.737684571426712" fill="#26a69a"/><line x1="992" y1="746.3926582857116" x2="992" y2="783.8037040000017" stroke="#26a69a" stroke-width="2"/><rect x="988" y="763.3976788571415" width="8" height="11.336680000002616" fill="#26a69a"/><line x1="1004" y1="746.3926582857116" x2="1004" y2="798.5413874285704" stroke="#26a69a" stroke-width="2"/><rect x="1000" y="761.1303428571448" width="8" height="4.534671999999773" fill="#26a69a"/><line x1="1016" y1="517.3917177142877" x2="1016" y2="602.4168194285721" stroke="#ef5350" stroke-width="2"/><rect x="1012" y="536.6640742857142" width="8" height="55.54973371428264" fill="#ef5350"/><line x1="1028" y1="587.679135999997" x2="1028" y2="643.2288685714282" stroke="#ef5350" stroke-width="2"/><rect x="1024" y="589.9464720000001" width="8" height="11.33668000000273" fill="#ef5350"/><line x1="1040" y1="544.5997508571444" x2="1040" y2="608.0851599999992" stroke="#26a69a" stroke-width="2"/><rect x="1036" y="550.2680914285716" width="8" height="51.01506057143126" fill="#26a69a"/><line x1="1052" y1="491.31735428571636" x2="1052" y2="560.4711028571403" stroke="#26a69a" stroke-width="2"/><rect x="1048" y="499.2530297142886" width="8" height="51.01506171428298" fill="#26a69a"/><line x1="1064" y1="494.7183577142888" x2="1064" y2="566.0260765714286" stroke="#ef5350" stroke-width="2"/><rect x="1060" y="496.98569371428545" width="8" height="2.2673360000031266" fill="#ef5350"/><line x1="1076" y1="499.81986400000227" x2="1076" y2="550.2680914285716" stroke="#ef5350" stroke-width="2"/><rect x="1072" y="499.81986400000227" width="8" height="26.641198857143024" fill="#ef5350"/><line x1="1088" y1="494.7183577142888" x2="1088" y2="559.3374354285711" stroke="#26a69a" stroke-width="2"/><rect x="1084" y="494.7183577142888" width="8" height="29.47536914285331" fill="#26a69a"/><line x1="1100" y1="458.4409805714261" x2="1100" y2="509.45604228571545" stroke="#26a69a" stroke-width="2"/><rect x="1096" y="468.6439931428595" width="8" height="26.074364571429328" fill="#26a69a"/><line x1="1112" y1="441.43596114285435" x2="1112" y2="476.5796697142832" stroke="#26a69a" stroke-width="2"/><rect x="1108" y="452.772641142857" width="8" height="13.60401599999932" fill="#26a69a"/><line x1="1124" y1="443.7032971428574" x2="1124" y2="533.2630708571417" stroke="#ef5350" stroke-width="2"/><rect x="1120" y="450.5053051428604" width="8" height="53.28239657142797" fill="#ef5350"/><line x1="1136" y1="499.2530297142886" x2="1136" y2="567.2731108571433" stroke="#ef5350" stroke-width="2"/><rect x="1132" y="503.9010685714272" width="8" height="16.891653714284473" fill="#ef5350"/><line x1="1148" y1="495.85202628571614" x2="1148" y2="533.2630708571417" stroke="#26a69a" stroke-width="2"/><rect x="1144" y="502.65403428571256" width="8" height="12.470347428571927" fill="#26a69a"/><line x1="1160" y1="500.3866982857159" x2="1160" y2="562.7384388571435" stroke="#ef5350" stroke-width="2"/><rect x="1156" y="506.055037714285" width="8" height="49.88139314285553" fill="#ef5350"/><line x1="1172" y1="548.0007554285684" x2="1172" y2="585.4118000000003" stroke="#26a69a" stroke-width="2"/><rect x="1168" y="549.1344228571442" width="8" height="6.802007999996363" fill="#26a69a"/><line x1="1184" y1="532.1294022857144" x2="1184" y2="603.5504879999994" stroke="#ef5350" stroke-width="2"/><rect x="1180" y="551.4017588571407" width="8" height="26.07436457142944" fill="#ef5350"/><line x1="1196" y1="549.1344228571442" x2="1196" y2="592.780642285717" stroke="#26a69a" stroke-width="2"/><rect x="1192" y="553.6690948571439" width="8" height="23.807028571426258" fill="#26a69a"/><line x1="1208" y1="542.3324148571412" x2="1208" y2="604.6841554285688" stroke="#ef5350" stroke-width="2"/><rect x="1204" y="551.4017588571407" width="8" height="40.2452148571424" fill="#ef5350"/><line x1="1220" y1="580.8771280000005" x2="1220" y2="634.1595245714286" stroke="#ef5350" stroke-width="2"/><rect x="1216" y="591.0801394285695" width="8" height="29.47536914285979" fill="#ef5350"/><line x1="1232" y1="621.6891759999985" x2="1232" y2="690.842925714287" stroke="#ef5350" stroke-width="2"/><rect x="1228" y="621.6891759999985" width="8" height="21.53969257142967" fill="#ef5350"/><line x1="1244" y1="613.7535005714263" x2="1244" y2="660.233889142858" stroke="#26a69a" stroke-width="2"/><rect x="1240" y="625.0901805714291" width="8" height="15.871352000002389" fill="#26a69a"/><line x1="1256" y1="594.4811439999999" x2="1256" y2="630.758519999998" stroke="#ef5350" stroke-width="2"/><rect x="1252" y="625.0901805714291" width="8" height="5.66833942856897" fill="#ef5350"/><line x1="1268" y1="611.4861645714298" x2="1268" y2="638.6941965714284" stroke="#26a69a" stroke-width="2"/><rect x="1264" y="611.4861645714298" width="8" height="21.539691428571473" fill="#26a69a"/><line x1="1280" y1="589.9464720000001" x2="1280" y2="633.0258560000012" stroke="#26a69a" stroke-width="2"/><rect x="1276" y="591.0801394285695" width="8" height="19.27235657143285" fill="#26a69a"/><line x1="1292" y1="554.8027634285713" x2="1292" y2="594.4811439999999" stroke="#26a69a" stroke-width="2"/><rect x="1288" y="554.8027634285713" width="8" height="36.39074285714344" fill="#26a69a"/><line x1="1304" y1="515.1243817142845" x2="1304" y2="554.8027634285713" stroke="#26a69a" stroke-width="2"/><rect x="1300" y="532.1294022857144" width="8" height="22.673361142856947" fill="#26a69a"/><line x1="1316" y1="532.1294022857144" x2="1316" y2="555.9364308571405" stroke="#ef5350" stroke-width="2"/><rect x="1312" y="532.1294022857144" width="8" height="20.406025142860244" fill="#ef5350"/><line x1="1328" y1="520.7927222857116" x2="1328" y2="569.5404468571398" stroke="#26a69a" stroke-width="2"/><rect x="1324" y="525.3273942857114" width="8" height="29.475369142859904" fill="#26a69a"/><line x1="1340" y1="525.3273942857114" x2="1340" y2="549.1344228571442" stroke="#ef5350" stroke-width="2"/><rect x="1336" y="525.3273942857114" width="8" height="22.673361142856947" fill="#ef5350"/><line x1="1352" y1="519.6590548571423" x2="1352" y2="551.4017588571407" stroke="#26a69a" stroke-width="2"/><rect x="1348" y="520.7927222857116" width="8" height="28.34170057143251" fill="#26a69a"/><line x1="1364" y1="512.8570457142879" x2="1364" y2="535.5304068571448" stroke="#26a69a" stroke-width="2"/><rect x="1360" y="516.2580502857119" width="8" height="6.802008000002957" fill="#26a69a"/><line x1="1376" y1="506.055037714285" x2="1376" y2="534.3967382857174" stroke="#26a69a" stroke-width="2"/><rect x="1372" y="510.58970971428477" width="8" height="7.935676571430292" fill="#26a69a"/><line x1="1388" y1="496.98569371428545" x2="1388" y2="520.7927222857116" stroke="#ef5350" stroke-width="2"/><rect x="1384" y="510.58970971428477" width="8" height="3.4010045714305193" fill="#ef5350"/><line x1="1400" y1="502.65403428571256" x2="1400" y2="529.8620662857112" stroke="#ef5350" stroke-width="2"/><rect x="1396" y="508.3223737142881" width="8" height="6.802007999996363" fill="#ef5350"/><line x1="1412" y1="468.6439931428595" x2="1412" y2="512.8570457142879" stroke="#26a69a" stroke-width="2"/><rect x="1408" y="479.98067314285566" width="8" height="31.742705142856437" fill="#26a69a"/><line x1="1424" y1="413.0942605714283" x2="1424" y2="484.51534514285544" stroke="#26a69a" stroke-width="2"/><rect x="1420" y="414.22792799999763" width="8" height="70.2874171428578" fill="#26a69a"/><line x1="1436" y1="385.8862274285717" x2="1436" y2="424.43094057143105" stroke="#26a69a" stroke-width="2"/><rect x="1432" y="388.1535634285683" width="8" height="24.940697142860017" fill="#26a69a"/><line x1="1448" y1="349.60885142857353" x2="1448" y2="407.42592000000127" stroke="#26a69a" stroke-width="2"/><rect x="1444" y="380.21788800000263" width="8" height="6.802007999996363" fill="#26a69a"/><line x1="1460" y1="356.4108594285699" x2="1460" y2="384.7525600000024" stroke="#26a69a" stroke-width="2"/><rect x="1456" y="360.94553142856967" width="8" height="21.539692571429555" fill="#26a69a"/><line x1="1472" y1="321.267150857141" x2="1472" y2="367.7475394285726" stroke="#26a69a" stroke-width="2"/><rect x="1468" y="322.4008182857168" width="8" height="38.544713142852856" fill="#26a69a"/><line x1="1484" y1="316.73247885714125" x2="1484" y2="351.8761874285701" stroke="#ef5350" stroke-width="2"/><rect x="1480" y="322.4008182857168" width="8" height="23.807028571426144" fill="#ef5350"/><line x1="1496" y1="330.33649485714056" x2="1496" y2="362.07919885714546" stroke="#26a69a" stroke-width="2"/><rect x="1492" y="338.2721702857127" width="8" height="7.9356765714302355" fill="#26a69a"/><line x1="1508" y1="294.62595199999794" x2="1508" y2="339.4058388571401" stroke="#26a69a" stroke-width="2"/><rect x="1504" y="299.72745828571146" width="8" height="38.544712000001255" fill="#26a69a"/><line x1="1520" y1="273.6530937142886" x2="1520" y2="321.267150857141" stroke="#26a69a" stroke-width="2"/><rect x="1516" y="273.6530937142886" width="8" height="29.47536799999523" fill="#26a69a"/><line x1="1532" y1="246.44506057142542" x2="1532" y2="287.25710971428794" stroke="#ef5350" stroke-width="2"/><rect x="1528" y="271.38575771428543" width="8" height="14.737684571426712" fill="#ef5350"/><line x1="1544" y1="269.11842171428884" x2="1544" y2="300.86112571428725" stroke="#26a69a" stroke-width="2"/><rect x="1540" y="274.21992800000226" width="8" height="11.903514285709889" fill="#26a69a"/><line x1="1556" y1="252.11340114285906" x2="1556" y2="304.26213028571124" stroke="#ef5350" stroke-width="2"/><rect x="1552" y="274.7867611428579" width="8" height="20.406025142853764" fill="#ef5350"/><line x1="1568" y1="262.3164137142859" x2="1568" y2="314.46514285714454" stroke="#ef5350" stroke-width="2"/><rect x="1564" y="292.925450285715" width="8" height="20.406024000002276" fill="#ef5350"/><line x1="1580" y1="271.38575771428543" x2="1580" y2="315.59881028571385" stroke="#26a69a" stroke-width="2"/><rect x="1576" y="283.85610628571544" width="8" height="28.34170057142603" fill="#26a69a"/><line x1="1592" y1="263.4500811428552" x2="1592" y2="292.925450285715" stroke="#26a69a" stroke-width="2"/><rect x="1588" y="270.25208914285815" width="8" height="10.203012571426825" fill="#26a69a"/><line x1="1604" y1="256.64807314285883" x2="1604" y2="282.72243771428816" stroke="#26a69a" stroke-width="2"/><rect x="1600" y="260.0490777142828" width="8" height="14.73768342857511" fill="#26a69a"/><line x1="1616" y1="224.90536914286042" x2="1616" y2="262.3164137142859" stroke="#26a69a" stroke-width="2"/><rect x="1612" y="239.64305257142894" width="8" height="22.673361142856947" fill="#26a69a"/><line x1="1628" y1="228.30637257142632" x2="1628" y2="252.11340114285906" stroke="#ef5350" stroke-width="2"/><rect x="1624" y="238.50938514285974" width="8" height="3.4010034285659003" fill="#ef5350"/><line x1="1640" y1="212.4350205714303" x2="1640" y2="250.97973257143167" stroke="#26a69a" stroke-width="2"/><rect x="1636" y="229.4400411428602" width="8" height="12.470347428565447" fill="#26a69a"/><line x1="1652" y1="220.37069600000257" x2="1652" y2="247.5787291428593" stroke="#26a69a" stroke-width="2"/><rect x="1648" y="227.172705142857" width="8" height="3.4010034285723805" fill="#26a69a"/><line x1="1664" y1="213.5686879999996" x2="1664" y2="241.91038857142564" stroke="#26a69a" stroke-width="2"/><rect x="1660" y="222.63803199999916" width="8" height="5.668340571427166" fill="#26a69a"/><line x1="1676" y1="214.702356571427" x2="1676" y2="239.64305257142894" stroke="#ef5350" stroke-width="2"/><rect x="1672" y="220.37069600000257" width="8" height="15.871353142853991" fill="#ef5350"/><line x1="1688" y1="216.96969257143007" x2="1688" y2="247.5787291428593" stroke="#26a69a" stroke-width="2"/><rect x="1684" y="216.96969257143007" width="8" height="18.138687999999092" fill="#26a69a"/><line x1="1700" y1="204.49934400000006" x2="1700" y2="249.84606514285588" stroke="#ef5350" stroke-width="2"/><rect x="1696" y="218.10335999999938" width="8" height="29.475369142859904" fill="#ef5350"/><line x1="1712" y1="229.4400411428602" x2="1712" y2="264.5837497142826" stroke="#ef5350" stroke-width="2"/><rect x="1708" y="248.71239657142849" width="8" height="7.935676571430349" fill="#ef5350"/><line x1="1724" y1="229.4400411428602" x2="1724" y2="260.0490777142828" stroke="#26a69a" stroke-width="2"/><rect x="1720" y="246.44506057142542" width="8" height="12.470348571430009" fill="#26a69a"/><line x1="1736" y1="227.172705142857" x2="1736" y2="255.51440571428304" stroke="#26a69a" stroke-width="2"/><rect x="1732" y="232.8410445714261" width="8" height="12.470348571430009" fill="#26a69a"/><line x1="1748" y1="227.172705142857" x2="1748" y2="237.37571657142587" stroke="#ef5350" stroke-width="2"/><rect x="1744" y="230.5737085714294" width="8" height="5.668340571427166" fill="#ef5350"/><line x1="1760" y1="228.30637257142632" x2="1760" y2="250.97973257143167" stroke="#26a69a" stroke-width="2"/><rect x="1756" y="230.5737085714294" width="8" height="6.802007999996476" fill="#26a69a"/><line x1="1772" y1="177.29131200000143" x2="1772" y2="228.30637257142632" stroke="#26a69a" stroke-width="2"/><rect x="1768" y="190.89532800000075" width="8" height="37.41104457142558" fill="#26a69a"/><line x1="1784" y1="171.62297142857437" x2="1784" y2="204.49934400000006" stroke="#ef5350" stroke-width="2"/><rect x="1780" y="188.62799199999768" width="8" height="6.802008000002843" fill="#ef5350"/><line x1="1796" y1="195.43000000000052" x2="1796" y2="214.13552228571336" stroke="#ef5350" stroke-width="2"/><rect x="1792" y="195.43000000000052" width="8" height="14.737684571426712" fill="#ef5350"/><line x1="1808" y1="211.30135200000302" x2="1808" y2="260.0490777142828" stroke="#ef5350" stroke-width="2"/><rect x="1804" y="211.30135200000302" width="8" height="45.34672114285581" fill="#ef5350"/><line x1="1820" y1="243.04405714285951" x2="1820" y2="282.72243771428816" stroke="#26a69a" stroke-width="2"/><rect x="1816" y="243.04405714285951" width="8" height="17.0050205714233" fill="#26a69a"/><line x1="1832" y1="244.1777245714287" x2="1832" y2="265.7174171428584" stroke="#ef5350" stroke-width="2"/><rect x="1828" y="244.1777245714287" width="8" height="5.668340571427166" fill="#ef5350"/><line x1="1844" y1="238.50938514285974" x2="1844" y2="258.9154091428554" stroke="#26a69a" stroke-width="2"/><rect x="1840" y="246.44506057142542" width="8" height="5.668340571433646" fill="#26a69a"/><line x1="1856" y1="247.01189485714553" x2="1856" y2="269.11842171428884" stroke="#ef5350" stroke-width="2"/><rect x="1852" y="250.97973257143167" width="8" height="13.604017142850921" fill="#ef5350"/><line x1="1868" y1="230.5737085714294" x2="1868" y2="267.98475314285497" stroke="#26a69a" stroke-width="2"/><rect x="1864" y="237.37571657142587" width="8" height="27.20803314285672" fill="#26a69a"/><line x1="1880" y1="219.23702857142678" x2="1880" y2="254.38073714285565" stroke="#26a69a" stroke-width="2"/><rect x="1876" y="226.03903657142962" width="8" height="11.33667999999625" fill="#26a69a"/><line x1="1892" y1="196.5636685714279" x2="1892" y2="229.4400411428602" stroke="#26a69a" stroke-width="2"/><rect x="1888" y="198.83100457143098" width="8" height="27.20803199999864" fill="#26a69a"/><line x1="1904" y1="182.9596514285705" x2="1904" y2="222.63803199999916" stroke="#ef5350" stroke-width="2"/><rect x="1900" y="199.9646720000003" width="8" height="12.470348571430009" fill="#ef5350"/><line x1="1916" y1="150.08327885714482" x2="1916" y2="213.5686879999996" stroke="#26a69a" stroke-width="2"/><rect x="1912" y="151.2169474285721" width="8" height="62.35174057142751" fill="#26a69a"/><line x1="1928" y1="110.40489828571606" x2="1928" y2="162.55362742856835" stroke="#26a69a" stroke-width="2"/><rect x="1924" y="120.607910857143" width="8" height="30.6090365714291" fill="#26a69a"/><line x1="1940" y1="114.93957028571583" x2="1940" y2="173.89030742857096" stroke="#ef5350" stroke-width="2"/><rect x="1936" y="114.93957028571583" width="8" height="53.28239771428605" fill="#ef5350"/><rect x="75" y="956.1608970842087" width="10" height="63.83910291579127" fill="#26a69a" opacity="0.9"/><rect x="87" y="975.5644913088277" width="10" height="44.435508691172345" fill="#ef5350" opacity="0.9"/><rect x="99" y="993.5314327387564" width="10" height="26.468567261243606" fill="#26a69a" opacity="0.9"/><rect x="111" y="994.6634930617815" width="10" height="25.336506938218463" fill="#ef5350" opacity="0.9"/><rect x="123" y="977.9430223066732" width="10" height="42.05697769332676" fill="#26a69a" opacity="0.9"/><rect x="135" y="989.9676506402965" width="10" height="30.032349359703517" fill="#26a69a" opacity="0.9"/><rect x="147" y="992.7044666871847" width="10" height="27.295533312815337" fill="#ef5350" opacity="0.9"/><rect x="159" y="984.2491402496955" width="10" height="35.75085975030447" fill="#ef5350" opacity="0.9"/><rect x="171" y="974.0355073530395" width="10" height="45.96449264696048" fill="#26a69a" opacity="0.9"/><rect x="183" y="998.8655644913089" width="10" height="21.134435508691126" fill="#ef5350" opacity="0.9"/><rect x="195" y="973.7755750625577" width="10" height="46.224424937442336" fill="#ef5350" opacity="0.9"/><rect x="207" y="962.8528990646452" width="10" height="57.14710093535484" fill="#ef5350" opacity="0.9"/><rect x="219" y="957.9297413389356" width="10" height="62.07025866106437" fill="#26a69a" opacity="0.9"/><rect x="231" y="992.3271132461763" width="10" height="27.672886753823718" fill="#26a69a" opacity="0.9"/><rect x="243" y="1000.9008644337691" width="10" height="19.09913556623087" fill="#26a69a" opacity="0.9"/><rect x="255" y="985.8493797754613" width="10" height="34.15062022453867" fill="#ef5350" opacity="0.9"/><rect x="267" y="999.2529539280888" width="10" height="20.7470460719112" fill="#26a69a" opacity="0.9"/><rect x="279" y="998.6859201669989" width="10" height="21.314079833001074" fill="#ef5350" opacity="0.9"/><rect x="291" y="998.1133666082349" width="10" height="21.886633391765145" fill="#ef5350" opacity="0.9"/><rect x="303" y="992.2824530649931" width="10" height="27.717546935006908" fill="#26a69a" opacity="0.9"/><rect x="315" y="985.7881602012552" width="10" height="34.21183979874479" fill="#ef5350" opacity="0.9"/><rect x="327" y="997.3410967336179" width="10" height="22.65890326638214" fill="#ef5350" opacity="0.9"/><rect x="339" y="992.401881414674" width="10" height="27.598118585326006" fill="#ef5350" opacity="0.9"/><rect x="351" y="994.9861503258353" width="10" height="25.013849674164703" fill="#26a69a" opacity="0.9"/><rect x="363" y="995.3609947679008" width="10" height="24.63900523209918" fill="#26a69a" opacity="0.9"/><rect x="375" y="1000.1918213325126" width="10" height="19.80817866748737" fill="#ef5350" opacity="0.9"/><rect x="387" y="1000.1602079458324" width="10" height="19.83979205416756" fill="#26a69a" opacity="0.9"/><rect x="399" y="999.22435134014" width="10" height="20.775648659860053" fill="#26a69a" opacity="0.9"/><rect x="411" y="1004.4059359569657" width="10" height="15.594064043034336" fill="#ef5350" opacity="0.9"/><rect x="423" y="1001.7554294737124" width="10" height="18.24457052628759" fill="#26a69a" opacity="0.9"/><rect x="435" y="1004.4335349453373" width="10" height="15.566465054662672" fill="#ef5350" opacity="0.9"/><rect x="447" y="1001.3068204627264" width="10" height="18.693179537273636" fill="#26a69a" opacity="0.9"/><rect x="459" y="1003.2206848563515" width="10" height="16.779315143648546" fill="#ef5350" opacity="0.9"/><rect x="471" y="1001.4036678219213" width="10" height="18.596332178078683" fill="#26a69a" opacity="0.9"/><rect x="483" y="1004.2187646358271" width="10" height="15.781235364172858" fill="#ef5350" opacity="0.9"/><rect x="495" y="1000.0337543991114" width="10" height="19.966245600888556" fill="#ef5350" opacity="0.9"/><rect x="507" y="1001.0288233798558" width="10" height="18.971176620144206" fill="#ef5350" opacity="0.9"/><rect x="519" y="995.7152654186349" width="10" height="24.284734581365115" fill="#ef5350" opacity="0.9"/><rect x="531" y="992.7962960484939" width="10" height="27.2037039515061" fill="#26a69a" opacity="0.9"/><rect x="543" y="967.951686716356" width="10" height="52.048313283644006" fill="#ef5350" opacity="0.9"/><rect x="555" y="996.8282573496942" width="10" height="23.17174265030576" fill="#26a69a" opacity="0.9"/><rect x="567" y="990.8061580870054" width="10" height="29.19384191299457" fill="#26a69a" opacity="0.9"/><rect x="579" y="990.0725267961087" width="10" height="29.92747320389128" fill="#26a69a" opacity="0.9"/><rect x="591" y="1003.7310152413322" width="10" height="16.268984758667784" fill="#ef5350" opacity="0.9"/><rect x="603" y="997.2974401520119" width="10" height="22.70255984798814" fill="#ef5350" opacity="0.9"/><rect x="615" y="982.1907575169608" width="10" height="37.80924248303916" fill="#ef5350" opacity="0.9"/><rect x="627" y="987.0155624841096" width="10" height="32.98443751589036" fill="#ef5350" opacity="0.9"/><rect x="639" y="991.2126159157511" width="10" height="28.787384084248856" fill="#26a69a" opacity="0.9"/><rect x="651" y="997.3094833469377" width="10" height="22.690516653062332" fill="#26a69a" opacity="0.9"/><rect x="663" y="1001.5572185572253" width="10" height="18.44278144277473" fill="#26a69a" opacity="0.9"/><rect x="675" y="1004.5233571074922" width="10" height="15.476642892507812" fill="#ef5350" opacity="0.9"/><rect x="687" y="997.1699830057138" width="10" height="22.83001699428621" fill="#ef5350" opacity="0.9"/><rect x="699" y="997.705905179912" width="10" height="22.29409482008805" fill="#26a69a" opacity="0.9"/><rect x="711" y="1005.0060885041014" width="10" height="14.993911495898601" fill="#26a69a" opacity="0.9"/><rect x="723" y="1003.6517308747374" width="10" height="16.348269125262618" fill="#ef5350" opacity="0.9"/><rect x="735" y="1006.0919832465777" width="10" height="13.908016753422316" fill="#26a69a" opacity="0.9"/><rect x="747" y="994.4703001431802" width="10" height="25.529699856819775" fill="#ef5350" opacity="0.9"/><rect x="759" y="1004.8726097603404" width="10" height="15.127390239659576" fill="#26a69a" opacity="0.9"/><rect x="771" y="997.9467690784279" width="10" height="22.053230921572094" fill="#ef5350" opacity="0.9"/><rect x="783" y="1002.1483387081666" width="10" height="17.851661291833352" fill="#ef5350" opacity="0.9"/><rect x="795" y="999.3733858773468" width="10" height="20.626614122653223" fill="#26a69a" opacity="0.9"/><rect x="807" y="998.709504757062" width="10" height="21.29049524293805" fill="#26a69a" opacity="0.9"/><rect x="819" y="1000.5746945711953" width="10" height="19.425305428804677" fill="#26a69a" opacity="0.9"/><rect x="831" y="991.85040344703" width="10" height="28.149596552970024" fill="#26a69a" opacity="0.9"/><rect x="843" y="1003.5684321098339" width="10" height="16.431567890166093" fill="#ef5350" opacity="0.9"/><rect x="855" y="1002.5046165580549" width="10" height="17.495383441945137" fill="#26a69a" opacity="0.9"/><rect x="867" y="1003.2317244517001" width="10" height="16.768275548299926" fill="#26a69a" opacity="0.9"/><rect x="879" y="997.4790916754761" width="10" height="22.52090832452393" fill="#ef5350" opacity="0.9"/><rect x="891" y="997.2296971805542" width="10" height="22.77030281944576" fill="#26a69a" opacity="0.9"/><rect x="903" y="999.7146097335777" width="10" height="20.28539026642227" fill="#ef5350" opacity="0.9"/><rect x="915" y="992.4731369846517" width="10" height="27.52686301534834" fill="#ef5350" opacity="0.9"/><rect x="927" y="1002.1794502950582" width="10" height="17.820549704941754" fill="#26a69a" opacity="0.9"/><rect x="939" y="1000.9390012177008" width="10" height="19.06099878229918" fill="#ef5350" opacity="0.9"/><rect x="951" y="1000.8225836667514" width="10" height="19.17741633324863" fill="#26a69a" opacity="0.9"/><rect x="963" y="998.0937964164805" width="10" height="21.906203583519527" fill="#26a69a" opacity="0.9"/><rect x="975" y="991.0595669802358" width="10" height="28.940433019764214" fill="#26a69a" opacity="0.9"/><rect x="987" y="979.4694972635185" width="10" height="40.53050273648148" fill="#26a69a" opacity="0.9"/><rect x="999" y="878.4095288434519" width="10" height="141.59047115654812" fill="#26a69a" opacity="0.9"/><rect x="1011" y="961.7258567395057" width="10" height="58.27414326049427" fill="#ef5350" opacity="0.9"/><rect x="1023" y="981.2774819017543" width="10" height="38.7225180982457" fill="#ef5350" opacity="0.9"/><rect x="1035" y="977.1265940506617" width="10" height="42.87340594933835" fill="#26a69a" opacity="0.9"/><rect x="1047" y="982.9981533767781" width="10" height="37.00184662322192" fill="#26a69a" opacity="0.9"/><rect x="1059" y="986.2708915978643" width="10" height="33.729108402135694" fill="#ef5350" opacity="0.9"/><rect x="1071" y="983.9791719634422" width="10" height="36.02082803655776" fill="#ef5350" opacity="0.9"/><rect x="1083" y="989.8306592980156" width="10" height="30.169340701984424" fill="#26a69a" opacity="0.9"/><rect x="1095" y="984.1176687050889" width="10" height="35.88233129491107" fill="#26a69a" opacity="0.9"/><rect x="1107" y="990.0047838246511" width="10" height="29.9952161753489" fill="#26a69a" opacity="0.9"/><rect x="1119" y="982.3126948655846" width="10" height="37.687305134415396" fill="#ef5350" opacity="0.9"/><rect x="1131" y="987.5534918574621" width="10" height="32.44650814253794" fill="#ef5350" opacity="0.9"/><rect x="1143" y="988.9725816595522" width="10" height="31.027418340447753" fill="#26a69a" opacity="0.9"/><rect x="1155" y="993.2469122586343" width="10" height="26.753087741365675" fill="#ef5350" opacity="0.9"/><rect x="1167" y="991.1980637218825" width="10" height="28.801936278117523" fill="#26a69a" opacity="0.9"/><rect x="1179" y="988.5957300183325" width="10" height="31.40426998166754" fill="#ef5350" opacity="0.9"/><rect x="1191" y="993.7838380324096" width="10" height="26.216161967590438" fill="#26a69a" opacity="0.9"/><rect x="1203" y="996.4157779234856" width="10" height="23.58422207651438" fill="#ef5350" opacity="0.9"/><rect x="1215" y="977.8090417631238" width="10" height="42.19095823687621" fill="#ef5350" opacity="0.9"/><rect x="1227" y="970.9218396649316" width="10" height="49.078160335068446" fill="#ef5350" opacity="0.9"/><rect x="1239" y="987.907762508196" width="10" height="32.092237491803985" fill="#26a69a" opacity="0.9"/><rect x="1251" y="997.4941456691333" width="10" height="22.50585433086667" fill="#ef5350" opacity="0.9"/><rect x="1263" y="1005.5876744590598" width="10" height="14.412325540940174" fill="#26a69a" opacity="0.9"/><rect x="1275" y="1003.1243392969451" width="10" height="16.875660703054905" fill="#26a69a" opacity="0.9"/><rect x="1287" y="989.3383937054234" width="10" height="30.661606294576586" fill="#26a69a" opacity="0.9"/><rect x="1299" y="992.9061902021919" width="10" height="27.09380979780815" fill="#26a69a" opacity="0.9"/><rect x="1311" y="994.9741071309095" width="10" height="25.025892869090512" fill="#ef5350" opacity="0.9"/><rect x="1323" y="1000.067374984946" width="10" height="19.932625015053986" fill="#26a69a" opacity="0.9"/><rect x="1335" y="999.9795600219454" width="10" height="20.020439978054583" fill="#ef5350" opacity="0.9"/><rect x="1347" y="998.3522233075965" width="10" height="21.647776692403454" fill="#26a69a" opacity="0.9"/><rect x="1359" y="996.4137707243312" width="10" height="23.586229275668757" fill="#26a69a" opacity="0.9"/><rect x="1371" y="998.1163774069663" width="10" height="21.883622593033692" fill="#26a69a" opacity="0.9"/><rect x="1383" y="997.5694156374195" width="10" height="22.430584362580475" fill="#ef5350" opacity="0.9"/><rect x="1395" y="1002.9336553772865" width="10" height="17.066344622713473" fill="#ef5350" opacity="0.9"/><rect x="1407" y="986.2924689887731" width="10" height="33.70753101122693" fill="#26a69a" opacity="0.9"/><rect x="1419" y="964.5991623288862" width="10" height="55.40083767111378" fill="#26a69a" opacity="0.9"/><rect x="1431" y="982.4481808084998" width="10" height="37.55181919150016" fill="#26a69a" opacity="0.9"/><rect x="1443" y="981.1610643508048" width="10" height="38.83893564919515" fill="#26a69a" opacity="0.9"/><rect x="1455" y="982.4406538116712" width="10" height="37.559346188328846" fill="#26a69a" opacity="0.9"/><rect x="1467" y="992.0942781442775" width="10" height="27.905721855722504" fill="#26a69a" opacity="0.9"/><rect x="1479" y="990.4955440178775" width="10" height="29.504455982122522" fill="#ef5350" opacity="0.9"/><rect x="1491" y="992.0812313497745" width="10" height="27.918768650225502" fill="#26a69a" opacity="0.9"/><rect x="1503" y="983.3554348262435" width="10" height="36.64456517375652" fill="#26a69a" opacity="0.9"/><rect x="1515" y="980.9232112510203" width="10" height="39.07678874897965" fill="#26a69a" opacity="0.9"/><rect x="1527" y="975.6186856859938" width="10" height="44.381314314006204" fill="#ef5350" opacity="0.9"/><rect x="1539" y="996.067027070426" width="10" height="23.93297292957402" fill="#26a69a" opacity="0.9"/><rect x="1551" y="993.5685659231109" width="10" height="26.431434076889104" fill="#ef5350" opacity="0.9"/><rect x="1563" y="996.7575035795052" width="10" height="23.24249642049483" fill="#ef5350" opacity="0.9"/><rect x="1575" y="999.2318783369686" width="10" height="20.768121663031366" fill="#26a69a" opacity="0.9"/><rect x="1587" y="1000.8115440714027" width="10" height="19.18845592859725" fill="#26a69a" opacity="0.9"/><rect x="1599" y="1002.3902062062598" width="10" height="17.60979379374021" fill="#26a69a" opacity="0.9"/><rect x="1611" y="988.1576588029064" width="10" height="31.84234119709356" fill="#26a69a" opacity="0.9"/><rect x="1623" y="989.6148853889283" width="10" height="30.385114611071685" fill="#ef5350" opacity="0.9"/><rect x="1635" y="998.7426235431079" width="10" height="21.257376456892075" fill="#26a69a" opacity="0.9"/><rect x="1647" y="1005.2293894100172" width="10" height="14.770610589982766" fill="#26a69a" opacity="0.9"/><rect x="1659" y="1005.0663044787303" width="10" height="14.93369552126967" fill="#26a69a" opacity="0.9"/><rect x="1671" y="994.4241345626313" width="10" height="25.575865437368748" fill="#ef5350" opacity="0.9"/><rect x="1683" y="1000.7016499177048" width="10" height="19.2983500822952" fill="#26a69a" opacity="0.9"/><rect x="1695" y="997.6682701957689" width="10" height="22.331729804231145" fill="#ef5350" opacity="0.9"/><rect x="1707" y="998.2588885469216" width="10" height="21.74111145307836" fill="#ef5350" opacity="0.9"/><rect x="1719" y="1004.1801260521069" width="10" height="15.819873947893143" fill="#26a69a" opacity="0.9"/><rect x="1731" y="1006.1968594023899" width="10" height="13.803140597610081" fill="#26a69a" opacity="0.9"/><rect x="1743" y="1007.0950810239392" width="10" height="12.904918976060799" fill="#ef5350" opacity="0.9"/><rect x="1755" y="1003.5067107358392" width="10" height="16.493289264160808" fill="#26a69a" opacity="0.9"/><rect x="1767" y="987.044666871847" width="10" height="32.95533312815303" fill="#26a69a" opacity="0.9"/><rect x="1779" y="990.5592725910265" width="10" height="29.440727408973544" fill="#ef5350" opacity="0.9"/><rect x="1791" y="996.5417296704179" width="10" height="23.458270329582092" fill="#ef5350" opacity="0.9"/><rect x="1803" y="985.6752552488258" width="10" height="34.324744751174194" fill="#ef5350" opacity="0.9"/><rect x="1815" y="990.9797808138524" width="10" height="29.020219186147642" fill="#26a69a" opacity="0.9"/><rect x="1827" y="992.3522032356051" width="10" height="27.64779676439491" fill="#ef5350" opacity="0.9"/><rect x="1839" y="975.0009701462579" width="10" height="44.99902985374206" fill="#26a69a" opacity="0.9"/><rect x="1851" y="995.4081639480269" width="10" height="24.591836051973132" fill="#ef5350" opacity="0.9"/><rect x="1863" y="997.23471517844" width="10" height="22.765284821560044" fill="#26a69a" opacity="0.9"/><rect x="1875" y="991.7149175041147" width="10" height="28.285082495885263" fill="#26a69a" opacity="0.9"/><rect x="1887" y="982.4035206273167" width="10" height="37.59647937268335" fill="#26a69a" opacity="0.9"/><rect x="1899" y="985.5894474849795" width="10" height="34.41055251502053" fill="#ef5350" opacity="0.9"/><rect x="1911" y="981.3893832546065" width="10" height="38.610616745393486" fill="#26a69a" opacity="0.9"/><rect x="1923" y="921.4177851226399" width="10" height="98.58221487736012" fill="#26a69a" opacity="0.9"/><rect x="1935" y="860.0" width="10" height="160.0" fill="#ef5350" opacity="0.9"/><rect x="1004" y="536.6640742857142" width="12" height="224.46626857143065" fill="#00ff00" opacity="0.60"/><polyline points="320,632.4938423591773,332,639.4544869236078,344,649.6390746723787,356,657.9899546355526,368,664.0339553641427,380,673.8210723226595,392,679.8689048905674,404,681.7777967785397,416,685.1244152077925,428,685.5610668206541,440,688.7633105792312,452,687.0179383063779,464,689.4336221139318,476,687.3005054500156,488,686.7741317608957,500,688.4572565183589,512,692.8952300200112,524,700.3655276779682,536,707.4482735045551,548,720.8744170347343,560,730.9704809361847,572,734.5986274592633,584,735.0740582046391,596,735.720146593316,608,738.2481337204808,620,751.5481352436966,632,767.9002051932782,644,779.4558837190899,656,785.4843177594505,668,790.0748680680733,680,795.0919702656718,692,801.574684063501,704,803.2292296356835,716,804.1863574799014,728,807.2116979103872,740,808.0054798236818,752,810.1272524663273,764,809.6716470341562,776,810.3391165138938,788,813.6422270499874,800,813.7156092901217,812,812.8102872624887,824,809.6158818905549,836,806.6177372751293,848,806.928244908795,860,804.4020024821033,872,801.7924493749628,884,799.9712670943544,896,796.8119734119033,908,796.328869223011,920,798.1591110112926,932,798.5194234864074,944,799.601199099951,956,799.7162014169589,968,798.4166622343894,980,795.7293312460804,992,792.6501262566619,1004,789.6482421233746,1016,770.844962683051,1028,754.6962188084763,1040,735.2268733437215,1052,712.753173950445,1064,692.4198268803334,1076,676.6142303066902,1088,659.2908138693215,1100,641.133973800132,1112,623.1947992613445,1124,611.8226947330511,1136,603.1531735475905,1148,593.5818269512246,1160,589.9965511327407,1172,586.1049198684018,1184,585.2831297312734,1196,582.272269267066,1208,583.1650982620366,1220,586.726089720079,1232,592.1073067535417,1244,595.2485328314392,1256,598.6304363712991,1268,599.8547914379807,1280,599.019110294226,1292,594.8080296403532,1304,588.8386365589603,1316,585.3811880703493,1328,579.6617791384831,1340,576.6464435470621,1352,571.3270415221749,1364,566.0823756901339,1376,560.7973598829111,1388,556.3395841117524,1400,552.4143267405634,1412,545.5158835407799,1424,533.0122687273745,1436,519.216201556063,1448,505.97826693167787,1460,492.1656254551895,1472,475.99754858190084,1484,463.6366246081122,1496,451.6971527678834,1508,437.2238485314808,1520,421.64568140603603,1532,408.73880148980913,1544,395.9274802050653,1556,386.3336998317924,1568,379.3811069226389,1580,370.28348781435466,1592,360.75668794088153,1604,351.16548696692007,1616,340.54430273877836,1628,331.150596627601,1640,321.46387705762595,1652,312.4837654466968,1664,303.92702892796217,1676,297.48084037699823,1688,289.81311201456003,1700,285.790789836301,1712,283.0152930083516,1724,279.5324137286441,1736,275.0856166660534,1748,271.3862292828902,1760,267.4993225484611,1772,260.20370402003596,1784,254.0347798276473,1796,249.85696123181435,1808,250.50373379477344,1820,249.7932883993534,1832,249.79831475587685,1844,249.47895721449765,1856,250.9175088811454,1868,249.6278143754547,1880,247.38126410840255,1892,242.7574298667878,1904,239.8695813624662,1916,231.42647336876507,1928,220.8723245581366,1940,215.8580048859286" fill="none" stroke="#0090ff" stroke-width="2"/><line x1="80" y1="50" x2="80" y2="900" stroke="#666666" stroke-width="0.5" stroke-dasharray="4,4" opacity="0.90"/><line x1="152" y1="50" x2="152" y2="900" stroke="#666666" stroke-width="0.5" stroke-dasharray="4,4" opacity="0.90"/><line x1="224" y1="50" x2="224" y2="900" stroke="#666666" stroke-width="0.5" stroke-dasharray="4,4" opacity="0.90"/><line x1="296" y1="50" x2="296" y2="900" stroke="#666666" stroke-width="0.5" stroke-dasharray="4,4" opacity="0.90"/><line x1="368" y1="50" x2="368" y2="900" stroke="#666666" stroke-width="0.5" stroke-dasharray="4,4" opacity="0.90"/><line x1="440" y1="50" x2="440" y2="900" stroke="#666666" stroke-width="0.5" stroke-dasharray="4,4" opacity="0.90"/><line x1="512" y1="50" x2="512" y2="900" stroke="#666666" stroke-width="0.5" stroke-dasharray="4,4" opacity="0.90"/><line x1="584" y1="50" x2="584" y2="900" stroke="#666666" stroke-width="0.5" stroke-dasharray="4,4" opacity="0.90"/><line x1="656" y1="50" x2="656" y2="900" stroke="#666666" stroke-width="0.5" stroke-dasharray="4,4" opacity="0.90"/><line x1="728" y1="50" x2="728" y2="900" stroke="#666666" stroke-width="0.5" stroke-dasharray="4,4" opacity="0.90"/><line x1="800" y1="50" x2="800" y2="900" stroke="#666666" stroke-width="0.5" stroke-dasharray="4,4" opacity="0.90"/><line x1="872" y1="50" x2="872" y2="900" stroke="#666666" stroke-width="0.5" stroke-dasharray="4,4" opacity="0.90"/><line x1="944" y1="50" x2="944" y2="900" stroke="#666666" stroke-width="0.5" stroke-dasharray="4,4" opacity="0.90"/><line x1="1010" y1="30" x2="1010" y2="950" stroke="black" stroke-width="0.7"/><line x1="1016" y1="50" x2="1016" y2="900" stroke="#666666" stroke-width="0.5" stroke-dasharray="4,4" opacity="0.90"/><line x1="1088" y1="50" x2="1088" y2="900" stroke="#666666" stroke-width="0.5" stroke-dasharray="4,4" opacity="0.90"/><line x1="1160" y1="50" x2="1160" y2="900" stroke="#666666" stroke-width="0.5" stroke-dasharray="4,4" opacity="0.90"/><line x1="1232" y1="50" x2="1232" y2="900" stroke="#666666" stroke-width="0.5" stroke-dasharray="4,4" opacity="0.90"/><line x1="1304" y1="50" x2="1304" y2="900" stroke="#666666" stroke-width="0.5" stroke-dasharray="4,4" opacity="0.90"/><line x1="1376" y1="50" x2="1376" y2="900" stroke="#666666" stroke-width="0.5" stroke-dasharray="4,4" opacity="0.90"/><line x1="1448" y1="50" x2="1448" y2="900" stroke="#666666" stroke-width="0.5" stroke-dasharray="4,4" opacity="0.90"/><line x1="1520" y1="50" x2="1520" y2="900" stroke="#666666" stroke-width="0.5" stroke-dasharray="4,4" opacity="0.90"/><line x1="1592" y1="50" x2="1592" y2="900" stroke="#666666" stroke-width="0.5" stroke-dasharray="4,4" opacity="0.90"/><line x1="1664" y1="50" x2="1664" y2="900" stroke="#666666" stroke-width="0.5" stroke-dasharray="4,4" opacity="0.90"/><line x1="1736" y1="50" x2="1736" y2="900" stroke="#666666" stroke-width="0.5" stroke-dasharray="4,4" opacity="0.90"/><line x1="1808" y1="50" x2="1808" y2="900" stroke="#666666" stroke-width="0.5" stroke-dasharray="4,4" opacity="0.90"/><line x1="1880" y1="50" x2="1880" y2="900" stroke="#666666" stroke-width="0.5" stroke-dasharray="4,4" opacity="0.90"/><line x1="1946" y1="30" x2="1946" y2="950" stroke="black" stroke-width="0.7"/><text x="80" y="1040" text-anchor="middle" font-size="20" fill="black">09:30</text><text x="152" y="1040" text-anchor="middle" font-size="20" fill="black">10:00</text><text x="224" y="1040" text-anchor="middle" font-size="20" fill="black">10:30</text><text x="296" y="1040" text-anchor="middle" font-size="20" fill="black">11:00</text><text x="368" y="1040" text-anchor="middle" font-size="20" fill="black">11:30</text><text x="440" y="1040" text-anchor="middle" font-size="20" fill="black">12:00</text><text x="512" y="1040" text-anchor="middle" font-size="20" fill="black">12:30</text><text x="584" y="1040" text-anchor="middle" font-size="20" fill="black">13:00</text><text x="656" y="1040" text-anchor="middle" font-size="20" fill="black">13:30</text><text x="728" y="1040" text-anchor="middle" font-size="20" fill="black">14:00</text><text x="800" y="1040" text-anchor="middle" font-size="20" fill="black">14:30</text><text x="872" y="1040" text-anchor="middle" font-size="20" fill="black">15:00</text><text x="944" y="1040" text-anchor="middle" font-size="20" fill="black">15:30</text><text x="1016" y="1040" text-anchor="middle" font-size="20" fill="black">09:30</text><text x="1088" y="1040" text-anchor="middle" font-size="20" fill="black">10:00</text><text x="1160" y="1040" text-anchor="middle" font-size="20" fill="black">10:30</text><text x="1232" y="1040" text-anchor="middle" font-size="20" fill="black">11:00</text><text x="1304" y="1040" text-anchor="middle" font-size="20" fill="black">11:30</text><text x="1376" y="1040" text-anchor="middle" font-size="20" fill="black">12:00</text><text x="1448" y="1040" text-anchor="middle" font-size="20" fill="black">12:30</text><text x="1520" y="1040" text-anchor="middle" font-size="20" fill="black">13:00</text><text x="1592" y="1040" text-anchor="middle" font-size="20" fill="black">13:30</text><text x="1664" y="1040" text-anchor="middle" font-size="20" fill="black">14:00</text><text x="1736" y="1040" text-anchor="middle" font-size="20" fill="black">14:30</text><text x="1808" y="1040" text-anchor="middle" font-size="20" fill="black">15:00</text><text x="1880" y="1040" text-anchor="middle" font-size="20" fill="black">15:30</text><text x="1942" y="50" text-anchor="end" font-size="40" fill="#26a69a" font-weight="bold"> +0.65% (Wed)</text></svg>