<svg xmlns="http://www.w3.org/2000/svg" width="1992" height="1050"><rect width="100%" height="100%" fill="white"/><text x="42" y="854.0" text-anchor="end" font-size="20" fill="black">487</text><text x="42" y="787.3333333333334" text-anchor="end" font-size="20" fill="black">488</text><text x="42" y="720.6666666666667" text-anchor="end" font-size="20" fill="black">489</text><text x="42" y="654.0" text-anchor="end" font-size="20" fill="black">490</text><text x="42" y="587.3333333333334" text-anchor="end" font-size="20" fill="black">491</text><text x="42" y="520.6666666666666" text-anchor="end" font-size="20" fill="black">492</text><text x="42" y="454.0" text-anchor="end" font-size="20" fill="black">493</text><text x="42" y="387.3333333333333" text-anchor="end" font-size="20" fill="black">494</text><text x="42" y="320.66666666666674" text-anchor="end" font-size="20" fill="black">495</text><text x="42" y="254.0" text-anchor="end" font-size="20" fill="black">496</text><text x="42" y="187.33333333333326" text-anchor="end" font-size="20" fill="black">497</text><text x="42" y="120.66666666666674" text-anchor="end" font-size="20" fill="black">498</text><text x="42" y="54.0" text-anchor="end" font-size="20" fill="black">499</text><line x1="80" y1="34.440876666667464" x2="80" y2="89.9906093333318" stroke="#ef5350" stroke-width="2"/><rect x="76" y="48.328309333332186" width="8" height="4.629144666667685" fill="#ef5350"/><line x1="92" y1="45.02177800000027" x2="92" y2="83.37754600000085" stroke="#ef5350" stroke-width="2"/><rect x="88" y="53.61876066666582" width="8" height="24.468334666668625" fill="#ef5350"/><line x1="104" y1="52.95745399999987" x2="104" y2="115.78155666666521" stroke="#26a69a" stroke-width="2"/><rect x="100" y="52.95745399999987" width="8" height="27.774866666667776" fill="#26a69a"/><line x1="116" y1="43.037858666665784" x2="116" y2="107.18457466666678" stroke="#ef5350" stroke-width="2"/><rect x="112" y="52.95745399999987" width="8" height="52.243201333332536" fill="#ef5350"/><line x1="128" y1="89.9906093333318" x2="128" y2="164.05691999999976" stroke="#ef5350" stroke-width="2"/><rect x="124" y="104.53934933333358" width="8" height="37.03315533333193" fill="#ef5350"/><line x1="140" y1="86.684078" x2="140" y2="138.26597266666636" stroke="#26a69a" stroke-width="2"/><rect x="136" y="86.684078" width="8" height="51.58189466666636" fill="#26a69a"/><line x1="152" y1="85.36146533333522" x2="152" y2="123.05592666666598" stroke="#ef5350" stroke-width="2"/><rect x="148" y="86.02277133333405" width="8" height="13.887433333331956" fill="#ef5350"/><line x1="164" y1="104.53934933333358" x2="164" y2="177.2830473333329" stroke="#ef5350" stroke-width="2"/><rect x="160" y="104.53934933333358" width="8" height="68.11455333333174" fill="#ef5350"/><line x1="176" y1="155.45993800000133" x2="176" y2="271.1885480000017" stroke="#ef5350" stroke-width="2"/><rect x="172" y="174.70395266666787" width="8" height="95.16198266666515" fill="#ef5350"/><line x1="188" y1="263.914178666668" x2="188" y2="394.1915286666661" stroke="#ef5350" stroke-width="2"/><rect x="184" y="266.5594040000012" width="8" height="114.40599799999887" fill="#ef5350"/><line x1="200" y1="359.8035986666673" x2="200" y2="425.93423333333175" stroke="#ef5350" stroke-width="2"/><rect x="196" y="381.62670799999887" width="8" height="28.436172666666437" fill="#ef5350"/><line x1="212" y1="339.3031020000005" x2="212" y2="410.72418733333507" stroke="#26a69a" stroke-width="2"/><rect x="208" y="371.70711266666484" width="8" height="37.0331553333358" fill="#26a69a"/><line x1="224" y1="314.8347673333319" x2="224" y2="399.4819793333325" stroke="#ef5350" stroke-width="2"/><rect x="220" y="372.36841933333454" width="8" height="24.46833466666476" fill="#ef5350"/><line x1="236" y1="363.77143666666524" x2="236" y2="398.8206733333338" stroke="#26a69a" stroke-width="2"/><rect x="232" y="389.5623839999985" width="8" height="9.258289333335313" fill="#26a69a"/><line x1="248" y1="376.9975639999984" x2="248" y2="444.4508106666679" stroke="#ef5350" stroke-width="2"/><rect x="244" y="388.23977133333375" width="8" height="53.565814000000955" fill="#ef5350"/><line x1="260" y1="415.35333199999894" x2="260" y2="449.74126200000154" stroke="#26a69a" stroke-width="2"/><rect x="256" y="436.5151346666683" width="8" height="5.290450666666402" fill="#26a69a"/><line x1="272" y1="389.5623839999985" x2="272" y2="457.6769380000011" stroke="#ef5350" stroke-width="2"/><rect x="268" y="431.88599066666785" width="8" height="2" fill="#ef5350"/><line x1="284" y1="427.2568460000002" x2="284" y2="513.8879773333315" stroke="#ef5350" stroke-width="2"/><rect x="280" y="430.5633779999994" width="8" height="78.6954546666683" fill="#ef5350"/><line x1="296" y1="492.72617399999865" x2="296" y2="539.017618666666" stroke="#ef5350" stroke-width="2"/><rect x="292" y="507.93621999999914" width="8" height="15.87135266666644" fill="#ef5350"/><line x1="308" y1="445.11211733333386" x2="308" y2="532.4045553333349" stroke="#26a69a" stroke-width="2"/><rect x="304" y="446.4347299999986" width="8" height="77.372842666667" fill="#26a69a"/><line x1="320" y1="440.4829726666662" x2="320" y2="532.4045553333349" stroke="#ef5350" stroke-width="2"/><rect x="316" y="449.0799553333318" width="8" height="30.420092000000864" fill="#ef5350"/><line x1="332" y1="466.93522666666547" x2="332" y2="511.2427519999983" stroke="#ef5350" stroke-width="2"/><rect x="328" y="476.85482199999944" width="8" height="25.790947333333293" fill="#ef5350"/><line x1="344" y1="501.984463333334" x2="344" y2="613.0839293333338" stroke="#ef5350" stroke-width="2"/><rect x="340" y="502.64576933333274" width="8" height="103.82509666666613" fill="#ef5350"/><line x1="356" y1="580.6799179999985" x2="356" y2="629.616587999999" stroke="#ef5350" stroke-width="2"/><rect x="352" y="603.1643339999997" width="8" height="13.887433333331956" fill="#ef5350"/><line x1="368" y1="599.8578026666678" x2="368" y2="648.7944720000011" stroke="#ef5350" stroke-width="2"/><rect x="364" y="619.6969926666649" width="8" height="11.903514000001337" fill="#ef5350"/><line x1="380" y1="622.3422179999981" x2="380" y2="656.7301480000008" stroke="#ef5350" stroke-width="2"/><rect x="376" y="631.6005066666662" width="8" height="20.500497333334124" fill="#ef5350"/><line x1="392" y1="643.5040213333347" x2="392" y2="712.2798813333322" stroke="#26a69a" stroke-width="2"/><rect x="388" y="646.8105526666667" width="8" height="7.274370000000886" fill="#26a69a"/><line x1="404" y1="617.0517673333317" x2="404" y2="681.1984826666655" stroke="#26a69a" stroke-width="2"/><rect x="400" y="640.8587960000015" width="8" height="5.951756666665233" fill="#26a69a"/><line x1="416" y1="630.2778940000015" x2="416" y2="701.0376733333335" stroke="#ef5350" stroke-width="2"/><rect x="412" y="643.5040213333347" width="8" height="40.33968666666408" fill="#ef5350"/><line x1="428" y1="674.5854193333344" x2="428" y2="712.9411873333349" stroke="#ef5350" stroke-width="2"/><rect x="424" y="681.1984826666655" width="8" height="25.7909480000003" fill="#ef5350"/><line x1="440" y1="700.3763666666675" x2="440" y2="747.3291173333337" stroke="#ef5350" stroke-width="2"/><rect x="436" y="707.6507366666685" width="8" height="22.484415999997395" fill="#ef5350"/><line x1="452" y1="651.1090440000014" x2="452" y2="729.473846" stroke="#26a69a" stroke-width="2"/><rect x="448" y="654.7462293333335" width="8" height="74.72761666666645" fill="#26a69a"/><line x1="464" y1="628.955281333333" x2="464" y2="662.0205986666672" stroke="#ef5350" stroke-width="2"/><rect x="460" y="653.4236166666649" width="8" height="8.5969820000023" fill="#ef5350"/><line x1="476" y1="658.0527606666653" x2="476" y2="705.0055113333315" stroke="#ef5350" stroke-width="2"/><rect x="472" y="661.3592926666684" width="8" height="39.017073999999184" fill="#ef5350"/><line x1="488" y1="689.1341593333323" x2="488" y2="723.5220893333349" stroke="#ef5350" stroke-width="2"/><rect x="484" y="694.4246099999987" width="8" height="15.871352000003071" fill="#ef5350"/><line x1="500" y1="652.7623099999989" x2="500" y2="718.2316380000013" stroke="#26a69a" stroke-width="2"/><rect x="496" y="653.4236166666649" width="8" height="60.178877333336004" fill="#26a69a"/><line x1="512" y1="629.616587999999" x2="512" y2="669.294968666668" stroke="#26a69a" stroke-width="2"/><rect x="508" y="633.5844260000007" width="8" height="22.484415999997395" fill="#26a69a"/><line x1="524" y1="610.4387040000006" x2="524" y2="642.842714666665" stroke="#ef5350" stroke-width="2"/><rect x="520" y="634.2457326666666" width="8" height="5.290450666666402" fill="#ef5350"/><line x1="536" y1="617.0517673333317" x2="536" y2="651.4396973333344" stroke="#ef5350" stroke-width="2"/><rect x="532" y="640.8587960000015" width="8" height="5.290450666666402" fill="#ef5350"/><line x1="548" y1="644.1653273333335" x2="548" y2="747.3291173333337" stroke="#ef5350" stroke-width="2"/><rect x="544" y="644.1653273333335" width="8" height="100.51856466666698" fill="#ef5350"/><line x1="560" y1="722.8607826666652" x2="560" y2="773.1200653333341" stroke="#ef5350" stroke-width="2"/><rect x="556" y="742.0386666666673" width="8" height="13.226127333333238" fill="#ef5350"/><line x1="572" y1="728.1512333333316" x2="572" y2="760.5552446666669" stroke="#ef5350" stroke-width="2"/><rect x="568" y="749.3130366666682" width="8" height="10.580901333332804" fill="#ef5350"/><line x1="584" y1="728.8125400000013" x2="584" y2="795.6044806666682" stroke="#ef5350" stroke-width="2"/><rect x="580" y="755.9260999999992" width="8" height="32.40401133333535" fill="#ef5350"/><line x1="596" y1="733.4416840000017" x2="596" y2="792.2979493333324" stroke="#26a69a" stroke-width="2"/><rect x="592" y="746.667811333335" width="8" height="33.72662333333278" fill="#26a69a"/><line x1="608" y1="716.2477193333341" x2="608" y2="781.0557413333337" stroke="#26a69a" stroke-width="2"/><rect x="604" y="726.8286206666668" width="8" height="16.532658666665156" fill="#26a69a"/><line x1="620" y1="708.3120433333345" x2="620" y2="737.4095226666668" stroke="#26a69a" stroke-width="2"/><rect x="616" y="723.5220893333349" width="8" height="5.951756666665119" fill="#26a69a"/><line x1="632" y1="698.3924480000003" x2="632" y2="753.280874666666" stroke="#ef5350" stroke-width="2"/><rect x="628" y="721.5381700000005" width="8" height="17.855271333333576" fill="#ef5350"/><line x1="644" y1="697.0698353333319" x2="644" y2="746.3371579999981" stroke="#26a69a" stroke-width="2"/><rect x="640" y="697.7311413333343" width="8" height="37.694461999998" fill="#26a69a"/><line x1="656" y1="697.7311413333343" x2="656" y2="744.0225860000018" stroke="#ef5350" stroke-width="2"/><rect x="652" y="697.7311413333343" width="8" height="37.03315533333205" fill="#ef5350"/><line x1="668" y1="722.1994766666663" x2="668" y2="765.8456953333333" stroke="#ef5350" stroke-width="2"/><rect x="664" y="736.7482160000009" width="8" height="27.77486666666391" fill="#ef5350"/><line x1="680" y1="742.6999733333332" x2="680" y2="772.4587586666681" stroke="#ef5350" stroke-width="2"/><rect x="676" y="761.8778573333316" width="8" height="6.613063333334935" fill="#ef5350"/><line x1="692" y1="765.8456953333333" x2="692" y2="821.3954280000015" stroke="#ef5350" stroke-width="2"/><rect x="688" y="770.4748393333338" width="8" height="43.6462193333341" fill="#ef5350"/><line x1="704" y1="803.5401566666678" x2="704" y2="829.9924106666671" stroke="#ef5350" stroke-width="2"/><rect x="700" y="814.7823646666666" width="8" height="11.903514666668457" fill="#ef5350"/><line x1="716" y1="810.8145266666648" x2="716" y2="851.1542139999998" stroke="#ef5350" stroke-width="2"/><rect x="712" y="826.685879333335" width="8" height="17.193964666663987" fill="#ef5350"/><line x1="728" y1="827.3471853333339" x2="728" y2="864.3803406666658" stroke="#ef5350" stroke-width="2"/><rect x="724" y="841.8959253333318" width="8" height="12.564820000000054" fill="#ef5350"/><line x1="740" y1="828.6697979999985" x2="740" y2="864.3803406666658" stroke="#26a69a" stroke-width="2"/><rect x="736" y="842.5572313333342" width="8" height="9.919595333334087" fill="#26a69a"/><line x1="752" y1="818.7502026666683" x2="752" y2="861.7351153333326" stroke="#26a69a" stroke-width="2"/><rect x="748" y="820.072815333333" width="8" height="23.14572266666721" fill="#26a69a"/><line x1="764" y1="794.2818679999997" x2="764" y2="827.3471853333339" stroke="#26a69a" stroke-width="2"/><rect x="760" y="802.8788506666652" width="8" height="14.548739333334538" fill="#26a69a"/><line x1="776" y1="763.8617759999988" x2="776" y2="803.5401566666678" stroke="#26a69a" stroke-width="2"/><rect x="772" y="785.6848853333341" width="8" height="17.193965333331107" fill="#26a69a"/><line x1="788" y1="785.6848853333341" x2="788" y2="816.7662840000011" stroke="#ef5350" stroke-width="2"/><rect x="784" y="786.3461920000001" width="8" height="23.14572200000009" fill="#ef5350"/><line x1="800" y1="721.5381700000005" x2="800" y2="814.7823646666666" stroke="#26a69a" stroke-width="2"/><rect x="796" y="735.4256033333323" width="8" height="78.69545533333553" fill="#26a69a"/><line x1="812" y1="724.8447019999995" x2="812" y2="753.280874666666" stroke="#26a69a" stroke-width="2"/><rect x="808" y="730.7964586666685" width="8" height="8.596982666665554" fill="#26a69a"/><line x1="824" y1="720.8768640000017" x2="824" y2="749.3130366666682" stroke="#26a69a" stroke-width="2"/><rect x="820" y="726.8286206666668" width="8" height="2.645225333333201" fill="#26a69a"/><line x1="836" y1="716.2477193333341" x2="836" y2="767.1683080000017" stroke="#ef5350" stroke-width="2"/><rect x="832" y="726.1673146666681" width="8" height="31.742704666665645" fill="#ef5350"/><line x1="848" y1="722.8607826666652" x2="848" y2="765.1843886666674" stroke="#26a69a" stroke-width="2"/><rect x="844" y="739.3934413333341" width="8" height="15.87135266666644" fill="#26a69a"/><line x1="860" y1="719.5542506666659" x2="860" y2="740.7160539999987" stroke="#26a69a" stroke-width="2"/><rect x="856" y="722.1994766666663" width="8" height="15.210046000000489" fill="#26a69a"/><line x1="872" y1="681.1984826666655" x2="872" y2="726.1673146666681" stroke="#26a69a" stroke-width="2"/><rect x="868" y="681.8597893333351" width="8" height="37.694461333330764" fill="#26a69a"/><line x1="884" y1="678.5532573333323" x2="884" y2="706.9894306666658" stroke="#ef5350" stroke-width="2"/><rect x="880" y="681.1984826666655" width="8" height="15.210046000000375" fill="#ef5350"/><line x1="896" y1="690.4567720000007" x2="896" y2="722.8607826666652" stroke="#ef5350" stroke-width="2"/><rect x="892" y="695.7472226666671" width="8" height="22.484415333334255" fill="#ef5350"/><line x1="908" y1="691.7793846666655" x2="908" y2="730.1351526666659" stroke="#26a69a" stroke-width="2"/><rect x="904" y="710.9572686666677" width="8" height="8.596981999998206" fill="#26a69a"/><line x1="920" y1="708.3120433333345" x2="920" y2="729.473846" stroke="#ef5350" stroke-width="2"/><rect x="916" y="711.6185746666663" width="8" height="11.242207999998868" fill="#ef5350"/><line x1="932" y1="718.8929446666673" x2="932" y2="778.4105160000005" stroke="#ef5350" stroke-width="2"/><rect x="928" y="723.5220893333349" width="8" height="47.61405666666485" fill="#ef5350"/><line x1="944" y1="740.054748" x2="944" y2="773.7813713333329" stroke="#26a69a" stroke-width="2"/><rect x="940" y="757.9100193333337" width="8" height="15.871351999999206" fill="#26a69a"/><line x1="956" y1="687.1502400000015" x2="956" y2="755.2647940000005" stroke="#26a69a" stroke-width="2"/><rect x="952" y="690.4567720000007" width="8" height="64.80802199999982" fill="#26a69a"/><line x1="968" y1="691.7793846666655" x2="968" y2="760.5552446666669" stroke="#ef5350" stroke-width="2"/><rect x="964" y="691.7793846666655" width="8" height="62.16279666666651" fill="#ef5350"/><line x1="980" y1="708.9733493333331" x2="980" y2="757.2487126666678" stroke="#26a69a" stroke-width="2"/><rect x="976" y="723.5220893333349" width="8" height="30.420091999997112" fill="#26a69a"/><line x1="992" y1="706.3281239999999" x2="992" y2="773.7813713333329" stroke="#ef5350" stroke-width="2"/><rect x="988" y="724.8447019999995" width="8" height="33.06531733333418" fill="#ef5350"/><line x1="1004" y1="731.4577653333345" x2="1004" y2="790.9753366666678" stroke="#ef5350" stroke-width="2"/><rect x="1000" y="759.2326319999984" width="8" height="29.758785333334913" fill="#ef5350"/><line x1="1016" y1="704.3442053333326" x2="1016" y2="773.1200653333341" stroke="#ef5350" stroke-width="2"/><rect x="1012" y="746.667811333335" width="8" height="7.27436999999702" fill="#ef5350"/><line x1="1028" y1="715.5864126666681" x2="1028" y2="777.7492093333345" stroke="#26a69a" stroke-width="2"/><rect x="1024" y="727.5560580000009" width="8" height="25.724816666665106" fill="#26a69a"/><line x1="1040" y1="693.1019973333339" x2="1040" y2="753.942181333332" stroke="#ef5350" stroke-width="2"/><rect x="1036" y="724.8447019999995" width="8" height="25.790947333333293" fill="#ef5350"/><line x1="1052" y1="664.6658240000004" x2="1052" y2="763.8617759999988" stroke="#26a69a" stroke-width="2"/><rect x="1048" y="665.9884366666649" width="8" height="80.34872133333317" fill="#26a69a"/><line x1="1064" y1="626.3100559999998" x2="1064" y2="673.2628066666659" stroke="#26a69a" stroke-width="2"/><rect x="1060" y="633.5844260000007" width="8" height="29.758785333331048" fill="#26a69a"/><line x1="1076" y1="580.0186119999997" x2="1076" y2="657.3914546666667" stroke="#26a69a" stroke-width="2"/><rect x="1072" y="590.5995133333325" width="8" height="43.6462193333341" fill="#26a69a"/><line x1="1088" y1="542.3241500000017" x2="1088" y2="597.2125766666674" stroke="#26a69a" stroke-width="2"/><rect x="1084" y="568.776404000001" width="8" height="18.516577999999527" fill="#26a69a"/><line x1="1100" y1="543.6467626666664" x2="1100" y2="590.5995133333325" stroke="#26a69a" stroke-width="2"/><rect x="1096" y="550.9211326666673" width="8" height="14.548739999997906" fill="#26a69a"/><line x1="1112" y1="520.5010406666664" x2="1112" y2="564.1472593333333" stroke="#26a69a" stroke-width="2"/><rect x="1108" y="550.9211326666673" width="8" height="2" fill="#26a69a"/><line x1="1124" y1="544.9693753333349" x2="1124" y2="594.5673513333342" stroke="#ef5350" stroke-width="2"/><rect x="1120" y="549.5985199999988" width="8" height="21.16180333333284" fill="#ef5350"/><line x1="1136" y1="568.1150979999984" x2="1136" y2="621.6809119999994" stroke="#26a69a" stroke-width="2"/><rect x="1132" y="573.4055486666648" width="8" height="2" fill="#26a69a"/><line x1="1148" y1="562.8246466666648" x2="1148" y2="584.6477566666673" stroke="#ef5350" stroke-width="2"/><rect x="1144" y="572.0829360000001" width="8" height="5.951756666665119" fill="#ef5350"/><line x1="1160" y1="501.984463333334" x2="1160" y2="585.3090626666661" stroke="#26a69a" stroke-width="2"/><rect x="1156" y="503.3070759999987" width="8" height="74.06631066666785" fill="#26a69a"/><line x1="1172" y1="462.306082666665" x2="1172" y2="519.1784280000016" stroke="#26a69a" stroke-width="2"/><rect x="1168" y="462.306082666665" width="8" height="39.678380666669" fill="#26a69a"/><line x1="1184" y1="434.86186866666685" x2="1184" y2="471.56437133333304" stroke="#26a69a" stroke-width="2"/><rect x="1180" y="438.499053999999" width="8" height="24.46833466666851" fill="#26a69a"/><line x1="1196" y1="415.35333199999894" x2="1196" y2="460.3221633333343" stroke="#26a69a" stroke-width="2"/><rect x="1192" y="417.3372506666662" width="8" height="19.17788400000211" fill="#26a69a"/><line x1="1208" y1="404.1111240000002" x2="1208" y2="439.82166666666745" stroke="#26a69a" stroke-width="2"/><rect x="1204" y="404.7724299999989" width="8" height="11.242208000002563" fill="#26a69a"/><line x1="1220" y1="404.1111240000002" x2="1220" y2="443.7895046666654" stroke="#ef5350" stroke-width="2"/><rect x="1216" y="405.43373666666486" width="8" height="36.37184866666985" fill="#ef5350"/><line x1="1232" y1="427.2568460000002" x2="1232" y2="458.3382439999999" stroke="#ef5350" stroke-width="2"/><rect x="1228" y="442.46689200000066" width="8" height="2.645225333333201" fill="#ef5350"/><line x1="1244" y1="397.49806066666525" x2="1244" y2="455.0317126666679" stroke="#26a69a" stroke-width="2"/><rect x="1240" y="413.36941266666827" width="8" height="29.75878533333116" fill="#26a69a"/><line x1="1256" y1="395.51414133333463" x2="1256" y2="417.99855733333214" stroke="#26a69a" stroke-width="2"/><rect x="1252" y="410.72418733333507" width="8" height="2" fill="#26a69a"/><line x1="1268" y1="406.09504266666744" x2="1268" y2="449.0799553333318" stroke="#ef5350" stroke-width="2"/><rect x="1264" y="411.385494000001" width="8" height="34.38792999999879" fill="#ef5350"/><line x1="1280" y1="428.57945866666495" x2="1280" y2="463.62869533333344" stroke="#ef5350" stroke-width="2"/><rect x="1276" y="444.7814640000009" width="8" height="14.879392666667457" fill="#ef5350"/><line x1="1292" y1="410.72418733333507" x2="1292" y2="458.3382439999999" stroke="#26a69a" stroke-width="2"/><rect x="1288" y="410.72418733333507" width="8" height="41.66229999999962" fill="#26a69a"/><line x1="1304" y1="410.0628806666653" x2="1304" y2="445.7734239999998" stroke="#ef5350" stroke-width="2"/><rect x="1300" y="410.0628806666653" width="8" height="27.77486666666772" fill="#ef5350"/><line x1="1316" y1="416.01463800000147" x2="1316" y2="443.7895046666654" stroke="#26a69a" stroke-width="2"/><rect x="1312" y="416.01463800000147" width="8" height="24.46833466666476" fill="#26a69a"/><line x1="1328" y1="394.85283533333205" x2="1328" y2="420.64378266666535" stroke="#26a69a" stroke-width="2"/><rect x="1324" y="399.4819793333325" width="8" height="16.532658666668965" fill="#26a69a"/><line x1="1340" y1="400.80459200000104" x2="1340" y2="420.64378266666535" stroke="#ef5350" stroke-width="2"/><rect x="1336" y="400.80459200000104" width="8" height="8.596982666665554" fill="#ef5350"/><line x1="1352" y1="408.07896200000187" x2="1352" y2="443.4588513333324" stroke="#ef5350" stroke-width="2"/><rect x="1348" y="408.07896200000187" width="8" height="15.21004599999668" fill="#ef5350"/><line x1="1364" y1="419.9824759999994" x2="1364" y2="514.5492840000012" stroke="#ef5350" stroke-width="2"/><rect x="1360" y="421.30508866666787" width="8" height="85.3085186666666" fill="#ef5350"/><line x1="1376" y1="477.5161279999983" x2="1376" y2="534.3884739999984" stroke="#26a69a" stroke-width="2"/><rect x="1372" y="482.14527266666585" width="8" height="30.420092000000977" fill="#26a69a"/><line x1="1388" y1="488.1631606666664" x2="1388" y2="558.1955026666682" stroke="#ef5350" stroke-width="2"/><rect x="1384" y="488.7583360000008" width="8" height="62.16279666666651" fill="#ef5350"/><line x1="1400" y1="531.0819426666664" x2="1400" y2="571.4216293333342" stroke="#ef5350" stroke-width="2"/><rect x="1396" y="548.2759073333341" width="8" height="2" fill="#ef5350"/><line x1="1412" y1="520.5010406666664" x2="1412" y2="552.243745333332" stroke="#26a69a" stroke-width="2"/><rect x="1408" y="531.0819426666664" width="8" height="19.177884000002223" fill="#26a69a"/><line x1="1424" y1="505.9523013333319" x2="1424" y2="534.0578206666654" stroke="#26a69a" stroke-width="2"/><rect x="1420" y="507.93621999999914" width="8" height="26.121600666666268" fill="#26a69a"/><line x1="1436" y1="500.6618506666655" x2="1436" y2="529.098023333332" stroke="#ef5350" stroke-width="2"/><rect x="1432" y="509.2588326666677" width="8" height="13.226127333333125" fill="#ef5350"/><line x1="1448" y1="507.2749140000004" x2="1448" y2="540.3402313333345" stroke="#ef5350" stroke-width="2"/><rect x="1444" y="521.8236533333348" width="8" height="7.274369999997134" fill="#ef5350"/><line x1="1460" y1="482.8065793333318" x2="1460" y2="525.7914913333328" stroke="#26a69a" stroke-width="2"/><rect x="1456" y="493.38748066666847" width="8" height="32.40401066666436" fill="#26a69a"/><line x1="1472" y1="488.0970299999982" x2="1472" y2="508.5975266666651" stroke="#ef5350" stroke-width="2"/><rect x="1468" y="492.72617399999865" width="8" height="15.87135266666644" fill="#ef5350"/><line x1="1484" y1="494.71009333333313" x2="1484" y2="519.8397346666676" stroke="#ef5350" stroke-width="2"/><rect x="1480" y="507.93621999999914" width="8" height="2.645225333333201" fill="#ef5350"/><line x1="1496" y1="468.91914599999984" x2="1496" y2="512.5653646666668" stroke="#26a69a" stroke-width="2"/><rect x="1492" y="470.2417586666684" width="8" height="42.32360599999845" fill="#26a69a"/><line x1="1508" y1="447.75734266666706" x2="1508" y2="473.5482900000003" stroke="#26a69a" stroke-width="2"/><rect x="1504" y="449.74126200000154" width="8" height="20.500496666666834" fill="#26a69a"/><line x1="1520" y1="448.418649333333" x2="1520" y2="460.9834693333331" stroke="#ef5350" stroke-width="2"/><rect x="1516" y="449.74126200000154" width="8" height="4.629143999996643" fill="#ef5350"/><line x1="1532" y1="439.82166666666745" x2="1532" y2="456.35432533333267" stroke="#26a69a" stroke-width="2"/><rect x="1528" y="441.8055853333347" width="8" height="11.242207999998811" fill="#26a69a"/><line x1="1544" y1="410.72418733333507" x2="1544" y2="442.46689200000066" stroke="#26a69a" stroke-width="2"/><rect x="1540" y="423.28900799999855" width="8" height="17.855271333333633" fill="#26a69a"/><line x1="1556" y1="416.01463800000147" x2="1556" y2="431.22468399999815" stroke="#26a69a" stroke-width="2"/><rect x="1552" y="421.30508866666787" width="8" height="2.645225333333201" fill="#26a69a"/><line x1="1568" y1="398.8206733333338" x2="1568" y2="427.9181526666662" stroke="#26a69a" stroke-width="2"/><rect x="1564" y="400.80459200000104" width="8" height="26.452253999999186" fill="#26a69a"/><line x1="1580" y1="390.22369066666823" x2="1580" y2="412.70810666666574" stroke="#26a69a" stroke-width="2"/><rect x="1576" y="390.22369066666823" width="8" height="9.919595333330221" fill="#26a69a"/><line x1="1592" y1="363.11013066666646" x2="1592" y2="402.1272046666657" stroke="#26a69a" stroke-width="2"/><rect x="1588" y="365.75535599999967" width="8" height="31.74270466666559" fill="#26a69a"/><line x1="1604" y1="347.2387780000001" x2="1604" y2="366.08600866666546" stroke="#26a69a" stroke-width="2"/><rect x="1600" y="347.2387780000001" width="8" height="16.532658666665156" fill="#26a69a"/><line x1="1616" y1="311.52823533333276" x2="1616" y2="361.12621133333204" stroke="#26a69a" stroke-width="2"/><rect x="1612" y="317.4799926666651" width="8" height="29.75878533333497" fill="#26a69a"/><line x1="1628" y1="288.3825133333328" x2="1628" y2="324.09305599999993" stroke="#26a69a" stroke-width="2"/><rect x="1624" y="289.0438193333314" width="8" height="27.113560666668945" fill="#26a69a"/><line x1="1640" y1="279.1242246666684" x2="1640" y2="302.9312526666672" stroke="#26a69a" stroke-width="2"/><rect x="1636" y="284.7453286666678" width="8" height="6.943716666664159" fill="#26a69a"/><line x1="1652" y1="277.140305333334" x2="1652" y2="332.6900386666655" stroke="#ef5350" stroke-width="2"/><rect x="1648" y="285.07598133333363" width="8" height="41.662299999999505" fill="#ef5350"/><line x1="1664" y1="304.253865333332" x2="1664" y2="351.8679226666677" stroke="#26a69a" stroke-width="2"/><rect x="1660" y="304.253865333332" width="8" height="20.500497333333897" fill="#26a69a"/><line x1="1676" y1="305.5764780000004" x2="1676" y2="339.9644079999992" stroke="#ef5350" stroke-width="2"/><rect x="1672" y="305.5764780000004" width="8" height="18.516577999999527" fill="#ef5350"/><line x1="1688" y1="307.5603973333348" x2="1688" y2="330.706119333335" stroke="#26a69a" stroke-width="2"/><rect x="1684" y="317.4799926666651" width="8" height="4.629144000000451" fill="#26a69a"/><line x1="1700" y1="311.52823533333276" x2="1700" y2="329.38350666666634" stroke="#ef5350" stroke-width="2"/><rect x="1696" y="316.15738000000033" width="8" height="11.242207999998755" fill="#ef5350"/><line x1="1712" y1="327.3995879999991" x2="1712" y2="365.75535599999967" stroke="#ef5350" stroke-width="2"/><rect x="1708" y="330.0448133333323" width="8" height="20.500496666666947" fill="#ef5350"/><line x1="1724" y1="335.9965700000014" x2="1724" y2="370.3845000000001" stroke="#26a69a" stroke-width="2"/><rect x="1720" y="335.9965700000014" width="8" height="15.210046000000375" fill="#26a69a"/><line x1="1736" y1="334.01265133333413" x2="1736" y2="349.8840033333333" stroke="#ef5350" stroke-width="2"/><rect x="1732" y="334.67395733333274" width="8" height="5.951757333332409" fill="#ef5350"/><line x1="1748" y1="329.38350666666634" x2="1748" y2="350.54530999999923" stroke="#26a69a" stroke-width="2"/><rect x="1744" y="329.7141599999993" width="8" height="7.605022666666628" fill="#26a69a"/><line x1="1760" y1="321.44783066666673" x2="1760" y2="346.5774720000013" stroke="#ef5350" stroke-width="2"/><rect x="1756" y="327.3995879999991" width="8" height="8.5969820000023" fill="#ef5350"/><line x1="1772" y1="322.7704433333315" x2="1772" y2="337.9804893333319" stroke="#26a69a" stroke-width="2"/><rect x="1768" y="324.7543626666659" width="8" height="12.564820000000054" fill="#26a69a"/><line x1="1784" y1="325.4156686666686" x2="1784" y2="351.8679226666677" stroke="#ef5350" stroke-width="2"/><rect x="1780" y="325.4156686666686" width="8" height="26.45225399999913" fill="#ef5350"/><line x1="1796" y1="320.7865240000008" x2="1796" y2="353.19053533333243" stroke="#26a69a" stroke-width="2"/><rect x="1792" y="324.09305599999993" width="8" height="28.43617266666655" fill="#26a69a"/><line x1="1808" y1="321.44783066666673" x2="1808" y2="346.24681866666833" stroke="#ef5350" stroke-width="2"/><rect x="1804" y="324.7543626666659" width="8" height="17.855271333333746" fill="#ef5350"/><line x1="1820" y1="328.72220066666773" x2="1820" y2="353.19053533333243" stroke="#ef5350" stroke-width="2"/><rect x="1816" y="342.60963399999963" width="8" height="5.951756666668928" fill="#ef5350"/><line x1="1832" y1="343.9322466666681" x2="1832" y2="380.9654020000001" stroke="#ef5350" stroke-width="2"/><rect x="1828" y="348.89204400000153" width="8" height="18.185924666666608" fill="#ef5350"/><line x1="1844" y1="363.11013066666646" x2="1844" y2="383.6106273333333" stroke="#ef5350" stroke-width="2"/><rect x="1840" y="367.07796866666814" width="8" height="8.596981999998377" fill="#ef5350"/><line x1="1856" y1="375.01364466666774" x2="1856" y2="400.14328599999845" stroke="#ef5350" stroke-width="2"/><rect x="1852" y="377.65887000000095" width="8" height="11.242207999998755" fill="#ef5350"/><line x1="1868" y1="369.06188733333164" x2="1868" y2="389.5623839999985" stroke="#26a69a" stroke-width="2"/><rect x="1864" y="375.6749506666665" width="8" height="13.887433333331956" fill="#26a69a"/><line x1="1880" y1="378.3201766666669" x2="1880" y2="480.8226600000012" stroke="#ef5350" stroke-width="2"/><rect x="1876" y="378.98148266666567" width="8" height="49.59797599999928" fill="#ef5350"/><line x1="1892" y1="425.2729266666658" x2="1892" y2="519.1784280000016" stroke="#ef5350" stroke-width="2"/><rect x="1888" y="432.5472966666666" width="8" height="65.46932866666566" fill="#ef5350"/><line x1="1904" y1="494.71009333333313" x2="1904" y2="556.8728899999996" stroke="#ef5350" stroke-width="2"/><rect x="1900" y="497.35531866666634" width="8" height="42.654259333335176" fill="#ef5350"/><line x1="1916" y1="511.2427519999983" x2="1916" y2="585.3090626666661" stroke="#ef5350" stroke-width="2"/><rect x="1912" y="539.6789246666685" width="8" height="29.097479333332444" fill="#ef5350"/><line x1="1928" y1="554.8889706666652" x2="1928" y2="640.8587960000015" stroke="#26a69a" stroke-width="2"/><rect x="1924" y="554.8889706666652" width="8" height="15.87135266666644" fill="#26a69a"/><line x1="1940" y1="554.8889706666652" x2="1940" y2="638.8748766666671" stroke="#ef5350" stroke-width="2"/><rect x="1936" y="554.8889706666652" width="8" height="35.04923666666855" fill="#ef5350"/><rect x="75" y="975.4641148325359" width="10" height="44.53588516746413" fill="#ef5350" opacity="0.9"/><rect x="87" y="995.3698502454483" width="10" height="24.630149754551667" fill="#ef5350" opacity="0.9"/><rect x="99" y="984.8779593612129" width="10" height="35.1220406387871" fill="#26a69a" opacity="0.9"/><rect x="111" y="992.8409246256136" width="10" height="27.15907537438636" fill="#ef5350" opacity="0.9"/><rect x="123" y="991.107997265892" width="10" height="28.89200273410802" fill="#ef5350" opacity="0.9"/><rect x="135" y="998.9658236500342" width="10" height="21.034176349965833" fill="#26a69a" opacity="0.9"/><rect x="147" y="999.7321816939042" width="10" height="20.26781830609582" fill="#ef5350" opacity="0.9"/><rect x="159" y="1001.7460386503449" width="10" height="18.25396134965513" fill="#ef5350" opacity="0.9"/><rect x="171" y="990.6811035854098" width="10" height="29.3188964145902" fill="#ef5350" opacity="0.9"/><rect x="183" y="981.711862300379" width="10" height="38.28813769962096" fill="#ef5350" opacity="0.9"/><rect x="195" y="985.9972037531846" width="10" height="34.002796246815365" fill="#ef5350" opacity="0.9"/><rect x="207" y="992.0369104579631" width="10" height="27.96308954203687" fill="#26a69a" opacity="0.9"/><rect x="219" y="994.2250667992295" width="10" height="25.774933200770533" fill="#ef5350" opacity="0.9"/><rect x="231" y="998.0559249363077" width="10" height="21.944075063692253" fill="#26a69a" opacity="0.9"/><rect x="243" y="995.6030572298515" width="10" height="24.396942770148485" fill="#ef5350" opacity="0.9"/><rect x="255" y="996.3621450320015" width="10" height="23.637854967998464" fill="#26a69a" opacity="0.9"/><rect x="267" y="998.3849499782514" width="10" height="21.61505002174863" fill="#ef5350" opacity="0.9"/><rect x="279" y="989.6623376623377" width="10" height="30.337662337662323" fill="#ef5350" opacity="0.9"/><rect x="291" y="988.1521779655751" width="10" height="31.847822034424894" fill="#ef5350" opacity="0.9"/><rect x="303" y="986.505188591313" width="10" height="33.49481140868704" fill="#26a69a" opacity="0.9"/><rect x="315" y="994.0969986950848" width="10" height="25.903001304915165" fill="#ef5350" opacity="0.9"/><rect x="327" y="1002.2323991797676" width="10" height="17.76760082023236" fill="#ef5350" opacity="0.9"/><rect x="339" y="988.1616852047474" width="10" height="31.838314795252586" fill="#ef5350" opacity="0.9"/><rect x="351" y="991.521282545206" width="10" height="28.478717454794037" fill="#ef5350" opacity="0.9"/><rect x="363" y="989.331262039396" width="10" height="30.66873796060395" fill="#ef5350" opacity="0.9"/><rect x="375" y="976.7712670105014" width="10" height="43.22873298949855" fill="#ef5350" opacity="0.9"/><rect x="387" y="972.5286149257441" width="10" height="47.47138507425586" fill="#26a69a" opacity="0.9"/><rect x="399" y="995.9175417883552" width="10" height="24.08245821164485" fill="#26a69a" opacity="0.9"/><rect x="411" y="995.2648977816442" width="10" height="24.73510221835579" fill="#ef5350" opacity="0.9"/><rect x="423" y="999.1688311688312" width="10" height="20.83116883116884" fill="#ef5350" opacity="0.9"/><rect x="435" y="998.9695519791213" width="10" height="21.03044802087868" fill="#ef5350" opacity="0.9"/><rect x="447" y="997.5945442117691" width="10" height="22.405455788230938" fill="#26a69a" opacity="0.9"/><rect x="459" y="1000.7470328714348" width="10" height="19.25296712856516" fill="#ef5350" opacity="0.9"/><rect x="471" y="999.8544708879637" width="10" height="20.145529112036343" fill="#ef5350" opacity="0.9"/><rect x="483" y="1000.4401913875598" width="10" height="19.55980861244018" fill="#ef5350" opacity="0.9"/><rect x="495" y="1002.711862300379" width="10" height="17.28813769962096" fill="#26a69a" opacity="0.9"/><rect x="507" y="995.358292425278" width="10" height="24.641707574721977" fill="#26a69a" opacity="0.9"/><rect x="519" y="988.688498104766" width="10" height="31.31150189523396" fill="#ef5350" opacity="0.9"/><rect x="531" y="1004.727397004909" width="10" height="15.272602995091006" fill="#ef5350" opacity="0.9"/><rect x="543" y="997.1587025414776" width="10" height="22.841297458522376" fill="#ef5350" opacity="0.9"/><rect x="555" y="995.312061144597" width="10" height="24.68793885540299" fill="#ef5350" opacity="0.9"/><rect x="567" y="1004.9419623438762" width="10" height="15.058037656123815" fill="#ef5350" opacity="0.9"/><rect x="579" y="992.6712856521469" width="10" height="27.328714347853065" fill="#ef5350" opacity="0.9"/><rect x="591" y="1001.3896103896104" width="10" height="18.610389610389575" fill="#26a69a" opacity="0.9"/><rect x="603" y="998.7296340023613" width="10" height="21.27036599763869" fill="#26a69a" opacity="0.9"/><rect x="615" y="1004.0059653265395" width="10" height="15.994034673460533" fill="#26a69a" opacity="0.9"/><rect x="627" y="1000.9707326166656" width="10" height="19.0292673833344" fill="#ef5350" opacity="0.9"/><rect x="639" y="1005.8382526564345" width="10" height="14.16174734356548" fill="#26a69a" opacity="0.9"/><rect x="651" y="1000.6543838936184" width="10" height="19.345616106381613" fill="#ef5350" opacity="0.9"/><rect x="663" y="1004.8228422295408" width="10" height="15.17715777045919" fill="#ef5350" opacity="0.9"/><rect x="675" y="1003.5837320574162" width="10" height="16.416267942583772" fill="#ef5350" opacity="0.9"/><rect x="687" y="979.4951842415958" width="10" height="40.50481575840422" fill="#ef5350" opacity="0.9"/><rect x="699" y="997.3809109550737" width="10" height="22.61908904492634" fill="#ef5350" opacity="0.9"/><rect x="711" y="998.0177095631641" width="10" height="21.98229043683591" fill="#ef5350" opacity="0.9"/><rect x="723" y="997.4549182874541" width="10" height="22.54508171254588" fill="#ef5350" opacity="0.9"/><rect x="735" y="1004.3627664201827" width="10" height="15.637233579817348" fill="#26a69a" opacity="0.9"/><rect x="747" y="1004.4807680357919" width="10" height="15.519231964208075" fill="#26a69a" opacity="0.9"/><rect x="759" y="1002.4492015161871" width="10" height="17.550798483812855" fill="#26a69a" opacity="0.9"/><rect x="771" y="1003.381097371528" width="10" height="16.61890262847203" fill="#26a69a" opacity="0.9"/><rect x="783" y="1005.3902939166097" width="10" height="14.609706083390279" fill="#ef5350" opacity="0.9"/><rect x="795" y="1000.0041633008141" width="10" height="19.99583669918593" fill="#26a69a" opacity="0.9"/><rect x="807" y="1002.0198844217983" width="10" height="17.980115578201662" fill="#26a69a" opacity="0.9"/><rect x="819" y="1000.2862113962592" width="10" height="19.713788603740795" fill="#26a69a" opacity="0.9"/><rect x="831" y="1002.9159883179022" width="10" height="17.084011682097753" fill="#ef5350" opacity="0.9"/><rect x="843" y="1002.5261915118374" width="10" height="17.473808488162604" fill="#26a69a" opacity="0.9"/><rect x="855" y="998.7413782389859" width="10" height="21.25862176101407" fill="#26a69a" opacity="0.9"/><rect x="867" y="998.2827937612626" width="10" height="21.71720623873739" fill="#26a69a" opacity="0.9"/><rect x="879" y="997.4304977319331" width="10" height="22.569502268066913" fill="#ef5350" opacity="0.9"/><rect x="891" y="998.9637730690363" width="10" height="21.03622693096372" fill="#ef5350" opacity="0.9"/><rect x="903" y="999.5673895482508" width="10" height="20.432610451749156" fill="#26a69a" opacity="0.9"/><rect x="915" y="1002.215994531784" width="10" height="17.784005468216037" fill="#ef5350" opacity="0.9"/><rect x="927" y="992.7971167588393" width="10" height="27.202883241160748" fill="#ef5350" opacity="0.9"/><rect x="939" y="999.0312558255142" width="10" height="20.968744174485778" fill="#26a69a" opacity="0.9"/><rect x="951" y="997.86913564904" width="10" height="22.130864350959996" fill="#26a69a" opacity="0.9"/><rect x="963" y="998.4311812589325" width="10" height="21.568818741067503" fill="#ef5350" opacity="0.9"/><rect x="975" y="993.7428074318027" width="10" height="26.257192568197297" fill="#26a69a" opacity="0.9"/><rect x="987" y="968.5234574038402" width="10" height="51.47654259615979" fill="#ef5350" opacity="0.9"/><rect x="999" y="860.0" width="10" height="160.0" fill="#ef5350" opacity="0.9"/><rect x="1011" y="972.8526067234201" width="10" height="47.14739327657992" fill="#ef5350" opacity="0.9"/><rect x="1023" y="998.9721618094824" width="10" height="21.027838190517627" fill="#26a69a" opacity="0.9"/><rect x="1035" y="994.381097371528" width="10" height="25.61890262847203" fill="#ef5350" opacity="0.9"/><rect x="1047" y="993.0517616354937" width="10" height="26.948238364506324" fill="#26a69a" opacity="0.9"/><rect x="1059" y="992.0359783756913" width="10" height="27.964021624308657" fill="#26a69a" opacity="0.9"/><rect x="1071" y="994.8270055303548" width="10" height="25.172994469645232" fill="#26a69a" opacity="0.9"/><rect x="1083" y="991.2474367737526" width="10" height="28.75256322624739" fill="#26a69a" opacity="0.9"/><rect x="1095" y="998.9613496551295" width="10" height="21.03865034487046" fill="#26a69a" opacity="0.9"/><rect x="1107" y="997.1846144286336" width="10" height="22.81538557136639" fill="#26a69a" opacity="0.9"/><rect x="1119" y="998.3174672217734" width="10" height="21.682532778226573" fill="#ef5350" opacity="0.9"/><rect x="1131" y="1001.3128068104145" width="10" height="18.687193189585514" fill="#26a69a" opacity="0.9"/><rect x="1143" y="1004.485987696514" width="10" height="15.51401230348597" fill="#ef5350" opacity="0.9"/><rect x="1155" y="999.7778537252221" width="10" height="20.222146274777856" fill="#26a69a" opacity="0.9"/><rect x="1167" y="997.9671907040328" width="10" height="22.03280929596724" fill="#26a69a" opacity="0.9"/><rect x="1179" y="991.2849064810787" width="10" height="28.71509351892132" fill="#26a69a" opacity="0.9"/><rect x="1191" y="998.7945069284782" width="10" height="21.2054930715218" fill="#26a69a" opacity="0.9"/><rect x="1203" y="999.2135711178773" width="10" height="20.786428882122664" fill="#26a69a" opacity="0.9"/><rect x="1215" y="1001.3547505126453" width="10" height="18.645249487354704" fill="#ef5350" opacity="0.9"/><rect x="1227" y="997.7563536941527" width="10" height="22.243646305847278" fill="#ef5350" opacity="0.9"/><rect x="1239" y="1002.3768719318958" width="10" height="17.623128068104165" fill="#26a69a" opacity="0.9"/><rect x="1251" y="1004.6602870813397" width="10" height="15.339712918660325" fill="#26a69a" opacity="0.9"/><rect x="1263" y="995.6628969117007" width="10" height="24.337103088299273" fill="#ef5350" opacity="0.9"/><rect x="1275" y="1006.0628844839371" width="10" height="13.937115516062931" fill="#ef5350" opacity="0.9"/><rect x="1287" y="1006.3316970111229" width="10" height="13.668302988877144" fill="#26a69a" opacity="0.9"/><rect x="1299" y="1005.106940905984" width="10" height="14.893059094016053" fill="#ef5350" opacity="0.9"/><rect x="1311" y="1005.2769527123594" width="10" height="14.723047287640611" fill="#26a69a" opacity="0.9"/><rect x="1323" y="1005.1503759398496" width="10" height="14.849624060150404" fill="#26a69a" opacity="0.9"/><rect x="1335" y="1005.9159883179022" width="10" height="14.084011682097753" fill="#ef5350" opacity="0.9"/><rect x="1347" y="1004.155284906481" width="10" height="15.844715093518971" fill="#ef5350" opacity="0.9"/><rect x="1359" y="999.8078667743739" width="10" height="20.192133225626094" fill="#ef5350" opacity="0.9"/><rect x="1371" y="1000.7354750512645" width="10" height="19.26452494873547" fill="#26a69a" opacity="0.9"/><rect x="1383" y="1002.8278133349904" width="10" height="17.172186665009576" fill="#ef5350" opacity="0.9"/><rect x="1395" y="1001.3985583794196" width="10" height="18.60144162058043" fill="#ef5350" opacity="0.9"/><rect x="1407" y="1006.5725470701548" width="10" height="13.42745292984523" fill="#26a69a" opacity="0.9"/><rect x="1419" y="1005.1007891629902" width="10" height="14.899210837009832" fill="#26a69a" opacity="0.9"/><rect x="1431" y="1002.4918908842354" width="10" height="17.50810911576457" fill="#ef5350" opacity="0.9"/><rect x="1443" y="1005.2478717454794" width="10" height="14.752128254520585" fill="#ef5350" opacity="0.9"/><rect x="1455" y="1005.7396383520786" width="10" height="14.2603616479214" fill="#26a69a" opacity="0.9"/><rect x="1467" y="1004.3776797365314" width="10" height="15.622320263468623" fill="#ef5350" opacity="0.9"/><rect x="1479" y="1003.1803268501833" width="10" height="16.81967314981671" fill="#ef5350" opacity="0.9"/><rect x="1491" y="1007.656745168707" width="10" height="12.343254831293052" fill="#26a69a" opacity="0.9"/><rect x="1503" y="1003.5363822780091" width="10" height="16.463617721990886" fill="#26a69a" opacity="0.9"/><rect x="1515" y="1004.186416454359" width="10" height="15.813583545640995" fill="#ef5350" opacity="0.9"/><rect x="1527" y="1004.8138942397316" width="10" height="15.186105760268447" fill="#26a69a" opacity="0.9"/><rect x="1539" y="1000.7239172310942" width="10" height="19.27608276890578" fill="#26a69a" opacity="0.9"/><rect x="1551" y="1004.0499596097682" width="10" height="15.950040390231834" fill="#26a69a" opacity="0.9"/><rect x="1563" y="1004.3549369290996" width="10" height="15.645063070900392" fill="#26a69a" opacity="0.9"/><rect x="1575" y="1004.0124899024421" width="10" height="15.987510097557902" fill="#26a69a" opacity="0.9"/><rect x="1587" y="992.5063070900392" width="10" height="27.493692909960828" fill="#26a69a" opacity="0.9"/><rect x="1599" y="997.5402970235506" width="10" height="22.45970297644942" fill="#26a69a" opacity="0.9"/><rect x="1611" y="997.9990679177282" width="10" height="22.000932082271788" fill="#26a69a" opacity="0.9"/><rect x="1623" y="998.1450320014914" width="10" height="21.85496799850864" fill="#26a69a" opacity="0.9"/><rect x="1635" y="997.6253029267383" width="10" height="22.3746970732617" fill="#26a69a" opacity="0.9"/><rect x="1647" y="998.132355682595" width="10" height="21.867644317405052" fill="#ef5350" opacity="0.9"/><rect x="1659" y="997.4871683340583" width="10" height="22.51283166594169" fill="#26a69a" opacity="0.9"/><rect x="1671" y="1002.172932330827" width="10" height="17.827067669172948" fill="#ef5350" opacity="0.9"/><rect x="1683" y="1004.1748586341888" width="10" height="15.825141365811191" fill="#26a69a" opacity="0.9"/><rect x="1695" y="1006.0367861803269" width="10" height="13.963213819673115" fill="#ef5350" opacity="0.9"/><rect x="1707" y="999.3938358292426" width="10" height="20.606164170757438" fill="#ef5350" opacity="0.9"/><rect x="1719" y="1002.8883986826571" width="10" height="17.11160131734289" fill="#26a69a" opacity="0.9"/><rect x="1731" y="1006.7664201826881" width="10" height="13.23357981731192" fill="#ef5350" opacity="0.9"/><rect x="1743" y="1006.7759274218604" width="10" height="13.224072578139612" fill="#26a69a" opacity="0.9"/><rect x="1755" y="1005.0213757534332" width="10" height="14.978624246566824" fill="#ef5350" opacity="0.9"/><rect x="1767" y="1007.2387994780339" width="10" height="12.761200521966089" fill="#26a69a" opacity="0.9"/><rect x="1779" y="1004.6656931585161" width="10" height="15.334306841483908" fill="#ef5350" opacity="0.9"/><rect x="1791" y="1006.453799788728" width="10" height="13.54620021127198" fill="#26a69a" opacity="0.9"/><rect x="1803" y="1001.7342944137202" width="10" height="18.26570558627975" fill="#ef5350" opacity="0.9"/><rect x="1815" y="999.1490710246691" width="10" height="20.85092897533093" fill="#ef5350" opacity="0.9"/><rect x="1827" y="999.2967128565215" width="10" height="20.70328714347852" fill="#ef5350" opacity="0.9"/><rect x="1839" y="1002.327098738582" width="10" height="17.67290126141802" fill="#ef5350" opacity="0.9"/><rect x="1851" y="1000.3445597464736" width="10" height="19.65544025352642" fill="#ef5350" opacity="0.9"/><rect x="1863" y="1003.2051202386131" width="10" height="16.794879761386937" fill="#26a69a" opacity="0.9"/><rect x="1875" y="986.1221027776052" width="10" height="33.877897222394836" fill="#ef5350" opacity="0.9"/><rect x="1887" y="994.2366246193998" width="10" height="25.763375380600223" fill="#ef5350" opacity="0.9"/><rect x="1899" y="989.3903560554278" width="10" height="30.609643944572213" fill="#ef5350" opacity="0.9"/><rect x="1911" y="993.1563412663891" width="10" height="26.843658733610937" fill="#ef5350" opacity="0.9"/><rect x="1923" y="952.6413347418132" width="10" height="67.35866525818676" fill="#26a69a" opacity="0.9"/><rect x="1935" y="936.696762567576" width="10" height="83.303237432424" fill="#ef5350" opacity="0.9"/><rect x="1004" y="746.667811333335" width="12" height="42.323605999998335" fill="#00ff00" opacity="0.50"/><polyline points="320,308.07999512222364,332,326.6100688566137,344,353.26347810836677,356,378.38617232027144,368,402.50182321040785,380,426.2731737617969,392,447.2767336574975,404,465.71312054726,416,486.48746220942485,428,507.487649681544,440,528.692173775365,452,540.6973219237443,464,552.2519197087831,476,566.3590098952492,488,580.0672910480822,500,587.0536077736612,512,591.485114271408,524,596.0614065630201,536,600.8316770490827,548,614.5318879967894,560,627.9350219018548,572,640.5025377207267,584,654.5813542552612,596,663.3514930246026,608,669.396933752417,620,674.5517104744106,632,680.7271134133582,644,682.3465446438338,656,687.3387115031505,668,694.6896039949138,680,701.7183008207933,692,712.423325377544,704,723.3054733733335,716,734.7887467663478,728,746.1860799632026,740,755.3642848555947,752,761.5270020439501,764,765.4652733413513,776,767.3909506739202,788,771.4005662287869,800,767.9743792863633,812,764.4336249416293,824,760.8521959630631,836,760.5719886649922,848,758.5549841572174,860,755.0925548724043,872,748.1180057734454,884,743.1932936680369,896,740.8159931282208,908,737.9723050842623,920,736.5331124730611,932,739.8286394756269,944,741.5506756525511,956,736.6845895904021,968,738.3281697563954,980,736.918066858963,992,738.9173004279504,1004,743.6862639427469,1016,744.6630179799437,1028,743.0337836961409,1040,743.7577708996818,1052,736.3511676393955,1064,726.5638589118339,1076,713.6148736186442,1088,699.8207336549626,1100,685.6398192751233,1112,672.8094681695591,1124,663.0905019946795,1136,654.5490778682013,1148,647.2619935632906,1160,633.5520014144057,1172,617.2428662955705,1184,600.2196460769445,1196,582.802275085487,1208,565.8470517440113,1220,554.0335787525161,1232,543.6601062364048,1244,531.2514687535744,1256,519.7726800468823,1268,512.7251318519408,1280,507.67139135810646,1292,498.4383243081311,1304,492.6668407867206,1316,485.3666309975097,1328,477.1871403628287,1340,470.7313722012865,1352,466.21305180116224,1364,470.060723756607,1376,471.2116331766159,1388,478.8030140804267,1400,485.4824616918146,1412,489.82526940370315,1424,491.55012184144573,1436,494.49629690416634,1448,497.7916994212327,1460,497.3722500160344,1472,498.44132398276315,1484,499.5975260161496,1496,496.80173864952997,1508,492.31978849243205,1520,488.70556158839236,1532,484.2388971831459,1544,478.43414583236756,1556,472.99328324515955,1568,466.11816979324203,1580,458.8901241621405,1592,450.0201462419378,1604,440.2314445046083,1616,428.54083004385376,1628,415.2554004523722,1640,402.82586980611467,1652,395.57943280870705,1664,386.8817597158151,1676,380.9018831714525,1688,374.86170312337964,1700,370.3415016830566,1712,368.45615009419436,1724,365.364761513797,1736,363.00866181406946,1748,359.83775687939595,1760,357.567167652788,1772,354.4421386064907,1784,354.196975183648,1796,351.32993526139745,1808,350.4994303793599,1820,350.31485516863086,1832,351.91134216844375,1844,354.17454297779614,1856,357.48183202753125,1868,359.21450999316374,1880,365.82069558111624,1892,378.4107841289483,1904,393.80114545000043,1916,410.4654557880963,1928,424.22007625272425,1940,440.002755403259" fill="none" stroke="#0090ff" stroke-width="2"/><line x1="80" y1="50" x2="80" y2="850" stroke="#666666" stroke-width="0.5" stroke-dasharray="4,4"/><line x1="152" y1="50" x2="152" y2="850" stroke="#666666" stroke-width="0.5" stroke-dasharray="4,4"/><line x1="224" y1="50" x2="224" y2="850" stroke="#666666" stroke-width="0.5" stroke-dasharray="4,4"/><line x1="296" y1="50" x2="296" y2="850" stroke="#666666" stroke-width="0.5" stroke-dasharray="4,4"/><line x1="368" y1="50" x2="368" y2="850" stroke="#666666" stroke-width="0.5" stroke-dasharray="4,4"/><line x1="440" y1="50" x2="440" y2="850" stroke="#666666" stroke-width="0.5" stroke-dasharray="4,4"/><line x1="512" y1="50" x2="512" y2="850" stroke="#666666" stroke-width="0.5" stroke-dasharray="4,4"/><line x1="584" y1="50" x2="584" y2="850" stroke="#666666" stroke-width="0.5" stroke-dasharray="4,4"/><line x1="656" y1="50" x2="656" y2="850" stroke="#666666" stroke-width="0.5" stroke-dasharray="4,4"/><line x1="728" y1="50" x2="728" y2="850" stroke="#666666" stroke-width="0.5" stroke-dasharray="4,4"/><line x1="800" y1="50" x2="800" y2="850" stroke="#666666" stroke-width="0.5" stroke-dasharray="4,4"/><line x1="872" y1="50" x2="872" y2="850" stroke="#666666" stroke-width="0.5" stroke-dasharray="4,4"/><line x1="944" y1="50" x2="944" y2="850" stroke="#666666" stroke-width="0.5" stroke-dasharray="4,4"/><line x1="1016" y1="50" x2="1016" y2="850" stroke="#666666" stroke-width="0.5" stroke-dasharray="4,4"/><line x1="1088" y1="50" x2="1088" y2="850" stroke="#666666" stroke-width="0.5" stroke-dasharray="4,4"/><line x1="1160" y1="50" x2="1160" y2="850" stroke="#666666" stroke-width="0.5" stroke-dasharray="4,4"/><line x1="1232" y1="50" x2="1232" y2="850" stroke="#666666" stroke-width="0.5" stroke-dasharray="4,4"/><line x1="1304" y1="50" x2="1304" y2="850" stroke="#666666" stroke-width="0.5" stroke-dasharray="4,4"/><line x1="1376" y1="50" x2="1376" y2="850" stroke="#666666" stroke-width="0.5" stroke-dasharray="4,4"/><line x1="1448" y1="50" x2="1448" y2="850" stroke="#666666" stroke-width="0.5" stroke-dasharray="4,4"/><line x1="1520" y1="50" x2="1520" y2="850" stroke="#666666" stroke-width="0.5" stroke-dasharray="4,4"/><line x1="1592" y1="50" x2="1592" y2="850" stroke="#666666" stroke-width="0.5" stroke-dasharray="4,4"/><line x1="1664" y1="50" x2="1664" y2="850" stroke="#666666" stroke-width="0.5" stroke-dasharray="4,4"/><line x1="1736" y1="50" x2="1736" y2="850" stroke="#666666" stroke-width="0.5" stroke-dasharray="4,4"/><line x1="1808" y1="50" x2="1808" y2="850" stroke="#666666" stroke-width="0.5" stroke-dasharray="4,4"/><line x1="1880" y1="50" x2="1880" y2="850" stroke="#666666" stroke-width="0.5" stroke-dasharray="4,4"/><text x="80" y="1040" text-anchor="middle" font-size="20" fill="black">09:30</text><text x="152" y="1040" text-anchor="middle" font-size="20" fill="black">10:00</text><text x="224" y="1040" text-anchor="middle" font-size="20" fill="black">10:30</text><text x="296" y="1040" text-anchor="middle" font-size="20" fill="black">11:00</text><text x="368" y="1040" text-anchor="middle" font-size="20" fill="black">11:30</text><text x="440" y="1040" text-anchor="middle" font-size="20" fill="black">12:00</text><text x="512" y="1040" text-anchor="middle" font-size="20" fill="black">12:30</text><text x="584" y="1040" text-anchor="middle" font-size="20" fill="black">13:00</text><text x="656" y="1040" text-anchor="middle" font-size="20" fill="black">13:30</text><text x="728" y="1040" text-anchor="middle" font-size="20" fill="black">14:00</text><text x="800" y="1040" text-anchor="middle" font-size="20" fill="black">14:30</text><text x="872" y="1040" text-anchor="middle" font-size="20" fill="black">15:00</text><text x="944" y="1040" text-anchor="middle" font-size="20" fill="black">15:30</text><text x="1016" y="1040" text-anchor="middle" font-size="20" fill="black">09:30</text><text x="1088" y="1040" text-anchor="middle" font-size="20" fill="black">10:00</text><text x="1160" y="1040" text-anchor="middle" font-size="20" fill="black">10:30</text><text x="1232" y="1040" text-anchor="middle" font-size="20" fill="black">11:00</text><text x="1304" y="1040" text-anchor="middle" font-size="20" fill="black">11:30</text><text x="1376" y="1040" text-anchor="middle" font-size="20" fill="black">12:00</text><text x="1448" y="1040" text-anchor="middle" font-size="20" fill="black">12:30</text><text x="1520" y="1040" text-anchor="middle" font-size="20" fill="black">13:00</text><text x="1592" y="1040" text-anchor="middle" font-size="20" fill="black">13:30</text><text x="1664" y="1040" text-anchor="middle" font-size="20" fill="black">14:00</text><text x="1736" y="1040" text-anchor="middle" font-size="20" fill="black">14:30</text><text x="1808" y="1040" text-anchor="middle" font-size="20" fill="black">15:00</text><text x="1880" y="1040" text-anchor="middle" font-size="20" fill="black">15:30</text><text x="1942" y="50" text-anchor="end" font-size="40" fill="#26a69a" font-weight="bold"> +0.48% (Fri)</text></svg>