<svg xmlns="http://www.w3.org/2000/svg" width="1992" height="1050"><rect width="100%" height="100%" fill="white"/><text x="42" y="854.0" text-anchor="end" font-size="20" fill="black">438</text><text x="42" y="654.0" text-anchor="end" font-size="20" fill="black">439</text><text x="42" y="454.0" text-anchor="end" font-size="20" fill="black">440</text><text x="42" y="254.0" text-anchor="end" font-size="20" fill="black">441</text><text x="42" y="54.0" text-anchor="end" font-size="20" fill="black">442</text><line x1="80" y1="-43.006535999995776" x2="80" y2="135.26301800000056" stroke="#26a69a" stroke-width="2"/><rect x="76" y="-43.006535999995776" width="8" height="91.11554999999498" fill="#26a69a"/><line x1="92" y1="-72.5200520000044" x2="92" y2="52.07055800000262" stroke="#ef5350" stroke-width="2"/><rect x="88" y="-43.99692399999822" width="8" height="70.31743599999345" fill="#ef5350"/><line x1="104" y1="-35.08344599999873" x2="104" y2="63.955195999994885" stroke="#26a69a" stroke-width="2"/><rect x="100" y="-25.17958199999839" width="8" height="55.461639999998624" fill="#26a69a"/><line x1="116" y1="-56.87194600000112" x2="116" y2="22.3589660000016" stroke="#ef5350" stroke-width="2"/><rect x="112" y="-39.04499200000373" width="8" height="31.692366000004313" fill="#ef5350"/><line x1="128" y1="-19.237262000001465" x2="128" y2="56.03210399999625" stroke="#ef5350" stroke-width="2"/><rect x="124" y="-7.352625999999418" width="8" height="39.61545600000136" fill="#ef5350"/><line x1="140" y1="-54.89117399999941" x2="140" y2="44.147468000005574" stroke="#26a69a" stroke-width="2"/><rect x="136" y="-46.96808200000078" width="8" height="85.17322999999806" fill="#26a69a"/><line x1="152" y1="-132.14131400000042" x2="152" y2="-31.1219000000051" stroke="#26a69a" stroke-width="2"/><rect x="148" y="-128.17976799999542" width="8" height="82.2020719999955" fill="#26a69a"/><line x1="164" y1="-130.16053999999713" x2="164" y2="-60.83349199999475" stroke="#ef5350" stroke-width="2"/><rect x="160" y="-124.21822200000179" width="8" height="55.46163799999704" fill="#ef5350"/><line x1="176" y1="-92.52585799999906" x2="176" y2="36.22437599999557" stroke="#26a69a" stroke-width="2"/><rect x="172" y="-68.75658400000475" width="8" height="2" fill="#26a69a"/><line x1="188" y1="-122.23745000000008" x2="188" y2="-39.24306799999613" stroke="#26a69a" stroke-width="2"/><rect x="184" y="-104.41049400000111" width="8" height="41.59623000000465" fill="#26a69a"/><line x1="200" y1="-116.29513200000474" x2="200" y2="-23.198807999995097" stroke="#ef5350" stroke-width="2"/><rect x="196" y="-98.4681759999944" width="8" height="61.40395799999396" fill="#ef5350"/><line x1="212" y1="-44.98730999999907" x2="212" y2="149.1284260000043" stroke="#ef5350" stroke-width="2"/><rect x="208" y="-39.04499200000373" width="8" height="154.50028000000202" fill="#ef5350"/><line x1="224" y1="115.45528799999829" x2="224" y2="220.4362479999986" stroke="#ef5350" stroke-width="2"/><rect x="220" y="115.45528799999829" width="8" height="21.788502000003973" fill="#ef5350"/><line x1="236" y1="79.80137800000193" x2="236" y2="188.7438839999959" stroke="#26a69a" stroke-width="2"/><rect x="232" y="113.47451599999658" width="8" height="21.788502000003973" fill="#26a69a"/><line x1="248" y1="95.64755999999761" x2="248" y2="210.53238399999827" stroke="#ef5350" stroke-width="2"/><rect x="244" y="117.43606200000158" width="8" height="57.44241200000033" fill="#ef5350"/><line x1="260" y1="133.28224399999726" x2="260" y2="204.59006600000293" stroke="#ef5350" stroke-width="2"/><rect x="256" y="174.87847400000192" width="8" height="17.826955999998972" fill="#ef5350"/><line x1="272" y1="117.43606200000158" x2="272" y2="200.62851999999793" stroke="#26a69a" stroke-width="2"/><rect x="268" y="131.30147199999556" width="8" height="59.42318400000204" fill="#26a69a"/><line x1="284" y1="69.89751400000159" x2="284" y2="153.08997199999794" stroke="#26a69a" stroke-width="2"/><rect x="280" y="85.74369599999727" width="8" height="43.57700200000636" fill="#26a69a"/><line x1="296" y1="67.91674199999989" x2="296" y2="137.24379000000226" stroke="#ef5350" stroke-width="2"/><rect x="292" y="83.76292399999556" width="8" height="31.692364000002726" fill="#ef5350"/><line x1="308" y1="65.93596799999659" x2="308" y2="117.43606200000158" stroke="#26a69a" stroke-width="2"/><rect x="304" y="65.93596799999659" width="8" height="47.53854799999999" fill="#26a69a"/><line x1="320" y1="36.22437599999557" x2="320" y2="79.80137800000193" stroke="#26a69a" stroke-width="2"/><rect x="316" y="38.20514799999728" width="8" height="23.76927400000568" fill="#26a69a"/><line x1="332" y1="18.3974199999966" x2="332" y2="73.85905999999522" stroke="#ef5350" stroke-width="2"/><rect x="328" y="38.20514799999728" width="8" height="27.730819999999312" fill="#ef5350"/><line x1="344" y1="2.5512380000009216" x2="344" y2="93.6667879999959" stroke="#26a69a" stroke-width="2"/><rect x="340" y="48.109013999999206" width="8" height="15.846181999995679" fill="#26a69a"/><line x1="356" y1="8.49355599999626" x2="356" y2="56.03210399999625" stroke="#ef5350" stroke-width="2"/><rect x="352" y="32.26283000000194" width="8" height="23.76927399999431" fill="#ef5350"/><line x1="368" y1="36.22437599999557" x2="368" y2="101.58987999999454" stroke="#ef5350" stroke-width="2"/><rect x="364" y="56.03210399999625" width="8" height="2" fill="#ef5350"/><line x1="380" y1="22.3589660000016" x2="380" y2="81.78215200000523" stroke="#ef5350" stroke-width="2"/><rect x="376" y="50.08978600000091" width="8" height="2" fill="#ef5350"/><line x1="392" y1="40.18592200000057" x2="392" y2="95.64755999999761" stroke="#ef5350" stroke-width="2"/><rect x="388" y="56.03210399999625" width="8" height="27.730819999999312" fill="#ef5350"/><line x1="404" y1="75.83983199999693" x2="404" y2="121.39760799999522" stroke="#ef5350" stroke-width="2"/><rect x="400" y="87.72447000000057" width="8" height="21.788500000002387" fill="#ef5350"/><line x1="416" y1="4.532012000004215" x2="416" y2="113.47451599999658" stroke="#26a69a" stroke-width="2"/><rect x="412" y="8.49355599999626" width="8" height="104.98096000000032" fill="#26a69a"/><line x1="428" y1="-9.333398000001125" x2="428" y2="32.26283000000194" stroke="#26a69a" stroke-width="2"/><rect x="424" y="-1.410308000004079" width="8" height="11.884638000003633" fill="#26a69a"/><line x1="440" y1="-41.02576400000544" x2="440" y2="18.3974199999966" stroke="#ef5350" stroke-width="2"/><rect x="436" y="-1.410308000004079" width="8" height="17.826955999998972" fill="#ef5350"/><line x1="452" y1="-7.352625999999418" x2="452" y2="38.20514799999728" stroke="#ef5350" stroke-width="2"/><rect x="448" y="12.455102000001261" width="8" height="13.865409999993972" fill="#ef5350"/><line x1="464" y1="6.512783999994554" x2="464" y2="46.12823999999591" stroke="#ef5350" stroke-width="2"/><rect x="460" y="24.339740000004895" width="8" height="2" fill="#ef5350"/><line x1="476" y1="18.3974199999966" x2="476" y2="73.85905999999522" stroke="#ef5350" stroke-width="2"/><rect x="472" y="24.339740000004895" width="8" height="39.61545599998999" fill="#ef5350"/><line x1="488" y1="63.955195999994885" x2="488" y2="147.1476540000026" stroke="#ef5350" stroke-width="2"/><rect x="484" y="65.93596799999659" width="8" height="45.557775999998285" fill="#ef5350"/><line x1="500" y1="91.68601600000557" x2="500" y2="159.03229199999487" stroke="#26a69a" stroke-width="2"/><rect x="496" y="95.64755999999761" width="8" height="19.80772800000068" fill="#26a69a"/><line x1="512" y1="91.68601600000557" x2="512" y2="137.24379000000226" stroke="#ef5350" stroke-width="2"/><rect x="508" y="97.6283340000009" width="8" height="33.67313799999465" fill="#ef5350"/><line x1="524" y1="83.76292399999556" x2="524" y2="143.1861079999976" stroke="#26a69a" stroke-width="2"/><rect x="520" y="119.41683400000329" width="8" height="12.875023999993118" fill="#26a69a"/><line x1="536" y1="119.41683400000329" x2="536" y2="164.97461000000158" stroke="#ef5350" stroke-width="2"/><rect x="532" y="119.41683400000329" width="8" height="37.63468399999965" fill="#ef5350"/><line x1="548" y1="119.41683400000329" x2="548" y2="174.87847400000192" stroke="#26a69a" stroke-width="2"/><rect x="544" y="149.1284260000043" width="8" height="11.884637999992265" fill="#26a69a"/><line x1="560" y1="129.32069800000363" x2="560" y2="208.55161199999657" stroke="#ef5350" stroke-width="2"/><rect x="556" y="148.13804000000346" width="8" height="40.60584399999243" fill="#ef5350"/><line x1="572" y1="172.89769999999862" x2="572" y2="212.51315800000157" stroke="#26a69a" stroke-width="2"/><rect x="568" y="176.85924600000362" width="8" height="11.884637999992265" fill="#26a69a"/><line x1="584" y1="155.07074600000124" x2="584" y2="238.2632039999976" stroke="#ef5350" stroke-width="2"/><rect x="580" y="178.84001999999555" width="8" height="3.961544000003414" fill="#ef5350"/><line x1="596" y1="133.28224399999726" x2="596" y2="186.76311000000396" stroke="#26a69a" stroke-width="2"/><rect x="592" y="139.22456200000397" width="8" height="43.57700199999499" fill="#26a69a"/><line x1="608" y1="125.35915400000022" x2="608" y2="159.03229199999487" stroke="#26a69a" stroke-width="2"/><rect x="604" y="131.30147199999556" width="8" height="9.90386400000034" fill="#26a69a"/><line x1="620" y1="127.33992600000192" x2="620" y2="176.85924600000362" stroke="#ef5350" stroke-width="2"/><rect x="616" y="133.28224399999726" width="8" height="27.730819999999312" fill="#ef5350"/><line x1="632" y1="143.1861079999976" x2="632" y2="182.80156399999896" stroke="#26a69a" stroke-width="2"/><rect x="628" y="157.05151800000294" width="8" height="3.961545999993632" fill="#26a69a"/><line x1="644" y1="139.22456200000397" x2="644" y2="180.82079199999725" stroke="#26a69a" stroke-width="2"/><rect x="640" y="147.1476540000026" width="8" height="15.846181999995679" fill="#26a69a"/><line x1="656" y1="111.49374399999488" x2="656" y2="149.1284260000043" stroke="#26a69a" stroke-width="2"/><rect x="652" y="113.67259400000194" width="8" height="35.455832000002374" fill="#26a69a"/><line x1="668" y1="109.51297000000295" x2="668" y2="168.9361559999952" stroke="#ef5350" stroke-width="2"/><rect x="664" y="115.45528799999829" width="8" height="33.67313800000602" fill="#ef5350"/><line x1="680" y1="128.33031200000278" x2="680" y2="192.7054300000009" stroke="#ef5350" stroke-width="2"/><rect x="676" y="149.1284260000043" width="8" height="35.653911999997945" fill="#ef5350"/><line x1="692" y1="178.84001999999555" x2="692" y2="232.32088600000225" stroke="#26a69a" stroke-width="2"/><rect x="688" y="186.76311000000396" width="8" height="2" fill="#26a69a"/><line x1="704" y1="170.91692799999691" x2="704" y2="212.51315800000157" stroke="#26a69a" stroke-width="2"/><rect x="700" y="170.91692799999691" width="8" height="17.826955999998972" fill="#26a69a"/><line x1="716" y1="153.08997199999794" x2="716" y2="201.6189059999988" stroke="#ef5350" stroke-width="2"/><rect x="712" y="170.91692799999691" width="8" height="29.71159200000102" fill="#ef5350"/><line x1="728" y1="145.1668820000009" x2="728" y2="202.60929400000123" stroke="#26a69a" stroke-width="2"/><rect x="724" y="153.08997199999794" width="8" height="47.53854799999999" fill="#26a69a"/><line x1="740" y1="117.43606200000158" x2="740" y2="157.05151800000294" stroke="#26a69a" stroke-width="2"/><rect x="736" y="145.1668820000009" width="8" height="3.961544000003414" fill="#26a69a"/><line x1="752" y1="145.1668820000009" x2="752" y2="172.89769999999862" stroke="#ef5350" stroke-width="2"/><rect x="748" y="147.1476540000026" width="8" height="7.923091999998633" fill="#ef5350"/><line x1="764" y1="121.39760799999522" x2="764" y2="160.02267799999572" stroke="#26a69a" stroke-width="2"/><rect x="760" y="139.22456200000397" width="8" height="17.826955999998972" fill="#26a69a"/><line x1="776" y1="111.49374399999488" x2="776" y2="170.91692799999691" stroke="#26a69a" stroke-width="2"/><rect x="772" y="127.33992600000192" width="8" height="9.90386400000034" fill="#26a69a"/><line x1="788" y1="91.68601600000557" x2="788" y2="143.1861079999976" stroke="#26a69a" stroke-width="2"/><rect x="784" y="101.58987999999454" width="8" height="25.750046000007387" fill="#26a69a"/><line x1="800" y1="91.68601600000557" x2="800" y2="117.43606200000158" stroke="#26a69a" stroke-width="2"/><rect x="796" y="95.64755999999761" width="8" height="5.942319999996926" fill="#26a69a"/><line x1="812" y1="85.74369599999727" x2="812" y2="135.26301800000056" stroke="#ef5350" stroke-width="2"/><rect x="808" y="95.64755999999761" width="8" height="37.63468399999965" fill="#ef5350"/><line x1="824" y1="127.33992600000192" x2="824" y2="182.80156399999896" stroke="#ef5350" stroke-width="2"/><rect x="820" y="135.26301800000056" width="8" height="45.5577739999967" fill="#ef5350"/><line x1="836" y1="155.07074600000124" x2="836" y2="198.64774799999623" stroke="#ef5350" stroke-width="2"/><rect x="832" y="178.84001999999555" width="8" height="15.846182000007047" fill="#ef5350"/><line x1="848" y1="129.32069800000363" x2="848" y2="204.59006600000293" stroke="#26a69a" stroke-width="2"/><rect x="844" y="137.24379000000226" width="8" height="55.461639999998624" fill="#26a69a"/><line x1="860" y1="109.51297000000295" x2="860" y2="141.2053359999959" stroke="#26a69a" stroke-width="2"/><rect x="856" y="127.33992600000192" width="8" height="2" fill="#26a69a"/><line x1="872" y1="121.39760799999522" x2="872" y2="168.9361559999952" stroke="#ef5350" stroke-width="2"/><rect x="868" y="121.39760799999522" width="8" height="41.596228000003066" fill="#ef5350"/><line x1="884" y1="157.05151800000294" x2="884" y2="192.7054300000009" stroke="#ef5350" stroke-width="2"/><rect x="880" y="162.99383599999828" width="8" height="5.942319999996926" fill="#ef5350"/><line x1="896" y1="149.1284260000043" x2="896" y2="236.28243199999588" stroke="#ef5350" stroke-width="2"/><rect x="892" y="170.91692799999691" width="8" height="59.42318400000204" fill="#ef5350"/><line x1="908" y1="210.53238399999827" x2="908" y2="264.013250000005" stroke="#ef5350" stroke-width="2"/><rect x="904" y="230.34011199999895" width="8" height="25.750047999997605" fill="#ef5350"/><line x1="920" y1="250.14783999999963" x2="920" y2="284.8113659999967" stroke="#ef5350" stroke-width="2"/><rect x="916" y="256.09015999999656" width="8" height="23.76927400000568" fill="#ef5350"/><line x1="932" y1="240.2439759999993" x2="932" y2="378.89807400000564" stroke="#ef5350" stroke-width="2"/><rect x="928" y="279.85943400000224" width="8" height="61.40395599999238" fill="#ef5350"/><line x1="944" y1="321.4556620000053" x2="944" y2="489.8213520000013" stroke="#ef5350" stroke-width="2"/><rect x="940" y="327.39798000000064" width="8" height="116.86559800000396" fill="#ef5350"/><line x1="956" y1="410.5904399999986" x2="956" y2="458.128985999997" stroke="#ef5350" stroke-width="2"/><rect x="952" y="442.2828040000013" width="8" height="13.865409999993972" fill="#ef5350"/><line x1="968" y1="394.7442560000013" x2="968" y2="582.917673999998" stroke="#ef5350" stroke-width="2"/><rect x="964" y="460.1097600000003" width="8" height="116.86559600000237" fill="#ef5350"/><line x1="980" y1="493.78289799999493" x2="980" y2="576.9753560000026" stroke="#26a69a" stroke-width="2"/><rect x="976" y="515.5713979999973" width="8" height="61.40395800000533" fill="#26a69a"/><line x1="992" y1="483.8790339999946" x2="992" y2="563.1099459999973" stroke="#ef5350" stroke-width="2"/><rect x="988" y="531.4175819999946" width="8" height="13.86541000000534" fill="#ef5350"/><line x1="1004" y1="529.4368080000027" x2="1004" y2="681.956316000003" stroke="#ef5350" stroke-width="2"/><rect x="1000" y="543.3022179999966" width="8" height="97.05786800000169" fill="#ef5350"/><line x1="1016" y1="0.5704659999992145" x2="1016" y2="265.9940239999969" stroke="#ef5350" stroke-width="2"/><rect x="1012" y="20.378193999999894" width="8" height="227.78887399999803" fill="#ef5350"/><line x1="1028" y1="210.53238399999827" x2="1028" y2="384.840392000001" stroke="#ef5350" stroke-width="2"/><rect x="1024" y="238.2632039999976" width="8" height="104.98096000000032" fill="#ef5350"/><line x1="1040" y1="315.5133439999986" x2="1040" y2="410.5904399999986" stroke="#ef5350" stroke-width="2"/><rect x="1036" y="339.2826180000043" width="8" height="39.61545600000136" fill="#ef5350"/><line x1="1052" y1="279.85943400000224" x2="1052" y2="382.85961999999927" stroke="#26a69a" stroke-width="2"/><rect x="1048" y="291.7440700000043" width="8" height="85.17323199999964" fill="#26a69a"/><line x1="1064" y1="277.87865999999894" x2="1064" y2="545.2829919999999" stroke="#ef5350" stroke-width="2"/><rect x="1060" y="287.7825239999993" width="8" height="209.96192000000065" fill="#ef5350"/><line x1="1076" y1="460.1097600000003" x2="1076" y2="598.7638579999953" stroke="#ef5350" stroke-width="2"/><rect x="1072" y="493.78289799999493" width="8" height="83.19245800000772" fill="#ef5350"/><line x1="1088" y1="545.2829919999999" x2="1088" y2="874.0912800000046" stroke="#ef5350" stroke-width="2"/><rect x="1084" y="578.9561299999946" width="8" height="207.98114600000872" fill="#ef5350"/><line x1="1100" y1="717.6102259999993" x2="1100" y2="798.8219120000053" stroke="#26a69a" stroke-width="2"/><rect x="1096" y="769.1103200000043" width="8" height="5.942317999995339" fill="#26a69a"/><line x1="1112" y1="727.5140899999997" x2="1112" y2="911.7259620000027" stroke="#26a69a" stroke-width="2"/><rect x="1108" y="755.244909999999" width="8" height="13.86541000000534" fill="#26a69a"/><line x1="1124" y1="644.3216320000033" x2="1124" y2="765.1487739999993" stroke="#26a69a" stroke-width="2"/><rect x="1120" y="683.9370880000047" width="8" height="77.25013999998964" fill="#26a69a"/><line x1="1136" y1="670.0716779999993" x2="1136" y2="757.2256820000007" stroke="#ef5350" stroke-width="2"/><rect x="1132" y="685.9178619999966" width="8" height="65.36550200000875" fill="#ef5350"/><line x1="1148" y1="711.667908000004" x2="1148" y2="798.8219120000053" stroke="#26a69a" stroke-width="2"/><rect x="1144" y="745.3410459999986" width="8" height="5.942318000006708" fill="#26a69a"/><line x1="1160" y1="648.283177999997" x2="1160" y2="784.956502" stroke="#26a69a" stroke-width="2"/><rect x="1156" y="660.167813999999" width="8" height="85.17323199999964" fill="#26a69a"/><line x1="1172" y1="628.4754499999963" x2="1172" y2="701.7640440000037" stroke="#26a69a" stroke-width="2"/><rect x="1168" y="636.3985400000047" width="8" height="27.730819999999312" fill="#26a69a"/><line x1="1184" y1="608.6677219999956" x2="1184" y2="727.5140899999997" stroke="#ef5350" stroke-width="2"/><rect x="1180" y="650.2639499999987" width="8" height="67.34627600000067" fill="#ef5350"/><line x1="1196" y1="654.2254960000037" x2="1196" y2="796.8411400000036" stroke="#ef5350" stroke-width="2"/><rect x="1192" y="717.6102259999993" width="8" height="77.25014000000101" fill="#ef5350"/><line x1="1208" y1="713.6486799999943" x2="1208" y2="800.8026839999957" stroke="#26a69a" stroke-width="2"/><rect x="1204" y="725.533317999998" width="8" height="55.46163799999704" fill="#26a69a"/><line x1="1220" y1="685.9178619999966" x2="1220" y2="747.3218180000003" stroke="#ef5350" stroke-width="2"/><rect x="1216" y="717.6102259999993" width="8" height="3.9615460000050007" fill="#ef5350"/><line x1="1232" y1="683.9370880000047" x2="1232" y2="791.8892079999978" stroke="#ef5350" stroke-width="2"/><rect x="1228" y="725.533317999998" width="8" height="21.788500000002387" fill="#ef5350"/><line x1="1244" y1="699.783272000002" x2="1244" y2="771.0910919999947" stroke="#26a69a" stroke-width="2"/><rect x="1240" y="721.5717720000043" width="8" height="23.76927399999431" fill="#26a69a"/><line x1="1256" y1="709.6871360000023" x2="1256" y2="788.918048000005" stroke="#26a69a" stroke-width="2"/><rect x="1252" y="715.6294539999976" width="8" height="2" fill="#26a69a"/><line x1="1268" y1="674.0332240000043" x2="1268" y2="749.3025920000036" stroke="#26a69a" stroke-width="2"/><rect x="1264" y="711.667908000004" width="8" height="5.942317999995339" fill="#26a69a"/><line x1="1280" y1="705.7255899999973" x2="1280" y2="757.2256820000007" stroke="#ef5350" stroke-width="2"/><rect x="1276" y="721.5717720000043" width="8" height="13.865409999993972" fill="#ef5350"/><line x1="1292" y1="717.6102259999993" x2="1292" y2="812.6873219999993" stroke="#ef5350" stroke-width="2"/><rect x="1288" y="771.0910919999947" width="8" height="41.59623000000465" fill="#ef5350"/><line x1="1304" y1="784.956502" x2="1304" y2="859.2354839999985" stroke="#ef5350" stroke-width="2"/><rect x="1300" y="804.7642300000007" width="8" height="7.923091999998633" fill="#ef5350"/><line x1="1316" y1="733.4564099999966" x2="1316" y2="814.668094000001" stroke="#26a69a" stroke-width="2"/><rect x="1312" y="745.3410459999986" width="8" height="67.34627600000067" fill="#26a69a"/><line x1="1328" y1="687.8986339999983" x2="1328" y2="777.033412000003" stroke="#26a69a" stroke-width="2"/><rect x="1324" y="707.706361999999" width="8" height="41.59623000000465" fill="#26a69a"/><line x1="1340" y1="695.8217259999969" x2="1340" y2="765.1487739999993" stroke="#ef5350" stroke-width="2"/><rect x="1336" y="709.6871360000023" width="8" height="37.634681999998065" fill="#ef5350"/><line x1="1352" y1="721.5717720000043" x2="1352" y2="786.9372760000033" stroke="#ef5350" stroke-width="2"/><rect x="1348" y="745.3410459999986" width="8" height="37.63468399999965" fill="#ef5350"/><line x1="1364" y1="732.4660220000055" x2="1364" y2="836.456596000005" stroke="#ef5350" stroke-width="2"/><rect x="1360" y="784.956502" width="8" height="51.50009400000499" fill="#ef5350"/><line x1="1376" y1="737.417954" x2="1376" y2="854.283552000004" stroke="#26a69a" stroke-width="2"/><rect x="1372" y="763.1680019999976" width="8" height="73.28859400000738" fill="#26a69a"/><line x1="1388" y1="719.5910000000026" x2="1388" y2="780.994955999995" stroke="#ef5350" stroke-width="2"/><rect x="1384" y="751.2833640000053" width="8" height="3.961545999993632" fill="#ef5350"/><line x1="1400" y1="745.3410459999986" x2="1400" y2="794.8603660000003" stroke="#ef5350" stroke-width="2"/><rect x="1396" y="753.2641379999973" width="8" height="7.923089999997046" fill="#ef5350"/><line x1="1412" y1="705.7255899999973" x2="1412" y2="788.918048000005" stroke="#26a69a" stroke-width="2"/><rect x="1408" y="715.6294539999976" width="8" height="45.5577739999967" fill="#26a69a"/><line x1="1424" y1="652.244724000002" x2="1424" y2="721.5717720000043" stroke="#26a69a" stroke-width="2"/><rect x="1420" y="652.244724000002" width="8" height="63.38472999999567" fill="#26a69a"/><line x1="1436" y1="634.417768000003" x2="1436" y2="691.8601800000033" stroke="#26a69a" stroke-width="2"/><rect x="1432" y="648.283177999997" width="8" height="3.9615460000050007" fill="#26a69a"/><line x1="1448" y1="576.9753560000026" x2="1448" y2="654.2254960000037" stroke="#26a69a" stroke-width="2"/><rect x="1444" y="630.456221999998" width="8" height="15.846182000007047" fill="#26a69a"/><line x1="1460" y1="620.5523579999976" x2="1460" y2="656.2062699999956" stroke="#ef5350" stroke-width="2"/><rect x="1456" y="624.5139040000026" width="8" height="19.80772800000068" fill="#ef5350"/><line x1="1472" y1="606.6869480000037" x2="1472" y2="662.1485880000023" stroke="#ef5350" stroke-width="2"/><rect x="1468" y="644.3216320000033" width="8" height="9.90386400000034" fill="#ef5350"/><line x1="1484" y1="567.0714920000023" x2="1484" y2="654.2254960000037" stroke="#26a69a" stroke-width="2"/><rect x="1480" y="596.7830840000033" width="8" height="57.44241200000033" fill="#26a69a"/><line x1="1496" y1="596.7830840000033" x2="1496" y2="652.244724000002" stroke="#ef5350" stroke-width="2"/><rect x="1492" y="596.7830840000033" width="8" height="19.80772800000068" fill="#ef5350"/><line x1="1508" y1="608.6677219999956" x2="1508" y2="656.2062699999956" stroke="#ef5350" stroke-width="2"/><rect x="1504" y="618.5715859999959" width="8" height="13.86541000000534" fill="#ef5350"/><line x1="1520" y1="596.7830840000033" x2="1520" y2="668.0909059999976" stroke="#ef5350" stroke-width="2"/><rect x="1516" y="622.5331320000009" width="8" height="37.634681999998065" fill="#ef5350"/><line x1="1532" y1="658.1870419999973" x2="1532" y2="746.3314319999995" stroke="#ef5350" stroke-width="2"/><rect x="1528" y="660.167813999999" width="8" height="65.36550399999896" fill="#ef5350"/><line x1="1544" y1="707.706361999999" x2="1544" y2="784.956502" stroke="#26a69a" stroke-width="2"/><rect x="1540" y="707.706361999999" width="8" height="21.788502000003973" fill="#26a69a"/><line x1="1556" y1="658.1870419999973" x2="1556" y2="727.5140899999997" stroke="#26a69a" stroke-width="2"/><rect x="1552" y="660.167813999999" width="8" height="45.557775999998285" fill="#26a69a"/><line x1="1568" y1="636.3985400000047" x2="1568" y2="685.9178619999966" stroke="#ef5350" stroke-width="2"/><rect x="1564" y="662.1485880000023" width="8" height="11.884636000002047" fill="#ef5350"/><line x1="1580" y1="670.0716779999993" x2="1580" y2="713.6486799999943" stroke="#ef5350" stroke-width="2"/><rect x="1576" y="672.0524520000026" width="8" height="17.826953999997386" fill="#ef5350"/><line x1="1592" y1="660.167813999999" x2="1592" y2="695.8217259999969" stroke="#26a69a" stroke-width="2"/><rect x="1588" y="676.0139979999963" width="8" height="7.923090000008415" fill="#26a69a"/><line x1="1604" y1="664.129360000004" x2="1604" y2="709.6871360000023" stroke="#ef5350" stroke-width="2"/><rect x="1600" y="676.0139979999963" width="8" height="23.76927400000568" fill="#ef5350"/><line x1="1616" y1="662.1485880000023" x2="1616" y2="715.6294539999976" stroke="#26a69a" stroke-width="2"/><rect x="1612" y="679.9755419999997" width="8" height="23.76927400000568" fill="#26a69a"/><line x1="1628" y1="638.3793139999966" x2="1628" y2="685.9178619999966" stroke="#26a69a" stroke-width="2"/><rect x="1624" y="666.1101339999959" width="8" height="13.865408000003754" fill="#26a69a"/><line x1="1640" y1="662.1485880000023" x2="1640" y2="693.840952000005" stroke="#ef5350" stroke-width="2"/><rect x="1636" y="664.129360000004" width="8" height="27.730819999999312" fill="#ef5350"/><line x1="1652" y1="650.2639499999987" x2="1652" y2="692.8505660000042" stroke="#26a69a" stroke-width="2"/><rect x="1648" y="681.956316000003" width="8" height="7.923089999997046" fill="#26a69a"/><line x1="1664" y1="650.2639499999987" x2="1664" y2="705.7255899999973" stroke="#ef5350" stroke-width="2"/><rect x="1660" y="685.9178619999966" width="8" height="19.80772800000068" fill="#ef5350"/><line x1="1676" y1="697.8024979999986" x2="1676" y2="745.3410459999986" stroke="#ef5350" stroke-width="2"/><rect x="1672" y="703.7448160000054" width="8" height="15.846183999997265" fill="#ef5350"/><line x1="1688" y1="676.0139979999963" x2="1688" y2="749.3025920000036" stroke="#26a69a" stroke-width="2"/><rect x="1684" y="676.0139979999963" width="8" height="43.57700200000636" fill="#26a69a"/><line x1="1700" y1="604.706176000002" x2="1700" y2="691.8601800000033" stroke="#26a69a" stroke-width="2"/><rect x="1696" y="628.4754499999963" width="8" height="47.53854799999999" fill="#26a69a"/><line x1="1712" y1="563.1099459999973" x2="1712" y2="626.4946760000043" stroke="#26a69a" stroke-width="2"/><rect x="1708" y="584.8984480000013" width="8" height="37.63468399999965" fill="#26a69a"/><line x1="1724" y1="533.3983539999963" x2="1724" y2="582.917673999998" stroke="#26a69a" stroke-width="2"/><rect x="1720" y="563.1099459999973" width="8" height="19.80772800000068" fill="#26a69a"/><line x1="1736" y1="539.340672000003" x2="1736" y2="622.5331320000009" stroke="#ef5350" stroke-width="2"/><rect x="1732" y="559.1484000000037" width="8" height="61.40395799999396" fill="#ef5350"/><line x1="1748" y1="624.5139040000026" x2="1748" y2="688.8890199999992" stroke="#ef5350" stroke-width="2"/><rect x="1744" y="624.5139040000026" width="8" height="57.44241200000033" fill="#ef5350"/><line x1="1760" y1="648.283177999997" x2="1760" y2="690.8697940000025" stroke="#26a69a" stroke-width="2"/><rect x="1756" y="658.1870419999973" width="8" height="25.750046000007387" fill="#26a69a"/><line x1="1772" y1="636.3985400000047" x2="1772" y2="729.494864000003" stroke="#ef5350" stroke-width="2"/><rect x="1768" y="658.1870419999973" width="8" height="51.50009400000499" fill="#ef5350"/><line x1="1784" y1="703.7448160000054" x2="1784" y2="743.3602739999969" stroke="#ef5350" stroke-width="2"/><rect x="1780" y="711.667908000004" width="8" height="17.826955999998972" fill="#ef5350"/><line x1="1796" y1="717.6102259999993" x2="1796" y2="761.1872279999943" stroke="#26a69a" stroke-width="2"/><rect x="1792" y="722.5621580000052" width="8" height="4.9519319999944855" fill="#26a69a"/><line x1="1808" y1="689.879406" x2="1808" y2="741.379500000005" stroke="#26a69a" stroke-width="2"/><rect x="1804" y="714.6390679999968" width="8" height="18.817341999999826" fill="#26a69a"/><line x1="1820" y1="672.0524520000026" x2="1820" y2="735.4371819999983" stroke="#ef5350" stroke-width="2"/><rect x="1816" y="715.6294539999976" width="8" height="17.826955999998972" fill="#ef5350"/><line x1="1832" y1="728.5044760000005" x2="1832" y2="826.5527320000047" stroke="#ef5350" stroke-width="2"/><rect x="1828" y="728.5044760000005" width="8" height="32.6827519999938" fill="#ef5350"/><line x1="1844" y1="765.1487739999993" x2="1844" y2="846.3604600000053" stroke="#ef5350" stroke-width="2"/><rect x="1840" y="769.1103200000043" width="8" height="55.46163799999704" fill="#ef5350"/><line x1="1856" y1="733.4564099999966" x2="1856" y2="828.533503999995" stroke="#26a69a" stroke-width="2"/><rect x="1852" y="735.4371819999983" width="8" height="85.17323199999964" fill="#26a69a"/><line x1="1868" y1="624.5139040000026" x2="1868" y2="775.0526379999997" stroke="#26a69a" stroke-width="2"/><rect x="1864" y="664.129360000004" width="8" height="63.38472999999567" fill="#26a69a"/><line x1="1880" y1="618.5715859999959" x2="1880" y2="698.7928839999995" stroke="#26a69a" stroke-width="2"/><rect x="1876" y="658.1870419999973" width="8" height="2" fill="#26a69a"/><line x1="1892" y1="452.18666800000165" x2="1892" y2="656.2062699999956" stroke="#26a69a" stroke-width="2"/><rect x="1888" y="464.0713060000053" width="8" height="192.1349639999903" fill="#26a69a"/><line x1="1904" y1="376.91730200000393" x2="1904" y2="485.8598059999963" stroke="#26a69a" stroke-width="2"/><rect x="1900" y="384.840392000001" width="8" height="85.17323199999964" fill="#26a69a"/><line x1="1916" y1="355.12879999999996" x2="1916" y2="448.22512199999665" stroke="#ef5350" stroke-width="2"/><rect x="1912" y="386.82116600000427" width="8" height="45.5577739999967" fill="#ef5350"/><line x1="1928" y1="341.2633899999946" x2="1928" y2="448.22512199999665" stroke="#26a69a" stroke-width="2"/><rect x="1924" y="347.2057100000029" width="8" height="85.17322999999806" fill="#26a69a"/><line x1="1940" y1="309.57102600000326" x2="1940" y2="424.4558500000039" stroke="#26a69a" stroke-width="2"/><rect x="1936" y="319.4748900000036" width="8" height="41.5962279999917" fill="#26a69a"/><rect x="75" y="993.7933391403104" width="10" height="26.206660859689578" fill="#26a69a" opacity="0.9"/><rect x="87" y="999.9846962413002" width="10" height="20.015303758699815" fill="#ef5350" opacity="0.9"/><rect x="99" y="1003.4918511732337" width="10" height="16.508148826766273" fill="#26a69a" opacity="0.9"/><rect x="111" y="1002.9513841014726" width="10" height="17.048615898527373" fill="#ef5350" opacity="0.9"/><rect x="123" y="1004.8920274735794" width="10" height="15.107972526420554" fill="#ef5350" opacity="0.9"/><rect x="135" y="1006.0420637726313" width="10" height="13.957936227368691" fill="#26a69a" opacity="0.9"/><rect x="147" y="1000.9393841772727" width="10" height="19.0606158227273" fill="#26a69a" opacity="0.9"/><rect x="159" y="1001.2655855582702" width="10" height="18.73441444172977" fill="#ef5350" opacity="0.9"/><rect x="171" y="1002.003753406916" width="10" height="17.996246593084038" fill="#26a69a" opacity="0.9"/><rect x="183" y="1004.9054558357179" width="10" height="15.09454416428207" fill="#26a69a" opacity="0.9"/><rect x="195" y="1004.7807779040385" width="10" height="15.219222095961527" fill="#ef5350" opacity="0.9"/><rect x="207" y="1003.7108216916077" width="10" height="16.289178308392252" fill="#ef5350" opacity="0.9"/><rect x="219" y="998.9081728736629" width="10" height="21.09182712633708" fill="#ef5350" opacity="0.9"/><rect x="231" y="1002.3543610811432" width="10" height="17.645638918856775" fill="#26a69a" opacity="0.9"/><rect x="243" y="1002.1627373732556" width="10" height="17.837262626744405" fill="#ef5350" opacity="0.9"/><rect x="255" y="1000.7189434002704" width="10" height="19.281056599729595" fill="#ef5350" opacity="0.9"/><rect x="267" y="1003.8730402269296" width="10" height="16.12695977307044" fill="#26a69a" opacity="0.9"/><rect x="279" y="1004.1560160042552" width="10" height="15.843983995744793" fill="#26a69a" opacity="0.9"/><rect x="291" y="1007.252674727169" width="10" height="12.747325272830949" fill="#ef5350" opacity="0.9"/><rect x="303" y="1007.7424668848748" width="10" height="12.25753311512517" fill="#26a69a" opacity="0.9"/><rect x="315" y="1006.3094548084972" width="10" height="13.690545191502792" fill="#26a69a" opacity="0.9"/><rect x="327" y="1005.475132045561" width="10" height="14.524867954438946" fill="#ef5350" opacity="0.9"/><rect x="339" y="1007.0287053294588" width="10" height="12.97129467054117" fill="#26a69a" opacity="0.9"/><rect x="351" y="1007.8558728337373" width="10" height="12.144127166262706" fill="#ef5350" opacity="0.9"/><rect x="363" y="1006.548420844216" width="10" height="13.451579155783975" fill="#ef5350" opacity="0.9"/><rect x="375" y="1006.9200042082069" width="10" height="13.079995791793067" fill="#ef5350" opacity="0.9"/><rect x="387" y="1007.473409555897" width="10" height="12.526590444103022" fill="#ef5350" opacity="0.9"/><rect x="399" y="1007.9921167999593" width="10" height="12.007883200040737" fill="#ef5350" opacity="0.9"/><rect x="411" y="1005.1141345436938" width="10" height="14.885865456306192" fill="#26a69a" opacity="0.9"/><rect x="423" y="1006.3754204122866" width="10" height="13.624579587713356" fill="#26a69a" opacity="0.9"/><rect x="435" y="1005.7723203229602" width="10" height="14.22767967703976" fill="#ef5350" opacity="0.9"/><rect x="447" y="1007.4791925731682" width="10" height="12.520807426831766" fill="#ef5350" opacity="0.9"/><rect x="459" y="1007.4294978315319" width="10" height="12.570502168468124" fill="#ef5350" opacity="0.9"/><rect x="471" y="1007.897530161539" width="10" height="12.102469838461047" fill="#ef5350" opacity="0.9"/><rect x="483" y="1005.1453040266136" width="10" height="14.854695973386356" fill="#ef5350" opacity="0.9"/><rect x="495" y="1007.0913383470241" width="10" height="12.908661652975866" fill="#26a69a" opacity="0.9"/><rect x="507" y="1007.5582924873705" width="10" height="12.441707512629478" fill="#ef5350" opacity="0.9"/><rect x="519" y="1007.6114178324729" width="10" height="12.388582167527147" fill="#26a69a" opacity="0.9"/><rect x="531" y="1006.9367651565694" width="10" height="13.063234843430564" fill="#ef5350" opacity="0.9"/><rect x="543" y="1006.3520923087177" width="10" height="13.647907691282285" fill="#26a69a" opacity="0.9"/><rect x="555" y="1005.1928423889285" width="10" height="14.807157611071489" fill="#ef5350" opacity="0.9"/><rect x="567" y="1005.9570828239159" width="10" height="14.042917176084075" fill="#26a69a" opacity="0.9"/><rect x="579" y="1003.4464691902404" width="10" height="16.55353080975965" fill="#ef5350" opacity="0.9"/><rect x="591" y="1008.1617846456644" width="10" height="11.838215354335603" fill="#26a69a" opacity="0.9"/><rect x="603" y="1006.0292235139443" width="10" height="13.970776486055684" fill="#26a69a" opacity="0.9"/><rect x="615" y="1006.4928450680665" width="10" height="13.507154931933542" fill="#ef5350" opacity="0.9"/><rect x="627" y="1007.3454970552353" width="10" height="12.654502944764658" fill="#26a69a" opacity="0.9"/><rect x="639" y="1008.2691135255299" width="10" height="11.73088647447014" fill="#26a69a" opacity="0.9"/><rect x="651" y="1007.438809469511" width="10" height="12.561190530488943" fill="#26a69a" opacity="0.9"/><rect x="663" y="1006.139786962792" width="10" height="13.860213037208041" fill="#ef5350" opacity="0.9"/><rect x="675" y="1005.7417389434918" width="10" height="14.258261056508218" fill="#ef5350" opacity="0.9"/><rect x="687" y="1006.3640504122278" width="10" height="13.635949587772188" fill="#26a69a" opacity="0.9"/><rect x="699" y="1007.8387198164072" width="10" height="12.161280183592794" fill="#26a69a" opacity="0.9"/><rect x="711" y="1007.8007871437972" width="10" height="12.199212856202848" fill="#ef5350" opacity="0.9"/><rect x="723" y="1007.7919655920274" width="10" height="12.208034407972605" fill="#26a69a" opacity="0.9"/><rect x="735" y="1008.1004258522436" width="10" height="11.899574147756425" fill="#26a69a" opacity="0.9"/><rect x="747" y="1008.694018269107" width="10" height="11.305981730892995" fill="#ef5350" opacity="0.9"/><rect x="759" y="1008.8728017183076" width="10" height="11.127198281692358" fill="#26a69a" opacity="0.9"/><rect x="771" y="1008.1989331803393" width="10" height="11.801066819660718" fill="#26a69a" opacity="0.9"/><rect x="783" y="1007.5075195560734" width="10" height="12.492480443926638" fill="#26a69a" opacity="0.9"/><rect x="795" y="1007.2080768821107" width="10" height="12.791923117889269" fill="#26a69a" opacity="0.9"/><rect x="807" y="1005.2606703203138" width="10" height="14.739329679686193" fill="#ef5350" opacity="0.9"/><rect x="819" y="1004.5259330751342" width="10" height="15.474066924865838" fill="#ef5350" opacity="0.9"/><rect x="831" y="1006.9667584325866" width="10" height="13.03324156741337" fill="#ef5350" opacity="0.9"/><rect x="843" y="1005.9084662719404" width="10" height="14.09153372805963" fill="#26a69a" opacity="0.9"/><rect x="855" y="1005.4841496318146" width="10" height="14.515850368185397" fill="#26a69a" opacity="0.9"/><rect x="867" y="1006.4896104990842" width="10" height="13.510389500915835" fill="#ef5350" opacity="0.9"/><rect x="879" y="1007.1110398126433" width="10" height="12.888960187356702" fill="#ef5350" opacity="0.9"/><rect x="891" y="1006.2445673943685" width="10" height="13.75543260563154" fill="#ef5350" opacity="0.9"/><rect x="903" y="1004.8433129043619" width="10" height="15.156687095638063" fill="#ef5350" opacity="0.9"/><rect x="915" y="1003.1220321195967" width="10" height="16.877967880403276" fill="#ef5350" opacity="0.9"/><rect x="927" y="1002.6823267724948" width="10" height="17.317673227505225" fill="#ef5350" opacity="0.9"/><rect x="939" y="996.6457388964435" width="10" height="23.354261103556496" fill="#ef5350" opacity="0.9"/><rect x="951" y="1003.0687107400106" width="10" height="16.9312892599894" fill="#ef5350" opacity="0.9"/><rect x="963" y="1001.4921034042695" width="10" height="18.50789659573047" fill="#ef5350" opacity="0.9"/><rect x="975" y="997.4931959697924" width="10" height="22.506804030207604" fill="#26a69a" opacity="0.9"/><rect x="987" y="975.1224268023574" width="10" height="44.87757319764262" fill="#ef5350" opacity="0.9"/><rect x="999" y="860.0" width="10" height="160.0" fill="#ef5350" opacity="0.9"/><rect x="1011" y="989.036072305359" width="10" height="30.96392769464103" fill="#ef5350" opacity="0.9"/><rect x="1023" y="999.4456014109255" width="10" height="20.55439858907448" fill="#ef5350" opacity="0.9"/><rect x="1035" y="1001.1728612474458" width="10" height="18.82713875255422" fill="#ef5350" opacity="0.9"/><rect x="1047" y="1001.816736509397" width="10" height="18.183263490603053" fill="#26a69a" opacity="0.9"/><rect x="1059" y="1002.2516390116464" width="10" height="17.748360988353625" fill="#ef5350" opacity="0.9"/><rect x="1071" y="999.1554703749421" width="10" height="20.84452962505793" fill="#ef5350" opacity="0.9"/><rect x="1083" y="990.1916955871984" width="10" height="29.80830441280159" fill="#ef5350" opacity="0.9"/><rect x="1095" y="995.9284487203196" width="10" height="24.07155127968042" fill="#26a69a" opacity="0.9"/><rect x="1107" y="999.0795070124802" width="10" height="20.920492987519765" fill="#26a69a" opacity="0.9"/><rect x="1119" y="1001.270094351397" width="10" height="18.729905648602994" fill="#26a69a" opacity="0.9"/><rect x="1131" y="1000.8654791768904" width="10" height="19.134520823109597" fill="#ef5350" opacity="0.9"/><rect x="1143" y="1003.3074807412456" width="10" height="16.692519258754373" fill="#26a69a" opacity="0.9"/><rect x="1155" y="1001.539053663133" width="10" height="18.460946336866982" fill="#26a69a" opacity="0.9"/><rect x="1167" y="1006.1118520488544" width="10" height="13.888147951145584" fill="#26a69a" opacity="0.9"/><rect x="1179" y="1002.8792434114443" width="10" height="17.12075658855565" fill="#ef5350" opacity="0.9"/><rect x="1191" y="1006.7451414486818" width="10" height="13.254858551318193" fill="#ef5350" opacity="0.9"/><rect x="1203" y="1006.3211188602817" width="10" height="13.678881139718328" fill="#26a69a" opacity="0.9"/><rect x="1215" y="1004.6140505755899" width="10" height="15.385949424410114" fill="#ef5350" opacity="0.9"/><rect x="1227" y="1005.7960404954968" width="10" height="14.203959504503246" fill="#ef5350" opacity="0.9"/><rect x="1239" y="1007.3726478312378" width="10" height="12.627352168762172" fill="#26a69a" opacity="0.9"/><rect x="1251" y="1006.3490537742192" width="10" height="13.650946225780785" fill="#26a69a" opacity="0.9"/><rect x="1263" y="1004.9724016119262" width="10" height="15.027598388073784" fill="#26a69a" opacity="0.9"/><rect x="1275" y="1008.2000113700001" width="10" height="11.799988629999916" fill="#ef5350" opacity="0.9"/><rect x="1287" y="1007.2495381754286" width="10" height="12.750461824571403" fill="#ef5350" opacity="0.9"/><rect x="1299" y="1000.1062376212392" width="10" height="19.89376237876081" fill="#ef5350" opacity="0.9"/><rect x="1311" y="1004.8252777318548" width="10" height="15.17472226814516" fill="#26a69a" opacity="0.9"/><rect x="1323" y="1007.09839558844" width="10" height="12.901604411560015" fill="#26a69a" opacity="0.9"/><rect x="1335" y="1006.9435283462597" width="10" height="13.056471653740346" fill="#ef5350" opacity="0.9"/><rect x="1347" y="1007.6034784358801" width="10" height="12.396521564119894" fill="#ef5350" opacity="0.9"/><rect x="1359" y="1005.9066039443445" width="10" height="14.09339605565549" fill="#ef5350" opacity="0.9"/><rect x="1371" y="1005.7542851504531" width="10" height="14.245714849546857" fill="#26a69a" opacity="0.9"/><rect x="1383" y="1007.6244541256438" width="10" height="12.375545874356249" fill="#ef5350" opacity="0.9"/><rect x="1395" y="1007.1399548989998" width="10" height="12.860045101000196" fill="#ef5350" opacity="0.9"/><rect x="1407" y="1007.0199817949309" width="10" height="12.980018205069086" fill="#26a69a" opacity="0.9"/><rect x="1419" y="1006.9480371393864" width="10" height="13.051962860613571" fill="#26a69a" opacity="0.9"/><rect x="1431" y="1007.4433182626378" width="10" height="12.556681737362169" fill="#26a69a" opacity="0.9"/><rect x="1443" y="1005.7887872195972" width="10" height="14.211212780402775" fill="#26a69a" opacity="0.9"/><rect x="1455" y="1007.4204802452783" width="10" height="12.579519754721673" fill="#ef5350" opacity="0.9"/><rect x="1467" y="1006.6032124824304" width="10" height="13.396787517569578" fill="#ef5350" opacity="0.9"/><rect x="1479" y="1006.8826596390483" width="10" height="13.117340360951744" fill="#26a69a" opacity="0.9"/><rect x="1491" y="1007.9736895584846" width="10" height="12.02631044151542" fill="#ef5350" opacity="0.9"/><rect x="1503" y="1006.8795230873079" width="10" height="13.120476912692084" fill="#ef5350" opacity="0.9"/><rect x="1515" y="1007.1720065370965" width="10" height="12.827993462903464" fill="#ef5350" opacity="0.9"/><rect x="1527" y="1004.4402660057256" width="10" height="15.559733994274438" fill="#ef5350" opacity="0.9"/><rect x="1539" y="1005.4309262694703" width="10" height="14.56907373052968" fill="#26a69a" opacity="0.9"/><rect x="1551" y="1006.8528623975149" width="10" height="13.147137602485145" fill="#26a69a" opacity="0.9"/><rect x="1563" y="1003.9480234169725" width="10" height="16.051976583027454" fill="#ef5350" opacity="0.9"/><rect x="1575" y="1006.8140475697278" width="10" height="13.18595243027221" fill="#ef5350" opacity="0.9"/><rect x="1587" y="1008.2006974906933" width="10" height="11.799302509306699" fill="#26a69a" opacity="0.9"/><rect x="1599" y="1007.5738772288304" width="10" height="12.426122771169616" fill="#ef5350" opacity="0.9"/><rect x="1611" y="1006.2215333425252" width="10" height="13.778466657474837" fill="#26a69a" opacity="0.9"/><rect x="1623" y="1008.5139605957619" width="10" height="11.486039404238113" fill="#26a69a" opacity="0.9"/><rect x="1635" y="1008.1392406800305" width="10" height="11.860759319969475" fill="#ef5350" opacity="0.9"/><rect x="1647" y="1007.8998825753442" width="10" height="12.100117424655764" fill="#26a69a" opacity="0.9"/><rect x="1659" y="1006.8399241215858" width="10" height="13.160075878414204" fill="#ef5350" opacity="0.9"/><rect x="1671" y="1006.2016358424222" width="10" height="13.798364157577794" fill="#ef5350" opacity="0.9"/><rect x="1683" y="1006.2573096358137" width="10" height="13.742690364186274" fill="#26a69a" opacity="0.9"/><rect x="1695" y="1005.9308142030904" width="10" height="14.06918579690955" fill="#26a69a" opacity="0.9"/><rect x="1707" y="1006.2619164461823" width="10" height="13.73808355381766" fill="#26a69a" opacity="0.9"/><rect x="1719" y="1007.0505631743995" width="10" height="12.949436825600515" fill="#26a69a" opacity="0.9"/><rect x="1731" y="1005.7647729953351" width="10" height="14.235227004664921" fill="#ef5350" opacity="0.9"/><rect x="1743" y="1005.6829285983599" width="10" height="14.317071401640078" fill="#ef5350" opacity="0.9"/><rect x="1755" y="1006.2433911874658" width="10" height="13.756608812534182" fill="#26a69a" opacity="0.9"/><rect x="1767" y="1006.1210656695918" width="10" height="13.878934330408242" fill="#ef5350" opacity="0.9"/><rect x="1779" y="1006.9438223979853" width="10" height="13.056177602014714" fill="#ef5350" opacity="0.9"/><rect x="1791" y="1006.5395992924462" width="10" height="13.460400707553845" fill="#26a69a" opacity="0.9"/><rect x="1803" y="1006.1066571350344" width="10" height="13.893342864965575" fill="#26a69a" opacity="0.9"/><rect x="1815" y="1004.6367905757076" width="10" height="15.36320942429245" fill="#ef5350" opacity="0.9"/><rect x="1827" y="1002.5691168581161" width="10" height="17.430883141883896" fill="#ef5350" opacity="0.9"/><rect x="1839" y="1004.0536860037259" width="10" height="15.946313996274057" fill="#ef5350" opacity="0.9"/><rect x="1851" y="1006.0496111002566" width="10" height="13.950388899743416" fill="#26a69a" opacity="0.9"/><rect x="1863" y="1003.1826067750825" width="10" height="16.81739322491751" fill="#26a69a" opacity="0.9"/><rect x="1875" y="1002.6160671169797" width="10" height="17.383932883020293" fill="#26a69a" opacity="0.9"/><rect x="1887" y="997.8514489888868" width="10" height="22.148551011113227" fill="#26a69a" opacity="0.9"/><rect x="1899" y="996.6705372586407" width="10" height="23.329462741359293" fill="#26a69a" opacity="0.9"/><rect x="1911" y="993.9801600033456" width="10" height="26.019839996654355" fill="#ef5350" opacity="0.9"/><rect x="1923" y="981.9127672685144" width="10" height="38.08723273148564" fill="#26a69a" opacity="0.9"/><rect x="1935" y="966.2448091702317" width="10" height="53.75519082976825" fill="#26a69a" opacity="0.9"/><rect x="1004" y="20.378193999999894" width="12" height="619.9818919999984" fill="#00ff00" opacity="0.50"/><polyline points="320,33.5456165000096,332,36.630411880958036,344,37.723612082777436,356,39.46727797964513,368,41.23352560062585,380,42.26562392437927,392,46.21774774110463,404,52.245864146709664,416,48.07897765655298,428,43.36571235592146,440,40.79913479821471,452,39.42021834124034,464,38.17262726112176,476,40.62810999815838,488,47.37721799833707,500,51.974393427065024,512,59.529353291156895,524,65.2329228824783,536,73.97755098891139,548,81.1347771804435,560,91.3832635442077,572,99.52383330190742,584,107.45504574935012,596,110.4807139637046,608,112.463643300498,620,117.08739765282417,632,120.8935043525571,644,123.39389955707247,656,122.4680609325901,668,125.00714331995368,680,130.70001900376838,692,136.03936100341798,704,139.36103405071663,716,145.1960327125562,728,145.94783645421785,740,145.87345983952673,752,146.74939185481435,764,146.0327413924574,776,144.2524732598372,788,140.18936913985272,800,135.94729207891305,812,135.69347797615592,824,139.99131740699795,836,145.20035403490965,848,144.4425860315846,860,142.813761266666,872,144.73567314603315,884,147.04048103689047,896,154.97377922384885,908,164.6039107263391,920,175.58062722860086,932,191.3599379687298,944,215.4459989240877,956,238.3700194075118,968,270.6181467020315,980,293.94702777802877,992,317.88378627535394,1004,348.59581482055546,1016,339.03117226620907,1028,339.4324095741922,1040,343.19104428141145,1052,338.2913324450783,1064,353.47734306935763,1076,374.762868110372,1088,414.01757362366425,1100,447.8359304214109,1112,477.11297609556595,1124,496.8105105626478,1136,521.0460204138258,1148,542.4074514220251,1160,553.6227240485005,1172,561.5061350915084,1184,576.3731913685092,1196,597.1814937143677,1208,609.4054769796685,1220,620.0879812673293,1232,632.2054895275869,1244,640.7165640487733,1256,647.8511249965095,1268,653.9289138539857,1280,661.6916060583662,1292,676.0721504337539,1304,689.0831191543498,1316,694.4410169491675,1328,695.7043831444821,1340,700.6203293211911,1352,708.4637008144,1364,720.6535003558884,1376,724.7025005124669,1388,727.6113014160387,1400,730.8090087097526,1412,729.3633368326368,1424,722.018707039058,1436,714.9962757020035,1448,706.9448420161052,1460,700.98072677647,1472,696.5278476549088,1484,687.028346354441,1496,680.3200097492663,1508,675.7597227255246,1520,674.2747790373869,1532,679.1565446528693,1544,681.8755748764033,1556,679.8081690786603,1568,679.2581743092683,1580,680.2697201845717,1592,679.8644133098492,1604,681.761447470808,1616,681.5913612354962,1628,680.1169586416449,1640,681.2353606757711,1652,681.3040230876027,1664,683.6298866030688,1676,687.0547545456247,1688,686.0032539222289,1700,680.5244154534535,1712,671.4171804578882,1724,661.1022057476134,1736,657.240315485933,1748,659.594220296799,1760,659.4602033161436,1772,664.2437207146031,1784,670.4581153132153,1796,675.4204050929047,1808,679.1555158459573,1820,684.3270295749221,1832,691.6470484725551,1844,704.3065636656479,1856,707.2713844593977,1868,703.1626202251687,1880,698.8792318227638,1892,676.5165722205893,1904,648.7378883900533,1916,628.1322742576663,1928,601.3773633759911,1940,574.5295087687509" fill="none" stroke="#0090ff" stroke-width="2"/><line x1="80" y1="50" x2="80" y2="850" stroke="#666666" stroke-width="0.5" stroke-dasharray="4,4"/><line x1="152" y1="50" x2="152" y2="850" stroke="#666666" stroke-width="0.5" stroke-dasharray="4,4"/><line x1="224" y1="50" x2="224" y2="850" stroke="#666666" stroke-width="0.5" stroke-dasharray="4,4"/><line x1="296" y1="50" x2="296" y2="850" stroke="#666666" stroke-width="0.5" stroke-dasharray="4,4"/><line x1="368" y1="50" x2="368" y2="850" stroke="#666666" stroke-width="0.5" stroke-dasharray="4,4"/><line x1="440" y1="50" x2="440" y2="850" stroke="#666666" stroke-width="0.5" stroke-dasharray="4,4"/><line x1="512" y1="50" x2="512" y2="850" stroke="#666666" stroke-width="0.5" stroke-dasharray="4,4"/><line x1="584" y1="50" x2="584" y2="850" stroke="#666666" stroke-width="0.5" stroke-dasharray="4,4"/><line x1="656" y1="50" x2="656" y2="850" stroke="#666666" stroke-width="0.5" stroke-dasharray="4,4"/><line x1="728" y1="50" x2="728" y2="850" stroke="#666666" stroke-width="0.5" stroke-dasharray="4,4"/><line x1="800" y1="50" x2="800" y2="850" stroke="#666666" stroke-width="0.5" stroke-dasharray="4,4"/><line x1="872" y1="50" x2="872" y2="850" stroke="#666666" stroke-width="0.5" stroke-dasharray="4,4"/><line x1="944" y1="50" x2="944" y2="850" stroke="#666666" stroke-width="0.5" stroke-dasharray="4,4"/><line x1="1016" y1="50" x2="1016" y2="850" stroke="#666666" stroke-width="0.5" stroke-dasharray="4,4"/><line x1="1088" y1="50" x2="1088" y2="850" stroke="#666666" stroke-width="0.5" stroke-dasharray="4,4"/><line x1="1160" y1="50" x2="1160" y2="850" stroke="#666666" stroke-width="0.5" stroke-dasharray="4,4"/><line x1="1232" y1="50" x2="1232" y2="850" stroke="#666666" stroke-width="0.5" stroke-dasharray="4,4"/><line x1="1304" y1="50" x2="1304" y2="850" stroke="#666666" stroke-width="0.5" stroke-dasharray="4,4"/><line x1="1376" y1="50" x2="1376" y2="850" stroke="#666666" stroke-width="0.5" stroke-dasharray="4,4"/><line x1="1448" y1="50" x2="1448" y2="850" stroke="#666666" stroke-width="0.5" stroke-dasharray="4,4"/><line x1="1520" y1="50" x2="1520" y2="850" stroke="#666666" stroke-width="0.5" stroke-dasharray="4,4"/><line x1="1592" y1="50" x2="1592" y2="850" stroke="#666666" stroke-width="0.5" stroke-dasharray="4,4"/><line x1="1664" y1="50" x2="1664" y2="850" stroke="#666666" stroke-width="0.5" stroke-dasharray="4,4"/><line x1="1736" y1="50" x2="1736" y2="850" stroke="#666666" stroke-width="0.5" stroke-dasharray="4,4"/><line x1="1808" y1="50" x2="1808" y2="850" stroke="#666666" stroke-width="0.5" stroke-dasharray="4,4"/><line x1="1880" y1="50" x2="1880" y2="850" stroke="#666666" stroke-width="0.5" stroke-dasharray="4,4"/><text x="80" y="1040" text-anchor="middle" font-size="20" fill="black">09:30</text><text x="152" y="1040" text-anchor="middle" font-size="20" fill="black">10:00</text><text x="224" y="1040" text-anchor="middle" font-size="20" fill="black">10:30</text><text x="296" y="1040" text-anchor="middle" font-size="20" fill="black">11:00</text><text x="368" y="1040" text-anchor="middle" font-size="20" fill="black">11:30</text><text x="440" y="1040" text-anchor="middle" font-size="20" fill="black">12:00</text><text x="512" y="1040" text-anchor="middle" font-size="20" fill="black">12:30</text><text x="584" y="1040" text-anchor="middle" font-size="20" fill="black">13:00</text><text x="656" y="1040" text-anchor="middle" font-size="20" fill="black">13:30</text><text x="728" y="1040" text-anchor="middle" font-size="20" fill="black">14:00</text><text x="800" y="1040" text-anchor="middle" font-size="20" fill="black">14:30</text><text x="872" y="1040" text-anchor="middle" font-size="20" fill="black">15:00</text><text x="944" y="1040" text-anchor="middle" font-size="20" fill="black">15:30</text><text x="1016" y="1040" text-anchor="middle" font-size="20" fill="black">09:30</text><text x="1088" y="1040" text-anchor="middle" font-size="20" fill="black">10:00</text><text x="1160" y="1040" text-anchor="middle" font-size="20" fill="black">10:30</text><text x="1232" y="1040" text-anchor="middle" font-size="20" fill="black">11:00</text><text x="1304" y="1040" text-anchor="middle" font-size="20" fill="black">11:30</text><text x="1376" y="1040" text-anchor="middle" font-size="20" fill="black">12:00</text><text x="1448" y="1040" text-anchor="middle" font-size="20" fill="black">12:30</text><text x="1520" y="1040" text-anchor="middle" font-size="20" fill="black">13:00</text><text x="1592" y="1040" text-anchor="middle" font-size="20" fill="black">13:30</text><text x="1664" y="1040" text-anchor="middle" font-size="20" fill="black">14:00</text><text x="1736" y="1040" text-anchor="middle" font-size="20" fill="black">14:30</text><text x="1808" y="1040" text-anchor="middle" font-size="20" fill="black">15:00</text><text x="1880" y="1040" text-anchor="middle" font-size="20" fill="black">15:30</text><text x="1942" y="50" text-anchor="end" font-size="40" fill="#ef5350" font-weight="bold"> -0.34% (Wed)</text></svg>