<svg xmlns="http://www.w3.org/2000/svg" width="1992" height="1050"><rect width="100%" height="100%" fill="white"/><text x="42" y="854.0" text-anchor="end" font-size="20" fill="black">417</text><text x="42" y="800.6666666666666" text-anchor="end" font-size="20" fill="black">418</text><text x="42" y="747.3333333333334" text-anchor="end" font-size="20" fill="black">419</text><text x="42" y="694.0" text-anchor="end" font-size="20" fill="black">420</text><text x="42" y="640.6666666666666" text-anchor="end" font-size="20" fill="black">421</text><text x="42" y="587.3333333333334" text-anchor="end" font-size="20" fill="black">422</text><text x="42" y="534.0" text-anchor="end" font-size="20" fill="black">423</text><text x="42" y="480.6666666666667" text-anchor="end" font-size="20" fill="black">424</text><text x="42" y="427.3333333333333" text-anchor="end" font-size="20" fill="black">425</text><text x="42" y="374.0" text-anchor="end" font-size="20" fill="black">426</text><text x="42" y="320.66666666666674" text-anchor="end" font-size="20" fill="black">427</text><text x="42" y="267.33333333333337" text-anchor="end" font-size="20" fill="black">428</text><text x="42" y="214.0" text-anchor="end" font-size="20" fill="black">429</text><text x="42" y="160.66666666666663" text-anchor="end" font-size="20" fill="black">430</text><text x="42" y="107.33333333333337" text-anchor="end" font-size="20" fill="black">431</text><text x="42" y="54.0" text-anchor="end" font-size="20" fill="black">432</text><line x1="80" y1="601.0977029333328" x2="80" y2="673.4619370666678" stroke="#ef5350" stroke-width="2"/><rect x="76" y="625.3951829333346" width="8" height="48.066754133333234" fill="#ef5350"/><line x1="92" y1="659.2003727999994" x2="92" y2="705.6825082666667" stroke="#ef5350" stroke-width="2"/><rect x="88" y="673.4619370666678" width="8" height="16.37438826666471" fill="#ef5350"/><line x1="104" y1="666.0670517333347" x2="104" y2="708.3235386666669" stroke="#26a69a" stroke-width="2"/><rect x="100" y="680.3286160000001" width="8" height="7.923091200000158" fill="#26a69a"/><line x1="116" y1="661.3131967999987" x2="116" y2="741.0723157333329" stroke="#ef5350" stroke-width="2"/><rect x="112" y="676.6311733333321" width="8" height="64.44114240000079" fill="#ef5350"/><line x1="128" y1="710.436362666666" x2="128" y2="750.0518192000012" stroke="#26a69a" stroke-width="2"/><rect x="124" y="719.4158661333344" width="8" height="17.959006933333512" fill="#26a69a"/><line x1="140" y1="694.0619744000014" x2="140" y2="733.6774303999997" stroke="#ef5350" stroke-width="2"/><rect x="136" y="717.303042133332" width="8" height="12.14873973333556" fill="#ef5350"/><line x1="152" y1="727.8671637333324" x2="152" y2="806.5698703999988" stroke="#ef5350" stroke-width="2"/><rect x="148" y="727.8671637333324" width="8" height="34.86160160000213" fill="#ef5350"/><line x1="164" y1="756.9184981333334" x2="164" y2="872.0674250666676" stroke="#ef5350" stroke-width="2"/><rect x="160" y="765.8980015999987" width="8" height="87.73503093333602" fill="#ef5350"/><line x1="176" y1="784.385214933333" x2="176" y2="854.6366240000012" stroke="#26a69a" stroke-width="2"/><rect x="172" y="798.1185728000006" width="8" height="52.29240266666545" fill="#26a69a"/><line x1="188" y1="765.3697957333346" x2="188" y2="803.4006341333346" stroke="#26a69a" stroke-width="2"/><rect x="184" y="794.4211306666663" width="8" height="3.1692362666672125" fill="#26a69a"/><line x1="200" y1="732.0928122666677" x2="200" y2="805.5134581333338" stroke="#26a69a" stroke-width="2"/><rect x="196" y="732.0928122666677" width="8" height="61.27190613333369" fill="#26a69a"/><line x1="212" y1="714.662011733332" x2="212" y2="742.656933866668" stroke="#26a69a" stroke-width="2"/><rect x="208" y="731.0363999999996" width="8" height="2.6410304000000906" fill="#26a69a"/><line x1="224" y1="703.0414778666667" x2="224" y2="736.8466672000008" stroke="#26a69a" stroke-width="2"/><rect x="220" y="705.154301866666" width="8" height="27.99492266666664" fill="#26a69a"/><line x1="236" y1="705.154301866666" x2="236" y2="751.6364373333332" stroke="#ef5350" stroke-width="2"/><rect x="232" y="706.738920000001" width="8" height="27.46671679999963" fill="#ef5350"/><line x1="248" y1="719.9440725333321" x2="248" y2="795.4775424000005" stroke="#ef5350" stroke-width="2"/><rect x="244" y="736.8466672000008" width="8" height="33.276983466666934" fill="#ef5350"/><line x1="260" y1="719.9440725333321" x2="260" y2="799.7031914666665" stroke="#26a69a" stroke-width="2"/><rect x="256" y="724.7507477333329" width="8" height="43.26007840000182" fill="#26a69a"/><line x1="272" y1="726.8107514666675" x2="272" y2="746.3015562666654" stroke="#ef5350" stroke-width="2"/><rect x="268" y="726.8635722666659" width="8" height="8.926682666666807" fill="#ef5350"/><line x1="284" y1="679.272203733332" x2="284" y2="737.3748730666679" stroke="#26a69a" stroke-width="2"/><rect x="280" y="691.4209440000013" width="8" height="38.559044266664046" fill="#26a69a"/><line x1="296" y1="673.9901429333319" x2="296" y2="702.5132714666657" stroke="#26a69a" stroke-width="2"/><rect x="292" y="685.0824709333332" width="8" height="6.8666789333323095" fill="#26a69a"/><line x1="308" y1="652.3336933333334" x2="308" y2="699.3440351999985" stroke="#26a69a" stroke-width="2"/><rect x="304" y="657.0875482666664" width="8" height="26.410304000000906" fill="#26a69a"/><line x1="320" y1="649.6926629333332" x2="320" y2="670.2927002666669" stroke="#ef5350" stroke-width="2"/><rect x="316" y="653.9183114666654" width="8" height="3.697442666668053" fill="#ef5350"/><line x1="332" y1="655.5029301333343" x2="332" y2="675.0465551999998" stroke="#ef5350" stroke-width="2"/><rect x="328" y="658.6721664000015" width="8" height="13.205151999997383" fill="#ef5350"/><line x1="344" y1="660.7849909333345" x2="344" y2="693.0055621333335" stroke="#ef5350" stroke-width="2"/><rect x="340" y="670.8209066666677" width="8" height="4.225648533332105" fill="#ef5350"/><line x1="356" y1="671.3491125333348" x2="356" y2="712.0209813333319" stroke="#ef5350" stroke-width="2"/><rect x="352" y="674.5183487999991" width="8" height="29.0513349333346" fill="#ef5350"/><line x1="368" y1="694.0619744000014" x2="368" y2="742.656933866668" stroke="#ef5350" stroke-width="2"/><rect x="364" y="703.0414778666667" width="8" height="6.285652266666716" fill="#ef5350"/><line x1="380" y1="701.9850655999986" x2="380" y2="724.1697210666674" stroke="#ef5350" stroke-width="2"/><rect x="376" y="707.2671263999989" width="8" height="6.866678933335265" fill="#ef5350"/><line x1="392" y1="686.6670890666652" x2="392" y2="716.2466298666671" stroke="#26a69a" stroke-width="2"/><rect x="388" y="697.2312106666656" width="8" height="17.959006933333512" fill="#26a69a"/><line x1="404" y1="688.8327338666659" x2="404" y2="707.7953322666659" stroke="#26a69a" stroke-width="2"/><rect x="400" y="695.171206933334" width="8" height="2" fill="#26a69a"/><line x1="416" y1="656.0311360000014" x2="416" y2="698.8158288000008" stroke="#26a69a" stroke-width="2"/><rect x="412" y="658.1439605333344" width="8" height="37.50263199999915" fill="#26a69a"/><line x1="428" y1="638.6003354666657" x2="428" y2="661.049093866668" stroke="#26a69a" stroke-width="2"/><rect x="424" y="651.7526666666679" width="8" height="5.334881599998539" fill="#26a69a"/><line x1="440" y1="645.4670144000011" x2="440" y2="665.5388453333338" stroke="#ef5350" stroke-width="2"/><rect x="436" y="650.2208693333341" width="8" height="8.451297066667394" fill="#ef5350"/><line x1="452" y1="655.5029301333343" x2="452" y2="683.4978522666673" stroke="#ef5350" stroke-width="2"/><rect x="448" y="658.1439605333344" width="8" height="20.071830933332762" fill="#ef5350"/><line x1="464" y1="675.5747610666671" x2="464" y2="710.436362666666" stroke="#ef5350" stroke-width="2"/><rect x="460" y="677.6875856" width="8" height="32.74877706666598" fill="#ef5350"/><line x1="476" y1="696.7030048000015" x2="476" y2="718.3594538666664" stroke="#ef5350" stroke-width="2"/><rect x="472" y="705.6825082666667" width="8" height="2" fill="#ef5350"/><line x1="488" y1="680.3814368000016" x2="488" y2="715.1902175999991" stroke="#26a69a" stroke-width="2"/><rect x="484" y="680.8568218666672" width="8" height="25.882098133333784" fill="#26a69a"/><line x1="500" y1="675.5747610666671" x2="500" y2="688.2517072000003" stroke="#26a69a" stroke-width="2"/><rect x="496" y="677.1593791999991" width="8" height="5.282061333334013" fill="#26a69a"/><line x1="512" y1="678.743997866668" x2="512" y2="721.0004848000001" stroke="#ef5350" stroke-width="2"/><rect x="508" y="678.743997866668" width="8" height="27.942101866665325" fill="#ef5350"/><line x1="524" y1="698.8158288000008" x2="524" y2="736.8466672000008" stroke="#26a69a" stroke-width="2"/><rect x="520" y="701.4568592000007" width="8" height="5.229240533332586" fill="#26a69a"/><line x1="536" y1="684.5542645333322" x2="536" y2="701.9850655999986" stroke="#26a69a" stroke-width="2"/><rect x="532" y="691.4209440000013" width="8" height="8.451297066664324" fill="#26a69a"/><line x1="548" y1="681.9132341333321" x2="548" y2="697.2312106666656" stroke="#26a69a" stroke-width="2"/><rect x="544" y="686.1388826666673" width="8" height="3.6974426666652107" fill="#26a69a"/><line x1="560" y1="679.272203733332" x2="560" y2="699.8722410666657" stroke="#ef5350" stroke-width="2"/><rect x="556" y="684.0260586666682" width="8" height="9.5077093333324" fill="#ef5350"/><line x1="572" y1="687.7235013333333" x2="572" y2="711.4927749333341" stroke="#26a69a" stroke-width="2"/><rect x="568" y="691.4209440000013" width="8" height="4.225648533332219" fill="#26a69a"/><line x1="584" y1="670.2927002666669" x2="584" y2="687.7235013333333" stroke="#26a69a" stroke-width="2"/><rect x="580" y="670.8209066666677" width="8" height="16.90259466666555" fill="#26a69a"/><line x1="596" y1="645.9952202666651" x2="596" y2="679.800410133333" stroke="#26a69a" stroke-width="2"/><rect x="592" y="651.8054874666662" width="8" height="18.487212800000634" fill="#26a69a"/><line x1="608" y1="619.5849162666673" x2="608" y2="659.2003727999994" stroke="#26a69a" stroke-width="2"/><rect x="604" y="628.5644197333326" width="8" height="22.184655466668687" fill="#26a69a"/><line x1="620" y1="620.1131221333344" x2="620" y2="632.2618624000006" stroke="#26a69a" stroke-width="2"/><rect x="616" y="626.4515951999996" width="8" height="2.1128245333329687" fill="#26a69a"/><line x1="632" y1="615.3592672000013" x2="632" y2="634.3746863999997" stroke="#26a69a" stroke-width="2"/><rect x="628" y="618.475683200001" width="8" height="7.97591199999863" fill="#26a69a"/><line x1="644" y1="593.1746117333325" x2="644" y2="628.5644197333326" stroke="#26a69a" stroke-width="2"/><rect x="640" y="596.8720544000007" width="8" height="19.543625066665527" fill="#26a69a"/><line x1="656" y1="581.5540778666673" x2="656" y2="619.5849162666673" stroke="#ef5350" stroke-width="2"/><rect x="652" y="594.2310240000006" width="8" height="19.54362506666564" fill="#ef5350"/><line x1="668" y1="605.8515578666659" x2="668" y2="632.7900682666677" stroke="#ef5350" stroke-width="2"/><rect x="664" y="613.7746490666663" width="8" height="3.697442666668053" fill="#ef5350"/><line x1="680" y1="606.907970133334" x2="680" y2="630.6772437333348" stroke="#26a69a" stroke-width="2"/><rect x="676" y="610.605412799999" width="8" height="5.282060800000181" fill="#26a69a"/><line x1="692" y1="600.0412911999987" x2="692" y2="618.0002981333322" stroke="#ef5350" stroke-width="2"/><rect x="688" y="610.605412799999" width="8" height="2.112824000002206" fill="#ef5350"/><line x1="704" y1="604.2669397333339" x2="704" y2="625.3951829333346" stroke="#ef5350" stroke-width="2"/><rect x="700" y="614.3028554666671" width="8" height="9.5077093333324" fill="#ef5350"/><line x1="716" y1="598.4566725333328" x2="716" y2="623.8105647999995" stroke="#26a69a" stroke-width="2"/><rect x="712" y="609.0207946666669" width="8" height="14.789770133332581" fill="#26a69a"/><line x1="728" y1="588.4207573333333" x2="728" y2="617.4720917333343" stroke="#26a69a" stroke-width="2"/><rect x="724" y="592.1181994666676" width="8" height="13.733358399998224" fill="#26a69a"/><line x1="740" y1="562.0104527999986" x2="740" y2="602.1541152000009" stroke="#26a69a" stroke-width="2"/><rect x="736" y="566.2361013333339" width="8" height="29.05133493333176" fill="#26a69a"/><line x1="752" y1="556.7283920000016" x2="752" y2="580.4976655999992" stroke="#ef5350" stroke-width="2"/><rect x="748" y="565.1796890666658" width="8" height="8.926683200000753" fill="#ef5350"/><line x1="764" y1="566.2361013333339" x2="764" y2="596.3438485333336" stroke="#ef5350" stroke-width="2"/><rect x="760" y="574.6873989333319" width="8" height="12.676946133333445" fill="#ef5350"/><line x1="776" y1="578.3848416000001" x2="776" y2="593.7028181333335" stroke="#26a69a" stroke-width="2"/><rect x="772" y="578.3848416000001" width="8" height="7.394884799999318" fill="#26a69a"/><line x1="788" y1="562.0104527999986" x2="788" y2="580.4976655999992" stroke="#26a69a" stroke-width="2"/><rect x="784" y="566.7643077333347" width="8" height="11.620533866665369" fill="#26a69a"/><line x1="800" y1="542.9950336000002" x2="800" y2="569.4053381333349" stroke="#26a69a" stroke-width="2"/><rect x="796" y="546.1642704000012" width="8" height="18.48721279999745" fill="#26a69a"/><line x1="812" y1="533.4873242666679" x2="812" y2="546.6924762666652" stroke="#26a69a" stroke-width="2"/><rect x="808" y="544.5796517333322" width="8" height="2" fill="#26a69a"/><line x1="824" y1="541.4104154666682" x2="824" y2="560.9540405333337" stroke="#ef5350" stroke-width="2"/><rect x="820" y="542.9950336000002" width="8" height="8.451297600001112" fill="#ef5350"/><line x1="836" y1="526.0924389333347" x2="836" y2="557.7848042666665" stroke="#26a69a" stroke-width="2"/><rect x="832" y="535.6001488000009" width="8" height="15.582079466666983" fill="#26a69a"/><line x1="848" y1="511.8308746666662" x2="848" y2="539.2975909333321" stroke="#ef5350" stroke-width="2"/><rect x="844" y="532.9591178666669" width="8" height="2" fill="#ef5350"/><line x1="860" y1="515.5283173333344" x2="860" y2="536.6565605333319" stroke="#26a69a" stroke-width="2"/><rect x="856" y="520.2821722666674" width="8" height="12.676945599999499" fill="#26a69a"/><line x1="872" y1="517.1129354666664" x2="872" y2="549.8617130666662" stroke="#ef5350" stroke-width="2"/><rect x="868" y="519.7539658666665" width="8" height="10.03591573333324" fill="#ef5350"/><line x1="884" y1="496.5128981333328" x2="884" y2="530.3180874666668" stroke="#26a69a" stroke-width="2"/><rect x="880" y="497.0411045333337" width="8" height="30.635952533333068" fill="#26a69a"/><line x1="896" y1="492.81545546666774" x2="896" y2="536.1283546666679" stroke="#ef5350" stroke-width="2"/><rect x="892" y="496.5128981333328" width="8" height="26.410304533334624" fill="#ef5350"/><line x1="908" y1="507.07701973333315" x2="908" y2="538.7693850666681" stroke="#ef5350" stroke-width="2"/><rect x="904" y="522.3949962666666" width="8" height="3.6974426666681666" fill="#ef5350"/><line x1="920" y1="502.32316533333386" x2="920" y2="533.4873242666679" stroke="#26a69a" stroke-width="2"/><rect x="916" y="507.605226133334" width="8" height="16.37438826666471" fill="#26a69a"/><line x1="932" y1="499.68213493333377" x2="932" y2="517.1129354666664" stroke="#ef5350" stroke-width="2"/><rect x="928" y="507.07701973333315" width="8" height="5.810267200001135" fill="#ef5350"/><line x1="944" y1="506.548813866666" x2="944" y2="543.5232400000011" stroke="#ef5350" stroke-width="2"/><rect x="940" y="514.4719050666663" width="8" height="29.05133493333483" fill="#ef5350"/><line x1="956" y1="539.825797333333" x2="956" y2="567.8207199999997" stroke="#ef5350" stroke-width="2"/><rect x="952" y="541.4104154666682" width="8" height="6.338473066665074" fill="#ef5350"/><line x1="968" y1="542.466827733333" x2="968" y2="572.0463685333319" stroke="#ef5350" stroke-width="2"/><rect x="964" y="545.6360640000003" width="8" height="20.600037333333603" fill="#ef5350"/><line x1="980" y1="551.4463312000013" x2="980" y2="582.6104901333322" stroke="#26a69a" stroke-width="2"/><rect x="976" y="558.8412165333345" width="8" height="8.45129706666421" fill="#26a69a"/><line x1="992" y1="550.3899189333333" x2="992" y2="579.4412538666681" stroke="#ef5350" stroke-width="2"/><rect x="988" y="559.3694223999985" width="8" height="17.959006933333512" fill="#ef5350"/><line x1="1004" y1="531.9027061333327" x2="1004" y2="586.3079328000003" stroke="#26a69a" stroke-width="2"/><rect x="1000" y="539.2975909333321" width="8" height="35.38980799999979" fill="#26a69a"/><line x1="1016" y1="132.57890506666627" x2="1016" y2="192.26619306666782" stroke="#ef5350" stroke-width="2"/><rect x="1012" y="142.08661493333238" width="8" height="25.882098133333784" fill="#ef5350"/><line x1="1028" y1="150.00970613333266" x2="1028" y2="184.87130773333467" stroke="#ef5350" stroke-width="2"/><rect x="1024" y="169.02512533333413" width="8" height="6.8666789333323095" fill="#ef5350"/><line x1="1040" y1="122.54298986666674" x2="1040" y2="178.0046287999994" stroke="#26a69a" stroke-width="2"/><rect x="1036" y="126.24043200000119" width="8" height="46.482135999998036" fill="#26a69a"/><line x1="1052" y1="83.98394559999963" x2="1052" y2="130.46608106666713" stroke="#26a69a" stroke-width="2"/><rect x="1048" y="95.60447946666807" width="8" height="31.164158933330896" fill="#26a69a"/><line x1="1064" y1="76.06085439999936" x2="1064" y2="119.90195946666665" stroke="#26a69a" stroke-width="2"/><rect x="1060" y="80.8147087999987" width="8" height="15.846182933334262" fill="#26a69a"/><line x1="1076" y1="67.08135093333419" x2="1076" y2="95.07627306666711" stroke="#ef5350" stroke-width="2"/><rect x="1072" y="80.8147087999987" width="8" height="9.507709866669188" fill="#ef5350"/><line x1="1088" y1="34.8607792000015" x2="1088" y2="178.0046287999994" stroke="#ef5350" stroke-width="2"/><rect x="1084" y="88.20959413333185" width="8" height="78.70270666666931" fill="#ef5350"/><line x1="1100" y1="119.90195946666665" x2="1100" y2="190.1533685333319" stroke="#26a69a" stroke-width="2"/><rect x="1096" y="156.87638506666804" width="8" height="9.507709866666005" fill="#26a69a"/><line x1="1112" y1="143.67123306666758" x2="1112" y2="214.45084853333356" stroke="#ef5350" stroke-width="2"/><rect x="1108" y="157.4045914666658" width="8" height="27.994922133333034" fill="#ef5350"/><line x1="1124" y1="159.517415466668" x2="1124" y2="196.49184160000004" stroke="#26a69a" stroke-width="2"/><rect x="1120" y="179.06104106666737" width="8" height="3.1692362666672125" fill="#26a69a"/><line x1="1136" y1="164.27127040000107" x2="1136" y2="221.31752746666575" stroke="#26a69a" stroke-width="2"/><rect x="1132" y="178.0046287999994" width="8" height="2" fill="#26a69a"/><line x1="1148" y1="140.50199680000026" x2="1148" y2="227.1277946666669" stroke="#26a69a" stroke-width="2"/><rect x="1144" y="163.2148581333331" width="8" height="18.487213333334353" fill="#26a69a"/><line x1="1160" y1="133.1071114666671" x2="1160" y2="186.4559258666668" stroke="#ef5350" stroke-width="2"/><rect x="1156" y="162.1584458666681" width="8" height="14.26156426666546" fill="#ef5350"/><line x1="1172" y1="146.31226346666756" x2="1172" y2="204.41493280000032" stroke="#26a69a" stroke-width="2"/><rect x="1168" y="152.12253066666563" width="8" height="23.769273600000815" fill="#26a69a"/><line x1="1184" y1="108.80963146666545" x2="1184" y2="171.13794933333338" stroke="#26a69a" stroke-width="2"/><rect x="1180" y="114.61989813333275" width="8" height="30.10774719999972" fill="#26a69a"/><line x1="1196" y1="104.58398293333323" x2="1196" y2="126.76863839999896" stroke="#ef5350" stroke-width="2"/><rect x="1192" y="113.56348639999851" width="8" height="5.810266666667303" fill="#ef5350"/><line x1="1208" y1="119.37375306666581" x2="1208" y2="180.11745279999866" stroke="#ef5350" stroke-width="2"/><rect x="1204" y="120.43016533333378" width="8" height="48.594960000000356" fill="#ef5350"/><line x1="1220" y1="155.29176693333284" x2="1220" y2="189.62516266666785" stroke="#ef5350" stroke-width="2"/><rect x="1216" y="166.38409493333404" width="8" height="19.54362506666564" fill="#ef5350"/><line x1="1232" y1="166.91230080000116" x2="1232" y2="195.43542933333208" stroke="#ef5350" stroke-width="2"/><rect x="1228" y="183.8148954666667" width="8" height="10.03591573333324" fill="#ef5350"/><line x1="1244" y1="165.32768266666608" x2="1244" y2="217.09187893333365" stroke="#ef5350" stroke-width="2"/><rect x="1240" y="193.5867082666664" width="8" height="15.05387359999986" fill="#ef5350"/><line x1="1256" y1="197.02004746666717" x2="1256" y2="224.4867642666668" stroke="#ef5350" stroke-width="2"/><rect x="1252" y="206.52775733333328" width="8" height="3.1692362666672125" fill="#ef5350"/><line x1="1268" y1="171.13794933333338" x2="1268" y2="212.86623040000143" stroke="#26a69a" stroke-width="2"/><rect x="1264" y="177.47642239999846" width="8" height="33.80518986666789" fill="#26a69a"/><line x1="1280" y1="161.10203413333397" x2="1280" y2="192.26619306666782" stroke="#ef5350" stroke-width="2"/><rect x="1276" y="177.47642239999846" width="8" height="6.338473066668257" fill="#ef5350"/><line x1="1292" y1="152.65073653333275" x2="1292" y2="180.11745279999866" stroke="#26a69a" stroke-width="2"/><rect x="1288" y="159.517415466668" width="8" height="20.600037333330647" fill="#26a69a"/><line x1="1304" y1="117.78913493333368" x2="1304" y2="158.989209600001" stroke="#26a69a" stroke-width="2"/><rect x="1300" y="118.3173408000008" width="8" height="40.14366293333296" fill="#26a69a"/><line x1="1316" y1="109.33783733333257" x2="1316" y2="125.71222613333396" stroke="#26a69a" stroke-width="2"/><rect x="1312" y="114.09169226666563" width="8" height="4.225648533335175" fill="#26a69a"/><line x1="1328" y1="100.3583338666673" x2="1328" y2="118.84554719999869" stroke="#ef5350" stroke-width="2"/><rect x="1324" y="114.09169226666563" width="8" height="2.6410304000000906" fill="#ef5350"/><line x1="1340" y1="101.4147461333323" x2="1340" y2="127.29684426666608" stroke="#ef5350" stroke-width="2"/><rect x="1336" y="115.14810453333371" width="8" height="4.753854933332946" fill="#ef5350"/><line x1="1352" y1="87.6813882666678" x2="1352" y2="123.59940160000099" stroke="#26a69a" stroke-width="2"/><rect x="1348" y="95.07627306666711" width="8" height="24.82568639999954" fill="#26a69a"/><line x1="1364" y1="84.51215146666686" x2="1364" y2="109.86604373333341" stroke="#ef5350" stroke-width="2"/><rect x="1360" y="94.54806719999999" width="8" height="13.205152000000453" fill="#ef5350"/><line x1="1376" y1="98.77371573333221" x2="1376" y2="112.5070741333335" stroke="#ef5350" stroke-width="2"/><rect x="1372" y="107.75321920000044" width="8" height="2" fill="#ef5350"/><line x1="1388" y1="92.43524266666702" x2="1388" y2="113.03528000000074" stroke="#26a69a" stroke-width="2"/><rect x="1384" y="95.07627306666711" width="8" height="12.676946133333331" fill="#26a69a"/><line x1="1400" y1="91.37883039999906" x2="1400" y2="113.56348639999851" stroke="#ef5350" stroke-width="2"/><rect x="1396" y="95.07627306666711" width="8" height="17.43080106666639" fill="#ef5350"/><line x1="1412" y1="99.83012800000029" x2="1412" y2="118.3173408000008" stroke="#26a69a" stroke-width="2"/><rect x="1408" y="111.45066186666554" width="8" height="2" fill="#26a69a"/><line x1="1424" y1="94.54806719999999" x2="1424" y2="122.54298986666674" stroke="#26a69a" stroke-width="2"/><rect x="1420" y="103.52757066666527" width="8" height="5.810266666667303" fill="#26a69a"/><line x1="1436" y1="92.96344906666798" x2="1436" y2="109.86604373333341" stroke="#ef5350" stroke-width="2"/><rect x="1432" y="104.05577653333239" width="8" height="3.697442666668053" fill="#ef5350"/><line x1="1448" y1="95.60447946666807" x2="1448" y2="114.09169226666563" stroke="#ef5350" stroke-width="2"/><rect x="1444" y="107.22501333333332" width="8" height="2" fill="#ef5350"/><line x1="1460" y1="82.92753333333462" x2="1460" y2="110.92245600000149" stroke="#26a69a" stroke-width="2"/><rect x="1456" y="86.62497599999983" width="8" height="21.656449600001565" fill="#26a69a"/><line x1="1472" y1="81.87112106666666" x2="1472" y2="100.88654026666518" stroke="#ef5350" stroke-width="2"/><rect x="1468" y="83.45573919999879" width="8" height="12.676946133333331" fill="#ef5350"/><line x1="1484" y1="85.56856373333483" x2="1484" y2="108.2814256000014" stroke="#ef5350" stroke-width="2"/><rect x="1480" y="96.13268533333212" width="8" height="10.564121600000362" fill="#ef5350"/><line x1="1496" y1="104.05577653333239" x2="1496" y2="129.40966879999905" stroke="#ef5350" stroke-width="2"/><rect x="1492" y="105.64039466666748" width="8" height="22.712861866666685" fill="#ef5350"/><line x1="1508" y1="122.54298986666674" x2="1508" y2="138.9173781333344" stroke="#26a69a" stroke-width="2"/><rect x="1504" y="126.24043200000119" width="8" height="2.1128245333329687" fill="#26a69a"/><line x1="1520" y1="114.88400160000003" x2="1520" y2="129.40966879999905" stroke="#26a69a" stroke-width="2"/><rect x="1516" y="119.90195946666665" width="8" height="6.338472533334539" fill="#26a69a"/><line x1="1532" y1="101.4147461333323" x2="1532" y2="123.59940160000099" stroke="#26a69a" stroke-width="2"/><rect x="1528" y="109.33783733333257" width="8" height="11.092328000001203" fill="#26a69a"/><line x1="1544" y1="91.9070367999999" x2="1544" y2="112.5070741333335" stroke="#26a69a" stroke-width="2"/><rect x="1540" y="93.49165493333203" width="8" height="15.317976533333422" fill="#26a69a"/><line x1="1556" y1="86.09676959999888" x2="1556" y2="104.58398293333323" stroke="#ef5350" stroke-width="2"/><rect x="1552" y="93.49165493333203" width="8" height="3.697442666668053" fill="#ef5350"/><line x1="1568" y1="94.49524639999856" x2="1568" y2="105.64039466666748" stroke="#ef5350" stroke-width="2"/><rect x="1564" y="96.66089173333296" width="8" height="6.8666789333323095" fill="#ef5350"/><line x1="1580" y1="91.37883039999906" x2="1580" y2="108.80963146666545" stroke="#ef5350" stroke-width="2"/><rect x="1576" y="103.52757066666527" width="8" height="2" fill="#ef5350"/><line x1="1592" y1="101.4147461333323" x2="1592" y2="131.52249333333202" stroke="#ef5350" stroke-width="2"/><rect x="1588" y="104.58398293333323" width="8" height="6.338473066668257" fill="#ef5350"/><line x1="1604" y1="99.83012800000029" x2="1604" y2="116.73272266666572" stroke="#26a69a" stroke-width="2"/><rect x="1600" y="101.4147461333323" width="8" height="10.564121600000362" fill="#26a69a"/><line x1="1616" y1="91.37883039999906" x2="1616" y2="118.3173408000008" stroke="#ef5350" stroke-width="2"/><rect x="1612" y="100.88654026666518" width="8" height="15.846182400000544" fill="#ef5350"/><line x1="1628" y1="100.88654026666518" x2="1628" y2="121.48657759999878" stroke="#26a69a" stroke-width="2"/><rect x="1624" y="105.64039466666748" width="8" height="10.564122133331125" fill="#26a69a"/><line x1="1640" y1="94.54806719999999" x2="1640" y2="106.16860106666536" stroke="#26a69a" stroke-width="2"/><rect x="1636" y="96.13268533333212" width="8" height="8.979503466668234" fill="#26a69a"/><line x1="1652" y1="91.9070367999999" x2="1652" y2="109.33783733333257" stroke="#ef5350" stroke-width="2"/><rect x="1648" y="95.07627306666711" width="8" height="13.205152533334285" fill="#ef5350"/><line x1="1664" y1="90.32241866666789" x2="1664" y2="108.2814256000014" stroke="#26a69a" stroke-width="2"/><rect x="1660" y="92.96344906666798" width="8" height="15.317976533333422" fill="#26a69a"/><line x1="1676" y1="73.94802986666639" x2="1676" y2="95.60447946666807" stroke="#26a69a" stroke-width="2"/><rect x="1672" y="73.94802986666639" width="8" height="19.01541920000159" fill="#26a69a"/><line x1="1688" y1="63.91211413333315" x2="1688" y2="77.64547253333456" stroke="#ef5350" stroke-width="2"/><rect x="1684" y="73.41982346666555" width="8" height="2" fill="#ef5350"/><line x1="1700" y1="61.79928960000018" x2="1700" y2="74.21213279999995" stroke="#26a69a" stroke-width="2"/><rect x="1696" y="62.32749600000113" width="8" height="11.884636799998816" fill="#26a69a"/><line x1="1712" y1="61.27108373333306" x2="1712" y2="70.77879306666546" stroke="#ef5350" stroke-width="2"/><rect x="1708" y="61.79928960000018" width="8" height="6.866679466666028" fill="#ef5350"/><line x1="1724" y1="59.15825920000009" x2="1724" y2="72.36341173333437" stroke="#ef5350" stroke-width="2"/><rect x="1720" y="68.13776266666537" width="8" height="2.1128245333360383" fill="#ef5350"/><line x1="1736" y1="60.742877866665935" x2="1736" y2="70.77879306666546" stroke="#26a69a" stroke-width="2"/><rect x="1732" y="65.49673226666528" width="8" height="5.282060800000181" fill="#26a69a"/><line x1="1748" y1="56.5172288" x2="1748" y2="76.58906026666648" stroke="#ef5350" stroke-width="2"/><rect x="1744" y="64.44032000000027" width="8" height="11.620534399999087" fill="#ef5350"/><line x1="1760" y1="61.27108373333306" x2="1760" y2="87.15318186666684" stroke="#26a69a" stroke-width="2"/><rect x="1756" y="75.00444213333446" width="8" height="2" fill="#26a69a"/><line x1="1772" y1="69.72238133333417" x2="1772" y2="85.04035733333387" stroke="#26a69a" stroke-width="2"/><rect x="1768" y="70.77879306666546" width="8" height="3.697442666668053" fill="#26a69a"/><line x1="1784" y1="62.855701866665186" x2="1784" y2="74.47623573333351" stroke="#ef5350" stroke-width="2"/><rect x="1780" y="70.2505872000014" width="8" height="3.169236266664143" fill="#ef5350"/><line x1="1796" y1="70.77879306666546" x2="1796" y2="92.43524266666702" stroke="#ef5350" stroke-width="2"/><rect x="1792" y="74.47623573333351" width="8" height="4.753854933333059" fill="#ef5350"/><line x1="1808" y1="66.02493866666612" x2="1808" y2="92.43524266666702" stroke="#26a69a" stroke-width="2"/><rect x="1804" y="66.55314453333324" width="8" height="12.676946133333331" fill="#26a69a"/><line x1="1820" y1="61.79928960000018" x2="1820" y2="69.19417493333344" stroke="#26a69a" stroke-width="2"/><rect x="1816" y="65.49673226666528" width="8" height="2" fill="#26a69a"/><line x1="1832" y1="60.214671466668165" x2="1832" y2="79.75829653333369" stroke="#ef5350" stroke-width="2"/><rect x="1828" y="66.02493866666612" width="8" height="6.338473066668257" fill="#ef5350"/><line x1="1844" y1="60.214671466668165" x2="1844" y2="81.34291519999954" stroke="#ef5350" stroke-width="2"/><rect x="1840" y="72.8916176000015" width="8" height="7.39488533333315" fill="#ef5350"/><line x1="1856" y1="73.41982346666555" x2="1856" y2="87.15318186666684" stroke="#26a69a" stroke-width="2"/><rect x="1852" y="76.06085439999936" width="8" height="4.2256485333352884" fill="#26a69a"/><line x1="1868" y1="66.02493866666612" x2="1868" y2="80.8147087999987" stroke="#26a69a" stroke-width="2"/><rect x="1864" y="69.45827786666689" width="8" height="7.658988266666711" fill="#26a69a"/><line x1="1880" y1="68.66596906666621" x2="1880" y2="92.96344906666798" stroke="#ef5350" stroke-width="2"/><rect x="1876" y="69.72238133333417" width="8" height="21.65644906666489" fill="#ef5350"/><line x1="1892" y1="72.8916176000015" x2="1892" y2="97.18909760000008" stroke="#26a69a" stroke-width="2"/><rect x="1888" y="76.85316320000015" width="8" height="15.053873599999747" fill="#26a69a"/><line x1="1904" y1="71.30699946666641" x2="1904" y2="86.09676959999888" stroke="#ef5350" stroke-width="2"/><rect x="1900" y="77.1172661333336" width="8" height="2.1128245333329687" fill="#ef5350"/><line x1="1916" y1="80.28650293333465" x2="1916" y2="105.11218880000035" stroke="#ef5350" stroke-width="2"/><rect x="1912" y="80.28650293333465" width="8" height="22.71286133333274" fill="#ef5350"/><line x1="1928" y1="70.77879306666546" x2="1928" y2="104.58398293333323" stroke="#26a69a" stroke-width="2"/><rect x="1924" y="82.3993269333339" width="8" height="21.128243733331374" fill="#26a69a"/><line x1="1940" y1="82.92753333333462" x2="1940" y2="101.94295253333325" stroke="#ef5350" stroke-width="2"/><rect x="1936" y="82.92753333333462" width="8" height="4.753854933333173" fill="#ef5350"/><rect x="75" y="952.4369054151834" width="10" height="67.56309458481655" fill="#ef5350" opacity="0.9"/><rect x="87" y="948.9782975024402" width="10" height="71.02170249755977" fill="#ef5350" opacity="0.9"/><rect x="99" y="965.424895955245" width="10" height="54.575104044754994" fill="#26a69a" opacity="0.9"/><rect x="111" y="977.6775316747685" width="10" height="42.32246832523151" fill="#ef5350" opacity="0.9"/><rect x="123" y="992.6676249629712" width="10" height="27.332375037028783" fill="#26a69a" opacity="0.9"/><rect x="135" y="989.3503333802769" width="10" height="30.64966661972312" fill="#ef5350" opacity="0.9"/><rect x="147" y="971.9440222221143" width="10" height="48.05597777788569" fill="#ef5350" opacity="0.9"/><rect x="159" y="979.0699345865647" width="10" height="40.93006541343527" fill="#ef5350" opacity="0.9"/><rect x="171" y="978.4066948004332" width="10" height="41.59330519956677" fill="#26a69a" opacity="0.9"/><rect x="183" y="992.6956696985737" width="10" height="27.304330301426262" fill="#26a69a" opacity="0.9"/><rect x="195" y="993.0584301746786" width="10" height="26.94156982532138" fill="#26a69a" opacity="0.9"/><rect x="207" y="989.0134323357015" width="10" height="30.98656766429849" fill="#26a69a" opacity="0.9"/><rect x="219" y="979.673806945382" width="10" height="40.32619305461799" fill="#26a69a" opacity="0.9"/><rect x="231" y="991.2876054409215" width="10" height="28.71239455907846" fill="#ef5350" opacity="0.9"/><rect x="243" y="992.1562638099077" width="10" height="27.843736190092272" fill="#ef5350" opacity="0.9"/><rect x="255" y="990.6964806891964" width="10" height="29.30351931080361" fill="#26a69a" opacity="0.9"/><rect x="267" y="996.1236833542961" width="10" height="23.876316645703923" fill="#ef5350" opacity="0.9"/><rect x="279" y="981.9844017851506" width="10" height="38.01559821484943" fill="#26a69a" opacity="0.9"/><rect x="291" y="992.6031584928201" width="10" height="27.396841507179943" fill="#26a69a" opacity="0.9"/><rect x="303" y="987.751783450935" width="10" height="32.24821654906498" fill="#26a69a" opacity="0.9"/><rect x="315" y="998.1385337095294" width="10" height="21.861466290470617" fill="#ef5350" opacity="0.9"/><rect x="327" y="1003.8968099416767" width="10" height="16.10319005832332" fill="#ef5350" opacity="0.9"/><rect x="339" y="997.2247123897029" width="10" height="22.77528761029714" fill="#ef5350" opacity="0.9"/><rect x="351" y="995.5070633883868" width="10" height="24.49293661161323" fill="#ef5350" opacity="0.9"/><rect x="363" y="995.4779260007479" width="10" height="24.522073999252143" fill="#ef5350" opacity="0.9"/><rect x="375" y="1000.5157803235221" width="10" height="19.484219676477892" fill="#ef5350" opacity="0.9"/><rect x="387" y="993.82255816551" width="10" height="26.17744183448997" fill="#26a69a" opacity="0.9"/><rect x="399" y="1002.626055623273" width="10" height="17.373944376726968" fill="#26a69a" opacity="0.9"/><rect x="411" y="995.7565522700453" width="10" height="24.24344772995471" fill="#26a69a" opacity="0.9"/><rect x="423" y="999.5699078772927" width="10" height="20.430092122707265" fill="#26a69a" opacity="0.9"/><rect x="435" y="1001.5505218020503" width="10" height="18.449478197949702" fill="#ef5350" opacity="0.9"/><rect x="447" y="998.4652366684311" width="10" height="21.53476333156891" fill="#ef5350" opacity="0.9"/><rect x="459" y="996.6175620747763" width="10" height="23.382437925223712" fill="#ef5350" opacity="0.9"/><rect x="471" y="1000.2051029278218" width="10" height="19.794897072178173" fill="#ef5350" opacity="0.9"/><rect x="483" y="1003.2310206341267" width="10" height="16.768979365873292" fill="#26a69a" opacity="0.9"/><rect x="495" y="1006.2263440834106" width="10" height="13.773655916589405" fill="#26a69a" opacity="0.9"/><rect x="507" y="995.9601497661724" width="10" height="24.039850233827565" fill="#ef5350" opacity="0.9"/><rect x="519" y="995.1628779969017" width="10" height="24.83712200309833" fill="#26a69a" opacity="0.9"/><rect x="531" y="1002.9848097085776" width="10" height="17.015190291422414" fill="#26a69a" opacity="0.9"/><rect x="543" y="1002.0396656970391" width="10" height="17.96033430296086" fill="#26a69a" opacity="0.9"/><rect x="555" y="1001.559263018342" width="10" height="18.440736981658006" fill="#ef5350" opacity="0.9"/><rect x="567" y="1002.4916594227883" width="10" height="17.508340577211698" fill="#26a69a" opacity="0.9"/><rect x="579" y="1005.0739604022903" width="10" height="14.926039597709746" fill="#26a69a" opacity="0.9"/><rect x="591" y="1000.8046046784932" width="10" height="19.195395321506794" fill="#26a69a" opacity="0.9"/><rect x="603" y="995.320948324843" width="10" height="24.679051675156984" fill="#26a69a" opacity="0.9"/><rect x="615" y="995.2043987742873" width="10" height="24.795601225712744" fill="#26a69a" opacity="0.9"/><rect x="627" y="988.8979754371823" width="10" height="31.102024562817746" fill="#26a69a" opacity="0.9"/><rect x="639" y="974.1071090369608" width="10" height="45.892890963039235" fill="#26a69a" opacity="0.9"/><rect x="651" y="1001.0912437293914" width="10" height="18.908756270608592" fill="#ef5350" opacity="0.9"/><rect x="663" y="996.067593883091" width="10" height="23.932406116908965" fill="#ef5350" opacity="0.9"/><rect x="675" y="1003.0711292194579" width="10" height="16.92887078054207" fill="#26a69a" opacity="0.9"/><rect x="687" y="999.4274988952073" width="10" height="20.57250110479265" fill="#ef5350" opacity="0.9"/><rect x="699" y="1004.5844522899558" width="10" height="15.415547710044166" fill="#ef5350" opacity="0.9"/><rect x="711" y="1004.5757110736641" width="10" height="15.424288926335862" fill="#26a69a" opacity="0.9"/><rect x="723" y="1002.3332248775016" width="10" height="17.666775122498393" fill="#26a69a" opacity="0.9"/><rect x="735" y="998.1574730114947" width="10" height="21.842526988505256" fill="#26a69a" opacity="0.9"/><rect x="747" y="986.6139684636341" width="10" height="33.38603153636586" fill="#ef5350" opacity="0.9"/><rect x="759" y="996.5341563026598" width="10" height="23.465843697340233" fill="#ef5350" opacity="0.9"/><rect x="771" y="998.0999266709077" width="10" height="21.900073329092265" fill="#26a69a" opacity="0.9"/><rect x="783" y="1000.9881702206186" width="10" height="19.0118297793814" fill="#26a69a" opacity="0.9"/><rect x="795" y="996.2711913792183" width="10" height="23.728808620781706" fill="#26a69a" opacity="0.9"/><rect x="807" y="999.938860048271" width="10" height="20.061139951729047" fill="#26a69a" opacity="0.9"/><rect x="819" y="1001.113460987466" width="10" height="18.886539012533945" fill="#ef5350" opacity="0.9"/><rect x="831" y="998.287134386488" width="10" height="21.712865613512008" fill="#26a69a" opacity="0.9"/><rect x="843" y="994.9556383273197" width="10" height="25.04436167268034" fill="#ef5350" opacity="0.9"/><rect x="855" y="997.8424250076486" width="10" height="22.157574992351442" fill="#26a69a" opacity="0.9"/><rect x="867" y="990.4539119371021" width="10" height="29.546088062897866" fill="#ef5350" opacity="0.9"/><rect x="879" y="995.945581072353" width="10" height="24.05441892764702" fill="#26a69a" opacity="0.9"/><rect x="891" y="996.2628143802721" width="10" height="23.73718561972794" fill="#ef5350" opacity="0.9"/><rect x="903" y="1000.3711860373638" width="10" height="19.628813962636173" fill="#ef5350" opacity="0.9"/><rect x="915" y="997.3532811126597" width="10" height="22.646718887340285" fill="#26a69a" opacity="0.9"/><rect x="927" y="995.0758300513304" width="10" height="24.9241699486696" fill="#ef5350" opacity="0.9"/><rect x="939" y="979.4778580135101" width="10" height="40.52214198648994" fill="#ef5350" opacity="0.9"/><rect x="951" y="984.537929594359" width="10" height="35.46207040564104" fill="#ef5350" opacity="0.9"/><rect x="963" y="987.1894318695033" width="10" height="32.81056813049668" fill="#ef5350" opacity="0.9"/><rect x="975" y="979.1937684840303" width="10" height="40.80623151596967" fill="#26a69a" opacity="0.9"/><rect x="987" y="960.5491183512123" width="10" height="59.450881648787686" fill="#ef5350" opacity="0.9"/><rect x="999" y="889.1006016870547" width="10" height="130.89939831294532" fill="#26a69a" opacity="0.9"/><rect x="1011" y="930.494995653673" width="10" height="89.50500434632704" fill="#ef5350" opacity="0.9"/><rect x="1023" y="964.5263717639289" width="10" height="55.473628236071136" fill="#ef5350" opacity="0.9"/><rect x="1035" y="943.7663472885233" width="10" height="76.23365271147668" fill="#26a69a" opacity="0.9"/><rect x="1047" y="945.3736384341568" width="10" height="74.62636156584324" fill="#26a69a" opacity="0.9"/><rect x="1059" y="969.3715551109406" width="10" height="50.62844488905944" fill="#26a69a" opacity="0.9"/><rect x="1071" y="975.1079783023587" width="10" height="44.892021697641326" fill="#ef5350" opacity="0.9"/><rect x="1083" y="897.9124761437639" width="10" height="122.08752385623609" fill="#ef5350" opacity="0.9"/><rect x="1095" y="952.2893973902613" width="10" height="67.71060260973866" fill="#26a69a" opacity="0.9"/><rect x="1107" y="977.3897999718339" width="10" height="42.610200028166105" fill="#ef5350" opacity="0.9"/><rect x="1119" y="987.436735447089" width="10" height="32.56326455291105" fill="#26a69a" opacity="0.9"/><rect x="1131" y="974.5110260731057" width="10" height="45.488973926894346" fill="#26a69a" opacity="0.9"/><rect x="1143" y="969.0801812345511" width="10" height="50.919818765448895" fill="#26a69a" opacity="0.9"/><rect x="1155" y="976.6457039350042" width="10" height="43.354296064995765" fill="#ef5350" opacity="0.9"/><rect x="1167" y="985.3027860198814" width="10" height="34.69721398011859" fill="#26a69a" opacity="0.9"/><rect x="1179" y="982.8257438532253" width="10" height="37.174256146774724" fill="#26a69a" opacity="0.9"/><rect x="1191" y="983.0300697840433" width="10" height="36.96993021595665" fill="#ef5350" opacity="0.9"/><rect x="1203" y="986.4675530907484" width="10" height="33.532446909251576" fill="#ef5350" opacity="0.9"/><rect x="1215" y="985.505290863972" width="10" height="34.49470913602795" fill="#ef5350" opacity="0.9"/><rect x="1227" y="989.0163460744654" width="10" height="30.983653925534554" fill="#ef5350" opacity="0.9"/><rect x="1239" y="988.9125441310017" width="10" height="31.08745586899829" fill="#ef5350" opacity="0.9"/><rect x="1251" y="985.755143962976" width="10" height="34.244856037023965" fill="#ef5350" opacity="0.9"/><rect x="1263" y="977.3464581077209" width="10" height="42.65354189227912" fill="#26a69a" opacity="0.9"/><rect x="1275" y="991.4693498963195" width="10" height="28.5306501036805" fill="#ef5350" opacity="0.9"/><rect x="1287" y="999.5990452649316" width="10" height="20.400954735068353" fill="#26a69a" opacity="0.9"/><rect x="1299" y="983.1269515979429" width="10" height="36.873048402057066" fill="#26a69a" opacity="0.9"/><rect x="1311" y="989.5003909266175" width="10" height="30.499609073382544" fill="#26a69a" opacity="0.9"/><rect x="1323" y="987.1490037441544" width="10" height="32.850996255845644" fill="#ef5350" opacity="0.9"/><rect x="1335" y="989.4905570582894" width="10" height="30.50944294171063" fill="#ef5350" opacity="0.9"/><rect x="1347" y="991.079273119303" width="10" height="28.920726880696975" fill="#26a69a" opacity="0.9"/><rect x="1359" y="996.1145779206589" width="10" height="23.885422079341083" fill="#ef5350" opacity="0.9"/><rect x="1371" y="998.5817862189868" width="10" height="21.41821378101315" fill="#ef5350" opacity="0.9"/><rect x="1383" y="991.1298993303257" width="10" height="28.870100669674343" fill="#26a69a" opacity="0.9"/><rect x="1395" y="989.653362211722" width="10" height="30.34663778827803" fill="#ef5350" opacity="0.9"/><rect x="1407" y="992.9899573137271" width="10" height="27.010042686272868" fill="#26a69a" opacity="0.9"/><rect x="1419" y="989.3190106885651" width="10" height="30.680989311434928" fill="#26a69a" opacity="0.9"/><rect x="1431" y="998.2008148756076" width="10" height="21.799185124392352" fill="#ef5350" opacity="0.9"/><rect x="1443" y="997.3591085901875" width="10" height="22.640891409812525" fill="#ef5350" opacity="0.9"/><rect x="1455" y="996.902380038947" width="10" height="23.097619961053056" fill="#26a69a" opacity="0.9"/><rect x="1467" y="1000.6417995250606" width="10" height="19.358200474939395" fill="#ef5350" opacity="0.9"/><rect x="1479" y="999.9505150033265" width="10" height="20.049484996673527" fill="#ef5350" opacity="0.9"/><rect x="1491" y="1002.1026752978083" width="10" height="17.897324702191668" fill="#ef5350" opacity="0.9"/><rect x="1503" y="1003.5810335031396" width="10" height="16.418966496860435" fill="#26a69a" opacity="0.9"/><rect x="1515" y="1004.483564085256" width="10" height="15.516435914743965" fill="#26a69a" opacity="0.9"/><rect x="1527" y="1001.5782023203074" width="10" height="18.421797679692645" fill="#26a69a" opacity="0.9"/><rect x="1539" y="998.2226679163368" width="10" height="21.77733208366317" fill="#26a69a" opacity="0.9"/><rect x="1551" y="995.9626992875909" width="10" height="24.037300712409092" fill="#ef5350" opacity="0.9"/><rect x="1563" y="1001.1109114660477" width="10" height="18.889088533952304" fill="#ef5350" opacity="0.9"/><rect x="1575" y="1002.6697617047314" width="10" height="17.3302382952686" fill="#ef5350" opacity="0.9"/><rect x="1587" y="1001.5162853715746" width="10" height="18.483714628425446" fill="#ef5350" opacity="0.9"/><rect x="1599" y="1003.4331612608719" width="10" height="16.566838739128116" fill="#26a69a" opacity="0.9"/><rect x="1611" y="998.5748660894227" width="10" height="21.4251339105773" fill="#ef5350" opacity="0.9"/><rect x="1623" y="1004.6004778531573" width="10" height="15.399522146842742" fill="#26a69a" opacity="0.9"/><rect x="1635" y="1005.3533151062786" width="10" height="14.646684893721385" fill="#26a69a" opacity="0.9"/><rect x="1647" y="996.9912490712458" width="10" height="23.00875092875424" fill="#ef5350" opacity="0.9"/><rect x="1659" y="1003.261979108493" width="10" height="16.73802089150695" fill="#26a69a" opacity="0.9"/><rect x="1671" y="995.2987310667684" width="10" height="24.70126893323163" fill="#26a69a" opacity="0.9"/><rect x="1683" y="995.0751016166394" width="10" height="24.92489838336064" fill="#ef5350" opacity="0.9"/><rect x="1695" y="998.8899140932688" width="10" height="21.11008590673123" fill="#26a69a" opacity="0.9"/><rect x="1707" y="1002.4373910383108" width="10" height="17.562608961689193" fill="#ef5350" opacity="0.9"/><rect x="1719" y="1000.5077675419215" width="10" height="19.492232458078547" fill="#ef5350" opacity="0.9"/><rect x="1731" y="1002.8755445049316" width="10" height="17.124455495068446" fill="#26a69a" opacity="0.9"/><rect x="1743" y="991.564774840837" width="10" height="28.435225159162997" fill="#ef5350" opacity="0.9"/><rect x="1755" y="995.4746480446385" width="10" height="24.525351955361543" fill="#26a69a" opacity="0.9"/><rect x="1767" y="997.7080288071639" width="10" height="22.29197119283606" fill="#26a69a" opacity="0.9"/><rect x="1779" y="1001.9908605727439" width="10" height="18.00913942725606" fill="#ef5350" opacity="0.9"/><rect x="1791" y="994.3011397574799" width="10" height="25.69886024252014" fill="#ef5350" opacity="0.9"/><rect x="1803" y="987.1384414411352" width="10" height="32.86155855886477" fill="#26a69a" opacity="0.9"/><rect x="1815" y="995.9907440231933" width="10" height="24.009255976806685" fill="#26a69a" opacity="0.9"/><rect x="1827" y="994.7684306117394" width="10" height="25.231569388260596" fill="#ef5350" opacity="0.9"/><rect x="1839" y="985.3067924106817" width="10" height="34.69320758931826" fill="#ef5350" opacity="0.9"/><rect x="1851" y="990.7281675982537" width="10" height="29.271832401746337" fill="#26a69a" opacity="0.9"/><rect x="1863" y="993.6335293632023" width="10" height="26.366470636797658" fill="#26a69a" opacity="0.9"/><rect x="1875" y="988.3177772058217" width="10" height="31.6822227941783" fill="#ef5350" opacity="0.9"/><rect x="1887" y="978.981793988957" width="10" height="41.01820601104305" fill="#26a69a" opacity="0.9"/><rect x="1899" y="986.8966011237319" width="10" height="33.1033988762681" fill="#ef5350" opacity="0.9"/><rect x="1911" y="963.6165568349027" width="10" height="56.38344316509733" fill="#ef5350" opacity="0.9"/><rect x="1923" y="947.4897412114354" width="10" height="72.51025878856456" fill="#26a69a" opacity="0.9"/><rect x="1935" y="860.0" width="10" height="160.0" fill="#ef5350" opacity="0.9"/><rect x="1004" y="142.08661493333238" width="12" height="397.21097599999973" fill="#00ff00" opacity="0.50"/><polyline points="320,723.5230458882506,332,718.6044051750832,344,714.4560385107889,356,713.4192428176963,368,713.0295178001386,380,713.1346880413972,392,711.6200711485635,404,710.0535126518753,416,705.1097457834416,428,700.028119200891,440,696.0894570293779,452,694.3872031662644,464,695.9156945472539,476,696.8961726030709,488,695.3686153900799,500,693.6344024195963,512,694.8774212113798,524,695.5040343531527,536,695.1151686052344,548,694.2602842301343,560,694.1910922082176,572,693.9272685693383,584,691.7266626738456,596,687.9246459874472,608,682.271291106102,620,676.9551295912364,632,671.3856585063573,644,664.2891247819413,656,659.4782223328668,668,655.4776384662424,680,651.204093164694,692,647.5387735109114,704,645.2789441098715,716,641.8257870200432,728,637.0917310625798,740,630.3435758502686,752,624.9876516994482,764,621.4044796391833,776,617.3073712544981,788,612.4937461572457,800,606.1766532279823,812,600.3102721332531,824,595.6565634729457,836,589.9369049326651,848,584.6613650851092,860,578.5300133881144,872,573.8880960749582,884,566.5693349757566,896,562.4125604701294,908,558.9535012761493,920,554.0631893577847,932,550.1416748411702,944,549.5113477134389,956,549.3434944581895,968,550.952314160583,980,551.703638196083,992,554.1440944948681,1004,552.7301417747216,1016,516.086196183478,1028,483.6867302866388,1040,449.6442256879103,1052,415.9261546192223,1064,384.0107788269173,1076,356.040458811655,1088,338.0282532867356,1100,320.7756944086335,1112,307.8827248078111,1124,295.6139930229408,1136,284.4131011921854,1148,272.8704113770558,1160,263.68465887765217,1172,253.05969428613025,1184,239.87495179538803,1196,228.39864715455712,1208,222.74402602872522,1220,219.2377111688469,1232,216.81991117181497,1244,216.0409274284666,1256,215.43674325432528,1268,211.82147460153226,1280,209.15418135059247,1292,204.42687031402784,1304,196.22596274126408,1316,188.40365126749327,1328,181.57784854360523,1340,175.70395434580246,1352,168.02512755731186,1364,162.28494580899678,1376,157.14175340814108,1388,151.2307552803819,1400,147.54278564732886,1412,144.10544052536056,1424,140.24088149119655,1436,137.1468184158433,1448,134.39773338576435,1460,129.84794696807205,1472,126.63696966952557,1484,124.73790655179369,1496,125.08222559765272,1508,125.1925309693039,1520,124.68866701667139,1532,123.22668323730795,1544,120.39477577978687,1556,118.18471119123694,1568,116.78879304604072,1580,115.67673549879748,1592,115.22394697510208,1604,113.90878499017163,1616,114.17773143555075,1628,113.36465174327407,1640,111.7235120851849,1652,111.39569432469216,1664,109.64024239535627,1676,106.24098405929237,1688,103.26607530443653,1700,99.36716298972897,1712,96.44323975896145,1724,93.94870142001002,1736,91.23899007207001,1748,89.793453341396,1760,88.38497608348314,1772,86.70819674855011,1784,85.44263738837196,1796,84.85096627201835,1808,83.10831658262032,1820,81.43102283824192,1832,80.56744082825094,1844,80.54068483826086,1856,80.11403432033148,1868,79.09920037236282,1880,80.26868894642269,1892,79.9434007800968,1904,79.87546648358148,1916,82.07774246292195,1928,82.10836955534126,1940,82.63913324213411" fill="none" stroke="#0090ff" stroke-width="2"/><line x1="80" y1="50" x2="80" y2="850" stroke="#666666" stroke-width="0.5" stroke-dasharray="4,4"/><line x1="152" y1="50" x2="152" y2="850" stroke="#666666" stroke-width="0.5" stroke-dasharray="4,4"/><line x1="224" y1="50" x2="224" y2="850" stroke="#666666" stroke-width="0.5" stroke-dasharray="4,4"/><line x1="296" y1="50" x2="296" y2="850" stroke="#666666" stroke-width="0.5" stroke-dasharray="4,4"/><line x1="368" y1="50" x2="368" y2="850" stroke="#666666" stroke-width="0.5" stroke-dasharray="4,4"/><line x1="440" y1="50" x2="440" y2="850" stroke="#666666" stroke-width="0.5" stroke-dasharray="4,4"/><line x1="512" y1="50" x2="512" y2="850" stroke="#666666" stroke-width="0.5" stroke-dasharray="4,4"/><line x1="584" y1="50" x2="584" y2="850" stroke="#666666" stroke-width="0.5" stroke-dasharray="4,4"/><line x1="656" y1="50" x2="656" y2="850" stroke="#666666" stroke-width="0.5" stroke-dasharray="4,4"/><line x1="728" y1="50" x2="728" y2="850" stroke="#666666" stroke-width="0.5" stroke-dasharray="4,4"/><line x1="800" y1="50" x2="800" y2="850" stroke="#666666" stroke-width="0.5" stroke-dasharray="4,4"/><line x1="872" y1="50" x2="872" y2="850" stroke="#666666" stroke-width="0.5" stroke-dasharray="4,4"/><line x1="944" y1="50" x2="944" y2="850" stroke="#666666" stroke-width="0.5" stroke-dasharray="4,4"/><line x1="1016" y1="50" x2="1016" y2="850" stroke="#666666" stroke-width="0.5" stroke-dasharray="4,4"/><line x1="1088" y1="50" x2="1088" y2="850" stroke="#666666" stroke-width="0.5" stroke-dasharray="4,4"/><line x1="1160" y1="50" x2="1160" y2="850" stroke="#666666" stroke-width="0.5" stroke-dasharray="4,4"/><line x1="1232" y1="50" x2="1232" y2="850" stroke="#666666" stroke-width="0.5" stroke-dasharray="4,4"/><line x1="1304" y1="50" x2="1304" y2="850" stroke="#666666" stroke-width="0.5" stroke-dasharray="4,4"/><line x1="1376" y1="50" x2="1376" y2="850" stroke="#666666" stroke-width="0.5" stroke-dasharray="4,4"/><line x1="1448" y1="50" x2="1448" y2="850" stroke="#666666" stroke-width="0.5" stroke-dasharray="4,4"/><line x1="1520" y1="50" x2="1520" y2="850" stroke="#666666" stroke-width="0.5" stroke-dasharray="4,4"/><line x1="1592" y1="50" x2="1592" y2="850" stroke="#666666" stroke-width="0.5" stroke-dasharray="4,4"/><line x1="1664" y1="50" x2="1664" y2="850" stroke="#666666" stroke-width="0.5" stroke-dasharray="4,4"/><line x1="1736" y1="50" x2="1736" y2="850" stroke="#666666" stroke-width="0.5" stroke-dasharray="4,4"/><line x1="1808" y1="50" x2="1808" y2="850" stroke="#666666" stroke-width="0.5" stroke-dasharray="4,4"/><line x1="1880" y1="50" x2="1880" y2="850" stroke="#666666" stroke-width="0.5" stroke-dasharray="4,4"/><text x="80" y="1040" text-anchor="middle" font-size="20" fill="black">09:30</text><text x="152" y="1040" text-anchor="middle" font-size="20" fill="black">10:00</text><text x="224" y="1040" text-anchor="middle" font-size="20" fill="black">10:30</text><text x="296" y="1040" text-anchor="middle" font-size="20" fill="black">11:00</text><text x="368" y="1040" text-anchor="middle" font-size="20" fill="black">11:30</text><text x="440" y="1040" text-anchor="middle" font-size="20" fill="black">12:00</text><text x="512" y="1040" text-anchor="middle" font-size="20" fill="black">12:30</text><text x="584" y="1040" text-anchor="middle" font-size="20" fill="black">13:00</text><text x="656" y="1040" text-anchor="middle" font-size="20" fill="black">13:30</text><text x="728" y="1040" text-anchor="middle" font-size="20" fill="black">14:00</text><text x="800" y="1040" text-anchor="middle" font-size="20" fill="black">14:30</text><text x="872" y="1040" text-anchor="middle" font-size="20" fill="black">15:00</text><text x="944" y="1040" text-anchor="middle" font-size="20" fill="black">15:30</text><text x="1016" y="1040" text-anchor="middle" font-size="20" fill="black">09:30</text><text x="1088" y="1040" text-anchor="middle" font-size="20" fill="black">10:00</text><text x="1160" y="1040" text-anchor="middle" font-size="20" fill="black">10:30</text><text x="1232" y="1040" text-anchor="middle" font-size="20" fill="black">11:00</text><text x="1304" y="1040" text-anchor="middle" font-size="20" fill="black">11:30</text><text x="1376" y="1040" text-anchor="middle" font-size="20" fill="black">12:00</text><text x="1448" y="1040" text-anchor="middle" font-size="20" fill="black">12:30</text><text x="1520" y="1040" text-anchor="middle" font-size="20" fill="black">13:00</text><text x="1592" y="1040" text-anchor="middle" font-size="20" fill="black">13:30</text><text x="1664" y="1040" text-anchor="middle" font-size="20" fill="black">14:00</text><text x="1736" y="1040" text-anchor="middle" font-size="20" fill="black">14:30</text><text x="1808" y="1040" text-anchor="middle" font-size="20" fill="black">15:00</text><text x="1880" y="1040" text-anchor="middle" font-size="20" fill="black">15:30</text><text x="1942" y="50" text-anchor="end" font-size="40" fill="#26a69a" font-weight="bold"> +0.24% (Fri)</text></svg>