<svg xmlns="http://www.w3.org/2000/svg" width="1560" height="1050"><rect width="100%" height="100%" fill="white"/><text x="42" y="854.0" text-anchor="end" font-size="20" fill="black">477</text><text x="42" y="781.2727272727273" text-anchor="end" font-size="20" fill="black">478</text><text x="42" y="708.5454545454545" text-anchor="end" font-size="20" fill="black">479</text><text x="42" y="635.8181818181819" text-anchor="end" font-size="20" fill="black">480</text><text x="42" y="563.090909090909" text-anchor="end" font-size="20" fill="black">481</text><text x="42" y="490.3636363636364" text-anchor="end" font-size="20" fill="black">482</text><text x="42" y="417.6363636363637" text-anchor="end" font-size="20" fill="black">483</text><text x="42" y="344.90909090909093" text-anchor="end" font-size="20" fill="black">484</text><text x="42" y="272.18181818181813" text-anchor="end" font-size="20" fill="black">485</text><text x="42" y="199.45454545454538" text-anchor="end" font-size="20" fill="black">486</text><text x="42" y="126.72727272727275" text-anchor="end" font-size="20" fill="black">487</text><text x="42" y="54.0" text-anchor="end" font-size="20" fill="black">488</text><line x1="80" y1="785.533236363637" x2="80" y2="892.3041520000011" stroke="#26a69a" stroke-width="2"/><rect x="76" y="812.2259650909076" width="8" height="70.69966036363599" fill="#26a69a"/><line x1="92" y1="755.2333818181813" x2="92" y2="843.9686698181835" stroke="#26a69a" stroke-width="2"/><rect x="88" y="784.8118109090923" width="8" height="29.57842981818021" fill="#26a69a"/><line x1="104" y1="706.1764749090922" x2="104" y2="800.6831636363627" stroke="#26a69a" stroke-width="2"/><rect x="100" y="729.9835032727267" width="8" height="52.66403272727405" fill="#26a69a"/><line x1="116" y1="683.0908712727291" x2="116" y2="746.5762807272727" stroke="#ef5350" stroke-width="2"/><rect x="112" y="729.262077818182" width="8" height="17.31420290909068" fill="#ef5350"/><line x1="128" y1="720.6049767272733" x2="128" y2="777.5975599999997" stroke="#26a69a" stroke-width="2"/><rect x="124" y="727.0978029090904" width="8" height="18.035627636366144" fill="#26a69a"/><line x1="140" y1="718.4407018181818" x2="140" y2="785.533236363637" stroke="#ef5350" stroke-width="2"/><rect x="136" y="727.8192276363618" width="8" height="18.035627636366144" fill="#ef5350"/><line x1="152" y1="719.8835520000019" x2="152" y2="795.6331876363616" stroke="#26a69a" stroke-width="2"/><rect x="148" y="726.3763774545457" width="8" height="17.31420290909068" fill="#26a69a"/><line x1="164" y1="696.7979483636348" x2="164" y2="758.1190821818175" stroke="#ef5350" stroke-width="2"/><rect x="160" y="726.3763774545457" width="8" height="24.528453818183266" fill="#ef5350"/><line x1="176" y1="750.904831272729" x2="176" y2="819.4402160000002" stroke="#ef5350" stroke-width="2"/><rect x="172" y="753.0691069090898" width="8" height="15.871352000001252" fill="#ef5350"/><line x1="188" y1="744.4120050909078" x2="188" y2="797.7974632727265" stroke="#26a69a" stroke-width="2"/><rect x="184" y="745.854855272728" width="8" height="23.80702909090769" fill="#26a69a"/><line x1="200" y1="740.0834545454555" x2="200" y2="817.2759410909086" stroke="#ef5350" stroke-width="2"/><rect x="196" y="748.0191309090928" width="8" height="57.71400872727099" fill="#ef5350"/><line x1="212" y1="747.297705454544" x2="212" y2="805.0117141818191" stroke="#26a69a" stroke-width="2"/><rect x="208" y="750.1834065454535" width="8" height="54.828307636365594" fill="#26a69a"/><line x1="224" y1="706.8978996363636" x2="224" y2="752.3476814545451" stroke="#26a69a" stroke-width="2"/><rect x="220" y="712.6693010909094" width="8" height="38.95695563636434" fill="#26a69a"/><line x1="236" y1="693.9122479999985" x2="236" y2="719.1621265454531" stroke="#26a69a" stroke-width="2"/><rect x="232" y="696.7979483636348" width="8" height="12.264226909093736" fill="#26a69a"/><line x1="248" y1="667.9409439999993" x2="248" y2="724.9335272727255" stroke="#ef5350" stroke-width="2"/><rect x="244" y="698.2407985454549" width="8" height="18.03562763636205" fill="#ef5350"/><line x1="260" y1="685.25514690909" x2="260" y2="745.854855272728" stroke="#26a69a" stroke-width="2"/><rect x="256" y="698.9622239999997" width="8" height="22.364178181818374" fill="#26a69a"/><line x1="272" y1="654.9552923636384" x2="272" y2="702.5693490909073" stroke="#26a69a" stroke-width="2"/><rect x="268" y="660.0052683636353" width="8" height="36.79267999999945" fill="#26a69a"/><line x1="284" y1="639.8053650909085" x2="284" y2="664.3338189090916" stroke="#ef5350" stroke-width="2"/><rect x="280" y="659.2838429090906" width="8" height="4.328550545456437" fill="#ef5350"/><line x1="296" y1="642.6910654545446" x2="296" y2="667.2195192727279" stroke="#26a69a" stroke-width="2"/><rect x="292" y="650.6267418181819" width="8" height="10.82137672727356" fill="#26a69a"/><line x1="308" y1="628.9839883636349" x2="308" y2="649.1838916363617" stroke="#26a69a" stroke-width="2"/><rect x="304" y="637.6410901818169" width="8" height="10.821376000000214" fill="#26a69a"/><line x1="320" y1="633.3125389090914" x2="320" y2="675.1551956363652" stroke="#ef5350" stroke-width="2"/><rect x="316" y="638.3625149090924" width="8" height="15.14992727272579" fill="#ef5350"/><line x1="332" y1="641.9696407272733" x2="332" y2="672.2694945454557" stroke="#ef5350" stroke-width="2"/><rect x="328" y="654.9552923636384" width="8" height="15.87135199999716" fill="#ef5350"/><line x1="344" y1="635.4768145454563" x2="344" y2="706.8978996363636" stroke="#26a69a" stroke-width="2"/><rect x="340" y="635.4768145454563" width="8" height="34.628405090907904" fill="#26a69a"/><line x1="356" y1="633.3125389090914" x2="356" y2="650.6267418181819" stroke="#ef5350" stroke-width="2"/><rect x="352" y="635.4768145454563" width="8" height="2.164275636360685" fill="#ef5350"/><line x1="368" y1="604.4555352727292" x2="368" y2="640.5267905454531" stroke="#26a69a" stroke-width="2"/><rect x="364" y="635.4768145454563" width="8" height="2" fill="#26a69a"/><line x1="380" y1="592.1913083636355" x2="380" y2="644.1339156363648" stroke="#26a69a" stroke-width="2"/><rect x="376" y="595.0770087272717" width="8" height="38.23553018181963" fill="#26a69a"/><line x1="392" y1="585.6984821818183" x2="392" y2="617.4411869090901" stroke="#ef5350" stroke-width="2"/><rect x="388" y="593.6341585454556" width="8" height="18.757052363633306" fill="#ef5350"/><line x1="404" y1="609.5055105454528" x2="404" y2="631.8696887272712" stroke="#ef5350" stroke-width="2"/><rect x="400" y="613.8340610909091" width="8" height="10.099951999998098" fill="#ef5350"/><line x1="416" y1="613.8340610909091" x2="416" y2="636.1982400000009" stroke="#ef5350" stroke-width="2"/><rect x="412" y="622.4911629090911" width="8" height="12.264226181816298" fill="#ef5350"/><line x1="428" y1="631.8696887272712" x2="428" y2="698.9622239999997" stroke="#ef5350" stroke-width="2"/><rect x="424" y="636.9196647272722" width="8" height="53.38545745454542" fill="#ef5350"/><line x1="440" y1="685.25514690909" x2="440" y2="722.0478269090894" stroke="#26a69a" stroke-width="2"/><rect x="436" y="687.4194218181815" width="8" height="3.6071258181808616" fill="#26a69a"/><line x1="452" y1="688.8622720000017" x2="452" y2="707.6193250909083" stroke="#ef5350" stroke-width="2"/><rect x="448" y="690.3051221818176" width="8" height="16.592777454545967" fill="#ef5350"/><line x1="464" y1="708.3407498181838" x2="464" y2="740.8048800000001" stroke="#ef5350" stroke-width="2"/><rect x="460" y="708.3407498181838" width="8" height="15.871352727270391" fill="#ef5350"/><line x1="476" y1="696.7979483636348" x2="476" y2="726.3763774545457" stroke="#26a69a" stroke-width="2"/><rect x="472" y="696.7979483636348" width="8" height="29.57842909091096" fill="#26a69a"/><line x1="488" y1="696.0765236363634" x2="488" y2="712.6693010909094" stroke="#ef5350" stroke-width="2"/><rect x="484" y="698.2407985454549" width="8" height="9.378526545453383" fill="#ef5350"/><line x1="500" y1="665.055243636363" x2="500" y2="711.2264509090892" stroke="#26a69a" stroke-width="2"/><rect x="496" y="672.2694945454557" width="8" height="38.235530909088766" fill="#26a69a"/><line x1="512" y1="660.7266930909108" x2="512" y2="678.7623207272728" stroke="#26a69a" stroke-width="2"/><rect x="508" y="665.055243636363" width="8" height="6.492826181817236" fill="#26a69a"/><line x1="524" y1="660.0052683636353" x2="524" y2="682.3694465454537" stroke="#ef5350" stroke-width="2"/><rect x="520" y="667.2195192727279" width="8" height="5.049975272727806" fill="#ef5350"/><line x1="536" y1="652.7910167272735" x2="536" y2="674.4337701818164" stroke="#26a69a" stroke-width="2"/><rect x="532" y="669.3837941818194" width="8" height="2.1642756363607987" fill="#26a69a"/><line x1="548" y1="643.4124909090893" x2="548" y2="670.1052196363642" stroke="#26a69a" stroke-width="2"/><rect x="544" y="643.4124909090893" width="8" height="25.249878545454635" fill="#26a69a"/><line x1="560" y1="639.8053650909085" x2="560" y2="654.2338669090896" stroke="#26a69a" stroke-width="2"/><rect x="556" y="641.2482152727287" width="8" height="2" fill="#26a69a"/><line x1="572" y1="633.3125389090914" x2="572" y2="649.1838916363617" stroke="#26a69a" stroke-width="2"/><rect x="568" y="636.9196647272722" width="8" height="4.328550545456437" fill="#26a69a"/><line x1="584" y1="618.1626123636347" x2="584" y2="644.8553410909095" stroke="#26a69a" stroke-width="2"/><rect x="580" y="619.6054625454549" width="8" height="14.42850181818119" fill="#26a69a"/><line x1="596" y1="573.4342552727288" x2="596" y2="619.6054625454549" stroke="#26a69a" stroke-width="2"/><rect x="592" y="574.1556807272734" width="8" height="45.449781818181464" fill="#26a69a"/><line x1="608" y1="540.9701258181816" x2="608" y2="574.1556807272734" stroke="#26a69a" stroke-width="2"/><rect x="604" y="552.5129272727265" width="8" height="20.92132800000229" fill="#26a69a"/><line x1="620" y1="530.148749090908" x2="620" y2="556.8414778181829" stroke="#26a69a" stroke-width="2"/><rect x="616" y="539.5272756363656" width="8" height="12.26422690908953" fill="#26a69a"/><line x1="632" y1="531.5915992727282" x2="632" y2="548.9058021818189" stroke="#ef5350" stroke-width="2"/><rect x="628" y="539.5272756363656" width="8" height="2" fill="#ef5350"/><line x1="644" y1="535.1987250909092" x2="644" y2="554.6772029090913" stroke="#ef5350" stroke-width="2"/><rect x="640" y="536.6415752727294" width="8" height="12.985651636360899" fill="#ef5350"/><line x1="656" y1="538.0844254545455" x2="656" y2="563.334304" stroke="#26a69a" stroke-width="2"/><rect x="652" y="545.2986763636379" width="8" height="3.6071258181809753" fill="#26a69a"/><line x1="668" y1="542.4129760000018" x2="668" y2="573.4342552727288" stroke="#26a69a" stroke-width="2"/><rect x="664" y="543.1344014545464" width="8" height="3.60712509090763" fill="#26a69a"/><line x1="680" y1="522.9344981818197" x2="680" y2="543.8558261818177" stroke="#26a69a" stroke-width="2"/><rect x="676" y="534.4772996363645" width="8" height="8.6571018181819" fill="#26a69a"/><line x1="692" y1="526.5416240000004" x2="692" y2="546.0201018181826" stroke="#ef5350" stroke-width="2"/><rect x="688" y="533.755874909089" width="8" height="2.8857003636403533" fill="#ef5350"/><line x1="704" y1="502.7345949090928" x2="704" y2="535.9201498181806" stroke="#26a69a" stroke-width="2"/><rect x="700" y="507.7845709090897" width="8" height="28.13557890909084" fill="#26a69a"/><line x1="716" y1="482.5346923636351" x2="716" y2="514.2773970909109" stroke="#26a69a" stroke-width="2"/><rect x="712" y="494.07749381817996" width="8" height="12.985652363638394" fill="#26a69a"/><line x1="728" y1="480.3704167272744" x2="728" y2="502.01317018181726" stroke="#26a69a" stroke-width="2"/><rect x="724" y="480.3704167272744" width="8" height="14.428502545454364" fill="#26a69a"/><line x1="740" y1="474.59901600000194" x2="740" y2="491.19179345454376" stroke="#ef5350" stroke-width="2"/><rect x="736" y="483.97754254545526" width="8" height="5.7714007272724075" fill="#ef5350"/><line x1="752" y1="458.72766400000063" x2="752" y2="489.0275185454563" stroke="#26a69a" stroke-width="2"/><rect x="748" y="475.3204414545466" width="8" height="13.707077090909706" fill="#26a69a"/><line x1="764" y1="477.48471636363814" x2="764" y2="491.91321890909256" stroke="#ef5350" stroke-width="2"/><rect x="760" y="477.48471636363814" width="8" height="11.54280218181816" fill="#ef5350"/><line x1="776" y1="464.4990647272731" x2="776" y2="491.91321890909256" stroke="#26a69a" stroke-width="2"/><rect x="772" y="465.22048945454446" width="8" height="22.364178909091663" fill="#26a69a"/><line x1="788" y1="458.72766400000063" x2="788" y2="476.7632916363627" stroke="#ef5350" stroke-width="2"/><rect x="784" y="466.66333963636464" width="8" height="2.164275636360742" fill="#ef5350"/><line x1="800" y1="468.106190545454" x2="800" y2="491.91321890909256" stroke="#ef5350" stroke-width="2"/><rect x="796" y="468.106190545454" width="8" height="22.364178181818374" fill="#ef5350"/><line x1="812" y1="469.5490407272742" x2="812" y2="490.4703687272724" stroke="#26a69a" stroke-width="2"/><rect x="808" y="476.7632916363627" width="8" height="13.707077090909706" fill="#26a69a"/><line x1="824" y1="465.9419149090891" x2="824" y2="483.97754254545526" stroke="#26a69a" stroke-width="2"/><rect x="820" y="465.9419149090891" width="8" height="10.099951272728845" fill="#26a69a"/><line x1="836" y1="445.0205869090909" x2="836" y2="470.27046545454556" stroke="#26a69a" stroke-width="2"/><rect x="832" y="455.8419636363645" width="8" height="9.37852581817998" fill="#26a69a"/><line x1="848" y1="440.69203636363454" x2="848" y2="457.28481381818045" stroke="#26a69a" stroke-width="2"/><rect x="844" y="451.51341309090805" width="8" height="5.049975272727806" fill="#26a69a"/><line x1="860" y1="440.69203636363454" x2="860" y2="472.4347410909104" stroke="#ef5350" stroke-width="2"/><rect x="856" y="452.59555054545586" width="8" height="17.674914909089694" fill="#ef5350"/><line x1="872" y1="451.51341309090805" x2="872" y2="481.81326690909043" stroke="#26a69a" stroke-width="2"/><rect x="868" y="472.4347410909104" width="8" height="2" fill="#26a69a"/><line x1="884" y1="463.4169272727253" x2="884" y2="482.5346923636351" stroke="#26a69a" stroke-width="2"/><rect x="880" y="473.15616581818176" width="8" height="2" fill="#26a69a"/><line x1="896" y1="465.22048945454446" x2="896" y2="481.09184218181906" stroke="#26a69a" stroke-width="2"/><rect x="892" y="469.5490407272742" width="8" height="3.9678378181798735" fill="#26a69a"/><line x1="908" y1="470.27046545454556" x2="908" y2="488.3060930909075" stroke="#ef5350" stroke-width="2"/><rect x="904" y="470.27046545454556" width="8" height="3.6071258181808616" fill="#ef5350"/><line x1="920" y1="464.4990647272731" x2="920" y2="477.48471636363814" stroke="#26a69a" stroke-width="2"/><rect x="916" y="469.5490407272742" width="8" height="5.7714007272724075" fill="#26a69a"/><line x1="932" y1="458.00623854545603" x2="932" y2="473.8775912727264" stroke="#26a69a" stroke-width="2"/><rect x="928" y="463.77763927272844" width="8" height="6.492826181817122" fill="#26a69a"/><line x1="944" y1="450.070562909092" x2="944" y2="470.9918909090902" stroke="#26a69a" stroke-width="2"/><rect x="940" y="456.56338836363585" width="8" height="7.935676363637242" fill="#26a69a"/><line x1="956" y1="450.7919876363634" x2="956" y2="467.3847650909093" stroke="#ef5350" stroke-width="2"/><rect x="952" y="458.72766400000063" width="8" height="8.657101090908668" fill="#ef5350"/><line x1="968" y1="458.00623854545603" x2="968" y2="481.09184218181906" stroke="#26a69a" stroke-width="2"/><rect x="964" y="463.4169272727253" width="8" height="3.246412363639365" fill="#26a69a"/><line x1="980" y1="457.28481381818045" x2="980" y2="486.14181818182016" stroke="#ef5350" stroke-width="2"/><rect x="976" y="463.77763927272844" width="8" height="19.47847781818217" fill="#ef5350"/><line x1="992" y1="442.1348865454547" x2="992" y2="491.91321890909256" stroke="#26a69a" stroke-width="2"/><rect x="988" y="445.7420116363623" width="8" height="36.792680727272796" fill="#26a69a"/><line x1="1004" y1="404.6207810909106" x2="1004" y2="450.7919876363634" stroke="#26a69a" stroke-width="2"/><rect x="1000" y="406.78505599999795" width="8" height="38.95695563636434" fill="#26a69a"/><line x1="1016" y1="370.713800727274" x2="1016" y2="464.4990647272731" stroke="#26a69a" stroke-width="2"/><rect x="1012" y="381.5351774545475" width="8" height="82.24246181818091" fill="#26a69a"/><line x1="1028" y1="381.5351774545475" x2="1028" y2="429.1492341818164" stroke="#ef5350" stroke-width="2"/><rect x="1024" y="381.5351774545475" width="8" height="19.47847781817802" fill="#ef5350"/><line x1="1040" y1="385.1423032727284" x2="1040" y2="423.3778334545439" stroke="#26a69a" stroke-width="2"/><rect x="1036" y="387.30657818181993" width="8" height="12.985652363634244" fill="#26a69a"/><line x1="1052" y1="370.713800727274" x2="1052" y2="405.342205818182" stroke="#26a69a" stroke-width="2"/><rect x="1048" y="374.32092654545494" width="8" height="17.314202181817222" fill="#26a69a"/><line x1="1064" y1="351.9567483636365" x2="1064" y2="380.09232727272735" stroke="#ef5350" stroke-width="2"/><rect x="1060" y="372.87807636363476" width="8" height="2.1642756363647777" fill="#ef5350"/><line x1="1076" y1="345.46392218181944" x2="1076" y2="390.1922785454562" stroke="#26a69a" stroke-width="2"/><rect x="1072" y="361.33527490908983" width="8" height="14.428501818181076" fill="#26a69a"/><line x1="1088" y1="320.93546909090946" x2="1088" y2="429.1492341818164" stroke="#ef5350" stroke-width="2"/><rect x="1084" y="357.0067243636376" width="8" height="18.757052363633306" fill="#ef5350"/><line x1="1100" y1="344.02107199999926" x2="1100" y2="400.2922305454542" stroke="#ef5350" stroke-width="2"/><rect x="1096" y="374.32092654545494" width="8" height="15.871352000001252" fill="#ef5350"/><line x1="1112" y1="346.18534763636404" x2="1112" y2="399.5708050909095" stroke="#26a69a" stroke-width="2"/><rect x="1108" y="346.5460603636364" width="8" height="44.36764363636439" fill="#26a69a"/><line x1="1124" y1="331.0354203636383" x2="1124" y2="356.2852989090929" stroke="#26a69a" stroke-width="2"/><rect x="1120" y="343.2996472727279" width="8" height="4.328550545452231" fill="#26a69a"/><line x1="1136" y1="334.64254545454594" x2="1136" y2="374.32092654545494" stroke="#ef5350" stroke-width="2"/><rect x="1132" y="344.74249745454387" width="8" height="26.69272872727481" fill="#ef5350"/><line x1="1148" y1="370.713800727274" x2="1148" y2="413.9993076363639" stroke="#ef5350" stroke-width="2"/><rect x="1144" y="370.713800727274" width="8" height="18.035627636361994" fill="#ef5350"/><line x1="1160" y1="368.5495258181825" x2="1160" y2="398.84938036363815" stroke="#26a69a" stroke-width="2"/><rect x="1156" y="375.7637767272709" width="8" height="10.82137672727356" fill="#26a69a"/><line x1="1172" y1="349.7924727272717" x2="1172" y2="392.3565541818169" stroke="#26a69a" stroke-width="2"/><rect x="1168" y="357.0788669090896" width="8" height="20.1277600000015" fill="#26a69a"/><line x1="1184" y1="302.8998414545475" x2="1184" y2="363.4995498181814" stroke="#26a69a" stroke-width="2"/><rect x="1180" y="321.2961810909085" width="8" height="37.87481818182067" fill="#26a69a"/><line x1="1196" y1="287.74991418181764" x2="1196" y2="322.37831927272543" stroke="#26a69a" stroke-width="2"/><rect x="1192" y="297.8498654545464" width="8" height="20.199903272726942" fill="#26a69a"/><line x1="1208" y1="298.57129018181774" x2="1208" y2="332.4782705454544" stroke="#ef5350" stroke-width="2"/><rect x="1204" y="298.57129018181774" width="8" height="9.378526545453383" fill="#ef5350"/><line x1="1220" y1="281.2570880000004" x2="1220" y2="311.5569425454561" stroke="#26a69a" stroke-width="2"/><rect x="1216" y="294.2427396363655" width="8" height="12.26422690908953" fill="#26a69a"/><line x1="1232" y1="287.74991418181764" x2="1232" y2="328.14971999999796" stroke="#ef5350" stroke-width="2"/><rect x="1228" y="293.52131490908994" width="8" height="20.921328000002404" fill="#ef5350"/><line x1="1244" y1="271.1571367272717" x2="1244" y2="319.4926189090893" stroke="#26a69a" stroke-width="2"/><rect x="1240" y="281.9785134545451" width="8" height="34.62840436363467" fill="#26a69a"/><line x1="1256" y1="249.51438327272876" x2="1256" y2="277.64996218181955" stroke="#26a69a" stroke-width="2"/><rect x="1252" y="250.23580872727337" width="8" height="25.971303272726004" fill="#26a69a"/><line x1="1268" y1="228.59305527272647" x2="1268" y2="254.5643592727257" stroke="#26a69a" stroke-width="2"/><rect x="1264" y="232.20018109090722" width="8" height="18.035627636366144" fill="#26a69a"/><line x1="1280" y1="222.10022909090924" x2="1280" y2="244.46440800000096" stroke="#ef5350" stroke-width="2"/><rect x="1276" y="233.6430312727274" width="8" height="6.49282545454389" fill="#ef5350"/><line x1="1292" y1="229.31448072727108" x2="1292" y2="253.842933818181" stroke="#26a69a" stroke-width="2"/><rect x="1288" y="238.6930065454552" width="8" height="2.8857003636362606" fill="#26a69a"/><line x1="1304" y1="235.80730618181894" x2="1304" y2="268.2714363636354" stroke="#ef5350" stroke-width="2"/><rect x="1300" y="238.6930065454552" width="8" height="25.249879272727867" fill="#ef5350"/><line x1="1316" y1="251.67865890908945" x2="1316" y2="266.82858618181933" stroke="#26a69a" stroke-width="2"/><rect x="1312" y="263.22146036363426" width="8" height="2.1642756363648914" fill="#26a69a"/><line x1="1328" y1="232.20018109090722" x2="1328" y2="268.9928610909109" stroke="#26a69a" stroke-width="2"/><rect x="1324" y="232.20018109090722" width="8" height="33.185554909091934" fill="#26a69a"/><line x1="1340" y1="231.47875563636262" x2="1340" y2="243.02155781818078" stroke="#ef5350" stroke-width="2"/><rect x="1336" y="233.6430312727274" width="8" height="2" fill="#ef5350"/><line x1="1352" y1="204.0646014545473" x2="1352" y2="236.52873163636366" stroke="#26a69a" stroke-width="2"/><rect x="1348" y="206.228877090908" width="8" height="28.135578909090782" fill="#26a69a"/><line x1="1364" y1="178.0932981818172" x2="1364" y2="206.228877090908" stroke="#26a69a" stroke-width="2"/><rect x="1360" y="179.89686109090974" width="8" height="24.889165818182164" fill="#26a69a"/><line x1="1376" y1="153.9255570909105" x2="1376" y2="187.8325367272737" stroke="#26a69a" stroke-width="2"/><rect x="1372" y="157.171970181819" width="8" height="23.085602909089744" fill="#26a69a"/><line x1="1388" y1="151.4005694545466" x2="1388" y2="167.99334690909257" stroke="#26a69a" stroke-width="2"/><rect x="1384" y="157.89339490909038" width="8" height="2" fill="#26a69a"/><line x1="1400" y1="147.07201818181682" x2="1400" y2="167.99334690909257" stroke="#26a69a" stroke-width="2"/><rect x="1396" y="149.95771927272642" width="8" height="5.049975272727693" fill="#26a69a"/><line x1="1412" y1="126.15069018181862" x2="1412" y2="155.00769454545411" stroke="#26a69a" stroke-width="2"/><rect x="1408" y="126.87211563636333" width="8" height="23.4463156363621" fill="#26a69a"/><line x1="1424" y1="116.77216436363449" x2="1424" y2="134.08636654545592" stroke="#ef5350" stroke-width="2"/><rect x="1420" y="126.15069018181862" width="8" height="3.6071258181808616" fill="#ef5350"/><line x1="1436" y1="106.6722123636365" x2="1436" y2="131.20066618181966" stroke="#26a69a" stroke-width="2"/><rect x="1432" y="107.03292509090886" width="8" height="22.003465454546017" fill="#26a69a"/><line x1="1448" y1="107.39363781818122" x2="1448" y2="154.28626981818275" stroke="#ef5350" stroke-width="2"/><rect x="1444" y="108.11506254545259" width="8" height="36.07125527272797" fill="#ef5350"/><line x1="1460" y1="123.26498981818247" x2="1460" y2="149.95771927272642" stroke="#26a69a" stroke-width="2"/><rect x="1456" y="132.64351636363574" width="8" height="11.542801454544815" fill="#26a69a"/><line x1="1472" y1="132.64351636363574" x2="1472" y2="181.70042327272893" stroke="#ef5350" stroke-width="2"/><rect x="1468" y="132.64351636363574" width="8" height="41.12123127272912" fill="#ef5350"/><line x1="1484" y1="166.55049599999904" x2="1484" y2="199.0146261818196" stroke="#ef5350" stroke-width="2"/><rect x="1480" y="174.48617236363623" width="8" height="7.935676363637413" fill="#ef5350"/><line x1="1496" y1="144.18631781818056" x2="1496" y2="189.63609963636202" stroke="#26a69a" stroke-width="2"/><rect x="1492" y="144.18631781818056" width="8" height="39.678381090909056" fill="#26a69a"/><line x1="1508" y1="115.3293141818184" x2="1508" y2="143.4648930909092" stroke="#26a69a" stroke-width="2"/><rect x="1504" y="118.21501454545466" width="8" height="25.24987854545452" fill="#26a69a"/><rect x="75" y="970.6410269807102" width="10" height="49.358973019289806" fill="#26a69a" opacity="0.9"/><rect x="87" y="968.8659115133023" width="10" height="51.13408848669769" fill="#26a69a" opacity="0.9"/><rect x="99" y="981.4116282471944" width="10" height="38.58837175280564" fill="#26a69a" opacity="0.9"/><rect x="111" y="984.1891157599949" width="10" height="35.810884240005066" fill="#ef5350" opacity="0.9"/><rect x="123" y="995.3821396476416" width="10" height="24.617860352358434" fill="#26a69a" opacity="0.9"/><rect x="135" y="998.2967773621183" width="10" height="21.70322263788171" fill="#ef5350" opacity="0.9"/><rect x="147" y="992.5983824113357" width="10" height="27.401617588664294" fill="#26a69a" opacity="0.9"/><rect x="159" y="998.5554034567076" width="10" height="21.44459654329239" fill="#ef5350" opacity="0.9"/><rect x="171" y="988.9580242011327" width="10" height="31.04197579886727" fill="#ef5350" opacity="0.9"/><rect x="183" y="998.9261008589522" width="10" height="21.073899141047832" fill="#26a69a" opacity="0.9"/><rect x="195" y="995.7634172083011" width="10" height="24.23658279169888" fill="#ef5350" opacity="0.9"/><rect x="207" y="1003.979498004138" width="10" height="16.02050199586199" fill="#26a69a" opacity="0.9"/><rect x="219" y="1002.5840926665134" width="10" height="17.415907333486643" fill="#26a69a" opacity="0.9"/><rect x="231" y="996.4660180986018" width="10" height="23.533981901398192" fill="#26a69a" opacity="0.9"/><rect x="243" y="992.337797028151" width="10" height="27.662202971848956" fill="#ef5350" opacity="0.9"/><rect x="255" y="994.2469278354824" width="10" height="25.75307216451756" fill="#26a69a" opacity="0.9"/><rect x="267" y="988.9885891032205" width="10" height="31.011410896779466" fill="#26a69a" opacity="0.9"/><rect x="279" y="986.6170661873812" width="10" height="33.38293381261883" fill="#ef5350" opacity="0.9"/><rect x="291" y="999.3132562853979" width="10" height="20.68674371460213" fill="#26a69a" opacity="0.9"/><rect x="303" y="996.7885170014002" width="10" height="23.211482998599763" fill="#26a69a" opacity="0.9"/><rect x="315" y="996.435453196514" width="10" height="23.564546803485996" fill="#ef5350" opacity="0.9"/><rect x="327" y="1003.7647599740851" width="10" height="16.23524002591489" fill="#ef5350" opacity="0.9"/><rect x="339" y="994.470678593074" width="10" height="25.529321406925988" fill="#26a69a" opacity="0.9"/><rect x="351" y="999.4206253004243" width="10" height="20.579374699575737" fill="#ef5350" opacity="0.9"/><rect x="363" y="985.0946989487763" width="10" height="34.90530105122366" fill="#26a69a" opacity="0.9"/><rect x="375" y="1001.4226263871764" width="10" height="18.577373612823635" fill="#26a69a" opacity="0.9"/><rect x="387" y="1001.5241175364166" width="10" height="18.47588246358339" fill="#ef5350" opacity="0.9"/><rect x="399" y="1002.6279807310498" width="10" height="17.372019268950226" fill="#ef5350" opacity="0.9"/><rect x="411" y="1005.5821960751531" width="10" height="14.417803924846908" fill="#ef5350" opacity="0.9"/><rect x="423" y="988.3580900332296" width="10" height="31.641909966770413" fill="#ef5350" opacity="0.9"/><rect x="435" y="991.2985903571653" width="10" height="28.701409642834733" fill="#26a69a" opacity="0.9"/><rect x="447" y="1003.0323778971348" width="10" height="16.96762210286522" fill="#ef5350" opacity="0.9"/><rect x="459" y="999.2556532006938" width="10" height="20.744346799306186" fill="#ef5350" opacity="0.9"/><rect x="471" y="1006.2248427344354" width="10" height="13.775157265564644" fill="#26a69a" opacity="0.9"/><rect x="483" y="1002.6111308491296" width="10" height="17.38886915087039" fill="#ef5350" opacity="0.9"/><rect x="495" y="1003.7032383121905" width="10" height="16.29676168780952" fill="#26a69a" opacity="0.9"/><rect x="507" y="1004.4842107463061" width="10" height="15.515789253693924" fill="#26a69a" opacity="0.9"/><rect x="519" y="1005.1374375640034" width="10" height="14.862562435996551" fill="#ef5350" opacity="0.9"/><rect x="531" y="1004.6601548621705" width="10" height="15.339845137829457" fill="#26a69a" opacity="0.9"/><rect x="543" y="1008.0168080837635" width="10" height="11.983191916236478" fill="#26a69a" opacity="0.9"/><rect x="555" y="1005.0136105247759" width="10" height="14.986389475224087" fill="#26a69a" opacity="0.9"/><rect x="567" y="1004.3196305042948" width="10" height="15.680369495705236" fill="#26a69a" opacity="0.9"/><rect x="579" y="1005.7107254070096" width="10" height="14.28927459299041" fill="#26a69a" opacity="0.9"/><rect x="591" y="984.0507899851616" width="10" height="35.9492100148384" fill="#26a69a" opacity="0.9"/><rect x="603" y="996.1290204601977" width="10" height="23.870979539802306" fill="#26a69a" opacity="0.9"/><rect x="615" y="988.5069959664779" width="10" height="31.493004033522084" fill="#26a69a" opacity="0.9"/><rect x="627" y="1000.6349923718363" width="10" height="19.365007628163653" fill="#ef5350" opacity="0.9"/><rect x="639" y="995.7826182365358" width="10" height="24.217381763464232" fill="#ef5350" opacity="0.9"/><rect x="651" y="996.4711122489498" width="10" height="23.528887751050206" fill="#26a69a" opacity="0.9"/><rect x="663" y="1002.5911461054568" width="10" height="17.4088538945432" fill="#26a69a" opacity="0.9"/><rect x="675" y="1002.5676346423123" width="10" height="17.432365357687672" fill="#26a69a" opacity="0.9"/><rect x="687" y="991.754320884449" width="10" height="28.245679115550956" fill="#ef5350" opacity="0.9"/><rect x="699" y="989.6907981358022" width="10" height="30.309201864197803" fill="#26a69a" opacity="0.9"/><rect x="711" y="985.802002131706" width="10" height="34.19799786829401" fill="#26a69a" opacity="0.9"/><rect x="723" y="1003.6381899308241" width="10" height="16.36181006917593" fill="#26a69a" opacity="0.9"/><rect x="735" y="990.4110326234613" width="10" height="29.588967376538676" fill="#ef5350" opacity="0.9"/><rect x="747" y="991.3753944701039" width="10" height="28.624605529896144" fill="#26a69a" opacity="0.9"/><rect x="759" y="998.2285941189994" width="10" height="21.771405881000646" fill="#ef5350" opacity="0.9"/><rect x="771" y="1005.198567368179" width="10" height="14.801432631820944" fill="#26a69a" opacity="0.9"/><rect x="783" y="1001.373644172292" width="10" height="18.62635582770804" fill="#ef5350" opacity="0.9"/><rect x="795" y="993.9843831637024" width="10" height="26.015616836297568" fill="#ef5350" opacity="0.9"/><rect x="807" y="1003.4783119814416" width="10" height="16.521688018558393" fill="#26a69a" opacity="0.9"/><rect x="819" y="1004.5755135948505" width="10" height="15.424486405149537" fill="#26a69a" opacity="0.9"/><rect x="831" y="994.1058590566156" width="10" height="25.8941409433844" fill="#26a69a" opacity="0.9"/><rect x="843" y="999.9335670546928" width="10" height="20.066432945307156" fill="#26a69a" opacity="0.9"/><rect x="855" y="998.4284415557274" width="10" height="21.57155844427257" fill="#ef5350" opacity="0.9"/><rect x="867" y="993.9984900415892" width="10" height="26.001509958410793" fill="#26a69a" opacity="0.9"/><rect x="879" y="1003.2083220129992" width="10" height="16.791677987000753" fill="#26a69a" opacity="0.9"/><rect x="891" y="1005.4544504587348" width="10" height="14.545549541265245" fill="#26a69a" opacity="0.9"/><rect x="903" y="1000.6130483395682" width="10" height="19.386951660431805" fill="#ef5350" opacity="0.9"/><rect x="915" y="1005.0692543208844" width="10" height="14.930745679115603" fill="#26a69a" opacity="0.9"/><rect x="927" y="996.1627202240381" width="10" height="23.83727977596186" fill="#26a69a" opacity="0.9"/><rect x="939" y="998.2352557002237" width="10" height="21.76474429977634" fill="#26a69a" opacity="0.9"/><rect x="951" y="998.4343194215135" width="10" height="21.565680578486536" fill="#ef5350" opacity="0.9"/><rect x="963" y="972.0865901063763" width="10" height="47.91340989362368" fill="#26a69a" opacity="0.9"/><rect x="975" y="993.2970647244457" width="10" height="26.702935275554296" fill="#ef5350" opacity="0.9"/><rect x="987" y="978.6270872954502" width="10" height="41.372912704549776" fill="#26a69a" opacity="0.9"/><rect x="999" y="897.7288449079396" width="10" height="122.27115509206044" fill="#26a69a" opacity="0.9"/><rect x="1011" y="957.6615237518025" width="10" height="62.33847624819748" fill="#26a69a" opacity="0.9"/><rect x="1023" y="970.9964419319108" width="10" height="49.003558068089205" fill="#ef5350" opacity="0.9"/><rect x="1035" y="995.3750862086982" width="10" height="24.624913791301765" fill="#26a69a" opacity="0.9"/><rect x="1047" y="997.9660494472193" width="10" height="22.033950552780652" fill="#26a69a" opacity="0.9"/><rect x="1059" y="991.3252366820623" width="10" height="28.67476331793773" fill="#ef5350" opacity="0.9"/><rect x="1071" y="989.7950322890761" width="10" height="30.20496771092394" fill="#26a69a" opacity="0.9"/><rect x="1083" y="962.59148571548" width="10" height="57.40851428452004" fill="#ef5350" opacity="0.9"/><rect x="1095" y="994.2359558193484" width="10" height="25.76404418065158" fill="#ef5350" opacity="0.9"/><rect x="1107" y="1003.6934418692135" width="10" height="16.30655813078647" fill="#26a69a" opacity="0.9"/><rect x="1119" y="988.171173901231" width="10" height="31.828826098769014" fill="#26a69a" opacity="0.9"/><rect x="1131" y="999.9899945662396" width="10" height="20.010005433760398" fill="#ef5350" opacity="0.9"/><rect x="1143" y="1000.9343716692094" width="10" height="19.06562833079056" fill="#ef5350" opacity="0.9"/><rect x="1155" y="1002.1636293339463" width="10" height="17.836370666053654" fill="#26a69a" opacity="0.9"/><rect x="1167" y="1003.0292430353821" width="10" height="16.970756964617863" fill="#26a69a" opacity="0.9"/><rect x="1179" y="994.2994367698384" width="10" height="25.700563230161606" fill="#26a69a" opacity="0.9"/><rect x="1191" y="996.3637432339234" width="10" height="23.6362567660766" fill="#26a69a" opacity="0.9"/><rect x="1203" y="993.2508255135948" width="10" height="26.749174486405195" fill="#ef5350" opacity="0.9"/><rect x="1215" y="991.4925599281072" width="10" height="28.507440071892802" fill="#26a69a" opacity="0.9"/><rect x="1227" y="994.3711467324291" width="10" height="25.62885326757089" fill="#ef5350" opacity="0.9"/><rect x="1239" y="998.1780444732387" width="10" height="21.821955526761258" fill="#26a69a" opacity="0.9"/><rect x="1251" y="999.256436916132" width="10" height="20.743563083868025" fill="#26a69a" opacity="0.9"/><rect x="1263" y="988.5046448201634" width="10" height="31.495355179836565" fill="#26a69a" opacity="0.9"/><rect x="1275" y="992.2700056427511" width="10" height="27.72999435724887" fill="#ef5350" opacity="0.9"/><rect x="1287" y="995.6881805262387" width="10" height="24.31181947376126" fill="#26a69a" opacity="0.9"/><rect x="1299" y="997.7693368722439" width="10" height="22.230663127756088" fill="#ef5350" opacity="0.9"/><rect x="1311" y="1004.0751112875922" width="10" height="15.924888712407778" fill="#26a69a" opacity="0.9"/><rect x="1323" y="1001.7807843424105" width="10" height="18.21921565758953" fill="#26a69a" opacity="0.9"/><rect x="1335" y="1000.6079541892202" width="10" height="19.39204581077979" fill="#ef5350" opacity="0.9"/><rect x="1347" y="995.2179512633493" width="10" height="24.782048736650722" fill="#26a69a" opacity="0.9"/><rect x="1359" y="981.5225239816924" width="10" height="38.477476018307584" fill="#26a69a" opacity="0.9"/><rect x="1371" y="985.3929026729921" width="10" height="34.607097327007864" fill="#26a69a" opacity="0.9"/><rect x="1383" y="997.3104714832076" width="10" height="22.689528516792393" fill="#26a69a" opacity="0.9"/><rect x="1395" y="997.2987157516353" width="10" height="22.701284248364686" fill="#26a69a" opacity="0.9"/><rect x="1407" y="993.7183117724509" width="10" height="26.281688227549125" fill="#26a69a" opacity="0.9"/><rect x="1419" y="987.5347969654538" width="10" height="32.46520303454622" fill="#ef5350" opacity="0.9"/><rect x="1431" y="998.552268594955" width="10" height="21.447731405045033" fill="#26a69a" opacity="0.9"/><rect x="1443" y="989.0477596188008" width="10" height="30.952240381199204" fill="#ef5350" opacity="0.9"/><rect x="1455" y="985.4003479696545" width="10" height="34.59965203034551" fill="#26a69a" opacity="0.9"/><rect x="1467" y="971.0054546594495" width="10" height="48.99454534055053" fill="#ef5350" opacity="0.9"/><rect x="1479" y="968.5355754561224" width="10" height="51.46442454387761" fill="#ef5350" opacity="0.9"/><rect x="1491" y="982.9049980145876" width="10" height="37.09500198541241" fill="#26a69a" opacity="0.9"/><rect x="1503" y="860.0" width="10" height="160.0" fill="#26a69a" opacity="0.9"/><rect x="1004" y="406.78505599999795" width="12" height="56.992583272730485" fill="#ff2400" opacity="0.60"/><polyline points="320,719.6001348121131,332,714.9550404836853,344,707.3856856324255,356,700.7433432085567,368,694.5274833358781,380,685.0560095636287,392,678.1355525489123,404,672.9735011719599,416,669.3336809737668,428,671.3309610888205,440,672.8631954439978,452,676.104595843274,464,680.6862631482421,476,682.2207093592335,488,684.6396251431997,500,683.4615174672225,512,681.7085390071414,524,680.80958239174,536,679.7214120860314,548,676.2634195929877,560,672.9286382291527,572,669.4992121813523,584,664.7474265017412,596,656.119641189885,608,646.2523351025374,620,636.0880437248067,632,626.9604872142198,644,619.5954148042099,656,612.5195349527282,668,605.9114270005176,680,599.1081767753589,692,593.1589766322511,704,585.028080849092,716,576.3661201794796,728,567.2236722316525,740,559.845126616516,752,551.79515660109,764,545.8172863100779,776,538.1414008952643,788,531.5400879788326,800,527.6286861453503,812,522.7843628587793,824,517.3707963873808,836,511.51090755395427,848,505.7968604622353,860,502.4133942710292,872,499.55828444434786,884,497.0437969561441,896,494.425248743871,908,492.46832898471354,920,490.2855396268602,932,487.7609776883715,944,484.78977870506486,956,483.1321583608604,968,481.25451730484616,980,481.4451458559027,992,478.04484735880493,1004,471.2582005627279,1016,462.713150742903,1028,456.837008317172,1040,450.2150625899958,1052,442.98704963337264,1064,436.51612604924344,1076,429.3560449882782,1088,424.25201943961343,1100,421.00823459254985,1112,413.91659895170136,1124,407.1911749822737,1136,403.7858465250875,1148,402.3538067001895,1160,399.8214228932449,1172,395.75070327571007,1184,388.659796400969,1196,380.0112315489307,1208,373.14823966115574,1220,365.6334301349861,1232,360.7581170658539,1244,353.2552976743029,1256,343.4439177745844,1268,332.84927618566473,1280,324.019426713436,1292,315.89310098315343,1304,310.9454614436303,1316,306.40031848362753,1328,299.3336387319439,1340,293.2148047055224,1352,284.93043064698793,1364,274.92723354640805,1376,263.7124465593057,1388,253.6344416402368,1400,243.76046808142326,1412,232.62824403903494,1424,222.83106041627013,1436,211.80266657575805,1448,205.36301431313234,1460,198.43734784175138,1472,196.0875763936159,1484,194.786078520631,1496,189.96705369182484,1508,183.13352615407643" fill="none" stroke="#0090ff" stroke-width="2"/><line x1="80" y1="50" x2="80" y2="900" stroke="#666666" stroke-width="0.5" stroke-dasharray="4,4" opacity="0.90"/><line x1="152" y1="50" x2="152" y2="900" stroke="#666666" stroke-width="0.5" stroke-dasharray="4,4" opacity="0.90"/><line x1="224" y1="50" x2="224" y2="900" stroke="#666666" stroke-width="0.5" stroke-dasharray="4,4" opacity="0.90"/><line x1="296" y1="50" x2="296" y2="900" stroke="#666666" stroke-width="0.5" stroke-dasharray="4,4" opacity="0.90"/><line x1="368" y1="50" x2="368" y2="900" stroke="#666666" stroke-width="0.5" stroke-dasharray="4,4" opacity="0.90"/><line x1="440" y1="50" x2="440" y2="900" stroke="#666666" stroke-width="0.5" stroke-dasharray="4,4" opacity="0.90"/><line x1="512" y1="50" x2="512" y2="900" stroke="#666666" stroke-width="0.5" stroke-dasharray="4,4" opacity="0.90"/><line x1="584" y1="50" x2="584" y2="900" stroke="#666666" stroke-width="0.5" stroke-dasharray="4,4" opacity="0.90"/><line x1="656" y1="50" x2="656" y2="900" stroke="#666666" stroke-width="0.5" stroke-dasharray="4,4" opacity="0.90"/><line x1="728" y1="50" x2="728" y2="900" stroke="#666666" stroke-width="0.5" stroke-dasharray="4,4" opacity="0.90"/><line x1="800" y1="50" x2="800" y2="900" stroke="#666666" stroke-width="0.5" stroke-dasharray="4,4" opacity="0.90"/><line x1="872" y1="50" x2="872" y2="900" stroke="#666666" stroke-width="0.5" stroke-dasharray="4,4" opacity="0.90"/><line x1="944" y1="50" x2="944" y2="900" stroke="#666666" stroke-width="0.5" stroke-dasharray="4,4" opacity="0.90"/><line x1="1010" y1="30" x2="1010" y2="950" stroke="black" stroke-width="0.7"/><line x1="1016" y1="50" x2="1016" y2="900" stroke="#666666" stroke-width="0.5" stroke-dasharray="4,4" opacity="0.90"/><line x1="1088" y1="50" x2="1088" y2="900" stroke="#666666" stroke-width="0.5" stroke-dasharray="4,4" opacity="0.90"/><line x1="1160" y1="50" x2="1160" y2="900" stroke="#666666" stroke-width="0.5" stroke-dasharray="4,4" opacity="0.90"/><line x1="1232" y1="50" x2="1232" y2="900" stroke="#666666" stroke-width="0.5" stroke-dasharray="4,4" opacity="0.90"/><line x1="1304" y1="50" x2="1304" y2="900" stroke="#666666" stroke-width="0.5" stroke-dasharray="4,4" opacity="0.90"/><line x1="1376" y1="50" x2="1376" y2="900" stroke="#666666" stroke-width="0.5" stroke-dasharray="4,4" opacity="0.90"/><line x1="1448" y1="50" x2="1448" y2="900" stroke="#666666" stroke-width="0.5" stroke-dasharray="4,4" opacity="0.90"/><text x="80" y="1040" text-anchor="middle" font-size="20" fill="black">09:30</text><text x="152" y="1040" text-anchor="middle" font-size="20" fill="black">10:00</text><text x="224" y="1040" text-anchor="middle" font-size="20" fill="black">10:30</text><text x="296" y="1040" text-anchor="middle" font-size="20" fill="black">11:00</text><text x="368" y="1040" text-anchor="middle" font-size="20" fill="black">11:30</text><text x="440" y="1040" text-anchor="middle" font-size="20" fill="black">12:00</text><text x="512" y="1040" text-anchor="middle" font-size="20" fill="black">12:30</text><text x="584" y="1040" text-anchor="middle" font-size="20" fill="black">13:00</text><text x="656" y="1040" text-anchor="middle" font-size="20" fill="black">13:30</text><text x="728" y="1040" text-anchor="middle" font-size="20" fill="black">14:00</text><text x="800" y="1040" text-anchor="middle" font-size="20" fill="black">14:30</text><text x="872" y="1040" text-anchor="middle" font-size="20" fill="black">15:00</text><text x="944" y="1040" text-anchor="middle" font-size="20" fill="black">15:30</text><text x="1016" y="1040" text-anchor="middle" font-size="20" fill="black">09:30</text><text x="1088" y="1040" text-anchor="middle" font-size="20" fill="black">10:00</text><text x="1160" y="1040" text-anchor="middle" font-size="20" fill="black">10:30</text><text x="1232" y="1040" text-anchor="middle" font-size="20" fill="black">11:00</text><text x="1304" y="1040" text-anchor="middle" font-size="20" fill="black">11:30</text><text x="1376" y="1040" text-anchor="middle" font-size="20" fill="black">12:00</text><text x="1448" y="1040" text-anchor="middle" font-size="20" fill="black">12:30</text><text x="1510" y="50" text-anchor="end" font-size="40" fill="#26a69a" font-weight="bold">▲ +0.99% (Wed)</text></svg>