<svg xmlns="http://www.w3.org/2000/svg" width="1992" height="1050"><rect width="100%" height="100%" fill="white"/><text x="42" y="854.0" text-anchor="end" font-size="20" fill="black">439</text><text x="42" y="694.0" text-anchor="end" font-size="20" fill="black">440</text><text x="42" y="534.0" text-anchor="end" font-size="20" fill="black">441</text><text x="42" y="374.0" text-anchor="end" font-size="20" fill="black">442</text><text x="42" y="214.0" text-anchor="end" font-size="20" fill="black">443</text><text x="42" y="54.0" text-anchor="end" font-size="20" fill="black">444</text><line x1="80" y1="492.087435200001" x2="80" y2="590.3337663999991" stroke="#ef5350" stroke-width="2"/><rect x="76" y="519.0259455999967" width="8" height="55.4616384000019" fill="#ef5350"/><line x1="92" y1="498.4259071999986" x2="92" y2="580.8260575999975" stroke="#26a69a" stroke-width="2"/><rect x="88" y="539.6259824000026" width="8" height="38.03083839999999" fill="#26a69a"/><line x1="104" y1="482.5797247999981" x2="104" y2="637.8723136000008" stroke="#ef5350" stroke-width="2"/><rect x="100" y="539.6259824000026" width="8" height="87.1540031999939" fill="#ef5350"/><line x1="116" y1="590.3337663999991" x2="116" y2="653.7184960000013" stroke="#ef5350" stroke-width="2"/><rect x="112" y="623.6107504000029" width="8" height="20.600036799996815" fill="#ef5350"/><line x1="128" y1="509.5182352000029" x2="128" y2="641.0415503999957" stroke="#26a69a" stroke-width="2"/><rect x="124" y="512.6874719999978" width="8" height="128.3540783999979" fill="#26a69a"/><line x1="140" y1="495.2566704000037" x2="140" y2="558.6414015999981" stroke="#ef5350" stroke-width="2"/><rect x="136" y="511.10285280000426" width="8" height="34.86160319999726" fill="#ef5350"/><line x1="152" y1="436.62579519999787" x2="152" y2="541.210600000004" stroke="#26a69a" stroke-width="2"/><rect x="148" y="441.5381119999983" width="8" height="99.67248800000567" fill="#26a69a"/><line x1="164" y1="409.6872848000021" x2="164" y2="507.9336176000015" stroke="#ef5350" stroke-width="2"/><rect x="160" y="438.2104144000005" width="8" height="63.38472960000212" fill="#ef5350"/><line x1="176" y1="463.5643056000026" x2="176" y2="553.8875472000018" stroke="#ef5350" stroke-width="2"/><rect x="172" y="507.9336176000015" width="8" height="44.36931039999763" fill="#ef5350"/><line x1="188" y1="493.67205280000235" x2="188" y2="590.3337663999991" stroke="#26a69a" stroke-width="2"/><rect x="184" y="500.01052640000125" width="8" height="49.123164800002996" fill="#26a69a"/><line x1="200" y1="479.41048800000317" x2="200" y2="574.4875839999986" stroke="#ef5350" stroke-width="2"/><rect x="196" y="498.4259071999986" width="8" height="61.80011200000081" fill="#ef5350"/><line x1="212" y1="530.1182719999997" x2="212" y2="617.272276800004" stroke="#26a69a" stroke-width="2"/><rect x="208" y="530.1182719999997" width="8" height="34.86160159999599" fill="#26a69a"/><line x1="224" y1="515.8567088000018" x2="224" y2="601.4260944000034" stroke="#ef5350" stroke-width="2"/><rect x="220" y="531.7028912000023" width="8" height="47.69700959999682" fill="#ef5350"/><line x1="236" y1="574.4875839999986" x2="236" y2="618.8568943999962" stroke="#ef5350" stroke-width="2"/><rect x="232" y="579.241438400004" width="8" height="11.88463679999586" fill="#ef5350"/><line x1="248" y1="582.4106751999989" x2="248" y2="644.2107871999997" stroke="#ef5350" stroke-width="2"/><rect x="244" y="582.4106751999989" width="8" height="44.36931039999763" fill="#ef5350"/><line x1="260" y1="571.3183472000037" x2="260" y2="636.2876959999994" stroke="#26a69a" stroke-width="2"/><rect x="256" y="572.902964799996" width="8" height="55.46164000000317" fill="#26a69a"/><line x1="272" y1="579.241438400004" x2="272" y2="645.795404800001" stroke="#ef5350" stroke-width="2"/><rect x="268" y="579.241438400004" width="8" height="49.12316639999517" fill="#ef5350"/><line x1="284" y1="593.5030032000031" x2="284" y2="637.8723136000008" stroke="#26a69a" stroke-width="2"/><rect x="280" y="609.3491856000037" width="8" height="9.507708799992542" fill="#26a69a"/><line x1="296" y1="498.4259071999986" x2="296" y2="618.8568943999962" stroke="#26a69a" stroke-width="2"/><rect x="292" y="525.3644176000034" width="8" height="80.81553119999626" fill="#26a69a"/><line x1="308" y1="492.087435200001" x2="308" y2="534.8721279999972" stroke="#26a69a" stroke-width="2"/><rect x="304" y="515.8567088000018" width="8" height="10.30001760000232" fill="#26a69a"/><line x1="320" y1="450.887359999997" x2="320" y2="519.0259455999967" stroke="#26a69a" stroke-width="2"/><rect x="316" y="486.54127040000276" width="8" height="27.730819199996404" fill="#26a69a"/><line x1="332" y1="484.1643440000007" x2="332" y2="531.7028912000023" stroke="#ef5350" stroke-width="2"/><rect x="328" y="485.7489616000021" width="8" height="19.01541919999545" fill="#ef5350"/><line x1="344" y1="468.3181599999989" x2="344" y2="519.0259455999967" stroke="#26a69a" stroke-width="2"/><rect x="340" y="471.4873968000029" width="8" height="41.2000751999949" fill="#26a69a"/><line x1="356" y1="438.2104144000005" x2="356" y2="479.41048800000317" stroke="#26a69a" stroke-width="2"/><rect x="352" y="454.056596800001" width="8" height="17.43080000000191" fill="#26a69a"/><line x1="368" y1="424.74115840000195" x2="368" y2="457.2258335999959" stroke="#26a69a" stroke-width="2"/><rect x="364" y="432.0304031999967" width="8" height="20.441574400001628" fill="#26a69a"/><line x1="380" y1="422.3642303999986" x2="380" y2="512.6874719999978" stroke="#ef5350" stroke-width="2"/><rect x="376" y="435.0411775999964" width="8" height="64.96934880000487" fill="#ef5350"/><line x1="392" y1="476.24125119999917" x2="392" y2="517.4413264000032" stroke="#ef5350" stroke-width="2"/><rect x="388" y="500.01052640000125" width="8" height="11.092326400003003" fill="#ef5350"/><line x1="404" y1="457.2258335999959" x2="404" y2="517.4413264000032" stroke="#26a69a" stroke-width="2"/><rect x="400" y="485.7489616000021" width="8" height="25.35389120000218" fill="#26a69a"/><line x1="416" y1="441.3796496000032" x2="416" y2="484.1643440000007" stroke="#26a69a" stroke-width="2"/><rect x="412" y="463.5643056000026" width="8" height="19.01541919999545" fill="#26a69a"/><line x1="428" y1="425.5334672000027" x2="428" y2="482.5797247999981" stroke="#26a69a" stroke-width="2"/><rect x="424" y="430.2873232000001" width="8" height="33.27698240000251" fill="#26a69a"/><line x1="440" y1="398.5949567999978" x2="440" y2="460.3950687999986" stroke="#ef5350" stroke-width="2"/><rect x="436" y="430.2873232000001" width="8" height="25.353891200002238" fill="#ef5350"/><line x1="452" y1="439.7950320000018" x2="452" y2="490.50281599999835" stroke="#ef5350" stroke-width="2"/><rect x="448" y="455.64121440000235" width="8" height="19.01541919999545" fill="#ef5350"/><line x1="464" y1="439.7950320000018" x2="464" y2="490.50281599999835" stroke="#ef5350" stroke-width="2"/><rect x="460" y="468.3181599999989" width="8" height="11.092328000004272" fill="#ef5350"/><line x1="476" y1="458.81045119999726" x2="476" y2="531.7028912000023" stroke="#26a69a" stroke-width="2"/><rect x="472" y="458.81045119999726" width="8" height="17.43080000000191" fill="#26a69a"/><line x1="488" y1="442.9642687999968" x2="488" y2="487.33357920000344" stroke="#ef5350" stroke-width="2"/><rect x="484" y="452.47197759999835" width="8" height="19.015419200004544" fill="#ef5350"/><line x1="500" y1="444.5488863999981" x2="500" y2="482.5797247999981" stroke="#26a69a" stroke-width="2"/><rect x="496" y="454.056596800001" width="8" height="17.43080000000191" fill="#26a69a"/><line x1="512" y1="439.7950320000018" x2="512" y2="517.4413264000032" stroke="#ef5350" stroke-width="2"/><rect x="508" y="449.30274080000345" width="8" height="68.13858559999971" fill="#ef5350"/><line x1="524" y1="488.918198399997" x2="524" y2="545.9644560000015" stroke="#26a69a" stroke-width="2"/><rect x="520" y="495.2566704000037" width="8" height="19.01541919999545" fill="#26a69a"/><line x1="536" y1="441.3796496000032" x2="536" y2="488.918198399997" stroke="#26a69a" stroke-width="2"/><rect x="532" y="444.5488863999981" width="8" height="44.3693119999989" fill="#26a69a"/><line x1="548" y1="411.27190399999563" x2="548" y2="450.887359999997" stroke="#26a69a" stroke-width="2"/><rect x="544" y="422.3642303999986" width="8" height="22.184655999999507" fill="#26a69a"/><line x1="560" y1="346.3025552" x2="560" y2="423.9488496000012" stroke="#26a69a" stroke-width="2"/><rect x="556" y="365.31797440000446" width="8" height="55.46163839999281" fill="#26a69a"/><line x1="572" y1="349.4717920000039" x2="572" y2="382.7487743999972" stroke="#26a69a" stroke-width="2"/><rect x="568" y="351.05640959999624" width="8" height="11.092328000004215" fill="#26a69a"/><line x1="584" y1="324.11789920000047" x2="584" y2="358.97950079999646" stroke="#26a69a" stroke-width="2"/><rect x="580" y="333.6256096000034" width="8" height="19.01541759999418" fill="#26a69a"/><line x1="596" y1="298.9224688000013" x2="596" y2="332.04099040000074" stroke="#26a69a" stroke-width="2"/><rect x="592" y="313.0255711999962" width="8" height="11.092328000004272" fill="#26a69a"/><line x1="608" y1="261.525478399999" x2="608" y2="330.4563727999994" stroke="#26a69a" stroke-width="2"/><rect x="604" y="270.24087839999993" width="8" height="42.784692799996265" fill="#26a69a"/><line x1="620" y1="243.3023680000042" x2="620" y2="284.5024431999991" stroke="#ef5350" stroke-width="2"/><rect x="616" y="271.82549760000256" width="8" height="7.923091200000272" fill="#ef5350"/><line x1="632" y1="276.57935199999883" x2="632" y2="319.3640448000042" stroke="#ef5350" stroke-width="2"/><rect x="628" y="278.1639696000002" width="8" height="27.096972800000003" fill="#ef5350"/><line x1="644" y1="276.57935199999883" x2="644" y2="311.4409536000039" stroke="#26a69a" stroke-width="2"/><rect x="640" y="284.5024431999991" width="8" height="25.35389120000218" fill="#26a69a"/><line x1="656" y1="249.6408416000031" x2="656" y2="284.5024431999991" stroke="#26a69a" stroke-width="2"/><rect x="652" y="274.9947327999962" width="8" height="9.507710400002907" fill="#26a69a"/><line x1="668" y1="265.48702400000366" x2="668" y2="308.2717167999999" stroke="#ef5350" stroke-width="2"/><rect x="664" y="271.82549760000256" width="8" height="31.692364800001087" fill="#ef5350"/><line x1="680" y1="263.902404800001" x2="680" y2="315.4024991999995" stroke="#26a69a" stroke-width="2"/><rect x="676" y="270.24087839999993" width="8" height="30.10774719999972" fill="#26a69a"/><line x1="692" y1="227.45618560000366" x2="692" y2="282.9178239999965" stroke="#26a69a" stroke-width="2"/><rect x="688" y="248.05622240000048" width="8" height="20.600038399998084" fill="#26a69a"/><line x1="704" y1="195.76382080000258" x2="704" y2="246.4716047999991" stroke="#26a69a" stroke-width="2"/><rect x="700" y="210.02538560000175" width="8" height="36.44621919999736" fill="#26a69a"/><line x1="716" y1="179.91763840000203" x2="716" y2="216.3638575999994" stroke="#26a69a" stroke-width="2"/><rect x="712" y="194.17920159999994" width="8" height="14.261564799999178" fill="#26a69a"/><line x1="728" y1="184.6714927999983" x2="728" y2="230.62542239999857" stroke="#26a69a" stroke-width="2"/><rect x="724" y="191.0099663999972" width="8" height="6.338472000006732" fill="#26a69a"/><line x1="740" y1="189.42534720000367" x2="740" y2="243.3023680000042" stroke="#ef5350" stroke-width="2"/><rect x="736" y="189.42534720000367" width="8" height="47.538547199992536" fill="#ef5350"/><line x1="752" y1="222.7023311999983" x2="752" y2="255.97931360000075" stroke="#ef5350" stroke-width="2"/><rect x="748" y="236.9638943999962" width="8" height="17.43080160000318" fill="#ef5350"/><line x1="764" y1="252.81007839999802" x2="764" y2="303.51786240000365" stroke="#ef5350" stroke-width="2"/><rect x="760" y="254.39469599999939" width="8" height="47.53854720000163" fill="#ef5350"/><line x1="776" y1="295.5947712000034" x2="776" y2="352.64102719999755" stroke="#ef5350" stroke-width="2"/><rect x="772" y="301.933243200001" width="8" height="3.1692367999949056" fill="#ef5350"/><line x1="788" y1="229.04080319999593" x2="788" y2="308.2717167999999" stroke="#26a69a" stroke-width="2"/><rect x="784" y="246.4716047999991" width="8" height="60.21549439999944" fill="#26a69a"/><line x1="800" y1="233.79465920000257" x2="800" y2="297.17938879999565" stroke="#ef5350" stroke-width="2"/><rect x="796" y="241.71775040000284" width="8" height="15.846182400000544" fill="#ef5350"/><line x1="812" y1="241.71775040000284" x2="812" y2="267.0716415999959" stroke="#ef5350" stroke-width="2"/><rect x="808" y="252.81007839999802" width="8" height="14.261563199997909" fill="#ef5350"/><line x1="824" y1="265.48702400000366" x2="824" y2="306.68709919999856" stroke="#ef5350" stroke-width="2"/><rect x="820" y="265.48702400000366" width="8" height="34.86160159999599" fill="#ef5350"/><line x1="836" y1="287.6716800000031" x2="836" y2="333.6256096000034" stroke="#ef5350" stroke-width="2"/><rect x="832" y="297.17938879999565" width="8" height="28.52312800000618" fill="#ef5350"/><line x1="848" y1="305.8947887999966" x2="848" y2="341.5487008000037" stroke="#ef5350" stroke-width="2"/><rect x="844" y="319.3640448000042" width="8" height="9.507708799992542" fill="#ef5350"/><line x1="860" y1="284.5024431999991" x2="860" y2="330.4563727999994" stroke="#26a69a" stroke-width="2"/><rect x="856" y="298.764006399997" width="8" height="31.692366400002356" fill="#26a69a"/><line x1="872" y1="297.17938879999565" x2="872" y2="349.4717920000039" stroke="#ef5350" stroke-width="2"/><rect x="868" y="301.933243200001" width="8" height="33.27698399999463" fill="#ef5350"/><line x1="884" y1="311.4409536000039" x2="884" y2="363.7333552000018" stroke="#26a69a" stroke-width="2"/><rect x="880" y="314.6101903999988" width="8" height="22.18465439999818" fill="#26a69a"/><line x1="896" y1="308.2717167999999" x2="896" y2="468.3181599999989" stroke="#ef5350" stroke-width="2"/><rect x="892" y="313.0255711999962" width="8" height="104.58480480000611" fill="#ef5350"/><line x1="908" y1="400.17957600000045" x2="908" y2="477.8258704000018" stroke="#ef5350" stroke-width="2"/><rect x="904" y="414.44113919999836" width="8" height="6.338473599998906" fill="#ef5350"/><line x1="920" y1="406.5180479999981" x2="920" y2="444.5488863999981" stroke="#ef5350" stroke-width="2"/><rect x="916" y="420.77961279999727" width="8" height="6.338473599998906" fill="#ef5350"/><line x1="932" y1="370.07182880000073" x2="932" y2="428.7027039999975" stroke="#26a69a" stroke-width="2"/><rect x="928" y="385.91801120000133" width="8" height="41.20007519999484" fill="#26a69a"/><line x1="944" y1="384.33339359999985" x2="944" y2="428.7027039999975" stroke="#ef5350" stroke-width="2"/><rect x="940" y="389.0872479999961" width="8" height="17.430800000001966" fill="#ef5350"/><line x1="956" y1="344.71793599999734" x2="956" y2="408.1026672000007" stroke="#26a69a" stroke-width="2"/><rect x="952" y="351.05640959999624" width="8" height="55.461638400001846" fill="#26a69a"/><line x1="968" y1="314.6101903999988" x2="968" y2="371.65644640000204" stroke="#26a69a" stroke-width="2"/><rect x="964" y="324.11789920000047" width="8" height="23.769273600000815" fill="#26a69a"/><line x1="980" y1="305.1024799999959" x2="980" y2="354.2256464000002" stroke="#ef5350" stroke-width="2"/><rect x="976" y="324.11789920000047" width="8" height="6.338473599998906" fill="#ef5350"/><line x1="992" y1="259.14855039999566" x2="992" y2="330.4563727999994" stroke="#26a69a" stroke-width="2"/><rect x="988" y="295.5947712000034" width="8" height="34.86160159999599" fill="#26a69a"/><line x1="1004" y1="286.0870608000005" x2="1004" y2="393.84110240000155" stroke="#ef5350" stroke-width="2"/><rect x="1000" y="297.17938879999565" width="8" height="85.56938560000157" fill="#ef5350"/><line x1="1016" y1="718.687844799997" x2="1016" y2="869.2265792000035" stroke="#26a69a" stroke-width="2"/><rect x="1012" y="755.1340655999957" width="8" height="49.123164800002996" fill="#26a69a"/><line x1="1028" y1="737.7032640000016" x2="1028" y2="848.6265423999976" stroke="#ef5350" stroke-width="2"/><rect x="1024" y="756.718683199997" width="8" height="80.81553120000535" fill="#ef5350"/><line x1="1040" y1="839.1188320000037" x2="1040" y2="964.3036751999989" stroke="#ef5350" stroke-width="2"/><rect x="1036" y="840.7034511999973" width="8" height="93.4924768000019" fill="#ef5350"/><line x1="1052" y1="763.0571567999959" x2="1052" y2="948.4574927999984" stroke="#26a69a" stroke-width="2"/><rect x="1048" y="774.1494848000002" width="8" height="161.63106080000034" fill="#26a69a"/><line x1="1064" y1="701.2570448000042" x2="1064" y2="780.4879567999978" stroke="#26a69a" stroke-width="2"/><rect x="1060" y="701.2570448000042" width="8" height="69.72320319999199" fill="#26a69a"/><line x1="1076" y1="690.1647168" x2="1076" y2="750.3802095999981" stroke="#ef5350" stroke-width="2"/><rect x="1072" y="702.8416623999965" width="8" height="15.846182400000544" fill="#ef5350"/><line x1="1088" y1="702.8416623999965" x2="1088" y2="767.8110112000013" stroke="#ef5350" stroke-width="2"/><rect x="1084" y="726.6109359999973" width="8" height="36.44622079999863" fill="#ef5350"/><line x1="1100" y1="637.8723136000008" x2="1100" y2="758.3033007999984" stroke="#26a69a" stroke-width="2"/><rect x="1096" y="655.303115200004" width="8" height="101.41556799999307" fill="#26a69a"/><line x1="1112" y1="553.8875472000018" x2="1112" y2="649.7569503999966" stroke="#26a69a" stroke-width="2"/><rect x="1108" y="596.672239999998" width="8" height="50.70778400000563" fill="#26a69a"/><line x1="1124" y1="552.3029279999992" x2="1124" y2="603.0107119999957" stroke="#26a69a" stroke-width="2"/><rect x="1120" y="568.9414192000004" width="8" height="24.561584000002767" fill="#26a69a"/><line x1="1136" y1="485.7489616000021" x2="1136" y2="587.1645296000042" stroke="#ef5350" stroke-width="2"/><rect x="1132" y="568.1491103999997" width="8" height="4.753854399996271" fill="#ef5350"/><line x1="1148" y1="541.210600000004" x2="1148" y2="614.10304" stroke="#ef5350" stroke-width="2"/><rect x="1144" y="571.3183472000037" width="8" height="23.769273600000815" fill="#ef5350"/><line x1="1160" y1="550.7183103999978" x2="1160" y2="629.9492224000005" stroke="#26a69a" stroke-width="2"/><rect x="1156" y="550.7183103999978" width="8" height="44.369310400006725" fill="#26a69a"/><line x1="1172" y1="534.8721279999972" x2="1172" y2="614.10304" stroke="#ef5350" stroke-width="2"/><rect x="1168" y="542.7952191999975" width="8" height="38.03083839999999" fill="#ef5350"/><line x1="1184" y1="558.6414015999981" x2="1184" y2="601.4260944000034" stroke="#26a69a" stroke-width="2"/><rect x="1180" y="572.744504000002" width="8" height="5.0707775999944715" fill="#26a69a"/><line x1="1196" y1="566.5644927999983" x2="1196" y2="645.795404800001" stroke="#ef5350" stroke-width="2"/><rect x="1192" y="574.4875839999986" width="8" height="41.200075200003994" fill="#ef5350"/><line x1="1208" y1="587.1645296000042" x2="1208" y2="645.795404800001" stroke="#ef5350" stroke-width="2"/><rect x="1204" y="612.5184223999986" width="8" height="6.338471999997637" fill="#ef5350"/><line x1="1220" y1="560.2260191999994" x2="1220" y2="622.0261312000002" stroke="#26a69a" stroke-width="2"/><rect x="1216" y="561.8106384000021" width="8" height="53.87702080000054" fill="#26a69a"/><line x1="1232" y1="517.4413264000032" x2="1232" y2="568.1491103999997" stroke="#26a69a" stroke-width="2"/><rect x="1228" y="531.7028912000023" width="8" height="27.730819199996404" fill="#26a69a"/><line x1="1244" y1="496.84128959999725" x2="1244" y2="561.6521759999978" stroke="#ef5350" stroke-width="2"/><rect x="1240" y="527.7413455999977" width="8" height="16.638491200001226" fill="#ef5350"/><line x1="1256" y1="511.10285280000426" x2="1256" y2="561.8106384000021" stroke="#26a69a" stroke-width="2"/><rect x="1252" y="541.210600000004" width="8" height="3.1692367999949056" fill="#26a69a"/><line x1="1268" y1="485.7489616000021" x2="1268" y2="565.7721839999977" stroke="#26a69a" stroke-width="2"/><rect x="1264" y="517.4413264000032" width="8" height="20.600036799996815" fill="#26a69a"/><line x1="1280" y1="507.9336176000015" x2="1280" y2="566.5644927999983" stroke="#ef5350" stroke-width="2"/><rect x="1276" y="517.5997887999984" width="8" height="26.780048000000534" fill="#ef5350"/><line x1="1292" y1="526.949036799997" x2="1292" y2="585.5799120000029" stroke="#26a69a" stroke-width="2"/><rect x="1288" y="536.4567455999986" width="8" height="4.753854400005366" fill="#26a69a"/><line x1="1304" y1="520.6105631999981" x2="1304" y2="577.6568208000026" stroke="#ef5350" stroke-width="2"/><rect x="1300" y="533.2875088000037" width="8" height="11.092327999995177" fill="#ef5350"/><line x1="1316" y1="490.50281599999835" x2="1316" y2="574.4875839999986" stroke="#26a69a" stroke-width="2"/><rect x="1312" y="493.67205280000235" width="8" height="45.953929600000265" fill="#26a69a"/><line x1="1328" y1="466.73354239999753" x2="1328" y2="511.8951631999971" stroke="#ef5350" stroke-width="2"/><rect x="1324" y="490.50281599999835" width="8" height="12.676945600005638" fill="#ef5350"/><line x1="1340" y1="446.1335056000007" x2="1340" y2="507.9336176000015" stroke="#26a69a" stroke-width="2"/><rect x="1336" y="457.2258335999959" width="8" height="47.53854720000163" fill="#26a69a"/><line x1="1352" y1="457.2258335999959" x2="1352" y2="512.6874719999978" stroke="#ef5350" stroke-width="2"/><rect x="1348" y="457.2258335999959" width="8" height="14.261563200007004" fill="#ef5350"/><line x1="1364" y1="460.3950687999986" x2="1364" y2="503.179761600004" stroke="#ef5350" stroke-width="2"/><rect x="1360" y="474.6566335999978" width="8" height="28.52312800000618" fill="#ef5350"/><line x1="1376" y1="498.4259071999986" x2="1376" y2="569.7337296000023" stroke="#ef5350" stroke-width="2"/><rect x="1372" y="501.5951440000026" width="8" height="57.04625759999544" fill="#ef5350"/><line x1="1388" y1="530.1182719999997" x2="1388" y2="599.8414752000008" stroke="#ef5350" stroke-width="2"/><rect x="1384" y="558.6414015999981" width="8" height="33.27698240000245" fill="#ef5350"/><line x1="1400" y1="534.8721279999972" x2="1400" y2="590.3337663999991" stroke="#26a69a" stroke-width="2"/><rect x="1396" y="539.7844447999978" width="8" height="50.54932160000135" fill="#26a69a"/><line x1="1412" y1="509.5182352000029" x2="1412" y2="550.7183103999978" stroke="#26a69a" stroke-width="2"/><rect x="1408" y="519.0259455999967" width="8" height="20.60003680000591" fill="#26a69a"/><line x1="1424" y1="511.10285280000426" x2="1424" y2="553.8875472000018" stroke="#ef5350" stroke-width="2"/><rect x="1420" y="515.8567088000018" width="8" height="15.846182400000544" fill="#ef5350"/><line x1="1436" y1="519.0259455999967" x2="1436" y2="558.6414015999981" stroke="#ef5350" stroke-width="2"/><rect x="1432" y="533.2875088000037" width="8" height="22.18465599999945" fill="#ef5350"/><line x1="1448" y1="541.210600000004" x2="1448" y2="585.5799120000029" stroke="#ef5350" stroke-width="2"/><rect x="1444" y="549.1336912000043" width="8" height="28.523129599998356" fill="#ef5350"/><line x1="1460" y1="553.8875472000018" x2="1460" y2="593.5030032000031" stroke="#ef5350" stroke-width="2"/><rect x="1456" y="579.241438400004" width="8" height="12.676945599996543" fill="#ef5350"/><line x1="1472" y1="531.7028912000023" x2="1472" y2="603.0107119999957" stroke="#26a69a" stroke-width="2"/><rect x="1468" y="555.4721648000032" width="8" height="34.86160159999599" fill="#26a69a"/><line x1="1484" y1="534.8721279999972" x2="1484" y2="564.9798735999957" stroke="#ef5350" stroke-width="2"/><rect x="1480" y="552.3029279999992" width="8" height="2" fill="#ef5350"/><line x1="1496" y1="503.179761600004" x2="1496" y2="574.4875839999986" stroke="#26a69a" stroke-width="2"/><rect x="1492" y="504.7643807999975" width="8" height="49.123166400004266" fill="#26a69a"/><line x1="1508" y1="496.99975040000027" x2="1508" y2="547.5490736000029" stroke="#ef5350" stroke-width="2"/><rect x="1504" y="503.179761600004" width="8" height="33.27698399999463" fill="#ef5350"/><line x1="1520" y1="515.8567088000018" x2="1520" y2="550.7183103999978" stroke="#26a69a" stroke-width="2"/><rect x="1516" y="519.0259455999967" width="8" height="12.676945600005638" fill="#26a69a"/><line x1="1532" y1="519.0259455999967" x2="1532" y2="561.8106384000021" stroke="#ef5350" stroke-width="2"/><rect x="1528" y="522.1951807999994" width="8" height="23.769275200002085" fill="#ef5350"/><line x1="1544" y1="515.8567088000018" x2="1544" y2="585.5799120000029" stroke="#26a69a" stroke-width="2"/><rect x="1540" y="520.6105631999981" width="8" height="28.52312800000618" fill="#26a69a"/><line x1="1556" y1="488.918198399997" x2="1556" y2="522.1951807999994" stroke="#26a69a" stroke-width="2"/><rect x="1552" y="503.179761600004" width="8" height="11.092327999995177" fill="#26a69a"/><line x1="1568" y1="473.8643247999971" x2="1568" y2="521.4028719999988" stroke="#26a69a" stroke-width="2"/><rect x="1564" y="489.71050719999766" width="8" height="10.458480000006602" fill="#26a69a"/><line x1="1580" y1="468.3181599999989" x2="1580" y2="490.50281599999835" stroke="#26a69a" stroke-width="2"/><rect x="1576" y="479.41048800000317" width="8" height="11.092327999995177" fill="#26a69a"/><line x1="1592" y1="461.97968800000126" x2="1592" y2="495.2566704000037" stroke="#ef5350" stroke-width="2"/><rect x="1588" y="476.24125119999917" width="8" height="4.7538559999975405" fill="#ef5350"/><line x1="1604" y1="474.6566335999978" x2="1604" y2="501.5951440000026" stroke="#ef5350" stroke-width="2"/><rect x="1600" y="474.6566335999978" width="8" height="11.092328000004272" fill="#ef5350"/><line x1="1616" y1="428.7027039999975" x2="1616" y2="484.1643440000007" stroke="#26a69a" stroke-width="2"/><rect x="1612" y="444.5488863999981" width="8" height="38.03083839999999" fill="#26a69a"/><line x1="1628" y1="433.4565584000029" x2="1628" y2="479.41048800000317" stroke="#ef5350" stroke-width="2"/><rect x="1624" y="442.9642687999968" width="8" height="33.276982400002396" fill="#ef5350"/><line x1="1640" y1="460.3950687999986" x2="1640" y2="492.087435200001" stroke="#26a69a" stroke-width="2"/><rect x="1636" y="465.14892479999617" width="8" height="9.507708800001637" fill="#26a69a"/><line x1="1652" y1="447.7181232000021" x2="1652" y2="485.7489616000021" stroke="#26a69a" stroke-width="2"/><rect x="1648" y="447.7181232000021" width="8" height="18.223110399994766" fill="#26a69a"/><line x1="1664" y1="436.62579519999787" x2="1664" y2="460.3950687999986" stroke="#ef5350" stroke-width="2"/><rect x="1660" y="446.1335056000007" width="8" height="7.923091200000272" fill="#ef5350"/><line x1="1676" y1="401.7641936000018" x2="1676" y2="455.64121440000235" stroke="#26a69a" stroke-width="2"/><rect x="1672" y="404.9334303999967" width="8" height="50.70778400000563" fill="#26a69a"/><line x1="1688" y1="393.04879360000086" x2="1688" y2="409.6872848000021" stroke="#ef5350" stroke-width="2"/><rect x="1684" y="401.7641936000018" width="8" height="2" fill="#ef5350"/><line x1="1700" y1="387.50262880000264" x2="1700" y2="412.856521599997" stroke="#26a69a" stroke-width="2"/><rect x="1696" y="400.17957600000045" width="8" height="3.1692368000040005" fill="#26a69a"/><line x1="1712" y1="397.0103391999965" x2="1712" y2="430.2873232000001" stroke="#ef5350" stroke-width="2"/><rect x="1708" y="398.5949567999978" width="8" height="30.107747199999665" fill="#ef5350"/><line x1="1724" y1="416.025758400001" x2="1724" y2="439.7950320000018" stroke="#26a69a" stroke-width="2"/><rect x="1720" y="420.77961279999727" width="8" height="2" fill="#26a69a"/><line x1="1736" y1="417.6103760000023" x2="1736" y2="460.3950687999986" stroke="#ef5350" stroke-width="2"/><rect x="1732" y="420.77961279999727" width="8" height="38.03083839999999" fill="#ef5350"/><line x1="1748" y1="408.89497600000146" x2="1748" y2="463.5643056000026" stroke="#26a69a" stroke-width="2"/><rect x="1744" y="414.44113919999836" width="8" height="45.953929600000265" fill="#26a69a"/><line x1="1760" y1="403.34881280000445" x2="1760" y2="426.959624000001" stroke="#ef5350" stroke-width="2"/><rect x="1756" y="414.44113919999836" width="8" height="7.923091200000215" fill="#ef5350"/><line x1="1772" y1="389.0872479999961" x2="1772" y2="433.4565584000029" stroke="#26a69a" stroke-width="2"/><rect x="1768" y="414.44113919999836" width="8" height="11.09232800000433" fill="#26a69a"/><line x1="1784" y1="380.3718480000043" x2="1784" y2="419.1949951999959" stroke="#26a69a" stroke-width="2"/><rect x="1780" y="389.0872479999961" width="8" height="26.938510400004873" fill="#26a69a"/><line x1="1796" y1="374.825683199997" x2="1796" y2="400.9718848000011" stroke="#26a69a" stroke-width="2"/><rect x="1792" y="390.6718655999976" width="8" height="2" fill="#26a69a"/><line x1="1808" y1="382.7487743999972" x2="1808" y2="439.7950320000018" stroke="#ef5350" stroke-width="2"/><rect x="1804" y="389.0872479999961" width="8" height="48.33085600000237" fill="#ef5350"/><line x1="1820" y1="419.98730399999664" x2="1820" y2="474.6566335999978" stroke="#ef5350" stroke-width="2"/><rect x="1816" y="439.7950320000018" width="8" height="30.10774719999972" fill="#ef5350"/><line x1="1832" y1="463.5643056000026" x2="1832" y2="520.6105631999981" stroke="#ef5350" stroke-width="2"/><rect x="1828" y="471.4873968000029" width="8" height="28.523129599998356" fill="#ef5350"/><line x1="1844" y1="459.60275999999794" x2="1844" y2="507.9336176000015" stroke="#26a69a" stroke-width="2"/><rect x="1840" y="479.41048800000317" width="8" height="17.430801599994084" fill="#26a69a"/><line x1="1856" y1="479.41048800000317" x2="1856" y2="547.5490736000029" stroke="#ef5350" stroke-width="2"/><rect x="1852" y="480.9951071999967" width="8" height="30.107745600007547" fill="#ef5350"/><line x1="1868" y1="501.5951440000026" x2="1868" y2="528.5336543999983" stroke="#ef5350" stroke-width="2"/><rect x="1864" y="511.10285280000426" width="8" height="14.261564799999178" fill="#ef5350"/><line x1="1880" y1="484.1643440000007" x2="1880" y2="545.9644560000015" stroke="#26a69a" stroke-width="2"/><rect x="1876" y="492.087435200001" width="8" height="34.86160159999599" fill="#26a69a"/><line x1="1892" y1="471.4873968000029" x2="1892" y2="511.10285280000426" stroke="#ef5350" stroke-width="2"/><rect x="1888" y="490.50281599999835" width="8" height="14.261564799999178" fill="#ef5350"/><line x1="1904" y1="447.7181232000021" x2="1904" y2="503.97207199999684" stroke="#26a69a" stroke-width="2"/><rect x="1900" y="466.73354239999753" width="8" height="36.44621920000645" fill="#26a69a"/><line x1="1916" y1="439.7950320000018" x2="1916" y2="488.918198399997" stroke="#ef5350" stroke-width="2"/><rect x="1912" y="468.3181599999989" width="8" height="15.846184000001813" fill="#ef5350"/><line x1="1928" y1="482.5797247999981" x2="1928" y2="596.672239999998" stroke="#ef5350" stroke-width="2"/><rect x="1924" y="484.1643440000007" width="8" height="96.6617135999968" fill="#ef5350"/><line x1="1940" y1="550.7183103999978" x2="1940" y2="620.4415135999989" stroke="#ef5350" stroke-width="2"/><rect x="1936" y="577.6568208000026" width="8" height="34.86160159999599" fill="#ef5350"/><rect x="75" y="970.3973755755976" width="10" height="49.60262442440239" fill="#ef5350" opacity="0.9"/><rect x="87" y="983.8983386671215" width="10" height="36.10166133287851" fill="#26a69a" opacity="0.9"/><rect x="99" y="990.3909298849306" width="10" height="29.609070115069358" fill="#ef5350" opacity="0.9"/><rect x="111" y="991.1365734006159" width="10" height="28.86342659938407" fill="#ef5350" opacity="0.9"/><rect x="123" y="989.3785551620703" width="10" height="30.621444837929744" fill="#26a69a" opacity="0.9"/><rect x="135" y="994.3956600688209" width="10" height="25.604339931179084" fill="#ef5350" opacity="0.9"/><rect x="147" y="987.2943649113655" width="10" height="32.705635088634494" fill="#26a69a" opacity="0.9"/><rect x="159" y="983.0590194524424" width="10" height="36.940980547557615" fill="#ef5350" opacity="0.9"/><rect x="171" y="987.5189608643747" width="10" height="32.48103913562534" fill="#ef5350" opacity="0.9"/><rect x="183" y="1000.86154054515" width="10" height="19.13845945485002" fill="#26a69a" opacity="0.9"/><rect x="195" y="1001.236243341125" width="10" height="18.763756658874968" fill="#ef5350" opacity="0.9"/><rect x="207" y="995.0566568685481" width="10" height="24.94334313145191" fill="#26a69a" opacity="0.9"/><rect x="219" y="1002.643259864164" width="10" height="17.35674013583605" fill="#ef5350" opacity="0.9"/><rect x="231" y="1002.4574132966824" width="10" height="17.542586703317625" fill="#ef5350" opacity="0.9"/><rect x="243" y="989.6761353946167" width="10" height="30.323864605383278" fill="#ef5350" opacity="0.9"/><rect x="255" y="996.7119704250645" width="10" height="23.288029574935535" fill="#26a69a" opacity="0.9"/><rect x="267" y="1000.7430351428084" width="10" height="19.256964857191633" fill="#ef5350" opacity="0.9"/><rect x="279" y="1003.9671345017506" width="10" height="16.032865498249407" fill="#26a69a" opacity="0.9"/><rect x="291" y="991.1753227861435" width="10" height="28.82467721385649" fill="#26a69a" opacity="0.9"/><rect x="303" y="998.8845694679923" width="10" height="21.115430532007736" fill="#26a69a" opacity="0.9"/><rect x="315" y="996.3820363366406" width="10" height="23.617963663359433" fill="#26a69a" opacity="0.9"/><rect x="327" y="1002.3419175553527" width="10" height="17.658082444647334" fill="#ef5350" opacity="0.9"/><rect x="339" y="997.1491236870354" width="10" height="22.8508763129646" fill="#26a69a" opacity="0.9"/><rect x="351" y="995.5389550456966" width="10" height="24.46104495430336" fill="#26a69a" opacity="0.9"/><rect x="363" y="989.5745593354668" width="10" height="30.4254406645332" fill="#26a69a" opacity="0.9"/><rect x="375" y="993.691775599675" width="10" height="26.308224400325003" fill="#ef5350" opacity="0.9"/><rect x="387" y="997.5674665676822" width="10" height="22.43253343231777" fill="#ef5350" opacity="0.9"/><rect x="399" y="999.5809297846085" width="10" height="20.419070215391457" fill="#26a69a" opacity="0.9"/><rect x="411" y="996.7465815267008" width="10" height="23.253418473299234" fill="#26a69a" opacity="0.9"/><rect x="423" y="997.9485648933075" width="10" height="22.051435106692452" fill="#26a69a" opacity="0.9"/><rect x="435" y="996.1593214217638" width="10" height="23.84067857823618" fill="#ef5350" opacity="0.9"/><rect x="447" y="997.8650468002287" width="10" height="22.134953199771303" fill="#ef5350" opacity="0.9"/><rect x="459" y="1003.6560107946508" width="10" height="16.343989205349203" fill="#ef5350" opacity="0.9"/><rect x="471" y="996.8733634968248" width="10" height="23.126636503175177" fill="#26a69a" opacity="0.9"/><rect x="483" y="1002.166981009039" width="10" height="17.833018990961023" fill="#ef5350" opacity="0.9"/><rect x="495" y="1002.2881198647659" width="10" height="17.711880135234082" fill="#26a69a" opacity="0.9"/><rect x="507" y="995.4482890077147" width="10" height="24.55171099228528" fill="#ef5350" opacity="0.9"/><rect x="519" y="996.9858495771426" width="10" height="23.01415042285737" fill="#26a69a" opacity="0.9"/><rect x="531" y="996.9335567170617" width="10" height="23.06644328293828" fill="#26a69a" opacity="0.9"/><rect x="543" y="994.7169413818357" width="10" height="25.28305861816432" fill="#26a69a" opacity="0.9"/><rect x="555" y="991.3908897561172" width="10" height="28.60911024388281" fill="#26a69a" opacity="0.9"/><rect x="567" y="996.7356715055328" width="10" height="23.264328494467236" fill="#26a69a" opacity="0.9"/><rect x="579" y="1002.2956440172956" width="10" height="17.704355982704442" fill="#26a69a" opacity="0.9"/><rect x="591" y="993.8783745824095" width="10" height="26.121625417590508" fill="#26a69a" opacity="0.9"/><rect x="603" y="994.3979173145798" width="10" height="25.602082685420214" fill="#26a69a" opacity="0.9"/><rect x="615" y="993.057489541428" width="10" height="26.942510458571974" fill="#ef5350" opacity="0.9"/><rect x="627" y="985.7737336851293" width="10" height="34.22626631487071" fill="#ef5350" opacity="0.9"/><rect x="639" y="1002.4194163264077" width="10" height="17.580583673592287" fill="#26a69a" opacity="0.9"/><rect x="651" y="995.0412323558623" width="10" height="24.95876764413765" fill="#26a69a" opacity="0.9"/><rect x="663" y="982.7478957453426" width="10" height="37.25210425465741" fill="#ef5350" opacity="0.9"/><rect x="675" y="998.7796075402041" width="10" height="21.220392459795903" fill="#26a69a" opacity="0.9"/><rect x="687" y="996.6145326498058" width="10" height="23.385467350194176" fill="#26a69a" opacity="0.9"/><rect x="699" y="987.0389199329849" width="10" height="32.96108006701513" fill="#26a69a" opacity="0.9"/><rect x="711" y="994.5540434795694" width="10" height="25.445956520430627" fill="#26a69a" opacity="0.9"/><rect x="723" y="994.225238014025" width="10" height="25.774761985975033" fill="#26a69a" opacity="0.9"/><rect x="735" y="992.8991061306795" width="10" height="27.100893869320544" fill="#ef5350" opacity="0.9"/><rect x="747" y="1000.0417841270478" width="10" height="19.958215872952223" fill="#ef5350" opacity="0.9"/><rect x="759" y="998.4033999137231" width="10" height="21.596600086276908" fill="#ef5350" opacity="0.9"/><rect x="771" y="988.9361349933286" width="10" height="31.06386500667145" fill="#ef5350" opacity="0.9"/><rect x="783" y="999.7528566699104" width="10" height="20.247143330089557" fill="#26a69a" opacity="0.9"/><rect x="795" y="995.7710751512354" width="10" height="24.228924848764564" fill="#ef5350" opacity="0.9"/><rect x="807" y="1001.1895935954414" width="10" height="18.81040640455865" fill="#ef5350" opacity="0.9"/><rect x="819" y="1000.5598220287121" width="10" height="19.44017797128788" fill="#ef5350" opacity="0.9"/><rect x="831" y="998.6618545531155" width="10" height="21.338145446884482" fill="#ef5350" opacity="0.9"/><rect x="843" y="995.8658794731086" width="10" height="24.134120526891365" fill="#ef5350" opacity="0.9"/><rect x="855" y="995.7063674394807" width="10" height="24.293632560519313" fill="#26a69a" opacity="0.9"/><rect x="867" y="999.8657189578547" width="10" height="20.13428104214529" fill="#ef5350" opacity="0.9"/><rect x="879" y="995.1740336480101" width="10" height="24.825966351989905" fill="#26a69a" opacity="0.9"/><rect x="891" y="972.5432638770453" width="10" height="47.45673612295468" fill="#ef5350" opacity="0.9"/><rect x="903" y="990.5782812829182" width="10" height="29.42171871708183" fill="#ef5350" opacity="0.9"/><rect x="915" y="986.106677434565" width="10" height="33.89332256543503" fill="#ef5350" opacity="0.9"/><rect x="927" y="987.9463327280571" width="10" height="32.05366727194291" fill="#26a69a" opacity="0.9"/><rect x="939" y="992.8761574654642" width="10" height="27.12384253453581" fill="#ef5350" opacity="0.9"/><rect x="951" y="989.799155288476" width="10" height="30.20084471152404" fill="#26a69a" opacity="0.9"/><rect x="963" y="985.2602102749827" width="10" height="34.73978972501732" fill="#26a69a" opacity="0.9"/><rect x="975" y="986.6570691921066" width="10" height="33.34293080789337" fill="#ef5350" opacity="0.9"/><rect x="987" y="958.9414771416247" width="10" height="61.05852285837534" fill="#26a69a" opacity="0.9"/><rect x="999" y="927.393834207807" width="10" height="92.606165792193" fill="#ef5350" opacity="0.9"/><rect x="1011" y="959.6694388988653" width="10" height="60.33056110113466" fill="#26a69a" opacity="0.9"/><rect x="1023" y="988.8947521544156" width="10" height="31.10524784558436" fill="#ef5350" opacity="0.9"/><rect x="1035" y="965.9916080618787" width="10" height="54.00839193812135" fill="#ef5350" opacity="0.9"/><rect x="1047" y="965.1312212201166" width="10" height="54.86877877988343" fill="#26a69a" opacity="0.9"/><rect x="1059" y="987.442590716199" width="10" height="32.55740928380101" fill="#26a69a" opacity="0.9"/><rect x="1071" y="993.9333008958757" width="10" height="26.066699104124268" fill="#ef5350" opacity="0.9"/><rect x="1083" y="988.0433942956892" width="10" height="31.956605704310846" fill="#ef5350" opacity="0.9"/><rect x="1095" y="990.2965017706839" width="10" height="29.703498229316097" fill="#26a69a" opacity="0.9"/><rect x="1107" y="987.7601099529489" width="10" height="32.23989004705106" fill="#26a69a" opacity="0.9"/><rect x="1119" y="990.2904824486602" width="10" height="29.709517551339786" fill="#26a69a" opacity="0.9"/><rect x="1131" y="982.2200764453897" width="10" height="37.779923554610264" fill="#ef5350" opacity="0.9"/><rect x="1143" y="984.0191013152219" width="10" height="35.98089868477814" fill="#ef5350" opacity="0.9"/><rect x="1155" y="991.6888461962901" width="10" height="28.311153803709885" fill="#26a69a" opacity="0.9"/><rect x="1167" y="996.8526720773683" width="10" height="23.14732792263169" fill="#ef5350" opacity="0.9"/><rect x="1179" y="999.2397094673903" width="10" height="20.7602905326097" fill="#26a69a" opacity="0.9"/><rect x="1191" y="996.0844561040941" width="10" height="23.9155438959059" fill="#ef5350" opacity="0.9"/><rect x="1203" y="994.1706879081853" width="10" height="25.8293120918147" fill="#ef5350" opacity="0.9"/><rect x="1215" y="992.6767674234292" width="10" height="27.32323257657083" fill="#26a69a" opacity="0.9"/><rect x="1227" y="986.3184823282737" width="10" height="33.68151767172628" fill="#26a69a" opacity="0.9"/><rect x="1239" y="994.8151315723472" width="10" height="25.18486842765276" fill="#ef5350" opacity="0.9"/><rect x="1251" y="992.1282567040199" width="10" height="27.87174329598008" fill="#26a69a" opacity="0.9"/><rect x="1263" y="997.4011827967777" width="10" height="22.598817203222325" fill="#26a69a" opacity="0.9"/><rect x="1275" y="999.5323990007926" width="10" height="20.467600999207434" fill="#ef5350" opacity="0.9"/><rect x="1287" y="995.2048826733816" width="10" height="24.795117326618424" fill="#26a69a" opacity="0.9"/><rect x="1299" y="997.8740757832643" width="10" height="22.12592421673571" fill="#ef5350" opacity="0.9"/><rect x="1311" y="991.9529439500798" width="10" height="28.04705604992023" fill="#26a69a" opacity="0.9"/><rect x="1323" y="993.1846477191785" width="10" height="26.815352280821457" fill="#ef5350" opacity="0.9"/><rect x="1335" y="989.4658353314138" width="10" height="30.534164668586186" fill="#26a69a" opacity="0.9"/><rect x="1347" y="989.511356454218" width="10" height="30.488643545781997" fill="#ef5350" opacity="0.9"/><rect x="1359" y="985.3290562706287" width="10" height="34.67094372937129" fill="#ef5350" opacity="0.9"/><rect x="1371" y="989.6434053311128" width="10" height="30.35659466888717" fill="#ef5350" opacity="0.9"/><rect x="1383" y="999.7246410979243" width="10" height="20.27535890207571" fill="#ef5350" opacity="0.9"/><rect x="1395" y="1000.9454348458552" width="10" height="19.054565154144825" fill="#26a69a" opacity="0.9"/><rect x="1407" y="998.6885652945956" width="10" height="21.311434705404395" fill="#26a69a" opacity="0.9"/><rect x="1419" y="1003.4987560067817" width="10" height="16.50124399321828" fill="#ef5350" opacity="0.9"/><rect x="1431" y="1003.1913943759467" width="10" height="16.808605624053257" fill="#ef5350" opacity="0.9"/><rect x="1443" y="991.6933606878079" width="10" height="28.306639312192146" fill="#ef5350" opacity="0.9"/><rect x="1455" y="1000.2972291054284" width="10" height="19.702770894571586" fill="#ef5350" opacity="0.9"/><rect x="1467" y="1004.8933576781468" width="10" height="15.1066423218532" fill="#26a69a" opacity="0.9"/><rect x="1479" y="1005.6314770413026" width="10" height="14.36852295869744" fill="#ef5350" opacity="0.9"/><rect x="1491" y="1001.8013071960995" width="10" height="18.198692803900485" fill="#26a69a" opacity="0.9"/><rect x="1503" y="1001.592888171029" width="10" height="18.407111828970983" fill="#ef5350" opacity="0.9"/><rect x="1515" y="1005.0750659617372" width="10" height="14.92493403826279" fill="#26a69a" opacity="0.9"/><rect x="1527" y="1000.9356534475667" width="10" height="19.064346552433335" fill="#ef5350" opacity="0.9"/><rect x="1539" y="992.3983737798333" width="10" height="27.601626220166736" fill="#26a69a" opacity="0.9"/><rect x="1551" y="1001.1064517099891" width="10" height="18.893548290010926" fill="#26a69a" opacity="0.9"/><rect x="1563" y="1003.6575156251567" width="10" height="16.342484374843252" fill="#26a69a" opacity="0.9"/><rect x="1575" y="995.9196771636955" width="10" height="24.080322836304504" fill="#26a69a" opacity="0.9"/><rect x="1587" y="1003.6797118751191" width="10" height="16.320288124880904" fill="#ef5350" opacity="0.9"/><rect x="1599" y="1003.6909981039136" width="10" height="16.309001896086443" fill="#ef5350" opacity="0.9"/><rect x="1611" y="997.7913101054385" width="10" height="22.20868989456153" fill="#26a69a" opacity="0.9"/><rect x="1623" y="1003.6285476379177" width="10" height="16.371452362082323" fill="#ef5350" opacity="0.9"/><rect x="1635" y="1003.5551871507539" width="10" height="16.44481284924609" fill="#26a69a" opacity="0.9"/><rect x="1647" y="1006.0742734176707" width="10" height="13.925726582329276" fill="#26a69a" opacity="0.9"/><rect x="1659" y="996.6672017175132" width="10" height="23.332798282486806" fill="#ef5350" opacity="0.9"/><rect x="1671" y="998.3492260155098" width="10" height="21.65077398449023" fill="#26a69a" opacity="0.9"/><rect x="1683" y="1000.0797810973224" width="10" height="19.92021890267756" fill="#ef5350" opacity="0.9"/><rect x="1695" y="999.3905687256092" width="10" height="20.609431274390772" fill="#26a69a" opacity="0.9"/><rect x="1707" y="1005.9866170407006" width="10" height="14.013382959299406" fill="#ef5350" opacity="0.9"/><rect x="1719" y="1002.9844801813822" width="10" height="17.015519818617804" fill="#26a69a" opacity="0.9"/><rect x="1731" y="1004.9817664703698" width="10" height="15.018233529630152" fill="#ef5350" opacity="0.9"/><rect x="1743" y="1003.4878459856138" width="10" height="16.51215401438617" fill="#26a69a" opacity="0.9"/><rect x="1755" y="1003.8651822349742" width="10" height="16.134817765025787" fill="#ef5350" opacity="0.9"/><rect x="1767" y="1002.9077338255801" width="10" height="17.092266174419933" fill="#26a69a" opacity="0.9"/><rect x="1779" y="1003.3512826172013" width="10" height="16.648717382798736" fill="#26a69a" opacity="0.9"/><rect x="1791" y="994.5863973354468" width="10" height="25.413602664553196" fill="#26a69a" opacity="0.9"/><rect x="1803" y="1000.4875901644278" width="10" height="19.512409835572157" fill="#ef5350" opacity="0.9"/><rect x="1815" y="997.1047311871106" width="10" height="22.895268812889412" fill="#ef5350" opacity="0.9"/><rect x="1827" y="990.1719770463187" width="10" height="29.828022953681284" fill="#ef5350" opacity="0.9"/><rect x="1839" y="989.9628056059953" width="10" height="30.0371943940047" fill="#26a69a" opacity="0.9"/><rect x="1851" y="994.750800068219" width="10" height="25.24919993178105" fill="#ef5350" opacity="0.9"/><rect x="1863" y="998.4771366085133" width="10" height="21.52286339148668" fill="#ef5350" opacity="0.9"/><rect x="1875" y="984.2745462936025" width="10" height="35.7254537063975" fill="#26a69a" opacity="0.9"/><rect x="1887" y="994.5871497506997" width="10" height="25.412850249300277" fill="#ef5350" opacity="0.9"/><rect x="1899" y="982.2686072292057" width="10" height="37.73139277079429" fill="#26a69a" opacity="0.9"/><rect x="1911" y="985.9866672017175" width="10" height="34.01333279828248" fill="#ef5350" opacity="0.9"/><rect x="1923" y="902.1992094623743" width="10" height="117.80079053762574" fill="#ef5350" opacity="0.9"/><rect x="1935" y="860.0" width="10" height="160.0" fill="#ef5350" opacity="0.9"/><rect x="1004" y="382.7487743999972" width="12" height="421.50845600000144" fill="#ff2400" opacity="0.60"/><polyline points="320,552.0399570095287,332,547.5375211800565,344,540.2946521914782,356,532.0815040589605,368,522.5528277866761,380,520.4059419403256,392,519.5199334507743,404,516.303650417367,416,511.2808556728487,428,503.56718591353456,440,499.002807674151,452,496.6841244289935,464,495.0390161976611,476,491.5886766740732,488,489.67426906701803,500,486.2821098034965,512,489.2496542412573,524,489.82175101828034,536,485.51004962605475,548,479.4961620807135,560,468.6220489682637,572,457.4253214093824,584,445.6348726656325,596,433.0054153831952,608,417.5040309086034,620,404.38446499349993,632,394.9441295084125,644,384.42587366951557,656,374.0038602533696,668,367.29090807685674,680,358.0480481076302,692,347.5726361354736,704,334.4728979892443,716,321.11159357122233,728,308.72096241206236,740,301.886955934724,752,297.36388355998315,764,297.799060668558,776,298.49462441440664,788,293.5400511177977,800,290.1137541351454,812,287.91926722703465,824,289.1030156435136,836,292.58868242031895,848,296.04421300885406,860,296.3032409508651,872,300.00866821269483,884,301.3992893733939,896,312.46701190925705,908,322.78249770837647,920,332.719220440913,932,337.7857719417807,944,344.33170299495026,956,344.9721512430552,968,342.98603200085387,980,341.7927311245876,992,337.3929254174891,1004,341.7125300824864,1016,381.08600965558253,1028,424.5572672502931,1040,473.09428255978673,1052,501.76620658266074,1064,520.7653340319303,1076,539.6150969622249,1088,560.8952931372551,1100,569.8865142860905,1112,572.4375357826466,1124,572.1045722985855,1136,572.1806096796718,1148,574.3622297863749,1160,572.1104279400515,1172,572.9404879076628,1184,572.9218227736055,1196,576.9947595761187,1208,580.9816295593373,1220,579.155820877495,1232,574.6364942415403,1244,571.7549078185402,1256,568.8459261215394,1268,563.9502499575792,1280,562.0864010854348,1292,559.6454815153902,1304,558.19161059012,1316,552.0468908005932,1328,547.3928784957752,1340,538.8055408866512,1352,532.3942890688795,1364,529.6119531194654,1376,532.3766624985637,1388,538.047302641562,1400,538.2127447518906,1412,536.3854305469522,1424,535.9394744186739,1436,537.7997306454654,1448,541.5956439935144,1460,546.3882858988927,1472,547.2534172228097,1484,547.8852391253986,1496,543.7784907134574,1508,543.081181655034,1520,540.7902067926534,1532,541.2829924314428,1544,539.3141896474935,1556,535.8728155477274,1568,531.4764052288956,1580,526.5177464451881,1592,522.1822569932647,1604,518.7124193367617,1616,511.64922572373143,1628,508.27703767385174,1640,504.1695983525369,1652,498.7932673856267,1664,494.5326320917593,1676,485.99937478778884,1688,478.12789269371933,1700,470.7042434847972,1712,466.7040968671972,1724,462.33033647984485,1736,461.9951093103282,1748,457.46615977600413,1760,454.1231188830534,1772,450.34388272276374,1784,444.5099175110681,1796,439.38248399573234,1808,439.19540018660877,1820,442.11991247359947,1832,447.63330427611436,1844,450.6597027260068,1856,456.4161932092429,1868,462.98269077026816,1880,465.7545711921466,1892,469.46979115479735,1904,469.20919603529,1916,470.63349584145726,1928,481.1280255327438,1940,493.6413966629516" fill="none" stroke="#0090ff" stroke-width="2"/><line x1="80" y1="50" x2="80" y2="900" stroke="#666666" stroke-width="0.5" stroke-dasharray="4,4" opacity="0.90"/><line x1="152" y1="50" x2="152" y2="900" stroke="#666666" stroke-width="0.5" stroke-dasharray="4,4" opacity="0.90"/><line x1="224" y1="50" x2="224" y2="900" stroke="#666666" stroke-width="0.5" stroke-dasharray="4,4" opacity="0.90"/><line x1="296" y1="50" x2="296" y2="900" stroke="#666666" stroke-width="0.5" stroke-dasharray="4,4" opacity="0.90"/><line x1="368" y1="50" x2="368" y2="900" stroke="#666666" stroke-width="0.5" stroke-dasharray="4,4" opacity="0.90"/><line x1="440" y1="50" x2="440" y2="900" stroke="#666666" stroke-width="0.5" stroke-dasharray="4,4" opacity="0.90"/><line x1="512" y1="50" x2="512" y2="900" stroke="#666666" stroke-width="0.5" stroke-dasharray="4,4" opacity="0.90"/><line x1="584" y1="50" x2="584" y2="900" stroke="#666666" stroke-width="0.5" stroke-dasharray="4,4" opacity="0.90"/><line x1="656" y1="50" x2="656" y2="900" stroke="#666666" stroke-width="0.5" stroke-dasharray="4,4" opacity="0.90"/><line x1="728" y1="50" x2="728" y2="900" stroke="#666666" stroke-width="0.5" stroke-dasharray="4,4" opacity="0.90"/><line x1="800" y1="50" x2="800" y2="900" stroke="#666666" stroke-width="0.5" stroke-dasharray="4,4" opacity="0.90"/><line x1="872" y1="50" x2="872" y2="900" stroke="#666666" stroke-width="0.5" stroke-dasharray="4,4" opacity="0.90"/><line x1="944" y1="50" x2="944" y2="900" stroke="#666666" stroke-width="0.5" stroke-dasharray="4,4" opacity="0.90"/><line x1="1010" y1="30" x2="1010" y2="950" stroke="black" stroke-width="0.7"/><line x1="1016" y1="50" x2="1016" y2="900" stroke="#666666" stroke-width="0.5" stroke-dasharray="4,4" opacity="0.90"/><line x1="1088" y1="50" x2="1088" y2="900" stroke="#666666" stroke-width="0.5" stroke-dasharray="4,4" opacity="0.90"/><line x1="1160" y1="50" x2="1160" y2="900" stroke="#666666" stroke-width="0.5" stroke-dasharray="4,4" opacity="0.90"/><line x1="1232" y1="50" x2="1232" y2="900" stroke="#666666" stroke-width="0.5" stroke-dasharray="4,4" opacity="0.90"/><line x1="1304" y1="50" x2="1304" y2="900" stroke="#666666" stroke-width="0.5" stroke-dasharray="4,4" opacity="0.90"/><line x1="1376" y1="50" x2="1376" y2="900" stroke="#666666" stroke-width="0.5" stroke-dasharray="4,4" opacity="0.90"/><line x1="1448" y1="50" x2="1448" y2="900" stroke="#666666" stroke-width="0.5" stroke-dasharray="4,4" opacity="0.90"/><line x1="1520" y1="50" x2="1520" y2="900" stroke="#666666" stroke-width="0.5" stroke-dasharray="4,4" opacity="0.90"/><line x1="1592" y1="50" x2="1592" y2="900" stroke="#666666" stroke-width="0.5" stroke-dasharray="4,4" opacity="0.90"/><line x1="1664" y1="50" x2="1664" y2="900" stroke="#666666" stroke-width="0.5" stroke-dasharray="4,4" opacity="0.90"/><line x1="1736" y1="50" x2="1736" y2="900" stroke="#666666" stroke-width="0.5" stroke-dasharray="4,4" opacity="0.90"/><line x1="1808" y1="50" x2="1808" y2="900" stroke="#666666" stroke-width="0.5" stroke-dasharray="4,4" opacity="0.90"/><line x1="1880" y1="50" x2="1880" y2="900" stroke="#666666" stroke-width="0.5" stroke-dasharray="4,4" opacity="0.90"/><line x1="1946" y1="30" x2="1946" y2="950" stroke="black" stroke-width="0.7"/><text x="80" y="1040" text-anchor="middle" font-size="20" fill="black">09:30</text><text x="152" y="1040" text-anchor="middle" font-size="20" fill="black">10:00</text><text x="224" y="1040" text-anchor="middle" font-size="20" fill="black">10:30</text><text x="296" y="1040" text-anchor="middle" font-size="20" fill="black">11:00</text><text x="368" y="1040" text-anchor="middle" font-size="20" fill="black">11:30</text><text x="440" y="1040" text-anchor="middle" font-size="20" fill="black">12:00</text><text x="512" y="1040" text-anchor="middle" font-size="20" fill="black">12:30</text><text x="584" y="1040" text-anchor="middle" font-size="20" fill="black">13:00</text><text x="656" y="1040" text-anchor="middle" font-size="20" fill="black">13:30</text><text x="728" y="1040" text-anchor="middle" font-size="20" fill="black">14:00</text><text x="800" y="1040" text-anchor="middle" font-size="20" fill="black">14:30</text><text x="872" y="1040" text-anchor="middle" font-size="20" fill="black">15:00</text><text x="944" y="1040" text-anchor="middle" font-size="20" fill="black">15:30</text><text x="1016" y="1040" text-anchor="middle" font-size="20" fill="black">09:30</text><text x="1088" y="1040" text-anchor="middle" font-size="20" fill="black">10:00</text><text x="1160" y="1040" text-anchor="middle" font-size="20" fill="black">10:30</text><text x="1232" y="1040" text-anchor="middle" font-size="20" fill="black">11:00</text><text x="1304" y="1040" text-anchor="middle" font-size="20" fill="black">11:30</text><text x="1376" y="1040" text-anchor="middle" font-size="20" fill="black">12:00</text><text x="1448" y="1040" text-anchor="middle" font-size="20" fill="black">12:30</text><text x="1520" y="1040" text-anchor="middle" font-size="20" fill="black">13:00</text><text x="1592" y="1040" text-anchor="middle" font-size="20" fill="black">13:30</text><text x="1664" y="1040" text-anchor="middle" font-size="20" fill="black">14:00</text><text x="1736" y="1040" text-anchor="middle" font-size="20" fill="black">14:30</text><text x="1808" y="1040" text-anchor="middle" font-size="20" fill="black">15:00</text><text x="1880" y="1040" text-anchor="middle" font-size="20" fill="black">15:30</text><text x="1942" y="50" text-anchor="end" font-size="40" fill="#26a69a" font-weight="bold"> +0.27% (Mon)</text></svg>