<svg xmlns="http://www.w3.org/2000/svg" width="1992" height="1050"><rect width="100%" height="100%" fill="white"/><text x="42" y="854.0" text-anchor="end" font-size="20" fill="black">432</text><text x="42" y="739.7142857142858" text-anchor="end" font-size="20" fill="black">433</text><text x="42" y="625.4285714285714" text-anchor="end" font-size="20" fill="black">434</text><text x="42" y="511.14285714285717" text-anchor="end" font-size="20" fill="black">435</text><text x="42" y="396.8571428571429" text-anchor="end" font-size="20" fill="black">436</text><text x="42" y="282.57142857142856" text-anchor="end" font-size="20" fill="black">437</text><text x="42" y="168.28571428571433" text-anchor="end" font-size="20" fill="black">438</text><text x="42" y="54.0" text-anchor="end" font-size="20" fill="black">439</text><line x1="80" y1="439.7422468571416" x2="80" y2="642.079254857143" stroke="#ef5350" stroke-width="2"/><rect x="76" y="515.4773279999972" width="8" height="126.60192685714583" fill="#ef5350"/><line x1="92" y1="604.7769017142855" x2="92" y2="753.986315428574" stroke="#ef5350" stroke-width="2"/><rect x="88" y="642.079254857143" width="8" height="97.21219428571601" fill="#ef5350"/><line x1="104" y1="685.0334799999993" x2="104" y2="811.6354068571452" stroke="#ef5350" stroke-width="2"/><rect x="100" y="733.639577142854" width="8" height="76.86545600000238" fill="#ef5350"/><line x1="116" y1="781.1152994285684" x2="116" y2="885.1097394285716" stroke="#ef5350" stroke-width="2"/><rect x="112" y="804.8531611428579" width="8" height="2" fill="#ef5350"/><line x1="128" y1="718.9447108571455" x2="128" y2="824.0695245714311" stroke="#26a69a" stroke-width="2"/><rect x="124" y="724.5965828571441" width="8" height="80.25657828571377" fill="#26a69a"/><line x1="140" y1="560.6923017142825" x2="140" y2="723.4662079999972" stroke="#26a69a" stroke-width="2"/><rect x="136" y="560.6923017142825" width="8" height="162.7739062857147" fill="#26a69a"/><line x1="152" y1="532.4329428571414" x2="152" y2="611.5591474285728" stroke="#ef5350" stroke-width="2"/><rect x="148" y="562.9530502857116" width="8" height="22.60748685714259" fill="#ef5350"/><line x1="164" y1="468.00160571428285" x2="164" y2="592.3427839999996" stroke="#26a69a" stroke-width="2"/><rect x="160" y="535.8240662857172" width="8" height="50.86684571428384" fill="#26a69a"/><line x1="176" y1="468.00160571428285" x2="176" y2="555.040429714284" stroke="#ef5350" stroke-width="2"/><rect x="172" y="530.1721942857122" width="8" height="12.43411771428589" fill="#ef5350"/><line x1="188" y1="484.95722057142694" x2="188" y2="560.6923017142825" stroke="#26a69a" stroke-width="2"/><rect x="184" y="524.5203222857136" width="8" height="18.085989714284437" fill="#26a69a"/><line x1="200" y1="391.13614971428694" x2="200" y2="538.6500022857165" stroke="#26a69a" stroke-width="2"/><rect x="196" y="394.52727199999833" width="8" height="122.08042971428767" fill="#26a69a"/><line x1="212" y1="366.26791428571516" x2="212" y2="413.74363657142953" stroke="#26a69a" stroke-width="2"/><rect x="208" y="374.1805337142848" width="8" height="22.60748800000067" fill="#26a69a"/><line x1="224" y1="266.7949714285702" x2="224" y2="371.91978514285563" stroke="#26a69a" stroke-width="2"/><rect x="220" y="284.8809611428545" width="8" height="87.03882400000111" fill="#26a69a"/><line x1="236" y1="244.1874845714275" x2="236" y2="298.4454525714292" stroke="#26a69a" stroke-width="2"/><rect x="232" y="280.35946285714476" width="8" height="2.260749714280678" fill="#26a69a"/><line x1="248" y1="235.14448914285947" x2="248" y2="287.1417097142837" stroke="#26a69a" stroke-width="2"/><rect x="244" y="254.4738902857132" width="8" height="28.146322285712245" fill="#26a69a"/><line x1="260" y1="185.40801828571603" x2="260" y2="271.31646857142835" stroke="#26a69a" stroke-width="2"/><rect x="256" y="185.40801828571603" width="8" height="66.69208685713909" fill="#26a69a"/><line x1="272" y1="151.49678742856975" x2="272" y2="208.01550514285861" stroke="#ef5350" stroke-width="2"/><rect x="268" y="185.40801828571603" width="8" height="18.085989714284437" fill="#ef5350"/><line x1="284" y1="193.32063885714365" x2="284" y2="271.31646857142835" stroke="#ef5350" stroke-width="2"/><rect x="280" y="202.36363314286007" width="8" height="19.216364571424833" fill="#ef5350"/><line x1="296" y1="186.53839199999834" x2="296" y2="263.4038480000007" stroke="#ef5350" stroke-width="2"/><rect x="292" y="218.18887428571543" width="8" height="42.95422514285622" fill="#ef5350"/><line x1="308" y1="177.4953977142884" x2="308" y2="278.0987142857157" stroke="#26a69a" stroke-width="2"/><rect x="304" y="209.14587885714093" width="8" height="53.127595428571" fill="#26a69a"/><line x1="320" y1="172.97390057143014" x2="320" y2="209.14587885714093" stroke="#26a69a" stroke-width="2"/><rect x="316" y="202.36363314286007" width="8" height="5.651871999998548" fill="#26a69a"/><line x1="332" y1="157.1486594285683" x2="332" y2="195.58138742857284" stroke="#26a69a" stroke-width="2"/><rect x="328" y="178.6257714285706" width="8" height="16.955616000002237" fill="#26a69a"/><line x1="344" y1="124.36780342856889" x2="344" y2="202.36363314286007" stroke="#26a69a" stroke-width="2"/><rect x="340" y="130.01967542857403" width="8" height="47.47572228571437" fill="#26a69a"/><line x1="356" y1="126.62855199999808" x2="356" y2="151.49678742856975" stroke="#ef5350" stroke-width="2"/><rect x="352" y="127.75892571428687" width="8" height="2.260749714287158" fill="#ef5350"/><line x1="368" y1="124.36780342856889" x2="368" y2="185.40801828571603" stroke="#ef5350" stroke-width="2"/><rect x="364" y="127.75892571428687" width="8" height="19.21636457142472" fill="#ef5350"/><line x1="380" y1="148.1056640000004" x2="380" y2="196.71176114285504" stroke="#ef5350" stroke-width="2"/><rect x="376" y="148.1056640000004" width="8" height="28.259358857141137" fill="#ef5350"/><line x1="392" y1="176.36502285714153" x2="392" y2="270.18609371428806" stroke="#ef5350" stroke-width="2"/><rect x="388" y="179.75614628571748" width="8" height="73.47433257142643" fill="#ef5350"/><line x1="404" y1="221.5799977142849" x2="404" y2="304.09732457142775" stroke="#26a69a" stroke-width="2"/><rect x="400" y="234.0141154285708" width="8" height="18.085989714284324" fill="#26a69a"/><line x1="416" y1="185.40801828571603" x2="416" y2="234.0141154285708" stroke="#26a69a" stroke-width="2"/><rect x="412" y="196.71176114285504" width="8" height="36.171979428575355" fill="#26a69a"/><line x1="428" y1="189.9295154285743" x2="428" y2="231.7533668571416" stroke="#ef5350" stroke-width="2"/><rect x="424" y="193.32063885714365" width="8" height="27.128984000000855" fill="#ef5350"/><line x1="440" y1="208.01550514285861" x2="440" y2="308.618821714286" stroke="#ef5350" stroke-width="2"/><rect x="436" y="220.4496228571445" width="8" height="85.90845028571232" fill="#ef5350"/><line x1="452" y1="247.57860685714536" x2="452" y2="312.0099451428554" stroke="#26a69a" stroke-width="2"/><rect x="448" y="298.4454525714292" width="8" height="10.173369142856814" fill="#26a69a"/><line x1="464" y1="239.66598628571126" x2="464" y2="296.1847040000001" stroke="#26a69a" stroke-width="2"/><rect x="460" y="241.9267359999984" width="8" height="54.25796800000171" fill="#26a69a"/><line x1="476" y1="239.66598628571126" x2="476" y2="304.09732457142775" stroke="#ef5350" stroke-width="2"/><rect x="472" y="240.79636114285802" width="8" height="63.30096342856973" fill="#ef5350"/><line x1="488" y1="265.6645965714298" x2="488" y2="342.5300525714257" stroke="#ef5350" stroke-width="2"/><rect x="484" y="297.3150788571404" width="8" height="35.04160457142859" fill="#ef5350"/><line x1="500" y1="312.0099451428554" x2="500" y2="344.7908011428548" stroke="#26a69a" stroke-width="2"/><rect x="496" y="318.7921908571427" width="8" height="10.173369142856814" fill="#26a69a"/><line x1="512" y1="308.618821714286" x2="512" y2="344.7908011428548" stroke="#26a69a" stroke-width="2"/><rect x="508" y="308.618821714286" width="8" height="9.042995428567906" fill="#26a69a"/><line x1="524" y1="304.09732457142775" x2="524" y2="406.9613908571422" stroke="#ef5350" stroke-width="2"/><rect x="520" y="307.4884479999972" width="8" height="73.47433257143291" fill="#ef5350"/><line x1="536" y1="368.52866285714424" x2="536" y2="408.091764571431" stroke="#ef5350" stroke-width="2"/><rect x="532" y="380.96278057143013" width="8" height="16.955614857144155" fill="#ef5350"/><line x1="548" y1="400.1791439999969" x2="548" y2="475.9142251428589" stroke="#ef5350" stroke-width="2"/><rect x="544" y="400.1791439999969" width="8" height="22.60748685714907" fill="#ef5350"/><line x1="560" y1="378.70203200000105" x2="560" y2="431.82962628571397" stroke="#26a69a" stroke-width="2"/><rect x="556" y="383.2235291428593" width="8" height="36.17197942856876" fill="#26a69a"/><line x1="572" y1="373.0501600000025" x2="572" y2="442.0029954285708" stroke="#ef5350" stroke-width="2"/><rect x="568" y="382.09315428571244" width="8" height="9.0429954285745" fill="#ef5350"/><line x1="584" y1="353.8337954285713" x2="584" y2="462.3497337142843" stroke="#ef5350" stroke-width="2"/><rect x="580" y="395.6576468571451" width="8" height="30.520107428570327" fill="#ef5350"/><line x1="596" y1="403.57026742857283" x2="596" y2="477.04459999999926" stroke="#ef5350" stroke-width="2"/><rect x="592" y="420.5258822857169" width="8" height="35.041604571428536" fill="#ef5350"/><line x1="608" y1="388.87540114285787" x2="608" y2="469.1319794285716" stroke="#26a69a" stroke-width="2"/><rect x="604" y="396.7880217142855" width="8" height="57.649091428571126" fill="#26a69a"/><line x1="620" y1="313.14031885714417" x2="620" y2="406.9613908571422" stroke="#26a69a" stroke-width="2"/><rect x="616" y="316.53144228571364" width="8" height="77.9958297142847" fill="#26a69a"/><line x1="632" y1="264.534222857141" x2="632" y2="319.9225657142831" stroke="#26a69a" stroke-width="2"/><rect x="628" y="278.0987142857157" width="8" height="35.04160457142848" fill="#26a69a"/><line x1="644" y1="263.4038480000007" x2="644" y2="335.74780685714484" stroke="#ef5350" stroke-width="2"/><rect x="640" y="278.0987142857157" width="8" height="41.82385142856742" fill="#ef5350"/><line x1="656" y1="281.48983771428516" x2="656" y2="326.70481142857045" stroke="#26a69a" stroke-width="2"/><rect x="652" y="287.1417097142837" width="8" height="36.17197828571727" fill="#26a69a"/><line x1="668" y1="267.9253451428589" x2="668" y2="311.8969074285685" stroke="#26a69a" stroke-width="2"/><rect x="664" y="283.75058628571423" width="8" height="4.521497142858266" fill="#26a69a"/><line x1="680" y1="260.01272457143125" x2="680" y2="290.5328320000016" stroke="#26a69a" stroke-width="2"/><rect x="676" y="267.9253451428589" width="8" height="14.694867428566567" fill="#26a69a"/><line x1="692" y1="252.1001051428551" x2="692" y2="296.1847040000001" stroke="#ef5350" stroke-width="2"/><rect x="688" y="270.18609371428806" width="8" height="2.260749714280678" fill="#ef5350"/><line x1="704" y1="268.9426822857123" x2="704" y2="323.313688000001" stroke="#ef5350" stroke-width="2"/><rect x="700" y="272.44684342856874" width="8" height="41.82385028571582" fill="#ef5350"/><line x1="716" y1="247.57860685714536" x2="716" y2="327.8351862857172" stroke="#26a69a" stroke-width="2"/><rect x="712" y="270.18609371428806" width="8" height="47.47572342856586" fill="#26a69a"/><line x1="728" y1="227.23186857142537" x2="728" y2="283.75058628571423" stroke="#26a69a" stroke-width="2"/><rect x="724" y="239.66598628571126" width="8" height="28.259358857147618" fill="#26a69a"/><line x1="740" y1="205.75475657142954" x2="740" y2="246.44823314285657" stroke="#26a69a" stroke-width="2"/><rect x="736" y="228.36224342857224" width="8" height="9.042994285716418" fill="#26a69a"/><line x1="752" y1="169.58277714285418" x2="752" y2="230.62299200000132" stroke="#26a69a" stroke-width="2"/><rect x="748" y="227.23186857142537" width="8" height="2" fill="#26a69a"/><line x1="764" y1="203.49400800000046" x2="764" y2="227.79705600000204" stroke="#26a69a" stroke-width="2"/><rect x="760" y="206.88513028571185" width="8" height="16.955616000002124" fill="#26a69a"/><line x1="776" y1="171.84352571428337" x2="776" y2="213.66737714285716" stroke="#26a69a" stroke-width="2"/><rect x="772" y="186.53839199999834" width="8" height="20.346738285713514" fill="#26a69a"/><line x1="788" y1="153.19234857142874" x2="788" y2="195.58138742857284" stroke="#26a69a" stroke-width="2"/><rect x="784" y="156.018284571428" width="8" height="30.520107428570327" fill="#26a69a"/><line x1="800" y1="113.0640594285718" x2="800" y2="165.0612800000025" stroke="#26a69a" stroke-width="2"/><rect x="796" y="140.08000685714376" width="8" height="15.938277714284254" fill="#26a69a"/><line x1="812" y1="118.71593142857034" x2="812" y2="171.84352571428337" stroke="#ef5350" stroke-width="2"/><rect x="808" y="134.5411725714257" width="8" height="13.564491428574684" fill="#ef5350"/><line x1="824" y1="145.8449154285712" x2="824" y2="252.1001051428551" stroke="#ef5350" stroke-width="2"/><rect x="820" y="154.8879108571457" width="8" height="85.90845028571232" fill="#ef5350"/><line x1="836" y1="152.62716228571662" x2="836" y2="244.1874845714275" stroke="#26a69a" stroke-width="2"/><rect x="832" y="157.1486594285683" width="8" height="82.51732685714296" fill="#26a69a"/><line x1="848" y1="102.8906902857151" x2="848" y2="163.93090514285564" stroke="#26a69a" stroke-width="2"/><rect x="844" y="115.32480800000098" width="8" height="42.9542251428561" fill="#26a69a"/><line x1="860" y1="92.71732114285828" x2="860" y2="139.06266971428397" stroke="#ef5350" stroke-width="2"/><rect x="856" y="117.58555657143006" width="8" height="10.173369142856814" fill="#ef5350"/><line x1="872" y1="118.71593142857034" x2="872" y2="178.6257714285706" stroke="#ef5350" stroke-width="2"/><rect x="868" y="127.75892571428687" width="8" height="2" fill="#ef5350"/><line x1="884" y1="111.93368571428311" x2="884" y2="146.9752902857116" stroke="#26a69a" stroke-width="2"/><rect x="880" y="113.0640594285718" width="8" height="16.955616000002237" fill="#26a69a"/><line x1="896" y1="93.84769599999868" x2="896" y2="123.23742857142861" stroke="#26a69a" stroke-width="2"/><rect x="892" y="113.0640594285718" width="8" height="2" fill="#26a69a"/><line x1="908" y1="110.80331085714272" x2="908" y2="179.75614628571748" stroke="#ef5350" stroke-width="2"/><rect x="904" y="113.0640594285718" width="8" height="33.9112308571398" fill="#ef5350"/><line x1="920" y1="88.19582400000013" x2="920" y2="151.49678742856975" stroke="#26a69a" stroke-width="2"/><rect x="916" y="100.62994171428602" width="8" height="46.345348571425575" fill="#26a69a"/><line x1="932" y1="79.15282971428371" x2="932" y2="116.45518285714127" stroke="#26a69a" stroke-width="2"/><rect x="928" y="88.19582400000013" width="8" height="14.694866285714966" fill="#26a69a"/><line x1="944" y1="82.54395200000158" x2="944" y2="111.93368571428311" stroke="#ef5350" stroke-width="2"/><rect x="940" y="89.32619885714041" width="8" height="16.955614857144155" fill="#ef5350"/><line x1="956" y1="74.06614514285525" x2="956" y2="123.23742857142861" stroke="#26a69a" stroke-width="2"/><rect x="952" y="94.97806971428747" width="8" height="11.303743999997096" fill="#26a69a"/><line x1="968" y1="53.719406857141735" x2="968" y2="96.10844457142775" stroke="#26a69a" stroke-width="2"/><rect x="964" y="90.4565725714292" width="8" height="3.391123428569472" fill="#26a69a"/><line x1="980" y1="61.066839999999274" x2="980" y2="101.7603165714263" stroke="#26a69a" stroke-width="2"/><rect x="976" y="62.19721371428807" width="8" height="32.7808559999994" fill="#26a69a"/><line x1="992" y1="42.98085028571472" x2="992" y2="97.23881828571655" stroke="#26a69a" stroke-width="2"/><rect x="988" y="62.19721371428807" width="8" height="3.391123428569358" fill="#26a69a"/><line x1="1004" y1="30.546732571428947" x2="1004" y2="75.76170628571424" stroke="#ef5350" stroke-width="2"/><rect x="1000" y="59.93646514285888" width="8" height="9.04299542856802" fill="#ef5350"/><line x1="1016" y1="183.14726971428695" x2="1016" y2="306.3580731428568" stroke="#ef5350" stroke-width="2"/><rect x="1012" y="185.40801828571603" width="8" height="93.82107085713994" fill="#ef5350"/><line x1="1028" y1="244.1874845714275" x2="1028" y2="322.1833142857122" stroke="#ef5350" stroke-width="2"/><rect x="1024" y="283.75058628571423" width="8" height="6.782245714287342" fill="#ef5350"/><line x1="1040" y1="273.5772171428574" x2="1040" y2="352.7034217142825" stroke="#ef5350" stroke-width="2"/><rect x="1036" y="292.79358057143065" width="8" height="50.86684571428384" fill="#ef5350"/><line x1="1052" y1="340.2693040000031" x2="1052" y2="435.78593600000204" stroke="#ef5350" stroke-width="2"/><rect x="1048" y="343.6604262857145" width="8" height="50.86684571428384" fill="#ef5350"/><line x1="1064" y1="368.52866285714424" x2="1064" y2="416.0043851428587" stroke="#ef5350" stroke-width="2"/><rect x="1060" y="394.52727199999833" width="8" height="15.825241142861842" fill="#ef5350"/><line x1="1076" y1="360.6160422857166" x2="1076" y2="428.4385028571445" stroke="#ef5350" stroke-width="2"/><rect x="1072" y="408.091764571431" width="8" height="18.085989714284437" fill="#ef5350"/><line x1="1088" y1="425.04737942856866" x2="1088" y2="523.3899485714314" stroke="#ef5350" stroke-width="2"/><rect x="1084" y="426.1777542857154" width="8" height="28.259358857141194" fill="#ef5350"/><line x1="1100" y1="423.91700571428635" x2="1100" y2="474.78385142857013" stroke="#26a69a" stroke-width="2"/><rect x="1096" y="427.3081291428558" width="8" height="29.38973257142993" fill="#26a69a"/><line x1="1112" y1="371.91978514285563" x2="1112" y2="474.78385142857013" stroke="#ef5350" stroke-width="2"/><rect x="1108" y="428.4385028571445" width="8" height="25.998610285712118" fill="#ef5350"/><line x1="1124" y1="393.396898285716" x2="1124" y2="468.00160571428285" stroke="#26a69a" stroke-width="2"/><rect x="1120" y="412.61326171428277" width="8" height="42.95422514286264" fill="#26a69a"/><line x1="1136" y1="387.7450262857175" x2="1136" y2="456.69786171428575" stroke="#26a69a" stroke-width="2"/><rect x="1132" y="413.74363657142953" width="8" height="2" fill="#26a69a"/><line x1="1148" y1="391.13614971428694" x2="1148" y2="434.20341257143" stroke="#ef5350" stroke-width="2"/><rect x="1144" y="404.70064114285503" width="8" height="7.912620571427738" fill="#ef5350"/><line x1="1160" y1="353.8337954285713" x2="1160" y2="428.4385028571445" stroke="#26a69a" stroke-width="2"/><rect x="1156" y="370.78941142857343" width="8" height="47.47572228571437" fill="#26a69a"/><line x1="1172" y1="360.6160422857166" x2="1172" y2="443.1333691428596" stroke="#ef5350" stroke-width="2"/><rect x="1168" y="364.007164571428" width="8" height="41.8238514285739" fill="#ef5350"/><line x1="1184" y1="309.7491965714263" x2="1184" y2="416.0043851428587" stroke="#26a69a" stroke-width="2"/><rect x="1180" y="310.8795702857151" width="8" height="96.0818205714271" fill="#26a69a"/><line x1="1196" y1="305.2276994285746" x2="1196" y2="394.52727199999833" stroke="#ef5350" stroke-width="2"/><rect x="1192" y="309.86223428571327" width="8" height="63.187925714289236" fill="#ef5350"/><line x1="1208" y1="361.74641599999893" x2="1208" y2="460.08898514285517" stroke="#ef5350" stroke-width="2"/><rect x="1204" y="366.26791428571516" width="8" height="63.30096342856973" fill="#ef5350"/><line x1="1220" y1="435.22074857142536" x2="1220" y2="492.86984114285457" stroke="#ef5350" stroke-width="2"/><rect x="1216" y="435.22074857142536" width="8" height="7.912620571434218" fill="#ef5350"/><line x1="1232" y1="390.11881257142704" x2="1232" y2="464.6104822857134" stroke="#26a69a" stroke-width="2"/><rect x="1228" y="392.26652342856926" width="8" height="49.73647200000153" fill="#26a69a"/><line x1="1244" y1="365.1375394285684" x2="1244" y2="426.1777542857154" stroke="#26a69a" stroke-width="2"/><rect x="1240" y="374.1805337142848" width="8" height="16.955616000002124" fill="#26a69a"/><line x1="1256" y1="357.22491885714066" x2="1256" y2="419.3955085714281" stroke="#ef5350" stroke-width="2"/><rect x="1252" y="373.0501600000025" width="8" height="41.82385028570934" fill="#ef5350"/><line x1="1268" y1="362.8767908571457" x2="1268" y2="422.78663085714595" stroke="#26a69a" stroke-width="2"/><rect x="1264" y="386.6146525714287" width="8" height="30.520107428570327" fill="#26a69a"/><line x1="1280" y1="377.5716571428542" x2="1280" y2="422.78663085714595" stroke="#ef5350" stroke-width="2"/><rect x="1276" y="384.3539028571415" width="8" height="31.650482285717203" fill="#ef5350"/><line x1="1292" y1="400.1791439999969" x2="1292" y2="489.47871771428515" stroke="#ef5350" stroke-width="2"/><rect x="1288" y="416.0043851428587" width="8" height="61.04021485714054" fill="#ef5350"/><line x1="1304" y1="428.4385028571445" x2="1304" y2="497.3913382857128" stroke="#26a69a" stroke-width="2"/><rect x="1300" y="468.00160571428285" width="8" height="14.694866285714966" fill="#26a69a"/><line x1="1316" y1="432.96000000000276" x2="1316" y2="498.5217131428596" stroke="#ef5350" stroke-width="2"/><rect x="1312" y="462.3497337142843" width="8" height="32.7808559999994" fill="#ef5350"/><line x1="1328" y1="487.217969142856" x2="1328" y2="583.2997885714317" stroke="#ef5350" stroke-width="2"/><rect x="1324" y="496.26096342857244" width="8" height="40.693476571427084" fill="#ef5350"/><line x1="1340" y1="518.8684514285732" x2="1340" y2="562.9530502857116" stroke="#26a69a" stroke-width="2"/><rect x="1336" y="521.1292000000022" width="8" height="18.085989714284437" fill="#26a69a"/><line x1="1352" y1="471.95791542857086" x2="1352" y2="525.6506971428539" stroke="#26a69a" stroke-width="2"/><rect x="1348" y="471.95791542857086" width="8" height="48.04090971428451" fill="#26a69a"/><line x1="1364" y1="429.5688777142849" x2="1364" y2="473.65347657142985" stroke="#26a69a" stroke-width="2"/><rect x="1360" y="440.8726205714304" width="8" height="31.085294857140468" fill="#26a69a"/><line x1="1376" y1="434.09037485714305" x2="1376" y2="477.04459999999926" stroke="#ef5350" stroke-width="2"/><rect x="1372" y="438.6118720000013" width="8" height="14.694866285714966" fill="#ef5350"/><line x1="1388" y1="422.89966857142645" x2="1388" y2="471.3927280000007" stroke="#ef5350" stroke-width="2"/><rect x="1384" y="458.9586102857148" width="8" height="4.521497142858209" fill="#ef5350"/><line x1="1400" y1="430.6992514285737" x2="1400" y2="475.9142251428589" stroke="#26a69a" stroke-width="2"/><rect x="1396" y="445.39411771428865" width="8" height="19.21636457142472" fill="#26a69a"/><line x1="1412" y1="425.04737942856866" x2="1412" y2="446.52449257142894" stroke="#26a69a" stroke-width="2"/><rect x="1408" y="426.1777542857154" width="8" height="18.085989714284437" fill="#26a69a"/><line x1="1424" y1="416.0043851428587" x2="1424" y2="442.0029954285708" stroke="#26a69a" stroke-width="2"/><rect x="1420" y="425.04737942856866" width="8" height="2" fill="#26a69a"/><line x1="1436" y1="403.57026742857283" x2="1436" y2="453.3067382857163" stroke="#ef5350" stroke-width="2"/><rect x="1432" y="421.65625714285727" width="8" height="24.868235428571666" fill="#ef5350"/><line x1="1448" y1="419.3955085714281" x2="1448" y2="485.9745577142868" stroke="#ef5350" stroke-width="2"/><rect x="1444" y="443.1333691428596" width="8" height="18.08598971428438" fill="#ef5350"/><line x1="1460" y1="422.78663085714595" x2="1460" y2="472.52310285714105" stroke="#26a69a" stroke-width="2"/><rect x="1456" y="429.5688777142849" width="8" height="30.52010742857027" fill="#26a69a"/><line x1="1472" y1="394.52727199999833" x2="1472" y2="432.96000000000276" stroke="#26a69a" stroke-width="2"/><rect x="1468" y="405.8310160000019" width="8" height="25.99861028571206" fill="#26a69a"/><line x1="1484" y1="388.87540114285787" x2="1484" y2="409.2221394285714" stroke="#26a69a" stroke-width="2"/><rect x="1480" y="403.57026742857283" width="8" height="2.260748571429076" fill="#26a69a"/><line x1="1496" y1="374.1805337142848" x2="1496" y2="413.74363657142953" stroke="#26a69a" stroke-width="2"/><rect x="1492" y="399.04877028571457" width="8" height="3.39112228571139" fill="#26a69a"/><line x1="1508" y1="384.3539028571415" x2="1508" y2="413.74363657142953" stroke="#ef5350" stroke-width="2"/><rect x="1504" y="396.7880217142855" width="8" height="2" fill="#ef5350"/><line x1="1520" y1="327.8351862857172" x2="1520" y2="400.1791439999969" stroke="#26a69a" stroke-width="2"/><rect x="1516" y="369.65903657142655" width="8" height="27.128985142858937" fill="#26a69a"/><line x1="1532" y1="298.4454525714292" x2="1532" y2="369.65903657142655" stroke="#26a69a" stroke-width="2"/><rect x="1528" y="323.313688000001" width="8" height="44.0845999999965" fill="#26a69a"/><line x1="1544" y1="290.5328320000016" x2="1544" y2="343.6604262857145" stroke="#ef5350" stroke-width="2"/><rect x="1540" y="323.313688000001" width="8" height="20.346738285713514" fill="#ef5350"/><line x1="1556" y1="326.70481142857045" x2="1556" y2="396.7880217142855" stroke="#ef5350" stroke-width="2"/><rect x="1552" y="335.74780685714484" width="8" height="44.64978628571521" fill="#ef5350"/><line x1="1568" y1="348.1819245714307" x2="1568" y2="380.96278057143013" stroke="#26a69a" stroke-width="2"/><rect x="1564" y="356.09454514285846" width="8" height="21.477111999995714" fill="#26a69a"/><line x1="1580" y1="309.7491965714263" x2="1580" y2="354.9641702857116" stroke="#26a69a" stroke-width="2"/><rect x="1576" y="310.8795702857151" width="8" height="44.0845999999965" fill="#26a69a"/><line x1="1592" y1="282.62021257142544" x2="1592" y2="367.3982879999975" stroke="#ef5350" stroke-width="2"/><rect x="1588" y="309.7491965714263" width="8" height="44.08459885714501" fill="#ef5350"/><line x1="1604" y1="301.8365759999987" x2="1604" y2="352.7034217142825" stroke="#26a69a" stroke-width="2"/><rect x="1600" y="333.4870571428577" width="8" height="19.216364571424833" fill="#26a69a"/><line x1="1616" y1="315.4010685714313" x2="1616" y2="360.6160422857166" stroke="#ef5350" stroke-width="2"/><rect x="1612" y="333.4870571428577" width="8" height="24.86823657142986" fill="#ef5350"/><line x1="1628" y1="319.9225657142831" x2="1628" y2="366.26791428571516" stroke="#26a69a" stroke-width="2"/><rect x="1624" y="357.22491885714066" width="8" height="3.391123428575952" fill="#26a69a"/><line x1="1640" y1="283.18539885714404" x2="1640" y2="362.8767908571457" stroke="#26a69a" stroke-width="2"/><rect x="1636" y="290.5328320000016" width="8" height="67.82246171428596" fill="#26a69a"/><line x1="1652" y1="277.5335279999971" x2="1652" y2="310.8795702857151" stroke="#ef5350" stroke-width="2"/><rect x="1648" y="291.66320685714186" width="8" height="14.694866285714966" fill="#ef5350"/><line x1="1664" y1="288.2720834285725" x2="1664" y2="332.356683428569" stroke="#ef5350" stroke-width="2"/><rect x="1660" y="308.618821714286" width="8" height="22.60748685714259" fill="#ef5350"/><line x1="1676" y1="306.3580731428568" x2="1676" y2="343.6604262857145" stroke="#ef5350" stroke-width="2"/><rect x="1672" y="330.0959348571398" width="8" height="12.43411771428589" fill="#ef5350"/><line x1="1688" y1="310.8795702857151" x2="1688" y2="362.8767908571457" stroke="#26a69a" stroke-width="2"/><rect x="1684" y="336.87818057142715" width="8" height="3.391123428575952" fill="#26a69a"/><line x1="1700" y1="314.27069371428456" x2="1700" y2="345.92117600000165" stroke="#ef5350" stroke-width="2"/><rect x="1696" y="336.87818057142715" width="8" height="3.391123428575952" fill="#ef5350"/><line x1="1712" y1="307.4884479999972" x2="1712" y2="343.6604262857145" stroke="#26a69a" stroke-width="2"/><rect x="1708" y="321.0529394285719" width="8" height="21.477113142853796" fill="#26a69a"/><line x1="1724" y1="298.4454525714292" x2="1724" y2="326.70481142857045" stroke="#26a69a" stroke-width="2"/><rect x="1720" y="318.7921908571427" width="8" height="2.2607485714291897" fill="#26a69a"/><line x1="1736" y1="289.4024582857128" x2="1736" y2="318.7921908571427" stroke="#26a69a" stroke-width="2"/><rect x="1732" y="307.4884479999972" width="8" height="10.1733691428567" fill="#26a69a"/><line x1="1748" y1="297.3150788571404" x2="1748" y2="331.2263085714286" stroke="#ef5350" stroke-width="2"/><rect x="1744" y="307.4884479999972" width="8" height="4.521497142858152" fill="#ef5350"/><line x1="1760" y1="271.4295062857153" x2="1760" y2="319.9225657142831" stroke="#26a69a" stroke-width="2"/><rect x="1756" y="300.7062011428583" width="8" height="7.912620571427738" fill="#26a69a"/><line x1="1772" y1="284.8809611428545" x2="1772" y2="319.9225657142831" stroke="#26a69a" stroke-width="2"/><rect x="1768" y="298.4454525714292" width="8" height="2.260748571429076" fill="#26a69a"/><line x1="1784" y1="262.2734742857119" x2="1784" y2="298.4454525714292" stroke="#26a69a" stroke-width="2"/><rect x="1780" y="296.1847040000001" width="8" height="2" fill="#26a69a"/><line x1="1796" y1="282.62021257142544" x2="1796" y2="336.87818057142715" stroke="#ef5350" stroke-width="2"/><rect x="1792" y="296.1847040000001" width="8" height="32.7808559999994" fill="#ef5350"/><line x1="1808" y1="301.8365759999987" x2="1808" y2="332.356683428569" stroke="#26a69a" stroke-width="2"/><rect x="1804" y="315.4010685714313" width="8" height="13.564491428568203" fill="#26a69a"/><line x1="1820" y1="315.4010685714313" x2="1820" y2="354.9641702857116" stroke="#ef5350" stroke-width="2"/><rect x="1816" y="316.53144228571364" width="8" height="14.694866285714966" fill="#ef5350"/><line x1="1832" y1="321.0529394285719" x2="1832" y2="368.52866285714424" stroke="#ef5350" stroke-width="2"/><rect x="1828" y="328.9655599999995" width="8" height="24.86823542857178" fill="#ef5350"/><line x1="1844" y1="306.3580731428568" x2="1844" y2="360.6160422857166" stroke="#26a69a" stroke-width="2"/><rect x="1840" y="321.0529394285719" width="8" height="31.65048228571061" fill="#26a69a"/><line x1="1856" y1="310.8795702857151" x2="1856" y2="386.6146525714287" stroke="#ef5350" stroke-width="2"/><rect x="1852" y="324.44406285714126" width="8" height="58.77946628571806" fill="#ef5350"/><line x1="1868" y1="352.7034217142825" x2="1868" y2="569.735297142857" stroke="#ef5350" stroke-width="2"/><rect x="1864" y="382.09315428571244" width="8" height="122.08042971428767" fill="#ef5350"/><line x1="1880" y1="439.7422468571416" x2="1880" y2="524.5203222857136" stroke="#26a69a" stroke-width="2"/><rect x="1876" y="474.78385142857013" width="8" height="29.389732571429988" fill="#26a69a"/><line x1="1892" y1="466.8712308571425" x2="1892" y2="510.9558308571455" stroke="#ef5350" stroke-width="2"/><rect x="1888" y="473.65347657142985" width="8" height="13.564492571426172" fill="#ef5350"/><line x1="1904" y1="430.6992514285737" x2="1904" y2="491.73946628571423" stroke="#26a69a" stroke-width="2"/><rect x="1900" y="453.3067382857163" width="8" height="37.302354285709214" fill="#26a69a"/><line x1="1916" y1="403.57026742857283" x2="1916" y2="487.217969142856" stroke="#26a69a" stroke-width="2"/><rect x="1912" y="411.48288800000046" width="8" height="41.82385028571582" fill="#26a69a"/><line x1="1928" y1="409.2221394285714" x2="1928" y2="498.5217131428596" stroke="#ef5350" stroke-width="2"/><rect x="1924" y="416.0043851428587" width="8" height="32.7808559999994" fill="#ef5350"/><line x1="1940" y1="447.65486742856933" x2="1940" y2="512.0862045714277" stroke="#ef5350" stroke-width="2"/><rect x="1936" y="447.65486742856933" width="8" height="11.303742857145494" fill="#ef5350"/><rect x="75" y="961.1492409218924" width="10" height="58.85075907810756" fill="#ef5350" opacity="0.9"/><rect x="87" y="972.2402386388255" width="10" height="47.75976136117447" fill="#ef5350" opacity="0.9"/><rect x="99" y="980.634675954472" width="10" height="39.36532404552804" fill="#ef5350" opacity="0.9"/><rect x="111" y="972.4250087489793" width="10" height="47.57499125102072" fill="#ef5350" opacity="0.9"/><rect x="123" y="988.3758561501159" width="10" height="31.62414384988415" fill="#26a69a" opacity="0.9"/><rect x="135" y="970.7720765910644" width="10" height="49.22792340893557" fill="#26a69a" opacity="0.9"/><rect x="147" y="974.7195327211825" width="10" height="45.28046727881747" fill="#ef5350" opacity="0.9"/><rect x="159" y="977.8943706567567" width="10" height="42.10562934324332" fill="#26a69a" opacity="0.9"/><rect x="171" y="980.040786908194" width="10" height="39.959213091805964" fill="#ef5350" opacity="0.9"/><rect x="183" y="995.7670771743296" width="10" height="24.232922825670357" fill="#26a69a" opacity="0.9"/><rect x="195" y="980.7115419867682" width="10" height="39.288458013231775" fill="#26a69a" opacity="0.9"/><rect x="207" y="970.6039712033596" width="10" height="49.396028796640394" fill="#26a69a" opacity="0.9"/><rect x="219" y="962.3141050210809" width="10" height="57.68589497891912" fill="#26a69a" opacity="0.9"/><rect x="231" y="980.6967520455947" width="10" height="39.303247954405265" fill="#26a69a" opacity="0.9"/><rect x="243" y="986.4044194843934" width="10" height="33.59558051560657" fill="#26a69a" opacity="0.9"/><rect x="255" y="973.6798623493926" width="10" height="46.32013765060742" fill="#26a69a" opacity="0.9"/><rect x="267" y="975.383621910777" width="10" height="44.61637808922296" fill="#ef5350" opacity="0.9"/><rect x="279" y="977.8439598713484" width="10" height="42.156040128651625" fill="#ef5350" opacity="0.9"/><rect x="291" y="993.2657023347276" width="10" height="26.73429766527238" fill="#ef5350" opacity="0.9"/><rect x="303" y="992.116044794774" width="10" height="27.883955205226016" fill="#26a69a" opacity="0.9"/><rect x="315" y="995.7266652223907" width="10" height="24.273334777609307" fill="#26a69a" opacity="0.9"/><rect x="327" y="995.8508174046361" width="10" height="24.149182595363868" fill="#26a69a" opacity="0.9"/><rect x="339" y="993.2173746396254" width="10" height="26.782625360374595" fill="#26a69a" opacity="0.9"/><rect x="351" y="995.904144516473" width="10" height="24.095855483526975" fill="#ef5350" opacity="0.9"/><rect x="363" y="999.1083540253637" width="10" height="20.891645974636276" fill="#ef5350" opacity="0.9"/><rect x="375" y="993.5708750645758" width="10" height="26.42912493542417" fill="#ef5350" opacity="0.9"/><rect x="387" y="986.9935174229673" width="10" height="33.00648257703267" fill="#ef5350" opacity="0.9"/><rect x="399" y="986.7597946906194" width="10" height="33.2402053093806" fill="#26a69a" opacity="0.9"/><rect x="411" y="994.3495342210075" width="10" height="25.650465778992498" fill="#26a69a" opacity="0.9"/><rect x="423" y="999.7636942356725" width="10" height="20.23630576432754" fill="#ef5350" opacity="0.9"/><rect x="435" y="989.3399103437932" width="10" height="30.660089656206765" fill="#ef5350" opacity="0.9"/><rect x="447" y="994.7644858099889" width="10" height="25.235514190011145" fill="#26a69a" opacity="0.9"/><rect x="459" y="1001.6924275501192" width="10" height="18.30757244988081" fill="#26a69a" opacity="0.9"/><rect x="471" y="1003.5482527038512" width="10" height="16.451747296148824" fill="#ef5350" opacity="0.9"/><rect x="483" y="995.0936140783575" width="10" height="24.90638592164248" fill="#ef5350" opacity="0.9"/><rect x="495" y="1001.397461962771" width="10" height="18.60253803722901" fill="#26a69a" opacity="0.9"/><rect x="507" y="994.5111820287633" width="10" height="25.4888179712367" fill="#26a69a" opacity="0.9"/><rect x="519" y="988.0346459579715" width="10" height="31.96535404202848" fill="#ef5350" opacity="0.9"/><rect x="531" y="995.793324112187" width="10" height="24.20667588781305" fill="#ef5350" opacity="0.9"/><rect x="543" y="980.905477694269" width="10" height="39.09452230573095" fill="#ef5350" opacity="0.9"/><rect x="555" y="990.7507874081357" width="10" height="29.249212591864307" fill="#26a69a" opacity="0.9"/><rect x="567" y="995.6837535620845" width="10" height="24.316246437915538" fill="#ef5350" opacity="0.9"/><rect x="579" y="988.5999966670555" width="10" height="31.400003332944493" fill="#ef5350" opacity="0.9"/><rect x="591" y="994.6997017014681" width="10" height="25.300298298531857" fill="#ef5350" opacity="0.9"/><rect x="603" y="996.9992250904061" width="10" height="23.00077490959393" fill="#26a69a" opacity="0.9"/><rect x="615" y="989.830478110887" width="10" height="30.169521889112957" fill="#26a69a" opacity="0.9"/><rect x="627" y="996.6244771443331" width="10" height="23.375522855666873" fill="#26a69a" opacity="0.9"/><rect x="639" y="995.9201843118303" width="10" height="24.079815688169674" fill="#ef5350" opacity="0.9"/><rect x="651" y="1005.7959071441666" width="10" height="14.204092855833437" fill="#26a69a" opacity="0.9"/><rect x="663" y="1002.8660406285933" width="10" height="17.133959371406718" fill="#26a69a" opacity="0.9"/><rect x="675" y="1005.0805739330411" width="10" height="14.919426066958863" fill="#26a69a" opacity="0.9"/><rect x="687" y="1003.7440631926276" width="10" height="16.25593680737245" fill="#ef5350" opacity="0.9"/><rect x="699" y="1002.0840485276718" width="10" height="17.915951472328175" fill="#ef5350" opacity="0.9"/><rect x="711" y="995.4058693152466" width="10" height="24.594130684753395" fill="#26a69a" opacity="0.9"/><rect x="723" y="1000.2923825553686" width="10" height="19.70761744463141" fill="#26a69a" opacity="0.9"/><rect x="735" y="999.4547719432733" width="10" height="20.545228056726728" fill="#26a69a" opacity="0.9"/><rect x="747" y="998.038895462196" width="10" height="21.961104537803976" fill="#26a69a" opacity="0.9"/><rect x="759" y="1003.3613995033912" width="10" height="16.638600496608774" fill="#26a69a" opacity="0.9"/><rect x="771" y="997.919951005716" width="10" height="22.08004899428397" fill="#26a69a" opacity="0.9"/><rect x="783" y="1005.0470361791124" width="10" height="14.95296382088759" fill="#26a69a" opacity="0.9"/><rect x="795" y="989.4680203976203" width="10" height="30.531979602379693" fill="#26a69a" opacity="0.9"/><rect x="807" y="994.8265619011115" width="10" height="25.173438098888482" fill="#ef5350" opacity="0.9"/><rect x="819" y="991.4034196010465" width="10" height="28.596580398953506" fill="#ef5350" opacity="0.9"/><rect x="831" y="999.6422500708251" width="10" height="20.35774992917493" fill="#26a69a" opacity="0.9"/><rect x="843" y="996.6578065892313" width="10" height="23.342193410768687" fill="#26a69a" opacity="0.9"/><rect x="855" y="992.653898711817" width="10" height="27.346101288183036" fill="#ef5350" opacity="0.9"/><rect x="867" y="988.9749529221591" width="10" height="31.025047077840895" fill="#ef5350" opacity="0.9"/><rect x="879" y="997.8299615044912" width="10" height="22.170038495508834" fill="#26a69a" opacity="0.9"/><rect x="891" y="994.9813355108571" width="10" height="25.018664489142907" fill="#26a69a" opacity="0.9"/><rect x="903" y="991.8946122952323" width="10" height="28.105387704767736" fill="#ef5350" opacity="0.9"/><rect x="915" y="995.3850384121853" width="10" height="24.61496158781472" fill="#26a69a" opacity="0.9"/><rect x="927" y="992.9603212958489" width="10" height="27.03967870415113" fill="#26a69a" opacity="0.9"/><rect x="939" y="983.2062509373907" width="10" height="36.79374906260932" fill="#ef5350" opacity="0.9"/><rect x="951" y="985.9628043394937" width="10" height="34.03719566050631" fill="#26a69a" opacity="0.9"/><rect x="963" y="982.0513856716716" width="10" height="37.948614328328404" fill="#26a69a" opacity="0.9"/><rect x="975" y="986.5394037362307" width="10" height="33.460596263769276" fill="#26a69a" opacity="0.9"/><rect x="987" y="965.8395270551769" width="10" height="54.16047294482314" fill="#26a69a" opacity="0.9"/><rect x="999" y="860.0" width="10" height="160.0" fill="#ef5350" opacity="0.9"/><rect x="1011" y="957.1828286699885" width="10" height="62.81717133001155" fill="#ef5350" opacity="0.9"/><rect x="1023" y="989.8769310247138" width="10" height="30.123068975286174" fill="#ef5350" opacity="0.9"/><rect x="1035" y="974.2472961487827" width="10" height="45.75270385121735" fill="#ef5350" opacity="0.9"/><rect x="1047" y="972.8772476544403" width="10" height="47.12275234555966" fill="#ef5350" opacity="0.9"/><rect x="1059" y="981.9678537503958" width="10" height="38.03214624960424" fill="#ef5350" opacity="0.9"/><rect x="1071" y="992.4926675221225" width="10" height="27.507332477877526" fill="#ef5350" opacity="0.9"/><rect x="1083" y="973.2167913743397" width="10" height="46.783208625660336" fill="#ef5350" opacity="0.9"/><rect x="1095" y="989.6496658723149" width="10" height="30.350334127685073" fill="#26a69a" opacity="0.9"/><rect x="1107" y="982.5325795323879" width="10" height="37.4674204676121" fill="#ef5350" opacity="0.9"/><rect x="1119" y="990.9726365257386" width="10" height="29.027363474261392" fill="#26a69a" opacity="0.9"/><rect x="1131" y="995.4579465728998" width="10" height="24.5420534271002" fill="#26a69a" opacity="0.9"/><rect x="1143" y="998.4311413668405" width="10" height="21.568858633159493" fill="#ef5350" opacity="0.9"/><rect x="1155" y="996.360757911577" width="10" height="23.639242088422975" fill="#26a69a" opacity="0.9"/><rect x="1167" y="992.806797540287" width="10" height="27.193202459713007" fill="#ef5350" opacity="0.9"/><rect x="1179" y="992.5761994433983" width="10" height="27.42380055660169" fill="#26a69a" opacity="0.9"/><rect x="1191" y="992.8138800473278" width="10" height="27.186119952672243" fill="#ef5350" opacity="0.9"/><rect x="1203" y="989.6400836569067" width="10" height="30.359916343093346" fill="#ef5350" opacity="0.9"/><rect x="1215" y="994.8771809955505" width="10" height="25.122819004449525" fill="#ef5350" opacity="0.9"/><rect x="1227" y="1001.6788874631293" width="10" height="18.321112536870714" fill="#26a69a" opacity="0.9"/><rect x="1239" y="996.322012431883" width="10" height="23.677987568117032" fill="#26a69a" opacity="0.9"/><rect x="1251" y="1000.010540436949" width="10" height="19.989459563051014" fill="#ef5350" opacity="0.9"/><rect x="1263" y="999.3979035779159" width="10" height="20.60209642208406" fill="#26a69a" opacity="0.9"/><rect x="1275" y="1004.0933974369657" width="10" height="15.906602563034312" fill="#ef5350" opacity="0.9"/><rect x="1287" y="999.5445531354675" width="10" height="20.45544686453252" fill="#ef5350" opacity="0.9"/><rect x="1299" y="999.4437315646508" width="10" height="20.55626843534924" fill="#26a69a" opacity="0.9"/><rect x="1311" y="993.7716849700869" width="10" height="26.22831502991312" fill="#ef5350" opacity="0.9"/><rect x="1323" y="986.7879164097521" width="10" height="33.21208359024786" fill="#ef5350" opacity="0.9"/><rect x="1335" y="1000.0746996183778" width="10" height="19.92530038162215" fill="#26a69a" opacity="0.9"/><rect x="1347" y="1001.9769776859366" width="10" height="18.023022314063383" fill="#26a69a" opacity="0.9"/><rect x="1359" y="998.9362907660773" width="10" height="21.063709233922737" fill="#26a69a" opacity="0.9"/><rect x="1371" y="1005.5869731864616" width="10" height="14.413026813538409" fill="#ef5350" opacity="0.9"/><rect x="1383" y="1004.0427783425267" width="10" height="15.95722165747327" fill="#ef5350" opacity="0.9"/><rect x="1395" y="1003.2020430949723" width="10" height="16.797956905027718" fill="#26a69a" opacity="0.9"/><rect x="1407" y="1003.392229239922" width="10" height="16.607770760077983" fill="#26a69a" opacity="0.9"/><rect x="1419" y="1002.826878530838" width="10" height="17.17312146916197" fill="#26a69a" opacity="0.9"/><rect x="1431" y="1004.552510540437" width="10" height="15.44748945956303" fill="#ef5350" opacity="0.9"/><rect x="1443" y="998.7188161381172" width="10" height="21.281183861882823" fill="#ef5350" opacity="0.9"/><rect x="1455" y="1004.2365057409969" width="10" height="15.763494259003096" fill="#26a69a" opacity="0.9"/><rect x="1467" y="1002.0017664605796" width="10" height="17.998233539420426" fill="#26a69a" opacity="0.9"/><rect x="1479" y="1004.1000633259453" width="10" height="15.899936674054743" fill="#26a69a" opacity="0.9"/><rect x="1491" y="1003.1237188994618" width="10" height="16.876281100538222" fill="#26a69a" opacity="0.9"/><rect x="1503" y="1005.6461329511557" width="10" height="14.353867048844336" fill="#ef5350" opacity="0.9"/><rect x="1515" y="985.8188627993401" width="10" height="34.18113720065992" fill="#26a69a" opacity="0.9"/><rect x="1527" y="998.9162930991384" width="10" height="21.083706900861557" fill="#26a69a" opacity="0.9"/><rect x="1539" y="1001.04375322879" width="10" height="18.956246771209976" fill="#ef5350" opacity="0.9"/><rect x="1551" y="996.7842501708134" width="10" height="23.21574982918662" fill="#ef5350" opacity="0.9"/><rect x="1563" y="1005.7771593314113" width="10" height="14.222840668588674" fill="#26a69a" opacity="0.9"/><rect x="1575" y="1004.9303831219692" width="10" height="15.069616878030843" fill="#26a69a" opacity="0.9"/><rect x="1587" y="1001.6978435849151" width="10" height="18.302156415084937" fill="#ef5350" opacity="0.9"/><rect x="1599" y="999.463520922559" width="10" height="20.53647907744096" fill="#26a69a" opacity="0.9"/><rect x="1611" y="1003.0283133634409" width="10" height="16.97168663655907" fill="#ef5350" opacity="0.9"/><rect x="1623" y="1000.8691902611362" width="10" height="19.13080973886383" fill="#26a69a" opacity="0.9"/><rect x="1635" y="1000.0657423300615" width="10" height="19.93425766993846" fill="#26a69a" opacity="0.9"/><rect x="1647" y="1003.338902128085" width="10" height="16.66109787191499" fill="#ef5350" opacity="0.9"/><rect x="1659" y="1003.5949139267085" width="10" height="16.4050860732915" fill="#ef5350" opacity="0.9"/><rect x="1671" y="1003.4134767610445" width="10" height="16.586523238955465" fill="#ef5350" opacity="0.9"/><rect x="1683" y="1002.2769426900195" width="10" height="17.723057309980504" fill="#26a69a" opacity="0.9"/><rect x="1695" y="1004.894345659673" width="10" height="15.105654340326964" fill="#ef5350" opacity="0.9"/><rect x="1707" y="1005.8169463562584" width="10" height="14.183053643741573" fill="#26a69a" opacity="0.9"/><rect x="1719" y="1004.7249904177846" width="10" height="15.275009582215375" fill="#26a69a" opacity="0.9"/><rect x="1731" y="1004.5631343009982" width="10" height="15.436865699001828" fill="#26a69a" opacity="0.9"/><rect x="1743" y="1003.7151082373723" width="10" height="16.284891762627694" fill="#ef5350" opacity="0.9"/><rect x="1755" y="999.2995817154665" width="10" height="20.700418284533498" fill="#26a69a" opacity="0.9"/><rect x="1767" y="1001.1674887929742" width="10" height="18.832511207025846" fill="#26a69a" opacity="0.9"/><rect x="1779" y="1003.5540853567084" width="10" height="16.445914643291644" fill="#26a69a" opacity="0.9"/><rect x="1791" y="1002.4762944323162" width="10" height="17.523705567683805" fill="#ef5350" opacity="0.9"/><rect x="1803" y="999.2641691802623" width="10" height="20.735830819737657" fill="#26a69a" opacity="0.9"/><rect x="1815" y="996.0939140433616" width="10" height="23.906085956638435" fill="#ef5350" opacity="0.9"/><rect x="1827" y="1001.3760061326178" width="10" height="18.623993867382183" fill="#ef5350" opacity="0.9"/><rect x="1839" y="1000.9837602279734" width="10" height="19.01623977202655" fill="#26a69a" opacity="0.9"/><rect x="1851" y="995.9528888296365" width="10" height="24.04711117036345" fill="#ef5350" opacity="0.9"/><rect x="1863" y="981.0194227340144" width="10" height="38.98057726598563" fill="#ef5350" opacity="0.9"/><rect x="1875" y="983.2822837335644" width="10" height="36.71771626643556" fill="#26a69a" opacity="0.9"/><rect x="1887" y="997.1396253770394" width="10" height="22.86037462296065" fill="#ef5350" opacity="0.9"/><rect x="1899" y="994.7513623410603" width="10" height="25.248637658939742" fill="#26a69a" opacity="0.9"/><rect x="1911" y="993.019481060543" width="10" height="26.980518939457056" fill="#26a69a" opacity="0.9"/><rect x="1923" y="973.7867248820971" width="10" height="46.21327511790287" fill="#ef5350" opacity="0.9"/><rect x="1935" y="918.4750529104938" width="10" height="101.52494708950621" fill="#ef5350" opacity="0.9"/><rect x="1004" y="68.9794605714269" width="12" height="116.42855771428913" fill="#ff0000" opacity="0.50"/><polyline points="320,432.7874837197279,332,408.58160635866625,344,382.0518986510381,356,358.04882977270483,368,337.94658791680376,380,322.5578674349306,392,315.95525899894835,404,308.15134056368026,416,297.5380472855055,428,290.1962925780416,440,291.73550977468824,452,292.3745519458082,464,287.5699980462092,476,289.1440291438487,488,293.2595200281087,500,295.6912029642093,512,296.922404749934,524,304.926250066267,536,313.7826448626778,548,324.16397686214884,560,329.78869612697963,572,335.63131075434285,584,344.2547815668539,596,354.85599159450044,608,358.8495182725702,620,354.81922532143733,632,347.5125099847056,644,344.88489624466513,656,339.3855451465372,668,334.08697763597957,680,327.78586977949215,692,322.5154863174988,704,321.73026797433647,716,316.82129899718996,728,309.47317397704603,740,301.7483234486202,752,294.65151822222265,764,286.29281460922095,776,276.79239340834226,788,265.290097328638,800,253.36532680754704,812,243.34059701635465,824,243.0982888379276,836,234.91260984656037,848,223.52329538498452,860,214.4028792258723,872,206.25872887782987,884,197.3830460731408,896,189.3526663927072,908,185.31672581109103,920,177.25131780187314,932,168.7698422016898,944,162.81860139336334,956,156.35759837630633,968,150.08131020441135,980,141.71139625297133,992,134.13861696357606,1004,127.93298302146593,1016,142.34213598540794,1028,156.4555356058463,1040,174.28457281345277,1052,195.26006797407592,1064,215.745062752051,1076,235.7862714695459,1088,256.6101611527172,1100,272.86711048510756,1112,290.1594916906041,1124,301.82175550238367,1136,312.4809822708618,1148,322.0173898369012,1160,326.6623442742067,1172,334.2022177719043,1184,331.98101324941103,1196,335.89236055899426,1208,344.81393362140284,1220,354.17768938534994,1232,357.8051973894617,1244,359.3647532299201,1256,364.6513491399934,1268,366.7430923239343,1280,371.4346440209738,1292,381.49273506659745,1304,389.7316751282817,1316,399.7696669936106,1328,412.8348834704086,1340,423.148627901797,1352,427.79713147577763,1364,429.04241615155377,1376,431.3533039738559,1388,434.41299954097303,1400,435.4588203193804,1412,434.574909268557,1424,433.66752547427234,1436,434.8919985311438,1448,437.3993661812425,1460,436.6536053748599,1472,433.7181206724965,1484,430.8468965540279,1496,427.81850357609335,1508,424.9708742287112,1520,419.70308016611204,1532,410.5231380550582,1544,404.1552607436903,1556,401.89262573408735,1568,397.5309037730183,1580,389.27839582184527,1592,385.9027195939169,1604,380.9107517414369,1616,378.76261288170747,1628,376.71140392698624,1640,368.503920886321,1652,362.5852687202756,1664,359.59870108704956,1676,357.9731155141352,1688,355.9640740910189,1700,354.4693340823544,1712,351.2868203058068,1724,348.1920936916465,1736,344.315556006729,1748,341.23883116254933,1760,337.37858068448725,1772,333.67066372134104,1784,330.1005723193092,1796,329.9924759079464,1808,328.60281806637045,1820,328.8526743049455,1832,331.23182869767334,1844,330.26241067204865,1856,335.30632671688966,1868,351.3889226486169,1880,363.14082062765794,1892,374.9576919148175,1904,382.4195058549061,1916,385.1874470115815,1928,391.24437978599155,1940,397.69335411929853" fill="none" stroke="#0090ff" stroke-width="2"/><line x1="80" y1="50" x2="80" y2="850" stroke="#666666" stroke-width="0.5" stroke-dasharray="4,4"/><line x1="152" y1="50" x2="152" y2="850" stroke="#666666" stroke-width="0.5" stroke-dasharray="4,4"/><line x1="224" y1="50" x2="224" y2="850" stroke="#666666" stroke-width="0.5" stroke-dasharray="4,4"/><line x1="296" y1="50" x2="296" y2="850" stroke="#666666" stroke-width="0.5" stroke-dasharray="4,4"/><line x1="368" y1="50" x2="368" y2="850" stroke="#666666" stroke-width="0.5" stroke-dasharray="4,4"/><line x1="440" y1="50" x2="440" y2="850" stroke="#666666" stroke-width="0.5" stroke-dasharray="4,4"/><line x1="512" y1="50" x2="512" y2="850" stroke="#666666" stroke-width="0.5" stroke-dasharray="4,4"/><line x1="584" y1="50" x2="584" y2="850" stroke="#666666" stroke-width="0.5" stroke-dasharray="4,4"/><line x1="656" y1="50" x2="656" y2="850" stroke="#666666" stroke-width="0.5" stroke-dasharray="4,4"/><line x1="728" y1="50" x2="728" y2="850" stroke="#666666" stroke-width="0.5" stroke-dasharray="4,4"/><line x1="800" y1="50" x2="800" y2="850" stroke="#666666" stroke-width="0.5" stroke-dasharray="4,4"/><line x1="872" y1="50" x2="872" y2="850" stroke="#666666" stroke-width="0.5" stroke-dasharray="4,4"/><line x1="944" y1="50" x2="944" y2="850" stroke="#666666" stroke-width="0.5" stroke-dasharray="4,4"/><line x1="1016" y1="50" x2="1016" y2="850" stroke="#666666" stroke-width="0.5" stroke-dasharray="4,4"/><line x1="1088" y1="50" x2="1088" y2="850" stroke="#666666" stroke-width="0.5" stroke-dasharray="4,4"/><line x1="1160" y1="50" x2="1160" y2="850" stroke="#666666" stroke-width="0.5" stroke-dasharray="4,4"/><line x1="1232" y1="50" x2="1232" y2="850" stroke="#666666" stroke-width="0.5" stroke-dasharray="4,4"/><line x1="1304" y1="50" x2="1304" y2="850" stroke="#666666" stroke-width="0.5" stroke-dasharray="4,4"/><line x1="1376" y1="50" x2="1376" y2="850" stroke="#666666" stroke-width="0.5" stroke-dasharray="4,4"/><line x1="1448" y1="50" x2="1448" y2="850" stroke="#666666" stroke-width="0.5" stroke-dasharray="4,4"/><line x1="1520" y1="50" x2="1520" y2="850" stroke="#666666" stroke-width="0.5" stroke-dasharray="4,4"/><line x1="1592" y1="50" x2="1592" y2="850" stroke="#666666" stroke-width="0.5" stroke-dasharray="4,4"/><line x1="1664" y1="50" x2="1664" y2="850" stroke="#666666" stroke-width="0.5" stroke-dasharray="4,4"/><line x1="1736" y1="50" x2="1736" y2="850" stroke="#666666" stroke-width="0.5" stroke-dasharray="4,4"/><line x1="1808" y1="50" x2="1808" y2="850" stroke="#666666" stroke-width="0.5" stroke-dasharray="4,4"/><line x1="1880" y1="50" x2="1880" y2="850" stroke="#666666" stroke-width="0.5" stroke-dasharray="4,4"/><text x="80" y="1040" text-anchor="middle" font-size="20" fill="black">09:30</text><text x="152" y="1040" text-anchor="middle" font-size="20" fill="black">10:00</text><text x="224" y="1040" text-anchor="middle" font-size="20" fill="black">10:30</text><text x="296" y="1040" text-anchor="middle" font-size="20" fill="black">11:00</text><text x="368" y="1040" text-anchor="middle" font-size="20" fill="black">11:30</text><text x="440" y="1040" text-anchor="middle" font-size="20" fill="black">12:00</text><text x="512" y="1040" text-anchor="middle" font-size="20" fill="black">12:30</text><text x="584" y="1040" text-anchor="middle" font-size="20" fill="black">13:00</text><text x="656" y="1040" text-anchor="middle" font-size="20" fill="black">13:30</text><text x="728" y="1040" text-anchor="middle" font-size="20" fill="black">14:00</text><text x="800" y="1040" text-anchor="middle" font-size="20" fill="black">14:30</text><text x="872" y="1040" text-anchor="middle" font-size="20" fill="black">15:00</text><text x="944" y="1040" text-anchor="middle" font-size="20" fill="black">15:30</text><text x="1016" y="1040" text-anchor="middle" font-size="20" fill="black">09:30</text><text x="1088" y="1040" text-anchor="middle" font-size="20" fill="black">10:00</text><text x="1160" y="1040" text-anchor="middle" font-size="20" fill="black">10:30</text><text x="1232" y="1040" text-anchor="middle" font-size="20" fill="black">11:00</text><text x="1304" y="1040" text-anchor="middle" font-size="20" fill="black">11:30</text><text x="1376" y="1040" text-anchor="middle" font-size="20" fill="black">12:00</text><text x="1448" y="1040" text-anchor="middle" font-size="20" fill="black">12:30</text><text x="1520" y="1040" text-anchor="middle" font-size="20" fill="black">13:00</text><text x="1592" y="1040" text-anchor="middle" font-size="20" fill="black">13:30</text><text x="1664" y="1040" text-anchor="middle" font-size="20" fill="black">14:00</text><text x="1736" y="1040" text-anchor="middle" font-size="20" fill="black">14:30</text><text x="1808" y="1040" text-anchor="middle" font-size="20" fill="black">15:00</text><text x="1880" y="1040" text-anchor="middle" font-size="20" fill="black">15:30</text><text x="1942" y="50" text-anchor="end" font-size="40" fill="#ef5350" font-weight="bold"> -0.55% (Wed)</text></svg>