<svg xmlns="http://www.w3.org/2000/svg" width="1992" height="1050"><rect width="100%" height="100%" fill="white"/><text x="42" y="854.0" text-anchor="end" font-size="20" fill="black">475</text><text x="42" y="774.0" text-anchor="end" font-size="20" fill="black">476</text><text x="42" y="694.0" text-anchor="end" font-size="20" fill="black">477</text><text x="42" y="614.0" text-anchor="end" font-size="20" fill="black">478</text><text x="42" y="534.0" text-anchor="end" font-size="20" fill="black">479</text><text x="42" y="454.0" text-anchor="end" font-size="20" fill="black">480</text><text x="42" y="374.0" text-anchor="end" font-size="20" fill="black">481</text><text x="42" y="294.0" text-anchor="end" font-size="20" fill="black">482</text><text x="42" y="214.0" text-anchor="end" font-size="20" fill="black">483</text><text x="42" y="134.0" text-anchor="end" font-size="20" fill="black">484</text><text x="42" y="54.0" text-anchor="end" font-size="20" fill="black">485</text><line x1="80" y1="139.4237664000002" x2="80" y2="265.77829199999996" stroke="#26a69a" stroke-width="2"/><rect x="76" y="152.93337040000097" width="8" height="92.97785759999897" fill="#26a69a"/><line x1="92" y1="86.97471840000162" x2="92" y2="166.4429736000011" stroke="#26a69a" stroke-width="2"/><rect x="88" y="121.94075039999916" width="8" height="34.96603280000272" fill="#26a69a"/><line x1="104" y1="112.40455999999995" x2="104" y2="152.93337040000097" stroke="#26a69a" stroke-width="2"/><rect x="100" y="113.99392559999797" width="8" height="3.973412800000915" fill="#26a69a"/><line x1="116" y1="89.3587664000006" x2="116" y2="142.60249680000015" stroke="#26a69a" stroke-width="2"/><rect x="112" y="108.43114719999903" width="8" height="3.973412800000915" fill="#26a69a"/><line x1="128" y1="86.18003600000065" x2="128" y2="141.01313199999822" stroke="#ef5350" stroke-width="2"/><rect x="124" y="104.45773439999812" width="8" height="32.58198480000374" fill="#ef5350"/><line x1="140" y1="125.11948079999911" x2="140" y2="206.17710080000052" stroke="#ef5350" stroke-width="2"/><rect x="136" y="137.83440159999827" width="8" height="62.779921600003945" fill="#ef5350"/><line x1="152" y1="164.85360799999853" x2="152" y2="224.45479919999798" stroke="#ef5350" stroke-width="2"/><rect x="148" y="195.84622800000034" width="8" height="28.60857119999764" fill="#ef5350"/><line x1="164" y1="196.6409104000013" x2="164" y2="272.13575199999923" stroke="#ef5350" stroke-width="2"/><rect x="160" y="226.04416480000054" width="8" height="3.9734120000002804" fill="#ef5350"/><line x1="176" y1="200.61432320000222" x2="176" y2="264.18892640000195" stroke="#ef5350" stroke-width="2"/><rect x="172" y="230.01757680000082" width="8" height="34.17134960000112" fill="#ef5350"/><line x1="188" y1="249.0899583999999" x2="188" y2="301.53900639999847" stroke="#ef5350" stroke-width="2"/><rect x="184" y="263.394244000001" width="8" height="20.661746400000993" fill="#ef5350"/><line x1="200" y1="261.0101967999981" x2="200" y2="318.22733999999855" stroke="#ef5350" stroke-width="2"/><rect x="196" y="288.02940319999834" width="8" height="30.197936800000207" fill="#ef5350"/><line x1="212" y1="232.4016247999998" x2="212" y2="341.2731335999979" stroke="#26a69a" stroke-width="2"/><rect x="208" y="232.4016247999998" width="8" height="83.44166719999976" fill="#26a69a"/><line x1="224" y1="191.07813199999782" x2="224" y2="257.0367840000017" stroke="#26a69a" stroke-width="2"/><rect x="220" y="208.56114799999887" width="8" height="24.635159200001908" fill="#26a69a"/><line x1="236" y1="186.3100368000005" x2="236" y2="270.54638720000185" stroke="#ef5350" stroke-width="2"/><rect x="232" y="205.77975919999972" width="8" height="10.72821440000098" fill="#ef5350"/><line x1="248" y1="209.35583120000047" x2="248" y2="264.18892640000195" stroke="#ef5350" stroke-width="2"/><rect x="244" y="218.89202159999968" width="8" height="35.760714399998506" fill="#ef5350"/><line x1="260" y1="230.09704560000046" x2="260" y2="275.3144823999992" stroke="#26a69a" stroke-width="2"/><rect x="256" y="237.1697200000017" width="8" height="16.688333600000078" fill="#26a69a"/><line x1="272" y1="228.4282119999989" x2="272" y2="257.83146639999813" stroke="#ef5350" stroke-width="2"/><rect x="268" y="241.93781519999902" width="8" height="4.768095200001881" fill="#ef5350"/><line x1="284" y1="234.7856727999988" x2="284" y2="257.0367840000017" stroke="#26a69a" stroke-width="2"/><rect x="280" y="245.11654559999897" width="8" height="3.1787303999999494" fill="#26a69a"/><line x1="296" y1="195.05154479999874" x2="296" y2="255.44741839999915" stroke="#26a69a" stroke-width="2"/><rect x="292" y="197.43559280000227" width="8" height="46.88627039999574" fill="#26a69a"/><line x1="308" y1="179.15789440000026" x2="308" y2="252.26868879999984" stroke="#ef5350" stroke-width="2"/><rect x="304" y="198.2302751999987" width="8" height="50.8596832000012" fill="#ef5350"/><line x1="320" y1="196.6409104000013" x2="320" y2="260.21551360000103" stroke="#26a69a" stroke-width="2"/><rect x="316" y="197.43559280000227" width="8" height="53.24373039999955" fill="#26a69a"/><line x1="332" y1="177.56852880000224" x2="332" y2="208.56114799999887" stroke="#26a69a" stroke-width="2"/><rect x="328" y="197.43559280000227" width="8" height="2" fill="#26a69a"/><line x1="344" y1="172.80043360000036" x2="344" y2="200.61432320000222" stroke="#26a69a" stroke-width="2"/><rect x="340" y="194.25686239999777" width="8" height="3.973412800000915" fill="#26a69a"/><line x1="356" y1="155.31741759999932" x2="356" y2="191.07813199999782" stroke="#26a69a" stroke-width="2"/><rect x="352" y="155.31741759999932" width="8" height="35.760714399998506" fill="#26a69a"/><line x1="368" y1="139.4237664000002" x2="368" y2="208.56114799999887" stroke="#ef5350" stroke-width="2"/><rect x="364" y="152.93337040000097" width="8" height="50.859682400000565" fill="#ef5350"/><line x1="380" y1="187.1047200000021" x2="380" y2="238.75908479999907" stroke="#ef5350" stroke-width="2"/><rect x="376" y="201.40900559999864" width="8" height="27.813888800001223" fill="#ef5350"/><line x1="392" y1="196.6409104000013" x2="392" y2="265.77829199999996" stroke="#26a69a" stroke-width="2"/><rect x="388" y="209.35583120000047" width="8" height="19.072380799998427" fill="#26a69a"/><line x1="404" y1="160.88019520000216" x2="404" y2="215.71329119999973" stroke="#26a69a" stroke-width="2"/><rect x="400" y="162.46956080000018" width="8" height="48.47563519999767" fill="#26a69a"/><line x1="416" y1="155.31741759999932" x2="416" y2="190.2834496000014" stroke="#ef5350" stroke-width="2"/><rect x="412" y="161.67487839999922" width="8" height="16.688332799999444" fill="#ef5350"/><line x1="428" y1="172.0057511999994" x2="428" y2="197.43559280000227" stroke="#ef5350" stroke-width="2"/><rect x="424" y="181.5419415999986" width="8" height="10.330873600000814" fill="#ef5350"/><line x1="440" y1="159.29083040000023" x2="440" y2="196.6409104000013" stroke="#26a69a" stroke-width="2"/><rect x="436" y="160.0855128000012" width="8" height="32.58198479999919" fill="#26a69a"/><line x1="452" y1="118.76202079999985" x2="452" y2="164.85360799999853" stroke="#26a69a" stroke-width="2"/><rect x="448" y="147.37059200000203" width="8" height="15.019499999998516" fill="#26a69a"/><line x1="464" y1="112.40455999999995" x2="464" y2="171.21106879999843" stroke="#26a69a" stroke-width="2"/><rect x="460" y="129.887576000001" width="8" height="6.357460799999899" fill="#26a69a"/><line x1="476" y1="109.2258296" x2="476" y2="131.476941599999" stroke="#ef5350" stroke-width="2"/><rect x="472" y="129.09289360000002" width="8" height="2.384047999998984" fill="#ef5350"/><line x1="488" y1="103.6630520000017" x2="488" y2="141.8078143999992" stroke="#ef5350" stroke-width="2"/><rect x="484" y="131.476941599999" width="8" height="6.357459999999264" fill="#ef5350"/><line x1="500" y1="123.53011600000173" x2="500" y2="146.57590960000107" stroke="#26a69a" stroke-width="2"/><rect x="496" y="137.83440159999827" width="8" height="2" fill="#26a69a"/><line x1="512" y1="129.09289360000002" x2="512" y2="164.0589256000021" stroke="#ef5350" stroke-width="2"/><rect x="508" y="137.83440159999827" width="8" height="21.45642880000196" fill="#ef5350"/><line x1="524" y1="137.03971920000185" x2="524" y2="167.23765600000206" stroke="#ef5350" stroke-width="2"/><rect x="520" y="160.0060448000022" width="8" height="7.231611199999861" fill="#ef5350"/><line x1="536" y1="164.0589256000021" x2="536" y2="183.13130720000117" stroke="#ef5350" stroke-width="2"/><rect x="532" y="167.23765600000206" width="8" height="7.9468255999972826" fill="#ef5350"/><line x1="548" y1="157.7014655999983" x2="548" y2="188.69408479999947" stroke="#26a69a" stroke-width="2"/><rect x="544" y="159.29083040000023" width="8" height="16.688333600000078" fill="#26a69a"/><line x1="560" y1="139.02642560000004" x2="560" y2="170.416386400002" stroke="#ef5350" stroke-width="2"/><rect x="556" y="156.11210000000028" width="8" height="12.714920799999163" fill="#ef5350"/><line x1="572" y1="160.0855128000012" x2="572" y2="183.13130720000117" stroke="#ef5350" stroke-width="2"/><rect x="568" y="170.416386400002" width="8" height="12.714920799999163" fill="#ef5350"/><line x1="584" y1="174.38979919999838" x2="584" y2="206.97178320000148" stroke="#ef5350" stroke-width="2"/><rect x="580" y="187.1047200000021" width="8" height="15.97311919999811" fill="#ef5350"/><line x1="596" y1="187.8994023999985" x2="596" y2="226.04416480000054" stroke="#ef5350" stroke-width="2"/><rect x="592" y="206.17710080000052" width="8" height="19.867064000000028" fill="#ef5350"/><line x1="608" y1="208.56114799999887" x2="608" y2="263.394244000001" stroke="#ef5350" stroke-width="2"/><rect x="604" y="226.8388472000015" width="8" height="24.635158399996726" fill="#ef5350"/><line x1="620" y1="220.4813864000016" x2="620" y2="260.21551360000103" stroke="#26a69a" stroke-width="2"/><rect x="616" y="229.22289439999986" width="8" height="21.45642880000196" fill="#26a69a"/><line x1="632" y1="200.61432320000222" x2="632" y2="230.01757680000082" stroke="#26a69a" stroke-width="2"/><rect x="628" y="212.53456079999978" width="8" height="15.098968799998147" fill="#26a69a"/><line x1="644" y1="199.02495759999965" x2="644" y2="250.67932320000182" stroke="#ef5350" stroke-width="2"/><rect x="640" y="209.35583120000047" width="8" height="41.32349200000135" fill="#ef5350"/><line x1="656" y1="228.4282119999989" x2="656" y2="254.65273599999819" stroke="#26a69a" stroke-width="2"/><rect x="652" y="241.14313279999806" width="8" height="10.33087280000018" fill="#26a69a"/><line x1="668" y1="233.99098960000174" x2="668" y2="258.6261487999991" stroke="#ef5350" stroke-width="2"/><rect x="664" y="243.5271808000016" width="8" height="15.098967999997512" fill="#ef5350"/><line x1="680" y1="242.7324976" x2="680" y2="260.21551360000103" stroke="#26a69a" stroke-width="2"/><rect x="676" y="248.29527599999892" width="8" height="5.562777600002846" fill="#26a69a"/><line x1="692" y1="228.4282119999989" x2="692" y2="260.21551360000103" stroke="#26a69a" stroke-width="2"/><rect x="688" y="228.4282119999989" width="8" height="23.045793599999342" fill="#26a69a"/><line x1="704" y1="212.53456079999978" x2="704" y2="240.34845040000164" stroke="#26a69a" stroke-width="2"/><rect x="700" y="214.1239263999978" width="8" height="16.688333600000078" fill="#26a69a"/><line x1="716" y1="179.95257680000122" x2="716" y2="242.7324976" stroke="#26a69a" stroke-width="2"/><rect x="712" y="191.87281519999942" width="8" height="23.840476000000308" fill="#26a69a"/><line x1="728" y1="182.33662399999957" x2="728" y2="216.5079736000007" stroke="#ef5350" stroke-width="2"/><rect x="724" y="195.84622800000034" width="8" height="11.125555200001145" fill="#ef5350"/><line x1="740" y1="201.40900559999864" x2="740" y2="249.0899583999999" stroke="#ef5350" stroke-width="2"/><rect x="736" y="201.40900559999864" width="8" height="13.509603200000129" fill="#ef5350"/><line x1="752" y1="218.09733919999871" x2="752" y2="288.02940319999834" stroke="#ef5350" stroke-width="2"/><rect x="748" y="218.09733919999871" width="8" height="58.806508000002395" fill="#ef5350"/><line x1="764" y1="278.4932127999991" x2="764" y2="374.649800799998" stroke="#ef5350" stroke-width="2"/><rect x="760" y="278.4932127999991" width="8" height="96.15658799999886" fill="#ef5350"/><line x1="776" y1="362.72956239999985" x2="776" y2="473.1904368000005" stroke="#ef5350" stroke-width="2"/><rect x="772" y="375.444483199999" width="8" height="66.75333440000031" fill="#ef5350"/><line x1="788" y1="390.5434520000017" x2="788" y2="470.8063888000015" stroke="#26a69a" stroke-width="2"/><rect x="784" y="403.25837280000087" width="8" height="38.939444799998455" fill="#26a69a"/><line x1="800" y1="352.39868959999967" x2="800" y2="441.4031344000023" stroke="#26a69a" stroke-width="2"/><rect x="796" y="373.0604360000006" width="8" height="32.58198399999861" fill="#26a69a"/><line x1="812" y1="292.7974984000002" x2="812" y2="375.444483199999" stroke="#26a69a" stroke-width="2"/><rect x="808" y="299.1549583999995" width="8" height="69.93206480000026" fill="#26a69a"/><line x1="824" y1="268.9570215999993" x2="824" y2="309.4858320000003" stroke="#26a69a" stroke-width="2"/><rect x="820" y="286.4400376000003" width="8" height="13.509604000000763" fill="#26a69a"/><line x1="836" y1="256.24210160000075" x2="836" y2="290.41345040000124" stroke="#26a69a" stroke-width="2"/><rect x="832" y="283.261308000001" width="8" height="2" fill="#26a69a"/><line x1="848" y1="250.67932320000182" x2="848" y2="310.28051440000127" stroke="#26a69a" stroke-width="2"/><rect x="844" y="250.67932320000182" width="8" height="32.58198479999919" fill="#26a69a"/><line x1="860" y1="255.44741839999915" x2="860" y2="306.30710160000035" stroke="#ef5350" stroke-width="2"/><rect x="856" y="259.42083120000007" width="8" height="45.296905599998354" fill="#ef5350"/><line x1="872" y1="295.9762288000002" x2="872" y2="356.3721024000006" stroke="#ef5350" stroke-width="2"/><rect x="868" y="306.30710160000035" width="8" height="3.973412800000915" fill="#ef5350"/><line x1="884" y1="286.4400376000003" x2="884" y2="326.96884800000134" stroke="#26a69a" stroke-width="2"/><rect x="880" y="309.4858320000003" width="8" height="2" fill="#26a69a"/><line x1="896" y1="306.38656959999935" x2="896" y2="356.3721024000006" stroke="#ef5350" stroke-width="2"/><rect x="892" y="307.89646639999773" width="8" height="13.509604000000763" fill="#ef5350"/><line x1="908" y1="280.877260000002" x2="908" y2="334.1209912000022" stroke="#26a69a" stroke-width="2"/><rect x="904" y="288.02940319999834" width="8" height="30.197936800000207" fill="#26a69a"/><line x1="920" y1="287.2347208000019" x2="920" y2="319.8167048000005" stroke="#ef5350" stroke-width="2"/><rect x="916" y="288.8240855999993" width="8" height="15.098968800002694" fill="#ef5350"/><line x1="932" y1="290.41345040000124" x2="932" y2="315.0486095999986" stroke="#26a69a" stroke-width="2"/><rect x="928" y="293.5921808000012" width="8" height="9.536190399999214" fill="#26a69a"/><line x1="944" y1="276.9038472000011" x2="944" y2="307.1017840000013" stroke="#ef5350" stroke-width="2"/><rect x="940" y="294.38686320000215" width="8" height="10.330873599996266" fill="#ef5350"/><line x1="956" y1="254.65273599999819" x2="956" y2="314.2539272000022" stroke="#26a69a" stroke-width="2"/><rect x="952" y="261.0101967999981" width="8" height="44.5022224000013" fill="#26a69a"/><line x1="968" y1="234.7856727999988" x2="968" y2="276.9038472000011" stroke="#26a69a" stroke-width="2"/><rect x="964" y="237.1697200000017" width="8" height="26.224523999999292" fill="#26a69a"/><line x1="980" y1="167.23765600000206" x2="980" y2="236.37503760000072" stroke="#26a69a" stroke-width="2"/><rect x="976" y="193.46218000000135" width="8" height="42.91285759999937" fill="#26a69a"/><line x1="992" y1="96.51090960000147" x2="992" y2="195.05154479999874" stroke="#26a69a" stroke-width="2"/><rect x="988" y="98.89495679999982" width="8" height="91.38849280000159" fill="#26a69a"/><line x1="1004" y1="36.90971840000202" x2="1004" y2="108.43114719999903" stroke="#26a69a" stroke-width="2"/><rect x="1000" y="56.776781600001414" width="8" height="40.52881039999647" fill="#26a69a"/><line x1="1016" y1="70.28638480000154" x2="1016" y2="263.394244000001" stroke="#ef5350" stroke-width="2"/><rect x="1012" y="93.33217920000152" width="8" height="145.42690559999755" fill="#ef5350"/><line x1="1028" y1="241.93781519999902" x2="1028" y2="406.43710240000013" stroke="#ef5350" stroke-width="2"/><rect x="1024" y="241.93781519999902" width="8" height="129.93059679999988" fill="#ef5350"/><line x1="1040" y1="360.34551520000144" x2="1040" y2="436.6350392000004" stroke="#ef5350" stroke-width="2"/><rect x="1036" y="373.0604360000006" width="8" height="2" fill="#ef5350"/><line x1="1052" y1="375.444483199999" x2="1052" y2="508.951151199999" stroke="#ef5350" stroke-width="2"/><rect x="1048" y="376.23916560000004" width="8" height="109.66619199999963" fill="#ef5350"/><line x1="1064" y1="481.1372623999978" x2="1064" y2="577.2938504000012" stroke="#ef5350" stroke-width="2"/><rect x="1060" y="484.31599200000164" width="8" height="81.85230239999782" fill="#ef5350"/><line x1="1076" y1="470.01170640000055" x2="1076" y2="605.9024215999989" stroke="#26a69a" stroke-width="2"/><rect x="1072" y="488.289404799998" width="8" height="74.70015920000151" fill="#26a69a"/><line x1="1088" y1="418.3573407999984" x2="1088" y2="557.4267864000012" stroke="#26a69a" stroke-width="2"/><rect x="1084" y="477.1638496000014" width="8" height="11.125555199996597" fill="#26a69a"/><line x1="1100" y1="478.7532143999988" x2="1100" y2="641.663136799998" stroke="#ef5350" stroke-width="2"/><rect x="1096" y="485.11067439999806" width="8" height="151.78436720000263" fill="#ef5350"/><line x1="1112" y1="617.0279776000007" x2="1112" y2="711.5952008000022" stroke="#ef5350" stroke-width="2"/><rect x="1108" y="641.5836679999984" width="8" height="27.09867519999989" fill="#ef5350"/><line x1="1124" y1="677.4238512000011" x2="1124" y2="737.8197248000015" stroke="#ef5350" stroke-width="2"/><rect x="1120" y="677.4238512000011" width="8" height="42.118175199998404" fill="#ef5350"/><line x1="1136" y1="597.1609136000006" x2="1136" y2="717.0785104000015" stroke="#26a69a" stroke-width="2"/><rect x="1132" y="651.9940095999982" width="8" height="65.0845008000033" fill="#26a69a"/><line x1="1148" y1="634.5109936000017" x2="1148" y2="788.6794079999981" stroke="#ef5350" stroke-width="2"/><rect x="1144" y="646.4312319999999" width="8" height="95.36190559999795" fill="#ef5350"/><line x1="1160" y1="722.7207559999988" x2="1160" y2="818.8773447999984" stroke="#ef5350" stroke-width="2"/><rect x="1156" y="744.1771848000008" width="8" height="11.125555999997232" fill="#ef5350"/><line x1="1172" y1="679.0132159999985" x2="1172" y2="795.036868000002" stroke="#26a69a" stroke-width="2"/><rect x="1168" y="696.4962319999995" width="8" height="63.57460400000036" fill="#26a69a"/><line x1="1184" y1="634.5109936000017" x2="1184" y2="706.8271056000003" stroke="#26a69a" stroke-width="2"/><rect x="1180" y="670.2717080000002" width="8" height="22.251111199998377" fill="#26a69a"/><line x1="1196" y1="649.6099623999999" x2="1196" y2="697.2909152000011" stroke="#ef5350" stroke-width="2"/><rect x="1192" y="671.8610735999982" width="8" height="7.94682560000183" fill="#ef5350"/><line x1="1208" y1="674.2451208000011" x2="1208" y2="734.6409944000015" stroke="#ef5350" stroke-width="2"/><rect x="1204" y="676.6291688000001" width="8" height="53.24373039999955" fill="#ef5350"/><line x1="1220" y1="683.7813112000003" x2="1220" y2="732.2569471999986" stroke="#26a69a" stroke-width="2"/><rect x="1216" y="710.0058351999996" width="8" height="17.48301680000168" fill="#26a69a"/><line x1="1232" y1="703.6483752000004" x2="1232" y2="753.7133760000006" stroke="#ef5350" stroke-width="2"/><rect x="1228" y="706.8271056000003" width="8" height="42.11817439999777" fill="#ef5350"/><line x1="1244" y1="748.1505976000017" x2="1244" y2="870.5317104000005" stroke="#ef5350" stroke-width="2"/><rect x="1240" y="750.5346456000007" width="8" height="119.20238159999826" fill="#ef5350"/><line x1="1256" y1="853.0486943999995" x2="1256" y2="880.0679007999997" stroke="#ef5350" stroke-width="2"/><rect x="1252" y="869.7370271999989" width="8" height="4.768096000002515" fill="#ef5350"/><line x1="1268" y1="864.1742496000006" x2="1268" y2="911.8552024000019" stroke="#ef5350" stroke-width="2"/><rect x="1264" y="875.2998055999979" width="8" height="10.33087280000018" fill="#ef5350"/><line x1="1280" y1="842.7178207999987" x2="1280" y2="904.7030600000016" stroke="#ef5350" stroke-width="2"/><rect x="1276" y="888.0147264000016" width="8" height="2" fill="#ef5350"/><line x1="1292" y1="763.2495663999998" x2="1292" y2="887.2200432" stroke="#26a69a" stroke-width="2"/><rect x="1288" y="768.0176616000017" width="8" height="119.20238159999826" fill="#26a69a"/><line x1="1304" y1="707.6217880000013" x2="1304" y2="791.858137600002" stroke="#26a69a" stroke-width="2"/><rect x="1300" y="721.1313912000014" width="8" height="46.886270400000285" fill="#26a69a"/><line x1="1316" y1="679.8078992000001" x2="1316" y2="742.5878199999988" stroke="#26a69a" stroke-width="2"/><rect x="1312" y="680.602581600001" width="8" height="46.886270400000285" fill="#26a69a"/><line x1="1328" y1="616.2332951999997" x2="1328" y2="693.3175024000002" stroke="#26a69a" stroke-width="2"/><rect x="1324" y="653.5833744000001" width="8" height="27.019207200000892" fill="#26a69a"/><line x1="1340" y1="650.3251760000012" x2="1340" y2="710.0058351999996" stroke="#ef5350" stroke-width="2"/><rect x="1336" y="652.7886919999992" width="8" height="25.429841600002874" fill="#ef5350"/><line x1="1352" y1="646.4312319999999" x2="1352" y2="677.4238512000011" stroke="#26a69a" stroke-width="2"/><rect x="1348" y="673.4504384000002" width="8" height="2" fill="#26a69a"/><line x1="1364" y1="653.5833744000001" x2="1364" y2="717.9526608000015" stroke="#ef5350" stroke-width="2"/><rect x="1360" y="670.2717080000002" width="8" height="44.502223200001936" fill="#ef5350"/><line x1="1376" y1="629.7428983999998" x2="1376" y2="737.8197248000015" stroke="#26a69a" stroke-width="2"/><rect x="1372" y="640.0737712" width="8" height="77.08420720000049" fill="#26a69a"/><line x1="1388" y1="615.4386127999987" x2="1388" y2="642.457819199999" stroke="#26a69a" stroke-width="2"/><rect x="1384" y="627.3588504000008" width="8" height="9.536191199999848" fill="#26a69a"/><line x1="1400" y1="576.4991680000003" x2="1400" y2="678.218533600002" stroke="#ef5350" stroke-width="2"/><rect x="1396" y="623.3854375999999" width="8" height="32.58198479999919" fill="#ef5350"/><line x1="1412" y1="621.0013904000016" x2="1412" y2="663.1195656" stroke="#26a69a" stroke-width="2"/><rect x="1408" y="656.7621048000001" width="8" height="2.384047999998984" fill="#26a69a"/><line x1="1424" y1="624.1801208000015" x2="1424" y2="675.8344863999992" stroke="#ef5350" stroke-width="2"/><rect x="1420" y="651.1993272000018" width="8" height="12.714920799999163" fill="#ef5350"/><line x1="1436" y1="648.8152791999983" x2="1436" y2="703.6483752000004" stroke="#26a69a" stroke-width="2"/><rect x="1432" y="659.1461527999991" width="8" height="3.178729599999315" fill="#26a69a"/><line x1="1448" y1="642.457819199999" x2="1448" y2="781.5272648000018" stroke="#ef5350" stroke-width="2"/><rect x="1444" y="661.530200000002" width="8" height="8.741507999998248" fill="#ef5350"/><line x1="1460" y1="643.2525016" x2="1460" y2="756.8921055999999" stroke="#ef5350" stroke-width="2"/><rect x="1456" y="678.218533600002" width="8" height="69.93206399999963" fill="#ef5350"/><line x1="1472" y1="706.0324231999994" x2="1472" y2="786.2953599999992" stroke="#ef5350" stroke-width="2"/><rect x="1468" y="747.3559152000007" width="8" height="34.17134960000112" fill="#ef5350"/><line x1="1484" y1="778.3485344000019" x2="1484" y2="845.8965511999986" stroke="#ef5350" stroke-width="2"/><rect x="1480" y="778.3485344000019" width="8" height="21.45642879999741" fill="#ef5350"/><line x1="1496" y1="657.556787200001" x2="1496" y2="799.8049631999993" stroke="#26a69a" stroke-width="2"/><rect x="1492" y="694.1121848000012" width="8" height="105.69277839999813" fill="#26a69a"/><line x1="1508" y1="655.1727399999982" x2="1508" y2="752.918692799999" stroke="#ef5350" stroke-width="2"/><rect x="1504" y="691.7281368000022" width="8" height="5.562778399998933" fill="#ef5350"/><line x1="1520" y1="693.3175024000002" x2="1520" y2="771.1963920000017" stroke="#ef5350" stroke-width="2"/><rect x="1516" y="696.4962319999995" width="8" height="74.70016000000214" fill="#ef5350"/><line x1="1532" y1="765.6336135999982" x2="1532" y2="809.3411535999985" stroke="#ef5350" stroke-width="2"/><rect x="1528" y="768.0176616000017" width="8" height="16.688333600000078" fill="#ef5350"/><line x1="1544" y1="758.4814711999979" x2="1544" y2="822.0560744000022" stroke="#ef5350" stroke-width="2"/><rect x="1540" y="782.3219471999982" width="8" height="33.376667200000156" fill="#ef5350"/><line x1="1556" y1="811.725201600002" x2="1556" y2="859.4061543999987" stroke="#ef5350" stroke-width="2"/><rect x="1552" y="811.725201600002" width="8" height="35.760714399998506" fill="#ef5350"/><line x1="1568" y1="807.7517888000011" x2="1568" y2="850.6646464000005" stroke="#26a69a" stroke-width="2"/><rect x="1564" y="835.5656783999984" width="8" height="8.741508000002796" fill="#26a69a"/><line x1="1580" y1="819.6720271999993" x2="1580" y2="858.6114719999978" stroke="#ef5350" stroke-width="2"/><rect x="1576" y="833.9763128000004" width="8" height="13.509603200000129" fill="#ef5350"/><line x1="1592" y1="720.3367088000005" x2="1592" y2="863.3795671999997" stroke="#26a69a" stroke-width="2"/><rect x="1588" y="732.2569471999986" width="8" height="115.2289688000019" fill="#26a69a"/><line x1="1604" y1="744.9718679999978" x2="1604" y2="810.9305192000011" stroke="#ef5350" stroke-width="2"/><rect x="1600" y="744.9718679999978" width="8" height="30.992619200001172" fill="#ef5350"/><line x1="1616" y1="684.575994400002" x2="1616" y2="786.2953599999992" stroke="#26a69a" stroke-width="2"/><rect x="1612" y="700.4696448000004" width="8" height="75.49484239999856" fill="#26a69a"/><line x1="1628" y1="667.0929784000009" x2="1628" y2="724.3101216000014" stroke="#ef5350" stroke-width="2"/><rect x="1624" y="698.0855976000021" width="8" height="19.072380799998427" fill="#ef5350"/><line x1="1640" y1="659.9408352" x2="1640" y2="730.6675816000006" stroke="#26a69a" stroke-width="2"/><rect x="1636" y="662.3248823999984" width="8" height="57.2171440000011" fill="#26a69a"/><line x1="1652" y1="570.1417072000004" x2="1652" y2="663.1195656" stroke="#26a69a" stroke-width="2"/><rect x="1648" y="570.9363896000013" width="8" height="91.38849279999704" fill="#26a69a"/><line x1="1664" y1="516.8979768000008" x2="1664" y2="574.1151200000013" stroke="#26a69a" stroke-width="2"/><rect x="1660" y="534.3809928000019" width="8" height="39.73412719999942" fill="#26a69a"/><line x1="1676" y1="501.79900799999814" x2="1676" y2="555.0427391999983" stroke="#26a69a" stroke-width="2"/><rect x="1672" y="518.4873415999982" width="8" height="16.688333600000078" fill="#26a69a"/><line x1="1688" y1="497.0309128000008" x2="1688" y2="537.5597232000018" stroke="#26a69a" stroke-width="2"/><rect x="1684" y="499.4149607999998" width="8" height="23.045793599999342" fill="#26a69a"/><line x1="1700" y1="462.0648807999987" x2="1700" y2="504.18305600000167" stroke="#26a69a" stroke-width="2"/><rect x="1696" y="495.3620799999999" width="8" height="8.741507999998248" fill="#26a69a"/><line x1="1712" y1="469.2170239999996" x2="1712" y2="512.9245639999999" stroke="#ef5350" stroke-width="2"/><rect x="1708" y="493.0574999999999" width="8" height="2" fill="#ef5350"/><line x1="1724" y1="456.5021032000004" x2="1724" y2="499.4149607999998" stroke="#26a69a" stroke-width="2"/><rect x="1720" y="462.0648807999987" width="8" height="29.40325439999924" fill="#26a69a"/><line x1="1736" y1="421.5360711999983" x2="1736" y2="468.4223415999986" stroke="#26a69a" stroke-width="2"/><rect x="1732" y="457.2967856000014" width="8" height="5.562777599998299" fill="#26a69a"/><line x1="1748" y1="446.96591280000126" x2="1748" y2="512.129881599999" stroke="#ef5350" stroke-width="2"/><rect x="1744" y="457.2967856000014" width="8" height="7.9468255999972826" fill="#ef5350"/><line x1="1760" y1="450.1446424000005" x2="1760" y2="493.85218240000086" stroke="#ef5350" stroke-width="2"/><rect x="1756" y="466.03829359999963" width="8" height="7.1521432000008645" fill="#ef5350"/><line x1="1772" y1="453.32337280000047" x2="1772" y2="497.0309128000008" stroke="#ef5350" stroke-width="2"/><rect x="1768" y="468.4223415999986" width="8" height="15.893650400003025" fill="#ef5350"/><line x1="1784" y1="451.73400799999854" x2="1784" y2="524.0501192000011" stroke="#ef5350" stroke-width="2"/><rect x="1780" y="477.1638496000014" width="8" height="27.813888799996676" fill="#ef5350"/><line x1="1796" y1="451.73400799999854" x2="1796" y2="503.3883736000007" stroke="#26a69a" stroke-width="2"/><rect x="1792" y="472.39575439999953" width="8" height="30.992619200001172" fill="#26a69a"/><line x1="1808" y1="464.44892880000225" x2="1808" y2="492.2628175999989" stroke="#ef5350" stroke-width="2"/><rect x="1804" y="470.8063888000015" width="8" height="2" fill="#ef5350"/><line x1="1820" y1="451.73400799999854" x2="1820" y2="493.85218240000086" stroke="#26a69a" stroke-width="2"/><rect x="1816" y="466.8329760000006" width="8" height="7.1521432000008645" fill="#26a69a"/><line x1="1832" y1="460.47551600000133" x2="1832" y2="519.2820239999992" stroke="#ef5350" stroke-width="2"/><rect x="1828" y="467.62765840000156" width="8" height="36.555397600000106" fill="#ef5350"/><line x1="1844" y1="495.4415479999989" x2="1844" y2="538.3544055999982" stroke="#26a69a" stroke-width="2"/><rect x="1840" y="504.18305600000167" width="8" height="4.768095199997333" fill="#26a69a"/><line x1="1856" y1="468.4223415999986" x2="1856" y2="512.5272223999991" stroke="#26a69a" stroke-width="2"/><rect x="1852" y="500.20964320000076" width="8" height="6.357459999999264" fill="#26a69a"/><line x1="1868" y1="474.7798015999979" x2="1868" y2="512.129881599999" stroke="#26a69a" stroke-width="2"/><rect x="1864" y="501.0043256000017" width="8" height="2.384047999998984" fill="#26a69a"/><line x1="1880" y1="503.3883736000007" x2="1880" y2="582.0619455999986" stroke="#ef5350" stroke-width="2"/><rect x="1876" y="503.3883736000007" width="8" height="77.87888960000146" fill="#ef5350"/><line x1="1892" y1="570.9363896000013" x2="1892" y2="628.1535335999979" stroke="#ef5350" stroke-width="2"/><rect x="1888" y="583.6513104000005" width="8" height="19.072381599999062" fill="#ef5350"/><line x1="1904" y1="555.8374215999993" x2="1904" y2="598.7502791999987" stroke="#26a69a" stroke-width="2"/><rect x="1900" y="588.4194055999978" width="8" height="10.330873600000814" fill="#26a69a"/><line x1="1916" y1="586.0353583999995" x2="1916" y2="627.3588504000008" stroke="#ef5350" stroke-width="2"/><rect x="1912" y="592.3928183999988" width="8" height="27.813889600001858" fill="#ef5350"/><line x1="1928" y1="578.0885328000022" x2="1928" y2="660.735517600001" stroke="#ef5350" stroke-width="2"/><rect x="1924" y="615.4386127999987" width="8" height="19.072380800002975" fill="#ef5350"/><line x1="1940" y1="578.0885328000022" x2="1940" y2="641.663136799998" stroke="#26a69a" stroke-width="2"/><rect x="1936" y="608.2864695999979" width="8" height="28.608572000002823" fill="#26a69a"/><rect x="75" y="989.8865980807537" width="10" height="30.113401919246257" fill="#26a69a" opacity="0.9"/><rect x="87" y="993.8563075062447" width="10" height="26.14369249375534" fill="#26a69a" opacity="0.9"/><rect x="99" y="1004.4638382552882" width="10" height="15.536161744711762" fill="#26a69a" opacity="0.9"/><rect x="111" y="1005.4900579409998" width="10" height="14.509942059000196" fill="#26a69a" opacity="0.9"/><rect x="123" y="1004.5964879691403" width="10" height="15.403512030859702" fill="#ef5350" opacity="0.9"/><rect x="135" y="1006.2818062889304" width="10" height="13.718193711069603" fill="#ef5350" opacity="0.9"/><rect x="147" y="1005.2744095235084" width="10" height="14.725590476491561" fill="#ef5350" opacity="0.9"/><rect x="159" y="1004.2966551522434" width="10" height="15.703344847756625" fill="#ef5350" opacity="0.9"/><rect x="171" y="1006.3968187782591" width="10" height="13.603181221740897" fill="#ef5350" opacity="0.9"/><rect x="183" y="1004.9791712777057" width="10" height="15.020828722294254" fill="#ef5350" opacity="0.9"/><rect x="195" y="1004.0282432731527" width="10" height="15.971756726847275" fill="#ef5350" opacity="0.9"/><rect x="207" y="1001.424010734499" width="10" height="18.575989265500993" fill="#26a69a" opacity="0.9"/><rect x="219" y="1003.3104526986435" width="10" height="16.68954730135647" fill="#26a69a" opacity="0.9"/><rect x="231" y="1005.5720191608436" width="10" height="14.427980839156362" fill="#ef5350" opacity="0.9"/><rect x="243" y="1007.250223306036" width="10" height="12.749776693964009" fill="#ef5350" opacity="0.9"/><rect x="255" y="1007.4679466911183" width="10" height="12.5320533088817" fill="#26a69a" opacity="0.9"/><rect x="267" y="1007.8323999272774" width="10" height="12.167600072722621" fill="#ef5350" opacity="0.9"/><rect x="279" y="1008.1626161981851" width="10" height="11.837383801814894" fill="#26a69a" opacity="0.9"/><rect x="291" y="1004.6326516900117" width="10" height="15.367348309988301" fill="#26a69a" opacity="0.9"/><rect x="303" y="1006.8828058304613" width="10" height="13.11719416953872" fill="#ef5350" opacity="0.9"/><rect x="315" y="1007.6075623675973" width="10" height="12.392437632402675" fill="#26a69a" opacity="0.9"/><rect x="327" y="1006.0462974673538" width="10" height="13.953702532646162" fill="#26a69a" opacity="0.9"/><rect x="339" y="1008.2195295949663" width="10" height="11.780470405033725" fill="#26a69a" opacity="0.9"/><rect x="351" y="1007.3837622917127" width="10" height="12.616237708287258" fill="#26a69a" opacity="0.9"/><rect x="363" y="1006.2380837575489" width="10" height="13.761916242451093" fill="#ef5350" opacity="0.9"/><rect x="375" y="1006.614838587283" width="10" height="13.385161412717025" fill="#ef5350" opacity="0.9"/><rect x="387" y="1006.3894081797199" width="10" height="13.610591820280092" fill="#26a69a" opacity="0.9"/><rect x="399" y="1005.5989937395263" width="10" height="14.40100626047365" fill="#26a69a" opacity="0.9"/><rect x="411" y="1005.8076761943909" width="10" height="14.192323805609135" fill="#ef5350" opacity="0.9"/><rect x="423" y="1008.1515003003763" width="10" height="11.848499699623744" fill="#ef5350" opacity="0.9"/><rect x="435" y="1006.4175684541689" width="10" height="13.582431545831128" fill="#26a69a" opacity="0.9"/><rect x="447" y="1005.1174530464476" width="10" height="14.882546953552378" fill="#26a69a" opacity="0.9"/><rect x="459" y="1004.8404448730515" width="10" height="15.159555126948476" fill="#26a69a" opacity="0.9"/><rect x="471" y="1005.9926447339299" width="10" height="14.007355266070135" fill="#ef5350" opacity="0.9"/><rect x="483" y="1005.3113143042337" width="10" height="14.688685695766253" fill="#ef5350" opacity="0.9"/><rect x="495" y="1007.563839836216" width="10" height="12.436160163784052" fill="#26a69a" opacity="0.9"/><rect x="507" y="1006.9459441300155" width="10" height="13.054055869984495" fill="#ef5350" opacity="0.9"/><rect x="519" y="1007.7245016125462" width="10" height="12.275498387453808" fill="#ef5350" opacity="0.9"/><rect x="531" y="1007.4295597906852" width="10" height="12.570440209314825" fill="#ef5350" opacity="0.9"/><rect x="543" y="1008.2216045625573" width="10" height="11.778395437442668" fill="#26a69a" opacity="0.9"/><rect x="555" y="1008.5144714168274" width="10" height="11.485528583172595" fill="#ef5350" opacity="0.9"/><rect x="567" y="1008.2426506624087" width="10" height="11.757349337591336" fill="#ef5350" opacity="0.9"/><rect x="579" y="1007.4931427261517" width="10" height="12.506857273848254" fill="#ef5350" opacity="0.9"/><rect x="591" y="1007.4995158408955" width="10" height="12.50048415910453" fill="#ef5350" opacity="0.9"/><rect x="603" y="1001.3350835520283" width="10" height="18.664916447971677" fill="#ef5350" opacity="0.9"/><rect x="615" y="1007.1876778543649" width="10" height="12.812322145635108" fill="#26a69a" opacity="0.9"/><rect x="627" y="1008.2187885351124" width="10" height="11.781211464887633" fill="#26a69a" opacity="0.9"/><rect x="639" y="1007.0876347740855" width="10" height="12.912365225914527" fill="#ef5350" opacity="0.9"/><rect x="651" y="1007.8383284061088" width="10" height="12.161671593891242" fill="#26a69a" opacity="0.9"/><rect x="663" y="1008.12763817308" width="10" height="11.872361826920041" fill="#ef5350" opacity="0.9"/><rect x="675" y="1007.9263663167546" width="10" height="12.073633683245362" fill="#26a69a" opacity="0.9"/><rect x="687" y="1007.8418854934075" width="10" height="12.158114506592483" fill="#26a69a" opacity="0.9"/><rect x="699" y="1008.2914124007968" width="10" height="11.708587599203156" fill="#26a69a" opacity="0.9"/><rect x="711" y="998.0524848230942" width="10" height="21.947515176905767" fill="#26a69a" opacity="0.9"/><rect x="723" y="1006.6219527618807" width="10" height="13.37804723811928" fill="#ef5350" opacity="0.9"/><rect x="735" y="1003.8287499604768" width="10" height="16.171250039523215" fill="#ef5350" opacity="0.9"/><rect x="747" y="1001.7917246340153" width="10" height="18.20827536598472" fill="#ef5350" opacity="0.9"/><rect x="759" y="995.9385374837955" width="10" height="24.06146251620453" fill="#ef5350" opacity="0.9"/><rect x="771" y="991.301577765833" width="10" height="28.69842223416697" fill="#ef5350" opacity="0.9"/><rect x="783" y="995.4393595661934" width="10" height="24.56064043380661" fill="#26a69a" opacity="0.9"/><rect x="795" y="1002.486394141082" width="10" height="17.513605858918027" fill="#26a69a" opacity="0.9"/><rect x="807" y="1000.9922692636039" width="10" height="19.00773073639607" fill="#26a69a" opacity="0.9"/><rect x="819" y="1001.3333050083789" width="10" height="18.666694991621057" fill="#26a69a" opacity="0.9"/><rect x="831" y="1001.027247288709" width="10" height="18.972752711291037" fill="#26a69a" opacity="0.9"/><rect x="843" y="996.3007675403927" width="10" height="23.699232459607288" fill="#26a69a" opacity="0.9"/><rect x="855" y="1007.7753383185253" width="10" height="12.224661681474686" fill="#ef5350" opacity="0.9"/><rect x="867" y="1000.3929000537515" width="10" height="19.607099946248468" fill="#ef5350" opacity="0.9"/><rect x="879" y="996.5346460302906" width="10" height="23.46535396970944" fill="#26a69a" opacity="0.9"/><rect x="891" y="1004.3599416637683" width="10" height="15.640058336231732" fill="#ef5350" opacity="0.9"/><rect x="903" y="1005.8112332816897" width="10" height="14.188766718310262" fill="#26a69a" opacity="0.9"/><rect x="915" y="1006.6111332880134" width="10" height="13.388866711986566" fill="#ef5350" opacity="0.9"/><rect x="927" y="1005.8696287981787" width="10" height="14.130371201821276" fill="#26a69a" opacity="0.9"/><rect x="939" y="1004.4456081828818" width="10" height="15.554391817118244" fill="#ef5350" opacity="0.9"/><rect x="951" y="1002.842547506877" width="10" height="17.157452493122946" fill="#26a69a" opacity="0.9"/><rect x="963" y="1003.6028749170013" width="10" height="16.39712508299874" fill="#26a69a" opacity="0.9"/><rect x="975" y="992.2416862965188" width="10" height="27.758313703481235" fill="#26a69a" opacity="0.9"/><rect x="987" y="977.6210200145446" width="10" height="42.37897998545543" fill="#26a69a" opacity="0.9"/><rect x="999" y="860.0" width="10" height="160.0" fill="#26a69a" opacity="0.9"/><rect x="1011" y="989.0637252189584" width="10" height="30.93627478104156" fill="#ef5350" opacity="0.9"/><rect x="1023" y="990.9254157839821" width="10" height="29.07458421601791" fill="#ef5350" opacity="0.9"/><rect x="1035" y="992.766208461125" width="10" height="27.23379153887504" fill="#ef5350" opacity="0.9"/><rect x="1047" y="990.7130280298479" width="10" height="29.28697197015208" fill="#ef5350" opacity="0.9"/><rect x="1059" y="989.6131469946565" width="10" height="30.386853005343482" fill="#ef5350" opacity="0.9"/><rect x="1071" y="984.5557099155785" width="10" height="35.44429008442148" fill="#26a69a" opacity="0.9"/><rect x="1083" y="980.362200414203" width="10" height="39.637799585796984" fill="#26a69a" opacity="0.9"/><rect x="1095" y="992.5478922281595" width="10" height="27.452107771840474" fill="#ef5350" opacity="0.9"/><rect x="1107" y="981.2144192462137" width="10" height="38.78558075378635" fill="#ef5350" opacity="0.9"/><rect x="1119" y="999.379723021469" width="10" height="20.620276978531024" fill="#ef5350" opacity="0.9"/><rect x="1131" y="990.8851021279287" width="10" height="29.11489787207131" fill="#26a69a" opacity="0.9"/><rect x="1143" y="994.7466168147469" width="10" height="25.253383185253142" fill="#ef5350" opacity="0.9"/><rect x="1155" y="991.6236423783477" width="10" height="28.376357621652346" fill="#ef5350" opacity="0.9"/><rect x="1167" y="996.711759335378" width="10" height="23.28824066462198" fill="#26a69a" opacity="0.9"/><rect x="1179" y="999.4345614506592" width="10" height="20.565438549340797" fill="#26a69a" opacity="0.9"/><rect x="1191" y="1003.094952493123" width="10" height="16.905047506877054" fill="#ef5350" opacity="0.9"/><rect x="1203" y="1000.7449034843646" width="10" height="19.255096515635387" fill="#ef5350" opacity="0.9"/><rect x="1215" y="997.7765141334935" width="10" height="22.223485866506508" fill="#26a69a" opacity="0.9"/><rect x="1227" y="1004.5635849116261" width="10" height="15.436415088373906" fill="#ef5350" opacity="0.9"/><rect x="1239" y="995.696210911563" width="10" height="24.303789088437043" fill="#ef5350" opacity="0.9"/><rect x="1251" y="1004.3666112024536" width="10" height="15.633388797546445" fill="#ef5350" opacity="0.9"/><rect x="1263" y="999.7437316217156" width="10" height="20.256268378284403" fill="#ef5350" opacity="0.9"/><rect x="1275" y="996.3072888671072" width="10" height="23.692711132892782" fill="#ef5350" opacity="0.9"/><rect x="1287" y="1003.2803656685743" width="10" height="16.71963433142571" fill="#26a69a" opacity="0.9"/><rect x="1299" y="996.9391164985614" width="10" height="23.06088350143864" fill="#26a69a" opacity="0.9"/><rect x="1311" y="1004.9802087615012" width="10" height="15.019791238498783" fill="#26a69a" opacity="0.9"/><rect x="1323" y="1003.2231558478516" width="10" height="16.776844152148442" fill="#26a69a" opacity="0.9"/><rect x="1335" y="1003.6116194232776" width="10" height="16.388380576722398" fill="#ef5350" opacity="0.9"/><rect x="1347" y="1007.2605981439909" width="10" height="12.739401856009067" fill="#26a69a" opacity="0.9"/><rect x="1359" y="1006.8690221171784" width="10" height="13.13097788282164" fill="#ef5350" opacity="0.9"/><rect x="1371" y="1003.5169119739463" width="10" height="16.48308802605368" fill="#26a69a" opacity="0.9"/><rect x="1383" y="1007.3910246782813" width="10" height="12.60897532171873" fill="#26a69a" opacity="0.9"/><rect x="1395" y="999.2950939861511" width="10" height="20.704906013848927" fill="#ef5350" opacity="0.9"/><rect x="1407" y="1007.0179751478167" width="10" height="12.982024852183258" fill="#26a69a" opacity="0.9"/><rect x="1419" y="1008.5613063995953" width="10" height="11.43869360040469" fill="#ef5350" opacity="0.9"/><rect x="1431" y="1007.0659958263509" width="10" height="12.9340041736491" fill="#26a69a" opacity="0.9"/><rect x="1443" y="993.8718697631771" width="10" height="26.128130236822926" fill="#ef5350" opacity="0.9"/><rect x="1455" y="1002.8824165270181" width="10" height="17.11758347298189" fill="#ef5350" opacity="0.9"/><rect x="1467" y="1003.7423423815095" width="10" height="16.257657618490498" fill="#ef5350" opacity="0.9"/><rect x="1479" y="1000.0766157080975" width="10" height="19.923384291902494" fill="#ef5350" opacity="0.9"/><rect x="1491" y="999.8021271382047" width="10" height="20.197872861795304" fill="#26a69a" opacity="0.9"/><rect x="1503" y="1001.1754592594934" width="10" height="18.824540740506563" fill="#ef5350" opacity="0.9"/><rect x="1515" y="1005.7657322066589" width="10" height="14.234267793341132" fill="#ef5350" opacity="0.9"/><rect x="1527" y="1001.2283709330635" width="10" height="18.771629066936498" fill="#ef5350" opacity="0.9"/><rect x="1539" y="1005.8635521073766" width="10" height="14.136447892623437" fill="#ef5350" opacity="0.9"/><rect x="1551" y="1005.955443529263" width="10" height="14.044556470737007" fill="#ef5350" opacity="0.9"/><rect x="1563" y="1004.7226163562779" width="10" height="15.277383643722146" fill="#26a69a" opacity="0.9"/><rect x="1575" y="1003.9511730483448" width="10" height="16.0488269516552" fill="#ef5350" opacity="0.9"/><rect x="1587" y="992.3436561324185" width="10" height="27.65634386758154" fill="#26a69a" opacity="0.9"/><rect x="1599" y="1001.9276350112245" width="10" height="18.072364988775462" fill="#ef5350" opacity="0.9"/><rect x="1611" y="998.5202418028899" width="10" height="21.479758197110073" fill="#26a69a" opacity="0.9"/><rect x="1623" y="1004.6938632339456" width="10" height="15.306136766054351" fill="#ef5350" opacity="0.9"/><rect x="1635" y="1002.6598021468998" width="10" height="17.34019785310022" fill="#26a69a" opacity="0.9"/><rect x="1647" y="999.2755300060076" width="10" height="20.724469993992443" fill="#26a69a" opacity="0.9"/><rect x="1659" y="997.0320454042433" width="10" height="22.967954595756737" fill="#26a69a" opacity="0.9"/><rect x="1671" y="1003.284070967844" width="10" height="16.715929032156055" fill="#26a69a" opacity="0.9"/><rect x="1683" y="1004.423376387264" width="10" height="15.576623612735943" fill="#26a69a" opacity="0.9"/><rect x="1695" y="1002.3856100009485" width="10" height="17.61438999905147" fill="#26a69a" opacity="0.9"/><rect x="1707" y="1004.4961484649192" width="10" height="15.503851535080798" fill="#ef5350" opacity="0.9"/><rect x="1719" y="1004.9355969582952" width="10" height="15.06440304170485" fill="#26a69a" opacity="0.9"/><rect x="1731" y="1002.8690774496474" width="10" height="17.13092255035258" fill="#26a69a" opacity="0.9"/><rect x="1743" y="1001.484481218579" width="10" height="18.51551878142095" fill="#ef5350" opacity="0.9"/><rect x="1755" y="1001.7168775887691" width="10" height="18.28312241123092" fill="#ef5350" opacity="0.9"/><rect x="1767" y="1004.2714591172099" width="10" height="15.728540882790071" fill="#ef5350" opacity="0.9"/><rect x="1779" y="1001.1133584437348" width="10" height="18.886641556265204" fill="#ef5350" opacity="0.9"/><rect x="1791" y="1005.5721673728144" width="10" height="14.42783262718558" fill="#26a69a" opacity="0.9"/><rect x="1803" y="1006.8762845037468" width="10" height="13.123715496253226" fill="#ef5350" opacity="0.9"/><rect x="1815" y="1005.7443896828659" width="10" height="14.255610317134142" fill="#26a69a" opacity="0.9"/><rect x="1827" y="1006.8055873936826" width="10" height="13.194412606317428" fill="#ef5350" opacity="0.9"/><rect x="1839" y="1004.6025646599425" width="10" height="15.397435340057541" fill="#26a69a" opacity="0.9"/><rect x="1851" y="1004.2120261169254" width="10" height="15.787973883074642" fill="#26a69a" opacity="0.9"/><rect x="1863" y="1006.2954417902425" width="10" height="13.704558209757465" fill="#26a69a" opacity="0.9"/><rect x="1875" y="1002.2931257311791" width="10" height="17.70687426882091" fill="#ef5350" opacity="0.9"/><rect x="1887" y="999.6113783318051" width="10" height="20.3886216681949" fill="#ef5350" opacity="0.9"/><rect x="1899" y="1002.146692304044" width="10" height="17.853307695956005" fill="#26a69a" opacity="0.9"/><rect x="1911" y="1003.354175230025" width="10" height="16.64582476997498" fill="#ef5350" opacity="0.9"/><rect x="1923" y="994.565057150536" width="10" height="25.43494284946405" fill="#ef5350" opacity="0.9"/><rect x="1935" y="972.9729443987732" width="10" height="47.027055601226834" fill="#26a69a" opacity="0.9"/><rect x="1004" y="56.776781600001414" width="12" height="36.555397600000106" fill="#ff0000" opacity="0.50"/><polyline points="320,210.77301476571847,332,209.5027841023193,344,208.05079155923977,356,203.02856546788462,368,203.10137378522995,380,205.58913765330544,392,205.94787037203787,404,201.80707898422497,416,199.57432967144086,428,198.84085210273042,440,195.14986740723543,452,190.59946022559416,464,184.81737601362966,476,179.737334640904,488,175.74657911320173,500,172.1358955405185,512,170.91255600332715,524,170.5625655268159,536,171.00274800997795,548,169.88732728521882,560,169.7863457152016,572,171.0572944280375,584,174.10687012060862,596,179.0532791376927,608,185.95049118172483,620,190.07167244060838,632,192.2109951415041,644,197.77940733755258,656,201.90928595302466,668,207.31089193845492,680,211.2141666109801,692,212.85359950516977,704,212.97458301896313,716,210.96489084572568,728,210.58459487946493,740,210.9973581099939,752,217.27416659475693,764,232.262322233355,776,252.25617893494018,788,266.63734025542453,800,276.77287318348135,812,278.90450034696187,824,279.62217056153804,836,279.9687550794897,848,277.1792853766783,860,279.8019950360458,872,282.70471116594763,884,285.2552941025215,896,288.69822517847297,908,288.634527847189,920,290.09057799507445,932,290.42406397649756,944,291.7853661501658,956,288.8543976406254,968,283.9320473891348,980,275.31586954254635,992,258.5138778527835,1004,239.30082106680402,1016,239.24922713663364,1028,251.87962569504634,1040,263.57202332408633,1052,284.7466265884623,1064,311.54869018956106,1076,328.381139200078,1088,342.5509211429289,1100,370.58369451979615,1112,398.9740420131511,1124,429.5043262404715,1136,450.6938198937587,1148,478.4175644372135,1160,504.7875812336679,1172,523.04554797332,1184,537.067087023479,1196,550.6614500879095,1208,567.7292071462034,1220,581.2793621989476,1232,597.2475448466685,1244,623.1989241184147,1256,647.1328478404712,1268,669.8469269413818,1280,690.7761806803001,1292,698.1325121964619,1304,700.3228816253704,1316,698.4447578134314,1328,694.1722451073929,1340,692.6528440114544,1352,690.8240434770323,1364,693.1049851649323,1376,688.0543933587478,1388,682.2738654579143,1400,679.7684899285923,1412,677.5774056306318,1424,676.2761525229507,1436,674.6447239779036,1448,674.2282462657204,1460,681.2684702023216,1472,690.816926830671,1484,701.1967398182287,1496,700.522020292683,1508,700.2142959981393,1520,706.9744956173645,1532,714.3774955776144,1544,724.0271259416522,1556,735.7851059472114,1568,745.2880176093822,1580,755.0211507894392,1592,752.8531313999702,1604,755.0542129047335,1616,749.8556826090453,1628,746.7416155415185,1640,738.7019266709012,1652,722.7242564736753,1664,704.7868027904678,1676,687.0439969628069,1688,669.1745649472978,1700,652.6209949523172,1712,637.5001556616235,1724,620.7920342462285,1736,605.2210581846839,1748,591.8898727575697,1760,580.5851645711346,1772,571.4166719453124,1784,565.0891544648084,1796,556.2612116014952,1808,548.198341087068,1820,540.4492586978222,1832,536.9953346313605,1844,533.8703557140889,1856,530.6645735698885,1868,527.8397880489501,1880,532.9281190157144,1892,539.5753164427879,1904,544.2271344577603,1916,551.4632843189247,1928,559.3725899647416,1940,564.031054691909" fill="none" stroke="#0090ff" stroke-width="2"/><line x1="80" y1="50" x2="80" y2="850" stroke="#666666" stroke-width="0.5" stroke-dasharray="4,4"/><line x1="152" y1="50" x2="152" y2="850" stroke="#666666" stroke-width="0.5" stroke-dasharray="4,4"/><line x1="224" y1="50" x2="224" y2="850" stroke="#666666" stroke-width="0.5" stroke-dasharray="4,4"/><line x1="296" y1="50" x2="296" y2="850" stroke="#666666" stroke-width="0.5" stroke-dasharray="4,4"/><line x1="368" y1="50" x2="368" y2="850" stroke="#666666" stroke-width="0.5" stroke-dasharray="4,4"/><line x1="440" y1="50" x2="440" y2="850" stroke="#666666" stroke-width="0.5" stroke-dasharray="4,4"/><line x1="512" y1="50" x2="512" y2="850" stroke="#666666" stroke-width="0.5" stroke-dasharray="4,4"/><line x1="584" y1="50" x2="584" y2="850" stroke="#666666" stroke-width="0.5" stroke-dasharray="4,4"/><line x1="656" y1="50" x2="656" y2="850" stroke="#666666" stroke-width="0.5" stroke-dasharray="4,4"/><line x1="728" y1="50" x2="728" y2="850" stroke="#666666" stroke-width="0.5" stroke-dasharray="4,4"/><line x1="800" y1="50" x2="800" y2="850" stroke="#666666" stroke-width="0.5" stroke-dasharray="4,4"/><line x1="872" y1="50" x2="872" y2="850" stroke="#666666" stroke-width="0.5" stroke-dasharray="4,4"/><line x1="944" y1="50" x2="944" y2="850" stroke="#666666" stroke-width="0.5" stroke-dasharray="4,4"/><line x1="1016" y1="50" x2="1016" y2="850" stroke="#666666" stroke-width="0.5" stroke-dasharray="4,4"/><line x1="1088" y1="50" x2="1088" y2="850" stroke="#666666" stroke-width="0.5" stroke-dasharray="4,4"/><line x1="1160" y1="50" x2="1160" y2="850" stroke="#666666" stroke-width="0.5" stroke-dasharray="4,4"/><line x1="1232" y1="50" x2="1232" y2="850" stroke="#666666" stroke-width="0.5" stroke-dasharray="4,4"/><line x1="1304" y1="50" x2="1304" y2="850" stroke="#666666" stroke-width="0.5" stroke-dasharray="4,4"/><line x1="1376" y1="50" x2="1376" y2="850" stroke="#666666" stroke-width="0.5" stroke-dasharray="4,4"/><line x1="1448" y1="50" x2="1448" y2="850" stroke="#666666" stroke-width="0.5" stroke-dasharray="4,4"/><line x1="1520" y1="50" x2="1520" y2="850" stroke="#666666" stroke-width="0.5" stroke-dasharray="4,4"/><line x1="1592" y1="50" x2="1592" y2="850" stroke="#666666" stroke-width="0.5" stroke-dasharray="4,4"/><line x1="1664" y1="50" x2="1664" y2="850" stroke="#666666" stroke-width="0.5" stroke-dasharray="4,4"/><line x1="1736" y1="50" x2="1736" y2="850" stroke="#666666" stroke-width="0.5" stroke-dasharray="4,4"/><line x1="1808" y1="50" x2="1808" y2="850" stroke="#666666" stroke-width="0.5" stroke-dasharray="4,4"/><line x1="1880" y1="50" x2="1880" y2="850" stroke="#666666" stroke-width="0.5" stroke-dasharray="4,4"/><text x="80" y="1040" text-anchor="middle" font-size="20" fill="black">09:30</text><text x="152" y="1040" text-anchor="middle" font-size="20" fill="black">10:00</text><text x="224" y="1040" text-anchor="middle" font-size="20" fill="black">10:30</text><text x="296" y="1040" text-anchor="middle" font-size="20" fill="black">11:00</text><text x="368" y="1040" text-anchor="middle" font-size="20" fill="black">11:30</text><text x="440" y="1040" text-anchor="middle" font-size="20" fill="black">12:00</text><text x="512" y="1040" text-anchor="middle" font-size="20" fill="black">12:30</text><text x="584" y="1040" text-anchor="middle" font-size="20" fill="black">13:00</text><text x="656" y="1040" text-anchor="middle" font-size="20" fill="black">13:30</text><text x="728" y="1040" text-anchor="middle" font-size="20" fill="black">14:00</text><text x="800" y="1040" text-anchor="middle" font-size="20" fill="black">14:30</text><text x="872" y="1040" text-anchor="middle" font-size="20" fill="black">15:00</text><text x="944" y="1040" text-anchor="middle" font-size="20" fill="black">15:30</text><text x="1016" y="1040" text-anchor="middle" font-size="20" fill="black">09:30</text><text x="1088" y="1040" text-anchor="middle" font-size="20" fill="black">10:00</text><text x="1160" y="1040" text-anchor="middle" font-size="20" fill="black">10:30</text><text x="1232" y="1040" text-anchor="middle" font-size="20" fill="black">11:00</text><text x="1304" y="1040" text-anchor="middle" font-size="20" fill="black">11:30</text><text x="1376" y="1040" text-anchor="middle" font-size="20" fill="black">12:00</text><text x="1448" y="1040" text-anchor="middle" font-size="20" fill="black">12:30</text><text x="1520" y="1040" text-anchor="middle" font-size="20" fill="black">13:00</text><text x="1592" y="1040" text-anchor="middle" font-size="20" fill="black">13:30</text><text x="1664" y="1040" text-anchor="middle" font-size="20" fill="black">14:00</text><text x="1736" y="1040" text-anchor="middle" font-size="20" fill="black">14:30</text><text x="1808" y="1040" text-anchor="middle" font-size="20" fill="black">15:00</text><text x="1880" y="1040" text-anchor="middle" font-size="20" fill="black">15:30</text><text x="1942" y="50" text-anchor="end" font-size="40" fill="#ef5350" font-weight="bold"> -1.33% (Tue)</text></svg>