<svg xmlns="http://www.w3.org/2000/svg" width="1992" height="1050"><rect width="100%" height="100%" fill="white"/><text x="42" y="854.0" text-anchor="end" font-size="20" fill="black">484</text><text x="42" y="809.5555555555555" text-anchor="end" font-size="20" fill="black">485</text><text x="42" y="765.1111111111111" text-anchor="end" font-size="20" fill="black">486</text><text x="42" y="720.6666666666667" text-anchor="end" font-size="20" fill="black">487</text><text x="42" y="676.2222222222222" text-anchor="end" font-size="20" fill="black">488</text><text x="42" y="631.7777777777778" text-anchor="end" font-size="20" fill="black">489</text><text x="42" y="587.3333333333334" text-anchor="end" font-size="20" fill="black">490</text><text x="42" y="542.8888888888889" text-anchor="end" font-size="20" fill="black">491</text><text x="42" y="498.44444444444446" text-anchor="end" font-size="20" fill="black">492</text><text x="42" y="454.0" text-anchor="end" font-size="20" fill="black">493</text><text x="42" y="409.55555555555554" text-anchor="end" font-size="20" fill="black">494</text><text x="42" y="365.1111111111111" text-anchor="end" font-size="20" fill="black">495</text><text x="42" y="320.66666666666674" text-anchor="end" font-size="20" fill="black">496</text><text x="42" y="276.2222222222223" text-anchor="end" font-size="20" fill="black">497</text><text x="42" y="231.77777777777771" text-anchor="end" font-size="20" fill="black">498</text><text x="42" y="187.33333333333326" text-anchor="end" font-size="20" fill="black">499</text><text x="42" y="142.8888888888889" text-anchor="end" font-size="20" fill="black">500</text><text x="42" y="98.44444444444446" text-anchor="end" font-size="20" fill="black">501</text><text x="42" y="54.0" text-anchor="end" font-size="20" fill="black">502</text><line x1="80" y1="392.5196364444446" x2="80" y2="458.8499244444443" stroke="#ef5350" stroke-width="2"/><rect x="76" y="419.93615555555454" width="8" height="6.633028888889726" fill="#ef5350"/><line x1="92" y1="404.01688622222184" x2="92" y2="533.5820493333333" stroke="#ef5350" stroke-width="2"/><rect x="88" y="424.35817466666776" width="8" height="41.56698044444312" fill="#ef5350"/><line x1="104" y1="378.36917466666665" x2="104" y2="467.69396311111046" stroke="#26a69a" stroke-width="2"/><rect x="100" y="410.6499151111115" width="8" height="55.717442222220996" fill="#26a69a"/><line x1="116" y1="404.01688622222184" x2="116" y2="495.55268399999983" stroke="#ef5350" stroke-width="2"/><rect x="112" y="411.09211688888837" width="8" height="81.80735555555555" fill="#ef5350"/><line x1="128" y1="431.8756071111112" x2="128" y2="529.1600302222226" stroke="#ef5350" stroke-width="2"/><rect x="124" y="496.87928977777773" width="8" height="14.59266355555485" fill="#ef5350"/><line x1="140" y1="480.96002044444504" x2="140" y2="579.5710493333344" stroke="#ef5350" stroke-width="2"/><rect x="136" y="513.2407608888899" width="8" height="13.708259555553695" fill="#ef5350"/><line x1="152" y1="353.60586711111006" x2="152" y2="524.2958088888877" stroke="#26a69a" stroke-width="2"/><rect x="148" y="398.2682613333332" width="8" height="126.02754755555446" fill="#26a69a"/><line x1="164" y1="337.2443960000004" x2="164" y2="420.8205591111108" stroke="#26a69a" stroke-width="2"/><rect x="160" y="379.6957804444446" width="8" height="12.381653777778297" fill="#26a69a"/><line x1="176" y1="359.3544920000012" x2="176" y2="430.54900133333325" stroke="#ef5350" stroke-width="2"/><rect x="172" y="383.6755977777784" width="8" height="21.225692444444462" fill="#ef5350"/><line x1="188" y1="395.17284800000044" x2="188" y2="480.96002044444504" stroke="#ef5350" stroke-width="2"/><rect x="184" y="407.11229955555456" width="8" height="60.139461333334225" fill="#ef5350"/><line x1="200" y1="446.468270666666" x2="200" y2="547.2903088888895" stroke="#ef5350" stroke-width="2"/><rect x="196" y="473.0003862222222" width="8" height="32.280740000000094" fill="#ef5350"/><line x1="212" y1="480.96002044444504" x2="212" y2="538.004068444444" stroke="#ef5350" stroke-width="2"/><rect x="208" y="507.04993422222185" width="8" height="7.0752306666665845" fill="#ef5350"/><line x1="224" y1="454.8701071111105" x2="224" y2="533.1398475555565" stroke="#26a69a" stroke-width="2"/><rect x="220" y="477.4224053333329" width="8" height="34.93395155555595" fill="#26a69a"/><line x1="236" y1="398.2682613333332" x2="236" y2="480.96002044444504" stroke="#26a69a" stroke-width="2"/><rect x="232" y="415.5141359999991" width="8" height="63.677076888888564" fill="#26a69a"/><line x1="248" y1="411.97652088888947" x2="248" y2="470.78937644444323" stroke="#ef5350" stroke-width="2"/><rect x="244" y="411.97652088888947" width="8" height="16.36147111110961" fill="#ef5350"/><line x1="260" y1="402.248078666667" x2="260" y2="488.4774533333333" stroke="#ef5350" stroke-width="2"/><rect x="256" y="433.2022128888891" width="8" height="35.37615377777763" fill="#ef5350"/><line x1="272" y1="421.7049631111119" x2="272" y2="508.3765399999998" stroke="#26a69a" stroke-width="2"/><rect x="268" y="423.4737706666667" width="8" height="46.873403999999596" fill="#26a69a"/><line x1="284" y1="401.36367466666593" x2="284" y2="455.3123093333321" stroke="#ef5350" stroke-width="2"/><rect x="280" y="423.0315688888898" width="8" height="24.763307555554093" fill="#ef5350"/><line x1="296" y1="451.77469377777777" x2="296" y2="511.91415511111194" stroke="#ef5350" stroke-width="2"/><rect x="292" y="451.77469377777777" width="8" height="38.47156711111029" fill="#ef5350"/><line x1="308" y1="482.7288284444447" x2="308" y2="528.717828000001" stroke="#ef5350" stroke-width="2"/><rect x="304" y="491.1306648888891" width="8" height="29.62752888888906" fill="#ef5350"/><line x1="320" y1="514.5673666666678" x2="320" y2="597.7013279999987" stroke="#ef5350" stroke-width="2"/><rect x="316" y="520.7581937777782" width="8" height="29.627528444444124" fill="#ef5350"/><line x1="332" y1="541.5416840000009" x2="332" y2="581.7820586666661" stroke="#ef5350" stroke-width="2"/><rect x="328" y="551.2701262222233" width="8" height="21.66789422222132" fill="#ef5350"/><line x1="344" y1="544.1948955555567" x2="344" y2="595.932520444444" stroke="#26a69a" stroke-width="2"/><rect x="340" y="546.8481071111102" width="8" height="25.647711111112926" fill="#26a69a"/><line x1="356" y1="530.4866360000005" x2="356" y2="592.8371066666664" stroke="#26a69a" stroke-width="2"/><rect x="352" y="545.5215013333323" width="8" height="2" fill="#26a69a"/><line x1="368" y1="547.2903088888895" x2="368" y2="621.5802315555543" stroke="#ef5350" stroke-width="2"/><rect x="364" y="547.2903088888895" width="8" height="70.31010577777829" fill="#ef5350"/><line x1="380" y1="557.9031551111106" x2="380" y2="623.3490395555565" stroke="#26a69a" stroke-width="2"/><rect x="376" y="580.8976551111123" width="8" height="30.511932444442778" fill="#26a69a"/><line x1="392" y1="576.4756355555543" x2="392" y2="633.5196835555557" stroke="#ef5350" stroke-width="2"/><rect x="388" y="576.4756355555543" width="8" height="42.45138488888904" fill="#ef5350"/><line x1="404" y1="583.5508666666657" x2="404" y2="637.4995008888895" stroke="#26a69a" stroke-width="2"/><rect x="400" y="598.1435297777782" width="8" height="19.014682666665408" fill="#26a69a"/><line x1="416" y1="579.5710493333344" x2="416" y2="631.3086742222216" stroke="#26a69a" stroke-width="2"/><rect x="412" y="585.7618759999999" width="8" height="14.150461777777878" fill="#26a69a"/><line x1="428" y1="463.27194355555497" x2="428" y2="593.2793088888881" stroke="#26a69a" stroke-width="2"/><rect x="424" y="503.9545204444443" width="8" height="83.1339613333335" fill="#26a69a"/><line x1="440" y1="439.3930399999994" x2="440" y2="513.2407608888899" stroke="#26a69a" stroke-width="2"/><rect x="436" y="503.51231866666745" width="8" height="5.306423111109211" fill="#26a69a"/><line x1="452" y1="463.27194355555497" x2="452" y2="506.6077320000002" stroke="#26a69a" stroke-width="2"/><rect x="448" y="463.27194355555497" width="8" height="43.33578844444526" fill="#26a69a"/><line x1="464" y1="441.6040497777784" x2="464" y2="483.1710302222215" stroke="#ef5350" stroke-width="2"/><rect x="460" y="465.04075155555455" width="8" height="7.959634666667625" fill="#ef5350"/><line x1="476" y1="418.60954977777664" x2="476" y2="475.2113955555564" stroke="#26a69a" stroke-width="2"/><rect x="472" y="442.93065555555637" width="8" height="28.743124888887905" fill="#26a69a"/><line x1="488" y1="372.620549777778" x2="488" y2="451.11139111110987" stroke="#26a69a" stroke-width="2"/><rect x="484" y="385.0022035555564" width="8" height="56.159644000000355" fill="#26a69a"/><line x1="500" y1="355.81687688888906" x2="500" y2="401.80587644444535" stroke="#26a69a" stroke-width="2"/><rect x="496" y="359.3544920000012" width="8" height="23.436701777776193" fill="#26a69a"/><line x1="512" y1="345.64623244444493" x2="512" y2="369.96733822222217" stroke="#26a69a" stroke-width="2"/><rect x="508" y="355.81687688888906" width="8" height="2.211009333334232" fill="#26a69a"/><line x1="524" y1="328.842559555556" x2="524" y2="373.06275155555494" stroke="#26a69a" stroke-width="2"/><rect x="520" y="332.38017511111036" width="8" height="25.647711111112926" fill="#26a69a"/><line x1="536" y1="319.1141173333335" x2="536" y2="349.1838479999994" stroke="#ef5350" stroke-width="2"/><rect x="532" y="328.842559555556" width="8" height="6.19082666666543" fill="#ef5350"/><line x1="548" y1="335.9177902222225" x2="548" y2="397.3838573333321" stroke="#ef5350" stroke-width="2"/><rect x="544" y="335.9177902222225" width="8" height="4.422019111110728" fill="#ef5350"/><line x1="560" y1="259.8590595555555" x2="560" y2="339.45540577777695" stroke="#26a69a" stroke-width="2"/><rect x="556" y="284.18016533333287" width="8" height="55.27524044444408" fill="#26a69a"/><line x1="572" y1="251.0150213333343" x2="572" y2="291.25539599999934" stroke="#26a69a" stroke-width="2"/><rect x="568" y="257.2058479999997" width="8" height="26.974317333333147" fill="#26a69a"/><line x1="584" y1="242.6131848888897" x2="584" y2="287.7177808888898" stroke="#26a69a" stroke-width="2"/><rect x="580" y="254.9948386666655" width="8" height="2" fill="#26a69a"/><line x1="596" y1="240.40217511111064" x2="596" y2="391.63523244444355" stroke="#ef5350" stroke-width="2"/><rect x="592" y="259.8590595555555" width="8" height="107.01286533333393" fill="#ef5350"/><line x1="608" y1="280.20034799999905" x2="608" y2="373.50495377777656" stroke="#26a69a" stroke-width="2"/><rect x="604" y="305.8480595555567" width="8" height="63.23487466666444" fill="#26a69a"/><line x1="620" y1="281.084752" x2="620" y2="335.03338622222145" stroke="#26a69a" stroke-width="2"/><rect x="616" y="304.5214537777787" width="8" height="4.8642213333323525" fill="#26a69a"/><line x1="632" y1="287.2755786666655" x2="632" y2="328.40035777777655" stroke="#ef5350" stroke-width="2"/><rect x="628" y="304.96365555555553" width="8" height="7.517432888888379" fill="#ef5350"/><line x1="644" y1="304.96365555555553" x2="644" y2="349.1838479999994" stroke="#ef5350" stroke-width="2"/><rect x="640" y="309.8278768888879" width="8" height="17.245875111113264" fill="#ef5350"/><line x1="656" y1="303.63704977777775" x2="656" y2="386.3288093333343" stroke="#ef5350" stroke-width="2"/><rect x="652" y="331.05356933333246" width="8" height="11.05504800000034" fill="#ef5350"/><line x1="668" y1="310.71228088888904" x2="668" y2="362.4499057777787" stroke="#26a69a" stroke-width="2"/><rect x="664" y="317.7875115555555" width="8" height="19.89908622222174" fill="#26a69a"/><line x1="680" y1="318.67191511111184" x2="680" y2="365.98752088888835" stroke="#ef5350" stroke-width="2"/><rect x="676" y="318.67191511111184" width="8" height="35.818355999999255" fill="#ef5350"/><line x1="692" y1="276.6627328888893" x2="692" y2="349.62604977777875" stroke="#26a69a" stroke-width="2"/><rect x="688" y="288.2042031111116" width="8" height="61.421846666667136" fill="#26a69a"/><line x1="704" y1="255.43704044444496" x2="704" y2="289.92879022222144" stroke="#26a69a" stroke-width="2"/><rect x="700" y="264.72328088888787" width="8" height="22.552297777777653" fill="#26a69a"/><line x1="716" y1="227.5783195555556" x2="716" y2="267.3764924444438" stroke="#26a69a" stroke-width="2"/><rect x="712" y="232.00033866666615" width="8" height="33.60734622222287" fill="#26a69a"/><line x1="728" y1="206.7948293333327" x2="728" y2="267.81869422222314" stroke="#26a69a" stroke-width="2"/><rect x="724" y="206.7948293333327" width="8" height="28.300922666666338" fill="#26a69a"/><line x1="740" y1="132.5049062222231" x2="740" y2="223.15630044444492" stroke="#26a69a" stroke-width="2"/><rect x="736" y="133.38931022222164" width="8" height="74.06882177777891" fill="#26a69a"/><line x1="752" y1="111.72141600000032" x2="752" y2="151.51958888888862" stroke="#26a69a" stroke-width="2"/><rect x="748" y="125.20857466666553" width="8" height="7.738533333334544" fill="#26a69a"/><line x1="764" y1="105.97279111111163" x2="764" y2="177.60950222222323" stroke="#ef5350" stroke-width="2"/><rect x="760" y="119.23884844444376" width="8" height="56.15964444444512" fill="#ef5350"/><line x1="776" y1="124.10306977777861" x2="776" y2="190.4333582222232" stroke="#26a69a" stroke-width="2"/><rect x="772" y="128.96729066666626" width="8" height="42.00918266666713" fill="#26a69a"/><line x1="788" y1="127.19848311111139" x2="788" y2="186.4535408888894" stroke="#ef5350" stroke-width="2"/><rect x="784" y="127.19848311111139" width="8" height="55.71744222222105" fill="#ef5350"/><line x1="800" y1="149.75078133333386" x2="800" y2="182.0315213333339" stroke="#26a69a" stroke-width="2"/><rect x="796" y="166.55445422222272" width="8" height="15.477067111111182" fill="#26a69a"/><line x1="812" y1="150.63518488889008" x2="812" y2="223.59850222222178" stroke="#ef5350" stroke-width="2"/><rect x="808" y="167.88106000000073" width="8" height="14.59266355555485" fill="#ef5350"/><line x1="824" y1="154.17280044444453" x2="824" y2="191.3177617777768" stroke="#ef5350" stroke-width="2"/><rect x="820" y="180.26271377777903" width="8" height="5.306423111109211" fill="#ef5350"/><line x1="836" y1="144.8865599999989" x2="836" y2="198.3929924444435" stroke="#26a69a" stroke-width="2"/><rect x="832" y="149.75078133333386" width="8" height="30.954134222222024" fill="#26a69a"/><line x1="848" y1="136.92692533333388" x2="848" y2="171.86087733333454" stroke="#ef5350" stroke-width="2"/><rect x="844" y="147.98197333333417" width="8" height="2.211009777776553" fill="#ef5350"/><line x1="860" y1="123.66086799999925" x2="860" y2="175.39849288888888" stroke="#ef5350" stroke-width="2"/><rect x="856" y="152.40399288888966" width="8" height="19.89908622222174" fill="#ef5350"/><line x1="872" y1="98.01315644444401" x2="872" y2="171.86087733333454" stroke="#26a69a" stroke-width="2"/><rect x="868" y="115.303251555555" width="8" height="53.462212444444276" fill="#26a69a"/><line x1="884" y1="90.93792577777754" x2="884" y2="133.38931022222164" stroke="#26a69a" stroke-width="2"/><rect x="880" y="99.33976222222202" width="8" height="17.245874666665827" fill="#26a69a"/><line x1="896" y1="93.14893511111165" x2="896" y2="124.98747377777715" stroke="#26a69a" stroke-width="2"/><rect x="892" y="103.31957955555583" width="8" height="3.095413333332658" fill="#26a69a"/><line x1="908" y1="92.7067333333323" x2="908" y2="206.7948293333327" stroke="#ef5350" stroke-width="2"/><rect x="904" y="102.43517555555468" width="8" height="64.11927866666804" fill="#ef5350"/><line x1="920" y1="149.30857911111218" x2="920" y2="216.96547333333456" stroke="#ef5350" stroke-width="2"/><rect x="916" y="162.5746368888889" width="8" height="14.150461333333169" fill="#ef5350"/><line x1="932" y1="120.1232524444448" x2="932" y2="185.12693511111138" stroke="#26a69a" stroke-width="2"/><rect x="928" y="127.64068533333307" width="8" height="50.8532208888887" fill="#26a69a"/><line x1="944" y1="125.42967555555663" x2="944" y2="182.0315213333339" stroke="#ef5350" stroke-width="2"/><rect x="940" y="129.40949288888783" width="8" height="27.416519111112507" fill="#ef5350"/><line x1="956" y1="144.00215600000035" x2="956" y2="181.58931955555443" stroke="#26a69a" stroke-width="2"/><rect x="952" y="151.51958888888862" width="8" height="2.2110097777790543" fill="#26a69a"/><line x1="968" y1="125.87187733333337" x2="968" y2="164.34344444444378" stroke="#26a69a" stroke-width="2"/><rect x="964" y="133.38931022222164" width="8" height="19.89908622222174" fill="#26a69a"/><line x1="980" y1="132.5049062222231" x2="980" y2="174.9562906666672" stroke="#ef5350" stroke-width="2"/><rect x="976" y="132.5049062222231" width="8" height="26.089913333331992" fill="#ef5350"/><line x1="992" y1="110.83701199999928" x2="992" y2="222.71409822222324" stroke="#26a69a" stroke-width="2"/><rect x="988" y="126.31407955555517" width="8" height="51.29542266666806" fill="#26a69a"/><line x1="1004" y1="126.31407955555517" x2="1004" y2="169.20766577777863" stroke="#ef5350" stroke-width="2"/><rect x="1000" y="126.31407955555517" width="8" height="32.72294222222172" fill="#ef5350"/><line x1="1016" y1="528.717828000001" x2="1016" y2="608.3141742222223" stroke="#ef5350" stroke-width="2"/><rect x="1012" y="530.0444337777789" width="8" height="32.72294222222172" fill="#ef5350"/><line x1="1028" y1="522.0847995555561" x2="1028" y2="619.8114239999995" stroke="#26a69a" stroke-width="2"/><rect x="1024" y="542.8682897777788" width="8" height="22.994499999999334" fill="#26a69a"/><line x1="1040" y1="525.6224146666657" x2="1040" y2="601.6811453333326" stroke="#ef5350" stroke-width="2"/><rect x="1036" y="545.5215013333323" width="8" height="52.179826666666486" fill="#ef5350"/><line x1="1052" y1="534.9086551111112" x2="1052" y2="606.5453662222227" stroke="#26a69a" stroke-width="2"/><rect x="1048" y="549.0591164444444" width="8" height="49.08441333333383" fill="#26a69a"/><line x1="1064" y1="496.4370880000009" x2="1064" y2="560.5563666666663" stroke="#26a69a" stroke-width="2"/><rect x="1060" y="541.5416840000009" width="8" height="7.0752306666665845" fill="#26a69a"/><line x1="1076" y1="519.873789777777" x2="1076" y2="581.3398568888892" stroke="#ef5350" stroke-width="2"/><rect x="1072" y="543.3104915555557" width="8" height="19.45688444444488" fill="#ef5350"/><line x1="1088" y1="451.77469377777777" x2="1088" y2="591.0682991111116" stroke="#26a69a" stroke-width="2"/><rect x="1084" y="480.07561688888876" width="8" height="81.36515333333392" fill="#26a69a"/><line x1="1100" y1="405.78569377777666" x2="1100" y2="480.96002044444504" stroke="#26a69a" stroke-width="2"/><rect x="1096" y="430.1067995555564" width="8" height="49.96881733333237" fill="#26a69a"/><line x1="1112" y1="408.4389053333325" x2="1112" y2="450.44808799999976" stroke="#26a69a" stroke-width="2"/><rect x="1108" y="431.43340533333435" width="8" height="2" fill="#26a69a"/><line x1="1124" y1="370.409539999999" x2="1124" y2="438.06643422222146" stroke="#26a69a" stroke-width="2"/><rect x="1120" y="387.2132133333328" width="8" height="46.43120177777797" fill="#26a69a"/><line x1="1136" y1="345.2040306666656" x2="1136" y2="395.61504977777736" stroke="#26a69a" stroke-width="2"/><rect x="1132" y="377.04256888888875" width="8" height="9.286240444445525" fill="#26a69a"/><line x1="1148" y1="361.1233000000008" x2="1148" y2="432.76001111111225" stroke="#26a69a" stroke-width="2"/><rect x="1144" y="370.409539999999" width="8" height="8.401836888889306" fill="#26a69a"/><line x1="1160" y1="361.5655017777777" x2="1160" y2="411.53431911111005" stroke="#ef5350" stroke-width="2"/><rect x="1156" y="370.85174222222327" width="8" height="32.28074000000004" fill="#ef5350"/><line x1="1172" y1="326.1893480000001" x2="1172" y2="416.840741777777" stroke="#26a69a" stroke-width="2"/><rect x="1168" y="334.14898266666773" width="8" height="67.65689377777761" fill="#26a69a"/><line x1="1184" y1="313.36549244444484" x2="1184" y2="362.89210755555564" stroke="#26a69a" stroke-width="2"/><rect x="1180" y="329.28476133333277" width="8" height="6.190827111112867" fill="#26a69a"/><line x1="1196" y1="318.67191511111184" x2="1196" y2="375.7159631111108" stroke="#ef5350" stroke-width="2"/><rect x="1192" y="332.38017511111036" width="8" height="39.798172888890804" fill="#ef5350"/><line x1="1208" y1="367.75632844444567" x2="1208" y2="432.3178093333329" stroke="#ef5350" stroke-width="2"/><rect x="1204" y="371.2939440000001" width="8" height="56.601846222222036" fill="#ef5350"/><line x1="1220" y1="396.94165555555526" x2="1220" y2="448.679280444445" stroke="#26a69a" stroke-width="2"/><rect x="1216" y="400.92147288888907" width="8" height="24.76330755555665" fill="#26a69a"/><line x1="1232" y1="354.4902711111111" x2="1232" y2="399.59486711111117" stroke="#26a69a" stroke-width="2"/><rect x="1228" y="379.6957804444446" width="8" height="17.24587511111065" fill="#26a69a"/><line x1="1244" y1="339.01320355555526" x2="1244" y2="407.5545017777788" stroke="#26a69a" stroke-width="2"/><rect x="1240" y="339.45540577777695" width="8" height="37.587163111111806" fill="#26a69a"/><line x1="1256" y1="332.38017511111036" x2="1256" y2="385.8866075555549" stroke="#ef5350" stroke-width="2"/><rect x="1252" y="340.78201155555485" width="8" height="28.743124888890463" fill="#ef5350"/><line x1="1268" y1="362.00770355555454" x2="1268" y2="396.94165555555526" stroke="#ef5350" stroke-width="2"/><rect x="1264" y="375.27376133333394" width="8" height="13.266057777776837" fill="#ef5350"/><line x1="1280" y1="379.6957804444446" x2="1280" y2="460.1765302222222" stroke="#ef5350" stroke-width="2"/><rect x="1276" y="393.84624222222254" width="8" height="25.205509333333453" fill="#ef5350"/><line x1="1292" y1="395.17284800000044" x2="1292" y2="489.8040591111112" stroke="#ef5350" stroke-width="2"/><rect x="1288" y="418.60954977777664" width="8" height="3.5376151111121317" fill="#ef5350"/><line x1="1304" y1="353.1636653333332" x2="1304" y2="438.06643422222146" stroke="#26a69a" stroke-width="2"/><rect x="1300" y="389.86642488888873" width="8" height="32.28074000000004" fill="#26a69a"/><line x1="1316" y1="384.1177995555553" x2="1316" y2="496.4370880000009" stroke="#ef5350" stroke-width="2"/><rect x="1312" y="390.3086266666656" width="8" height="93.30460533333536" fill="#ef5350"/><line x1="1328" y1="479.19121288888766" x2="1328" y2="516.3361742222227" stroke="#ef5350" stroke-width="2"/><rect x="1324" y="489.8040591111112" width="8" height="7.959634666667625" fill="#ef5350"/><line x1="1340" y1="480.07561688888876" x2="1340" y2="525.6224146666657" stroke="#ef5350" stroke-width="2"/><rect x="1336" y="495.9948857777767" width="8" height="24.763308000001473" fill="#ef5350"/><line x1="1352" y1="521.6425973333344" x2="1352" y2="575.5912320000006" stroke="#ef5350" stroke-width="2"/><rect x="1348" y="521.6425973333344" width="8" height="33.1651444444434" fill="#ef5350"/><line x1="1364" y1="553.9233377777767" x2="1364" y2="598.5857319999999" stroke="#ef5350" stroke-width="2"/><rect x="1360" y="558.7875586666668" width="8" height="32.72294222222172" fill="#ef5350"/><line x1="1376" y1="568.9582031111108" x2="1376" y2="665.8004240000007" stroke="#ef5350" stroke-width="2"/><rect x="1372" y="596.3747222222233" width="8" height="68.98349999999789" fill="#ef5350"/><line x1="1388" y1="628.213260444444" x2="1388" y2="693.2169431111106" stroke="#26a69a" stroke-width="2"/><rect x="1384" y="634.4040875555543" width="8" height="30.06973066666842" fill="#26a69a"/><line x1="1400" y1="632.1930777777778" x2="1400" y2="684.8151066666661" stroke="#ef5350" stroke-width="2"/><rect x="1396" y="632.1930777777778" width="8" height="51.73762488888974" fill="#ef5350"/><line x1="1412" y1="656.9563853333345" x2="1412" y2="701.1765777777782" stroke="#26a69a" stroke-width="2"/><rect x="1408" y="662.2628084444436" width="8" height="17.245875111110763" fill="#26a69a"/><line x1="1424" y1="613.1783951111124" x2="1424" y2="665.8004240000007" stroke="#ef5350" stroke-width="2"/><rect x="1420" y="664.0316164444432" width="8" height="2" fill="#ef5350"/><line x1="1436" y1="666.6848279999992" x2="1436" y2="726.3820871111117" stroke="#ef5350" stroke-width="2"/><rect x="1432" y="666.6848279999992" width="8" height="30.954134222222024" fill="#ef5350"/><line x1="1448" y1="643.2481257777782" x2="1448" y2="700.7343755555565" stroke="#26a69a" stroke-width="2"/><rect x="1444" y="674.2022604444451" width="8" height="22.110095999998293" fill="#26a69a"/><line x1="1460" y1="666.6848279999992" x2="1460" y2="710.0206159999996" stroke="#ef5350" stroke-width="2"/><rect x="1456" y="670.6646448888882" width="8" height="37.1449617777796" fill="#ef5350"/><line x1="1472" y1="654.3031737777785" x2="1472" y2="714.8848373333344" stroke="#26a69a" stroke-width="2"/><rect x="1468" y="689.4582266666678" width="8" height="18.793581777777035" fill="#26a69a"/><line x1="1484" y1="689.6793275555563" x2="1484" y2="765.2958564444438" stroke="#ef5350" stroke-width="2"/><rect x="1480" y="694.1013471111116" width="8" height="60.581663111111084" fill="#ef5350"/><line x1="1496" y1="724.6132795555544" x2="1496" y2="760.8738373333331" stroke="#26a69a" stroke-width="2"/><rect x="1492" y="728.5930968888882" width="8" height="22.55229777777754" fill="#26a69a"/><line x1="1508" y1="656.5141835555551" x2="1508" y2="733.0151159999989" stroke="#26a69a" stroke-width="2"/><rect x="1504" y="676.855472000001" width="8" height="50.8532208888887" fill="#26a69a"/><line x1="1520" y1="667.5692315555555" x2="1520" y2="713.1160297777772" stroke="#ef5350" stroke-width="2"/><rect x="1516" y="679.9508853333338" width="8" height="15.919269333332636" fill="#ef5350"/><line x1="1532" y1="674.2022604444451" x2="1532" y2="717.0958466666661" stroke="#ef5350" stroke-width="2"/><rect x="1528" y="695.4279528888896" width="8" height="11.055048000000397" fill="#ef5350"/><line x1="1544" y1="685.6995102222224" x2="1544" y2="730.8041066666672" stroke="#26a69a" stroke-width="2"/><rect x="1540" y="688.3527217777782" width="8" height="16.36147111110961" fill="#26a69a"/><line x1="1556" y1="651.2077604444432" x2="1556" y2="688.3527217777782" stroke="#26a69a" stroke-width="2"/><rect x="1552" y="657.3985875555561" width="8" height="30.954134222222137" fill="#26a69a"/><line x1="1568" y1="640.5949142222223" x2="1568" y2="675.971068" stroke="#26a69a" stroke-width="2"/><rect x="1564" y="656.9563853333345" width="8" height="2.211009777776326" fill="#26a69a"/><line x1="1580" y1="647.6701453333337" x2="1580" y2="727.7086928888897" stroke="#ef5350" stroke-width="2"/><rect x="1576" y="659.1673951111109" width="8" height="60.13946133333434" fill="#ef5350"/><line x1="1592" y1="689.2371257777768" x2="1592" y2="735.2261257777778" stroke="#26a69a" stroke-width="2"/><rect x="1588" y="716.6536448888893" width="8" height="2" fill="#26a69a"/><line x1="1604" y1="707.3674044444438" x2="1604" y2="783.4261351111106" stroke="#ef5350" stroke-width="2"/><rect x="1600" y="716.6536448888893" width="8" height="62.79267288888752" fill="#ef5350"/><line x1="1616" y1="782.0995293333327" x2="1616" y2="818.8022888888883" stroke="#ef5350" stroke-width="2"/><rect x="1612" y="782.0995293333327" width="8" height="6.190827111112753" fill="#ef5350"/><line x1="1628" y1="737.4371351111121" x2="1628" y2="799.3454044444434" stroke="#26a69a" stroke-width="2"/><rect x="1624" y="759.5472315555551" width="8" height="27.858720888889366" fill="#26a69a"/><line x1="1640" y1="712.2316257777786" x2="1640" y2="759.1050293333334" stroke="#26a69a" stroke-width="2"/><rect x="1636" y="733.0151159999989" width="8" height="24.763307555556594" fill="#26a69a"/><line x1="1652" y1="722.4022697777779" x2="1652" y2="748.9343853333341" stroke="#26a69a" stroke-width="2"/><rect x="1648" y="734.7839235555562" width="8" height="2.653211555555913" fill="#26a69a"/><line x1="1664" y1="727.2664911111102" x2="1664" y2="804.6518275555551" stroke="#ef5350" stroke-width="2"/><rect x="1660" y="736.1105293333342" width="8" height="63.677076888888564" fill="#ef5350"/><line x1="1676" y1="763.0848466666672" x2="1676" y2="803.7674235555565" stroke="#26a69a" stroke-width="2"/><rect x="1672" y="777.2353084444452" width="8" height="21.6678937777765" fill="#26a69a"/><line x1="1688" y1="743.6279622222223" x2="1688" y2="790.5013657777772" stroke="#ef5350" stroke-width="2"/><rect x="1684" y="775.9087026666672" width="8" height="7.959634222222917" fill="#ef5350"/><line x1="1700" y1="763.9692506666657" x2="1700" y2="830.2995386666655" stroke="#ef5350" stroke-width="2"/><rect x="1696" y="787.4059524444444" width="8" height="32.72294222222172" fill="#ef5350"/><line x1="1712" y1="804.2096253333334" x2="1712" y2="834.721558222221" stroke="#26a69a" stroke-width="2"/><rect x="1708" y="806.8628368888893" width="8" height="12.381653777778297" fill="#26a69a"/><line x1="1724" y1="808.6316448888889" x2="1724" y2="854.6206444444452" stroke="#ef5350" stroke-width="2"/><rect x="1720" y="808.6316448888889" width="8" height="24.763307555556707" fill="#ef5350"/><line x1="1736" y1="819.2444906666676" x2="1736" y2="861.2536733333324" stroke="#ef5350" stroke-width="2"/><rect x="1732" y="834.5004568888877" width="8" height="6.4119280000012395" fill="#ef5350"/><line x1="1748" y1="812.611461777778" x2="1748" y2="853.7362408888889" stroke="#26a69a" stroke-width="2"/><rect x="1744" y="837.8169715555563" width="8" height="2" fill="#26a69a"/><line x1="1760" y1="778.5619137777783" x2="1760" y2="842.238990666667" stroke="#26a69a" stroke-width="2"/><rect x="1756" y="798.4610004444448" width="8" height="41.1247786666662" fill="#26a69a"/><line x1="1772" y1="675.0866644444436" x2="1772" y2="801.1142120000007" stroke="#26a69a" stroke-width="2"/><rect x="1768" y="703.38758711111" width="8" height="95.95781733333342" fill="#26a69a"/><line x1="1784" y1="642.3637222222219" x2="1784" y2="705.5985968888889" stroke="#26a69a" stroke-width="2"/><rect x="1780" y="690.5637315555548" width="8" height="3.095413333335273" fill="#26a69a"/><line x1="1796" y1="687.9105199999988" x2="1796" y2="819.2444906666676" stroke="#ef5350" stroke-width="2"/><rect x="1792" y="690.1215297777778" width="8" height="118.51011511111108" fill="#ef5350"/><line x1="1808" y1="749.8187888888879" x2="1808" y2="834.721558222221" stroke="#26a69a" stroke-width="2"/><rect x="1804" y="762.200443111111" width="8" height="47.31560533333425" fill="#26a69a"/><line x1="1820" y1="717.5380488888878" x2="1820" y2="776.350904444444" stroke="#26a69a" stroke-width="2"/><rect x="1816" y="755.5674142222213" width="8" height="10.612845777778716" fill="#26a69a"/><line x1="1832" y1="722.8444719999995" x2="1832" y2="772.8132888888897" stroke="#26a69a" stroke-width="2"/><rect x="1828" y="725.9398853333323" width="8" height="33.60734622222276" fill="#26a69a"/><line x1="1844" y1="703.829789333334" x2="1844" y2="761.31603911111" stroke="#26a69a" stroke-width="2"/><rect x="1840" y="729.4775008888893" width="8" height="2" fill="#26a69a"/><line x1="1856" y1="718.4224524444442" x2="1856" y2="827.6463271111121" stroke="#ef5350" stroke-width="2"/><rect x="1852" y="731.246308444444" width="8" height="76.50093244444383" fill="#ef5350"/><line x1="1868" y1="741.8591546666676" x2="1868" y2="815.7068755555555" stroke="#26a69a" stroke-width="2"/><rect x="1864" y="751.58759688889" width="8" height="53.94863422222147" fill="#26a69a"/><line x1="1880" y1="699.4077697777786" x2="1880" y2="761.7582408888893" stroke="#ef5350" stroke-width="2"/><rect x="1876" y="751.1453946666658" width="8" height="7.959634666667625" fill="#ef5350"/><line x1="1892" y1="714.4426355555551" x2="1892" y2="776.793106222221" stroke="#ef5350" stroke-width="2"/><rect x="1888" y="757.7784235555555" width="8" height="11.497250222222078" fill="#ef5350"/><line x1="1904" y1="763.9692506666657" x2="1904" y2="813.495865777779" stroke="#ef5350" stroke-width="2"/><rect x="1900" y="774.1398946666676" width="8" height="32.28074044444236" fill="#ef5350"/><line x1="1916" y1="764.8536542222221" x2="1916" y2="822.3399044444452" stroke="#26a69a" stroke-width="2"/><rect x="1912" y="765.7380582222231" width="8" height="44.220192444443796" fill="#26a69a"/><line x1="1928" y1="741.8591546666676" x2="1928" y2="790.5013657777772" stroke="#26a69a" stroke-width="2"/><rect x="1924" y="744.0701639999993" width="8" height="21.667894222223822" fill="#26a69a"/><line x1="1940" y1="738.3215391111106" x2="1940" y2="790.5013657777772" stroke="#ef5350" stroke-width="2"/><rect x="1936" y="743.1857604444455" width="8" height="22.994499555554512" fill="#ef5350"/><rect x="75" y="971.3752054932102" width="10" height="48.62479450678984" fill="#ef5350" opacity="0.9"/><rect x="87" y="974.3469941166832" width="10" height="45.65300588331684" fill="#ef5350" opacity="0.9"/><rect x="99" y="971.6112253474223" width="10" height="48.388774652577695" fill="#26a69a" opacity="0.9"/><rect x="111" y="984.6253548226812" width="10" height="35.374645177318826" fill="#ef5350" opacity="0.9"/><rect x="123" y="984.0177292405606" width="10" height="35.982270759439416" fill="#ef5350" opacity="0.9"/><rect x="135" y="979.399087636577" width="10" height="40.60091236342305" fill="#ef5350" opacity="0.9"/><rect x="147" y="960.4498385127313" width="10" height="59.550161487268724" fill="#26a69a" opacity="0.9"/><rect x="159" y="978.1312407825393" width="10" height="41.868759217460706" fill="#26a69a" opacity="0.9"/><rect x="171" y="993.219860555347" width="10" height="26.780139444652946" fill="#ef5350" opacity="0.9"/><rect x="183" y="989.2730694210245" width="10" height="30.726930578975498" fill="#ef5350" opacity="0.9"/><rect x="195" y="988.7468482231114" width="10" height="31.253151776888558" fill="#ef5350" opacity="0.9"/><rect x="207" y="988.9297437876297" width="10" height="31.070256212370282" fill="#ef5350" opacity="0.9"/><rect x="219" y="995.9389784278382" width="10" height="24.06102157216185" fill="#26a69a" opacity="0.9"/><rect x="231" y="994.3069262444563" width="10" height="25.69307375554365" fill="#26a69a" opacity="0.9"/><rect x="243" y="1001.605040728622" width="10" height="18.394959271377957" fill="#ef5350" opacity="0.9"/><rect x="255" y="995.1503073808403" width="10" height="24.84969261915967" fill="#ef5350" opacity="0.9"/><rect x="267" y="1000.2761405864287" width="10" height="19.72385941357129" fill="#26a69a" opacity="0.9"/><rect x="279" y="1000.6712690097738" width="10" height="19.328730990226177" fill="#ef5350" opacity="0.9"/><rect x="291" y="1001.5048710480551" width="10" height="18.495128951944935" fill="#ef5350" opacity="0.9"/><rect x="303" y="1000.967020652398" width="10" height="19.03297934760201" fill="#ef5350" opacity="0.9"/><rect x="315" y="990.2478076319253" width="10" height="29.752192368074702" fill="#ef5350" opacity="0.9"/><rect x="327" y="1002.458200963109" width="10" height="17.541799036891007" fill="#ef5350" opacity="0.9"/><rect x="339" y="992.5821047790716" width="10" height="27.417895220928358" fill="#26a69a" opacity="0.9"/><rect x="351" y="992.2303215473177" width="10" height="27.769678452682342" fill="#26a69a" opacity="0.9"/><rect x="363" y="993.9567288123947" width="10" height="26.04327118760534" fill="#ef5350" opacity="0.9"/><rect x="375" y="996.3100555558492" width="10" height="23.689944444150797" fill="#26a69a" opacity="0.9"/><rect x="387" y="995.3609544399749" width="10" height="24.639045560025124" fill="#ef5350" opacity="0.9"/><rect x="399" y="1001.5305081430814" width="10" height="18.46949185691858" fill="#26a69a" opacity="0.9"/><rect x="411" y="999.4248304515829" width="10" height="20.57516954841708" fill="#26a69a" opacity="0.9"/><rect x="423" y="958.2643422367177" width="10" height="61.73565776328235" fill="#26a69a" opacity="0.9"/><rect x="435" y="988.2399209214553" width="10" height="31.760079078544663" fill="#26a69a" opacity="0.9"/><rect x="447" y="999.0857336173676" width="10" height="20.914266382632377" fill="#26a69a" opacity="0.9"/><rect x="459" y="997.0426950137172" width="10" height="22.957304986282793" fill="#ef5350" opacity="0.9"/><rect x="471" y="997.7935711680472" width="10" height="22.20642883195285" fill="#26a69a" opacity="0.9"/><rect x="483" y="990.2253421362836" width="10" height="29.774657863716357" fill="#26a69a" opacity="0.9"/><rect x="495" y="998.3533584594485" width="10" height="21.646641540551514" fill="#26a69a" opacity="0.9"/><rect x="507" y="1001.9322440651447" width="10" height="18.067755934855313" fill="#26a69a" opacity="0.9"/><rect x="519" y="997.0350303152042" width="10" height="22.964969684795847" fill="#26a69a" opacity="0.9"/><rect x="531" y="1001.42293806395" width="10" height="18.577061936049972" fill="#ef5350" opacity="0.9"/><rect x="543" y="993.2029453586287" width="10" height="26.797054641371346" fill="#ef5350" opacity="0.9"/><rect x="555" y="992.3000967337813" width="10" height="27.699903266218712" fill="#26a69a" opacity="0.9"/><rect x="567" y="998.5164315278123" width="10" height="21.4835684721877" fill="#26a69a" opacity="0.9"/><rect x="579" y="987.7425084179533" width="10" height="32.25749158204667" fill="#26a69a" opacity="0.9"/><rect x="591" y="948.5862067142759" width="10" height="71.41379328572407" fill="#ef5350" opacity="0.9"/><rect x="603" y="983.2877327821799" width="10" height="36.71226721782011" fill="#26a69a" opacity="0.9"/><rect x="615" y="994.1591825731185" width="10" height="25.840817426881472" fill="#26a69a" opacity="0.9"/><rect x="627" y="995.0255578050418" width="10" height="24.974442194958215" fill="#ef5350" opacity="0.9"/><rect x="639" y="1001.2083265055846" width="10" height="18.791673494415363" fill="#ef5350" opacity="0.9"/><rect x="651" y="991.5293980832968" width="10" height="28.47060191670323" fill="#ef5350" opacity="0.9"/><rect x="663" y="998.1091453068258" width="10" height="21.89085469317422" fill="#26a69a" opacity="0.9"/><rect x="675" y="1002.493881456187" width="10" height="17.506118543813045" fill="#ef5350" opacity="0.9"/><rect x="687" y="996.2252152723082" width="10" height="23.77478472769178" fill="#26a69a" opacity="0.9"/><rect x="699" y="985.8572568836921" width="10" height="34.142743116307884" fill="#26a69a" opacity="0.9"/><rect x="711" y="997.73489657943" width="10" height="22.26510342056997" fill="#26a69a" opacity="0.9"/><rect x="723" y="986.4685826650949" width="10" height="33.531417334905086" fill="#26a69a" opacity="0.9"/><rect x="735" y="980.5968950042023" width="10" height="39.40310499579766" fill="#26a69a" opacity="0.9"/><rect x="747" y="992.9198801135433" width="10" height="27.080119886456714" fill="#26a69a" opacity="0.9"/><rect x="759" y="989.6367461504713" width="10" height="30.363253849528746" fill="#ef5350" opacity="0.9"/><rect x="771" y="997.0627818098203" width="10" height="22.937218190179692" fill="#26a69a" opacity="0.9"/><rect x="783" y="994.6809106719033" width="10" height="25.319089328096652" fill="#ef5350" opacity="0.9"/><rect x="795" y="996.8820006448918" width="10" height="23.117999355108168" fill="#26a69a" opacity="0.9"/><rect x="807" y="988.2719012152512" width="10" height="31.728098784748795" fill="#ef5350" opacity="0.9"/><rect x="819" y="996.4839649221108" width="10" height="23.516035077889228" fill="#ef5350" opacity="0.9"/><rect x="831" y="1000.6414031155678" width="10" height="19.358596884432245" fill="#26a69a" opacity="0.9"/><rect x="843" y="1001.4435534599506" width="10" height="18.556446540049365" fill="#ef5350" opacity="0.9"/><rect x="855" y="999.806479577543" width="10" height="20.193520422457027" fill="#ef5350" opacity="0.9"/><rect x="867" y="991.3779542126769" width="10" height="28.622045787323145" fill="#26a69a" opacity="0.9"/><rect x="879" y="993.6834426654121" width="10" height="26.316557334587856" fill="#26a69a" opacity="0.9"/><rect x="891" y="991.7056861490969" width="10" height="28.29431385090311" fill="#26a69a" opacity="0.9"/><rect x="903" y="974.9921502915229" width="10" height="45.007849708477124" fill="#ef5350" opacity="0.9"/><rect x="915" y="988.8834912966026" width="10" height="31.116508703397358" fill="#ef5350" opacity="0.9"/><rect x="927" y="984.8175008854048" width="10" height="35.1824991145952" fill="#26a69a" opacity="0.9"/><rect x="939" y="979.9950840209538" width="10" height="40.004915979046245" fill="#ef5350" opacity="0.9"/><rect x="951" y="997.6355197987092" width="10" height="22.364480201290803" fill="#26a69a" opacity="0.9"/><rect x="963" y="991.1453702577982" width="10" height="28.854629742201837" fill="#26a69a" opacity="0.9"/><rect x="975" y="987.3344292971207" width="10" height="32.665570702879336" fill="#ef5350" opacity="0.9"/><rect x="987" y="934.5611299351408" width="10" height="85.4388700648592" fill="#26a69a" opacity="0.9"/><rect x="999" y="933.7129913996797" width="10" height="86.28700860032029" fill="#ef5350" opacity="0.9"/><rect x="1011" y="950.4162195592534" width="10" height="69.58378044074664" fill="#ef5350" opacity="0.9"/><rect x="1023" y="955.6261001485366" width="10" height="64.37389985146342" fill="#26a69a" opacity="0.9"/><rect x="1035" y="968.723484107644" width="10" height="51.276515892355974" fill="#ef5350" opacity="0.9"/><rect x="1047" y="970.9708265716597" width="10" height="49.0291734283403" fill="#26a69a" opacity="0.9"/><rect x="1059" y="955.0176816665697" width="10" height="64.98231833343027" fill="#26a69a" opacity="0.9"/><rect x="1071" y="989.343901807283" width="10" height="30.656098192716968" fill="#ef5350" opacity="0.9"/><rect x="1083" y="964.7478842789104" width="10" height="55.25211572108958" fill="#26a69a" opacity="0.9"/><rect x="1095" y="976.987350604454" width="10" height="43.012649395545964" fill="#26a69a" opacity="0.9"/><rect x="1107" y="975.8413460267789" width="10" height="44.158653973221135" fill="#26a69a" opacity="0.9"/><rect x="1119" y="979.9636323270553" width="10" height="40.03636767294472" fill="#26a69a" opacity="0.9"/><rect x="1131" y="984.8833115726376" width="10" height="35.11668842736242" fill="#26a69a" opacity="0.9"/><rect x="1143" y="982.8651171641673" width="10" height="37.13488283583274" fill="#26a69a" opacity="0.9"/><rect x="1155" y="996.375866243082" width="10" height="23.624133756918013" fill="#ef5350" opacity="0.9"/><rect x="1167" y="989.8785806035554" width="10" height="30.121419396444594" fill="#26a69a" opacity="0.9"/><rect x="1179" y="997.6246835008114" width="10" height="22.375316499188557" fill="#26a69a" opacity="0.9"/><rect x="1191" y="994.3460426368678" width="10" height="25.653957363132236" fill="#ef5350" opacity="0.9"/><rect x="1203" y="993.4751743058162" width="10" height="26.524825694183846" fill="#ef5350" opacity="0.9"/><rect x="1215" y="993.3485746303766" width="10" height="26.65142536962344" fill="#26a69a" opacity="0.9"/><rect x="1227" y="996.1850416801019" width="10" height="23.814958319898096" fill="#26a69a" opacity="0.9"/><rect x="1239" y="1002.4814593585969" width="10" height="17.518540641403092" fill="#26a69a" opacity="0.9"/><rect x="1251" y="991.907082710026" width="10" height="28.092917289974025" fill="#ef5350" opacity="0.9"/><rect x="1263" y="1001.9303939655035" width="10" height="18.069606034496474" fill="#ef5350" opacity="0.9"/><rect x="1275" y="989.7984977190914" width="10" height="30.201502280908585" fill="#ef5350" opacity="0.9"/><rect x="1287" y="973.6061613604047" width="10" height="46.39383863959529" fill="#ef5350" opacity="0.9"/><rect x="1299" y="987.8828516907267" width="10" height="32.11714830927326" fill="#26a69a" opacity="0.9"/><rect x="1311" y="987.4850802678944" width="10" height="32.51491973210557" fill="#ef5350" opacity="0.9"/><rect x="1323" y="1000.2700616876081" width="10" height="19.729938312391937" fill="#ef5350" opacity="0.9"/><rect x="1335" y="1001.7456483013442" width="10" height="18.254351698655796" fill="#ef5350" opacity="0.9"/><rect x="1347" y="993.8703027291613" width="10" height="26.129697270838733" fill="#ef5350" opacity="0.9"/><rect x="1359" y="991.9057612102823" width="10" height="28.09423878971768" fill="#ef5350" opacity="0.9"/><rect x="1371" y="979.0496831043615" width="10" height="40.95031689563848" fill="#ef5350" opacity="0.9"/><rect x="1383" y="972.813525814176" width="10" height="47.186474185823954" fill="#26a69a" opacity="0.9"/><rect x="1395" y="996.1678621834347" width="10" height="23.83213781656525" fill="#ef5350" opacity="0.9"/><rect x="1407" y="995.8882328376828" width="10" height="24.111767162317165" fill="#26a69a" opacity="0.9"/><rect x="1419" y="986.9538373709555" width="10" height="33.04616262904449" fill="#ef5350" opacity="0.9"/><rect x="1431" y="985.058278138694" width="10" height="34.94172186130595" fill="#ef5350" opacity="0.9"/><rect x="1443" y="996.6288012940125" width="10" height="23.371198705987467" fill="#26a69a" opacity="0.9"/><rect x="1455" y="1002.7962405975293" width="10" height="17.203759402470723" fill="#ef5350" opacity="0.9"/><rect x="1467" y="994.7858377515474" width="10" height="25.214162248452567" fill="#26a69a" opacity="0.9"/><rect x="1479" y="987.3558375929675" width="10" height="32.64416240703247" fill="#ef5350" opacity="0.9"/><rect x="1491" y="997.0590816105382" width="10" height="22.940918389461785" fill="#26a69a" opacity="0.9"/><rect x="1503" y="991.7284159446873" width="10" height="28.2715840553127" fill="#26a69a" opacity="0.9"/><rect x="1515" y="999.3399901680419" width="10" height="20.660009831958064" fill="#ef5350" opacity="0.9"/><rect x="1527" y="1001.8209737867311" width="10" height="18.179026213268912" fill="#ef5350" opacity="0.9"/><rect x="1539" y="999.2662504823475" width="10" height="20.73374951765254" fill="#26a69a" opacity="0.9"/><rect x="1551" y="997.3077878622892" width="10" height="22.69221213771084" fill="#26a69a" opacity="0.9"/><rect x="1563" y="997.0844544056158" width="10" height="22.915545594384184" fill="#26a69a" opacity="0.9"/><rect x="1575" y="1002.1222757282785" width="10" height="17.87772427172149" fill="#ef5350" opacity="0.9"/><rect x="1587" y="1002.7407376082969" width="10" height="17.259262391703146" fill="#26a69a" opacity="0.9"/><rect x="1599" y="990.9149007025093" width="10" height="29.08509929749073" fill="#ef5350" opacity="0.9"/><rect x="1611" y="988.7431480238292" width="10" height="31.256851976170765" fill="#ef5350" opacity="0.9"/><rect x="1623" y="999.2765581803477" width="10" height="20.723441819652294" fill="#26a69a" opacity="0.9"/><rect x="1635" y="1001.1388156190698" width="10" height="18.86118438093024" fill="#26a69a" opacity="0.9"/><rect x="1647" y="999.3479191665036" width="10" height="20.65208083349637" fill="#26a69a" opacity="0.9"/><rect x="1659" y="996.0708641022524" width="10" height="23.929135897747642" fill="#ef5350" opacity="0.9"/><rect x="1671" y="995.4061497312069" width="10" height="24.593850268793062" fill="#26a69a" opacity="0.9"/><rect x="1683" y="997.5356144180907" width="10" height="22.464385581909255" fill="#ef5350" opacity="0.9"/><rect x="1695" y="993.673927867258" width="10" height="26.326072132741956" fill="#ef5350" opacity="0.9"/><rect x="1707" y="995.921798931171" width="10" height="24.078201068829003" fill="#26a69a" opacity="0.9"/><rect x="1719" y="986.8327879944392" width="10" height="33.16721200556083" fill="#ef5350" opacity="0.9"/><rect x="1731" y="993.0361720909826" width="10" height="26.96382790901737" fill="#ef5350" opacity="0.9"/><rect x="1743" y="997.5932318069131" width="10" height="22.40676819308692" fill="#26a69a" opacity="0.9"/><rect x="1755" y="995.6049032926487" width="10" height="24.395096707351286" fill="#26a69a" opacity="0.9"/><rect x="1767" y="961.2200085633183" width="10" height="58.77999143668171" fill="#26a69a" opacity="0.9"/><rect x="1779" y="969.7666760052648" width="10" height="50.2333239947352" fill="#26a69a" opacity="0.9"/><rect x="1791" y="976.8626010286554" width="10" height="43.13739897134462" fill="#ef5350" opacity="0.9"/><rect x="1803" y="975.5226002886155" width="10" height="44.477399711384464" fill="#26a69a" opacity="0.9"/><rect x="1815" y="993.7320738559777" width="10" height="26.26792614402234" fill="#26a69a" opacity="0.9"/><rect x="1827" y="990.316525618594" width="10" height="29.683474381405972" fill="#26a69a" opacity="0.9"/><rect x="1839" y="997.8733897525624" width="10" height="22.12661024743761" fill="#26a69a" opacity="0.9"/><rect x="1851" y="990.1761823458206" width="10" height="29.82381765417938" fill="#ef5350" opacity="0.9"/><rect x="1863" y="990.8482971154303" width="10" height="29.15170288456966" fill="#26a69a" opacity="0.9"/><rect x="1875" y="987.3915180860455" width="10" height="32.608481913954506" fill="#ef5350" opacity="0.9"/><rect x="1887" y="993.2999434398109" width="10" height="26.70005656018907" fill="#ef5350" opacity="0.9"/><rect x="1899" y="982.5365923279011" width="10" height="37.463407672098924" fill="#ef5350" opacity="0.9"/><rect x="1911" y="986.7955217016688" width="10" height="33.204478298331196" fill="#26a69a" opacity="0.9"/><rect x="1923" y="975.5564306820525" width="10" height="44.44356931794755" fill="#26a69a" opacity="0.9"/><rect x="1935" y="860.0" width="10" height="160.0" fill="#ef5350" opacity="0.9"/><rect x="1004" y="159.03702177777689" width="12" height="371.007412000002" fill="#ff2400" opacity="0.60"/><polyline points="320,467.5276107989425,332,477.5666974318483,344,484.16492692511184,356,490.00841020208554,368,502.1600296749006,380,509.6588511450162,392,520.065343459247,404,527.5013612038695,416,533.0499816606435,428,530.2789853543395,440,527.7297790031323,452,521.5909375319345,464,516.9632659786304,476,509.91254117643365,488,498.01631854587515,500,484.8104303034107,512,472.52532997821766,524,459.1781723718264,536,447.3548594051989,548,437.162949874543,560,422.5931608706181,572,406.84198821627183,584,392.38035492583344,596,389.95098063660157,608,381.94117862888356,620,374.5678715002062,632,368.6548445425135,644,364.69474049084613,656,362.54368114251116,668,358.2811888008968,680,357.92014902091677,692,351.28053512474304,704,343.03698710228014,716,332.46206820365137,728,320.49375973981057,740,302.6742883571842,752,285.7727918152301,764,275.26095382224355,776,261.328223997902,788,253.8603860298483,800,245.54553538150435,812,239.53869615998485,824,234.398738134165,836,226.33702796265936,848,219.08521416727228,860,214.62977273335287,872,205.17010404975179,884,195.09102387570078,896,186.3508863214014,908,184.46551183576503,920,183.7283295868549,932,178.38664918175607,944,176.3332551644453,956,173.97004885248805,968,170.10521660198617,980,169.00898831184907,992,164.9428065255354,1004,164.38035083527268,1016,202.32197227953236,1028,234.75495489841353,1040,269.32127614618366,1052,295.96297522220993,1064,319.3514236772369,1076,342.53389532702334,1088,355.63310690434565,1100,362.72583953779457,1112,369.26941723260774,1124,370.97835019458216,1136,371.5558948321359,1148,371.4467181814573,1160,374.46440999486487,1172,370.624845487416,1184,366.68769461559805,1196,367.2106139855411,1208,372.99015457951,1220,375.65028013278453,1232,376.03556587675183,1244,372.5517411054195,1256,372.26349304246975,1268,373.8136193347196,1280,378.1220128795616,1292,382.3148844994977,1304,383.0340788222985,1316,392.6130457916037,1328,402.62739321885874,1340,413.87794565304023,1352,427.29983099825154,1364,442.93894241640777,1376,464.1217309693426,1388,480.3390982632689,1400,499.72877487311706,1412,515.2082066418138,1424,529.4239791732808,1436,545.4444537493702,1448,557.707102006043,1460,572.0025786403868,1472,583.1888308333646,1484,599.5216098227779,1496,611.8141324005036,1508,618.0085456956931,1520,625.4239370262617,1532,633.1438478703225,1544,638.4018358615069,1556,640.2110503085598,1568,641.8058441204417,1580,649.1868929132048,1592,655.6122978632704,1604,667.4060140456049,1616,678.9188085597793,1628,686.5977059879469,1640,691.01841170338,1652,695.1865556893027,1664,705.1485605019606,1676,712.0139650679095,1688,718.8572385746688,1700,728.5021582024784,1712,735.9650799821363,1724,745.2441154547362,1736,754.3553792103694,1748,762.3041022908637,1760,765.7476164007297,1772,759.808565992196,1784,753.213819855374,1796,758.4917079538021,1808,758.8449208259261,1820,758.5327773398603,1832,755.4286923868581,1844,752.9571503394335,1856,758.1752542012863,1868,757.5478582667731,1880,757.6961602731116,1892,758.7989710830799,1904,763.3343676571789,1916,763.5632905681355,1928,761.7068023235511,1940,762.1328459117851" fill="none" stroke="#0090ff" stroke-width="2"/><line x1="80" y1="50" x2="80" y2="900" stroke="#666666" stroke-width="0.5" stroke-dasharray="4,4" opacity="0.90"/><line x1="152" y1="50" x2="152" y2="900" stroke="#666666" stroke-width="0.5" stroke-dasharray="4,4" opacity="0.90"/><line x1="224" y1="50" x2="224" y2="900" stroke="#666666" stroke-width="0.5" stroke-dasharray="4,4" opacity="0.90"/><line x1="296" y1="50" x2="296" y2="900" stroke="#666666" stroke-width="0.5" stroke-dasharray="4,4" opacity="0.90"/><line x1="368" y1="50" x2="368" y2="900" stroke="#666666" stroke-width="0.5" stroke-dasharray="4,4" opacity="0.90"/><line x1="440" y1="50" x2="440" y2="900" stroke="#666666" stroke-width="0.5" stroke-dasharray="4,4" opacity="0.90"/><line x1="512" y1="50" x2="512" y2="900" stroke="#666666" stroke-width="0.5" stroke-dasharray="4,4" opacity="0.90"/><line x1="584" y1="50" x2="584" y2="900" stroke="#666666" stroke-width="0.5" stroke-dasharray="4,4" opacity="0.90"/><line x1="656" y1="50" x2="656" y2="900" stroke="#666666" stroke-width="0.5" stroke-dasharray="4,4" opacity="0.90"/><line x1="728" y1="50" x2="728" y2="900" stroke="#666666" stroke-width="0.5" stroke-dasharray="4,4" opacity="0.90"/><line x1="800" y1="50" x2="800" y2="900" stroke="#666666" stroke-width="0.5" stroke-dasharray="4,4" opacity="0.90"/><line x1="872" y1="50" x2="872" y2="900" stroke="#666666" stroke-width="0.5" stroke-dasharray="4,4" opacity="0.90"/><line x1="944" y1="50" x2="944" y2="900" stroke="#666666" stroke-width="0.5" stroke-dasharray="4,4" opacity="0.90"/><line x1="1010" y1="30" x2="1010" y2="950" stroke="black" stroke-width="0.7"/><line x1="1016" y1="50" x2="1016" y2="900" stroke="#666666" stroke-width="0.5" stroke-dasharray="4,4" opacity="0.90"/><line x1="1088" y1="50" x2="1088" y2="900" stroke="#666666" stroke-width="0.5" stroke-dasharray="4,4" opacity="0.90"/><line x1="1160" y1="50" x2="1160" y2="900" stroke="#666666" stroke-width="0.5" stroke-dasharray="4,4" opacity="0.90"/><line x1="1232" y1="50" x2="1232" y2="900" stroke="#666666" stroke-width="0.5" stroke-dasharray="4,4" opacity="0.90"/><line x1="1304" y1="50" x2="1304" y2="900" stroke="#666666" stroke-width="0.5" stroke-dasharray="4,4" opacity="0.90"/><line x1="1376" y1="50" x2="1376" y2="900" stroke="#666666" stroke-width="0.5" stroke-dasharray="4,4" opacity="0.90"/><line x1="1448" y1="50" x2="1448" y2="900" stroke="#666666" stroke-width="0.5" stroke-dasharray="4,4" opacity="0.90"/><line x1="1520" y1="50" x2="1520" y2="900" stroke="#666666" stroke-width="0.5" stroke-dasharray="4,4" opacity="0.90"/><line x1="1592" y1="50" x2="1592" y2="900" stroke="#666666" stroke-width="0.5" stroke-dasharray="4,4" opacity="0.90"/><line x1="1664" y1="50" x2="1664" y2="900" stroke="#666666" stroke-width="0.5" stroke-dasharray="4,4" opacity="0.90"/><line x1="1736" y1="50" x2="1736" y2="900" stroke="#666666" stroke-width="0.5" stroke-dasharray="4,4" opacity="0.90"/><line x1="1808" y1="50" x2="1808" y2="900" stroke="#666666" stroke-width="0.5" stroke-dasharray="4,4" opacity="0.90"/><line x1="1880" y1="50" x2="1880" y2="900" stroke="#666666" stroke-width="0.5" stroke-dasharray="4,4" opacity="0.90"/><line x1="1946" y1="30" x2="1946" y2="950" stroke="black" stroke-width="0.7"/><text x="80" y="1040" text-anchor="middle" font-size="20" fill="black">09:30</text><text x="152" y="1040" text-anchor="middle" font-size="20" fill="black">10:00</text><text x="224" y="1040" text-anchor="middle" font-size="20" fill="black">10:30</text><text x="296" y="1040" text-anchor="middle" font-size="20" fill="black">11:00</text><text x="368" y="1040" text-anchor="middle" font-size="20" fill="black">11:30</text><text x="440" y="1040" text-anchor="middle" font-size="20" fill="black">12:00</text><text x="512" y="1040" text-anchor="middle" font-size="20" fill="black">12:30</text><text x="584" y="1040" text-anchor="middle" font-size="20" fill="black">13:00</text><text x="656" y="1040" text-anchor="middle" font-size="20" fill="black">13:30</text><text x="728" y="1040" text-anchor="middle" font-size="20" fill="black">14:00</text><text x="800" y="1040" text-anchor="middle" font-size="20" fill="black">14:30</text><text x="872" y="1040" text-anchor="middle" font-size="20" fill="black">15:00</text><text x="944" y="1040" text-anchor="middle" font-size="20" fill="black">15:30</text><text x="1016" y="1040" text-anchor="middle" font-size="20" fill="black">09:30</text><text x="1088" y="1040" text-anchor="middle" font-size="20" fill="black">10:00</text><text x="1160" y="1040" text-anchor="middle" font-size="20" fill="black">10:30</text><text x="1232" y="1040" text-anchor="middle" font-size="20" fill="black">11:00</text><text x="1304" y="1040" text-anchor="middle" font-size="20" fill="black">11:30</text><text x="1376" y="1040" text-anchor="middle" font-size="20" fill="black">12:00</text><text x="1448" y="1040" text-anchor="middle" font-size="20" fill="black">12:30</text><text x="1520" y="1040" text-anchor="middle" font-size="20" fill="black">13:00</text><text x="1592" y="1040" text-anchor="middle" font-size="20" fill="black">13:30</text><text x="1664" y="1040" text-anchor="middle" font-size="20" fill="black">14:00</text><text x="1736" y="1040" text-anchor="middle" font-size="20" fill="black">14:30</text><text x="1808" y="1040" text-anchor="middle" font-size="20" fill="black">15:00</text><text x="1880" y="1040" text-anchor="middle" font-size="20" fill="black">15:30</text><text x="1942" y="50" text-anchor="end" font-size="40" fill="#ef5350" font-weight="bold"> -1.08% (Thu)</text></svg>