<svg xmlns="http://www.w3.org/2000/svg" width="1992" height="1050"><rect width="100%" height="100%" fill="white"/><text x="42" y="854.0" text-anchor="end" font-size="20" fill="black">455</text><text x="42" y="806.9411764705883" text-anchor="end" font-size="20" fill="black">456</text><text x="42" y="759.8823529411765" text-anchor="end" font-size="20" fill="black">457</text><text x="42" y="712.8235294117646" text-anchor="end" font-size="20" fill="black">458</text><text x="42" y="665.7647058823529" text-anchor="end" font-size="20" fill="black">459</text><text x="42" y="618.7058823529412" text-anchor="end" font-size="20" fill="black">460</text><text x="42" y="571.6470588235294" text-anchor="end" font-size="20" fill="black">461</text><text x="42" y="524.5882352941177" text-anchor="end" font-size="20" fill="black">462</text><text x="42" y="477.5294117647059" text-anchor="end" font-size="20" fill="black">463</text><text x="42" y="430.4705882352941" text-anchor="end" font-size="20" fill="black">464</text><text x="42" y="383.4117647058823" text-anchor="end" font-size="20" fill="black">465</text><text x="42" y="336.3529411764706" text-anchor="end" font-size="20" fill="black">466</text><text x="42" y="289.2941176470588" text-anchor="end" font-size="20" fill="black">467</text><text x="42" y="242.23529411764707" text-anchor="end" font-size="20" fill="black">468</text><text x="42" y="195.17647058823536" text-anchor="end" font-size="20" fill="black">469</text><text x="42" y="148.11764705882354" text-anchor="end" font-size="20" fill="black">470</text><text x="42" y="101.05882352941182" text-anchor="end" font-size="20" fill="black">471</text><text x="42" y="54.0" text-anchor="end" font-size="20" fill="black">472</text><line x1="80" y1="823.1192244705894" x2="80" y2="885.0155759999993" stroke="#26a69a" stroke-width="2"/><rect x="76" y="844.2202531764718" width="8" height="12.660617411762246" fill="#26a69a"/><line x1="92" y1="823.1192244705894" x2="92" y2="887.3601345882354" stroke="#26a69a" stroke-width="2"/><rect x="88" y="824.9948710588235" width="8" height="21.101029176471116" fill="#26a69a"/><line x1="104" y1="757.9404903529421" x2="104" y2="828.2772536470582" stroke="#26a69a" stroke-width="2"/><rect x="100" y="765.9119901176463" width="8" height="59.08288094117722" fill="#26a69a"/><line x1="116" y1="724.178843764706" x2="116" y2="766.3809016470595" stroke="#26a69a" stroke-width="2"/><rect x="112" y="736.3705491764716" width="8" height="29.541440941174642" fill="#26a69a"/><line x1="128" y1="703.077814588235" x2="128" y2="746.2176964705872" stroke="#26a69a" stroke-width="2"/><rect x="124" y="705.8912851764703" width="8" height="28.134705411765253" fill="#26a69a"/><line x1="140" y1="648.6840508235299" x2="140" y2="725.5855788235294" stroke="#26a69a" stroke-width="2"/><rect x="136" y="655.7177275294126" width="8" height="50.642469647057055" fill="#26a69a"/><line x1="152" y1="626.6451985882347" x2="152" y2="665.5648743529422" stroke="#26a69a" stroke-width="2"/><rect x="148" y="634.6166983529415" width="8" height="22.97667623529378" fill="#26a69a"/><line x1="164" y1="596.165934588236" x2="164" y2="637.4301689411769" stroke="#26a69a" stroke-width="2"/><rect x="160" y="609.2954635294117" width="8" height="25.79014635294061" fill="#26a69a"/><line x1="176" y1="608.826552000001" x2="176" y2="659.9379331764715" stroke="#ef5350" stroke-width="2"/><rect x="172" y="609.764375529411" width="8" height="18.287558117646995" fill="#ef5350"/><line x1="188" y1="607.419816470589" x2="188" y2="650.0907863529419" stroke="#26a69a" stroke-width="2"/><rect x="184" y="611.6400221176477" width="8" height="15.942999999999643" fill="#26a69a"/><line x1="200" y1="571.7825232941188" x2="200" y2="612.1089341176471" stroke="#26a69a" stroke-width="2"/><rect x="196" y="584.4431407058812" width="8" height="27.66579341176589" fill="#26a69a"/><line x1="212" y1="555.8395232941166" x2="212" y2="606.0130814117656" stroke="#26a69a" stroke-width="2"/><rect x="208" y="558.1840823529412" width="8" height="24.61786682352954" fill="#26a69a"/><line x1="224" y1="542.2410823529417" x2="224" y2="568.9690527058835" stroke="#26a69a" stroke-width="2"/><rect x="220" y="543.1789058823517" width="8" height="15.943000000002257" fill="#26a69a"/><line x1="236" y1="513.1685534117637" x2="236" y2="555.8395232941166" stroke="#ef5350" stroke-width="2"/><rect x="232" y="542.709994352941" width="8" height="2" fill="#ef5350"/><line x1="248" y1="535.6763176470582" x2="248" y2="600.8550517647055" stroke="#ef5350" stroke-width="2"/><rect x="244" y="545.054552941177" width="8" height="36.106205176469416" fill="#ef5350"/><line x1="260" y1="572.2514348235296" x2="260" y2="617.7358752941178" stroke="#26a69a" stroke-width="2"/><rect x="256" y="577.409464000001" width="8" height="2" fill="#26a69a"/><line x1="272" y1="563.3421115294127" x2="272" y2="599.9172282352929" stroke="#26a69a" stroke-width="2"/><rect x="268" y="571.7825232941188" width="8" height="5.626940705882134" fill="#26a69a"/><line x1="284" y1="547.8680235294124" x2="284" y2="570.375787764707" stroke="#26a69a" stroke-width="2"/><rect x="280" y="555.8395232941166" width="8" height="14.067352941176978" fill="#26a69a"/><line x1="296" y1="536.6141411764709" x2="296" y2="578.8161995294131" stroke="#26a69a" stroke-width="2"/><rect x="292" y="536.6141411764709" width="8" height="20.632117647057726" fill="#26a69a"/><line x1="308" y1="519.7333181176472" x2="308" y2="543.6478178823536" stroke="#26a69a" stroke-width="2"/><rect x="304" y="528.6426414117641" width="8" height="7.502588235293388" fill="#26a69a"/><line x1="320" y1="480.8136423529424" x2="320" y2="527.7048178823541" stroke="#26a69a" stroke-width="2"/><rect x="316" y="497.2255538823527" width="8" height="30.479264000001365" fill="#26a69a"/><line x1="332" y1="485.5027600000005" x2="332" y2="518.3265830588238" stroke="#ef5350" stroke-width="2"/><rect x="328" y="495.34990682353" width="8" height="20.632117176469137" fill="#ef5350"/><line x1="344" y1="505.6659656470589" x2="344" y2="546.461288470589" stroke="#ef5350" stroke-width="2"/><rect x="340" y="515.5131124705883" width="8" height="18.756470117646472" fill="#ef5350"/><line x1="356" y1="519.2644065882365" x2="356" y2="565.2177585882355" stroke="#ef5350" stroke-width="2"/><rect x="352" y="530.9872004705887" width="8" height="18.28755811764711" fill="#ef5350"/><line x1="368" y1="530.5182884705894" x2="368" y2="576.0027289411777" stroke="#26a69a" stroke-width="2"/><rect x="364" y="530.5182884705894" width="8" height="16.411911529410418" fill="#26a69a"/><line x1="380" y1="513.6374654117657" x2="380" y2="543.6478178823536" stroke="#26a69a" stroke-width="2"/><rect x="376" y="525.8291708235287" width="8" height="6.0958531764700865" fill="#26a69a"/><line x1="392" y1="508.01052423529495" x2="392" y2="545.992376470587" stroke="#ef5350" stroke-width="2"/><rect x="388" y="527.7048178823541" width="8" height="17.349735058822944" fill="#ef5350"/><line x1="404" y1="508.47943623529426" x2="404" y2="553.0260527058812" stroke="#26a69a" stroke-width="2"/><rect x="400" y="520.6711416470598" width="8" height="22.97667623529378" fill="#26a69a"/><line x1="416" y1="480.8136423529424" x2="416" y2="538.4897882352936" stroke="#26a69a" stroke-width="2"/><rect x="412" y="485.03384800000117" width="8" height="33.292735058822586" fill="#26a69a"/><line x1="428" y1="475.1867011764716" x2="428" y2="545.054552941177" stroke="#ef5350" stroke-width="2"/><rect x="424" y="484.5649364705878" width="8" height="49.70464611764703" fill="#ef5350"/><line x1="440" y1="515.5131124705883" x2="440" y2="550.6814941176478" stroke="#26a69a" stroke-width="2"/><rect x="436" y="528.1737298823533" width="8" height="2.8134705882354183" fill="#26a69a"/><line x1="452" y1="526.2980828235306" x2="452" y2="557.2462588235286" stroke="#ef5350" stroke-width="2"/><rect x="448" y="526.7669943529413" width="8" height="26.72797035294184" fill="#ef5350"/><line x1="464" y1="500.5079359999988" x2="464" y2="551.6193176470579" stroke="#26a69a" stroke-width="2"/><rect x="460" y="501.9146715294108" width="8" height="49.70464611764709" fill="#26a69a"/><line x1="476" y1="465.80846635294137" x2="476" y2="507.54161270588156" stroke="#26a69a" stroke-width="2"/><rect x="472" y="472.84214258823556" width="8" height="29.07252894117522" fill="#26a69a"/><line x1="488" y1="457.3680545882352" x2="488" y2="486.44058352941045" stroke="#ef5350" stroke-width="2"/><rect x="484" y="472.3732305882362" width="8" height="13.598440941174943" fill="#ef5350"/><line x1="500" y1="440.9561430588222" x2="500" y2="496.7566418823534" stroke="#26a69a" stroke-width="2"/><rect x="496" y="462.5260837647067" width="8" height="23.44558776470444" fill="#26a69a"/><line x1="512" y1="428.29552564705995" x2="512" y2="466.74628988235406" stroke="#26a69a" stroke-width="2"/><rect x="508" y="436.2670254117641" width="8" height="26.25905835294259" fill="#26a69a"/><line x1="524" y1="416.1038202352944" x2="524" y2="440.9561430588222" stroke="#26a69a" stroke-width="2"/><rect x="520" y="429.23334917647" width="8" height="7.26813223529507" fill="#26a69a"/><line x1="536" y1="423.8408640000002" x2="536" y2="453.61676047058717" stroke="#ef5350" stroke-width="2"/><rect x="532" y="432.04681976470533" width="8" height="13.129529411764281" fill="#ef5350"/><line x1="548" y1="440.9561430588222" x2="548" y2="469.5597604705894" stroke="#ef5350" stroke-width="2"/><rect x="544" y="445.1763491764696" width="8" height="4.220205647058776" fill="#ef5350"/><line x1="560" y1="439.54940799999883" x2="560" y2="455.49240752941256" stroke="#26a69a" stroke-width="2"/><rect x="556" y="443.30070211764695" width="8" height="4.689117176469438" fill="#26a69a"/><line x1="572" y1="402.5053792941168" x2="572" y2="441.89396658823495" stroke="#26a69a" stroke-width="2"/><rect x="568" y="420.32402588235317" width="8" height="21.569940705881777" fill="#26a69a"/><line x1="584" y1="418.91729082352975" x2="584" y2="450.3343783529411" stroke="#ef5350" stroke-width="2"/><rect x="580" y="418.91729082352975" width="8" height="12.19170541176561" fill="#ef5350"/><line x1="596" y1="422.19967294117583" x2="596" y2="450.8032898823518" stroke="#ef5350" stroke-width="2"/><rect x="592" y="430.17117270588267" width="8" height="18.756470117646415" fill="#ef5350"/><line x1="608" y1="425.4820550588246" x2="608" y2="447.05199576470636" stroke="#26a69a" stroke-width="2"/><rect x="604" y="431.10899623529536" width="8" height="14.536264470587582" fill="#26a69a"/><line x1="620" y1="431.10899623529536" x2="620" y2="485.5027600000005" stroke="#ef5350" stroke-width="2"/><rect x="616" y="433.45355529411734" width="8" height="39.388587294118224" fill="#ef5350"/><line x1="632" y1="439.54940799999883" x2="632" y2="483.62711294117776" stroke="#26a69a" stroke-width="2"/><rect x="628" y="439.54940799999883" width="8" height="33.292734588236726" fill="#26a69a"/><line x1="644" y1="420.7929378823525" x2="644" y2="441.4250550588242" stroke="#26a69a" stroke-width="2"/><rect x="640" y="432.04681976470533" width="8" height="7.033676235294195" fill="#26a69a"/><line x1="656" y1="408.1323204705875" x2="656" y2="452.21002541176375" stroke="#ef5350" stroke-width="2"/><rect x="652" y="431.5779082352947" width="8" height="19.694293647059055" fill="#ef5350"/><line x1="668" y1="436.2670254117641" x2="668" y2="460.18152517647064" stroke="#26a69a" stroke-width="2"/><rect x="664" y="443.30070211764695" width="8" height="8.440411294117496" fill="#26a69a"/><line x1="680" y1="434.39137835294144" x2="680" y2="467.2152014117648" stroke="#ef5350" stroke-width="2"/><rect x="676" y="443.30070211764695" width="8" height="9.8471468235295" fill="#ef5350"/><line x1="692" y1="432.98464329411803" x2="692" y2="467.2152014117648" stroke="#26a69a" stroke-width="2"/><rect x="688" y="436.7359374117634" width="8" height="15.005176000001029" fill="#26a69a"/><line x1="704" y1="407.6634084705882" x2="704" y2="445.1763491764696" stroke="#26a69a" stroke-width="2"/><rect x="700" y="408.1323204705875" width="8" height="28.603616941175915" fill="#26a69a"/><line x1="716" y1="409.07014352941155" x2="716" y2="426.4198785882346" stroke="#ef5350" stroke-width="2"/><rect x="712" y="409.07014352941155" width="8" height="7.03367670588284" fill="#ef5350"/><line x1="728" y1="391.2514969411752" x2="728" y2="419.3862023529404" stroke="#26a69a" stroke-width="2"/><rect x="724" y="412.3525261176463" width="8" height="5.62694117647078" fill="#26a69a"/><line x1="740" y1="386.0934677647064" x2="740" y2="420.7929378823525" stroke="#26a69a" stroke-width="2"/><rect x="736" y="402.0364672941175" width="8" height="8.440411764706084" fill="#26a69a"/><line x1="752" y1="398.75408517647134" x2="752" y2="417.04164376470703" stroke="#ef5350" stroke-width="2"/><rect x="748" y="403.4432028235294" width="8" height="2" fill="#ef5350"/><line x1="764" y1="387.5002028235298" x2="764" y2="421.7307609411765" stroke="#ef5350" stroke-width="2"/><rect x="760" y="402.5053792941168" width="8" height="2" fill="#ef5350"/><line x1="776" y1="397.8162616470587" x2="776" y2="419.3862023529404" stroke="#26a69a" stroke-width="2"/><rect x="772" y="402.5053792941168" width="8" height="2" fill="#26a69a"/><line x1="788" y1="388.43802635294253" x2="788" y2="402.0364672941175" stroke="#26a69a" stroke-width="2"/><rect x="784" y="396.40952611764664" width="8" height="4.689117647058083" fill="#26a69a"/><line x1="800" y1="368.7437327058834" x2="800" y2="399.22299670588205" stroke="#26a69a" stroke-width="2"/><rect x="796" y="376.7152324705876" width="8" height="18.053102588234708" fill="#26a69a"/><line x1="812" y1="361.2411444705873" x2="812" y2="377.18414447058956" stroke="#26a69a" stroke-width="2"/><rect x="808" y="364.05461505882266" width="8" height="12.191705882354256" fill="#26a69a"/><line x1="824" y1="358.89658588235386" x2="824" y2="380.46652658823564" stroke="#ef5350" stroke-width="2"/><rect x="820" y="362.6478799999993" width="8" height="11.722793882354836" fill="#ef5350"/><line x1="836" y1="358.89658588235386" x2="836" y2="381.40435011764833" stroke="#26a69a" stroke-width="2"/><rect x="832" y="363.11679152941264" width="8" height="6.0958531764700865" fill="#26a69a"/><line x1="848" y1="347.64270352941236" x2="848" y2="366.868085647058" stroke="#ef5350" stroke-width="2"/><rect x="844" y="362.17896799999994" width="8" height="2" fill="#ef5350"/><line x1="860" y1="360.7722329411765" x2="860" y2="385.1556442352937" stroke="#ef5350" stroke-width="2"/><rect x="856" y="361.2411444705873" width="8" height="23.91449976470642" fill="#ef5350"/><line x1="872" y1="383.279997176471" x2="872" y2="427.35770211764725" stroke="#ef5350" stroke-width="2"/><rect x="868" y="385.6245557647071" width="8" height="40.32641129411678" fill="#ef5350"/><line x1="884" y1="411.88361411764697" x2="884" y2="432.98464329411803" stroke="#ef5350" stroke-width="2"/><rect x="880" y="424.07532000000117" width="8" height="5.626941176468165" fill="#ef5350"/><line x1="896" y1="424.54423152941195" x2="896" y2="467.6841134117641" stroke="#ef5350" stroke-width="2"/><rect x="892" y="427.8266141176466" width="8" height="14.067352470588332" fill="#ef5350"/><line x1="908" y1="404.84993788235283" x2="908" y2="444.2385256470596" stroke="#26a69a" stroke-width="2"/><rect x="904" y="411.88361411764697" width="8" height="31.41708799999998" fill="#26a69a"/><line x1="920" y1="393.5960559999999" x2="920" y2="427.35770211764725" stroke="#ef5350" stroke-width="2"/><rect x="916" y="416.57273176470505" width="8" height="7.033676235294195" fill="#ef5350"/><line x1="932" y1="407.6634084705882" x2="932" y2="447.05199576470636" stroke="#ef5350" stroke-width="2"/><rect x="928" y="421.7307609411765" width="8" height="21.569941176470422" fill="#ef5350"/><line x1="944" y1="421.2618494117658" x2="944" y2="449.3965548235284" stroke="#26a69a" stroke-width="2"/><rect x="940" y="430.640084705882" width="8" height="15.005176000000972" fill="#26a69a"/><line x1="956" y1="395.940614588236" x2="956" y2="441.89396658823495" stroke="#26a69a" stroke-width="2"/><rect x="952" y="401.5675557647067" width="8" height="31.417087529411333" fill="#26a69a"/><line x1="968" y1="379.0597915294122" x2="968" y2="405.31884988235214" stroke="#26a69a" stroke-width="2"/><rect x="964" y="385.1556442352937" width="8" height="17.349735058823057" fill="#26a69a"/><line x1="980" y1="352.33182117647044" x2="980" y2="389.3758498823525" stroke="#26a69a" stroke-width="2"/><rect x="976" y="355.6142037647051" width="8" height="29.072528470589305" fill="#26a69a"/><line x1="992" y1="333.10643905882466" x2="992" y2="386.0934677647064" stroke="#26a69a" stroke-width="2"/><rect x="988" y="340.60902729411816" width="8" height="9.847146823529556" fill="#26a69a"/><line x1="1004" y1="334.0442625882347" x2="1004" y2="360.7722329411765" stroke="#ef5350" stroke-width="2"/><rect x="1000" y="342.48467435294083" width="8" height="11.253882352941616" fill="#ef5350"/><line x1="1016" y1="333.575351058824" x2="1016" y2="415.16599670588164" stroke="#26a69a" stroke-width="2"/><rect x="1012" y="334.98208611764744" width="8" height="29.5414409411772" fill="#26a69a"/><line x1="1028" y1="298.8758809411753" x2="1028" y2="333.10643905882466" stroke="#26a69a" stroke-width="2"/><rect x="1024" y="323.72820423529447" width="8" height="8.440411764706141" fill="#26a69a"/><line x1="1040" y1="294.1867637647058" x2="1040" y2="376.7152324705876" stroke="#ef5350" stroke-width="2"/><rect x="1036" y="322.32146870588247" width="8" height="49.23573458823637" fill="#ef5350"/><line x1="1052" y1="332.1686160000006" x2="1052" y2="403.91211435294014" stroke="#ef5350" stroke-width="2"/><rect x="1048" y="368.7437327058834" width="8" height="24.852323294116502" fill="#ef5350"/><line x1="1064" y1="368.7437327058834" x2="1064" y2="437.6737609411761" stroke="#ef5350" stroke-width="2"/><rect x="1060" y="393.1271440000006" width="8" height="23.91449976470642" fill="#ef5350"/><line x1="1076" y1="384.6867322352944" x2="1076" y2="419.8551143529424" stroke="#26a69a" stroke-width="2"/><rect x="1072" y="411.88361411764697" width="8" height="4.220206117647422" fill="#26a69a"/><line x1="1088" y1="317.632351529413" x2="1088" y2="414.22817317647167" stroke="#26a69a" stroke-width="2"/><rect x="1084" y="363.58570352941194" width="8" height="42.20205788235353" fill="#26a69a"/><line x1="1100" y1="271.6789990588228" x2="1100" y2="367.33699764706006" stroke="#26a69a" stroke-width="2"/><rect x="1096" y="279.6504992941183" width="8" height="82.05955717647095" fill="#26a69a"/><line x1="1112" y1="248.23341129411824" x2="1112" y2="293.24894023529316" stroke="#26a69a" stroke-width="2"/><rect x="1108" y="261.3629407058826" width="8" height="17.349735058822944" fill="#26a69a"/><line x1="1124" y1="258.0805581176478" x2="1124" y2="304.9717341176481" stroke="#ef5350" stroke-width="2"/><rect x="1120" y="262.7696757647059" width="8" height="36.106205176469416" fill="#ef5350"/><line x1="1136" y1="290.6699251764701" x2="1136" y2="417.97946729411706" stroke="#ef5350" stroke-width="2"/><rect x="1132" y="297.93805741176527" width="8" height="72.21241082353015" fill="#ef5350"/><line x1="1148" y1="366.868085647058" x2="1148" y2="431.5779082352947" stroke="#ef5350" stroke-width="2"/><rect x="1144" y="366.868085647058" width="8" height="32.823823058823336" fill="#ef5350"/><line x1="1160" y1="356.08311529411844" x2="1160" y2="438.61158447058887" stroke="#26a69a" stroke-width="2"/><rect x="1156" y="369.2126447058827" width="8" height="27.4313374117649" fill="#26a69a"/><line x1="1172" y1="327.4794983529398" x2="1172" y2="378.5908795294129" stroke="#26a69a" stroke-width="2"/><rect x="1168" y="331.23079247058797" width="8" height="36.57511670588275" fill="#26a69a"/><line x1="1184" y1="297.469145882352" x2="1184" y2="338.2644687058821" stroke="#26a69a" stroke-width="2"/><rect x="1180" y="298.8758809411753" width="8" height="31.88599952941331" fill="#26a69a"/><line x1="1196" y1="295.5934988235292" x2="1196" y2="326.5416748235299" stroke="#ef5350" stroke-width="2"/><rect x="1192" y="301.6893515294107" width="8" height="2" fill="#ef5350"/><line x1="1208" y1="298.8758809411753" x2="1208" y2="336.8577331764701" stroke="#ef5350" stroke-width="2"/><rect x="1204" y="303.0960870588227" width="8" height="15.005176000000915" fill="#ef5350"/><line x1="1220" y1="312.4743218823529" x2="1220" y2="371.55720329411884" stroke="#ef5350" stroke-width="2"/><rect x="1216" y="316.69452800000033" width="8" height="7.971499764706891" fill="#ef5350"/><line x1="1232" y1="304.502822117646" x2="1232" y2="352.8007331764697" stroke="#26a69a" stroke-width="2"/><rect x="1228" y="310.59867482353025" width="8" height="12.660617411764974" fill="#26a69a"/><line x1="1244" y1="296.53132235294186" x2="1244" y2="321.3836451764698" stroke="#26a69a" stroke-width="2"/><rect x="1240" y="305.909557647058" width="8" height="3.282382117648808" fill="#26a69a"/><line x1="1256" y1="279.1815872941189" x2="1256" y2="312.9432338823523" stroke="#26a69a" stroke-width="2"/><rect x="1252" y="282.4639698823536" width="8" height="23.44558776470444" fill="#26a69a"/><line x1="1268" y1="272.61682258823544" x2="1268" y2="326.5416748235299" stroke="#ef5350" stroke-width="2"/><rect x="1264" y="282.4639698823536" width="8" height="8.909323294116916" fill="#ef5350"/><line x1="1280" y1="260.4251171764698" x2="1280" y2="293.24894023529316" stroke="#26a69a" stroke-width="2"/><rect x="1276" y="270.74117552941277" width="8" height="22.03885270588114" fill="#26a69a"/><line x1="1292" y1="267.693249411765" x2="1292" y2="313.8810574117649" stroke="#ef5350" stroke-width="2"/><rect x="1288" y="269.8033524705886" width="8" height="40.79532235294164" fill="#ef5350"/><line x1="1304" y1="287.6219990588223" x2="1304" y2="318.570175058823" stroke="#26a69a" stroke-width="2"/><rect x="1300" y="297.93805741176527" width="8" height="13.129529411764338" fill="#26a69a"/><line x1="1316" y1="297.00023388235263" x2="1316" y2="346.23596847058894" stroke="#ef5350" stroke-width="2"/><rect x="1312" y="297.00023388235263" width="8" height="25.790146823529085" fill="#ef5350"/><line x1="1328" y1="288.5598225882351" x2="1328" y2="349.04943905882436" stroke="#ef5350" stroke-width="2"/><rect x="1324" y="321.3836451764698" width="8" height="22.0388527058837" fill="#ef5350"/><line x1="1340" y1="316.69452800000033" x2="1340" y2="353.26964470588314" stroke="#26a69a" stroke-width="2"/><rect x="1336" y="317.632351529413" width="8" height="23.914499294115217" fill="#26a69a"/><line x1="1352" y1="287.1530870588231" x2="1352" y2="318.10126305882363" stroke="#26a69a" stroke-width="2"/><rect x="1348" y="291.3732931764705" width="8" height="26.727969882353136" fill="#26a69a"/><line x1="1364" y1="280.11941082352894" x2="1364" y2="305.4406456470588" stroke="#ef5350" stroke-width="2"/><rect x="1360" y="291.3732931764705" width="8" height="2.8134705882353046" fill="#ef5350"/><line x1="1376" y1="282.4639698823536" x2="1376" y2="303.5649985882361" stroke="#26a69a" stroke-width="2"/><rect x="1372" y="293.24894023529316" width="8" height="2.3445585882360547" fill="#26a69a"/><line x1="1388" y1="279.1815872941189" x2="1388" y2="308.72302776470485" stroke="#26a69a" stroke-width="2"/><rect x="1384" y="287.1530870588231" width="8" height="5.626941176470837" fill="#26a69a"/><line x1="1400" y1="272.1479110588248" x2="1400" y2="295.12458682352985" stroke="#26a69a" stroke-width="2"/><rect x="1396" y="274.02355811764744" width="8" height="12.19170541176561" fill="#26a69a"/><line x1="1412" y1="259.0183816470578" x2="1412" y2="285.2774400000004" stroke="#26a69a" stroke-width="2"/><rect x="1408" y="265.1142348235305" width="8" height="9.378234823527691" fill="#26a69a"/><line x1="1424" y1="227.6012941176465" x2="1424" y2="269.8033524705886" stroke="#26a69a" stroke-width="2"/><rect x="1420" y="229.24248517647095" width="8" height="36.34066117647035" fill="#26a69a"/><line x1="1436" y1="219.62979435294233" x2="1436" y2="236.97952941176538" stroke="#26a69a" stroke-width="2"/><rect x="1432" y="226.66347058823646" width="8" height="2.8134705882354183" fill="#26a69a"/><line x1="1448" y1="211.18938258823619" x2="1448" y2="237.9173529411753" stroke="#26a69a" stroke-width="2"/><rect x="1444" y="213.06502964705885" width="8" height="12.660617411764974" fill="#26a69a"/><line x1="1460" y1="198.99767717647057" x2="1460" y2="217.28523576470627" stroke="#26a69a" stroke-width="2"/><rect x="1456" y="200.87332423529324" width="8" height="11.253881882352971" fill="#26a69a"/><line x1="1472" y1="178.36555999999882" x2="1472" y2="202.28005929411665" stroke="#26a69a" stroke-width="2"/><rect x="1468" y="181.17903058823424" width="8" height="18.287558117646995" fill="#26a69a"/><line x1="1484" y1="182.1168536470583" x2="1484" y2="233.2282352941172" stroke="#ef5350" stroke-width="2"/><rect x="1480" y="182.1168536470583" width="8" height="23.91449976470642" fill="#ef5350"/><line x1="1496" y1="182.1168536470583" x2="1496" y2="221.5054414117651" stroke="#26a69a" stroke-width="2"/><rect x="1492" y="183.05467717647093" width="8" height="22.50776470588312" fill="#26a69a"/><line x1="1508" y1="174.61426588235338" x2="1508" y2="191.49508894117707" stroke="#26a69a" stroke-width="2"/><rect x="1504" y="176.7243684705885" width="8" height="6.33030870588243" fill="#26a69a"/><line x1="1520" y1="158.20235435294046" x2="1520" y2="189.6194418823518" stroke="#26a69a" stroke-width="2"/><rect x="1516" y="168.51841317646927" width="8" height="8.440411294120167" fill="#26a69a"/><line x1="1532" y1="143.6660898823527" x2="1532" y2="170.39405976470596" stroke="#26a69a" stroke-width="2"/><rect x="1528" y="147.41738400000088" width="8" height="21.101029176468387" fill="#26a69a"/><line x1="1544" y1="130.53656094117719" x2="1544" y2="147.88629552941154" stroke="#26a69a" stroke-width="2"/><rect x="1540" y="130.53656094117719" width="8" height="17.349734588234355" fill="#26a69a"/><line x1="1556" y1="116.00029647058955" x2="1556" y2="147.88629552941154" stroke="#26a69a" stroke-width="2"/><rect x="1552" y="116.46920800000021" width="8" height="15.005176000001029" fill="#26a69a"/><line x1="1568" y1="91.14797317647037" x2="1568" y2="116.93811999999957" stroke="#26a69a" stroke-width="2"/><rect x="1564" y="100.99511999999993" width="8" height="14.067352941176864" fill="#26a69a"/><line x1="1580" y1="78.01844423529474" x2="1580" y2="106.15314964705999" stroke="#26a69a" stroke-width="2"/><rect x="1576" y="85.9899439999989" width="8" height="15.005176000001029" fill="#26a69a"/><line x1="1592" y1="83.64538494117687" x2="1592" y2="127.25417835294252" stroke="#ef5350" stroke-width="2"/><rect x="1588" y="85.52103199999954" width="8" height="26.727970352941952" fill="#ef5350"/><line x1="1604" y1="104.2775025882346" x2="1604" y2="203.2178828235294" stroke="#ef5350" stroke-width="2"/><rect x="1600" y="111.78009035294212" width="8" height="83.93520423529378" fill="#ef5350"/><line x1="1616" y1="150.2308545882363" x2="1616" y2="219.16088282352894" stroke="#26a69a" stroke-width="2"/><rect x="1612" y="181.64794211764752" width="8" height="11.25388235294156" fill="#26a69a"/><line x1="1628" y1="182.58576564705754" x2="1628" y2="244.48211764705889" stroke="#ef5350" stroke-width="2"/><rect x="1624" y="183.05467717647093" width="8" height="26.72797035294184" fill="#ef5350"/><line x1="1640" y1="202.28005929411665" x2="1640" y2="263.70749929411863" stroke="#ef5350" stroke-width="2"/><rect x="1636" y="209.78264752941277" width="8" height="41.26423435294089" fill="#ef5350"/><line x1="1652" y1="219.16088282352894" x2="1652" y2="281.52614635294094" stroke="#26a69a" stroke-width="2"/><rect x="1648" y="221.97435294117577" width="8" height="28.134705411765253" fill="#26a69a"/><line x1="1664" y1="186.3370597647056" x2="1664" y2="236.97952941176538" stroke="#26a69a" stroke-width="2"/><rect x="1660" y="199.46658870588124" width="8" height="23.914499764706534" fill="#26a69a"/><line x1="1676" y1="174.14535388235413" x2="1676" y2="206.96917694117735" stroke="#26a69a" stroke-width="2"/><rect x="1672" y="178.8344715294122" width="8" height="19.22538211764561" fill="#26a69a"/><line x1="1688" y1="168.51841317646927" x2="1688" y2="199.93550070588321" stroke="#ef5350" stroke-width="2"/><rect x="1684" y="179.30338352941146" width="8" height="15.942999529411054" fill="#ef5350"/><line x1="1700" y1="164.76711905882382" x2="1700" y2="200.87332423529324" stroke="#26a69a" stroke-width="2"/><rect x="1696" y="170.39405976470596" width="8" height="18.75647058823506" fill="#26a69a"/><line x1="1712" y1="139.91479576470476" x2="1712" y2="183.99250070588357" stroke="#26a69a" stroke-width="2"/><rect x="1708" y="146.9484719999989" width="8" height="25.321234823529835" fill="#26a69a"/><line x1="1724" y1="139.91479576470476" x2="1724" y2="171.3318832941187" stroke="#ef5350" stroke-width="2"/><rect x="1720" y="146.47956047058813" width="8" height="8.440411764706255" fill="#ef5350"/><line x1="1736" y1="140.8526192941174" x2="1736" y2="161.01582494117577" stroke="#26a69a" stroke-width="2"/><rect x="1732" y="145.07282494117612" width="8" height="8.909323764705505" fill="#26a69a"/><line x1="1748" y1="122.09614917647093" x2="1748" y2="149.7619425882342" stroke="#26a69a" stroke-width="2"/><rect x="1744" y="130.0676489411751" width="8" height="19.694293647059112" fill="#26a69a"/><line x1="1760" y1="108.96661976470682" x2="1760" y2="124.90961976470635" stroke="#26a69a" stroke-width="2"/><rect x="1756" y="116.46920800000021" width="8" height="7.971499764706891" fill="#26a69a"/><line x1="1772" y1="108.49770823529332" x2="1772" y2="125.84744329411637" stroke="#26a69a" stroke-width="2"/><rect x="1768" y="114.12464941176415" width="8" height="2" fill="#26a69a"/><line x1="1784" y1="112.71791388235215" x2="1784" y2="163.82929552941118" stroke="#26a69a" stroke-width="2"/><rect x="1780" y="113.18682588235413" width="8" height="2" fill="#26a69a"/><line x1="1796" y1="112.71791388235215" x2="1796" y2="148.8241190588243" stroke="#ef5350" stroke-width="2"/><rect x="1792" y="112.71791388235215" width="8" height="28.603617411764617" fill="#ef5350"/><line x1="1808" y1="110.37335529411871" x2="1808" y2="147.88629552941154" stroke="#26a69a" stroke-width="2"/><rect x="1804" y="116.93811999999957" width="8" height="24.383411294117195" fill="#26a69a"/><line x1="1820" y1="110.37335529411871" x2="1820" y2="134.7567665882359" stroke="#ef5350" stroke-width="2"/><rect x="1816" y="115.53138447058757" width="8" height="10.550514352941263" fill="#ef5350"/><line x1="1832" y1="121.15832564705829" x2="1832" y2="156.79561882352834" stroke="#ef5350" stroke-width="2"/><rect x="1828" y="126.08189882352883" width="8" height="16.177456000000575" fill="#ef5350"/><line x1="1844" y1="127.25417835294252" x2="1844" y2="161.9536484705884" stroke="#ef5350" stroke-width="2"/><rect x="1840" y="142.72826635294007" width="8" height="5.626941176470723" fill="#ef5350"/><line x1="1856" y1="122.09614917647093" x2="1856" y2="152.57541317646962" stroke="#26a69a" stroke-width="2"/><rect x="1852" y="125.84744329411637" width="8" height="21.569940705884505" fill="#26a69a"/><line x1="1868" y1="125.84744329411637" x2="1868" y2="159.60908941176376" stroke="#ef5350" stroke-width="2"/><rect x="1864" y="126.78526682352901" width="8" height="25.79014635294061" fill="#ef5350"/><line x1="1880" y1="149.29303105882354" x2="1880" y2="183.05467717647093" stroke="#ef5350" stroke-width="2"/><rect x="1876" y="160.54691294117652" width="8" height="2" fill="#ef5350"/><line x1="1892" y1="150.2308545882363" x2="1892" y2="184.46141270588294" stroke="#ef5350" stroke-width="2"/><rect x="1888" y="163.36038352941182" width="8" height="16.880823529412282" fill="#ef5350"/><line x1="1904" y1="157.7334423529411" x2="1904" y2="199.46658870588124" stroke="#26a69a" stroke-width="2"/><rect x="1900" y="162.42255999999918" width="8" height="19.694293647059112" fill="#26a69a"/><line x1="1916" y1="157.7334423529411" x2="1916" y2="186.80597129411638" stroke="#ef5350" stroke-width="2"/><rect x="1912" y="163.36038352941182" width="8" height="4.220206117647422" fill="#ef5350"/><line x1="1928" y1="94.89926729411843" x2="1928" y2="167.11167764706" stroke="#26a69a" stroke-width="2"/><rect x="1924" y="105.68423764705801" width="8" height="53.45594023529509" fill="#26a69a"/><line x1="1940" y1="87.39667905882231" x2="1940" y2="123.50288423529435" stroke="#ef5350" stroke-width="2"/><rect x="1936" y="101.46403199999918" width="8" height="2" fill="#ef5350"/><rect x="75" y="967.2473949539293" width="10" height="52.7526050460707" fill="#26a69a" opacity="0.9"/><rect x="87" y="972.6908558058758" width="10" height="47.3091441941242" fill="#26a69a" opacity="0.9"/><rect x="99" y="984.7057262771962" width="10" height="35.29427372280384" fill="#26a69a" opacity="0.9"/><rect x="111" y="959.4874330647884" width="10" height="60.51256693521157" fill="#26a69a" opacity="0.9"/><rect x="123" y="988.0877635197066" width="10" height="31.91223648029336" fill="#26a69a" opacity="0.9"/><rect x="135" y="968.9542428481838" width="10" height="51.04575715181625" fill="#26a69a" opacity="0.9"/><rect x="147" y="969.6398765015197" width="10" height="50.360123498480334" fill="#26a69a" opacity="0.9"/><rect x="159" y="970.1106843070095" width="10" height="49.88931569299052" fill="#26a69a" opacity="0.9"/><rect x="171" y="981.7103755608085" width="10" height="38.28962443919147" fill="#ef5350" opacity="0.9"/><rect x="183" y="984.815174393362" width="10" height="35.184825606638015" fill="#26a69a" opacity="0.9"/><rect x="195" y="982.0188202518211" width="10" height="37.981179748178874" fill="#26a69a" opacity="0.9"/><rect x="207" y="988.0859544599354" width="10" height="31.91404554006465" fill="#26a69a" opacity="0.9"/><rect x="219" y="988.9986251145738" width="10" height="31.00137488542623" fill="#26a69a" opacity="0.9"/><rect x="231" y="969.3965579622751" width="10" height="50.6034420377249" fill="#ef5350" opacity="0.9"/><rect x="243" y="970.9722490231077" width="10" height="49.02775097689232" fill="#ef5350" opacity="0.9"/><rect x="255" y="979.1460333349414" width="10" height="40.85396666505858" fill="#26a69a" opacity="0.9"/><rect x="267" y="992.3110135558879" width="10" height="27.68898644411206" fill="#26a69a" opacity="0.9"/><rect x="279" y="995.4908883689517" width="10" height="24.509111631048313" fill="#26a69a" opacity="0.9"/><rect x="291" y="988.2035433450721" width="10" height="31.79645665492785" fill="#26a69a" opacity="0.9"/><rect x="303" y="988.87832263978" width="10" height="31.12167736022002" fill="#26a69a" opacity="0.9"/><rect x="315" y="984.8337172560182" width="10" height="35.16628274398181" fill="#26a69a" opacity="0.9"/><rect x="327" y="995.6695330213711" width="10" height="24.33046697862892" fill="#ef5350" opacity="0.9"/><rect x="339" y="994.2534914853587" width="10" height="25.746508514641278" fill="#ef5350" opacity="0.9"/><rect x="351" y="995.5704869988905" width="10" height="24.429513001109513" fill="#ef5350" opacity="0.9"/><rect x="363" y="992.9482548603406" width="10" height="27.051745139659374" fill="#26a69a" opacity="0.9"/><rect x="375" y="983.6578284046504" width="10" height="36.342171595349555" fill="#26a69a" opacity="0.9"/><rect x="387" y="998.9050364224034" width="10" height="21.09496357759656" fill="#ef5350" opacity="0.9"/><rect x="399" y="996.7477326450866" width="10" height="23.252267354913442" fill="#26a69a" opacity="0.9"/><rect x="411" y="993.0866479328477" width="10" height="26.913352067152346" fill="#26a69a" opacity="0.9"/><rect x="423" y="992.2431738144628" width="10" height="27.756826185537193" fill="#ef5350" opacity="0.9"/><rect x="435" y="1000.0813775387139" width="10" height="19.918622461286077" fill="#26a69a" opacity="0.9"/><rect x="447" y="998.9077500120604" width="10" height="21.092249987939567" fill="#ef5350" opacity="0.9"/><rect x="459" y="1003.0007477447054" width="10" height="16.99925225529455" fill="#26a69a" opacity="0.9"/><rect x="471" y="985.8988011963916" width="10" height="34.10119880360844" fill="#26a69a" opacity="0.9"/><rect x="483" y="989.3450600607844" width="10" height="30.654939939215637" fill="#ef5350" opacity="0.9"/><rect x="495" y="946.6394905687685" width="10" height="73.36050943123155" fill="#26a69a" opacity="0.9"/><rect x="507" y="984.034565102031" width="10" height="35.965434897968976" fill="#26a69a" opacity="0.9"/><rect x="519" y="987.7815801534083" width="10" height="32.2184198465917" fill="#26a69a" opacity="0.9"/><rect x="531" y="993.7917289787255" width="10" height="26.208271021274527" fill="#ef5350" opacity="0.9"/><rect x="543" y="996.3990363741618" width="10" height="23.600963625838176" fill="#ef5350" opacity="0.9"/><rect x="555" y="999.8724311351247" width="10" height="20.127568864875343" fill="#26a69a" opacity="0.9"/><rect x="567" y="971.1626525640407" width="10" height="48.83734743595926" fill="#26a69a" opacity="0.9"/><rect x="579" y="992.4833264991075" width="10" height="27.516673500892466" fill="#ef5350" opacity="0.9"/><rect x="591" y="1001.1618384871437" width="10" height="18.838161512856345" fill="#ef5350" opacity="0.9"/><rect x="603" y="999.1976518404168" width="10" height="20.802348159583175" fill="#26a69a" opacity="0.9"/><rect x="615" y="987.6495187901008" width="10" height="32.35048120989916" fill="#ef5350" opacity="0.9"/><rect x="627" y="988.9099811857784" width="10" height="31.090018814221594" fill="#26a69a" opacity="0.9"/><rect x="639" y="992.1662887741811" width="10" height="27.833711225818888" fill="#26a69a" opacity="0.9"/><rect x="651" y="988.8719909305803" width="10" height="31.128009069419704" fill="#ef5350" opacity="0.9"/><rect x="663" y="995.9897366008973" width="10" height="24.010263399102655" fill="#26a69a" opacity="0.9"/><rect x="675" y="982.3711346422886" width="10" height="37.62886535771145" fill="#ef5350" opacity="0.9"/><rect x="687" y="991.8393012205123" width="10" height="28.16069877948769" fill="#26a69a" opacity="0.9"/><rect x="699" y="991.6276412272662" width="10" height="28.372358772733833" fill="#26a69a" opacity="0.9"/><rect x="711" y="999.5101669159149" width="10" height="20.48983308408515" fill="#ef5350" opacity="0.9"/><rect x="723" y="984.3620049206426" width="10" height="35.63799507935744" fill="#26a69a" opacity="0.9"/><rect x="735" y="979.0895002170872" width="10" height="40.91049978291278" fill="#26a69a" opacity="0.9"/><rect x="747" y="1000.3685657774133" width="10" height="19.631434222586677" fill="#ef5350" opacity="0.9"/><rect x="759" y="997.0964289160114" width="10" height="22.903571083988595" fill="#ef5350" opacity="0.9"/><rect x="771" y="1003.6208029813305" width="10" height="16.379197018669515" fill="#26a69a" opacity="0.9"/><rect x="783" y="997.9281441458826" width="10" height="22.071855854117416" fill="#26a69a" opacity="0.9"/><rect x="795" y="987.7648463505234" width="10" height="32.235153649476615" fill="#26a69a" opacity="0.9"/><rect x="807" y="998.7575980510396" width="10" height="21.242401948960378" fill="#26a69a" opacity="0.9"/><rect x="819" y="1001.500584929326" width="10" height="18.49941507067399" fill="#ef5350" opacity="0.9"/><rect x="831" y="1003.4928120025086" width="10" height="16.507187997491428" fill="#26a69a" opacity="0.9"/><rect x="843" y="990.2527558010516" width="10" height="29.74724419894835" fill="#ef5350" opacity="0.9"/><rect x="855" y="992.5109146606204" width="10" height="27.489085339379585" fill="#ef5350" opacity="0.9"/><rect x="867" y="971.3037592262049" width="10" height="48.696240773795125" fill="#ef5350" opacity="0.9"/><rect x="879" y="988.1840959525302" width="10" height="31.815904047469758" fill="#ef5350" opacity="0.9"/><rect x="891" y="972.4384919677746" width="10" height="47.56150803222545" fill="#ef5350" opacity="0.9"/><rect x="903" y="975.31218341454" width="10" height="44.68781658546004" fill="#26a69a" opacity="0.9"/><rect x="915" y="986.7205665975204" width="10" height="33.27943340247964" fill="#ef5350" opacity="0.9"/><rect x="927" y="995.735111438082" width="10" height="24.264888561918042" fill="#ef5350" opacity="0.9"/><rect x="939" y="999.2112197887018" width="10" height="20.788780211298217" fill="#26a69a" opacity="0.9"/><rect x="951" y="993.7383617154711" width="10" height="26.261638284528885" fill="#26a69a" opacity="0.9"/><rect x="963" y="988.2659559071832" width="10" height="31.734044092816816" fill="#26a69a" opacity="0.9"/><rect x="975" y="964.1710888127744" width="10" height="55.82891118722557" fill="#26a69a" opacity="0.9"/><rect x="987" y="939.9541101838005" width="10" height="80.04588981619952" fill="#26a69a" opacity="0.9"/><rect x="999" y="881.3251965844952" width="10" height="138.6748034155048" fill="#ef5350" opacity="0.9"/><rect x="1011" y="958.403353996816" width="10" height="61.59664600318399" fill="#26a69a" opacity="0.9"/><rect x="1023" y="960.1644736842105" width="10" height="59.83552631578948" fill="#26a69a" opacity="0.9"/><rect x="1035" y="965.9240677311979" width="10" height="54.07593226880215" fill="#ef5350" opacity="0.9"/><rect x="1047" y="985.4085459983598" width="10" height="34.59145400164016" fill="#ef5350" opacity="0.9"/><rect x="1059" y="960.7867902455497" width="10" height="59.213209754450304" fill="#ef5350" opacity="0.9"/><rect x="1071" y="994.8667627478412" width="10" height="25.13323725215878" fill="#26a69a" opacity="0.9"/><rect x="1083" y="951.5583240870278" width="10" height="68.44167591297219" fill="#26a69a" opacity="0.9"/><rect x="1095" y="978.5549230546577" width="10" height="41.445076945342294" fill="#26a69a" opacity="0.9"/><rect x="1107" y="986.6233296348112" width="10" height="33.37667036518883" fill="#26a69a" opacity="0.9"/><rect x="1119" y="983.9314486950649" width="10" height="36.06855130493511" fill="#ef5350" opacity="0.9"/><rect x="1131" y="960.2160318876936" width="10" height="59.78396811230641" fill="#ef5350" opacity="0.9"/><rect x="1143" y="981.5927866756717" width="10" height="38.40721332432827" fill="#ef5350" opacity="0.9"/><rect x="1155" y="994.3498239181822" width="10" height="25.65017608181779" fill="#26a69a" opacity="0.9"/><rect x="1167" y="997.6065837715278" width="10" height="22.393416228472233" fill="#26a69a" opacity="0.9"/><rect x="1179" y="996.1172753147764" width="10" height="23.882724685223593" fill="#26a69a" opacity="0.9"/><rect x="1191" y="1000.3409776159004" width="10" height="19.659022384099558" fill="#ef5350" opacity="0.9"/><rect x="1203" y="1002.5132061363307" width="10" height="17.486793863669277" fill="#ef5350" opacity="0.9"/><rect x="1215" y="999.3527787158088" width="10" height="20.647221284191232" fill="#ef5350" opacity="0.9"/><rect x="1227" y="1002.16993704472" width="10" height="17.830062955280027" fill="#26a69a" opacity="0.9"/><rect x="1239" y="1001.1048531043466" width="10" height="18.895146895653397" fill="#26a69a" opacity="0.9"/><rect x="1251" y="999.9013760914661" width="10" height="20.09862390853391" fill="#26a69a" opacity="0.9"/><rect x="1263" y="998.4392035312846" width="10" height="21.560796468715353" fill="#ef5350" opacity="0.9"/><rect x="1275" y="999.7173042597327" width="10" height="20.282695740267286" fill="#26a69a" opacity="0.9"/><rect x="1287" y="999.85253147764" width="10" height="20.147468522359986" fill="#ef5350" opacity="0.9"/><rect x="1299" y="1001.3906845482175" width="10" height="18.60931545178255" fill="#26a69a" opacity="0.9"/><rect x="1311" y="994.9554066766366" width="10" height="25.044593323363415" fill="#ef5350" opacity="0.9"/><rect x="1323" y="990.061447730233" width="10" height="29.938552269767" fill="#ef5350" opacity="0.9"/><rect x="1335" y="995.9368216025857" width="10" height="24.063178397414276" fill="#26a69a" opacity="0.9"/><rect x="1347" y="999.0158413333977" width="10" height="20.984158666602298" fill="#26a69a" opacity="0.9"/><rect x="1359" y="1001.5381229195813" width="10" height="18.46187708041873" fill="#ef5350" opacity="0.9"/><rect x="1371" y="999.2700142312702" width="10" height="20.72998576872976" fill="#26a69a" opacity="0.9"/><rect x="1383" y="1000.4445462878093" width="10" height="19.555453712190683" fill="#26a69a" opacity="0.9"/><rect x="1395" y="1000.9108314438708" width="10" height="19.089168556129152" fill="#26a69a" opacity="0.9"/><rect x="1407" y="1000.7579658931932" width="10" height="19.24203410680684" fill="#26a69a" opacity="0.9"/><rect x="1419" y="999.221621882387" width="10" height="20.778378117612988" fill="#26a69a" opacity="0.9"/><rect x="1431" y="995.6980257127695" width="10" height="24.30197428723045" fill="#26a69a" opacity="0.9"/><rect x="1443" y="994.6998769839355" width="10" height="25.300123016064504" fill="#26a69a" opacity="0.9"/><rect x="1455" y="988.660783202277" width="10" height="31.339216797722997" fill="#26a69a" opacity="0.9"/><rect x="1467" y="986.2411657581166" width="10" height="33.75883424188339" fill="#26a69a" opacity="0.9"/><rect x="1479" y="984.4483875247238" width="10" height="35.551612475276215" fill="#ef5350" opacity="0.9"/><rect x="1491" y="996.401297698876" width="10" height="23.598702301124035" fill="#26a69a" opacity="0.9"/><rect x="1503" y="991.5132181967292" width="10" height="28.486781803270787" fill="#26a69a" opacity="0.9"/><rect x="1515" y="985.0019598147522" width="10" height="34.99804018524776" fill="#26a69a" opacity="0.9"/><rect x="1527" y="978.8348750542718" width="10" height="41.16512494572817" fill="#26a69a" opacity="0.9"/><rect x="1539" y="988.2623377876405" width="10" height="31.73766221235951" fill="#26a69a" opacity="0.9"/><rect x="1551" y="993.3670521974046" width="10" height="26.632947802595368" fill="#26a69a" opacity="0.9"/><rect x="1563" y="980.4024253461334" width="10" height="39.59757465386656" fill="#26a69a" opacity="0.9"/><rect x="1575" y="990.9266305658739" width="10" height="29.073369434126107" fill="#26a69a" opacity="0.9"/><rect x="1587" y="966.3871870326595" width="10" height="53.61281296734046" fill="#ef5350" opacity="0.9"/><rect x="1599" y="937.4616780838439" width="10" height="82.53832191615606" fill="#ef5350" opacity="0.9"/><rect x="1611" y="965.7015533793236" width="10" height="54.29844662067637" fill="#26a69a" opacity="0.9"/><rect x="1623" y="984.9277883641275" width="10" height="35.07221163587246" fill="#ef5350" opacity="0.9"/><rect x="1635" y="990.806780356023" width="10" height="29.193219643977045" fill="#ef5350" opacity="0.9"/><rect x="1647" y="979.4386487529548" width="10" height="40.561351247045195" fill="#26a69a" opacity="0.9"/><rect x="1659" y="986.1258381976941" width="10" height="33.874161802305935" fill="#26a69a" opacity="0.9"/><rect x="1671" y="988.5368626079405" width="10" height="31.46313739205948" fill="#26a69a" opacity="0.9"/><rect x="1683" y="994.7591236914468" width="10" height="25.240876308553197" fill="#ef5350" opacity="0.9"/><rect x="1695" y="998.2736745622076" width="10" height="21.72632543779241" fill="#26a69a" opacity="0.9"/><rect x="1707" y="1002.2635558878866" width="10" height="17.736444112113418" fill="#26a69a" opacity="0.9"/><rect x="1719" y="996.1462202711177" width="10" height="23.853779728882273" fill="#ef5350" opacity="0.9"/><rect x="1731" y="1000.8339464035892" width="10" height="19.166053596410848" fill="#26a69a" opacity="0.9"/><rect x="1743" y="997.4066826667953" width="10" height="22.59331733320471" fill="#26a69a" opacity="0.9"/><rect x="1755" y="995.977073182498" width="10" height="24.022926817502025" fill="#26a69a" opacity="0.9"/><rect x="1767" y="996.3045130011095" width="10" height="23.695486998890487" fill="#26a69a" opacity="0.9"/><rect x="1779" y="989.5264183028607" width="10" height="30.473581697139252" fill="#26a69a" opacity="0.9"/><rect x="1791" y="998.2175937092961" width="10" height="21.782406290703875" fill="#ef5350" opacity="0.9"/><rect x="1803" y="996.5926057696946" width="10" height="23.407394230305385" fill="#26a69a" opacity="0.9"/><rect x="1815" y="990.4707475034975" width="10" height="29.529252496502522" fill="#ef5350" opacity="0.9"/><rect x="1827" y="991.9654831395629" width="10" height="28.034516860437066" fill="#ef5350" opacity="0.9"/><rect x="1839" y="998.0593009793043" width="10" height="21.94069902069566" fill="#ef5350" opacity="0.9"/><rect x="1851" y="1004.3471404795215" width="10" height="15.6528595204785" fill="#26a69a" opacity="0.9"/><rect x="1863" y="1000.5309288918905" width="10" height="19.46907110810946" fill="#ef5350" opacity="0.9"/><rect x="1875" y="986.2976988759708" width="10" height="33.70230112402919" fill="#ef5350" opacity="0.9"/><rect x="1887" y="996.3619506488494" width="10" height="23.638049351150585" fill="#ef5350" opacity="0.9"/><rect x="1899" y="981.4087148439385" width="10" height="38.59128515606153" fill="#26a69a" opacity="0.9"/><rect x="1911" y="987.6698707125283" width="10" height="32.330129287471664" fill="#ef5350" opacity="0.9"/><rect x="1923" y="954.2768886584013" width="10" height="65.72311134159872" fill="#26a69a" opacity="0.9"/><rect x="1935" y="860.0" width="10" height="160.0" fill="#ef5350" opacity="0.9"/><rect x="1004" y="353.73855670588244" width="12" height="10.784970352942196" fill="#ff2400" opacity="0.60"/><polyline points="320,617.2680798151251,332,607.6217887851137,344,600.6358643854101,356,595.7443304999636,368,589.5323264971654,380,583.4653592901545,392,579.8071872569167,404,574.175182913121,416,565.685531969016,428,562.6935367898943,440,559.4059361320353,452,558.8429864724009,464,553.4212421921171,476,545.7470422298443,488,540.0541497821825,500,532.6705244471856,512,523.4892388247665,524,514.5124874296898,536,507.9090456912876,548,502.3364275134073,560,496.7139774757149,572,489.4387439906335,584,483.88352991869664,596,480.55439781439475,608,475.8453119497196,620,475.5592958200556,632,472.1297826943341,644,468.31235765341586,656,466.6894856752178,668,464.4619824792592,680,463.38444595182466,692,460.84649275753156,704,455.82609539687036,716,452.04302157196037,728,448.26297438583634,740,443.8604499009109,752,440.1451630420016,764,436.64973825928905,776,433.3978945483202,788,429.87519279301847,800,424.8123394289771,812,419.02588948896397,824,414.7730118121431,836,409.85337178521524,848,405.357610662815,860,403.43361386019427,872,405.57812368863455,884,407.87566059223747,896,411.1154992585237,908,411.1886530546305,920,412.37129638276093,932,415.3169540717981,944,416.7762998464749,956,415.32784802916467,968,412.454304810701,980,407.04096185394087,992,400.71411094348093,1004,396.24024863513864,1016,390.40613791918776,1028,384.0558585207204,1040,382.86551040390106,1052,383.88746712734087,1064,387.04500775946894,1076,389.4105893173914,1088,386.9510763852037,1100,376.7319738051008,1112,365.74444684326994,1124,359.3760119954502,1136,360.4021506849596,1148,364.1440324012365,1160,364.62675738263147,1172,361.44618929576933,1184,355.48711230961567,1196,350.54214909805523,1208,347.4525409038426,1220,345.2823967953517,1232,341.9791851789876,1244,338.5439825568991,1256,333.20302896884584,1268,329.21924460766763,1280,323.6499046954524,1292,322.40693042193493,1304,320.07656156382404,1316,320.3350205297363,1328,322.5338278966507,1340,322.0670206235809,1352,319.1438084857616,1364,316.76694708375555,1376,314.52713690770963,1388,311.9200845411476,1400,308.3108915484338,1412,304.1969242412987,1424,297.0584062351222,1436,290.354126649706,1448,282.9932602685002,1460,275.1723139796227,1472,266.2205727042526,1484,260.48826610496747,1496,253.113638587967,1508,245.83847000536105,1520,238.47465506927733,1532,229.8025340150616,1544,220.3486318175478,1556,210.45535335873433,1568,200.03056922932956,1580,189.1695573027257,1592,181.8437901646522,1604,183.16488582404156,1616,183.02041499486336,1628,185.5691990457725,1640,191.80516883973132,1652,194.6784244684402,1664,195.1344401101029,1676,193.58206215003577,1688,193.7405689032537,1700,191.51709184243907,1712,187.27246138125395,1724,184.19127193878126,1736,180.4657055580559,1748,175.66589064216282,1760,170.0281113429088,1772,164.7039721113689,1784,159.79757723241482,1796,158.03795380971837,1808,154.12368392308053,1820,151.45303772312275,1832,150.57744887554315,1844,150.36580684257865,1856,148.0307245998681,1868,148.46355208335217,1880,149.79298140874823,1892,152.6928124230434,1904,153.61945504942014,1916,154.94908691586238,1928,150.2571965093091,1940,145.69954498741504" fill="none" stroke="#0090ff" stroke-width="2"/><line x1="80" y1="50" x2="80" y2="900" stroke="#666666" stroke-width="0.5" stroke-dasharray="4,4" opacity="0.90"/><line x1="152" y1="50" x2="152" y2="900" stroke="#666666" stroke-width="0.5" stroke-dasharray="4,4" opacity="0.90"/><line x1="224" y1="50" x2="224" y2="900" stroke="#666666" stroke-width="0.5" stroke-dasharray="4,4" opacity="0.90"/><line x1="296" y1="50" x2="296" y2="900" stroke="#666666" stroke-width="0.5" stroke-dasharray="4,4" opacity="0.90"/><line x1="368" y1="50" x2="368" y2="900" stroke="#666666" stroke-width="0.5" stroke-dasharray="4,4" opacity="0.90"/><line x1="440" y1="50" x2="440" y2="900" stroke="#666666" stroke-width="0.5" stroke-dasharray="4,4" opacity="0.90"/><line x1="512" y1="50" x2="512" y2="900" stroke="#666666" stroke-width="0.5" stroke-dasharray="4,4" opacity="0.90"/><line x1="584" y1="50" x2="584" y2="900" stroke="#666666" stroke-width="0.5" stroke-dasharray="4,4" opacity="0.90"/><line x1="656" y1="50" x2="656" y2="900" stroke="#666666" stroke-width="0.5" stroke-dasharray="4,4" opacity="0.90"/><line x1="728" y1="50" x2="728" y2="900" stroke="#666666" stroke-width="0.5" stroke-dasharray="4,4" opacity="0.90"/><line x1="800" y1="50" x2="800" y2="900" stroke="#666666" stroke-width="0.5" stroke-dasharray="4,4" opacity="0.90"/><line x1="872" y1="50" x2="872" y2="900" stroke="#666666" stroke-width="0.5" stroke-dasharray="4,4" opacity="0.90"/><line x1="944" y1="50" x2="944" y2="900" stroke="#666666" stroke-width="0.5" stroke-dasharray="4,4" opacity="0.90"/><line x1="1010" y1="30" x2="1010" y2="950" stroke="black" stroke-width="0.7"/><line x1="1016" y1="50" x2="1016" y2="900" stroke="#666666" stroke-width="0.5" stroke-dasharray="4,4" opacity="0.90"/><line x1="1088" y1="50" x2="1088" y2="900" stroke="#666666" stroke-width="0.5" stroke-dasharray="4,4" opacity="0.90"/><line x1="1160" y1="50" x2="1160" y2="900" stroke="#666666" stroke-width="0.5" stroke-dasharray="4,4" opacity="0.90"/><line x1="1232" y1="50" x2="1232" y2="900" stroke="#666666" stroke-width="0.5" stroke-dasharray="4,4" opacity="0.90"/><line x1="1304" y1="50" x2="1304" y2="900" stroke="#666666" stroke-width="0.5" stroke-dasharray="4,4" opacity="0.90"/><line x1="1376" y1="50" x2="1376" y2="900" stroke="#666666" stroke-width="0.5" stroke-dasharray="4,4" opacity="0.90"/><line x1="1448" y1="50" x2="1448" y2="900" stroke="#666666" stroke-width="0.5" stroke-dasharray="4,4" opacity="0.90"/><line x1="1520" y1="50" x2="1520" y2="900" stroke="#666666" stroke-width="0.5" stroke-dasharray="4,4" opacity="0.90"/><line x1="1592" y1="50" x2="1592" y2="900" stroke="#666666" stroke-width="0.5" stroke-dasharray="4,4" opacity="0.90"/><line x1="1664" y1="50" x2="1664" y2="900" stroke="#666666" stroke-width="0.5" stroke-dasharray="4,4" opacity="0.90"/><line x1="1736" y1="50" x2="1736" y2="900" stroke="#666666" stroke-width="0.5" stroke-dasharray="4,4" opacity="0.90"/><line x1="1808" y1="50" x2="1808" y2="900" stroke="#666666" stroke-width="0.5" stroke-dasharray="4,4" opacity="0.90"/><line x1="1880" y1="50" x2="1880" y2="900" stroke="#666666" stroke-width="0.5" stroke-dasharray="4,4" opacity="0.90"/><line x1="1946" y1="30" x2="1946" y2="950" stroke="black" stroke-width="0.7"/><text x="80" y="1040" text-anchor="middle" font-size="20" fill="black">09:30</text><text x="152" y="1040" text-anchor="middle" font-size="20" fill="black">10:00</text><text x="224" y="1040" text-anchor="middle" font-size="20" fill="black">10:30</text><text x="296" y="1040" text-anchor="middle" font-size="20" fill="black">11:00</text><text x="368" y="1040" text-anchor="middle" font-size="20" fill="black">11:30</text><text x="440" y="1040" text-anchor="middle" font-size="20" fill="black">12:00</text><text x="512" y="1040" text-anchor="middle" font-size="20" fill="black">12:30</text><text x="584" y="1040" text-anchor="middle" font-size="20" fill="black">13:00</text><text x="656" y="1040" text-anchor="middle" font-size="20" fill="black">13:30</text><text x="728" y="1040" text-anchor="middle" font-size="20" fill="black">14:00</text><text x="800" y="1040" text-anchor="middle" font-size="20" fill="black">14:30</text><text x="872" y="1040" text-anchor="middle" font-size="20" fill="black">15:00</text><text x="944" y="1040" text-anchor="middle" font-size="20" fill="black">15:30</text><text x="1016" y="1040" text-anchor="middle" font-size="20" fill="black">09:30</text><text x="1088" y="1040" text-anchor="middle" font-size="20" fill="black">10:00</text><text x="1160" y="1040" text-anchor="middle" font-size="20" fill="black">10:30</text><text x="1232" y="1040" text-anchor="middle" font-size="20" fill="black">11:00</text><text x="1304" y="1040" text-anchor="middle" font-size="20" fill="black">11:30</text><text x="1376" y="1040" text-anchor="middle" font-size="20" fill="black">12:00</text><text x="1448" y="1040" text-anchor="middle" font-size="20" fill="black">12:30</text><text x="1520" y="1040" text-anchor="middle" font-size="20" fill="black">13:00</text><text x="1592" y="1040" text-anchor="middle" font-size="20" fill="black">13:30</text><text x="1664" y="1040" text-anchor="middle" font-size="20" fill="black">14:00</text><text x="1736" y="1040" text-anchor="middle" font-size="20" fill="black">14:30</text><text x="1808" y="1040" text-anchor="middle" font-size="20" fill="black">15:00</text><text x="1880" y="1040" text-anchor="middle" font-size="20" fill="black">15:30</text><text x="1942" y="50" text-anchor="end" font-size="40" fill="#26a69a" font-weight="bold"> +1.20% (Fri)</text></svg>