<svg xmlns="http://www.w3.org/2000/svg" width="1992" height="1050"><rect width="100%" height="100%" fill="white"/><text x="42" y="854.0" text-anchor="end" font-size="20" fill="black">485</text><text x="42" y="817.6363636363636" text-anchor="end" font-size="20" fill="black">486</text><text x="42" y="781.2727272727273" text-anchor="end" font-size="20" fill="black">487</text><text x="42" y="744.9090909090909" text-anchor="end" font-size="20" fill="black">488</text><text x="42" y="708.5454545454545" text-anchor="end" font-size="20" fill="black">489</text><text x="42" y="672.1818181818182" text-anchor="end" font-size="20" fill="black">490</text><text x="42" y="635.8181818181819" text-anchor="end" font-size="20" fill="black">491</text><text x="42" y="599.4545454545455" text-anchor="end" font-size="20" fill="black">492</text><text x="42" y="563.090909090909" text-anchor="end" font-size="20" fill="black">493</text><text x="42" y="526.7272727272727" text-anchor="end" font-size="20" fill="black">494</text><text x="42" y="490.3636363636364" text-anchor="end" font-size="20" fill="black">495</text><text x="42" y="454.0" text-anchor="end" font-size="20" fill="black">496</text><text x="42" y="417.6363636363637" text-anchor="end" font-size="20" fill="black">497</text><text x="42" y="381.27272727272725" text-anchor="end" font-size="20" fill="black">498</text><text x="42" y="344.90909090909093" text-anchor="end" font-size="20" fill="black">499</text><text x="42" y="308.5454545454546" text-anchor="end" font-size="20" fill="black">500</text><text x="42" y="272.18181818181813" text-anchor="end" font-size="20" fill="black">501</text><text x="42" y="235.81818181818187" text-anchor="end" font-size="20" fill="black">502</text><text x="42" y="199.45454545454538" text-anchor="end" font-size="20" fill="black">503</text><text x="42" y="163.09090909090912" text-anchor="end" font-size="20" fill="black">504</text><text x="42" y="126.72727272727275" text-anchor="end" font-size="20" fill="black">505</text><text x="42" y="90.36363636363637" text-anchor="end" font-size="20" fill="black">506</text><text x="42" y="54.0" text-anchor="end" font-size="20" fill="black">507</text><line x1="80" y1="693.2512872727268" x2="80" y2="724.7749454545452" stroke="#26a69a" stroke-width="2"/><rect x="76" y="693.2512872727268" width="8" height="30.798976727272475" fill="#26a69a"/><line x1="92" y1="676.2212647272731" x2="92" y2="696.8746960000007" stroke="#ef5350" stroke-width="2"/><rect x="88" y="692.5266054545463" width="8" height="3.985749818180466" fill="#ef5350"/><line x1="104" y1="695.4253323636356" x2="104" y2="726.5866501818189" stroke="#ef5350" stroke-width="2"/><rect x="100" y="696.5123552727267" width="8" height="27.175567636364008" fill="#ef5350"/><line x1="116" y1="703.3968323636373" x2="116" y2="728.3983545454537" stroke="#26a69a" stroke-width="2"/><rect x="112" y="711.0059912727282" width="8" height="12.681931636362492" fill="#26a69a"/><line x1="128" y1="708.1072640000002" x2="128" y2="741.4426272727269" stroke="#ef5350" stroke-width="2"/><rect x="124" y="710.2813094545457" width="8" height="9.058522545454025" fill="#ef5350"/><line x1="140" y1="693.2512872727268" x2="140" y2="722.6009003636364" stroke="#26a69a" stroke-width="2"/><rect x="136" y="698.6864007272723" width="8" height="23.55215854545554" fill="#26a69a"/><line x1="152" y1="688.1785145454553" x2="152" y2="705.2085367272722" stroke="#26a69a" stroke-width="2"/><rect x="148" y="692.5266054545463" width="8" height="8.333840727271536" fill="#26a69a"/><line x1="164" y1="680.2070145454536" x2="164" y2="717.1657865454542" stroke="#26a69a" stroke-width="2"/><rect x="160" y="690.7149007272726" width="8" height="2" fill="#26a69a"/><line x1="176" y1="689.6278781818182" x2="176" y2="710.2813094545457" stroke="#ef5350" stroke-width="2"/><rect x="172" y="691.8019236363638" width="8" height="9.058522545454025" fill="#ef5350"/><line x1="188" y1="698.6864007272723" x2="188" y2="743.2543316363639" stroke="#ef5350" stroke-width="2"/><rect x="184" y="700.4981050909092" width="8" height="41.30686290909159" fill="#ef5350"/><line x1="200" y1="739.2685818181814" x2="200" y2="766.0818083636369" stroke="#ef5350" stroke-width="2"/><rect x="196" y="743.6166727272724" width="8" height="19.566408363636356" fill="#ef5350"/><line x1="212" y1="755.2115814545459" x2="212" y2="822.2446483636367" stroke="#ef5350" stroke-width="2"/><rect x="208" y="763.9077629090914" width="8" height="39.67632909090787" fill="#ef5350"/><line x1="224" y1="788.5469443636359" x2="224" y2="816.4471938181825" stroke="#26a69a" stroke-width="2"/><rect x="220" y="809.9250578181826" width="8" height="2" fill="#26a69a"/><line x1="236" y1="808.4756941818176" x2="236" y2="869.8924770909096" stroke="#ef5350" stroke-width="2"/><rect x="232" y="811.0120803636371" width="8" height="43.843249090909126" fill="#ef5350"/><line x1="248" y1="823.331670909091" x2="248" y2="867.8996021818173" stroke="#26a69a" stroke-width="2"/><rect x="244" y="825.1433756363647" width="8" height="30.79897672727259" fill="#26a69a"/><line x1="260" y1="808.1133530909091" x2="260" y2="838.1876479999991" stroke="#26a69a" stroke-width="2"/><rect x="256" y="809.9250578181826" width="8" height="14.131294909090911" fill="#26a69a"/><line x1="272" y1="797.60546690909" x2="272" y2="834.2018981818187" stroke="#ef5350" stroke-width="2"/><rect x="268" y="811.0120803636371" width="8" height="9.239693090909327" fill="#ef5350"/><line x1="284" y1="784.5611945454556" x2="284" y2="823.6940119999996" stroke="#26a69a" stroke-width="2"/><rect x="280" y="796.8807850909095" width="8" height="22.10279527272712" fill="#26a69a"/><line x1="296" y1="777.6767174545449" x2="296" y2="810.2873985454545" stroke="#26a69a" stroke-width="2"/><rect x="292" y="778.7637399999994" width="8" height="18.479386181818654" fill="#26a69a"/><line x1="308" y1="767.8935130909084" x2="308" y2="782.024808363636" stroke="#26a69a" stroke-width="2"/><rect x="304" y="771.516922181819" width="8" height="6.88447709090849" fill="#26a69a"/><line x1="320" y1="772.6039447272734" x2="320" y2="807.0263305454546" stroke="#ef5350" stroke-width="2"/><rect x="316" y="773.328626545454" width="8" height="12.681931636364538" fill="#ef5350"/><line x1="332" y1="771.1545810909084" x2="332" y2="799.4171716363636" stroke="#26a69a" stroke-width="2"/><rect x="328" y="784.5611945454556" width="8" height="2" fill="#26a69a"/><line x1="344" y1="783.4741716363644" x2="344" y2="815.722512" stroke="#ef5350" stroke-width="2"/><rect x="340" y="783.836512727273" width="8" height="30.43663563636403" fill="#ef5350"/><line x1="356" y1="799.054830545455" x2="356" y2="824.0563527272735" stroke="#26a69a" stroke-width="2"/><rect x="352" y="804.4899440000005" width="8" height="9.058522545454025" fill="#26a69a"/><line x1="368" y1="796.5184443636355" x2="368" y2="831.3031709090906" stroke="#26a69a" stroke-width="2"/><rect x="364" y="796.5184443636355" width="8" height="9.783204363636628" fill="#26a69a"/><line x1="380" y1="787.4599218181816" x2="380" y2="812.0991029090915" stroke="#ef5350" stroke-width="2"/><rect x="376" y="795.4314214545444" width="8" height="11.95724981818205" fill="#ef5350"/><line x1="392" y1="800.8665352727265" x2="392" y2="821.1576258181822" stroke="#26a69a" stroke-width="2"/><rect x="388" y="805.2146258181809" width="8" height="3.2610683636366957" fill="#26a69a"/><line x1="404" y1="788.9092854545445" x2="404" y2="812.0991029090915" stroke="#26a69a" stroke-width="2"/><rect x="400" y="800.504194181818" width="8" height="3.6234090909085808" fill="#26a69a"/><line x1="416" y1="775.5026719999995" x2="416" y2="802.315898545455" stroke="#26a69a" stroke-width="2"/><rect x="412" y="789.996308000001" width="8" height="6.522136363634445" fill="#26a69a"/><line x1="428" y1="772.2416039999995" x2="428" y2="792.1703534545445" stroke="#26a69a" stroke-width="2"/><rect x="424" y="772.2416039999995" width="8" height="18.47938581818198" fill="#26a69a"/><line x1="440" y1="768.9805356363629" x2="440" y2="825.8680574545451" stroke="#ef5350" stroke-width="2"/><rect x="436" y="774.0533083636365" width="8" height="51.81474909090866" fill="#ef5350"/><line x1="452" y1="810.2873985454545" x2="452" y2="836.3759436363642" stroke="#ef5350" stroke-width="2"/><rect x="448" y="826.9550799999996" width="8" height="7.971499999999537" fill="#ef5350"/><line x1="464" y1="824.0563527272735" x2="464" y2="854.4929887272722" stroke="#26a69a" stroke-width="2"/><rect x="460" y="824.0563527272735" width="8" height="9.058522545454025" fill="#26a69a"/><line x1="476" y1="810.649739636363" x2="476" y2="838.9123298181817" stroke="#ef5350" stroke-width="2"/><rect x="472" y="823.6940119999996" width="8" height="2" fill="#ef5350"/><line x1="488" y1="812.823784727272" x2="488" y2="825.5057163636366" stroke="#26a69a" stroke-width="2"/><rect x="484" y="817.5342167272737" width="8" height="5.797454181817329" fill="#26a69a"/><line x1="500" y1="816.8095349090911" x2="500" y2="834.5642389090906" stroke="#ef5350" stroke-width="2"/><rect x="496" y="817.8965574545456" width="8" height="14.131295272727584" fill="#ef5350"/><line x1="512" y1="820.7952847272736" x2="512" y2="840.7240345454552" stroke="#26a69a" stroke-width="2"/><rect x="508" y="833.4772163636361" width="8" height="2" fill="#26a69a"/><line x1="524" y1="805.5769669090915" x2="524" y2="830.2161483636362" stroke="#26a69a" stroke-width="2"/><rect x="520" y="825.5057163636366" width="8" height="3.261068363636582" fill="#26a69a"/><line x1="536" y1="816.0848530909086" x2="536" y2="826.9550799999996" stroke="#ef5350" stroke-width="2"/><rect x="532" y="825.8680574545451" width="8" height="2" fill="#ef5350"/><line x1="548" y1="827.3174210909082" x2="548" y2="857.0293749090916" stroke="#ef5350" stroke-width="2"/><rect x="544" y="827.3174210909082" width="8" height="18.47938581818198" fill="#ef5350"/><line x1="560" y1="829.4914665454536" x2="560" y2="852.3189432727266" stroke="#26a69a" stroke-width="2"/><rect x="556" y="829.4914665454536" width="8" height="17.392363272727607" fill="#26a69a"/><line x1="572" y1="823.331670909091" x2="572" y2="848.6955341818182" stroke="#ef5350" stroke-width="2"/><rect x="568" y="828.0421029090907" width="8" height="16.667681454545004" fill="#ef5350"/><line x1="584" y1="833.8395570909101" x2="584" y2="846.8838298181812" stroke="#26a69a" stroke-width="2"/><rect x="580" y="842.1733978181816" width="8" height="3.6234090909085808" fill="#26a69a"/><line x1="596" y1="834.2018981818187" x2="596" y2="856.6670341818177" stroke="#26a69a" stroke-width="2"/><rect x="592" y="834.2018981818187" width="8" height="5.797454545454002" fill="#26a69a"/><line x1="608" y1="820.7952847272736" x2="608" y2="850.1448978181811" stroke="#ef5350" stroke-width="2"/><rect x="604" y="833.8395570909101" width="8" height="13.04427272727105" fill="#ef5350"/><line x1="620" y1="820.4329439999997" x2="620" y2="848.6955341818182" stroke="#26a69a" stroke-width="2"/><rect x="616" y="826.230398181819" width="8" height="21.378113454544632" fill="#26a69a"/><line x1="632" y1="811.0120803636371" x2="632" y2="866.8125792727283" stroke="#26a69a" stroke-width="2"/><rect x="628" y="824.0563527272735" width="8" height="2" fill="#26a69a"/><line x1="644" y1="812.823784727272" x2="644" y2="830.9408301818187" stroke="#ef5350" stroke-width="2"/><rect x="640" y="823.6940119999996" width="8" height="5.072772727273559" fill="#ef5350"/><line x1="656" y1="825.1433756363647" x2="656" y2="843.9851025454552" stroke="#ef5350" stroke-width="2"/><rect x="652" y="828.8030185454545" width="8" height="6.485902181818574" fill="#ef5350"/><line x1="668" y1="817.8965574545456" x2="668" y2="832.7525345454536" stroke="#26a69a" stroke-width="2"/><rect x="664" y="819.3459210909085" width="8" height="12.681931636364652" fill="#26a69a"/><line x1="680" y1="796.8807850909095" x2="680" y2="826.230398181819" stroke="#26a69a" stroke-width="2"/><rect x="676" y="799.4171716363636" width="8" height="22.10279490909045" fill="#26a69a"/><line x1="692" y1="790.7209898181815" x2="692" y2="800.504194181818" stroke="#26a69a" stroke-width="2"/><rect x="688" y="791.8080127272725" width="8" height="8.515010909090165" fill="#26a69a"/><line x1="704" y1="791.8080127272725" x2="704" y2="808.4756941818176" stroke="#ef5350" stroke-width="2"/><rect x="700" y="792.895035272727" width="8" height="4.34809090909107" fill="#ef5350"/><line x1="716" y1="780.937785454545" x2="716" y2="800.1418534545461" stroke="#26a69a" stroke-width="2"/><rect x="712" y="784.9235352727275" width="8" height="12.681931636362492" fill="#26a69a"/><line x1="728" y1="782.38714909091" x2="728" y2="797.60546690909" stroke="#ef5350" stroke-width="2"/><rect x="724" y="784.9235352727275" width="8" height="12.681931636362492" fill="#ef5350"/><line x1="740" y1="785.64821709091" x2="740" y2="804.852285090909" stroke="#ef5350" stroke-width="2"/><rect x="736" y="799.054830545455" width="8" height="3.623409090908467" fill="#ef5350"/><line x1="752" y1="796.1561032727269" x2="752" y2="806.3016487272721" stroke="#26a69a" stroke-width="2"/><rect x="748" y="798.3301487272724" width="8" height="6.159795272728047" fill="#26a69a"/><line x1="764" y1="790.7209898181815" x2="764" y2="824.7810345454541" stroke="#ef5350" stroke-width="2"/><rect x="760" y="799.054830545455" width="8" height="14.49363599999947" fill="#ef5350"/><line x1="776" y1="804.1276032727266" x2="776" y2="819.3459210909085" stroke="#26a69a" stroke-width="2"/><rect x="772" y="806.3016487272721" width="8" height="8.696181454545354" fill="#26a69a"/><line x1="788" y1="804.1276032727266" x2="788" y2="817.8965574545456" stroke="#ef5350" stroke-width="2"/><rect x="784" y="808.1133530909091" width="8" height="6.1597952727279335" fill="#ef5350"/><line x1="800" y1="796.8807850909095" x2="800" y2="816.4471938181825" stroke="#26a69a" stroke-width="2"/><rect x="796" y="798.3301487272724" width="8" height="15.58065890909063" fill="#26a69a"/><line x1="812" y1="798.3301487272724" x2="812" y2="814.9978301818174" stroke="#ef5350" stroke-width="2"/><rect x="808" y="799.7795123636355" width="8" height="9.42086363636463" fill="#ef5350"/><line x1="824" y1="800.504194181818" x2="824" y2="811.7367621818175" stroke="#ef5350" stroke-width="2"/><rect x="820" y="805.5769669090915" width="8" height="3.985749818180466" fill="#ef5350"/><line x1="836" y1="794.706739636364" x2="836" y2="811.3744214545457" stroke="#26a69a" stroke-width="2"/><rect x="832" y="798.3301487272724" width="8" height="11.23256799999956" fill="#26a69a"/><line x1="848" y1="788.184603636364" x2="848" y2="807.7510123636371" stroke="#ef5350" stroke-width="2"/><rect x="844" y="794.34439890909" width="8" height="5.072772727273559" fill="#ef5350"/><line x1="860" y1="793.9820578181815" x2="860" y2="802.6782396363635" stroke="#26a69a" stroke-width="2"/><rect x="856" y="798.3301487272724" width="8" height="2" fill="#26a69a"/><line x1="872" y1="784.1988534545449" x2="872" y2="799.054830545455" stroke="#26a69a" stroke-width="2"/><rect x="868" y="786.0105581818185" width="8" height="10.870226909091002" fill="#26a69a"/><line x1="884" y1="762.458399636363" x2="884" y2="790.7209898181815" stroke="#26a69a" stroke-width="2"/><rect x="880" y="768.9805356363629" width="8" height="15.942999636364561" fill="#26a69a"/><line x1="896" y1="760.6466949090914" x2="896" y2="785.285876363636" stroke="#ef5350" stroke-width="2"/><rect x="892" y="767.168831272728" width="8" height="8.333840727271536" fill="#ef5350"/><line x1="908" y1="772.6039447272734" x2="908" y2="786.0105581818185" stroke="#26a69a" stroke-width="2"/><rect x="904" y="773.328626545454" width="8" height="2" fill="#26a69a"/><line x1="920" y1="768.9805356363629" x2="920" y2="795.0690807272725" stroke="#ef5350" stroke-width="2"/><rect x="916" y="770.7922403636366" width="8" height="12.355824727271852" fill="#ef5350"/><line x1="932" y1="778.4013992727275" x2="932" y2="786.735239999999" stroke="#ef5350" stroke-width="2"/><rect x="928" y="778.4013992727275" width="8" height="6.159795272728047" fill="#ef5350"/><line x1="944" y1="776.227353818182" x2="944" y2="809.562716727272" stroke="#26a69a" stroke-width="2"/><rect x="940" y="777.6767174545449" width="8" height="5.797454181819489" fill="#26a69a"/><line x1="956" y1="774.4156490909083" x2="956" y2="791.9891829090913" stroke="#ef5350" stroke-width="2"/><rect x="952" y="778.4013992727275" width="8" height="9.783204363636514" fill="#ef5350"/><line x1="968" y1="779.8507629090905" x2="968" y2="792.1703534545445" stroke="#26a69a" stroke-width="2"/><rect x="964" y="781.6624672727274" width="8" height="6.159795272728047" fill="#26a69a"/><line x1="980" y1="780.937785454545" x2="980" y2="805.5769669090915" stroke="#ef5350" stroke-width="2"/><rect x="976" y="781.3001265454556" width="8" height="17.392363272725447" fill="#ef5350"/><line x1="992" y1="774.4156490909083" x2="992" y2="797.4242963636367" stroke="#26a69a" stroke-width="2"/><rect x="988" y="777.6767174545449" width="8" height="19.74757890909177" fill="#26a69a"/><line x1="1004" y1="777.3143763636364" x2="1004" y2="807.0263305454546" stroke="#ef5350" stroke-width="2"/><rect x="1000" y="777.3143763636364" width="8" height="24.639181454544655" fill="#ef5350"/><line x1="1016" y1="113.86818436363603" x2="1016" y2="217.8600232727273" stroke="#ef5350" stroke-width="2"/><rect x="1012" y="115.6798887272729" width="8" height="100.36843018181742" fill="#ef5350"/><line x1="1028" y1="198.29361454545426" x2="1028" y2="247.57197709090883" stroke="#ef5350" stroke-width="2"/><rect x="1024" y="214.2366141818187" width="8" height="18.479386181816608" fill="#ef5350"/><line x1="1040" y1="218.94704581818166" x2="1040" y2="268.5877494545449" stroke="#ef5350" stroke-width="2"/><rect x="1036" y="232.71600036363532" width="8" height="7.609158909091093" fill="#ef5350"/><line x1="1052" y1="219.67172763636427" x2="1052" y2="259.166886181819" stroke="#26a69a" stroke-width="2"/><rect x="1048" y="224.2009890909086" width="8" height="13.587784000000283" fill="#26a69a"/><line x1="1064" y1="176.9155014545462" x2="1064" y2="226.19386400000087" stroke="#26a69a" stroke-width="2"/><rect x="1060" y="195.39488727272817" width="8" height="25.726203999999143" fill="#26a69a"/><line x1="1076" y1="192.13381927272826" x2="1076" y2="238.87579563636336" stroke="#ef5350" stroke-width="2"/><rect x="1072" y="196.11956909090873" width="8" height="34.06004472727261" fill="#ef5350"/><line x1="1088" y1="215.32363709090987" x2="1088" y2="251.1953861818173" stroke="#26a69a" stroke-width="2"/><rect x="1084" y="223.6574778181813" width="8" height="6.159795272728047" fill="#26a69a"/><line x1="1100" y1="202.64170545454533" x2="1100" y2="229.45493200000078" stroke="#26a69a" stroke-width="2"/><rect x="1096" y="222.57045490909024" width="8" height="2.174045454545535" fill="#26a69a"/><line x1="1112" y1="186.69870581818282" x2="1112" y2="228.7302501818183" stroke="#26a69a" stroke-width="2"/><rect x="1108" y="187.42338763636326" width="8" height="34.7847265454551" fill="#26a69a"/><line x1="1124" y1="176.55316036363558" x2="1124" y2="204.81575090909075" stroke="#ef5350" stroke-width="2"/><rect x="1120" y="186.69870581818282" width="8" height="15.942999636362515" fill="#ef5350"/><line x1="1136" y1="192.49616000000026" x2="1136" y2="222.20811418181836" stroke="#ef5350" stroke-width="2"/><rect x="1132" y="201.55468254545417" width="8" height="9.42086363636463" fill="#ef5350"/><line x1="1148" y1="211.3378869090908" x2="1148" y2="286.704794545455" stroke="#ef5350" stroke-width="2"/><rect x="1144" y="211.3378869090908" width="8" height="60.14858981818213" fill="#ef5350"/><line x1="1160" y1="270.7617949090903" x2="1160" y2="314.96738509091017" stroke="#ef5350" stroke-width="2"/><rect x="1156" y="270.7617949090903" width="8" height="19.204068000001257" fill="#ef5350"/><line x1="1172" y1="264.964340727273" x2="1172" y2="300.111408" stroke="#26a69a" stroke-width="2"/><rect x="1168" y="264.964340727273" width="8" height="25.36386290909047" fill="#26a69a"/><line x1="1184" y1="224.3821596363639" x2="1184" y2="267.86306763636446" stroke="#26a69a" stroke-width="2"/><rect x="1180" y="224.3821596363639" width="8" height="41.30686290909159" fill="#26a69a"/><line x1="1196" y1="213.14959163636433" x2="1196" y2="233.4406821818178" stroke="#ef5350" stroke-width="2"/><rect x="1192" y="225.10684145454638" width="8" height="2" fill="#ef5350"/><line x1="1208" y1="209.88852327272775" x2="1208" y2="237.42643200000032" stroke="#26a69a" stroke-width="2"/><rect x="1204" y="210.6132050909082" width="8" height="16.667681818183723" fill="#26a69a"/><line x1="1220" y1="206.2651145454538" x2="1220" y2="248.65899999999988" stroke="#ef5350" stroke-width="2"/><rect x="1216" y="210.6132050909082" width="8" height="34.78472690909177" fill="#ef5350"/><line x1="1232" y1="222.93279600000085" x2="1232" y2="251.1953861818173" stroke="#26a69a" stroke-width="2"/><rect x="1228" y="226.55620509090943" width="8" height="17.754703999999492" fill="#26a69a"/><line x1="1244" y1="223.29513672727273" x2="1244" y2="248.65899999999988" stroke="#ef5350" stroke-width="2"/><rect x="1240" y="226.19386400000087" width="8" height="13.587783999998237" fill="#ef5350"/><line x1="1256" y1="221.1210912727273" x2="1256" y2="246.12261381818246" stroke="#26a69a" stroke-width="2"/><rect x="1252" y="228.00556872727236" width="8" height="11.232567636365047" fill="#26a69a"/><line x1="1268" y1="221.1210912727273" x2="1268" y2="238.15111381818076" stroke="#ef5350" stroke-width="2"/><rect x="1264" y="226.55620509090943" width="8" height="2" fill="#ef5350"/><line x1="1280" y1="225.46918218181838" x2="1280" y2="259.166886181819" stroke="#ef5350" stroke-width="2"/><rect x="1276" y="226.19386400000087" width="8" height="17.030022545453562" fill="#ef5350"/><line x1="1292" y1="221.48343236363587" x2="1292" y2="251.5577272727279" stroke="#26a69a" stroke-width="2"/><rect x="1288" y="232.35365927272676" width="8" height="10.145545454545072" fill="#26a69a"/><line x1="1304" y1="217.8600232727273" x2="1304" y2="234.89004581818085" stroke="#26a69a" stroke-width="2"/><rect x="1300" y="224.7807345454538" width="8" height="7.210584000001063" fill="#26a69a"/><line x1="1316" y1="214.59895527272727" x2="1316" y2="242.13686363636327" stroke="#ef5350" stroke-width="2"/><rect x="1312" y="225.46918218181838" width="8" height="7.971499999999423" fill="#ef5350"/><line x1="1328" y1="228.7302501818183" x2="1328" y2="251.9200679999998" stroke="#ef5350" stroke-width="2"/><rect x="1324" y="234.5277047272723" width="8" height="3.261068363636582" fill="#ef5350"/><line x1="1340" y1="222.57045490909024" x2="1340" y2="242.13686363636327" stroke="#26a69a" stroke-width="2"/><rect x="1336" y="233.07834109090925" width="8" height="5.797454545454116" fill="#26a69a"/><line x1="1352" y1="231.62897745454632" x2="1352" y2="254.456454545454" stroke="#ef5350" stroke-width="2"/><rect x="1348" y="232.71600036363532" width="8" height="11.594908727273605" fill="#ef5350"/><line x1="1364" y1="230.54195490909194" x2="1364" y2="253.00709090909095" stroke="#ef5350" stroke-width="2"/><rect x="1360" y="242.13686363636327" width="8" height="7.246818181819208" fill="#ef5350"/><line x1="1376" y1="232.71600036363532" x2="1376" y2="255.54347709090837" stroke="#26a69a" stroke-width="2"/><rect x="1372" y="235.61472763636345" width="8" height="14.131294909090911" fill="#26a69a"/><line x1="1388" y1="215.68597781818175" x2="1388" y2="234.89004581818085" stroke="#26a69a" stroke-width="2"/><rect x="1384" y="217.1353414545448" width="8" height="17.392363272727493" fill="#26a69a"/><line x1="1400" y1="209.88852327272775" x2="1400" y2="226.19386400000087" stroke="#26a69a" stroke-width="2"/><rect x="1396" y="209.88852327272775" width="8" height="7.246818181817048" fill="#26a69a"/><line x1="1412" y1="198.65595563636282" x2="1412" y2="216.0483189090903" stroke="#26a69a" stroke-width="2"/><rect x="1408" y="204.81575090909075" width="8" height="6.159795272728047" fill="#26a69a"/><line x1="1424" y1="185.9740240000002" x2="1424" y2="211.3378869090908" stroke="#26a69a" stroke-width="2"/><rect x="1420" y="187.7857283636373" width="8" height="16.66768145454489" fill="#26a69a"/><line x1="1436" y1="185.9740240000002" x2="1436" y2="203.00404618181722" stroke="#ef5350" stroke-width="2"/><rect x="1432" y="186.69870581818282" width="8" height="11.957249818180003" fill="#ef5350"/><line x1="1448" y1="187.42338763636326" x2="1448" y2="202.64170545454533" stroke="#26a69a" stroke-width="2"/><rect x="1444" y="189.59743272727212" width="8" height="11.594909090910164" fill="#26a69a"/><line x1="1460" y1="181.26359200000059" x2="1460" y2="190.68445563636317" stroke="#ef5350" stroke-width="2"/><rect x="1456" y="188.8727512727263" width="8" height="2" fill="#ef5350"/><line x1="1472" y1="172.92975127272712" x2="1472" y2="191.77147818181766" stroke="#26a69a" stroke-width="2"/><rect x="1468" y="176.9155014545462" width="8" height="14.131294909091025" fill="#26a69a"/><line x1="1484" y1="155.53738799999962" x2="1484" y2="180.5389101818181" stroke="#26a69a" stroke-width="2"/><rect x="1480" y="157.71143345454504" width="8" height="18.117045090910096" fill="#26a69a"/><line x1="1496" y1="149.01525199999958" x2="1496" y2="164.95825163636425" stroke="#26a69a" stroke-width="2"/><rect x="1492" y="153.0010018181821" width="8" height="4.34809090909107" fill="#26a69a"/><line x1="1508" y1="145.7541836363631" x2="1508" y2="162.05952436363611" stroke="#26a69a" stroke-width="2"/><rect x="1504" y="151.91397890909104" width="8" height="2" fill="#26a69a"/><line x1="1520" y1="140.6814109090916" x2="1520" y2="155.53738799999962" stroke="#26a69a" stroke-width="2"/><rect x="1516" y="141.40609272727204" width="8" height="8.333841090910141" fill="#26a69a"/><line x1="1532" y1="102.27327527272791" x2="1532" y2="143.21779745454558" stroke="#26a69a" stroke-width="2"/><rect x="1528" y="106.98370727272754" width="8" height="34.06004472727261" fill="#26a69a"/><line x1="1544" y1="104.44732072727345" x2="1544" y2="124.73841127272692" stroke="#ef5350" stroke-width="2"/><rect x="1540" y="107.34604799999943" width="8" height="10.870227272727675" fill="#ef5350"/><line x1="1556" y1="116.4045705454555" x2="1556" y2="127.27479781818113" stroke="#ef5350" stroke-width="2"/><rect x="1552" y="117.12925236363594" width="8" height="4.710431636365115" fill="#ef5350"/><line x1="1568" y1="122.5643658181815" x2="1568" y2="145.02950181818255" stroke="#ef5350" stroke-width="2"/><rect x="1564" y="123.28904763636399" width="8" height="14.493636363636142" fill="#ef5350"/><line x1="1580" y1="124.01372945454443" x2="1580" y2="142.4931156363631" stroke="#26a69a" stroke-width="2"/><rect x="1576" y="131.29678181818156" width="8" height="6.123561090910016" fill="#26a69a"/><line x1="1592" y1="117.12925236363594" x2="1592" y2="132.70991127272657" stroke="#26a69a" stroke-width="2"/><rect x="1588" y="128.7241614545461" width="8" height="3.623408727271908" fill="#26a69a"/><line x1="1604" y1="124.55724109090829" x2="1604" y2="138.14502472727202" stroke="#26a69a" stroke-width="2"/><rect x="1600" y="126.91245672727257" width="8" height="2" fill="#26a69a"/><line x1="1616" y1="123.65138872727255" x2="1616" y2="134.15927490909155" stroke="#ef5350" stroke-width="2"/><rect x="1612" y="126.18777490908997" width="8" height="3.6234090909105134" fill="#ef5350"/><line x1="1628" y1="114.59286618181852" x2="1628" y2="128.3618203636355" stroke="#26a69a" stroke-width="2"/><rect x="1624" y="120.02797963636397" width="8" height="7.609158909091093" fill="#26a69a"/><line x1="1640" y1="106.98370727272754" x2="1640" y2="121.11500218181845" stroke="#26a69a" stroke-width="2"/><rect x="1636" y="109.15775272727308" width="8" height="10.870226909090889" fill="#26a69a"/><line x1="1652" y1="107.34604799999943" x2="1652" y2="124.37607054545504" stroke="#ef5350" stroke-width="2"/><rect x="1648" y="108.43307090909059" width="8" height="15.580658545453844" fill="#ef5350"/><line x1="1664" y1="110.24477527272745" x2="1664" y2="124.73841127272692" stroke="#26a69a" stroke-width="2"/><rect x="1660" y="110.96945709090994" width="8" height="13.76895418181698" fill="#26a69a"/><line x1="1676" y1="110.24477527272745" x2="1676" y2="122.92670690909006" stroke="#ef5350" stroke-width="2"/><rect x="1672" y="110.96945709090994" width="8" height="8.696181818180094" fill="#ef5350"/><line x1="1688" y1="118.2162752727271" x2="1688" y2="135.97097927272648" stroke="#ef5350" stroke-width="2"/><rect x="1684" y="118.2162752727271" width="8" height="5.072772363636886" fill="#ef5350"/><line x1="1700" y1="107.34604799999943" x2="1700" y2="129.81118400000048" stroke="#26a69a" stroke-width="2"/><rect x="1696" y="108.07072981818203" width="8" height="15.218317818181959" fill="#26a69a"/><line x1="1712" y1="105.17200254545389" x2="1712" y2="114.9552069090904" stroke="#26a69a" stroke-width="2"/><rect x="1708" y="108.43307090909059" width="8" height="2" fill="#26a69a"/><line x1="1724" y1="104.08497999999952" x2="1724" y2="117.4915934545445" stroke="#ef5350" stroke-width="2"/><rect x="1720" y="108.43307090909059" width="8" height="2.1740454545454213" fill="#ef5350"/><line x1="1736" y1="103.36029818181908" x2="1736" y2="110.96945709090994" stroke="#ef5350" stroke-width="2"/><rect x="1732" y="108.07072981818203" width="8" height="2" fill="#ef5350"/><line x1="1748" y1="99.73688909090845" x2="1748" y2="113.50584327272747" stroke="#26a69a" stroke-width="2"/><rect x="1744" y="101.91093454545387" width="8" height="7.246818181819208" fill="#26a69a"/><line x1="1760" y1="94.301775636363" x2="1760" y2="110.96945709090994" stroke="#ef5350" stroke-width="2"/><rect x="1756" y="102.99795709090836" width="8" height="7.246818181819094" fill="#ef5350"/><line x1="1772" y1="103.72263890909096" x2="1772" y2="117.4915934545445" stroke="#ef5350" stroke-width="2"/><rect x="1768" y="108.97658218181766" width="8" height="6.703306545455234" fill="#ef5350"/><line x1="1784" y1="113.14350254545559" x2="1784" y2="131.98522945454613" stroke="#ef5350" stroke-width="2"/><rect x="1780" y="113.14350254545559" width="8" height="16.66768145454489" fill="#ef5350"/><line x1="1796" y1="122.5643658181815" x2="1796" y2="136.3333203636372" stroke="#ef5350" stroke-width="2"/><rect x="1792" y="130.17352509090904" width="8" height="5.435113454545558" fill="#ef5350"/><line x1="1808" y1="118.57861600000103" x2="1808" y2="148.29057018181913" stroke="#26a69a" stroke-width="2"/><rect x="1804" y="118.94095709090959" width="8" height="16.305340363636446" fill="#26a69a"/><line x1="1820" y1="109.15775272727308" x2="1820" y2="124.37607054545504" stroke="#26a69a" stroke-width="2"/><rect x="1816" y="112.41882072727299" width="8" height="7.246818181817048" fill="#26a69a"/><line x1="1832" y1="112.41882072727299" x2="1832" y2="130.89820654545497" stroke="#ef5350" stroke-width="2"/><rect x="1828" y="112.41882072727299" width="8" height="17.030022545453562" fill="#ef5350"/><line x1="1844" y1="118.2162752727271" x2="1844" y2="138.50736581818262" stroke="#26a69a" stroke-width="2"/><rect x="1840" y="121.83968400000106" width="8" height="7.790329454544235" fill="#26a69a"/><line x1="1856" y1="121.11500218181845" x2="1856" y2="141.04375200000015" stroke="#ef5350" stroke-width="2"/><rect x="1852" y="121.47734327272701" width="8" height="17.392363272727493" fill="#ef5350"/><line x1="1868" y1="137.78268400000013" x2="1868" y2="153.0010018181821" stroke="#ef5350" stroke-width="2"/><rect x="1864" y="138.8697065454545" width="8" height="6.884477090908604" fill="#ef5350"/><line x1="1880" y1="137.78268400000013" x2="1880" y2="151.55163818181916" stroke="#26a69a" stroke-width="2"/><rect x="1876" y="142.4931156363631" width="8" height="4.710431636365001" fill="#26a69a"/><line x1="1892" y1="140.31907018181755" x2="1892" y2="157.34909272727316" stroke="#ef5350" stroke-width="2"/><rect x="1888" y="143.21779745454558" width="8" height="9.783204363636514" fill="#ef5350"/><line x1="1904" y1="147.92822909090853" x2="1904" y2="166.04527418181863" stroke="#ef5350" stroke-width="2"/><rect x="1900" y="154.45036545454514" width="8" height="2" fill="#ef5350"/><line x1="1916" y1="143.94247927272806" x2="1916" y2="167.85697890909012" stroke="#26a69a" stroke-width="2"/><rect x="1912" y="145.7541836363631" width="8" height="9.42086363636463" fill="#26a69a"/><line x1="1928" y1="101.91093454545387" x2="1928" y2="145.3918429090911" stroke="#26a69a" stroke-width="2"/><rect x="1924" y="109.15775272727308" width="8" height="33.69770363636394" fill="#26a69a"/><line x1="1940" y1="83.43154836363738" x2="1940" y2="127.27479781818113" stroke="#26a69a" stroke-width="2"/><rect x="1936" y="87.05495745454584" width="8" height="25.363863272727144" fill="#26a69a"/><rect x="75" y="973.0861699253221" width="10" height="46.91383007467789" fill="#26a69a" opacity="0.9"/><rect x="87" y="989.8537772999822" width="10" height="30.146222700017802" fill="#ef5350" opacity="0.9"/><rect x="99" y="990.0357292738593" width="10" height="29.96427072614074" fill="#ef5350" opacity="0.9"/><rect x="111" y="997.6953899751073" width="10" height="22.304610024892668" fill="#26a69a" opacity="0.9"/><rect x="123" y="985.9944120910392" width="10" height="34.00558790896082" fill="#ef5350" opacity="0.9"/><rect x="135" y="993.727370980816" width="10" height="26.272629019184023" fill="#26a69a" opacity="0.9"/><rect x="147" y="995.2399006593962" width="10" height="24.7600993406038" fill="#26a69a" opacity="0.9"/><rect x="159" y="997.3612364685795" width="10" height="22.638763531420523" fill="#26a69a" opacity="0.9"/><rect x="171" y="1003.5264764554721" width="10" height="16.473523544527893" fill="#ef5350" opacity="0.9"/><rect x="183" y="990.8010485952618" width="10" height="29.19895140473818" fill="#ef5350" opacity="0.9"/><rect x="195" y="992.6774822215963" width="10" height="27.32251777840372" fill="#ef5350" opacity="0.9"/><rect x="207" y="990.6449665702771" width="10" height="29.35503342972288" fill="#ef5350" opacity="0.9"/><rect x="219" y="987.7238181745014" width="10" height="32.27618182549861" fill="#26a69a" opacity="0.9"/><rect x="231" y="967.2257641695459" width="10" height="52.77423583045413" fill="#ef5350" opacity="0.9"/><rect x="243" y="990.6760105089481" width="10" height="29.32398949105186" fill="#26a69a" opacity="0.9"/><rect x="255" y="992.0466866344346" width="10" height="27.95331336556535" fill="#26a69a" opacity="0.9"/><rect x="267" y="987.9148246304909" width="10" height="32.0851753695091" fill="#ef5350" opacity="0.9"/><rect x="279" y="992.6494564436293" width="10" height="27.350543556370667" fill="#26a69a" opacity="0.9"/><rect x="291" y="994.5552093453753" width="10" height="25.44479065462474" fill="#26a69a" opacity="0.9"/><rect x="303" y="990.5294141318908" width="10" height="29.470585868109197" fill="#26a69a" opacity="0.9"/><rect x="315" y="996.9511977786337" width="10" height="23.04880222136626" fill="#ef5350" opacity="0.9"/><rect x="327" y="998.7905511448889" width="10" height="21.209448855111077" fill="#26a69a" opacity="0.9"/><rect x="339" y="1001.1136725554336" width="10" height="18.886327444566405" fill="#ef5350" opacity="0.9"/><rect x="351" y="1000.6609484498151" width="10" height="19.339051550184877" fill="#26a69a" opacity="0.9"/><rect x="363" y="1002.0919877893841" width="10" height="17.90801221061588" fill="#26a69a" opacity="0.9"/><rect x="375" y="999.1867925287588" width="10" height="20.813207471241185" fill="#ef5350" opacity="0.9"/><rect x="387" y="997.4086647082157" width="10" height="22.591335291784276" fill="#26a69a" opacity="0.9"/><rect x="399" y="995.4240084623477" width="10" height="24.57599153765227" fill="#26a69a" opacity="0.9"/><rect x="411" y="986.119019011538" width="10" height="33.880980988462056" fill="#26a69a" opacity="0.9"/><rect x="423" y="1006.1039856967927" width="10" height="13.896014303207266" fill="#26a69a" opacity="0.9"/><rect x="435" y="1002.5209977751844" width="10" height="17.479002224815645" fill="#ef5350" opacity="0.9"/><rect x="447" y="1002.3011032095983" width="10" height="17.698896790401704" fill="#ef5350" opacity="0.9"/><rect x="459" y="1004.0606909001018" width="10" height="15.939309099898196" fill="#26a69a" opacity="0.9"/><rect x="471" y="991.7142577911662" width="10" height="28.285742208833767" fill="#ef5350" opacity="0.9"/><rect x="483" y="1005.0540969375729" width="10" height="14.945903062427078" fill="#26a69a" opacity="0.9"/><rect x="495" y="1003.2595848160647" width="10" height="16.740415183935283" fill="#ef5350" opacity="0.9"/><rect x="507" y="1001.4611922022225" width="10" height="18.53880779777751" fill="#26a69a" opacity="0.9"/><rect x="519" y="999.2053326587984" width="10" height="20.794667341201603" fill="#26a69a" opacity="0.9"/><rect x="531" y="1004.6069779875479" width="10" height="15.393022012452093" fill="#ef5350" opacity="0.9"/><rect x="543" y="986.8037103255589" width="10" height="33.19628967444112" fill="#ef5350" opacity="0.9"/><rect x="555" y="1006.5131620551088" width="10" height="13.48683794489125" fill="#26a69a" opacity="0.9"/><rect x="567" y="1002.7128665628036" width="10" height="17.287133437196417" fill="#ef5350" opacity="0.9"/><rect x="579" y="998.7211334486941" width="10" height="21.278866551305896" fill="#26a69a" opacity="0.9"/><rect x="591" y="996.8662581131034" width="10" height="23.133741886896587" fill="#26a69a" opacity="0.9"/><rect x="603" y="1000.5234065548701" width="10" height="19.47659344512988" fill="#ef5350" opacity="0.9"/><rect x="615" y="1004.1055321448487" width="10" height="15.894467855151333" fill="#26a69a" opacity="0.9"/><rect x="627" y="967.9462422462015" width="10" height="52.05375775379855" fill="#26a69a" opacity="0.9"/><rect x="639" y="1002.8775719040857" width="10" height="17.1224280959143" fill="#ef5350" opacity="0.9"/><rect x="651" y="1003.0927236457081" width="10" height="16.907276354291866" fill="#ef5350" opacity="0.9"/><rect x="663" y="1003.7929369290646" width="10" height="16.20706307093542" fill="#26a69a" opacity="0.9"/><rect x="675" y="998.7784785020725" width="10" height="21.221521497927483" fill="#26a69a" opacity="0.9"/><rect x="687" y="1001.7190293595175" width="10" height="18.28097064048245" fill="#26a69a" opacity="0.9"/><rect x="699" y="1003.0172696281052" width="10" height="16.98273037189483" fill="#ef5350" opacity="0.9"/><rect x="711" y="1002.3011032095983" width="10" height="17.698896790401704" fill="#26a69a" opacity="0.9"/><rect x="723" y="1003.230696706468" width="10" height="16.769303293531948" fill="#ef5350" opacity="0.9"/><rect x="735" y="1004.2702374861308" width="10" height="15.729762513869218" fill="#ef5350" opacity="0.9"/><rect x="747" y="1007.0404778467005" width="10" height="12.959522153299531" fill="#26a69a" opacity="0.9"/><rect x="759" y="1002.3765572272014" width="10" height="17.623442772798626" fill="#ef5350" opacity="0.9"/><rect x="771" y="1001.5651031636073" width="10" height="18.43489683639268" fill="#26a69a" opacity="0.9"/><rect x="783" y="1004.1460617314469" width="10" height="15.853938268553065" fill="#ef5350" opacity="0.9"/><rect x="795" y="1005.3089159341639" width="10" height="14.691084065836094" fill="#26a69a" opacity="0.9"/><rect x="807" y="1001.3387411107981" width="10" height="18.661258889201918" fill="#ef5350" opacity="0.9"/><rect x="819" y="1006.0074045542608" width="10" height="13.992595445739198" fill="#ef5350" opacity="0.9"/><rect x="831" y="1003.2350083646168" width="10" height="16.76499163538324" fill="#26a69a" opacity="0.9"/><rect x="843" y="998.594370699121" width="10" height="21.405629300879013" fill="#ef5350" opacity="0.9"/><rect x="855" y="1007.4483607075719" width="10" height="12.551639292428149" fill="#26a69a" opacity="0.9"/><rect x="867" y="999.5084422266552" width="10" height="20.491557773344766" fill="#26a69a" opacity="0.9"/><rect x="879" y="993.2091096713367" width="10" height="26.790890328663295" fill="#26a69a" opacity="0.9"/><rect x="891" y="1000.836864102284" width="10" height="19.16313589771596" fill="#ef5350" opacity="0.9"/><rect x="903" y="1004.0766440352521" width="10" height="15.923355964747884" fill="#26a69a" opacity="0.9"/><rect x="915" y="997.5427572766417" width="10" height="22.457242723358263" fill="#ef5350" opacity="0.9"/><rect x="927" y="1006.0086980517054" width="10" height="13.991301948294563" fill="#ef5350" opacity="0.9"/><rect x="939" y="982.1380650428003" width="10" height="37.86193495719965" fill="#26a69a" opacity="0.9"/><rect x="951" y="1001.3521072510592" width="10" height="18.647892748940762" fill="#ef5350" opacity="0.9"/><rect x="963" y="1002.4692578773994" width="10" height="17.5307421226006" fill="#26a69a" opacity="0.9"/><rect x="975" y="985.544706146125" width="10" height="34.45529385387499" fill="#ef5350" opacity="0.9"/><rect x="987" y="987.9915721455386" width="10" height="32.00842785446139" fill="#26a69a" opacity="0.9"/><rect x="999" y="962.1466308703226" width="10" height="57.85336912967739" fill="#ef5350" opacity="0.9"/><rect x="1011" y="908.6398155760088" width="10" height="111.3601844239912" fill="#ef5350" opacity="0.9"/><rect x="1023" y="960.6435868396695" width="10" height="59.356413160330476" fill="#ef5350" opacity="0.9"/><rect x="1035" y="957.0907805251024" width="10" height="62.909219474897554" fill="#ef5350" opacity="0.9"/><rect x="1047" y="975.2182848798772" width="10" height="44.78171512012284" fill="#26a69a" opacity="0.9"/><rect x="1059" y="952.7109981776058" width="10" height="67.2890018223942" fill="#26a69a" opacity="0.9"/><rect x="1071" y="981.6215283965805" width="10" height="38.378471603419484" fill="#ef5350" opacity="0.9"/><rect x="1083" y="983.5712602114437" width="10" height="36.4287397885563" fill="#26a69a" opacity="0.9"/><rect x="1095" y="991.4396051670911" width="10" height="28.560394832908855" fill="#26a69a" opacity="0.9"/><rect x="1107" y="988.1429113465596" width="10" height="31.857088653440428" fill="#26a69a" opacity="0.9"/><rect x="1119" y="960.5940027709589" width="10" height="59.40599722904108" fill="#ef5350" opacity="0.9"/><rect x="1131" y="961.8918118737316" width="10" height="58.108188126268374" fill="#ef5350" opacity="0.9"/><rect x="1143" y="979.7782945379914" width="10" height="40.22170546200857" fill="#ef5350" opacity="0.9"/><rect x="1155" y="974.3654388980551" width="10" height="45.63456110194488" fill="#ef5350" opacity="0.9"/><rect x="1167" y="997.8130982425681" width="10" height="22.186901757431883" fill="#26a69a" opacity="0.9"/><rect x="1179" y="982.9107141830558" width="10" height="37.0892858169442" fill="#26a69a" opacity="0.9"/><rect x="1191" y="987.8329031256648" width="10" height="32.16709687433524" fill="#ef5350" opacity="0.9"/><rect x="1203" y="998.0735223947524" width="10" height="21.926477605247555" fill="#26a69a" opacity="0.9"/><rect x="1215" y="997.7182417632957" width="10" height="22.281758236704263" fill="#ef5350" opacity="0.9"/><rect x="1227" y="994.9143704691659" width="10" height="25.085629530834126" fill="#26a69a" opacity="0.9"/><rect x="1239" y="997.6979769699966" width="10" height="22.302023030003397" fill="#ef5350" opacity="0.9"/><rect x="1251" y="999.2881164952543" width="10" height="20.711883504745742" fill="#26a69a" opacity="0.9"/><rect x="1263" y="1001.4034159830293" width="10" height="18.596584016970723" fill="#ef5350" opacity="0.9"/><rect x="1275" y="996.8451309881746" width="10" height="23.15486901182544" fill="#ef5350" opacity="0.9"/><rect x="1287" y="992.3644558399973" width="10" height="27.635544160002723" fill="#26a69a" opacity="0.9"/><rect x="1299" y="999.7490327513553" width="10" height="20.250967248644656" fill="#26a69a" opacity="0.9"/><rect x="1311" y="998.3235985673797" width="10" height="21.67640143262031" fill="#ef5350" opacity="0.9"/><rect x="1323" y="1004.7535743646054" width="10" height="15.246425635394644" fill="#ef5350" opacity="0.9"/><rect x="1335" y="1001.1511839813277" width="10" height="18.848816018672323" fill="#26a69a" opacity="0.9"/><rect x="1347" y="999.8826941539664" width="10" height="20.11730584603356" fill="#ef5350" opacity="0.9"/><rect x="1359" y="1001.191282402111" width="10" height="18.808717597888972" fill="#ef5350" opacity="0.9"/><rect x="1371" y="995.2239475242459" width="10" height="24.776052475754113" fill="#26a69a" opacity="0.9"/><rect x="1383" y="997.8450045128689" width="10" height="22.154995487131146" fill="#26a69a" opacity="0.9"/><rect x="1395" y="998.1584620602828" width="10" height="21.841537939717227" fill="#26a69a" opacity="0.9"/><rect x="1407" y="995.423146130718" width="10" height="24.57685386928199" fill="#26a69a" opacity="0.9"/><rect x="1419" y="994.7854518905184" width="10" height="25.214548109481598" fill="#26a69a" opacity="0.9"/><rect x="1431" y="1001.3568500750229" width="10" height="18.643149924977138" fill="#ef5350" opacity="0.9"/><rect x="1443" y="1005.6943781726618" width="10" height="14.3056218273382" fill="#26a69a" opacity="0.9"/><rect x="1455" y="1003.3264155173703" width="10" height="16.673584482629735" fill="#ef5350" opacity="0.9"/><rect x="1467" y="999.0531311261476" width="10" height="20.946868873852395" fill="#26a69a" opacity="0.9"/><rect x="1479" y="990.6880831517647" width="10" height="29.31191684823534" fill="#26a69a" opacity="0.9"/><rect x="1491" y="984.6051958355131" width="10" height="35.394804164486914" fill="#26a69a" opacity="0.9"/><rect x="1503" y="991.5517082789586" width="10" height="28.448291721041414" fill="#26a69a" opacity="0.9"/><rect x="1515" y="990.6466912335367" width="10" height="29.35330876646333" fill="#26a69a" opacity="0.9"/><rect x="1527" y="978.1847056862148" width="10" height="41.815294313785216" fill="#26a69a" opacity="0.9"/><rect x="1539" y="989.128556399363" width="10" height="30.871443600637008" fill="#ef5350" opacity="0.9"/><rect x="1551" y="994.9954296423623" width="10" height="25.004570357637704" fill="#ef5350" opacity="0.9"/><rect x="1563" y="994.0546258343059" width="10" height="25.945374165694147" fill="#ef5350" opacity="0.9"/><rect x="1575" y="1003.1591231811989" width="10" height="16.84087681880112" fill="#26a69a" opacity="0.9"/><rect x="1587" y="986.8731280217537" width="10" height="33.1268719782463" fill="#26a69a" opacity="0.9"/><rect x="1599" y="1005.8888339551703" width="10" height="14.111166044829702" fill="#26a69a" opacity="0.9"/><rect x="1611" y="1003.6549638683047" width="10" height="16.345036131695338" fill="#ef5350" opacity="0.9"/><rect x="1623" y="996.9343823118536" width="10" height="23.065617688146403" fill="#26a69a" opacity="0.9"/><rect x="1635" y="1002.2778202555951" width="10" height="17.72217974440491" fill="#26a69a" opacity="0.9"/><rect x="1647" y="1001.9070176548029" width="10" height="18.09298234519713" fill="#ef5350" opacity="0.9"/><rect x="1659" y="1000.3362805912145" width="10" height="19.663719408785482" fill="#26a69a" opacity="0.9"/><rect x="1671" y="999.6369296394879" width="10" height="20.363070360512097" fill="#ef5350" opacity="0.9"/><rect x="1683" y="1003.0090774776224" width="10" height="16.99092252237756" fill="#ef5350" opacity="0.9"/><rect x="1695" y="983.3496409825982" width="10" height="36.6503590174018" fill="#26a69a" opacity="0.9"/><rect x="1707" y="1002.6175789177163" width="10" height="17.382421082283713" fill="#26a69a" opacity="0.9"/><rect x="1719" y="997.6600343782876" width="10" height="22.339965621712395" fill="#ef5350" opacity="0.9"/><rect x="1731" y="1003.5713177002191" width="10" height="16.428682299780917" fill="#ef5350" opacity="0.9"/><rect x="1743" y="998.0459277826004" width="10" height="21.954072217399585" fill="#26a69a" opacity="0.9"/><rect x="1755" y="997.7225534214444" width="10" height="22.277446578555555" fill="#ef5350" opacity="0.9"/><rect x="1767" y="1001.8268208132362" width="10" height="18.173179186763832" fill="#ef5350" opacity="0.9"/><rect x="1779" y="995.3550219319678" width="10" height="24.644978068032174" fill="#ef5350" opacity="0.9"/><rect x="1791" y="999.8171569501055" width="10" height="20.182843049894473" fill="#ef5350" opacity="0.9"/><rect x="1803" y="991.1399449257533" width="10" height="28.860055074246702" fill="#26a69a" opacity="0.9"/><rect x="1815" y="996.6187689353653" width="10" height="23.381231064634676" fill="#26a69a" opacity="0.9"/><rect x="1827" y="1000.9726813339695" width="10" height="19.02731866603051" fill="#ef5350" opacity="0.9"/><rect x="1839" y="998.3029026082658" width="10" height="21.697097391734246" fill="#26a69a" opacity="0.9"/><rect x="1851" y="994.2857307110787" width="10" height="25.714269288921287" fill="#ef5350" opacity="0.9"/><rect x="1863" y="990.8463210058236" width="10" height="29.153678994176403" fill="#ef5350" opacity="0.9"/><rect x="1875" y="994.442675067693" width="10" height="25.557324932306983" fill="#26a69a" opacity="0.9"/><rect x="1887" y="994.2180376781433" width="10" height="25.781962321856668" fill="#ef5350" opacity="0.9"/><rect x="1899" y="988.6361650387762" width="10" height="31.3638349612238" fill="#ef5350" opacity="0.9"/><rect x="1911" y="984.299499272767" width="10" height="35.70050072723302" fill="#26a69a" opacity="0.9"/><rect x="1923" y="955.0380000804843" width="10" height="64.96199991951573" fill="#26a69a" opacity="0.9"/><rect x="1935" y="860.0" width="10" height="160.0" fill="#26a69a" opacity="0.9"/><rect x="1004" y="115.6798887272729" width="12" height="686.2736690909081" fill="#00ff00" opacity="0.60"/><polyline points="320,758.0628592623353,332,760.5865102416808,344,765.6995233961528,356,769.3938491679463,368,771.9771439484889,380,775.3496703603208,392,778.1939518324986,404,780.3187368181481,416,781.2404102640378,428,780.3833810960338,440,784.7152550349413,452,789.4972859839941,464,792.788625673831,476,795.7665044408259,488,797.8396198966783,500,801.095642071021,512,804.1796015274609,524,806.2106600832873,536,808.1863191229745,548,811.7682703407003,560,813.4561937887714,572,816.4327262244734,584,818.884218757206,596,820.3430453690751,608,822.870739126132,620,823.190706655245,632,823.2731491382951,644,823.7963525277233,656,824.8908828324437,668,824.3627912380114,680,821.9870179426173,692,819.1128269697277,704,817.0299983232616,716,813.9722399374953,728,812.4134996490759,740,811.4863320288185,752,810.2333621905763,764,810.5490864148495,776,810.1445685398423,788,810.5377666182986,800,809.3751363429626,812,809.3584925007752,824,809.3779424271071,836,808.3257715985507,848,807.4773335069143,860,806.606173051709,872,804.6446859212417,884,801.2481001798237,896,798.7961546388884,908,796.370675772848,920,795.1113795174251,932,794.1065999962843,944,792.5418492780223,956,792.1268735026264,968,791.1302633854926,980,791.8504754267009,992,790.500593715067,1004,791.5913522010773,1016,736.7777299827925,1028,688.7718509714452,1040,646.0626422382327,1052,605.8853419384873,1064,566.7910129226998,1076,534.732784436555,1088,505.10656475861526,1100,478.19836382056604,1112,450.505508945881,1124,426.89943242289496,1136,406.33525278088774,1148,393.49251220435235,1160,383.6328313190899,1172,372.3310703103462,1184,358.24069786520505,1196,345.5957916096457,1208,332.74030717928906,1220,324.42198573364124,1232,315.10143519623887,1244,307.9281221299301,1256,300.31645037729504,1268,293.39519106863463,1280,288.61697159023527,1292,283.258560893329,1304,277.689244098294,1316,273.47509534434437,1328,270.07639798687455,1340,266.5527735205925,1352,264.4345007177642,1364,263.00108939399456,1376,260.3928644646968,1388,256.2731003684927,1400,251.85552159746715,1412,247.37554343666943,1424,241.7003229535236,1436,237.6008593995101,1448,233.0291044783445,1460,228.96177210378403,1472,224.00498442290302,1484,217.6913129021076,1496,211.53033089411485,1508,205.85258308601624,1520,199.71482209946942,1532,190.88328735406742,1544,183.9626195367972,1556,178.04614948567462,1568,174.2115337251355,1580,170.1244144959012,1592,166.18153325386663,1604,162.44162120371413,1616,159.3339605176467,1628,155.59053376704753,1640,151.1683641442129,1652,148.58220845948256,1664,145.0000416624747,1676,142.58724140024697,1688,140.74931818463904,1700,137.6370716735479,1712,134.85573826740995,1724,132.54634570514554,1736,130.35336930032702,1748,127.64456599033815,1760,125.9874430648531,1772,125.00577122317816,1784,125.46342958287573,1796,126.42963996026572,1808,125.7164320679459,1820,124.44999289264365,1832,124.92607388122372,1844,124.63213198777373,1856,125.98809146945769,1868,127.87057643773471,1880,129.26319921855543,1892,131.52394232328209,1904,133.8109371496372,1916,134.9483891959918,1928,132.49213810373396,1940,128.16478756571576" fill="none" stroke="#0090ff" stroke-width="2"/><line x1="80" y1="50" x2="80" y2="900" stroke="#666666" stroke-width="0.5" stroke-dasharray="4,4" opacity="0.90"/><line x1="152" y1="50" x2="152" y2="900" stroke="#666666" stroke-width="0.5" stroke-dasharray="4,4" opacity="0.90"/><line x1="224" y1="50" x2="224" y2="900" stroke="#666666" stroke-width="0.5" stroke-dasharray="4,4" opacity="0.90"/><line x1="296" y1="50" x2="296" y2="900" stroke="#666666" stroke-width="0.5" stroke-dasharray="4,4" opacity="0.90"/><line x1="368" y1="50" x2="368" y2="900" stroke="#666666" stroke-width="0.5" stroke-dasharray="4,4" opacity="0.90"/><line x1="440" y1="50" x2="440" y2="900" stroke="#666666" stroke-width="0.5" stroke-dasharray="4,4" opacity="0.90"/><line x1="512" y1="50" x2="512" y2="900" stroke="#666666" stroke-width="0.5" stroke-dasharray="4,4" opacity="0.90"/><line x1="584" y1="50" x2="584" y2="900" stroke="#666666" stroke-width="0.5" stroke-dasharray="4,4" opacity="0.90"/><line x1="656" y1="50" x2="656" y2="900" stroke="#666666" stroke-width="0.5" stroke-dasharray="4,4" opacity="0.90"/><line x1="728" y1="50" x2="728" y2="900" stroke="#666666" stroke-width="0.5" stroke-dasharray="4,4" opacity="0.90"/><line x1="800" y1="50" x2="800" y2="900" stroke="#666666" stroke-width="0.5" stroke-dasharray="4,4" opacity="0.90"/><line x1="872" y1="50" x2="872" y2="900" stroke="#666666" stroke-width="0.5" stroke-dasharray="4,4" opacity="0.90"/><line x1="944" y1="50" x2="944" y2="900" stroke="#666666" stroke-width="0.5" stroke-dasharray="4,4" opacity="0.90"/><line x1="1010" y1="30" x2="1010" y2="950" stroke="black" stroke-width="0.7"/><line x1="1016" y1="50" x2="1016" y2="900" stroke="#666666" stroke-width="0.5" stroke-dasharray="4,4" opacity="0.90"/><line x1="1088" y1="50" x2="1088" y2="900" stroke="#666666" stroke-width="0.5" stroke-dasharray="4,4" opacity="0.90"/><line x1="1160" y1="50" x2="1160" y2="900" stroke="#666666" stroke-width="0.5" stroke-dasharray="4,4" opacity="0.90"/><line x1="1232" y1="50" x2="1232" y2="900" stroke="#666666" stroke-width="0.5" stroke-dasharray="4,4" opacity="0.90"/><line x1="1304" y1="50" x2="1304" y2="900" stroke="#666666" stroke-width="0.5" stroke-dasharray="4,4" opacity="0.90"/><line x1="1376" y1="50" x2="1376" y2="900" stroke="#666666" stroke-width="0.5" stroke-dasharray="4,4" opacity="0.90"/><line x1="1448" y1="50" x2="1448" y2="900" stroke="#666666" stroke-width="0.5" stroke-dasharray="4,4" opacity="0.90"/><line x1="1520" y1="50" x2="1520" y2="900" stroke="#666666" stroke-width="0.5" stroke-dasharray="4,4" opacity="0.90"/><line x1="1592" y1="50" x2="1592" y2="900" stroke="#666666" stroke-width="0.5" stroke-dasharray="4,4" opacity="0.90"/><line x1="1664" y1="50" x2="1664" y2="900" stroke="#666666" stroke-width="0.5" stroke-dasharray="4,4" opacity="0.90"/><line x1="1736" y1="50" x2="1736" y2="900" stroke="#666666" stroke-width="0.5" stroke-dasharray="4,4" opacity="0.90"/><line x1="1808" y1="50" x2="1808" y2="900" stroke="#666666" stroke-width="0.5" stroke-dasharray="4,4" opacity="0.90"/><line x1="1880" y1="50" x2="1880" y2="900" stroke="#666666" stroke-width="0.5" stroke-dasharray="4,4" opacity="0.90"/><line x1="1946" y1="30" x2="1946" y2="950" stroke="black" stroke-width="0.7"/><text x="80" y="1040" text-anchor="middle" font-size="20" fill="black">09:30</text><text x="152" y="1040" text-anchor="middle" font-size="20" fill="black">10:00</text><text x="224" y="1040" text-anchor="middle" font-size="20" fill="black">10:30</text><text x="296" y="1040" text-anchor="middle" font-size="20" fill="black">11:00</text><text x="368" y="1040" text-anchor="middle" font-size="20" fill="black">11:30</text><text x="440" y="1040" text-anchor="middle" font-size="20" fill="black">12:00</text><text x="512" y="1040" text-anchor="middle" font-size="20" fill="black">12:30</text><text x="584" y="1040" text-anchor="middle" font-size="20" fill="black">13:00</text><text x="656" y="1040" text-anchor="middle" font-size="20" fill="black">13:30</text><text x="728" y="1040" text-anchor="middle" font-size="20" fill="black">14:00</text><text x="800" y="1040" text-anchor="middle" font-size="20" fill="black">14:30</text><text x="872" y="1040" text-anchor="middle" font-size="20" fill="black">15:00</text><text x="944" y="1040" text-anchor="middle" font-size="20" fill="black">15:30</text><text x="1016" y="1040" text-anchor="middle" font-size="20" fill="black">09:30</text><text x="1088" y="1040" text-anchor="middle" font-size="20" fill="black">10:00</text><text x="1160" y="1040" text-anchor="middle" font-size="20" fill="black">10:30</text><text x="1232" y="1040" text-anchor="middle" font-size="20" fill="black">11:00</text><text x="1304" y="1040" text-anchor="middle" font-size="20" fill="black">11:30</text><text x="1376" y="1040" text-anchor="middle" font-size="20" fill="black">12:00</text><text x="1448" y="1040" text-anchor="middle" font-size="20" fill="black">12:30</text><text x="1520" y="1040" text-anchor="middle" font-size="20" fill="black">13:00</text><text x="1592" y="1040" text-anchor="middle" font-size="20" fill="black">13:30</text><text x="1664" y="1040" text-anchor="middle" font-size="20" fill="black">14:00</text><text x="1736" y="1040" text-anchor="middle" font-size="20" fill="black">14:30</text><text x="1808" y="1040" text-anchor="middle" font-size="20" fill="black">15:00</text><text x="1880" y="1040" text-anchor="middle" font-size="20" fill="black">15:30</text><text x="1942" y="50" text-anchor="end" font-size="40" fill="#26a69a" font-weight="bold"> +0.16% (Mon)</text></svg>