<svg xmlns="http://www.w3.org/2000/svg" width="1560" height="1050"><rect width="100%" height="100%" fill="white"/><text x="42" y="854.0" text-anchor="end" font-size="20" fill="black">549</text><text x="42" y="720.6666666666667" text-anchor="end" font-size="20" fill="black">550</text><text x="42" y="587.3333333333334" text-anchor="end" font-size="20" fill="black">551</text><text x="42" y="454.0" text-anchor="end" font-size="20" fill="black">552</text><text x="42" y="320.66666666666674" text-anchor="end" font-size="20" fill="black">553</text><text x="42" y="187.33333333333326" text-anchor="end" font-size="20" fill="black">554</text><text x="42" y="54.0" text-anchor="end" font-size="20" fill="black">555</text><line x1="80" y1="295.9742053333382" x2="80" y2="472.87426933333643" stroke="#26a69a" stroke-width="2"/><rect x="76" y="365.1381399999991" width="8" height="107.73612933333732" fill="#26a69a"/><line x1="92" y1="309.2749626666621" x2="92" y2="415.68101599999255" stroke="#ef5350" stroke-width="2"/><rect x="88" y="366.46821600000595" width="8" height="36.57708133332562" fill="#ef5350"/><line x1="104" y1="375.7787453333397" x2="104" y2="467.55396666667366" stroke="#26a69a" stroke-width="2"/><rect x="100" y="383.8922079999975" width="8" height="17.157975999998598" fill="#26a69a"/><line x1="116" y1="333.2163240000075" x2="116" y2="417.01109199999945" stroke="#26a69a" stroke-width="2"/><rect x="112" y="358.620769333326" width="8" height="23.80835466666815" fill="#26a69a"/><line x1="128" y1="262.72231466667404" x2="128" y2="377.10882133333143" stroke="#26a69a" stroke-width="2"/><rect x="124" y="277.3531466666707" width="8" height="78.47446399999467" fill="#26a69a"/><line x1="140" y1="238.7809519999944" x2="140" y2="287.993751999996" stroke="#26a69a" stroke-width="2"/><rect x="136" y="264.05238933333135" width="8" height="10.640605333340773" fill="#26a69a"/><line x1="152" y1="133.03993733332686" x2="152" y2="269.37269199999423" stroke="#26a69a" stroke-width="2"/><rect x="148" y="137.69520133332662" width="8" height="131.6774906666676" fill="#26a69a"/><line x1="164" y1="95.13277999999445" x2="164" y2="139.0252773333334" stroke="#26a69a" stroke-width="2"/><rect x="160" y="99.12300666666556" width="8" height="36.57708133334063" fill="#26a69a"/><line x1="176" y1="59.220737333331954" x2="176" y2="104.44330933332822" stroke="#26a69a" stroke-width="2"/><rect x="172" y="95.13277999999445" width="8" height="2.6601519999985612" fill="#26a69a"/><line x1="188" y1="65.8711160000014" x2="188" y2="135.03505066666253" stroke="#26a69a" stroke-width="2"/><rect x="184" y="65.8711160000014" width="8" height="29.26166399999306" fill="#26a69a"/><line x1="200" y1="52.57035866666229" x2="200" y2="89.8124773333318" stroke="#ef5350" stroke-width="2"/><rect x="196" y="65.8711160000014" width="8" height="2.6601506666643218" fill="#ef5350"/><line x1="212" y1="60.55081333333874" x2="212" y2="97.79293199999302" stroke="#ef5350" stroke-width="2"/><rect x="208" y="69.8613426666725" width="8" height="2" fill="#ef5350"/><line x1="224" y1="49.91020799999808" x2="224" y2="123.0643693333302" stroke="#ef5350" stroke-width="2"/><rect x="220" y="71.19141866666428" width="8" height="37.242118666669285" fill="#ef5350"/><line x1="236" y1="71.19141866666428" x2="236" y2="120.53722533332802" stroke="#26a69a" stroke-width="2"/><rect x="232" y="95.26578800000607" width="8" height="6.517370666658053" fill="#26a69a"/><line x1="248" y1="64.54103999999461" x2="248" y2="117.74406666666732" stroke="#ef5350" stroke-width="2"/><rect x="244" y="95.13277999999445" width="8" height="17.290984000010212" fill="#ef5350"/><line x1="260" y1="91.14255333333858" x2="260" y2="136.36512533333484" stroke="#ef5350" stroke-width="2"/><rect x="256" y="111.09368799999788" width="8" height="21.281210666666084" fill="#ef5350"/><line x1="272" y1="107.10346133332678" x2="272" y2="144.3455799999963" stroke="#26a69a" stroke-width="2"/><rect x="268" y="108.43353733333356" width="8" height="25.27143733333719" fill="#26a69a"/><line x1="284" y1="88.48240133334002" x2="284" y2="118.40910399999598" stroke="#26a69a" stroke-width="2"/><rect x="280" y="108.43353733333356" width="8" height="2" fill="#26a69a"/><line x1="296" y1="57.89066133334018" x2="296" y2="109.7636120000061" stroke="#26a69a" stroke-width="2"/><rect x="292" y="93.80270400000268" width="8" height="15.960908000003428" fill="#26a69a"/><line x1="308" y1="39.269602666672654" x2="308" y2="103.1132346666709" stroke="#26a69a" stroke-width="2"/><rect x="304" y="68.53126666666572" width="8" height="26.60151333332874" fill="#26a69a"/><line x1="320" y1="37.2744893333371" x2="320" y2="77.84179599999948" stroke="#26a69a" stroke-width="2"/><rect x="316" y="37.939526666665756" width="8" height="27.931589333335637" fill="#26a69a"/><line x1="332" y1="33.949299999994764" x2="332" y2="76.51172133332693" stroke="#ef5350" stroke-width="2"/><rect x="328" y="37.939526666665756" width="8" height="25.271437333337076" fill="#ef5350"/><line x1="344" y1="39.269602666672654" x2="344" y2="65.8711160000014" stroke="#26a69a" stroke-width="2"/><rect x="340" y="52.57035866666229" width="8" height="11.970681333332323" fill="#26a69a"/><line x1="356" y1="10.00793733333012" x2="356" y2="73.85156933332837" stroke="#26a69a" stroke-width="2"/><rect x="352" y="41.92975333333686" width="8" height="10.640605333325425" fill="#26a69a"/><line x1="368" y1="10.00793733333012" x2="368" y2="52.57035866666229" stroke="#26a69a" stroke-width="2"/><rect x="364" y="33.949299999994764" width="8" height="9.310529333333761" fill="#26a69a"/><line x1="380" y1="-24.574029333340718" x2="380" y2="43.259829333328526" stroke="#26a69a" stroke-width="2"/><rect x="376" y="-13.933424000000173" width="8" height="53.20302666667283" fill="#26a69a"/><line x1="392" y1="-60.486073333337686" x2="392" y2="-15.263500000006957" stroke="#26a69a" stroke-width="2"/><rect x="388" y="-51.042536000007544" width="8" height="35.77903600000059" fill="#26a69a"/><line x1="404" y1="-48.51539200000536" x2="404" y2="-24.574029333340718" stroke="#26a69a" stroke-width="2"/><rect x="400" y="-45.8552400000068" width="8" height="2" fill="#26a69a"/><line x1="416" y1="-47.18531599999858" x2="416" y2="-12.603349333327628" stroke="#ef5350" stroke-width="2"/><rect x="412" y="-45.8552400000068" width="8" height="23.941361333345412" fill="#ef5350"/><line x1="428" y1="-25.904105333332495" x2="428" y2="8.677861333338456" stroke="#ef5350" stroke-width="2"/><rect x="424" y="-23.243954666668287" width="8" height="18.621060000001876" fill="#ef5350"/><line x1="440" y1="-29.894332000003487" x2="440" y2="-4.6228946666664115" stroke="#26a69a" stroke-width="2"/><rect x="436" y="-21.24883999999838" width="8" height="13.965793333333409" fill="#26a69a"/><line x1="452" y1="-41.86501333333581" x2="452" y2="-8.613121333337403" stroke="#26a69a" stroke-width="2"/><rect x="448" y="-32.55448400000205" width="8" height="10.640605333340659" fill="#26a69a"/><line x1="464" y1="-39.33786933333374" x2="464" y2="-20.583802666669726" stroke="#ef5350" stroke-width="2"/><rect x="460" y="-31.22440799999515" width="8" height="2.6601506666640944" fill="#ef5350"/><line x1="476" y1="-27.23418133333928" x2="476" y2="7.347786666665911" stroke="#ef5350" stroke-width="2"/><rect x="472" y="-27.23418133333928" width="8" height="18.621060000001876" fill="#ef5350"/><line x1="488" y1="-11.273273333335965" x2="488" y2="18.121398666668597" stroke="#ef5350" stroke-width="2"/><rect x="484" y="-8.613121333337403" width="8" height="18.621058666667523" fill="#ef5350"/><line x1="500" y1="-11.273273333335965" x2="500" y2="28.628997333331995" stroke="#ef5350" stroke-width="2"/><rect x="496" y="11.338013333337017" width="8" height="11.970681333332323" fill="#ef5350"/><line x1="512" y1="21.97861866666244" x2="512" y2="49.7772000000017" stroke="#ef5350" stroke-width="2"/><rect x="508" y="21.97861866666244" width="8" height="2.660150666664208" fill="#ef5350"/><line x1="524" y1="23.30869466666934" x2="524" y2="39.269602666672654" stroke="#ef5350" stroke-width="2"/><rect x="520" y="24.63876933332665" width="8" height="5.32030266667789" fill="#ef5350"/><line x1="536" y1="-1.9627440000022034" x2="536" y2="32.6192240000031" stroke="#26a69a" stroke-width="2"/><rect x="532" y="19.31846666666388" width="8" height="10.640605333340659" fill="#26a69a"/><line x1="548" y1="17.98839200000657" x2="548" y2="77.84179599999948" stroke="#ef5350" stroke-width="2"/><rect x="544" y="19.31846666666388" width="8" height="58.523329333335596" fill="#ef5350"/><line x1="560" y1="47.25005599999952" x2="560" y2="164.2967146666706" stroke="#ef5350" stroke-width="2"/><rect x="556" y="75.18164533333515" width="8" height="11.970681333332323" fill="#ef5350"/><line x1="572" y1="28.628997333331995" x2="572" y2="100.45308266667234" stroke="#26a69a" stroke-width="2"/><rect x="568" y="68.53126666666572" width="8" height="20.61617333333743" fill="#26a69a"/><line x1="584" y1="329.2260973333366" x2="584" y2="563.3194146666634" stroke="#ef5350" stroke-width="2"/><rect x="580" y="427.65169733334005" width="8" height="51.87295066666593" fill="#ef5350"/><line x1="596" y1="403.71033466666023" x2="596" y2="492.8254039999956" stroke="#ef5350" stroke-width="2"/><rect x="592" y="471.54419333332953" width="8" height="18.621060000001876" fill="#ef5350"/><line x1="608" y1="374.4486706666673" x2="608" y2="518.0968426666672" stroke="#26a69a" stroke-width="2"/><rect x="604" y="410.36071333332984" width="8" height="81.13461600000846" fill="#26a69a"/><line x1="620" y1="392.40469200000615" x2="620" y2="495.4855559999942" stroke="#26a69a" stroke-width="2"/><rect x="616" y="401.0501839999961" width="8" height="9.310529333333761" fill="#26a69a"/><line x1="632" y1="319.91556800000285" x2="632" y2="406.37048666667397" stroke="#26a69a" stroke-width="2"/><rect x="628" y="367.7982919999977" width="8" height="29.261664000008125" fill="#26a69a"/><line x1="644" y1="363.8080653333266" x2="644" y2="424.9915453333263" stroke="#ef5350" stroke-width="2"/><rect x="640" y="369.1283680000045" width="8" height="47.88272399999494" fill="#ef5350"/><line x1="656" y1="387.74942666667204" x2="656" y2="554.0088853333297" stroke="#ef5350" stroke-width="2"/><rect x="652" y="418.3411666666719" width="8" height="45.222573333330786" fill="#ef5350"/><line x1="668" y1="423.66146933333465" x2="668" y2="471.54419333332953" stroke="#ef5350" stroke-width="2"/><rect x="664" y="462.23366399999577" width="8" height="3.990226666670992" fill="#ef5350"/><line x1="680" y1="442.2825293333365" x2="680" y2="511.4464639999975" stroke="#ef5350" stroke-width="2"/><rect x="676" y="464.89381599999433" width="8" height="43.8924960000046" fill="#ef5350"/><line x1="692" y1="446.2727560000076" x2="692" y2="544.6983559999959" stroke="#26a69a" stroke-width="2"/><rect x="688" y="446.2727560000076" width="8" height="62.513555999991354" fill="#26a69a"/><line x1="704" y1="409.0306373333381" x2="704" y2="466.22389066666676" stroke="#26a69a" stroke-width="2"/><rect x="700" y="419.6712426666636" width="8" height="26.601513333343973" fill="#26a69a"/><line x1="716" y1="366.46821600000595" x2="716" y2="459.57351333333156" stroke="#ef5350" stroke-width="2"/><rect x="712" y="418.3411666666719" width="8" height="29.261665333327414" fill="#ef5350"/><line x1="728" y1="443.61260533332825" x2="728" y2="504.79608533332794" stroke="#ef5350" stroke-width="2"/><rect x="724" y="448.93290800000614" width="8" height="55.8631773333218" fill="#ef5350"/><line x1="740" y1="462.23366399999577" x2="740" y2="511.4464639999975" stroke="#26a69a" stroke-width="2"/><rect x="736" y="495.4855559999942" width="8" height="10.640605333340659" fill="#26a69a"/><line x1="752" y1="462.23366399999577" x2="752" y2="510.1163880000058" stroke="#ef5350" stroke-width="2"/><rect x="748" y="498.1457066666735" width="8" height="7.9804546666613305" fill="#ef5350"/><line x1="764" y1="463.56374000000267" x2="764" y2="532.7276746666636" stroke="#26a69a" stroke-width="2"/><rect x="760" y="470.2141186666722" width="8" height="38.57219333332671" fill="#26a69a"/><line x1="776" y1="459.57351333333156" x2="776" y2="589.9209280000074" stroke="#ef5350" stroke-width="2"/><rect x="772" y="471.54419333332953" width="8" height="66.50378399999681" fill="#ef5350"/><line x1="788" y1="542.0382039999973" x2="788" y2="623.1728200000058" stroke="#ef5350" stroke-width="2"/><rect x="784" y="542.0382039999973" width="8" height="45.22257333333073" fill="#ef5350"/><line x1="800" y1="519.4269173333396" x2="800" y2="604.5517600000039" stroke="#26a69a" stroke-width="2"/><rect x="796" y="568.6397173333262" width="8" height="15.960908000003315" fill="#26a69a"/><line x1="812" y1="544.6983559999959" x2="812" y2="583.2705493333378" stroke="#26a69a" stroke-width="2"/><rect x="808" y="553.343848000001" width="8" height="12.635718666660978" fill="#26a69a"/><line x1="824" y1="532.7276746666636" x2="824" y2="583.2705493333378" stroke="#ef5350" stroke-width="2"/><rect x="820" y="552.678809333338" width="8" height="3.9902266666558717" fill="#ef5350"/><line x1="836" y1="515.4366906666686" x2="836" y2="572.6299439999972" stroke="#26a69a" stroke-width="2"/><rect x="832" y="552.678809333338" width="8" height="2" fill="#26a69a"/><line x1="848" y1="530.067522666665" x2="848" y2="576.6201720000026" stroke="#26a69a" stroke-width="2"/><rect x="844" y="547.3585066666601" width="8" height="6.650378666669553" fill="#26a69a"/><line x1="860" y1="495.4855559999942" x2="860" y2="560.6592639999993" stroke="#26a69a" stroke-width="2"/><rect x="856" y="503.4660093333363" width="8" height="46.55264933333751" fill="#26a69a"/><line x1="872" y1="474.2043453333281" x2="872" y2="523.4171453333298" stroke="#ef5350" stroke-width="2"/><rect x="868" y="507.4562373333265" width="8" height="5.32030266667789" fill="#ef5350"/><line x1="884" y1="496.8156320000011" x2="884" y2="534.0577506666705" stroke="#26a69a" stroke-width="2"/><rect x="880" y="499.47578266666517" width="8" height="17.290983999995092" fill="#26a69a"/><line x1="896" y1="484.84495066666875" x2="896" y2="527.4073720000009" stroke="#ef5350" stroke-width="2"/><rect x="892" y="498.1457066666735" width="8" height="29.261665333327414" fill="#ef5350"/><line x1="908" y1="512.7765400000044" x2="908" y2="568.6397173333262" stroke="#ef5350" stroke-width="2"/><rect x="904" y="526.077295999994" width="8" height="9.310529333333761" fill="#ef5350"/><line x1="920" y1="516.7667666666603" x2="920" y2="554.0088853333297" stroke="#ef5350" stroke-width="2"/><rect x="916" y="534.0577506666705" width="8" height="2.660150666664208" fill="#ef5350"/><line x1="932" y1="454.2532106666689" x2="932" y2="536.7179013333347" stroke="#26a69a" stroke-width="2"/><rect x="928" y="479.524648000006" width="8" height="55.8631773333218" fill="#26a69a"/><line x1="944" y1="409.0306373333381" x2="944" y2="476.8644960000074" stroke="#26a69a" stroke-width="2"/><rect x="940" y="414.3509400000009" width="8" height="62.51355600000653" fill="#26a69a"/><line x1="956" y1="386.4193506666652" x2="956" y2="419.6712426666636" stroke="#26a69a" stroke-width="2"/><rect x="952" y="397.0599560000058" width="8" height="17.290983999995092" fill="#26a69a"/><line x1="968" y1="390.4095786666706" x2="968" y2="436.9622266666738" stroke="#ef5350" stroke-width="2"/><rect x="964" y="394.39980533332647" width="8" height="21.281210666666084" fill="#ef5350"/><line x1="980" y1="371.7885186666687" x2="980" y2="565.979566666662" stroke="#ef5350" stroke-width="2"/><rect x="976" y="415.68101599999255" width="8" height="98.42559866666915" fill="#ef5350"/><line x1="992" y1="494.1554800000025" x2="992" y2="782.7818999999939" stroke="#ef5350" stroke-width="2"/><rect x="988" y="523.4171453333298" width="8" height="129.01733866666893" fill="#ef5350"/><line x1="1004" y1="569.9697933333331" x2="1004" y2="734.899175999999" stroke="#26a69a" stroke-width="2"/><rect x="1000" y="588.5908520000006" width="8" height="69.16393466666102" fill="#26a69a"/><line x1="1016" y1="518.0968426666672" x2="1016" y2="600.5615333333329" stroke="#26a69a" stroke-width="2"/><rect x="1012" y="534.0577506666705" width="8" height="61.18347999999969" fill="#26a69a"/><line x1="1028" y1="495.4855559999942" x2="1028" y2="596.5713066666618" stroke="#ef5350" stroke-width="2"/><rect x="1024" y="532.7276746666636" width="8" height="34.58196666667095" fill="#ef5350"/><line x1="1040" y1="530.067522666665" x2="1040" y2="631.1532733333328" stroke="#ef5350" stroke-width="2"/><rect x="1036" y="564.6494906666703" width="8" height="42.56242133333217" fill="#ef5350"/><line x1="1052" y1="583.2705493333378" x2="1052" y2="679.0359973333277" stroke="#ef5350" stroke-width="2"/><rect x="1048" y="597.9013826666687" width="8" height="55.863177333337035" fill="#ef5350"/><line x1="1064" y1="627.1630466666617" x2="1064" y2="710.9578133333343" stroke="#ef5350" stroke-width="2"/><rect x="1060" y="660.4149386666602" width="8" height="46.552648000003046" fill="#ef5350"/><line x1="1076" y1="631.1532733333328" x2="1076" y2="728.2487973333294" stroke="#26a69a" stroke-width="2"/><rect x="1072" y="667.0653173333296" width="8" height="37.24211866666951" fill="#26a69a"/><line x1="1088" y1="620.5126680000072" x2="1088" y2="702.9773600000074" stroke="#ef5350" stroke-width="2"/><rect x="1084" y="671.0555440000007" width="8" height="15.960908000003428" fill="#ef5350"/><line x1="1100" y1="629.8231986666602" x2="1100" y2="698.9871333333365" stroke="#26a69a" stroke-width="2"/><rect x="1096" y="639.133727999994" width="8" height="47.88272400001017" fill="#26a69a"/><line x1="1112" y1="582.6055119999941" x2="1112" y2="639.7987653333379" stroke="#26a69a" stroke-width="2"/><rect x="1108" y="592.581080000006" width="8" height="45.222571999996376" fill="#26a69a"/><line x1="1124" y1="576.6201720000026" x2="1124" y2="629.8231986666602" stroke="#26a69a" stroke-width="2"/><rect x="1120" y="576.6201720000026" width="8" height="15.960908000003315" fill="#26a69a"/><line x1="1136" y1="539.3780533333332" x2="1136" y2="620.5126680000072" stroke="#ef5350" stroke-width="2"/><rect x="1132" y="576.6201720000026" width="8" height="42.56242133333217" fill="#ef5350"/><line x1="1148" y1="609.207025333338" x2="1148" y2="680.3660733333345" stroke="#ef5350" stroke-width="2"/><rect x="1144" y="621.842743999999" width="8" height="41.232345333340504" fill="#ef5350"/><line x1="1160" y1="483.51487466666185" x2="1160" y2="668.3953920000022" stroke="#26a69a" stroke-width="2"/><rect x="1156" y="629.8231986666602" width="8" height="31.25677733334362" fill="#26a69a"/><line x1="1172" y1="621.842743999999" x2="1172" y2="704.3074359999991" stroke="#ef5350" stroke-width="2"/><rect x="1168" y="628.4931226666686" width="8" height="49.212800000001835" fill="#ef5350"/><line x1="1184" y1="645.7841066666637" x2="1184" y2="741.5495546666685" stroke="#ef5350" stroke-width="2"/><rect x="1180" y="679.0359973333277" width="8" height="18.621060000001762" fill="#ef5350"/><line x1="1196" y1="655.0946359999973" x2="1196" y2="722.9284946666667" stroke="#26a69a" stroke-width="2"/><rect x="1192" y="671.0555440000007" width="8" height="30.591739999999845" fill="#26a69a"/><line x1="1208" y1="663.0750893333395" x2="1208" y2="720.2683440000026" stroke="#ef5350" stroke-width="2"/><rect x="1204" y="667.0653173333296" width="8" height="29.261664000008295" fill="#ef5350"/><line x1="1220" y1="649.109296000006" x2="1220" y2="712.2878893333261" stroke="#26a69a" stroke-width="2"/><rect x="1216" y="669.725467999994" width="8" height="30.591739999999845" fill="#26a69a"/><line x1="1232" y1="632.4833493333396" x2="1232" y2="672.3856199999925" stroke="#26a69a" stroke-width="2"/><rect x="1228" y="657.089749333333" width="8" height="5.985340000006545" fill="#26a69a"/><line x1="1244" y1="639.133727999994" x2="1244" y2="684.3563000000056" stroke="#26a69a" stroke-width="2"/><rect x="1240" y="639.133727999994" width="8" height="19.95113466667442" fill="#26a69a"/><line x1="1256" y1="633.8134253333313" x2="1256" y2="683.0262253333331" stroke="#ef5350" stroke-width="2"/><rect x="1252" y="640.4638040000009" width="8" height="30.591739999999845" fill="#ef5350"/><line x1="1268" y1="672.3856199999925" x2="1268" y2="838.6450773333308" stroke="#ef5350" stroke-width="2"/><rect x="1264" y="672.3856199999925" width="8" height="138.99290666668082" fill="#ef5350"/><line x1="1280" y1="796.0826559999987" x2="1280" y2="918.4496173333324" stroke="#ef5350" stroke-width="2"/><rect x="1276" y="816.0337920000075" width="8" height="21.281210666666084" fill="#ef5350"/><line x1="1292" y1="802.7330346666682" x2="1292" y2="939.7308279999985" stroke="#ef5350" stroke-width="2"/><rect x="1288" y="829.3345479999971" width="8" height="105.74101600000176" fill="#ef5350"/><line x1="1304" y1="869.236818666665" x2="1304" y2="951.0364720000022" stroke="#26a69a" stroke-width="2"/><rect x="1300" y="873.2270453333362" width="8" height="58.52332933333548" fill="#26a69a"/><line x1="1316" y1="809.3834133333379" x2="1316" y2="879.8774240000057" stroke="#26a69a" stroke-width="2"/><rect x="1312" y="821.3540946666702" width="8" height="49.21279866666737" fill="#26a69a"/><line x1="1328" y1="730.908949333328" x2="1328" y2="825.3443213333261" stroke="#26a69a" stroke-width="2"/><rect x="1324" y="745.5397813333396" width="8" height="75.81431333333057" fill="#26a69a"/><line x1="1340" y1="714.9480413333397" x2="1340" y2="756.1803866666651" stroke="#26a69a" stroke-width="2"/><rect x="1336" y="726.9187213333377" width="8" height="17.290983999995092" fill="#26a69a"/><line x1="1352" y1="687.0164520000042" x2="1352" y2="729.5788733333362" stroke="#26a69a" stroke-width="2"/><rect x="1348" y="696.3269813333379" width="8" height="31.92181599999151" fill="#26a69a"/><line x1="1364" y1="636.4735759999954" x2="1364" y2="692.3367546666668" stroke="#26a69a" stroke-width="2"/><rect x="1360" y="644.4540306666719" width="8" height="43.89249733332383" fill="#26a69a"/><line x1="1376" y1="607.2119120000025" x2="1376" y2="684.3563000000056" stroke="#ef5350" stroke-width="2"/><rect x="1372" y="649.7743333333347" width="8" height="30.591739999999845" fill="#ef5350"/><line x1="1388" y1="676.3758466666634" x2="1388" y2="749.5300079999955" stroke="#ef5350" stroke-width="2"/><rect x="1384" y="683.0262253333331" width="8" height="46.55264800000316" fill="#ef5350"/><line x1="1400" y1="679.0359973333277" x2="1400" y2="736.2292520000059" stroke="#26a69a" stroke-width="2"/><rect x="1396" y="710.9578133333343" width="8" height="19.951135999993653" fill="#26a69a"/><line x1="1412" y1="693.6668306666736" x2="1412" y2="728.2487973333294" stroke="#26a69a" stroke-width="2"/><rect x="1408" y="712.2878893333261" width="8" height="2" fill="#26a69a"/><line x1="1424" y1="693.6668306666736" x2="1424" y2="741.5495546666685" stroke="#ef5350" stroke-width="2"/><rect x="1420" y="713.6179653333329" width="8" height="19.95113466667442" fill="#ef5350"/><line x1="1436" y1="701.6472840000006" x2="1436" y2="742.8796293333259" stroke="#ef5350" stroke-width="2"/><rect x="1432" y="732.2390240000004" width="8" height="9.310530666668114" fill="#ef5350"/><line x1="1448" y1="691.00667866666" x2="1448" y2="741.5495546666685" stroke="#26a69a" stroke-width="2"/><rect x="1444" y="706.9675866666632" width="8" height="33.25189199999852" fill="#26a69a"/><line x1="1460" y1="694.9969053333309" x2="1460" y2="740.2194786666618" stroke="#ef5350" stroke-width="2"/><rect x="1456" y="705.6375106666717" width="8" height="18.621060000001876" fill="#ef5350"/><line x1="1472" y1="705.6375106666717" x2="1472" y2="756.1803866666651" stroke="#26a69a" stroke-width="2"/><rect x="1468" y="720.2683440000026" width="8" height="3.990226666670992" fill="#26a69a"/><line x1="1484" y1="701.6472840000006" x2="1484" y2="758.8405373333293" stroke="#ef5350" stroke-width="2"/><rect x="1480" y="720.2683440000026" width="8" height="19.951134666659186" fill="#ef5350"/><line x1="1496" y1="643.1239546666651" x2="1496" y2="737.5593266666632" stroke="#26a69a" stroke-width="2"/><rect x="1492" y="672.3856199999925" width="8" height="51.87295066668105" fill="#26a69a"/><line x1="1508" y1="599.231457333326" x2="1508" y2="679.0359973333277" stroke="#26a69a" stroke-width="2"/><rect x="1504" y="621.842743999999" width="8" height="38.572194666661176" fill="#26a69a"/><rect x="75" y="945.5206022675973" width="10" height="74.47939773240273" fill="#26a69a" opacity="0.9"/><rect x="87" y="988.201738859316" width="10" height="31.798261140683962" fill="#ef5350" opacity="0.9"/><rect x="99" y="963.7571897643089" width="10" height="56.24281023569108" fill="#26a69a" opacity="0.9"/><rect x="111" y="980.5775844990143" width="10" height="39.42241550098572" fill="#26a69a" opacity="0.9"/><rect x="123" y="972.81897220878" width="10" height="47.181027791220004" fill="#26a69a" opacity="0.9"/><rect x="135" y="982.152593511593" width="10" height="37.847406488407046" fill="#26a69a" opacity="0.9"/><rect x="147" y="974.3077527662933" width="10" height="45.69224723370667" fill="#26a69a" opacity="0.9"/><rect x="159" y="961.7408079817345" width="10" height="58.25919201826548" fill="#26a69a" opacity="0.9"/><rect x="171" y="976.066423516497" width="10" height="43.933576483502975" fill="#26a69a" opacity="0.9"/><rect x="183" y="977.5659217350919" width="10" height="42.43407826490807" fill="#26a69a" opacity="0.9"/><rect x="195" y="995.5701308528985" width="10" height="24.4298691471015" fill="#ef5350" opacity="0.9"/><rect x="207" y="993.604901543668" width="10" height="26.395098456331993" fill="#ef5350" opacity="0.9"/><rect x="219" y="989.7596970474467" width="10" height="30.240302952553293" fill="#ef5350" opacity="0.9"/><rect x="231" y="1003.3535886301855" width="10" height="16.646411369814473" fill="#26a69a" opacity="0.9"/><rect x="243" y="997.7687128738596" width="10" height="22.231287126140387" fill="#ef5350" opacity="0.9"/><rect x="255" y="989.2944531232239" width="10" height="30.70554687677611" fill="#ef5350" opacity="0.9"/><rect x="267" y="997.4257477192492" width="10" height="22.574252280750784" fill="#26a69a" opacity="0.9"/><rect x="279" y="989.0464854191092" width="10" height="30.953514580890783" fill="#26a69a" opacity="0.9"/><rect x="291" y="998.3591585661718" width="10" height="21.6408414338282" fill="#26a69a" opacity="0.9"/><rect x="303" y="986.1278714400314" width="10" height="33.87212855996859" fill="#26a69a" opacity="0.9"/><rect x="315" y="999.4250786773757" width="10" height="20.574921322624277" fill="#26a69a" opacity="0.9"/><rect x="327" y="995.6471031461207" width="10" height="24.352896853879315" fill="#ef5350" opacity="0.9"/><rect x="339" y="992.7187458387868" width="10" height="27.281254161213155" fill="#26a69a" opacity="0.9"/><rect x="351" y="976.1555749700393" width="10" height="43.84442502996069" fill="#26a69a" opacity="0.9"/><rect x="363" y="997.6401009408808" width="10" height="22.359899059119243" fill="#26a69a" opacity="0.9"/><rect x="375" y="997.547539322449" width="10" height="22.452460677551016" fill="#26a69a" opacity="0.9"/><rect x="387" y="994.6079771876208" width="10" height="25.392022812379196" fill="#26a69a" opacity="0.9"/><rect x="399" y="1001.6548393487559" width="10" height="18.3451606512441" fill="#26a69a" opacity="0.9"/><rect x="411" y="1000.4554356404452" width="10" height="19.544564359554784" fill="#ef5350" opacity="0.9"/><rect x="423" y="999.339337388723" width="10" height="20.660662611276962" fill="#ef5350" opacity="0.9"/><rect x="435" y="986.4182226220596" width="10" height="33.5817773779404" fill="#26a69a" opacity="0.9"/><rect x="447" y="997.4715413620523" width="10" height="22.528458637947665" fill="#26a69a" opacity="0.9"/><rect x="459" y="1005.398713231115" width="10" height="14.601286768884961" fill="#ef5350" opacity="0.9"/><rect x="471" y="997.7234063974694" width="10" height="22.276593602530625" fill="#ef5350" opacity="0.9"/><rect x="483" y="999.5268964576507" width="10" height="20.47310354234935" fill="#ef5350" opacity="0.9"/><rect x="495" y="985.9193642153535" width="10" height="34.08063578464646" fill="#ef5350" opacity="0.9"/><rect x="507" y="993.256090392104" width="10" height="26.743909607895944" fill="#ef5350" opacity="0.9"/><rect x="519" y="995.8395338791762" width="10" height="24.1604661208238" fill="#ef5350" opacity="0.9"/><rect x="531" y="983.7660886707827" width="10" height="36.233911329217335" fill="#26a69a" opacity="0.9"/><rect x="543" y="993.3671643342221" width="10" height="26.63283566577786" fill="#ef5350" opacity="0.9"/><rect x="555" y="945.2360970825227" width="10" height="74.76390291747725" fill="#ef5350" opacity="0.9"/><rect x="567" y="931.1277577678685" width="10" height="88.8722422321315" fill="#26a69a" opacity="0.9"/><rect x="579" y="942.9732090950722" width="10" height="77.0267909049278" fill="#ef5350" opacity="0.9"/><rect x="591" y="981.9996232579741" width="10" height="38.00037674202588" fill="#ef5350" opacity="0.9"/><rect x="603" y="980.5717385020607" width="10" height="39.428261497939275" fill="#26a69a" opacity="0.9"/><rect x="615" y="990.8641033052618" width="10" height="29.13589669473822" fill="#26a69a" opacity="0.9"/><rect x="627" y="985.0556181654612" width="10" height="34.94438183453883" fill="#26a69a" opacity="0.9"/><rect x="639" y="992.8293326144923" width="10" height="27.170667385507727" fill="#ef5350" opacity="0.9"/><rect x="651" y="975.6445374030133" width="10" height="44.35546259698674" fill="#ef5350" opacity="0.9"/><rect x="663" y="993.2629107218831" width="10" height="26.737089278116855" fill="#ef5350" opacity="0.9"/><rect x="675" y="981.1763120203441" width="10" height="38.823687979655915" fill="#ef5350" opacity="0.9"/><rect x="687" y="995.5477211979097" width="10" height="24.45227880209029" fill="#26a69a" opacity="0.9"/><rect x="699" y="998.2553921202457" width="10" height="21.744607879754312" fill="#26a69a" opacity="0.9"/><rect x="711" y="984.7146016765021" width="10" height="35.28539832349793" fill="#ef5350" opacity="0.9"/><rect x="723" y="993.1211452957588" width="10" height="26.878854704241235" fill="#ef5350" opacity="0.9"/><rect x="735" y="998.9944235684615" width="10" height="21.005576431538543" fill="#26a69a" opacity="0.9"/><rect x="747" y="992.7055923456413" width="10" height="27.29440765435868" fill="#ef5350" opacity="0.9"/><rect x="759" y="996.6360509641023" width="10" height="23.36394903589769" fill="#26a69a" opacity="0.9"/><rect x="771" y="977.54643507858" width="10" height="42.453564921420025" fill="#ef5350" opacity="0.9"/><rect x="783" y="974.780791353121" width="10" height="45.219208646879" fill="#ef5350" opacity="0.9"/><rect x="795" y="984.7867023055962" width="10" height="35.213297694403764" fill="#26a69a" opacity="0.9"/><rect x="807" y="1003.289282663696" width="10" height="16.710717336304015" fill="#26a69a" opacity="0.9"/><rect x="819" y="999.3027999077632" width="10" height="20.697200092236812" fill="#ef5350" opacity="0.9"/><rect x="831" y="996.5147465273154" width="10" height="23.485253472684576" fill="#26a69a" opacity="0.9"/><rect x="843" y="992.9160482359704" width="10" height="27.08395176402962" fill="#26a69a" opacity="0.9"/><rect x="855" y="993.2346550699408" width="10" height="26.7653449300592" fill="#26a69a" opacity="0.9"/><rect x="867" y="988.2192768501768" width="10" height="31.78072314982319" fill="#ef5350" opacity="0.9"/><rect x="879" y="990.2171463090649" width="10" height="29.7828536909351" fill="#26a69a" opacity="0.9"/><rect x="891" y="998.5316154763026" width="10" height="21.46838452369741" fill="#ef5350" opacity="0.9"/><rect x="903" y="995.762561585954" width="10" height="24.237438414045982" fill="#ef5350" opacity="0.9"/><rect x="915" y="1003.9601108141201" width="10" height="16.03988918587993" fill="#ef5350" opacity="0.9"/><rect x="927" y="996.8586860147514" width="10" height="23.141313985248644" fill="#26a69a" opacity="0.9"/><rect x="939" y="991.3663718768573" width="10" height="28.63362812314267" fill="#26a69a" opacity="0.9"/><rect x="951" y="992.5306996034466" width="10" height="27.46930039655342" fill="#26a69a" opacity="0.9"/><rect x="963" y="1001.8160914313924" width="10" height="18.18390856860765" fill="#ef5350" opacity="0.9"/><rect x="975" y="959.8535252985519" width="10" height="60.14647470144814" fill="#ef5350" opacity="0.9"/><rect x="987" y="864.9822509036937" width="10" height="155.01774909630626" fill="#ef5350" opacity="0.9"/><rect x="999" y="974.5898221193038" width="10" height="45.41017788069621" fill="#26a69a" opacity="0.9"/><rect x="1011" y="982.0590575603355" width="10" height="37.94094243966447" fill="#26a69a" opacity="0.9"/><rect x="1023" y="976.8863245892376" width="10" height="43.113675410762426" fill="#ef5350" opacity="0.9"/><rect x="1035" y="996.5235155227458" width="10" height="23.47648447725419" fill="#ef5350" opacity="0.9"/><rect x="1047" y="994.9168406933352" width="10" height="25.08315930666481" fill="#ef5350" opacity="0.9"/><rect x="1059" y="996.600487815968" width="10" height="23.399512184032005" fill="#ef5350" opacity="0.9"/><rect x="1071" y="973.7650493824353" width="10" height="46.234950617564664" fill="#26a69a" opacity="0.9"/><rect x="1083" y="974.2897276090197" width="10" height="45.71027239098032" fill="#ef5350" opacity="0.9"/><rect x="1095" y="985.5642199004232" width="10" height="34.435780099576846" fill="#26a69a" opacity="0.9"/><rect x="1107" y="993.2068865844113" width="10" height="26.793113415588664" fill="#26a69a" opacity="0.9"/><rect x="1119" y="1000.7823243034333" width="10" height="19.217675696566744" fill="#26a69a" opacity="0.9"/><rect x="1131" y="997.7355855577892" width="10" height="22.26441444221075" fill="#ef5350" opacity="0.9"/><rect x="1143" y="999.7904534869748" width="10" height="20.209546513025202" fill="#ef5350" opacity="0.9"/><rect x="1155" y="935.1649058307324" width="10" height="84.83509416926756" fill="#26a69a" opacity="0.9"/><rect x="1167" y="995.0098894781798" width="10" height="24.990110521820156" fill="#ef5350" opacity="0.9"/><rect x="1179" y="996.6087696449856" width="10" height="23.391230355014386" fill="#ef5350" opacity="0.9"/><rect x="1191" y="997.6839459180326" width="10" height="22.316054081967422" fill="#26a69a" opacity="0.9"/><rect x="1203" y="1003.3384864713887" width="10" height="16.661513528611295" fill="#ef5350" opacity="0.9"/><rect x="1215" y="1000.2298775913193" width="10" height="19.770122408680663" fill="#26a69a" opacity="0.9"/><rect x="1227" y="1003.8967791804562" width="10" height="16.10322081954382" fill="#26a69a" opacity="0.9"/><rect x="1239" y="1002.475714754322" width="10" height="17.524285245678016" fill="#26a69a" opacity="0.9"/><rect x="1251" y="998.5813064504081" width="10" height="21.41869354959192" fill="#ef5350" opacity="0.9"/><rect x="1263" y="963.2286142064222" width="10" height="56.77138579357779" fill="#ef5350" opacity="0.9"/><rect x="1275" y="953.9354277158716" width="10" height="66.06457228412842" fill="#ef5350" opacity="0.9"/><rect x="1287" y="983.5824269331575" width="10" height="36.417573066842465" fill="#ef5350" opacity="0.9"/><rect x="1299" y="972.1437595606409" width="10" height="47.85624043935911" fill="#26a69a" opacity="0.9"/><rect x="1311" y="984.0009028817517" width="10" height="35.9990971182483" fill="#26a69a" opacity="0.9"/><rect x="1323" y="973.3801879163243" width="10" height="46.6198120836757" fill="#26a69a" opacity="0.9"/><rect x="1335" y="1001.2465938948305" width="10" height="18.75340610516946" fill="#26a69a" opacity="0.9"/><rect x="1347" y="991.0881998551492" width="10" height="28.91180014485076" fill="#26a69a" opacity="0.9"/><rect x="1359" y="958.9147556210885" width="10" height="61.08524437891151" fill="#26a69a" opacity="0.9"/><rect x="1371" y="963.9744659844172" width="10" height="56.02553401558282" fill="#ef5350" opacity="0.9"/><rect x="1383" y="970.0182525015996" width="10" height="49.98174749840041" fill="#ef5350" opacity="0.9"/><rect x="1395" y="995.1511677378915" width="10" height="24.848832262108544" fill="#26a69a" opacity="0.9"/><rect x="1407" y="997.3336732672302" width="10" height="22.66632673276979" fill="#26a69a" opacity="0.9"/><rect x="1419" y="989.1478160329714" width="10" height="30.852183967028623" fill="#ef5350" opacity="0.9"/><rect x="1431" y="993.3725231647629" width="10" height="26.627476835237076" fill="#ef5350" opacity="0.9"/><rect x="1443" y="991.5933914252216" width="10" height="28.406608574778375" fill="#26a69a" opacity="0.9"/><rect x="1455" y="987.2293546993697" width="10" height="32.77064530063035" fill="#ef5350" opacity="0.9"/><rect x="1467" y="991.1934278003138" width="10" height="28.80657219968623" fill="#26a69a" opacity="0.9"/><rect x="1479" y="960.3163333907107" width="10" height="59.683666609289276" fill="#ef5350" opacity="0.9"/><rect x="1491" y="918.3440239296142" width="10" height="101.6559760703858" fill="#26a69a" opacity="0.9"/><rect x="1503" y="860.0" width="10" height="160.0" fill="#26a69a" opacity="0.9"/><rect x="572" y="68.53126666666572" width="12" height="359.12043066667434" fill="#ff0000" opacity="0.50"/><polyline points="320,158.20750180952632,332,149.1602124943256,344,139.96117879645067,356,130.62485256186847,368,121.41765707979175,380,108.52707792932961,392,93.3299718408307,404,80.07423737979775,416,70.3610834706069,428,63.2197522194474,440,55.1751243890219,452,46.819923590070744,464,39.64047778784641,476,35.044896919165126,488,32.66042457765559,500,31.769783633747807,512,31.090639414651378,524,30.982871089448395,536,29.871975430129737,548,34.44052977012382,560,39.46070090313094,572,42.22932621394955,584,83.87649971738642,596,122.57066672843098,608,149.97924259555475,620,173.89076082454267,632,192.35814474601898,644,213.7536635321187,656,237.54509938620072,668,259.32403188909734,680,283.08234428060746,692,298.6242882538893,704,310.15256962653734,716,323.24307080495305,728,340.53383409336675,740,355.2911409416235,752,369.65638097893435,764,379.2333083777673,776,394.358514944967,788,412.7301589819581,800,427.57868834875507,812,439.5563226012503,824,450.70991435351664,836,460.42123768493184,848,468.7009775879536,860,472.0119329922758,872,475.8942765168134,884,478.14013424537427,896,482.8322521267637,908,487.837544813101,920,492.4928168626442,932,491.2577531614412,944,483.9332947651201,956,475.6596434541583,968,469.9473932204304,980,474.15303335816736,992,491.1322191335785,1004,500.4139936922911,1016,503.618161023193,1028,509.68401629082416,1040,518.9723873107445,1052,531.8097370906798,1064,548.4914370502944,1076,559.7841875534414,1088,571.9015460721645,1100,578.3046110176656,1112,579.6642747302636,1124,579.3743601845259,1136,583.1656204844118,1148,590.7760460890737,1160,594.49482252503,1172,602.4196892051805,1184,611.4899147411961,1196,617.1628318134632,1208,624.7022746248755,1220,628.9901978034626,1232,631.6663455682223,1244,632.37752484744,1256,636.0611457191226,1268,652.7580391427061,1280,670.3348928116611,1292,695.5482900676998,1304,712.4700762834739,1316,722.8399827961615,1328,725.0018683711309,1340,725.1844257961087,1352,722.4360977520367,1364,715.0092342200878,1376,711.7098855642023,1388,713.4116939231717,1400,713.1779910098583,1412,713.0932194216257,1424,715.0433032862263,1436,717.5677081796039,1448,716.5581727974161,1460,717.2915440230554,1472,717.5750487827675,1484,719.7316611526578,1496,715.2225143762128,1508,706.3292029118049" fill="none" stroke="#0090ff" stroke-width="2"/><line x1="80" y1="50" x2="80" y2="850" stroke="#666666" stroke-width="0.5" stroke-dasharray="4,4"/><line x1="152" y1="50" x2="152" y2="850" stroke="#666666" stroke-width="0.5" stroke-dasharray="4,4"/><line x1="224" y1="50" x2="224" y2="850" stroke="#666666" stroke-width="0.5" stroke-dasharray="4,4"/><line x1="296" y1="50" x2="296" y2="850" stroke="#666666" stroke-width="0.5" stroke-dasharray="4,4"/><line x1="368" y1="50" x2="368" y2="850" stroke="#666666" stroke-width="0.5" stroke-dasharray="4,4"/><line x1="440" y1="50" x2="440" y2="850" stroke="#666666" stroke-width="0.5" stroke-dasharray="4,4"/><line x1="512" y1="50" x2="512" y2="850" stroke="#666666" stroke-width="0.5" stroke-dasharray="4,4"/><line x1="584" y1="50" x2="584" y2="850" stroke="#666666" stroke-width="0.5" stroke-dasharray="4,4"/><line x1="656" y1="50" x2="656" y2="850" stroke="#666666" stroke-width="0.5" stroke-dasharray="4,4"/><line x1="728" y1="50" x2="728" y2="850" stroke="#666666" stroke-width="0.5" stroke-dasharray="4,4"/><line x1="800" y1="50" x2="800" y2="850" stroke="#666666" stroke-width="0.5" stroke-dasharray="4,4"/><line x1="872" y1="50" x2="872" y2="850" stroke="#666666" stroke-width="0.5" stroke-dasharray="4,4"/><line x1="944" y1="50" x2="944" y2="850" stroke="#666666" stroke-width="0.5" stroke-dasharray="4,4"/><line x1="1016" y1="50" x2="1016" y2="850" stroke="#666666" stroke-width="0.5" stroke-dasharray="4,4"/><line x1="1088" y1="50" x2="1088" y2="850" stroke="#666666" stroke-width="0.5" stroke-dasharray="4,4"/><line x1="1160" y1="50" x2="1160" y2="850" stroke="#666666" stroke-width="0.5" stroke-dasharray="4,4"/><line x1="1232" y1="50" x2="1232" y2="850" stroke="#666666" stroke-width="0.5" stroke-dasharray="4,4"/><line x1="1304" y1="50" x2="1304" y2="850" stroke="#666666" stroke-width="0.5" stroke-dasharray="4,4"/><line x1="1376" y1="50" x2="1376" y2="850" stroke="#666666" stroke-width="0.5" stroke-dasharray="4,4"/><line x1="1448" y1="50" x2="1448" y2="850" stroke="#666666" stroke-width="0.5" stroke-dasharray="4,4"/><text x="80" y="1040" text-anchor="middle" font-size="20" fill="black">09:30</text><text x="152" y="1040" text-anchor="middle" font-size="20" fill="black">10:00</text><text x="224" y="1040" text-anchor="middle" font-size="20" fill="black">10:30</text><text x="296" y="1040" text-anchor="middle" font-size="20" fill="black">11:00</text><text x="368" y="1040" text-anchor="middle" font-size="20" fill="black">11:30</text><text x="440" y="1040" text-anchor="middle" font-size="20" fill="black">12:00</text><text x="512" y="1040" text-anchor="middle" font-size="20" fill="black">12:30</text><text x="584" y="1040" text-anchor="middle" font-size="20" fill="black">09:30</text><text x="656" y="1040" text-anchor="middle" font-size="20" fill="black">10:00</text><text x="728" y="1040" text-anchor="middle" font-size="20" fill="black">10:30</text><text x="800" y="1040" text-anchor="middle" font-size="20" fill="black">11:00</text><text x="872" y="1040" text-anchor="middle" font-size="20" fill="black">11:30</text><text x="944" y="1040" text-anchor="middle" font-size="20" fill="black">12:00</text><text x="1016" y="1040" text-anchor="middle" font-size="20" fill="black">12:30</text><text x="1088" y="1040" text-anchor="middle" font-size="20" fill="black">13:00</text><text x="1160" y="1040" text-anchor="middle" font-size="20" fill="black">13:30</text><text x="1232" y="1040" text-anchor="middle" font-size="20" fill="black">14:00</text><text x="1304" y="1040" text-anchor="middle" font-size="20" fill="black">14:30</text><text x="1376" y="1040" text-anchor="middle" font-size="20" fill="black">15:00</text><text x="1448" y="1040" text-anchor="middle" font-size="20" fill="black">15:30</text><text x="1510" y="50" text-anchor="end" font-size="40" fill="#ef5350" font-weight="bold">▼ -0.26% (Mon)</text></svg>