<svg xmlns="http://www.w3.org/2000/svg" width="1992" height="1050"><rect width="100%" height="100%" fill="white"/><text x="42" y="854.0" text-anchor="end" font-size="20" fill="black">592</text><text x="42" y="739.7142857142858" text-anchor="end" font-size="20" fill="black">593</text><text x="42" y="625.4285714285714" text-anchor="end" font-size="20" fill="black">594</text><text x="42" y="511.14285714285717" text-anchor="end" font-size="20" fill="black">595</text><text x="42" y="396.8571428571429" text-anchor="end" font-size="20" fill="black">596</text><text x="42" y="282.57142857142856" text-anchor="end" font-size="20" fill="black">597</text><text x="42" y="168.28571428571433" text-anchor="end" font-size="20" fill="black">598</text><text x="42" y="54.0" text-anchor="end" font-size="20" fill="black">599</text><line x1="80" y1="603.7398994285727" x2="80" y2="748.5281360000045" stroke="#26a69a" stroke-width="2"/><rect x="76" y="629.9613908571441" width="8" height="51.30291885713757" fill="#26a69a"/><line x1="92" y1="592.3392502857106" x2="92" y2="718.8864502857151" stroke="#ef5350" stroke-width="2"/><rect x="88" y="633.3815851428621" width="8" height="82.08466971427697" fill="#ef5350"/><line x1="104" y1="691.5248937142808" x2="104" y2="834.0329999999994" stroke="#ef5350" stroke-width="2"/><rect x="100" y="714.3261908571471" width="8" height="116.28661485713428" fill="#ef5350"/><line x1="116" y1="745.1079417142864" x2="116" y2="904.7170217142854" stroke="#26a69a" stroke-width="2"/><rect x="112" y="745.1079417142864" width="8" height="90.06512342857604" fill="#26a69a"/><line x1="128" y1="634.5216502857121" x2="128" y2="755.3685257142855" stroke="#26a69a" stroke-width="2"/><rect x="124" y="733.821299428577" width="8" height="12.426707428559439" fill="#26a69a"/><line x1="140" y1="636.8017805714252" x2="140" y2="783.9841531428517" stroke="#26a69a" stroke-width="2"/><rect x="136" y="641.3620400000062" width="8" height="92.34525257141797" fill="#26a69a"/><line x1="152" y1="554.7171108571482" x2="152" y2="642.5021039999982" stroke="#26a69a" stroke-width="2"/><rect x="148" y="570.6780182857203" width="8" height="66.12376228570486" fill="#26a69a"/><line x1="164" y1="497.8278742857193" x2="164" y2="570.6780182857203" stroke="#26a69a" stroke-width="2"/><rect x="160" y="497.8278742857193" width="8" height="69.99998171427899" fill="#26a69a"/><line x1="176" y1="456.67153257142803" x2="176" y2="511.3946457142837" stroke="#ef5350" stroke-width="2"/><rect x="172" y="496.57380228571645" width="8" height="2" fill="#ef5350"/><line x1="188" y1="436.1503657142878" x2="188" y2="503.41419199999757" stroke="#26a69a" stroke-width="2"/><rect x="184" y="439.5705600000058" width="8" height="58.14330742856072" fill="#26a69a"/><line x1="200" y1="411.06893828570844" x2="200" y2="480.61289485714434" stroke="#ef5350" stroke-width="2"/><rect x="196" y="440.71062514285586" width="8" height="4.560259428568088" fill="#ef5350"/><line x1="212" y1="390.54777142856824" x2="212" y2="442.99075428571086" stroke="#26a69a" stroke-width="2"/><rect x="208" y="396.24809485714127" width="8" height="46.742659428569596" fill="#26a69a"/><line x1="224" y1="334.6845931428626" x2="224" y2="409.9288731428585" stroke="#ef5350" stroke-width="2"/><rect x="220" y="395.1080308571493" width="8" height="11.400647999991179" fill="#ef5350"/><line x1="236" y1="397.3881600000043" x2="236" y2="458.95166285714106" stroke="#ef5350" stroke-width="2"/><rect x="232" y="408.78880914285344" width="8" height="45.60259428571959" fill="#ef5350"/><line x1="248" y1="425.8897817142887" x2="248" y2="471.4923759999952" stroke="#ef5350" stroke-width="2"/><rect x="244" y="450.9712079999969" width="8" height="13.680778285717167" fill="#ef5350"/><line x1="260" y1="417.9093280000026" x2="260" y2="490.8734788571434" stroke="#26a69a" stroke-width="2"/><rect x="256" y="442.99075428571086" width="8" height="23.94136228571631" fill="#26a69a"/><line x1="272" y1="441.8506891428608" x2="272" y2="505.6943211428526" stroke="#ef5350" stroke-width="2"/><rect x="268" y="441.8506891428608" width="8" height="62.70356799999979" fill="#ef5350"/><line x1="284" y1="463.6259280000039" x2="284" y2="541.0363325714311" stroke="#ef5350" stroke-width="2"/><rect x="280" y="502.27412685714756" width="8" height="35.34201028570743" fill="#ef5350"/><line x1="296" y1="437.29042971427975" x2="296" y2="535.336008" stroke="#26a69a" stroke-width="2"/><rect x="292" y="476.05263542857625" width="8" height="59.28337257142374" fill="#26a69a"/><line x1="308" y1="422.46958742857066" x2="308" y2="506.8343862857156" stroke="#26a69a" stroke-width="2"/><rect x="304" y="429.30997599999375" width="8" height="43.32246514286447" fill="#26a69a"/><line x1="320" y1="393.96796571428627" x2="320" y2="457.81159771429105" stroke="#26a69a" stroke-width="2"/><rect x="316" y="418.93538628571275" width="8" height="6.9543954285759355" fill="#26a69a"/><line x1="332" y1="333.54452799999956" x2="332" y2="436.1503657142878" stroke="#26a69a" stroke-width="2"/><rect x="328" y="335.82465828571264" width="8" height="83.11072800000011" fill="#26a69a"/><line x1="344" y1="315.30349028571436" x2="344" y2="379.1471222857191" stroke="#ef5350" stroke-width="2"/><rect x="340" y="335.82465828571264" width="8" height="32.9478742857126" fill="#ef5350"/><line x1="356" y1="356.34582514285285" x2="356" y2="422.46958742857066" stroke="#ef5350" stroke-width="2"/><rect x="352" y="367.74647428571495" width="8" height="38.762204571425514" fill="#ef5350"/><line x1="368" y1="342.6650468571487" x2="368" y2="407.6487440000035" stroke="#26a69a" stroke-width="2"/><rect x="364" y="385.98751200000027" width="8" height="21.661232000003224" fill="#26a69a"/><line x1="380" y1="383.7073817142872" x2="380" y2="408.78880914285344" stroke="#ef5350" stroke-width="2"/><rect x="376" y="384.84744685713724" width="8" height="2" fill="#ef5350"/><line x1="392" y1="376.86699314285113" x2="392" y2="439.5705600000058" stroke="#ef5350" stroke-width="2"/><rect x="388" y="383.7073817142872" width="8" height="47.88272457143262" fill="#ef5350"/><line x1="404" y1="421.3295222857206" x2="404" y2="463.51192228570915" stroke="#ef5350" stroke-width="2"/><rect x="400" y="428.1699108571437" width="8" height="26.335498285711083" fill="#ef5350"/><line x1="416" y1="449.831144000005" x2="416" y2="558.1373051428532" stroke="#ef5350" stroke-width="2"/><rect x="412" y="454.391403428573" width="8" height="60.42343657142868" fill="#ef5350"/><line x1="428" y1="490.8734788571434" x2="428" y2="552.4369805714222" stroke="#ef5350" stroke-width="2"/><rect x="424" y="512.5347108571467" width="8" height="15.390875428563163" fill="#ef5350"/><line x1="440" y1="476.05263542857625" x2="440" y2="537.616137142855" stroke="#26a69a" stroke-width="2"/><rect x="436" y="479.4728297142813" width="8" height="52.44298400000065" fill="#26a69a"/><line x1="452" y1="470.3523108571452" x2="452" y2="553.5770457142852" stroke="#ef5350" stroke-width="2"/><rect x="448" y="478.33276457143126" width="8" height="69.54395657142283" fill="#ef5350"/><line x1="464" y1="471.4923759999952" x2="464" y2="570.6780182857203" stroke="#26a69a" stroke-width="2"/><rect x="460" y="479.4728297142813" width="8" height="68.97392342858183" fill="#26a69a"/><line x1="476" y1="427.02984685713875" x2="476" y2="482.89302399999934" stroke="#26a69a" stroke-width="2"/><rect x="472" y="464.6519862857141" width="8" height="17.100973714280258" fill="#26a69a"/><line x1="488" y1="429.30997599999375" x2="488" y2="481.75295999999435" stroke="#26a69a" stroke-width="2"/><rect x="484" y="445.27088457142395" width="8" height="20.63517371429299" fill="#26a69a"/><line x1="500" y1="427.02984685713875" x2="500" y2="461.23179199999606" stroke="#26a69a" stroke-width="2"/><rect x="496" y="437.17642399999806" width="8" height="5.814330285712799" fill="#26a69a"/><line x1="512" y1="390.54777142856824" x2="512" y2="437.29042971427975" stroke="#26a69a" stroke-width="2"/><rect x="508" y="403.08848457142244" width="8" height="34.20194514285731" fill="#26a69a"/><line x1="524" y1="389.4077062857183" x2="524" y2="413.3490685714345" stroke="#26a69a" stroke-width="2"/><rect x="520" y="393.96796571428627" width="8" height="10.260583999999199" fill="#26a69a"/><line x1="536" y1="394.08197142856807" x2="536" y2="411.06893828570844" stroke="#ef5350" stroke-width="2"/><rect x="532" y="395.2220365714311" width="8" height="11.286642285709377" fill="#ef5350"/><line x1="548" y1="380.28718742856915" x2="548" y2="409.9288731428585" stroke="#26a69a" stroke-width="2"/><rect x="544" y="385.98751200000027" width="8" height="19.38110171429014" fill="#26a69a"/><line x1="560" y1="376.86699314285113" x2="560" y2="397.3881600000043" stroke="#ef5350" stroke-width="2"/><rect x="556" y="384.84744685713724" width="8" height="9.690550857145013" fill="#ef5350"/><line x1="572" y1="379.1471222857191" x2="572" y2="408.78880914285344" stroke="#26a69a" stroke-width="2"/><rect x="568" y="391.6878354285733" width="8" height="3.534201142857796" fill="#26a69a"/><line x1="584" y1="371.166668571433" x2="584" y2="396.24809485714127" stroke="#26a69a" stroke-width="2"/><rect x="580" y="385.98751200000027" width="8" height="5.700323428573029" fill="#26a69a"/><line x1="596" y1="367.74647428571495" x2="596" y2="390.54777142856824" stroke="#26a69a" stroke-width="2"/><rect x="592" y="376.86699314285113" width="8" height="7.980453714286114" fill="#26a69a"/><line x1="608" y1="376.86699314285113" x2="608" y2="404.22854971428546" stroke="#ef5350" stroke-width="2"/><rect x="604" y="382.56731657142416" width="8" height="18.355044571438043" fill="#ef5350"/><line x1="620" y1="379.1471222857191" x2="620" y2="416.76926285713955" stroke="#ef5350" stroke-width="2"/><rect x="616" y="395.2220365714311" width="8" height="10.146577142859314" fill="#ef5350"/><line x1="632" y1="397.3881600000043" x2="632" y2="429.30997599999375" stroke="#ef5350" stroke-width="2"/><rect x="628" y="404.22854971428546" width="8" height="23.941361142858227" fill="#ef5350"/><line x1="644" y1="423.6096514285756" x2="644" y2="461.23179199999606" stroke="#ef5350" stroke-width="2"/><rect x="640" y="427.5998788571477" width="8" height="33.63191314284836" fill="#ef5350"/><line x1="656" y1="450.9712079999969" x2="656" y2="503.41419199999757" stroke="#ef5350" stroke-width="2"/><rect x="652" y="461.23179199999606" width="8" height="42.18240000000151" fill="#ef5350"/><line x1="668" y1="499.99399771427954" x2="668" y2="546.7366560000041" stroke="#ef5350" stroke-width="2"/><rect x="664" y="501.13406171428454" width="8" height="3.4201954285760507" fill="#ef5350"/><line x1="680" y1="501.13406171428454" x2="680" y2="550.1568514285672" stroke="#ef5350" stroke-width="2"/><rect x="676" y="503.41419199999757" width="8" height="30.7817508571394" fill="#ef5350"/><line x1="692" y1="509.1145165714287" x2="692" y2="553.5770457142852" stroke="#26a69a" stroke-width="2"/><rect x="688" y="535.336008" width="8" height="2" fill="#26a69a"/><line x1="704" y1="499.99399771427954" x2="704" y2="556.9972400000032" stroke="#26a69a" stroke-width="2"/><rect x="700" y="505.6943211428526" width="8" height="27.361556571434335" fill="#26a69a"/><line x1="716" y1="502.27412685714756" x2="716" y2="566.1177588571393" stroke="#ef5350" stroke-width="2"/><rect x="712" y="505.6943211428526" width="8" height="30.781752000010442" fill="#ef5350"/><line x1="728" y1="501.13406171428454" x2="728" y2="554.7171108571482" stroke="#26a69a" stroke-width="2"/><rect x="724" y="502.27412685714756" width="8" height="34.20194628571545" fill="#26a69a"/><line x1="740" y1="461.23179199999606" x2="740" y2="505.6943211428526" stroke="#26a69a" stroke-width="2"/><rect x="736" y="484.03308914286237" width="8" height="18.2410377142852" fill="#26a69a"/><line x1="752" y1="489.7334137142804" x2="752" y2="549.0167862857171" stroke="#ef5350" stroke-width="2"/><rect x="748" y="489.7334137142804" width="8" height="37.62214057143348" fill="#ef5350"/><line x1="764" y1="494.29367314286145" x2="764" y2="550.1568514285672" stroke="#ef5350" stroke-width="2"/><rect x="760" y="522.7952948571458" width="8" height="20.521166857140315" fill="#ef5350"/><line x1="776" y1="507.97445142856566" x2="776" y2="552.4369805714222" stroke="#26a69a" stroke-width="2"/><rect x="772" y="513.6747759999967" width="8" height="33.06188000000748" fill="#26a69a"/><line x1="788" y1="492.0135428571484" x2="788" y2="529.6356834285689" stroke="#ef5350" stroke-width="2"/><rect x="784" y="511.3946457142837" width="8" height="14.820843428567173" fill="#ef5350"/><line x1="800" y1="498.85393257142954" x2="800" y2="526.2154891428509" stroke="#26a69a" stroke-width="2"/><rect x="796" y="499.99399771427954" width="8" height="20.521166857153162" fill="#26a69a"/><line x1="812" y1="490.8734788571434" x2="812" y2="514.8148400000017" stroke="#ef5350" stroke-width="2"/><rect x="808" y="498.85393257142954" width="8" height="3.4201942857180256" fill="#ef5350"/><line x1="824" y1="489.7334137142804" x2="824" y2="554.7171108571482" stroke="#ef5350" stroke-width="2"/><rect x="820" y="501.13406171428454" width="8" height="41.04233485713854" fill="#ef5350"/><line x1="836" y1="464.6519862857141" x2="836" y2="547.8767211428541" stroke="#26a69a" stroke-width="2"/><rect x="832" y="492.0135428571484" width="8" height="51.30291885713768" fill="#26a69a"/><line x1="848" y1="456.67153257142803" x2="848" y2="488.5933485714304" stroke="#26a69a" stroke-width="2"/><rect x="844" y="462.3718571428591" width="8" height="25.08142628570829" fill="#26a69a"/><line x1="860" y1="450.9712079999969" x2="860" y2="480.61289485714434" stroke="#ef5350" stroke-width="2"/><rect x="856" y="461.23179199999606" width="8" height="18.241037714285255" fill="#ef5350"/><line x1="872" y1="471.4923759999952" x2="872" y2="509.68454857142467" stroke="#ef5350" stroke-width="2"/><rect x="868" y="473.7725051428632" width="8" height="18.2410377142852" fill="#ef5350"/><line x1="884" y1="473.7725051428632" x2="884" y2="502.84415885714355" stroke="#26a69a" stroke-width="2"/><rect x="880" y="480.7269005714261" width="8" height="12.426707428572342" fill="#26a69a"/><line x1="896" y1="477.1927005714263" x2="896" y2="505.6943211428526" stroke="#ef5350" stroke-width="2"/><rect x="892" y="480.61289485714434" width="8" height="22.80129714285323" fill="#ef5350"/><line x1="908" y1="496.57380228571645" x2="908" y2="529.6356834285689" stroke="#26a69a" stroke-width="2"/><rect x="904" y="501.13406171428454" width="8" height="4.560259428568031" fill="#26a69a"/><line x1="920" y1="498.85393257142954" x2="920" y2="550.1568514285672" stroke="#ef5350" stroke-width="2"/><rect x="916" y="498.85393257142954" width="8" height="49.02278857142454" fill="#ef5350"/><line x1="932" y1="537.616137142855" x2="932" y2="584.3587965714246" stroke="#ef5350" stroke-width="2"/><rect x="928" y="546.7366560000041" width="8" height="27.36155657142126" fill="#ef5350"/><line x1="944" y1="545.5965919999991" x2="944" y2="606.5900617142818" stroke="#ef5350" stroke-width="2"/><rect x="940" y="572.9581485714334" width="8" height="10.260582857141117" fill="#ef5350"/><line x1="956" y1="556.9972400000032" x2="956" y2="598.0395748571417" stroke="#ef5350" stroke-width="2"/><rect x="952" y="582.0786674285696" width="8" height="7.980453714286" fill="#ef5350"/><line x1="968" y1="570.7920251428602" x2="968" y2="611.7203531428588" stroke="#ef5350" stroke-width="2"/><rect x="964" y="586.6389268571376" width="8" height="5.700323428573029" fill="#ef5350"/><line x1="980" y1="587.7789908571426" x2="980" y2="639.0819097142802" stroke="#ef5350" stroke-width="2"/><rect x="976" y="594.6193805714237" width="8" height="19.38110285714822" fill="#ef5350"/><line x1="992" y1="552.4369805714222" x2="992" y2="637.9418445714301" stroke="#26a69a" stroke-width="2"/><rect x="988" y="570.6780182857203" width="8" height="41.612366857134475" fill="#26a69a"/><line x1="1004" y1="560.4174342857082" x2="1004" y2="635.6617154285751" stroke="#ef5350" stroke-width="2"/><rect x="1000" y="571.8180834285704" width="8" height="60.423437714286706" fill="#ef5350"/><line x1="1016" y1="371.166668571433" x2="1016" y2="476.05263542857625" stroke="#ef5350" stroke-width="2"/><rect x="1012" y="408.78880914285344" width="8" height="52.442982857142624" fill="#ef5350"/><line x1="1028" y1="431.5901062857198" x2="1028" y2="495.4337382857115" stroke="#26a69a" stroke-width="2"/><rect x="1024" y="457.81159771429105" width="8" height="2.280129142855003" fill="#26a69a"/><line x1="1040" y1="374.58686285713804" x2="1040" y2="463.51192228570915" stroke="#26a69a" stroke-width="2"/><rect x="1036" y="421.3295222857206" width="8" height="31.921815999989406" fill="#26a69a"/><line x1="1052" y1="322.1438799999954" x2="1052" y2="464.6519862857141" stroke="#26a69a" stroke-width="2"/><rect x="1048" y="347.2253062857168" width="8" height="70.68402171428579" fill="#26a69a"/><line x1="1064" y1="282.241609142862" x2="1064" y2="359.76601942857087" stroke="#26a69a" stroke-width="2"/><rect x="1060" y="317.58362057142745" width="8" height="23.941361142858227" fill="#26a69a"/><line x1="1076" y1="293.64225828571114" x2="1076" y2="373.446797714288" stroke="#ef5350" stroke-width="2"/><rect x="1072" y="317.58362057142745" width="8" height="33.06188000000736" fill="#ef5350"/><line x1="1088" y1="311.88329599999634" x2="1088" y2="365.466344000002" stroke="#26a69a" stroke-width="2"/><rect x="1084" y="328.98426857143147" width="8" height="21.661232000003338" fill="#26a69a"/><line x1="1100" y1="306.1829714285652" x2="1100" y2="371.166668571433" stroke="#ef5350" stroke-width="2"/><rect x="1096" y="330.12433371428153" width="8" height="34.201945142857426" fill="#ef5350"/><line x1="1112" y1="326.70413942857647" x2="1112" y2="383.7073817142872" stroke="#26a69a" stroke-width="2"/><rect x="1108" y="354.06569599999784" width="8" height="6.840388571436051" fill="#26a69a"/><line x1="1124" y1="351.78556571428476" x2="1124" y2="425.8897817142887" stroke="#ef5350" stroke-width="2"/><rect x="1120" y="354.06569599999784" width="8" height="59.283372571436644" fill="#ef5350"/><line x1="1136" y1="362.04614971428396" x2="1136" y2="448.691078857142" stroke="#26a69a" stroke-width="2"/><rect x="1132" y="373.446797714288" width="8" height="43.32246514285157" fill="#26a69a"/><line x1="1148" y1="325.56407428571345" x2="1148" y2="384.84744685713724" stroke="#26a69a" stroke-width="2"/><rect x="1144" y="374.58686285713804" width="8" height="2" fill="#26a69a"/><line x1="1160" y1="356.34582514285285" x2="1160" y2="396.24809485714127" stroke="#26a69a" stroke-width="2"/><rect x="1156" y="367.74647428571495" width="8" height="7.980453714286114" fill="#26a69a"/><line x1="1172" y1="356.34582514285285" x2="1172" y2="416.76926285713955" stroke="#ef5350" stroke-width="2"/><rect x="1168" y="368.88653828572" width="8" height="31.92181599998935" fill="#ef5350"/><line x1="1184" y1="399.6682902857174" x2="1184" y2="453.25133828571" stroke="#ef5350" stroke-width="2"/><rect x="1180" y="401.9484194285724" width="8" height="49.02278857142454" fill="#ef5350"/><line x1="1196" y1="435.01030057142475" x2="1196" y2="501.13406171428454" stroke="#26a69a" stroke-width="2"/><rect x="1192" y="445.27088457142395" width="8" height="5.700323428572972" fill="#26a69a"/><line x1="1208" y1="382.56731657142416" x2="1208" y2="473.88651200000305" stroke="#26a69a" stroke-width="2"/><rect x="1204" y="435.01030057142475" width="8" height="9.120518857149136" fill="#26a69a"/><line x1="1220" y1="407.7627497142852" x2="1220" y2="470.3523108571452" stroke="#26a69a" stroke-width="2"/><rect x="1216" y="425.8897817142887" width="8" height="7.980453714286114" fill="#26a69a"/><line x1="1232" y1="384.84744685713724" x2="1232" y2="474.91257028571323" stroke="#ef5350" stroke-width="2"/><rect x="1228" y="421.3295222857206" width="8" height="51.87295085713362" fill="#ef5350"/><line x1="1244" y1="460.09172685714606" x2="1244" y2="509.1145165714287" stroke="#ef5350" stroke-width="2"/><rect x="1240" y="473.2024731428542" width="8" height="11.856674285718327" fill="#ef5350"/><line x1="1256" y1="472.6324411428582" x2="1256" y2="511.3946457142837" stroke="#ef5350" stroke-width="2"/><rect x="1252" y="479.3588228571415" width="8" height="25.195434285719102" fill="#ef5350"/><line x1="1268" y1="494.29367314286145" x2="1268" y2="526.2154891428509" stroke="#26a69a" stroke-width="2"/><rect x="1264" y="495.4337382857115" width="8" height="10.26058285714106" fill="#26a69a"/><line x1="1280" y1="465.7920514285771" x2="1280" y2="546.7366560000041" stroke="#26a69a" stroke-width="2"/><rect x="1276" y="495.4337382857115" width="8" height="4.560259428568031" fill="#26a69a"/><line x1="1292" y1="489.7334137142804" x2="1292" y2="544.4565268571491" stroke="#ef5350" stroke-width="2"/><rect x="1288" y="499.99399771427954" width="8" height="23.941361142858227" fill="#ef5350"/><line x1="1304" y1="527.3555542857139" x2="1304" y2="576.3783428571385" stroke="#ef5350" stroke-width="2"/><rect x="1300" y="527.3555542857139" width="8" height="6.840388571423091" fill="#ef5350"/><line x1="1316" y1="507.86044457142583" x2="1316" y2="543.3164617142861" stroke="#26a69a" stroke-width="2"/><rect x="1312" y="523.9353588571378" width="8" height="13.680778285717224" fill="#26a69a"/><line x1="1328" y1="453.25133828571" x2="1328" y2="521.6552297142828" stroke="#26a69a" stroke-width="2"/><rect x="1324" y="472.6324411428582" width="8" height="47.88272342857448" fill="#26a69a"/><line x1="1340" y1="458.95166285714106" x2="1340" y2="480.61289485714434" stroke="#26a69a" stroke-width="2"/><rect x="1336" y="466.9321165714272" width="8" height="2.8501622857220354" fill="#26a69a"/><line x1="1352" y1="419.04939199999455" x2="1352" y2="468.0721817142902" stroke="#26a69a" stroke-width="2"/><rect x="1348" y="421.3295222857206" width="8" height="45.0325611428525" fill="#26a69a"/><line x1="1364" y1="398.52822514285435" x2="1364" y2="441.8506891428608" stroke="#26a69a" stroke-width="2"/><rect x="1360" y="404.22854971428546" width="8" height="18.81106971428119" fill="#26a69a"/><line x1="1376" y1="333.54452799999956" x2="1376" y2="407.6487440000035" stroke="#26a69a" stroke-width="2"/><rect x="1372" y="342.09501485713974" width="8" height="64.41366400000072" fill="#26a69a"/><line x1="1388" y1="314.16342514285134" x2="1388" y2="352.81162399999505" stroke="#26a69a" stroke-width="2"/><rect x="1384" y="336.9647222857176" width="8" height="5.700324571431111" fill="#26a69a"/><line x1="1400" y1="297.63248457142515" x2="1400" y2="340.38491771428073" stroke="#26a69a" stroke-width="2"/><rect x="1396" y="314.04941942856954" width="8" height="21.77523885714311" fill="#26a69a"/><line x1="1412" y1="294.78232342857416" x2="1412" y2="318.7236845714324" stroke="#26a69a" stroke-width="2"/><rect x="1408" y="306.1829714285652" width="8" height="6.726382857154363" fill="#26a69a"/><line x1="1424" y1="262.86050742857174" x2="1424" y2="323.2839440000005" stroke="#26a69a" stroke-width="2"/><rect x="1420" y="298.2025177142922" width="8" height="7.98045371427304" fill="#26a69a"/><line x1="1436" y1="277.68134971428094" x2="1436" y2="306.1829714285652" stroke="#26a69a" stroke-width="2"/><rect x="1432" y="282.241609142862" width="8" height="15.960908571430195" fill="#26a69a"/><line x1="1448" y1="267.4207668571398" x2="1448" y2="326.59013257142374" stroke="#ef5350" stroke-width="2"/><rect x="1444" y="285.54779771428525" width="8" height="28.615627428566086" fill="#ef5350"/><line x1="1460" y1="285.54779771428525" x2="1460" y2="314.16342514285134" stroke="#26a69a" stroke-width="2"/><rect x="1456" y="303.9028422857102" width="8" height="10.260582857141117" fill="#26a69a"/><line x1="1472" y1="259.44031199999574" x2="1472" y2="306.06896457142545" stroke="#26a69a" stroke-width="2"/><rect x="1468" y="259.5543188571485" width="8" height="46.51464571427698" fill="#26a69a"/><line x1="1484" y1="238.91914514285543" x2="1484" y2="283.38167428571194" stroke="#ef5350" stroke-width="2"/><rect x="1480" y="258.30024800000376" width="8" height="6.9543954285628615" fill="#ef5350"/><line x1="1496" y1="262.86050742857174" x2="1496" y2="286.80186857142996" stroke="#ef5350" stroke-width="2"/><rect x="1492" y="262.86050742857174" width="8" height="10.260582857141117" fill="#ef5350"/><line x1="1508" y1="261.7204422857087" x2="1508" y2="285.661804571425" stroke="#26a69a" stroke-width="2"/><rect x="1504" y="274.14714857142303" width="8" height="2" fill="#26a69a"/><line x1="1520" y1="268.56083085714477" x2="1520" y2="287.94193371428" stroke="#ef5350" stroke-width="2"/><rect x="1516" y="276.4272788571491" width="8" height="6.9543954285628615" fill="#ef5350"/><line x1="1532" y1="282.241609142862" x2="1532" y2="306.1829714285652" stroke="#ef5350" stroke-width="2"/><rect x="1528" y="285.661804571425" width="8" height="17.10097257143525" fill="#ef5350"/><line x1="1544" y1="302.7627771428603" x2="1544" y2="319.86374971428245" stroke="#ef5350" stroke-width="2"/><rect x="1540" y="302.7627771428603" width="8" height="7.980453714286" fill="#ef5350"/><line x1="1556" y1="304.9289005714335" x2="1556" y2="331.37840457142636" stroke="#ef5350" stroke-width="2"/><rect x="1552" y="310.7432308571463" width="8" height="18.2410377142852" fill="#ef5350"/><line x1="1568" y1="307.32303657142825" x2="1568" y2="335.82465828571264" stroke="#26a69a" stroke-width="2"/><rect x="1564" y="314.16342514285134" width="8" height="14.820843428580133" fill="#26a69a"/><line x1="1580" y1="313.02336114285936" x2="1580" y2="342.09501485713974" stroke="#ef5350" stroke-width="2"/><rect x="1576" y="313.02336114285936" width="8" height="4.560259428568088" fill="#ef5350"/><line x1="1592" y1="275.40122057142594" x2="1592" y2="319.86374971428245" stroke="#26a69a" stroke-width="2"/><rect x="1588" y="295.92238742856614" width="8" height="22.231265142857296" fill="#26a69a"/><line x1="1604" y1="285.54779771428525" x2="1604" y2="311.88329599999634" stroke="#26a69a" stroke-width="2"/><rect x="1600" y="285.661804571425" width="8" height="7.980453714286114" fill="#26a69a"/><line x1="1616" y1="265.14063657142674" x2="1616" y2="294.78232342857416" stroke="#26a69a" stroke-width="2"/><rect x="1612" y="265.14063657142674" width="8" height="18.2410377142852" fill="#26a69a"/><line x1="1628" y1="253.7399885714227" x2="1628" y2="273.2350971428526" stroke="#26a69a" stroke-width="2"/><rect x="1624" y="263.886565714282" width="8" height="2" fill="#26a69a"/><line x1="1640" y1="255.90611085713783" x2="1640" y2="285.661804571425" stroke="#ef5350" stroke-width="2"/><rect x="1636" y="261.7204422857087" width="8" height="20.521166857153275" fill="#ef5350"/><line x1="1652" y1="279.9614799999939" x2="1652" y2="303.33280914285626" stroke="#ef5350" stroke-width="2"/><rect x="1648" y="283.9517062857079" width="8" height="5.13029257143512" fill="#ef5350"/><line x1="1664" y1="278.82141485714396" x2="1664" y2="307.89306857142424" stroke="#26a69a" stroke-width="2"/><rect x="1660" y="281.10154514285693" width="8" height="7.4104205714320415" fill="#26a69a"/><line x1="1676" y1="276.54128571428896" x2="1676" y2="291.36212799999805" stroke="#ef5350" stroke-width="2"/><rect x="1672" y="278.82141485714396" width="8" height="2.2801302857129713" fill="#ef5350"/><line x1="1688" y1="280.98753828571716" x2="1688" y2="295.92238742856614" stroke="#ef5350" stroke-width="2"/><rect x="1684" y="282.241609142862" width="8" height="5.700324571418037" fill="#ef5350"/><line x1="1700" y1="274.2611554285759" x2="1700" y2="310.7432308571463" stroke="#ef5350" stroke-width="2"/><rect x="1696" y="282.241609142862" width="8" height="20.521167999998283" fill="#ef5350"/><line x1="1712" y1="279.84747314285414" x2="1712" y2="308.5771074285731" stroke="#ef5350" stroke-width="2"/><rect x="1708" y="300.4826468571472" width="8" height="8.094460571425884" fill="#ef5350"/><line x1="1724" y1="301.62271199999725" x2="1724" y2="321.00381485714547" stroke="#26a69a" stroke-width="2"/><rect x="1720" y="304.4728742857193" width="8" height="6.270356571426987" fill="#26a69a"/><line x1="1736" y1="270.7269542857181" x2="1736" y2="308.46310171429127" stroke="#26a69a" stroke-width="2"/><rect x="1732" y="276.54128571428896" width="8" height="28.501620571426315" fill="#26a69a"/><line x1="1748" y1="268.56083085714477" x2="1748" y2="283.38167428571194" stroke="#26a69a" stroke-width="2"/><rect x="1744" y="271.9810262857079" width="8" height="2.2801291428679633" fill="#26a69a"/><line x1="1760" y1="250.31979314285957" x2="1760" y2="281.10154514285693" stroke="#26a69a" stroke-width="2"/><rect x="1756" y="267.4207668571398" width="8" height="4.560259428568088" fill="#26a69a"/><line x1="1772" y1="263.886565714282" x2="1772" y2="309.60316571428325" stroke="#ef5350" stroke-width="2"/><rect x="1768" y="266.28070171428976" width="8" height="36.48207542857051" fill="#ef5350"/><line x1="1784" y1="294.78232342857416" x2="1784" y2="315.30349028571436" stroke="#26a69a" stroke-width="2"/><rect x="1780" y="298.08851085713934" width="8" height="8.664492571434948" fill="#26a69a"/><line x1="1796" y1="268.56083085714477" x2="1796" y2="299.34258285714225" stroke="#26a69a" stroke-width="2"/><rect x="1792" y="269.7008959999948" width="8" height="29.64168685714742" fill="#26a69a"/><line x1="1808" y1="240.05921028571845" x2="1808" y2="279.9614799999939" stroke="#ef5350" stroke-width="2"/><rect x="1804" y="269.7008959999948" width="8" height="2" fill="#ef5350"/><line x1="1820" y1="252.02989028571858" x2="1820" y2="274.2611554285759" stroke="#26a69a" stroke-width="2"/><rect x="1816" y="257.16018285714074" width="8" height="13.68077828571711" fill="#26a69a"/><line x1="1832" y1="239.48917714285142" x2="1832" y2="259.44031199999574" stroke="#26a69a" stroke-width="2"/><rect x="1828" y="240.05921028571845" width="8" height="19.381101714277293" fill="#26a69a"/><line x1="1844" y1="227.51849600000628" x2="1844" y2="250.31979314285957" stroke="#ef5350" stroke-width="2"/><rect x="1840" y="240.62924228571444" width="8" height="3.990227428572098" fill="#ef5350"/><line x1="1856" y1="244.61946971428654" x2="1856" y2="270.84096114285785" stroke="#ef5350" stroke-width="2"/><rect x="1852" y="244.61946971428654" width="8" height="9.120518857136176" fill="#ef5350"/><line x1="1868" y1="188.75629142856792" x2="1868" y2="253.7399885714227" stroke="#26a69a" stroke-width="2"/><rect x="1864" y="214.97778285713923" width="8" height="38.76220571428348" fill="#26a69a"/><line x1="1880" y1="210.41752342857114" x2="1880" y2="241.19927428571043" stroke="#ef5350" stroke-width="2"/><rect x="1876" y="214.97778285713923" width="8" height="12.540713142867048" fill="#ef5350"/><line x1="1892" y1="216.11784800000225" x2="1892" y2="236.63901485714246" stroke="#26a69a" stroke-width="2"/><rect x="1888" y="219.53804228572028" width="8" height="9.120518857136062" fill="#26a69a"/><line x1="1904" y1="218.39797714285726" x2="1904" y2="250.31979314285957" stroke="#ef5350" stroke-width="2"/><rect x="1900" y="219.53804228572028" width="8" height="27.36155657142126" fill="#ef5350"/><line x1="1916" y1="213.83771771428917" x2="1916" y2="249.17972914285463" stroke="#26a69a" stroke-width="2"/><rect x="1912" y="222.95823657142523" width="8" height="25.08142742857933" fill="#26a69a"/><line x1="1928" y1="135.17324342857523" x2="1928" y2="228.65856114285634" stroke="#26a69a" stroke-width="2"/><rect x="1924" y="135.17324342857523" width="8" height="86.64492914285802" fill="#26a69a"/><line x1="1940" y1="97.55110285714181" x2="1940" y2="172.79538285713772" stroke="#ef5350" stroke-width="2"/><rect x="1936" y="138.5934377142803" width="8" height="26.221491428571312" fill="#ef5350"/><rect x="75" y="969.3205184427228" width="10" height="50.6794815572772" fill="#26a69a" opacity="0.9"/><rect x="87" y="951.9955659503971" width="10" height="68.00443404960288" fill="#ef5350" opacity="0.9"/><rect x="99" y="960.5649758807192" width="10" height="59.4350241192808" fill="#ef5350" opacity="0.9"/><rect x="111" y="963.0102811479803" width="10" height="56.98971885201968" fill="#26a69a" opacity="0.9"/><rect x="123" y="988.2585391999221" width="10" height="31.741460800077903" fill="#26a69a" opacity="0.9"/><rect x="135" y="983.1474443307509" width="10" height="36.852555669249114" fill="#26a69a" opacity="0.9"/><rect x="147" y="992.4560249476198" width="10" height="27.543975052380233" fill="#26a69a" opacity="0.9"/><rect x="159" y="991.8635189787068" width="10" height="28.136481021293207" fill="#26a69a" opacity="0.9"/><rect x="171" y="988.0080884860888" width="10" height="31.99191151391119" fill="#ef5350" opacity="0.9"/><rect x="183" y="989.3370852214589" width="10" height="30.662914778541108" fill="#26a69a" opacity="0.9"/><rect x="195" y="994.5536714905228" width="10" height="25.446328509477212" fill="#ef5350" opacity="0.9"/><rect x="207" y="993.6585781805779" width="10" height="26.341421819422067" fill="#26a69a" opacity="0.9"/><rect x="219" y="984.3478049018174" width="10" height="35.652195098182574" fill="#ef5350" opacity="0.9"/><rect x="231" y="996.2442138088974" width="10" height="23.75578619110263" fill="#ef5350" opacity="0.9"/><rect x="243" y="1002.8770160307947" width="10" height="17.12298396920528" fill="#ef5350" opacity="0.9"/><rect x="255" y="998.3089704234274" width="10" height="21.691029576572646" fill="#26a69a" opacity="0.9"/><rect x="267" y="1001.9673049749063" width="10" height="18.032695025093744" fill="#ef5350" opacity="0.9"/><rect x="279" y="1000.7584173853725" width="10" height="19.241582614627532" fill="#ef5350" opacity="0.9"/><rect x="291" y="997.4146080007796" width="10" height="22.585391999220406" fill="#26a69a" opacity="0.9"/><rect x="303" y="986.3416654485212" width="10" height="33.65833455147879" fill="#26a69a" opacity="0.9"/><rect x="315" y="999.7617307411197" width="10" height="20.238269258880337" fill="#26a69a" opacity="0.9"/><rect x="327" y="990.9352921112898" width="10" height="29.064707888710245" fill="#26a69a" opacity="0.9"/><rect x="339" y="995.2304731277104" width="10" height="24.76952687228959" fill="#ef5350" opacity="0.9"/><rect x="351" y="1001.5636115577645" width="10" height="18.43638844223551" fill="#ef5350" opacity="0.9"/><rect x="363" y="995.2891877405838" width="10" height="24.71081225941623" fill="#26a69a" opacity="0.9"/><rect x="375" y="1001.570189543439" width="10" height="18.429810456560972" fill="#ef5350" opacity="0.9"/><rect x="387" y="1001.9222335915802" width="10" height="18.077766408419848" fill="#ef5350" opacity="0.9"/><rect x="399" y="1001.5070896067826" width="10" height="18.492910393217358" fill="#ef5350" opacity="0.9"/><rect x="411" y="982.0954538810115" width="10" height="37.90454611898849" fill="#ef5350" opacity="0.9"/><rect x="423" y="997.8472932807094" width="10" height="22.152706719290563" fill="#ef5350" opacity="0.9"/><rect x="435" y="1001.1031525605418" width="10" height="18.896847439458156" fill="#26a69a" opacity="0.9"/><rect x="447" y="1001.0273839107343" width="10" height="18.97261608926567" fill="#ef5350" opacity="0.9"/><rect x="459" y="1003.5993763095064" width="10" height="16.400623690493603" fill="#26a69a" opacity="0.9"/><rect x="471" y="1001.6218389124397" width="10" height="18.37816108756033" fill="#26a69a" opacity="0.9"/><rect x="483" y="1004.3904399941529" width="10" height="15.609560005847129" fill="#26a69a" opacity="0.9"/><rect x="495" y="1001.5765239000146" width="10" height="18.42347609998535" fill="#26a69a" opacity="0.9"/><rect x="507" y="998.8566486381134" width="10" height="21.14335136188663" fill="#26a69a" opacity="0.9"/><rect x="519" y="1001.7970082346635" width="10" height="18.202991765336492" fill="#26a69a" opacity="0.9"/><rect x="531" y="1003.4446718316036" width="10" height="16.555328168396386" fill="#ef5350" opacity="0.9"/><rect x="543" y="999.5804706914194" width="10" height="20.41952930858065" fill="#26a69a" opacity="0.9"/><rect x="555" y="1002.232129805584" width="10" height="17.76787019441599" fill="#ef5350" opacity="0.9"/><rect x="567" y="1004.2164888174243" width="10" height="15.783511182575694" fill="#26a69a" opacity="0.9"/><rect x="579" y="1000.3700726014715" width="10" height="19.62992739852848" fill="#26a69a" opacity="0.9"/><rect x="591" y="1001.365541100229" width="10" height="18.634458899770948" fill="#26a69a" opacity="0.9"/><rect x="603" y="1003.638600594455" width="10" height="16.361399405544944" fill="#ef5350" opacity="0.9"/><rect x="615" y="1002.8775032889928" width="10" height="17.122496711007216" fill="#ef5350" opacity="0.9"/><rect x="627" y="1002.3624713735809" width="10" height="17.637528626419112" fill="#ef5350" opacity="0.9"/><rect x="639" y="1001.6907859474736" width="10" height="18.309214052526386" fill="#ef5350" opacity="0.9"/><rect x="651" y="1001.357257710861" width="10" height="18.64274228913905" fill="#ef5350" opacity="0.9"/><rect x="663" y="998.4704965161039" width="10" height="21.529503483896065" fill="#ef5350" opacity="0.9"/><rect x="675" y="1001.6240315743312" width="10" height="18.375968425668816" fill="#ef5350" opacity="0.9"/><rect x="687" y="1004.4001851581153" width="10" height="15.599814841884722" fill="#26a69a" opacity="0.9"/><rect x="699" y="1002.7495980119866" width="10" height="17.250401988013436" fill="#26a69a" opacity="0.9"/><rect x="711" y="998.0975003654437" width="10" height="21.902499634556307" fill="#ef5350" opacity="0.9"/><rect x="723" y="1003.1715636115578" width="10" height="16.828436388442242" fill="#26a69a" opacity="0.9"/><rect x="735" y="1002.2433367441407" width="10" height="17.75666325585928" fill="#26a69a" opacity="0.9"/><rect x="747" y="1003.8006139453296" width="10" height="16.199386054670413" fill="#ef5350" opacity="0.9"/><rect x="759" y="1004.6930273351849" width="10" height="15.306972664815135" fill="#ef5350" opacity="0.9"/><rect x="771" y="1006.2042586366516" width="10" height="13.795741363348384" fill="#26a69a" opacity="0.9"/><rect x="783" y="1000.188325293573" width="10" height="19.81167470642697" fill="#ef5350" opacity="0.9"/><rect x="795" y="1005.5761828192759" width="10" height="14.423817180724086" fill="#26a69a" opacity="0.9"/><rect x="807" y="1003.4361448131365" width="10" height="16.56385518686352" fill="#ef5350" opacity="0.9"/><rect x="819" y="999.3682697461385" width="10" height="20.63173025386152" fill="#ef5350" opacity="0.9"/><rect x="831" y="992.1924182624373" width="10" height="27.807581737562714" fill="#26a69a" opacity="0.9"/><rect x="843" y="1002.3488281440335" width="10" height="17.65117185596648" fill="#26a69a" opacity="0.9"/><rect x="855" y="1002.211664961263" width="10" height="17.788335038737046" fill="#ef5350" opacity="0.9"/><rect x="867" y="1004.370218778931" width="10" height="15.629781221069038" fill="#ef5350" opacity="0.9"/><rect x="879" y="994.2769088339911" width="10" height="25.723091166008885" fill="#26a69a" opacity="0.9"/><rect x="891" y="1000.5635141061248" width="10" height="19.436485893875215" fill="#ef5350" opacity="0.9"/><rect x="903" y="1004.3658334551479" width="10" height="15.634166544852064" fill="#26a69a" opacity="0.9"/><rect x="915" y="995.4022316425473" width="10" height="24.59776835745265" fill="#ef5350" opacity="0.9"/><rect x="927" y="999.6435706280758" width="10" height="20.35642937192415" fill="#ef5350" opacity="0.9"/><rect x="939" y="995.6514642108854" width="10" height="24.348535789114635" fill="#ef5350" opacity="0.9"/><rect x="951" y="995.3605710666081" width="10" height="24.639428933391855" fill="#ef5350" opacity="0.9"/><rect x="963" y="998.1021293183258" width="10" height="21.89787068167425" fill="#ef5350" opacity="0.9"/><rect x="975" y="995.8122594162646" width="10" height="24.187740583735376" fill="#ef5350" opacity="0.9"/><rect x="987" y="960.0467767870194" width="10" height="59.95322321298056" fill="#26a69a" opacity="0.9"/><rect x="999" y="860.0" width="10" height="160.0" fill="#ef5350" opacity="0.9"/><rect x="1011" y="972.7276713930712" width="10" height="47.272328606928795" fill="#ef5350" opacity="0.9"/><rect x="1023" y="997.800272864591" width="10" height="22.199727135409034" fill="#26a69a" opacity="0.9"/><rect x="1035" y="999.2540076986795" width="10" height="20.745992301320484" fill="#26a69a" opacity="0.9"/><rect x="1047" y="989.5329630171028" width="10" height="30.467036982897184" fill="#26a69a" opacity="0.9"/><rect x="1059" y="987.5546947327389" width="10" height="32.44530526726112" fill="#26a69a" opacity="0.9"/><rect x="1071" y="1000.8721921746334" width="10" height="19.12780782536663" fill="#ef5350" opacity="0.9"/><rect x="1083" y="996.4115869999513" width="10" height="23.588413000048718" fill="#26a69a" opacity="0.9"/><rect x="1095" y="1000.7299127807826" width="10" height="19.27008721921743" fill="#ef5350" opacity="0.9"/><rect x="1107" y="1002.9878672708668" width="10" height="17.012132729133214" fill="#26a69a" opacity="0.9"/><rect x="1119" y="999.8735564975881" width="10" height="20.126443502411917" fill="#ef5350" opacity="0.9"/><rect x="1131" y="1002.0162744238172" width="10" height="17.983725576182792" fill="#26a69a" opacity="0.9"/><rect x="1143" y="1000.8107976416703" width="10" height="19.18920235832968" fill="#26a69a" opacity="0.9"/><rect x="1155" y="1001.5358378404717" width="10" height="18.464162159528314" fill="#26a69a" opacity="0.9"/><rect x="1167" y="1005.7474540759148" width="10" height="14.252545924085211" fill="#ef5350" opacity="0.9"/><rect x="1179" y="996.1806266140428" width="10" height="23.819373385957192" fill="#ef5350" opacity="0.9"/><rect x="1191" y="998.1459825561565" width="10" height="21.85401744384353" fill="#26a69a" opacity="0.9"/><rect x="1203" y="988.834722019198" width="10" height="31.16527798080199" fill="#26a69a" opacity="0.9"/><rect x="1215" y="1002.4718608390586" width="10" height="17.52813916094135" fill="#26a69a" opacity="0.9"/><rect x="1227" y="1005.8580616868879" width="10" height="14.141938313112064" fill="#ef5350" opacity="0.9"/><rect x="1239" y="1002.2055742337865" width="10" height="17.79442576621352" fill="#ef5350" opacity="0.9"/><rect x="1251" y="1005.0567655800809" width="10" height="14.943234419919122" fill="#ef5350" opacity="0.9"/><rect x="1263" y="1002.7756663255859" width="10" height="17.224333674414083" fill="#26a69a" opacity="0.9"/><rect x="1275" y="992.0411245919213" width="10" height="27.95887540807871" fill="#26a69a" opacity="0.9"/><rect x="1287" y="1003.4307849729572" width="10" height="16.569215027042787" fill="#ef5350" opacity="0.9"/><rect x="1299" y="991.9619451347269" width="10" height="28.038054865273125" fill="#ef5350" opacity="0.9"/><rect x="1311" y="997.2248209326121" width="10" height="22.775179067387853" fill="#26a69a" opacity="0.9"/><rect x="1323" y="998.025629781221" width="10" height="21.974370218778972" fill="#26a69a" opacity="0.9"/><rect x="1335" y="1001.4534912049895" width="10" height="18.54650879501048" fill="#26a69a" opacity="0.9"/><rect x="1347" y="1001.2461628416899" width="10" height="18.753837158310148" fill="#26a69a" opacity="0.9"/><rect x="1359" y="998.4851142620474" width="10" height="21.514885737952568" fill="#26a69a" opacity="0.9"/><rect x="1371" y="984.1716610631973" width="10" height="35.82833893680265" fill="#26a69a" opacity="0.9"/><rect x="1383" y="981.0909711055889" width="10" height="38.90902889441111" fill="#26a69a" opacity="0.9"/><rect x="1395" y="985.7394143156458" width="10" height="34.26058568435417" fill="#26a69a" opacity="0.9"/><rect x="1407" y="990.4748331140671" width="10" height="29.52516688593289" fill="#26a69a" opacity="0.9"/><rect x="1419" y="986.0117916483945" width="10" height="33.98820835160552" fill="#26a69a" opacity="0.9"/><rect x="1431" y="997.1736588218097" width="10" height="22.82634117819032" fill="#26a69a" opacity="0.9"/><rect x="1443" y="993.1869122447986" width="10" height="26.813087755201423" fill="#ef5350" opacity="0.9"/><rect x="1455" y="1001.9451347268918" width="10" height="18.05486527310825" fill="#26a69a" opacity="0.9"/><rect x="1467" y="1002.4601666423038" width="10" height="17.53983335769624" fill="#26a69a" opacity="0.9"/><rect x="1479" y="1001.7124689372898" width="10" height="18.287531062710173" fill="#ef5350" opacity="0.9"/><rect x="1491" y="1006.5158602543488" width="10" height="13.484139745651191" fill="#ef5350" opacity="0.9"/><rect x="1503" y="1005.7835111825757" width="10" height="14.216488817424306" fill="#26a69a" opacity="0.9"/><rect x="1515" y="1005.5715538663939" width="10" height="14.428446133606144" fill="#ef5350" opacity="0.9"/><rect x="1527" y="1003.7901378940701" width="10" height="16.209862105929915" fill="#ef5350" opacity="0.9"/><rect x="1539" y="1003.8191297568582" width="10" height="16.18087024314184" fill="#ef5350" opacity="0.9"/><rect x="1551" y="1005.5398820835161" width="10" height="14.46011791648391" fill="#ef5350" opacity="0.9"/><rect x="1563" y="1003.5664863811334" width="10" height="16.43351361886664" fill="#26a69a" opacity="0.9"/><rect x="1575" y="1004.7249427471618" width="10" height="15.275057252838224" fill="#ef5350" opacity="0.9"/><rect x="1587" y="998.2444087121766" width="10" height="21.75559128782345" fill="#26a69a" opacity="0.9"/><rect x="1599" y="1006.2208254153876" width="10" height="13.779174584612406" fill="#26a69a" opacity="0.9"/><rect x="1611" y="1004.5607367343955" width="10" height="15.439263265604495" fill="#26a69a" opacity="0.9"/><rect x="1623" y="1004.6703698289724" width="10" height="15.329630171027588" fill="#26a69a" opacity="0.9"/><rect x="1635" y="1006.0924328801832" width="10" height="13.907567119816804" fill="#ef5350" opacity="0.9"/><rect x="1647" y="1005.5657067680164" width="10" height="14.434293231983588" fill="#ef5350" opacity="0.9"/><rect x="1659" y="1006.9885007065244" width="10" height="13.011499293475595" fill="#26a69a" opacity="0.9"/><rect x="1671" y="1005.1827218242947" width="10" height="14.817278175705269" fill="#ef5350" opacity="0.9"/><rect x="1683" y="1006.1518783803538" width="10" height="13.848121619646236" fill="#ef5350" opacity="0.9"/><rect x="1695" y="1002.530575451932" width="10" height="17.46942454806799" fill="#ef5350" opacity="0.9"/><rect x="1707" y="1003.3618379379233" width="10" height="16.63816206207673" fill="#ef5350" opacity="0.9"/><rect x="1719" y="1005.6429371924182" width="10" height="14.35706280758177" fill="#26a69a" opacity="0.9"/><rect x="1731" y="1004.145592749598" width="10" height="15.854407250402005" fill="#26a69a" opacity="0.9"/><rect x="1743" y="1005.9942503532621" width="10" height="14.005749646737854" fill="#26a69a" opacity="0.9"/><rect x="1755" y="1002.4998781854505" width="10" height="17.500121814549516" fill="#26a69a" opacity="0.9"/><rect x="1767" y="1003.1735126443502" width="10" height="16.82648735564976" fill="#ef5350" opacity="0.9"/><rect x="1779" y="1002.9547337133947" width="10" height="17.045266286605283" fill="#26a69a" opacity="0.9"/><rect x="1791" y="1001.1616235443162" width="10" height="18.83837645568383" fill="#26a69a" opacity="0.9"/><rect x="1803" y="986.7853140379087" width="10" height="33.214685962091266" fill="#ef5350" opacity="0.9"/><rect x="1815" y="1004.6386980460946" width="10" height="15.361301953905354" fill="#26a69a" opacity="0.9"/><rect x="1827" y="1003.315304780003" width="10" height="16.684695219997025" fill="#26a69a" opacity="0.9"/><rect x="1839" y="1000.4738585976709" width="10" height="19.52614140232913" fill="#ef5350" opacity="0.9"/><rect x="1851" y="1002.297666033231" width="10" height="17.702333966768947" fill="#ef5350" opacity="0.9"/><rect x="1863" y="992.2513765044097" width="10" height="27.748623495590323" fill="#26a69a" opacity="0.9"/><rect x="1875" y="997.085221458851" width="10" height="22.914778541148962" fill="#ef5350" opacity="0.9"/><rect x="1887" y="994.5110363981873" width="10" height="25.488963601812657" fill="#26a69a" opacity="0.9"/><rect x="1899" y="997.9062515226818" width="10" height="22.093748477318172" fill="#ef5350" opacity="0.9"/><rect x="1911" y="998.2731569458656" width="10" height="21.726843054134406" fill="#26a69a" opacity="0.9"/><rect x="1923" y="958.0024850168104" width="10" height="61.9975149831896" fill="#26a69a" opacity="0.9"/><rect x="1935" y="869.194562198509" width="10" height="150.80543780149105" fill="#ef5350" opacity="0.9"/><rect x="1004" y="408.78880914285344" width="12" height="223.45271200000366" fill="#00ff00" opacity="0.60"/><polyline points="320,531.1715138149468,332,512.5670513835887,344,498.87233530623365,356,490.0757965967906,368,480.16262663518967,380,471.09584815292953,392,467.3333965465255,404,466.111683460453,416,470.75007932136424,428,476.19536569892654,440,476.5075051289646,452,483.3045733207655,464,482.9396453582376,476,481.19796354180187,488,477.7763369731864,500,473.9096785947887,512,467.1648029735089,524,460.1936756154958,536,455.0808187813605,548,448.5005038498067,560,443.36121755118904,572,438.4399430633233,584,433.4444734382487,596,428.0561419815448,608,425.47197237787,620,423.5573667908674,632,423.99665670195,644,427.54286006365874,656,434.7687012004566,668,441.414944623544,680,450.2512301695918,692,458.3545423439188,704,462.8630927057202,716,469.8738527473584,728,472.9595931387718,740,474.0142118058299,752,479.0943396610601,764,485.21073223755593,776,487.92159354826646,788,491.56863122394236,800,492.37104708016494,812,493.3141975351126,824,497.9677403004774,836,497.4006738773044,848,494.0645960930721,860,492.67490405699,872,492.6119172760601,884,491.4800109232471,896,492.6165995972172,908,493.4277864655087,920,498.6133992919219,932,505.8024291280552,944,513.1754102995338,956,520.4976684750883,968,527.3397238856237,980,535.5931295563876,992,538.9345475306072,1004,547.8209259698685,1016,539.5743417822555,1028,531.7874137757826,1040,521.2676145862523,1052,504.69215665286487,1064,486.87229607368346,1076,473.89831554966287,1088,460.0969777422116,1100,450.97595880077796,1112,441.74640996261587,1124,439.04190125869195,1136,432.79474854017667,1148,427.25114037988794,1160,421.58402932328886,1172,419.6053936054211,1184,422.5926140239478,1196,424.7524493141749,1208,425.7293875291517,1220,425.744663165824,1232,430.2644545922054,1244,435.4829967671061,1256,442.0612120409844,1268,447.1443097785725,1280,451.74330296971937,1292,458.61873686375736,1304,465.8165660059759,1316,471.3516891346574,1328,471.4736655163896,1340,471.04113704544943,1352,466.30669754452225,1364,460.394492989261,1376,449.1278760243014,1388,438.445670906341,1400,426.5984088608353,1412,415.1302719625294,1424,403.9942953674524,1436,392.39880144129654,1448,384.94781322239885,1460,377.22924456176247,1472,366.022108780375,1484,356.4252073183005,1496,348.4914818866206,1508,341.41106918993626,1520,335.8844601514387,1532,332.7300141506255,1544,330.6360347893393,1556,330.47872372096333,1568,328.924885761145,1580,327.8447652668807,1592,324.8045388061006,1604,321.07665935518526,1616,315.7494190900642,1628,310.8100997209476,1640,308.08929109446456,1652,306.27907278614134,1664,303.8812130105986,1676,301.71172083272336,1688,300.4003125357225,1700,300.62530916497315,1712,301.3826232853197,1724,301.676932904398,1736,299.2830617434395,1748,296.6828678903247,1760,293.89600112525454,1772,294.7404559840704,1784,295.05931835293654,1796,292.64423050980054,1808,290.5677286653372,1820,287.38605763598696,1832,282.8787388407234,1844,279.2349989239093,1856,276.8069026998611,1868,270.9184150957948,1880,266.7850894676251,1892,262.2853706883949,1904,260.8200590854202,1916,257.2141712269513,1928,245.59122572233844,1940,237.89824509572748" fill="none" stroke="#0090ff" stroke-width="2"/><line x1="80" y1="50" x2="80" y2="900" stroke="#666666" stroke-width="0.5" stroke-dasharray="4,4" opacity="0.90"/><line x1="152" y1="50" x2="152" y2="900" stroke="#666666" stroke-width="0.5" stroke-dasharray="4,4" opacity="0.90"/><line x1="224" y1="50" x2="224" y2="900" stroke="#666666" stroke-width="0.5" stroke-dasharray="4,4" opacity="0.90"/><line x1="296" y1="50" x2="296" y2="900" stroke="#666666" stroke-width="0.5" stroke-dasharray="4,4" opacity="0.90"/><line x1="368" y1="50" x2="368" y2="900" stroke="#666666" stroke-width="0.5" stroke-dasharray="4,4" opacity="0.90"/><line x1="440" y1="50" x2="440" y2="900" stroke="#666666" stroke-width="0.5" stroke-dasharray="4,4" opacity="0.90"/><line x1="512" y1="50" x2="512" y2="900" stroke="#666666" stroke-width="0.5" stroke-dasharray="4,4" opacity="0.90"/><line x1="584" y1="50" x2="584" y2="900" stroke="#666666" stroke-width="0.5" stroke-dasharray="4,4" opacity="0.90"/><line x1="656" y1="50" x2="656" y2="900" stroke="#666666" stroke-width="0.5" stroke-dasharray="4,4" opacity="0.90"/><line x1="728" y1="50" x2="728" y2="900" stroke="#666666" stroke-width="0.5" stroke-dasharray="4,4" opacity="0.90"/><line x1="800" y1="50" x2="800" y2="900" stroke="#666666" stroke-width="0.5" stroke-dasharray="4,4" opacity="0.90"/><line x1="872" y1="50" x2="872" y2="900" stroke="#666666" stroke-width="0.5" stroke-dasharray="4,4" opacity="0.90"/><line x1="944" y1="50" x2="944" y2="900" stroke="#666666" stroke-width="0.5" stroke-dasharray="4,4" opacity="0.90"/><line x1="1010" y1="30" x2="1010" y2="950" stroke="black" stroke-width="0.7"/><line x1="1016" y1="50" x2="1016" y2="900" stroke="#666666" stroke-width="0.5" stroke-dasharray="4,4" opacity="0.90"/><line x1="1088" y1="50" x2="1088" y2="900" stroke="#666666" stroke-width="0.5" stroke-dasharray="4,4" opacity="0.90"/><line x1="1160" y1="50" x2="1160" y2="900" stroke="#666666" stroke-width="0.5" stroke-dasharray="4,4" opacity="0.90"/><line x1="1232" y1="50" x2="1232" y2="900" stroke="#666666" stroke-width="0.5" stroke-dasharray="4,4" opacity="0.90"/><line x1="1304" y1="50" x2="1304" y2="900" stroke="#666666" stroke-width="0.5" stroke-dasharray="4,4" opacity="0.90"/><line x1="1376" y1="50" x2="1376" y2="900" stroke="#666666" stroke-width="0.5" stroke-dasharray="4,4" opacity="0.90"/><line x1="1448" y1="50" x2="1448" y2="900" stroke="#666666" stroke-width="0.5" stroke-dasharray="4,4" opacity="0.90"/><line x1="1520" y1="50" x2="1520" y2="900" stroke="#666666" stroke-width="0.5" stroke-dasharray="4,4" opacity="0.90"/><line x1="1592" y1="50" x2="1592" y2="900" stroke="#666666" stroke-width="0.5" stroke-dasharray="4,4" opacity="0.90"/><line x1="1664" y1="50" x2="1664" y2="900" stroke="#666666" stroke-width="0.5" stroke-dasharray="4,4" opacity="0.90"/><line x1="1736" y1="50" x2="1736" y2="900" stroke="#666666" stroke-width="0.5" stroke-dasharray="4,4" opacity="0.90"/><line x1="1808" y1="50" x2="1808" y2="900" stroke="#666666" stroke-width="0.5" stroke-dasharray="4,4" opacity="0.90"/><line x1="1880" y1="50" x2="1880" y2="900" stroke="#666666" stroke-width="0.5" stroke-dasharray="4,4" opacity="0.90"/><line x1="1946" y1="30" x2="1946" y2="950" stroke="black" stroke-width="0.7"/><text x="80" y="1040" text-anchor="middle" font-size="20" fill="black">09:30</text><text x="152" y="1040" text-anchor="middle" font-size="20" fill="black">10:00</text><text x="224" y="1040" text-anchor="middle" font-size="20" fill="black">10:30</text><text x="296" y="1040" text-anchor="middle" font-size="20" fill="black">11:00</text><text x="368" y="1040" text-anchor="middle" font-size="20" fill="black">11:30</text><text x="440" y="1040" text-anchor="middle" font-size="20" fill="black">12:00</text><text x="512" y="1040" text-anchor="middle" font-size="20" fill="black">12:30</text><text x="584" y="1040" text-anchor="middle" font-size="20" fill="black">13:00</text><text x="656" y="1040" text-anchor="middle" font-size="20" fill="black">13:30</text><text x="728" y="1040" text-anchor="middle" font-size="20" fill="black">14:00</text><text x="800" y="1040" text-anchor="middle" font-size="20" fill="black">14:30</text><text x="872" y="1040" text-anchor="middle" font-size="20" fill="black">15:00</text><text x="944" y="1040" text-anchor="middle" font-size="20" fill="black">15:30</text><text x="1016" y="1040" text-anchor="middle" font-size="20" fill="black">09:30</text><text x="1088" y="1040" text-anchor="middle" font-size="20" fill="black">10:00</text><text x="1160" y="1040" text-anchor="middle" font-size="20" fill="black">10:30</text><text x="1232" y="1040" text-anchor="middle" font-size="20" fill="black">11:00</text><text x="1304" y="1040" text-anchor="middle" font-size="20" fill="black">11:30</text><text x="1376" y="1040" text-anchor="middle" font-size="20" fill="black">12:00</text><text x="1448" y="1040" text-anchor="middle" font-size="20" fill="black">12:30</text><text x="1520" y="1040" text-anchor="middle" font-size="20" fill="black">13:00</text><text x="1592" y="1040" text-anchor="middle" font-size="20" fill="black">13:30</text><text x="1664" y="1040" text-anchor="middle" font-size="20" fill="black">14:00</text><text x="1736" y="1040" text-anchor="middle" font-size="20" fill="black">14:30</text><text x="1808" y="1040" text-anchor="middle" font-size="20" fill="black">15:00</text><text x="1880" y="1040" text-anchor="middle" font-size="20" fill="black">15:30</text><text x="1942" y="50" text-anchor="end" font-size="40" fill="#26a69a" font-weight="bold"> +0.36% (Fri)</text></svg>