<svg xmlns="http://www.w3.org/2000/svg" width="1992" height="1050"><rect width="100%" height="100%" fill="white"/><text x="42" y="854.0" text-anchor="end" font-size="20" fill="black">544</text><text x="42" y="754.0" text-anchor="end" font-size="20" fill="black">545</text><text x="42" y="654.0" text-anchor="end" font-size="20" fill="black">546</text><text x="42" y="554.0" text-anchor="end" font-size="20" fill="black">547</text><text x="42" y="454.0" text-anchor="end" font-size="20" fill="black">548</text><text x="42" y="354.0" text-anchor="end" font-size="20" fill="black">549</text><text x="42" y="254.0" text-anchor="end" font-size="20" fill="black">550</text><text x="42" y="154.0" text-anchor="end" font-size="20" fill="black">551</text><text x="42" y="54.0" text-anchor="end" font-size="20" fill="black">552</text><line x1="80" y1="610.824131000004" x2="80" y2="709.5822490000046" stroke="#26a69a" stroke-width="2"/><rect x="76" y="634.7654929999976" width="8" height="22.943804999999884" fill="#26a69a"/><line x1="92" y1="574.9120879999964" x2="92" y2="659.7044119999964" stroke="#26a69a" stroke-width="2"/><rect x="88" y="587.8803260000041" width="8" height="46.885166999993544" fill="#26a69a"/><line x1="104" y1="586.8827689999989" x2="104" y2="635.7630500000027" stroke="#ef5350" stroke-width="2"/><rect x="100" y="588.877881999997" width="8" height="7.980454000005466" fill="#ef5350"/><line x1="116" y1="570.9218609999994" x2="116" y2="598.8534500000014" stroke="#26a69a" stroke-width="2"/><rect x="112" y="595.3620010000009" width="8" height="2" fill="#26a69a"/><line x1="128" y1="569.9243040000056" x2="128" y2="604.8387899999966" stroke="#26a69a" stroke-width="2"/><rect x="124" y="574.9120879999964" width="8" height="15.960907999999563" fill="#26a69a"/><line x1="140" y1="511.06845599999815" x2="140" y2="575.9096450000015" stroke="#26a69a" stroke-width="2"/><rect x="136" y="525.0342499999988" width="8" height="49.87783799999761" fill="#26a69a"/><line x1="152" y1="441.23948300000393" x2="152" y2="523.0391370000007" stroke="#26a69a" stroke-width="2"/><rect x="148" y="456.20283499999914" width="8" height="66.83630200000152" fill="#26a69a"/><line x1="164" y1="405.3274399999964" x2="164" y2="462.1881749999943" stroke="#26a69a" stroke-width="2"/><rect x="160" y="449.219936999998" width="8" height="5.985341000007338" fill="#26a69a"/><line x1="176" y1="385.3763049999998" x2="176" y2="473.16129900000305" stroke="#26a69a" stroke-width="2"/><rect x="172" y="436.25170000000253" width="8" height="11.970681000002514" fill="#26a69a"/><line x1="188" y1="415.3030080000008" x2="188" y2="467.1759589999965" stroke="#ef5350" stroke-width="2"/><rect x="184" y="437.2492559999955" width="8" height="17.956022000009852" fill="#ef5350"/><line x1="200" y1="401.33721299999934" x2="200" y2="473.16129900000305" stroke="#ef5350" stroke-width="2"/><rect x="196" y="453.2101639999951" width="8" height="15.960907999999563" fill="#ef5350"/><line x1="212" y1="469.17107199999464" x2="212" y2="508.0757859999949" stroke="#ef5350" stroke-width="2"/><rect x="208" y="471.1661860000049" width="8" height="11.970680999991146" fill="#ef5350"/><line x1="224" y1="476.6527480000036" x2="224" y2="526.0318070000039" stroke="#ef5350" stroke-width="2"/><rect x="220" y="483.1368669999961" width="8" height="13.965794000000642" fill="#ef5350"/><line x1="236" y1="408.32011100000045" x2="236" y2="515.0586829999952" stroke="#26a69a" stroke-width="2"/><rect x="232" y="444.2321539999966" width="8" height="52.87050700000009" fill="#26a69a"/><line x1="248" y1="429.2688020000014" x2="248" y2="457.2003910000035" stroke="#26a69a" stroke-width="2"/><rect x="244" y="442.2370399999977" width="8" height="2.9926700000032724" fill="#26a69a"/><line x1="260" y1="435.2541429999974" x2="260" y2="471.1661860000049" stroke="#ef5350" stroke-width="2"/><rect x="256" y="438.74559199999794" width="8" height="22.4450260000026" fill="#ef5350"/><line x1="272" y1="457.2003910000035" x2="272" y2="553.9633959999946" stroke="#ef5350" stroke-width="2"/><rect x="268" y="460.1930619999962" width="8" height="42.894940000007864" fill="#ef5350"/><line x1="284" y1="500.0953320000008" x2="284" y2="563.938963999999" stroke="#ef5350" stroke-width="2"/><rect x="280" y="502.0904449999989" width="8" height="35.912042999996174" fill="#ef5350"/><line x1="296" y1="509.07334199999923" x2="296" y2="568.9267470000004" stroke="#26a69a" stroke-width="2"/><rect x="292" y="514.0611260000014" width="8" height="23.94136199999366" fill="#26a69a"/><line x1="308" y1="480.2439520000007" x2="308" y2="522.5403590000042" stroke="#26a69a" stroke-width="2"/><rect x="304" y="499.09777499999564" width="8" height="19.95113500000798" fill="#26a69a"/><line x1="320" y1="472.1637429999987" x2="320" y2="500.0953320000008" stroke="#26a69a" stroke-width="2"/><rect x="316" y="492.6136560000032" width="8" height="5.9853409999959695" fill="#26a69a"/><line x1="332" y1="491.11732100000154" x2="332" y2="537.0049310000013" stroke="#ef5350" stroke-width="2"/><rect x="328" y="491.61609899999803" width="8" height="10.57410199999822" fill="#ef5350"/><line x1="344" y1="467.1759589999965" x2="344" y2="521.0440230000017" stroke="#26a69a" stroke-width="2"/><rect x="340" y="468.17351600000165" width="8" height="35.912042999996174" fill="#26a69a"/><line x1="356" y1="458.19794799999727" x2="356" y2="484.1344240000012" stroke="#26a69a" stroke-width="2"/><rect x="352" y="458.19794799999727" width="8" height="9.975568000004387" fill="#26a69a"/><line x1="368" y1="422.2859050000011" x2="368" y2="464.1832890000046" stroke="#26a69a" stroke-width="2"/><rect x="364" y="423.28346199999487" width="8" height="34.9144860000024" fill="#26a69a"/><line x1="380" y1="410.3152239999986" x2="380" y2="432.2614730000055" stroke="#26a69a" stroke-width="2"/><rect x="376" y="412.80911600000536" width="8" height="8.479231999990589" fill="#26a69a"/><line x1="392" y1="399.3421000000012" x2="392" y2="427.2736890000033" stroke="#26a69a" stroke-width="2"/><rect x="388" y="406.32499700000153" width="8" height="6.982897000000321" fill="#26a69a"/><line x1="404" y1="392.3592030000009" x2="404" y2="421.7871270000046" stroke="#26a69a" stroke-width="2"/><rect x="400" y="395.35187300000416" width="8" height="8.978010999999242" fill="#26a69a"/><line x1="416" y1="393.35675900000524" x2="416" y2="421.28834799999595" stroke="#ef5350" stroke-width="2"/><rect x="412" y="394.8530949999963" width="8" height="10.474345000000085" fill="#ef5350"/><line x1="428" y1="400.339656999995" x2="428" y2="421.28834799999595" stroke="#ef5350" stroke-width="2"/><rect x="424" y="405.3274399999964" width="8" height="12.96823800000766" fill="#ef5350"/><line x1="440" y1="418.29567800000405" x2="440" y2="448.22238100000504" stroke="#ef5350" stroke-width="2"/><rect x="436" y="420.29079200000297" width="8" height="13.965794000000642" fill="#ef5350"/><line x1="452" y1="421.28834799999595" x2="452" y2="440.2419269999996" stroke="#26a69a" stroke-width="2"/><rect x="448" y="433.25902899999846" width="8" height="3.9902269999970486" fill="#26a69a"/><line x1="464" y1="421.7871270000046" x2="464" y2="444.2321539999966" stroke="#ef5350" stroke-width="2"/><rect x="460" y="435.2541429999974" width="8" height="3.9902269999970486" fill="#ef5350"/><line x1="476" y1="435.2541429999974" x2="476" y2="492.1148779999953" stroke="#ef5350" stroke-width="2"/><rect x="472" y="436.25170000000253" width="8" height="46.885166999993544" fill="#ef5350"/><line x1="488" y1="461.19061800000054" x2="488" y2="492.1148779999953" stroke="#ef5350" stroke-width="2"/><rect x="484" y="479.146639999999" width="8" height="2" fill="#ef5350"/><line x1="500" y1="443.23459700000285" x2="500" y2="484.1344240000012" stroke="#26a69a" stroke-width="2"/><rect x="496" y="448.22238100000504" width="8" height="32.91937199999211" fill="#26a69a"/><line x1="512" y1="443.23459700000285" x2="512" y2="463.18573199999946" stroke="#ef5350" stroke-width="2"/><rect x="508" y="451.21505099999695" width="8" height="8.978010999999242" fill="#ef5350"/><line x1="524" y1="459.1955050000024" x2="524" y2="485.13198000000557" stroke="#ef5350" stroke-width="2"/><rect x="520" y="459.1955050000024" width="8" height="14.963350999994418" fill="#ef5350"/><line x1="536" y1="463.18573199999946" x2="536" y2="505.0831150000022" stroke="#ef5350" stroke-width="2"/><rect x="532" y="472.1637429999987" width="8" height="18.953578000002835" fill="#ef5350"/><line x1="548" y1="485.13198000000557" x2="548" y2="515.0586829999952" stroke="#ef5350" stroke-width="2"/><rect x="544" y="492.1148779999953" width="8" height="6.982897000000321" fill="#ef5350"/><line x1="560" y1="470.1686289999998" x2="560" y2="513.0635689999963" stroke="#26a69a" stroke-width="2"/><rect x="556" y="473.16129900000305" width="8" height="29.926703000000998" fill="#26a69a"/><line x1="572" y1="447.2248239999999" x2="572" y2="481.14175299999715" stroke="#26a69a" stroke-width="2"/><rect x="568" y="455.20527800000536" width="8" height="17.95602099999769" fill="#26a69a"/><line x1="584" y1="454.2077210000002" x2="584" y2="501.09288800000513" stroke="#ef5350" stroke-width="2"/><rect x="580" y="455.70405600000186" width="8" height="25.437696999995296" fill="#ef5350"/><line x1="596" y1="467.1759589999965" x2="596" y2="491.11732100000154" stroke="#26a69a" stroke-width="2"/><rect x="592" y="467.1759589999965" width="8" height="16.958465000004708" fill="#26a69a"/><line x1="608" y1="447.7236019999964" x2="608" y2="468.17351600000165" stroke="#26a69a" stroke-width="2"/><rect x="604" y="451.21505099999695" width="8" height="16.459686000007423" fill="#26a69a"/><line x1="620" y1="451.21505099999695" x2="620" y2="488.12465099999827" stroke="#ef5350" stroke-width="2"/><rect x="616" y="452.2126080000021" width="8" height="23.94136199999366" fill="#ef5350"/><line x1="632" y1="475.156413000002" x2="632" y2="522.0415799999955" stroke="#ef5350" stroke-width="2"/><rect x="628" y="475.156413000002" width="8" height="30.92425899999398" fill="#ef5350"/><line x1="644" y1="495.1075479999986" x2="644" y2="519.0489100000036" stroke="#ef5350" stroke-width="2"/><rect x="640" y="505.58189399999947" width="8" height="3.491447999999764" fill="#ef5350"/><line x1="656" y1="492.1148779999953" x2="656" y2="523.0391370000007" stroke="#ef5350" stroke-width="2"/><rect x="652" y="508.0757859999949" width="8" height="11.970681000002514" fill="#ef5350"/><line x1="668" y1="504.08555899999783" x2="668" y2="537.0049310000013" stroke="#26a69a" stroke-width="2"/><rect x="664" y="505.0831150000022" width="8" height="15.960907999999563" fill="#26a69a"/><line x1="680" y1="486.12953699999935" x2="680" y2="611.8216879999977" stroke="#ef5350" stroke-width="2"/><rect x="676" y="505.0831150000022" width="8" height="50.875395000002754" fill="#ef5350"/><line x1="692" y1="556.9560659999979" x2="692" y2="669.679979" stroke="#ef5350" stroke-width="2"/><rect x="688" y="558.9511799999968" width="8" height="75.81431300000077" fill="#ef5350"/><line x1="704" y1="604.8387899999966" x2="704" y2="681.6506600000025" stroke="#26a69a" stroke-width="2"/><rect x="700" y="634.7654929999976" width="8" height="6.982897000000321" fill="#26a69a"/><line x1="716" y1="579.8998719999986" x2="716" y2="688.6335570000028" stroke="#26a69a" stroke-width="2"/><rect x="712" y="592.8681090000055" width="8" height="38.90471399998887" fill="#26a69a"/><line x1="728" y1="586.8827689999989" x2="728" y2="632.870134999996" stroke="#ef5350" stroke-width="2"/><rect x="724" y="591.8705530000011" width="8" height="21.94624799999474" fill="#ef5350"/><line x1="740" y1="581.8949849999967" x2="740" y2="621.7972550000013" stroke="#ef5350" stroke-width="2"/><rect x="736" y="608.829017000005" width="8" height="2.992670999992697" fill="#ef5350"/><line x1="752" y1="598.8534500000014" x2="752" y2="665.689752000003" stroke="#ef5350" stroke-width="2"/><rect x="748" y="608.829017000005" width="8" height="42.89494099999729" fill="#ef5350"/><line x1="764" y1="638.7557199999947" x2="764" y2="735.5187249999972" stroke="#ef5350" stroke-width="2"/><rect x="760" y="655.7141849999994" width="8" height="47.88272399999869" fill="#ef5350"/><line x1="776" y1="680.6531029999974" x2="776" y2="744.4967349999956" stroke="#26a69a" stroke-width="2"/><rect x="772" y="697.1127900000056" width="8" height="4.48900499999354" fill="#26a69a"/><line x1="788" y1="677.6604330000055" x2="788" y2="766.4429840000025" stroke="#ef5350" stroke-width="2"/><rect x="784" y="699.1079030000037" width="8" height="66.33752399999366" fill="#ef5350"/><line x1="800" y1="741.5040650000037" x2="800" y2="808.3403670000052" stroke="#26a69a" stroke-width="2"/><rect x="796" y="757.4649730000033" width="8" height="5.9853409999959695" fill="#26a69a"/><line x1="812" y1="744.4967349999956" x2="812" y2="845.2499669999952" stroke="#ef5350" stroke-width="2"/><rect x="808" y="756.4674159999981" width="8" height="83.79476700000623" fill="#ef5350"/><line x1="824" y1="830.2866160000008" x2="824" y2="902.1107020000045" stroke="#26a69a" stroke-width="2"/><rect x="820" y="831.2841729999946" width="8" height="12.968237000006866" fill="#26a69a"/><line x1="836" y1="783.4014489999959" x2="836" y2="844.2524100000014" stroke="#ef5350" stroke-width="2"/><rect x="832" y="832.2817289999989" width="8" height="9.975568000004387" fill="#ef5350"/><line x1="848" y1="845.2499669999952" x2="848" y2="928.0471769999963" stroke="#ef5350" stroke-width="2"/><rect x="844" y="845.2499669999952" width="8" height="53.86806500000603" fill="#ef5350"/><line x1="860" y1="887.1473509999987" x2="860" y2="928.0471769999963" stroke="#26a69a" stroke-width="2"/><rect x="856" y="900.1155880000056" width="8" height="2" fill="#26a69a"/><line x1="872" y1="824.3012750000048" x2="872" y2="915.0789400000008" stroke="#26a69a" stroke-width="2"/><rect x="868" y="835.274400000003" width="8" height="69.82897199999343" fill="#26a69a"/><line x1="884" y1="798.3648000000017" x2="884" y2="867.1962160000021" stroke="#26a69a" stroke-width="2"/><rect x="880" y="821.3086050000015" width="8" height="13.965795000001435" fill="#26a69a"/><line x1="896" y1="764.4478700000036" x2="896" y2="818.3159349999983" stroke="#26a69a" stroke-width="2"/><rect x="892" y="771.4307680000047" width="8" height="46.885166999993544" fill="#26a69a"/><line x1="908" y1="755.4698600000052" x2="908" y2="803.3525840000038" stroke="#ef5350" stroke-width="2"/><rect x="904" y="765.4454269999974" width="8" height="14.963351000005787" fill="#ef5350"/><line x1="920" y1="742.5016219999975" x2="920" y2="782.4038920000021" stroke="#26a69a" stroke-width="2"/><rect x="916" y="742.5016219999975" width="8" height="39.90227000000459" fill="#26a69a"/><line x1="932" y1="722.5504870000009" x2="932" y2="769.4356539999944" stroke="#ef5350" stroke-width="2"/><rect x="928" y="743.4991790000026" width="8" height="13.965794000000642" fill="#ef5350"/><line x1="944" y1="708.5846919999994" x2="944" y2="755.4698600000052" stroke="#26a69a" stroke-width="2"/><rect x="940" y="714.5700329999954" width="8" height="40.899827000009736" fill="#26a69a"/><line x1="956" y1="688.6335570000028" x2="956" y2="727.5382710000031" stroke="#26a69a" stroke-width="2"/><rect x="952" y="695.616455000004" width="8" height="19.95113499999661" fill="#26a69a"/><line x1="968" y1="664.6921949999978" x2="968" y2="690.6286710000018" stroke="#26a69a" stroke-width="2"/><rect x="964" y="676.6628760000003" width="8" height="13.965795000001435" fill="#26a69a"/><line x1="980" y1="641.7483899999979" x2="980" y2="680.6531029999974" stroke="#ef5350" stroke-width="2"/><rect x="976" y="676.6628760000003" width="8" height="2" fill="#ef5350"/><line x1="992" y1="584.887655" x2="992" y2="686.6384440000047" stroke="#26a69a" stroke-width="2"/><rect x="988" y="600.8485629999996" width="8" height="77.80942699999969" fill="#26a69a"/><line x1="1004" y1="545.9829420000005" x2="1004" y2="604.8387899999966" stroke="#26a69a" stroke-width="2"/><rect x="1000" y="562.9414070000053" width="8" height="37.9071559999943" fill="#26a69a"/><line x1="1016" y1="253.69881399999485" x2="1016" y2="389.3665319999968" stroke="#ef5350" stroke-width="2"/><rect x="1012" y="258.68659799999705" width="8" height="111.72635600000831" fill="#ef5350"/><line x1="1028" y1="318.54000299999825" x2="1028" y2="408.32011100000045" stroke="#26a69a" stroke-width="2"/><rect x="1024" y="352.5566880000042" width="8" height="15.861152999991646" fill="#26a69a"/><line x1="1040" y1="339.488695" x2="1040" y2="417.2981209999989" stroke="#ef5350" stroke-width="2"/><rect x="1036" y="353.45448900000065" width="8" height="43.89249700000164" fill="#ef5350"/><line x1="1052" y1="362.4324999999999" x2="1052" y2="483.1368669999961" stroke="#ef5350" stroke-width="2"/><rect x="1048" y="397.3469860000023" width="8" height="34.91448700000319" fill="#ef5350"/><line x1="1064" y1="383.38119200000165" x2="1064" y2="441.23948300000393" stroke="#26a69a" stroke-width="2"/><rect x="1060" y="418.29567800000405" width="8" height="12.96823799999629" fill="#26a69a"/><line x1="1076" y1="362.4324999999999" x2="1076" y2="417.2981209999989" stroke="#26a69a" stroke-width="2"/><rect x="1072" y="370.91173300000264" width="8" height="46.38638799999626" fill="#26a69a"/><line x1="1088" y1="340.48625200000515" x2="1088" y2="379.3909650000046" stroke="#26a69a" stroke-width="2"/><rect x="1084" y="356.4471600000047" width="8" height="14.963350999994418" fill="#26a69a"/><line x1="1100" y1="341.48380799999813" x2="1100" y2="392.3592030000009" stroke="#ef5350" stroke-width="2"/><rect x="1096" y="359.4398299999966" width="8" height="4.987784000002193" fill="#ef5350"/><line x1="1112" y1="308.56443599999466" x2="1112" y2="369.4153970000002" stroke="#26a69a" stroke-width="2"/><rect x="1108" y="328.51557100000264" width="8" height="38.90471299999945" fill="#26a69a"/><line x1="1124" y1="326.5204570000037" x2="1124" y2="384.3787489999954" stroke="#ef5350" stroke-width="2"/><rect x="1120" y="329.5131269999956" width="8" height="17.956022000009852" fill="#ef5350"/><line x1="1136" y1="345.4740349999952" x2="1136" y2="417.2981209999989" stroke="#ef5350" stroke-width="2"/><rect x="1132" y="350.4618189999974" width="8" height="28.929146000007222" fill="#ef5350"/><line x1="1148" y1="334.5009109999978" x2="1148" y2="403.33232699999826" stroke="#26a69a" stroke-width="2"/><rect x="1144" y="334.5009109999978" width="8" height="44.391275999998925" fill="#26a69a"/><line x1="1160" y1="328.51557100000264" x2="1160" y2="370.41295400000536" stroke="#ef5350" stroke-width="2"/><rect x="1156" y="334.5009109999978" width="8" height="34.9144860000024" fill="#ef5350"/><line x1="1172" y1="368.41784099999586" x2="1172" y2="412.3103379999975" stroke="#ef5350" stroke-width="2"/><rect x="1168" y="372.4080680000043" width="8" height="17.95602099999769" fill="#ef5350"/><line x1="1184" y1="342.4813650000033" x2="1184" y2="410.3152239999986" stroke="#26a69a" stroke-width="2"/><rect x="1180" y="386.3738620000049" width="8" height="7.980453999994097" fill="#26a69a"/><line x1="1196" y1="350.4618189999974" x2="1196" y2="407.3225539999953" stroke="#26a69a" stroke-width="2"/><rect x="1192" y="360.43738700000176" width="8" height="26.934031999996932" fill="#26a69a"/><line x1="1208" y1="357.4447159999977" x2="1208" y2="398.34454299999607" stroke="#ef5350" stroke-width="2"/><rect x="1204" y="359.4398299999966" width="8" height="23.94136200000503" fill="#ef5350"/><line x1="1220" y1="367.4202840000021" x2="1220" y2="394.354315999999" stroke="#ef5350" stroke-width="2"/><rect x="1216" y="383.38119200000165" width="8" height="2" fill="#ef5350"/><line x1="1232" y1="357.4447159999977" x2="1232" y2="398.34454299999607" stroke="#26a69a" stroke-width="2"/><rect x="1228" y="364.4276139999988" width="8" height="18.953578000002835" fill="#26a69a"/><line x1="1244" y1="337.4935810000011" x2="1244" y2="366.42272699999694" stroke="#26a69a" stroke-width="2"/><rect x="1240" y="338.49113799999486" width="8" height="21.9462490000069" fill="#26a69a"/><line x1="1256" y1="337.4935810000011" x2="1256" y2="413.30789400000185" stroke="#ef5350" stroke-width="2"/><rect x="1252" y="340.48625200000515" width="8" height="56.86073399999714" fill="#ef5350"/><line x1="1268" y1="398.34454299999607" x2="1268" y2="428.27124599999706" stroke="#ef5350" stroke-width="2"/><rect x="1264" y="402.3347700000045" width="8" height="14.963350999994418" fill="#ef5350"/><line x1="1280" y1="383.38119200000165" x2="1280" y2="425.27857500000437" stroke="#26a69a" stroke-width="2"/><rect x="1276" y="383.38119200000165" width="8" height="33.91692899999725" fill="#26a69a"/><line x1="1292" y1="371.41051099999913" x2="1292" y2="405.3274399999964" stroke="#ef5350" stroke-width="2"/><rect x="1288" y="386.3738620000049" width="8" height="8.978010999999242" fill="#ef5350"/><line x1="1304" y1="341.48380799999813" x2="1304" y2="412.3103379999975" stroke="#26a69a" stroke-width="2"/><rect x="1300" y="350.4618189999974" width="8" height="43.89249700000164" fill="#26a69a"/><line x1="1316" y1="340.48625200000515" x2="1316" y2="365.42517000000316" stroke="#26a69a" stroke-width="2"/><rect x="1312" y="340.48625200000515" width="8" height="6.982897000000321" fill="#26a69a"/><line x1="1328" y1="316.5448900000001" x2="1328" y2="360.43738700000176" stroke="#26a69a" stroke-width="2"/><rect x="1324" y="325.6226559999959" width="8" height="17.856266000001142" fill="#26a69a"/><line x1="1340" y1="297.5913109999965" x2="1340" y2="333.0045759999962" stroke="#26a69a" stroke-width="2"/><rect x="1336" y="311.55710599999793" width="8" height="15.960907999999563" fill="#26a69a"/><line x1="1352" y1="295.59619799999837" x2="1352" y2="320.5351169999972" stroke="#ef5350" stroke-width="2"/><rect x="1348" y="310.55954900000415" width="8" height="7.980453999994097" fill="#ef5350"/><line x1="1364" y1="311.55710599999793" x2="1364" y2="346.4715920000003" stroke="#ef5350" stroke-width="2"/><rect x="1360" y="320.5351169999972" width="8" height="12.968237000006866" fill="#ef5350"/><line x1="1376" y1="286.6181869999991" x2="1376" y2="334.5009109999978" stroke="#26a69a" stroke-width="2"/><rect x="1372" y="287.61574400000427" width="8" height="43.89249699999027" fill="#26a69a"/><line x1="1388" y1="277.6401759999999" x2="1388" y2="295.59619799999837" stroke="#26a69a" stroke-width="2"/><rect x="1384" y="277.6401759999999" width="8" height="8.978010999999242" fill="#26a69a"/><line x1="1400" y1="274.6475059999966" x2="1400" y2="308.56443599999466" stroke="#ef5350" stroke-width="2"/><rect x="1396" y="277.6401759999999" width="8" height="28.929145999995853" fill="#ef5350"/><line x1="1412" y1="281.63040299999693" x2="1412" y2="357.4447159999977" stroke="#ef5350" stroke-width="2"/><rect x="1408" y="305.57176500000196" width="8" height="32.42059499999641" fill="#ef5350"/><line x1="1424" y1="328.51557100000264" x2="1424" y2="355.44960299999957" stroke="#ef5350" stroke-width="2"/><rect x="1420" y="337.4935810000011" width="8" height="12.96823799999629" fill="#ef5350"/><line x1="1436" y1="332.5057979999997" x2="1436" y2="356.4471600000047" stroke="#26a69a" stroke-width="2"/><rect x="1432" y="346.4715920000003" width="8" height="2.9926700000032724" fill="#26a69a"/><line x1="1448" y1="317.5424460000045" x2="1448" y2="354.4520459999944" stroke="#26a69a" stroke-width="2"/><rect x="1444" y="318.54000299999825" width="8" height="30.92425900000535" fill="#26a69a"/><line x1="1460" y1="304.5742089999976" x2="1460" y2="325.0241220000021" stroke="#26a69a" stroke-width="2"/><rect x="1456" y="316.5448900000001" width="8" height="2.9926700000032724" fill="#26a69a"/><line x1="1472" y1="276.64261999999553" x2="1472" y2="316.5448900000001" stroke="#26a69a" stroke-width="2"/><rect x="1468" y="302.5790949999987" width="8" height="13.965795000001435" fill="#26a69a"/><line x1="1484" y1="280.63284700000395" x2="1484" y2="305.57176500000196" stroke="#26a69a" stroke-width="2"/><rect x="1480" y="294.5986410000046" width="8" height="4.987783999990825" fill="#26a69a"/><line x1="1496" y1="289.6108570000024" x2="1496" y2="306.56932199999574" stroke="#ef5350" stroke-width="2"/><rect x="1492" y="295.59619799999837" width="8" height="2" fill="#ef5350"/><line x1="1508" y1="290.6084139999962" x2="1508" y2="341.48380799999813" stroke="#ef5350" stroke-width="2"/><rect x="1504" y="296.5937550000035" width="8" height="37.9071559999943" fill="#ef5350"/><line x1="1520" y1="322.5302299999953" x2="1520" y2="354.4520459999944" stroke="#ef5350" stroke-width="2"/><rect x="1516" y="331.50824099999454" width="8" height="16.958465000004708" fill="#ef5350"/><line x1="1532" y1="336.49602499999673" x2="1532" y2="370.41295400000536" stroke="#26a69a" stroke-width="2"/><rect x="1528" y="340.48625200000515" width="8" height="9.975566999992225" fill="#26a69a"/><line x1="1544" y1="326.5204570000037" x2="1544" y2="359.4398299999966" stroke="#ef5350" stroke-width="2"/><rect x="1540" y="341.48380799999813" width="8" height="13.965795000001435" fill="#ef5350"/><line x1="1556" y1="348.46670599999925" x2="1556" y2="372.4080680000043" stroke="#ef5350" stroke-width="2"/><rect x="1552" y="356.4471600000047" width="8" height="7.980453999994097" fill="#ef5350"/><line x1="1568" y1="355.44960299999957" x2="1568" y2="377.3958510000057" stroke="#26a69a" stroke-width="2"/><rect x="1564" y="362.4324999999999" width="8" height="2.9926700000032724" fill="#26a69a"/><line x1="1580" y1="343.47892199999706" x2="1580" y2="375.4007379999962" stroke="#26a69a" stroke-width="2"/><rect x="1576" y="347.4691490000055" width="8" height="11.970680999991146" fill="#26a69a"/><line x1="1592" y1="341.48380799999813" x2="1592" y2="389.3665319999968" stroke="#ef5350" stroke-width="2"/><rect x="1588" y="349.4642620000036" width="8" height="31.921815999999126" fill="#ef5350"/><line x1="1604" y1="366.42272699999694" x2="1604" y2="397.3469860000023" stroke="#26a69a" stroke-width="2"/><rect x="1600" y="378.39340799999945" width="8" height="2.9926700000032724" fill="#26a69a"/><line x1="1616" y1="368.41784099999586" x2="1616" y2="398.34454299999607" stroke="#ef5350" stroke-width="2"/><rect x="1612" y="381.3860780000027" width="8" height="11.970681000002514" fill="#ef5350"/><line x1="1628" y1="369.4153970000002" x2="1628" y2="394.354315999999" stroke="#26a69a" stroke-width="2"/><rect x="1624" y="375.4007379999962" width="8" height="16.958465000004708" fill="#26a69a"/><line x1="1640" y1="354.4520459999944" x2="1640" y2="379.3909650000046" stroke="#26a69a" stroke-width="2"/><rect x="1636" y="370.41295400000536" width="8" height="4.987783999990825" fill="#26a69a"/><line x1="1652" y1="316.5448900000001" x2="1652" y2="466.17840200000273" stroke="#ef5350" stroke-width="2"/><rect x="1648" y="370.41295400000536" width="8" height="14.963350999994418" fill="#ef5350"/><line x1="1664" y1="347.4691490000055" x2="1664" y2="389.3665319999968" stroke="#26a69a" stroke-width="2"/><rect x="1660" y="373.40562399999726" width="8" height="15.960907999999563" fill="#26a69a"/><line x1="1676" y1="344.4764790000022" x2="1676" y2="400.339656999995" stroke="#ef5350" stroke-width="2"/><rect x="1672" y="371.41051099999913" width="8" height="24.938918999998805" fill="#ef5350"/><line x1="1688" y1="377.3958510000057" x2="1688" y2="417.2981209999989" stroke="#ef5350" stroke-width="2"/><rect x="1684" y="389.3665319999968" width="8" height="2" fill="#ef5350"/><line x1="1700" y1="351.4593760000025" x2="1700" y2="395.35187300000416" stroke="#26a69a" stroke-width="2"/><rect x="1696" y="363.43005700000504" width="8" height="27.93158899999071" fill="#26a69a"/><line x1="1712" y1="337.4935810000011" x2="1712" y2="368.41784099999586" stroke="#26a69a" stroke-width="2"/><rect x="1708" y="358.44227300000284" width="8" height="4.987784000002193" fill="#26a69a"/><line x1="1724" y1="356.4471600000047" x2="1724" y2="388.36897600000384" stroke="#ef5350" stroke-width="2"/><rect x="1720" y="361.43494299999475" width="8" height="25.93647600000395" fill="#ef5350"/><line x1="1736" y1="380.3885219999984" x2="1736" y2="436.25170000000253" stroke="#ef5350" stroke-width="2"/><rect x="1732" y="387.3714189999987" width="8" height="39.90227000000459" fill="#ef5350"/><line x1="1748" y1="415.3030080000008" x2="1748" y2="441.23948300000393" stroke="#ef5350" stroke-width="2"/><rect x="1744" y="428.27124599999706" width="8" height="2" fill="#ef5350"/><line x1="1760" y1="429.2688020000014" x2="1760" y2="480.14419700000417" stroke="#ef5350" stroke-width="2"/><rect x="1756" y="429.2688020000014" width="8" height="10.973124999998163" fill="#ef5350"/><line x1="1772" y1="387.3714189999987" x2="1772" y2="438.24681300000066" stroke="#26a69a" stroke-width="2"/><rect x="1768" y="425.27857500000437" width="8" height="11.970680999991146" fill="#26a69a"/><line x1="1784" y1="374.4031810000024" x2="1784" y2="427.2736890000033" stroke="#26a69a" stroke-width="2"/><rect x="1780" y="378.39340799999945" width="8" height="48.88028100000383" fill="#26a69a"/><line x1="1796" y1="308.56443599999466" x2="1796" y2="376.3982950000013" stroke="#26a69a" stroke-width="2"/><rect x="1792" y="317.5424460000045" width="8" height="58.85584899999685" fill="#26a69a"/><line x1="1808" y1="281.63040299999693" x2="1808" y2="317.5424460000045" stroke="#26a69a" stroke-width="2"/><rect x="1804" y="285.62063000000535" width="8" height="31.921815999999126" fill="#26a69a"/><line x1="1820" y1="268.66216600000143" x2="1820" y2="306.56932199999574" stroke="#ef5350" stroke-width="2"/><rect x="1816" y="287.61574400000427" width="8" height="5.985339999995176" fill="#ef5350"/><line x1="1832" y1="260.68171199999597" x2="1832" y2="306.56932199999574" stroke="#26a69a" stroke-width="2"/><rect x="1828" y="271.6548360000047" width="8" height="20.948691999990388" fill="#26a69a"/><line x1="1844" y1="272.6523929999985" x2="1844" y2="309.561991999999" stroke="#ef5350" stroke-width="2"/><rect x="1840" y="276.64261999999553" width="8" height="15.960907999999563" fill="#ef5350"/><line x1="1856" y1="233.74767899999824" x2="1856" y2="296.5937550000035" stroke="#26a69a" stroke-width="2"/><rect x="1852" y="244.7208039999964" width="8" height="48.88028000000304" fill="#26a69a"/><line x1="1868" y1="205.81608999999617" x2="1868" y2="249.7085869999978" stroke="#26a69a" stroke-width="2"/><rect x="1864" y="245.71836000000076" width="8" height="2" fill="#26a69a"/><line x1="1880" y1="227.76233900000307" x2="1880" y2="268.66216600000143" stroke="#26a69a" stroke-width="2"/><rect x="1876" y="235.74279299999716" width="8" height="10.97312399999737" fill="#26a69a"/><line x1="1892" y1="226.76478199999792" x2="1892" y2="272.6523929999985" stroke="#ef5350" stroke-width="2"/><rect x="1888" y="234.7452360000034" width="8" height="18.953577999991467" fill="#ef5350"/><line x1="1904" y1="201.82586299999912" x2="1904" y2="254.696371" stroke="#26a69a" stroke-width="2"/><rect x="1900" y="230.75500899999497" width="8" height="20.948692000001756" fill="#26a69a"/><line x1="1916" y1="182.87228499999628" x2="1916" y2="241.7281330000037" stroke="#26a69a" stroke-width="2"/><rect x="1912" y="197.83563600000207" width="8" height="33.91692999999805" fill="#26a69a"/><line x1="1928" y1="105.06285899999739" x2="1928" y2="222.77455500000087" stroke="#26a69a" stroke-width="2"/><rect x="1924" y="110.54942099999607" width="8" height="82.2984320000046" fill="#26a69a"/><line x1="1940" y1="106.06041500000174" x2="1940" y2="230.75500899999497" stroke="#ef5350" stroke-width="2"/><rect x="1936" y="111.54697800000122" width="8" height="108.23490699999638" fill="#ef5350"/><rect x="75" y="955.1541018844508" width="10" height="64.84589811554918" fill="#26a69a" opacity="0.9"/><rect x="87" y="993.9678809578137" width="10" height="26.03211904218631" fill="#26a69a" opacity="0.9"/><rect x="99" y="994.1623608839454" width="10" height="25.83763911605456" fill="#ef5350" opacity="0.9"/><rect x="111" y="997.2746794386525" width="10" height="22.72532056134753" fill="#26a69a" opacity="0.9"/><rect x="123" y="998.0986601783159" width="10" height="21.901339821684132" fill="#26a69a" opacity="0.9"/><rect x="135" y="989.4209530795854" width="10" height="30.579046920414612" fill="#26a69a" opacity="0.9"/><rect x="147" y="974.8442348003915" width="10" height="45.15576519960848" fill="#26a69a" opacity="0.9"/><rect x="159" y="977.1149798589594" width="10" height="42.88502014104063" fill="#26a69a" opacity="0.9"/><rect x="171" y="980.1799579053318" width="10" height="39.820042094668224" fill="#26a69a" opacity="0.9"/><rect x="183" y="988.5886557641334" width="10" height="31.411344235866636" fill="#ef5350" opacity="0.9"/><rect x="195" y="987.7237318821265" width="10" height="32.27626811787354" fill="#ef5350" opacity="0.9"/><rect x="207" y="989.5095565985631" width="10" height="30.49044340143689" fill="#ef5350" opacity="0.9"/><rect x="219" y="999.0912115118468" width="10" height="20.908788488153164" fill="#ef5350" opacity="0.9"/><rect x="231" y="978.9104006243829" width="10" height="41.08959937561713" fill="#26a69a" opacity="0.9"/><rect x="243" y="997.451246740009" width="10" height="22.54875325999103" fill="#26a69a" opacity="0.9"/><rect x="255" y="1001.2061807085296" width="10" height="18.793819291470413" fill="#ef5350" opacity="0.9"/><rect x="267" y="985.9990020109054" width="10" height="34.00099798909457" fill="#ef5350" opacity="0.9"/><rect x="279" y="989.5156340962548" width="10" height="30.484365903745243" fill="#ef5350" opacity="0.9"/><rect x="291" y="998.673463512623" width="10" height="21.326536487376984" fill="#26a69a" opacity="0.9"/><rect x="303" y="996.1992822155358" width="10" height="23.800717784464155" fill="#26a69a" opacity="0.9"/><rect x="315" y="1004.3002667701618" width="10" height="15.699733229838216" fill="#26a69a" opacity="0.9"/><rect x="327" y="999.7664534922154" width="10" height="20.23354650778458" fill="#ef5350" opacity="0.9"/><rect x="339" y="1003.8610875948676" width="10" height="16.138912405132373" fill="#26a69a" opacity="0.9"/><rect x="351" y="999.9593340768495" width="10" height="20.040665923150527" fill="#26a69a" opacity="0.9"/><rect x="363" y="993.161492974626" width="10" height="26.838507025374042" fill="#26a69a" opacity="0.9"/><rect x="375" y="994.9393209835737" width="10" height="25.06067901642632" fill="#26a69a" opacity="0.9"/><rect x="387" y="998.1223304324833" width="10" height="21.877669567516705" fill="#26a69a" opacity="0.9"/><rect x="399" y="1003.6317420240839" width="10" height="16.368257975916094" fill="#26a69a" opacity="0.9"/><rect x="411" y="1004.2449295543381" width="10" height="15.755070445661886" fill="#ef5350" opacity="0.9"/><rect x="423" y="1002.6910093550815" width="10" height="17.30899064491848" fill="#ef5350" opacity="0.9"/><rect x="435" y="993.8875940146244" width="10" height="26.11240598537563" fill="#ef5350" opacity="0.9"/><rect x="447" y="1003.324988324807" width="10" height="16.67501167519299" fill="#26a69a" opacity="0.9"/><rect x="459" y="1002.816077860209" width="10" height="17.18392213979098" fill="#ef5350" opacity="0.9"/><rect x="471" y="994.5426842921208" width="10" height="25.45731570787916" fill="#ef5350" opacity="0.9"/><rect x="483" y="998.4402795222447" width="10" height="21.559720477755263" fill="#ef5350" opacity="0.9"/><rect x="495" y="997.0159059843094" width="10" height="22.98409401569063" fill="#26a69a" opacity="0.9"/><rect x="507" y="1003.7213051479604" width="10" height="16.27869485203962" fill="#ef5350" opacity="0.9"/><rect x="519" y="1000.3124686795624" width="10" height="19.687531320437643" fill="#ef5350" opacity="0.9"/><rect x="531" y="998.7946935981558" width="10" height="21.205306401844155" fill="#ef5350" opacity="0.9"/><rect x="543" y="999.0550663939968" width="10" height="20.944933606003246" fill="#ef5350" opacity="0.9"/><rect x="555" y="994.1326131320864" width="10" height="25.867386867913638" fill="#26a69a" opacity="0.9"/><rect x="567" y="978.1823803745871" width="10" height="41.81761962541293" fill="#26a69a" opacity="0.9"/><rect x="579" y="996.81246974579" width="10" height="23.187530254209946" fill="#ef5350" opacity="0.9"/><rect x="591" y="1004.3693583228666" width="10" height="15.63064167713344" fill="#26a69a" opacity="0.9"/><rect x="603" y="998.664827068535" width="10" height="21.335172931464967" fill="#26a69a" opacity="0.9"/><rect x="615" y="1001.8417590197529" width="10" height="18.158240980247115" fill="#ef5350" opacity="0.9"/><rect x="627" y="1002.5173208684212" width="10" height="17.482679131578834" fill="#ef5350" opacity="0.9"/><rect x="639" y="993.8185024619197" width="10" height="26.181497538080293" fill="#ef5350" opacity="0.9"/><rect x="651" y="999.1206393954062" width="10" height="20.879360604593785" fill="#ef5350" opacity="0.9"/><rect x="663" y="1003.9893547829906" width="10" height="16.01064521700937" fill="#26a69a" opacity="0.9"/><rect x="675" y="975.7625766884248" width="10" height="44.237423311575185" fill="#ef5350" opacity="0.9"/><rect x="687" y="964.8176430824216" width="10" height="55.18235691757843" fill="#ef5350" opacity="0.9"/><rect x="699" y="981.5947353942803" width="10" height="38.40526460571971" fill="#26a69a" opacity="0.9"/><rect x="711" y="975.7724926057111" width="10" height="44.227507394288864" fill="#26a69a" opacity="0.9"/><rect x="723" y="991.0314899678639" width="10" height="28.968510032136123" fill="#ef5350" opacity="0.9"/><rect x="735" y="995.408887647326" width="10" height="24.59111235267403" fill="#ef5350" opacity="0.9"/><rect x="747" y="997.6908280963785" width="10" height="22.309171903621518" fill="#ef5350" opacity="0.9"/><rect x="759" y="980.4141015006088" width="10" height="39.58589849939119" fill="#ef5350" opacity="0.9"/><rect x="771" y="975.7616170835262" width="10" height="44.238382916473824" fill="#26a69a" opacity="0.9"/><rect x="783" y="986.0837671102885" width="10" height="33.91623288971152" fill="#ef5350" opacity="0.9"/><rect x="795" y="967.3909835523721" width="10" height="52.60901644762794" fill="#26a69a" opacity="0.9"/><rect x="807" y="976.8974694152594" width="10" height="43.102530584740634" fill="#ef5350" opacity="0.9"/><rect x="819" y="954.6746193034121" width="10" height="65.3253806965879" fill="#26a69a" opacity="0.9"/><rect x="831" y="983.2730843620653" width="10" height="36.72691563793467" fill="#ef5350" opacity="0.9"/><rect x="843" y="983.5823970077387" width="10" height="36.41760299226132" fill="#ef5350" opacity="0.9"/><rect x="855" y="976.3504946230139" width="10" height="43.6495053769861" fill="#26a69a" opacity="0.9"/><rect x="867" y="990.7647198060318" width="10" height="29.23528019396815" fill="#26a69a" opacity="0.9"/><rect x="879" y="985.1823782421318" width="10" height="34.81762175786821" fill="#26a69a" opacity="0.9"/><rect x="891" y="997.5756755085373" width="10" height="22.4243244914627" fill="#26a69a" opacity="0.9"/><rect x="903" y="992.4798536282661" width="10" height="27.52014637173386" fill="#ef5350" opacity="0.9"/><rect x="915" y="1001.4691124507669" width="10" height="18.530887549233057" fill="#26a69a" opacity="0.9"/><rect x="927" y="997.7400878145105" width="10" height="22.259912185489497" fill="#ef5350" opacity="0.9"/><rect x="939" y="993.2827230601587" width="10" height="26.717276939841327" fill="#26a69a" opacity="0.9"/><rect x="951" y="992.748223131596" width="10" height="27.251776868404022" fill="#26a69a" opacity="0.9"/><rect x="963" y="995.9891287427257" width="10" height="24.01087125727429" fill="#26a69a" opacity="0.9"/><rect x="975" y="980.6866292918329" width="10" height="39.3133707081671" fill="#ef5350" opacity="0.9"/><rect x="987" y="953.6385658811412" width="10" height="66.36143411885882" fill="#26a69a" opacity="0.9"/><rect x="999" y="901.9353738087572" width="10" height="118.06462619124284" fill="#26a69a" opacity="0.9"/><rect x="1011" y="950.8752236412528" width="10" height="69.12477635874723" fill="#ef5350" opacity="0.9"/><rect x="1023" y="992.0141253841085" width="10" height="27.985874615891476" fill="#26a69a" opacity="0.9"/><rect x="1035" y="995.6238391446295" width="10" height="24.376160855370472" fill="#ef5350" opacity="0.9"/><rect x="1047" y="985.3400733138143" width="10" height="34.65992668618571" fill="#ef5350" opacity="0.9"/><rect x="1059" y="992.4174793098522" width="10" height="27.582520690147817" fill="#26a69a" opacity="0.9"/><rect x="1071" y="982.6055192208861" width="10" height="37.394480779113906" fill="#26a69a" opacity="0.9"/><rect x="1083" y="994.5209332477508" width="10" height="25.479066752249196" fill="#26a69a" opacity="0.9"/><rect x="1095" y="996.3400242673416" width="10" height="23.65997573265838" fill="#ef5350" opacity="0.9"/><rect x="1107" y="998.0986601783159" width="10" height="21.901339821684132" fill="#26a69a" opacity="0.9"/><rect x="1119" y="999.1366328103842" width="10" height="20.863367189615815" fill="#ef5350" opacity="0.9"/><rect x="1131" y="990.4515687407638" width="10" height="29.548431259236168" fill="#ef5350" opacity="0.9"/><rect x="1143" y="996.9231441774374" width="10" height="23.076855822562607" fill="#26a69a" opacity="0.9"/><rect x="1155" y="1001.1207758725474" width="10" height="18.87922412745263" fill="#ef5350" opacity="0.9"/><rect x="1167" y="988.9309148446613" width="10" height="31.069085155338712" fill="#ef5350" opacity="0.9"/><rect x="1179" y="989.2344698609426" width="10" height="30.765530139057432" fill="#26a69a" opacity="0.9"/><rect x="1191" y="1000.2712056689193" width="10" height="19.728794331080735" fill="#26a69a" opacity="0.9"/><rect x="1203" y="1004.4854705156064" width="10" height="15.51452948439362" fill="#ef5350" opacity="0.9"/><rect x="1215" y="1004.8347666987246" width="10" height="15.165233301275407" fill="#ef5350" opacity="0.9"/><rect x="1227" y="999.1961283141021" width="10" height="20.80387168589789" fill="#26a69a" opacity="0.9"/><rect x="1239" y="998.7102483670724" width="10" height="21.28975163292762" fill="#26a69a" opacity="0.9"/><rect x="1251" y="1000.9659596155609" width="10" height="19.034040384439095" fill="#ef5350" opacity="0.9"/><rect x="1263" y="1002.780572478958" width="10" height="17.219427521042007" fill="#ef5350" opacity="0.9"/><rect x="1275" y="999.3004053797583" width="10" height="20.69959462024167" fill="#26a69a" opacity="0.9"/><rect x="1287" y="998.8746606730456" width="10" height="21.125339326954418" fill="#ef5350" opacity="0.9"/><rect x="1299" y="996.1804099858618" width="10" height="23.819590014138157" fill="#26a69a" opacity="0.9"/><rect x="1311" y="1003.0083187082439" width="10" height="16.991681291756095" fill="#26a69a" opacity="0.9"/><rect x="1323" y="1003.7398575093348" width="10" height="16.260142490665203" fill="#26a69a" opacity="0.9"/><rect x="1335" y="1003.4158309218817" width="10" height="16.584169078118293" fill="#26a69a" opacity="0.9"/><rect x="1347" y="1003.7513727681189" width="10" height="16.248627231881073" fill="#ef5350" opacity="0.9"/><rect x="1359" y="996.8131094823891" width="10" height="23.18689051761089" fill="#ef5350" opacity="0.9"/><rect x="1371" y="1001.7733072036474" width="10" height="18.22669279635261" fill="#26a69a" opacity="0.9"/><rect x="1383" y="999.4133188895025" width="10" height="20.586681110497466" fill="#26a69a" opacity="0.9"/><rect x="1395" y="997.9284902429506" width="10" height="22.071509757049398" fill="#ef5350" opacity="0.9"/><rect x="1407" y="1004.9166529834116" width="10" height="15.083347016588391" fill="#ef5350" opacity="0.9"/><rect x="1419" y="1003.5185086460401" width="10" height="16.481491353959882" fill="#ef5350" opacity="0.9"/><rect x="1431" y="1005.9024870826519" width="10" height="14.097512917348126" fill="#26a69a" opacity="0.9"/><rect x="1443" y="1005.6392354721149" width="10" height="14.360764527885067" fill="#26a69a" opacity="0.9"/><rect x="1455" y="1006.8240276536807" width="10" height="13.175972346319327" fill="#26a69a" opacity="0.9"/><rect x="1467" y="997.5059442192335" width="10" height="22.49405578076653" fill="#26a69a" opacity="0.9"/><rect x="1479" y="1006.605557605082" width="10" height="13.394442394917974" fill="#26a69a" opacity="0.9"/><rect x="1491" y="1001.5388437400708" width="10" height="18.461156259929226" fill="#ef5350" opacity="0.9"/><rect x="1503" y="997.9147359060696" width="10" height="22.08526409393039" fill="#ef5350" opacity="0.9"/><rect x="1515" y="1006.003885333612" width="10" height="13.996114666388053" fill="#ef5350" opacity="0.9"/><rect x="1527" y="1003.9349771720657" width="10" height="16.065022827934285" fill="#26a69a" opacity="0.9"/><rect x="1539" y="1003.607751901617" width="10" height="16.392248098382993" fill="#ef5350" opacity="0.9"/><rect x="1551" y="1003.2549371672037" width="10" height="16.745062832796293" fill="#ef5350" opacity="0.9"/><rect x="1563" y="1006.142388307321" width="10" height="13.85761169267903" fill="#26a69a" opacity="0.9"/><rect x="1575" y="1004.8158944690506" width="10" height="15.18410553094941" fill="#26a69a" opacity="0.9"/><rect x="1587" y="1003.1061984079089" width="10" height="16.89380159209111" fill="#ef5350" opacity="0.9"/><rect x="1599" y="1006.656416664712" width="10" height="13.34358333528803" fill="#26a69a" opacity="0.9"/><rect x="1611" y="1001.3977818199653" width="10" height="18.602218180034697" fill="#ef5350" opacity="0.9"/><rect x="1623" y="1006.7207101929232" width="10" height="13.279289807076793" fill="#26a69a" opacity="0.9"/><rect x="1635" y="1001.0609605005299" width="10" height="18.93903949947014" fill="#26a69a" opacity="0.9"/><rect x="1647" y="972.0626600674283" width="10" height="47.93733993257172" fill="#ef5350" opacity="0.9"/><rect x="1659" y="1001.2480834557718" width="10" height="18.751916544228152" fill="#26a69a" opacity="0.9"/><rect x="1671" y="1000.9384509417989" width="10" height="19.06154905820108" fill="#ef5350" opacity="0.9"/><rect x="1683" y="999.5428655508239" width="10" height="20.457134449176124" fill="#ef5350" opacity="0.9"/><rect x="1695" y="1001.7563541837708" width="10" height="18.24364581622922" fill="#26a69a" opacity="0.9"/><rect x="1707" y="996.3726508338966" width="10" height="23.627349166103386" fill="#26a69a" opacity="0.9"/><rect x="1719" y="1003.4033560581989" width="10" height="16.596643941801062" fill="#ef5350" opacity="0.9"/><rect x="1731" y="996.2159153671129" width="10" height="23.78408463288713" fill="#ef5350" opacity="0.9"/><rect x="1743" y="995.8522251105145" width="10" height="24.147774889485504" fill="#ef5350" opacity="0.9"/><rect x="1755" y="984.6670704115426" width="10" height="35.33292958845743" fill="#ef5350" opacity="0.9"/><rect x="1767" y="978.1977340529659" width="10" height="41.80226594703413" fill="#26a69a" opacity="0.9"/><rect x="1779" y="1001.5369245302734" width="10" height="18.46307546972662" fill="#26a69a" opacity="0.9"/><rect x="1791" y="985.4750577362281" width="10" height="34.52494226377189" fill="#26a69a" opacity="0.9"/><rect x="1803" y="995.5605052213169" width="10" height="24.43949477868307" fill="#26a69a" opacity="0.9"/><rect x="1815" y="995.5637039043124" width="10" height="24.436296095687567" fill="#ef5350" opacity="0.9"/><rect x="1827" y="998.95846616753" width="10" height="21.04153383247001" fill="#26a69a" opacity="0.9"/><rect x="1839" y="993.9470895183423" width="10" height="26.052910481657705" fill="#ef5350" opacity="0.9"/><rect x="1851" y="982.7283486479167" width="10" height="37.27165135208327" fill="#26a69a" opacity="0.9"/><rect x="1863" y="994.8526366743932" width="10" height="25.14736332560676" fill="#26a69a" opacity="0.9"/><rect x="1875" y="996.4481397525925" width="10" height="23.55186024740749" fill="#26a69a" opacity="0.9"/><rect x="1887" y="993.9925108168796" width="10" height="26.007489183120356" fill="#ef5350" opacity="0.9"/><rect x="1899" y="992.8000417961244" width="10" height="27.199958203875553" fill="#26a69a" opacity="0.9"/><rect x="1911" y="977.2310920516993" width="10" height="42.76890794830069" fill="#26a69a" opacity="0.9"/><rect x="1923" y="914.5122754791093" width="10" height="105.48772452089065" fill="#26a69a" opacity="0.9"/><rect x="1935" y="860.0" width="10" height="160.0" fill="#ef5350" opacity="0.9"/><rect x="1004" y="258.68659799999705" width="12" height="304.2548090000082" fill="#00ff00" opacity="0.60"/><polyline points="320,506.67089317380487,332,506.24416058582256,344,502.61838491097706,356,498.3878671099319,368,491.2350666232669,380,483.76592846866515,392,476.3906016621263,404,468.6726275038268,416,462.639752503469,428,458.41650731266554,440,456.11556242574807,452,453.93874971853165,464,452.5392849834361,476,455.45334041358956,488,457.8048505646734,500,456.892234415659,512,457.206598947505,524,458.82109961917195,536,461.8969302268738,548,465.43986782430693,560,466.17524222199336,572,465.13048372465846,584,466.65536651278217,596,466.70494674966676,608,465.2297185830321,620,466.2701234798874,632,470.0616042913339,644,473.77700788263155,656,478.18362303665936,668,480.7454794141222,680,487.9086251842068,692,501.8949935476144,704,514.5493268287964,716,522.0082584641546,728,530.7519291818494,740,538.4728585931043,752,549.2586775842369,764,563.9575567666952,776,576.6390075508184,788,594.6205713078825,800,610.129561945223,812,632.0469544266302,824,651.0219276240946,836,669.2348199456092,848,691.128459188883,860,711.0319952661371,872,722.8646052407839,884,732.2402242654789,896,735.9726570021053,908,740.2046685257119,920,740.4234259994496,932,742.0464304756933,944,739.4296307161085,956,735.2569473145763,968,729.6765595703278,980,724.7226427541136,992,712.9251113489659,1004,698.6409490300161,1016,667.381139979534,1028,637.3978588386308,1040,614.535870949237,1052,597.1764044778865,1064,580.140144813322,1076,560.2136294025286,1088,540.8072989832363,1100,524.0092337467331,1112,505.39078967561863,1124,490.3506334208032,1136,479.7830459521606,1148,465.9466521471927,1160,456.7531992760337,1172,450.43042686879744,1184,444.32980164319815,1196,436.3400478676567,1208,431.29634730883026,1220,426.9230099460856,1232,420.97106747503403,1244,413.1158360964605,1256,411.61404084917876,1268,412.1553818159214,1280,409.41498278583595,1292,408.0756389967064,1304,402.5886085208299,1316,396.6740983759905,1328,389.90729434018476,1340,382.4453716411199,1352,376.3591460562452,1364,372.27764205089215,1376,364.2146041412843,1388,355.9694205087794,1400,351.2646492222302,1412,350.000621677259,1424,350.0445452318104,1436,349.7042639716369,1448,346.7362391171946,1460,343.86087253460573,1472,339.92927467417076,1484,335.61207146710785,1496,331.9910466607098,1508,332.23008135969394,1520,333.77642656353146,1532,334.4154575574862,1544,336.4187095043917,1556,339.08622421826067,1568,341.3096790546206,1580,341.89629523989424,1592,345.65722693132557,1604,348.7749584616722,1616,353.0208442272283,1628,355.1522626817814,1640,356.605661854951,1652,359.34572310685553,1664,360.68476128715474,1676,364.081396402662,1688,366.5845099833632,1700,366.2840858897084,1712,365.53724656688473,1724,367.61669156051084,1736,373.29831036427095,1748,378.62883337719495,1760,384.4967470555616,1772,388.3807306693143,1784,387.4295570817594,1796,380.77364174064314,1808,371.71145014630156,1820,364.27236765617863,1832,355.4516503555874,1844,349.46611489315274,1856,339.49037099856696,1868,330.5597032844162,1880,321.5295213525678,1892,315.0694539856545,1904,307.03950684415986,1916,296.63913819233585,1928,278.91630798353617,1940,273.2844581755785" fill="none" stroke="#0090ff" stroke-width="2"/><line x1="80" y1="50" x2="80" y2="900" stroke="#666666" stroke-width="0.5" stroke-dasharray="4,4" opacity="0.90"/><line x1="152" y1="50" x2="152" y2="900" stroke="#666666" stroke-width="0.5" stroke-dasharray="4,4" opacity="0.90"/><line x1="224" y1="50" x2="224" y2="900" stroke="#666666" stroke-width="0.5" stroke-dasharray="4,4" opacity="0.90"/><line x1="296" y1="50" x2="296" y2="900" stroke="#666666" stroke-width="0.5" stroke-dasharray="4,4" opacity="0.90"/><line x1="368" y1="50" x2="368" y2="900" stroke="#666666" stroke-width="0.5" stroke-dasharray="4,4" opacity="0.90"/><line x1="440" y1="50" x2="440" y2="900" stroke="#666666" stroke-width="0.5" stroke-dasharray="4,4" opacity="0.90"/><line x1="512" y1="50" x2="512" y2="900" stroke="#666666" stroke-width="0.5" stroke-dasharray="4,4" opacity="0.90"/><line x1="584" y1="50" x2="584" y2="900" stroke="#666666" stroke-width="0.5" stroke-dasharray="4,4" opacity="0.90"/><line x1="656" y1="50" x2="656" y2="900" stroke="#666666" stroke-width="0.5" stroke-dasharray="4,4" opacity="0.90"/><line x1="728" y1="50" x2="728" y2="900" stroke="#666666" stroke-width="0.5" stroke-dasharray="4,4" opacity="0.90"/><line x1="800" y1="50" x2="800" y2="900" stroke="#666666" stroke-width="0.5" stroke-dasharray="4,4" opacity="0.90"/><line x1="872" y1="50" x2="872" y2="900" stroke="#666666" stroke-width="0.5" stroke-dasharray="4,4" opacity="0.90"/><line x1="944" y1="50" x2="944" y2="900" stroke="#666666" stroke-width="0.5" stroke-dasharray="4,4" opacity="0.90"/><line x1="1010" y1="30" x2="1010" y2="950" stroke="black" stroke-width="0.7"/><line x1="1016" y1="50" x2="1016" y2="900" stroke="#666666" stroke-width="0.5" stroke-dasharray="4,4" opacity="0.90"/><line x1="1088" y1="50" x2="1088" y2="900" stroke="#666666" stroke-width="0.5" stroke-dasharray="4,4" opacity="0.90"/><line x1="1160" y1="50" x2="1160" y2="900" stroke="#666666" stroke-width="0.5" stroke-dasharray="4,4" opacity="0.90"/><line x1="1232" y1="50" x2="1232" y2="900" stroke="#666666" stroke-width="0.5" stroke-dasharray="4,4" opacity="0.90"/><line x1="1304" y1="50" x2="1304" y2="900" stroke="#666666" stroke-width="0.5" stroke-dasharray="4,4" opacity="0.90"/><line x1="1376" y1="50" x2="1376" y2="900" stroke="#666666" stroke-width="0.5" stroke-dasharray="4,4" opacity="0.90"/><line x1="1448" y1="50" x2="1448" y2="900" stroke="#666666" stroke-width="0.5" stroke-dasharray="4,4" opacity="0.90"/><line x1="1520" y1="50" x2="1520" y2="900" stroke="#666666" stroke-width="0.5" stroke-dasharray="4,4" opacity="0.90"/><line x1="1592" y1="50" x2="1592" y2="900" stroke="#666666" stroke-width="0.5" stroke-dasharray="4,4" opacity="0.90"/><line x1="1664" y1="50" x2="1664" y2="900" stroke="#666666" stroke-width="0.5" stroke-dasharray="4,4" opacity="0.90"/><line x1="1736" y1="50" x2="1736" y2="900" stroke="#666666" stroke-width="0.5" stroke-dasharray="4,4" opacity="0.90"/><line x1="1808" y1="50" x2="1808" y2="900" stroke="#666666" stroke-width="0.5" stroke-dasharray="4,4" opacity="0.90"/><line x1="1880" y1="50" x2="1880" y2="900" stroke="#666666" stroke-width="0.5" stroke-dasharray="4,4" opacity="0.90"/><line x1="1946" y1="30" x2="1946" y2="950" stroke="black" stroke-width="0.7"/><text x="80" y="1040" text-anchor="middle" font-size="20" fill="black">09:30</text><text x="152" y="1040" text-anchor="middle" font-size="20" fill="black">10:00</text><text x="224" y="1040" text-anchor="middle" font-size="20" fill="black">10:30</text><text x="296" y="1040" text-anchor="middle" font-size="20" fill="black">11:00</text><text x="368" y="1040" text-anchor="middle" font-size="20" fill="black">11:30</text><text x="440" y="1040" text-anchor="middle" font-size="20" fill="black">12:00</text><text x="512" y="1040" text-anchor="middle" font-size="20" fill="black">12:30</text><text x="584" y="1040" text-anchor="middle" font-size="20" fill="black">13:00</text><text x="656" y="1040" text-anchor="middle" font-size="20" fill="black">13:30</text><text x="728" y="1040" text-anchor="middle" font-size="20" fill="black">14:00</text><text x="800" y="1040" text-anchor="middle" font-size="20" fill="black">14:30</text><text x="872" y="1040" text-anchor="middle" font-size="20" fill="black">15:00</text><text x="944" y="1040" text-anchor="middle" font-size="20" fill="black">15:30</text><text x="1016" y="1040" text-anchor="middle" font-size="20" fill="black">09:30</text><text x="1088" y="1040" text-anchor="middle" font-size="20" fill="black">10:00</text><text x="1160" y="1040" text-anchor="middle" font-size="20" fill="black">10:30</text><text x="1232" y="1040" text-anchor="middle" font-size="20" fill="black">11:00</text><text x="1304" y="1040" text-anchor="middle" font-size="20" fill="black">11:30</text><text x="1376" y="1040" text-anchor="middle" font-size="20" fill="black">12:00</text><text x="1448" y="1040" text-anchor="middle" font-size="20" fill="black">12:30</text><text x="1520" y="1040" text-anchor="middle" font-size="20" fill="black">13:00</text><text x="1592" y="1040" text-anchor="middle" font-size="20" fill="black">13:30</text><text x="1664" y="1040" text-anchor="middle" font-size="20" fill="black">14:00</text><text x="1736" y="1040" text-anchor="middle" font-size="20" fill="black">14:30</text><text x="1808" y="1040" text-anchor="middle" font-size="20" fill="black">15:00</text><text x="1880" y="1040" text-anchor="middle" font-size="20" fill="black">15:30</text><text x="1942" y="50" text-anchor="end" font-size="40" fill="#26a69a" font-weight="bold"> +0.07% (Mon)</text></svg>