<svg xmlns="http://www.w3.org/2000/svg" width="1992" height="1050"><rect width="100%" height="100%" fill="white"/><text x="42" y="854.0" text-anchor="end" font-size="20" fill="black">591</text><text x="42" y="781.2727272727273" text-anchor="end" font-size="20" fill="black">592</text><text x="42" y="708.5454545454545" text-anchor="end" font-size="20" fill="black">593</text><text x="42" y="635.8181818181819" text-anchor="end" font-size="20" fill="black">594</text><text x="42" y="563.090909090909" text-anchor="end" font-size="20" fill="black">595</text><text x="42" y="490.3636363636364" text-anchor="end" font-size="20" fill="black">596</text><text x="42" y="417.6363636363637" text-anchor="end" font-size="20" fill="black">597</text><text x="42" y="344.90909090909093" text-anchor="end" font-size="20" fill="black">598</text><text x="42" y="272.18181818181813" text-anchor="end" font-size="20" fill="black">599</text><text x="42" y="199.45454545454538" text-anchor="end" font-size="20" fill="black">600</text><text x="42" y="126.72727272727275" text-anchor="end" font-size="20" fill="black">601</text><text x="42" y="54.0" text-anchor="end" font-size="20" fill="black">602</text><line x1="80" y1="582.0934254545467" x2="80" y2="762.9512887272705" stroke="#26a69a" stroke-width="2"/><rect x="76" y="595.1674880000031" width="8" height="66.82298545453955" fill="#26a69a"/><line x1="92" y1="574.8300574545449" x2="92" y2="629.3053178181832" stroke="#26a69a" stroke-width="2"/><rect x="88" y="593.7148145454557" width="8" height="2" fill="#26a69a"/><line x1="104" y1="563.2086690909091" x2="104" y2="649.6427483636332" stroke="#ef5350" stroke-width="2"/><rect x="100" y="597.3464989090892" width="8" height="37.04317672727484" fill="#ef5350"/><line x1="116" y1="566.1140160000039" x2="116" y2="681.6015672727273" stroke="#26a69a" stroke-width="2"/><rect x="112" y="586.4514465454538" width="8" height="46.485554909089615" fill="#26a69a"/><line x1="128" y1="559.5769847272757" x2="128" y2="627.8526443636358" stroke="#ef5350" stroke-width="2"/><rect x="124" y="584.2724363636328" width="8" height="20.337430545458346" fill="#ef5350"/><line x1="140" y1="569.7457003636373" x2="140" y2="628.5789810909096" stroke="#26a69a" stroke-width="2"/><rect x="136" y="576.2827316363655" width="8" height="25.42178763636582" fill="#26a69a"/><line x1="152" y1="527.6181658181816" x2="152" y2="631.484327999996" stroke="#ef5350" stroke-width="2"/><rect x="148" y="574.1037207272711" width="8" height="55.20159709091206" fill="#ef5350"/><line x1="164" y1="621.3156130909076" x2="164" y2="747.6982160000014" stroke="#ef5350" stroke-width="2"/><rect x="160" y="627.8526443636358" width="8" height="97.32913090909449" fill="#ef5350"/><line x1="176" y1="698.3073134545438" x2="176" y2="778.930698909095" stroke="#ef5350" stroke-width="2"/><rect x="172" y="716.465733818181" width="8" height="31.95881890909402" fill="#ef5350"/><line x1="188" y1="735.350490909092" x2="188" y2="788.3730770909096" stroke="#26a69a" stroke-width="2"/><rect x="184" y="742.6138589090938" width="8" height="10.89505163636204" fill="#26a69a"/><line x1="200" y1="741.1611847272732" x2="200" y2="818.8792225454563" stroke="#ef5350" stroke-width="2"/><rect x="196" y="747.6982160000014" width="8" height="64.64397527272672" fill="#ef5350"/><line x1="212" y1="807.2578334545473" x2="212" y2="900.9552807272732" stroke="#ef5350" stroke-width="2"/><rect x="208" y="813.0685280000017" width="8" height="2.9053476363598065" fill="#ef5350"/><line x1="224" y1="818.1528858181827" x2="224" y2="865.3647781818191" stroke="#ef5350" stroke-width="2"/><rect x="220" y="818.1528858181827" width="8" height="31.232482181820274" fill="#ef5350"/><line x1="236" y1="738.2558378181784" x2="236" y2="863.9121039999984" stroke="#26a69a" stroke-width="2"/><rect x="232" y="741.8875214545468" width="8" height="109.67685745454219" fill="#26a69a"/><line x1="248" y1="686.6859250909081" x2="248" y2="751.3299003636348" stroke="#26a69a" stroke-width="2"/><rect x="244" y="713.5603869090945" width="8" height="32.68515563635947" fill="#26a69a"/><line x1="260" y1="699.7599876363645" x2="260" y2="819.6055592727299" stroke="#ef5350" stroke-width="2"/><rect x="256" y="712.8340494545475" width="8" height="106.77150981818238" fill="#ef5350"/><line x1="272" y1="770.9409934545461" x2="272" y2="845.7536843636345" stroke="#26a69a" stroke-width="2"/><rect x="268" y="785.4677294545417" width="8" height="33.484126545458366" fill="#26a69a"/><line x1="284" y1="754.9615840000032" x2="284" y2="830.5006116363653" stroke="#ef5350" stroke-width="2"/><rect x="280" y="791.2784239999961" width="8" height="28.327135272733813" fill="#ef5350"/><line x1="296" y1="762.9512887272705" x2="296" y2="829.7742749090917" stroke="#26a69a" stroke-width="2"/><rect x="292" y="792.0047607272699" width="8" height="26.1481250909128" fill="#26a69a"/><line x1="308" y1="770.9409934545461" x2="308" y2="815.9738756363615" stroke="#ef5350" stroke-width="2"/><rect x="304" y="790.5520872727307" width="8" height="7.263367999993648" fill="#ef5350"/><line x1="320" y1="784.0150560000025" x2="320" y2="841.3956632727273" stroke="#ef5350" stroke-width="2"/><rect x="316" y="794.1837716363642" width="8" height="46.4855549090895" fill="#ef5350"/><line x1="332" y1="746.9718792727276" x2="332" y2="853.0170523636364" stroke="#26a69a" stroke-width="2"/><rect x="328" y="753.4362770909121" width="8" height="86.50671272726788" fill="#26a69a"/><line x1="344" y1="747.6982160000014" x2="344" y2="807.9841709090942" stroke="#ef5350" stroke-width="2"/><rect x="340" y="752.0562370909084" width="8" height="32.68515563636777" fill="#ef5350"/><line x1="356" y1="701.9389978181855" x2="356" y2="783.2887192727288" stroke="#26a69a" stroke-width="2"/><rect x="352" y="704.1180079999983" width="8" height="79.1707112727305" fill="#26a69a"/><line x1="368" y1="696.128303272731" x2="368" y2="748.424552727275" stroke="#ef5350" stroke-width="2"/><rect x="364" y="704.1180079999983" width="8" height="18.884757090910853" fill="#ef5350"/><line x1="380" y1="715.7393970909073" x2="380" y2="780.3833723636341" stroke="#ef5350" stroke-width="2"/><rect x="376" y="723.0027650909092" width="8" height="44.30654472727679" fill="#ef5350"/><line x1="392" y1="726.6344487272694" x2="392" y2="776.7516880000006" stroke="#26a69a" stroke-width="2"/><rect x="388" y="748.424552727275" width="8" height="15.979410181816206" fill="#26a69a"/><line x1="404" y1="730.9924698181848" x2="404" y2="770.9409934545461" stroke="#26a69a" stroke-width="2"/><rect x="400" y="730.9924698181848" width="8" height="16.705746181816608" fill="#26a69a"/><line x1="416" y1="731.7188065454585" x2="416" y2="778.930698909095" stroke="#ef5350" stroke-width="2"/><rect x="412" y="731.7914400000022" width="8" height="27.528165090908146" fill="#ef5350"/><line x1="428" y1="749.8772269090874" x2="428" y2="799.9944654545453" stroke="#ef5350" stroke-width="2"/><rect x="424" y="756.4868916363677" width="8" height="35.517869090902195" fill="#ef5350"/><line x1="440" y1="775.2990145454532" x2="440" y2="813.0685280000017" stroke="#26a69a" stroke-width="2"/><rect x="436" y="783.2887192727288" width="8" height="6.900200000001632" fill="#26a69a"/><line x1="452" y1="757.866931636363" x2="452" y2="794.1837716363642" stroke="#ef5350" stroke-width="2"/><rect x="448" y="773.8463410909059" width="8" height="9.44237818182296" fill="#ef5350"/><line x1="464" y1="752.0562370909084" x2="464" y2="797.0891185454507" stroke="#26a69a" stroke-width="2"/><rect x="460" y="759.3196050909104" width="8" height="24.695450909092074" fill="#26a69a"/><line x1="476" y1="717.9184072727284" x2="476" y2="765.8566363636386" stroke="#26a69a" stroke-width="2"/><rect x="472" y="719.3710807272757" width="8" height="42.127534545447475" fill="#26a69a"/><line x1="488" y1="635.1160123636378" x2="488" y2="720.0974174545495" stroke="#26a69a" stroke-width="2"/><rect x="484" y="638.7476959999979" width="8" height="79.89704800000425" fill="#26a69a"/><line x1="500" y1="619.1366029090949" x2="500" y2="677.9698836363671" stroke="#ef5350" stroke-width="2"/><rect x="496" y="636.5686858181851" width="8" height="15.253072727269114" fill="#ef5350"/><line x1="512" y1="638.7476959999979" x2="512" y2="685.2332516363607" stroke="#ef5350" stroke-width="2"/><rect x="508" y="652.548095272728" width="8" height="12.347725818182653" fill="#ef5350"/><line x1="524" y1="636.5686858181851" x2="524" y2="679.4225570909061" stroke="#26a69a" stroke-width="2"/><rect x="520" y="658.2861563636387" width="8" height="5.156991272724554" fill="#26a69a"/><line x1="536" y1="619.8629396363602" x2="536" y2="664.169484363637" stroke="#26a69a" stroke-width="2"/><rect x="532" y="629.3053178181832" width="8" height="29.779808727273007" fill="#26a69a"/><line x1="548" y1="624.2209600000024" x2="548" y2="654.0007687272753" stroke="#ef5350" stroke-width="2"/><rect x="544" y="630.7579912727306" width="8" height="4.358021090907187" fill="#ef5350"/><line x1="560" y1="606.7888770909121" x2="560" y2="640.2003694545452" stroke="#26a69a" stroke-width="2"/><rect x="556" y="619.8629396363602" width="8" height="15.253072727277527" fill="#26a69a"/><line x1="572" y1="586.4514465454538" x2="572" y2="633.6633389090904" stroke="#26a69a" stroke-width="2"/><rect x="568" y="601.7045192727313" width="8" height="18.15842036362892" fill="#26a69a"/><line x1="584" y1="591.5358043636347" x2="584" y2="612.5995716363667" stroke="#ef5350" stroke-width="2"/><rect x="580" y="601.7045192727313" width="8" height="5.810694545454453" fill="#ef5350"/><line x1="596" y1="586.4514465454538" x2="596" y2="611.1468981818193" stroke="#26a69a" stroke-width="2"/><rect x="592" y="588.6304567272749" width="8" height="17.432083636363586" fill="#26a69a"/><line x1="608" y1="561.0296589090881" x2="608" y2="587.1777832727275" stroke="#26a69a" stroke-width="2"/><rect x="604" y="571.1983738181847" width="8" height="15.253072727269114" fill="#26a69a"/><line x1="620" y1="569.0193636363636" x2="620" y2="590.0831309090872" stroke="#ef5350" stroke-width="2"/><rect x="616" y="571.9247105454583" width="8" height="13.800399272721847" fill="#ef5350"/><line x1="632" y1="579.5512472727255" x2="632" y2="601.7045192727313" stroke="#26a69a" stroke-width="2"/><rect x="628" y="579.5512472727255" width="8" height="6.900199272728287" fill="#26a69a"/><line x1="644" y1="556.6716378181809" x2="644" y2="586.4514465454538" stroke="#26a69a" stroke-width="2"/><rect x="640" y="569.0193636363636" width="8" height="10.168714909088408" fill="#26a69a"/><line x1="656" y1="567.5666894545429" x2="656" y2="590.0831309090872" stroke="#ef5350" stroke-width="2"/><rect x="652" y="568.2930269090899" width="8" height="5.810693818181221" fill="#ef5350"/><line x1="668" y1="561.7559956363617" x2="668" y2="587.1777832727275" stroke="#ef5350" stroke-width="2"/><rect x="664" y="576.2827316363655" width="8" height="7.263368000001947" fill="#ef5350"/><line x1="680" y1="573.3773839999974" x2="680" y2="600.9781825454576" stroke="#ef5350" stroke-width="2"/><rect x="676" y="580.6407519999993" width="8" height="7.263368000001947" fill="#ef5350"/><line x1="692" y1="586.4514465454538" x2="692" y2="606.0625403636385" stroke="#ef5350" stroke-width="2"/><rect x="688" y="587.9041200000013" width="8" height="13.074062545456286" fill="#ef5350"/><line x1="704" y1="600.9781825454576" x2="704" y2="631.484327999996" stroke="#ef5350" stroke-width="2"/><rect x="700" y="601.7045192727313" width="8" height="26.1481250909045" fill="#ef5350"/><line x1="716" y1="598.7991723636366" x2="716" y2="646.0110639999998" stroke="#26a69a" stroke-width="2"/><rect x="712" y="599.5255090909103" width="8" height="27.60079854545188" fill="#26a69a"/><line x1="728" y1="567.5666894545429" x2="728" y2="604.6098669090911" stroke="#26a69a" stroke-width="2"/><rect x="724" y="577.7354050909129" width="8" height="22.51644072727106" fill="#26a69a"/><line x1="740" y1="577.7354050909129" x2="740" y2="624.2209600000024" stroke="#ef5350" stroke-width="2"/><rect x="736" y="578.4617418181783" width="8" height="45.75921818182405" fill="#ef5350"/><line x1="752" y1="597.3464989090892" x2="752" y2="634.389675636364" stroke="#26a69a" stroke-width="2"/><rect x="748" y="598.7991723636366" width="8" height="25.42178763636582" fill="#26a69a"/><line x1="764" y1="569.0193636363636" x2="764" y2="600.2518458181839" stroke="#26a69a" stroke-width="2"/><rect x="760" y="585.7251098181802" width="8" height="13.800399272730147" fill="#26a69a"/><line x1="776" y1="547.9555963636399" x2="776" y2="594.4411512727294" stroke="#26a69a" stroke-width="2"/><rect x="772" y="554.4926276363599" width="8" height="30.50614545454664" fill="#26a69a"/><line x1="788" y1="534.1551970909098" x2="788" y2="569.7457003636373" stroke="#ef5350" stroke-width="2"/><rect x="784" y="553.7662909090944" width="8" height="4.358020363633841" fill="#ef5350"/><line x1="800" y1="548.6819330909053" x2="800" y2="565.3876792727301" stroke="#26a69a" stroke-width="2"/><rect x="796" y="555.2189643636335" width="8" height="2.90534690909476" fill="#26a69a"/><line x1="812" y1="533.4288603636362" x2="812" y2="558.1243112727283" stroke="#26a69a" stroke-width="2"/><rect x="808" y="539.9658916363644" width="8" height="16.705746181816494" fill="#26a69a"/><line x1="824" y1="519.6284610909061" x2="824" y2="544.3239119999982" stroke="#ef5350" stroke-width="2"/><rect x="820" y="539.2395549090907" width="8" height="2.90534690909476" fill="#ef5350"/><line x1="836" y1="538.5132174545437" x2="836" y2="577.0090683636392" stroke="#ef5350" stroke-width="2"/><rect x="832" y="542.8712385454508" width="8" height="2.90534690909476" fill="#ef5350"/><line x1="848" y1="547.2292596363662" x2="848" y2="565.3876792727301" stroke="#ef5350" stroke-width="2"/><rect x="844" y="547.9555963636399" width="8" height="13.800399272721847" fill="#ef5350"/><line x1="860" y1="534.1551970909098" x2="860" y2="562.4823323636354" stroke="#26a69a" stroke-width="2"/><rect x="856" y="539.9658916363644" width="8" height="21.790103999997314" fill="#26a69a"/><line x1="872" y1="531.9761869090887" x2="872" y2="553.0399534545475" stroke="#ef5350" stroke-width="2"/><rect x="868" y="539.9658916363644" width="8" height="4.358020363633841" fill="#ef5350"/><line x1="884" y1="534.1551970909098" x2="884" y2="566.8403527272692" stroke="#ef5350" stroke-width="2"/><rect x="880" y="543.5975752727245" width="8" height="17.432083636363586" fill="#ef5350"/><line x1="896" y1="547.9555963636399" x2="896" y2="567.5666894545429" stroke="#26a69a" stroke-width="2"/><rect x="892" y="560.3033214545494" width="8" height="2" fill="#26a69a"/><line x1="908" y1="541.3459316363596" x2="908" y2="571.9247105454583" stroke="#26a69a" stroke-width="2"/><rect x="904" y="545.0502487272719" width="8" height="15.253072727277527" fill="#26a69a"/><line x1="920" y1="530.5235127272763" x2="920" y2="555.2189643636335" stroke="#26a69a" stroke-width="2"/><rect x="916" y="537.78688072727" width="8" height="8.716042181822559" fill="#26a69a"/><line x1="932" y1="523.2601447272746" x2="932" y2="542.1449018181854" stroke="#ef5350" stroke-width="2"/><rect x="928" y="537.0605439999963" width="8" height="2.9053476363681057" fill="#ef5350"/><line x1="944" y1="539.9658916363644" x2="944" y2="555.9453010909072" stroke="#ef5350" stroke-width="2"/><rect x="940" y="539.9658916363644" width="8" height="14.52673599999548" fill="#ef5350"/><line x1="956" y1="539.2395549090907" x2="956" y2="563.9350058181828" stroke="#26a69a" stroke-width="2"/><rect x="952" y="548.6819330909053" width="8" height="6.5370312727282" fill="#26a69a"/><line x1="968" y1="541.4185650909117" x2="968" y2="560.3033214545494" stroke="#ef5350" stroke-width="2"/><rect x="964" y="548.6819330909053" width="8" height="9.44237818182296" fill="#ef5350"/><line x1="980" y1="538.5132174545437" x2="980" y2="569.0193636363636" stroke="#26a69a" stroke-width="2"/><rect x="976" y="539.9658916363644" width="8" height="17.43208290909024" fill="#26a69a"/><line x1="992" y1="531.9761869090887" x2="992" y2="584.9987730909065" stroke="#26a69a" stroke-width="2"/><rect x="988" y="537.0605439999963" width="8" height="5.810694545454453" fill="#26a69a"/><line x1="1004" y1="523.2601447272746" x2="1004" y2="561.7559956363617" stroke="#26a69a" stroke-width="2"/><rect x="1000" y="538.5132174545437" width="8" height="2" fill="#26a69a"/><line x1="1016" y1="252.33651854545803" x2="1016" y2="320.6121774545451" stroke="#26a69a" stroke-width="2"/><rect x="1012" y="278.48464363636265" width="8" height="37.76951345454859" fill="#26a69a"/><line x1="1028" y1="242.8941403636352" x2="1028" y2="288.65335854545094" stroke="#26a69a" stroke-width="2"/><rect x="1024" y="274.8529592727292" width="8" height="5.810694545454453" fill="#26a69a"/><line x1="1040" y1="203.6719527272743" x2="1040" y2="285.02167490909085" stroke="#26a69a" stroke-width="2"/><rect x="1036" y="205.85096363636035" width="8" height="69.00199563636886" fill="#26a69a"/><line x1="1052" y1="149.1966930909092" x2="1052" y2="207.30363709090773" stroke="#26a69a" stroke-width="2"/><rect x="1048" y="149.1966930909092" width="8" height="57.380607272724774" fill="#26a69a"/><line x1="1064" y1="137.57530400000007" x2="1064" y2="194.22957454545133" stroke="#26a69a" stroke-width="2"/><rect x="1060" y="142.659661818181" width="8" height="6.5370312727282" fill="#26a69a"/><line x1="1076" y1="137.57530400000007" x2="1076" y2="179.70283854545585" stroke="#ef5350" stroke-width="2"/><rect x="1072" y="143.38599854545464" width="8" height="17.43208290909024" fill="#ef5350"/><line x1="1088" y1="132.4909469090926" x2="1088" y2="198.5875956363667" stroke="#ef5350" stroke-width="2"/><rect x="1084" y="160.81808145454488" width="8" height="24.69545163636542" fill="#ef5350"/><line x1="1100" y1="102.71113818181959" x2="1100" y2="194.95591127272496" stroke="#26a69a" stroke-width="2"/><rect x="1096" y="113.60618981818163" width="8" height="71.18100654545492" fill="#26a69a"/><line x1="1112" y1="109.9745054545482" x2="1112" y2="153.55471345454305" stroke="#ef5350" stroke-width="2"/><rect x="1108" y="113.60618981818163" width="8" height="22.516440727271174" fill="#ef5350"/><line x1="1124" y1="128.13292581818553" x2="1124" y2="186.23986981818405" stroke="#ef5350" stroke-width="2"/><rect x="1120" y="136.1226305454528" width="8" height="48.664565818183746" fill="#ef5350"/><line x1="1136" y1="115.78520000000276" x2="1136" y2="201.49294254545316" stroke="#26a69a" stroke-width="2"/><rect x="1132" y="120.86955781818358" width="8" height="64.64397527272672" fill="#26a69a"/><line x1="1148" y1="113.60618981818163" x2="1148" y2="139.75431490909443" stroke="#ef5350" stroke-width="2"/><rect x="1144" y="119.4168843636362" width="8" height="16.63311272727276" fill="#ef5350"/><line x1="1160" y1="132.8541149090928" x2="1160" y2="159.3654079999975" stroke="#ef5350" stroke-width="2"/><rect x="1156" y="132.8541149090928" width="8" height="8.352873454540713" fill="#ef5350"/><line x1="1172" y1="125.9539156363644" x2="1172" y2="170.98679709090652" stroke="#ef5350" stroke-width="2"/><rect x="1168" y="139.0279781818208" width="8" height="18.158419636363874" fill="#ef5350"/><line x1="1184" y1="133.94362036363998" x2="1184" y2="160.81808145454488" stroke="#26a69a" stroke-width="2"/><rect x="1180" y="144.83867200000202" width="8" height="12.347725818182653" fill="#26a69a"/><line x1="1196" y1="128.85926254545086" x2="1196" y2="152.8283767272693" stroke="#26a69a" stroke-width="2"/><rect x="1192" y="139.75431490909443" width="8" height="3.631683636360208" fill="#26a69a"/><line x1="1208" y1="129.5855992727246" x2="1208" y2="164.44976581817832" stroke="#ef5350" stroke-width="2"/><rect x="1204" y="139.0279781818208" width="8" height="21.06376654545045" fill="#ef5350"/><line x1="1220" y1="154.2810509090899" x2="1220" y2="191.3968610909086" stroke="#ef5350" stroke-width="2"/><rect x="1216" y="158.63907127272375" width="8" height="23.96911418181844" fill="#ef5350"/><line x1="1232" y1="159.3654079999975" x2="1232" y2="186.96620654545768" stroke="#26a69a" stroke-width="2"/><rect x="1228" y="171.71313381818015" width="8" height="10.89505163636204" fill="#26a69a"/><line x1="1244" y1="166.62877599999945" x2="1244" y2="200.76660581817953" stroke="#ef5350" stroke-width="2"/><rect x="1240" y="171.71313381818015" width="8" height="28.327135272725627" fill="#ef5350"/><line x1="1256" y1="197.1349214545461" x2="1256" y2="247.25216072726903" stroke="#ef5350" stroke-width="2"/><rect x="1252" y="198.5875956363667" width="8" height="44.30654472726849" fill="#ef5350"/><line x1="1268" y1="243.62047709090882" x2="1268" y2="296.64306327272664" stroke="#ef5350" stroke-width="2"/><rect x="1264" y="243.62047709090882" width="8" height="20.337430545458346" fill="#ef5350"/><line x1="1280" y1="240.71512945454913" x2="1280" y2="284.29533745454387" stroke="#ef5350" stroke-width="2"/><rect x="1276" y="265.41058109090625" width="8" height="12.347725818182653" fill="#ef5350"/><line x1="1292" y1="261.05255999999906" x2="1292" y2="296.64306327272664" stroke="#ef5350" stroke-width="2"/><rect x="1288" y="277.03196945454204" width="8" height="13.0740625454564" fill="#ef5350"/><line x1="1304" y1="277.7583069090889" x2="1304" y2="312.6224727272694" stroke="#ef5350" stroke-width="2"/><rect x="1300" y="289.3796952727247" width="8" height="10.895052363635386" fill="#ef5350"/><line x1="1316" y1="291.5587054545457" x2="1316" y2="335.8652509090874" stroke="#ef5350" stroke-width="2"/><rect x="1312" y="300.2747476363601" width="8" height="2" fill="#ef5350"/><line x1="1328" y1="287.9270218181856" x2="1328" y2="317.0531272727286" stroke="#26a69a" stroke-width="2"/><rect x="1324" y="289.3796952727247" width="8" height="12.347725818182653" fill="#26a69a"/><line x1="1340" y1="285.02167490909085" x2="1340" y2="321.33851490909194" stroke="#ef5350" stroke-width="2"/><rect x="1336" y="289.3796952727247" width="8" height="27.60079854546018" fill="#ef5350"/><line x1="1352" y1="311.89613600000405" x2="1352" y2="350.02881818181777" stroke="#ef5350" stroke-width="2"/><rect x="1348" y="316.98049381818487" width="8" height="8.716041454540914" fill="#ef5350"/><line x1="1364" y1="309.71712581818304" x2="1364" y2="350.39198690909126" stroke="#26a69a" stroke-width="2"/><rect x="1360" y="319.1595039999976" width="8" height="5.0843578181809335" fill="#26a69a"/><line x1="1376" y1="306.0854414545495" x2="1376" y2="359.8343650909059" stroke="#ef5350" stroke-width="2"/><rect x="1372" y="317.7068305454585" width="8" height="33.04832436363296" fill="#ef5350"/><line x1="1388" y1="323.51752509091307" x2="1388" y2="358.0185229090933" stroke="#26a69a" stroke-width="2"/><rect x="1384" y="323.51752509091307" width="8" height="26.87446181817819" fill="#26a69a"/><line x1="1400" y1="289.3796952727247" x2="1400" y2="322.79118836363944" stroke="#26a69a" stroke-width="2"/><rect x="1396" y="293.0113796363664" width="8" height="29.779808727273007" fill="#26a69a"/><line x1="1412" y1="286.4743483636382" x2="1412" y2="358.38169163636684" stroke="#ef5350" stroke-width="2"/><rect x="1408" y="294.4640530909055" width="8" height="20.337430545458233" fill="#ef5350"/><line x1="1424" y1="302.4537578181811" x2="1424" y2="332.95990327272773" stroke="#26a69a" stroke-width="2"/><rect x="1420" y="306.0854414545495" width="8" height="7.989705454540626" fill="#26a69a"/><line x1="1436" y1="305.35910472727585" x2="1436" y2="325.6965352727258" stroke="#ef5350" stroke-width="2"/><rect x="1432" y="308.26445236363554" width="8" height="12.347725090909535" fill="#ef5350"/><line x1="1448" y1="297.00623200000007" x2="1448" y2="320.6121774545451" stroke="#26a69a" stroke-width="2"/><rect x="1444" y="303.18009454545484" width="8" height="15.979409454542747" fill="#26a69a"/><line x1="1460" y1="303.18009454545484" x2="1460" y2="322.79118836363944" stroke="#ef5350" stroke-width="2"/><rect x="1456" y="303.18009454545484" width="8" height="10.168714909088294" fill="#ef5350"/><line x1="1472" y1="289.3796952727247" x2="1472" y2="334.4125767272751" stroke="#ef5350" stroke-width="2"/><rect x="1468" y="311.89613600000405" width="8" height="20.337430545449934" fill="#ef5350"/><line x1="1484" y1="321.33851490909194" x2="1484" y2="343.85495563636306" stroke="#26a69a" stroke-width="2"/><rect x="1480" y="327.8755454545469" width="8" height="3.6316843636334397" fill="#26a69a"/><line x1="1496" y1="323.51752509091307" x2="1496" y2="359.10802836363223" stroke="#ef5350" stroke-width="2"/><rect x="1492" y="330.05455636363297" width="8" height="26.87446181818649" fill="#ef5350"/><line x1="1508" y1="338.04426109090855" x2="1508" y2="364.19238545454806" stroke="#26a69a" stroke-width="2"/><rect x="1504" y="343.1286189090894" width="8" height="13.074061818183054" fill="#26a69a"/><line x1="1520" y1="339.4969345454559" x2="1520" y2="402.68823636363527" stroke="#ef5350" stroke-width="2"/><rect x="1516" y="343.1286189090894" width="8" height="39.22218690909585" fill="#ef5350"/><line x1="1532" y1="343.1286189090894" x2="1532" y2="382.3508058181853" stroke="#26a69a" stroke-width="2"/><rect x="1528" y="354.7500072727251" width="8" height="25.421788363639166" fill="#26a69a"/><line x1="1544" y1="343.85495563636306" x2="1544" y2="373.63476436363607" stroke="#ef5350" stroke-width="2"/><rect x="1540" y="358.38169163636684" width="8" height="9.44237818181466" fill="#ef5350"/><line x1="1556" y1="336.59158763636117" x2="1556" y2="375.8137745454571" stroke="#26a69a" stroke-width="2"/><rect x="1552" y="343.85495563636306" width="8" height="26.8744610909132" fill="#26a69a"/><line x1="1568" y1="345.30762909091044" x2="1568" y2="364.19238545454806" stroke="#ef5350" stroke-width="2"/><rect x="1564" y="346.7603025454578" width="8" height="2" fill="#ef5350"/><line x1="1580" y1="332.233566545454" x2="1580" y2="357.65535490909315" stroke="#26a69a" stroke-width="2"/><rect x="1576" y="347.48663927272327" width="8" height="2" fill="#26a69a"/><line x1="1592" y1="340.2232712727296" x2="1592" y2="376.5401112727307" stroke="#ef5350" stroke-width="2"/><rect x="1588" y="347.48663927272327" width="8" height="12.347725818182653" fill="#ef5350"/><line x1="1604" y1="351.84466036363864" x2="1604" y2="368.5504065454552" stroke="#26a69a" stroke-width="2"/><rect x="1600" y="351.84466036363864" width="8" height="7.989704727267281" fill="#26a69a"/><line x1="1616" y1="335.13891345454874" x2="1616" y2="359.8343650909059" stroke="#ef5350" stroke-width="2"/><rect x="1612" y="351.11832363636495" width="8" height="4.358020363633841" fill="#ef5350"/><line x1="1628" y1="346.0339658181841" x2="1628" y2="364.19238545454806" stroke="#26a69a" stroke-width="2"/><rect x="1624" y="358.38169163636684" width="8" height="2" fill="#26a69a"/><line x1="1640" y1="317.7068305454585" x2="1640" y2="361.2870385454533" stroke="#26a69a" stroke-width="2"/><rect x="1636" y="321.33851490909194" width="8" height="35.59050327272752" fill="#26a69a"/><line x1="1652" y1="319.1595039999976" x2="1652" y2="335.13891345454874" stroke="#ef5350" stroke-width="2"/><rect x="1648" y="321.33851490909194" width="8" height="4.358020363633841" fill="#ef5350"/><line x1="1664" y1="308.9907890909093" x2="1664" y2="328.6018829090939" stroke="#26a69a" stroke-width="2"/><rect x="1660" y="314.80148363636374" width="8" height="10.168714909088408" fill="#26a69a"/><line x1="1676" y1="306.8117789090883" x2="1676" y2="332.95990327272773" stroke="#ef5350" stroke-width="2"/><rect x="1672" y="314.80148363636374" width="8" height="14.88990400000398" fill="#ef5350"/><line x1="1688" y1="298.0957367272739" x2="1688" y2="333.6862400000015" stroke="#26a69a" stroke-width="2"/><rect x="1684" y="298.0957367272739" width="8" height="31.232482909093733" fill="#26a69a"/><line x1="1700" y1="291.5587054545457" x2="1700" y2="310.44346254545667" stroke="#ef5350" stroke-width="2"/><rect x="1696" y="299.5484109090946" width="8" height="2" fill="#ef5350"/><line x1="1712" y1="287.9270218181856" x2="1712" y2="301.72742109090734" stroke="#26a69a" stroke-width="2"/><rect x="1708" y="290.10603199999844" width="8" height="10.895052363635273" fill="#26a69a"/><line x1="1724" y1="283.56900072727024" x2="1724" y2="303.18009454545484" stroke="#ef5350" stroke-width="2"/><rect x="1720" y="290.10603199999844" width="8" height="9.442378909096192" fill="#ef5350"/><line x1="1736" y1="293.73771636364006" x2="1736" y2="308.26445236363554" stroke="#ef5350" stroke-width="2"/><rect x="1732" y="300.2747476363601" width="8" height="7.989704727275466" fill="#ef5350"/><line x1="1748" y1="306.8117789090883" x2="1748" y2="327.8755454545469" stroke="#ef5350" stroke-width="2"/><rect x="1744" y="308.26445236363554" width="8" height="19.611093090911368" fill="#ef5350"/><line x1="1760" y1="323.51752509091307" x2="1760" y2="343.85495563636306" stroke="#26a69a" stroke-width="2"/><rect x="1756" y="324.97019854545215" width="8" height="2.90534690909476" fill="#26a69a"/><line x1="1772" y1="314.0751469090901" x2="1772" y2="327.1492087272733" stroke="#26a69a" stroke-width="2"/><rect x="1768" y="316.25415709091124" width="8" height="10.89505163636204" fill="#26a69a"/><line x1="1784" y1="316.25415709091124" x2="1784" y2="332.95990327272773" stroke="#ef5350" stroke-width="2"/><rect x="1780" y="316.98049381818487" width="8" height="13.0740625454481" fill="#ef5350"/><line x1="1796" y1="324.97019854545215" x2="1796" y2="339.4969345454559" stroke="#26a69a" stroke-width="2"/><rect x="1792" y="330.7808930909067" width="8" height="2" fill="#26a69a"/><line x1="1808" y1="330.7808930909067" x2="1808" y2="364.91872290909504" stroke="#ef5350" stroke-width="2"/><rect x="1804" y="330.7808930909067" width="8" height="16.70574618181655" fill="#ef5350"/><line x1="1820" y1="346.0339658181841" x2="1820" y2="392.51952072727363" stroke="#ef5350" stroke-width="2"/><rect x="1816" y="347.48663927272327" width="8" height="31.958819636367252" fill="#ef5350"/><line x1="1832" y1="360.56070181817967" x2="1832" y2="395.4248683636334" stroke="#ef5350" stroke-width="2"/><rect x="1828" y="380.17179563636427" width="8" height="7.989704727275523" fill="#ef5350"/><line x1="1844" y1="388.8878370909052" x2="1844" y2="437.5524029090891" stroke="#ef5350" stroke-width="2"/><rect x="1840" y="388.8878370909052" width="8" height="13.80039927273009" fill="#ef5350"/><line x1="1856" y1="377.9927847272699" x2="1856" y2="403.41457309090896" stroke="#26a69a" stroke-width="2"/><rect x="1852" y="382.3508058181853" width="8" height="21.06376727272368" fill="#26a69a"/><line x1="1868" y1="367.8240698181815" x2="1868" y2="394.3353629090945" stroke="#ef5350" stroke-width="2"/><rect x="1864" y="383.80347927272436" width="8" height="8.71604145454927" fill="#ef5350"/><line x1="1880" y1="382.3508058181853" x2="1880" y2="404.86724654545634" stroke="#26a69a" stroke-width="2"/><rect x="1876" y="386.70882690909247" width="8" height="5.810693818181164" fill="#26a69a"/><line x1="1892" y1="370.72941672727626" x2="1892" y2="391.79318399999994" stroke="#26a69a" stroke-width="2"/><rect x="1888" y="374.3611010909097" width="8" height="13.0740625454564" fill="#26a69a"/><line x1="1904" y1="352.5709970909123" x2="1904" y2="376.5401112727307" stroke="#26a69a" stroke-width="2"/><rect x="1900" y="366.3713963636341" width="8" height="7.6265360000020905" fill="#26a69a"/><line x1="1916" y1="334.4125767272751" x2="1916" y2="365.64505963636043" stroke="#26a69a" stroke-width="2"/><rect x="1912" y="343.1286189090894" width="8" height="21.790104000005613" fill="#26a69a"/><line x1="1928" y1="319.88584072727133" x2="1928" y2="362.013375272727" stroke="#ef5350" stroke-width="2"/><rect x="1924" y="343.1286189090894" width="8" height="16.705746181816494" fill="#ef5350"/><line x1="1940" y1="333.6862400000015" x2="1940" y2="368.5504065454552" stroke="#26a69a" stroke-width="2"/><rect x="1936" y="343.85495563636306" width="8" height="13.80039927273009" fill="#26a69a"/><rect x="75" y="905.8760602195388" width="10" height="114.12393978046123" fill="#26a69a" opacity="0.9"/><rect x="87" y="960.9897865129833" width="10" height="59.0102134870167" fill="#26a69a" opacity="0.9"/><rect x="99" y="970.5975401975662" width="10" height="49.40245980243378" fill="#ef5350" opacity="0.9"/><rect x="111" y="957.8307745305241" width="10" height="62.16922546947592" fill="#26a69a" opacity="0.9"/><rect x="123" y="961.5651680058097" width="10" height="58.43483199419029" fill="#ef5350" opacity="0.9"/><rect x="135" y="988.5840773878797" width="10" height="31.415922612120312" fill="#26a69a" opacity="0.9"/><rect x="147" y="963.888200955245" width="10" height="56.111799044755" fill="#ef5350" opacity="0.9"/><rect x="159" y="963.2343329578147" width="10" height="56.76566704218533" fill="#ef5350" opacity="0.9"/><rect x="171" y="976.1538819630006" width="10" height="43.84611803699943" fill="#ef5350" opacity="0.9"/><rect x="183" y="980.4097498300855" width="10" height="39.5902501699145" fill="#26a69a" opacity="0.9"/><rect x="195" y="981.1245077136499" width="10" height="38.875492286350095" fill="#ef5350" opacity="0.9"/><rect x="207" y="963.0103252115784" width="10" height="56.98967478842155" fill="#ef5350" opacity="0.9"/><rect x="219" y="978.8389024923888" width="10" height="41.1610975076112" fill="#ef5350" opacity="0.9"/><rect x="231" y="968.5253288891786" width="10" height="51.47467111082142" fill="#26a69a" opacity="0.9"/><rect x="243" y="979.1115104229706" width="10" height="40.88848957702942" fill="#26a69a" opacity="0.9"/><rect x="255" y="988.9058441256157" width="10" height="31.09415587438434" fill="#ef5350" opacity="0.9"/><rect x="267" y="987.7123464951073" width="10" height="32.28765350489266" fill="#26a69a" opacity="0.9"/><rect x="279" y="991.3978604746432" width="10" height="28.602139525356847" fill="#ef5350" opacity="0.9"/><rect x="291" y="993.9474149729533" width="10" height="26.05258502704669" fill="#26a69a" opacity="0.9"/><rect x="303" y="996.3645758656326" width="10" height="23.63542413436744" fill="#ef5350" opacity="0.9"/><rect x="315" y="992.2221084286872" width="10" height="27.777891571312807" fill="#ef5350" opacity="0.9"/><rect x="327" y="982.4006815198264" width="10" height="37.599318480173565" fill="#26a69a" opacity="0.9"/><rect x="339" y="992.4098056923664" width="10" height="27.590194307633624" fill="#ef5350" opacity="0.9"/><rect x="351" y="990.7291889727858" width="10" height="29.270811027214222" fill="#26a69a" opacity="0.9"/><rect x="363" y="987.9539508598136" width="10" height="32.04604914018637" fill="#ef5350" opacity="0.9"/><rect x="375" y="992.9712216149785" width="10" height="27.028778385021496" fill="#ef5350" opacity="0.9"/><rect x="387" y="991.1249732326571" width="10" height="28.875026767342888" fill="#26a69a" opacity="0.9"/><rect x="399" y="998.0194959360191" width="10" height="21.980504063980902" fill="#26a69a" opacity="0.9"/><rect x="411" y="980.7884960942955" width="10" height="39.21150390570449" fill="#ef5350" opacity="0.9"/><rect x="423" y="992.3262915824853" width="10" height="27.673708417514717" fill="#ef5350" opacity="0.9"/><rect x="435" y="991.9712867876395" width="10" height="28.028713212360458" fill="#26a69a" opacity="0.9"/><rect x="447" y="996.585790497826" width="10" height="23.414209502174003" fill="#ef5350" opacity="0.9"/><rect x="459" y="985.1971472995242" width="10" height="34.802852700475796" fill="#26a69a" opacity="0.9"/><rect x="471" y="987.3137691211932" width="10" height="32.68623087880678" fill="#26a69a" opacity="0.9"/><rect x="483" y="964.2191849693223" width="10" height="55.78081503067767" fill="#26a69a" opacity="0.9"/><rect x="495" y="994.5462586237396" width="10" height="25.453741376260382" fill="#ef5350" opacity="0.9"/><rect x="507" y="985.3164132691538" width="10" height="34.68358673084617" fill="#ef5350" opacity="0.9"/><rect x="519" y="990.3253046821902" width="10" height="29.67469531780978" fill="#26a69a" opacity="0.9"/><rect x="531" y="992.1695978846816" width="10" height="27.830402115318407" fill="#26a69a" opacity="0.9"/><rect x="543" y="986.6308527377173" width="10" height="33.369147262282695" fill="#ef5350" opacity="0.9"/><rect x="555" y="989.321180183787" width="10" height="30.678819816213036" fill="#26a69a" opacity="0.9"/><rect x="567" y="983.8706974405765" width="10" height="36.129302559423536" fill="#26a69a" opacity="0.9"/><rect x="579" y="986.4032139432253" width="10" height="33.596786056774704" fill="#ef5350" opacity="0.9"/><rect x="591" y="991.7268893088905" width="10" height="28.273110691109537" fill="#26a69a" opacity="0.9"/><rect x="603" y="989.4228495349465" width="10" height="30.577150465053478" fill="#26a69a" opacity="0.9"/><rect x="615" y="996.6536631690672" width="10" height="23.34633683093284" fill="#ef5350" opacity="0.9"/><rect x="627" y="993.6351448229631" width="10" height="26.36485517703693" fill="#26a69a" opacity="0.9"/><rect x="639" y="996.1768786019533" width="10" height="23.823121398046737" fill="#26a69a" opacity="0.9"/><rect x="651" y="996.2307857029803" width="10" height="23.769214297019744" fill="#ef5350" opacity="0.9"/><rect x="663" y="984.9024737680039" width="10" height="35.097526231996085" fill="#ef5350" opacity="0.9"/><rect x="675" y="993.4075060284712" width="10" height="26.592493971528825" fill="#ef5350" opacity="0.9"/><rect x="687" y="997.0681612930256" width="10" height="22.931838706974418" fill="#ef5350" opacity="0.9"/><rect x="699" y="995.3791652313164" width="10" height="24.620834768683608" fill="#ef5350" opacity="0.9"/><rect x="711" y="988.2014207640098" width="10" height="31.798579235990246" fill="#26a69a" opacity="0.9"/><rect x="723" y="988.0031096669677" width="10" height="31.996890333032297" fill="#26a69a" opacity="0.9"/><rect x="735" y="992.9326766411873" width="10" height="27.0673233588127" fill="#ef5350" opacity="0.9"/><rect x="747" y="997.1287718677554" width="10" height="22.871228132244596" fill="#26a69a" opacity="0.9"/><rect x="759" y="996.6167940637016" width="10" height="23.383205936298395" fill="#26a69a" opacity="0.9"/><rect x="771" y="991.1319560177642" width="10" height="28.868043982235804" fill="#26a69a" opacity="0.9"/><rect x="783" y="989.0066755425624" width="10" height="30.993324457437552" fill="#ef5350" opacity="0.9"/><rect x="795" y="987.747260420643" width="10" height="32.25273957935701" fill="#26a69a" opacity="0.9"/><rect x="807" y="993.6569311124973" width="10" height="26.34306888750268" fill="#26a69a" opacity="0.9"/><rect x="819" y="996.6790805068571" width="10" height="23.320919493142924" fill="#ef5350" opacity="0.9"/><rect x="831" y="985.0843054921933" width="10" height="34.915694507806734" fill="#ef5350" opacity="0.9"/><rect x="843" y="997.6731497947061" width="10" height="22.32685020529391" fill="#ef5350" opacity="0.9"/><rect x="855" y="999.2934352509614" width="10" height="20.706564749038648" fill="#26a69a" opacity="0.9"/><rect x="867" y="991.5944957032596" width="10" height="28.405504296740446" fill="#ef5350" opacity="0.9"/><rect x="879" y="987.6319048106734" width="10" height="32.368095189326596" fill="#ef5350" opacity="0.9"/><rect x="891" y="998.1664137346728" width="10" height="21.8335862653272" fill="#26a69a" opacity="0.9"/><rect x="903" y="994.9956706732336" width="10" height="25.004329326766424" fill="#26a69a" opacity="0.9"/><rect x="915" y="995.8274600351932" width="10" height="24.172539964806788" fill="#26a69a" opacity="0.9"/><rect x="927" y="998.3130522219222" width="10" height="21.68694777807775" fill="#ef5350" opacity="0.9"/><rect x="939" y="995.6562421443667" width="10" height="24.34375785563327" fill="#ef5350" opacity="0.9"/><rect x="951" y="991.0252590613275" width="10" height="28.97474093867254" fill="#26a69a" opacity="0.9"/><rect x="963" y="988.0296442503748" width="10" height="31.97035574962524" fill="#ef5350" opacity="0.9"/><rect x="975" y="985.6275661735268" width="10" height="34.372433826473184" fill="#26a69a" opacity="0.9"/><rect x="987" y="969.2409247069558" width="10" height="50.75907529304425" fill="#26a69a" opacity="0.9"/><rect x="999" y="878.6954295343879" width="10" height="141.30457046561207" fill="#26a69a" opacity="0.9"/><rect x="1011" y="931.5411472250412" width="10" height="88.45885277495881" fill="#26a69a" opacity="0.9"/><rect x="1023" y="977.9682888452336" width="10" height="42.03171115476641" fill="#26a69a" opacity="0.9"/><rect x="1035" y="978.9930823875538" width="10" height="41.00691761244616" fill="#26a69a" opacity="0.9"/><rect x="1047" y="972.3161432681296" width="10" height="47.68385673187038" fill="#26a69a" opacity="0.9"/><rect x="1059" y="971.3335257478562" width="10" height="48.66647425214376" fill="#26a69a" opacity="0.9"/><rect x="1071" y="983.6207137337417" width="10" height="36.379286266258305" fill="#ef5350" opacity="0.9"/><rect x="1083" y="967.6927015930061" width="10" height="52.30729840699394" fill="#ef5350" opacity="0.9"/><rect x="1095" y="966.7159496122226" width="10" height="53.28405038777737" fill="#26a69a" opacity="0.9"/><rect x="1107" y="987.4171143407785" width="10" height="32.58288565922146" fill="#ef5350" opacity="0.9"/><rect x="1119" y="982.9003696220917" width="10" height="37.099630377908284" fill="#ef5350" opacity="0.9"/><rect x="1131" y="990.3177632742745" width="10" height="29.682236725725488" fill="#26a69a" opacity="0.9"/><rect x="1143" y="991.1098904168257" width="10" height="28.890109583174308" fill="#ef5350" opacity="0.9"/><rect x="1155" y="981.8976416807099" width="10" height="38.10235831929015" fill="#ef5350" opacity="0.9"/><rect x="1167" y="988.6033498747754" width="10" height="31.396650125224596" fill="#ef5350" opacity="0.9"/><rect x="1179" y="992.896086847226" width="10" height="27.103913152774" fill="#26a69a" opacity="0.9"/><rect x="1191" y="992.9645181412757" width="10" height="27.035481858724324" fill="#26a69a" opacity="0.9"/><rect x="1203" y="993.3594644669342" width="10" height="26.64053553306576" fill="#ef5350" opacity="0.9"/><rect x="1215" y="992.3709814071708" width="10" height="27.629018592829198" fill="#ef5350" opacity="0.9"/><rect x="1227" y="995.5048553632445" width="10" height="24.495144636755526" fill="#26a69a" opacity="0.9"/><rect x="1239" y="995.3827962795721" width="10" height="24.617203720427938" fill="#ef5350" opacity="0.9"/><rect x="1251" y="984.7086316534304" width="10" height="35.291368346569584" fill="#ef5350" opacity="0.9"/><rect x="1263" y="966.2673754969416" width="10" height="53.732624503058446" fill="#ef5350" opacity="0.9"/><rect x="1275" y="987.2718724105505" width="10" height="32.728127589449514" fill="#ef5350" opacity="0.9"/><rect x="1287" y="990.0189000716899" width="10" height="29.981099928310073" fill="#ef5350" opacity="0.9"/><rect x="1299" y="974.5092964145726" width="10" height="45.490703585427354" fill="#ef5350" opacity="0.9"/><rect x="1311" y="978.8964406416713" width="10" height="41.10355935832865" fill="#ef5350" opacity="0.9"/><rect x="1323" y="991.5606990233412" width="10" height="28.439300976658842" fill="#26a69a" opacity="0.9"/><rect x="1335" y="996.2221270494474" width="10" height="23.77787295055259" fill="#ef5350" opacity="0.9"/><rect x="1347" y="989.7172437550626" width="10" height="30.282756244937445" fill="#ef5350" opacity="0.9"/><rect x="1359" y="993.3616989581685" width="10" height="26.638301041831483" fill="#26a69a" opacity="0.9"/><rect x="1371" y="982.5777649501429" width="10" height="37.422235049857136" fill="#ef5350" opacity="0.9"/><rect x="1383" y="989.6683642593127" width="10" height="30.33163574068726" fill="#26a69a" opacity="0.9"/><rect x="1395" y="988.1070135093615" width="10" height="31.892986490638464" fill="#26a69a" opacity="0.9"/><rect x="1407" y="989.0242721610323" width="10" height="30.975727838967714" fill="#ef5350" opacity="0.9"/><rect x="1419" y="996.087219641178" width="10" height="23.912780358822033" fill="#26a69a" opacity="0.9"/><rect x="1431" y="997.8312400495312" width="10" height="22.168759950468825" fill="#ef5350" opacity="0.9"/><rect x="1443" y="995.4213412533634" width="10" height="24.57865874663662" fill="#26a69a" opacity="0.9"/><rect x="1455" y="995.3509547794837" width="10" height="24.649045220516314" fill="#ef5350" opacity="0.9"/><rect x="1467" y="993.1231670189094" width="10" height="26.876832981090615" fill="#ef5350" opacity="0.9"/><rect x="1479" y="990.5568538363422" width="10" height="29.443146163657843" fill="#26a69a" opacity="0.9"/><rect x="1491" y="997.0318508104685" width="10" height="22.96814918953146" fill="#ef5350" opacity="0.9"/><rect x="1503" y="994.0432187846229" width="10" height="25.956781215377077" fill="#26a69a" opacity="0.9"/><rect x="1515" y="971.2706806818923" width="10" height="48.72931931810774" fill="#ef5350" opacity="0.9"/><rect x="1527" y="990.2845252171646" width="10" height="29.715474782835372" fill="#26a69a" opacity="0.9"/><rect x="1539" y="993.2932676641187" width="10" height="26.70673233588127" fill="#ef5350" opacity="0.9"/><rect x="1551" y="989.6169709609244" width="10" height="30.38302903907561" fill="#26a69a" opacity="0.9"/><rect x="1563" y="999.0264135484651" width="10" height="20.973586451534857" fill="#ef5350" opacity="0.9"/><rect x="1575" y="996.6874598489857" width="10" height="23.312540151014332" fill="#26a69a" opacity="0.9"/><rect x="1587" y="993.2253949928776" width="10" height="26.77460500712243" fill="#ef5350" opacity="0.9"/><rect x="1599" y="997.3265243419888" width="10" height="22.67347565801117" fill="#26a69a" opacity="0.9"/><rect x="1611" y="995.3721824462093" width="10" height="24.627817553790692" fill="#ef5350" opacity="0.9"/><rect x="1623" y="994.0527153723687" width="10" height="25.947284627631348" fill="#26a69a" opacity="0.9"/><rect x="1635" y="988.87288537991" width="10" height="31.12711462008997" fill="#26a69a" opacity="0.9"/><rect x="1647" y="997.9021851462195" width="10" height="22.097814853780505" fill="#ef5350" opacity="0.9"/><rect x="1659" y="993.7013416257786" width="10" height="26.298658374221418" fill="#26a69a" opacity="0.9"/><rect x="1671" y="994.7576973567831" width="10" height="25.24230264321693" fill="#ef5350" opacity="0.9"/><rect x="1683" y="986.4696900574451" width="10" height="33.530309942554936" fill="#26a69a" opacity="0.9"/><rect x="1695" y="995.0155017829378" width="10" height="24.984498217062196" fill="#ef5350" opacity="0.9"/><rect x="1707" y="999.317735343134" width="10" height="20.682264656865982" fill="#26a69a" opacity="0.9"/><rect x="1719" y="997.6203599392963" width="10" height="22.37964006070365" fill="#ef5350" opacity="0.9"/><rect x="1731" y="992.6192892455799" width="10" height="27.38071075442008" fill="#ef5350" opacity="0.9"/><rect x="1743" y="995.5724487230814" width="10" height="24.42755127691862" fill="#ef5350" opacity="0.9"/><rect x="1755" y="986.251827162103" width="10" height="33.74817283789696" fill="#26a69a" opacity="0.9"/><rect x="1767" y="1000.7623339260942" width="10" height="19.237666073905757" fill="#26a69a" opacity="0.9"/><rect x="1779" y="1000.0333311609113" width="10" height="19.966668839088697" fill="#ef5350" opacity="0.9"/><rect x="1791" y="1000.3640358635843" width="10" height="19.635964136415737" fill="#26a69a" opacity="0.9"/><rect x="1803" y="993.2742744886274" width="10" height="26.725725511372616" fill="#ef5350" opacity="0.9"/><rect x="1815" y="984.7784595045016" width="10" height="35.2215404954984" fill="#ef5350" opacity="0.9"/><rect x="1827" y="989.2150418501587" width="10" height="30.78495814984126" fill="#ef5350" opacity="0.9"/><rect x="1839" y="964.1007569339056" width="10" height="55.899243066094414" fill="#ef5350" opacity="0.9"/><rect x="1851" y="979.3433388885268" width="10" height="40.65666111147323" fill="#26a69a" opacity="0.9"/><rect x="1863" y="986.2817134823615" width="10" height="33.71828651763849" fill="#ef5350" opacity="0.9"/><rect x="1875" y="981.9412142597782" width="10" height="38.058785740221765" fill="#26a69a" opacity="0.9"/><rect x="1887" y="983.8628767212565" width="10" height="36.1371232787435" fill="#26a69a" opacity="0.9"/><rect x="1899" y="978.9285614531641" width="10" height="41.07143854683591" fill="#26a69a" opacity="0.9"/><rect x="1911" y="961.4808159617157" width="10" height="58.519184038284266" fill="#26a69a" opacity="0.9"/><rect x="1923" y="927.9894234081578" width="10" height="92.01057659184221" fill="#ef5350" opacity="0.9"/><rect x="1935" y="860.0" width="10" height="160.0" fill="#26a69a" opacity="0.9"/><rect x="1004" y="316.25415709091124" width="12" height="222.25906036363244" fill="#00ff00" opacity="0.60"/><polyline points="320,730.759004361905,332,732.9187446218053,344,737.8542349175652,356,734.6412609254169,368,733.532832750701,380,736.7496400904615,392,737.861536532058,404,737.2073397021599,416,739.3132697391841,428,744.3315069761411,440,748.041717671053,452,751.3985749664491,464,752.1529587878252,476,749.0308751630106,488,738.5277152427245,500,730.2700050810844,512,724.0438923201095,524,717.7812508004453,536,709.3549714688048,548,702.2845944111726,560,694.434913004046,572,685.6034469344029,584,678.1664723519084,596,669.6392327686143,608,660.2639128685703,620,653.1649792447173,632,646.1541476283442,644,638.8079777243382,656,632.645667534135,668,627.9695182105405,680,624.1537660000093,692,621.9465675757667,704,622.5090510793714,716,620.3201423185667,728,616.2644530587881,740,617.0222156246134,752,615.286687694995,764,612.4712993257741,776,606.9495210696418,788,602.299501088981,800,597.8156404484748,812,592.306140561612,824,587.5288797289035,836,583.5524707503944,848,581.4766159776314,860,577.5232136594159,872,574.3613754061367,884,573.091688120704,896,571.8737484382142,908,569.3191294181237,920,566.3160581142372,932,563.8065184496802,944,562.9194812293629,956,561.5635242637918,968,561.2359801694022,980,559.2102574519727,992,557.1007609327353,1004,555.3305186967175,1016,528.9642448814448,1028,504.7631700615635,1040,476.2953408782117,1052,445.14308870799476,1064,416.3351432899121,1076,392.0001850198787,1088,372.3347895980789,1100,347.69397057141924,1112,327.54431914036934,1124,313.9484026854419,1136,295.5599412695102,1148,280.36851801440537,1160,267.11503900003834,1172,256.64564460176655,1184,245.9973614968393,1196,235.87897610753066,1208,228.6611445475088,1220,224.27514844341863,1232,219.26924228863834,1244,217.43791150790707,1256,219.86231425607082,1268,224.06189457799633,1280,229.17583860952698,1292,234.978714170525,1304,241.19738402441726,1316,246.96214945932468,1328,251.00191572726715,1340,257.2855898311652,1352,263.8009179684559,1364,269.0731642571749,1376,276.852401462119,1388,281.29669895057634,1400,282.4123828254084,1412,285.4970590931192,1424,287.45785741325983,1436,290.61541170290604,1448,291.81204816409684,1460,293.863168286994,1472,297.51749193065655,1484,300.4087351234127,1496,305.7916192242126,1508,309.34752395610724,1520,316.3002174667781,1532,319.9621022102044,1544,324.5203848395414,1556,326.36177253447875,1568,328.37366460478904,1580,330.1939479064955,1592,333.016844781204,1604,334.80997007477106,1616,336.77819616289275,1628,338.8356719222677,1640,337.16927601624946,1652,336.0766340406702,1664,334.0504292402577,1676,333.63528242083373,1688,330.2505637833499,1700,327.46489907670946,1712,323.9069117360734,1724,321.5870545144588,1736,320.31823526199753,1748,321.03797908985973,1760,321.4124761808638,1772,320.9212076961029,1784,321.79105042634376,1796,322.647225918205,1808,325.0128843329218,1820,330.1969390544648,1832,335.7173734648644,1844,342.0955508837903,1856,345.9293846870671,1868,350.36654050042097,1880,353.8277106345793,1892,355.78327163042223,1904,356.7916644621536,1916,355.4904220285277,1928,355.90413089160967,1940,354.7565903911081" fill="none" stroke="#0090ff" stroke-width="2"/><line x1="80" y1="50" x2="80" y2="900" stroke="#666666" stroke-width="0.5" stroke-dasharray="4,4" opacity="0.90"/><line x1="152" y1="50" x2="152" y2="900" stroke="#666666" stroke-width="0.5" stroke-dasharray="4,4" opacity="0.90"/><line x1="224" y1="50" x2="224" y2="900" stroke="#666666" stroke-width="0.5" stroke-dasharray="4,4" opacity="0.90"/><line x1="296" y1="50" x2="296" y2="900" stroke="#666666" stroke-width="0.5" stroke-dasharray="4,4" opacity="0.90"/><line x1="368" y1="50" x2="368" y2="900" stroke="#666666" stroke-width="0.5" stroke-dasharray="4,4" opacity="0.90"/><line x1="440" y1="50" x2="440" y2="900" stroke="#666666" stroke-width="0.5" stroke-dasharray="4,4" opacity="0.90"/><line x1="512" y1="50" x2="512" y2="900" stroke="#666666" stroke-width="0.5" stroke-dasharray="4,4" opacity="0.90"/><line x1="584" y1="50" x2="584" y2="900" stroke="#666666" stroke-width="0.5" stroke-dasharray="4,4" opacity="0.90"/><line x1="656" y1="50" x2="656" y2="900" stroke="#666666" stroke-width="0.5" stroke-dasharray="4,4" opacity="0.90"/><line x1="728" y1="50" x2="728" y2="900" stroke="#666666" stroke-width="0.5" stroke-dasharray="4,4" opacity="0.90"/><line x1="800" y1="50" x2="800" y2="900" stroke="#666666" stroke-width="0.5" stroke-dasharray="4,4" opacity="0.90"/><line x1="872" y1="50" x2="872" y2="900" stroke="#666666" stroke-width="0.5" stroke-dasharray="4,4" opacity="0.90"/><line x1="944" y1="50" x2="944" y2="900" stroke="#666666" stroke-width="0.5" stroke-dasharray="4,4" opacity="0.90"/><line x1="1010" y1="30" x2="1010" y2="950" stroke="black" stroke-width="0.7"/><line x1="1016" y1="50" x2="1016" y2="900" stroke="#666666" stroke-width="0.5" stroke-dasharray="4,4" opacity="0.90"/><line x1="1088" y1="50" x2="1088" y2="900" stroke="#666666" stroke-width="0.5" stroke-dasharray="4,4" opacity="0.90"/><line x1="1160" y1="50" x2="1160" y2="900" stroke="#666666" stroke-width="0.5" stroke-dasharray="4,4" opacity="0.90"/><line x1="1232" y1="50" x2="1232" y2="900" stroke="#666666" stroke-width="0.5" stroke-dasharray="4,4" opacity="0.90"/><line x1="1304" y1="50" x2="1304" y2="900" stroke="#666666" stroke-width="0.5" stroke-dasharray="4,4" opacity="0.90"/><line x1="1376" y1="50" x2="1376" y2="900" stroke="#666666" stroke-width="0.5" stroke-dasharray="4,4" opacity="0.90"/><line x1="1448" y1="50" x2="1448" y2="900" stroke="#666666" stroke-width="0.5" stroke-dasharray="4,4" opacity="0.90"/><line x1="1520" y1="50" x2="1520" y2="900" stroke="#666666" stroke-width="0.5" stroke-dasharray="4,4" opacity="0.90"/><line x1="1592" y1="50" x2="1592" y2="900" stroke="#666666" stroke-width="0.5" stroke-dasharray="4,4" opacity="0.90"/><line x1="1664" y1="50" x2="1664" y2="900" stroke="#666666" stroke-width="0.5" stroke-dasharray="4,4" opacity="0.90"/><line x1="1736" y1="50" x2="1736" y2="900" stroke="#666666" stroke-width="0.5" stroke-dasharray="4,4" opacity="0.90"/><line x1="1808" y1="50" x2="1808" y2="900" stroke="#666666" stroke-width="0.5" stroke-dasharray="4,4" opacity="0.90"/><line x1="1880" y1="50" x2="1880" y2="900" stroke="#666666" stroke-width="0.5" stroke-dasharray="4,4" opacity="0.90"/><line x1="1946" y1="30" x2="1946" y2="950" stroke="black" stroke-width="0.7"/><text x="80" y="1040" text-anchor="middle" font-size="20" fill="black">09:30</text><text x="152" y="1040" text-anchor="middle" font-size="20" fill="black">10:00</text><text x="224" y="1040" text-anchor="middle" font-size="20" fill="black">10:30</text><text x="296" y="1040" text-anchor="middle" font-size="20" fill="black">11:00</text><text x="368" y="1040" text-anchor="middle" font-size="20" fill="black">11:30</text><text x="440" y="1040" text-anchor="middle" font-size="20" fill="black">12:00</text><text x="512" y="1040" text-anchor="middle" font-size="20" fill="black">12:30</text><text x="584" y="1040" text-anchor="middle" font-size="20" fill="black">13:00</text><text x="656" y="1040" text-anchor="middle" font-size="20" fill="black">13:30</text><text x="728" y="1040" text-anchor="middle" font-size="20" fill="black">14:00</text><text x="800" y="1040" text-anchor="middle" font-size="20" fill="black">14:30</text><text x="872" y="1040" text-anchor="middle" font-size="20" fill="black">15:00</text><text x="944" y="1040" text-anchor="middle" font-size="20" fill="black">15:30</text><text x="1016" y="1040" text-anchor="middle" font-size="20" fill="black">09:30</text><text x="1088" y="1040" text-anchor="middle" font-size="20" fill="black">10:00</text><text x="1160" y="1040" text-anchor="middle" font-size="20" fill="black">10:30</text><text x="1232" y="1040" text-anchor="middle" font-size="20" fill="black">11:00</text><text x="1304" y="1040" text-anchor="middle" font-size="20" fill="black">11:30</text><text x="1376" y="1040" text-anchor="middle" font-size="20" fill="black">12:00</text><text x="1448" y="1040" text-anchor="middle" font-size="20" fill="black">12:30</text><text x="1520" y="1040" text-anchor="middle" font-size="20" fill="black">13:00</text><text x="1592" y="1040" text-anchor="middle" font-size="20" fill="black">13:30</text><text x="1664" y="1040" text-anchor="middle" font-size="20" fill="black">14:00</text><text x="1736" y="1040" text-anchor="middle" font-size="20" fill="black">14:30</text><text x="1808" y="1040" text-anchor="middle" font-size="20" fill="black">15:00</text><text x="1880" y="1040" text-anchor="middle" font-size="20" fill="black">15:30</text><text x="1942" y="50" text-anchor="end" font-size="40" fill="#ef5350" font-weight="bold"> -0.06% (Mon)</text></svg>