<svg xmlns="http://www.w3.org/2000/svg" width="1992" height="1050"><rect width="100%" height="100%" fill="white"/><text x="42" y="854.0" text-anchor="end" font-size="20" fill="black">558</text><text x="42" y="694.0" text-anchor="end" font-size="20" fill="black">559</text><text x="42" y="534.0" text-anchor="end" font-size="20" fill="black">560</text><text x="42" y="374.0" text-anchor="end" font-size="20" fill="black">561</text><text x="42" y="214.0" text-anchor="end" font-size="20" fill="black">562</text><text x="42" y="54.0" text-anchor="end" font-size="20" fill="black">563</text><line x1="80" y1="54.61569920000329" x2="80" y2="314.7785008000028" stroke="#ef5350" stroke-width="2"/><rect x="76" y="64.19224479999684" width="8" height="212.28007679999791" fill="#ef5350"/><line x1="92" y1="179.1107824000028" x2="92" y2="286.04886560000523" stroke="#26a69a" stroke-width="2"/><rect x="88" y="217.41696159999265" width="8" height="59.05536000000211" fill="#26a69a"/><line x1="104" y1="215.8208704000026" x2="104" y2="399.3713120000029" stroke="#ef5350" stroke-width="2"/><rect x="100" y="215.8208704000026" width="8" height="105.34199359999548" fill="#ef5350"/><line x1="116" y1="325.9511360000033" x2="116" y2="589.3061183999998" stroke="#ef5350" stroke-width="2"/><rect x="112" y="325.9511360000033" width="8" height="250.58625599998777" fill="#ef5350"/><line x1="128" y1="547.8077567999935" x2="128" y2="965.9835471999941" stroke="#ef5350" stroke-width="2"/><rect x="124" y="576.5373919999911" width="8" height="320.8142496000073" fill="#ef5350"/><line x1="140" y1="739.3386527999974" x2="140" y2="930.8695488000012" stroke="#26a69a" stroke-width="2"/><rect x="136" y="852.6610991999951" width="8" height="47.08468000000721" fill="#26a69a"/><line x1="152" y1="855.8532815999934" x2="152" y2="970.7718191999993" stroke="#ef5350" stroke-width="2"/><rect x="148" y="860.6415535999986" width="8" height="17.55699839999579" fill="#ef5350"/><line x1="164" y1="697.8402927999923" x2="164" y2="884.5829152000078" stroke="#26a69a" stroke-width="2"/><rect x="160" y="715.3972912000063" width="8" height="169.18562400000155" fill="#26a69a"/><line x1="176" y1="675.4950208000082" x2="176" y2="750.5112879999979" stroke="#26a69a" stroke-width="2"/><rect x="172" y="697.8402927999923" width="8" height="19.153089600004023" fill="#26a69a"/><line x1="188" y1="630.8044784000049" x2="188" y2="744.1269248000026" stroke="#ef5350" stroke-width="2"/><rect x="184" y="697.8402927999923" width="8" height="35.11399680000977" fill="#ef5350"/><line x1="200" y1="688.2637471999988" x2="200" y2="771.2604687999919" stroke="#ef5350" stroke-width="2"/><rect x="196" y="729.7621088000051" width="8" height="41.49835999998686" fill="#ef5350"/><line x1="212" y1="736.1464720000004" x2="212" y2="788.8174672000059" stroke="#26a69a" stroke-width="2"/><rect x="208" y="752.1073792000061" width="8" height="19.95113599999968" fill="#26a69a"/><line x1="224" y1="614.8435711999991" x2="224" y2="755.2995616000044" stroke="#26a69a" stroke-width="2"/><rect x="220" y="618.0357519999961" width="8" height="132.47553600000174" fill="#26a69a"/><line x1="236" y1="535.039030400003" x2="236" y2="621.2279343999944" stroke="#26a69a" stroke-width="2"/><rect x="232" y="581.3256639999963" width="8" height="35.11399680000977" fill="#26a69a"/><line x1="248" y1="527.0585759999994" x2="248" y2="606.8631167999956" stroke="#26a69a" stroke-width="2"/><rect x="244" y="568.5569376000058" width="8" height="9.576543999992282" fill="#26a69a"/><line x1="260" y1="523.8663952000024" x2="260" y2="630.8044784000049" stroke="#ef5350" stroke-width="2"/><rect x="256" y="570.1530287999958" width="8" height="41.49836000000505" fill="#ef5350"/><line x1="272" y1="592.4982991999968" x2="272" y2="637.1888416000002" stroke="#ef5350" stroke-width="2"/><rect x="268" y="605.2670256000056" width="8" height="11.172635200000514" fill="#ef5350"/><line x1="284" y1="512.6937600000019" x2="284" y2="630.8044784000049" stroke="#26a69a" stroke-width="2"/><rect x="280" y="536.635121599993" width="8" height="82.1986767999988" fill="#26a69a"/><line x1="296" y1="515.8859407999989" x2="296" y2="597.2865712000021" stroke="#ef5350" stroke-width="2"/><rect x="292" y="530.2507583999977" width="8" height="39.90227039999809" fill="#ef5350"/><line x1="308" y1="520.6742128000042" x2="308" y2="570.1530287999958" stroke="#26a69a" stroke-width="2"/><rect x="304" y="562.1725743999923" width="8" height="3.192180800015194" fill="#26a69a"/><line x1="320" y1="530.2507583999977" x2="320" y2="605.2670256000056" stroke="#ef5350" stroke-width="2"/><rect x="316" y="565.3647552000075" width="8" height="30.325726399987616" fill="#ef5350"/><line x1="332" y1="560.5764832000023" x2="332" y2="645.1692960000037" stroke="#26a69a" stroke-width="2"/><rect x="328" y="560.5764832000023" width="8" height="36.710087999999814" fill="#26a69a"/><line x1="344" y1="539.8273024000082" x2="344" y2="613.2474800000091" stroke="#ef5350" stroke-width="2"/><rect x="340" y="558.980391999994" width="8" height="41.49836160000632" fill="#ef5350"/><line x1="356" y1="566.9608463999975" x2="356" y2="606.8631167999956" stroke="#26a69a" stroke-width="2"/><rect x="352" y="595.6904815999951" width="8" height="3.192180799997004" fill="#26a69a"/><line x1="368" y1="499.9250335999932" x2="368" y2="613.2474800000091" stroke="#26a69a" stroke-width="2"/><rect x="364" y="503.91526080000403" width="8" height="93.37131039999804" fill="#26a69a"/><line x1="380" y1="503.1172144000084" x2="380" y2="571.7491184000028" stroke="#ef5350" stroke-width="2"/><rect x="376" y="504.7133055999984" width="8" height="41.49836000000505" fill="#ef5350"/><line x1="392" y1="531.846849600006" x2="392" y2="586.1139360000016" stroke="#ef5350" stroke-width="2"/><rect x="388" y="549.4038480000017" width="8" height="20.749180799994065" fill="#ef5350"/><line x1="404" y1="492.74262400000225" x2="404" y2="589.3061183999998" stroke="#26a69a" stroke-width="2"/><rect x="400" y="536.635121599993" width="8" height="35.11399680000977" fill="#26a69a"/><line x1="416" y1="517.4820320000072" x2="416" y2="578.133481599998" stroke="#ef5350" stroke-width="2"/><rect x="412" y="544.6155759999965" width="8" height="20.749179200010985" fill="#ef5350"/><line x1="428" y1="546.2116656000035" x2="428" y2="613.2474800000091" stroke="#ef5350" stroke-width="2"/><rect x="424" y="563.7686656000005" width="8" height="36.710087999999814" fill="#ef5350"/><line x1="440" y1="581.3256639999963" x2="440" y2="664.3223856000077" stroke="#26a69a" stroke-width="2"/><rect x="436" y="581.3256639999963" width="8" height="11.172635200000514" fill="#26a69a"/><line x1="452" y1="562.1725743999923" x2="452" y2="612.4494351999965" stroke="#26a69a" stroke-width="2"/><rect x="448" y="579.7295728000063" width="8" height="3.1921823999982735" fill="#26a69a"/><line x1="464" y1="574.941300800001" x2="464" y2="640.3810239999984" stroke="#ef5350" stroke-width="2"/><rect x="460" y="581.3256639999963" width="8" height="31.921816000012768" fill="#ef5350"/><line x1="476" y1="533.4429391999947" x2="476" y2="613.2474800000091" stroke="#26a69a" stroke-width="2"/><rect x="472" y="554.192120000007" width="8" height="59.05536000000211" fill="#26a69a"/><line x1="488" y1="547.8077567999935" x2="488" y2="614.8435711999991" stroke="#ef5350" stroke-width="2"/><rect x="484" y="557.3843024000053" width="8" height="52.670995199987374" fill="#ef5350"/><line x1="500" y1="613.2474800000091" x2="500" y2="763.2800144000066" stroke="#ef5350" stroke-width="2"/><rect x="496" y="614.8435711999991" width="8" height="118.11071840000295" fill="#ef5350"/><line x1="512" y1="669.1106575999947" x2="512" y2="750.5112879999979" stroke="#26a69a" stroke-width="2"/><rect x="508" y="688.2637471999988" width="8" height="46.286633599993365" fill="#26a69a"/><line x1="524" y1="681.8793840000035" x2="524" y2="718.5894720000033" stroke="#ef5350" stroke-width="2"/><rect x="520" y="694.648110399994" width="8" height="12.768726400008745" fill="#ef5350"/><line x1="536" y1="694.648110399994" x2="536" y2="784.0291952000007" stroke="#ef5350" stroke-width="2"/><rect x="532" y="702.6285647999975" width="8" height="17.55699839999579" fill="#ef5350"/><line x1="548" y1="704.2246560000058" x2="548" y2="764.8761055999967" stroke="#26a69a" stroke-width="2"/><rect x="544" y="705.8207455999946" width="8" height="17.55699999999706" fill="#26a69a"/><line x1="560" y1="629.2083871999967" x2="560" y2="723.3777455999916" stroke="#26a69a" stroke-width="2"/><rect x="556" y="640.3810239999984" width="8" height="65.43972159999612" fill="#26a69a"/><line x1="572" y1="626.0162063999996" x2="572" y2="673.8989296" stroke="#26a69a" stroke-width="2"/><rect x="568" y="637.1888416000002" width="8" height="7.980454400003509" fill="#26a69a"/><line x1="584" y1="605.2670256000056" x2="584" y2="641.9771136000054" stroke="#26a69a" stroke-width="2"/><rect x="580" y="610.0552975999926" width="8" height="25.5374527999993" fill="#26a69a"/><line x1="596" y1="595.6904815999951" x2="596" y2="646.7653871999937" stroke="#ef5350" stroke-width="2"/><rect x="592" y="608.4592080000039" width="8" height="30.325724800004537" fill="#ef5350"/><line x1="608" y1="610.0552975999926" x2="608" y2="640.3810239999984" stroke="#26a69a" stroke-width="2"/><rect x="604" y="622.8240240000014" width="8" height="15.960908800007019" fill="#26a69a"/><line x1="620" y1="573.3452095999928" x2="620" y2="618.0357519999961" stroke="#26a69a" stroke-width="2"/><rect x="616" y="574.941300800001" width="8" height="43.09445119999509" fill="#26a69a"/><line x1="632" y1="533.4429391999947" x2="632" y2="582.9217552000046" stroke="#26a69a" stroke-width="2"/><rect x="628" y="554.192120000007" width="8" height="19.153089599985833" fill="#26a69a"/><line x1="644" y1="434.48531039999574" x2="644" y2="549.4038480000017" stroke="#26a69a" stroke-width="2"/><rect x="640" y="458.42667200000506" width="8" height="90.97717599999669" fill="#26a69a"/><line x1="656" y1="445.65794559999625" x2="656" y2="487.15630720000263" stroke="#ef5350" stroke-width="2"/><rect x="652" y="458.42667200000506" width="8" height="20.749180799994065" fill="#ef5350"/><line x1="668" y1="468.0032175999986" x2="668" y2="493.5406703999979" stroke="#ef5350" stroke-width="2"/><rect x="664" y="477.5797616000091" width="8" height="6.384363199995278" fill="#ef5350"/><line x1="680" y1="483.96412480000436" x2="680" y2="570.1530287999958" stroke="#ef5350" stroke-width="2"/><rect x="676" y="485.5602159999944" width="8" height="62.247540799999115" fill="#ef5350"/><line x1="692" y1="543.0194848000065" x2="692" y2="573.3452095999928" stroke="#ef5350" stroke-width="2"/><rect x="688" y="549.4038480000017" width="8" height="12.768726399990555" fill="#ef5350"/><line x1="704" y1="557.3843024000053" x2="704" y2="595.6904815999951" stroke="#ef5350" stroke-width="2"/><rect x="700" y="563.7686656000005" width="8" height="11.9706799999949" fill="#ef5350"/><line x1="716" y1="549.4038480000017" x2="716" y2="576.5373919999911" stroke="#26a69a" stroke-width="2"/><rect x="712" y="557.3843024000053" width="8" height="19.153089599985833" fill="#26a69a"/><line x1="728" y1="512.6937600000019" x2="728" y2="571.7491184000028" stroke="#26a69a" stroke-width="2"/><rect x="724" y="555.788211199997" width="8" height="4.788272000005236" fill="#26a69a"/><line x1="740" y1="522.4299136000081" x2="740" y2="565.3647552000075" stroke="#26a69a" stroke-width="2"/><rect x="736" y="523.8663952000024" width="8" height="33.51790720000281" fill="#26a69a"/><line x1="752" y1="519.0781231999972" x2="752" y2="560.5764832000023" stroke="#ef5350" stroke-width="2"/><rect x="748" y="522.2703039999942" width="8" height="35.11399840001104" fill="#ef5350"/><line x1="764" y1="552.5960287999987" x2="764" y2="737.7425616000073" stroke="#ef5350" stroke-width="2"/><rect x="760" y="557.3843024000053" width="8" height="55.86317760000384" fill="#ef5350"/><line x1="776" y1="549.4038480000017" x2="776" y2="626.0162063999996" stroke="#26a69a" stroke-width="2"/><rect x="772" y="587.7100271999916" width="8" height="25.53745280001749" fill="#26a69a"/><line x1="788" y1="536.635121599993" x2="788" y2="590.9022080000068" stroke="#26a69a" stroke-width="2"/><rect x="784" y="565.3647552000075" width="8" height="23.941363199992338" fill="#26a69a"/><line x1="800" y1="501.52112320000015" x2="800" y2="571.7491184000028" stroke="#26a69a" stroke-width="2"/><rect x="796" y="503.1172144000084" width="8" height="63.84363199998916" fill="#26a69a"/><line x1="812" y1="448.85012799999464" x2="812" y2="503.1172144000084" stroke="#26a69a" stroke-width="2"/><rect x="808" y="450.44621760000155" width="8" height="52.67099680000683" fill="#26a69a"/><line x1="824" y1="439.27358240000103" x2="824" y2="483.96412480000436" stroke="#ef5350" stroke-width="2"/><rect x="820" y="450.44621760000155" width="8" height="15.960908800007019" fill="#ef5350"/><line x1="836" y1="462.4168991999977" x2="836" y2="487.15630720000263" stroke="#ef5350" stroke-width="2"/><rect x="832" y="468.0032175999986" width="8" height="7.98045280000224" fill="#ef5350"/><line x1="848" y1="426.5048559999923" x2="848" y2="472.79148960000384" stroke="#26a69a" stroke-width="2"/><rect x="844" y="439.27358240000103" width="8" height="33.51790720000281" fill="#26a69a"/><line x1="860" y1="421.71658400000524" x2="860" y2="450.44621760000155" stroke="#26a69a" stroke-width="2"/><rect x="856" y="425.70681119999796" width="8" height="13.566771200003075" fill="#26a69a"/><line x1="872" y1="407.35176640000645" x2="872" y2="475.98367040000085" stroke="#ef5350" stroke-width="2"/><rect x="868" y="428.1009472000005" width="8" height="36.710087999999814" fill="#ef5350"/><line x1="884" y1="455.23449120000805" x2="884" y2="483.96412480000436" stroke="#26a69a" stroke-width="2"/><rect x="880" y="463.2149439999921" width="8" height="2" fill="#26a69a"/><line x1="896" y1="445.65794559999625" x2="896" y2="496.7328511999949" stroke="#ef5350" stroke-width="2"/><rect x="892" y="463.2149439999921" width="8" height="32.719862400008424" fill="#ef5350"/><line x1="908" y1="468.0032175999986" x2="908" y2="506.30939680000665" stroke="#26a69a" stroke-width="2"/><rect x="904" y="472.79148960000384" width="8" height="23.94136159999107" fill="#26a69a"/><line x1="920" y1="447.2540368000045" x2="920" y2="493.5406703999979" stroke="#ef5350" stroke-width="2"/><rect x="916" y="471.1953983999956" width="8" height="2" fill="#ef5350"/><line x1="932" y1="452.0423087999916" x2="932" y2="487.15630720000263" stroke="#26a69a" stroke-width="2"/><rect x="928" y="472.79148960000384" width="8" height="2" fill="#26a69a"/><line x1="944" y1="439.27358240000103" x2="944" y2="496.7328511999949" stroke="#26a69a" stroke-width="2"/><rect x="940" y="460.0227631999951" width="8" height="15.96090720000575" fill="#26a69a"/><line x1="956" y1="408.9478575999965" x2="956" y2="461.61885440000333" stroke="#26a69a" stroke-width="2"/><rect x="952" y="432.88921920000575" width="8" height="27.133543999989342" fill="#26a69a"/><line x1="968" y1="431.2931279999975" x2="968" y2="477.5797616000091" stroke="#ef5350" stroke-width="2"/><rect x="964" y="434.48531039999574" width="8" height="39.902270399998145" fill="#ef5350"/><line x1="980" y1="458.42667200000506" x2="980" y2="491.94457920000787" stroke="#26a69a" stroke-width="2"/><rect x="976" y="472.79148960000384" width="8" height="2" fill="#26a69a"/><line x1="992" y1="447.2540368000045" x2="992" y2="503.1172144000084" stroke="#ef5350" stroke-width="2"/><rect x="988" y="475.98367040000085" width="8" height="21.54722720000791" fill="#ef5350"/><line x1="1004" y1="439.27358240000103" x2="1004" y2="555.788211199997" stroke="#ef5350" stroke-width="2"/><rect x="1000" y="498.32894240000314" width="8" height="43.09445119999509" fill="#ef5350"/><line x1="1016" y1="369.0455871999984" x2="1016" y2="677.0911119999982" stroke="#ef5350" stroke-width="2"/><rect x="1012" y="378.622132799992" width="8" height="154.8208064000027" fill="#ef5350"/><line x1="1028" y1="474.3875807999939" x2="1028" y2="557.3843024000053" stroke="#26a69a" stroke-width="2"/><rect x="1024" y="511.0976687999937" width="8" height="27.133544000007532" fill="#26a69a"/><line x1="1040" y1="487.15630720000263" x2="1040" y2="624.4201151999914" stroke="#ef5350" stroke-width="2"/><rect x="1036" y="514.2898496000089" width="8" height="108.53417439999248" fill="#ef5350"/><line x1="1052" y1="574.941300800001" x2="1052" y2="756.8956511999932" stroke="#ef5350" stroke-width="2"/><rect x="1048" y="626.0162063999996" width="8" height="2.394136000002618" fill="#ef5350"/><line x1="1064" y1="581.3256639999963" x2="1064" y2="697.8402927999923" stroke="#26a69a" stroke-width="2"/><rect x="1060" y="624.5797248000054" width="8" height="12.609116799994808" fill="#26a69a"/><line x1="1076" y1="610.0552975999926" x2="1076" y2="758.4917424000014" stroke="#ef5350" stroke-width="2"/><rect x="1072" y="621.2279343999944" width="8" height="119.70680960001118" fill="#ef5350"/><line x1="1088" y1="686.6676560000087" x2="1088" y2="787.221377599999" stroke="#ef5350" stroke-width="2"/><rect x="1084" y="742.5308351999956" width="8" height="22.345270400001027" fill="#ef5350"/><line x1="1100" y1="670.706748800003" x2="1100" y2="793.6057407999942" stroke="#26a69a" stroke-width="2"/><rect x="1096" y="729.7621088000051" width="8" height="38.306179199989856" fill="#26a69a"/><line x1="1112" y1="723.3777455999916" x2="1112" y2="814.3549200000052" stroke="#ef5350" stroke-width="2"/><rect x="1108" y="736.1464720000004" width="8" height="67.03581280000435" fill="#ef5350"/><line x1="1124" y1="661.1302031999912" x2="1124" y2="806.374467200003" stroke="#26a69a" stroke-width="2"/><rect x="1120" y="737.7425616000073" width="8" height="63.84363199998916" fill="#26a69a"/><line x1="1136" y1="670.706748800003" x2="1136" y2="750.5112879999979" stroke="#26a69a" stroke-width="2"/><rect x="1132" y="680.2832927999953" width="8" height="59.05536000000211" fill="#26a69a"/><line x1="1148" y1="638.7849328000084" x2="1148" y2="707.4168368000028" stroke="#26a69a" stroke-width="2"/><rect x="1144" y="638.7849328000084" width="8" height="40.700315199992474" fill="#26a69a"/><line x1="1160" y1="633.9966608000032" x2="1160" y2="799.9901040000077" stroke="#ef5350" stroke-width="2"/><rect x="1156" y="643.5732047999954" width="8" height="153.2247167999958" fill="#ef5350"/><line x1="1172" y1="723.3777455999916" x2="1172" y2="801.5861935999965" stroke="#26a69a" stroke-width="2"/><rect x="1168" y="748.9151983999909" width="8" height="49.47881440000856" fill="#26a69a"/><line x1="1184" y1="683.4754751999935" x2="1184" y2="771.2604687999919" stroke="#26a69a" stroke-width="2"/><rect x="1180" y="712.205108800008" width="8" height="39.90227039999809" fill="#26a69a"/><line x1="1196" y1="669.1106575999947" x2="1196" y2="734.5503807999921" stroke="#26a69a" stroke-width="2"/><rect x="1192" y="678.6872032000065" width="8" height="35.11399679999158" fill="#26a69a"/><line x1="1208" y1="635.5927503999919" x2="1208" y2="697.8402927999923" stroke="#26a69a" stroke-width="2"/><rect x="1204" y="638.7849328000084" width="8" height="31.92181599999458" fill="#26a69a"/><line x1="1220" y1="600.4787536000003" x2="1220" y2="651.553659199999" stroke="#26a69a" stroke-width="2"/><rect x="1216" y="615.6416159999935" width="8" height="19.153089600004023" fill="#26a69a"/><line x1="1232" y1="547.8077567999935" x2="1232" y2="678.6872032000065" stroke="#ef5350" stroke-width="2"/><rect x="1228" y="613.2474800000091" width="8" height="27.133543999989342" fill="#ef5350"/><line x1="1244" y1="605.2670256000056" x2="1244" y2="693.052019200004" stroke="#26a69a" stroke-width="2"/><rect x="1240" y="624.4201151999914" width="8" height="20.749180800012255" fill="#26a69a"/><line x1="1256" y1="600.4787536000003" x2="1256" y2="656.3419312000042" stroke="#ef5350" stroke-width="2"/><rect x="1252" y="632.4005695999949" width="8" height="20.749180800012255" fill="#ef5350"/><line x1="1268" y1="622.8240240000014" x2="1268" y2="662.7262943999995" stroke="#26a69a" stroke-width="2"/><rect x="1264" y="624.4201151999914" width="8" height="27.133544000007532" fill="#26a69a"/><line x1="1280" y1="568.5569376000058" x2="1280" y2="633.9966608000032" stroke="#26a69a" stroke-width="2"/><rect x="1276" y="602.0748448000086" width="8" height="20.749179199992795" fill="#26a69a"/><line x1="1292" y1="574.941300800001" x2="1292" y2="630.0064335999923" stroke="#26a69a" stroke-width="2"/><rect x="1288" y="581.3256639999963" width="8" height="23.143316799996683" fill="#26a69a"/><line x1="1304" y1="562.1725743999923" x2="1304" y2="606.8631167999956" stroke="#ef5350" stroke-width="2"/><rect x="1300" y="582.9217552000046" width="8" height="6.384363199995278" fill="#ef5350"/><line x1="1316" y1="565.3647552000075" x2="1316" y2="621.2279343999944" stroke="#26a69a" stroke-width="2"/><rect x="1312" y="584.5178447999933" width="8" height="2" fill="#26a69a"/><line x1="1328" y1="563.7686656000005" x2="1328" y2="602.0748448000086" stroke="#26a69a" stroke-width="2"/><rect x="1324" y="565.3647552000075" width="8" height="22.345271999984107" fill="#26a69a"/><line x1="1340" y1="547.8077567999935" x2="1340" y2="602.0748448000086" stroke="#26a69a" stroke-width="2"/><rect x="1336" y="557.3843024000053" width="8" height="6.384363199995278" fill="#26a69a"/><line x1="1352" y1="270.0879583999995" x2="1352" y2="562.1725743999923" stroke="#26a69a" stroke-width="2"/><rect x="1348" y="377.02604160000186" width="8" height="178.76216959999516" fill="#26a69a"/><line x1="1364" y1="258.9153215999977" x2="1364" y2="442.4657647999993" stroke="#ef5350" stroke-width="2"/><rect x="1360" y="370.64167840000664" width="8" height="31.921815999994635" fill="#ef5350"/><line x1="1376" y1="377.02604160000186" x2="1376" y2="464.81103520000033" stroke="#26a69a" stroke-width="2"/><rect x="1372" y="388.1986768000024" width="8" height="14.3648175999989" fill="#26a69a"/><line x1="1388" y1="370.64167840000664" x2="1388" y2="439.27358240000103" stroke="#ef5350" stroke-width="2"/><rect x="1384" y="386.60258559999414" width="8" height="19.15308960000408" fill="#ef5350"/><line x1="1400" y1="396.17913120000594" x2="1400" y2="519.8761679999916" stroke="#ef5350" stroke-width="2"/><rect x="1396" y="399.3713120000029" width="8" height="97.36153919999202" fill="#ef5350"/><line x1="1412" y1="461.61885440000333" x2="1412" y2="573.3452095999928" stroke="#ef5350" stroke-width="2"/><rect x="1408" y="495.13676000000487" width="8" height="12.768726399990555" fill="#ef5350"/><line x1="1424" y1="496.7328511999949" x2="1424" y2="635.5927503999919" stroke="#ef5350" stroke-width="2"/><rect x="1420" y="512.6937600000019" width="8" height="51.0749055999986" fill="#ef5350"/><line x1="1436" y1="530.2507583999977" x2="1436" y2="603.6709343999973" stroke="#ef5350" stroke-width="2"/><rect x="1432" y="560.5764832000023" width="8" height="12.768726399990555" fill="#ef5350"/><line x1="1448" y1="533.4429391999947" x2="1448" y2="597.2865712000021" stroke="#26a69a" stroke-width="2"/><rect x="1444" y="574.941300800001" width="8" height="2" fill="#26a69a"/><line x1="1460" y1="535.039030400003" x2="1460" y2="581.3256639999963" stroke="#26a69a" stroke-width="2"/><rect x="1456" y="546.2116656000035" width="8" height="27.133543999989342" fill="#26a69a"/><line x1="1472" y1="504.7133055999984" x2="1472" y2="564.5667103999949" stroke="#26a69a" stroke-width="2"/><rect x="1468" y="511.0976687999937" width="8" height="36.710087999999814" fill="#26a69a"/><line x1="1484" y1="493.5406703999979" x2="1484" y2="538.2312128000012" stroke="#26a69a" stroke-width="2"/><rect x="1480" y="500.08464160000585" width="8" height="9.416935999997804" fill="#26a69a"/><line x1="1496" y1="491.94457920000787" x2="1496" y2="525.4624863999925" stroke="#ef5350" stroke-width="2"/><rect x="1492" y="499.9250335999932" width="8" height="11.33224480001445" fill="#ef5350"/><line x1="1508" y1="479.1758527999991" x2="1508" y2="512.6937600000019" stroke="#26a69a" stroke-width="2"/><rect x="1504" y="501.52112320000015" width="8" height="9.576545599993551" fill="#26a69a"/><line x1="1520" y1="464.81103520000033" x2="1520" y2="520.6742128000042" stroke="#26a69a" stroke-width="2"/><rect x="1516" y="471.1953983999956" width="8" height="31.921816000012768" fill="#26a69a"/><line x1="1532" y1="464.81103520000033" x2="1532" y2="499.9250335999932" stroke="#ef5350" stroke-width="2"/><rect x="1528" y="474.3875807999939" width="8" height="25.5374527999993" fill="#ef5350"/><line x1="1544" y1="490.34848799999963" x2="1544" y2="541.4233935999982" stroke="#ef5350" stroke-width="2"/><rect x="1540" y="501.52112320000015" width="8" height="27.133544000007532" fill="#ef5350"/><line x1="1556" y1="506.30939680000665" x2="1556" y2="557.3843024000053" stroke="#26a69a" stroke-width="2"/><rect x="1552" y="527.0585759999994" width="8" height="4.788273600006505" fill="#26a69a"/><line x1="1568" y1="479.1758527999991" x2="1568" y2="535.039030400003" stroke="#26a69a" stroke-width="2"/><rect x="1564" y="487.15630720000263" width="8" height="43.09445119999509" fill="#26a69a"/><line x1="1580" y1="461.61885440000333" x2="1580" y2="491.94457920000787" stroke="#26a69a" stroke-width="2"/><rect x="1576" y="483.96412480000436" width="8" height="4.788271999987046" fill="#26a69a"/><line x1="1592" y1="438.4755376000067" x2="1592" y2="488.7523967999914" stroke="#26a69a" stroke-width="2"/><rect x="1588" y="438.4755376000067" width="8" height="45.48858719999765" fill="#26a69a"/><line x1="1604" y1="432.88921920000575" x2="1604" y2="459.2247184000007" stroke="#ef5350" stroke-width="2"/><rect x="1600" y="439.27358240000103" width="8" height="2" fill="#ef5350"/><line x1="1616" y1="375.42995039999363" x2="1616" y2="448.85012799999464" stroke="#26a69a" stroke-width="2"/><rect x="1612" y="378.622132799992" width="8" height="63.84363200000729" fill="#26a69a"/><line x1="1628" y1="354.6807695999997" x2="1628" y2="397.775222399996" stroke="#26a69a" stroke-width="2"/><rect x="1624" y="372.2377695999967" width="8" height="4.788272000005179" fill="#26a69a"/><line x1="1640" y1="349.8924975999944" x2="1640" y2="514.2898496000089" stroke="#ef5350" stroke-width="2"/><rect x="1636" y="370.64167840000664" width="8" height="30.166115199990656" fill="#ef5350"/><line x1="1652" y1="353.0846799999926" x2="1652" y2="402.5634944000013" stroke="#26a69a" stroke-width="2"/><rect x="1648" y="373.83385920000364" width="8" height="28.72963519999763" fill="#26a69a"/><line x1="1664" y1="330.73940800000855" x2="1664" y2="372.2377695999967" stroke="#26a69a" stroke-width="2"/><rect x="1660" y="344.3061807999948" width="8" height="27.93158880000186" fill="#26a69a"/><line x1="1676" y1="314.7785008000028" x2="1676" y2="362.66122400000313" stroke="#26a69a" stroke-width="2"/><rect x="1672" y="325.9511360000033" width="8" height="17.556998399995848" fill="#26a69a"/><line x1="1688" y1="238.1661424000049" x2="1688" y2="330.73940800000855" stroke="#26a69a" stroke-width="2"/><rect x="1684" y="262.10750399999597" width="8" height="63.84363200000735" fill="#26a69a"/><line x1="1700" y1="243.11402400000588" x2="1700" y2="284.452774399997" stroke="#ef5350" stroke-width="2"/><rect x="1696" y="258.9153215999977" width="8" height="14.364817599998787" fill="#ef5350"/><line x1="1712" y1="190.2834176000033" x2="1712" y2="273.2801391999965" stroke="#26a69a" stroke-width="2"/><rect x="1708" y="193.47560000000158" width="8" height="79.8045391999949" fill="#26a69a"/><line x1="1724" y1="142.40069440000298" x2="1724" y2="255.7231408000007" stroke="#ef5350" stroke-width="2"/><rect x="1720" y="193.47560000000158" width="8" height="55.86317760000384" fill="#ef5350"/><line x1="1736" y1="246.14659520000714" x2="1736" y2="289.2410480000035" stroke="#ef5350" stroke-width="2"/><rect x="1732" y="247.74268639999718" width="8" height="11.172635200000514" fill="#ef5350"/><line x1="1748" y1="225.39741599999616" x2="1748" y2="265.299684799993" stroke="#26a69a" stroke-width="2"/><rect x="1744" y="252.53095840000242" width="8" height="7.980454400003509" fill="#26a69a"/><line x1="1760" y1="225.39741599999616" x2="1760" y2="265.299684799993" stroke="#26a69a" stroke-width="2"/><rect x="1756" y="239.76223199999367" width="8" height="6.384363200013468" fill="#26a69a"/><line x1="1772" y1="214.22477919999437" x2="1772" y2="258.9153215999977" stroke="#26a69a" stroke-width="2"/><rect x="1768" y="214.22477919999437" width="8" height="23.941363200010528" fill="#26a69a"/><line x1="1784" y1="211.03259839999737" x2="1784" y2="262.10750399999597" stroke="#ef5350" stroke-width="2"/><rect x="1780" y="215.8208704000026" width="8" height="28.729635199997574" fill="#ef5350"/><line x1="1796" y1="223.8013248000061" x2="1796" y2="262.10750399999597" stroke="#26a69a" stroke-width="2"/><rect x="1792" y="226.99350560000312" width="8" height="17.55699999999706" fill="#26a69a"/><line x1="1808" y1="222.20523359999788" x2="1808" y2="255.7231408000007" stroke="#ef5350" stroke-width="2"/><rect x="1804" y="224.5993696000005" width="8" height="31.123771200000192" fill="#ef5350"/><line x1="1820" y1="237.36809599999106" x2="1820" y2="282.8566848000082" stroke="#26a69a" stroke-width="2"/><rect x="1816" y="239.76223199999367" width="8" height="15.960908800007019" fill="#26a69a"/><line x1="1832" y1="222.20523359999788" x2="1832" y2="271.68404800000644" stroke="#ef5350" stroke-width="2"/><rect x="1828" y="243.75245920000452" width="8" height="23.143316799996683" fill="#ef5350"/><line x1="1844" y1="260.5114128000059" x2="1844" y2="286.8469120000009" stroke="#26a69a" stroke-width="2"/><rect x="1840" y="268.49186719999125" width="8" height="3.192180800015194" fill="#26a69a"/><line x1="1856" y1="244.55050560000018" x2="1856" y2="273.2801391999965" stroke="#26a69a" stroke-width="2"/><rect x="1852" y="258.9153215999977" width="8" height="9.576545599993551" fill="#26a69a"/><line x1="1868" y1="250.93486879999546" x2="1868" y2="289.2410480000035" stroke="#26a69a" stroke-width="2"/><rect x="1864" y="255.7231408000007" width="8" height="4.788272000005236" fill="#26a69a"/><line x1="1880" y1="257.3192320000089" x2="1880" y2="314.7785008000028" stroke="#ef5350" stroke-width="2"/><rect x="1876" y="257.3192320000089" width="8" height="39.74266079998415" fill="#ef5350"/><line x1="1892" y1="297.22150080000574" x2="1892" y2="332.3354991999986" stroke="#ef5350" stroke-width="2"/><rect x="1888" y="297.22150080000574" width="8" height="27.133543999989342" fill="#ef5350"/><line x1="1904" y1="314.7785008000028" x2="1904" y2="349.8924975999944" stroke="#ef5350" stroke-width="2"/><rect x="1900" y="325.9511360000033" width="8" height="12.768726399990555" fill="#ef5350"/><line x1="1916" y1="286.04886560000523" x2="1916" y2="345.1042256000074" stroke="#26a69a" stroke-width="2"/><rect x="1912" y="303.605864000001" width="8" height="36.71008960000108" fill="#26a69a"/><line x1="1928" y1="223.8013248000061" x2="1928" y2="321.1628639999981" stroke="#26a69a" stroke-width="2"/><rect x="1924" y="263.7035952000042" width="8" height="40.700315199992474" fill="#26a69a"/><line x1="1940" y1="137.61242079999647" x2="1940" y2="276.47232159999476" stroke="#26a69a" stroke-width="2"/><rect x="1936" y="137.61242079999647" width="8" height="127.6872639999965" fill="#26a69a"/><rect x="75" y="960.4982243640638" width="10" height="59.501775635936156" fill="#ef5350" opacity="0.9"/><rect x="87" y="989.3650793650794" width="10" height="30.634920634920604" fill="#26a69a" opacity="0.9"/><rect x="99" y="990.2421265779157" width="10" height="29.757873422084344" fill="#ef5350" opacity="0.9"/><rect x="111" y="959.6048671504275" width="10" height="60.39513284957252" fill="#ef5350" opacity="0.9"/><rect x="123" y="899.5819100549617" width="10" height="120.41808994503833" fill="#ef5350" opacity="0.9"/><rect x="135" y="956.047748296682" width="10" height="63.952251703317984" fill="#26a69a" opacity="0.9"/><rect x="147" y="972.9212134640595" width="10" height="47.07878653594048" fill="#ef5350" opacity="0.9"/><rect x="159" y="981.2146950029851" width="10" height="38.78530499701492" fill="#26a69a" opacity="0.9"/><rect x="171" y="985.5799282359965" width="10" height="34.420071764003524" fill="#26a69a" opacity="0.9"/><rect x="183" y="995.6632015608363" width="10" height="24.33679843916366" fill="#ef5350" opacity="0.9"/><rect x="195" y="996.432541221219" width="10" height="23.567458778780974" fill="#ef5350" opacity="0.9"/><rect x="207" y="997.8425869507685" width="10" height="22.157413049231536" fill="#26a69a" opacity="0.9"/><rect x="219" y="994.1786837521619" width="10" height="25.821316247838126" fill="#26a69a" opacity="0.9"/><rect x="231" y="977.0931885743828" width="10" height="42.90681142561721" fill="#26a69a" opacity="0.9"/><rect x="243" y="995.2089834253463" width="10" height="24.791016574653668" fill="#26a69a" opacity="0.9"/><rect x="255" y="995.7570609994029" width="10" height="24.24293900059706" fill="#ef5350" opacity="0.9"/><rect x="267" y="996.3799183884488" width="10" height="23.6200816115512" fill="#ef5350" opacity="0.9"/><rect x="279" y="990.8717541559729" width="10" height="29.128245844027106" fill="#26a69a" opacity="0.9"/><rect x="291" y="998.2444899893524" width="10" height="21.75551001064764" fill="#ef5350" opacity="0.9"/><rect x="303" y="1000.1786098955545" width="10" height="19.821390104445527" fill="#26a69a" opacity="0.9"/><rect x="315" y="1002.2536728275387" width="10" height="17.746327172461292" fill="#ef5350" opacity="0.9"/><rect x="327" y="995.6256577854097" width="10" height="24.374342214590342" fill="#26a69a" opacity="0.9"/><rect x="339" y="1002.2567501861802" width="10" height="17.74324981381983" fill="#ef5350" opacity="0.9"/><rect x="351" y="1005.8532592305372" width="10" height="14.146740769462781" fill="#26a69a" opacity="0.9"/><rect x="363" y="998.9842870067763" width="10" height="21.0157129932237" fill="#26a69a" opacity="0.9"/><rect x="375" y="993.809092979314" width="10" height="26.19090702068604" fill="#ef5350" opacity="0.9"/><rect x="387" y="999.8557949740579" width="10" height="20.144205025942142" fill="#ef5350" opacity="0.9"/><rect x="399" y="999.9899678108286" width="10" height="20.010032189171397" fill="#26a69a" opacity="0.9"/><rect x="411" y="994.7042966081353" width="10" height="25.295703391864663" fill="#ef5350" opacity="0.9"/><rect x="423" y="1000.5411227435268" width="10" height="19.458877256473215" fill="#ef5350" opacity="0.9"/><rect x="435" y="989.0025665171071" width="10" height="30.997433482892916" fill="#26a69a" opacity="0.9"/><rect x="447" y="1000.0047391323079" width="10" height="19.99526086769208" fill="#26a69a" opacity="0.9"/><rect x="459" y="1002.819291345852" width="10" height="17.18070865414802" fill="#ef5350" opacity="0.9"/><rect x="471" y="1003.689568369677" width="10" height="16.310431630323023" fill="#26a69a" opacity="0.9"/><rect x="483" y="1000.6629861457315" width="10" height="19.337013854268548" fill="#ef5350" opacity="0.9"/><rect x="495" y="976.4931036392843" width="10" height="43.5068963607157" fill="#ef5350" opacity="0.9"/><rect x="507" y="998.7420988816879" width="10" height="21.257901118312134" fill="#26a69a" opacity="0.9"/><rect x="519" y="1006.1169888661165" width="10" height="13.883011133883542" fill="#ef5350" opacity="0.9"/><rect x="531" y="998.3546594287192" width="10" height="21.645340571280826" fill="#ef5350" opacity="0.9"/><rect x="543" y="999.0676834259618" width="10" height="20.93231657403817" fill="#26a69a" opacity="0.9"/><rect x="555" y="992.4485927238932" width="10" height="27.55140727610683" fill="#26a69a" opacity="0.9"/><rect x="567" y="1001.6095816638663" width="10" height="18.390418336133735" fill="#26a69a" opacity="0.9"/><rect x="579" y="997.3517482474442" width="10" height="22.64825175255578" fill="#26a69a" opacity="0.9"/><rect x="591" y="1006.7026102155997" width="10" height="13.297389784400252" fill="#ef5350" opacity="0.9"/><rect x="603" y="1003.231349667953" width="10" height="16.768650332046946" fill="#26a69a" opacity="0.9"/><rect x="615" y="1001.5055669417825" width="10" height="18.49443305821751" fill="#26a69a" opacity="0.9"/><rect x="627" y="988.8006917902226" width="10" height="31.199308209777428" fill="#26a69a" opacity="0.9"/><rect x="639" y="978.5644737408987" width="10" height="41.435526259101266" fill="#26a69a" opacity="0.9"/><rect x="651" y="1000.5383531207494" width="10" height="19.461646879250566" fill="#ef5350" opacity="0.9"/><rect x="663" y="1007.0017294755565" width="10" height="12.998270524443456" fill="#ef5350" opacity="0.9"/><rect x="675" y="999.510207598614" width="10" height="20.489792401386012" fill="#ef5350" opacity="0.9"/><rect x="687" y="1001.4095533521668" width="10" height="18.590446647833232" fill="#ef5350" opacity="0.9"/><rect x="699" y="990.6708026366808" width="10" height="29.329197363319167" fill="#ef5350" opacity="0.9"/><rect x="711" y="1003.8298959237308" width="10" height="16.17010407626924" fill="#26a69a" opacity="0.9"/><rect x="723" y="1000.5340448186513" width="10" height="19.465955181348704" fill="#26a69a" opacity="0.9"/><rect x="735" y="1005.2654837300049" width="10" height="14.734516269995083" fill="#26a69a" opacity="0.9"/><rect x="747" y="999.9591942244133" width="10" height="20.040805775586705" fill="#ef5350" opacity="0.9"/><rect x="759" y="986.7397847079894" width="10" height="33.26021529201057" fill="#ef5350" opacity="0.9"/><rect x="771" y="995.0871200231418" width="10" height="24.91287997685822" fill="#26a69a" opacity="0.9"/><rect x="783" y="1001.7985314844562" width="10" height="18.201468515543752" fill="#26a69a" opacity="0.9"/><rect x="795" y="994.976950583775" width="10" height="25.023049416225035" fill="#26a69a" opacity="0.9"/><rect x="807" y="981.2470072687211" width="10" height="38.75299273127894" fill="#26a69a" opacity="0.9"/><rect x="819" y="996.9033770933733" width="10" height="23.09662290662675" fill="#ef5350" opacity="0.9"/><rect x="831" y="1003.7969681862663" width="10" height="16.203031813733674" fill="#ef5350" opacity="0.9"/><rect x="843" y="995.6287351440511" width="10" height="24.37126485594888" fill="#26a69a" opacity="0.9"/><rect x="855" y="995.3837773961853" width="10" height="24.616222603814663" fill="#26a69a" opacity="0.9"/><rect x="867" y="989.9488542993778" width="10" height="30.051145700622214" fill="#ef5350" opacity="0.9"/><rect x="879" y="999.1993943758193" width="10" height="20.800605624180662" fill="#26a69a" opacity="0.9"/><rect x="891" y="988.3837096942952" width="10" height="31.61629030570475" fill="#ef5350" opacity="0.9"/><rect x="903" y="995.6693562781194" width="10" height="24.33064372188062" fill="#26a69a" opacity="0.9"/><rect x="915" y="990.38768564166" width="10" height="29.612314358339972" fill="#ef5350" opacity="0.9"/><rect x="927" y="997.0581682330422" width="10" height="22.941831766957762" fill="#26a69a" opacity="0.9"/><rect x="939" y="986.5283701693163" width="10" height="33.471629830683696" fill="#26a69a" opacity="0.9"/><rect x="951" y="989.6882020224401" width="10" height="30.311797977559877" fill="#26a69a" opacity="0.9"/><rect x="963" y="993.083451811641" width="10" height="26.916548188359002" fill="#ef5350" opacity="0.9"/><rect x="975" y="986.9785877385722" width="10" height="33.02141226142783" fill="#26a69a" opacity="0.9"/><rect x="987" y="973.5437631172413" width="10" height="46.45623688275873" fill="#ef5350" opacity="0.9"/><rect x="999" y="860.0" width="10" height="160.0" fill="#ef5350" opacity="0.9"/><rect x="1011" y="962.2572425635628" width="10" height="57.74275743643716" fill="#ef5350" opacity="0.9"/><rect x="1023" y="994.5716624506854" width="10" height="25.42833754931462" fill="#26a69a" opacity="0.9"/><rect x="1035" y="995.4305532475365" width="10" height="24.569446752463477" fill="#ef5350" opacity="0.9"/><rect x="1047" y="994.645211322218" width="10" height="25.35478867778204" fill="#ef5350" opacity="0.9"/><rect x="1059" y="1001.8096099755658" width="10" height="18.190390024434237" fill="#26a69a" opacity="0.9"/><rect x="1071" y="986.6077660222678" width="10" height="33.39223397773219" fill="#ef5350" opacity="0.9"/><rect x="1083" y="994.3747114976273" width="10" height="25.625288502372655" fill="#ef5350" opacity="0.9"/><rect x="1095" y="997.8672058199006" width="10" height="22.13279418009938" fill="#26a69a" opacity="0.9"/><rect x="1107" y="996.6762680256282" width="10" height="23.323731974371753" fill="#ef5350" opacity="0.9"/><rect x="1119" y="997.6330188272801" width="10" height="22.366981172719875" fill="#26a69a" opacity="0.9"/><rect x="1131" y="1001.3489293869286" width="10" height="18.651070613071397" fill="#26a69a" opacity="0.9"/><rect x="1143" y="996.5722533035445" width="10" height="23.42774669645553" fill="#26a69a" opacity="0.9"/><rect x="1155" y="999.9788893197191" width="10" height="20.021110680280913" fill="#ef5350" opacity="0.9"/><rect x="1167" y="1001.6058888334965" width="10" height="18.394111166503535" fill="#26a69a" opacity="0.9"/><rect x="1179" y="1002.4269281190568" width="10" height="17.57307188094319" fill="#26a69a" opacity="0.9"/><rect x="1191" y="1000.59990029358" width="10" height="19.40009970641995" fill="#26a69a" opacity="0.9"/><rect x="1203" y="999.7930168577707" width="10" height="20.20698314222932" fill="#26a69a" opacity="0.9"/><rect x="1215" y="999.0030588944896" width="10" height="20.99694110551036" fill="#26a69a" opacity="0.9"/><rect x="1227" y="992.3775057392738" width="10" height="27.62249426072617" fill="#ef5350" opacity="0.9"/><rect x="1239" y="1003.2153474030171" width="10" height="16.784652596982937" fill="#26a69a" opacity="0.9"/><rect x="1251" y="1003.7692719584926" width="10" height="16.230728041507405" fill="#ef5350" opacity="0.9"/><rect x="1263" y="1005.3282618462921" width="10" height="14.671738153707906" fill="#26a69a" opacity="0.9"/><rect x="1275" y="1002.2592120730934" width="10" height="17.74078792690659" fill="#26a69a" opacity="0.9"/><rect x="1287" y="1002.8682213482524" width="10" height="17.131778651747595" fill="#26a69a" opacity="0.9"/><rect x="1299" y="1000.4238753792845" width="10" height="19.576124620715518" fill="#ef5350" opacity="0.9"/><rect x="1311" y="1006.9103319239031" width="10" height="13.089668076096928" fill="#26a69a" opacity="0.9"/><rect x="1323" y="1005.024526548373" width="10" height="14.975473451626954" fill="#26a69a" opacity="0.9"/><rect x="1335" y="1000.6414446352406" width="10" height="19.358555364759354" fill="#26a69a" opacity="0.9"/><rect x="1347" y="962.6585301304185" width="10" height="57.34146986958149" fill="#26a69a" opacity="0.9"/><rect x="1359" y="941.2825815346172" width="10" height="78.71741846538282" fill="#ef5350" opacity="0.9"/><rect x="1371" y="973.3942034872628" width="10" height="46.60579651273724" fill="#26a69a" opacity="0.9"/><rect x="1383" y="996.6599580248281" width="10" height="23.340041975171857" fill="#ef5350" opacity="0.9"/><rect x="1395" y="997.9404469555691" width="10" height="22.059553044430913" fill="#ef5350" opacity="0.9"/><rect x="1407" y="1000.5001938735944" width="10" height="19.499806126405588" fill="#ef5350" opacity="0.9"/><rect x="1419" y="996.7784363325271" width="10" height="23.22156366747288" fill="#ef5350" opacity="0.9"/><rect x="1431" y="1005.2264012752574" width="10" height="14.773598724742556" fill="#ef5350" opacity="0.9"/><rect x="1443" y="1001.2603014580525" width="10" height="18.73969854194752" fill="#26a69a" opacity="0.9"/><rect x="1455" y="1000.143528007041" width="10" height="19.856471992958973" fill="#26a69a" opacity="0.9"/><rect x="1467" y="999.094148710279" width="10" height="20.905851289721" fill="#26a69a" opacity="0.9"/><rect x="1479" y="1001.8031475224186" width="10" height="18.196852477581388" fill="#26a69a" opacity="0.9"/><rect x="1491" y="1000.2718538623928" width="10" height="19.728146137607155" fill="#ef5350" opacity="0.9"/><rect x="1503" y="1003.2362734417794" width="10" height="16.763726558220583" fill="#26a69a" opacity="0.9"/><rect x="1515" y="1001.3098469321811" width="10" height="18.69015306781887" fill="#26a69a" opacity="0.9"/><rect x="1527" y="1001.69359355478" width="10" height="18.306406445219977" fill="#ef5350" opacity="0.9"/><rect x="1539" y="1002.6417277522357" width="10" height="17.358272247764262" fill="#ef5350" opacity="0.9"/><rect x="1551" y="1002.3659964179545" width="10" height="17.634003582045466" fill="#26a69a" opacity="0.9"/><rect x="1563" y="1006.0508256553235" width="10" height="13.949174344676521" fill="#26a69a" opacity="0.9"/><rect x="1575" y="1002.3158354720975" width="10" height="17.684164527902453" fill="#26a69a" opacity="0.9"/><rect x="1587" y="995.2859173913846" width="10" height="24.7140826086154" fill="#26a69a" opacity="0.9"/><rect x="1599" y="1006.1640724533319" width="10" height="13.835927546668131" fill="#ef5350" opacity="0.9"/><rect x="1611" y="996.2592859297008" width="10" height="23.74071407029919" fill="#26a69a" opacity="0.9"/><rect x="1623" y="999.2437083402574" width="10" height="20.7562916597426" fill="#26a69a" opacity="0.9"/><rect x="1635" y="969.9454076576992" width="10" height="50.05459234230079" fill="#ef5350" opacity="0.9"/><rect x="1647" y="997.2695827717154" width="10" height="22.730417228284637" fill="#26a69a" opacity="0.9"/><rect x="1659" y="993.6453774995846" width="10" height="26.354622500415417" fill="#26a69a" opacity="0.9"/><rect x="1671" y="988.5412704567416" width="10" height="31.458729543258414" fill="#26a69a" opacity="0.9"/><rect x="1683" y="991.0034651058304" width="10" height="28.9965348941696" fill="#26a69a" opacity="0.9"/><rect x="1695" y="989.6611212663946" width="10" height="30.338878733605384" fill="#ef5350" opacity="0.9"/><rect x="1707" y="994.699680570173" width="10" height="25.300319429827027" fill="#26a69a" opacity="0.9"/><rect x="1719" y="990.2812090326631" width="10" height="29.718790967336872" fill="#ef5350" opacity="0.9"/><rect x="1731" y="992.5704561260978" width="10" height="27.429543873902162" fill="#ef5350" opacity="0.9"/><rect x="1743" y="1002.0447201757787" width="10" height="17.955279824221293" fill="#26a69a" opacity="0.9"/><rect x="1755" y="998.9593604017799" width="10" height="21.040639598220082" fill="#26a69a" opacity="0.9"/><rect x="1767" y="1005.0002154151049" width="10" height="14.99978458489511" fill="#26a69a" opacity="0.9"/><rect x="1779" y="1003.3205930685574" width="10" height="16.6794069314426" fill="#ef5350" opacity="0.9"/><rect x="1791" y="1006.1142192433391" width="10" height="13.885780756660893" fill="#26a69a" opacity="0.9"/><rect x="1803" y="996.7264289714852" width="10" height="23.273571028514766" fill="#ef5350" opacity="0.9"/><rect x="1815" y="998.1423216824535" width="10" height="21.857678317546515" fill="#26a69a" opacity="0.9"/><rect x="1827" y="1004.7429482326729" width="10" height="15.257051767327084" fill="#ef5350" opacity="0.9"/><rect x="1839" y="1004.1754832991746" width="10" height="15.82451670082537" fill="#26a69a" opacity="0.9"/><rect x="1851" y="1002.6004911464391" width="10" height="17.39950885356086" fill="#26a69a" opacity="0.9"/><rect x="1863" y="1001.8271509198225" width="10" height="18.172849080177457" fill="#26a69a" opacity="0.9"/><rect x="1875" y="998.7470226555143" width="10" height="21.252977344485657" fill="#ef5350" opacity="0.9"/><rect x="1887" y="1003.5775525151253" width="10" height="16.422447484874738" fill="#ef5350" opacity="0.9"/><rect x="1899" y="1000.6048240674064" width="10" height="19.395175932593588" fill="#ef5350" opacity="0.9"/><rect x="1911" y="981.8335518257969" width="10" height="38.16644817420308" fill="#26a69a" opacity="0.9"/><rect x="1923" y="978.0293210731365" width="10" height="41.97067892686346" fill="#26a69a" opacity="0.9"/><rect x="1935" y="922.5445447663361" width="10" height="97.45545523366388" fill="#26a69a" opacity="0.9"/><rect x="1004" y="378.622132799992" width="12" height="162.80126080000622" fill="#00ff00" opacity="0.60"/><polyline points="320,615.6188147961984,332,610.3766879775139,344,609.434027560601,356,608.1251184215034,368,598.2003700765927,380,593.2490648883504,392,591.0494424037461,404,585.8671261367272,416,583.9145193808508,428,585.4920654969646,440,585.0952653543936,452,584.5842470158823,464,587.3140787286502,476,584.1596064687837,488,586.6258627669959,500,600.5619034177653,512,608.914459968455,524,618.2956387143167,536,627.9994410462859,548,635.4109938609326,560,635.8843300646549,572,636.0085692585017,584,633.536829100558,596,634.0366485004961,608,632.9687795004429,620,627.4423529575506,632,620.4661402949387,644,605.0338099811415,656,593.0473378686474,668,582.6584604335403,680,579.3393458017817,692,577.7044151920927,704,577.517265707138,716,575.5998406302751,728,573.7130187797629,740,568.9657212959719,752,567.8627290201621,764,572.1850862563406,776,573.6636520604952,788,572.8732809309258,800,566.2298460232159,812,555.2028337924276,824,546.7460997550552,836,540.0068207688673,848,530.4131790194515,860,520.4411439890282,872,515.1430383900697,884,510.1975055910225,896,508.83915328711737,908,505.406042459781,920,502.2998945683685,932,499.4895702856593,944,495.73082675369733,956,489.7459117485778,968,488.28321356300876,980,486.80781128081435,992,487.8290575969186,1004,492.9332800734119,1016,496.791342847373,1028,498.153850080962,1040,510.0271999780125,1052,521.301784970583,1064,531.1377792400526,1076,551.1184425505235,1088,571.4763152218984,1100,586.5511527055241,1112,607.1826890954799,1124,619.6169626673327,1136,625.3947083942512,1148,626.6699678614714,1160,642.8726301222741,1172,652.9719223392021,1184,658.6131781926088,1196,660.5249900980743,1208,658.4545084506317,1220,654.3770901219978,1232,653.0441314437121,1244,650.3180346585941,1256,650.5877218720707,1268,648.0955688556787,1280,643.7126427551448,1292,637.7710257308354,1304,633.1553202707619,1316,628.5231797497363,1328,622.508091697382,1340,616.3058260500111,1352,593.5172751500068,1364,575.3312007928616,1376,557.5090556506802,1388,543.0563527506092,1400,538.644590698168,1412,535.717056955491,1424,538.3886387311577,1436,541.7178359567697,1448,544.8819754656506,1460,545.0086126212955,1472,541.7789989240373,1484,537.8081077503157,1496,535.2794573360006,1508,532.0643778944759,1520,526.2673322283263,1532,523.7585418827803,1544,524.2248395320348,1556,524.4947191956453,1568,520.9386799579624,1580,517.4172937524418,1592,509.89903126173886,1604,503.30960580824467,1616,491.4346083788769,1628,480.08252849516794,1640,472.53255374324,1652,463.1326780724521,1664,451.8158688084077,1676,439.8287513980904,1688,422.90291831255666,1700,408.65312982565223,1712,388.1600317470292,1724,374.93895992351105,1736,363.88908960698245,1748,353.2835533015532,1760,342.4719988918878,1772,330.25797796884945,1784,322.0953615527651,1796,313.03804193821634,1808,307.5794799250616,1820,301.1206944083824,1832,297.86117836949416,1844,295.0641011152584,1856,291.62136020904654,1868,288.20248217009066,1880,289.04623556341903,1892,292.40897930023493,1904,296.81953959545353,1916,297.46585620541737,1928,294.25040277632434,1940,279.3324997309537" fill="none" stroke="#0090ff" stroke-width="2"/><line x1="80" y1="50" x2="80" y2="900" stroke="#666666" stroke-width="0.5" stroke-dasharray="4,4" opacity="0.90"/><line x1="152" y1="50" x2="152" y2="900" stroke="#666666" stroke-width="0.5" stroke-dasharray="4,4" opacity="0.90"/><line x1="224" y1="50" x2="224" y2="900" stroke="#666666" stroke-width="0.5" stroke-dasharray="4,4" opacity="0.90"/><line x1="296" y1="50" x2="296" y2="900" stroke="#666666" stroke-width="0.5" stroke-dasharray="4,4" opacity="0.90"/><line x1="368" y1="50" x2="368" y2="900" stroke="#666666" stroke-width="0.5" stroke-dasharray="4,4" opacity="0.90"/><line x1="440" y1="50" x2="440" y2="900" stroke="#666666" stroke-width="0.5" stroke-dasharray="4,4" opacity="0.90"/><line x1="512" y1="50" x2="512" y2="900" stroke="#666666" stroke-width="0.5" stroke-dasharray="4,4" opacity="0.90"/><line x1="584" y1="50" x2="584" y2="900" stroke="#666666" stroke-width="0.5" stroke-dasharray="4,4" opacity="0.90"/><line x1="656" y1="50" x2="656" y2="900" stroke="#666666" stroke-width="0.5" stroke-dasharray="4,4" opacity="0.90"/><line x1="728" y1="50" x2="728" y2="900" stroke="#666666" stroke-width="0.5" stroke-dasharray="4,4" opacity="0.90"/><line x1="800" y1="50" x2="800" y2="900" stroke="#666666" stroke-width="0.5" stroke-dasharray="4,4" opacity="0.90"/><line x1="872" y1="50" x2="872" y2="900" stroke="#666666" stroke-width="0.5" stroke-dasharray="4,4" opacity="0.90"/><line x1="944" y1="50" x2="944" y2="900" stroke="#666666" stroke-width="0.5" stroke-dasharray="4,4" opacity="0.90"/><line x1="1010" y1="30" x2="1010" y2="950" stroke="black" stroke-width="0.7"/><line x1="1016" y1="50" x2="1016" y2="900" stroke="#666666" stroke-width="0.5" stroke-dasharray="4,4" opacity="0.90"/><line x1="1088" y1="50" x2="1088" y2="900" stroke="#666666" stroke-width="0.5" stroke-dasharray="4,4" opacity="0.90"/><line x1="1160" y1="50" x2="1160" y2="900" stroke="#666666" stroke-width="0.5" stroke-dasharray="4,4" opacity="0.90"/><line x1="1232" y1="50" x2="1232" y2="900" stroke="#666666" stroke-width="0.5" stroke-dasharray="4,4" opacity="0.90"/><line x1="1304" y1="50" x2="1304" y2="900" stroke="#666666" stroke-width="0.5" stroke-dasharray="4,4" opacity="0.90"/><line x1="1376" y1="50" x2="1376" y2="900" stroke="#666666" stroke-width="0.5" stroke-dasharray="4,4" opacity="0.90"/><line x1="1448" y1="50" x2="1448" y2="900" stroke="#666666" stroke-width="0.5" stroke-dasharray="4,4" opacity="0.90"/><line x1="1520" y1="50" x2="1520" y2="900" stroke="#666666" stroke-width="0.5" stroke-dasharray="4,4" opacity="0.90"/><line x1="1592" y1="50" x2="1592" y2="900" stroke="#666666" stroke-width="0.5" stroke-dasharray="4,4" opacity="0.90"/><line x1="1664" y1="50" x2="1664" y2="900" stroke="#666666" stroke-width="0.5" stroke-dasharray="4,4" opacity="0.90"/><line x1="1736" y1="50" x2="1736" y2="900" stroke="#666666" stroke-width="0.5" stroke-dasharray="4,4" opacity="0.90"/><line x1="1808" y1="50" x2="1808" y2="900" stroke="#666666" stroke-width="0.5" stroke-dasharray="4,4" opacity="0.90"/><line x1="1880" y1="50" x2="1880" y2="900" stroke="#666666" stroke-width="0.5" stroke-dasharray="4,4" opacity="0.90"/><line x1="1946" y1="30" x2="1946" y2="950" stroke="black" stroke-width="0.7"/><text x="80" y="1040" text-anchor="middle" font-size="20" fill="black">09:30</text><text x="152" y="1040" text-anchor="middle" font-size="20" fill="black">10:00</text><text x="224" y="1040" text-anchor="middle" font-size="20" fill="black">10:30</text><text x="296" y="1040" text-anchor="middle" font-size="20" fill="black">11:00</text><text x="368" y="1040" text-anchor="middle" font-size="20" fill="black">11:30</text><text x="440" y="1040" text-anchor="middle" font-size="20" fill="black">12:00</text><text x="512" y="1040" text-anchor="middle" font-size="20" fill="black">12:30</text><text x="584" y="1040" text-anchor="middle" font-size="20" fill="black">13:00</text><text x="656" y="1040" text-anchor="middle" font-size="20" fill="black">13:30</text><text x="728" y="1040" text-anchor="middle" font-size="20" fill="black">14:00</text><text x="800" y="1040" text-anchor="middle" font-size="20" fill="black">14:30</text><text x="872" y="1040" text-anchor="middle" font-size="20" fill="black">15:00</text><text x="944" y="1040" text-anchor="middle" font-size="20" fill="black">15:30</text><text x="1016" y="1040" text-anchor="middle" font-size="20" fill="black">09:30</text><text x="1088" y="1040" text-anchor="middle" font-size="20" fill="black">10:00</text><text x="1160" y="1040" text-anchor="middle" font-size="20" fill="black">10:30</text><text x="1232" y="1040" text-anchor="middle" font-size="20" fill="black">11:00</text><text x="1304" y="1040" text-anchor="middle" font-size="20" fill="black">11:30</text><text x="1376" y="1040" text-anchor="middle" font-size="20" fill="black">12:00</text><text x="1448" y="1040" text-anchor="middle" font-size="20" fill="black">12:30</text><text x="1520" y="1040" text-anchor="middle" font-size="20" fill="black">13:00</text><text x="1592" y="1040" text-anchor="middle" font-size="20" fill="black">13:30</text><text x="1664" y="1040" text-anchor="middle" font-size="20" fill="black">14:00</text><text x="1736" y="1040" text-anchor="middle" font-size="20" fill="black">14:30</text><text x="1808" y="1040" text-anchor="middle" font-size="20" fill="black">15:00</text><text x="1880" y="1040" text-anchor="middle" font-size="20" fill="black">15:30</text><text x="1942" y="50" text-anchor="end" font-size="40" fill="#26a69a" font-weight="bold"> +0.27% (Wed)</text></svg>