<svg xmlns="http://www.w3.org/2000/svg" width="1992" height="1050"><rect width="100%" height="100%" fill="white"/><text x="42" y="854.0" text-anchor="end" font-size="20" fill="black">574</text><text x="42" y="654.0" text-anchor="end" font-size="20" fill="black">575</text><text x="42" y="454.0" text-anchor="end" font-size="20" fill="black">576</text><text x="42" y="254.0" text-anchor="end" font-size="20" fill="black">577</text><text x="42" y="54.0" text-anchor="end" font-size="20" fill="black">578</text><line x1="80" y1="-35.65874400001121" x2="80" y2="256.6253839999945" stroke="#ef5350" stroke-width="2"/><rect x="76" y="-26.680731999999807" width="8" height="255.374527999993" fill="#ef5350"/><line x1="92" y1="85.0456240000085" x2="92" y2="248.6449300000004" stroke="#ef5350" stroke-width="2"/><rect x="88" y="222.7084540000078" width="8" height="21.946249999996326" fill="#ef5350"/><line x1="104" y1="192.78175199999623" x2="104" y2="332.4396980000074" stroke="#26a69a" stroke-width="2"/><rect x="100" y="242.65958999999384" width="8" height="9.975568000004387" fill="#26a69a"/><line x1="116" y1="252.63515799999823" x2="116" y2="605.7702459999973" stroke="#ef5350" stroke-width="2"/><rect x="112" y="252.63515799999823" width="8" height="327.1986140000081" fill="#ef5350"/><line x1="128" y1="480.0780960000111" x2="128" y2="641.6822899999943" stroke="#26a69a" stroke-width="2"/><rect x="124" y="573.8484299999982" width="8" height="9.975568000004387" fill="#26a69a"/><line x1="140" y1="436.1855999999989" x2="140" y2="571.8533179999895" stroke="#26a69a" stroke-width="2"/><rect x="136" y="464.11718800000017" width="8" height="103.74590199999147" fill="#26a69a"/><line x1="152" y1="225.70112400001108" x2="152" y2="651.6578579999987" stroke="#26a69a" stroke-width="2"/><rect x="148" y="228.6937959999932" width="8" height="261.35986799999955" fill="#26a69a"/><line x1="164" y1="184.80129800000213" x2="164" y2="304.50810800000454" stroke="#26a69a" stroke-width="2"/><rect x="160" y="188.79152599999998" width="8" height="55.863178000004154" fill="#26a69a"/><line x1="176" y1="142.90391399999862" x2="176" y2="262.610724000001" stroke="#26a69a" stroke-width="2"/><rect x="172" y="158.86482200000955" width="8" height="25.93647599999258" fill="#26a69a"/><line x1="188" y1="118.9625519999936" x2="188" y2="216.72311400000126" stroke="#ef5350" stroke-width="2"/><rect x="184" y="150.88436799999272" width="8" height="41.89738400000351" fill="#ef5350"/><line x1="200" y1="162.8550500000074" x2="200" y2="272.5862920000054" stroke="#ef5350" stroke-width="2"/><rect x="196" y="188.79152599999998" width="8" height="51.87295000000631" fill="#ef5350"/><line x1="212" y1="134.92346000000452" x2="212" y2="312.48856199999864" stroke="#26a69a" stroke-width="2"/><rect x="208" y="230.6889080000019" width="8" height="13.965796000002229" fill="#26a69a"/><line x1="224" y1="204.7524340000109" x2="224" y2="332.4396980000074" stroke="#ef5350" stroke-width="2"/><rect x="220" y="230.6889080000019" width="8" height="89.78010799999083" fill="#ef5350"/><line x1="236" y1="250.64004400001068" x2="236" y2="362.36639999999625" stroke="#26a69a" stroke-width="2"/><rect x="232" y="274.58140599999297" width="8" height="49.87783799999761" fill="#26a69a"/><line x1="248" y1="240.6644760000063" x2="248" y2="370.34685399999034" stroke="#ef5350" stroke-width="2"/><rect x="244" y="272.5862920000054" width="8" height="71.82408599999235" fill="#ef5350"/><line x1="260" y1="344.41037799999776" x2="260" y2="482.07320999999865" stroke="#ef5350" stroke-width="2"/><rect x="256" y="346.40549200000805" width="8" height="77.8094259999989" fill="#ef5350"/><line x1="272" y1="418.2295780000004" x2="272" y2="492.04877800000304" stroke="#ef5350" stroke-width="2"/><rect x="268" y="428.2051460000048" width="8" height="33.91692799998509" fill="#ef5350"/><line x1="284" y1="422.21980399999666" x2="284" y2="565.8679760000041" stroke="#ef5350" stroke-width="2"/><rect x="280" y="464.11718800000017" width="8" height="43.892497999991065" fill="#ef5350"/><line x1="296" y1="470.1025280000067" x2="296" y2="551.9021820000034" stroke="#26a69a" stroke-width="2"/><rect x="292" y="495.0414480000063" width="8" height="10.97312399999737" fill="#26a69a"/><line x1="308" y1="478.0829820000008" x2="308" y2="561.8777500000078" stroke="#26a69a" stroke-width="2"/><rect x="304" y="498.0341180000096" width="8" height="3.9902259999962553" fill="#26a69a"/><line x1="320" y1="434.19048600001133" x2="320" y2="521.9754799999919" stroke="#26a69a" stroke-width="2"/><rect x="316" y="448.15627999998924" width="8" height="51.8729520000079" fill="#26a69a"/><line x1="332" y1="338.4250379999912" x2="332" y2="462.1220739999899" stroke="#26a69a" stroke-width="2"/><rect x="328" y="388.3028759999888" width="8" height="66.83630200000152" fill="#26a69a"/><line x1="344" y1="346.40549200000805" x2="344" y2="482.07320999999865" stroke="#ef5350" stroke-width="2"/><rect x="340" y="385.3102040000067" width="8" height="96.76300599999195" fill="#ef5350"/><line x1="356" y1="436.1855999999989" x2="356" y2="500.02923199999714" stroke="#ef5350" stroke-width="2"/><rect x="352" y="484.06832400000894" width="8" height="7.980453999994097" fill="#ef5350"/><line x1="368" y1="412.24423799999386" x2="368" y2="511.9999120000102" stroke="#26a69a" stroke-width="2"/><rect x="364" y="444.166053999993" width="8" height="35.91204200001812" fill="#26a69a"/><line x1="380" y1="444.166053999993" x2="380" y2="625.7213820000061" stroke="#ef5350" stroke-width="2"/><rect x="376" y="444.166053999993" width="8" height="179.56021400000282" fill="#ef5350"/><line x1="392" y1="609.7604739999952" x2="392" y2="813.262050000003" stroke="#ef5350" stroke-width="2"/><rect x="388" y="627.7164959999936" width="8" height="150.63106800000696" fill="#ef5350"/><line x1="404" y1="603.7751340000113" x2="404" y2="785.3304620000017" stroke="#26a69a" stroke-width="2"/><rect x="400" y="607.7653600000076" width="8" height="171.57976199998757" fill="#26a69a"/><line x1="416" y1="426.2100319999945" x2="416" y2="613.7506999999914" stroke="#26a69a" stroke-width="2"/><rect x="412" y="450.1513939999995" width="8" height="157.61396600000808" fill="#26a69a"/><line x1="428" y1="416.2344639999901" x2="428" y2="581.8288839999923" stroke="#ef5350" stroke-width="2"/><rect x="424" y="444.166053999993" width="8" height="124.69459200001438" fill="#ef5350"/><line x1="440" y1="545.9168419999969" x2="440" y2="657.6431980000052" stroke="#ef5350" stroke-width="2"/><rect x="436" y="569.8582040000019" width="8" height="45.88760999999977" fill="#ef5350"/><line x1="452" y1="521.9754799999919" x2="452" y2="627.7164959999936" stroke="#26a69a" stroke-width="2"/><rect x="448" y="535.9412739999925" width="8" height="81.79965399999674" fill="#26a69a"/><line x1="464" y1="456.1367340000061" x2="464" y2="541.9266139999991" stroke="#26a69a" stroke-width="2"/><rect x="460" y="458.1318479999936" width="8" height="71.82408600001509" fill="#26a69a"/><line x1="476" y1="458.1318479999936" x2="476" y2="607.7653600000076" stroke="#ef5350" stroke-width="2"/><rect x="472" y="458.1318479999936" width="8" height="127.6872639999965" fill="#ef5350"/><line x1="488" y1="579.8337720000063" x2="488" y2="635.6969500000105" stroke="#ef5350" stroke-width="2"/><rect x="484" y="583.8239980000026" width="8" height="31.921815999999126" fill="#ef5350"/><line x1="500" y1="561.8777500000078" x2="500" y2="681.5845600000102" stroke="#ef5350" stroke-width="2"/><rect x="496" y="619.7360419999995" width="8" height="47.88272400001006" fill="#ef5350"/><line x1="512" y1="569.8582040000019" x2="512" y2="681.5845600000102" stroke="#26a69a" stroke-width="2"/><rect x="508" y="581.8288839999923" width="8" height="81.79965399999674" fill="#26a69a"/><line x1="524" y1="575.8435440000085" x2="524" y2="649.6627440000111" stroke="#ef5350" stroke-width="2"/><rect x="520" y="579.8337720000063" width="8" height="17.956019999996897" fill="#ef5350"/><line x1="536" y1="519.9803660000043" x2="536" y2="617.7409279999893" stroke="#26a69a" stroke-width="2"/><rect x="532" y="549.9070679999932" width="8" height="43.8924980000138" fill="#26a69a"/><line x1="548" y1="482.07320999999865" x2="548" y2="585.8191119999901" stroke="#26a69a" stroke-width="2"/><rect x="544" y="482.07320999999865" width="8" height="65.83874600000854" fill="#26a69a"/><line x1="560" y1="420.2246920000107" x2="560" y2="488.0585500000052" stroke="#26a69a" stroke-width="2"/><rect x="556" y="444.166053999993" width="8" height="31.921815999999126" fill="#26a69a"/><line x1="572" y1="384.312647999991" x2="572" y2="472.09764199999427" stroke="#26a69a" stroke-width="2"/><rect x="568" y="422.21980399999666" width="8" height="23.94136200000503" fill="#26a69a"/><line x1="584" y1="398.2784419999916" x2="584" y2="446.1611660000017" stroke="#ef5350" stroke-width="2"/><rect x="580" y="418.2295780000004" width="8" height="9.975568000004387" fill="#ef5350"/><line x1="596" y1="390.29798799999753" x2="596" y2="468.107415999998" stroke="#ef5350" stroke-width="2"/><rect x="592" y="440.17582599999514" width="8" height="17.956021999998484" fill="#ef5350"/><line x1="608" y1="444.166053999993" x2="608" y2="517.985251999994" stroke="#ef5350" stroke-width="2"/><rect x="604" y="450.1513939999995" width="8" height="35.91204199999538" fill="#ef5350"/><line x1="620" y1="466.11230200001046" x2="620" y2="561.8777500000078" stroke="#ef5350" stroke-width="2"/><rect x="616" y="490.05366399999275" width="8" height="69.8289720000048" fill="#ef5350"/><line x1="632" y1="525.9657060000109" x2="632" y2="573.8484299999982" stroke="#26a69a" stroke-width="2"/><rect x="628" y="539.9315019999904" width="8" height="23.94136200000503" fill="#26a69a"/><line x1="644" y1="470.1025280000067" x2="644" y2="563.8728639999954" stroke="#26a69a" stroke-width="2"/><rect x="640" y="482.07320999999865" width="8" height="61.8485180000107" fill="#26a69a"/><line x1="656" y1="374.33708000000934" x2="656" y2="481.0756520000041" stroke="#26a69a" stroke-width="2"/><rect x="652" y="416.2344639999901" width="8" height="63.84363200002099" fill="#26a69a"/><line x1="668" y1="416.2344639999901" x2="668" y2="474.09275600000456" stroke="#ef5350" stroke-width="2"/><rect x="664" y="416.2344639999901" width="8" height="39.90227000001596" fill="#ef5350"/><line x1="680" y1="426.2100319999945" x2="680" y2="475.09031199999754" stroke="#ef5350" stroke-width="2"/><rect x="676" y="458.1318479999936" width="8" height="3.9902259999962553" fill="#ef5350"/><line x1="692" y1="450.1513939999995" x2="692" y2="496.0390039999993" stroke="#ef5350" stroke-width="2"/><rect x="688" y="456.1367340000061" width="8" height="12.968237999984922" fill="#ef5350"/><line x1="704" y1="450.1513939999995" x2="704" y2="493.046333999996" stroke="#26a69a" stroke-width="2"/><rect x="700" y="462.1220739999899" width="8" height="5.985342000008131" fill="#26a69a"/><line x1="716" y1="300.5178820000083" x2="716" y2="462.1220739999899" stroke="#26a69a" stroke-width="2"/><rect x="712" y="317.47634599998946" width="8" height="144.64572800000042" fill="#26a69a"/><line x1="728" y1="278.5716319999892" x2="728" y2="452.1465080000098" stroke="#ef5350" stroke-width="2"/><rect x="724" y="316.4787899999965" width="8" height="39.90226999999322" fill="#ef5350"/><line x1="740" y1="344.41037799999776" x2="740" y2="406.25889600000846" stroke="#26a69a" stroke-width="2"/><rect x="736" y="352.39083199999186" width="8" height="5.985340000006545" fill="#26a69a"/><line x1="752" y1="348.4006059999956" x2="752" y2="418.2295780000004" stroke="#ef5350" stroke-width="2"/><rect x="748" y="360.3712860000087" width="8" height="45.88760999999977" fill="#ef5350"/><line x1="764" y1="406.25889600000846" x2="764" y2="472.09764199999427" stroke="#ef5350" stroke-width="2"/><rect x="760" y="408.254009999996" width="8" height="47.88272400001006" fill="#ef5350"/><line x1="776" y1="436.1855999999989" x2="776" y2="496.0390039999993" stroke="#26a69a" stroke-width="2"/><rect x="772" y="436.1855999999989" width="8" height="25.936473999990994" fill="#26a69a"/><line x1="788" y1="372.34196800000063" x2="788" y2="460.1269620000039" stroke="#26a69a" stroke-width="2"/><rect x="784" y="388.3028759999888" width="8" height="45.887610000022505" fill="#26a69a"/><line x1="800" y1="362.36639999999625" x2="800" y2="408.254009999996" stroke="#26a69a" stroke-width="2"/><rect x="796" y="386.3077620000013" width="8" height="2" fill="#26a69a"/><line x1="812" y1="384.312647999991" x2="812" y2="454.1416199999958" stroke="#ef5350" stroke-width="2"/><rect x="808" y="390.4974999999922" width="8" height="53.66855400000077" fill="#ef5350"/><line x1="824" y1="420.2246920000107" x2="824" y2="472.09764199999427" stroke="#ef5350" stroke-width="2"/><rect x="820" y="442.17094000000543" width="8" height="23.94136200000503" fill="#ef5350"/><line x1="836" y1="440.17582599999514" x2="836" y2="515.9901400000081" stroke="#ef5350" stroke-width="2"/><rect x="832" y="468.107415999998" width="8" height="33.91692800000783" fill="#ef5350"/><line x1="848" y1="416.2344639999901" x2="848" y2="502.02434400000584" stroke="#26a69a" stroke-width="2"/><rect x="844" y="428.2051460000048" width="8" height="73.81919800000105" fill="#26a69a"/><line x1="860" y1="404.26378399999976" x2="860" y2="543.9217280000094" stroke="#ef5350" stroke-width="2"/><rect x="856" y="422.21980399999666" width="8" height="37.90715800000726" fill="#ef5350"/><line x1="872" y1="450.1513939999995" x2="872" y2="621.7311540000082" stroke="#ef5350" stroke-width="2"/><rect x="868" y="458.1318479999936" width="8" height="99.75567400001637" fill="#ef5350"/><line x1="884" y1="502.02434400000584" x2="884" y2="613.7506999999914" stroke="#26a69a" stroke-width="2"/><rect x="880" y="502.02434400000584" width="8" height="59.853406000001996" fill="#26a69a"/><line x1="896" y1="464.11718800000017" x2="896" y2="502.02434400000584" stroke="#26a69a" stroke-width="2"/><rect x="892" y="468.107415999998" width="8" height="31.921815999999126" fill="#26a69a"/><line x1="908" y1="438.1807120000076" x2="908" y2="557.88752200001" stroke="#ef5350" stroke-width="2"/><rect x="904" y="470.1025280000067" width="8" height="19.951135999986036" fill="#ef5350"/><line x1="920" y1="434.19048600001133" x2="920" y2="498.0341180000096" stroke="#26a69a" stroke-width="2"/><rect x="916" y="466.31181400000514" width="8" height="21.746736000000055" fill="#26a69a"/><line x1="932" y1="442.17094000000543" x2="932" y2="492.04877800000304" stroke="#26a69a" stroke-width="2"/><rect x="928" y="464.31669999999485" width="8" height="7.780941999999413" fill="#26a69a"/><line x1="944" y1="436.1855999999989" x2="944" y2="484.06832400000894" stroke="#26a69a" stroke-width="2"/><rect x="940" y="452.1465080000098" width="8" height="11.970679999990352" fill="#26a69a"/><line x1="956" y1="412.24423799999386" x2="956" y2="462.1220739999899" stroke="#ef5350" stroke-width="2"/><rect x="952" y="450.1513939999995" width="8" height="9.975568000004387" fill="#ef5350"/><line x1="968" y1="374.33708000000934" x2="968" y2="456.1367340000061" stroke="#26a69a" stroke-width="2"/><rect x="964" y="404.26378399999976" width="8" height="51.87295000000631" fill="#26a69a"/><line x1="980" y1="380.32242199999473" x2="980" y2="410.2491240000063" stroke="#26a69a" stroke-width="2"/><rect x="976" y="396.28333000000566" width="8" height="2" fill="#26a69a"/><line x1="992" y1="370.34685399999034" x2="992" y2="504.0194579999934" stroke="#ef5350" stroke-width="2"/><rect x="988" y="394.2882159999954" width="8" height="85.78988000001573" fill="#ef5350"/><line x1="1004" y1="464.11718800000017" x2="1004" y2="541.9266139999991" stroke="#ef5350" stroke-width="2"/><rect x="1000" y="486.0634359999949" width="8" height="2" fill="#ef5350"/><line x1="1016" y1="418.2295780000004" x2="1016" y2="651.6578579999987" stroke="#26a69a" stroke-width="2"/><rect x="1012" y="420.2246920000107" width="8" height="223.45271199999388" fill="#26a69a"/><line x1="1028" y1="412.24423799999386" x2="1028" y2="549.9070679999932" stroke="#ef5350" stroke-width="2"/><rect x="1024" y="418.2295780000004" width="8" height="45.88760999999977" fill="#ef5350"/><line x1="1040" y1="444.166053999993" x2="1040" y2="627.7164959999936" stroke="#ef5350" stroke-width="2"/><rect x="1036" y="468.107415999998" width="8" height="137.6628299999993" fill="#ef5350"/><line x1="1052" y1="474.09275600000456" x2="1052" y2="625.7213820000061" stroke="#26a69a" stroke-width="2"/><rect x="1048" y="533.946160000005" width="8" height="77.80942800000048" fill="#26a69a"/><line x1="1064" y1="534.9437179999995" x2="1064" y2="755.4037599999901" stroke="#ef5350" stroke-width="2"/><rect x="1060" y="537.9363880000028" width="8" height="157.61396600000808" fill="#ef5350"/><line x1="1076" y1="643.6774040000046" x2="1076" y2="801.2913699999899" stroke="#ef5350" stroke-width="2"/><rect x="1072" y="695.5503540000109" width="8" height="49.87783799999761" fill="#ef5350"/><line x1="1088" y1="553.897295999991" x2="1088" y2="747.423305999996" stroke="#26a69a" stroke-width="2"/><rect x="1084" y="579.8337720000063" width="8" height="155.6188519999978" fill="#26a69a"/><line x1="1100" y1="553.6977839999963" x2="1100" y2="647.6676300000008" stroke="#ef5350" stroke-width="2"/><rect x="1096" y="567.8630899999916" width="8" height="75.81431400001293" fill="#ef5350"/><line x1="1112" y1="607.7653600000076" x2="1112" y2="687.569899999994" stroke="#26a69a" stroke-width="2"/><rect x="1108" y="621.7311540000082" width="8" height="23.94136199998229" fill="#26a69a"/><line x1="1124" y1="569.8582040000019" x2="1124" y2="673.8036180000108" stroke="#ef5350" stroke-width="2"/><rect x="1120" y="621.7311540000082" width="8" height="8.17996599998878" fill="#ef5350"/><line x1="1136" y1="406.25889600000846" x2="1136" y2="641.6822899999943" stroke="#26a69a" stroke-width="2"/><rect x="1132" y="410.2491240000063" width="8" height="219.46248399999604" fill="#26a69a"/><line x1="1148" y1="380.32242199999473" x2="1148" y2="605.7702459999973" stroke="#ef5350" stroke-width="2"/><rect x="1144" y="412.24423799999386" width="8" height="192.52845200001047" fill="#ef5350"/><line x1="1160" y1="557.88752200001" x2="1160" y2="709.5161479999888" stroke="#26a69a" stroke-width="2"/><rect x="1156" y="589.8093380000091" width="8" height="23.94136199998229" fill="#26a69a"/><line x1="1172" y1="555.8924100000013" x2="1172" y2="673.6041059999934" stroke="#ef5350" stroke-width="2"/><rect x="1168" y="589.8093380000091" width="8" height="79.80453999998645" fill="#ef5350"/><line x1="1184" y1="615.7458140000017" x2="1184" y2="725.4770559999997" stroke="#ef5350" stroke-width="2"/><rect x="1180" y="671.6089920000059" width="8" height="53.868063999993865" fill="#ef5350"/><line x1="1196" y1="711.5112619999991" x2="1196" y2="881.0959099999991" stroke="#ef5350" stroke-width="2"/><rect x="1192" y="725.4770559999997" width="8" height="17.956021999998484" fill="#ef5350"/><line x1="1208" y1="597.7897920000032" x2="1208" y2="751.4135319999923" stroke="#26a69a" stroke-width="2"/><rect x="1204" y="617.7409279999893" width="8" height="125.69215000000895" fill="#26a69a"/><line x1="1220" y1="591.8044519999967" x2="1220" y2="669.6138779999956" stroke="#26a69a" stroke-width="2"/><rect x="1216" y="601.7800200000011" width="8" height="15.960907999988194" fill="#26a69a"/><line x1="1232" y1="575.8435440000085" x2="1232" y2="633.7018360000002" stroke="#ef5350" stroke-width="2"/><rect x="1228" y="601.7800200000011" width="8" height="11.970679999990352" fill="#ef5350"/><line x1="1244" y1="582.8264420000096" x2="1244" y2="663.628537999989" stroke="#26a69a" stroke-width="2"/><rect x="1240" y="591.8044519999967" width="8" height="27.93159000000287" fill="#26a69a"/><line x1="1256" y1="587.8142260000004" x2="1256" y2="695.5503540000109" stroke="#ef5350" stroke-width="2"/><rect x="1252" y="588.8117819999934" width="8" height="106.73857200001748" fill="#ef5350"/><line x1="1268" y1="673.6041059999934" x2="1268" y2="757.3988719999988" stroke="#ef5350" stroke-width="2"/><rect x="1264" y="693.5552400000006" width="8" height="17.956021999998484" fill="#ef5350"/><line x1="1280" y1="639.6871760000067" x2="1280" y2="711.5112619999991" stroke="#26a69a" stroke-width="2"/><rect x="1276" y="687.569899999994" width="8" height="23.94136200000503" fill="#26a69a"/><line x1="1292" y1="679.7889579999946" x2="1292" y2="789.320687999998" stroke="#ef5350" stroke-width="2"/><rect x="1288" y="681.5845600000102" width="8" height="77.8094259999989" fill="#ef5350"/><line x1="1304" y1="753.4086460000026" x2="1304" y2="823.2376180000074" stroke="#ef5350" stroke-width="2"/><rect x="1300" y="763.384214000007" width="8" height="23.94136199998229" fill="#ef5350"/><line x1="1316" y1="717.4966020000056" x2="1316" y2="835.2082999999993" stroke="#26a69a" stroke-width="2"/><rect x="1312" y="739.442852000002" width="8" height="57.85828999999012" fill="#26a69a"/><line x1="1328" y1="731.4623980000079" x2="1328" y2="779.3451219999952" stroke="#ef5350" stroke-width="2"/><rect x="1324" y="735.4526240000041" width="8" height="28.131099999995968" fill="#ef5350"/><line x1="1340" y1="693.5552400000006" x2="1340" y2="760.3915420000021" stroke="#26a69a" stroke-width="2"/><rect x="1336" y="705.5259219999925" width="8" height="51.87295000000631" fill="#26a69a"/><line x1="1352" y1="695.7498660000056" x2="1352" y2="753.4086460000026" stroke="#ef5350" stroke-width="2"/><rect x="1348" y="705.5259219999925" width="8" height="19.951134000007187" fill="#ef5350"/><line x1="1364" y1="727.47217000001" x2="1364" y2="779.3451219999952" stroke="#ef5350" stroke-width="2"/><rect x="1360" y="733.4575099999938" width="8" height="13.965796000002229" fill="#ef5350"/><line x1="1376" y1="691.5601279999919" x2="1376" y2="755.4037599999901" stroke="#26a69a" stroke-width="2"/><rect x="1372" y="719.4917159999932" width="8" height="31.921815999999126" fill="#26a69a"/><line x1="1388" y1="667.6187660000096" x2="1388" y2="733.4575099999938" stroke="#26a69a" stroke-width="2"/><rect x="1384" y="687.569899999994" width="8" height="28.929145999995853" fill="#26a69a"/><line x1="1400" y1="631.7067219999899" x2="1400" y2="727.47217000001" stroke="#ef5350" stroke-width="2"/><rect x="1396" y="689.5650140000043" width="8" height="21.94624799999474" fill="#ef5350"/><line x1="1412" y1="647.4681180000061" x2="1412" y2="723.6814540000069" stroke="#26a69a" stroke-width="2"/><rect x="1408" y="647.4681180000061" width="8" height="64.04314399999294" fill="#26a69a"/><line x1="1424" y1="603.7751340000113" x2="1424" y2="655.6480839999949" stroke="#26a69a" stroke-width="2"/><rect x="1420" y="611.7555880000054" width="8" height="33.91692799998509" fill="#26a69a"/><line x1="1436" y1="607.7653600000076" x2="1436" y2="649.6627440000111" stroke="#ef5350" stroke-width="2"/><rect x="1432" y="611.5560760000108" width="8" height="32.12132799999381" fill="#ef5350"/><line x1="1448" y1="591.8044519999967" x2="1448" y2="673.6041059999934" stroke="#ef5350" stroke-width="2"/><rect x="1444" y="639.6871760000067" width="8" height="22.145759999989423" fill="#ef5350"/><line x1="1460" y1="658.6407539999982" x2="1460" y2="803.2864840000002" stroke="#ef5350" stroke-width="2"/><rect x="1456" y="659.6383119999928" width="8" height="115.71658200000456" fill="#ef5350"/><line x1="1472" y1="735.4526240000041" x2="1472" y2="793.3109159999958" stroke="#26a69a" stroke-width="2"/><rect x="1468" y="759.3939860000091" width="8" height="16.958463999981177" fill="#26a69a"/><line x1="1484" y1="765.379325999993" x2="1484" y2="863.1398880000006" stroke="#ef5350" stroke-width="2"/><rect x="1480" y="775.3548939999973" width="8" height="23.94136200000503" fill="#ef5350"/><line x1="1496" y1="745.4281920000085" x2="1496" y2="831.2180720000015" stroke="#26a69a" stroke-width="2"/><rect x="1492" y="785.3304620000017" width="8" height="17.956021999998484" fill="#26a69a"/><line x1="1508" y1="761.3890999999967" x2="1508" y2="819.2473920000111" stroke="#ef5350" stroke-width="2"/><rect x="1504" y="785.3304620000017" width="8" height="25.93647599999258" fill="#ef5350"/><line x1="1520" y1="715.3019780000022" x2="1520" y2="816.2547200000063" stroke="#26a69a" stroke-width="2"/><rect x="1516" y="723.481943999991" width="8" height="81.79965200001789" fill="#26a69a"/><line x1="1532" y1="719.4917159999932" x2="1532" y2="767.3744400000032" stroke="#ef5350" stroke-width="2"/><rect x="1528" y="725.4770559999997" width="8" height="21.946249999996326" fill="#ef5350"/><line x1="1544" y1="681.5845600000102" x2="1544" y2="757.3988719999988" stroke="#26a69a" stroke-width="2"/><rect x="1540" y="693.5552400000006" width="8" height="53.86806599999545" fill="#26a69a"/><line x1="1556" y1="659.6383119999928" x2="1556" y2="697.5454679999984" stroke="#26a69a" stroke-width="2"/><rect x="1552" y="667.6187660000096" width="8" height="21.94624799999474" fill="#26a69a"/><line x1="1568" y1="665.6236519999993" x2="1568" y2="717.4966020000056" stroke="#ef5350" stroke-width="2"/><rect x="1564" y="665.6236519999993" width="8" height="35.91204199999538" fill="#ef5350"/><line x1="1580" y1="639.6871760000067" x2="1580" y2="707.5210360000028" stroke="#26a69a" stroke-width="2"/><rect x="1576" y="643.6774040000046" width="8" height="63.84363199999825" fill="#26a69a"/><line x1="1592" y1="498.0341180000096" x2="1592" y2="643.6774040000046" stroke="#26a69a" stroke-width="2"/><rect x="1588" y="575.8435440000085" width="8" height="67.8338599999961" fill="#26a69a"/><line x1="1604" y1="555.8924100000013" x2="1604" y2="687.569899999994" stroke="#ef5350" stroke-width="2"/><rect x="1600" y="577.838657999996" width="8" height="105.74101600000176" fill="#ef5350"/><line x1="1616" y1="667.6187660000096" x2="1616" y2="727.47217000001" stroke="#ef5350" stroke-width="2"/><rect x="1612" y="690.5625699999973" width="8" height="2.7931600000101753" fill="#ef5350"/><line x1="1628" y1="679.589446" x2="1628" y2="717.4966020000056" stroke="#ef5350" stroke-width="2"/><rect x="1624" y="693.5552400000006" width="8" height="3.990227999997842" fill="#ef5350"/><line x1="1640" y1="667.6187660000096" x2="1640" y2="717.4966020000056" stroke="#26a69a" stroke-width="2"/><rect x="1636" y="673.6041059999934" width="8" height="25.93647600001532" fill="#26a69a"/><line x1="1652" y1="663.628537999989" x2="1652" y2="707.5210360000028" stroke="#ef5350" stroke-width="2"/><rect x="1648" y="675.5992200000037" width="8" height="7.980453999994097" fill="#ef5350"/><line x1="1664" y1="681.7840720000049" x2="1664" y2="733.4575099999938" stroke="#ef5350" stroke-width="2"/><rect x="1660" y="681.7840720000049" width="8" height="11.771167999995669" fill="#ef5350"/><line x1="1676" y1="637.6920619999964" x2="1676" y2="701.5356939999947" stroke="#26a69a" stroke-width="2"/><rect x="1672" y="645.6725159999905" width="8" height="47.88272400001006" fill="#26a69a"/><line x1="1688" y1="617.7409279999893" x2="1688" y2="681.5845600000102" stroke="#ef5350" stroke-width="2"/><rect x="1684" y="645.6725159999905" width="8" height="35.912044000019705" fill="#ef5350"/><line x1="1700" y1="659.6383119999928" x2="1700" y2="719.4917159999932" stroke="#26a69a" stroke-width="2"/><rect x="1696" y="675.5992200000037" width="8" height="5.985340000006545" fill="#26a69a"/><line x1="1712" y1="639.6871760000067" x2="1712" y2="697.5454679999984" stroke="#26a69a" stroke-width="2"/><rect x="1708" y="643.6774040000046" width="8" height="35.91204199999538" fill="#26a69a"/><line x1="1724" y1="611.7555880000054" x2="1724" y2="675.5992200000037" stroke="#ef5350" stroke-width="2"/><rect x="1720" y="639.6871760000067" width="8" height="13.965794000000642" fill="#ef5350"/><line x1="1736" y1="583.8239980000026" x2="1736" y2="651.6578579999987" stroke="#26a69a" stroke-width="2"/><rect x="1732" y="605.7702459999973" width="8" height="43.8924980000138" fill="#26a69a"/><line x1="1748" y1="581.8288839999923" x2="1748" y2="627.9160060000095" stroke="#ef5350" stroke-width="2"/><rect x="1744" y="607.7653600000076" width="8" height="7.780941999999413" fill="#ef5350"/><line x1="1760" y1="565.8679760000041" x2="1760" y2="641.6822899999943" stroke="#26a69a" stroke-width="2"/><rect x="1756" y="573.6489200000051" width="8" height="42.09689399999661" fill="#26a69a"/><line x1="1772" y1="549.9070679999932" x2="1772" y2="595.7946799999945" stroke="#ef5350" stroke-width="2"/><rect x="1768" y="571.8533179999895" width="8" height="3.9902260000189926" fill="#ef5350"/><line x1="1784" y1="510.00479799999994" x2="1784" y2="575.8435440000085" stroke="#26a69a" stroke-width="2"/><rect x="1780" y="515.9901400000081" width="8" height="59.85340400000041" fill="#26a69a"/><line x1="1796" y1="484.06832400000894" x2="1796" y2="531.9510479999963" stroke="#ef5350" stroke-width="2"/><rect x="1792" y="513.9950259999978" width="8" height="3.9902259999962553" fill="#ef5350"/><line x1="1808" y1="472.09764199999427" x2="1808" y2="535.9412739999925" stroke="#26a69a" stroke-width="2"/><rect x="1804" y="488.0585500000052" width="8" height="27.93159000000287" fill="#26a69a"/><line x1="1820" y1="436.1855999999989" x2="1820" y2="502.02434400000584" stroke="#26a69a" stroke-width="2"/><rect x="1816" y="478.0829820000008" width="8" height="9.975568000004387" fill="#26a69a"/><line x1="1832" y1="470.1025280000067" x2="1832" y2="547.9119560000072" stroke="#ef5350" stroke-width="2"/><rect x="1828" y="480.0780960000111" width="8" height="61.84851799998796" fill="#ef5350"/><line x1="1844" y1="480.0780960000111" x2="1844" y2="561.8777500000078" stroke="#26a69a" stroke-width="2"/><rect x="1840" y="494.043889999989" width="8" height="51.8729520000079" fill="#26a69a"/><line x1="1856" y1="490.05366399999275" x2="1856" y2="539.9315019999904" stroke="#ef5350" stroke-width="2"/><rect x="1852" y="492.04877800000304" width="8" height="37.90715600000567" fill="#ef5350"/><line x1="1868" y1="525.9657060000109" x2="1868" y2="553.897295999991" stroke="#ef5350" stroke-width="2"/><rect x="1864" y="531.9510479999963" width="8" height="3.9902259999962553" fill="#ef5350"/><line x1="1880" y1="535.9412739999925" x2="1880" y2="558.8850800000046" stroke="#ef5350" stroke-width="2"/><rect x="1876" y="535.9412739999925" width="8" height="9.975568000004387" fill="#ef5350"/><line x1="1892" y1="476.0878699999921" x2="1892" y2="547.9119560000072" stroke="#26a69a" stroke-width="2"/><rect x="1888" y="533.946160000005" width="8" height="7.980453999994097" fill="#26a69a"/><line x1="1904" y1="508.00968599999123" x2="1904" y2="546.1163539999916" stroke="#26a69a" stroke-width="2"/><rect x="1900" y="513.9950259999978" width="8" height="17.956021999998484" fill="#26a69a"/><line x1="1916" y1="452.1465080000098" x2="1916" y2="513.9950259999978" stroke="#26a69a" stroke-width="2"/><rect x="1912" y="474.09275600000456" width="8" height="39.90226999999322" fill="#26a69a"/><line x1="1928" y1="426.2100319999945" x2="1928" y2="525.9657060000109" stroke="#26a69a" stroke-width="2"/><rect x="1924" y="432.19537200000104" width="8" height="37.90715600000567" fill="#26a69a"/><line x1="1940" y1="418.2295780000004" x2="1940" y2="523.9705940000022" stroke="#ef5350" stroke-width="2"/><rect x="1936" y="430.20025799999075" width="8" height="79.80454000000918" fill="#ef5350"/><rect x="75" y="952.7705669439016" width="10" height="67.2294330560984" fill="#ef5350" opacity="0.9"/><rect x="87" y="982.6216663891396" width="10" height="37.37833361086041" fill="#ef5350" opacity="0.9"/><rect x="99" y="995.7466499566182" width="10" height="24.25335004338183" fill="#26a69a" opacity="0.9"/><rect x="111" y="964.7908468664277" width="10" height="55.20915313357227" fill="#ef5350" opacity="0.9"/><rect x="123" y="985.8376203956075" width="10" height="34.16237960439253" fill="#26a69a" opacity="0.9"/><rect x="135" y="983.6023592718859" width="10" height="36.397640728114084" fill="#26a69a" opacity="0.9"/><rect x="147" y="976.2379604392522" width="10" height="43.76203956074778" fill="#26a69a" opacity="0.9"/><rect x="159" y="984.3727158795124" width="10" height="35.627284120487616" fill="#26a69a" opacity="0.9"/><rect x="171" y="1000.8626416483353" width="10" height="19.137358351664716" fill="#26a69a" opacity="0.9"/><rect x="183" y="1000.8696528575059" width="10" height="19.130347142494088" fill="#ef5350" opacity="0.9"/><rect x="195" y="994.2537006038403" width="10" height="25.746299396159657" fill="#ef5350" opacity="0.9"/><rect x="207" y="1000.0020157226365" width="10" height="19.997984277363457" fill="#26a69a" opacity="0.9"/><rect x="219" y="1002.7701287433284" width="10" height="17.229871256671572" fill="#ef5350" opacity="0.9"/><rect x="231" y="996.4736247075011" width="10" height="23.52637529249887" fill="#26a69a" opacity="0.9"/><rect x="243" y="1003.5295303366257" width="10" height="16.470469663374274" fill="#ef5350" opacity="0.9"/><rect x="255" y="990.8006800872896" width="10" height="29.199319912710394" fill="#ef5350" opacity="0.9"/><rect x="267" y="998.8342111951482" width="10" height="21.165788804851786" fill="#ef5350" opacity="0.9"/><rect x="279" y="990.0014022418342" width="10" height="29.99859775816583" fill="#ef5350" opacity="0.9"/><rect x="291" y="1002.0216821643603" width="10" height="17.9783178356397" fill="#26a69a" opacity="0.9"/><rect x="303" y="1001.520380708658" width="10" height="18.479619291342033" fill="#26a69a" opacity="0.9"/><rect x="315" y="1004.8349298440883" width="10" height="15.165070155911735" fill="#26a69a" opacity="0.9"/><rect x="327" y="993.3843106666784" width="10" height="26.615689333321598" fill="#26a69a" opacity="0.9"/><rect x="339" y="1000.269318072268" width="10" height="19.730681927732007" fill="#ef5350" opacity="0.9"/><rect x="351" y="1000.9678097858952" width="10" height="19.032190214104844" fill="#ef5350" opacity="0.9"/><rect x="363" y="1001.8691883648984" width="10" height="18.130811635101622" fill="#26a69a" opacity="0.9"/><rect x="375" y="1001.4897066685363" width="10" height="18.510293331463686" fill="#ef5350" opacity="0.9"/><rect x="387" y="987.677624602333" width="10" height="32.322375397666974" fill="#ef5350" opacity="0.9"/><rect x="399" y="993.011840179487" width="10" height="26.988159820513033" fill="#26a69a" opacity="0.9"/><rect x="411" y="993.4982428157016" width="10" height="26.501757184298413" fill="#26a69a" opacity="0.9"/><rect x="423" y="995.4929318247548" width="10" height="24.507068175245195" fill="#ef5350" opacity="0.9"/><rect x="435" y="1002.8928249038149" width="10" height="17.107175096185074" fill="#ef5350" opacity="0.9"/><rect x="447" y="1001.8669973620325" width="10" height="18.13300263796748" fill="#26a69a" opacity="0.9"/><rect x="459" y="995.8246496586418" width="10" height="24.17535034135824" fill="#26a69a" opacity="0.9"/><rect x="471" y="997.9455404327668" width="10" height="22.054459567233152" fill="#ef5350" opacity="0.9"/><rect x="483" y="999.1952884674373" width="10" height="20.804711532562692" fill="#ef5350" opacity="0.9"/><rect x="495" y="995.5227294637301" width="10" height="24.477270536269884" fill="#ef5350" opacity="0.9"/><rect x="507" y="999.1619852238766" width="10" height="20.838014776123373" fill="#26a69a" opacity="0.9"/><rect x="519" y="998.8293909888434" width="10" height="21.170609011156557" fill="#ef5350" opacity="0.9"/><rect x="531" y="998.3797972007748" width="10" height="21.62020279922524" fill="#26a69a" opacity="0.9"/><rect x="543" y="995.3864490854754" width="10" height="24.61355091452458" fill="#26a69a" opacity="0.9"/><rect x="555" y="999.6510170635303" width="10" height="20.348982936469724" fill="#26a69a" opacity="0.9"/><rect x="567" y="977.0105080497445" width="10" height="42.989491950255456" fill="#26a69a" opacity="0.9"/><rect x="579" y="992.4820556865288" width="10" height="27.517944313471162" fill="#ef5350" opacity="0.9"/><rect x="591" y="997.413564936943" width="10" height="22.586435063057024" fill="#ef5350" opacity="0.9"/><rect x="603" y="1000.0602963988676" width="10" height="19.93970360113235" fill="#ef5350" opacity="0.9"/><rect x="615" y="1001.8661209608862" width="10" height="18.133879039113822" fill="#ef5350" opacity="0.9"/><rect x="627" y="995.6739086614725" width="10" height="24.326091338527476" fill="#26a69a" opacity="0.9"/><rect x="639" y="993.032873806999" width="10" height="26.967126193001036" fill="#26a69a" opacity="0.9"/><rect x="651" y="986.6566172668554" width="10" height="33.34338273314461" fill="#26a69a" opacity="0.9"/><rect x="663" y="1002.1071312761277" width="10" height="17.89286872387231" fill="#ef5350" opacity="0.9"/><rect x="675" y="997.6926987020499" width="10" height="22.307301297950062" fill="#ef5350" opacity="0.9"/><rect x="687" y="1005.9015100391752" width="10" height="14.09848996082485" fill="#ef5350" opacity="0.9"/><rect x="699" y="1004.1377527321806" width="10" height="15.862247267819384" fill="#26a69a" opacity="0.9"/><rect x="711" y="975.691962525087" width="10" height="44.30803747491302" fill="#26a69a" opacity="0.9"/><rect x="723" y="966.8284795316513" width="10" height="53.17152046834872" fill="#ef5350" opacity="0.9"/><rect x="735" y="1004.723626898504" width="10" height="15.276373101496006" fill="#26a69a" opacity="0.9"/><rect x="747" y="1001.0063714363339" width="10" height="18.993628563666107" fill="#ef5350" opacity="0.9"/><rect x="759" y="996.9372409139111" width="10" height="23.06275908608893" fill="#ef5350" opacity="0.9"/><rect x="771" y="1002.5571632647695" width="10" height="17.442836735230458" fill="#26a69a" opacity="0.9"/><rect x="783" y="1002.2938047202965" width="10" height="17.70619527970348" fill="#26a69a" opacity="0.9"/><rect x="795" y="993.2611763056186" width="10" height="26.73882369438138" fill="#26a69a" opacity="0.9"/><rect x="807" y="991.1871729928223" width="10" height="28.812827007177702" fill="#ef5350" opacity="0.9"/><rect x="819" y="1000.7565971096291" width="10" height="19.24340289037093" fill="#ef5350" opacity="0.9"/><rect x="831" y="1003.1014083766422" width="10" height="16.898591623357788" fill="#ef5350" opacity="0.9"/><rect x="843" y="990.7603656345583" width="10" height="29.239634365441702" fill="#26a69a" opacity="0.9"/><rect x="855" y="981.3885699762495" width="10" height="38.61143002375047" fill="#ef5350" opacity="0.9"/><rect x="867" y="975.5066036826377" width="10" height="44.49339631736234" fill="#ef5350" opacity="0.9"/><rect x="879" y="987.7424782871616" width="10" height="32.25752171283841" fill="#26a69a" opacity="0.9"/><rect x="891" y="1000.5953392987038" width="10" height="19.404660701296166" fill="#26a69a" opacity="0.9"/><rect x="903" y="1002.3367483764669" width="10" height="17.663251623533142" fill="#ef5350" opacity="0.9"/><rect x="915" y="1000.8915628861643" width="10" height="19.10843711383575" fill="#26a69a" opacity="0.9"/><rect x="927" y="1006.4593393688159" width="10" height="13.540660631184096" fill="#26a69a" opacity="0.9"/><rect x="939" y="992.6165832624908" width="10" height="27.38341673750915" fill="#26a69a" opacity="0.9"/><rect x="951" y="990.4812318694513" width="10" height="29.518768130548665" fill="#ef5350" opacity="0.9"/><rect x="963" y="993.5385572684329" width="10" height="26.461442731567104" fill="#26a69a" opacity="0.9"/><rect x="975" y="984.263603936794" width="10" height="35.73639606320603" fill="#26a69a" opacity="0.9"/><rect x="987" y="941.2020718123099" width="10" height="78.7979281876901" fill="#ef5350" opacity="0.9"/><rect x="999" y="860.0" width="10" height="160.0" fill="#ef5350" opacity="0.9"/><rect x="1011" y="974.0149689315793" width="10" height="45.98503106842065" fill="#26a69a" opacity="0.9"/><rect x="1023" y="994.8996082486876" width="10" height="25.100391751312372" fill="#ef5350" opacity="0.9"/><rect x="1035" y="991.75288993278" width="10" height="28.247110067219978" fill="#ef5350" opacity="0.9"/><rect x="1047" y="995.2032812458918" width="10" height="24.796718754108156" fill="#26a69a" opacity="0.9"/><rect x="1059" y="991.2397570616023" width="10" height="28.76024293839771" fill="#ef5350" opacity="0.9"/><rect x="1071" y="987.4931421610299" width="10" height="32.50685783897006" fill="#ef5350" opacity="0.9"/><rect x="1083" y="997.0244428279713" width="10" height="22.975557172028743" fill="#26a69a" opacity="0.9"/><rect x="1095" y="1002.4668939466973" width="10" height="17.53310605330273" fill="#ef5350" opacity="0.9"/><rect x="1107" y="1002.5133432074529" width="10" height="17.486656792547137" fill="#26a69a" opacity="0.9"/><rect x="1119" y="1005.5500731794957" width="10" height="14.449926820504288" fill="#ef5350" opacity="0.9"/><rect x="1131" y="978.8325460329702" width="10" height="41.167453967029815" fill="#26a69a" opacity="0.9"/><rect x="1143" y="976.5372514307248" width="10" height="43.46274856927516" fill="#ef5350" opacity="0.9"/><rect x="1155" y="988.1552632270843" width="10" height="31.844736772915667" fill="#26a69a" opacity="0.9"/><rect x="1167" y="1002.202659001078" width="10" height="17.79734099892198" fill="#ef5350" opacity="0.9"/><rect x="1179" y="995.9933568793108" width="10" height="24.006643120689205" fill="#ef5350" opacity="0.9"/><rect x="1191" y="987.8156577828804" width="10" height="32.18434221711959" fill="#ef5350" opacity="0.9"/><rect x="1203" y="987.0365371637906" width="10" height="32.963462836209374" fill="#26a69a" opacity="0.9"/><rect x="1215" y="994.8943498418096" width="10" height="25.10565015819043" fill="#26a69a" opacity="0.9"/><rect x="1227" y="999.1457718026695" width="10" height="20.854228197330485" fill="#ef5350" opacity="0.9"/><rect x="1239" y="1000.1418017054766" width="10" height="19.85819829452339" fill="#26a69a" opacity="0.9"/><rect x="1251" y="1003.3919353566514" width="10" height="16.608064643348598" fill="#ef5350" opacity="0.9"/><rect x="1263" y="995.4026625066825" width="10" height="24.597337493317468" fill="#ef5350" opacity="0.9"/><rect x="1275" y="997.7794624155368" width="10" height="22.22053758446316" fill="#26a69a" opacity="0.9"/><rect x="1287" y="1003.0444423021305" width="10" height="16.955557697869494" fill="#ef5350" opacity="0.9"/><rect x="1299" y="997.7737658080857" width="10" height="22.226234191914273" fill="#ef5350" opacity="0.9"/><rect x="1311" y="996.997712593008" width="10" height="23.002287406991968" fill="#26a69a" opacity="0.9"/><rect x="1323" y="1005.434826428753" width="10" height="14.565173571246987" fill="#ef5350" opacity="0.9"/><rect x="1335" y="1002.5295566286601" width="10" height="17.47044337133991" fill="#26a69a" opacity="0.9"/><rect x="1347" y="1006.5057886295715" width="10" height="13.494211370428502" fill="#ef5350" opacity="0.9"/><rect x="1359" y="1005.0606031392689" width="10" height="14.939396860731108" fill="#ef5350" opacity="0.9"/><rect x="1371" y="1005.1903105089261" width="10" height="14.809689491073868" fill="#26a69a" opacity="0.9"/><rect x="1383" y="1003.898933419805" width="10" height="16.101066580195038" fill="#26a69a" opacity="0.9"/><rect x="1395" y="998.9972218083661" width="10" height="21.002778191633865" fill="#ef5350" opacity="0.9"/><rect x="1407" y="1000.6133055222036" width="10" height="19.386694477796368" fill="#26a69a" opacity="0.9"/><rect x="1419" y="996.123064248968" width="10" height="23.876935751031965" fill="#26a69a" opacity="0.9"/><rect x="1431" y="1003.3257670701033" width="10" height="16.674232929896675" fill="#ef5350" opacity="0.9"/><rect x="1443" y="1000.6895524219345" width="10" height="19.310447578065464" fill="#ef5350" opacity="0.9"/><rect x="1455" y="997.4608905988449" width="10" height="22.539109401155088" fill="#ef5350" opacity="0.9"/><rect x="1467" y="1003.3139356546278" width="10" height="16.686064345372188" fill="#26a69a" opacity="0.9"/><rect x="1479" y="999.3175464273507" width="10" height="20.68245357264925" fill="#ef5350" opacity="0.9"/><rect x="1491" y="1001.5436053390358" width="10" height="18.45639466096418" fill="#26a69a" opacity="0.9"/><rect x="1503" y="1004.2696511047036" width="10" height="15.730348895296402" fill="#ef5350" opacity="0.9"/><rect x="1515" y="1000.9042707027861" width="10" height="19.095729297213893" fill="#26a69a" opacity="0.9"/><rect x="1527" y="1003.6811477349412" width="10" height="16.31885226505881" fill="#ef5350" opacity="0.9"/><rect x="1539" y="991.7655977494019" width="10" height="28.234402250598123" fill="#26a69a" opacity="0.9"/><rect x="1551" y="998.3815500030674" width="10" height="21.618449996932554" fill="#26a69a" opacity="0.9"/><rect x="1563" y="995.7335039394231" width="10" height="24.266496060576856" fill="#ef5350" opacity="0.9"/><rect x="1575" y="1003.7328554025748" width="10" height="16.26714459742516" fill="#26a69a" opacity="0.9"/><rect x="1587" y="976.6288353505166" width="10" height="43.371164649483376" fill="#26a69a" opacity="0.9"/><rect x="1599" y="985.257004636162" width="10" height="34.74299536383796" fill="#ef5350" opacity="0.9"/><rect x="1611" y="996.4582876874402" width="10" height="23.541712312559753" fill="#ef5350" opacity="0.9"/><rect x="1623" y="1000.6045415107403" width="10" height="19.39545848925968" fill="#ef5350" opacity="0.9"/><rect x="1635" y="1000.5712382671796" width="10" height="19.428761732820362" fill="#26a69a" opacity="0.9"/><rect x="1647" y="1000.7298668746658" width="10" height="19.270133125334155" fill="#ef5350" opacity="0.9"/><rect x="1659" y="999.8889599747597" width="10" height="20.1110400252403" fill="#ef5350" opacity="0.9"/><rect x="1671" y="1005.1570072653655" width="10" height="14.84299273463455" fill="#26a69a" opacity="0.9"/><rect x="1683" y="1000.8201361927381" width="10" height="19.17986380726188" fill="#ef5350" opacity="0.9"/><rect x="1695" y="1002.2683890870529" width="10" height="17.731610912947076" fill="#26a69a" opacity="0.9"/><rect x="1707" y="1001.9550756772389" width="10" height="18.044924322761062" fill="#26a69a" opacity="0.9"/><rect x="1719" y="1004.2376624628625" width="10" height="15.762337537137455" fill="#ef5350" opacity="0.9"/><rect x="1731" y="1002.2745238950772" width="10" height="17.72547610492279" fill="#26a69a" opacity="0.9"/><rect x="1743" y="1002.9405887662901" width="10" height="17.059411233709852" fill="#ef5350" opacity="0.9"/><rect x="1755" y="999.1751312410717" width="10" height="20.824868758928346" fill="#26a69a" opacity="0.9"/><rect x="1767" y="999.726387562115" width="10" height="20.27361243788505" fill="#ef5350" opacity="0.9"/><rect x="1779" y="999.9279598257715" width="10" height="20.072040174228505" fill="#26a69a" opacity="0.9"/><rect x="1791" y="988.344127674119" width="10" height="31.655872325880978" fill="#ef5350" opacity="0.9"/><rect x="1803" y="1000.7719341296898" width="10" height="19.22806587031016" fill="#26a69a" opacity="0.9"/><rect x="1815" y="987.6311753415773" width="10" height="32.36882465842268" fill="#26a69a" opacity="0.9"/><rect x="1827" y="996.5932534639755" width="10" height="23.406746536024457" fill="#ef5350" opacity="0.9"/><rect x="1839" y="1003.2065765142021" width="10" height="16.793423485797916" fill="#26a69a" opacity="0.9"/><rect x="1851" y="1004.2043592193019" width="10" height="15.795640780698136" fill="#ef5350" opacity="0.9"/><rect x="1863" y="1002.6535673908661" width="10" height="17.3464326091339" fill="#ef5350" opacity="0.9"/><rect x="1875" y="1004.1662357694364" width="10" height="15.833764230563588" fill="#ef5350" opacity="0.9"/><rect x="1887" y="1001.6005714135474" width="10" height="18.399428586452586" fill="#26a69a" opacity="0.9"/><rect x="1899" y="997.7593051891712" width="10" height="22.240694810828813" fill="#26a69a" opacity="0.9"/><rect x="1911" y="991.4684977607951" width="10" height="28.531502239204883" fill="#26a69a" opacity="0.9"/><rect x="1923" y="980.4407421364907" width="10" height="39.55925786350929" fill="#26a69a" opacity="0.9"/><rect x="1935" y="938.5088910896295" width="10" height="81.49110891037049" fill="#ef5350" opacity="0.9"/><rect x="1004" y="488.0585500000052" width="12" height="155.61885399999937" fill="#ff0000" opacity="0.50"/><polyline points="320,354.8775987523868,332,358.0609584902504,344,369.8716491102232,356,381.5075661473429,368,387.4750411809373,380,409.9751580208249,392,445.05824430457324,404,460.5541600850984,416,459.56342045794827,428,469.9726800333792,440,483.8558356492513,452,488.8163535874128,464,485.89401972194537,476,495.41069517699725,488,506.871182683949,500,522.1804763330965,512,527.861277063289,524,534.5211356286882,536,535.9864625211912,548,530.8518670429748,560,522.5960753246,572,513.0364304365457,584,504.9572604902096,596,500.49769739589465,608,499.1230058343717,620,504.9096372787062,632,508.2450529664584,644,505.75249649346006,656,497.22696958931465,668,493.31361381889565,680,490.342990979002,692,488.3203225047964,704,485.82525121862545,716,469.79202215018177,728,458.9909781358756,740,448.83858326579684,752,444.7833749547726,764,445.8646472447981,776,444.9428332214893,788,439.5485515813334,800,434.4780001926438,812,435.4006719838253,824,438.32558912822606,836,444.3921372112527,848,442.850519000649,860,444.4958945244025,872,455.2950971411292,884,459.74550160387935,896,460.5418744034978,908,463.352521031743,920,463.6343584573069,932,463.6993433661246,944,462.59907333126193,956,462.36363415687265,968,456.8303150943166,980,451.063935561524,992,453.8271889366115,1004,457.08731856170743,1016,453.5765922224982,1028,454.58045848702113,1040,468.9794858692039,1052,475.1667881673711,1064,496.1556991990619,1076,519.895936608691,1088,525.6043018840728,1100,536.8493592284494,1112,544.9333396828706,1124,553.0264616178329,1136,539.4286199399403,1148,545.6518647075654,1160,549.8573383544681,1172,561.2627230826092,1184,576.9021833604484,1196,592.7622685642064,1208,595.141188510479,1220,595.7734581761542,1232,597.4855764450922,1244,596.9445169741448,1256,606.335549071855,1268,616.3522836364564,1280,623.1349137663074,1292,636.1119682647541,1304,650.5132642395438,1316,658.9827487881621,1328,668.9447464273826,1340,672.4286679104807,1352,677.4808953475713,1364,684.1420773144591,1376,687.5087095702384,1388,687.5145372302086,1400,689.7999395892384,1412,685.7683375331135,1424,678.7195042442363,1436,675.3821613638365,1448,674.0917589482251,1460,683.7358670483809,1472,690.9414021866269,1484,701.2609120736215,1496,709.2675358761198,1508,718.9817646498113,1520,719.4103531593555,1532,722.0782534298905,1544,719.3617759603967,1556,714.4338702498771,1568,713.2054725117996,1580,706.583751701146,1592,694.1323033486469,1604,693.1272910297366,1616,693.1490471221423,1628,693.5677538724121,1640,691.6664540750389,1652,690.896284544101,1664,691.1495183970601,1676,686.8183753116227,1688,686.3199167104995,1700,685.2988979761676,1712,681.3349461689086,1724,678.6985674861626,1736,671.7530130589012,1748,666.3999929580541,1760,657.5665574382356,1772,649.7834133012702,1784,637.0411967963946,1796,625.7025353871995,1808,612.5935843979505,1820,599.7830508362313,1832,594.2729139946778,1844,584.7272926618416,1856,579.510972789285,1868,575.361477666479,1880,572.5572266506333,1892,568.8799822077044,1904,563.652843521254,1916,555.1233113763601,1928,543.4158885786019,1940,540.2338799520521" fill="none" stroke="#0090ff" stroke-width="2"/><line x1="80" y1="50" x2="80" y2="850" stroke="#666666" stroke-width="0.5" stroke-dasharray="4,4"/><line x1="152" y1="50" x2="152" y2="850" stroke="#666666" stroke-width="0.5" stroke-dasharray="4,4"/><line x1="224" y1="50" x2="224" y2="850" stroke="#666666" stroke-width="0.5" stroke-dasharray="4,4"/><line x1="296" y1="50" x2="296" y2="850" stroke="#666666" stroke-width="0.5" stroke-dasharray="4,4"/><line x1="368" y1="50" x2="368" y2="850" stroke="#666666" stroke-width="0.5" stroke-dasharray="4,4"/><line x1="440" y1="50" x2="440" y2="850" stroke="#666666" stroke-width="0.5" stroke-dasharray="4,4"/><line x1="512" y1="50" x2="512" y2="850" stroke="#666666" stroke-width="0.5" stroke-dasharray="4,4"/><line x1="584" y1="50" x2="584" y2="850" stroke="#666666" stroke-width="0.5" stroke-dasharray="4,4"/><line x1="656" y1="50" x2="656" y2="850" stroke="#666666" stroke-width="0.5" stroke-dasharray="4,4"/><line x1="728" y1="50" x2="728" y2="850" stroke="#666666" stroke-width="0.5" stroke-dasharray="4,4"/><line x1="800" y1="50" x2="800" y2="850" stroke="#666666" stroke-width="0.5" stroke-dasharray="4,4"/><line x1="872" y1="50" x2="872" y2="850" stroke="#666666" stroke-width="0.5" stroke-dasharray="4,4"/><line x1="944" y1="50" x2="944" y2="850" stroke="#666666" stroke-width="0.5" stroke-dasharray="4,4"/><line x1="1016" y1="50" x2="1016" y2="850" stroke="#666666" stroke-width="0.5" stroke-dasharray="4,4"/><line x1="1088" y1="50" x2="1088" y2="850" stroke="#666666" stroke-width="0.5" stroke-dasharray="4,4"/><line x1="1160" y1="50" x2="1160" y2="850" stroke="#666666" stroke-width="0.5" stroke-dasharray="4,4"/><line x1="1232" y1="50" x2="1232" y2="850" stroke="#666666" stroke-width="0.5" stroke-dasharray="4,4"/><line x1="1304" y1="50" x2="1304" y2="850" stroke="#666666" stroke-width="0.5" stroke-dasharray="4,4"/><line x1="1376" y1="50" x2="1376" y2="850" stroke="#666666" stroke-width="0.5" stroke-dasharray="4,4"/><line x1="1448" y1="50" x2="1448" y2="850" stroke="#666666" stroke-width="0.5" stroke-dasharray="4,4"/><line x1="1520" y1="50" x2="1520" y2="850" stroke="#666666" stroke-width="0.5" stroke-dasharray="4,4"/><line x1="1592" y1="50" x2="1592" y2="850" stroke="#666666" stroke-width="0.5" stroke-dasharray="4,4"/><line x1="1664" y1="50" x2="1664" y2="850" stroke="#666666" stroke-width="0.5" stroke-dasharray="4,4"/><line x1="1736" y1="50" x2="1736" y2="850" stroke="#666666" stroke-width="0.5" stroke-dasharray="4,4"/><line x1="1808" y1="50" x2="1808" y2="850" stroke="#666666" stroke-width="0.5" stroke-dasharray="4,4"/><line x1="1880" y1="50" x2="1880" y2="850" stroke="#666666" stroke-width="0.5" stroke-dasharray="4,4"/><text x="80" y="1040" text-anchor="middle" font-size="20" fill="black">09:30</text><text x="152" y="1040" text-anchor="middle" font-size="20" fill="black">10:00</text><text x="224" y="1040" text-anchor="middle" font-size="20" fill="black">10:30</text><text x="296" y="1040" text-anchor="middle" font-size="20" fill="black">11:00</text><text x="368" y="1040" text-anchor="middle" font-size="20" fill="black">11:30</text><text x="440" y="1040" text-anchor="middle" font-size="20" fill="black">12:00</text><text x="512" y="1040" text-anchor="middle" font-size="20" fill="black">12:30</text><text x="584" y="1040" text-anchor="middle" font-size="20" fill="black">13:00</text><text x="656" y="1040" text-anchor="middle" font-size="20" fill="black">13:30</text><text x="728" y="1040" text-anchor="middle" font-size="20" fill="black">14:00</text><text x="800" y="1040" text-anchor="middle" font-size="20" fill="black">14:30</text><text x="872" y="1040" text-anchor="middle" font-size="20" fill="black">15:00</text><text x="944" y="1040" text-anchor="middle" font-size="20" fill="black">15:30</text><text x="1016" y="1040" text-anchor="middle" font-size="20" fill="black">09:30</text><text x="1088" y="1040" text-anchor="middle" font-size="20" fill="black">10:00</text><text x="1160" y="1040" text-anchor="middle" font-size="20" fill="black">10:30</text><text x="1232" y="1040" text-anchor="middle" font-size="20" fill="black">11:00</text><text x="1304" y="1040" text-anchor="middle" font-size="20" fill="black">11:30</text><text x="1376" y="1040" text-anchor="middle" font-size="20" fill="black">12:00</text><text x="1448" y="1040" text-anchor="middle" font-size="20" fill="black">12:30</text><text x="1520" y="1040" text-anchor="middle" font-size="20" fill="black">13:00</text><text x="1592" y="1040" text-anchor="middle" font-size="20" fill="black">13:30</text><text x="1664" y="1040" text-anchor="middle" font-size="20" fill="black">14:00</text><text x="1736" y="1040" text-anchor="middle" font-size="20" fill="black">14:30</text><text x="1808" y="1040" text-anchor="middle" font-size="20" fill="black">15:00</text><text x="1880" y="1040" text-anchor="middle" font-size="20" fill="black">15:30</text><text x="1942" y="50" text-anchor="end" font-size="40" fill="#26a69a" font-weight="bold"> +0.12% (Mon)</text></svg>