<svg xmlns="http://www.w3.org/2000/svg" width="1992" height="1050"><rect width="100%" height="100%" fill="white"/><text x="42" y="854.0" text-anchor="end" font-size="20" fill="black">590</text><text x="42" y="787.3333333333334" text-anchor="end" font-size="20" fill="black">591</text><text x="42" y="720.6666666666667" text-anchor="end" font-size="20" fill="black">592</text><text x="42" y="654.0" text-anchor="end" font-size="20" fill="black">593</text><text x="42" y="587.3333333333334" text-anchor="end" font-size="20" fill="black">594</text><text x="42" y="520.6666666666666" text-anchor="end" font-size="20" fill="black">595</text><text x="42" y="454.0" text-anchor="end" font-size="20" fill="black">596</text><text x="42" y="387.3333333333333" text-anchor="end" font-size="20" fill="black">597</text><text x="42" y="320.66666666666674" text-anchor="end" font-size="20" fill="black">598</text><text x="42" y="254.0" text-anchor="end" font-size="20" fill="black">599</text><text x="42" y="187.33333333333326" text-anchor="end" font-size="20" fill="black">600</text><text x="42" y="120.66666666666674" text-anchor="end" font-size="20" fill="black">601</text><text x="42" y="54.0" text-anchor="end" font-size="20" fill="black">602</text><line x1="80" y1="228.15124600000058" x2="80" y2="364.6420366666689" stroke="#ef5350" stroke-width="2"/><rect x="76" y="256.1152126666684" width="8" height="106.52939733333068" fill="#ef5350"/><line x1="92" y1="338.67549600000376" x2="92" y2="419.2383526666693" stroke="#ef5350" stroke-width="2"/><rect x="88" y="362.6446099999991" width="8" height="2" fill="#ef5350"/><line x1="104" y1="275.49024666666355" x2="104" y2="409.9170299999969" stroke="#26a69a" stroke-width="2"/><rect x="100" y="278.7527100000034" width="8" height="87.22094399999304" fill="#26a69a"/><line x1="116" y1="251.45455133333598" x2="116" y2="347.99681800000144" stroke="#26a69a" stroke-width="2"/><rect x="112" y="254.11778666666578" width="8" height="27.96396666666783" fill="#26a69a"/><line x1="128" y1="191.53176533333567" x2="128" y2="278.7527100000034" stroke="#26a69a" stroke-width="2"/><rect x="124" y="232.811907333333" width="8" height="20.640070666665224" fill="#26a69a"/><line x1="140" y1="151.5832413333328" x2="140" y2="240.80161200000316" stroke="#26a69a" stroke-width="2"/><rect x="136" y="157.57552000000032" width="8" height="75.23638733333269" fill="#26a69a"/><line x1="152" y1="128.94574466666495" x2="152" y2="192.19757466667033" stroke="#26a69a" stroke-width="2"/><rect x="148" y="131.60898000000248" width="8" height="27.298158000000058" fill="#26a69a"/><line x1="164" y1="119.62442266666744" x2="164" y2="164.23360733333539" stroke="#ef5350" stroke-width="2"/><rect x="160" y="130.94317066666758" width="8" height="2.6632353333297942" fill="#ef5350"/><line x1="176" y1="117.62699599999746" x2="176" y2="181.5446346666704" stroke="#ef5350" stroke-width="2"/><rect x="172" y="134.27221466666492" width="8" height="31.293010666665168" fill="#ef5350"/><line x1="188" y1="132.27478866667002" x2="188" y2="204.84793999999806" stroke="#ef5350" stroke-width="2"/><rect x="184" y="164.89941600000293" width="8" height="39.28271533332759" fill="#ef5350"/><line x1="200" y1="189.53433933333304" x2="200" y2="318.7012339999985" stroke="#ef5350" stroke-width="2"/><rect x="196" y="202.18470533333561" width="8" height="37.28528933333246" fill="#ef5350"/><line x1="212" y1="239.46999466666807" x2="212" y2="308.0482939999986" stroke="#ef5350" stroke-width="2"/><rect x="208" y="240.13580333333562" width="8" height="21.30587933333277" fill="#ef5350"/><line x1="224" y1="206.84536666666804" x2="224" y2="304.71925000000124" stroke="#26a69a" stroke-width="2"/><rect x="220" y="214.83507133333046" width="8" height="43.27756733333308" fill="#26a69a"/><line x1="236" y1="158.24132866666787" x2="236" y2="216.8324973333331" stroke="#26a69a" stroke-width="2"/><rect x="232" y="168.8942686666678" width="8" height="47.93822866666528" fill="#26a69a"/><line x1="248" y1="160.90456399999766" x2="248" y2="250.1229340000009" stroke="#ef5350" stroke-width="2"/><rect x="244" y="168.22846000000027" width="8" height="79.897047999998" fill="#ef5350"/><line x1="260" y1="219.4957326666629" x2="260" y2="298.0611626666662" stroke="#ef5350" stroke-width="2"/><rect x="256" y="246.12808200000313" width="8" height="47.93822866666551" fill="#ef5350"/><line x1="272" y1="289.4056493333362" x2="272" y2="351.9916706666663" stroke="#ef5350" stroke-width="2"/><rect x="268" y="297.39535399999863" width="8" height="28.629776000002494" fill="#ef5350"/><line x1="284" y1="325.3593213333336" x2="284" y2="388.6111506666642" stroke="#ef5350" stroke-width="2"/><rect x="280" y="326.0251300000011" width="8" height="37.95109733333305" fill="#ef5350"/><line x1="296" y1="330.68579066666643" x2="296" y2="385.28210733333407" stroke="#26a69a" stroke-width="2"/><rect x="292" y="353.3232880000014" width="8" height="10.652939333332768" fill="#26a69a"/><line x1="308" y1="302.05601533333106" x2="308" y2="375.9607846666692" stroke="#26a69a" stroke-width="2"/><rect x="304" y="304.0534413333337" width="8" height="48.60403800000017" fill="#26a69a"/><line x1="320" y1="240.80161200000316" x2="320" y2="308.0482939999986" stroke="#26a69a" stroke-width="2"/><rect x="316" y="252.7861693333307" width="8" height="50.60146333333546" fill="#26a69a"/><line x1="332" y1="190.20014800000058" x2="332" y2="250.78874266666844" stroke="#26a69a" stroke-width="2"/><rect x="328" y="196.85823533333564" width="8" height="53.9305073333328" fill="#26a69a"/><line x1="344" y1="164.23360733333539" x2="344" y2="196.1924266666681" stroke="#26a69a" stroke-width="2"/><rect x="340" y="193.52919199999792" width="8" height="2" fill="#26a69a"/><line x1="356" y1="162.23618133333275" x2="356" y2="198.8556619999979" stroke="#26a69a" stroke-width="2"/><rect x="352" y="175.55235600000287" width="8" height="17.3110273333275" fill="#26a69a"/><line x1="368" y1="142.92772800000262" x2="368" y2="181.5446346666704" stroke="#26a69a" stroke-width="2"/><rect x="364" y="159.57294666667008" width="8" height="14.647791999997708" fill="#26a69a"/><line x1="380" y1="154.91228533333015" x2="380" y2="182.21044333333043" stroke="#ef5350" stroke-width="2"/><rect x="376" y="158.90713800000253" width="8" height="22.637496666667857" fill="#ef5350"/><line x1="392" y1="175.55235600000287" x2="392" y2="215.500879999998" stroke="#ef5350" stroke-width="2"/><rect x="388" y="180.87882600000285" width="8" height="29.961392666662732" fill="#ef5350"/><line x1="404" y1="164.89941600000293" x2="404" y2="212.83764533333556" stroke="#26a69a" stroke-width="2"/><rect x="400" y="167.56265133333272" width="8" height="41.28014133333022" fill="#26a69a"/><line x1="416" y1="158.24132866666787" x2="416" y2="193.52919199999792" stroke="#26a69a" stroke-width="2"/><rect x="412" y="163.56779866666784" width="8" height="4.660661333332428" fill="#26a69a"/><line x1="428" y1="136.26964066666756" x2="428" y2="168.22846000000027" stroke="#26a69a" stroke-width="2"/><rect x="424" y="151.5832413333328" width="8" height="11.318748666667489" fill="#26a69a"/><line x1="440" y1="134.93802333333247" x2="440" y2="166.89684266666518" stroke="#26a69a" stroke-width="2"/><rect x="436" y="142.26191933333507" width="8" height="7.323895999995102" fill="#26a69a"/><line x1="452" y1="134.93802333333247" x2="452" y2="172.8891213333327" stroke="#ef5350" stroke-width="2"/><rect x="448" y="141.59611066666753" width="8" height="11.318748666667489" fill="#ef5350"/><line x1="464" y1="129.6115533333325" x2="464" y2="163.56779866666784" stroke="#26a69a" stroke-width="2"/><rect x="460" y="136.26964066666756" width="8" height="13.316174666662619" fill="#26a69a"/><line x1="476" y1="110.30310000000259" x2="476" y2="135.603832" stroke="#26a69a" stroke-width="2"/><rect x="472" y="112.96633533333238" width="8" height="19.974261999997452" fill="#26a69a"/><line x1="488" y1="85.00236799999743" x2="488" y2="187.5369133333304" stroke="#ef5350" stroke-width="2"/><rect x="484" y="113.63214399999993" width="8" height="12.650366000002577" fill="#ef5350"/><line x1="500" y1="103.64501266666753" x2="500" y2="140.26449333333244" stroke="#26a69a" stroke-width="2"/><rect x="496" y="122.28765733332989" width="8" height="3.994852666672614" fill="#26a69a"/><line x1="512" y1="94.32369066666979" x2="512" y2="132.27478866667002" stroke="#26a69a" stroke-width="2"/><rect x="508" y="108.30567399999995" width="8" height="15.313600666665025" fill="#26a69a"/><line x1="524" y1="100.98177799999735" x2="524" y2="140.26449333333244" stroke="#ef5350" stroke-width="2"/><rect x="520" y="103.64501266666753" width="8" height="27.298158000000058" fill="#ef5350"/><line x1="536" y1="128.2799359999974" x2="536" y2="158.90713800000253" stroke="#ef5350" stroke-width="2"/><rect x="532" y="129.6115533333325" width="8" height="7.323896000002605" fill="#ef5350"/><line x1="548" y1="88.33141200000227" x2="548" y2="156.24390266666524" stroke="#26a69a" stroke-width="2"/><rect x="544" y="100.24938799999745" width="8" height="35.35444400000256" fill="#26a69a"/><line x1="560" y1="83.0049420000023" x2="560" y2="110.96890866667013" stroke="#26a69a" stroke-width="2"/><rect x="556" y="94.32369066666979" width="8" height="6.658087333327558" fill="#26a69a"/><line x1="572" y1="50.380314000002045" x2="572" y2="94.98949933332983" stroke="#26a69a" stroke-width="2"/><rect x="568" y="63.03067999999712" width="8" height="29.295584666670038" fill="#26a69a"/><line x1="584" y1="46.38546199999689" x2="584" y2="78.34428066666987" stroke="#26a69a" stroke-width="2"/><rect x="580" y="56.37259266666956" width="8" height="5.659374666667418" fill="#26a69a"/><line x1="596" y1="47.71707933333198" x2="596" y2="65.69391533333442" stroke="#ef5350" stroke-width="2"/><rect x="592" y="56.37259266666956" width="8" height="9.321322666664855" fill="#ef5350"/><line x1="608" y1="61.03325400000199" x2="608" y2="128.2799359999974" stroke="#ef5350" stroke-width="2"/><rect x="604" y="64.36229733333221" width="8" height="50.60146400000281" fill="#ef5350"/><line x1="620" y1="103.64501266666753" x2="620" y2="150.25162399999772" stroke="#ef5350" stroke-width="2"/><rect x="616" y="114.96376133333501" width="8" height="17.97683599999482" fill="#ef5350"/><line x1="632" y1="91.6604553333325" x2="632" y2="140.26449333333244" stroke="#26a69a" stroke-width="2"/><rect x="628" y="120.95604000000253" width="8" height="11.318748666667489" fill="#26a69a"/><line x1="644" y1="120.95604000000253" x2="644" y2="145.5909633333324" stroke="#ef5350" stroke-width="2"/><rect x="640" y="122.28765733332989" width="8" height="11.318748666667489" fill="#ef5350"/><line x1="656" y1="121.62184866667008" x2="656" y2="148.2541980000026" stroke="#ef5350" stroke-width="2"/><rect x="652" y="130.27736200000004" width="8" height="17.97683600000255" fill="#ef5350"/><line x1="668" y1="123.61927466666498" x2="668" y2="150.25162399999772" stroke="#26a69a" stroke-width="2"/><rect x="664" y="140.26449333333244" width="8" height="5.326469999999972" fill="#26a69a"/><line x1="680" y1="127.61412733332986" x2="680" y2="156.90971133333278" stroke="#ef5350" stroke-width="2"/><rect x="676" y="140.93030199999998" width="8" height="9.321321999997735" fill="#ef5350"/><line x1="692" y1="129.6115533333325" x2="692" y2="154.2464766666701" stroke="#26a69a" stroke-width="2"/><rect x="688" y="135.603832" width="8" height="15.313600666665252" fill="#26a69a"/><line x1="704" y1="111.63471733332995" x2="704" y2="153.58066800000256" stroke="#26a69a" stroke-width="2"/><rect x="700" y="112.23394533333249" width="8" height="21.372460666664892" fill="#26a69a"/><line x1="716" y1="96.32111666666492" x2="716" y2="147.58838933333504" stroke="#26a69a" stroke-width="2"/><rect x="712" y="96.32111666666492" width="8" height="16.64521866666746" fill="#26a69a"/><line x1="728" y1="79.01008999999704" x2="728" y2="104.97663000000261" stroke="#26a69a" stroke-width="2"/><rect x="724" y="92.32626466666716" width="8" height="4.660660666665308" fill="#26a69a"/><line x1="740" y1="85.6681773333321" x2="740" y2="100.3159693333298" stroke="#ef5350" stroke-width="2"/><rect x="736" y="92.9920733333347" width="8" height="2" fill="#ef5350"/><line x1="752" y1="81.00751599999967" x2="752" y2="101.64758666666489" stroke="#ef5350" stroke-width="2"/><rect x="748" y="93.65788200000225" width="8" height="2" fill="#ef5350"/><line x1="764" y1="74.34942866666461" x2="764" y2="96.32111666666492" stroke="#26a69a" stroke-width="2"/><rect x="760" y="92.32626466666716" width="8" height="3.329043333330219" fill="#26a69a"/><line x1="776" y1="53.04354933333184" x2="776" y2="92.32626466666716" stroke="#26a69a" stroke-width="2"/><rect x="772" y="60.367445333334445" width="8" height="31.958819333332713" fill="#26a69a"/><line x1="788" y1="52.377740666664295" x2="788" y2="71.02038466666727" stroke="#26a69a" stroke-width="2"/><rect x="784" y="57.70420999999715" width="8" height="4.660661333332428" fill="#26a69a"/><line x1="800" y1="38.395756666667126" x2="800" y2="69.02295866666464" stroke="#ef5350" stroke-width="2"/><rect x="796" y="57.0384013333296" width="8" height="7.323896000002605" fill="#ef5350"/><line x1="812" y1="57.70420999999715" x2="812" y2="94.32369066666979" stroke="#ef5350" stroke-width="2"/><rect x="808" y="63.69648866666466" width="8" height="22.637497333334977" fill="#ef5350"/><line x1="824" y1="80.34170733333212" x2="824" y2="128.94574466666495" stroke="#ef5350" stroke-width="2"/><rect x="820" y="85.6681773333321" width="8" height="18.642644000002974" fill="#ef5350"/><line x1="836" y1="102.97920399999998" x2="836" y2="125.61670133333496" stroke="#ef5350" stroke-width="2"/><rect x="832" y="103.64501266666753" width="8" height="11.984557333335033" fill="#ef5350"/><line x1="848" y1="95.65530799999738" x2="848" y2="144.2593453333302" stroke="#ef5350" stroke-width="2"/><rect x="844" y="115.62957000000256" width="8" height="18.642644666662363" fill="#ef5350"/><line x1="860" y1="128.2799359999974" x2="860" y2="154.91228533333015" stroke="#ef5350" stroke-width="2"/><rect x="856" y="132.27478866667002" width="8" height="5.992278000000169" fill="#ef5350"/><line x1="872" y1="120.95604000000253" x2="872" y2="166.23103399999763" stroke="#ef5350" stroke-width="2"/><rect x="868" y="136.9354493333351" width="8" height="15.979409999999916" fill="#ef5350"/><line x1="884" y1="110.30310000000259" x2="884" y2="158.90713800000253" stroke="#26a69a" stroke-width="2"/><rect x="880" y="122.28765733332989" width="8" height="31.958819333340216" fill="#26a69a"/><line x1="896" y1="108.30567399999995" x2="896" y2="139.5986846666649" stroke="#ef5350" stroke-width="2"/><rect x="892" y="123.61927466666498" width="8" height="6.658087333335061" fill="#ef5350"/><line x1="908" y1="85.6681773333321" x2="908" y2="135.2709279999999" stroke="#26a69a" stroke-width="2"/><rect x="904" y="93.65788200000225" width="8" height="36.61947999999779" fill="#26a69a"/><line x1="920" y1="61.03325400000199" x2="920" y2="93.65788200000225" stroke="#26a69a" stroke-width="2"/><rect x="916" y="75.01523733333215" width="8" height="18.642644666670094" fill="#26a69a"/><line x1="932" y1="72.35200266666948" x2="932" y2="123.28637066666488" stroke="#ef5350" stroke-width="2"/><rect x="928" y="75.6810459999997" width="8" height="39.28271533333532" fill="#ef5350"/><line x1="944" y1="100.98177799999735" x2="944" y2="124.95089266666741" stroke="#26a69a" stroke-width="2"/><rect x="940" y="104.97663000000261" width="8" height="9.9871313333324" fill="#26a69a"/><line x1="956" y1="93.65788200000225" x2="956" y2="112.96633533333238" stroke="#26a69a" stroke-width="2"/><rect x="952" y="96.32111666666492" width="8" height="5.326469999999972" fill="#26a69a"/><line x1="968" y1="69.68876733333218" x2="968" y2="96.98692533333247" stroke="#26a69a" stroke-width="2"/><rect x="964" y="76.34685466666724" width="8" height="20.640070666665224" fill="#26a69a"/><line x1="980" y1="75.01523733333215" x2="980" y2="116.96118733332992" stroke="#ef5350" stroke-width="2"/><rect x="976" y="75.6810459999997" width="8" height="36.61948066666514" fill="#ef5350"/><line x1="992" y1="61.03325400000199" x2="992" y2="127.61412733332986" stroke="#26a69a" stroke-width="2"/><rect x="988" y="68.35714999999709" width="8" height="45.94080266667038" fill="#26a69a"/><line x1="1004" y1="57.70420999999715" x2="1004" y2="101.98049133333211" stroke="#ef5350" stroke-width="2"/><rect x="1000" y="68.35714999999709" width="8" height="30.627202000005127" fill="#ef5350"/><line x1="1016" y1="545.07620333333" x2="1016" y2="676.9063319999987" stroke="#ef5350" stroke-width="2"/><rect x="1012" y="547.0736293333326" width="8" height="125.17204200000072" fill="#ef5350"/><line x1="1028" y1="674.243097333336" x2="1028" y2="818.7235926666668" stroke="#ef5350" stroke-width="2"/><rect x="1024" y="674.243097333336" width="8" height="80.56285666666565" fill="#ef5350"/><line x1="1040" y1="738.8265446666688" x2="1040" y2="880.6438046666699" stroke="#ef5350" stroke-width="2"/><rect x="1036" y="757.4691886666642" width="8" height="89.88417933333801" fill="#ef5350"/><line x1="1052" y1="748.1478666666666" x2="1052" y2="892.6283619999973" stroke="#26a69a" stroke-width="2"/><rect x="1048" y="806.7390353333318" width="8" height="41.28014133333795" fill="#26a69a"/><line x1="1064" y1="680.9011846666635" x2="1064" y2="832.705575999997" stroke="#26a69a" stroke-width="2"/><rect x="1060" y="696.2147853333363" width="8" height="115.85071999999548" fill="#26a69a"/><line x1="1076" y1="628.9681033333333" x2="1076" y2="704.2044899999989" stroke="#26a69a" stroke-width="2"/><rect x="1072" y="645.6133220000007" width="8" height="50.60146333333557" fill="#26a69a"/><line x1="1088" y1="591.6828146666679" x2="1088" y2="678.2379500000009" stroke="#26a69a" stroke-width="2"/><rect x="1084" y="602.3357540000006" width="8" height="47.27241999999785" fill="#26a69a"/><line x1="1100" y1="579.0324486666653" x2="1100" y2="642.2842780000034" stroke="#ef5350" stroke-width="2"/><rect x="1096" y="601.6699453333331" width="8" height="32.62462800000014" fill="#ef5350"/><line x1="1112" y1="557.0607599999979" x2="1112" y2="639.6210433333332" stroke="#26a69a" stroke-width="2"/><rect x="1108" y="569.045317333333" width="8" height="52.59888999999771" fill="#26a69a"/><line x1="1124" y1="549.0710553333353" x2="1124" y2="604.9989893333304" stroke="#26a69a" stroke-width="2"/><rect x="1120" y="563.0530386666654" width="8" height="8.655514000004814" fill="#26a69a"/><line x1="1136" y1="456.5236413333347" x2="1136" y2="570.376934666668" stroke="#26a69a" stroke-width="2"/><rect x="1132" y="467.17658133333464" width="8" height="94.5448399999957" fill="#26a69a"/><line x1="1148" y1="409.2512213333369" x2="1148" y2="468.5081986666697" stroke="#26a69a" stroke-width="2"/><rect x="1144" y="414.5776913333369" width="8" height="53.930507333332855" fill="#26a69a"/><line x1="1160" y1="407.25379533333427" x2="1160" y2="482.4901819999999" stroke="#ef5350" stroke-width="2"/><rect x="1156" y="415.24349999999686" width="8" height="35.28786266667032" fill="#ef5350"/><line x1="1172" y1="393.93762066666415" x2="1172" y2="449.19974533333215" stroke="#26a69a" stroke-width="2"/><rect x="1168" y="403.9247513333369" width="8" height="45.27499399999522" fill="#26a69a"/><line x1="1184" y1="392.6060033333367" x2="1184" y2="418.57254400000176" stroke="#ef5350" stroke-width="2"/><rect x="1180" y="403.2589426666694" width="8" height="15.313601333332372" fill="#ef5350"/><line x1="1196" y1="379.9556373333341" x2="1196" y2="451.8629806666695" stroke="#ef5350" stroke-width="2"/><rect x="1192" y="417.2409259999995" width="8" height="4.660661333332428" fill="#ef5350"/><line x1="1208" y1="414.5776913333369" x2="1208" y2="498.4695919999998" stroke="#ef5350" stroke-width="2"/><rect x="1204" y="421.2357786666644" width="8" height="25.9665406666727" fill="#ef5350"/><line x1="1220" y1="442.5416579999971" x2="1220" y2="497.1379739999975" stroke="#ef5350" stroke-width="2"/><rect x="1216" y="448.5339366666646" width="8" height="17.31102733333495" fill="#ef5350"/><line x1="1232" y1="384.6162979999993" x2="1232" y2="465.84496399999955" stroke="#26a69a" stroke-width="2"/><rect x="1228" y="385.28210733333407" width="8" height="80.56285666666548" fill="#26a69a"/><line x1="1244" y1="342.67034800000147" x2="1244" y2="438.5468059999994" stroke="#ef5350" stroke-width="2"/><rect x="1240" y="387.2795333333367" width="8" height="42.61175866666537" fill="#ef5350"/><line x1="1256" y1="403.2589426666694" x2="1256" y2="447.2023193333371" stroke="#26a69a" stroke-width="2"/><rect x="1252" y="423.89901333333455" width="8" height="5.326469999999972" fill="#26a69a"/><line x1="1268" y1="423.89901333333455" x2="1268" y2="475.83209466666483" stroke="#ef5350" stroke-width="2"/><rect x="1264" y="423.89901333333455" width="8" height="37.951098000000115" fill="#ef5350"/><line x1="1280" y1="402.59313400000184" x2="1280" y2="463.18172866666976" stroke="#26a69a" stroke-width="2"/><rect x="1276" y="402.59313400000184" width="8" height="59.25697733333283" fill="#26a69a"/><line x1="1292" y1="401.26151666666675" x2="1292" y2="457.8552586666698" stroke="#ef5350" stroke-width="2"/><rect x="1288" y="401.9273253333343" width="8" height="43.277568000000144" fill="#ef5350"/><line x1="1304" y1="407.25379533333427" x2="1304" y2="447.2023193333371" stroke="#26a69a" stroke-width="2"/><rect x="1300" y="411.9144566666667" width="8" height="32.624627333333024" fill="#26a69a"/><line x1="1316" y1="345.33358333333126" x2="1316" y2="447.86812799999706" stroke="#ef5350" stroke-width="2"/><rect x="1312" y="411.9144566666667" width="8" height="17.31102666666783" fill="#ef5350"/><line x1="1328" y1="306.7166766666635" x2="1328" y2="446.5365106666695" stroke="#26a69a" stroke-width="2"/><rect x="1324" y="326.0251300000011" width="8" height="104.53197066666849" fill="#26a69a"/><line x1="1340" y1="282.74756200000115" x2="1340" y2="326.0251300000011" stroke="#26a69a" stroke-width="2"/><rect x="1336" y="284.7449880000038" width="8" height="41.28014199999734" fill="#26a69a"/><line x1="1352" y1="229.48286333333567" x2="1352" y2="291.4030753333311" stroke="#26a69a" stroke-width="2"/><rect x="1348" y="255.44940400000087" width="8" height="31.958819333332713" fill="#26a69a"/><line x1="1364" y1="256.1152126666684" x2="1364" y2="298.72697200000107" stroke="#ef5350" stroke-width="2"/><rect x="1360" y="256.1152126666684" width="8" height="27.298158000000285" fill="#ef5350"/><line x1="1376" y1="268.09977000000345" x2="1376" y2="324.6935119999989" stroke="#ef5350" stroke-width="2"/><rect x="1372" y="284.07917933333624" width="8" height="25.300731999997424" fill="#ef5350"/><line x1="1388" y1="304.0534413333337" x2="1388" y2="351.3258613333316" stroke="#ef5350" stroke-width="2"/><rect x="1384" y="309.37991133333367" width="8" height="36.61948066666514" fill="#ef5350"/><line x1="1400" y1="295.39792800000373" x2="1400" y2="345.9993919999988" stroke="#26a69a" stroke-width="2"/><rect x="1396" y="300.7243980000037" width="8" height="45.274993999995104" fill="#26a69a"/><line x1="1412" y1="240.13580333333562" x2="1412" y2="306.7166766666635" stroke="#26a69a" stroke-width="2"/><rect x="1408" y="246.79389066666317" width="8" height="51.933081333337896" fill="#26a69a"/><line x1="1424" y1="167.56265133333272" x2="1424" y2="248.7913166666658" stroke="#26a69a" stroke-width="2"/><rect x="1420" y="208.84279266666294" width="8" height="39.28271533333532" fill="#26a69a"/><line x1="1436" y1="167.56265133333272" x2="1436" y2="219.4957326666629" stroke="#26a69a" stroke-width="2"/><rect x="1432" y="176.88397333333046" width="8" height="33.290436666667574" fill="#26a69a"/><line x1="1448" y1="140.93030199999998" x2="1448" y2="179.54720866666776" stroke="#26a69a" stroke-width="2"/><rect x="1444" y="152.91485933333502" width="8" height="23.969113999995443" fill="#26a69a"/><line x1="1460" y1="116.96118733332992" x2="1460" y2="162.9019900000003" stroke="#26a69a" stroke-width="2"/><rect x="1456" y="146.9225806666675" width="8" height="7.989704666662647" fill="#26a69a"/><line x1="1472" y1="104.31082133333507" x2="1472" y2="148.2541980000026" stroke="#26a69a" stroke-width="2"/><rect x="1468" y="112.30052666666484" width="8" height="35.95367133333775" fill="#26a69a"/><line x1="1484" y1="72.35200266666948" x2="1484" y2="113.63214399999993" stroke="#26a69a" stroke-width="2"/><rect x="1480" y="88.33141200000227" width="8" height="23.969114666662563" fill="#26a69a"/><line x1="1496" y1="55.70678400000202" x2="1496" y2="99.65016066666976" stroke="#26a69a" stroke-width="2"/><rect x="1492" y="86.99979466666719" width="8" height="2" fill="#26a69a"/><line x1="1508" y1="88.33141200000227" x2="1508" y2="147.58838933333504" stroke="#ef5350" stroke-width="2"/><rect x="1504" y="88.33141200000227" width="8" height="56.59374199999547" fill="#ef5350"/><line x1="1520" y1="134.93802333333247" x2="1520" y2="198.189852666663" stroke="#26a69a" stroke-width="2"/><rect x="1516" y="140.93030199999998" width="8" height="3.9948519999977634" fill="#26a69a"/><line x1="1532" y1="103.64501266666753" x2="1532" y2="144.2593453333302" stroke="#26a69a" stroke-width="2"/><rect x="1528" y="114.96376133333501" width="8" height="27.298158000000058" fill="#26a69a"/><line x1="1544" y1="82.33913333333476" x2="1544" y2="120.29023133333499" stroke="#26a69a" stroke-width="2"/><rect x="1540" y="111.63471733332995" width="8" height="2.663235333337525" fill="#26a69a"/><line x1="1556" y1="94.98949933332983" x2="1556" y2="136.9354493333351" stroke="#ef5350" stroke-width="2"/><rect x="1552" y="112.96633533333238" width="8" height="15.979409333332569" fill="#ef5350"/><line x1="1568" y1="88.33141200000227" x2="1568" y2="126.94831866667005" stroke="#26a69a" stroke-width="2"/><rect x="1564" y="92.32626466666716" width="8" height="34.62205400000289" fill="#26a69a"/><line x1="1580" y1="71.68619333333481" x2="1580" y2="99.98306466666986" stroke="#26a69a" stroke-width="2"/><rect x="1576" y="90.3288379999974" width="8" height="3.329044000004842" fill="#26a69a"/><line x1="1592" y1="77.67847200000233" x2="1592" y2="147.58838933333504" stroke="#ef5350" stroke-width="2"/><rect x="1588" y="89.66302933332986" width="8" height="49.26984666666749" fill="#ef5350"/><line x1="1604" y1="134.27221466666492" x2="1604" y2="164.89941600000293" stroke="#ef5350" stroke-width="2"/><rect x="1600" y="138.93287599999735" width="8" height="9.987130666672783" fill="#ef5350"/><line x1="1616" y1="104.31082133333507" x2="1616" y2="150.25162399999772" stroke="#26a69a" stroke-width="2"/><rect x="1612" y="106.30824799999732" width="8" height="39.948524000002635" fill="#26a69a"/><line x1="1628" y1="90.3288379999974" x2="1628" y2="118.9586139999999" stroke="#ef5350" stroke-width="2"/><rect x="1624" y="105.64243933332978" width="8" height="2" fill="#ef5350"/><line x1="1640" y1="80.34170733333212" x2="1640" y2="132.94059733332983" stroke="#ef5350" stroke-width="2"/><rect x="1636" y="107.63986533333241" width="8" height="16.645218000000114" fill="#ef5350"/><line x1="1652" y1="118.9586139999999" x2="1652" y2="144.92515399999775" stroke="#ef5350" stroke-width="2"/><rect x="1648" y="125.61670133333496" width="8" height="9.987130666665053" fill="#ef5350"/><line x1="1664" y1="117.62699599999746" x2="1664" y2="159.57294666667008" stroke="#ef5350" stroke-width="2"/><rect x="1660" y="132.94059733332983" width="8" height="16.64521800000034" fill="#ef5350"/><line x1="1676" y1="139.5986846666649" x2="1676" y2="162.9019900000003" stroke="#26a69a" stroke-width="2"/><rect x="1672" y="143.59353666667016" width="8" height="3.994852666664883" fill="#26a69a"/><line x1="1688" y1="104.31082133333507" x2="1688" y2="150.91743266666526" stroke="#26a69a" stroke-width="2"/><rect x="1684" y="127.61412733332986" width="8" height="16.64521800000034" fill="#26a69a"/><line x1="1700" y1="110.96890866667013" x2="1700" y2="135.603832" stroke="#26a69a" stroke-width="2"/><rect x="1696" y="126.2825100000025" width="8" height="2.663234666662447" fill="#26a69a"/><line x1="1712" y1="120.29023133333499" x2="1712" y2="152.91485933333502" stroke="#ef5350" stroke-width="2"/><rect x="1708" y="125.61670133333496" width="8" height="3.994851999997536" fill="#ef5350"/><line x1="1724" y1="94.32369066666979" x2="1724" y2="150.25162399999772" stroke="#26a69a" stroke-width="2"/><rect x="1720" y="109.63729133333504" width="8" height="20.640070666664997" fill="#26a69a"/><line x1="1736" y1="92.32626466666716" x2="1736" y2="119.62442266666744" stroke="#ef5350" stroke-width="2"/><rect x="1732" y="108.9714826666675" width="8" height="7.323896000002605" fill="#ef5350"/><line x1="1748" y1="110.96890866667013" x2="1748" y2="157.57552000000032" stroke="#ef5350" stroke-width="2"/><rect x="1744" y="118.292804666665" width="8" height="34.62205466667001" fill="#ef5350"/><line x1="1760" y1="135.603832" x2="1760" y2="162.23618133333275" stroke="#26a69a" stroke-width="2"/><rect x="1756" y="140.93030199999998" width="8" height="12.650366000002577" fill="#26a69a"/><line x1="1772" y1="117.62699599999746" x2="1772" y2="148.92000666667013" stroke="#26a69a" stroke-width="2"/><rect x="1768" y="118.9586139999999" width="8" height="22.63749666666763" fill="#26a69a"/><line x1="1784" y1="102.31339533333244" x2="1784" y2="130.94317066666758" stroke="#26a69a" stroke-width="2"/><rect x="1780" y="116.96118733332992" width="8" height="2" fill="#26a69a"/><line x1="1796" y1="116.2953786666701" x2="1796" y2="146.9225806666675" stroke="#ef5350" stroke-width="2"/><rect x="1792" y="117.62699599999746" width="8" height="17.97683600000255" fill="#ef5350"/><line x1="1808" y1="104.31082133333507" x2="1808" y2="134.27221466666492" stroke="#26a69a" stroke-width="2"/><rect x="1804" y="118.9586139999999" width="8" height="15.313600666665025" fill="#26a69a"/><line x1="1820" y1="101.64758666666489" x2="1820" y2="137.60125800000264" stroke="#ef5350" stroke-width="2"/><rect x="1816" y="118.9586139999999" width="8" height="15.979409333332569" fill="#ef5350"/><line x1="1832" y1="113.56556266666757" x2="1832" y2="146.25677199999996" stroke="#ef5350" stroke-width="2"/><rect x="1828" y="134.93802333333247" width="8" height="5.326469999999972" fill="#ef5350"/><line x1="1844" y1="115.62957000000256" x2="1844" y2="141.59611066666753" stroke="#26a69a" stroke-width="2"/><rect x="1840" y="129.6115533333325" width="8" height="9.321322666664855" fill="#26a69a"/><line x1="1856" y1="95.65530799999738" x2="1856" y2="129.6115533333325" stroke="#26a69a" stroke-width="2"/><rect x="1852" y="103.64501266666753" width="8" height="25.300731999997424" fill="#26a69a"/><line x1="1868" y1="91.6604553333325" x2="1868" y2="133.60640599999738" stroke="#ef5350" stroke-width="2"/><rect x="1864" y="104.31082133333507" width="8" height="28.629775999994763" fill="#ef5350"/><line x1="1880" y1="130.27736200000004" x2="1880" y2="172.8891213333327" stroke="#ef5350" stroke-width="2"/><rect x="1876" y="132.27478866667002" width="8" height="36.61947999999779" fill="#ef5350"/><line x1="1892" y1="162.23618133333275" x2="1892" y2="351.9916706666663" stroke="#ef5350" stroke-width="2"/><rect x="1888" y="168.8942686666678" width="8" height="83.22609199999533" fill="#ef5350"/><line x1="1904" y1="248.12550799999826" x2="1904" y2="455.85783266666715" stroke="#ef5350" stroke-width="2"/><rect x="1900" y="252.7861693333307" width="8" height="177.10512266667138" fill="#ef5350"/><line x1="1916" y1="373.29754999999903" x2="1916" y2="476.4979033333324" stroke="#26a69a" stroke-width="2"/><rect x="1912" y="400.5957079999992" width="8" height="27.963966666667773" fill="#26a69a"/><line x1="1928" y1="339.34130466666375" x2="1928" y2="443.20746666666463" stroke="#26a69a" stroke-width="2"/><rect x="1924" y="377.2924019999967" width="8" height="21.971688666667433" fill="#26a69a"/><line x1="1940" y1="335.34645199999886" x2="1940" y2="405.25636933333163" stroke="#26a69a" stroke-width="2"/><rect x="1936" y="362.6446099999991" width="8" height="22.637497333334977" fill="#26a69a"/><rect x="75" y="919.2165040116857" width="10" height="100.78349598831426" fill="#ef5350" opacity="0.9"/><rect x="87" y="923.2212037174249" width="10" height="96.77879628257506" fill="#ef5350" opacity="0.9"/><rect x="99" y="938.7905667167686" width="10" height="81.20943328323142" fill="#26a69a" opacity="0.9"/><rect x="111" y="962.0030907974681" width="10" height="57.996909202531924" fill="#26a69a" opacity="0.9"/><rect x="123" y="973.6299934373478" width="10" height="46.37000656265218" fill="#26a69a" opacity="0.9"/><rect x="135" y="970.6848445074835" width="10" height="49.31515549251651" fill="#26a69a" opacity="0.9"/><rect x="147" y="981.4886635476428" width="10" height="38.51133645235723" fill="#26a69a" opacity="0.9"/><rect x="159" y="979.1305544382582" width="10" height="40.86944556174183" fill="#ef5350" opacity="0.9"/><rect x="171" y="983.3869636090353" width="10" height="36.61303639096468" fill="#ef5350" opacity="0.9"/><rect x="183" y="986.4790312678621" width="10" height="33.52096873213793" fill="#ef5350" opacity="0.9"/><rect x="195" y="971.1791604039206" width="10" height="48.820839596079395" fill="#ef5350" opacity="0.9"/><rect x="207" y="988.3119165061287" width="10" height="31.688083493871318" fill="#ef5350" opacity="0.9"/><rect x="219" y="988.8354467895929" width="10" height="31.16455321040712" fill="#26a69a" opacity="0.9"/><rect x="231" y="986.6708300696488" width="10" height="33.32916993035121" fill="#26a69a" opacity="0.9"/><rect x="243" y="991.6601392975845" width="10" height="28.339860702415535" fill="#ef5350" opacity="0.9"/><rect x="255" y="983.061794779516" width="10" height="36.93820522048395" fill="#ef5350" opacity="0.9"/><rect x="267" y="989.9032538052797" width="10" height="30.096746194720254" fill="#ef5350" opacity="0.9"/><rect x="279" y="991.6815208417131" width="10" height="28.31847915828689" fill="#ef5350" opacity="0.9"/><rect x="291" y="992.9119122721595" width="10" height="27.088087727840502" fill="#26a69a" opacity="0.9"/><rect x="303" y="996.1551326290831" width="10" height="23.84486737091686" fill="#26a69a" opacity="0.9"/><rect x="315" y="987.0360099074878" width="10" height="32.96399009251218" fill="#26a69a" opacity="0.9"/><rect x="327" y="995.4715583123399" width="10" height="24.52844168766012" fill="#26a69a" opacity="0.9"/><rect x="339" y="991.9222219870018" width="10" height="28.077778012998238" fill="#26a69a" opacity="0.9"/><rect x="351" y="997.9499121451405" width="10" height="22.0500878548595" fill="#26a69a" opacity="0.9"/><rect x="363" y="996.2330376611554" width="10" height="23.766962338844564" fill="#26a69a" opacity="0.9"/><rect x="375" y="996.3151766623621" width="10" height="23.68482333763791" fill="#ef5350" opacity="0.9"/><rect x="387" y="996.3338061265533" width="10" height="23.666193873446673" fill="#ef5350" opacity="0.9"/><rect x="399" y="994.8442957850838" width="10" height="25.155704214916227" fill="#26a69a" opacity="0.9"/><rect x="411" y="1000.8472172237864" width="10" height="19.1527827762136" fill="#26a69a" opacity="0.9"/><rect x="423" y="999.4823972733238" width="10" height="20.51760272667616" fill="#26a69a" opacity="0.9"/><rect x="435" y="999.2190443931664" width="10" height="20.780955606833572" fill="#26a69a" opacity="0.9"/><rect x="447" y="997.2866608802422" width="10" height="22.713339119757848" fill="#ef5350" opacity="0.9"/><rect x="459" y="999.3629993437348" width="10" height="20.637000656265172" fill="#26a69a" opacity="0.9"/><rect x="471" y="997.1003662383301" width="10" height="22.89963376166986" fill="#26a69a" opacity="0.9"/><rect x="483" y="971.5259224760251" width="10" height="48.47407752397487" fill="#ef5350" opacity="0.9"/><rect x="495" y="998.9285941105489" width="10" height="21.071405889451057" fill="#26a69a" opacity="0.9"/><rect x="507" y="1003.130173381036" width="10" height="16.869826618963998" fill="#26a69a" opacity="0.9"/><rect x="519" y="996.3752990240702" width="10" height="23.62470097592984" fill="#ef5350" opacity="0.9"/><rect x="531" y="998.5189575967992" width="10" height="21.48104240320083" fill="#ef5350" opacity="0.9"/><rect x="543" y="992.5952113809091" width="10" height="27.404788619090937" fill="#26a69a" opacity="0.9"/><rect x="555" y="989.9959777293224" width="10" height="30.004022270677638" fill="#26a69a" opacity="0.9"/><rect x="567" y="987.0713635497598" width="10" height="32.92863645024022" fill="#26a69a" opacity="0.9"/><rect x="579" y="991.0953278150603" width="10" height="28.904672184939727" fill="#26a69a" opacity="0.9"/><rect x="591" y="1001.6182230031543" width="10" height="18.3817769968457" fill="#ef5350" opacity="0.9"/><rect x="603" y="993.5969684780998" width="10" height="26.403031521900175" fill="#ef5350" opacity="0.9"/><rect x="615" y="997.6628490378305" width="10" height="22.337150962169517" fill="#ef5350" opacity="0.9"/><rect x="627" y="998.3559497851261" width="10" height="21.644050214873914" fill="#26a69a" opacity="0.9"/><rect x="639" y="1003.872599868747" width="10" height="16.12740013125301" fill="#ef5350" opacity="0.9"/><rect x="651" y="1002.3308000084679" width="10" height="17.669199991532082" fill="#ef5350" opacity="0.9"/><rect x="663" y="1003.5340940364545" width="10" height="16.465905963545538" fill="#26a69a" opacity="0.9"/><rect x="675" y="997.6780913267143" width="10" height="22.321908673285748" fill="#ef5350" opacity="0.9"/><rect x="687" y="1003.0558672227279" width="10" height="16.944132777272102" fill="#26a69a" opacity="0.9"/><rect x="699" y="1000.3334250693313" width="10" height="19.66657493066873" fill="#26a69a" opacity="0.9"/><rect x="711" y="999.9362787645279" width="10" height="20.063721235472144" fill="#26a69a" opacity="0.9"/><rect x="723" y="997.3584266570697" width="10" height="22.641573342930315" fill="#26a69a" opacity="0.9"/><rect x="735" y="1001.2092215847747" width="10" height="18.790778415225304" fill="#ef5350" opacity="0.9"/><rect x="747" y="1003.65243347376" width="10" height="16.34756652624003" fill="#ef5350" opacity="0.9"/><rect x="759" y="1004.2551389800368" width="10" height="15.744861019963196" fill="#26a69a" opacity="0.9"/><rect x="771" y="1002.5827211719627" width="10" height="17.417278828037297" fill="#26a69a" opacity="0.9"/><rect x="783" y="1002.7182081842624" width="10" height="17.28179181573762" fill="#26a69a" opacity="0.9"/><rect x="795" y="997.8550712365306" width="10" height="22.144928763469352" fill="#ef5350" opacity="0.9"/><rect x="807" y="998.8147003408345" width="10" height="21.18529965916548" fill="#ef5350" opacity="0.9"/><rect x="819" y="995.5801596206363" width="10" height="24.419840379363677" fill="#ef5350" opacity="0.9"/><rect x="831" y="1000.6008002201664" width="10" height="19.399199779833566" fill="#ef5350" opacity="0.9"/><rect x="843" y="997.9183690750895" width="10" height="22.08163092491054" fill="#ef5350" opacity="0.9"/><rect x="855" y="999.961682579334" width="10" height="20.038317420665976" fill="#ef5350" opacity="0.9"/><rect x="867" y="994.8946800177827" width="10" height="25.10531998221734" fill="#ef5350" opacity="0.9"/><rect x="879" y="998.12604526113" width="10" height="21.873954738869998" fill="#26a69a" opacity="0.9"/><rect x="891" y="1001.2291212397062" width="10" height="18.77087876029384" fill="#ef5350" opacity="0.9"/><rect x="903" y="1000.883629358342" width="10" height="19.116370641658023" fill="#26a69a" opacity="0.9"/><rect x="915" y="999.4271439761204" width="10" height="20.57285602387958" fill="#26a69a" opacity="0.9"/><rect x="927" y="999.177974892563" width="10" height="20.822025107436957" fill="#ef5350" opacity="0.9"/><rect x="939" y="1003.4178715837162" width="10" height="16.58212841628381" fill="#26a69a" opacity="0.9"/><rect x="951" y="1001.7706458919914" width="10" height="18.22935410800858" fill="#26a69a" opacity="0.9"/><rect x="963" y="998.9078476617906" width="10" height="21.092152338209416" fill="#26a69a" opacity="0.9"/><rect x="975" y="987.3251899993649" width="10" height="32.67481000063515" fill="#ef5350" opacity="0.9"/><rect x="987" y="965.1550691195462" width="10" height="54.84493088045383" fill="#26a69a" opacity="0.9"/><rect x="999" y="860.0" width="10" height="160.0" fill="#ef5350" opacity="0.9"/><rect x="1011" y="941.800283675932" width="10" height="78.19971632406805" fill="#ef5350" opacity="0.9"/><rect x="1023" y="945.3870906281093" width="10" height="74.61290937189074" fill="#ef5350" opacity="0.9"/><rect x="1035" y="933.3143510383809" width="10" height="86.68564896161911" fill="#ef5350" opacity="0.9"/><rect x="1047" y="946.7440777356733" width="10" height="73.25592226432673" fill="#26a69a" opacity="0.9"/><rect x="1059" y="956.1028431102737" width="10" height="63.89715688972626" fill="#26a69a" opacity="0.9"/><rect x="1071" y="968.2799500391642" width="10" height="51.72004996083581" fill="#26a69a" opacity="0.9"/><rect x="1083" y="977.8766644791159" width="10" height="42.1233355208841" fill="#26a69a" opacity="0.9"/><rect x="1095" y="985.6603933357326" width="10" height="34.33960666426742" fill="#ef5350" opacity="0.9"/><rect x="1107" y="988.1364184855092" width="10" height="31.86358151449076" fill="#26a69a" opacity="0.9"/><rect x="1119" y="988.4357601033089" width="10" height="31.564239896691106" fill="#26a69a" opacity="0.9"/><rect x="1131" y="984.3772889895632" width="10" height="35.622711010436774" fill="#26a69a" opacity="0.9"/><rect x="1143" y="983.7745834832864" width="10" height="36.22541651671361" fill="#26a69a" opacity="0.9"/><rect x="1155" y="991.2833160446261" width="10" height="28.716683955373924" fill="#ef5350" opacity="0.9"/><rect x="1167" y="988.4073925101086" width="10" height="31.592607489891407" fill="#26a69a" opacity="0.9"/><rect x="1179" y="992.4948663124246" width="10" height="27.50513368757538" fill="#ef5350" opacity="0.9"/><rect x="1191" y="981.3360289603489" width="10" height="38.663971039651074" fill="#ef5350" opacity="0.9"/><rect x="1203" y="989.0757245379681" width="10" height="30.924275462031915" fill="#ef5350" opacity="0.9"/><rect x="1215" y="994.1414569087791" width="10" height="25.858543091220895" fill="#ef5350" opacity="0.9"/><rect x="1227" y="989.3113449202955" width="10" height="30.688655079704517" fill="#26a69a" opacity="0.9"/><rect x="1239" y="987.4606770116645" width="10" height="32.53932298833547" fill="#ef5350" opacity="0.9"/><rect x="1251" y="997.6575565764125" width="10" height="22.342443423587497" fill="#26a69a" opacity="0.9"/><rect x="1263" y="997.8106145606198" width="10" height="22.189385439380203" fill="#ef5350" opacity="0.9"/><rect x="1275" y="998.3824120922159" width="10" height="21.617587907784127" fill="#26a69a" opacity="0.9"/><rect x="1287" y="999.1311895336283" width="10" height="20.868810466371656" fill="#ef5350" opacity="0.9"/><rect x="1299" y="998.4357601033089" width="10" height="21.564239896691106" fill="#26a69a" opacity="0.9"/><rect x="1311" y="959.2361919681606" width="10" height="60.7638080318394" fill="#ef5350" opacity="0.9"/><rect x="1323" y="969.5384973643543" width="10" height="50.46150263564573" fill="#26a69a" opacity="0.9"/><rect x="1335" y="986.506128670322" width="10" height="33.49387132967797" fill="#26a69a" opacity="0.9"/><rect x="1347" y="992.2414632597329" width="10" height="27.758536740267118" fill="#26a69a" opacity="0.9"/><rect x="1359" y="998.1999280225248" width="10" height="21.800071977475227" fill="#ef5350" opacity="0.9"/><rect x="1371" y="993.5514533099054" width="10" height="26.448546690094645" fill="#ef5350" opacity="0.9"/><rect x="1383" y="994.9768190189893" width="10" height="25.023180981010682" fill="#ef5350" opacity="0.9"/><rect x="1395" y="994.6802294811271" width="10" height="25.31977051887293" fill="#26a69a" opacity="0.9"/><rect x="1407" y="996.2338844549823" width="10" height="23.76611554501767" fill="#26a69a" opacity="0.9"/><rect x="1419" y="972.3536634417935" width="10" height="47.646336558206485" fill="#26a69a" opacity="0.9"/><rect x="1431" y="996.6433092702754" width="10" height="23.35669072972462" fill="#26a69a" opacity="0.9"/><rect x="1443" y="993.7853801045791" width="10" height="26.214619895420924" fill="#26a69a" opacity="0.9"/><rect x="1455" y="997.1418591358469" width="10" height="22.858140864153143" fill="#26a69a" opacity="0.9"/><rect x="1467" y="1000.942269830853" width="10" height="19.05773016914702" fill="#26a69a" opacity="0.9"/><rect x="1479" y="981.6216101784618" width="10" height="38.378389821538235" fill="#26a69a" opacity="0.9"/><rect x="1491" y="982.391557465546" width="10" height="37.60844253445396" fill="#26a69a" opacity="0.9"/><rect x="1503" y="989.6875330778838" width="10" height="30.312466922116187" fill="#ef5350" opacity="0.9"/><rect x="1515" y="995.1997374939136" width="10" height="24.80026250608637" fill="#26a69a" opacity="0.9"/><rect x="1527" y="998.6324279696001" width="10" height="21.367572030399856" fill="#26a69a" opacity="0.9"/><rect x="1539" y="995.6906662150433" width="10" height="24.30933378495672" fill="#26a69a" opacity="0.9"/><rect x="1551" y="998.3887630459174" width="10" height="21.611236954082642" fill="#ef5350" opacity="0.9"/><rect x="1563" y="997.7890213180345" width="10" height="22.210978681965457" fill="#26a69a" opacity="0.9"/><rect x="1575" y="999.3871329678007" width="10" height="20.612867032199347" fill="#26a69a" opacity="0.9"/><rect x="1587" y="997.3126997904185" width="10" height="22.687300209581508" fill="#ef5350" opacity="0.9"/><rect x="1599" y="999.5188094078794" width="10" height="20.481190592120583" fill="#ef5350" opacity="0.9"/><rect x="1611" y="1000.19158710333" width="10" height="19.808412896670006" fill="#26a69a" opacity="0.9"/><rect x="1623" y="1001.6093316679721" width="10" height="18.39066833202787" fill="#ef5350" opacity="0.9"/><rect x="1635" y="998.5373753625336" width="10" height="21.462624637466433" fill="#ef5350" opacity="0.9"/><rect x="1647" y="1001.1448652539323" width="10" height="18.855134746067733" fill="#ef5350" opacity="0.9"/><rect x="1659" y="1001.9215868916316" width="10" height="18.07841310836841" fill="#ef5350" opacity="0.9"/><rect x="1671" y="1000.722103435866" width="10" height="19.27789656413404" fill="#26a69a" opacity="0.9"/><rect x="1683" y="1001.5299447467028" width="10" height="18.470055253297232" fill="#26a69a" opacity="0.9"/><rect x="1695" y="1002.9502296928256" width="10" height="17.049770307174413" fill="#26a69a" opacity="0.9"/><rect x="1707" y="998.1963291487605" width="10" height="21.80367085123953" fill="#ef5350" opacity="0.9"/><rect x="1719" y="1001.243516734763" width="10" height="18.756483265236966" fill="#26a69a" opacity="0.9"/><rect x="1731" y="999.9062175836738" width="10" height="20.093782416326235" fill="#ef5350" opacity="0.9"/><rect x="1743" y="1002.9855833350974" width="10" height="17.01441666490257" fill="#ef5350" opacity="0.9"/><rect x="1755" y="1002.4628998454601" width="10" height="17.53710015453987" fill="#26a69a" opacity="0.9"/><rect x="1767" y="1003.1629866418274" width="10" height="16.837013358172612" fill="#26a69a" opacity="0.9"/><rect x="1779" y="1001.6224569722887" width="10" height="18.37754302771134" fill="#26a69a" opacity="0.9"/><rect x="1791" y="1003.7578593052057" width="10" height="16.24214069479433" fill="#ef5350" opacity="0.9"/><rect x="1803" y="1003.3776488769397" width="10" height="16.622351123060298" fill="#26a69a" opacity="0.9"/><rect x="1815" y="1001.5574655460762" width="10" height="18.442534453923827" fill="#ef5350" opacity="0.9"/><rect x="1827" y="1003.0931261511104" width="10" height="16.90687384888963" fill="#ef5350" opacity="0.9"/><rect x="1839" y="1002.3456189004382" width="10" height="17.65438109956176" fill="#26a69a" opacity="0.9"/><rect x="1851" y="1001.1812773884878" width="10" height="18.818722611512158" fill="#26a69a" opacity="0.9"/><rect x="1863" y="998.4114147807862" width="10" height="21.58858521921377" fill="#ef5350" opacity="0.9"/><rect x="1875" y="993.9744268264284" width="10" height="26.025573173571615" fill="#ef5350" opacity="0.9"/><rect x="1887" y="929.126955564494" width="10" height="90.87304443550602" fill="#ef5350" opacity="0.9"/><rect x="1899" y="971.4736329572157" width="10" height="48.52636704278427" fill="#ef5350" opacity="0.9"/><rect x="1911" y="941.3654550458327" width="10" height="78.63454495416727" fill="#26a69a" opacity="0.9"/><rect x="1923" y="956.4521455638588" width="10" height="63.547854436141165" fill="#26a69a" opacity="0.9"/><rect x="1935" y="875.3146897559117" width="10" height="144.68531024408833" fill="#26a69a" opacity="0.9"/><rect x="1004" y="98.98435200000222" width="12" height="448.0892773333304" fill="#ff0000" opacity="0.50"/><polyline points="320,252.9668887079349,332,247.6232074341624,344,242.47139644043432,356,236.09815449372786,368,228.81003946257965,380,224.30857233916117,392,223.02587198939818,404,217.74366049834657,416,212.58405460960898,428,206.77445334520144,440,200.63040248692982,452,196.08606504373256,464,190.3892627221087,476,183.0156505898458,488,177.61249434319484,500,172.34346224702222,512,166.24462527111064,524,162.8825819754486,536,160.4114264857269,548,154.68170853470542,560,148.93332588060275,572,140.7521215110212,584,132.71597590680062,596,126.33292251884995,608,125.250145263082,620,125.98256926977842,632,125.50385219646319,644,126.27552398727562,656,128.36873103610742,668,129.5016607786995,680,131.4778477521561,692,131.87079863290205,704,130.00062212818193,716,126.79305017946558,728,123.51049917824639,740,120.79421347872699,752,118.27321130614723,764,115.80207353096444,776,110.52258513119182,788,105.49226369012104,800,101.57512403709461,812,100.12358708117972,824,100.52237129567243,836,101.96115212465884,848,105.03839617627659,860,108.20303146106949,872,112.46130078223655,884,113.39714426329306,896,115.00478404774026,908,112.97174575747704,920,109.35684019326959,932,109.89083268279956,944,109.42281337967574,956,108.17503274034448,968,105.14377768571035,980,105.8253728267573,992,102.25697065277473,1004,101.9452926858396,1016,156.2596144617903,1028,213.26402775114275,1040,273.6534887272228,1052,324.42354078494486,1064,359.8322307419342,1076,387.0494775284139,1088,407.5529324304701,1100,429.14737442121503,1112,442.47098803189147,1124,453.95499285424796,1136,455.2141917570149,1148,451.3440488595203,1160,451.26665017448886,1172,446.757897903899,1184,444.07357848447947,1196,441.96196027961224,1208,442.4610420942524,1220,444.6880822757521,1232,439.03037037647056,1244,438.15998195966586,1256,436.8017944714438,1268,439.1873484582902,1280,435.7021851765542,1292,436.6072050010037,1304,434.25551468344565,1316,433.77646407867206,1328,423.5144322616558,1340,410.29829471293243,1352,395.55078131170376,1364,384.87102791693815,1376,377.68139776612014,1388,374.6640638836349,1400,367.62219094233996,1412,356.1147337732261,1424,342.08883462022186,1436,326.3550383071863,1448,309.83692602396786,1460,294.3212740851777,1472,276.985964807227,1484,259.0188645398712,1496,242.63609598052267,1508,233.33029198237614,1520,224.5302929364318,1532,214.09538516470548,1544,204.33722632362787,1556,197.15708521343913,1568,187.17319754231698,1580,177.9499252049543,1592,174.23401575686057,1604,171.82315774826588,1616,165.58364253414766,1628,159.93836686423037,1640,156.5428160517588,1652,154.54862709445183,1664,154.07597835529327,1676,153.07765057542224,1688,150.65255312379873,1700,148.33159663581523,1712,146.54873536890886,1724,143.03335974647484,1736,140.48688535791985,1748,141.67050192700867,1760,141.6000066958684,1772,139.44368358197607,1784,137.3024934630621,1796,137.14071618086723,1808,135.40908740173268,1820,135.36422415712264,1832,135.83091645961463,1844,135.23859616187406,1856,132.22968344804644,1868,132.29738953236097,1880,135.78280659277584,1892,146.86257364742983,1904,173.8176896810046,1916,195.41559618757378,1928,212.73719674113636,1940,227.01409324197357" fill="none" stroke="#0090ff" stroke-width="2"/><line x1="80" y1="50" x2="80" y2="850" stroke="#666666" stroke-width="0.5" stroke-dasharray="4,4"/><line x1="152" y1="50" x2="152" y2="850" stroke="#666666" stroke-width="0.5" stroke-dasharray="4,4"/><line x1="224" y1="50" x2="224" y2="850" stroke="#666666" stroke-width="0.5" stroke-dasharray="4,4"/><line x1="296" y1="50" x2="296" y2="850" stroke="#666666" stroke-width="0.5" stroke-dasharray="4,4"/><line x1="368" y1="50" x2="368" y2="850" stroke="#666666" stroke-width="0.5" stroke-dasharray="4,4"/><line x1="440" y1="50" x2="440" y2="850" stroke="#666666" stroke-width="0.5" stroke-dasharray="4,4"/><line x1="512" y1="50" x2="512" y2="850" stroke="#666666" stroke-width="0.5" stroke-dasharray="4,4"/><line x1="584" y1="50" x2="584" y2="850" stroke="#666666" stroke-width="0.5" stroke-dasharray="4,4"/><line x1="656" y1="50" x2="656" y2="850" stroke="#666666" stroke-width="0.5" stroke-dasharray="4,4"/><line x1="728" y1="50" x2="728" y2="850" stroke="#666666" stroke-width="0.5" stroke-dasharray="4,4"/><line x1="800" y1="50" x2="800" y2="850" stroke="#666666" stroke-width="0.5" stroke-dasharray="4,4"/><line x1="872" y1="50" x2="872" y2="850" stroke="#666666" stroke-width="0.5" stroke-dasharray="4,4"/><line x1="944" y1="50" x2="944" y2="850" stroke="#666666" stroke-width="0.5" stroke-dasharray="4,4"/><line x1="1016" y1="50" x2="1016" y2="850" stroke="#666666" stroke-width="0.5" stroke-dasharray="4,4"/><line x1="1088" y1="50" x2="1088" y2="850" stroke="#666666" stroke-width="0.5" stroke-dasharray="4,4"/><line x1="1160" y1="50" x2="1160" y2="850" stroke="#666666" stroke-width="0.5" stroke-dasharray="4,4"/><line x1="1232" y1="50" x2="1232" y2="850" stroke="#666666" stroke-width="0.5" stroke-dasharray="4,4"/><line x1="1304" y1="50" x2="1304" y2="850" stroke="#666666" stroke-width="0.5" stroke-dasharray="4,4"/><line x1="1376" y1="50" x2="1376" y2="850" stroke="#666666" stroke-width="0.5" stroke-dasharray="4,4"/><line x1="1448" y1="50" x2="1448" y2="850" stroke="#666666" stroke-width="0.5" stroke-dasharray="4,4"/><line x1="1520" y1="50" x2="1520" y2="850" stroke="#666666" stroke-width="0.5" stroke-dasharray="4,4"/><line x1="1592" y1="50" x2="1592" y2="850" stroke="#666666" stroke-width="0.5" stroke-dasharray="4,4"/><line x1="1664" y1="50" x2="1664" y2="850" stroke="#666666" stroke-width="0.5" stroke-dasharray="4,4"/><line x1="1736" y1="50" x2="1736" y2="850" stroke="#666666" stroke-width="0.5" stroke-dasharray="4,4"/><line x1="1808" y1="50" x2="1808" y2="850" stroke="#666666" stroke-width="0.5" stroke-dasharray="4,4"/><line x1="1880" y1="50" x2="1880" y2="850" stroke="#666666" stroke-width="0.5" stroke-dasharray="4,4"/><text x="80" y="1040" text-anchor="middle" font-size="20" fill="black">09:30</text><text x="152" y="1040" text-anchor="middle" font-size="20" fill="black">10:00</text><text x="224" y="1040" text-anchor="middle" font-size="20" fill="black">10:30</text><text x="296" y="1040" text-anchor="middle" font-size="20" fill="black">11:00</text><text x="368" y="1040" text-anchor="middle" font-size="20" fill="black">11:30</text><text x="440" y="1040" text-anchor="middle" font-size="20" fill="black">12:00</text><text x="512" y="1040" text-anchor="middle" font-size="20" fill="black">12:30</text><text x="584" y="1040" text-anchor="middle" font-size="20" fill="black">13:00</text><text x="656" y="1040" text-anchor="middle" font-size="20" fill="black">13:30</text><text x="728" y="1040" text-anchor="middle" font-size="20" fill="black">14:00</text><text x="800" y="1040" text-anchor="middle" font-size="20" fill="black">14:30</text><text x="872" y="1040" text-anchor="middle" font-size="20" fill="black">15:00</text><text x="944" y="1040" text-anchor="middle" font-size="20" fill="black">15:30</text><text x="1016" y="1040" text-anchor="middle" font-size="20" fill="black">09:30</text><text x="1088" y="1040" text-anchor="middle" font-size="20" fill="black">10:00</text><text x="1160" y="1040" text-anchor="middle" font-size="20" fill="black">10:30</text><text x="1232" y="1040" text-anchor="middle" font-size="20" fill="black">11:00</text><text x="1304" y="1040" text-anchor="middle" font-size="20" fill="black">11:30</text><text x="1376" y="1040" text-anchor="middle" font-size="20" fill="black">12:00</text><text x="1448" y="1040" text-anchor="middle" font-size="20" fill="black">12:30</text><text x="1520" y="1040" text-anchor="middle" font-size="20" fill="black">13:00</text><text x="1592" y="1040" text-anchor="middle" font-size="20" fill="black">13:30</text><text x="1664" y="1040" text-anchor="middle" font-size="20" fill="black">14:00</text><text x="1736" y="1040" text-anchor="middle" font-size="20" fill="black">14:30</text><text x="1808" y="1040" text-anchor="middle" font-size="20" fill="black">15:00</text><text x="1880" y="1040" text-anchor="middle" font-size="20" fill="black">15:30</text><text x="1942" y="50" text-anchor="end" font-size="40" fill="#26a69a" font-weight="bold"> +0.47% (Tue)</text></svg>