<svg xmlns="http://www.w3.org/2000/svg" width="1992" height="1050"><rect width="100%" height="100%" fill="white"/><text x="42" y="854.0" text-anchor="end" font-size="20" fill="black">516</text><text x="42" y="765.1111111111111" text-anchor="end" font-size="20" fill="black">517</text><text x="42" y="676.2222222222222" text-anchor="end" font-size="20" fill="black">518</text><text x="42" y="587.3333333333334" text-anchor="end" font-size="20" fill="black">519</text><text x="42" y="498.44444444444446" text-anchor="end" font-size="20" fill="black">520</text><text x="42" y="409.55555555555554" text-anchor="end" font-size="20" fill="black">521</text><text x="42" y="320.66666666666674" text-anchor="end" font-size="20" fill="black">522</text><text x="42" y="231.77777777777771" text-anchor="end" font-size="20" fill="black">523</text><text x="42" y="142.8888888888889" text-anchor="end" font-size="20" fill="black">524</text><text x="42" y="54.0" text-anchor="end" font-size="20" fill="black">525</text><line x1="80" y1="758.6209342222194" x2="80" y2="881.5530684444436" stroke="#26a69a" stroke-width="2"/><rect x="76" y="784.2686462222243" width="8" height="64.56147999999507" fill="#26a69a"/><line x1="92" y1="639.2264151111098" x2="92" y2="803.7255306666642" stroke="#26a69a" stroke-width="2"/><rect x="88" y="669.2961457777731" width="8" height="117.62571200000207" fill="#26a69a"/><line x1="104" y1="640.9952231111068" x2="104" y2="723.2447804444442" stroke="#26a69a" stroke-width="2"/><rect x="100" y="667.5273386666656" width="8" height="4.42201866666835" fill="#26a69a"/><line x1="116" y1="639.2264151111098" x2="116" y2="710.8631271111133" stroke="#26a69a" stroke-width="2"/><rect x="112" y="642.764031111114" width="8" height="25.64771111110531" fill="#26a69a"/><line x1="128" y1="575.5493386666684" x2="128" y2="669.2961457777731" stroke="#26a69a" stroke-width="2"/><rect x="124" y="581.740165333334" width="8" height="54.8330382222249" fill="#26a69a"/><line x1="140" y1="524.2539155555581" x2="140" y2="586.1621848888919" stroke="#26a69a" stroke-width="2"/><rect x="136" y="556.0924542222185" width="8" height="29.185327111119705" fill="#26a69a"/><line x1="152" y1="460.5768391111067" x2="152" y2="556.0924542222185" stroke="#26a69a" stroke-width="2"/><rect x="148" y="468.5364737777794" width="8" height="83.13396088889124" fill="#26a69a"/><line x1="164" y1="372.13645511111383" x2="164" y2="486.2245502222221" stroke="#26a69a" stroke-width="2"/><rect x="160" y="389.8245315555566" width="8" height="77.82753866666906" fill="#26a69a"/><line x1="176" y1="353.56397422221767" x2="176" y2="426.9694933333287" stroke="#ef5350" stroke-width="2"/><rect x="172" y="389.8245315555566" width="8" height="28.300922666666224" fill="#ef5350"/><line x1="188" y1="342.0667244444404" x2="188" y2="438.46674311111605" stroke="#26a69a" stroke-width="2"/><rect x="184" y="345.60433955555504" width="8" height="75.17432622221855" fill="#26a69a"/><line x1="200" y1="340.29791644444333" x2="200" y2="430.50710844444336" stroke="#ef5350" stroke-width="2"/><rect x="196" y="340.29791644444333" width="8" height="45.10459555555519" fill="#ef5350"/><line x1="212" y1="350.9107626666668" x2="212" y2="399.55297422222634" stroke="#ef5350" stroke-width="2"/><rect x="208" y="381.8648968888839" width="8" height="6.190826666675605" fill="#ef5350"/><line x1="224" y1="356.2171857777786" x2="224" y2="429.62270488888964" stroke="#26a69a" stroke-width="2"/><rect x="220" y="377.44287822222554" width="8" height="7.075230222219261" fill="#26a69a"/><line x1="236" y1="318.18782044444265" x2="236" y2="397.78416622221914" stroke="#26a69a" stroke-width="2"/><rect x="232" y="334.9914933333315" width="8" height="46.873403555552386" fill="#26a69a"/><line x1="248" y1="304.0373591111145" x2="248" y2="354.4483777777815" stroke="#ef5350" stroke-width="2"/><rect x="244" y="338.52910844444625" width="8" height="6.1908275555550745" fill="#ef5350"/><line x1="260" y1="334.1070897777779" x2="260" y2="403.09058933333085" stroke="#ef5350" stroke-width="2"/><rect x="256" y="342.0667244444404" width="8" height="15.034864888891889" fill="#ef5350"/><line x1="272" y1="348.257551111116" x2="272" y2="411.9346275555573" stroke="#26a69a" stroke-width="2"/><rect x="268" y="360.639204444447" width="8" height="7.959634666662566" fill="#26a69a"/><line x1="284" y1="360.639204444447" x2="284" y2="426.08508888888537" stroke="#ef5350" stroke-width="2"/><rect x="280" y="368.59883911110956" width="8" height="34.4917502222213" fill="#ef5350"/><line x1="296" y1="332.3382817777808" x2="296" y2="402.20618577777714" stroke="#26a69a" stroke-width="2"/><rect x="292" y="342.95112800000425" width="8" height="59.25505777777289" fill="#26a69a"/><line x1="308" y1="327.031858666669" x2="308" y2="369.4832435555529" stroke="#ef5350" stroke-width="2"/><rect x="304" y="344.7199360000013" width="8" height="9.728441777780176" fill="#ef5350"/><line x1="320" y1="329.6850702222198" x2="320" y2="362.40801244444407" stroke="#ef5350" stroke-width="2"/><rect x="316" y="351.7951662222206" width="8" height="2" fill="#ef5350"/><line x1="332" y1="342.0667244444404" x2="332" y2="369.4832435555529" stroke="#ef5350" stroke-width="2"/><rect x="328" y="347.37314666666254" width="8" height="13.266057777784454" fill="#ef5350"/><line x1="344" y1="346.4887431111088" x2="344" y2="387.1713199999956" stroke="#ef5350" stroke-width="2"/><rect x="340" y="361.5236088888903" width="8" height="7.075230222219261" fill="#ef5350"/><line x1="356" y1="295.1933199999985" x2="356" y2="374.78966666666463" stroke="#26a69a" stroke-width="2"/><rect x="352" y="296.07772444444186" width="8" height="73.40551911111106" fill="#26a69a"/><line x1="368" y1="289.88689688888667" x2="368" y2="340.29791644444333" stroke="#ef5350" stroke-width="2"/><rect x="364" y="298.73093600000277" width="8" height="30.95413422221702" fill="#ef5350"/><line x1="380" y1="284.58047377777507" x2="380" y2="329.6850702222198" stroke="#26a69a" stroke-width="2"/><rect x="376" y="286.34928177778215" width="8" height="43.33578844443764" fill="#26a69a"/><line x1="392" y1="276.6208400000021" x2="392" y2="344.7199360000013" stroke="#ef5350" stroke-width="2"/><rect x="388" y="283.69607022222124" width="8" height="42.45138488889404" fill="#ef5350"/><line x1="404" y1="320.84103200000357" x2="404" y2="377.44287822222554" stroke="#ef5350" stroke-width="2"/><rect x="400" y="335.87589688888534" width="8" height="33.60734666666758" fill="#ef5350"/><line x1="416" y1="353.56397422221767" x2="416" y2="401.3217813333338" stroke="#26a69a" stroke-width="2"/><rect x="412" y="358.8703973333294" width="8" height="11.497249777777256" fill="#26a69a"/><line x1="428" y1="346.4887431111088" x2="428" y2="394.24655111111457" stroke="#26a69a" stroke-width="2"/><rect x="424" y="357.1015893333323" width="8" height="7.075231111108849" fill="#26a69a"/><line x1="440" y1="349.14195466666973" x2="440" y2="383.6337048888911" stroke="#ef5350" stroke-width="2"/><rect x="436" y="351.7951662222206" width="8" height="18.572480888886048" fill="#ef5350"/><line x1="452" y1="365.94562755555876" x2="452" y2="402.20618577777714" stroke="#ef5350" stroke-width="2"/><rect x="448" y="373.9052622222213" width="8" height="25.647712000005015" fill="#ef5350"/><line x1="464" y1="365.061224000005" x2="464" y2="404.85939733333805" stroke="#26a69a" stroke-width="2"/><rect x="460" y="372.13645511111383" width="8" height="20.7834897777704" fill="#26a69a"/><line x1="476" y1="366.83003200000206" x2="476" y2="495.95299288889186" stroke="#ef5350" stroke-width="2"/><rect x="472" y="374.78966666666463" width="8" height="103.4752488888949" fill="#ef5350"/><line x1="488" y1="455.270416000005" x2="488" y2="523.3695120000043" stroke="#26a69a" stroke-width="2"/><rect x="484" y="472.0740888888839" width="8" height="2" fill="#26a69a"/><line x1="500" y1="466.7676657777823" x2="500" y2="564.0520888888911" stroke="#ef5350" stroke-width="2"/><rect x="496" y="470.3052817777765" width="8" height="84.01836444444496" fill="#ef5350"/><line x1="512" y1="531.3291466666669" x2="512" y2="579.086953777773" stroke="#26a69a" stroke-width="2"/><rect x="508" y="545.479607999995" width="8" height="5.306423111111712" fill="#26a69a"/><line x1="524" y1="494.1841848888847" x2="524" y2="546.3640115555588" stroke="#26a69a" stroke-width="2"/><rect x="520" y="513.6410693333346" width="8" height="32.72294222222422" fill="#26a69a"/><line x1="536" y1="472.95849333333734" x2="536" y2="530.4447431111132" stroke="#26a69a" stroke-width="2"/><rect x="532" y="478.2649155555595" width="8" height="35.37615377777507" fill="#26a69a"/><line x1="548" y1="477.3805119999957" x2="548" y2="518.9474924444463" stroke="#ef5350" stroke-width="2"/><rect x="544" y="480.0337235555566" width="8" height="17.68807733333233" fill="#ef5350"/><line x1="560" y1="473.8428968888911" x2="560" y2="501.2594160000036" stroke="#26a69a" stroke-width="2"/><rect x="556" y="480.9181271111103" width="8" height="16.803673777778613" fill="#26a69a"/><line x1="572" y1="423.43187733333457" x2="572" y2="487.9933582222192" stroke="#26a69a" stroke-width="2"/><rect x="568" y="426.9694933333287" width="8" height="57.48624977778593" fill="#26a69a"/><line x1="584" y1="424.3162817777779" x2="584" y2="498.60620444444265" stroke="#ef5350" stroke-width="2"/><rect x="580" y="431.39151199999714" width="8" height="63.67707733334095" fill="#ef5350"/><line x1="596" y1="497.72180088888894" x2="596" y2="538.4043768888862" stroke="#ef5350" stroke-width="2"/><rect x="592" y="497.72180088888894" width="8" height="5.306423111111769" fill="#ef5350"/><line x1="608" y1="457.92362755555587" x2="608" y2="503.9126275555544" stroke="#26a69a" stroke-width="2"/><rect x="604" y="472.0740888888839" width="8" height="29.185327111119705" fill="#26a69a"/><line x1="620" y1="443.7731662222177" x2="620" y2="475.6117039999986" stroke="#26a69a" stroke-width="2"/><rect x="616" y="449.07958933332947" width="8" height="26.532114666669145" fill="#26a69a"/><line x1="632" y1="399.55297422222634" x2="632" y2="460.5768391111067" stroke="#26a69a" stroke-width="2"/><rect x="628" y="399.55297422222634" width="8" height="49.526615111103126" fill="#26a69a"/><line x1="644" y1="396.01535822222206" x2="644" y2="421.6630702222271" stroke="#ef5350" stroke-width="2"/><rect x="640" y="399.11077155555984" width="8" height="3.0954142222173004" fill="#ef5350"/><line x1="656" y1="388.9401280000028" x2="656" y2="407.5126088888889" stroke="#26a69a" stroke-width="2"/><rect x="652" y="398.66856977777286" width="8" height="6.190827555565193" fill="#26a69a"/><line x1="668" y1="380.0960888888868" x2="668" y2="411.05022400000354" stroke="#ef5350" stroke-width="2"/><rect x="664" y="397.78416622221914" width="8" height="7.9596346666726845" fill="#ef5350"/><line x1="680" y1="386.2869164444419" x2="680" y2="408.3970124444426" stroke="#26a69a" stroke-width="2"/><rect x="676" y="400.43737777778006" width="8" height="3.5376151111045715" fill="#26a69a"/><line x1="692" y1="386.2869164444419" x2="692" y2="403.97499288888463" stroke="#26a69a" stroke-width="2"/><rect x="688" y="394.24655111111457" width="8" height="5.306423111111769" fill="#26a69a"/><line x1="704" y1="379.21168533333304" x2="704" y2="410.1658204444397" stroke="#ef5350" stroke-width="2"/><rect x="700" y="391.59333955555365" width="8" height="10.612846222223482" fill="#ef5350"/><line x1="716" y1="388.9401280000028" x2="716" y2="428.7383004444463" stroke="#ef5350" stroke-width="2"/><rect x="712" y="398.66856977777286" width="8" height="30.069730666673422" fill="#ef5350"/><line x1="728" y1="391.59333955555365" x2="728" y2="448.1951848888861" stroke="#26a69a" stroke-width="2"/><rect x="724" y="391.59333955555365" width="8" height="38.913768888889706" fill="#26a69a"/><line x1="740" y1="364.17682044444115" x2="740" y2="397.78416622221914" stroke="#26a69a" stroke-width="2"/><rect x="736" y="366.83003200000206" width="8" height="27.416519111112507" fill="#26a69a"/><line x1="752" y1="349.14195466666973" x2="752" y2="372.13645511111383" stroke="#26a69a" stroke-width="2"/><rect x="748" y="360.639204444447" width="8" height="5.306423111111769" fill="#26a69a"/><line x1="764" y1="330.5694737777736" x2="764" y2="357.9859928888861" stroke="#26a69a" stroke-width="2"/><rect x="760" y="330.5694737777736" width="8" height="22.994500444444043" fill="#26a69a"/><line x1="776" y1="306.6905706666654" x2="776" y2="351.7951662222206" stroke="#ef5350" stroke-width="2"/><rect x="772" y="329.6850702222198" width="8" height="15.91926933333525" fill="#ef5350"/><line x1="788" y1="344.7199360000013" x2="788" y2="367.71443555555584" stroke="#ef5350" stroke-width="2"/><rect x="784" y="346.4887431111088" width="8" height="2.6532115555609153" fill="#ef5350"/><line x1="800" y1="326.1474551111153" x2="800" y2="348.257551111116" stroke="#26a69a" stroke-width="2"/><rect x="796" y="342.95112800000425" width="8" height="5.306423111111769" fill="#26a69a"/><line x1="812" y1="317.3034159999992" x2="812" y2="348.257551111116" stroke="#ef5350" stroke-width="2"/><rect x="808" y="335.87589688888534" width="8" height="8.84403911111599" fill="#ef5350"/><line x1="824" y1="330.5694737777736" x2="824" y2="364.17682044444115" stroke="#26a69a" stroke-width="2"/><rect x="820" y="341.18231999999705" width="8" height="2" fill="#26a69a"/><line x1="836" y1="334.9914933333315" x2="836" y2="372.13645511111383" stroke="#ef5350" stroke-width="2"/><rect x="832" y="339.41351288888956" width="8" height="28.30092266666628" fill="#ef5350"/><line x1="848" y1="357.1015893333323" x2="848" y2="383.6337048888911" stroke="#26a69a" stroke-width="2"/><rect x="844" y="362.40801244444407" width="8" height="3.5376151111146896" fill="#26a69a"/><line x1="860" y1="351.7951662222206" x2="860" y2="452.61720444444416" stroke="#ef5350" stroke-width="2"/><rect x="856" y="357.9859928888861" width="8" height="38.913769777779294" fill="#ef5350"/><line x1="872" y1="381.8648968888839" x2="872" y2="418.1254542222228" stroke="#ef5350" stroke-width="2"/><rect x="868" y="394.24655111111457" width="8" height="10.612846222223482" fill="#ef5350"/><line x1="884" y1="369.4832435555529" x2="884" y2="408.3970124444426" stroke="#26a69a" stroke-width="2"/><rect x="880" y="381.8648968888839" width="8" height="25.647712000005015" fill="#26a69a"/><line x1="896" y1="353.56397422221767" x2="896" y2="383.6337048888911" stroke="#26a69a" stroke-width="2"/><rect x="892" y="358.8703973333294" width="8" height="20.341288000003658" fill="#26a69a"/><line x1="908" y1="352.6795697777743" x2="908" y2="384.5181084444448" stroke="#ef5350" stroke-width="2"/><rect x="904" y="360.639204444447" width="8" height="10.612846222223482" fill="#ef5350"/><line x1="920" y1="366.83003200000206" x2="920" y2="406.1860026666687" stroke="#ef5350" stroke-width="2"/><rect x="916" y="369.4832435555529" width="8" height="29.185326222219942" fill="#ef5350"/><line x1="932" y1="387.1713199999956" x2="932" y2="411.9346275555573" stroke="#ef5350" stroke-width="2"/><rect x="928" y="397.78416622221914" width="8" height="9.728442666669764" fill="#ef5350"/><line x1="944" y1="388.9401280000028" x2="944" y2="418.1254542222228" stroke="#26a69a" stroke-width="2"/><rect x="940" y="392.4777431111074" width="8" height="18.572480888896166" fill="#26a69a"/><line x1="956" y1="353.56397422221767" x2="956" y2="395.1309546666683" stroke="#26a69a" stroke-width="2"/><rect x="952" y="353.56397422221767" width="8" height="35.376153777785134" fill="#26a69a"/><line x1="968" y1="338.52910844444625" x2="968" y2="363.2924159999978" stroke="#26a69a" stroke-width="2"/><rect x="964" y="354.4483777777815" width="8" height="2" fill="#26a69a"/><line x1="980" y1="351.7951662222206" x2="980" y2="378.3272817777793" stroke="#ef5350" stroke-width="2"/><rect x="976" y="354.4483777777815" width="8" height="10.612846222223482" fill="#ef5350"/><line x1="992" y1="290.77130133333014" x2="992" y2="389.8245315555566" stroke="#26a69a" stroke-width="2"/><rect x="988" y="304.9217626666683" width="8" height="71.63671111111393" fill="#26a69a"/><line x1="1004" y1="289.00249333333306" x2="1004" y2="333.2226853333344" stroke="#ef5350" stroke-width="2"/><rect x="1000" y="303.15295466667123" width="8" height="22.110095999990563" fill="#ef5350"/><line x1="1016" y1="545.479607999995" x2="1016" y2="635.688799999995" stroke="#ef5350" stroke-width="2"/><rect x="1012" y="566.705300444442" width="8" height="11.497249777777256" fill="#ef5350"/><line x1="1028" y1="491.53097333333386" x2="1028" y2="586.1621848888919" stroke="#26a69a" stroke-width="2"/><rect x="1024" y="535.7511662222249" width="8" height="43.33578755554811" fill="#26a69a"/><line x1="1040" y1="508.3346462222229" x2="1040" y2="566.705300444442" stroke="#26a69a" stroke-width="2"/><rect x="1036" y="525.1383200000014" width="8" height="6.190826666665544" fill="#26a69a"/><line x1="1052" y1="486.2245502222221" x2="1052" y2="540.1731848888934" stroke="#26a69a" stroke-width="2"/><rect x="1048" y="507.4502426666691" width="8" height="15.919269333335194" fill="#26a69a"/><line x1="1064" y1="488.8777617777729" x2="1064" y2="585.2777813333382" stroke="#ef5350" stroke-width="2"/><rect x="1060" y="506.5658391111154" width="8" height="61.02386488888038" fill="#ef5350"/><line x1="1076" y1="519.8318968888897" x2="1076" y2="605.6190693333317" stroke="#26a69a" stroke-width="2"/><rect x="1072" y="541.9419928888905" width="8" height="25.64771111110531" fill="#26a69a"/><line x1="1088" y1="449.07958933332947" x2="1088" y2="672.8337617777772" stroke="#ef5350" stroke-width="2"/><rect x="1084" y="530.4447431111132" width="8" height="110.55047999999363" fill="#ef5350"/><line x1="1100" y1="580.8557617777801" x2="1100" y2="651.6080693333304" stroke="#26a69a" stroke-width="2"/><rect x="1096" y="613.5787040000044" width="8" height="23.87890399999776" fill="#26a69a"/><line x1="1112" y1="550.7860311111067" x2="1112" y2="661.3365120000001" stroke="#26a69a" stroke-width="2"/><rect x="1108" y="554.3236462222214" width="8" height="54.833038222225014" fill="#26a69a"/><line x1="1124" y1="550.7860311111067" x2="1124" y2="654.2612808888912" stroke="#ef5350" stroke-width="2"/><rect x="1120" y="559.6300693333332" width="8" height="55.717442666668376" fill="#ef5350"/><line x1="1136" y1="558.7456657777794" x2="1136" y2="652.4924728888841" stroke="#26a69a" stroke-width="2"/><rect x="1132" y="571.1273191111104" width="8" height="47.75780800000575" fill="#26a69a"/><line x1="1148" y1="504.79703111110814" x2="1148" y2="573.7805306666713" stroke="#26a69a" stroke-width="2"/><rect x="1144" y="504.79703111110814" width="8" height="61.908269333333806" fill="#26a69a"/><line x1="1160" y1="495.95299288889186" x2="1160" y2="579.086953777773" stroke="#ef5350" stroke-width="2"/><rect x="1156" y="505.6814346666619" width="8" height="2.653211555560972" fill="#ef5350"/><line x1="1172" y1="472.0740888888839" x2="1172" y2="525.1383200000014" stroke="#26a69a" stroke-width="2"/><rect x="1168" y="477.3805119999957" width="8" height="34.49175022223142" fill="#26a69a"/><line x1="1184" y1="456.1548195555588" x2="1184" y2="503.9126275555544" stroke="#26a69a" stroke-width="2"/><rect x="1180" y="472.95849333333734" width="8" height="7.075230222219261" fill="#26a69a"/><line x1="1196" y1="465.88326222221843" x2="1196" y2="517.1786853333288" stroke="#ef5350" stroke-width="2"/><rect x="1192" y="469.4208773333331" width="8" height="29.18532711110953" fill="#ef5350"/><line x1="1208" y1="485.3401466666684" x2="1208" y2="528.6759351111161" stroke="#26a69a" stroke-width="2"/><rect x="1204" y="492.4153777777772" width="8" height="7.075230222219204" fill="#26a69a"/><line x1="1220" y1="457.92362755555587" x2="1220" y2="514.0832720000011" stroke="#26a69a" stroke-width="2"/><rect x="1216" y="481.8025315555537" width="8" height="9.728441777780176" fill="#26a69a"/><line x1="1232" y1="449.07958933332947" x2="1232" y2="513.6410693333346" stroke="#26a69a" stroke-width="2"/><rect x="1228" y="478.2649155555595" width="8" height="6.190827555555131" fill="#26a69a"/><line x1="1244" y1="396.89976266666537" x2="1244" y2="481.8025315555537" stroke="#26a69a" stroke-width="2"/><rect x="1240" y="411.9346275555573" width="8" height="69.86790399999637" fill="#26a69a"/><line x1="1256" y1="404.85939733333805" x2="1256" y2="476.496108444442" stroke="#ef5350" stroke-width="2"/><rect x="1252" y="411.05022400000354" width="8" height="47.7578071111061" fill="#ef5350"/><line x1="1268" y1="451.7328008888904" x2="1268" y2="531.3291466666669" stroke="#ef5350" stroke-width="2"/><rect x="1264" y="460.5768391111067" width="8" height="53.06423022222788" fill="#ef5350"/><line x1="1280" y1="501.2594160000036" x2="1280" y2="541.9419928888905" stroke="#26a69a" stroke-width="2"/><rect x="1276" y="503.9126275555544" width="8" height="7.075230222219261" fill="#26a69a"/><line x1="1292" y1="419.0098586666661" x2="1292" y2="517.1786853333288" stroke="#26a69a" stroke-width="2"/><rect x="1288" y="419.0098586666661" width="8" height="84.0183653333346" fill="#26a69a"/><line x1="1304" y1="396.89976266666537" x2="1304" y2="436.69793511110885" stroke="#26a69a" stroke-width="2"/><rect x="1300" y="400.43737777778006" width="8" height="21.22569244444702" fill="#26a69a"/><line x1="1316" y1="353.56397422221767" x2="1316" y2="402.20618577777714" stroke="#26a69a" stroke-width="2"/><rect x="1312" y="362.40801244444407" width="8" height="38.913768888889706" fill="#26a69a"/><line x1="1328" y1="339.41351288888956" x2="1328" y2="385.4025119999985" stroke="#26a69a" stroke-width="2"/><rect x="1324" y="342.95112800000425" width="8" height="14.150461333328053" fill="#26a69a"/><line x1="1340" y1="294.3089164444448" x2="1340" y2="361.5236088888903" stroke="#26a69a" stroke-width="2"/><rect x="1336" y="296.07772444444186" width="8" height="45.988999999998555" fill="#26a69a"/><line x1="1352" y1="233.28505155555433" x2="1352" y2="296.07772444444186" stroke="#26a69a" stroke-width="2"/><rect x="1348" y="250.97312799999702" width="8" height="45.10459644444484" fill="#26a69a"/><line x1="1364" y1="213.82816711111445" x2="1364" y2="266.89239733333227" stroke="#26a69a" stroke-width="2"/><rect x="1360" y="231.51624355555725" width="8" height="15.91926933333525" fill="#26a69a"/><line x1="1376" y1="181.98962844444395" x2="1376" y2="233.28505155555433" stroke="#26a69a" stroke-width="2"/><rect x="1372" y="182.87403199999767" width="8" height="45.98899999999867" fill="#26a69a"/><line x1="1388" y1="165.18595555555498" x2="1388" y2="192.60247466666738" stroke="#26a69a" stroke-width="2"/><rect x="1384" y="181.10522488889023" width="8" height="2" fill="#26a69a"/><line x1="1400" y1="166.95476266666242" x2="1400" y2="198.79330133333292" stroke="#ef5350" stroke-width="2"/><rect x="1396" y="179.33641688889315" width="8" height="14.150461333328053" fill="#ef5350"/><line x1="1412" y1="192.60247466666738" x2="1412" y2="233.28505155555433" stroke="#ef5350" stroke-width="2"/><rect x="1408" y="192.60247466666738" width="8" height="22.994499555554626" fill="#ef5350"/><line x1="1424" y1="213.82816711111445" x2="1424" y2="254.51074311111165" stroke="#ef5350" stroke-width="2"/><rect x="1420" y="220.01899377777988" width="8" height="3.5376151111046283" fill="#ef5350"/><line x1="1436" y1="211.17495555555354" x2="1436" y2="239.47587822221976" stroke="#ef5350" stroke-width="2"/><rect x="1432" y="224.44101244444835" width="8" height="14.150462222217698" fill="#ef5350"/><line x1="1448" y1="227.09422399999926" x2="1448" y2="253.62633955555793" stroke="#ef5350" stroke-width="2"/><rect x="1444" y="239.47587822221976" width="8" height="8.844038222226345" fill="#ef5350"/><line x1="1460" y1="222.6722053333308" x2="1460" y2="256.27955111110873" stroke="#ef5350" stroke-width="2"/><rect x="1456" y="244.7823013333316" width="8" height="9.728441777780063" fill="#ef5350"/><line x1="1472" y1="241.24468622222696" x2="1472" y2="262.4703777777743" stroke="#ef5350" stroke-width="2"/><rect x="1468" y="243.89789777777776" width="8" height="3.0954133333378877" fill="#ef5350"/><line x1="1484" y1="222.6722053333308" x2="1484" y2="247.4355128888925" stroke="#26a69a" stroke-width="2"/><rect x="1480" y="234.16945511110794" width="8" height="9.728442666669821" fill="#26a69a"/><line x1="1496" y1="213.38596444444806" x2="1496" y2="285.4648782222183" stroke="#26a69a" stroke-width="2"/><rect x="1492" y="214.71257066666817" width="8" height="15.034864888892002" fill="#26a69a"/><line x1="1508" y1="216.48137866666525" x2="1508" y2="253.62633955555793" stroke="#ef5350" stroke-width="2"/><rect x="1504" y="220.01899377777988" width="8" height="22.110096000000794" fill="#ef5350"/><line x1="1520" y1="223.5566088888845" x2="1520" y2="241.24468622222696" stroke="#26a69a" stroke-width="2"/><rect x="1516" y="233.28505155555433" width="8" height="2" fill="#26a69a"/><line x1="1532" y1="223.5566088888845" x2="1532" y2="263.3547822222175" stroke="#ef5350" stroke-width="2"/><rect x="1528" y="232.40064711111086" width="8" height="17.68807733333233" fill="#ef5350"/><line x1="1544" y1="252.74193600000422" x2="1544" y2="281.04285866667044" stroke="#ef5350" stroke-width="2"/><rect x="1540" y="252.74193600000422" width="8" height="3.5376151111045147" fill="#ef5350"/><line x1="1556" y1="232.40064711111086" x2="1556" y2="264.23918577778136" stroke="#26a69a" stroke-width="2"/><rect x="1552" y="236.82266666666897" width="8" height="16.80367288888897" fill="#26a69a"/><line x1="1568" y1="241.24468622222696" x2="1568" y2="266.00799377777844" stroke="#ef5350" stroke-width="2"/><rect x="1564" y="242.12908977778068" width="8" height="23.87890399999776" fill="#ef5350"/><line x1="1580" y1="267.776800888886" x2="1580" y2="311.11258933333374" stroke="#ef5350" stroke-width="2"/><rect x="1576" y="267.776800888886" width="8" height="7.959634666672628" fill="#ef5350"/><line x1="1592" y1="252.74193600000422" x2="1592" y2="295.1933199999985" stroke="#26a69a" stroke-width="2"/><rect x="1588" y="254.51074311111165" width="8" height="21.225692444446963" fill="#26a69a"/><line x1="1604" y1="216.48137866666525" x2="1604" y2="255.395147555555" stroke="#26a69a" stroke-width="2"/><rect x="1600" y="222.6722053333308" width="8" height="30.95413422222714" fill="#26a69a"/><line x1="1616" y1="204.98412799999846" x2="1616" y2="254.51074311111165" stroke="#ef5350" stroke-width="2"/><rect x="1612" y="222.6722053333308" width="8" height="18.572480888896166" fill="#ef5350"/><line x1="1628" y1="241.24468622222696" x2="1628" y2="260.70157066666684" stroke="#ef5350" stroke-width="2"/><rect x="1624" y="242.12908977778068" width="8" height="3.5376151111045147" fill="#ef5350"/><line x1="1640" y1="243.89789777777776" x2="1640" y2="281.04285866667044" stroke="#ef5350" stroke-width="2"/><rect x="1636" y="243.89789777777776" width="8" height="17.688076444442686" fill="#ef5350"/><line x1="1652" y1="229.74743555556017" x2="1652" y2="273.0832239999978" stroke="#26a69a" stroke-width="2"/><rect x="1648" y="231.51624355555725" width="8" height="28.30092266666611" fill="#26a69a"/><line x1="1664" y1="216.48137866666525" x2="1664" y2="238.59147466666604" stroke="#26a69a" stroke-width="2"/><rect x="1660" y="228.86303199999634" width="8" height="3.537615111114519" fill="#26a69a"/><line x1="1676" y1="179.33641688889315" x2="1676" y2="226.20982044444543" stroke="#26a69a" stroke-width="2"/><rect x="1672" y="189.0648586666632" width="8" height="37.144961777782214" fill="#26a69a"/><line x1="1688" y1="179.33641688889315" x2="1688" y2="202.33091644444755" stroke="#ef5350" stroke-width="2"/><rect x="1684" y="187.29605155555578" width="8" height="5.306423111111599" fill="#ef5350"/><line x1="1700" y1="189.94926311110646" x2="1700" y2="208.52174400000263" stroke="#ef5350" stroke-width="2"/><rect x="1696" y="192.60247466666738" width="8" height="7.959634666662623" fill="#ef5350"/><line x1="1712" y1="189.0648586666632" x2="1712" y2="205.8685324444417" stroke="#26a69a" stroke-width="2"/><rect x="1708" y="194.37128177777493" width="8" height="7.075231111119024" fill="#26a69a"/><line x1="1724" y1="197.9088977777792" x2="1724" y2="222.6722053333308" stroke="#ef5350" stroke-width="2"/><rect x="1720" y="197.9088977777792" width="8" height="18.572480888886048" fill="#ef5350"/><line x1="1736" y1="208.52174400000263" x2="1736" y2="235.05385866666177" stroke="#ef5350" stroke-width="2"/><rect x="1732" y="215.596974222222" width="8" height="7.075231111108792" fill="#ef5350"/><line x1="1748" y1="211.17495555555354" x2="1748" y2="235.05385866666177" stroke="#26a69a" stroke-width="2"/><rect x="1744" y="212.9437626666711" width="8" height="8.84403822221634" fill="#26a69a"/><line x1="1760" y1="203.21532088889103" x2="1760" y2="227.9786284444425" stroke="#ef5350" stroke-width="2"/><rect x="1756" y="212.05935911110726" width="8" height="15.034864888892002" fill="#ef5350"/><line x1="1772" y1="214.71257066666817" x2="1772" y2="236.82266666666897" stroke="#26a69a" stroke-width="2"/><rect x="1768" y="216.48137866666525" width="8" height="11.497249777777256" fill="#26a69a"/><line x1="1784" y1="217.36578222221908" x2="1784" y2="247.4355128888925" stroke="#ef5350" stroke-width="2"/><rect x="1780" y="217.36578222221908" width="8" height="19.456884444449884" fill="#ef5350"/><line x1="1796" y1="226.20982044444543" x2="1796" y2="243.0134933333345" stroke="#26a69a" stroke-width="2"/><rect x="1792" y="233.28505155555433" width="8" height="6.19082666666543" fill="#26a69a"/><line x1="1808" y1="201.44651288889395" x2="1808" y2="233.28505155555433" stroke="#26a69a" stroke-width="2"/><rect x="1804" y="204.98412799999846" width="8" height="28.30092355555587" fill="#26a69a"/><line x1="1820" y1="201.44651288889395" x2="1820" y2="223.5566088888845" stroke="#26a69a" stroke-width="2"/><rect x="1816" y="208.52174400000263" width="8" height="2" fill="#26a69a"/><line x1="1832" y1="206.75293599999554" x2="1832" y2="227.09422399999926" stroke="#ef5350" stroke-width="2"/><rect x="1828" y="209.40614755555646" width="8" height="12.381653333330974" fill="#ef5350"/><line x1="1844" y1="178.4520133333292" x2="1844" y2="220.01899377777988" stroke="#26a69a" stroke-width="2"/><rect x="1840" y="182.87403199999767" width="8" height="37.144961777782214" fill="#26a69a"/><line x1="1856" y1="155.45751288888528" x2="1856" y2="184.64284000000487" stroke="#26a69a" stroke-width="2"/><rect x="1852" y="158.1107244444462" width="8" height="25.64771199999484" fill="#26a69a"/><line x1="1868" y1="143.0758595555542" x2="1868" y2="177.56760888888596" stroke="#ef5350" stroke-width="2"/><rect x="1864" y="160.76393599999687" width="8" height="2" fill="#ef5350"/><line x1="1880" y1="155.45751288888528" x2="1880" y2="187.29605155555578" stroke="#ef5350" stroke-width="2"/><rect x="1876" y="156.34191733332852" width="8" height="25.647711111115427" fill="#ef5350"/><line x1="1892" y1="182.87403199999767" x2="1892" y2="214.71257066666817" stroke="#ef5350" stroke-width="2"/><rect x="1888" y="182.87403199999767" width="8" height="30.954135111116784" fill="#ef5350"/><line x1="1904" y1="212.9437626666711" x2="1904" y2="275.7364355555586" stroke="#ef5350" stroke-width="2"/><rect x="1900" y="212.9437626666711" width="8" height="49.52661511110318" fill="#ef5350"/><line x1="1916" y1="235.05385866666177" x2="1916" y2="272.198820444444" stroke="#26a69a" stroke-width="2"/><rect x="1912" y="251.85753155555074" width="8" height="12.381654222230623" fill="#26a69a"/><line x1="1928" y1="195.2556862222183" x2="1928" y2="275.7364355555586" stroke="#26a69a" stroke-width="2"/><rect x="1924" y="199.2355031111099" width="8" height="52.62202844444084" fill="#26a69a"/><line x1="1940" y1="107.69970577777917" x2="1940" y2="202.33091644444755" stroke="#26a69a" stroke-width="2"/><rect x="1936" y="121.85016711110723" width="8" height="76.9431342222257" fill="#26a69a"/><rect x="75" y="927.6386353111902" width="10" height="92.36136468880977" fill="#26a69a" opacity="0.9"/><rect x="87" y="949.9158498924896" width="10" height="70.08415010751037" fill="#26a69a" opacity="0.9"/><rect x="99" y="982.0150013125411" width="10" height="37.98499868745887" fill="#26a69a" opacity="0.9"/><rect x="111" y="986.3959390862944" width="10" height="33.60406091370555" fill="#26a69a" opacity="0.9"/><rect x="123" y="982.2304645215714" width="10" height="37.769535478428566" fill="#26a69a" opacity="0.9"/><rect x="135" y="990.0349224420934" width="10" height="29.965077557906625" fill="#26a69a" opacity="0.9"/><rect x="147" y="977.0566929273206" width="10" height="42.94330707267943" fill="#26a69a" opacity="0.9"/><rect x="159" y="984.8589386999059" width="10" height="35.141061300094066" fill="#26a69a" opacity="0.9"/><rect x="171" y="968.1563369189794" width="10" height="51.84366308102062" fill="#ef5350" opacity="0.9"/><rect x="183" y="991.6462509991535" width="10" height="28.353749000846506" fill="#26a69a" opacity="0.9"/><rect x="195" y="997.5248129260228" width="10" height="22.475187073977168" fill="#ef5350" opacity="0.9"/><rect x="207" y="999.0994198273345" width="10" height="20.900580172665514" fill="#ef5350" opacity="0.9"/><rect x="219" y="984.6620575335436" width="10" height="35.33794246645641" fill="#26a69a" opacity="0.9"/><rect x="231" y="992.570043977501" width="10" height="27.429956022499027" fill="#26a69a" opacity="0.9"/><rect x="243" y="995.4909641130614" width="10" height="24.50903588693859" fill="#ef5350" opacity="0.9"/><rect x="255" y="1001.3022767426564" width="10" height="18.69772325734357" fill="#ef5350" opacity="0.9"/><rect x="267" y="996.9487696033176" width="10" height="23.0512303966824" fill="#26a69a" opacity="0.9"/><rect x="279" y="995.982060954999" width="10" height="24.017939045000958" fill="#ef5350" opacity="0.9"/><rect x="291" y="998.7773310877574" width="10" height="21.222668912242625" fill="#26a69a" opacity="0.9"/><rect x="303" y="1002.8653804746974" width="10" height="17.134619525302583" fill="#ef5350" opacity="0.9"/><rect x="315" y="1000.8443621197687" width="10" height="19.155637880231325" fill="#ef5350" opacity="0.9"/><rect x="327" y="1003.8679259195899" width="10" height="16.13207408041012" fill="#ef5350" opacity="0.9"/><rect x="339" y="1002.5888619826154" width="10" height="17.411138017384587" fill="#ef5350" opacity="0.9"/><rect x="351" y="1001.7141786884617" width="10" height="18.285821311538257" fill="#26a69a" opacity="0.9"/><rect x="363" y="1001.2434336075413" width="10" height="18.756566392458694" fill="#ef5350" opacity="0.9"/><rect x="375" y="999.1618023991482" width="10" height="20.8381976008518" fill="#26a69a" opacity="0.9"/><rect x="387" y="993.7707978775178" width="10" height="26.229202122482207" fill="#ef5350" opacity="0.9"/><rect x="399" y="1004.0311824373151" width="10" height="15.968817562684876" fill="#ef5350" opacity="0.9"/><rect x="411" y="981.8415689143073" width="10" height="38.158431085692655" fill="#26a69a" opacity="0.9"/><rect x="423" y="990.1167719157496" width="10" height="29.88322808425039" fill="#26a69a" opacity="0.9"/><rect x="435" y="990.3716113580524" width="10" height="29.628388641947595" fill="#ef5350" opacity="0.9"/><rect x="447" y="988.7961195975661" width="10" height="31.203880402433924" fill="#ef5350" opacity="0.9"/><rect x="459" y="1002.5269218403892" width="10" height="17.47307815961085" fill="#26a69a" opacity="0.9"/><rect x="471" y="964.0355477425768" width="10" height="55.964452257423204" fill="#ef5350" opacity="0.9"/><rect x="483" y="994.5645165571899" width="10" height="25.435483442810096" fill="#26a69a" opacity="0.9"/><rect x="495" y="994.3211802841578" width="10" height="25.678819715842224" fill="#ef5350" opacity="0.9"/><rect x="507" y="985.5672684692231" width="10" height="34.43273153077689" fill="#26a69a" opacity="0.9"/><rect x="519" y="997.626571731109" width="10" height="22.37342826889096" fill="#26a69a" opacity="0.9"/><rect x="531" y="1002.0721042246126" width="10" height="17.927895775387356" fill="#26a69a" opacity="0.9"/><rect x="543" y="1003.3432044290151" width="10" height="16.656795570984855" fill="#ef5350" opacity="0.9"/><rect x="555" y="1005.6026923315154" width="10" height="14.397307668484586" fill="#26a69a" opacity="0.9"/><rect x="567" y="998.096874382442" width="10" height="21.903125617557976" fill="#26a69a" opacity="0.9"/><rect x="579" y="1001.0191218067645" width="10" height="18.980878193235526" fill="#ef5350" opacity="0.9"/><rect x="591" y="1000.4218418638674" width="10" height="19.57815813613263" fill="#ef5350" opacity="0.9"/><rect x="603" y="1002.4406480708595" width="10" height="17.559351929140462" fill="#26a69a" opacity="0.9"/><rect x="615" y="1007.2348150791802" width="10" height="12.76518492081982" fill="#26a69a" opacity="0.9"/><rect x="627" y="1004.6766872052312" width="10" height="15.323312794768754" fill="#26a69a" opacity="0.9"/><rect x="639" y="1005.067794960432" width="10" height="14.932205039567975" fill="#ef5350" opacity="0.9"/><rect x="651" y="1004.6572203033887" width="10" height="15.342779696611274" fill="#26a69a" opacity="0.9"/><rect x="663" y="992.1855726661101" width="10" height="27.814427333889853" fill="#ef5350" opacity="0.9"/><rect x="675" y="1004.8226889690505" width="10" height="15.177311030949454" fill="#26a69a" opacity="0.9"/><rect x="687" y="1007.8935927347163" width="10" height="12.106407265283678" fill="#26a69a" opacity="0.9"/><rect x="699" y="1003.5936195754446" width="10" height="16.406380424555437" fill="#ef5350" opacity="0.9"/><rect x="711" y="1004.0156974017585" width="10" height="15.98430259824147" fill="#ef5350" opacity="0.9"/><rect x="723" y="1002.067237499152" width="10" height="17.932762500847957" fill="#26a69a" opacity="0.9"/><rect x="735" y="995.3201862923515" width="10" height="24.679813707648464" fill="#26a69a" opacity="0.9"/><rect x="747" y="1002.5539100452163" width="10" height="17.4460899547837" fill="#26a69a" opacity="0.9"/><rect x="759" y="1004.0515341983323" width="10" height="15.94846580166768" fill="#26a69a" opacity="0.9"/><rect x="771" y="998.5132006241207" width="10" height="21.486799375879286" fill="#ef5350" opacity="0.9"/><rect x="783" y="998.9804062683424" width="10" height="21.01959373165755" fill="#ef5350" opacity="0.9"/><rect x="795" y="1005.1253108067851" width="10" height="14.874689193214863" fill="#26a69a" opacity="0.9"/><rect x="807" y="1000.2895554172553" width="10" height="19.710444582744685" fill="#ef5350" opacity="0.9"/><rect x="819" y="1000.6381899320724" width="10" height="19.36181006792765" fill="#26a69a" opacity="0.9"/><rect x="831" y="1000.3382226718618" width="10" height="19.661777328138214" fill="#ef5350" opacity="0.9"/><rect x="843" y="1005.4721756032527" width="10" height="14.527824396747292" fill="#26a69a" opacity="0.9"/><rect x="855" y="959.9882018776711" width="10" height="60.011798122328855" fill="#ef5350" opacity="0.9"/><rect x="867" y="996.8009981211491" width="10" height="23.199001878850936" fill="#ef5350" opacity="0.9"/><rect x="879" y="1004.8744532307683" width="10" height="15.125546769231732" fill="#26a69a" opacity="0.9"/><rect x="891" y="1001.8999991151409" width="10" height="18.100000884859128" fill="#26a69a" opacity="0.9"/><rect x="903" y="1003.563534363506" width="10" height="16.43646563649395" fill="#ef5350" opacity="0.9"/><rect x="915" y="1004.1975359621516" width="10" height="15.802464037848381" fill="#ef5350" opacity="0.9"/><rect x="927" y="1005.488545497984" width="10" height="14.511454502016022" fill="#ef5350" opacity="0.9"/><rect x="939" y="1001.2261788536355" width="10" height="18.773821146364526" fill="#26a69a" opacity="0.9"/><rect x="951" y="994.8976660364503" width="10" height="25.102333963549654" fill="#26a69a" opacity="0.9"/><rect x="963" y="983.6860578638909" width="10" height="36.31394213610906" fill="#26a69a" opacity="0.9"/><rect x="975" y="1001.9517633768586" width="10" height="18.048236623141406" fill="#ef5350" opacity="0.9"/><rect x="987" y="973.2097676654761" width="10" height="46.79023233452392" fill="#26a69a" opacity="0.9"/><rect x="999" y="860.0" width="10" height="160.0" fill="#ef5350" opacity="0.9"/><rect x="1011" y="909.0649988054402" width="10" height="110.93500119455985" fill="#ef5350" opacity="0.9"/><rect x="1023" y="921.2787099933046" width="10" height="98.72129000669543" fill="#26a69a" opacity="0.9"/><rect x="1035" y="960.559820904503" width="10" height="59.440179095497" fill="#26a69a" opacity="0.9"/><rect x="1047" y="969.8402239283618" width="10" height="50.15977607163825" fill="#26a69a" opacity="0.9"/><rect x="1059" y="966.7246347743757" width="10" height="53.27536522562434" fill="#ef5350" opacity="0.9"/><rect x="1071" y="976.4249034766117" width="10" height="43.57509652338831" fill="#26a69a" opacity="0.9"/><rect x="1083" y="924.1655630506405" width="10" height="95.83443694935954" fill="#ef5350" opacity="0.9"/><rect x="1095" y="977.5513292059569" width="10" height="42.448670794043096" fill="#26a69a" opacity="0.9"/><rect x="1107" y="982.3923937505346" width="10" height="37.60760624946545" fill="#26a69a" opacity="0.9"/><rect x="1119" y="987.707300383144" width="10" height="32.292699616856" fill="#ef5350" opacity="0.9"/><rect x="1131" y="990.6879485129941" width="10" height="29.312051487005874" fill="#26a69a" opacity="0.9"/><rect x="1143" y="989.1655483029875" width="10" height="30.83445169701247" fill="#26a69a" opacity="0.9"/><rect x="1155" y="992.4780186233361" width="10" height="27.521981376663916" fill="#ef5350" opacity="0.9"/><rect x="1167" y="992.5558862307064" width="10" height="27.444113769293608" fill="#26a69a" opacity="0.9"/><rect x="1179" y="996.9155873842678" width="10" height="23.084412615732163" fill="#26a69a" opacity="0.9"/><rect x="1191" y="1002.4180841619057" width="10" height="17.581915838094346" fill="#ef5350" opacity="0.9"/><rect x="1203" y="1001.9960063355917" width="10" height="18.003993664408313" fill="#26a69a" opacity="0.9"/><rect x="1215" y="997.9137085332869" width="10" height="22.086291466713078" fill="#26a69a" opacity="0.9"/><rect x="1227" y="979.3608662181414" width="10" height="40.63913378185862" fill="#26a69a" opacity="0.9"/><rect x="1239" y="995.6396204544047" width="10" height="24.360379545595265" fill="#26a69a" opacity="0.9"/><rect x="1251" y="990.0703168090798" width="10" height="29.929683190920173" fill="#ef5350" opacity="0.9"/><rect x="1263" y="976.6952279544711" width="10" height="43.30477204552892" fill="#ef5350" opacity="0.9"/><rect x="1275" y="998.8972295059241" width="10" height="21.102770494075912" fill="#26a69a" opacity="0.9"/><rect x="1287" y="985.1597908192911" width="10" height="34.84020918070894" fill="#26a69a" opacity="0.9"/><rect x="1299" y="999.8957930845306" width="10" height="20.104206915469376" fill="#26a69a" opacity="0.9"/><rect x="1311" y="995.0640195612868" width="10" height="24.93598043871316" fill="#26a69a" opacity="0.9"/><rect x="1323" y="995.2759433336184" width="10" height="24.724056666381557" fill="#26a69a" opacity="0.9"/><rect x="1335" y="990.1486268460375" width="10" height="29.851373153962527" fill="#26a69a" opacity="0.9"/><rect x="1347" y="989.7491129286774" width="10" height="30.25088707132261" fill="#26a69a" opacity="0.9"/><rect x="1359" y="992.3090105209756" width="10" height="27.690989479024438" fill="#26a69a" opacity="0.9"/><rect x="1371" y="990.1326993808935" width="10" height="29.86730061910646" fill="#26a69a" opacity="0.9"/><rect x="1383" y="1002.9105082926052" width="10" height="17.089491707394814" fill="#26a69a" opacity="0.9"/><rect x="1395" y="999.0273038045995" width="10" height="20.972696195400545" fill="#ef5350" opacity="0.9"/><rect x="1407" y="998.0729831847261" width="10" height="21.927016815273873" fill="#ef5350" opacity="0.9"/><rect x="1419" y="993.4841035049271" width="10" height="26.515896495072866" fill="#ef5350" opacity="0.9"/><rect x="1431" y="1003.4122234446388" width="10" height="16.587776555361188" fill="#ef5350" opacity="0.9"/><rect x="1443" y="1003.3728472113663" width="10" height="16.62715278863368" fill="#ef5350" opacity="0.9"/><rect x="1455" y="1004.3939746989266" width="10" height="15.606025301073373" fill="#ef5350" opacity="0.9"/><rect x="1467" y="1003.519291404773" width="10" height="16.480708595227043" fill="#ef5350" opacity="0.9"/><rect x="1479" y="1001.7124089701124" width="10" height="18.287591029887608" fill="#26a69a" opacity="0.9"/><rect x="1491" y="985.7645920651728" width="10" height="34.23540793482721" fill="#26a69a" opacity="0.9"/><rect x="1503" y="1000.5864256703545" width="10" height="19.413574329645485" fill="#ef5350" opacity="0.9"/><rect x="1515" y="1008.7302270843595" width="10" height="11.269772915640488" fill="#26a69a" opacity="0.9"/><rect x="1527" y="1007.6719355114634" width="10" height="12.328064488536597" fill="#ef5350" opacity="0.9"/><rect x="1539" y="1004.8903806959122" width="10" height="15.1096193040878" fill="#ef5350" opacity="0.9"/><rect x="1551" y="1003.990921344868" width="10" height="16.009078655132043" fill="#26a69a" opacity="0.9"/><rect x="1563" y="1008.7731427543306" width="10" height="11.226857245669407" fill="#ef5350" opacity="0.9"/><rect x="1575" y="1000.2970767202399" width="10" height="19.702923279760057" fill="#ef5350" opacity="0.9"/><rect x="1587" y="1006.4388842515714" width="10" height="13.56111574842862" fill="#26a69a" opacity="0.9"/><rect x="1599" y="995.2524945654899" width="10" height="24.747505434510117" fill="#26a69a" opacity="0.9"/><rect x="1611" y="1003.5967165825559" width="10" height="16.403283417444072" fill="#ef5350" opacity="0.9"/><rect x="1623" y="1004.8501196034651" width="10" height="15.149880396534854" fill="#ef5350" opacity="0.9"/><rect x="1635" y="1005.2288393302206" width="10" height="14.77116066977942" fill="#ef5350" opacity="0.9"/><rect x="1647" y="1003.7843067275843" width="10" height="16.215693272415706" fill="#26a69a" opacity="0.9"/><rect x="1659" y="1007.2237543394968" width="10" height="12.77624566050315" fill="#26a69a" opacity="0.9"/><rect x="1671" y="991.5254677218121" width="10" height="28.474532278187894" fill="#26a69a" opacity="0.9"/><rect x="1683" y="1003.1768509041787" width="10" height="16.82314909582135" fill="#ef5350" opacity="0.9"/><rect x="1695" y="1004.3842412480054" width="10" height="15.615758751994576" fill="#ef5350" opacity="0.9"/><rect x="1707" y="1002.0787406684226" width="10" height="17.921259331577403" fill="#26a69a" opacity="0.9"/><rect x="1719" y="1007.6299047006669" width="10" height="12.370095299333116" fill="#ef5350" opacity="0.9"/><rect x="1731" y="998.6614145358766" width="10" height="21.338585464123412" fill="#ef5350" opacity="0.9"/><rect x="1743" y="1006.7543365473385" width="10" height="13.24566345266146" fill="#26a69a" opacity="0.9"/><rect x="1755" y="1006.7928279214364" width="10" height="13.207172078563644" fill="#ef5350" opacity="0.9"/><rect x="1767" y="1003.3874473877482" width="10" height="16.61255261225176" fill="#26a69a" opacity="0.9"/><rect x="1779" y="1001.3487318493262" width="10" height="18.651268150673786" fill="#ef5350" opacity="0.9"/><rect x="1791" y="1005.4810241949993" width="10" height="14.51897580500065" fill="#26a69a" opacity="0.9"/><rect x="1803" y="997.7292153953698" width="10" height="22.270784604630194" fill="#26a69a" opacity="0.9"/><rect x="1815" y="1006.1574990340288" width="10" height="13.842500965971226" fill="#26a69a" opacity="0.9"/><rect x="1827" y="1005.3951928550571" width="10" height="14.604807144942924" fill="#ef5350" opacity="0.9"/><rect x="1839" y="995.7232396464103" width="10" height="24.27676035358968" fill="#26a69a" opacity="0.9"/><rect x="1851" y="998.1225352985073" width="10" height="21.877464701492727" fill="#26a69a" opacity="0.9"/><rect x="1863" y="993.0279586003887" width="10" height="26.97204139961127" fill="#ef5350" opacity="0.9"/><rect x="1875" y="999.2560399012497" width="10" height="20.743960098750335" fill="#ef5350" opacity="0.9"/><rect x="1887" y="996.4948368467159" width="10" height="23.505163153284116" fill="#ef5350" opacity="0.9"/><rect x="1899" y="994.4866489498196" width="10" height="25.513351050180404" fill="#ef5350" opacity="0.9"/><rect x="1911" y="999.4856608570745" width="10" height="20.51433914292545" fill="#26a69a" opacity="0.9"/><rect x="1923" y="974.5100682226424" width="10" height="45.48993177735758" fill="#26a69a" opacity="0.9"/><rect x="1935" y="940.3235340095624" width="10" height="79.67646599043758" fill="#26a69a" opacity="0.9"/><rect x="1004" y="325.2630506666618" width="12" height="241.44224977778015" fill="#ff2400" opacity="0.60"/><polyline points="320,448.62475286983886,332,440.2451768293253,344,433.4217160942596,356,420.341335937135,368,411.7074058690479,380,399.7685369079793,392,392.75700530827936,404,390.5404565699225,416,387.52426045214935,428,384.62686320274065,440,383.26884262258113,452,384.8197122987383,464,383.6117830427712,476,392.62636709161393,488,400.1928167865925,500,414.871943399511,512,427.3107685995557,524,435.5327020027693,536,439.60243662684456,548,445.13761417561506,560,448.5452820742365,572,446.4904450512929,584,451.1169349829187,596,456.0608672702579,608,457.58593599583844,620,456.7758077422594,632,451.32601407368486,644,446.64793518836126,656,442.0784718159262,668,438.6180269657315,680,434.9817746621132,692,431.1022295620205,704,428.350225392094,716,428.3871849208885,728,424.8830091718042,740,419.3541542030592,752,413.7622542260538,764,405.8391322786014,776,400.1024853525956,788,395.2491014777479,800,390.2683420989181,812,385.93039866092215,824,381.66867688369166,836,380.3397015191068,848,378.6319216072318,860,380.3717159938464,872,382.7038761214175,884,382.6239733373667,896,380.36172800364307,908,379.4941396858424,920,381.32027588507196,932,383.81478379019933,944,384.63982753505155,956,381.6802224576451,968,379.08671344051373,980,377.7509525414138,992,370.81483922000996,1004,366.4765736434977,1016,386.6409523652793,1028,400.84192511356173,1040,412.6796770075089,1052,421.70544516552076,1064,435.5991841021427,1076,445.7270706532654,1088,464.32403755400935,1100,478.53876769172024,1112,485.7563751708161,1124,498.09838820216703,1136,505.0535244792122,1148,505.02909653938934,1160,505.34391079489876,1172,502.6807299572889,1184,499.8500407550031,1196,499.73158015399247,1208,499.0347989753092,1220,497.39363064961964,1232,495.5718482597149,1244,487.6063986688476,1256,484.86369699668205,1268,487.6043991239789,1280,489.1575637365046,1292,482.47682992032423,1304,474.6635487638943,1316,463.9725453049019,1328,452.4466960377645,1340,437.55441302887954,1352,419.78476683564924,1364,401.8544312851696,1376,380.9991551627718,1388,361.9616379938331,1400,345.91642277748383,1412,333.5050467246017,1424,323.033766930722,1436,314.99164385795666,1448,308.64195553285754,1460,303.4866019688808,1472,298.10628855385505,1484,292.0170663212149,1496,284.65473340173855,1508,280.6046721042246,1520,276.09804157578367,1532,273.6209637537488,1544,271.96940064492696,1556,268.6220926470014,1568,268.3731308499267,1580,269.0743979647475,1592,267.68738321677824,1604,263.40022341835515,1616,261.29017225681923,1628,259.80222298368165,1640,259.97210405402154,1652,257.26202210178394,1664,254.55735637780083,1676,248.31997564340577,1688,243.01354697894965,1700,238.97055291746358,1712,234.72300328511562,1724,232.9857057024027,1736,232.00346757202067,1748,230.18825758103446,1760,229.8935877161664,1772,228.61623447335865,1784,229.39779944414727,1796,229.76801393095025,1808,227.40764384228282,1820,225.60898671445102,1832,225.2450642548764,1844,221.2097278496509,1856,215.20029895391417,1868,210.100112344551,1880,207.42292340168603,1892,208.03294661210305,1904,213.21746386598136,1916,216.89747031260697,1928,215.21537819818252,1940,206.32345333274827" fill="none" stroke="#0090ff" stroke-width="2"/><line x1="80" y1="50" x2="80" y2="900" stroke="#666666" stroke-width="0.5" stroke-dasharray="4,4" opacity="0.90"/><line x1="152" y1="50" x2="152" y2="900" stroke="#666666" stroke-width="0.5" stroke-dasharray="4,4" opacity="0.90"/><line x1="224" y1="50" x2="224" y2="900" stroke="#666666" stroke-width="0.5" stroke-dasharray="4,4" opacity="0.90"/><line x1="296" y1="50" x2="296" y2="900" stroke="#666666" stroke-width="0.5" stroke-dasharray="4,4" opacity="0.90"/><line x1="368" y1="50" x2="368" y2="900" stroke="#666666" stroke-width="0.5" stroke-dasharray="4,4" opacity="0.90"/><line x1="440" y1="50" x2="440" y2="900" stroke="#666666" stroke-width="0.5" stroke-dasharray="4,4" opacity="0.90"/><line x1="512" y1="50" x2="512" y2="900" stroke="#666666" stroke-width="0.5" stroke-dasharray="4,4" opacity="0.90"/><line x1="584" y1="50" x2="584" y2="900" stroke="#666666" stroke-width="0.5" stroke-dasharray="4,4" opacity="0.90"/><line x1="656" y1="50" x2="656" y2="900" stroke="#666666" stroke-width="0.5" stroke-dasharray="4,4" opacity="0.90"/><line x1="728" y1="50" x2="728" y2="900" stroke="#666666" stroke-width="0.5" stroke-dasharray="4,4" opacity="0.90"/><line x1="800" y1="50" x2="800" y2="900" stroke="#666666" stroke-width="0.5" stroke-dasharray="4,4" opacity="0.90"/><line x1="872" y1="50" x2="872" y2="900" stroke="#666666" stroke-width="0.5" stroke-dasharray="4,4" opacity="0.90"/><line x1="944" y1="50" x2="944" y2="900" stroke="#666666" stroke-width="0.5" stroke-dasharray="4,4" opacity="0.90"/><line x1="1010" y1="30" x2="1010" y2="950" stroke="black" stroke-width="0.7"/><line x1="1016" y1="50" x2="1016" y2="900" stroke="#666666" stroke-width="0.5" stroke-dasharray="4,4" opacity="0.90"/><line x1="1088" y1="50" x2="1088" y2="900" stroke="#666666" stroke-width="0.5" stroke-dasharray="4,4" opacity="0.90"/><line x1="1160" y1="50" x2="1160" y2="900" stroke="#666666" stroke-width="0.5" stroke-dasharray="4,4" opacity="0.90"/><line x1="1232" y1="50" x2="1232" y2="900" stroke="#666666" stroke-width="0.5" stroke-dasharray="4,4" opacity="0.90"/><line x1="1304" y1="50" x2="1304" y2="900" stroke="#666666" stroke-width="0.5" stroke-dasharray="4,4" opacity="0.90"/><line x1="1376" y1="50" x2="1376" y2="900" stroke="#666666" stroke-width="0.5" stroke-dasharray="4,4" opacity="0.90"/><line x1="1448" y1="50" x2="1448" y2="900" stroke="#666666" stroke-width="0.5" stroke-dasharray="4,4" opacity="0.90"/><line x1="1520" y1="50" x2="1520" y2="900" stroke="#666666" stroke-width="0.5" stroke-dasharray="4,4" opacity="0.90"/><line x1="1592" y1="50" x2="1592" y2="900" stroke="#666666" stroke-width="0.5" stroke-dasharray="4,4" opacity="0.90"/><line x1="1664" y1="50" x2="1664" y2="900" stroke="#666666" stroke-width="0.5" stroke-dasharray="4,4" opacity="0.90"/><line x1="1736" y1="50" x2="1736" y2="900" stroke="#666666" stroke-width="0.5" stroke-dasharray="4,4" opacity="0.90"/><line x1="1808" y1="50" x2="1808" y2="900" stroke="#666666" stroke-width="0.5" stroke-dasharray="4,4" opacity="0.90"/><line x1="1880" y1="50" x2="1880" y2="900" stroke="#666666" stroke-width="0.5" stroke-dasharray="4,4" opacity="0.90"/><line x1="1946" y1="30" x2="1946" y2="950" stroke="black" stroke-width="0.7"/><text x="80" y="1040" text-anchor="middle" font-size="20" fill="black">09:30</text><text x="152" y="1040" text-anchor="middle" font-size="20" fill="black">10:00</text><text x="224" y="1040" text-anchor="middle" font-size="20" fill="black">10:30</text><text x="296" y="1040" text-anchor="middle" font-size="20" fill="black">11:00</text><text x="368" y="1040" text-anchor="middle" font-size="20" fill="black">11:30</text><text x="440" y="1040" text-anchor="middle" font-size="20" fill="black">12:00</text><text x="512" y="1040" text-anchor="middle" font-size="20" fill="black">12:30</text><text x="584" y="1040" text-anchor="middle" font-size="20" fill="black">13:00</text><text x="656" y="1040" text-anchor="middle" font-size="20" fill="black">13:30</text><text x="728" y="1040" text-anchor="middle" font-size="20" fill="black">14:00</text><text x="800" y="1040" text-anchor="middle" font-size="20" fill="black">14:30</text><text x="872" y="1040" text-anchor="middle" font-size="20" fill="black">15:00</text><text x="944" y="1040" text-anchor="middle" font-size="20" fill="black">15:30</text><text x="1016" y="1040" text-anchor="middle" font-size="20" fill="black">09:30</text><text x="1088" y="1040" text-anchor="middle" font-size="20" fill="black">10:00</text><text x="1160" y="1040" text-anchor="middle" font-size="20" fill="black">10:30</text><text x="1232" y="1040" text-anchor="middle" font-size="20" fill="black">11:00</text><text x="1304" y="1040" text-anchor="middle" font-size="20" fill="black">11:30</text><text x="1376" y="1040" text-anchor="middle" font-size="20" fill="black">12:00</text><text x="1448" y="1040" text-anchor="middle" font-size="20" fill="black">12:30</text><text x="1520" y="1040" text-anchor="middle" font-size="20" fill="black">13:00</text><text x="1592" y="1040" text-anchor="middle" font-size="20" fill="black">13:30</text><text x="1664" y="1040" text-anchor="middle" font-size="20" fill="black">14:00</text><text x="1736" y="1040" text-anchor="middle" font-size="20" fill="black">14:30</text><text x="1808" y="1040" text-anchor="middle" font-size="20" fill="black">15:00</text><text x="1880" y="1040" text-anchor="middle" font-size="20" fill="black">15:30</text><text x="1942" y="50" text-anchor="end" font-size="40" fill="#26a69a" font-weight="bold"> +0.96% (Wed)</text></svg>