<svg xmlns="http://www.w3.org/2000/svg" width="1992" height="1050"><rect width="100%" height="100%" fill="white"/><text x="42" y="854.0" text-anchor="end" font-size="20" fill="black">563</text><text x="42" y="694.0" text-anchor="end" font-size="20" fill="black">564</text><text x="42" y="534.0" text-anchor="end" font-size="20" fill="black">565</text><text x="42" y="374.0" text-anchor="end" font-size="20" fill="black">566</text><text x="42" y="214.0" text-anchor="end" font-size="20" fill="black">567</text><text x="42" y="54.0" text-anchor="end" font-size="20" fill="black">568</text><line x1="80" y1="712.5636191999911" x2="80" y2="821.0977936000018" stroke="#26a69a" stroke-width="2"/><rect x="76" y="738.1010720000086" width="8" height="23.94136159999107" fill="#26a69a"/><line x1="92" y1="688.7818655999945" x2="92" y2="867.3844255999938" stroke="#ef5350" stroke-width="2"/><rect x="88" y="742.8893439999956" width="8" height="43.09445120001328" fill="#ef5350"/><line x1="104" y1="739.6971615999973" x2="104" y2="819.5017023999935" stroke="#26a69a" stroke-width="2"/><rect x="100" y="752.6254976000018" width="8" height="34.954388799997105" fill="#26a69a"/><line x1="116" y1="664.6808944000077" x2="116" y2="747.6776160000009" stroke="#26a69a" stroke-width="2"/><rect x="112" y="666.2769855999977" width="8" height="81.40063040000314" fill="#26a69a"/><line x1="128" y1="604.0294447999986" x2="128" y2="700.5929375999949" stroke="#26a69a" stroke-width="2"/><rect x="124" y="629.5668975999979" width="8" height="36.710087999999814" fill="#26a69a"/><line x1="140" y1="575.1402000000053" x2="140" y2="667.873076800006" stroke="#ef5350" stroke-width="2"/><rect x="136" y="624.7786239999914" width="8" height="15.960908800007019" fill="#ef5350"/><line x1="152" y1="564.9252191999949" x2="152" y2="647.1238959999937" stroke="#ef5350" stroke-width="2"/><rect x="148" y="632.7590783999949" width="8" height="14.364817599998787" fill="#ef5350"/><line x1="164" y1="589.6646271999998" x2="164" y2="666.2769855999977" stroke="#26a69a" stroke-width="2"/><rect x="160" y="597.6450816000033" width="8" height="43.09445119999509" fill="#26a69a"/><line x1="176" y1="541.7819023999982" x2="176" y2="605.6255344000056" stroke="#26a69a" stroke-width="2"/><rect x="172" y="586.4724448000015" width="8" height="11.172636800001783" fill="#26a69a"/><line x1="188" y1="573.7037183999928" x2="188" y2="639.1434416000084" stroke="#ef5350" stroke-width="2"/><rect x="184" y="583.2802640000045" width="8" height="11.172635200000514" fill="#ef5350"/><line x1="200" y1="580.0880816000063" x2="200" y2="639.1434416000084" stroke="#ef5350" stroke-width="2"/><rect x="196" y="596.0489903999951" width="8" height="12.768726400008745" fill="#ef5350"/><line x1="212" y1="581.6841727999963" x2="212" y2="632.7590783999949" stroke="#26a69a" stroke-width="2"/><rect x="208" y="585.6744000000072" width="8" height="19.95113439999841" fill="#26a69a"/><line x1="224" y1="529.0131760000077" x2="224" y2="631.1629872000049" stroke="#ef5350" stroke-width="2"/><rect x="220" y="584.8763551999946" width="8" height="17.55699840001398" fill="#ef5350"/><line x1="236" y1="540.1858127999913" x2="236" y2="600.8372624000003" stroke="#ef5350" stroke-width="2"/><rect x="232" y="596.0489903999951" width="8" height="2" fill="#ef5350"/><line x1="248" y1="562.5310831999923" x2="248" y2="604.0294447999986" stroke="#26a69a" stroke-width="2"/><rect x="244" y="578.4919919999993" width="8" height="22.345270400001027" fill="#26a69a"/><line x1="260" y1="546.5701760000047" x2="260" y2="588.0685359999916" stroke="#26a69a" stroke-width="2"/><rect x="256" y="552.9545392" width="8" height="17.55699839999579" fill="#26a69a"/><line x1="272" y1="552.9545392" x2="272" y2="602.4333536000086" stroke="#ef5350" stroke-width="2"/><rect x="268" y="552.9545392" width="8" height="49.47881440000856" fill="#ef5350"/><line x1="284" y1="588.0685359999916" x2="284" y2="640.7395327999984" stroke="#26a69a" stroke-width="2"/><rect x="280" y="588.0685359999916" width="8" height="15.960908800007019" fill="#26a69a"/><line x1="296" y1="583.1206544000088" x2="296" y2="634.3551696000031" stroke="#ef5350" stroke-width="2"/><rect x="292" y="588.0685359999916" width="8" height="19.153089600004023" fill="#ef5350"/><line x1="308" y1="584.8763551999946" x2="308" y2="621.5864431999944" stroke="#ef5350" stroke-width="2"/><rect x="304" y="607.2216255999956" width="8" height="6.384363200013468" fill="#ef5350"/><line x1="320" y1="576.8959007999911" x2="320" y2="618.3942607999961" stroke="#26a69a" stroke-width="2"/><rect x="316" y="591.260718400008" width="8" height="27.133542399988073" fill="#26a69a"/><line x1="332" y1="549.7623568000017" x2="332" y2="594.452899200005" stroke="#26a69a" stroke-width="2"/><rect x="328" y="556.146719999997" width="8" height="31.92181599999458" fill="#26a69a"/><line x1="344" y1="527.4170864000007" x2="344" y2="596.0489903999951" stroke="#26a69a" stroke-width="2"/><rect x="340" y="551.3584479999918" width="8" height="3.192180800015194" fill="#26a69a"/><line x1="356" y1="522.6288127999942" x2="356" y2="575.299809600001" stroke="#26a69a" stroke-width="2"/><rect x="352" y="532.2053584000059" width="8" height="20.749180799994065" fill="#26a69a"/><line x1="368" y1="505.0718143999984" x2="368" y2="544.9740847999965" stroke="#ef5350" stroke-width="2"/><rect x="364" y="535.3975392000029" width="8" height="6.384363199995278" fill="#ef5350"/><line x1="380" y1="541.7819023999982" x2="380" y2="597.6450816000033" stroke="#ef5350" stroke-width="2"/><rect x="376" y="543.3779936000064" width="8" height="33.51790719998462" fill="#ef5350"/><line x1="392" y1="551.3584479999918" x2="392" y2="594.452899200005" stroke="#ef5350" stroke-width="2"/><rect x="388" y="576.8959007999911" width="8" height="12.768726400008745" fill="#ef5350"/><line x1="404" y1="544.1760384000008" x2="404" y2="597.6450816000033" stroke="#26a69a" stroke-width="2"/><rect x="400" y="551.3584479999918" width="8" height="44.690542400003324" fill="#26a69a"/><line x1="416" y1="519.4366319999972" x2="416" y2="545.7721296000091" stroke="#26a69a" stroke-width="2"/><rect x="412" y="527.4170864000007" width="8" height="18.355043200008367" fill="#26a69a"/><line x1="428" y1="517.0424959999946" x2="428" y2="533.801449599996" stroke="#26a69a" stroke-width="2"/><rect x="424" y="529.0131760000077" width="8" height="2" fill="#26a69a"/><line x1="440" y1="506.66790560000663" x2="440" y2="543.3779936000064" stroke="#26a69a" stroke-width="2"/><rect x="436" y="529.0131760000077" width="8" height="2" fill="#26a69a"/><line x1="452" y1="471.5539071999956" x2="452" y2="541.7819023999982" stroke="#26a69a" stroke-width="2"/><rect x="448" y="484.32263360000434" width="8" height="44.690542400003324" fill="#26a69a"/><line x1="464" y1="426.0653199999979" x2="464" y2="491.50504319999527" stroke="#26a69a" stroke-width="2"/><rect x="460" y="447.6125456000045" width="8" height="41.49836159998813" fill="#26a69a"/><line x1="476" y1="423.67118399999526" x2="476" y2="457.1890911999981" stroke="#ef5350" stroke-width="2"/><rect x="472" y="444.42036480000746" width="8" height="3.192180799997061" fill="#ef5350"/><line x1="488" y1="391.7493680000007" x2="488" y2="469.159771199993" stroke="#26a69a" stroke-width="2"/><rect x="484" y="394.94154879999763" width="8" height="55.86317920000516" fill="#26a69a"/><line x1="500" y1="337.4822800000038" x2="500" y2="401.32591199999297" stroke="#26a69a" stroke-width="2"/><rect x="496" y="366.2119152000014" width="8" height="28.729633599996248" fill="#26a69a"/><line x1="512" y1="321.52137279999806" x2="512" y2="380.5767328000002" stroke="#ef5350" stroke-width="2"/><rect x="508" y="367.8080063999914" width="8" height="11.172635200000514" fill="#ef5350"/><line x1="524" y1="364.61582399999315" x2="524" y2="386.9610959999955" stroke="#26a69a" stroke-width="2"/><rect x="520" y="380.5767328000002" width="8" height="2" fill="#26a69a"/><line x1="536" y1="377.3845504000019" x2="536" y2="410.90245760000477" stroke="#ef5350" stroke-width="2"/><rect x="532" y="378.98064159999194" width="8" height="17.556998400013924" fill="#ef5350"/><line x1="548" y1="391.7493680000007" x2="548" y2="423.67118399999526" stroke="#ef5350" stroke-width="2"/><rect x="544" y="396.53764000000587" width="8" height="27.1335439999894" fill="#ef5350"/><line x1="560" y1="378.98064159999194" x2="560" y2="426.86336479999227" stroke="#26a69a" stroke-width="2"/><rect x="556" y="380.5767328000002" width="8" height="38.306179200008046" fill="#26a69a"/><line x1="572" y1="380.5767328000002" x2="572" y2="415.69072959999176" stroke="#ef5350" stroke-width="2"/><rect x="568" y="383.92852319999287" width="8" height="31.762206399998888" fill="#ef5350"/><line x1="584" y1="414.0946384000017" x2="584" y2="446.0164543999963" stroke="#ef5350" stroke-width="2"/><rect x="580" y="417.2868208" width="8" height="15.960907200005806" fill="#ef5350"/><line x1="596" y1="415.69072959999176" x2="596" y2="446.0164543999963" stroke="#ef5350" stroke-width="2"/><rect x="592" y="431.6516383999987" width="8" height="3.192180799997061" fill="#ef5350"/><line x1="608" y1="422.0750928000053" x2="608" y2="444.42036480000746" stroke="#26a69a" stroke-width="2"/><rect x="604" y="431.6516383999987" width="8" height="2" fill="#26a69a"/><line x1="620" y1="428.4594560000005" x2="620" y2="466.76563520000855" stroke="#ef5350" stroke-width="2"/><rect x="616" y="428.4594560000005" width="8" height="38.306179200008046" fill="#ef5350"/><line x1="632" y1="431.6516383999987" x2="632" y2="482.7265439999974" stroke="#26a69a" stroke-width="2"/><rect x="628" y="431.6516383999987" width="8" height="35.11399680000983" fill="#26a69a"/><line x1="644" y1="412.49854879999475" x2="644" y2="441.228182399991" stroke="#ef5350" stroke-width="2"/><rect x="640" y="434.8438191999958" width="8" height="2" fill="#ef5350"/><line x1="656" y1="401.32591199999297" x2="656" y2="436.439910400004" stroke="#26a69a" stroke-width="2"/><rect x="652" y="411.7005023999991" width="8" height="24.739408000004914" fill="#26a69a"/><line x1="668" y1="398.133731199996" x2="668" y2="422.0750928000053" stroke="#ef5350" stroke-width="2"/><rect x="664" y="410.90245760000477" width="8" height="9.576543999992282" fill="#ef5350"/><line x1="680" y1="419.68095680000255" x2="680" y2="446.0164543999963" stroke="#ef5350" stroke-width="2"/><rect x="676" y="422.0750928000053" width="8" height="7.9804544000034525" fill="#ef5350"/><line x1="692" y1="420.47900159999705" x2="692" y2="446.0164543999963" stroke="#26a69a" stroke-width="2"/><rect x="688" y="430.05554720000873" width="8" height="2" fill="#26a69a"/><line x1="704" y1="425.2672752000035" x2="704" y2="469.9578176000068" stroke="#ef5350" stroke-width="2"/><rect x="700" y="428.4594560000005" width="8" height="36.710087999999814" fill="#ef5350"/><line x1="716" y1="431.6516383999987" x2="716" y2="465.1695440000003" stroke="#26a69a" stroke-width="2"/><rect x="712" y="457.1890911999981" width="8" height="7.98045280000224" fill="#26a69a"/><line x1="728" y1="444.42036480000746" x2="728" y2="489.11090719999265" stroke="#ef5350" stroke-width="2"/><rect x="724" y="455.59300000000803" width="8" height="11.172635200000514" fill="#ef5350"/><line x1="740" y1="453.9969087999998" x2="740" y2="503.47572320000836" stroke="#ef5350" stroke-width="2"/><rect x="736" y="468.3617263999986" width="8" height="3.192180799997004" fill="#ef5350"/><line x1="752" y1="431.6516383999987" x2="752" y2="471.5539071999956" stroke="#26a69a" stroke-width="2"/><rect x="748" y="434.8438191999958" width="8" height="35.27360640000552" fill="#26a69a"/><line x1="764" y1="415.69072959999176" x2="764" y2="436.439910400004" stroke="#26a69a" stroke-width="2"/><rect x="760" y="415.69072959999176" width="8" height="20.749180800012255" fill="#26a69a"/><line x1="776" y1="380.5767328000002" x2="776" y2="415.69072959999176" stroke="#26a69a" stroke-width="2"/><rect x="772" y="398.29334079999177" width="8" height="15.801297600009946" fill="#26a69a"/><line x1="788" y1="388.5571856000024" x2="788" y2="420.47900159999705" stroke="#ef5350" stroke-width="2"/><rect x="784" y="391.7493680000007" width="8" height="19.95113439999841" fill="#ef5350"/><line x1="800" y1="393.3454592000089" x2="800" y2="422.0750928000053" stroke="#26a69a" stroke-width="2"/><rect x="796" y="410.90245760000477" width="8" height="2" fill="#26a69a"/><line x1="812" y1="396.53764000000587" x2="812" y2="434.8438191999958" stroke="#ef5350" stroke-width="2"/><rect x="808" y="410.90245760000477" width="8" height="7.18240799998955" fill="#ef5350"/><line x1="824" y1="386.9610959999955" x2="824" y2="420.47900159999705" stroke="#26a69a" stroke-width="2"/><rect x="820" y="390.3128864000064" width="8" height="30.166115199990656" fill="#26a69a"/><line x1="836" y1="383.7689135999971" x2="836" y2="402.9220032000012" stroke="#ef5350" stroke-width="2"/><rect x="832" y="391.7493680000007" width="8" height="9.576543999992282" fill="#ef5350"/><line x1="848" y1="404.51809439999124" x2="848" y2="433.2477280000058" stroke="#ef5350" stroke-width="2"/><rect x="844" y="404.51809439999124" width="8" height="20.749180800012255" fill="#ef5350"/><line x1="860" y1="415.69072959999176" x2="860" y2="447.6125456000045" stroke="#ef5350" stroke-width="2"/><rect x="856" y="428.4594560000005" width="8" height="18.993480000008276" fill="#ef5350"/><line x1="872" y1="431.6516383999987" x2="872" y2="452.40081759999157" stroke="#26a69a" stroke-width="2"/><rect x="868" y="445.21840960000196" width="8" height="2.394136000002561" fill="#26a69a"/><line x1="884" y1="441.228182399991" x2="884" y2="461.9773632000033" stroke="#26a69a" stroke-width="2"/><rect x="880" y="444.42036480000746" width="8" height="2" fill="#26a69a"/><line x1="896" y1="412.49854879999475" x2="896" y2="449.20863679999457" stroke="#26a69a" stroke-width="2"/><rect x="892" y="430.05554720000873" width="8" height="15.96090719998756" fill="#26a69a"/><line x1="908" y1="402.9220032000012" x2="908" y2="433.2477280000058" stroke="#26a69a" stroke-width="2"/><rect x="904" y="404.51809439999124" width="8" height="28.72963360001455" fill="#26a69a"/><line x1="920" y1="401.1663039999985" x2="920" y2="436.439910400004" stroke="#ef5350" stroke-width="2"/><rect x="916" y="402.9220032000012" width="8" height="31.92181599999458" fill="#ef5350"/><line x1="932" y1="430.05554720000873" x2="932" y2="463.57345439999335" stroke="#ef5350" stroke-width="2"/><rect x="928" y="436.439910400004" width="8" height="23.94136159999107" fill="#ef5350"/><line x1="944" y1="439.632091200001" x2="944" y2="468.3617263999986" stroke="#26a69a" stroke-width="2"/><rect x="940" y="452.40081759999157" width="8" height="11.172636800001783" fill="#26a69a"/><line x1="956" y1="418.8829120000082" x2="956" y2="453.9969087999998" stroke="#26a69a" stroke-width="2"/><rect x="952" y="431.8112463999933" width="8" height="22.185662400006493" fill="#26a69a"/><line x1="968" y1="426.86336479999227" x2="968" y2="476.5017887999966" stroke="#ef5350" stroke-width="2"/><rect x="964" y="433.2477280000058" width="8" height="41.49836159998807" fill="#ef5350"/><line x1="980" y1="446.0164543999963" x2="980" y2="479.5343615999991" stroke="#26a69a" stroke-width="2"/><rect x="976" y="466.76563520000855" width="8" height="6.384363199995278" fill="#26a69a"/><line x1="992" y1="466.76563520000855" x2="992" y2="531.4073119999921" stroke="#ef5350" stroke-width="2"/><rect x="988" y="468.3617263999986" width="8" height="60.65144960000907" fill="#ef5350"/><line x1="1004" y1="514.648359999992" x2="1004" y2="581.6841727999963" stroke="#ef5350" stroke-width="2"/><rect x="1000" y="527.4170864000007" width="8" height="7.98045280000224" fill="#ef5350"/><line x1="1016" y1="212.98719840000558" x2="1016" y2="342.2705535999921" stroke="#26a69a" stroke-width="2"/><rect x="1012" y="232.14028799999141" width="8" height="81.40063040000314" fill="#26a69a"/><line x1="1028" y1="192.23801759999333" x2="1028" y2="283.2151936000082" stroke="#ef5350" stroke-width="2"/><rect x="1024" y="233.73637919999965" width="8" height="23.94136160000926" fill="#ef5350"/><line x1="1040" y1="217.77547039999263" x2="1040" y2="319.925281600008" stroke="#26a69a" stroke-width="2"/><rect x="1036" y="225.75592479999614" width="8" height="27.133544000007532" fill="#26a69a"/><line x1="1052" y1="139.56702080000468" x2="1052" y2="251.29337759999544" stroke="#26a69a" stroke-width="2"/><rect x="1048" y="208.19892640000035" width="8" height="22.345270400001027" fill="#26a69a"/><line x1="1064" y1="133.18265759999122" x2="1064" y2="230.54419680000137" stroke="#26a69a" stroke-width="2"/><rect x="1060" y="183.45951839999543" width="8" height="16.758953600001405" fill="#26a69a"/><line x1="1076" y1="131.58656800000244" x2="1076" y2="206.60283519999211" stroke="#26a69a" stroke-width="2"/><rect x="1072" y="134.77874879999945" width="8" height="49.47881440000856" fill="#26a69a"/><line x1="1088" y1="114.82761440000104" x2="1088" y2="192.23801759999333" stroke="#ef5350" stroke-width="2"/><rect x="1084" y="134.77874879999945" width="8" height="41.49836160000632" fill="#ef5350"/><line x1="1100" y1="106.04911520000314" x2="1100" y2="181.0653823999928" stroke="#26a69a" stroke-width="2"/><rect x="1096" y="122.01002240000889" width="8" height="46.286633599993365" fill="#26a69a"/><line x1="1112" y1="112.27386880000267" x2="1112" y2="200.21847199999684" stroke="#ef5350" stroke-width="2"/><rect x="1108" y="123.60611359999893" width="8" height="27.133544000007532" fill="#ef5350"/><line x1="1124" y1="129.9904767999942" x2="1124" y2="190.64192640000329" stroke="#ef5350" stroke-width="2"/><rect x="1120" y="149.30317599999398" width="8" height="31.76220639999883" fill="#ef5350"/><line x1="1136" y1="155.5279295999935" x2="1136" y2="302.36828319999404" stroke="#ef5350" stroke-width="2"/><rect x="1132" y="179.46929120000277" width="8" height="35.11399839999285" fill="#ef5350"/><line x1="1148" y1="163.50838399999702" x2="1148" y2="230.54419680000137" stroke="#26a69a" stroke-width="2"/><rect x="1144" y="203.41065279999384" width="8" height="17.55700000001525" fill="#26a69a"/><line x1="1160" y1="182.66147360000105" x2="1160" y2="225.75592479999614" stroke="#26a69a" stroke-width="2"/><rect x="1156" y="200.21847199999684" width="8" height="2" fill="#26a69a"/><line x1="1172" y1="179.46929120000277" x2="1172" y2="225.75592479999614" stroke="#26a69a" stroke-width="2"/><rect x="1168" y="179.46929120000277" width="8" height="23.94136159999107" fill="#26a69a"/><line x1="1184" y1="139.56702080000468" x2="1184" y2="200.21847199999684" stroke="#ef5350" stroke-width="2"/><rect x="1180" y="179.46929120000277" width="8" height="17.55699839999579" fill="#ef5350"/><line x1="1196" y1="187.44974560000628" x2="1196" y2="222.56374239999786" stroke="#ef5350" stroke-width="2"/><rect x="1192" y="197.02628959999856" width="8" height="7.980454400003509" fill="#ef5350"/><line x1="1208" y1="205.00674400000207" x2="1208" y2="275.2347392000047" stroke="#ef5350" stroke-width="2"/><rect x="1204" y="205.00674400000207" width="8" height="46.286633599993365" fill="#ef5350"/><line x1="1220" y1="219.37156160000086" x2="1220" y2="259.27383199999895" stroke="#26a69a" stroke-width="2"/><rect x="1216" y="233.73637919999965" width="8" height="17.55699839999579" fill="#26a69a"/><line x1="1232" y1="222.56374239999786" x2="1232" y2="272.0425584000077" stroke="#ef5350" stroke-width="2"/><rect x="1228" y="233.73637919999965" width="8" height="17.55699839999579" fill="#ef5350"/><line x1="1244" y1="209.7950160000073" x2="1244" y2="254.48555839999244" stroke="#26a69a" stroke-width="2"/><rect x="1240" y="225.75592479999614" width="8" height="25.5374527999993" fill="#26a69a"/><line x1="1256" y1="220.9676528000091" x2="1256" y2="265.6581951999942" stroke="#ef5350" stroke-width="2"/><rect x="1252" y="220.9676528000091" width="8" height="22.345270399982837" fill="#ef5350"/><line x1="1268" y1="227.35201600000437" x2="1268" y2="383.7689135999971" stroke="#ef5350" stroke-width="2"/><rect x="1264" y="243.31292319999193" width="8" height="117.31267360000851" fill="#ef5350"/><line x1="1280" y1="324.71355359999507" x2="1280" y2="450.8047280000028" stroke="#26a69a" stroke-width="2"/><rect x="1276" y="326.3096448000033" width="8" height="36.71008799999987" fill="#26a69a"/><line x1="1292" y1="280.8210576000056" x2="1292" y2="342.2705535999921" stroke="#26a69a" stroke-width="2"/><rect x="1288" y="283.2151936000082" width="8" height="39.90227039999809" fill="#26a69a"/><line x1="1304" y1="248.10119519999716" x2="1304" y2="294.3878288000087" stroke="#ef5350" stroke-width="2"/><rect x="1300" y="280.02301119999174" width="8" height="2" fill="#ef5350"/><line x1="1316" y1="249.6972864000054" x2="1316" y2="275.2347392000047" stroke="#26a69a" stroke-width="2"/><rect x="1312" y="274.4366943999921" width="8" height="2" fill="#26a69a"/><line x1="1328" y1="251.29337759999544" x2="1328" y2="288.00346559999525" stroke="#26a69a" stroke-width="2"/><rect x="1324" y="255.92204000000493" width="8" height="20.90879039998981" fill="#26a69a"/><line x1="1340" y1="230.54419680000137" x2="1340" y2="265.6581951999942" stroke="#26a69a" stroke-width="2"/><rect x="1336" y="235.3324688000066" width="8" height="22.345272000002296" fill="#26a69a"/><line x1="1352" y1="211.39110719999735" x2="1352" y2="247.30315040000278" stroke="#26a69a" stroke-width="2"/><rect x="1348" y="225.5963152000004" width="8" height="9.736153600006219" fill="#26a69a"/><line x1="1364" y1="211.39110719999735" x2="1364" y2="238.52465120000488" stroke="#ef5350" stroke-width="2"/><rect x="1360" y="222.56374239999786" width="8" height="12.768726400008745" fill="#ef5350"/><line x1="1376" y1="232.14028799999141" x2="1376" y2="273.63864799999646" stroke="#ef5350" stroke-width="2"/><rect x="1372" y="233.73637919999965" width="8" height="19.153089600004023" fill="#ef5350"/><line x1="1388" y1="251.1337679999997" x2="1388" y2="307.1565551999993" stroke="#ef5350" stroke-width="2"/><rect x="1384" y="256.0816496000007" width="8" height="46.286633599993365" fill="#ef5350"/><line x1="1400" y1="259.27383199999895" x2="1400" y2="308.7526464000075" stroke="#26a69a" stroke-width="2"/><rect x="1396" y="260.8699216000059" width="8" height="43.09445279999636" fill="#26a69a"/><line x1="1412" y1="211.39110719999735" x2="1412" y2="267.2542848000012" stroke="#26a69a" stroke-width="2"/><rect x="1408" y="220.9676528000091" width="8" height="39.10422399998424" fill="#26a69a"/><line x1="1424" y1="181.0653823999928" x2="1424" y2="237.72660479999104" stroke="#ef5350" stroke-width="2"/><rect x="1420" y="217.77547039999263" width="8" height="7.980454400003509" fill="#ef5350"/><line x1="1436" y1="212.98719840000558" x2="1436" y2="249.6972864000054" stroke="#ef5350" stroke-width="2"/><rect x="1432" y="224.1598336000061" width="8" height="7.9804543999853195" fill="#ef5350"/><line x1="1448" y1="230.54419680000137" x2="1448" y2="275.2347392000047" stroke="#ef5350" stroke-width="2"/><rect x="1444" y="230.54419680000137" width="8" height="30.325724800004537" fill="#ef5350"/><line x1="1460" y1="249.6972864000054" x2="1460" y2="276.9904400000087" stroke="#ef5350" stroke-width="2"/><rect x="1456" y="256.0816496000007" width="8" height="6.384363199995278" fill="#ef5350"/><line x1="1472" y1="235.3324688000066" x2="1472" y2="265.6581951999942" stroke="#ef5350" stroke-width="2"/><rect x="1468" y="260.07187679999333" width="8" height="2" fill="#ef5350"/><line x1="1484" y1="256.0816496000007" x2="1484" y2="294.3878288000087" stroke="#ef5350" stroke-width="2"/><rect x="1480" y="256.0816496000007" width="8" height="25.5374527999993" fill="#ef5350"/><line x1="1496" y1="264.0621040000042" x2="1496" y2="307.1565551999993" stroke="#26a69a" stroke-width="2"/><rect x="1492" y="280.02301119999174" width="8" height="3.1921824000164634" fill="#26a69a"/><line x1="1508" y1="255.2836048000063" x2="1508" y2="283.2151936000082" stroke="#26a69a" stroke-width="2"/><rect x="1504" y="262.46601279999595" width="8" height="18.355044800009637" fill="#26a69a"/><line x1="1520" y1="256.0816496000007" x2="1520" y2="334.2900992000068" stroke="#ef5350" stroke-width="2"/><rect x="1516" y="265.6581951999942" width="8" height="27.133542400006263" fill="#ef5350"/><line x1="1532" y1="276.83083039999474" x2="1532" y2="318.3291903999998" stroke="#ef5350" stroke-width="2"/><rect x="1528" y="299.17610079999577" width="8" height="2" fill="#ef5350"/><line x1="1544" y1="267.2542848000012" x2="1544" y2="305.56046399999104" stroke="#26a69a" stroke-width="2"/><rect x="1540" y="268.85037599999123" width="8" height="28.729635200015764" fill="#26a69a"/><line x1="1556" y1="265.6581951999942" x2="1556" y2="383.7689135999971" stroke="#ef5350" stroke-width="2"/><rect x="1552" y="271.24451199999385" width="8" height="79.00649440000058" fill="#ef5350"/><line x1="1568" y1="299.17610079999577" x2="1568" y2="358.2314607999979" stroke="#26a69a" stroke-width="2"/><rect x="1564" y="337.4822800000038" width="8" height="17.55699999999706" fill="#26a69a"/><line x1="1580" y1="316.7331007999928" x2="1580" y2="367.8080063999914" stroke="#ef5350" stroke-width="2"/><rect x="1576" y="335.88619039999685" width="8" height="7.98045280000224" fill="#ef5350"/><line x1="1592" y1="272.0425584000077" x2="1592" y2="348.6549168000056" stroke="#26a69a" stroke-width="2"/><rect x="1588" y="281.6191024" width="8" height="64.64167680000173" fill="#26a69a"/><line x1="1604" y1="272.0425584000077" x2="1604" y2="299.17610079999577" stroke="#ef5350" stroke-width="2"/><rect x="1600" y="281.6191024" width="8" height="11.172635200000514" fill="#ef5350"/><line x1="1616" y1="265.6581951999942" x2="1616" y2="291.1956479999935" stroke="#26a69a" stroke-width="2"/><rect x="1612" y="273.63864799999646" width="8" height="15.960908800007019" fill="#26a69a"/><line x1="1628" y1="267.2542848000012" x2="1628" y2="307.1565551999993" stroke="#ef5350" stroke-width="2"/><rect x="1624" y="273.63864799999646" width="8" height="33.51790720000281" fill="#ef5350"/><line x1="1640" y1="295.98391999999876" x2="1640" y2="332.6940079999986" stroke="#ef5350" stroke-width="2"/><rect x="1636" y="306.3585104000049" width="8" height="26.335497599993687" fill="#ef5350"/><line x1="1652" y1="313.54091839999455" x2="1652" y2="361.4236431999961" stroke="#ef5350" stroke-width="2"/><rect x="1648" y="329.50182720000157" width="8" height="30.325724800004537" fill="#ef5350"/><line x1="1664" y1="331.09791680000853" x2="1664" y2="393.3454592000089" stroke="#ef5350" stroke-width="2"/><rect x="1660" y="361.4236431999961" width="8" height="12.768726400008745" fill="#ef5350"/><line x1="1676" y1="359.8275520000061" x2="1676" y2="438.03600159999405" stroke="#ef5350" stroke-width="2"/><rect x="1672" y="373.3943231999911" width="8" height="11.970681600014245" fill="#ef5350"/><line x1="1688" y1="346.2607792000017" x2="1688" y2="411.7005023999991" stroke="#26a69a" stroke-width="2"/><rect x="1684" y="350.2510063999944" width="8" height="38.30617920000799" fill="#26a69a"/><line x1="1700" y1="324.71355359999507" x2="1700" y2="350.2510063999944" stroke="#26a69a" stroke-width="2"/><rect x="1696" y="345.4627344000073" width="8" height="3.1921823999982735" fill="#26a69a"/><line x1="1712" y1="348.6549168000056" x2="1712" y2="396.53764000000587" stroke="#ef5350" stroke-width="2"/><rect x="1708" y="348.6549168000056" width="8" height="39.90226879999682" fill="#ef5350"/><line x1="1724" y1="356.63536960000783" x2="1724" y2="398.133731199996" stroke="#26a69a" stroke-width="2"/><rect x="1720" y="356.63536960000783" width="8" height="35.11399839999285" fill="#26a69a"/><line x1="1736" y1="347.05882559999736" x2="1736" y2="404.51809439999124" stroke="#ef5350" stroke-width="2"/><rect x="1732" y="355.0392800000009" width="8" height="35.11399679999158" fill="#ef5350"/><line x1="1748" y1="374.032759999991" x2="1748" y2="417.2868208" stroke="#26a69a" stroke-width="2"/><rect x="1744" y="383.7689135999971" width="8" height="7.182408000007911" fill="#26a69a"/><line x1="1760" y1="364.61582399999315" x2="1760" y2="394.94154879999763" stroke="#26a69a" stroke-width="2"/><rect x="1756" y="378.98064159999194" width="8" height="2" fill="#26a69a"/><line x1="1772" y1="356.63536960000783" x2="1772" y2="396.53764000000587" stroke="#26a69a" stroke-width="2"/><rect x="1768" y="363.01973280000317" width="8" height="15.960908799988772" fill="#26a69a"/><line x1="1784" y1="331.09791680000853" x2="1784" y2="367.8080063999914" stroke="#26a69a" stroke-width="2"/><rect x="1780" y="340.67446240000214" width="8" height="20.74918079999395" fill="#26a69a"/><line x1="1796" y1="327.90573599999334" x2="1796" y2="359.8275520000061" stroke="#ef5350" stroke-width="2"/><rect x="1792" y="342.2705535999921" width="8" height="12.768726400008745" fill="#ef5350"/><line x1="1808" y1="346.2607792000017" x2="1808" y2="378.1825951999963" stroke="#ef5350" stroke-width="2"/><rect x="1804" y="358.2314607999979" width="8" height="9.576545599993551" fill="#ef5350"/><line x1="1820" y1="361.26403360000035" x2="1820" y2="393.3454592000089" stroke="#ef5350" stroke-width="2"/><rect x="1816" y="366.2119152000014" width="8" height="23.94136159999107" fill="#ef5350"/><line x1="1832" y1="358.2314607999979" x2="1832" y2="396.53764000000587" stroke="#26a69a" stroke-width="2"/><rect x="1828" y="367.8080063999914" width="8" height="17.556998400013924" fill="#26a69a"/><line x1="1844" y1="359.8275520000061" x2="1844" y2="402.9220032000012" stroke="#ef5350" stroke-width="2"/><rect x="1840" y="366.2119152000014" width="8" height="11.9706799999949" fill="#ef5350"/><line x1="1856" y1="347.05882559999736" x2="1856" y2="380.5767328000002" stroke="#26a69a" stroke-width="2"/><rect x="1852" y="366.2119152000014" width="8" height="9.576543999992282" fill="#26a69a"/><line x1="1868" y1="358.2314607999979" x2="1868" y2="372.5962783999966" stroke="#26a69a" stroke-width="2"/><rect x="1864" y="359.6679423999921" width="8" height="8.140063999999313" fill="#26a69a"/><line x1="1880" y1="351.84709760000266" x2="1880" y2="383.7689135999971" stroke="#ef5350" stroke-width="2"/><rect x="1876" y="358.2314607999979" width="8" height="11.172635200000514" fill="#ef5350"/><line x1="1892" y1="348.6549168000056" x2="1892" y2="375.62885119999925" stroke="#26a69a" stroke-width="2"/><rect x="1888" y="367.8080063999914" width="8" height="4.788272000005179" fill="#26a69a"/><line x1="1904" y1="334.2900992000068" x2="1904" y2="372.5962783999966" stroke="#26a69a" stroke-width="2"/><rect x="1900" y="335.88619039999685" width="8" height="31.92181599999458" fill="#26a69a"/><line x1="1916" y1="324.71355359999507" x2="1916" y2="355.0392800000009" stroke="#26a69a" stroke-width="2"/><rect x="1912" y="332.6940079999986" width="8" height="2" fill="#26a69a"/><line x1="1928" y1="275.2347392000047" x2="1928" y2="342.2705535999921" stroke="#26a69a" stroke-width="2"/><rect x="1924" y="291.1956479999935" width="8" height="38.306179200008046" fill="#26a69a"/><line x1="1940" y1="225.75592479999614" x2="1940" y2="292.7917376000005" stroke="#26a69a" stroke-width="2"/><rect x="1936" y="240.12074239999492" width="8" height="51.87295040001118" fill="#26a69a"/><rect x="75" y="969.2267561912837" width="10" height="50.7732438087163" fill="#26a69a" opacity="0.9"/><rect x="87" y="979.3505818644277" width="10" height="40.64941813557232" fill="#ef5350" opacity="0.9"/><rect x="99" y="982.8761264649172" width="10" height="37.123873535082794" fill="#26a69a" opacity="0.9"/><rect x="111" y="974.5871224034898" width="10" height="45.41287759651016" fill="#26a69a" opacity="0.9"/><rect x="123" y="983.024840346247" width="10" height="36.97515965375305" fill="#26a69a" opacity="0.9"/><rect x="135" y="989.8164494646301" width="10" height="30.183550535369932" fill="#ef5350" opacity="0.9"/><rect x="147" y="994.553242988226" width="10" height="25.446757011774025" fill="#ef5350" opacity="0.9"/><rect x="159" y="985.4386204821749" width="10" height="34.56137951782512" fill="#26a69a" opacity="0.9"/><rect x="171" y="990.2461813010242" width="10" height="29.753818698975806" fill="#26a69a" opacity="0.9"/><rect x="183" y="984.0437868365993" width="10" height="35.95621316340066" fill="#ef5350" opacity="0.9"/><rect x="195" y="988.0482926962682" width="10" height="31.951707303731837" fill="#ef5350" opacity="0.9"/><rect x="207" y="984.4848004157151" width="10" height="35.515199584284915" fill="#26a69a" opacity="0.9"/><rect x="219" y="973.4927933594979" width="10" height="46.50720664050209" fill="#ef5350" opacity="0.9"/><rect x="231" y="994.0168474024642" width="10" height="25.983152597535764" fill="#ef5350" opacity="0.9"/><rect x="243" y="996.072688610226" width="10" height="23.92731138977399" fill="#26a69a" opacity="0.9"/><rect x="255" y="995.7809017189273" width="10" height="24.21909828107266" fill="#26a69a" opacity="0.9"/><rect x="267" y="997.5213669369726" width="10" height="22.47863306302736" fill="#ef5350" opacity="0.9"/><rect x="279" y="973.0820353631353" width="10" height="46.91796463686467" fill="#26a69a" opacity="0.9"/><rect x="291" y="992.0466448780888" width="10" height="27.95335512191116" fill="#ef5350" opacity="0.9"/><rect x="303" y="986.6216650484773" width="10" height="33.378334951522675" fill="#ef5350" opacity="0.9"/><rect x="315" y="993.2855853515117" width="10" height="26.714414648488287" fill="#26a69a" opacity="0.9"/><rect x="327" y="991.769729374923" width="10" height="28.23027062507697" fill="#26a69a" opacity="0.9"/><rect x="339" y="996.1162771616503" width="10" height="23.88372283834974" fill="#26a69a" opacity="0.9"/><rect x="351" y="995.5824456083252" width="10" height="24.4175543916748" fill="#26a69a" opacity="0.9"/><rect x="363" y="993.767623449615" width="10" height="26.23237655038497" fill="#ef5350" opacity="0.9"/><rect x="375" y="993.1399483091061" width="10" height="26.860051690893897" fill="#ef5350" opacity="0.9"/><rect x="387" y="990.7610390143176" width="10" height="29.23896098568241" fill="#ef5350" opacity="0.9"/><rect x="399" y="1000.5300025982195" width="10" height="19.46999740178046" fill="#26a69a" opacity="0.9"/><rect x="411" y="998.1946818548553" width="10" height="21.805318145144724" fill="#26a69a" opacity="0.9"/><rect x="423" y="995.0675878950319" width="10" height="24.93241210496808" fill="#26a69a" opacity="0.9"/><rect x="435" y="998.5439030727365" width="10" height="21.456096927263502" fill="#26a69a" opacity="0.9"/><rect x="447" y="965.9863319977574" width="10" height="54.01366800224264" fill="#26a69a" opacity="0.9"/><rect x="459" y="977.530631640844" width="10" height="42.469368359155965" fill="#26a69a" opacity="0.9"/><rect x="471" y="994.8901568504109" width="10" height="25.109843149589096" fill="#ef5350" opacity="0.9"/><rect x="483" y="982.3781913657062" width="10" height="37.62180863429376" fill="#26a69a" opacity="0.9"/><rect x="495" y="982.0264061153883" width="10" height="37.97359388461166" fill="#26a69a" opacity="0.9"/><rect x="507" y="986.1242427557537" width="10" height="33.8757572442463" fill="#ef5350" opacity="0.9"/><rect x="519" y="994.1317160556292" width="10" height="25.868283944370773" fill="#26a69a" opacity="0.9"/><rect x="531" y="997.0244574507363" width="10" height="22.97554254926365" fill="#ef5350" opacity="0.9"/><rect x="543" y="1001.569974154553" width="10" height="18.43002584544695" fill="#ef5350" opacity="0.9"/><rect x="555" y="1002.6171250017094" width="10" height="17.382874998290617" fill="#26a69a" opacity="0.9"/><rect x="567" y="1005.1596195659606" width="10" height="14.840380434039389" fill="#ef5350" opacity="0.9"/><rect x="579" y="996.6101098089625" width="10" height="23.389890191037466" fill="#ef5350" opacity="0.9"/><rect x="591" y="999.5172097857153" width="10" height="20.482790214284705" fill="#ef5350" opacity="0.9"/><rect x="603" y="1003.244287335731" width="10" height="16.755712664269026" fill="#26a69a" opacity="0.9"/><rect x="615" y="996.4860106390253" width="10" height="23.513989360974733" fill="#ef5350" opacity="0.9"/><rect x="627" y="1000.2279595771739" width="10" height="19.77204042282608" fill="#26a69a" opacity="0.9"/><rect x="639" y="999.2936261572333" width="10" height="20.706373842766652" fill="#ef5350" opacity="0.9"/><rect x="651" y="994.2758146785729" width="10" height="25.724185321427058" fill="#26a69a" opacity="0.9"/><rect x="663" y="1001.0335785687913" width="10" height="18.966421431208687" fill="#ef5350" opacity="0.9"/><rect x="675" y="1001.3735692699003" width="10" height="18.62643073009974" fill="#ef5350" opacity="0.9"/><rect x="687" y="1003.32172111532" width="10" height="16.678278884680026" fill="#26a69a" opacity="0.9"/><rect x="699" y="1002.6340476157917" width="10" height="17.3659523842083" fill="#ef5350" opacity="0.9"/><rect x="711" y="997.7034132399798" width="10" height="22.296586760020205" fill="#26a69a" opacity="0.9"/><rect x="723" y="985.078117521572" width="10" height="34.92188247842796" fill="#ef5350" opacity="0.9"/><rect x="735" y="992.7302159257183" width="10" height="27.269784074281688" fill="#ef5350" opacity="0.9"/><rect x="747" y="988.4046932049722" width="10" height="31.595306795027795" fill="#26a69a" opacity="0.9"/><rect x="759" y="997.1516334595976" width="10" height="22.848366540402367" fill="#26a69a" opacity="0.9"/><rect x="771" y="994.0276163386984" width="10" height="25.972383661301592" fill="#26a69a" opacity="0.9"/><rect x="783" y="999.669000505969" width="10" height="20.330999494030948" fill="#ef5350" opacity="0.9"/><rect x="795" y="997.4239337043773" width="10" height="22.576066295622695" fill="#26a69a" opacity="0.9"/><rect x="807" y="1005.0401356544095" width="10" height="14.959864345590518" fill="#ef5350" opacity="0.9"/><rect x="819" y="1004.9170620974469" width="10" height="15.082937902553113" fill="#26a69a" opacity="0.9"/><rect x="831" y="1000.0495029195782" width="10" height="19.95049708042177" fill="#ef5350" opacity="0.9"/><rect x="843" y="1000.6669219303403" width="10" height="19.333078069659678" fill="#ef5350" opacity="0.9"/><rect x="855" y="986.7878143503767" width="10" height="33.21218564962328" fill="#ef5350" opacity="0.9"/><rect x="867" y="994.7629808415496" width="10" height="25.23701915845038" fill="#26a69a" opacity="0.9"/><rect x="879" y="1002.9053222475967" width="10" height="17.0946777524033" fill="#26a69a" opacity="0.9"/><rect x="891" y="994.7675960999358" width="10" height="25.23240390006424" fill="#26a69a" opacity="0.9"/><rect x="903" y="1004.0088818083608" width="10" height="15.991118191639202" fill="#26a69a" opacity="0.9"/><rect x="915" y="1006.1272854075786" width="10" height="13.872714592421403" fill="#ef5350" opacity="0.9"/><rect x="927" y="999.6500266659374" width="10" height="20.34997333406261" fill="#ef5350" opacity="0.9"/><rect x="939" y="983.174067034064" width="10" height="36.825932965935976" fill="#26a69a" opacity="0.9"/><rect x="951" y="964.6304716452199" width="10" height="55.36952835478007" fill="#26a69a" opacity="0.9"/><rect x="963" y="985.8929670299616" width="10" height="34.107032970038404" fill="#ef5350" opacity="0.9"/><rect x="975" y="977.1208992574562" width="10" height="42.879100742543756" fill="#26a69a" opacity="0.9"/><rect x="987" y="919.3711966852188" width="10" height="100.62880331478118" fill="#ef5350" opacity="0.9"/><rect x="999" y="860.0" width="10" height="160.0" fill="#ef5350" opacity="0.9"/><rect x="1011" y="955.9399401042023" width="10" height="64.06005989579774" fill="#26a69a" opacity="0.9"/><rect x="1023" y="990.4123306029237" width="10" height="29.587669397076297" fill="#ef5350" opacity="0.9"/><rect x="1035" y="986.9867832674662" width="10" height="33.013216732533806" fill="#26a69a" opacity="0.9"/><rect x="1047" y="983.8632789530543" width="10" height="36.136721046945695" fill="#26a69a" opacity="0.9"/><rect x="1059" y="991.0364160980213" width="10" height="28.963583901978723" fill="#26a69a" opacity="0.9"/><rect x="1071" y="972.9917814213628" width="10" height="47.008218578637184" fill="#26a69a" opacity="0.9"/><rect x="1083" y="964.0304880550276" width="10" height="55.969511944972396" fill="#ef5350" opacity="0.9"/><rect x="1095" y="981.5853925362725" width="10" height="38.41460746372752" fill="#26a69a" opacity="0.9"/><rect x="1107" y="982.3222954585857" width="10" height="37.6777045414143" fill="#ef5350" opacity="0.9"/><rect x="1119" y="994.8634909130691" width="10" height="25.136509086930914" fill="#ef5350" opacity="0.9"/><rect x="1131" y="974.5137910757996" width="10" height="45.486208924200355" fill="#ef5350" opacity="0.9"/><rect x="1143" y="991.2364106280854" width="10" height="28.763589371914577" fill="#26a69a" opacity="0.9"/><rect x="1155" y="984.8729949266345" width="10" height="35.12700507336547" fill="#26a69a" opacity="0.9"/><rect x="1167" y="998.7044115032751" width="10" height="21.295588496724918" fill="#26a69a" opacity="0.9"/><rect x="1179" y="991.1856427858384" width="10" height="28.814357214161646" fill="#ef5350" opacity="0.9"/><rect x="1191" y="1003.1945451064586" width="10" height="16.805454893541423" fill="#ef5350" opacity="0.9"/><rect x="1203" y="993.5655776936015" width="10" height="26.43442230639846" fill="#ef5350" opacity="0.9"/><rect x="1215" y="1000.4935933376181" width="10" height="19.50640666238189" fill="#26a69a" opacity="0.9"/><rect x="1227" y="991.9866465190696" width="10" height="28.01335348093039" fill="#ef5350" opacity="0.9"/><rect x="1239" y="999.0361973005867" width="10" height="20.96380269941335" fill="#26a69a" opacity="0.9"/><rect x="1251" y="991.6133233962831" width="10" height="28.386676603716865" fill="#ef5350" opacity="0.9"/><rect x="1263" y="965.6242906176925" width="10" height="54.37570938230749" fill="#ef5350" opacity="0.9"/><rect x="1275" y="986.6744841166737" width="10" height="33.32551588332626" fill="#26a69a" opacity="0.9"/><rect x="1287" y="991.6881931434353" width="10" height="28.311806856564658" fill="#26a69a" opacity="0.9"/><rect x="1299" y="986.1391141438867" width="10" height="33.86088585611333" fill="#ef5350" opacity="0.9"/><rect x="1311" y="995.0152816333228" width="10" height="24.984718366677157" fill="#26a69a" opacity="0.9"/><rect x="1323" y="997.2224007548512" width="10" height="22.77759924514885" fill="#26a69a" opacity="0.9"/><rect x="1335" y="991.5635811670109" width="10" height="28.436418832989148" fill="#26a69a" opacity="0.9"/><rect x="1347" y="986.3565440945205" width="10" height="33.64345590547953" fill="#26a69a" opacity="0.9"/><rect x="1359" y="1000.0438620482175" width="10" height="19.956137951782466" fill="#ef5350" opacity="0.9"/><rect x="1371" y="996.4501141849112" width="10" height="23.549885815088828" fill="#ef5350" opacity="0.9"/><rect x="1383" y="987.5611265332914" width="10" height="32.43887346670863" fill="#ef5350" opacity="0.9"/><rect x="1395" y="992.6230393698634" width="10" height="27.376960630136637" fill="#26a69a" opacity="0.9"/><rect x="1407" y="997.5772628440932" width="10" height="22.422737155906816" fill="#26a69a" opacity="0.9"/><rect x="1419" y="980.7910552873767" width="10" height="39.20894471262329" fill="#ef5350" opacity="0.9"/><rect x="1431" y="990.7138608174819" width="10" height="29.286139182518127" fill="#ef5350" opacity="0.9"/><rect x="1443" y="1000.1074500526481" width="10" height="19.89254994735188" fill="#ef5350" opacity="0.9"/><rect x="1455" y="999.215679571157" width="10" height="20.78432042884299" fill="#ef5350" opacity="0.9"/><rect x="1467" y="991.8451119285627" width="10" height="28.154888071437313" fill="#ef5350" opacity="0.9"/><rect x="1479" y="1002.5073844134178" width="10" height="17.492615586582247" fill="#ef5350" opacity="0.9"/><rect x="1491" y="999.182859955967" width="10" height="20.817140044032953" fill="#26a69a" opacity="0.9"/><rect x="1503" y="985.3611867025859" width="10" height="34.63881329741412" fill="#26a69a" opacity="0.9"/><rect x="1515" y="988.9590370177909" width="10" height="31.040962982209066" fill="#ef5350" opacity="0.9"/><rect x="1527" y="992.3881739986599" width="10" height="27.61182600134009" fill="#ef5350" opacity="0.9"/><rect x="1539" y="1002.7878895619949" width="10" height="17.212110438005084" fill="#26a69a" opacity="0.9"/><rect x="1551" y="998.1798104667223" width="10" height="21.8201895332777" fill="#ef5350" opacity="0.9"/><rect x="1563" y="994.5429868584791" width="10" height="25.45701314152086" fill="#26a69a" opacity="0.9"/><rect x="1575" y="992.8902115497696" width="10" height="27.10978845023044" fill="#ef5350" opacity="0.9"/><rect x="1587" y="997.6905930777962" width="10" height="22.309406922203834" fill="#26a69a" opacity="0.9"/><rect x="1599" y="1002.2525195892079" width="10" height="17.74748041079215" fill="#ef5350" opacity="0.9"/><rect x="1611" y="1004.6139934634266" width="10" height="15.386006536573404" fill="#26a69a" opacity="0.9"/><rect x="1623" y="1001.2274194210073" width="10" height="18.772580578992688" fill="#ef5350" opacity="0.9"/><rect x="1635" y="1000.9125562377781" width="10" height="19.087443762221938" fill="#ef5350" opacity="0.9"/><rect x="1647" y="998.4982632953629" width="10" height="21.501736704637096" fill="#ef5350" opacity="0.9"/><rect x="1659" y="990.1856701355176" width="10" height="29.814329864482374" fill="#ef5350" opacity="0.9"/><rect x="1671" y="982.7756163933977" width="10" height="37.22438360660226" fill="#ef5350" opacity="0.9"/><rect x="1683" y="995.187071806583" width="10" height="24.81292819341695" fill="#26a69a" opacity="0.9"/><rect x="1695" y="987.5544600489559" width="10" height="32.44553995104411" fill="#26a69a" opacity="0.9"/><rect x="1707" y="975.163004088777" width="10" height="44.83699591122297" fill="#ef5350" opacity="0.9"/><rect x="1719" y="998.6336442080217" width="10" height="21.36635579197832" fill="#26a69a" opacity="0.9"/><rect x="1731" y="995.7762864605412" width="10" height="24.2237135394588" fill="#ef5350" opacity="0.9"/><rect x="1743" y="999.3146512232144" width="10" height="20.685348776785645" fill="#26a69a" opacity="0.9"/><rect x="1755" y="1003.5278693232322" width="10" height="16.472130676767847" fill="#26a69a" opacity="0.9"/><rect x="1767" y="998.9915831361877" width="10" height="21.008416863812272" fill="#26a69a" opacity="0.9"/><rect x="1779" y="987.2462633500622" width="10" height="32.753736649937764" fill="#26a69a" opacity="0.9"/><rect x="1791" y="990.5046357706456" width="10" height="29.495364229354436" fill="#ef5350" opacity="0.9"/><rect x="1803" y="1000.8879415263856" width="10" height="19.11205847361441" fill="#ef5350" opacity="0.9"/><rect x="1815" y="980.1505599846842" width="10" height="39.84944001531585" fill="#ef5350" opacity="0.9"/><rect x="1827" y="993.6783951208172" width="10" height="26.321604879182814" fill="#26a69a" opacity="0.9"/><rect x="1839" y="991.4076879948583" width="10" height="28.592312005141707" fill="#ef5350" opacity="0.9"/><rect x="1851" y="992.4825303923311" width="10" height="27.517469607668886" fill="#26a69a" opacity="0.9"/><rect x="1863" y="1001.2192145172098" width="10" height="18.78078548279018" fill="#26a69a" opacity="0.9"/><rect x="1875" y="973.5086903606056" width="10" height="46.491309639394444" fill="#ef5350" opacity="0.9"/><rect x="1887" y="978.4880413527152" width="10" height="41.511958647284814" fill="#26a69a" opacity="0.9"/><rect x="1899" y="988.9805748902594" width="10" height="31.01942510974061" fill="#26a69a" opacity="0.9"/><rect x="1911" y="994.0676152447113" width="10" height="25.932384755288695" fill="#26a69a" opacity="0.9"/><rect x="1923" y="961.3792785154594" width="10" height="58.62072148454058" fill="#26a69a" opacity="0.9"/><rect x="1935" y="861.0122800060169" width="10" height="158.9877199939831" fill="#26a69a" opacity="0.9"/><rect x="1004" y="313.54091839999455" width="12" height="221.8566208000084" fill="#00ff00" opacity="0.60"/><polyline points="320,625.2399710438112,332,618.6596614205882,344,612.250022047192,356,604.6267207474557,368,598.6414999524641,380,596.5704905093662,392,595.912789241811,404,591.6695186473589,416,585.5502393857023,428,580.1657571584838,440,575.2940827624298,452,566.6301352231494,464,555.2951266876153,476,545.0396427745181,488,530.7445862055101,500,515.0748080145058,512,502.1134588321729,524,490.5385325433963,536,481.5860665868786,548,476.07036348337715,560,466.9757319897144,572,462.0914460478343,584,459.3444252813788,596,457.0110342260159,608,454.59585367116233,620,455.75488048343686,632,453.45933361833886,644,451.8384361689823,656,448.01577581003585,668,445.39322588527284,680,443.9324945819135,692,442.6108805455442,704,444.7593246840552,716,445.9431119712827,728,447.9262094216392,740,450.17646635291385,752,448.7162142431226,764,445.5709299913906,776,441.06830244934827,788,438.27136911131674,800,435.6648061102351,812,433.9905260616433,824,429.83075085578093,836,427.1160042980955,848,426.9399348601837,860,428.89355401635834,872,430.4483021671876,884,431.77897479889,896,431.61483883710383,908,429.034196509765,920,429.58749390883895,932,432.52023467943224,944,434.413623529017,956,434.16577808815424,968,438.0305696607138,980,440.76724256921807,992,449.17161718167335,1004,457.38360975485193,1016,435.9318648258158,1028,418.95528158525843,1040,400.5553428437997,1052,382.23568413486646,1064,363.30462073154195,1076,341.5402519761483,1088,325.80090515937627,1100,306.3922496584746,1112,291.5681932719417,1124,281.0441160460505,1136,274.7145135273786,1148,267.92366964858957,1160,261.47555558682143,1172,253.6654351690231,1184,248.27123082912294,1196,244.15080351205688,1208,244.83104866329086,1220,243.77441347631247,1232,244.49050529761735,1244,242.7062595359348,1256,242.76403702775497,1268,253.98894748224848,1280,260.87663294109007,1292,263.00411490861734,1304,264.77697086016633,1316,265.69694453062766,1328,264.7660012419874,1340,261.96280767610006,1352,258.499332202191,1364,256.2929642591371,1376,255.96882183444905,1388,260.38781815497714,1400,260.433732768779,1412,256.6750584860529,1424,253.73037908737388,1436,251.67417993619893,1448,252.54996485655283,1460,253.49435037498552,1472,254.1967857297459,1484,256.80843493642897,1496,259.0193469615224,1508,259.347600850906,1520,262.53275673177995,1532,266.17460770970865,1544,266.42944278495634,1556,274.4124488435227,1568,280.41909942983693,1580,286.4617226460359,1592,286.00052071784376,1604,286.64730327804136,1616,285.40838372775397,1628,287.47963815367257,1640,291.7857686152274,1652,298.26593846139076,1664,305.49702714126397,1676,313.1035012040047,1688,316.6413588417163,1700,319.38625175203924,1712,325.9739597375665,1724,328.89409401017474,1736,334.72830189492015,1748,339.3988363430253,1760,343.1685320817996,1772,345.0591226263896,1784,344.64153593815354,1796,345.63179727736497,1808,347.7438171938047,1820,351.7828133467811,1832,353.3090222089958,1844,355.6779339224159,1856,356.6811702345694,1868,356.9656247265084,1880,358.1502410382745,1892,359.070028215574,1904,356.8620436616948,1916,354.56032597963707,1928,348.525594743478,1940,338.20132309170725" fill="none" stroke="#0090ff" stroke-width="2"/><line x1="80" y1="50" x2="80" y2="900" stroke="#666666" stroke-width="0.5" stroke-dasharray="4,4" opacity="0.90"/><line x1="152" y1="50" x2="152" y2="900" stroke="#666666" stroke-width="0.5" stroke-dasharray="4,4" opacity="0.90"/><line x1="224" y1="50" x2="224" y2="900" stroke="#666666" stroke-width="0.5" stroke-dasharray="4,4" opacity="0.90"/><line x1="296" y1="50" x2="296" y2="900" stroke="#666666" stroke-width="0.5" stroke-dasharray="4,4" opacity="0.90"/><line x1="368" y1="50" x2="368" y2="900" stroke="#666666" stroke-width="0.5" stroke-dasharray="4,4" opacity="0.90"/><line x1="440" y1="50" x2="440" y2="900" stroke="#666666" stroke-width="0.5" stroke-dasharray="4,4" opacity="0.90"/><line x1="512" y1="50" x2="512" y2="900" stroke="#666666" stroke-width="0.5" stroke-dasharray="4,4" opacity="0.90"/><line x1="584" y1="50" x2="584" y2="900" stroke="#666666" stroke-width="0.5" stroke-dasharray="4,4" opacity="0.90"/><line x1="656" y1="50" x2="656" y2="900" stroke="#666666" stroke-width="0.5" stroke-dasharray="4,4" opacity="0.90"/><line x1="728" y1="50" x2="728" y2="900" stroke="#666666" stroke-width="0.5" stroke-dasharray="4,4" opacity="0.90"/><line x1="800" y1="50" x2="800" y2="900" stroke="#666666" stroke-width="0.5" stroke-dasharray="4,4" opacity="0.90"/><line x1="872" y1="50" x2="872" y2="900" stroke="#666666" stroke-width="0.5" stroke-dasharray="4,4" opacity="0.90"/><line x1="944" y1="50" x2="944" y2="900" stroke="#666666" stroke-width="0.5" stroke-dasharray="4,4" opacity="0.90"/><line x1="1010" y1="30" x2="1010" y2="950" stroke="black" stroke-width="0.7"/><line x1="1016" y1="50" x2="1016" y2="900" stroke="#666666" stroke-width="0.5" stroke-dasharray="4,4" opacity="0.90"/><line x1="1088" y1="50" x2="1088" y2="900" stroke="#666666" stroke-width="0.5" stroke-dasharray="4,4" opacity="0.90"/><line x1="1160" y1="50" x2="1160" y2="900" stroke="#666666" stroke-width="0.5" stroke-dasharray="4,4" opacity="0.90"/><line x1="1232" y1="50" x2="1232" y2="900" stroke="#666666" stroke-width="0.5" stroke-dasharray="4,4" opacity="0.90"/><line x1="1304" y1="50" x2="1304" y2="900" stroke="#666666" stroke-width="0.5" stroke-dasharray="4,4" opacity="0.90"/><line x1="1376" y1="50" x2="1376" y2="900" stroke="#666666" stroke-width="0.5" stroke-dasharray="4,4" opacity="0.90"/><line x1="1448" y1="50" x2="1448" y2="900" stroke="#666666" stroke-width="0.5" stroke-dasharray="4,4" opacity="0.90"/><line x1="1520" y1="50" x2="1520" y2="900" stroke="#666666" stroke-width="0.5" stroke-dasharray="4,4" opacity="0.90"/><line x1="1592" y1="50" x2="1592" y2="900" stroke="#666666" stroke-width="0.5" stroke-dasharray="4,4" opacity="0.90"/><line x1="1664" y1="50" x2="1664" y2="900" stroke="#666666" stroke-width="0.5" stroke-dasharray="4,4" opacity="0.90"/><line x1="1736" y1="50" x2="1736" y2="900" stroke="#666666" stroke-width="0.5" stroke-dasharray="4,4" opacity="0.90"/><line x1="1808" y1="50" x2="1808" y2="900" stroke="#666666" stroke-width="0.5" stroke-dasharray="4,4" opacity="0.90"/><line x1="1880" y1="50" x2="1880" y2="900" stroke="#666666" stroke-width="0.5" stroke-dasharray="4,4" opacity="0.90"/><line x1="1946" y1="30" x2="1946" y2="950" stroke="black" stroke-width="0.7"/><text x="80" y="1040" text-anchor="middle" font-size="20" fill="black">09:30</text><text x="152" y="1040" text-anchor="middle" font-size="20" fill="black">10:00</text><text x="224" y="1040" text-anchor="middle" font-size="20" fill="black">10:30</text><text x="296" y="1040" text-anchor="middle" font-size="20" fill="black">11:00</text><text x="368" y="1040" text-anchor="middle" font-size="20" fill="black">11:30</text><text x="440" y="1040" text-anchor="middle" font-size="20" fill="black">12:00</text><text x="512" y="1040" text-anchor="middle" font-size="20" fill="black">12:30</text><text x="584" y="1040" text-anchor="middle" font-size="20" fill="black">13:00</text><text x="656" y="1040" text-anchor="middle" font-size="20" fill="black">13:30</text><text x="728" y="1040" text-anchor="middle" font-size="20" fill="black">14:00</text><text x="800" y="1040" text-anchor="middle" font-size="20" fill="black">14:30</text><text x="872" y="1040" text-anchor="middle" font-size="20" fill="black">15:00</text><text x="944" y="1040" text-anchor="middle" font-size="20" fill="black">15:30</text><text x="1016" y="1040" text-anchor="middle" font-size="20" fill="black">09:30</text><text x="1088" y="1040" text-anchor="middle" font-size="20" fill="black">10:00</text><text x="1160" y="1040" text-anchor="middle" font-size="20" fill="black">10:30</text><text x="1232" y="1040" text-anchor="middle" font-size="20" fill="black">11:00</text><text x="1304" y="1040" text-anchor="middle" font-size="20" fill="black">11:30</text><text x="1376" y="1040" text-anchor="middle" font-size="20" fill="black">12:00</text><text x="1448" y="1040" text-anchor="middle" font-size="20" fill="black">12:30</text><text x="1520" y="1040" text-anchor="middle" font-size="20" fill="black">13:00</text><text x="1592" y="1040" text-anchor="middle" font-size="20" fill="black">13:30</text><text x="1664" y="1040" text-anchor="middle" font-size="20" fill="black">14:00</text><text x="1736" y="1040" text-anchor="middle" font-size="20" fill="black">14:30</text><text x="1808" y="1040" text-anchor="middle" font-size="20" fill="black">15:00</text><text x="1880" y="1040" text-anchor="middle" font-size="20" fill="black">15:30</text><text x="1942" y="50" text-anchor="end" font-size="40" fill="#26a69a" font-weight="bold"> +0.08% (Mon)</text></svg>