<svg xmlns="http://www.w3.org/2000/svg" width="1992" height="1050"><rect width="100%" height="100%" fill="white"/><text x="42" y="854.0" text-anchor="end" font-size="20" fill="black">591</text><text x="42" y="774.0" text-anchor="end" font-size="20" fill="black">592</text><text x="42" y="694.0" text-anchor="end" font-size="20" fill="black">593</text><text x="42" y="614.0" text-anchor="end" font-size="20" fill="black">594</text><text x="42" y="534.0" text-anchor="end" font-size="20" fill="black">595</text><text x="42" y="454.0" text-anchor="end" font-size="20" fill="black">596</text><text x="42" y="374.0" text-anchor="end" font-size="20" fill="black">597</text><text x="42" y="294.0" text-anchor="end" font-size="20" fill="black">598</text><text x="42" y="214.0" text-anchor="end" font-size="20" fill="black">599</text><text x="42" y="134.0" text-anchor="end" font-size="20" fill="black">600</text><text x="42" y="54.0" text-anchor="end" font-size="20" fill="black">601</text><line x1="80" y1="555.3027680000014" x2="80" y2="754.2464175999976" stroke="#26a69a" stroke-width="2"/><rect x="76" y="569.6842368000034" width="8" height="73.50528399999348" fill="#26a69a"/><line x1="92" y1="547.3130631999993" x2="92" y2="607.2358496000015" stroke="#26a69a" stroke-width="2"/><rect x="88" y="568.0862960000013" width="8" height="2" fill="#26a69a"/><line x1="104" y1="534.529536" x2="104" y2="629.6070231999965" stroke="#ef5350" stroke-width="2"/><rect x="100" y="572.0811487999981" width="8" height="40.747494400002324" fill="#ef5350"/><line x1="116" y1="537.7254176000042" x2="116" y2="664.761724" stroke="#26a69a" stroke-width="2"/><rect x="112" y="560.0965911999992" width="8" height="51.13411039999846" fill="#26a69a"/><line x1="128" y1="530.5346832000032" x2="128" y2="605.6379087999994" stroke="#ef5350" stroke-width="2"/><rect x="124" y="557.6996799999961" width="8" height="22.371173600004113" fill="#ef5350"/><line x1="140" y1="541.720270400001" x2="140" y2="606.4368792000005" stroke="#26a69a" stroke-width="2"/><rect x="136" y="548.911004800002" width="8" height="27.96396640000239" fill="#26a69a"/><line x1="152" y1="495.3799823999998" x2="152" y2="609.6327607999956" stroke="#ef5350" stroke-width="2"/><rect x="148" y="546.5140927999983" width="8" height="60.72175680000328" fill="#ef5350"/><line x1="164" y1="598.4471743999984" x2="164" y2="737.4680376000015" stroke="#ef5350" stroke-width="2"/><rect x="160" y="605.6379087999994" width="8" height="107.06204400000388" fill="#ef5350"/><line x1="176" y1="683.1380447999982" x2="176" y2="771.8237688000045" stroke="#ef5350" stroke-width="2"/><rect x="172" y="703.1123071999991" width="8" height="35.15470080000341" fill="#ef5350"/><line x1="188" y1="723.8855400000011" x2="188" y2="782.2103848000006" stroke="#26a69a" stroke-width="2"/><rect x="184" y="731.8752448000032" width="8" height="11.984556799998245" fill="#26a69a"/><line x1="200" y1="730.2773032000005" x2="200" y2="815.7671448000019" stroke="#ef5350" stroke-width="2"/><rect x="196" y="737.4680376000015" width="8" height="71.10837279999942" fill="#ef5350"/><line x1="212" y1="802.983616800002" x2="212" y2="906.0508088000006" stroke="#ef5350" stroke-width="2"/><rect x="208" y="809.375380800002" width="8" height="3.195882399995753" fill="#ef5350"/><line x1="224" y1="814.9681744000009" x2="224" y2="866.901256000001" stroke="#ef5350" stroke-width="2"/><rect x="220" y="814.9681744000009" width="8" height="34.35573040000236" fill="#ef5350"/><line x1="236" y1="727.0814215999962" x2="236" y2="865.3033143999983" stroke="#26a69a" stroke-width="2"/><rect x="232" y="731.0762736000015" width="8" height="120.6445431999964" fill="#26a69a"/><line x1="248" y1="670.3545175999989" x2="248" y2="741.4628903999983" stroke="#26a69a" stroke-width="2"/><rect x="244" y="699.916425600004" width="8" height="35.95367119999537" fill="#26a69a"/><line x1="260" y1="684.7359864000009" x2="260" y2="816.566115200003" stroke="#ef5350" stroke-width="2"/><rect x="256" y="699.1174544000023" width="8" height="117.44866080000065" fill="#ef5350"/><line x1="272" y1="763.0350928000007" x2="272" y2="845.329052799998" stroke="#26a69a" stroke-width="2"/><rect x="268" y="779.0145023999958" width="8" height="36.83253920000425" fill="#26a69a"/><line x1="284" y1="745.4577424000036" x2="284" y2="828.5506728000018" stroke="#ef5350" stroke-width="2"/><rect x="280" y="785.4062663999957" width="8" height="31.15984880000724" fill="#ef5350"/><line x1="296" y1="754.2464175999976" x2="296" y2="827.7517024000008" stroke="#26a69a" stroke-width="2"/><rect x="292" y="786.2052367999968" width="8" height="28.76293760000408" fill="#26a69a"/><line x1="308" y1="763.0350928000007" x2="308" y2="812.5712631999977" stroke="#ef5350" stroke-width="2"/><rect x="304" y="784.6072960000038" width="8" height="7.989704799992978" fill="#ef5350"/><line x1="320" y1="777.4165616000028" x2="320" y2="840.5352296000001" stroke="#ef5350" stroke-width="2"/><rect x="316" y="788.6021488000006" width="8" height="51.13411039999846" fill="#ef5350"/><line x1="332" y1="736.6690672000004" x2="332" y2="853.3187576" stroke="#26a69a" stroke-width="2"/><rect x="328" y="743.7799048000034" width="8" height="95.15738399999464" fill="#26a69a"/><line x1="344" y1="737.4680376000015" x2="344" y2="803.7825880000037" stroke="#ef5350" stroke-width="2"/><rect x="340" y="742.2618607999993" width="8" height="35.953671200004464" fill="#ef5350"/><line x1="356" y1="687.1328976000041" x2="356" y2="776.6175912000017" stroke="#26a69a" stroke-width="2"/><rect x="352" y="689.5298087999981" width="8" height="87.08778240000356" fill="#26a69a"/><line x1="368" y1="680.7411336000041" x2="368" y2="738.2670080000025" stroke="#ef5350" stroke-width="2"/><rect x="364" y="689.5298087999981" width="8" height="20.773232800002006" fill="#ef5350"/><line x1="380" y1="702.3133367999981" x2="380" y2="773.4217095999975" stroke="#ef5350" stroke-width="2"/><rect x="376" y="710.3030416000001" width="8" height="48.7371992000044" fill="#ef5350"/><line x1="392" y1="714.2978935999963" x2="392" y2="769.4268568000007" stroke="#26a69a" stroke-width="2"/><rect x="388" y="738.2670080000025" width="8" height="17.577351199997793" fill="#26a69a"/><line x1="404" y1="719.0917168000033" x2="404" y2="763.0350928000007" stroke="#26a69a" stroke-width="2"/><rect x="400" y="719.0917168000033" width="8" height="18.37632079999821" fill="#26a69a"/><line x1="416" y1="719.8906872000043" x2="416" y2="771.8237688000045" stroke="#ef5350" stroke-width="2"/><rect x="412" y="719.9705840000024" width="8" height="30.280981599998995" fill="#ef5350"/><line x1="428" y1="739.8649495999962" x2="428" y2="794.9939119999999" stroke="#ef5350" stroke-width="2"/><rect x="424" y="747.1355808000044" width="8" height="39.06965599999239" fill="#ef5350"/><line x1="440" y1="767.8289159999986" x2="440" y2="809.375380800002" stroke="#26a69a" stroke-width="2"/><rect x="436" y="776.6175912000017" width="8" height="7.590220000001864" fill="#26a69a"/><line x1="452" y1="748.6536247999993" x2="452" y2="788.6021488000006" stroke="#ef5350" stroke-width="2"/><rect x="448" y="766.2309751999965" width="8" height="10.386616000005233" fill="#ef5350"/><line x1="464" y1="742.2618607999993" x2="464" y2="791.7980303999957" stroke="#26a69a" stroke-width="2"/><rect x="460" y="750.2515656000014" width="8" height="27.164996000001338" fill="#26a69a"/><line x1="476" y1="704.7102480000012" x2="476" y2="757.4423000000024" stroke="#26a69a" stroke-width="2"/><rect x="472" y="706.3081888000033" width="8" height="46.34028799999214" fill="#26a69a"/><line x1="488" y1="613.6276136000015" x2="488" y2="707.1071592000044" stroke="#26a69a" stroke-width="2"/><rect x="484" y="617.6224655999977" width="8" height="87.88675280000461" fill="#26a69a"/><line x1="500" y1="596.0502632000043" x2="500" y2="660.7668720000038" stroke="#ef5350" stroke-width="2"/><rect x="496" y="615.2255544000036" width="8" height="16.778379999996105" fill="#ef5350"/><line x1="512" y1="617.6224655999977" x2="512" y2="668.7565767999968" stroke="#ef5350" stroke-width="2"/><rect x="508" y="632.8029048000008" width="8" height="13.582498400000986" fill="#ef5350"/><line x1="524" y1="615.2255544000036" x2="524" y2="662.3648127999968" stroke="#26a69a" stroke-width="2"/><rect x="520" y="639.1147720000026" width="8" height="5.672690399997009" fill="#26a69a"/><line x1="536" y1="596.8492335999963" x2="536" y2="645.5864328000007" stroke="#26a69a" stroke-width="2"/><rect x="532" y="607.2358496000015" width="8" height="32.75778960000025" fill="#26a69a"/><line x1="548" y1="601.6430560000026" x2="548" y2="634.4008456000029" stroke="#ef5350" stroke-width="2"/><rect x="544" y="608.8337904000036" width="8" height="4.79382319999786" fill="#ef5350"/><line x1="560" y1="582.4677648000034" x2="560" y2="619.2204063999998" stroke="#26a69a" stroke-width="2"/><rect x="556" y="596.8492335999963" width="8" height="16.7783800000052" fill="#26a69a"/><line x1="572" y1="560.0965911999992" x2="572" y2="612.0296727999994" stroke="#26a69a" stroke-width="2"/><rect x="568" y="576.8749712000044" width="8" height="19.974262399991858" fill="#26a69a"/><line x1="584" y1="565.6893847999982" x2="584" y2="588.8595288000033" stroke="#ef5350" stroke-width="2"/><rect x="580" y="576.8749712000044" width="8" height="6.3917639999999665" fill="#ef5350"/><line x1="596" y1="560.0965911999992" x2="596" y2="587.2615880000012" stroke="#26a69a" stroke-width="2"/><rect x="592" y="562.4935024000024" width="8" height="19.1752919999999" fill="#26a69a"/><line x1="608" y1="532.1326247999968" x2="608" y2="560.8955616000003" stroke="#26a69a" stroke-width="2"/><rect x="604" y="543.3182112000031" width="8" height="16.778379999996105" fill="#26a69a"/><line x1="620" y1="540.9213" x2="620" y2="564.091443999996" stroke="#ef5350" stroke-width="2"/><rect x="616" y="544.1171816000042" width="8" height="15.180439199993998" fill="#ef5350"/><line x1="632" y1="552.506371999998" x2="632" y2="576.8749712000044" stroke="#26a69a" stroke-width="2"/><rect x="628" y="552.506371999998" width="8" height="7.590219200001229" fill="#26a69a"/><line x1="644" y1="527.338801599999" x2="644" y2="560.0965911999992" stroke="#26a69a" stroke-width="2"/><rect x="640" y="540.9213" width="8" height="11.185586399997192" fill="#26a69a"/><line x1="656" y1="539.3233583999972" x2="656" y2="564.091443999996" stroke="#ef5350" stroke-width="2"/><rect x="652" y="540.1223295999989" width="8" height="6.391763199999332" fill="#ef5350"/><line x1="668" y1="532.9315951999979" x2="668" y2="560.8955616000003" stroke="#ef5350" stroke-width="2"/><rect x="664" y="548.911004800002" width="8" height="7.989704800002073" fill="#ef5350"/><line x1="680" y1="545.7151223999972" x2="680" y2="576.0760008000034" stroke="#ef5350" stroke-width="2"/><rect x="676" y="553.7048271999993" width="8" height="7.989704800002073" fill="#ef5350"/><line x1="692" y1="560.0965911999992" x2="692" y2="581.6687944000023" stroke="#ef5350" stroke-width="2"/><rect x="688" y="561.6945320000013" width="8" height="14.38146880000204" fill="#ef5350"/><line x1="704" y1="576.0760008000034" x2="704" y2="609.6327607999956" stroke="#ef5350" stroke-width="2"/><rect x="700" y="576.8749712000044" width="8" height="28.762937599994984" fill="#ef5350"/><line x1="716" y1="573.6790896000002" x2="716" y2="625.6121703999997" stroke="#26a69a" stroke-width="2"/><rect x="712" y="574.4780600000013" width="8" height="30.36087839999709" fill="#26a69a"/><line x1="728" y1="539.3233583999972" x2="728" y2="580.0708536000002" stroke="#26a69a" stroke-width="2"/><rect x="724" y="550.5089456000042" width="8" height="24.768084799998178" fill="#26a69a"/><line x1="740" y1="550.5089456000042" x2="740" y2="601.6430560000026" stroke="#ef5350" stroke-width="2"/><rect x="736" y="551.3079159999961" width="8" height="50.335140000006504" fill="#ef5350"/><line x1="752" y1="572.0811487999981" x2="752" y2="612.8286432000004" stroke="#26a69a" stroke-width="2"/><rect x="748" y="573.6790896000002" width="8" height="27.96396640000239" fill="#26a69a"/><line x1="764" y1="540.9213" x2="764" y2="575.2770304000023" stroke="#26a69a" stroke-width="2"/><rect x="760" y="559.2976207999982" width="8" height="15.180439200003093" fill="#26a69a"/><line x1="776" y1="517.7511560000039" x2="776" y2="568.8852664000024" stroke="#26a69a" stroke-width="2"/><rect x="772" y="524.9418903999958" width="8" height="33.556760000001304" fill="#26a69a"/><line x1="788" y1="502.5707168000008" x2="788" y2="541.720270400001" stroke="#ef5350" stroke-width="2"/><rect x="784" y="524.1429200000039" width="8" height="4.793822399997225" fill="#ef5350"/><line x1="800" y1="518.5501263999959" x2="800" y2="536.9264472000032" stroke="#26a69a" stroke-width="2"/><rect x="796" y="525.7408607999969" width="8" height="3.1958816000042134" fill="#26a69a"/><line x1="812" y1="501.77174639999976" x2="812" y2="528.9367424000011" stroke="#26a69a" stroke-width="2"/><rect x="808" y="508.9624808000008" width="8" height="18.37632079999821" fill="#26a69a"/><line x1="824" y1="486.59130719999666" x2="824" y2="513.756303199998" stroke="#ef5350" stroke-width="2"/><rect x="820" y="508.1635103999997" width="8" height="3.1958816000042134" fill="#ef5350"/><line x1="836" y1="507.36453919999803" x2="836" y2="549.7099752000031" stroke="#ef5350" stroke-width="2"/><rect x="832" y="512.1583623999959" width="8" height="3.1958816000042134" fill="#ef5350"/><line x1="848" y1="516.9521856000028" x2="848" y2="536.9264472000032" stroke="#ef5350" stroke-width="2"/><rect x="844" y="517.7511560000039" width="8" height="15.180439199993998" fill="#ef5350"/><line x1="860" y1="502.5707168000008" x2="860" y2="533.730565599999" stroke="#26a69a" stroke-width="2"/><rect x="856" y="508.9624808000008" width="8" height="23.969114399997125" fill="#26a69a"/><line x1="872" y1="500.17380559999765" x2="872" y2="523.3439488000022" stroke="#ef5350" stroke-width="2"/><rect x="868" y="508.9624808000008" width="8" height="4.793822399997225" fill="#ef5350"/><line x1="884" y1="502.5707168000008" x2="884" y2="538.5243879999962" stroke="#ef5350" stroke-width="2"/><rect x="880" y="512.957332799997" width="8" height="19.1752919999999" fill="#ef5350"/><line x1="896" y1="517.7511560000039" x2="896" y2="539.3233583999972" stroke="#26a69a" stroke-width="2"/><rect x="892" y="531.3336536000043" width="8" height="2" fill="#26a69a"/><line x1="908" y1="510.4805247999957" x2="908" y2="544.1171816000042" stroke="#26a69a" stroke-width="2"/><rect x="904" y="514.555273599999" width="8" height="16.7783800000052" fill="#26a69a"/><line x1="920" y1="498.575864000004" x2="920" y2="525.7408607999969" stroke="#26a69a" stroke-width="2"/><rect x="916" y="506.565568799997" width="8" height="9.587646400004814" fill="#26a69a"/><line x1="932" y1="490.58615920000193" x2="932" y2="511.35939200000394" stroke="#ef5350" stroke-width="2"/><rect x="928" y="505.7665983999959" width="8" height="3.195882400004848" fill="#ef5350"/><line x1="944" y1="508.9624808000008" x2="944" y2="526.5398311999979" stroke="#ef5350" stroke-width="2"/><rect x="940" y="508.9624808000008" width="8" height="15.979409599995051" fill="#ef5350"/><line x1="956" y1="508.1635103999997" x2="956" y2="535.3285064000011" stroke="#26a69a" stroke-width="2"/><rect x="952" y="518.5501263999959" width="8" height="7.19073440000102" fill="#26a69a"/><line x1="968" y1="510.5604216000029" x2="968" y2="531.3336536000043" stroke="#ef5350" stroke-width="2"/><rect x="964" y="518.5501263999959" width="8" height="10.386616000005233" fill="#ef5350"/><line x1="980" y1="507.36453919999803" x2="980" y2="540.9213" stroke="#26a69a" stroke-width="2"/><rect x="976" y="508.9624808000008" width="8" height="19.175291199999265" fill="#26a69a"/><line x1="992" y1="500.17380559999765" x2="992" y2="558.4986503999971" stroke="#26a69a" stroke-width="2"/><rect x="988" y="505.7665983999959" width="8" height="6.3917639999999665" fill="#26a69a"/><line x1="1004" y1="490.58615920000193" x2="1004" y2="532.9315951999979" stroke="#26a69a" stroke-width="2"/><rect x="1000" y="507.36453919999803" width="8" height="2" fill="#26a69a"/><line x1="1016" y1="192.57017040000392" x2="1016" y2="267.6733951999995" stroke="#26a69a" stroke-width="2"/><rect x="1012" y="221.3331079999989" width="8" height="41.54646480000338" fill="#26a69a"/><line x1="1028" y1="182.18355439999868" x2="1028" y2="232.5186943999961" stroke="#26a69a" stroke-width="2"/><rect x="1024" y="217.3382552000021" width="8" height="6.3917639999999665" fill="#26a69a"/><line x1="1040" y1="139.03914800000166" x2="1040" y2="228.52384239999992" stroke="#26a69a" stroke-width="2"/><rect x="1036" y="141.43605999999636" width="8" height="75.90219520000574" fill="#26a69a"/><line x1="1052" y1="79.11636240000007" x2="1052" y2="143.03400079999847" stroke="#26a69a" stroke-width="2"/><rect x="1048" y="79.11636240000007" width="8" height="63.11866799999734" fill="#26a69a"/><line x1="1064" y1="66.33283440000014" x2="1064" y2="128.65253199999643" stroke="#26a69a" stroke-width="2"/><rect x="1060" y="71.92562799999905" width="8" height="7.19073440000102" fill="#26a69a"/><line x1="1076" y1="66.33283440000014" x2="1076" y2="112.67312240000138" stroke="#ef5350" stroke-width="2"/><rect x="1072" y="72.7245984000001" width="8" height="19.175291199999265" fill="#ef5350"/><line x1="1088" y1="60.74004160000186" x2="1088" y2="133.44635520000338" stroke="#ef5350" stroke-width="2"/><rect x="1084" y="91.89988959999937" width="8" height="27.164996800001973" fill="#ef5350"/><line x1="1100" y1="27.98225200000161" x2="1100" y2="129.45150239999748" stroke="#26a69a" stroke-width="2"/><rect x="1096" y="39.96680879999985" width="8" height="78.29910720000044" fill="#26a69a"/><line x1="1112" y1="35.97195600000305" x2="1112" y2="83.9101847999973" stroke="#ef5350" stroke-width="2"/><rect x="1108" y="39.96680879999985" width="8" height="24.768084799998178" fill="#ef5350"/><line x1="1124" y1="55.946218400004" x2="1124" y2="119.8638568000024" stroke="#ef5350" stroke-width="2"/><rect x="1120" y="64.73489359999803" width="8" height="53.53102240000226" fill="#ef5350"/><line x1="1136" y1="42.36372000000301" x2="1136" y2="136.6422367999985" stroke="#26a69a" stroke-width="2"/><rect x="1132" y="47.95651360000193" width="8" height="71.10837279999942" fill="#26a69a"/><line x1="1148" y1="39.96680879999985" x2="1148" y2="68.72974640000393" stroke="#ef5350" stroke-width="2"/><rect x="1144" y="46.35857279999982" width="8" height="18.296424000000115" fill="#ef5350"/><line x1="1160" y1="61.13952640000207" x2="1160" y2="90.30194879999726" stroke="#ef5350" stroke-width="2"/><rect x="1156" y="61.13952640000207" width="8" height="9.188160799994876" fill="#ef5350"/><line x1="1172" y1="53.54930720000084" x2="1172" y2="103.0854767999972" stroke="#ef5350" stroke-width="2"/><rect x="1168" y="67.93077600000288" width="8" height="19.974261600000318" fill="#ef5350"/><line x1="1184" y1="62.337982400003966" x2="1184" y2="91.89988959999937" stroke="#26a69a" stroke-width="2"/><rect x="1180" y="74.32253920000221" width="8" height="13.582498400000986" fill="#26a69a"/><line x1="1196" y1="56.74518879999596" x2="1196" y2="83.11121439999624" stroke="#26a69a" stroke-width="2"/><rect x="1192" y="68.72974640000393" width="8" height="3.994851999996172" fill="#26a69a"/><line x1="1208" y1="57.54415919999701" x2="1208" y2="95.89474239999618" stroke="#ef5350" stroke-width="2"/><rect x="1204" y="67.93077600000288" width="8" height="23.170143199995437" fill="#ef5350"/><line x1="1220" y1="84.70915599999898" x2="1220" y2="125.5365471999994" stroke="#ef5350" stroke-width="2"/><rect x="1216" y="89.50297839999621" width="8" height="26.366025600000285" fill="#ef5350"/><line x1="1232" y1="90.30194879999726" x2="1232" y2="120.66282720000345" stroke="#26a69a" stroke-width="2"/><rect x="1228" y="103.88444719999825" width="8" height="11.984556799998245" fill="#26a69a"/><line x1="1244" y1="98.29165359999934" x2="1244" y2="135.84326639999745" stroke="#ef5350" stroke-width="2"/><rect x="1240" y="103.88444719999825" width="8" height="31.159848799998144" fill="#ef5350"/><line x1="1256" y1="131.84841360000064" x2="1256" y2="186.9773767999959" stroke="#ef5350" stroke-width="2"/><rect x="1252" y="133.44635520000338" width="8" height="48.7371991999953" fill="#ef5350"/><line x1="1268" y1="182.98252479999974" x2="1268" y2="241.30736959999922" stroke="#ef5350" stroke-width="2"/><rect x="1264" y="182.98252479999974" width="8" height="22.371173600004113" fill="#ef5350"/><line x1="1280" y1="179.78664240000398" x2="1280" y2="227.72487119999823" stroke="#ef5350" stroke-width="2"/><rect x="1276" y="206.95163919999686" width="8" height="13.582498400000986" fill="#ef5350"/><line x1="1292" y1="202.157815999999" x2="1292" y2="241.30736959999922" stroke="#ef5350" stroke-width="2"/><rect x="1288" y="219.73516639999616" width="8" height="14.38146880000204" fill="#ef5350"/><line x1="1304" y1="220.53413759999785" x2="1304" y2="258.8847199999964" stroke="#ef5350" stroke-width="2"/><rect x="1300" y="233.31766479999715" width="8" height="11.98455759999888" fill="#ef5350"/><line x1="1316" y1="235.7145760000003" x2="1316" y2="284.45177599999624" stroke="#ef5350" stroke-width="2"/><rect x="1312" y="245.30222239999603" width="8" height="2" fill="#ef5350"/><line x1="1328" y1="231.71972400000413" x2="1328" y2="263.7584400000014" stroke="#26a69a" stroke-width="2"/><rect x="1324" y="233.31766479999715" width="8" height="13.582498400000986" fill="#26a69a"/><line x1="1340" y1="228.52384239999992" x2="1340" y2="268.4723664000012" stroke="#ef5350" stroke-width="2"/><rect x="1336" y="233.31766479999715" width="8" height="30.360878400006186" fill="#ef5350"/><line x1="1352" y1="258.0857496000044" x2="1352" y2="300.03169999999955" stroke="#ef5350" stroke-width="2"/><rect x="1348" y="263.67854320000333" width="8" height="9.587645599995085" fill="#ef5350"/><line x1="1364" y1="255.68883840000126" x2="1364" y2="300.4311856000004" stroke="#26a69a" stroke-width="2"/><rect x="1360" y="266.0754543999974" width="8" height="5.592793599998913" fill="#26a69a"/><line x1="1376" y1="251.69398560000445" x2="1376" y2="310.8178015999965" stroke="#ef5350" stroke-width="2"/><rect x="1372" y="264.4775136000044" width="8" height="36.35315679999621" fill="#ef5350"/><line x1="1388" y1="270.86927760000435" x2="1388" y2="308.8203752000027" stroke="#26a69a" stroke-width="2"/><rect x="1384" y="270.86927760000435" width="8" height="29.561907999996038" fill="#26a69a"/><line x1="1400" y1="233.31766479999715" x2="1400" y2="270.0703072000033" stroke="#26a69a" stroke-width="2"/><rect x="1396" y="237.31251760000305" width="8" height="32.75778960000025" fill="#26a69a"/><line x1="1412" y1="230.12178320000203" x2="1412" y2="309.2198608000035" stroke="#ef5350" stroke-width="2"/><rect x="1408" y="238.91045839999606" width="8" height="22.371173600004113" fill="#ef5350"/><line x1="1424" y1="247.6991335999992" x2="1424" y2="281.2558936000005" stroke="#26a69a" stroke-width="2"/><rect x="1420" y="251.69398560000445" width="8" height="8.788675999994666" fill="#26a69a"/><line x1="1436" y1="250.8950152000034" x2="1436" y2="273.2661887999984" stroke="#ef5350" stroke-width="2"/><rect x="1432" y="254.09089759999915" width="8" height="13.582497600000352" fill="#ef5350"/><line x1="1448" y1="241.70685520000006" x2="1448" y2="267.6733951999995" stroke="#26a69a" stroke-width="2"/><rect x="1444" y="248.49810400000024" width="8" height="17.577350399997158" fill="#26a69a"/><line x1="1460" y1="248.49810400000024" x2="1460" y2="270.0703072000033" stroke="#ef5350" stroke-width="2"/><rect x="1456" y="248.49810400000024" width="8" height="11.185586399997192" fill="#ef5350"/><line x1="1472" y1="233.31766479999715" x2="1472" y2="282.8538344000026" stroke="#ef5350" stroke-width="2"/><rect x="1468" y="258.0857496000044" width="8" height="22.371173599995018" fill="#ef5350"/><line x1="1484" y1="268.4723664000012" x2="1484" y2="293.24045119999937" stroke="#26a69a" stroke-width="2"/><rect x="1480" y="275.6631000000016" width="8" height="3.9948527999968064" fill="#26a69a"/><line x1="1496" y1="270.86927760000435" x2="1496" y2="310.0188311999955" stroke="#ef5350" stroke-width="2"/><rect x="1492" y="278.0600119999963" width="8" height="29.561908000005133" fill="#ef5350"/><line x1="1508" y1="286.8486871999994" x2="1508" y2="315.61162400000285" stroke="#26a69a" stroke-width="2"/><rect x="1504" y="292.4414807999983" width="8" height="14.381468000001405" fill="#26a69a"/><line x1="1520" y1="288.4466280000015" x2="1520" y2="357.95705999999876" stroke="#ef5350" stroke-width="2"/><rect x="1516" y="292.4414807999983" width="8" height="43.144405600005484" fill="#ef5350"/><line x1="1532" y1="292.4414807999983" x2="1532" y2="335.5858864000038" stroke="#26a69a" stroke-width="2"/><rect x="1528" y="305.2250079999976" width="8" height="27.963967200003026" fill="#26a69a"/><line x1="1544" y1="293.24045119999937" x2="1544" y2="325.9982407999996" stroke="#ef5350" stroke-width="2"/><rect x="1540" y="309.2198608000035" width="8" height="10.386615999996138" fill="#ef5350"/><line x1="1556" y1="285.2507463999973" x2="1556" y2="328.3951520000028" stroke="#26a69a" stroke-width="2"/><rect x="1552" y="293.24045119999937" width="8" height="29.561907200004498" fill="#26a69a"/><line x1="1568" y1="294.8383920000015" x2="1568" y2="315.61162400000285" stroke="#ef5350" stroke-width="2"/><rect x="1564" y="296.4363328000036" width="8" height="2" fill="#ef5350"/><line x1="1580" y1="280.45692319999944" x2="1580" y2="308.42089040000246" stroke="#26a69a" stroke-width="2"/><rect x="1576" y="297.23530319999554" width="8" height="2" fill="#26a69a"/><line x1="1592" y1="289.24559840000256" x2="1592" y2="329.19412240000383" stroke="#ef5350" stroke-width="2"/><rect x="1588" y="297.23530319999554" width="8" height="13.582498400000986" fill="#ef5350"/><line x1="1604" y1="302.0291264000025" x2="1604" y2="320.4054472000007" stroke="#26a69a" stroke-width="2"/><rect x="1600" y="302.0291264000025" width="8" height="8.788675199994032" fill="#26a69a"/><line x1="1616" y1="283.65280480000365" x2="1616" y2="310.8178015999965" stroke="#ef5350" stroke-width="2"/><rect x="1612" y="301.23015600000144" width="8" height="4.793822399997225" fill="#ef5350"/><line x1="1628" y1="295.63736240000253" x2="1628" y2="315.61162400000285" stroke="#26a69a" stroke-width="2"/><rect x="1624" y="309.2198608000035" width="8" height="2" fill="#26a69a"/><line x1="1640" y1="264.4775136000044" x2="1640" y2="312.41574239999863" stroke="#26a69a" stroke-width="2"/><rect x="1636" y="268.4723664000012" width="8" height="39.14955360000022" fill="#26a69a"/><line x1="1652" y1="266.0754543999974" x2="1652" y2="283.65280480000365" stroke="#ef5350" stroke-width="2"/><rect x="1648" y="268.4723664000012" width="8" height="4.793822399997225" fill="#ef5350"/><line x1="1664" y1="254.8898680000002" x2="1664" y2="276.46207120000327" stroke="#26a69a" stroke-width="2"/><rect x="1660" y="261.2816320000002" width="8" height="11.185586399997192" fill="#26a69a"/><line x1="1676" y1="252.49295679999705" x2="1676" y2="281.2558936000005" stroke="#ef5350" stroke-width="2"/><rect x="1672" y="261.2816320000002" width="8" height="16.378894400004356" fill="#ef5350"/><line x1="1688" y1="242.90531040000133" x2="1688" y2="282.05486400000154" stroke="#26a69a" stroke-width="2"/><rect x="1684" y="242.90531040000133" width="8" height="34.35573120000299" fill="#26a69a"/><line x1="1700" y1="235.7145760000003" x2="1700" y2="256.4878088000023" stroke="#ef5350" stroke-width="2"/><rect x="1696" y="244.50325200000407" width="8" height="2" fill="#ef5350"/><line x1="1712" y1="231.71972400000413" x2="1712" y2="246.90016319999813" stroke="#26a69a" stroke-width="2"/><rect x="1708" y="234.1166351999982" width="8" height="11.98455759999888" fill="#26a69a"/><line x1="1724" y1="226.92590079999718" x2="1724" y2="248.49810400000024" stroke="#ef5350" stroke-width="2"/><rect x="1720" y="234.1166351999982" width="8" height="10.386616800005868" fill="#ef5350"/><line x1="1736" y1="238.1114880000041" x2="1736" y2="254.09089759999915" stroke="#ef5350" stroke-width="2"/><rect x="1732" y="245.30222239999603" width="8" height="8.788675200003127" fill="#ef5350"/><line x1="1748" y1="252.49295679999705" x2="1748" y2="275.6631000000016" stroke="#ef5350" stroke-width="2"/><rect x="1744" y="254.09089759999915" width="8" height="21.572202400002425" fill="#ef5350"/><line x1="1760" y1="270.86927760000435" x2="1760" y2="293.24045119999937" stroke="#26a69a" stroke-width="2"/><rect x="1756" y="272.46721839999736" width="8" height="3.1958816000042134" fill="#26a69a"/><line x1="1772" y1="260.4826615999991" x2="1772" y2="274.8641296000005" stroke="#26a69a" stroke-width="2"/><rect x="1768" y="262.8795728000023" width="8" height="11.984556799998245" fill="#26a69a"/><line x1="1784" y1="262.8795728000023" x2="1784" y2="281.2558936000005" stroke="#ef5350" stroke-width="2"/><rect x="1780" y="263.67854320000333" width="8" height="14.381468799992945" fill="#ef5350"/><line x1="1796" y1="272.46721839999736" x2="1796" y2="288.4466280000015" stroke="#26a69a" stroke-width="2"/><rect x="1792" y="278.85898239999733" width="8" height="2" fill="#26a69a"/><line x1="1808" y1="278.85898239999733" x2="1808" y2="316.41059520000454" stroke="#ef5350" stroke-width="2"/><rect x="1804" y="278.85898239999733" width="8" height="18.37632079999821" fill="#ef5350"/><line x1="1820" y1="295.63736240000253" x2="1820" y2="346.77147280000094" stroke="#ef5350" stroke-width="2"/><rect x="1816" y="297.23530319999554" width="8" height="35.154701600004046" fill="#ef5350"/><line x1="1832" y1="311.6167719999976" x2="1832" y2="349.9673551999967" stroke="#ef5350" stroke-width="2"/><rect x="1828" y="333.18897520000064" width="8" height="8.788675200003127" fill="#ef5350"/><line x1="1844" y1="342.77662079999567" x2="1844" y2="396.307643199998" stroke="#ef5350" stroke-width="2"/><rect x="1840" y="342.77662079999567" width="8" height="15.180439200003093" fill="#ef5350"/><line x1="1856" y1="330.79206319999685" x2="1856" y2="358.7560303999998" stroke="#26a69a" stroke-width="2"/><rect x="1852" y="335.5858864000038" width="8" height="23.170143999996014" fill="#26a69a"/><line x1="1868" y1="319.60647679999965" x2="1868" y2="348.768899200004" stroke="#ef5350" stroke-width="2"/><rect x="1864" y="337.1838271999968" width="8" height="9.587645600004123" fill="#ef5350"/><line x1="1880" y1="335.5858864000038" x2="1880" y2="360.3539712000019" stroke="#26a69a" stroke-width="2"/><rect x="1876" y="340.37970960000166" width="8" height="6.391763199999275" fill="#26a69a"/><line x1="1892" y1="322.80235840000387" x2="1892" y2="345.9725023999999" stroke="#26a69a" stroke-width="2"/><rect x="1888" y="326.7972112000007" width="8" height="14.38146880000204" fill="#26a69a"/><line x1="1904" y1="302.82809680000355" x2="1904" y2="329.19412240000383" stroke="#26a69a" stroke-width="2"/><rect x="1900" y="318.00853599999755" width="8" height="8.389189600002283" fill="#26a69a"/><line x1="1916" y1="282.8538344000026" x2="1916" y2="317.2095655999965" stroke="#26a69a" stroke-width="2"/><rect x="1912" y="292.4414807999983" width="8" height="23.96911440000622" fill="#26a69a"/><line x1="1928" y1="266.87442479999845" x2="1928" y2="313.2147127999997" stroke="#ef5350" stroke-width="2"/><rect x="1924" y="292.4414807999983" width="8" height="18.37632079999821" fill="#ef5350"/><line x1="1940" y1="282.05486400000154" x2="1940" y2="320.4054472000007" stroke="#26a69a" stroke-width="2"/><rect x="1936" y="293.24045119999937" width="8" height="15.180439200003093" fill="#26a69a"/><rect x="75" y="905.8760602195388" width="10" height="114.12393978046123" fill="#26a69a" opacity="0.9"/><rect x="87" y="960.9897865129833" width="10" height="59.0102134870167" fill="#26a69a" opacity="0.9"/><rect x="99" y="970.5975401975662" width="10" height="49.40245980243378" fill="#ef5350" opacity="0.9"/><rect x="111" y="957.8307745305241" width="10" height="62.16922546947592" fill="#26a69a" opacity="0.9"/><rect x="123" y="961.5651680058097" width="10" height="58.43483199419029" fill="#ef5350" opacity="0.9"/><rect x="135" y="988.5840773878797" width="10" height="31.415922612120312" fill="#26a69a" opacity="0.9"/><rect x="147" y="963.888200955245" width="10" height="56.111799044755" fill="#ef5350" opacity="0.9"/><rect x="159" y="963.2343329578147" width="10" height="56.76566704218533" fill="#ef5350" opacity="0.9"/><rect x="171" y="976.1538819630006" width="10" height="43.84611803699943" fill="#ef5350" opacity="0.9"/><rect x="183" y="980.4097498300855" width="10" height="39.5902501699145" fill="#26a69a" opacity="0.9"/><rect x="195" y="981.1245077136499" width="10" height="38.875492286350095" fill="#ef5350" opacity="0.9"/><rect x="207" y="963.0103252115784" width="10" height="56.98967478842155" fill="#ef5350" opacity="0.9"/><rect x="219" y="978.8389024923888" width="10" height="41.1610975076112" fill="#ef5350" opacity="0.9"/><rect x="231" y="968.5253288891786" width="10" height="51.47467111082142" fill="#26a69a" opacity="0.9"/><rect x="243" y="979.1115104229706" width="10" height="40.88848957702942" fill="#26a69a" opacity="0.9"/><rect x="255" y="988.9058441256157" width="10" height="31.09415587438434" fill="#ef5350" opacity="0.9"/><rect x="267" y="987.7123464951073" width="10" height="32.28765350489266" fill="#26a69a" opacity="0.9"/><rect x="279" y="991.3978604746432" width="10" height="28.602139525356847" fill="#ef5350" opacity="0.9"/><rect x="291" y="993.9474149729533" width="10" height="26.05258502704669" fill="#26a69a" opacity="0.9"/><rect x="303" y="996.3645758656326" width="10" height="23.63542413436744" fill="#ef5350" opacity="0.9"/><rect x="315" y="992.2221084286872" width="10" height="27.777891571312807" fill="#ef5350" opacity="0.9"/><rect x="327" y="982.4006815198264" width="10" height="37.599318480173565" fill="#26a69a" opacity="0.9"/><rect x="339" y="992.4098056923664" width="10" height="27.590194307633624" fill="#ef5350" opacity="0.9"/><rect x="351" y="990.7291889727858" width="10" height="29.270811027214222" fill="#26a69a" opacity="0.9"/><rect x="363" y="987.9539508598136" width="10" height="32.04604914018637" fill="#ef5350" opacity="0.9"/><rect x="375" y="992.9712216149785" width="10" height="27.028778385021496" fill="#ef5350" opacity="0.9"/><rect x="387" y="991.1249732326571" width="10" height="28.875026767342888" fill="#26a69a" opacity="0.9"/><rect x="399" y="998.0194959360191" width="10" height="21.980504063980902" fill="#26a69a" opacity="0.9"/><rect x="411" y="980.7884960942955" width="10" height="39.21150390570449" fill="#ef5350" opacity="0.9"/><rect x="423" y="992.3262915824853" width="10" height="27.673708417514717" fill="#ef5350" opacity="0.9"/><rect x="435" y="991.9712867876395" width="10" height="28.028713212360458" fill="#26a69a" opacity="0.9"/><rect x="447" y="996.585790497826" width="10" height="23.414209502174003" fill="#ef5350" opacity="0.9"/><rect x="459" y="985.1971472995242" width="10" height="34.802852700475796" fill="#26a69a" opacity="0.9"/><rect x="471" y="987.3137691211932" width="10" height="32.68623087880678" fill="#26a69a" opacity="0.9"/><rect x="483" y="964.2191849693223" width="10" height="55.78081503067767" fill="#26a69a" opacity="0.9"/><rect x="495" y="994.5462586237396" width="10" height="25.453741376260382" fill="#ef5350" opacity="0.9"/><rect x="507" y="985.3164132691538" width="10" height="34.68358673084617" fill="#ef5350" opacity="0.9"/><rect x="519" y="990.3253046821902" width="10" height="29.67469531780978" fill="#26a69a" opacity="0.9"/><rect x="531" y="992.1695978846816" width="10" height="27.830402115318407" fill="#26a69a" opacity="0.9"/><rect x="543" y="986.6308527377173" width="10" height="33.369147262282695" fill="#ef5350" opacity="0.9"/><rect x="555" y="989.321180183787" width="10" height="30.678819816213036" fill="#26a69a" opacity="0.9"/><rect x="567" y="983.8706974405765" width="10" height="36.129302559423536" fill="#26a69a" opacity="0.9"/><rect x="579" y="986.4032139432253" width="10" height="33.596786056774704" fill="#ef5350" opacity="0.9"/><rect x="591" y="991.7268893088905" width="10" height="28.273110691109537" fill="#26a69a" opacity="0.9"/><rect x="603" y="989.4228495349465" width="10" height="30.577150465053478" fill="#26a69a" opacity="0.9"/><rect x="615" y="996.6536631690672" width="10" height="23.34633683093284" fill="#ef5350" opacity="0.9"/><rect x="627" y="993.6351448229631" width="10" height="26.36485517703693" fill="#26a69a" opacity="0.9"/><rect x="639" y="996.1768786019533" width="10" height="23.823121398046737" fill="#26a69a" opacity="0.9"/><rect x="651" y="996.2307857029803" width="10" height="23.769214297019744" fill="#ef5350" opacity="0.9"/><rect x="663" y="984.9024737680039" width="10" height="35.097526231996085" fill="#ef5350" opacity="0.9"/><rect x="675" y="993.4075060284712" width="10" height="26.592493971528825" fill="#ef5350" opacity="0.9"/><rect x="687" y="997.0681612930256" width="10" height="22.931838706974418" fill="#ef5350" opacity="0.9"/><rect x="699" y="995.3791652313164" width="10" height="24.620834768683608" fill="#ef5350" opacity="0.9"/><rect x="711" y="988.2014207640098" width="10" height="31.798579235990246" fill="#26a69a" opacity="0.9"/><rect x="723" y="988.0031096669677" width="10" height="31.996890333032297" fill="#26a69a" opacity="0.9"/><rect x="735" y="992.9326766411873" width="10" height="27.0673233588127" fill="#ef5350" opacity="0.9"/><rect x="747" y="997.1287718677554" width="10" height="22.871228132244596" fill="#26a69a" opacity="0.9"/><rect x="759" y="996.6167940637016" width="10" height="23.383205936298395" fill="#26a69a" opacity="0.9"/><rect x="771" y="991.1319560177642" width="10" height="28.868043982235804" fill="#26a69a" opacity="0.9"/><rect x="783" y="989.0066755425624" width="10" height="30.993324457437552" fill="#ef5350" opacity="0.9"/><rect x="795" y="987.747260420643" width="10" height="32.25273957935701" fill="#26a69a" opacity="0.9"/><rect x="807" y="993.6569311124973" width="10" height="26.34306888750268" fill="#26a69a" opacity="0.9"/><rect x="819" y="996.6790805068571" width="10" height="23.320919493142924" fill="#ef5350" opacity="0.9"/><rect x="831" y="985.0843054921933" width="10" height="34.915694507806734" fill="#ef5350" opacity="0.9"/><rect x="843" y="997.6731497947061" width="10" height="22.32685020529391" fill="#ef5350" opacity="0.9"/><rect x="855" y="999.2934352509614" width="10" height="20.706564749038648" fill="#26a69a" opacity="0.9"/><rect x="867" y="991.5944957032596" width="10" height="28.405504296740446" fill="#ef5350" opacity="0.9"/><rect x="879" y="987.6319048106734" width="10" height="32.368095189326596" fill="#ef5350" opacity="0.9"/><rect x="891" y="998.1664137346728" width="10" height="21.8335862653272" fill="#26a69a" opacity="0.9"/><rect x="903" y="994.9956706732336" width="10" height="25.004329326766424" fill="#26a69a" opacity="0.9"/><rect x="915" y="995.8274600351932" width="10" height="24.172539964806788" fill="#26a69a" opacity="0.9"/><rect x="927" y="998.3130522219222" width="10" height="21.68694777807775" fill="#ef5350" opacity="0.9"/><rect x="939" y="995.6562421443667" width="10" height="24.34375785563327" fill="#ef5350" opacity="0.9"/><rect x="951" y="991.0252590613275" width="10" height="28.97474093867254" fill="#26a69a" opacity="0.9"/><rect x="963" y="988.0296442503748" width="10" height="31.97035574962524" fill="#ef5350" opacity="0.9"/><rect x="975" y="985.6275661735268" width="10" height="34.372433826473184" fill="#26a69a" opacity="0.9"/><rect x="987" y="969.2409247069558" width="10" height="50.75907529304425" fill="#26a69a" opacity="0.9"/><rect x="999" y="878.6954295343879" width="10" height="141.30457046561207" fill="#26a69a" opacity="0.9"/><rect x="1011" y="931.5411472250412" width="10" height="88.45885277495881" fill="#26a69a" opacity="0.9"/><rect x="1023" y="977.9682888452336" width="10" height="42.03171115476641" fill="#26a69a" opacity="0.9"/><rect x="1035" y="978.9930823875538" width="10" height="41.00691761244616" fill="#26a69a" opacity="0.9"/><rect x="1047" y="972.3161432681296" width="10" height="47.68385673187038" fill="#26a69a" opacity="0.9"/><rect x="1059" y="971.3335257478562" width="10" height="48.66647425214376" fill="#26a69a" opacity="0.9"/><rect x="1071" y="983.6207137337417" width="10" height="36.379286266258305" fill="#ef5350" opacity="0.9"/><rect x="1083" y="967.6927015930061" width="10" height="52.30729840699394" fill="#ef5350" opacity="0.9"/><rect x="1095" y="966.7159496122226" width="10" height="53.28405038777737" fill="#26a69a" opacity="0.9"/><rect x="1107" y="987.4171143407785" width="10" height="32.58288565922146" fill="#ef5350" opacity="0.9"/><rect x="1119" y="982.9003696220917" width="10" height="37.099630377908284" fill="#ef5350" opacity="0.9"/><rect x="1131" y="990.3177632742745" width="10" height="29.682236725725488" fill="#26a69a" opacity="0.9"/><rect x="1143" y="991.1098904168257" width="10" height="28.890109583174308" fill="#ef5350" opacity="0.9"/><rect x="1155" y="981.8976416807099" width="10" height="38.10235831929015" fill="#ef5350" opacity="0.9"/><rect x="1167" y="988.6033498747754" width="10" height="31.396650125224596" fill="#ef5350" opacity="0.9"/><rect x="1179" y="992.896086847226" width="10" height="27.103913152774" fill="#26a69a" opacity="0.9"/><rect x="1191" y="992.9645181412757" width="10" height="27.035481858724324" fill="#26a69a" opacity="0.9"/><rect x="1203" y="993.3594644669342" width="10" height="26.64053553306576" fill="#ef5350" opacity="0.9"/><rect x="1215" y="992.3709814071708" width="10" height="27.629018592829198" fill="#ef5350" opacity="0.9"/><rect x="1227" y="995.5048553632445" width="10" height="24.495144636755526" fill="#26a69a" opacity="0.9"/><rect x="1239" y="995.3827962795721" width="10" height="24.617203720427938" fill="#ef5350" opacity="0.9"/><rect x="1251" y="984.7086316534304" width="10" height="35.291368346569584" fill="#ef5350" opacity="0.9"/><rect x="1263" y="966.2673754969416" width="10" height="53.732624503058446" fill="#ef5350" opacity="0.9"/><rect x="1275" y="987.2718724105505" width="10" height="32.728127589449514" fill="#ef5350" opacity="0.9"/><rect x="1287" y="990.0189000716899" width="10" height="29.981099928310073" fill="#ef5350" opacity="0.9"/><rect x="1299" y="974.5092964145726" width="10" height="45.490703585427354" fill="#ef5350" opacity="0.9"/><rect x="1311" y="978.8964406416713" width="10" height="41.10355935832865" fill="#ef5350" opacity="0.9"/><rect x="1323" y="991.5606990233412" width="10" height="28.439300976658842" fill="#26a69a" opacity="0.9"/><rect x="1335" y="996.2221270494474" width="10" height="23.77787295055259" fill="#ef5350" opacity="0.9"/><rect x="1347" y="989.7172437550626" width="10" height="30.282756244937445" fill="#ef5350" opacity="0.9"/><rect x="1359" y="993.3616989581685" width="10" height="26.638301041831483" fill="#26a69a" opacity="0.9"/><rect x="1371" y="982.5777649501429" width="10" height="37.422235049857136" fill="#ef5350" opacity="0.9"/><rect x="1383" y="989.6683642593127" width="10" height="30.33163574068726" fill="#26a69a" opacity="0.9"/><rect x="1395" y="988.1070135093615" width="10" height="31.892986490638464" fill="#26a69a" opacity="0.9"/><rect x="1407" y="989.0242721610323" width="10" height="30.975727838967714" fill="#ef5350" opacity="0.9"/><rect x="1419" y="996.087219641178" width="10" height="23.912780358822033" fill="#26a69a" opacity="0.9"/><rect x="1431" y="997.8312400495312" width="10" height="22.168759950468825" fill="#ef5350" opacity="0.9"/><rect x="1443" y="995.4213412533634" width="10" height="24.57865874663662" fill="#26a69a" opacity="0.9"/><rect x="1455" y="995.3509547794837" width="10" height="24.649045220516314" fill="#ef5350" opacity="0.9"/><rect x="1467" y="993.1231670189094" width="10" height="26.876832981090615" fill="#ef5350" opacity="0.9"/><rect x="1479" y="990.5568538363422" width="10" height="29.443146163657843" fill="#26a69a" opacity="0.9"/><rect x="1491" y="997.0318508104685" width="10" height="22.96814918953146" fill="#ef5350" opacity="0.9"/><rect x="1503" y="994.0432187846229" width="10" height="25.956781215377077" fill="#26a69a" opacity="0.9"/><rect x="1515" y="971.2706806818923" width="10" height="48.72931931810774" fill="#ef5350" opacity="0.9"/><rect x="1527" y="990.2845252171646" width="10" height="29.715474782835372" fill="#26a69a" opacity="0.9"/><rect x="1539" y="993.2932676641187" width="10" height="26.70673233588127" fill="#ef5350" opacity="0.9"/><rect x="1551" y="989.6169709609244" width="10" height="30.38302903907561" fill="#26a69a" opacity="0.9"/><rect x="1563" y="999.0264135484651" width="10" height="20.973586451534857" fill="#ef5350" opacity="0.9"/><rect x="1575" y="996.6874598489857" width="10" height="23.312540151014332" fill="#26a69a" opacity="0.9"/><rect x="1587" y="993.2253949928776" width="10" height="26.77460500712243" fill="#ef5350" opacity="0.9"/><rect x="1599" y="997.3265243419888" width="10" height="22.67347565801117" fill="#26a69a" opacity="0.9"/><rect x="1611" y="995.3721824462093" width="10" height="24.627817553790692" fill="#ef5350" opacity="0.9"/><rect x="1623" y="994.0527153723687" width="10" height="25.947284627631348" fill="#26a69a" opacity="0.9"/><rect x="1635" y="988.87288537991" width="10" height="31.12711462008997" fill="#26a69a" opacity="0.9"/><rect x="1647" y="997.9021851462195" width="10" height="22.097814853780505" fill="#ef5350" opacity="0.9"/><rect x="1659" y="993.7013416257786" width="10" height="26.298658374221418" fill="#26a69a" opacity="0.9"/><rect x="1671" y="994.7576973567831" width="10" height="25.24230264321693" fill="#ef5350" opacity="0.9"/><rect x="1683" y="986.4696900574451" width="10" height="33.530309942554936" fill="#26a69a" opacity="0.9"/><rect x="1695" y="995.0155017829378" width="10" height="24.984498217062196" fill="#ef5350" opacity="0.9"/><rect x="1707" y="999.317735343134" width="10" height="20.682264656865982" fill="#26a69a" opacity="0.9"/><rect x="1719" y="997.6203599392963" width="10" height="22.37964006070365" fill="#ef5350" opacity="0.9"/><rect x="1731" y="992.6192892455799" width="10" height="27.38071075442008" fill="#ef5350" opacity="0.9"/><rect x="1743" y="995.5724487230814" width="10" height="24.42755127691862" fill="#ef5350" opacity="0.9"/><rect x="1755" y="986.251827162103" width="10" height="33.74817283789696" fill="#26a69a" opacity="0.9"/><rect x="1767" y="1000.7623339260942" width="10" height="19.237666073905757" fill="#26a69a" opacity="0.9"/><rect x="1779" y="1000.0333311609113" width="10" height="19.966668839088697" fill="#ef5350" opacity="0.9"/><rect x="1791" y="1000.3640358635843" width="10" height="19.635964136415737" fill="#26a69a" opacity="0.9"/><rect x="1803" y="993.2742744886274" width="10" height="26.725725511372616" fill="#ef5350" opacity="0.9"/><rect x="1815" y="984.7784595045016" width="10" height="35.2215404954984" fill="#ef5350" opacity="0.9"/><rect x="1827" y="989.2150418501587" width="10" height="30.78495814984126" fill="#ef5350" opacity="0.9"/><rect x="1839" y="964.1007569339056" width="10" height="55.899243066094414" fill="#ef5350" opacity="0.9"/><rect x="1851" y="979.3433388885268" width="10" height="40.65666111147323" fill="#26a69a" opacity="0.9"/><rect x="1863" y="986.2817134823615" width="10" height="33.71828651763849" fill="#ef5350" opacity="0.9"/><rect x="1875" y="981.9412142597782" width="10" height="38.058785740221765" fill="#26a69a" opacity="0.9"/><rect x="1887" y="983.8628767212565" width="10" height="36.1371232787435" fill="#26a69a" opacity="0.9"/><rect x="1899" y="978.9285614531641" width="10" height="41.07143854683591" fill="#26a69a" opacity="0.9"/><rect x="1911" y="961.4808159617157" width="10" height="58.519184038284266" fill="#26a69a" opacity="0.9"/><rect x="1923" y="927.9894234081578" width="10" height="92.01057659184221" fill="#ef5350" opacity="0.9"/><rect x="1935" y="860.0" width="10" height="160.0" fill="#26a69a" opacity="0.9"/><rect x="1004" y="262.8795728000023" width="12" height="244.48496639999576" fill="#00ff00" opacity="0.50"/><polyline points="320,718.8349047980955,332,721.2106190839859,344,726.6396584093218,356,723.1053870179585,368,721.8861160257711,380,725.4246040995076,392,726.6476901852639,404,725.9280736723758,416,728.2445967131025,428,733.7646576737552,440,737.8458894381583,452,741.5384324630941,464,742.3682546666078,476,738.9339626793117,488,727.3804867669969,500,718.2970055891928,512,711.4482815521205,524,704.5593758804898,536,695.2904686156853,548,687.5130538522899,560,678.8784043044507,572,669.1637916278432,584,660.9831195870993,596,651.6031560454758,608,641.2903041554273,620,633.481477169189,632,625.7695623911786,644,617.688775496772,656,610.9102342875485,668,605.7664700315945,680,601.5691426000103,692,599.1412243333434,704,599.7599561873085,716,597.3521565504234,728,592.890898364667,740,593.7244371870747,752,591.8153564644945,764,588.7184292583515,776,582.644473176606,788,577.5294511978791,800,572.5972044933224,812,566.5367546177731,824,561.2817677017938,836,556.9077178254338,848,554.6242775753944,860,550.2755350253574,872,546.7975129467504,884,545.4008569327743,896,544.0611232820356,908,541.251042359936,920,537.9476639256609,932,535.1871702946482,944,534.2114293522991,956,532.7198766901711,968,532.3595781863423,980,530.13128319717,992,527.8108370260088,1004,525.8635705663892,1016,496.86066936958923,1028,470.2394870677199,1040,438.9248749660328,1052,404.65739757879413,1064,372.96865761890336,1076,346.2002035218665,1088,324.56826855788677,1100,297.4633676285612,1112,275.29875105440624,1124,260.3432429539862,1136,240.11593539646128,1148,223.40536981584592,1160,208.8265429000421,1172,197.31020906194317,1184,185.59709764652325,1196,174.46687371828375,1208,166.5272590022596,1220,161.70266328776052,1232,156.1961665175022,1244,154.18170265869776,1256,156.84854568167793,1268,161.46808403579598,1280,167.0934224704797,1292,173.47658558757757,1304,180.317122426859,1316,186.6583644052571,1328,191.1021072999938,1340,198.01414881428173,1352,205.1810097653015,1364,210.98048068289245,1376,219.5376416083309,1388,224.426368845634,1400,225.65362110794922,1412,229.04676500243113,1424,231.20364315458573,1436,234.67695287319657,1448,235.99325298050644,1460,238.24948511569346,1472,242.26924112372217,1484,245.44960863575398,1496,251.37078114663382,1508,255.28227635171788,1520,262.93023921345593,1532,266.95831243122484,1544,271.9724233234956,1556,273.9979497879267,1568,276.2110310652679,1580,278.213342697145,1592,281.31852925932435,1604,283.29096708224824,1616,285.45601577918205,1628,287.7192391144945,1640,285.88620361787434,1652,284.68429744473724,1664,282.4554721642835,1676,281.9988106629171,1688,278.27562016168486,1700,275.2113889843804,1712,271.2976029096808,1724,268.74575996590465,1736,267.3500587881972,1748,268.14177699884567,1760,268.55372379895016,1772,268.01332846571313,1784,268.9701554689782,1796,269.91194851002547,1808,272.51417276621396,1820,278.2166329599113,1832,284.28911081135084,1844,291.30510597216926,1856,295.52232315577385,1868,300.403194550463,1880,304.21048169803726,1892,306.3615987934645,1904,307.47083090836895,1916,306.0394642313804,1928,306.4945439807707,1940,305.23224943021887" fill="none" stroke="#0090ff" stroke-width="2"/><line x1="80" y1="50" x2="80" y2="850" stroke="#666666" stroke-width="0.5" stroke-dasharray="4,4"/><line x1="152" y1="50" x2="152" y2="850" stroke="#666666" stroke-width="0.5" stroke-dasharray="4,4"/><line x1="224" y1="50" x2="224" y2="850" stroke="#666666" stroke-width="0.5" stroke-dasharray="4,4"/><line x1="296" y1="50" x2="296" y2="850" stroke="#666666" stroke-width="0.5" stroke-dasharray="4,4"/><line x1="368" y1="50" x2="368" y2="850" stroke="#666666" stroke-width="0.5" stroke-dasharray="4,4"/><line x1="440" y1="50" x2="440" y2="850" stroke="#666666" stroke-width="0.5" stroke-dasharray="4,4"/><line x1="512" y1="50" x2="512" y2="850" stroke="#666666" stroke-width="0.5" stroke-dasharray="4,4"/><line x1="584" y1="50" x2="584" y2="850" stroke="#666666" stroke-width="0.5" stroke-dasharray="4,4"/><line x1="656" y1="50" x2="656" y2="850" stroke="#666666" stroke-width="0.5" stroke-dasharray="4,4"/><line x1="728" y1="50" x2="728" y2="850" stroke="#666666" stroke-width="0.5" stroke-dasharray="4,4"/><line x1="800" y1="50" x2="800" y2="850" stroke="#666666" stroke-width="0.5" stroke-dasharray="4,4"/><line x1="872" y1="50" x2="872" y2="850" stroke="#666666" stroke-width="0.5" stroke-dasharray="4,4"/><line x1="944" y1="50" x2="944" y2="850" stroke="#666666" stroke-width="0.5" stroke-dasharray="4,4"/><line x1="1016" y1="50" x2="1016" y2="850" stroke="#666666" stroke-width="0.5" stroke-dasharray="4,4"/><line x1="1088" y1="50" x2="1088" y2="850" stroke="#666666" stroke-width="0.5" stroke-dasharray="4,4"/><line x1="1160" y1="50" x2="1160" y2="850" stroke="#666666" stroke-width="0.5" stroke-dasharray="4,4"/><line x1="1232" y1="50" x2="1232" y2="850" stroke="#666666" stroke-width="0.5" stroke-dasharray="4,4"/><line x1="1304" y1="50" x2="1304" y2="850" stroke="#666666" stroke-width="0.5" stroke-dasharray="4,4"/><line x1="1376" y1="50" x2="1376" y2="850" stroke="#666666" stroke-width="0.5" stroke-dasharray="4,4"/><line x1="1448" y1="50" x2="1448" y2="850" stroke="#666666" stroke-width="0.5" stroke-dasharray="4,4"/><line x1="1520" y1="50" x2="1520" y2="850" stroke="#666666" stroke-width="0.5" stroke-dasharray="4,4"/><line x1="1592" y1="50" x2="1592" y2="850" stroke="#666666" stroke-width="0.5" stroke-dasharray="4,4"/><line x1="1664" y1="50" x2="1664" y2="850" stroke="#666666" stroke-width="0.5" stroke-dasharray="4,4"/><line x1="1736" y1="50" x2="1736" y2="850" stroke="#666666" stroke-width="0.5" stroke-dasharray="4,4"/><line x1="1808" y1="50" x2="1808" y2="850" stroke="#666666" stroke-width="0.5" stroke-dasharray="4,4"/><line x1="1880" y1="50" x2="1880" y2="850" stroke="#666666" stroke-width="0.5" stroke-dasharray="4,4"/><text x="80" y="1040" text-anchor="middle" font-size="20" fill="black">09:30</text><text x="152" y="1040" text-anchor="middle" font-size="20" fill="black">10:00</text><text x="224" y="1040" text-anchor="middle" font-size="20" fill="black">10:30</text><text x="296" y="1040" text-anchor="middle" font-size="20" fill="black">11:00</text><text x="368" y="1040" text-anchor="middle" font-size="20" fill="black">11:30</text><text x="440" y="1040" text-anchor="middle" font-size="20" fill="black">12:00</text><text x="512" y="1040" text-anchor="middle" font-size="20" fill="black">12:30</text><text x="584" y="1040" text-anchor="middle" font-size="20" fill="black">13:00</text><text x="656" y="1040" text-anchor="middle" font-size="20" fill="black">13:30</text><text x="728" y="1040" text-anchor="middle" font-size="20" fill="black">14:00</text><text x="800" y="1040" text-anchor="middle" font-size="20" fill="black">14:30</text><text x="872" y="1040" text-anchor="middle" font-size="20" fill="black">15:00</text><text x="944" y="1040" text-anchor="middle" font-size="20" fill="black">15:30</text><text x="1016" y="1040" text-anchor="middle" font-size="20" fill="black">09:30</text><text x="1088" y="1040" text-anchor="middle" font-size="20" fill="black">10:00</text><text x="1160" y="1040" text-anchor="middle" font-size="20" fill="black">10:30</text><text x="1232" y="1040" text-anchor="middle" font-size="20" fill="black">11:00</text><text x="1304" y="1040" text-anchor="middle" font-size="20" fill="black">11:30</text><text x="1376" y="1040" text-anchor="middle" font-size="20" fill="black">12:00</text><text x="1448" y="1040" text-anchor="middle" font-size="20" fill="black">12:30</text><text x="1520" y="1040" text-anchor="middle" font-size="20" fill="black">13:00</text><text x="1592" y="1040" text-anchor="middle" font-size="20" fill="black">13:30</text><text x="1664" y="1040" text-anchor="middle" font-size="20" fill="black">14:00</text><text x="1736" y="1040" text-anchor="middle" font-size="20" fill="black">14:30</text><text x="1808" y="1040" text-anchor="middle" font-size="20" fill="black">15:00</text><text x="1880" y="1040" text-anchor="middle" font-size="20" fill="black">15:30</text><text x="1942" y="50" text-anchor="end" font-size="40" fill="#ef5350" font-weight="bold"> -0.06% (Mon)</text></svg>