<svg xmlns="http://www.w3.org/2000/svg" width="1992" height="1050"><rect width="100%" height="100%" fill="white"/><text x="42" y="854.0" text-anchor="end" font-size="20" fill="black">597</text><text x="42" y="720.6666666666667" text-anchor="end" font-size="20" fill="black">598</text><text x="42" y="587.3333333333334" text-anchor="end" font-size="20" fill="black">599</text><text x="42" y="454.0" text-anchor="end" font-size="20" fill="black">600</text><text x="42" y="320.66666666666674" text-anchor="end" font-size="20" fill="black">601</text><text x="42" y="187.33333333333326" text-anchor="end" font-size="20" fill="black">602</text><text x="42" y="54.0" text-anchor="end" font-size="20" fill="black">603</text><line x1="80" y1="719.404182666661" x2="80" y2="856.5607826666716" stroke="#26a69a" stroke-width="2"/><rect x="76" y="736.7152106666708" width="8" height="117.18233733333057" fill="#26a69a"/><line x1="92" y1="714.7435226666705" x2="92" y2="796.6379959999964" stroke="#ef5350" stroke-width="2"/><rect x="88" y="742.0416799999961" width="8" height="41.28014133333022" fill="#ef5350"/><line x1="104" y1="739.3784453333259" x2="104" y2="825.9335800000068" stroke="#26a69a" stroke-width="2"/><rect x="100" y="743.3732973333312" width="8" height="42.61175866666531" fill="#26a69a"/><line x1="116" y1="686.1137466666605" x2="116" y2="760.6843253333409" stroke="#26a69a" stroke-width="2"/><rect x="112" y="711.4144786666657" width="8" height="30.62720133333039" fill="#26a69a"/><line x1="128" y1="643.5019879999951" x2="128" y2="716.740948000006" stroke="#26a69a" stroke-width="2"/><rect x="124" y="643.5019879999951" width="8" height="66.58087333333549" fill="#26a69a"/><line x1="140" y1="636.8439000000004" x2="140" y2="708.0854346666608" stroke="#ef5350" stroke-width="2"/><rect x="136" y="646.2983839999955" width="8" height="15.846248000010178" fill="#ef5350"/><line x1="152" y1="619.5328733333403" x2="152" y2="682.1188946666705" stroke="#26a69a" stroke-width="2"/><rect x="148" y="656.8181626666653" width="8" height="5.326469333340356" fill="#26a69a"/><line x1="164" y1="616.8696386666701" x2="164" y2="659.4813973333355" stroke="#26a69a" stroke-width="2"/><rect x="160" y="638.1755173333355" width="8" height="18.775806666659832" fill="#26a69a"/><line x1="176" y1="639.6402973333352" x2="176" y2="719.404182666661" stroke="#ef5350" stroke-width="2"/><rect x="172" y="639.6402973333352" width="8" height="53.13153600000078" fill="#ef5350"/><line x1="188" y1="640.8387533333402" x2="188" y2="706.0880080000061" stroke="#26a69a" stroke-width="2"/><rect x="184" y="666.1394839999957" width="8" height="25.300732000005155" fill="#26a69a"/><line x1="200" y1="599.5586106666602" x2="200" y2="660.8130146666706" stroke="#26a69a" stroke-width="2"/><rect x="196" y="604.2192720000003" width="8" height="55.262125333335234" fill="#26a69a"/><line x1="212" y1="555.6152346666598" x2="212" y2="622.1961079999952" stroke="#26a69a" stroke-width="2"/><rect x="208" y="560.9417053333345" width="8" height="45.2749933333356" fill="#26a69a"/><line x1="224" y1="559.6100866666651" x2="224" y2="604.2192720000003" stroke="#ef5350" stroke-width="2"/><rect x="220" y="563.6049400000047" width="8" height="19.974261333330446" fill="#ef5350"/><line x1="236" y1="546.9597213333296" x2="236" y2="588.9056719999948" stroke="#26a69a" stroke-width="2"/><rect x="232" y="548.9571479999995" width="8" height="34.62205333333566" fill="#26a69a"/><line x1="248" y1="507.0111973333345" x2="248" y2="549.6229559999998" stroke="#26a69a" stroke-width="2"/><rect x="244" y="516.9983279999997" width="8" height="32.62462800000014" fill="#26a69a"/><line x1="260" y1="493.0292133333296" x2="260" y2="530.3145026666698" stroke="#ef5350" stroke-width="2"/><rect x="256" y="518.3299453333348" width="8" height="7.989705333329766" fill="#ef5350"/><line x1="272" y1="477.0498040000044" x2="272" y2="530.3145026666698" stroke="#26a69a" stroke-width="2"/><rect x="268" y="513.0034759999944" width="8" height="10.652939999999944" fill="#26a69a"/><line x1="284" y1="482.376274666664" x2="284" y2="514.3350933333295" stroke="#26a69a" stroke-width="2"/><rect x="280" y="490.36597866665943" width="8" height="21.30587999999989" fill="#26a69a"/><line x1="296" y1="457.0755426666741" x2="296" y2="520.9931813333393" stroke="#ef5350" stroke-width="2"/><rect x="292" y="491.6975959999945" width="8" height="25.300732000005155" fill="#ef5350"/><line x1="308" y1="499.6873013333394" x2="308" y2="534.3093559999943" stroke="#26a69a" stroke-width="2"/><rect x="304" y="506.34538799999973" width="8" height="11.984557333335033" fill="#26a69a"/><line x1="320" y1="499.6873013333394" x2="320" y2="550.2887653333346" stroke="#ef5350" stroke-width="2"/><rect x="316" y="509.00862400000426" width="8" height="38.61690666666016" fill="#ef5350"/><line x1="332" y1="530.3145026666698" x2="332" y2="562.2733226666696" stroke="#ef5350" stroke-width="2"/><rect x="328" y="548.9571479999995" width="8" height="5.326469333340356" fill="#ef5350"/><line x1="344" y1="516.9983279999997" x2="344" y2="562.2733226666696" stroke="#26a69a" stroke-width="2"/><rect x="340" y="519.7947253333344" width="8" height="34.48889200000542" fill="#26a69a"/><line x1="356" y1="501.0189186666594" x2="356" y2="535.6409733333294" stroke="#26a69a" stroke-width="2"/><rect x="352" y="513.0034759999944" width="8" height="3.9948520000052667" fill="#26a69a"/><line x1="368" y1="494.36083199999905" x2="368" y2="570.263026666665" stroke="#ef5350" stroke-width="2"/><rect x="364" y="510.34024133333935" width="8" height="58.5911679999906" fill="#ef5350"/><line x1="380" y1="524.9880333333294" x2="380" y2="583.5792013333352" stroke="#26a69a" stroke-width="2"/><rect x="376" y="539.6358253333347" width="8" height="29.2955839999953" fill="#26a69a"/><line x1="392" y1="524.9880333333294" x2="392" y2="556.9468519999949" stroke="#ef5350" stroke-width="2"/><rect x="388" y="536.9725906666645" width="8" height="11.984557333335033" fill="#ef5350"/><line x1="404" y1="526.3196506666645" x2="404" y2="548.9571479999995" stroke="#26a69a" stroke-width="2"/><rect x="400" y="528.9828853333347" width="8" height="19.9742626666648" fill="#26a69a"/><line x1="416" y1="513.0034759999944" x2="416" y2="544.9622946666599" stroke="#26a69a" stroke-width="2"/><rect x="412" y="526.3196506666645" width="8" height="2" fill="#26a69a"/><line x1="428" y1="524.9880333333294" x2="428" y2="550.2887653333346" stroke="#ef5350" stroke-width="2"/><rect x="424" y="528.9828853333347" width="8" height="2.663234666670178" fill="#ef5350"/><line x1="440" y1="489.03436133333946" x2="440" y2="539.6358253333347" stroke="#26a69a" stroke-width="2"/><rect x="436" y="509.00862400000426" width="8" height="30.62720133333039" fill="#26a69a"/><line x1="452" y1="438.4328973333292" x2="452" y2="539.6358253333347" stroke="#26a69a" stroke-width="2"/><rect x="448" y="451.08326399999896" width="8" height="59.25697733334039" fill="#26a69a"/><line x1="464" y1="395.8211386666638" x2="464" y2="457.7413506666593" stroke="#26a69a" stroke-width="2"/><rect x="460" y="399.81599066666905" width="8" height="53.26469866666531" fill="#26a69a"/><line x1="476" y1="357.2042320000037" x2="476" y2="411.8005480000041" stroke="#ef5350" stroke-width="2"/><rect x="472" y="398.48437333333396" width="8" height="5.3264706666595885" fill="#ef5350"/><line x1="488" y1="353.2093799999984" x2="488" y2="413.1321653333392" stroke="#26a69a" stroke-width="2"/><rect x="484" y="383.83658133332875" width="8" height="14.64779200000521" fill="#26a69a"/><line x1="500" y1="335.89835333333826" x2="500" y2="395.8211386666638" stroke="#26a69a" stroke-width="2"/><rect x="496" y="345.21967466666865" width="8" height="39.94852399999519" fill="#26a69a"/><line x1="512" y1="305.2711506666735" x2="512" y2="353.2093799999984" stroke="#26a69a" stroke-width="2"/><rect x="508" y="305.2711506666735" width="8" height="37.285289333324954" fill="#26a69a"/><line x1="524" y1="298.6130639999981" x2="524" y2="330.57188266666344" stroke="#ef5350" stroke-width="2"/><rect x="520" y="304.6053426666731" width="8" height="2" fill="#ef5350"/><line x1="536" y1="278.6388013333333" x2="536" y2="323.24798666666834" stroke="#ef5350" stroke-width="2"/><rect x="532" y="305.93695999999295" width="8" height="11.318748000000369" fill="#ef5350"/><line x1="548" y1="307.93438666666293" x2="548" y2="335.89835333333826" stroke="#ef5350" stroke-width="2"/><rect x="544" y="321.25056133333305" width="8" height="2" fill="#ef5350"/><line x1="560" y1="278.6388013333333" x2="560" y2="322.58217866666814" stroke="#26a69a" stroke-width="2"/><rect x="556" y="291.9549760000034" width="8" height="30.627202666664743" fill="#26a69a"/><line x1="572" y1="277.3071839999982" x2="572" y2="311.9292386666682" stroke="#ef5350" stroke-width="2"/><rect x="568" y="292.62078533333806" width="8" height="11.318748000000369" fill="#ef5350"/><line x1="584" y1="281.3020373333377" x2="584" y2="313.2608560000033" stroke="#26a69a" stroke-width="2"/><rect x="580" y="282.6336546666728" width="8" height="19.97426133333056" fill="#26a69a"/><line x1="596" y1="281.3020373333377" x2="596" y2="309.266003999998" stroke="#ef5350" stroke-width="2"/><rect x="592" y="282.6336546666728" width="8" height="9.321321333330616" fill="#ef5350"/><line x1="608" y1="282.6336546666728" x2="608" y2="327.90864799999326" stroke="#ef5350" stroke-width="2"/><rect x="604" y="291.9549760000034" width="8" height="31.958819999999832" fill="#ef5350"/><line x1="620" y1="298.6130639999981" x2="620" y2="345.21967466666865" stroke="#ef5350" stroke-width="2"/><rect x="616" y="322.58217866666814" width="8" height="14.64779200000521" fill="#ef5350"/><line x1="632" y1="286.62850666666304" x2="632" y2="338.5615879999932" stroke="#26a69a" stroke-width="2"/><rect x="628" y="302.60791600000334" width="8" height="34.62205466667001" fill="#26a69a"/><line x1="644" y1="283.96527199999286" x2="644" y2="306.6027679999934" stroke="#26a69a" stroke-width="2"/><rect x="640" y="294.6182119999928" width="8" height="6.658086666675445" fill="#26a69a"/><line x1="656" y1="271.98071466667284" x2="656" y2="319.9189426666635" stroke="#ef5350" stroke-width="2"/><rect x="652" y="295.9498293333279" width="8" height="21.30587866666542" fill="#ef5350"/><line x1="668" y1="287.96012399999813" x2="668" y2="329.24026533332835" stroke="#26a69a" stroke-width="2"/><rect x="664" y="293.2865933333385" width="8" height="26.63234933332501" fill="#26a69a"/><line x1="680" y1="271.98071466667284" x2="680" y2="313.2608560000033" stroke="#26a69a" stroke-width="2"/><rect x="676" y="273.3123319999929" width="8" height="19.974261333345567" fill="#26a69a"/><line x1="692" y1="258.6645400000027" x2="692" y2="287.96012399999813" stroke="#26a69a" stroke-width="2"/><rect x="688" y="271.98071466667284" width="8" height="2" fill="#26a69a"/><line x1="704" y1="261.46093600000313" x2="704" y2="287.96012399999813" stroke="#ef5350" stroke-width="2"/><rect x="700" y="271.98071466667284" width="8" height="14.647791999990204" fill="#ef5350"/><line x1="716" y1="281.3020373333377" x2="716" y2="314.5924733333384" stroke="#ef5350" stroke-width="2"/><rect x="712" y="286.62850666666304" width="8" height="7.989705333329766" fill="#ef5350"/><line x1="728" y1="278.6388013333333" x2="728" y2="301.27629866666825" stroke="#26a69a" stroke-width="2"/><rect x="724" y="282.6336546666728" width="8" height="14.647791999990204" fill="#26a69a"/><line x1="740" y1="269.31748000000266" x2="740" y2="294.6182119999928" stroke="#26a69a" stroke-width="2"/><rect x="736" y="274.643949333328" width="8" height="7.989705333344773" fill="#26a69a"/><line x1="752" y1="252.00645199999303" x2="752" y2="279.9704200000026" stroke="#26a69a" stroke-width="2"/><rect x="748" y="258.5313786666727" width="8" height="20.107422666660568" fill="#26a69a"/><line x1="764" y1="216.71858933333783" x2="764" y2="261.3277746666729" stroke="#26a69a" stroke-width="2"/><rect x="760" y="236.02704266666774" width="8" height="22.637497333334977" fill="#26a69a"/><line x1="776" y1="228.03733866667244" x2="776" y2="265.32262666666315" stroke="#ef5350" stroke-width="2"/><rect x="772" y="238.69027733333792" width="8" height="15.979410666659533" fill="#ef5350"/><line x1="788" y1="229.36895600000753" x2="788" y2="258.6645400000027" stroke="#26a69a" stroke-width="2"/><rect x="784" y="230.70057333332738" width="8" height="22.637496000000738" fill="#26a69a"/><line x1="800" y1="206.73145866667255" x2="800" y2="236.02704266666774" stroke="#26a69a" stroke-width="2"/><rect x="796" y="229.36895600000753" width="8" height="2" fill="#26a69a"/><line x1="812" y1="208.0630759999924" x2="812" y2="233.36380799999756" stroke="#26a69a" stroke-width="2"/><rect x="808" y="212.05792799999767" width="8" height="18.64264533332971" fill="#26a69a"/><line x1="824" y1="209.3946933333275" x2="824" y2="230.70057333332738" stroke="#ef5350" stroke-width="2"/><rect x="820" y="212.05792799999767" width="8" height="10.652939999999944" fill="#ef5350"/><line x1="836" y1="200.07337066666264" x2="836" y2="228.03733866667244" stroke="#ef5350" stroke-width="2"/><rect x="832" y="220.04763333332744" width="8" height="7.989705333345" fill="#ef5350"/><line x1="848" y1="217.3843986666725" x2="848" y2="248.01160000000277" stroke="#ef5350" stroke-width="2"/><rect x="844" y="228.03733866667244" width="8" height="14.647791999989977" fill="#ef5350"/><line x1="860" y1="212.05792799999767" x2="860" y2="250.67483466667295" stroke="#26a69a" stroke-width="2"/><rect x="856" y="220.04763333332744" width="8" height="22.637497333334977" fill="#26a69a"/><line x1="872" y1="208.0630759999924" x2="872" y2="232.03219066666247" stroke="#ef5350" stroke-width="2"/><rect x="868" y="216.0527813333374" width="8" height="9.321321333330388" fill="#ef5350"/><line x1="884" y1="206.0656493333379" x2="884" y2="228.03733866667244" stroke="#26a69a" stroke-width="2"/><rect x="880" y="209.3946933333275" width="8" height="15.9794093333403" fill="#26a69a"/><line x1="896" y1="182.76234400000249" x2="896" y2="217.3843986666725" stroke="#26a69a" stroke-width="2"/><rect x="892" y="184.09396133333757" width="8" height="24.634923999989724" fill="#26a69a"/><line x1="908" y1="170.77778666666745" x2="908" y2="218.71601599999235" stroke="#ef5350" stroke-width="2"/><rect x="904" y="184.09396133333757" width="8" height="18.64264533332971" fill="#ef5350"/><line x1="920" y1="193.41528400000243" x2="920" y2="219.91447199999743" stroke="#ef5350" stroke-width="2"/><rect x="916" y="202.73660666666729" width="8" height="2" fill="#ef5350"/><line x1="932" y1="197.41013599999246" x2="932" y2="220.04763333332744" stroke="#26a69a" stroke-width="2"/><rect x="928" y="201.4049893333322" width="8" height="2.663234666670178" fill="#26a69a"/><line x1="944" y1="193.41528400000243" x2="944" y2="224.0424853333327" stroke="#ef5350" stroke-width="2"/><rect x="940" y="204.06822400000237" width="8" height="17.311026666660155" fill="#ef5350"/><line x1="956" y1="220.04763333332744" x2="956" y2="275.9755666666631" stroke="#ef5350" stroke-width="2"/><rect x="952" y="220.04763333332744" width="8" height="43.943376000000626" fill="#ef5350"/><line x1="968" y1="242.68513066666242" x2="968" y2="286.62850666666304" stroke="#ef5350" stroke-width="2"/><rect x="964" y="263.99100933332807" width="8" height="14.64779200000521" fill="#ef5350"/><line x1="980" y1="241.35351333332733" x2="980" y2="283.96527199999286" stroke="#26a69a" stroke-width="2"/><rect x="976" y="241.35351333332733" width="8" height="34.62205333333577" fill="#26a69a"/><line x1="992" y1="209.3946933333275" x2="992" y2="283.96527199999286" stroke="#ef5350" stroke-width="2"/><rect x="988" y="226.70572000000288" width="8" height="26.632349333325237" fill="#ef5350"/><line x1="1004" y1="204.06822400000237" x2="1004" y2="262.659391999993" stroke="#26a69a" stroke-width="2"/><rect x="1000" y="253.33806933332812" width="8" height="2" fill="#26a69a"/><line x1="1016" y1="212.05792799999767" x2="1016" y2="285.29688933332795" stroke="#ef5350" stroke-width="2"/><rect x="1012" y="240.021894666673" width="8" height="26.632349333325237" fill="#ef5350"/><line x1="1028" y1="258.6645400000027" x2="1028" y2="337.22997066667335" stroke="#ef5350" stroke-width="2"/><rect x="1024" y="273.3123319999929" width="8" height="31.9588186666806" fill="#ef5350"/><line x1="1040" y1="290.6233586666683" x2="1040" y2="423.7851053333391" stroke="#ef5350" stroke-width="2"/><rect x="1036" y="305.2711506666735" width="8" height="87.88675333332009" fill="#ef5350"/><line x1="1052" y1="334.5667360000032" x2="1052" y2="413.1321653333392" stroke="#26a69a" stroke-width="2"/><rect x="1048" y="385.16819866666384" width="8" height="2" fill="#26a69a"/><line x1="1064" y1="334.5667360000032" x2="1064" y2="418.45863599999876" stroke="#ef5350" stroke-width="2"/><rect x="1060" y="386.49981599999893" width="8" height="17.31102799999462" fill="#ef5350"/><line x1="1076" y1="395.8211386666638" x2="1076" y2="459.73877733332904" stroke="#ef5350" stroke-width="2"/><rect x="1072" y="410.468930666669" width="8" height="26.632349333325124" fill="#ef5350"/><line x1="1088" y1="399.81599066666905" x2="1088" y2="471.7233346666641" stroke="#ef5350" stroke-width="2"/><rect x="1084" y="434.43804533333906" width="8" height="2" fill="#ef5350"/><line x1="1100" y1="373.1836413333288" x2="1100" y2="437.1012799999941" stroke="#26a69a" stroke-width="2"/><rect x="1096" y="399.81599066666905" width="8" height="32.09198133333001" fill="#26a69a"/><line x1="1112" y1="370.5204066666738" x2="1112" y2="439.7645146666643" stroke="#26a69a" stroke-width="2"/><rect x="1108" y="380.5075386666734" width="8" height="16.64521733332549" fill="#26a69a"/><line x1="1124" y1="370.5204066666738" x2="1124" y2="419.79025333333385" stroke="#26a69a" stroke-width="2"/><rect x="1120" y="379.84172933333866" width="8" height="2" fill="#26a69a"/><line x1="1136" y1="366.52555466666854" x2="1136" y2="453.08068933333436" stroke="#ef5350" stroke-width="2"/><rect x="1132" y="379.84172933333866" width="8" height="67.9124906666554" fill="#ef5350"/><line x1="1148" y1="366.52555466666854" x2="1148" y2="459.73877733332904" stroke="#26a69a" stroke-width="2"/><rect x="1144" y="394.4895213333287" width="8" height="57.25955066667058" fill="#26a69a"/><line x1="1160" y1="370.5204066666738" x2="1160" y2="407.8056959999988" stroke="#ef5350" stroke-width="2"/><rect x="1156" y="391.8262866666737" width="8" height="7.989703999995356" fill="#ef5350"/><line x1="1172" y1="369.85459866667344" x2="1172" y2="414.59694533333885" stroke="#26a69a" stroke-width="2"/><rect x="1168" y="390.4946693333386" width="8" height="8.122866666659945" fill="#26a69a"/><line x1="1184" y1="327.90864799999326" x2="1184" y2="411.8005480000041" stroke="#ef5350" stroke-width="2"/><rect x="1180" y="387.83143466666843" width="8" height="11.984556000000623" fill="#ef5350"/><line x1="1196" y1="393.1579039999936" x2="1196" y2="445.090985333339" stroke="#ef5350" stroke-width="2"/><rect x="1192" y="397.1527559999989" width="8" height="22.637497333334977" fill="#ef5350"/><line x1="1208" y1="383.83658133332875" x2="1208" y2="434.43804533333906" stroke="#26a69a" stroke-width="2"/><rect x="1204" y="386.49981599999893" width="8" height="31.958819999999832" fill="#26a69a"/><line x1="1220" y1="366.52555466666854" x2="1220" y2="427.9131199999938" stroke="#ef5350" stroke-width="2"/><rect x="1216" y="386.49981599999893" width="8" height="35.9536720000051" fill="#ef5350"/><line x1="1232" y1="409.1373133333339" x2="1232" y2="458.40715999999395" stroke="#ef5350" stroke-width="2"/><rect x="1228" y="421.12187066666894" width="8" height="6.658087999994677" fill="#ef5350"/><line x1="1244" y1="413.1321653333392" x2="1244" y2="462.4020119999992" stroke="#26a69a" stroke-width="2"/><rect x="1240" y="417.1270186666637" width="8" height="6.658086666675445" fill="#26a69a"/><line x1="1256" y1="355.8726146666686" x2="1256" y2="418.45863599999876" stroke="#26a69a" stroke-width="2"/><rect x="1252" y="373.1836413333288" width="8" height="41.28014266666469" fill="#26a69a"/><line x1="1268" y1="354.5409973333335" x2="1268" y2="407.8056959999988" stroke="#26a69a" stroke-width="2"/><rect x="1264" y="361.1990853333282" width="8" height="6.658086666675445" fill="#26a69a"/><line x1="1280" y1="343.88805733333356" x2="1280" y2="379.17592000000394" stroke="#26a69a" stroke-width="2"/><rect x="1276" y="346.55129333333815" width="8" height="14.647791999990034" fill="#26a69a"/><line x1="1292" y1="345.21967466666865" x2="1292" y2="398.48437333333396" stroke="#ef5350" stroke-width="2"/><rect x="1288" y="345.21967466666865" width="8" height="34.62205466667001" fill="#ef5350"/><line x1="1304" y1="367.85717200000363" x2="1304" y2="403.81084399999355" stroke="#ef5350" stroke-width="2"/><rect x="1300" y="379.84172933333866" width="8" height="15.979409333325123" fill="#ef5350"/><line x1="1316" y1="375.8468773333334" x2="1316" y2="429.1115759999987" stroke="#ef5350" stroke-width="2"/><rect x="1312" y="393.1579039999936" width="8" height="35.9536720000051" fill="#ef5350"/><line x1="1328" y1="406.47407866666373" x2="1328" y2="470.391717333329" stroke="#26a69a" stroke-width="2"/><rect x="1324" y="410.468930666669" width="8" height="18.64264533332971" fill="#26a69a"/><line x1="1340" y1="373.1836413333288" x2="1340" y2="415.7954013333286" stroke="#26a69a" stroke-width="2"/><rect x="1336" y="395.8211386666638" width="8" height="9.321322666664855" fill="#26a69a"/><line x1="1352" y1="386.49981599999893" x2="1352" y2="422.45348800000403" stroke="#ef5350" stroke-width="2"/><rect x="1348" y="397.1527559999989" width="8" height="10.652939999999944" fill="#ef5350"/><line x1="1364" y1="407.1398879999985" x2="1364" y2="437.1012799999941" stroke="#ef5350" stroke-width="2"/><rect x="1360" y="410.468930666669" width="8" height="9.321322666664855" fill="#ef5350"/><line x1="1376" y1="398.48437333333396" x2="1376" y2="442.4277506666688" stroke="#ef5350" stroke-width="2"/><rect x="1372" y="419.79025333333385" width="8" height="18.642643999995357" fill="#ef5350"/><line x1="1388" y1="427.7799586666636" x2="1388" y2="497.0240666666692" stroke="#ef5350" stroke-width="2"/><rect x="1384" y="437.1012799999941" width="8" height="58.59116933334002" fill="#ef5350"/><line x1="1400" y1="467.72848266667404" x2="1400" y2="516.9983279999997" stroke="#26a69a" stroke-width="2"/><rect x="1396" y="470.391717333329" width="8" height="23.969114666670066" fill="#26a69a"/><line x1="1412" y1="423.7851053333391" x2="1412" y2="479.7130386666595" stroke="#26a69a" stroke-width="2"/><rect x="1408" y="425.1167226666742" width="8" height="45.27499466665478" fill="#26a69a"/><line x1="1424" y1="393.1579039999936" x2="1424" y2="433.106428000004" stroke="#ef5350" stroke-width="2"/><rect x="1420" y="422.45348800000403" width="8" height="7.989705333329766" fill="#ef5350"/><line x1="1436" y1="427.7799586666636" x2="1436" y2="475.71818666666934" stroke="#ef5350" stroke-width="2"/><rect x="1432" y="430.4431933333338" width="8" height="35.95367066667069" fill="#ef5350"/><line x1="1448" y1="439.7645146666643" x2="1448" y2="477.0498040000044" stroke="#26a69a" stroke-width="2"/><rect x="1444" y="449.08583733332915" width="8" height="17.311026666675332" fill="#26a69a"/><line x1="1460" y1="431.7748106666689" x2="1460" y2="509.00862400000426" stroke="#26a69a" stroke-width="2"/><rect x="1456" y="446.4226026666741" width="8" height="2" fill="#26a69a"/><line x1="1472" y1="429.1115759999987" x2="1472" y2="467.72848266667404" stroke="#ef5350" stroke-width="2"/><rect x="1468" y="445.090985333339" width="8" height="5.3264693333251785" fill="#ef5350"/><line x1="1484" y1="403.81084399999355" x2="1484" y2="457.0755426666741" stroke="#26a69a" stroke-width="2"/><rect x="1480" y="409.1373133333339" width="8" height="39.948523999995246" fill="#26a69a"/><line x1="1496" y1="399.81599066666905" x2="1496" y2="442.4277506666688" stroke="#ef5350" stroke-width="2"/><rect x="1492" y="411.8005480000041" width="8" height="29.295585333329655" fill="#ef5350"/><line x1="1508" y1="443.7593680000039" x2="1508" y2="513.0034759999944" stroke="#ef5350" stroke-width="2"/><rect x="1504" y="443.7593680000039" width="8" height="31.958818666665422" fill="#ef5350"/><line x1="1520" y1="470.391717333329" x2="1520" y2="539.6358253333347" stroke="#ef5350" stroke-width="2"/><rect x="1516" y="475.71818666666934" width="8" height="47.80506666666042" fill="#ef5350"/><line x1="1532" y1="483.7078919999991" x2="1532" y2="520.9931813333393" stroke="#26a69a" stroke-width="2"/><rect x="1528" y="485.0395093333342" width="8" height="35.9536720000051" fill="#26a69a"/><line x1="1544" y1="481.0446573333289" x2="1544" y2="536.9725906666645" stroke="#ef5350" stroke-width="2"/><rect x="1540" y="486.3711266666693" width="8" height="49.2698466666601" fill="#ef5350"/><line x1="1556" y1="527.6512679999996" x2="1556" y2="563.6049400000047" stroke="#ef5350" stroke-width="2"/><rect x="1552" y="534.9751639999946" width="8" height="27.298158666675022" fill="#ef5350"/><line x1="1568" y1="531.6461200000049" x2="1568" y2="582.2475840000001" stroke="#ef5350" stroke-width="2"/><rect x="1564" y="558.27846933333" width="8" height="15.979410666674653" fill="#ef5350"/><line x1="1580" y1="566.2681746666598" x2="1580" y2="678.1240413333308" stroke="#ef5350" stroke-width="2"/><rect x="1576" y="574.2578800000047" width="8" height="93.21322266666061" fill="#ef5350"/><line x1="1592" y1="635.5122826666653" x2="1592" y2="699.4299213333306" stroke="#ef5350" stroke-width="2"/><rect x="1588" y="670.1343373333355" width="8" height="6.6580866666602105" fill="#ef5350"/><line x1="1604" y1="667.4711026666653" x2="1604" y2="829.9284333333313" stroke="#ef5350" stroke-width="2"/><rect x="1600" y="672.7975720000056" width="8" height="150.47277333333102" fill="#ef5350"/><line x1="1616" y1="799.3012306666666" x2="1616" y2="955.1004746666725" stroke="#ef5350" stroke-width="2"/><rect x="1612" y="823.2703453333366" width="8" height="62.58602133333022" fill="#ef5350"/><line x1="1628" y1="756.6894720000013" x2="1628" y2="916.4835679999973" stroke="#26a69a" stroke-width="2"/><rect x="1624" y="760.6843253333409" width="8" height="123.84042399999089" fill="#26a69a"/><line x1="1640" y1="744.7049146666662" x2="1640" y2="840.5813733333313" stroke="#ef5350" stroke-width="2"/><rect x="1636" y="760.6843253333409" width="8" height="75.90219466666588" fill="#ef5350"/><line x1="1652" y1="755.3578546666662" x2="1652" y2="844.5762253333365" stroke="#26a69a" stroke-width="2"/><rect x="1648" y="773.3346906666611" width="8" height="59.25697733334039" fill="#26a69a"/><line x1="1664" y1="742.0416799999961" x2="1664" y2="835.2549026666717" stroke="#ef5350" stroke-width="2"/><rect x="1660" y="767.3424120000012" width="8" height="54.59631600000034" fill="#ef5350"/><line x1="1676" y1="791.3115266666713" x2="1676" y2="849.9026946666618" stroke="#ef5350" stroke-width="2"/><rect x="1672" y="817.9438759999963" width="8" height="6.658086666675445" fill="#ef5350"/><line x1="1688" y1="811.2857880000016" x2="1688" y2="865.8821040000021" stroke="#ef5350" stroke-width="2"/><rect x="1684" y="825.2677720000065" width="8" height="29.961393333329966" fill="#ef5350"/><line x1="1700" y1="844.5762253333365" x2="1700" y2="907.1622466666668" stroke="#ef5350" stroke-width="2"/><rect x="1696" y="859.2240173333266" width="8" height="43.94337600000051" fill="#ef5350"/><line x1="1712" y1="865.8821040000021" x2="1712" y2="924.473273333327" stroke="#26a69a" stroke-width="2"/><rect x="1708" y="892.5144533333272" width="8" height="9.321322666679976" fill="#26a69a"/><line x1="1724" y1="803.2960840000063" x2="1724" y2="891.1828360000072" stroke="#26a69a" stroke-width="2"/><rect x="1720" y="852.565929333332" width="8" height="38.61690666667528" fill="#26a69a"/><line x1="1736" y1="777.9953520000012" x2="1736" y2="860.5556346666617" stroke="#26a69a" stroke-width="2"/><rect x="1732" y="787.316674666666" width="8" height="67.91249066667046" fill="#26a69a"/><line x1="1748" y1="774.0004999999959" x2="1748" y2="887.187984000002" stroke="#ef5350" stroke-width="2"/><rect x="1744" y="788.6482920000011" width="8" height="89.218369333336" fill="#ef5350"/><line x1="1760" y1="848.5710773333267" x2="1760" y2="891.1828360000072" stroke="#26a69a" stroke-width="2"/><rect x="1756" y="855.2291653333365" width="8" height="21.305878666665535" fill="#26a69a"/><line x1="1772" y1="816.6122586666612" x2="1772" y2="861.8872519999968" stroke="#26a69a" stroke-width="2"/><rect x="1768" y="856.5607826666716" width="8" height="2" fill="#26a69a"/><line x1="1784" y1="844.5762253333365" x2="1784" y2="907.1622466666668" stroke="#ef5350" stroke-width="2"/><rect x="1780" y="853.8975480000014" width="8" height="35.953670666670746" fill="#ef5350"/><line x1="1796" y1="867.2137226666715" x2="1796" y2="939.1210653333322" stroke="#ef5350" stroke-width="2"/><rect x="1792" y="887.3211453333321" width="8" height="27.83080533333009" fill="#ef5350"/><line x1="1808" y1="847.2394600000067" x2="1808" y2="919.1468026666674" stroke="#26a69a" stroke-width="2"/><rect x="1804" y="904.4990106666622" width="8" height="13.316174666670122" fill="#26a69a"/><line x1="1820" y1="889.8512186666721" x2="1820" y2="921.810038666672" stroke="#26a69a" stroke-width="2"/><rect x="1816" y="904.4990106666622" width="8" height="2" fill="#26a69a"/><line x1="1832" y1="855.2291653333365" x2="1832" y2="904.4990106666622" stroke="#26a69a" stroke-width="2"/><rect x="1828" y="876.535044000002" width="8" height="27.963966666660212" fill="#26a69a"/><line x1="1844" y1="797.9696133333315" x2="1844" y2="884.5247493333318" stroke="#26a69a" stroke-width="2"/><rect x="1840" y="812.6174066666712" width="8" height="59.92278533332558" fill="#26a69a"/><line x1="1856" y1="807.2909359999963" x2="1856" y2="893.8460719999966" stroke="#ef5350" stroke-width="2"/><rect x="1852" y="812.6174066666712" width="8" height="59.92278533332558" fill="#ef5350"/><line x1="1868" y1="867.2137226666715" x2="1868" y2="908.4938640000018" stroke="#ef5350" stroke-width="2"/><rect x="1864" y="872.5401919999968" width="8" height="11.318748000000255" fill="#ef5350"/><line x1="1880" y1="835.2549026666717" x2="1880" y2="884.5247493333318" stroke="#26a69a" stroke-width="2"/><rect x="1876" y="841.9129906666664" width="8" height="41.945949333330645" fill="#26a69a"/><line x1="1892" y1="823.2703453333366" x2="1892" y2="867.2137226666715" stroke="#26a69a" stroke-width="2"/><rect x="1888" y="835.2549026666717" width="8" height="5.3264706666595885" fill="#26a69a"/><line x1="1904" y1="795.3063786666613" x2="1904" y2="840.5813733333313" stroke="#26a69a" stroke-width="2"/><rect x="1900" y="797.9696133333315" width="8" height="37.28528933334019" fill="#26a69a"/><line x1="1916" y1="770.0056466666714" x2="1916" y2="824.6019626666717" stroke="#ef5350" stroke-width="2"/><rect x="1912" y="797.9696133333315" width="8" height="5.3264706666748225" fill="#ef5350"/><line x1="1928" y1="759.3527066666715" x2="1928" y2="833.9232853333366" stroke="#26a69a" stroke-width="2"/><rect x="1924" y="774.0004999999959" width="8" height="26.632349333340244" fill="#26a69a"/><line x1="1940" y1="766.0107946666661" x2="1940" y2="839.2497546666618" stroke="#ef5350" stroke-width="2"/><rect x="1936" y="772.6688813333263" width="8" height="23.969114666670066" fill="#ef5350"/><rect x="75" y="955.857918799578" width="10" height="64.14208120042201" fill="#26a69a" opacity="0.9"/><rect x="87" y="978.892561660527" width="10" height="41.10743833947299" fill="#ef5350" opacity="0.9"/><rect x="99" y="988.120059964263" width="10" height="31.879940035737036" fill="#26a69a" opacity="0.9"/><rect x="111" y="990.9418083772349" width="10" height="29.058191622765094" fill="#26a69a" opacity="0.9"/><rect x="123" y="992.1476655500336" width="10" height="27.852334449966406" fill="#26a69a" opacity="0.9"/><rect x="135" y="995.7561784860444" width="10" height="24.243821513955595" fill="#ef5350" opacity="0.9"/><rect x="147" y="993.0487280684615" width="10" height="26.951271931538486" fill="#26a69a" opacity="0.9"/><rect x="159" y="992.3922472744324" width="10" height="27.607752725567593" fill="#26a69a" opacity="0.9"/><rect x="171" y="991.3153416861752" width="10" height="28.684658313824798" fill="#ef5350" opacity="0.9"/><rect x="183" y="999.2226848217235" width="10" height="20.777315178276467" fill="#26a69a" opacity="0.9"/><rect x="195" y="995.5235860618612" width="10" height="24.476413938138762" fill="#26a69a" opacity="0.9"/><rect x="207" y="988.6577134717106" width="10" height="31.342286528289378" fill="#26a69a" opacity="0.9"/><rect x="219" y="995.9298901247242" width="10" height="24.07010987527576" fill="#ef5350" opacity="0.9"/><rect x="231" y="993.2189761315235" width="10" height="26.781023868476495" fill="#26a69a" opacity="0.9"/><rect x="243" y="996.452357185232" width="10" height="23.547642814767983" fill="#26a69a" opacity="0.9"/><rect x="255" y="989.4077108074216" width="10" height="30.59228919257839" fill="#ef5350" opacity="0.9"/><rect x="267" y="985.250887208216" width="10" height="34.749112791784" fill="#26a69a" opacity="0.9"/><rect x="279" y="997.5162077576989" width="10" height="22.483792242301092" fill="#26a69a" opacity="0.9"/><rect x="291" y="989.8214748793077" width="10" height="30.178525120692257" fill="#ef5350" opacity="0.9"/><rect x="303" y="998.718334925986" width="10" height="21.281665074013972" fill="#26a69a" opacity="0.9"/><rect x="315" y="995.8726079125829" width="10" height="24.127392087417093" fill="#ef5350" opacity="0.9"/><rect x="327" y="1000.387778373789" width="10" height="19.612221626210953" fill="#ef5350" opacity="0.9"/><rect x="339" y="993.3902899101602" width="10" height="26.609710089839837" fill="#26a69a" opacity="0.9"/><rect x="351" y="1000.017442211573" width="10" height="19.982557788427016" fill="#26a69a" opacity="0.9"/><rect x="363" y="993.1326531699709" width="10" height="26.867346830029078" fill="#ef5350" opacity="0.9"/><rect x="375" y="985.430193853663" width="10" height="34.56980614633699" fill="#26a69a" opacity="0.9"/><rect x="387" y="998.869400108703" width="10" height="21.130599891297038" fill="#ef5350" opacity="0.9"/><rect x="399" y="1002.7709848277626" width="10" height="17.229015172237382" fill="#26a69a" opacity="0.9"/><rect x="411" y="1000.1719709699078" width="10" height="19.82802903009224" fill="#26a69a" opacity="0.9"/><rect x="423" y="1005.398773006135" width="10" height="14.601226993864998" fill="#ef5350" opacity="0.9"/><rect x="435" y="982.3422829759041" width="10" height="37.65771702409586" fill="#26a69a" opacity="0.9"/><rect x="447" y="975.9101566246657" width="10" height="44.08984337533434" fill="#26a69a" opacity="0.9"/><rect x="459" y="982.4813588584054" width="10" height="37.51864114159457" fill="#26a69a" opacity="0.9"/><rect x="471" y="986.8611834416218" width="10" height="33.13881655837815" fill="#ef5350" opacity="0.9"/><rect x="483" y="989.5046909247214" width="10" height="30.495309075278556" fill="#26a69a" opacity="0.9"/><rect x="495" y="989.5744952948658" width="10" height="30.425504705134244" fill="#26a69a" opacity="0.9"/><rect x="507" y="990.1830188880324" width="10" height="29.816981111967607" fill="#26a69a" opacity="0.9"/><rect x="519" y="993.8608033364002" width="10" height="26.13919666359982" fill="#ef5350" opacity="0.9"/><rect x="531" y="990.7888781922622" width="10" height="29.211121807737754" fill="#ef5350" opacity="0.9"/><rect x="543" y="999.0668239189204" width="10" height="20.933176081079637" fill="#ef5350" opacity="0.9"/><rect x="555" y="996.8117697628072" width="10" height="23.188230237192784" fill="#26a69a" opacity="0.9"/><rect x="567" y="994.844725240763" width="10" height="25.155274759237045" fill="#ef5350" opacity="0.9"/><rect x="579" y="998.2190471792285" width="10" height="21.780952820771518" fill="#26a69a" opacity="0.9"/><rect x="591" y="1001.4319132081235" width="10" height="18.568086791876453" fill="#ef5350" opacity="0.9"/><rect x="603" y="997.5151420421242" width="10" height="22.48485795787576" fill="#ef5350" opacity="0.9"/><rect x="615" y="991.0092148873362" width="10" height="28.990785112663843" fill="#ef5350" opacity="0.9"/><rect x="627" y="999.0321881627418" width="10" height="20.967811837258182" fill="#26a69a" opacity="0.9"/><rect x="639" y="1000.5502999989343" width="10" height="19.449700001065708" fill="#26a69a" opacity="0.9"/><rect x="651" y="996.5115043996291" width="10" height="23.488495600370925" fill="#ef5350" opacity="0.9"/><rect x="663" y="993.297839084053" width="10" height="26.702160915947047" fill="#26a69a" opacity="0.9"/><rect x="675" y="996.1568875421402" width="10" height="23.843112457859775" fill="#26a69a" opacity="0.9"/><rect x="687" y="987.9583376257989" width="10" height="32.04166237420111" fill="#26a69a" opacity="0.9"/><rect x="699" y="1000.1013673130824" width="10" height="19.89863268691761" fill="#ef5350" opacity="0.9"/><rect x="711" y="994.2663081125822" width="10" height="25.733691887417763" fill="#ef5350" opacity="0.9"/><rect x="723" y="997.5327263491071" width="10" height="22.467273650892935" fill="#26a69a" opacity="0.9"/><rect x="735" y="995.2425035790282" width="10" height="24.757496420971847" fill="#26a69a" opacity="0.9"/><rect x="747" y="992.4756395181545" width="10" height="27.52436048184552" fill="#26a69a" opacity="0.9"/><rect x="759" y="999.7102496971592" width="10" height="20.289750302840844" fill="#26a69a" opacity="0.9"/><rect x="771" y="996.2847734111069" width="10" height="23.715226588893074" fill="#ef5350" opacity="0.9"/><rect x="783" y="1002.0225860654136" width="10" height="17.977413934586366" fill="#26a69a" opacity="0.9"/><rect x="795" y="993.2019246823279" width="10" height="26.7980753176721" fill="#26a69a" opacity="0.9"/><rect x="807" y="1003.1346602676367" width="10" height="16.86533973236328" fill="#26a69a" opacity="0.9"/><rect x="819" y="1000.1130901844043" width="10" height="19.886909815595686" fill="#ef5350" opacity="0.9"/><rect x="831" y="996.5218951264827" width="10" height="23.47810487351728" fill="#ef5350" opacity="0.9"/><rect x="843" y="999.0130052823969" width="10" height="20.986994717603125" fill="#ef5350" opacity="0.9"/><rect x="855" y="999.0167352869084" width="10" height="20.983264713091557" fill="#26a69a" opacity="0.9"/><rect x="867" y="997.4354798029136" width="10" height="22.56452019708638" fill="#ef5350" opacity="0.9"/><rect x="879" y="999.6540332005925" width="10" height="20.345966799407506" fill="#26a69a" opacity="0.9"/><rect x="891" y="988.8170379501316" width="10" height="31.182962049868365" fill="#26a69a" opacity="0.9"/><rect x="903" y="997.5881435589927" width="10" height="22.41185644100733" fill="#ef5350" opacity="0.9"/><rect x="915" y="994.0768771691752" width="10" height="25.92312283082481" fill="#ef5350" opacity="0.9"/><rect x="927" y="993.3314091246567" width="10" height="26.668590875343284" fill="#26a69a" opacity="0.9"/><rect x="939" y="992.889936447828" width="10" height="27.11006355217205" fill="#ef5350" opacity="0.9"/><rect x="951" y="983.6877488889916" width="10" height="36.312251111008436" fill="#ef5350" opacity="0.9"/><rect x="963" y="978.1289764512381" width="10" height="41.871023548761855" fill="#ef5350" opacity="0.9"/><rect x="975" y="978.3434517106512" width="10" height="41.65654828934885" fill="#26a69a" opacity="0.9"/><rect x="987" y="954.6110315771525" width="10" height="65.38896842284748" fill="#ef5350" opacity="0.9"/><rect x="999" y="860.0" width="10" height="160.0" fill="#26a69a" opacity="0.9"/><rect x="1011" y="949.3645138027929" width="10" height="70.63548619720711" fill="#ef5350" opacity="0.9"/><rect x="1023" y="960.6914717887325" width="10" height="59.30852821126746" fill="#ef5350" opacity="0.9"/><rect x="1035" y="963.6608218088036" width="10" height="56.339178191196424" fill="#ef5350" opacity="0.9"/><rect x="1047" y="987.0666001186497" width="10" height="32.93339988135028" fill="#26a69a" opacity="0.9"/><rect x="1059" y="980.9017019477728" width="10" height="39.098298052227165" fill="#ef5350" opacity="0.9"/><rect x="1071" y="957.5119093715475" width="10" height="62.48809062845248" fill="#ef5350" opacity="0.9"/><rect x="1083" y="966.5457138695778" width="10" height="53.45428613042225" fill="#ef5350" opacity="0.9"/><rect x="1095" y="984.7023101161275" width="10" height="35.29768988387252" fill="#26a69a" opacity="0.9"/><rect x="1107" y="980.0246180297761" width="10" height="39.97538197022391" fill="#26a69a" opacity="0.9"/><rect x="1119" y="974.0891151363583" width="10" height="45.91088486364174" fill="#26a69a" opacity="0.9"/><rect x="1131" y="990.2557539760072" width="10" height="29.744246023992787" fill="#ef5350" opacity="0.9"/><rect x="1143" y="992.2097434822612" width="10" height="27.79025651773884" fill="#26a69a" opacity="0.9"/><rect x="1155" y="996.197917591767" width="10" height="23.80208240823299" fill="#ef5350" opacity="0.9"/><rect x="1167" y="986.3219313608122" width="10" height="33.67806863918781" fill="#26a69a" opacity="0.9"/><rect x="1179" y="988.2252993772669" width="10" height="31.77470062273312" fill="#ef5350" opacity="0.9"/><rect x="1191" y="991.0014884494194" width="10" height="28.998511550580588" fill="#ef5350" opacity="0.9"/><rect x="1203" y="993.8445511738857" width="10" height="26.155448826114252" fill="#26a69a" opacity="0.9"/><rect x="1215" y="982.3580022806314" width="10" height="37.641997719368646" fill="#ef5350" opacity="0.9"/><rect x="1227" y="989.9576200439785" width="10" height="30.042379956021477" fill="#ef5350" opacity="0.9"/><rect x="1239" y="993.221107562673" width="10" height="26.778892437327045" fill="#26a69a" opacity="0.9"/><rect x="1251" y="988.3963467270098" width="10" height="31.603653272990186" fill="#26a69a" opacity="0.9"/><rect x="1263" y="990.2922547344415" width="10" height="29.707745265558515" fill="#26a69a" opacity="0.9"/><rect x="1275" y="999.4265029253893" width="10" height="20.573497074610714" fill="#26a69a" opacity="0.9"/><rect x="1287" y="996.7933861691432" width="10" height="23.20661383085678" fill="#ef5350" opacity="0.9"/><rect x="1299" y="990.5677422105073" width="10" height="29.432257789492724" fill="#ef5350" opacity="0.9"/><rect x="1311" y="1001.6922142372496" width="10" height="18.307785762750427" fill="#ef5350" opacity="0.9"/><rect x="1323" y="989.7399476378414" width="10" height="30.260052362158604" fill="#26a69a" opacity="0.9"/><rect x="1335" y="990.5933193843006" width="10" height="29.40668061569943" fill="#26a69a" opacity="0.9"/><rect x="1347" y="997.8519081637365" width="10" height="22.14809183626346" fill="#ef5350" opacity="0.9"/><rect x="1359" y="1000.2705496605696" width="10" height="19.7294503394304" fill="#ef5350" opacity="0.9"/><rect x="1371" y="998.450573887837" width="10" height="21.54942611216302" fill="#ef5350" opacity="0.9"/><rect x="1383" y="995.4095544953659" width="10" height="24.59044550463409" fill="#ef5350" opacity="0.9"/><rect x="1395" y="984.8291302695195" width="10" height="35.17086973048049" fill="#26a69a" opacity="0.9"/><rect x="1407" y="986.2142940877652" width="10" height="33.78570591223479" fill="#26a69a" opacity="0.9"/><rect x="1419" y="985.3454694654725" width="10" height="34.65453053452745" fill="#ef5350" opacity="0.9"/><rect x="1431" y="1001.920543799134" width="10" height="18.079456200866048" fill="#ef5350" opacity="0.9"/><rect x="1443" y="997.6979122631891" width="10" height="22.302087736810904" fill="#26a69a" opacity="0.9"/><rect x="1455" y="972.3176294222756" width="10" height="47.68237057772444" fill="#26a69a" opacity="0.9"/><rect x="1467" y="999.9476378414287" width="10" height="20.052362158571327" fill="#ef5350" opacity="0.9"/><rect x="1479" y="991.4544175686765" width="10" height="28.54558243132351" fill="#26a69a" opacity="0.9"/><rect x="1491" y="998.5363639916021" width="10" height="21.463636008397884" fill="#ef5350" opacity="0.9"/><rect x="1503" y="981.5560513106525" width="10" height="38.44394868934751" fill="#ef5350" opacity="0.9"/><rect x="1515" y="986.8033683716932" width="10" height="33.19663162830682" fill="#ef5350" opacity="0.9"/><rect x="1527" y="991.8007751304614" width="10" height="28.199224869538625" fill="#26a69a" opacity="0.9"/><rect x="1539" y="994.7176386584772" width="10" height="25.2823613415228" fill="#ef5350" opacity="0.9"/><rect x="1551" y="989.6096639088316" width="10" height="30.390336091168365" fill="#ef5350" opacity="0.9"/><rect x="1563" y="969.9869094603572" width="10" height="50.0130905396428" fill="#ef5350" opacity="0.9"/><rect x="1575" y="950.649233928121" width="10" height="69.35076607187898" fill="#ef5350" opacity="0.9"/><rect x="1587" y="969.9362879705578" width="10" height="50.06371202944217" fill="#ef5350" opacity="0.9"/><rect x="1599" y="924.7733933449615" width="10" height="95.2266066550385" fill="#ef5350" opacity="0.9"/><rect x="1611" y="928.1940739109275" width="10" height="91.8059260890725" fill="#ef5350" opacity="0.9"/><rect x="1623" y="957.1072038820466" width="10" height="62.89279611795337" fill="#26a69a" opacity="0.9"/><rect x="1635" y="978.444428261356" width="10" height="41.55557173864395" fill="#ef5350" opacity="0.9"/><rect x="1647" y="983.4024035438596" width="10" height="36.59759645614042" fill="#26a69a" opacity="0.9"/><rect x="1659" y="974.7421323547696" width="10" height="45.25786764523036" fill="#ef5350" opacity="0.9"/><rect x="1671" y="994.5924170784473" width="10" height="25.407582921552716" fill="#ef5350" opacity="0.9"/><rect x="1683" y="993.6785659731227" width="10" height="26.32143402687734" fill="#ef5350" opacity="0.9"/><rect x="1695" y="988.1613564427835" width="10" height="31.83864355721653" fill="#ef5350" opacity="0.9"/><rect x="1707" y="978.3429188528637" width="10" height="41.657081147136296" fill="#26a69a" opacity="0.9"/><rect x="1719" y="985.7786828465973" width="10" height="34.22131715340265" fill="#26a69a" opacity="0.9"/><rect x="1731" y="991.2505994650107" width="10" height="28.749400534989263" fill="#26a69a" opacity="0.9"/><rect x="1743" y="989.2686349249203" width="10" height="30.73136507507968" fill="#ef5350" opacity="0.9"/><rect x="1755" y="998.7042141946209" width="10" height="21.29578580537907" fill="#26a69a" opacity="0.9"/><rect x="1767" y="994.3616896565198" width="10" height="25.638310343480157" fill="#26a69a" opacity="0.9"/><rect x="1779" y="996.7110596409959" width="10" height="23.288940359004073" fill="#ef5350" opacity="0.9"/><rect x="1791" y="973.2357433898992" width="10" height="46.7642566101008" fill="#ef5350" opacity="0.9"/><rect x="1803" y="982.2804714725703" width="10" height="37.7195285274297" fill="#26a69a" opacity="0.9"/><rect x="1815" y="992.1894948863414" width="10" height="27.810505113658564" fill="#26a69a" opacity="0.9"/><rect x="1827" y="995.075719091584" width="10" height="24.924280908415994" fill="#26a69a" opacity="0.9"/><rect x="1839" y="990.7662317362993" width="10" height="29.233768263700654" fill="#26a69a" opacity="0.9"/><rect x="1851" y="987.4638455991276" width="10" height="32.53615440087242" fill="#ef5350" opacity="0.9"/><rect x="1863" y="989.4873730466321" width="10" height="30.512626953367885" fill="#ef5350" opacity="0.9"/><rect x="1875" y="989.852913488762" width="10" height="30.147086511237944" fill="#26a69a" opacity="0.9"/><rect x="1887" y="990.1880810370124" width="10" height="29.811918962987647" fill="#26a69a" opacity="0.9"/><rect x="1899" y="985.169093537856" width="10" height="34.83090646214396" fill="#26a69a" opacity="0.9"/><rect x="1911" y="983.5140372503117" width="10" height="36.48596274968827" fill="#ef5350" opacity="0.9"/><rect x="1923" y="910.7989314425171" width="10" height="109.20106855748293" fill="#26a69a" opacity="0.9"/><rect x="1935" y="882.5180372361021" width="10" height="137.48196276389785" fill="#ef5350" opacity="0.9"/><rect x="1004" y="240.021894666673" width="12" height="13.316174666655115" fill="#00ff00" opacity="0.60"/><polyline points="320,608.6786056000013,332,603.4981305269715,344,595.5263776513826,356,587.6670536845722,368,585.8827066035095,380,581.4782417206364,392,578.380994699622,404,573.6764128552144,416,569.1662450277363,428,565.5928997870129,440,560.2039211406312,452,549.8114776034375,464,535.5261931332583,476,522.9818741681811,488,509.72994151723776,500,494.0622970552795,512,476.08218787540864,524,459.80178801426825,536,446.22597087006096,548,434.4503716125928,560,420.87938155424735,572,409.7422531522625,584,397.63667234410605,596,387.57174888276796,608,381.50908670345416,620,377.2920280332831,632,370.1792554586821,644,362.9829656054729,656,358.6279886906747,668,352.40499865664486,680,344.8723637369615,692,337.93030192073275,704,333.0444166584432,716,329.38477811953817,728,324.93229017163685,740,320.1429243775085,752,314.27515811931994,764,306.8229566476475,776,301.85597868119953,788,295.079273409965,800,288.82114794234144,812,281.5103650906924,824,275.9104129868167,836,271.35107257537743,848,268.62098286978835,860,263.9949495805922,872,260.316773684038,884,255.46705174586646,896,248.66961456371723,908,244.29504238304003,920,240.46391682275794,932,236.74401896661652,944,235.28070769995497,956,238.01502214123502,968,241.88395349286407,980,241.83343538243207,992,242.92911480632324,1004,243.92044380889888,1016,246.08556763663114,1028,251.72228982996785,1040,265.1923483223527,1052,276.61861978372144,1064,288.7321649471687,1076,302.8625568569623,1088,315.52037645788005,1100,323.5485301920562,1112,328.97319766583064,1124,333.81781972940803,1136,344.6689054694616,1148,349.4137260279179,1160,354.2139417078033,1172,357.66924910071793,1184,361.6832244879636,1196,367.21722723514176,1208,369.0536642603699,1220,374.13936175938335,1232,379.24799003626504,1244,382.85551657249925,1256,381.93438559733295,1268,379.95959509598833,1280,376.7778520709726,1292,377.0696499054945,1304,378.855505977981,1316,383.64179836103176,1328,386.196763342529,1340,387.1133705162568,1352,389.08406818137945,1364,392.0084667672806,1376,396.42984110690423,1388,405.88342284275615,1400,412.02706993710007,1412,413.2737035303914,1424,414.90889303543855,1436,419.8125093177775,1448,422.60044531926724,1460,424.86922220949356,1472,427.3023872054182,1484,425.5723801699939,1496,427.05083285222827,1508,431.685818929797,1520,440.4322412539386,1532,444.68055249958525,1544,453.34344972184226,1556,463.7177233356397,1568,474.24535730368314,1580,492.64780924301397,1592,510.18539160081673,1604,540.0030062420077,1616,572.9414215205452,1628,590.8216980741448,1640,614.2278715909015,1652,629.3809019790691,1664,647.719742552484,1676,664.5656682776462,1688,682.7240965686694,1700,703.7186962605422,1712,721.6992445531862,1724,734.1627383417745,1736,739.2250179917634,1748,752.4289840243,1760,762.2194774822977,1772,771.2043636903369,1784,782.5040641642621,1796,795.1371962121053,1808,805.5526071125465,1820,814.9760741177033,1832,820.8388331541149,1844,820.0558401553129,1856,825.0543498547964,1868,830.6547870114779,1880,831.7269968833898,1892,832.0629879103763,1904,828.8159998554116,1916,826.3855316787007,1928,821.3964810426356,1940,819.0385300861939" fill="none" stroke="#0090ff" stroke-width="2"/><line x1="80" y1="50" x2="80" y2="900" stroke="#666666" stroke-width="0.5" stroke-dasharray="4,4" opacity="0.90"/><line x1="152" y1="50" x2="152" y2="900" stroke="#666666" stroke-width="0.5" stroke-dasharray="4,4" opacity="0.90"/><line x1="224" y1="50" x2="224" y2="900" stroke="#666666" stroke-width="0.5" stroke-dasharray="4,4" opacity="0.90"/><line x1="296" y1="50" x2="296" y2="900" stroke="#666666" stroke-width="0.5" stroke-dasharray="4,4" opacity="0.90"/><line x1="368" y1="50" x2="368" y2="900" stroke="#666666" stroke-width="0.5" stroke-dasharray="4,4" opacity="0.90"/><line x1="440" y1="50" x2="440" y2="900" stroke="#666666" stroke-width="0.5" stroke-dasharray="4,4" opacity="0.90"/><line x1="512" y1="50" x2="512" y2="900" stroke="#666666" stroke-width="0.5" stroke-dasharray="4,4" opacity="0.90"/><line x1="584" y1="50" x2="584" y2="900" stroke="#666666" stroke-width="0.5" stroke-dasharray="4,4" opacity="0.90"/><line x1="656" y1="50" x2="656" y2="900" stroke="#666666" stroke-width="0.5" stroke-dasharray="4,4" opacity="0.90"/><line x1="728" y1="50" x2="728" y2="900" stroke="#666666" stroke-width="0.5" stroke-dasharray="4,4" opacity="0.90"/><line x1="800" y1="50" x2="800" y2="900" stroke="#666666" stroke-width="0.5" stroke-dasharray="4,4" opacity="0.90"/><line x1="872" y1="50" x2="872" y2="900" stroke="#666666" stroke-width="0.5" stroke-dasharray="4,4" opacity="0.90"/><line x1="944" y1="50" x2="944" y2="900" stroke="#666666" stroke-width="0.5" stroke-dasharray="4,4" opacity="0.90"/><line x1="1010" y1="30" x2="1010" y2="950" stroke="black" stroke-width="0.7"/><line x1="1016" y1="50" x2="1016" y2="900" stroke="#666666" stroke-width="0.5" stroke-dasharray="4,4" opacity="0.90"/><line x1="1088" y1="50" x2="1088" y2="900" stroke="#666666" stroke-width="0.5" stroke-dasharray="4,4" opacity="0.90"/><line x1="1160" y1="50" x2="1160" y2="900" stroke="#666666" stroke-width="0.5" stroke-dasharray="4,4" opacity="0.90"/><line x1="1232" y1="50" x2="1232" y2="900" stroke="#666666" stroke-width="0.5" stroke-dasharray="4,4" opacity="0.90"/><line x1="1304" y1="50" x2="1304" y2="900" stroke="#666666" stroke-width="0.5" stroke-dasharray="4,4" opacity="0.90"/><line x1="1376" y1="50" x2="1376" y2="900" stroke="#666666" stroke-width="0.5" stroke-dasharray="4,4" opacity="0.90"/><line x1="1448" y1="50" x2="1448" y2="900" stroke="#666666" stroke-width="0.5" stroke-dasharray="4,4" opacity="0.90"/><line x1="1520" y1="50" x2="1520" y2="900" stroke="#666666" stroke-width="0.5" stroke-dasharray="4,4" opacity="0.90"/><line x1="1592" y1="50" x2="1592" y2="900" stroke="#666666" stroke-width="0.5" stroke-dasharray="4,4" opacity="0.90"/><line x1="1664" y1="50" x2="1664" y2="900" stroke="#666666" stroke-width="0.5" stroke-dasharray="4,4" opacity="0.90"/><line x1="1736" y1="50" x2="1736" y2="900" stroke="#666666" stroke-width="0.5" stroke-dasharray="4,4" opacity="0.90"/><line x1="1808" y1="50" x2="1808" y2="900" stroke="#666666" stroke-width="0.5" stroke-dasharray="4,4" opacity="0.90"/><line x1="1880" y1="50" x2="1880" y2="900" stroke="#666666" stroke-width="0.5" stroke-dasharray="4,4" opacity="0.90"/><line x1="1946" y1="30" x2="1946" y2="950" stroke="black" stroke-width="0.7"/><text x="80" y="1040" text-anchor="middle" font-size="20" fill="black">09:30</text><text x="152" y="1040" text-anchor="middle" font-size="20" fill="black">10:00</text><text x="224" y="1040" text-anchor="middle" font-size="20" fill="black">10:30</text><text x="296" y="1040" text-anchor="middle" font-size="20" fill="black">11:00</text><text x="368" y="1040" text-anchor="middle" font-size="20" fill="black">11:30</text><text x="440" y="1040" text-anchor="middle" font-size="20" fill="black">12:00</text><text x="512" y="1040" text-anchor="middle" font-size="20" fill="black">12:30</text><text x="584" y="1040" text-anchor="middle" font-size="20" fill="black">13:00</text><text x="656" y="1040" text-anchor="middle" font-size="20" fill="black">13:30</text><text x="728" y="1040" text-anchor="middle" font-size="20" fill="black">14:00</text><text x="800" y="1040" text-anchor="middle" font-size="20" fill="black">14:30</text><text x="872" y="1040" text-anchor="middle" font-size="20" fill="black">15:00</text><text x="944" y="1040" text-anchor="middle" font-size="20" fill="black">15:30</text><text x="1016" y="1040" text-anchor="middle" font-size="20" fill="black">09:30</text><text x="1088" y="1040" text-anchor="middle" font-size="20" fill="black">10:00</text><text x="1160" y="1040" text-anchor="middle" font-size="20" fill="black">10:30</text><text x="1232" y="1040" text-anchor="middle" font-size="20" fill="black">11:00</text><text x="1304" y="1040" text-anchor="middle" font-size="20" fill="black">11:30</text><text x="1376" y="1040" text-anchor="middle" font-size="20" fill="black">12:00</text><text x="1448" y="1040" text-anchor="middle" font-size="20" fill="black">12:30</text><text x="1520" y="1040" text-anchor="middle" font-size="20" fill="black">13:00</text><text x="1592" y="1040" text-anchor="middle" font-size="20" fill="black">13:30</text><text x="1664" y="1040" text-anchor="middle" font-size="20" fill="black">14:00</text><text x="1736" y="1040" text-anchor="middle" font-size="20" fill="black">14:30</text><text x="1808" y="1040" text-anchor="middle" font-size="20" fill="black">15:00</text><text x="1880" y="1040" text-anchor="middle" font-size="20" fill="black">15:30</text><text x="1942" y="50" text-anchor="end" font-size="40" fill="#ef5350" font-weight="bold"> -0.69% (Tue)</text></svg>