<svg xmlns="http://www.w3.org/2000/svg" width="1992" height="1050"><rect width="100%" height="100%" fill="white"/><text x="42" y="854.0" text-anchor="end" font-size="20" fill="black">521</text><text x="42" y="781.2727272727273" text-anchor="end" font-size="20" fill="black">522</text><text x="42" y="708.5454545454545" text-anchor="end" font-size="20" fill="black">523</text><text x="42" y="635.8181818181819" text-anchor="end" font-size="20" fill="black">524</text><text x="42" y="563.090909090909" text-anchor="end" font-size="20" fill="black">525</text><text x="42" y="490.3636363636364" text-anchor="end" font-size="20" fill="black">526</text><text x="42" y="417.6363636363637" text-anchor="end" font-size="20" fill="black">527</text><text x="42" y="344.90909090909093" text-anchor="end" font-size="20" fill="black">528</text><text x="42" y="272.18181818181813" text-anchor="end" font-size="20" fill="black">529</text><text x="42" y="199.45454545454538" text-anchor="end" font-size="20" fill="black">530</text><text x="42" y="126.72727272727275" text-anchor="end" font-size="20" fill="black">531</text><text x="42" y="54.0" text-anchor="end" font-size="20" fill="black">532</text><line x1="80" y1="421.18462545454764" x2="80" y2="492.20344218181873" stroke="#26a69a" stroke-width="2"/><rect x="76" y="427.7067614545476" width="8" height="49.27836290908914" fill="#26a69a"/><line x1="92" y1="364.2971040000041" x2="92" y2="433.50421599999953" stroke="#26a69a" stroke-width="2"/><rect x="88" y="380.6024443636323" width="8" height="44.93027200000637" fill="#26a69a"/><line x1="104" y1="357.41262618181617" x2="104" y2="426.9820799999996" stroke="#ef5350" stroke-width="2"/><rect x="100" y="379.87776218181926" width="8" height="36.95877236363731" fill="#ef5350"/><line x1="116" y1="371.18158109091047" x2="116" y2="426.25739781817833" stroke="#26a69a" stroke-width="2"/><rect x="112" y="388.5739440000014" width="8" height="31.161317818177054" fill="#26a69a"/><line x1="128" y1="387.8492625454535" x2="128" y2="459.5927607272725" stroke="#ef5350" stroke-width="2"/><rect x="124" y="387.8492625454535" width="8" height="57.974543999997934" fill="#ef5350"/><line x1="140" y1="423.3586705454565" x2="140" y2="455.96935200000274" stroke="#26a69a" stroke-width="2"/><rect x="136" y="433.50421599999953" width="8" height="10.50788654545778" fill="#26a69a"/><line x1="152" y1="437.1276247272693" x2="152" y2="539.3077592727257" stroke="#ef5350" stroke-width="2"/><rect x="148" y="445.09912509091174" width="8" height="84.06308945454424" fill="#ef5350"/><line x1="164" y1="514.6685781818219" x2="164" y2="623.37084872727" stroke="#ef5350" stroke-width="2"/><rect x="160" y="529.162214545456" width="8" height="19.56640872727303" fill="#ef5350"/><line x1="176" y1="481.3332152727277" x2="176" y2="542.2064865454558" stroke="#26a69a" stroke-width="2"/><rect x="172" y="502.34898763636176" width="8" height="39.85749890909409" fill="#26a69a"/><line x1="188" y1="463.94085163636356" x2="188" y2="527.7128509090868" stroke="#26a69a" stroke-width="2"/><rect x="184" y="475.5357607272758" width="8" height="26.088544727273018" fill="#26a69a"/><line x1="200" y1="456.6940334545424" x2="200" y2="516.1179418181828" stroke="#ef5350" stroke-width="2"/><rect x="196" y="476.9851243636367" width="8" height="23.189817454542833" fill="#ef5350"/><line x1="212" y1="440.75103418182067" x2="212" y2="503.79835127273094" stroke="#26a69a" stroke-width="2"/><rect x="208" y="443.64976145454256" width="8" height="52.17708945454598" fill="#26a69a"/><line x1="224" y1="429.15612509090846" x2="224" y2="462.4914880000027" stroke="#26a69a" stroke-width="2"/><rect x="220" y="440.8235025454567" width="8" height="5.000303999994742" fill="#26a69a"/><line x1="236" y1="418.28589818181746" x2="236" y2="483.50726036363665" stroke="#ef5350" stroke-width="2"/><rect x="232" y="437.1276247272693" width="8" height="31.161317818185353" fill="#ef5350"/><line x1="248" y1="453.7953069090939" x2="248" y2="502.34898763636176" stroke="#ef5350" stroke-width="2"/><rect x="244" y="472.6370334545457" width="8" height="3.623408727269748" fill="#ef5350"/><line x1="260" y1="453.07062472727256" x2="260" y2="509.5958058181829" stroke="#26a69a" stroke-width="2"/><rect x="256" y="466.11489745454577" width="8" height="10.14554472726968" fill="#26a69a"/><line x1="272" y1="460.31744290909376" x2="272" y2="497.2037469090868" stroke="#26a69a" stroke-width="2"/><rect x="268" y="461.04212436363343" width="8" height="6.522136727273221" fill="#26a69a"/><line x1="284" y1="411.0390799999963" x2="284" y2="467.56426109090665" stroke="#26a69a" stroke-width="2"/><rect x="280" y="414.6624894545477" width="8" height="47.828998545454965" fill="#26a69a"/><line x1="296" y1="393.64671709090544" x2="296" y2="422.6339890909085" stroke="#26a69a" stroke-width="2"/><rect x="292" y="399.4441709090924" width="8" height="12.319591272725177" fill="#26a69a"/><line x1="308" y1="379.87776218181926" x2="308" y2="407.4156712727265" stroke="#26a69a" stroke-width="2"/><rect x="304" y="385.31287636363805" width="8" height="14.131294545454352" fill="#26a69a"/><line x1="320" y1="373.3556261818194" x2="320" y2="400.8935345454533" stroke="#ef5350" stroke-width="2"/><rect x="316" y="385.7476850909072" width="8" height="9.348395636367457" fill="#ef5350"/><line x1="332" y1="383.5011716363624" x2="332" y2="411.0390799999963" stroke="#ef5350" stroke-width="2"/><rect x="328" y="392.9220349090925" width="8" height="5.797454545451956" fill="#ef5350"/><line x1="344" y1="389.29862618181437" x2="344" y2="419.73526181817846" stroke="#26a69a" stroke-width="2"/><rect x="340" y="397.99480727272316" width="8" height="2" fill="#26a69a"/><line x1="356" y1="392.1973534545445" x2="356" y2="425.6051840000013" stroke="#ef5350" stroke-width="2"/><rect x="352" y="397.99480727272316" width="8" height="27.53790909091549" fill="#ef5350"/><line x1="368" y1="411.0390799999963" x2="368" y2="443.64976145454256" stroke="#ef5350" stroke-width="2"/><rect x="364" y="424.0833527272695" width="8" height="2.8987272727300706" fill="#ef5350"/><line x1="380" y1="398.71948945454443" x2="380" y2="437.1276247272693" stroke="#26a69a" stroke-width="2"/><rect x="376" y="408.14035272727443" width="8" height="18.1170450909039" fill="#26a69a"/><line x1="392" y1="390.7479898181836" x2="392" y2="464.6655338181848" stroke="#ef5350" stroke-width="2"/><rect x="388" y="408.21282109091044" width="8" height="39.060349090910165" fill="#ef5350"/><line x1="404" y1="412.4884436363655" x2="404" y2="456.6940334545424" stroke="#26a69a" stroke-width="2"/><rect x="400" y="437.8523069090906" width="8" height="13.768954181821073" fill="#26a69a"/><line x1="416" y1="405.24162545454436" x2="416" y2="437.8523069090906" stroke="#26a69a" stroke-width="2"/><rect x="412" y="416.1118523636353" width="8" height="21.740454545455293" fill="#26a69a"/><line x1="428" y1="413.2131258181785" x2="428" y2="439.3016705454515" stroke="#ef5350" stroke-width="2"/><rect x="424" y="419.01057963636543" width="8" height="8.69618181818214" fill="#ef5350"/><line x1="440" y1="423.3586705454565" x2="440" y2="456.6940334545424" stroke="#ef5350" stroke-width="2"/><rect x="436" y="428.4314436363605" width="8" height="25.363863272733397" fill="#ef5350"/><line x1="452" y1="444.3744429090905" x2="452" y2="470.4629883636368" stroke="#ef5350" stroke-width="2"/><rect x="448" y="450.1718974545425" width="8" height="10.145545454551268" fill="#ef5350"/><line x1="464" y1="455.96935200000274" x2="464" y2="510.3204872727309" stroke="#ef5350" stroke-width="2"/><rect x="460" y="461.11459272726944" width="8" height="44.85780363637036" fill="#ef5350"/><line x1="476" y1="451.9836021818182" x2="476" y2="506.6970785454528" stroke="#26a69a" stroke-width="2"/><rect x="472" y="452.34594327272464" width="8" height="52.17708945454598" fill="#26a69a"/><line x1="488" y1="452.34594327272464" x2="488" y2="478.3620196363617" stroke="#ef5350" stroke-width="2"/><rect x="484" y="452.34594327272464" width="8" height="15.942999272729992" fill="#ef5350"/><line x1="500" y1="454.88232945454826" x2="500" y2="487.85535127272766" stroke="#ef5350" stroke-width="2"/><rect x="496" y="466.8395789090937" width="8" height="18.84172727272511" fill="#ef5350"/><line x1="512" y1="460.31744290909376" x2="512" y2="500.17494181817955" stroke="#26a69a" stroke-width="2"/><rect x="508" y="488.5800334545489" width="8" height="2" fill="#26a69a"/><line x1="524" y1="479.1591694545456" x2="524" y2="499.45026036363987" stroke="#26a69a" stroke-width="2"/><rect x="520" y="483.50726036363665" width="8" height="5.797454545451956" fill="#26a69a"/><line x1="536" y1="463.2161701818156" x2="536" y2="484.2319425454579" stroke="#26a69a" stroke-width="2"/><rect x="532" y="463.2161701818156" width="8" height="20.291090181821062" fill="#26a69a"/><line x1="548" y1="434.30136581818346" x2="548" y2="465.3902152727245" stroke="#26a69a" stroke-width="2"/><rect x="544" y="435.75072945454434" width="8" height="28.19012218181922" fill="#26a69a"/><line x1="560" y1="429.8808072727297" x2="560" y2="446.5484887272726" stroke="#26a69a" stroke-width="2"/><rect x="556" y="435.6782610909084" width="8" height="2" fill="#26a69a"/><line x1="572" y1="423.3586705454565" x2="572" y2="443.64976145454256" stroke="#26a69a" stroke-width="2"/><rect x="568" y="429.15612509090846" width="8" height="7.246818181821141" fill="#26a69a"/><line x1="584" y1="406.0387752727283" x2="584" y2="428.793784000002" stroke="#26a69a" stroke-width="2"/><rect x="580" y="406.6909890909053" width="8" height="21.74045454545518" fill="#26a69a"/><line x1="596" y1="395.82076218181436" x2="596" y2="406.6909890909053" stroke="#26a69a" stroke-width="2"/><rect x="592" y="398.71948945454443" width="8" height="7.319285818183857" fill="#26a69a"/><line x1="608" y1="388.5739440000014" x2="608" y2="405.9663076363656" stroke="#26a69a" stroke-width="2"/><rect x="604" y="394.37139854545336" width="8" height="5.797454545451956" fill="#26a69a"/><line x1="620" y1="387.12458036364046" x2="620" y2="407.4156712727265" stroke="#ef5350" stroke-width="2"/><rect x="616" y="393.71918472727634" width="8" height="4.275622545446822" fill="#ef5350"/><line x1="632" y1="387.12458036364046" x2="632" y2="400.1688530909053" stroke="#26a69a" stroke-width="2"/><rect x="628" y="399.4441709090924" width="8" height="2" fill="#26a69a"/><line x1="644" y1="379.87776218181926" x2="644" y2="398.71948945454443" stroke="#26a69a" stroke-width="2"/><rect x="640" y="392.1973534545445" width="8" height="3.6234087272698616" fill="#26a69a"/><line x1="656" y1="390.0233076363623" x2="656" y2="408.14035272727443" stroke="#ef5350" stroke-width="2"/><rect x="652" y="392.9220349090925" width="8" height="2.898727272721885" fill="#ef5350"/><line x1="668" y1="376.9790349090892" x2="668" y2="406.6909890909053" stroke="#ef5350" stroke-width="2"/><rect x="664" y="394.00905745454685" width="8" height="12.681931636358456" fill="#ef5350"/><line x1="680" y1="392.9220349090925" x2="680" y2="425.53271636363866" stroke="#26a69a" stroke-width="2"/><rect x="676" y="394.37139854545336" width="8" height="12.319590545451945" fill="#26a69a"/><line x1="692" y1="382.77648945454945" x2="692" y2="398.71948945454443" stroke="#26a69a" stroke-width="2"/><rect x="688" y="385.67521672727133" width="8" height="8.696181818182026" fill="#26a69a"/><line x1="704" y1="379.15308072727134" x2="704" y2="391.4726712727233" stroke="#26a69a" stroke-width="2"/><rect x="700" y="382.77648945454945" width="8" height="4.348090909091013" fill="#26a69a"/><line x1="716" y1="363.93476290908933" x2="716" y2="382.0518080000015" stroke="#26a69a" stroke-width="2"/><rect x="712" y="371.18158109091047" width="8" height="10.870226909091002" fill="#26a69a"/><line x1="728" y1="351.61517236363744" x2="728" y2="371.90626254545845" stroke="#26a69a" stroke-width="2"/><rect x="724" y="363.93476290908933" width="8" height="7.971499636369117" fill="#26a69a"/><line x1="740" y1="348.71644509090737" x2="740" y2="382.0518080000015" stroke="#ef5350" stroke-width="2"/><rect x="736" y="366.1088079999982" width="8" height="10.870226909091002" fill="#ef5350"/><line x1="752" y1="361.03603563636744" x2="752" y2="384.95053527272336" stroke="#26a69a" stroke-width="2"/><rect x="748" y="369.0075352727283" width="8" height="7.246818181821197" fill="#26a69a"/><line x1="764" y1="363.93476290908933" x2="764" y2="376.2543534545495" stroke="#ef5350" stroke-width="2"/><rect x="760" y="368.2828538181804" width="8" height="2" fill="#ef5350"/><line x1="776" y1="350.8904901818162" x2="776" y2="369.0075352727283" stroke="#ef5350" stroke-width="2"/><rect x="772" y="367.1958305454527" width="8" height="2" fill="#ef5350"/><line x1="788" y1="353.7892174545463" x2="788" y2="385.67521672727133" stroke="#26a69a" stroke-width="2"/><rect x="784" y="354.51389963636757" width="8" height="12.319590545451945" fill="#26a69a"/><line x1="800" y1="344.3683541818163" x2="800" y2="372.26860363636496" stroke="#ef5350" stroke-width="2"/><rect x="796" y="355.23858109090725" width="8" height="9.42086327273006" fill="#ef5350"/><line x1="812" y1="350.1658087272765" x2="812" y2="371.90626254545845" stroke="#26a69a" stroke-width="2"/><rect x="808" y="356.6879447272765" width="8" height="7.971499636360818" fill="#26a69a"/><line x1="824" y1="346.54239927272516" x2="824" y2="361.03603563636744" stroke="#26a69a" stroke-width="2"/><rect x="820" y="349.4411265454553" width="8" height="5.797454545451956" fill="#26a69a"/><line x1="836" y1="347.99176290909435" x2="836" y2="376.9790349090892" stroke="#ef5350" stroke-width="2"/><rect x="832" y="348.71644509090737" width="8" height="19.56640872727303" fill="#ef5350"/><line x1="848" y1="365.3841265454585" x2="848" y2="395.82076218181436" stroke="#26a69a" stroke-width="2"/><rect x="844" y="366.8334901818195" width="8" height="2.1740450909088054" fill="#26a69a"/><line x1="860" y1="365.3841265454585" x2="860" y2="385.7476850909072" stroke="#ef5350" stroke-width="2"/><rect x="856" y="365.3841265454585" width="8" height="13.044271999999864" fill="#ef5350"/><line x1="872" y1="350.8904901818162" x2="872" y2="383.5011716363624" stroke="#26a69a" stroke-width="2"/><rect x="868" y="360.3838218181822" width="8" height="17.319895272728274" fill="#26a69a"/><line x1="884" y1="359.5866719999983" x2="884" y2="389.29862618181437" stroke="#ef5350" stroke-width="2"/><rect x="880" y="360.31135345454624" width="8" height="27.53790909090725" fill="#ef5350"/><line x1="896" y1="355.9632632727285" x2="896" y2="390.0233076363623" stroke="#26a69a" stroke-width="2"/><rect x="892" y="361.03603563636744" width="8" height="27.53790836363396" fill="#26a69a"/><line x1="908" y1="358.9344581818213" x2="908" y2="382.77648945454945" stroke="#ef5350" stroke-width="2"/><rect x="904" y="361.03603563636744" width="8" height="11.594909090904025" fill="#ef5350"/><line x1="920" y1="354.51389963636757" x2="920" y2="379.15308072727134" stroke="#26a69a" stroke-width="2"/><rect x="916" y="368.9350669090924" width="8" height="3.695877818179042" fill="#26a69a"/><line x1="932" y1="367.55817163636743" x2="932" y2="384.22585309091033" stroke="#ef5350" stroke-width="2"/><rect x="928" y="371.2540487272732" width="8" height="5.00030472727633" fill="#ef5350"/><line x1="944" y1="361.03603563636744" x2="944" y2="383.8635127272689" stroke="#ef5350" stroke-width="2"/><rect x="940" y="374.80498981818033" width="8" height="9.058522909088595" fill="#ef5350"/><line x1="956" y1="376.2543534545495" x2="956" y2="390.0233076363623" stroke="#ef5350" stroke-width="2"/><rect x="952" y="384.95053527272336" width="8" height="2.1740450909171045" fill="#ef5350"/><line x1="968" y1="374.0078399999964" x2="968" y2="410.31439854545664" stroke="#26a69a" stroke-width="2"/><rect x="964" y="382.1242763636374" width="8" height="5.724986181816064" fill="#26a69a"/><line x1="980" y1="366.8334901818195" x2="980" y2="400.8935345454533" stroke="#ef5350" stroke-width="2"/><rect x="976" y="379.15308072727134" width="8" height="14.493636363634096" fill="#ef5350"/><line x1="992" y1="391.4726712727233" x2="992" y2="437.8523069090906" stroke="#ef5350" stroke-width="2"/><rect x="988" y="405.9663076363656" width="8" height="13.044271999999808" fill="#ef5350"/><line x1="1004" y1="388.5739440000014" x2="1004" y2="436.4029432727296" stroke="#ef5350" stroke-width="2"/><rect x="1000" y="418.64823927272397" width="8" height="3.26106763636335" fill="#ef5350"/><line x1="1016" y1="271.90017381818427" x2="1016" y2="407.05333018182006" stroke="#ef5350" stroke-width="2"/><rect x="1012" y="318.27980872727005" width="8" height="19.56640872727303" fill="#ef5350"/><line x1="1028" y1="331.32408145454315" x2="1028" y2="445.09912509091174" stroke="#ef5350" stroke-width="2"/><rect x="1024" y="337.8462174545431" width="8" height="84.78777163636545" fill="#ef5350"/><line x1="1040" y1="350.8904901818162" x2="1040" y2="452.34594327272464" stroke="#26a69a" stroke-width="2"/><rect x="1036" y="378.4283985454584" width="8" height="51.45240872727135" fill="#26a69a"/><line x1="1052" y1="376.2543534545495" x2="1052" y2="526.9881687272739" stroke="#ef5350" stroke-width="2"/><rect x="1048" y="378.4283985454584" width="8" height="77.54095345454436" fill="#ef5350"/><line x1="1064" y1="421.18462545454764" x2="1064" y2="486.4059876363668" stroke="#26a69a" stroke-width="2"/><rect x="1060" y="429.15612509090846" width="8" height="23.9144996363641" fill="#26a69a"/><line x1="1076" y1="416.1118523636353" x2="1076" y2="506.6970785454528" stroke="#ef5350" stroke-width="2"/><rect x="1072" y="431.33017090909067" width="8" height="45.654953454546046" fill="#ef5350"/><line x1="1088" y1="426.25739781817833" x2="1088" y2="479.5215105454521" stroke="#26a69a" stroke-width="2"/><rect x="1084" y="445.09912509091174" width="8" height="28.26259054545517" fill="#26a69a"/><line x1="1100" y1="407.4156712727265" x2="1100" y2="508.146442181822" stroke="#ef5350" stroke-width="2"/><rect x="1096" y="443.64976145454256" width="8" height="63.04731709091027" fill="#ef5350"/><line x1="1112" y1="447.2731701818206" x2="1112" y2="510.3204872727309" stroke="#26a69a" stroke-width="2"/><rect x="1108" y="478.43448799999766" width="8" height="31.885999272733216" fill="#26a69a"/><line x1="1124" y1="455.2446698181815" x2="1124" y2="492.20344218181873" stroke="#26a69a" stroke-width="2"/><rect x="1120" y="471.1876698181847" width="8" height="4.34809090909107" fill="#26a69a"/><line x1="1136" y1="383.5011716363624" x2="1136" y2="474.0863970909066" stroke="#26a69a" stroke-width="2"/><rect x="1132" y="385.67521672727133" width="8" height="84.06308945454418" fill="#26a69a"/><line x1="1148" y1="334.2228087272732" x2="1148" y2="387.8492625454535" stroke="#26a69a" stroke-width="2"/><rect x="1144" y="337.8462174545431" width="8" height="50.003045090910405" fill="#26a69a"/><line x1="1160" y1="335.6721723636341" x2="1160" y2="448.72253381818155" stroke="#ef5350" stroke-width="2"/><rect x="1156" y="339.29558109091226" width="8" height="102.9048167272694" fill="#ef5350"/><line x1="1172" y1="325.5266269090911" x2="1172" y2="507.42176000000075" stroke="#26a69a" stroke-width="2"/><rect x="1168" y="354.51389963636757" width="8" height="86.2371345454531" fill="#26a69a"/><line x1="1184" y1="225.52053818181696" x2="1184" y2="411.7637621818176" stroke="#26a69a" stroke-width="2"/><rect x="1180" y="284.1472960000002" width="8" height="68.91723999999812" fill="#26a69a"/><line x1="1196" y1="205.95412945454393" x2="1196" y2="334.9474909090944" stroke="#ef5350" stroke-width="2"/><rect x="1192" y="287.11849163636623" width="8" height="31.95846763636098" fill="#ef5350"/><line x1="1208" y1="278.4223098181841" x2="1208" y2="331.32408145454315" stroke="#26a69a" stroke-width="2"/><rect x="1204" y="279.07452363636116" width="8" height="41.37933090909098" fill="#26a69a"/><line x1="1220" y1="222.62181090908678" x2="1220" y2="287.11849163636623" stroke="#26a69a" stroke-width="2"/><rect x="1216" y="239.28949236363803" width="8" height="38.408135999998194" fill="#26a69a"/><line x1="1232" y1="218.273720000004" x2="1232" y2="244.36226472726878" stroke="#26a69a" stroke-width="2"/><rect x="1228" y="233.49203781817778" width="8" height="7.246818181821141" fill="#26a69a"/><line x1="1244" y1="226.24521963636482" x2="1244" y2="263.20399200000213" stroke="#26a69a" stroke-width="2"/><rect x="1240" y="232.7673563636381" width="8" height="2" fill="#26a69a"/><line x1="1256" y1="211.02690181818286" x2="1256" y2="237.84012872726885" stroke="#26a69a" stroke-width="2"/><rect x="1252" y="217.54903854545603" width="8" height="13.768954181812887" fill="#26a69a"/><line x1="1268" y1="137.1093578181816" x2="1268" y2="217.54903854545603" stroke="#26a69a" stroke-width="2"/><rect x="1264" y="150.87831200000267" width="8" height="65.22136290908429" fill="#26a69a"/><line x1="1280" y1="132.76126690909052" x2="1280" y2="155.22640290909374" stroke="#26a69a" stroke-width="2"/><rect x="1276" y="140.8052349090874" width="8" height="7.174349818185192" fill="#26a69a"/><line x1="1292" y1="119.71699490909066" x2="1292" y2="160.29917599999783" stroke="#26a69a" stroke-width="2"/><rect x="1288" y="129.86253963636045" width="8" height="10.145545454551325" fill="#26a69a"/><line x1="1304" y1="124.0650850909085" x2="1304" y2="147.9795847272726" stroke="#ef5350" stroke-width="2"/><rect x="1300" y="131.31190327272964" width="8" height="14.493636363634096" fill="#ef5350"/><line x1="1316" y1="135.6599941818207" x2="1316" y2="158.84981236363694" stroke="#26a69a" stroke-width="2"/><rect x="1312" y="142.90681236363355" width="8" height="2.8987272727301843" fill="#26a69a"/><line x1="1328" y1="115.3689039999997" x2="1328" y2="151.6029941818157" stroke="#26a69a" stroke-width="2"/><rect x="1324" y="133.48594909091184" width="8" height="7.246818181812955" fill="#26a69a"/><line x1="1340" y1="131.31190327272964" x2="1340" y2="168.99535709090662" stroke="#ef5350" stroke-width="2"/><rect x="1336" y="131.31190327272964" width="8" height="18.841727272725166" fill="#ef5350"/><line x1="1352" y1="127.68849454545159" x2="1352" y2="166.09662981818474" stroke="#26a69a" stroke-width="2"/><rect x="1348" y="147.9795847272726" width="8" height="2.1740458181822078" fill="#26a69a"/><line x1="1364" y1="112.47017672726963" x2="1364" y2="156.67576654545462" stroke="#26a69a" stroke-width="2"/><rect x="1360" y="129.86253963636045" width="8" height="16.667681454551143" fill="#26a69a"/><line x1="1376" y1="126.2391309090907" x2="1376" y2="153.77703927272455" stroke="#ef5350" stroke-width="2"/><rect x="1372" y="132.03658545454266" width="8" height="4.34809090909107" fill="#ef5350"/><line x1="1388" y1="132.76126690909052" x2="1388" y2="195.8085840000009" stroke="#ef5350" stroke-width="2"/><rect x="1384" y="134.21063054545152" width="8" height="49.27836290909738" fill="#ef5350"/><line x1="1400" y1="175.5174938181798" x2="1400" y2="228.41926545454703" stroke="#ef5350" stroke-width="2"/><rect x="1396" y="184.9383570909098" width="8" height="37.683453818176986" fill="#ef5350"/><line x1="1412" y1="221.89712872727375" x2="1412" y2="317.5551272727304" stroke="#ef5350" stroke-width="2"/><rect x="1408" y="224.43351563636247" width="8" height="38.04579418181845" fill="#ef5350"/><line x1="1424" y1="226.96990181817785" x2="1424" y2="270.450810181815" stroke="#26a69a" stroke-width="2"/><rect x="1420" y="254.50781018182" width="8" height="9.420863272721817" fill="#26a69a"/><line x1="1436" y1="217.54903854545603" x2="1436" y2="266.827400727272" stroke="#26a69a" stroke-width="2"/><rect x="1432" y="233.8543789090926" width="8" height="18.479386181818654" fill="#26a69a"/><line x1="1448" y1="221.89712872727375" x2="1448" y2="265.378037090911" stroke="#ef5350" stroke-width="2"/><rect x="1444" y="234.2167199999991" width="8" height="21.015772363633914" fill="#ef5350"/><line x1="1460" y1="250.88440145454194" x2="1460" y2="318.27980872727005" stroke="#ef5350" stroke-width="2"/><rect x="1456" y="255.232492363633" width="8" height="51.452408000006244" fill="#ef5350"/><line x1="1472" y1="295.08999127272716" x2="1472" y2="339.29558109091226" stroke="#ef5350" stroke-width="2"/><rect x="1468" y="306.68490036363926" width="8" height="31.885999272725087" fill="#ef5350"/><line x1="1484" y1="340.02026327272523" x2="1484" y2="502.34898763636176" stroke="#ef5350" stroke-width="2"/><rect x="1480" y="340.02026327272523" width="8" height="129.7180429090903" fill="#ef5350"/><line x1="1496" y1="440.75103418182067" x2="1496" y2="566.12098618182" stroke="#26a69a" stroke-width="2"/><rect x="1492" y="476.9851243636367" width="8" height="2" fill="#26a69a"/><line x1="1508" y1="469.01362472727584" x2="1508" y2="541.481805090908" stroke="#ef5350" stroke-width="2"/><rect x="1504" y="481.3332152727277" width="8" height="55.800498909089185" fill="#ef5350"/><line x1="1520" y1="502.34898763636176" x2="1520" y2="585.687394909093" stroke="#26a69a" stroke-width="2"/><rect x="1516" y="524.0894414545437" width="8" height="15.94300000000328" fill="#26a69a"/><line x1="1532" y1="449.4472160000028" x2="1532" y2="534.2349869090949" stroke="#26a69a" stroke-width="2"/><rect x="1528" y="459.5927607272725" width="8" height="63.771999272731534" fill="#26a69a"/><line x1="1544" y1="413.9378072727265" x2="1544" y2="466.11489745454577" stroke="#26a69a" stroke-width="2"/><rect x="1540" y="415.3871709090874" width="8" height="44.2055898181851" fill="#26a69a"/><line x1="1556" y1="385.67521672727133" x2="1556" y2="416.1118523636353" stroke="#26a69a" stroke-width="2"/><rect x="1552" y="410.31439854545664" width="8" height="5.797453818178667" fill="#26a69a"/><line x1="1568" y1="376.2543534545495" x2="1568" y2="416.1118523636353" stroke="#26a69a" stroke-width="2"/><rect x="1564" y="384.95053527272336" width="8" height="26.08854472727296" fill="#26a69a"/><line x1="1580" y1="366.8334901818195" x2="1580" y2="401.61821672727456" stroke="#26a69a" stroke-width="2"/><rect x="1576" y="389.29862618181437" width="8" height="2" fill="#26a69a"/><line x1="1592" y1="360.31135345454624" x2="1592" y2="390.7479898181836" stroke="#26a69a" stroke-width="2"/><rect x="1588" y="377.70371709091046" width="8" height="12.319590545451831" fill="#26a69a"/><line x1="1604" y1="363.21008072727636" x2="1604" y2="383.5011716363624" stroke="#26a69a" stroke-width="2"/><rect x="1600" y="371.90626254545845" width="8" height="5.072772363630747" fill="#26a69a"/><line x1="1616" y1="361.7607170909071" x2="1616" y2="390.0233076363623" stroke="#26a69a" stroke-width="2"/><rect x="1612" y="375.52967200000154" width="8" height="2" fill="#26a69a"/><line x1="1628" y1="374.80498981818033" x2="1628" y2="406.6909890909053" stroke="#ef5350" stroke-width="2"/><rect x="1624" y="374.80498981818033" width="8" height="24.639181090912075" fill="#ef5350"/><line x1="1640" y1="387.12458036364046" x2="1640" y2="417.56121599999625" stroke="#ef5350" stroke-width="2"/><rect x="1636" y="398.71948945454443" width="8" height="13.044272727273153" fill="#ef5350"/><line x1="1652" y1="407.4156712727265" x2="1652" y2="479.1591694545456" stroke="#ef5350" stroke-width="2"/><rect x="1648" y="410.31439854545664" width="8" height="54.351135272728186" fill="#ef5350"/><line x1="1664" y1="447.9978523636336" x2="1664" y2="521.1907141818219" stroke="#ef5350" stroke-width="2"/><rect x="1660" y="465.3902152727245" width="8" height="40.5821810909153" fill="#ef5350"/><line x1="1676" y1="505.9723963636398" x2="1676" y2="540.757122909095" stroke="#ef5350" stroke-width="2"/><rect x="1672" y="511.7698509090918" width="8" height="4.348090909090956" fill="#ef5350"/><line x1="1688" y1="512.4945323636398" x2="1688" y2="554.5260770909077" stroke="#ef5350" stroke-width="2"/><rect x="1684" y="516.1179418181828" width="8" height="26.813226909086097" fill="#ef5350"/><line x1="1700" y1="545.1052138181776" x2="1700" y2="686.4181658181802" stroke="#ef5350" stroke-width="2"/><rect x="1696" y="545.1052138181776" width="8" height="26.813226909094283" fill="#ef5350"/><line x1="1712" y1="503.79835127273094" x2="1712" y2="576.266531636363" stroke="#26a69a" stroke-width="2"/><rect x="1708" y="508.8711236363617" width="8" height="62.322634909089004" fill="#26a69a"/><line x1="1724" y1="493.6528058181797" x2="1724" y2="518.2919869090917" stroke="#26a69a" stroke-width="2"/><rect x="1720" y="503.79835127273094" width="8" height="2" fill="#26a69a"/><line x1="1736" y1="484.2319425454579" x2="1736" y2="519.7413505454526" stroke="#26a69a" stroke-width="2"/><rect x="1732" y="485.6813061818188" width="8" height="20.291090181821005" fill="#26a69a"/><line x1="1748" y1="449.4472160000028" x2="1748" y2="526.9881687272739" stroke="#26a69a" stroke-width="2"/><rect x="1744" y="480.6085330909065" width="8" height="5.072773090912278" fill="#26a69a"/><line x1="1760" y1="476.26044218181545" x2="1760" y2="538.5830778181778" stroke="#ef5350" stroke-width="2"/><rect x="1756" y="479.1591694545456" width="8" height="22.465136000003213" fill="#ef5350"/><line x1="1772" y1="471.9123519999977" x2="1772" y2="515.3932596363616" stroke="#ef5350" stroke-width="2"/><rect x="1768" y="503.07366909090973" width="8" height="3.6234094545430935" fill="#ef5350"/><line x1="1784" y1="491.47876072727075" x2="1784" y2="524.0894414545437" stroke="#ef5350" stroke-width="2"/><rect x="1780" y="507.42176000000075" width="8" height="3.6234094545431503" fill="#ef5350"/><line x1="1796" y1="481.3332152727277" x2="1796" y2="550.902668363638" stroke="#ef5350" stroke-width="2"/><rect x="1792" y="516.1179418181828" width="8" height="25.36386327272521" fill="#ef5350"/><line x1="1808" y1="522.6400778181828" x2="1808" y2="577.7158952727239" stroke="#ef5350" stroke-width="2"/><rect x="1804" y="540.757122909095" width="8" height="21.740454545446937" fill="#ef5350"/><line x1="1820" y1="546.5545774545469" x2="1820" y2="588.586122181815" stroke="#ef5350" stroke-width="2"/><rect x="1816" y="563.9469410909111" width="8" height="5.072772363630747" fill="#ef5350"/><line x1="1832" y1="542.9311687272689" x2="1832" y2="673.3738930909071" stroke="#ef5350" stroke-width="2"/><rect x="1828" y="569.0197134545418" width="8" height="96.38268000000437" fill="#ef5350"/><line x1="1844" y1="637.8644850909124" x2="1844" y2="863.9652079999988" stroke="#ef5350" stroke-width="2"/><rect x="1840" y="663.2283483636373" width="8" height="132.61677018182047" fill="#ef5350"/><line x1="1856" y1="768.3072094545423" x2="1856" y2="859.6171170909078" stroke="#ef5350" stroke-width="2"/><rect x="1852" y="798.0191636363667" width="8" height="34.7847265454551" fill="#ef5350"/><line x1="1868" y1="714.6807563636354" x2="1868" y2="848.7468901818168" stroke="#26a69a" stroke-width="2"/><rect x="1864" y="736.4212101818173" width="8" height="99.28140727272637" fill="#26a69a"/><line x1="1880" y1="666.8517570909072" x2="1880" y2="737.1458923636386" stroke="#26a69a" stroke-width="2"/><rect x="1876" y="676.2726203636372" width="8" height="60.148589818180085" fill="#26a69a"/><line x1="1892" y1="563.2222589090898" x2="1892" y2="680.6207112727283" stroke="#26a69a" stroke-width="2"/><rect x="1888" y="585.687394909093" width="8" height="89.86054399999625" fill="#26a69a"/><line x1="1904" y1="572.6431221818199" x2="1904" y2="673.3738930909071" stroke="#ef5350" stroke-width="2"/><rect x="1900" y="584.2380312727239" width="8" height="59.42390836364041" fill="#ef5350"/><line x1="1916" y1="599.4563490909059" x2="1916" y2="648.0100305454554" stroke="#26a69a" stroke-width="2"/><rect x="1912" y="605.2538036363661" width="8" height="39.13281745454617" fill="#26a69a"/><line x1="1928" y1="570.469077090911" x2="1928" y2="721.9275745454565" stroke="#ef5350" stroke-width="2"/><rect x="1924" y="606.703167272727" width="8" height="111.60099781817814" fill="#ef5350"/><line x1="1940" y1="679.8960298181803" x2="1940" y2="758.1616647272726" stroke="#26a69a" stroke-width="2"/><rect x="1936" y="716.8548014545443" width="8" height="2.1740458181822078" fill="#26a69a"/><rect x="75" y="945.3687979059837" width="10" height="74.63120209401632" fill="#26a69a" opacity="0.9"/><rect x="87" y="967.4889671067913" width="10" height="52.51103289320872" fill="#26a69a" opacity="0.9"/><rect x="99" y="969.6923073487109" width="10" height="50.30769265128913" fill="#ef5350" opacity="0.9"/><rect x="111" y="976.3190784184102" width="10" height="43.680921581589814" fill="#26a69a" opacity="0.9"/><rect x="123" y="977.1505654916115" width="10" height="42.849434508388526" fill="#ef5350" opacity="0.9"/><rect x="135" y="986.1344449606032" width="10" height="33.86555503939678" fill="#26a69a" opacity="0.9"/><rect x="147" y="948.2347817541854" width="10" height="71.7652182458146" fill="#ef5350" opacity="0.9"/><rect x="159" y="957.1556799299613" width="10" height="62.84432007003875" fill="#ef5350" opacity="0.9"/><rect x="171" y="980.5709857242402" width="10" height="39.429014275759755" fill="#26a69a" opacity="0.9"/><rect x="183" y="983.4667851846558" width="10" height="36.533214815344195" fill="#26a69a" opacity="0.9"/><rect x="195" y="992.2610507602423" width="10" height="27.738949239757744" fill="#ef5350" opacity="0.9"/><rect x="207" y="988.3545355464632" width="10" height="31.64546445353676" fill="#26a69a" opacity="0.9"/><rect x="219" y="992.0339160964105" width="10" height="27.966083903589492" fill="#26a69a" opacity="0.9"/><rect x="231" y="987.6597312798156" width="10" height="32.34026872018444" fill="#ef5350" opacity="0.9"/><rect x="243" y="992.0071155461059" width="10" height="27.992884453894135" fill="#ef5350" opacity="0.9"/><rect x="255" y="999.1119414318641" width="10" height="20.888058568135875" fill="#26a69a" opacity="0.9"/><rect x="267" y="999.5337150922833" width="10" height="20.466284907716727" fill="#26a69a" opacity="0.9"/><rect x="279" y="992.7618860440601" width="10" height="27.238113955939866" fill="#26a69a" opacity="0.9"/><rect x="291" y="985.866104450678" width="10" height="34.133895549322006" fill="#26a69a" opacity="0.9"/><rect x="303" y="981.7002939127017" width="10" height="38.29970608729832" fill="#26a69a" opacity="0.9"/><rect x="315" y="988.2627436616699" width="10" height="31.7372563383301" fill="#ef5350" opacity="0.9"/><rect x="327" y="998.4218272615198" width="10" height="21.578172738480248" fill="#ef5350" opacity="0.9"/><rect x="339" y="999.4077525058515" width="10" height="20.592247494148523" fill="#26a69a" opacity="0.9"/><rect x="351" y="996.2523227143597" width="10" height="23.747677285640293" fill="#ef5350" opacity="0.9"/><rect x="363" y="993.2436259357859" width="10" height="26.75637406421413" fill="#ef5350" opacity="0.9"/><rect x="375" y="998.6422617877754" width="10" height="21.357738212224604" fill="#26a69a" opacity="0.9"/><rect x="387" y="981.1297771980918" width="10" height="38.8702228019082" fill="#ef5350" opacity="0.9"/><rect x="399" y="986.7893834086726" width="10" height="33.21061659132738" fill="#26a69a" opacity="0.9"/><rect x="411" y="986.6583957190587" width="10" height="33.34160428094128" fill="#26a69a" opacity="0.9"/><rect x="423" y="991.4560292304668" width="10" height="28.54397076953319" fill="#ef5350" opacity="0.9"/><rect x="435" y="1000.7906609015705" width="10" height="19.209339098429496" fill="#ef5350" opacity="0.9"/><rect x="447" y="1003.3357081598742" width="10" height="16.66429184012577" fill="#ef5350" opacity="0.9"/><rect x="459" y="1002.8378879379657" width="10" height="17.16211206203434" fill="#ef5350" opacity="0.9"/><rect x="471" y="998.5578400543158" width="10" height="21.44215994568424" fill="#26a69a" opacity="0.9"/><rect x="483" y="1002.199029820079" width="10" height="17.800970179921023" fill="#ef5350" opacity="0.9"/><rect x="495" y="1003.6898104307742" width="10" height="16.310189569225827" fill="#ef5350" opacity="0.9"/><rect x="507" y="1003.3946693705444" width="10" height="16.60533062945558" fill="#26a69a" opacity="0.9"/><rect x="519" y="1003.4365452303954" width="10" height="16.56345476960462" fill="#26a69a" opacity="0.9"/><rect x="531" y="994.4700861191017" width="10" height="25.529913880898334" fill="#26a69a" opacity="0.9"/><rect x="543" y="1001.1564884132288" width="10" height="18.84351158677123" fill="#26a69a" opacity="0.9"/><rect x="555" y="994.3082777966374" width="10" height="25.691722203362588" fill="#26a69a" opacity="0.9"/><rect x="567" y="997.1062552484411" width="10" height="22.89374475155887" fill="#26a69a" opacity="0.9"/><rect x="579" y="995.4352409369473" width="10" height="24.564759063052747" fill="#26a69a" opacity="0.9"/><rect x="591" y="998.1725821436867" width="10" height="21.827417856313332" fill="#26a69a" opacity="0.9"/><rect x="603" y="993.7206757312083" width="10" height="26.279324268791697" fill="#26a69a" opacity="0.9"/><rect x="615" y="1002.4298495595776" width="10" height="17.570150440422367" fill="#ef5350" opacity="0.9"/><rect x="627" y="1000.0372304311315" width="10" height="19.962769568868453" fill="#26a69a" opacity="0.9"/><rect x="639" y="1000.0265102110096" width="10" height="19.973489788990378" fill="#26a69a" opacity="0.9"/><rect x="651" y="1000.0791062909825" width="10" height="19.92089370901749" fill="#ef5350" opacity="0.9"/><rect x="663" y="995.2948730547267" width="10" height="24.705126945273264" fill="#ef5350" opacity="0.9"/><rect x="675" y="994.0751130089872" width="10" height="25.92488699101284" fill="#26a69a" opacity="0.9"/><rect x="687" y="1002.7548062320213" width="10" height="17.245193767978662" fill="#26a69a" opacity="0.9"/><rect x="699" y="1000.2208142007182" width="10" height="19.779185799281777" fill="#26a69a" opacity="0.9"/><rect x="711" y="992.4034286837357" width="10" height="27.596571316264317" fill="#26a69a" opacity="0.9"/><rect x="723" y="986.3803400096482" width="10" height="33.619659990351806" fill="#26a69a" opacity="0.9"/><rect x="735" y="992.908619056978" width="10" height="27.091380943022045" fill="#ef5350" opacity="0.9"/><rect x="747" y="995.0479729850452" width="10" height="24.95202701495475" fill="#26a69a" opacity="0.9"/><rect x="759" y="998.8948569743966" width="10" height="21.10514302560341" fill="#ef5350" opacity="0.9"/><rect x="771" y="994.727706408905" width="10" height="25.272293591095035" fill="#ef5350" opacity="0.9"/><rect x="783" y="985.2748173095821" width="10" height="34.72518269041791" fill="#26a69a" opacity="0.9"/><rect x="795" y="985.7984330611589" width="10" height="34.2015669388411" fill="#ef5350" opacity="0.9"/><rect x="807" y="995.5963792456538" width="10" height="24.403620754346207" fill="#26a69a" opacity="0.9"/><rect x="819" y="991.3019260662152" width="10" height="28.698073933784826" fill="#26a69a" opacity="0.9"/><rect x="831" y="979.538829530633" width="10" height="40.46117046936695" fill="#ef5350" opacity="0.9"/><rect x="843" y="982.5224007932962" width="10" height="37.47759920670376" fill="#26a69a" opacity="0.9"/><rect x="855" y="995.6811359859922" width="10" height="24.318864014007772" fill="#ef5350" opacity="0.9"/><rect x="867" y="990.8476567385517" width="10" height="29.152343261448323" fill="#26a69a" opacity="0.9"/><rect x="879" y="1000.5414157837374" width="10" height="19.45858421626258" fill="#ef5350" opacity="0.9"/><rect x="891" y="998.1993826939913" width="10" height="21.80061730600869" fill="#26a69a" opacity="0.9"/><rect x="903" y="992.6128079829906" width="10" height="27.387192017009397" fill="#ef5350" opacity="0.9"/><rect x="915" y="993.4952161017707" width="10" height="26.504783898229334" fill="#26a69a" opacity="0.9"/><rect x="927" y="1000.5353856599189" width="10" height="19.464614340081084" fill="#ef5350" opacity="0.9"/><rect x="939" y="987.6165153924494" width="10" height="32.3834846075506" fill="#ef5350" opacity="0.9"/><rect x="951" y="991.4707695331344" width="10" height="28.529230466865556" fill="#ef5350" opacity="0.9"/><rect x="963" y="954.0019251728636" width="10" height="65.9980748271364" fill="#26a69a" opacity="0.9"/><rect x="975" y="991.3759625864318" width="10" height="28.624037413568203" fill="#ef5350" opacity="0.9"/><rect x="987" y="956.1801398988725" width="10" height="63.81986010112746" fill="#ef5350" opacity="0.9"/><rect x="999" y="918.6292188532938" width="10" height="101.37078114670624" fill="#ef5350" opacity="0.9"/><rect x="1011" y="950.6866971001805" width="10" height="69.31330289981952" fill="#ef5350" opacity="0.9"/><rect x="1023" y="984.0711375940252" width="10" height="35.92886240597477" fill="#ef5350" opacity="0.9"/><rect x="1035" y="980.069145419786" width="10" height="39.93085458021403" fill="#26a69a" opacity="0.9"/><rect x="1047" y="963.2350497596884" width="10" height="56.76495024031158" fill="#ef5350" opacity="0.9"/><rect x="1059" y="991.5525112115636" width="10" height="28.44748878843643" fill="#26a69a" opacity="0.9"/><rect x="1071" y="986.488882238382" width="10" height="33.51111776161804" fill="#ef5350" opacity="0.9"/><rect x="1083" y="987.2342725437296" width="10" height="32.76572745627038" fill="#26a69a" opacity="0.9"/><rect x="1095" y="955.6303936107488" width="10" height="64.3696063892512" fill="#ef5350" opacity="0.9"/><rect x="1107" y="992.2409503475138" width="10" height="27.75904965248617" fill="#26a69a" opacity="0.9"/><rect x="1119" y="996.3695751219425" width="10" height="23.63042487805751" fill="#26a69a" opacity="0.9"/><rect x="1131" y="983.3066518965857" width="10" height="36.69334810341434" fill="#26a69a" opacity="0.9"/><rect x="1143" y="974.3666583287177" width="10" height="45.633341671282324" fill="#26a69a" opacity="0.9"/><rect x="1155" y="973.4614697421787" width="10" height="46.53853025782132" fill="#ef5350" opacity="0.9"/><rect x="1167" y="936.2857564008648" width="10" height="83.71424359913522" fill="#26a69a" opacity="0.9"/><rect x="1179" y="928.1226437849524" width="10" height="91.8773562150476" fill="#26a69a" opacity="0.9"/><rect x="1191" y="949.9339366434991" width="10" height="70.06606335650088" fill="#ef5350" opacity="0.9"/><rect x="1203" y="990.8556969036431" width="10" height="29.144303096356907" fill="#26a69a" opacity="0.9"/><rect x="1215" y="986.68050617306" width="10" height="33.31949382693995" fill="#26a69a" opacity="0.9"/><rect x="1227" y="983.5234013471743" width="10" height="36.476598652825714" fill="#26a69a" opacity="0.9"/><rect x="1239" y="986.3769899408601" width="10" height="33.623010059139915" fill="#26a69a" opacity="0.9"/><rect x="1251" y="996.8305445871822" width="10" height="23.169455412817797" fill="#26a69a" opacity="0.9"/><rect x="1263" y="961.3771016098198" width="10" height="58.62289839018024" fill="#26a69a" opacity="0.9"/><rect x="1275" y="991.647653165145" width="10" height="28.352346834854984" fill="#26a69a" opacity="0.9"/><rect x="1287" y="981.2279342135826" width="10" height="38.77206578641744" fill="#26a69a" opacity="0.9"/><rect x="1299" y="993.2724365273633" width="10" height="26.72756347263669" fill="#ef5350" opacity="0.9"/><rect x="1311" y="999.7963604852687" width="10" height="20.20363951473132" fill="#26a69a" opacity="0.9"/><rect x="1323" y="992.9045989744322" width="10" height="27.095401025567753" fill="#26a69a" opacity="0.9"/><rect x="1335" y="999.2707346924191" width="10" height="20.72926530758093" fill="#ef5350" opacity="0.9"/><rect x="1347" y="1000.6871437760188" width="10" height="19.312856223981157" fill="#26a69a" opacity="0.9"/><rect x="1359" y="984.8848693026497" width="10" height="35.11513069735031" fill="#26a69a" opacity="0.9"/><rect x="1371" y="996.8258544908789" width="10" height="23.174145509121104" fill="#ef5350" opacity="0.9"/><rect x="1383" y="990.831576408369" width="10" height="29.16842359163104" fill="#ef5350" opacity="0.9"/><rect x="1395" y="983.2574058854009" width="10" height="36.742594114599115" fill="#ef5350" opacity="0.9"/><rect x="1407" y="959.3080991263021" width="10" height="60.69190087369793" fill="#ef5350" opacity="0.9"/><rect x="1419" y="990.1029364469617" width="10" height="29.897063553038265" fill="#26a69a" opacity="0.9"/><rect x="1431" y="994.8600341260341" width="10" height="25.139965873965934" fill="#26a69a" opacity="0.9"/><rect x="1443" y="1003.6197939931034" width="10" height="16.38020600689663" fill="#ef5350" opacity="0.9"/><rect x="1455" y="1001.3715628294234" width="10" height="18.628437170576603" fill="#ef5350" opacity="0.9"/><rect x="1467" y="993.8305579874574" width="10" height="26.169442012542618" fill="#ef5350" opacity="0.9"/><rect x="1479" y="936.0502465650628" width="10" height="83.94975343493718" fill="#ef5350" opacity="0.9"/><rect x="1491" y="966.6635101574086" width="10" height="53.33648984259139" fill="#26a69a" opacity="0.9"/><rect x="1503" y="987.4024459968912" width="10" height="32.597554003108826" fill="#ef5350" opacity="0.9"/><rect x="1515" y="974.5643123872144" width="10" height="45.435687612785614" fill="#26a69a" opacity="0.9"/><rect x="1527" y="990.5913764762637" width="10" height="29.40862352373631" fill="#26a69a" opacity="0.9"/><rect x="1539" y="988.0191936607765" width="10" height="31.980806339223477" fill="#26a69a" opacity="0.9"/><rect x="1551" y="991.4111383087067" width="10" height="28.588861691293346" fill="#26a69a" opacity="0.9"/><rect x="1563" y="992.2101297146635" width="10" height="27.78987028533652" fill="#26a69a" opacity="0.9"/><rect x="1575" y="1000.3685522342726" width="10" height="19.631447765727444" fill="#26a69a" opacity="0.9"/><rect x="1587" y="999.8228260286944" width="10" height="20.177173971305592" fill="#26a69a" opacity="0.9"/><rect x="1599" y="1000.151467776805" width="10" height="19.84853222319498" fill="#26a69a" opacity="0.9"/><rect x="1611" y="1000.2141140631421" width="10" height="19.78588593685788" fill="#26a69a" opacity="0.9"/><rect x="1623" y="998.0747601350748" width="10" height="21.925239864925175" fill="#ef5350" opacity="0.9"/><rect x="1635" y="998.4720782933409" width="10" height="21.527921706659072" fill="#ef5350" opacity="0.9"/><rect x="1647" y="993.5803078489878" width="10" height="26.419692151012214" fill="#ef5350" opacity="0.9"/><rect x="1659" y="991.5960621058085" width="10" height="28.403937894191472" fill="#ef5350" opacity="0.9"/><rect x="1671" y="983.3773383480141" width="10" height="36.622661651985936" fill="#ef5350" opacity="0.9"/><rect x="1683" y="993.5129714663475" width="10" height="26.487028533652506" fill="#ef5350" opacity="0.9"/><rect x="1695" y="950.0397988172024" width="10" height="69.96020118279762" fill="#ef5350" opacity="0.9"/><rect x="1707" y="985.6252345048151" width="10" height="34.374765495184874" fill="#26a69a" opacity="0.9"/><rect x="1719" y="990.2255489646054" width="10" height="29.774451035394577" fill="#26a69a" opacity="0.9"/><rect x="1731" y="988.0121585163215" width="10" height="31.987841483678494" fill="#26a69a" opacity="0.9"/><rect x="1743" y="965.9700459182761" width="10" height="54.02995408172387" fill="#26a69a" opacity="0.9"/><rect x="1755" y="988.2104825885758" width="10" height="31.789517411424185" fill="#ef5350" opacity="0.9"/><rect x="1767" y="988.551854598081" width="10" height="31.448145401918964" fill="#ef5350" opacity="0.9"/><rect x="1779" y="993.7300559238149" width="10" height="26.269944076185084" fill="#ef5350" opacity="0.9"/><rect x="1791" y="987.6443209633904" width="10" height="32.35567903660956" fill="#ef5350" opacity="0.9"/><rect x="1803" y="979.7616091050403" width="10" height="40.23839089495971" fill="#ef5350" opacity="0.9"/><rect x="1815" y="983.7213904125498" width="10" height="36.278609587450205" fill="#ef5350" opacity="0.9"/><rect x="1827" y="970.5790705569154" width="10" height="49.42092944308456" fill="#ef5350" opacity="0.9"/><rect x="1839" y="922.6817970662331" width="10" height="97.31820293376688" fill="#ef5350" opacity="0.9"/><rect x="1851" y="942.7044881988244" width="10" height="77.29551180117562" fill="#ef5350" opacity="0.9"/><rect x="1863" y="973.7860914077436" width="10" height="46.213908592256416" fill="#26a69a" opacity="0.9"/><rect x="1875" y="973.347567403384" width="10" height="46.652432596615995" fill="#26a69a" opacity="0.9"/><rect x="1887" y="957.1178241526559" width="10" height="62.882175847344115" fill="#26a69a" opacity="0.9"/><rect x="1899" y="978.7910941771338" width="10" height="41.2089058228662" fill="#ef5350" opacity="0.9"/><rect x="1911" y="992.1387732494774" width="10" height="27.861226750522633" fill="#26a69a" opacity="0.9"/><rect x="1923" y="946.1607541674856" width="10" height="73.8392458325144" fill="#ef5350" opacity="0.9"/><rect x="1935" y="860.0" width="10" height="160.0" fill="#26a69a" opacity="0.9"/><rect x="1004" y="318.27980872727005" width="12" height="103.62949818181727" fill="#00ff00" opacity="0.60"/><polyline points="320,444.9790348346307,332,440.57336384604986,344,436.5182632200231,356,435.4720206622667,368,434.6634548849083,380,432.13744515561217,392,433.578942777157,404,433.98592983734153,416,432.2836367446061,428,431.8477438598331,440,433.93798795976346,452,436.4503170025603,464,443.07146741789853,476,443.95475083264586,488,446.2722929005312,500,450.0255322606542,512,453.69738951721956,524,456.5364248359236,536,457.17259105934073,548,455.13241376364186,560,453.2796373186184,572,450.9821599635953,584,446.76395321381614,596,442.18828999864854,608,437.6343003364375,620,433.85911052084174,632,430.5814972244827,644,426.92586448449055,656,423.96347378899833,668,422.31847524632366,680,419.6568488938613,692,416.42050297323294,704,413.2163112095441,716,409.2130035792004,728,404.9007901820501,740,402.2415753941459,752,399.07642871591884,764,396.15060897674334,776,393.42751970623135,788,389.72146065195625,800,387.3346019578259,812,384.41587269777636,824,381.08494449279533,836,379.86569776187685,848,378.62453513520944,860,378.60585545999623,872,376.8704236845803,884,377.9160273856178,896,376.308409123786,908,375.95817441935486,920,375.2893070374243,932,375.38121622000375,944,376.1890539825965,956,377.23053268555304,968,377.69660351203294,980,379.2156619481168,992,383.00565410890243,1004,386.71076389939776,1016,382.0569975713128,1028,385.92147295413184,1040,385.20784681997446,1052,391.9470377895033,1064,395.4907603896407,1076,403.25212838716567,1088,407.2375566446681,1100,416.70989206378925,1112,422.5884250100948,1124,427.2169245156295,1136,423.26057139292635,1148,415.12587101783953,1160,417.70439737978114,1172,411.68625473755213,1184,399.5396872387408,1196,391.87657028959705,1208,381.13351822738133,1220,367.62456338321334,1232,354.8500371389227,1244,343.22311516032806,1256,331.2541554827228,1268,314.075503722465,1280,297.57357335928725,1292,281.60109395710776,1304,268.6681840217964,1316,256.69091053054706,1328,244.9571046791541,1340,235.9282023807034,1352,227.5521435565679,1364,218.24837175464302,1376,210.45182933645594,1388,207.88394020484532,1400,209.28754693858616,1412,214.35342911759528,1424,218.17765588561576,1436,219.67067712594974,1448,223.05751667239417,1460,231.02202940489485,1472,241.2647789507488,1484,263.02416249656574,1496,283.4013969600991,1508,307.56637955264523,1520,328.187623543305,1532,340.7023985132086,1544,347.815233979484,1556,353.76753536671794,1568,356.7373448815818,1580,359.8384192911329,1592,361.5398762244447,1604,362.52715111216025,1616,363.76548643480754,1628,367.1634563847378,1640,371.41110455588864,1652,380.2924787713478,1664,392.2619947325157,1676,404.0577992168685,1688,417.28383440833403,1700,432.01093977204437,1712,439.3309572829325,1724,445.4707090914863,1736,449.30028976675453,1748,452.2820272262007,1760,456.98129181937475,1772,461.71612865042664,1784,466.41413253653144,1796,473.5634346845638,1808,482.03335304360735,1820,490.31776832084273,1832,506.99249452405144,1844,534.502268240381,1856,562.9119465205142,1868,579.4366382977801,1880,588.6591127802437,1892,588.3760920306072,1904,593.6414108502008,1916,594.7473530203173,1928,606.5146684556153,1940,617.023252550751" fill="none" stroke="#0090ff" stroke-width="2"/><line x1="80" y1="50" x2="80" y2="900" stroke="#666666" stroke-width="0.5" stroke-dasharray="4,4" opacity="0.90"/><line x1="152" y1="50" x2="152" y2="900" stroke="#666666" stroke-width="0.5" stroke-dasharray="4,4" opacity="0.90"/><line x1="224" y1="50" x2="224" y2="900" stroke="#666666" stroke-width="0.5" stroke-dasharray="4,4" opacity="0.90"/><line x1="296" y1="50" x2="296" y2="900" stroke="#666666" stroke-width="0.5" stroke-dasharray="4,4" opacity="0.90"/><line x1="368" y1="50" x2="368" y2="900" stroke="#666666" stroke-width="0.5" stroke-dasharray="4,4" opacity="0.90"/><line x1="440" y1="50" x2="440" y2="900" stroke="#666666" stroke-width="0.5" stroke-dasharray="4,4" opacity="0.90"/><line x1="512" y1="50" x2="512" y2="900" stroke="#666666" stroke-width="0.5" stroke-dasharray="4,4" opacity="0.90"/><line x1="584" y1="50" x2="584" y2="900" stroke="#666666" stroke-width="0.5" stroke-dasharray="4,4" opacity="0.90"/><line x1="656" y1="50" x2="656" y2="900" stroke="#666666" stroke-width="0.5" stroke-dasharray="4,4" opacity="0.90"/><line x1="728" y1="50" x2="728" y2="900" stroke="#666666" stroke-width="0.5" stroke-dasharray="4,4" opacity="0.90"/><line x1="800" y1="50" x2="800" y2="900" stroke="#666666" stroke-width="0.5" stroke-dasharray="4,4" opacity="0.90"/><line x1="872" y1="50" x2="872" y2="900" stroke="#666666" stroke-width="0.5" stroke-dasharray="4,4" opacity="0.90"/><line x1="944" y1="50" x2="944" y2="900" stroke="#666666" stroke-width="0.5" stroke-dasharray="4,4" opacity="0.90"/><line x1="1010" y1="30" x2="1010" y2="950" stroke="black" stroke-width="0.7"/><line x1="1016" y1="50" x2="1016" y2="900" stroke="#666666" stroke-width="0.5" stroke-dasharray="4,4" opacity="0.90"/><line x1="1088" y1="50" x2="1088" y2="900" stroke="#666666" stroke-width="0.5" stroke-dasharray="4,4" opacity="0.90"/><line x1="1160" y1="50" x2="1160" y2="900" stroke="#666666" stroke-width="0.5" stroke-dasharray="4,4" opacity="0.90"/><line x1="1232" y1="50" x2="1232" y2="900" stroke="#666666" stroke-width="0.5" stroke-dasharray="4,4" opacity="0.90"/><line x1="1304" y1="50" x2="1304" y2="900" stroke="#666666" stroke-width="0.5" stroke-dasharray="4,4" opacity="0.90"/><line x1="1376" y1="50" x2="1376" y2="900" stroke="#666666" stroke-width="0.5" stroke-dasharray="4,4" opacity="0.90"/><line x1="1448" y1="50" x2="1448" y2="900" stroke="#666666" stroke-width="0.5" stroke-dasharray="4,4" opacity="0.90"/><line x1="1520" y1="50" x2="1520" y2="900" stroke="#666666" stroke-width="0.5" stroke-dasharray="4,4" opacity="0.90"/><line x1="1592" y1="50" x2="1592" y2="900" stroke="#666666" stroke-width="0.5" stroke-dasharray="4,4" opacity="0.90"/><line x1="1664" y1="50" x2="1664" y2="900" stroke="#666666" stroke-width="0.5" stroke-dasharray="4,4" opacity="0.90"/><line x1="1736" y1="50" x2="1736" y2="900" stroke="#666666" stroke-width="0.5" stroke-dasharray="4,4" opacity="0.90"/><line x1="1808" y1="50" x2="1808" y2="900" stroke="#666666" stroke-width="0.5" stroke-dasharray="4,4" opacity="0.90"/><line x1="1880" y1="50" x2="1880" y2="900" stroke="#666666" stroke-width="0.5" stroke-dasharray="4,4" opacity="0.90"/><line x1="1946" y1="30" x2="1946" y2="950" stroke="black" stroke-width="0.7"/><text x="80" y="1040" text-anchor="middle" font-size="20" fill="black">09:30</text><text x="152" y="1040" text-anchor="middle" font-size="20" fill="black">10:00</text><text x="224" y="1040" text-anchor="middle" font-size="20" fill="black">10:30</text><text x="296" y="1040" text-anchor="middle" font-size="20" fill="black">11:00</text><text x="368" y="1040" text-anchor="middle" font-size="20" fill="black">11:30</text><text x="440" y="1040" text-anchor="middle" font-size="20" fill="black">12:00</text><text x="512" y="1040" text-anchor="middle" font-size="20" fill="black">12:30</text><text x="584" y="1040" text-anchor="middle" font-size="20" fill="black">13:00</text><text x="656" y="1040" text-anchor="middle" font-size="20" fill="black">13:30</text><text x="728" y="1040" text-anchor="middle" font-size="20" fill="black">14:00</text><text x="800" y="1040" text-anchor="middle" font-size="20" fill="black">14:30</text><text x="872" y="1040" text-anchor="middle" font-size="20" fill="black">15:00</text><text x="944" y="1040" text-anchor="middle" font-size="20" fill="black">15:30</text><text x="1016" y="1040" text-anchor="middle" font-size="20" fill="black">09:30</text><text x="1088" y="1040" text-anchor="middle" font-size="20" fill="black">10:00</text><text x="1160" y="1040" text-anchor="middle" font-size="20" fill="black">10:30</text><text x="1232" y="1040" text-anchor="middle" font-size="20" fill="black">11:00</text><text x="1304" y="1040" text-anchor="middle" font-size="20" fill="black">11:30</text><text x="1376" y="1040" text-anchor="middle" font-size="20" fill="black">12:00</text><text x="1448" y="1040" text-anchor="middle" font-size="20" fill="black">12:30</text><text x="1520" y="1040" text-anchor="middle" font-size="20" fill="black">13:00</text><text x="1592" y="1040" text-anchor="middle" font-size="20" fill="black">13:30</text><text x="1664" y="1040" text-anchor="middle" font-size="20" fill="black">14:00</text><text x="1736" y="1040" text-anchor="middle" font-size="20" fill="black">14:30</text><text x="1808" y="1040" text-anchor="middle" font-size="20" fill="black">15:00</text><text x="1880" y="1040" text-anchor="middle" font-size="20" fill="black">15:30</text><text x="1942" y="50" text-anchor="end" font-size="40" fill="#ef5350" font-weight="bold"> -1.04% (Thu)</text></svg>