<svg xmlns="http://www.w3.org/2000/svg" width="1992" height="1050"><rect width="100%" height="100%" fill="white"/><text x="42" y="854.0" text-anchor="end" font-size="20" fill="black">566</text><text x="42" y="754.0" text-anchor="end" font-size="20" fill="black">567</text><text x="42" y="654.0" text-anchor="end" font-size="20" fill="black">568</text><text x="42" y="554.0" text-anchor="end" font-size="20" fill="black">569</text><text x="42" y="454.0" text-anchor="end" font-size="20" fill="black">570</text><text x="42" y="354.0" text-anchor="end" font-size="20" fill="black">571</text><text x="42" y="254.0" text-anchor="end" font-size="20" fill="black">572</text><text x="42" y="154.0" text-anchor="end" font-size="20" fill="black">573</text><text x="42" y="54.0" text-anchor="end" font-size="20" fill="black">574</text><line x1="80" y1="629.1675189999978" x2="80" y2="766.8303499999979" stroke="#ef5350" stroke-width="2"/><rect x="76" y="662.0868910000013" width="8" height="65.83874599999717" fill="#ef5350"/><line x1="92" y1="672.0624590000057" x2="92" y2="785.7839280000007" stroke="#ef5350" stroke-width="2"/><rect x="88" y="721.9402960000025" width="8" height="8.978010999999242" fill="#ef5350"/><line x1="104" y1="700.9916050000015" x2="104" y2="778.8010310000004" stroke="#26a69a" stroke-width="2"/><rect x="100" y="724.9329669999952" width="8" height="7.980454000005466" fill="#26a69a"/><line x1="116" y1="695.0062640000056" x2="116" y2="789.7741549999978" stroke="#26a69a" stroke-width="2"/><rect x="112" y="705.9793880000029" width="8" height="16.95846499999334" fill="#26a69a"/><line x1="128" y1="645.1284269999974" x2="128" y2="723.9354100000014" stroke="#26a69a" stroke-width="2"/><rect x="124" y="701.9891609999945" width="8" height="6.982898000001114" fill="#26a69a"/><line x1="140" y1="689.020923999999" x2="140" y2="778.8010310000004" stroke="#ef5350" stroke-width="2"/><rect x="136" y="694.0087070000004" width="8" height="65.83874599999717" fill="#ef5350"/><line x1="152" y1="600.238373000002" x2="152" y2="781.7937010000037" stroke="#26a69a" stroke-width="2"/><rect x="148" y="631.1626319999959" width="8" height="120.70436700000755" fill="#26a69a"/><line x1="164" y1="577.2945680000021" x2="164" y2="654.1064369999958" stroke="#ef5350" stroke-width="2"/><rect x="160" y="632.1601890000011" width="8" height="5.985339999995176" fill="#ef5350"/><line x1="176" y1="596.2481460000049" x2="176" y2="758.8498960000038" stroke="#ef5350" stroke-width="2"/><rect x="172" y="639.1430860000014" width="8" height="99.75567499999443" fill="#ef5350"/><line x1="188" y1="609.2163840000012" x2="188" y2="736.9036479999977" stroke="#26a69a" stroke-width="2"/><rect x="184" y="616.1992810000015" width="8" height="120.70436699999618" fill="#26a69a"/><line x1="200" y1="585.2750219999962" x2="200" y2="640.1406429999952" stroke="#26a69a" stroke-width="2"/><rect x="196" y="599.1410599999995" width="8" height="18.055777999995826" fill="#26a69a"/><line x1="212" y1="548.3654219999949" x2="212" y2="643.1333129999985" stroke="#ef5350" stroke-width="2"/><rect x="208" y="598.243259000003" width="8" height="39.90226999999322" fill="#ef5350"/><line x1="224" y1="534.3996270000048" x2="224" y2="638.1455289999963" stroke="#26a69a" stroke-width="2"/><rect x="220" y="537.3922979999975" width="8" height="100.75323099999878" fill="#26a69a"/><line x1="236" y1="514.4484919999968" x2="236" y2="547.3678650000011" stroke="#26a69a" stroke-width="2"/><rect x="232" y="523.426502999996" width="8" height="13.965795000001435" fill="#26a69a"/><line x1="248" y1="443.62196299999823" x2="248" y2="527.4167300000045" stroke="#26a69a" stroke-width="2"/><rect x="244" y="460.58042800000294" width="8" height="64.84118899999203" fill="#26a69a"/><line x1="260" y1="424.6683849999954" x2="260" y2="485.51934700000174" stroke="#26a69a" stroke-width="2"/><rect x="256" y="441.6268500000001" width="8" height="20.948691000000963" fill="#26a69a"/><line x1="272" y1="419.6806010000046" x2="272" y2="483.5242330000028" stroke="#ef5350" stroke-width="2"/><rect x="268" y="439.6317360000012" width="8" height="14.963350999994418" fill="#ef5350"/><line x1="284" y1="444.6195200000034" x2="284" y2="475.54377899999736" stroke="#ef5350" stroke-width="2"/><rect x="280" y="454.5950869999956" width="8" height="3.9902270000084172" fill="#ef5350"/><line x1="296" y1="440.62929299999496" x2="296" y2="482.5266759999977" stroke="#ef5350" stroke-width="2"/><rect x="292" y="456.5902009999945" width="8" height="2" fill="#ef5350"/><line x1="308" y1="443.62196299999823" x2="308" y2="500.48269799999616" stroke="#ef5350" stroke-width="2"/><rect x="304" y="459.5828709999978" width="8" height="2.9926700000032724" fill="#ef5350"/><line x1="320" y1="449.60730400000557" x2="320" y2="503.47536799999943" stroke="#ef5350" stroke-width="2"/><rect x="316" y="460.58042800000294" width="8" height="38.90471299999945" fill="#ef5350"/><line x1="332" y1="490.50713000000314" x2="332" y2="536.3947410000037" stroke="#ef5350" stroke-width="2"/><rect x="328" y="501.4802550000013" width="8" height="16.958464000003914" fill="#ef5350"/><line x1="344" y1="507.4655949999965" x2="344" y2="581.2847949999991" stroke="#ef5350" stroke-width="2"/><rect x="340" y="519.436275999999" width="8" height="30.92425900000535" fill="#ef5350"/><line x1="356" y1="549.362979" x2="356" y2="670.0673449999954" stroke="#ef5350" stroke-width="2"/><rect x="352" y="553.353205999997" width="8" height="110.72879900000316" fill="#ef5350"/><line x1="368" y1="644.1308700000036" x2="368" y2="701.9891609999945" stroke="#ef5350" stroke-width="2"/><rect x="364" y="663.0844479999951" width="8" height="16.958465000004708" fill="#ef5350"/><line x1="380" y1="623.1821780000018" x2="380" y2="681.0404700000049" stroke="#26a69a" stroke-width="2"/><rect x="376" y="623.1821780000018" width="8" height="56.86073499999793" fill="#26a69a"/><line x1="392" y1="606.2237129999971" x2="392" y2="652.211079999995" stroke="#ef5350" stroke-width="2"/><rect x="388" y="626.1748480000051" width="8" height="18.95357899999226" fill="#ef5350"/><line x1="404" y1="639.1430860000014" x2="404" y2="696.0038209999993" stroke="#ef5350" stroke-width="2"/><rect x="400" y="646.1259830000017" width="8" height="7.980453999994097" fill="#ef5350"/><line x1="416" y1="626.1748480000051" x2="416" y2="685.030697000002" stroke="#26a69a" stroke-width="2"/><rect x="412" y="648.1210970000006" width="8" height="10.97312399999737" fill="#26a69a"/><line x1="428" y1="650.1162099999988" x2="428" y2="710.9671720000051" stroke="#ef5350" stroke-width="2"/><rect x="424" y="651.1137670000039" width="8" height="25.93647599999258" fill="#ef5350"/><line x1="440" y1="667.0746750000035" x2="440" y2="713.959841999997" stroke="#ef5350" stroke-width="2"/><rect x="436" y="682.0380259999979" width="8" height="6.982898000001114" fill="#ef5350"/><line x1="452" y1="632.1601890000011" x2="452" y2="697.9989339999975" stroke="#26a69a" stroke-width="2"/><rect x="448" y="640.1406429999952" width="8" height="47.88272400001006" fill="#26a69a"/><line x1="464" y1="628.169962000004" x2="464" y2="669.0697890000024" stroke="#ef5350" stroke-width="2"/><rect x="460" y="636.1504159999981" width="8" height="20.948692000001756" fill="#ef5350"/><line x1="476" y1="617.1968379999953" x2="476" y2="670.0673449999954" stroke="#26a69a" stroke-width="2"/><rect x="472" y="618.1943939999996" width="8" height="41.89738400000351" fill="#26a69a"/><line x1="488" y1="565.3238869999996" x2="488" y2="634.1553019999992" stroke="#ef5350" stroke-width="2"/><rect x="484" y="619.1919510000048" width="8" height="14.963350999994418" fill="#ef5350"/><line x1="500" y1="608.218826999996" x2="500" y2="667.0746750000035" stroke="#ef5350" stroke-width="2"/><rect x="496" y="633.1577459999949" width="8" height="5.985340000006545" fill="#ef5350"/><line x1="512" y1="629.1675189999978" x2="512" y2="654.1064369999958" stroke="#ef5350" stroke-width="2"/><rect x="508" y="637.1479730000033" width="8" height="5.985339999995176" fill="#ef5350"/><line x1="524" y1="627.1724049999989" x2="524" y2="667.0746750000035" stroke="#ef5350" stroke-width="2"/><rect x="520" y="643.1333129999985" width="8" height="20.050891000005322" fill="#ef5350"/><line x1="536" y1="665.0795620000054" x2="536" y2="725.9305229999995" stroke="#ef5350" stroke-width="2"/><rect x="532" y="667.0746750000035" width="8" height="22.943804999999884" fill="#ef5350"/><line x1="548" y1="670.0673449999954" x2="548" y2="721.9402960000025" stroke="#ef5350" stroke-width="2"/><rect x="544" y="692.0135940000023" width="8" height="16.95846499999334" fill="#ef5350"/><line x1="560" y1="693.0111509999961" x2="560" y2="738.8987609999958" stroke="#ef5350" stroke-width="2"/><rect x="556" y="707.9745020000018" width="8" height="12.96823799999629" fill="#ef5350"/><line x1="572" y1="674.0575720000038" x2="572" y2="719.9451830000044" stroke="#26a69a" stroke-width="2"/><rect x="568" y="693.0111509999961" width="8" height="26.9340320000083" fill="#26a69a"/><line x1="584" y1="640.1406429999952" x2="584" y2="694.0087070000004" stroke="#26a69a" stroke-width="2"/><rect x="580" y="653.1088810000028" width="8" height="40.899825999997574" fill="#26a69a"/><line x1="596" y1="632.1601890000011" x2="596" y2="658.0966640000042" stroke="#26a69a" stroke-width="2"/><rect x="592" y="648.1210970000006" width="8" height="6.982897000000321" fill="#26a69a"/><line x1="608" y1="579.2896810000002" x2="608" y2="649.1186539999944" stroke="#26a69a" stroke-width="2"/><rect x="604" y="610.2139400000056" width="8" height="38.90471399998887" fill="#26a69a"/><line x1="620" y1="571.3092269999947" x2="620" y2="608.218826999996" stroke="#26a69a" stroke-width="2"/><rect x="616" y="598.243259000003" width="8" height="9.975567999993018" fill="#26a69a"/><line x1="632" y1="586.2725780000005" x2="632" y2="634.1553019999992" stroke="#ef5350" stroke-width="2"/><rect x="628" y="598.7420380000003" width="8" height="35.41326399999889" fill="#ef5350"/><line x1="644" y1="634.1553019999992" x2="644" y2="685.030697000002" stroke="#ef5350" stroke-width="2"/><rect x="640" y="634.1553019999992" width="8" height="18.95357900000363" fill="#ef5350"/><line x1="656" y1="635.1528590000044" x2="656" y2="697.0013780000045" stroke="#ef5350" stroke-width="2"/><rect x="652" y="656.1015509999947" width="8" height="37.90715600000567" fill="#ef5350"/><line x1="668" y1="682.0380259999979" x2="668" y2="707.9745020000018" stroke="#ef5350" stroke-width="2"/><rect x="664" y="697.0013780000045" width="8" height="9.975566999992225" fill="#ef5350"/><line x1="680" y1="694.0087070000004" x2="680" y2="777.8034739999953" stroke="#ef5350" stroke-width="2"/><rect x="676" y="708.9720589999956" width="8" height="62.846075000004475" fill="#ef5350"/><line x1="692" y1="740.8938749999948" x2="692" y2="845.637333000002" stroke="#26a69a" stroke-width="2"/><rect x="688" y="742.8889880000042" width="8" height="25.93647599999258" fill="#26a69a"/><line x1="704" y1="718.9476259999992" x2="704" y2="774.8108040000034" stroke="#ef5350" stroke-width="2"/><rect x="700" y="747.8767719999951" width="8" height="17.95602100000906" fill="#ef5350"/><line x1="716" y1="753.8621120000016" x2="716" y2="826.6837549999991" stroke="#ef5350" stroke-width="2"/><rect x="712" y="765.8327930000041" width="8" height="34.91448699999182" fill="#ef5350"/><line x1="728" y1="801.7448360000003" x2="728" y2="865.5884679999986" stroke="#ef5350" stroke-width="2"/><rect x="724" y="802.7423930000054" width="8" height="43.89249699999027" fill="#ef5350"/><line x1="740" y1="826.6837549999991" x2="740" y2="880.5518200000051" stroke="#26a69a" stroke-width="2"/><rect x="736" y="839.6519929999954" width="8" height="4.987784000002193" fill="#26a69a"/><line x1="752" y1="804.7375070000044" x2="752" y2="854.6153440000012" stroke="#26a69a" stroke-width="2"/><rect x="748" y="808.7277340000014" width="8" height="29.926702000000205" fill="#26a69a"/><line x1="764" y1="820.6984150000039" x2="764" y2="867.5835819999975" stroke="#ef5350" stroke-width="2"/><rect x="760" y="820.6984150000039" width="8" height="37.9071559999943" fill="#ef5350"/><line x1="776" y1="839.6519929999954" x2="776" y2="885.5396029999952" stroke="#ef5350" stroke-width="2"/><rect x="772" y="854.6153440000012" width="8" height="13.965795000001435" fill="#ef5350"/><line x1="788" y1="826.6837549999991" x2="788" y2="878.5567059999948" stroke="#26a69a" stroke-width="2"/><rect x="784" y="840.6495500000005" width="8" height="24.93891799999801" fill="#26a69a"/><line x1="800" y1="843.6422200000038" x2="800" y2="899.5053979999966" stroke="#ef5350" stroke-width="2"/><rect x="796" y="843.6422200000038" width="8" height="20.948692000001756" fill="#ef5350"/><line x1="812" y1="861.5982410000015" x2="812" y2="915.4663059999962" stroke="#ef5350" stroke-width="2"/><rect x="808" y="868.5811390000026" width="8" height="40.899825999997574" fill="#ef5350"/><line x1="824" y1="834.6642090000046" x2="824" y2="911.4760789999991" stroke="#26a69a" stroke-width="2"/><rect x="820" y="838.6544360000016" width="8" height="70.82652899999857" fill="#26a69a"/><line x1="836" y1="821.6959709999969" x2="836" y2="868.5811390000026" stroke="#ef5350" stroke-width="2"/><rect x="832" y="841.148327999997" width="8" height="26.43525400000044" fill="#ef5350"/><line x1="848" y1="845.637333000002" x2="848" y2="887.5347170000055" stroke="#26a69a" stroke-width="2"/><rect x="844" y="856.6104580000001" width="8" height="9.975567000003593" fill="#26a69a"/><line x1="860" y1="843.6422200000038" x2="860" y2="873.568922000004" stroke="#ef5350" stroke-width="2"/><rect x="856" y="856.6104580000001" width="8" height="2" fill="#ef5350"/><line x1="872" y1="844.6397769999976" x2="872" y2="885.5396029999952" stroke="#ef5350" stroke-width="2"/><rect x="868" y="859.6031280000034" width="8" height="2" fill="#ef5350"/><line x1="884" y1="816.7081879999955" x2="884" y2="857.6080140000045" stroke="#26a69a" stroke-width="2"/><rect x="880" y="850.6251170000041" width="8" height="6.982897000000321" fill="#26a69a"/><line x1="896" y1="848.6300039999946" x2="896" y2="879.554263" stroke="#ef5350" stroke-width="2"/><rect x="892" y="852.6202310000031" width="8" height="20.948691000000963" fill="#ef5350"/><line x1="908" y1="840.6495500000005" x2="908" y2="880.5518200000051" stroke="#26a69a" stroke-width="2"/><rect x="904" y="843.6422200000038" width="8" height="31.921815999999126" fill="#26a69a"/><line x1="920" y1="828.678868999998" x2="920" y2="861.099463000005" stroke="#26a69a" stroke-width="2"/><rect x="916" y="834.6642090000046" width="8" height="9.975567999993018" fill="#26a69a"/><line x1="932" y1="812.7179609999985" x2="932" y2="840.6495500000005" stroke="#26a69a" stroke-width="2"/><rect x="928" y="830.6739819999962" width="8" height="3.9902270000084172" fill="#26a69a"/><line x1="944" y1="776.8059180000023" x2="944" y2="829.6764250000024" stroke="#26a69a" stroke-width="2"/><rect x="940" y="780.7961449999993" width="8" height="48.88028000000304" fill="#26a69a"/><line x1="956" y1="755.8572260000005" x2="956" y2="788.7765990000048" stroke="#26a69a" stroke-width="2"/><rect x="952" y="764.8352369999998" width="8" height="14.963351000005787" fill="#26a69a"/><line x1="968" y1="719.9451830000044" x2="968" y2="768.8254639999968" stroke="#26a69a" stroke-width="2"/><rect x="964" y="727.9256369999985" width="8" height="36.90960000000132" fill="#26a69a"/><line x1="980" y1="693.0111509999961" x2="980" y2="739.896318000001" stroke="#26a69a" stroke-width="2"/><rect x="976" y="703.9842750000048" width="8" height="22.943804999999884" fill="#26a69a"/><line x1="992" y1="635.1528590000044" x2="992" y2="699.9940479999964" stroke="#26a69a" stroke-width="2"/><rect x="988" y="651.1137670000039" width="8" height="48.880280999992465" fill="#26a69a"/><line x1="1004" y1="582.2823510000035" x2="1004" y2="674.0575720000038" stroke="#26a69a" stroke-width="2"/><rect x="1000" y="591.2603620000027" width="8" height="58.85584799999606" fill="#26a69a"/><line x1="1016" y1="384.7661150000022" x2="1016" y2="572.3067839999999" stroke="#26a69a" stroke-width="2"/><rect x="1012" y="387.75878500000545" width="8" height="127.6872639999965" fill="#26a69a"/><line x1="1028" y1="354.8394120000012" x2="1028" y2="511.4558220000049" stroke="#ef5350" stroke-width="2"/><rect x="1024" y="387.75878500000545" width="8" height="97.7605619999963" fill="#ef5350"/><line x1="1040" y1="462.57554100000107" x2="1040" y2="557.3434330000055" stroke="#ef5350" stroke-width="2"/><rect x="1036" y="491.5046869999969" width="8" height="5.985341000007338" fill="#ef5350"/><line x1="1052" y1="440.62929299999496" x2="1052" y2="564.3263299999944" stroke="#ef5350" stroke-width="2"/><rect x="1048" y="494.4973570000002" width="8" height="17.956021999998484" fill="#ef5350"/><line x1="1064" y1="468.56088199999704" x2="1064" y2="550.3605350000043" stroke="#ef5350" stroke-width="2"/><rect x="1060" y="503.47536799999943" width="8" height="26.934031999996932" fill="#ef5350"/><line x1="1076" y1="490.50713000000314" x2="1076" y2="565.3238869999996" stroke="#26a69a" stroke-width="2"/><rect x="1072" y="528.4142869999982" width="8" height="2" fill="#26a69a"/><line x1="1088" y1="505.47048199999836" x2="1088" y2="646.1259830000017" stroke="#ef5350" stroke-width="2"/><rect x="1084" y="517.4411630000009" width="8" height="122.69947999999431" fill="#ef5350"/><line x1="1100" y1="582.2823510000035" x2="1100" y2="657.0991079999999" stroke="#26a69a" stroke-width="2"/><rect x="1096" y="612.2090540000045" width="8" height="20.948691999990388" fill="#26a69a"/><line x1="1112" y1="541.3825249999945" x2="1112" y2="628.169962000004" stroke="#ef5350" stroke-width="2"/><rect x="1108" y="613.2066109999982" width="8" height="9.975567000003593" fill="#ef5350"/><line x1="1124" y1="597.2457029999987" x2="1124" y2="686.028252999995" stroke="#26a69a" stroke-width="2"/><rect x="1120" y="607.2212700000023" width="8" height="13.965795000001435" fill="#26a69a"/><line x1="1136" y1="516.4436059999957" x2="1136" y2="608.218826999996" stroke="#26a69a" stroke-width="2"/><rect x="1132" y="522.4289460000023" width="8" height="83.79476699999486" fill="#26a69a"/><line x1="1148" y1="483.5242330000028" x2="1148" y2="556.3458760000003" stroke="#26a69a" stroke-width="2"/><rect x="1144" y="514.4484919999968" width="8" height="8.978010999999242" fill="#26a69a"/><line x1="1160" y1="449.60730400000557" x2="1160" y2="517.4411630000009" stroke="#26a69a" stroke-width="2"/><rect x="1156" y="472.55110900000545" width="8" height="44.890053999995416" fill="#26a69a"/><line x1="1172" y1="397.73435299999846" x2="1172" y2="473.54866599999923" stroke="#26a69a" stroke-width="2"/><rect x="1168" y="424.6683849999954" width="8" height="48.88028100000383" fill="#26a69a"/><line x1="1184" y1="413.5955050000007" x2="1184" y2="481.5291200000047" stroke="#ef5350" stroke-width="2"/><rect x="1180" y="423.6708280000016" width="8" height="46.885166999993544" fill="#ef5350"/><line x1="1196" y1="419.6806010000046" x2="1196" y2="482.5266759999977" stroke="#26a69a" stroke-width="2"/><rect x="1192" y="420.67815799999835" width="8" height="48.88028100000383" fill="#26a69a"/><line x1="1208" y1="407.70992000000206" x2="1208" y2="463.57309799999484" stroke="#ef5350" stroke-width="2"/><rect x="1204" y="422.6732709999965" width="8" height="3.9902270000084172" fill="#ef5350"/><line x1="1220" y1="415.69037399999615" x2="1220" y2="468.56088199999704" stroke="#26a69a" stroke-width="2"/><rect x="1216" y="416.6879310000013" width="8" height="11.970681000002514" fill="#26a69a"/><line x1="1232" y1="390.75145499999735" x2="1232" y2="418.6830439999994" stroke="#26a69a" stroke-width="2"/><rect x="1228" y="409.705034000001" width="8" height="6.982897000000321" fill="#26a69a"/><line x1="1244" y1="373.7929910000048" x2="1244" y2="418.6830439999994" stroke="#26a69a" stroke-width="2"/><rect x="1240" y="398.7319090000028" width="8" height="8.978010999999242" fill="#26a69a"/><line x1="1256" y1="389.75389900000437" x2="1256" y2="486.5169029999947" stroke="#ef5350" stroke-width="2"/><rect x="1252" y="397.73435299999846" width="8" height="59.8534050000012" fill="#ef5350"/><line x1="1268" y1="379.778331" x2="1268" y2="457.58775799999967" stroke="#26a69a" stroke-width="2"/><rect x="1264" y="380.7758880000051" width="8" height="75.8143129999894" fill="#26a69a"/><line x1="1280" y1="355.83696899999495" x2="1280" y2="393.7441260000014" stroke="#26a69a" stroke-width="2"/><rect x="1276" y="378.78077399999484" width="8" height="3.9902270000084172" fill="#26a69a"/><line x1="1292" y1="336.8833910000035" x2="1292" y2="385.76367199999595" stroke="#26a69a" stroke-width="2"/><rect x="1288" y="359.82719600000337" width="8" height="23.94136199999366" fill="#26a69a"/><line x1="1304" y1="351.8467419999979" x2="1304" y2="402.72213599999986" stroke="#ef5350" stroke-width="2"/><rect x="1300" y="354.8394120000012" width="8" height="28.929145999995853" fill="#ef5350"/><line x1="1316" y1="383.76855799999703" x2="1316" y2="426.6634980000049" stroke="#ef5350" stroke-width="2"/><rect x="1312" y="386.7612280000003" width="8" height="15.960907999999563" fill="#ef5350"/><line x1="1328" y1="368.8052070000026" x2="1328" y2="421.6757150000035" stroke="#26a69a" stroke-width="2"/><rect x="1324" y="394.7416819999944" width="8" height="5.985341000007338" fill="#26a69a"/><line x1="1340" y1="366.8100930000037" x2="1340" y2="408.70747699999583" stroke="#26a69a" stroke-width="2"/><rect x="1336" y="370.80032000000074" width="8" height="18.95357900000363" fill="#26a69a"/><line x1="1352" y1="346.3601799999992" x2="1352" y2="392.74656899999627" stroke="#26a69a" stroke-width="2"/><rect x="1348" y="346.8589579999957" width="8" height="23.94136200000503" fill="#26a69a"/><line x1="1364" y1="338.8785040000016" x2="1364" y2="376.7856609999967" stroke="#ef5350" stroke-width="2"/><rect x="1360" y="347.85651500000085" width="8" height="28.929145999995853" fill="#ef5350"/><line x1="1376" y1="373.7929910000048" x2="1376" y2="404.7172499999988" stroke="#ef5350" stroke-width="2"/><rect x="1372" y="377.78321800000185" width="8" height="2" fill="#ef5350"/><line x1="1388" y1="344.8638449999976" x2="1388" y2="387.75878500000545" stroke="#26a69a" stroke-width="2"/><rect x="1384" y="344.8638449999976" width="8" height="31.921815999999126" fill="#26a69a"/><line x1="1400" y1="340.87361800000053" x2="1400" y2="359.82719600000337" stroke="#ef5350" stroke-width="2"/><rect x="1396" y="345.8614020000027" width="8" height="4.9877830000014" fill="#ef5350"/><line x1="1412" y1="350.8491850000041" x2="1412" y2="379.778331" stroke="#ef5350" stroke-width="2"/><rect x="1408" y="351.8467419999979" width="8" height="9.975568000004387" fill="#ef5350"/><line x1="1424" y1="351.8467419999979" x2="1424" y2="396.23801699999603" stroke="#ef5350" stroke-width="2"/><rect x="1420" y="366.8100930000037" width="8" height="27.93158899999071" fill="#ef5350"/><line x1="1436" y1="387.75878500000545" x2="1436" y2="437.63662300000306" stroke="#ef5350" stroke-width="2"/><rect x="1432" y="397.73435299999846" width="8" height="21.946248000006108" fill="#ef5350"/><line x1="1448" y1="389.75389900000437" x2="1448" y2="429.7559240000055" stroke="#26a69a" stroke-width="2"/><rect x="1444" y="397.73435299999846" width="8" height="23.94136200000503" fill="#26a69a"/><line x1="1460" y1="366.8100930000037" x2="1460" y2="398.7319090000028" stroke="#26a69a" stroke-width="2"/><rect x="1456" y="380.7758880000051" width="8" height="15.960907999999563" fill="#26a69a"/><line x1="1472" y1="381.7734449999989" x2="1472" y2="402.72213599999986" stroke="#ef5350" stroke-width="2"/><rect x="1468" y="381.7734449999989" width="8" height="8.978009999998449" fill="#ef5350"/><line x1="1484" y1="319.9249259999988" x2="1484" y2="388.7563419999992" stroke="#26a69a" stroke-width="2"/><rect x="1480" y="327.90538000000424" width="8" height="60.85096199999498" fill="#26a69a"/><line x1="1496" y1="312.94202899999846" x2="1496" y2="340.87361800000053" stroke="#26a69a" stroke-width="2"/><rect x="1492" y="319.9249259999988" width="8" height="5.9853409999959695" fill="#26a69a"/><line x1="1508" y1="314.9371419999966" x2="1508" y2="379.778331" stroke="#ef5350" stroke-width="2"/><rect x="1504" y="323.9151529999958" width="8" height="54.86562099999901" fill="#ef5350"/><line x1="1520" y1="305.95913199999814" x2="1520" y2="379.778331" stroke="#26a69a" stroke-width="2"/><rect x="1516" y="306.9566880000025" width="8" height="68.83141600000044" fill="#26a69a"/><line x1="1532" y1="284.0128830000026" x2="1532" y2="309.9493589999952" stroke="#26a69a" stroke-width="2"/><rect x="1528" y="301.9689050000011" width="8" height="3.9902269999970486" fill="#26a69a"/><line x1="1544" y1="299.97379100000217" x2="1544" y2="348.85407199999463" stroke="#ef5350" stroke-width="2"/><rect x="1540" y="302.96646100000544" width="8" height="44.890053999995416" fill="#ef5350"/><line x1="1556" y1="308.9518020000014" x2="1556" y2="344.8638449999976" stroke="#26a69a" stroke-width="2"/><rect x="1552" y="309.9493589999952" width="8" height="34.9144860000024" fill="#26a69a"/><line x1="1568" y1="282.0177700000045" x2="1568" y2="312.94202899999846" stroke="#26a69a" stroke-width="2"/><rect x="1564" y="290.9957800000029" width="8" height="19.95113499999661" fill="#26a69a"/><line x1="1580" y1="277.0299860000023" x2="1580" y2="298.976233999997" stroke="#26a69a" stroke-width="2"/><rect x="1576" y="286.0079970000015" width="8" height="4.9877830000014" fill="#26a69a"/><line x1="1592" y1="280.02265600000555" x2="1592" y2="305.95913199999814" stroke="#ef5350" stroke-width="2"/><rect x="1588" y="285.0104399999964" width="8" height="19.95113500000798" fill="#ef5350"/><line x1="1604" y1="281.02021299999933" x2="1604" y2="307.95424499999626" stroke="#ef5350" stroke-width="2"/><rect x="1600" y="302.96646100000544" width="8" height="2" fill="#ef5350"/><line x1="1616" y1="276.03242899999714" x2="1616" y2="307.95424499999626" stroke="#26a69a" stroke-width="2"/><rect x="1612" y="290.9957800000029" width="8" height="13.965795000001435" fill="#26a69a"/><line x1="1628" y1="269.5483100000047" x2="1628" y2="298.976233999997" stroke="#26a69a" stroke-width="2"/><rect x="1624" y="275.03487200000336" width="8" height="15.462129999991703" fill="#26a69a"/><line x1="1640" y1="220.16925100000435" x2="1640" y2="275.03487200000336" stroke="#26a69a" stroke-width="2"/><rect x="1636" y="231.14237500000172" width="8" height="40.89982699999837" fill="#26a69a"/><line x1="1652" y1="231.14237500000172" x2="1652" y2="276.03242899999714" stroke="#ef5350" stroke-width="2"/><rect x="1648" y="231.14237500000172" width="8" height="34.91448700000319" fill="#ef5350"/><line x1="1664" y1="235.13260199999877" x2="1664" y2="269.0495319999968" stroke="#26a69a" stroke-width="2"/><rect x="1660" y="241.11794299999474" width="8" height="26.9340320000083" fill="#26a69a"/><line x1="1676" y1="241.11794299999474" x2="1676" y2="258.07640799999945" stroke="#ef5350" stroke-width="2"/><rect x="1672" y="242.11549999999988" width="8" height="2.9926700000032724" fill="#ef5350"/><line x1="1688" y1="233.13748900000064" x2="1688" y2="249.0983970000002" stroke="#26a69a" stroke-width="2"/><rect x="1684" y="235.13260199999877" width="8" height="10.973124999998163" fill="#26a69a"/><line x1="1700" y1="212.18879699999889" x2="1700" y2="236.1301590000039" stroke="#26a69a" stroke-width="2"/><rect x="1696" y="225.15703499999518" width="8" height="8.978010999999242" fill="#26a69a"/><line x1="1712" y1="219.1716939999992" x2="1712" y2="237.1277159999977" stroke="#26a69a" stroke-width="2"/><rect x="1708" y="220.16925100000435" width="8" height="5.9853409999959695" fill="#26a69a"/><line x1="1724" y1="218.17413799999485" x2="1724" y2="238.12527300000284" stroke="#ef5350" stroke-width="2"/><rect x="1720" y="221.16680799999813" width="8" height="12.96823799999629" fill="#ef5350"/><line x1="1736" y1="194.2327760000012" x2="1736" y2="240.12038600000096" stroke="#26a69a" stroke-width="2"/><rect x="1732" y="194.7315539999977" width="8" height="37.40837799999781" fill="#26a69a"/><line x1="1748" y1="184.2572079999968" x2="1748" y2="201.21567300000152" stroke="#ef5350" stroke-width="2"/><rect x="1744" y="194.2327760000012" width="8" height="2" fill="#ef5350"/><line x1="1760" y1="181.2645380000049" x2="1760" y2="212.18879699999889" stroke="#ef5350" stroke-width="2"/><rect x="1756" y="197.22544600000447" width="8" height="14.963350999994418" fill="#ef5350"/><line x1="1772" y1="182.26209499999868" x2="1772" y2="214.1839109999978" stroke="#26a69a" stroke-width="2"/><rect x="1768" y="182.26209499999868" width="8" height="29.926702000000205" fill="#26a69a"/><line x1="1784" y1="170.29141399999617" x2="1784" y2="188.24743500000523" stroke="#ef5350" stroke-width="2"/><rect x="1780" y="182.26209499999868" width="8" height="3.9902269999970486" fill="#ef5350"/><line x1="1796" y1="169.2938570000024" x2="1796" y2="188.24743500000523" stroke="#26a69a" stroke-width="2"/><rect x="1792" y="180.26698099999976" width="8" height="4.987784000002193" fill="#26a69a"/><line x1="1808" y1="166.30118699999912" x2="1808" y2="187.24987800000008" stroke="#26a69a" stroke-width="2"/><rect x="1804" y="176.2767540000027" width="8" height="2.9926699999919038" fill="#26a69a"/><line x1="1820" y1="169.2938570000024" x2="1820" y2="187.24987800000008" stroke="#ef5350" stroke-width="2"/><rect x="1816" y="175.27919699999757" width="8" height="6.982898000001114" fill="#ef5350"/><line x1="1832" y1="136.37448399999812" x2="1832" y2="187.24987800000008" stroke="#26a69a" stroke-width="2"/><rect x="1828" y="139.3671540000014" width="8" height="43.89249700000164" fill="#26a69a"/><line x1="1844" y1="135.37692700000434" x2="1844" y2="152.33539199999768" stroke="#ef5350" stroke-width="2"/><rect x="1840" y="140.36471099999517" width="8" height="2" fill="#ef5350"/><line x1="1856" y1="123.40624600000183" x2="1856" y2="143.35738099999844" stroke="#26a69a" stroke-width="2"/><rect x="1852" y="139.3671540000014" width="8" height="2.9926710000040657" fill="#26a69a"/><line x1="1868" y1="135.37692700000434" x2="1868" y2="160.31584600000315" stroke="#ef5350" stroke-width="2"/><rect x="1864" y="138.36959799999704" width="8" height="18.953578000002835" fill="#ef5350"/><line x1="1880" y1="149.3427219999944" x2="1880" y2="166.30118699999912" stroke="#ef5350" stroke-width="2"/><rect x="1876" y="158.32073300000502" width="8" height="4.987782999990031" fill="#ef5350"/><line x1="1892" y1="141.3622680000003" x2="1892" y2="171.28897000000052" stroke="#26a69a" stroke-width="2"/><rect x="1888" y="141.3622680000003" width="8" height="22.943804999999884" fill="#26a69a"/><line x1="1904" y1="126.39891699999453" x2="1904" y2="149.3427219999944" stroke="#26a69a" stroke-width="2"/><rect x="1900" y="131.38669999999593" width="8" height="10.973125000009532" fill="#26a69a"/><line x1="1916" y1="133.38181399999485" x2="1916" y2="162.31096000000207" stroke="#ef5350" stroke-width="2"/><rect x="1912" y="133.38181399999485" width="8" height="25.936475000003156" fill="#ef5350"/><line x1="1928" y1="83.50397599999724" x2="1928" y2="164.3060730000002" stroke="#26a69a" stroke-width="2"/><rect x="1924" y="89.48931700000458" width="8" height="70.82652899999857" fill="#26a69a"/><line x1="1940" y1="31.6310250000015" x2="1940" y2="95.47465699999975" stroke="#26a69a" stroke-width="2"/><rect x="1936" y="63.552841000000626" width="8" height="27.931589000002077" fill="#26a69a"/><rect x="75" y="963.8764409043262" width="10" height="56.12355909567384" fill="#ef5350" opacity="0.9"/><rect x="87" y="992.3390145847477" width="10" height="27.6609854152523" fill="#ef5350" opacity="0.9"/><rect x="99" y="994.0298808630122" width="10" height="25.97011913698782" fill="#26a69a" opacity="0.9"/><rect x="111" y="991.0039176523499" width="10" height="28.996082347650145" fill="#26a69a" opacity="0.9"/><rect x="123" y="991.9983789024759" width="10" height="28.001621097524094" fill="#26a69a" opacity="0.9"/><rect x="135" y="997.4775346321494" width="10" height="22.5224653678506" fill="#ef5350" opacity="0.9"/><rect x="147" y="977.7596534818541" width="10" height="42.240346518145884" fill="#26a69a" opacity="0.9"/><rect x="159" y="993.7120739275192" width="10" height="26.287926072480786" fill="#ef5350" opacity="0.9"/><rect x="171" y="981.8724189408488" width="10" height="38.127581059151225" fill="#ef5350" opacity="0.9"/><rect x="183" y="998.2680761779035" width="10" height="21.73192382209652" fill="#26a69a" opacity="0.9"/><rect x="195" y="995.2144106677794" width="10" height="24.78558933222064" fill="#26a69a" opacity="0.9"/><rect x="207" y="982.2120286120293" width="10" height="37.78797138797074" fill="#ef5350" opacity="0.9"/><rect x="219" y="997.7127476748024" width="10" height="22.28725232519764" fill="#26a69a" opacity="0.9"/><rect x="231" y="994.2753540165769" width="10" height="25.724645983423102" fill="#26a69a" opacity="0.9"/><rect x="243" y="985.4236998301951" width="10" height="34.57630016980488" fill="#26a69a" opacity="0.9"/><rect x="255" y="987.4921381900139" width="10" height="32.50786180998614" fill="#26a69a" opacity="0.9"/><rect x="267" y="983.4293907717142" width="10" height="36.570609228285775" fill="#ef5350" opacity="0.9"/><rect x="279" y="997.6914579446603" width="10" height="22.30854205533967" fill="#ef5350" opacity="0.9"/><rect x="291" y="992.1258607805551" width="10" height="27.87413921944494" fill="#ef5350" opacity="0.9"/><rect x="303" y="992.3164423407417" width="10" height="27.683557659258327" fill="#ef5350" opacity="0.9"/><rect x="315" y="1000.3926886449642" width="10" height="19.60731135503579" fill="#ef5350" opacity="0.9"/><rect x="327" y="999.0116777162361" width="10" height="20.988322283763864" fill="#ef5350" opacity="0.9"/><rect x="339" y="994.8342735584972" width="10" height="25.165726441502784" fill="#ef5350" opacity="0.9"/><rect x="351" y="988.1144139168144" width="10" height="31.885586083185558" fill="#ef5350" opacity="0.9"/><rect x="363" y="984.5546684359658" width="10" height="35.44533156403418" fill="#ef5350" opacity="0.9"/><rect x="375" y="994.1370990220404" width="10" height="25.86290097795961" fill="#26a69a" opacity="0.9"/><rect x="387" y="999.6034296130741" width="10" height="20.396570386925873" fill="#ef5350" opacity="0.9"/><rect x="399" y="996.7644569237793" width="10" height="23.235543076220665" fill="#ef5350" opacity="0.9"/><rect x="411" y="998.9893619750029" width="10" height="21.010638024997093" fill="#26a69a" opacity="0.9"/><rect x="423" y="997.5047239260656" width="10" height="22.495276073934406" fill="#ef5350" opacity="0.9"/><rect x="435" y="989.7467975628816" width="10" height="30.253202437118375" fill="#ef5350" opacity="0.9"/><rect x="447" y="1002.4349637219578" width="10" height="17.565036278042157" fill="#26a69a" opacity="0.9"/><rect x="459" y="996.823709064295" width="10" height="23.17629093570497" fill="#ef5350" opacity="0.9"/><rect x="471" y="1001.2427388340068" width="10" height="18.757261165993214" fill="#26a69a" opacity="0.9"/><rect x="483" y="991.6290149096511" width="10" height="28.37098509034888" fill="#ef5350" opacity="0.9"/><rect x="495" y="997.2813100109612" width="10" height="22.718689989038808" fill="#ef5350" opacity="0.9"/><rect x="507" y="1003.8836913827039" width="10" height="16.116308617296113" fill="#ef5350" opacity="0.9"/><rect x="519" y="1004.2687020446691" width="10" height="15.731297955330888" fill="#ef5350" opacity="0.9"/><rect x="531" y="991.0485491348162" width="10" height="28.9514508651838" fill="#ef5350" opacity="0.9"/><rect x="543" y="998.651547823232" width="10" height="21.348452176767978" fill="#ef5350" opacity="0.9"/><rect x="555" y="1000.648165406668" width="10" height="19.351834593332" fill="#ef5350" opacity="0.9"/><rect x="567" y="1001.1434722609351" width="10" height="18.85652773906486" fill="#26a69a" opacity="0.9"/><rect x="579" y="996.62594542647" width="10" height="23.374054573529975" fill="#26a69a" opacity="0.9"/><rect x="591" y="1004.4867294015448" width="10" height="15.513270598455165" fill="#26a69a" opacity="0.9"/><rect x="603" y="999.9643290143966" width="10" height="20.03567098560336" fill="#26a69a" opacity="0.9"/><rect x="615" y="999.2430432172972" width="10" height="20.756956782702787" fill="#26a69a" opacity="0.9"/><rect x="627" y="997.6619601257889" width="10" height="22.338039874211063" fill="#ef5350" opacity="0.9"/><rect x="639" y="998.587678632806" width="10" height="21.412321367193954" fill="#ef5350" opacity="0.9"/><rect x="651" y="1000.0104995134998" width="10" height="19.98950048650022" fill="#ef5350" opacity="0.9"/><rect x="663" y="1003.7898113678609" width="10" height="16.21018863213908" fill="#ef5350" opacity="0.9"/><rect x="675" y="991.8411427027526" width="10" height="28.158857297247437" fill="#ef5350" opacity="0.9"/><rect x="687" y="981.5371698168058" width="10" height="38.46283018319423" fill="#26a69a" opacity="0.9"/><rect x="699" y="999.8371036390903" width="10" height="20.162896360909713" fill="#ef5350" opacity="0.9"/><rect x="711" y="993.5350870142906" width="10" height="26.46491298570936" fill="#ef5350" opacity="0.9"/><rect x="723" y="990.5447776890468" width="10" height="29.455222310953218" fill="#ef5350" opacity="0.9"/><rect x="735" y="996.1901472154914" width="10" height="23.80985278450862" fill="#26a69a" opacity="0.9"/><rect x="747" y="999.5231442451893" width="10" height="20.476855754810686" fill="#26a69a" opacity="0.9"/><rect x="759" y="1002.5052454817037" width="10" height="17.494754518296304" fill="#ef5350" opacity="0.9"/><rect x="771" y="999.4269557053912" width="10" height="20.57304429460885" fill="#ef5350" opacity="0.9"/><rect x="783" y="1001.1103834032446" width="10" height="18.889616596755445" fill="#26a69a" opacity="0.9"/><rect x="795" y="1000.6489349149864" width="10" height="19.3510650850136" fill="#ef5350" opacity="0.9"/><rect x="807" y="1001.212471506817" width="10" height="18.787528493183004" fill="#ef5350" opacity="0.9"/><rect x="819" y="996.0100822689893" width="10" height="23.989917731010678" fill="#26a69a" opacity="0.9"/><rect x="831" y="993.5938261492606" width="10" height="26.40617385073938" fill="#ef5350" opacity="0.9"/><rect x="843" y="997.1735788463873" width="10" height="22.826421153612728" fill="#26a69a" opacity="0.9"/><rect x="855" y="1004.6475566400873" width="10" height="15.35244335991274" fill="#ef5350" opacity="0.9"/><rect x="867" y="1003.2837313971364" width="10" height="16.71626860286358" fill="#ef5350" opacity="0.9"/><rect x="879" y="998.0128559189725" width="10" height="21.98714408102751" fill="#26a69a" opacity="0.9"/><rect x="891" y="998.838025339054" width="10" height="21.161974660946044" fill="#ef5350" opacity="0.9"/><rect x="903" y="1001.7693390265549" width="10" height="18.230660973445083" fill="#26a69a" opacity="0.9"/><rect x="915" y="1005.7882244707065" width="10" height="14.211775529293504" fill="#26a69a" opacity="0.9"/><rect x="927" y="999.7678478904357" width="10" height="20.232152109564254" fill="#26a69a" opacity="0.9"/><rect x="939" y="998.2726932278138" width="10" height="21.72730677218624" fill="#26a69a" opacity="0.9"/><rect x="951" y="997.4736870905574" width="10" height="22.526312909442595" fill="#26a69a" opacity="0.9"/><rect x="963" y="989.0208947158719" width="10" height="30.97910528412808" fill="#26a69a" opacity="0.9"/><rect x="975" y="974.7629315872905" width="10" height="45.237068412709505" fill="#26a69a" opacity="0.9"/><rect x="987" y="963.9405665975249" width="10" height="56.059433402475065" fill="#26a69a" opacity="0.9"/><rect x="999" y="860.0" width="10" height="160.0" fill="#26a69a" opacity="0.9"/><rect x="1011" y="976.0869989004581" width="10" height="43.91300109954193" fill="#26a69a" opacity="0.9"/><rect x="1023" y="987.2112676538034" width="10" height="32.78873234619664" fill="#ef5350" opacity="0.9"/><rect x="1035" y="995.022033588183" width="10" height="24.977966411816965" fill="#ef5350" opacity="0.9"/><rect x="1047" y="989.8137447865812" width="10" height="30.186255213418804" fill="#ef5350" opacity="0.9"/><rect x="1059" y="998.4858470320064" width="10" height="21.514152967993596" fill="#ef5350" opacity="0.9"/><rect x="1071" y="1003.2311483287134" width="10" height="16.768851671286598" fill="#26a69a" opacity="0.9"/><rect x="1083" y="989.2409740949299" width="10" height="30.759025905070075" fill="#ef5350" opacity="0.9"/><rect x="1095" y="998.9190802152572" width="10" height="21.080919784742832" fill="#26a69a" opacity="0.9"/><rect x="1107" y="998.1180220558184" width="10" height="21.881977944181585" fill="#ef5350" opacity="0.9"/><rect x="1119" y="996.8444857888913" width="10" height="23.155514211108652" fill="#26a69a" opacity="0.9"/><rect x="1131" y="995.9872535222106" width="10" height="24.012746477789392" fill="#26a69a" opacity="0.9"/><rect x="1143" y="995.0115169744985" width="10" height="24.988483025501523" fill="#26a69a" opacity="0.9"/><rect x="1155" y="998.5853701078508" width="10" height="21.41462989214915" fill="#26a69a" opacity="0.9"/><rect x="1167" y="991.9655465475582" width="10" height="28.034453452441767" fill="#26a69a" opacity="0.9"/><rect x="1179" y="998.841616377873" width="10" height="21.158383622126962" fill="#ef5350" opacity="0.9"/><rect x="1191" y="1002.9341181178169" width="10" height="17.065881882183135" fill="#26a69a" opacity="0.9"/><rect x="1203" y="996.7888246871948" width="10" height="23.211175312805153" fill="#ef5350" opacity="0.9"/><rect x="1215" y="1004.650378170588" width="10" height="15.349621829411944" fill="#26a69a" opacity="0.9"/><rect x="1227" y="1000.0207596244115" width="10" height="19.97924037558846" fill="#26a69a" opacity="0.9"/><rect x="1239" y="994.2799710664872" width="10" height="25.720028933512822" fill="#26a69a" opacity="0.9"/><rect x="1251" y="992.7473669990372" width="10" height="27.25263300096276" fill="#ef5350" opacity="0.9"/><rect x="1263" y="997.2797709943244" width="10" height="22.720229005675606" fill="#26a69a" opacity="0.9"/><rect x="1275" y="989.3625564092348" width="10" height="30.6374435907652" fill="#26a69a" opacity="0.9"/><rect x="1287" y="994.6211197543046" width="10" height="25.378880245695427" fill="#26a69a" opacity="0.9"/><rect x="1299" y="1002.4657440546932" width="10" height="17.534255945306768" fill="#ef5350" opacity="0.9"/><rect x="1311" y="1003.2326873453502" width="10" height="16.7673126546498" fill="#ef5350" opacity="0.9"/><rect x="1323" y="1005.2159667846009" width="10" height="14.784033215399063" fill="#26a69a" opacity="0.9"/><rect x="1335" y="1006.4620572548389" width="10" height="13.537942745161104" fill="#26a69a" opacity="0.9"/><rect x="1347" y="1004.2558769060294" width="10" height="15.744123093970643" fill="#26a69a" opacity="0.9"/><rect x="1359" y="1000.6114855101583" width="10" height="19.38851448984167" fill="#ef5350" opacity="0.9"/><rect x="1371" y="1006.5610673251377" width="10" height="13.438932674862258" fill="#ef5350" opacity="0.9"/><rect x="1383" y="1001.5174533036702" width="10" height="18.48254669632979" fill="#26a69a" opacity="0.9"/><rect x="1395" y="1004.2389477230249" width="10" height="15.761052276975079" fill="#ef5350" opacity="0.9"/><rect x="1407" y="1004.7111693277404" width="10" height="15.288830672259564" fill="#ef5350" opacity="0.9"/><rect x="1419" y="1003.0521093933025" width="10" height="16.947890606697456" fill="#ef5350" opacity="0.9"/><rect x="1431" y="1004.2692150502147" width="10" height="15.730784949785289" fill="#ef5350" opacity="0.9"/><rect x="1443" y="1003.8439334529206" width="10" height="16.156066547079377" fill="#26a69a" opacity="0.9"/><rect x="1455" y="1005.8933906075524" width="10" height="14.10660939244758" fill="#26a69a" opacity="0.9"/><rect x="1467" y="1002.3708380287591" width="10" height="17.629161971240933" fill="#ef5350" opacity="0.9"/><rect x="1479" y="998.699000836199" width="10" height="21.300999163800952" fill="#26a69a" opacity="0.9"/><rect x="1491" y="1001.8144835145667" width="10" height="18.185516485433254" fill="#26a69a" opacity="0.9"/><rect x="1503" y="1001.2758276916974" width="10" height="18.724172308302627" fill="#ef5350" opacity="0.9"/><rect x="1515" y="998.6192284738598" width="10" height="21.380771526140165" fill="#26a69a" opacity="0.9"/><rect x="1527" y="997.0786728204532" width="10" height="22.92132717954678" fill="#26a69a" opacity="0.9"/><rect x="1539" y="1002.2297615037219" width="10" height="17.770238496278125" fill="#ef5350" opacity="0.9"/><rect x="1551" y="1001.7898592483784" width="10" height="18.210140751621566" fill="#26a69a" opacity="0.9"/><rect x="1563" y="1004.704243752875" width="10" height="15.295756247125041" fill="#26a69a" opacity="0.9"/><rect x="1575" y="1000.915954301466" width="10" height="19.084045698534055" fill="#26a69a" opacity="0.9"/><rect x="1587" y="997.8966601628964" width="10" height="22.10333983710359" fill="#ef5350" opacity="0.9"/><rect x="1599" y="1004.6829540227329" width="10" height="15.317045977267071" fill="#ef5350" opacity="0.9"/><rect x="1611" y="1004.191238207285" width="10" height="15.808761792715018" fill="#26a69a" opacity="0.9"/><rect x="1623" y="1001.7593354184158" width="10" height="18.240664581584156" fill="#26a69a" opacity="0.9"/><rect x="1635" y="989.7342289270147" width="10" height="30.26577107298533" fill="#26a69a" opacity="0.9"/><rect x="1647" y="1001.1014058061968" width="10" height="18.898594193803206" fill="#ef5350" opacity="0.9"/><rect x="1659" y="999.77374745421" width="10" height="20.226252545789976" fill="#26a69a" opacity="0.9"/><rect x="1671" y="1001.9260622207327" width="10" height="18.07393777926734" fill="#ef5350" opacity="0.9"/><rect x="1683" y="1000.0107560162726" width="10" height="19.98924398372742" fill="#26a69a" opacity="0.9"/><rect x="1695" y="1000.5370997060478" width="10" height="19.462900293952202" fill="#26a69a" opacity="0.9"/><rect x="1707" y="1002.9587423840052" width="10" height="17.041257615994823" fill="#26a69a" opacity="0.9"/><rect x="1719" y="1000.9377570371536" width="10" height="19.062242962846426" fill="#ef5350" opacity="0.9"/><rect x="1731" y="995.0953933812025" width="10" height="24.904606618797516" fill="#26a69a" opacity="0.9"/><rect x="1743" y="995.4534712520242" width="10" height="24.5465287479758" fill="#ef5350" opacity="0.9"/><rect x="1755" y="997.2618158002288" width="10" height="22.73818419977124" fill="#ef5350" opacity="0.9"/><rect x="1767" y="999.5729057831115" width="10" height="20.427094216888463" fill="#26a69a" opacity="0.9"/><rect x="1779" y="995.6396922650733" width="10" height="24.360307734926664" fill="#ef5350" opacity="0.9"/><rect x="1791" y="997.6588820925155" width="10" height="22.341117907484545" fill="#26a69a" opacity="0.9"/><rect x="1803" y="1000.9300619539697" width="10" height="19.069938046030302" fill="#26a69a" opacity="0.9"/><rect x="1815" y="1001.4953940652099" width="10" height="18.504605934790106" fill="#ef5350" opacity="0.9"/><rect x="1827" y="992.6157810765934" width="10" height="27.384218923406593" fill="#26a69a" opacity="0.9"/><rect x="1839" y="996.7798470901471" width="10" height="23.220152909852914" fill="#ef5350" opacity="0.9"/><rect x="1851" y="998.089806750811" width="10" height="21.91019324918898" fill="#26a69a" opacity="0.9"/><rect x="1863" y="1001.1373161943881" width="10" height="18.862683805611937" fill="#ef5350" opacity="0.9"/><rect x="1875" y="995.5740275552379" width="10" height="24.425972444762124" fill="#ef5350" opacity="0.9"/><rect x="1887" y="997.7260858189877" width="10" height="22.273914181012287" fill="#26a69a" opacity="0.9"/><rect x="1899" y="992.7507015350836" width="10" height="27.249298464916365" fill="#26a69a" opacity="0.9"/><rect x="1911" y="993.3527135428334" width="10" height="26.647286457166615" fill="#ef5350" opacity="0.9"/><rect x="1923" y="974.7890948701156" width="10" height="45.210905129884395" fill="#26a69a" opacity="0.9"/><rect x="1935" y="881.9620239094785" width="10" height="138.0379760905215" fill="#26a69a" opacity="0.9"/><rect x="1004" y="515.446049000002" width="12" height="75.81431300000077" fill="#00ff00" opacity="0.50"/><polyline points="320,590.9090795238285,332,584.0071404263199,344,580.8027018142866,356,588.7340640224465,368,597.4301448774554,380,599.8827194605497,392,604.1918344643136,404,608.9456061343753,416,612.6766052644371,428,618.8074279059151,440,625.4944275339199,452,626.8893051973464,464,629.7664292737863,476,628.6643306762812,488,629.187280326164,500,630.1354522950987,512,631.3733437908013,524,634.4029495250084,536,639.699666713102,548,646.2970374070892,560,653.4061519397483,572,657.1780566121561,584,656.7905160776718,596,655.9648571178855,608,651.6076269161772,620,646.5253061622661,632,645.3472105277683,644,646.0864172394167,656,650.6504448356623,668,656.0148734227482,680,667.0437553824854,692,674.2671108698687,704,682.9876520251219,716,694.2028546893994,728,708.7201913856461,740,721.1898867774948,752,729.5268246082173,764,741.8200385502928,776,753.8925243074118,788,762.1550981828932,800,771.910889975004,812,785.0128018821465,824,790.1215289409947,836,797.4988673275675,848,803.1285426297018,860,808.4120691411613,872,813.477418842001,884,817.015294857049,896,822.4013545849516,908,824.4242941482867,920,825.3995241341727,932,825.9018534547295,944,821.6060716971356,956,816.1993255355128,968,807.7923075797457,980,797.9058282864344,992,783.9256319734432,1004,765.5765586426355,1016,729.5939135338131,1028,706.348716721061,1040,686.4574130333381,1052,669.8856002682646,1064,656.6021526236682,1076,644.3937844690254,1088,643.9887233767308,1100,640.9620881980004,1112,639.2687634172376,1124,636.2166211870317,1136,625.3796997406539,1148,614.8148228129685,1160,601.2658976879152,1172,584.4470869557313,1184,573.6003162932775,1196,559.0363012177249,1208,546.4293675779459,1220,534.0730402848067,1232,522.2284682576856,1244,510.4668911855242,1256,505.43078326309114,1268,493.5588884761273,1280,482.62763947839176,1292,470.93235914711613,1304,462.63104475215187,1316,456.9254343948046,1328,451.0031722619601,1340,443.364805379872,1352,434.17377229607155,1364,428.70823788691723,1376,424.0482467548304,1388,416.50687515913205,1400,410.2537618106453,1412,405.64124259059327,1424,404.6031892010092,1436,406.0391331818664,1448,405.24820173596936,1460,402.9175051896914,1472,401.75883374305386,1484,394.7251714818094,1496,387.60133857878145,1508,386.76128480936995,1520,379.16084701799946,1532,371.80923349247905,1544,369.5280222074757,1556,363.853863806753,1568,356.91499868230494,1580,350.16195090304336,1592,345.8571531979828,1604,341.86733079817486,1616,337.0224211983441,1628,331.118845084211,1640,321.59727650475816,1652,316.307713218589,1664,309.14678272157516,1676,303.04786722427934,1688,296.57974672672935,1700,289.77758370514266,1712,283.14821868560784,1724,278.4802974774607,1736,270.50422667008434,1748,263.43028974912386,1760,258.5501475825481,1772,251.28461876516894,1784,245.09106669229368,1796,238.917344245408,1808,232.95157374584505,1820,228.12400434147548,1832,219.67097097561918,1844,212.21299926364736,1856,205.27529971473086,1868,200.7084307895184,1880,197.14653414289387,1892,191.83374689118864,1904,186.07688528251174,1916,183.52844754131183,1928,174.57233987071277,1940,163.99905426397936" fill="none" stroke="#0090ff" stroke-width="2"/><line x1="80" y1="50" x2="80" y2="850" stroke="#666666" stroke-width="0.5" stroke-dasharray="4,4"/><line x1="152" y1="50" x2="152" y2="850" stroke="#666666" stroke-width="0.5" stroke-dasharray="4,4"/><line x1="224" y1="50" x2="224" y2="850" stroke="#666666" stroke-width="0.5" stroke-dasharray="4,4"/><line x1="296" y1="50" x2="296" y2="850" stroke="#666666" stroke-width="0.5" stroke-dasharray="4,4"/><line x1="368" y1="50" x2="368" y2="850" stroke="#666666" stroke-width="0.5" stroke-dasharray="4,4"/><line x1="440" y1="50" x2="440" y2="850" stroke="#666666" stroke-width="0.5" stroke-dasharray="4,4"/><line x1="512" y1="50" x2="512" y2="850" stroke="#666666" stroke-width="0.5" stroke-dasharray="4,4"/><line x1="584" y1="50" x2="584" y2="850" stroke="#666666" stroke-width="0.5" stroke-dasharray="4,4"/><line x1="656" y1="50" x2="656" y2="850" stroke="#666666" stroke-width="0.5" stroke-dasharray="4,4"/><line x1="728" y1="50" x2="728" y2="850" stroke="#666666" stroke-width="0.5" stroke-dasharray="4,4"/><line x1="800" y1="50" x2="800" y2="850" stroke="#666666" stroke-width="0.5" stroke-dasharray="4,4"/><line x1="872" y1="50" x2="872" y2="850" stroke="#666666" stroke-width="0.5" stroke-dasharray="4,4"/><line x1="944" y1="50" x2="944" y2="850" stroke="#666666" stroke-width="0.5" stroke-dasharray="4,4"/><line x1="1016" y1="50" x2="1016" y2="850" stroke="#666666" stroke-width="0.5" stroke-dasharray="4,4"/><line x1="1088" y1="50" x2="1088" y2="850" stroke="#666666" stroke-width="0.5" stroke-dasharray="4,4"/><line x1="1160" y1="50" x2="1160" y2="850" stroke="#666666" stroke-width="0.5" stroke-dasharray="4,4"/><line x1="1232" y1="50" x2="1232" y2="850" stroke="#666666" stroke-width="0.5" stroke-dasharray="4,4"/><line x1="1304" y1="50" x2="1304" y2="850" stroke="#666666" stroke-width="0.5" stroke-dasharray="4,4"/><line x1="1376" y1="50" x2="1376" y2="850" stroke="#666666" stroke-width="0.5" stroke-dasharray="4,4"/><line x1="1448" y1="50" x2="1448" y2="850" stroke="#666666" stroke-width="0.5" stroke-dasharray="4,4"/><line x1="1520" y1="50" x2="1520" y2="850" stroke="#666666" stroke-width="0.5" stroke-dasharray="4,4"/><line x1="1592" y1="50" x2="1592" y2="850" stroke="#666666" stroke-width="0.5" stroke-dasharray="4,4"/><line x1="1664" y1="50" x2="1664" y2="850" stroke="#666666" stroke-width="0.5" stroke-dasharray="4,4"/><line x1="1736" y1="50" x2="1736" y2="850" stroke="#666666" stroke-width="0.5" stroke-dasharray="4,4"/><line x1="1808" y1="50" x2="1808" y2="850" stroke="#666666" stroke-width="0.5" stroke-dasharray="4,4"/><line x1="1880" y1="50" x2="1880" y2="850" stroke="#666666" stroke-width="0.5" stroke-dasharray="4,4"/><text x="80" y="1040" text-anchor="middle" font-size="20" fill="black">09:30</text><text x="152" y="1040" text-anchor="middle" font-size="20" fill="black">10:00</text><text x="224" y="1040" text-anchor="middle" font-size="20" fill="black">10:30</text><text x="296" y="1040" text-anchor="middle" font-size="20" fill="black">11:00</text><text x="368" y="1040" text-anchor="middle" font-size="20" fill="black">11:30</text><text x="440" y="1040" text-anchor="middle" font-size="20" fill="black">12:00</text><text x="512" y="1040" text-anchor="middle" font-size="20" fill="black">12:30</text><text x="584" y="1040" text-anchor="middle" font-size="20" fill="black">13:00</text><text x="656" y="1040" text-anchor="middle" font-size="20" fill="black">13:30</text><text x="728" y="1040" text-anchor="middle" font-size="20" fill="black">14:00</text><text x="800" y="1040" text-anchor="middle" font-size="20" fill="black">14:30</text><text x="872" y="1040" text-anchor="middle" font-size="20" fill="black">15:00</text><text x="944" y="1040" text-anchor="middle" font-size="20" fill="black">15:30</text><text x="1016" y="1040" text-anchor="middle" font-size="20" fill="black">09:30</text><text x="1088" y="1040" text-anchor="middle" font-size="20" fill="black">10:00</text><text x="1160" y="1040" text-anchor="middle" font-size="20" fill="black">10:30</text><text x="1232" y="1040" text-anchor="middle" font-size="20" fill="black">11:00</text><text x="1304" y="1040" text-anchor="middle" font-size="20" fill="black">11:30</text><text x="1376" y="1040" text-anchor="middle" font-size="20" fill="black">12:00</text><text x="1448" y="1040" text-anchor="middle" font-size="20" fill="black">12:30</text><text x="1520" y="1040" text-anchor="middle" font-size="20" fill="black">13:00</text><text x="1592" y="1040" text-anchor="middle" font-size="20" fill="black">13:30</text><text x="1664" y="1040" text-anchor="middle" font-size="20" fill="black">14:00</text><text x="1736" y="1040" text-anchor="middle" font-size="20" fill="black">14:30</text><text x="1808" y="1040" text-anchor="middle" font-size="20" fill="black">15:00</text><text x="1880" y="1040" text-anchor="middle" font-size="20" fill="black">15:30</text><text x="1942" y="50" text-anchor="end" font-size="40" fill="#26a69a" font-weight="bold"> +0.79% (Thu)</text></svg>