<svg xmlns="http://www.w3.org/2000/svg" width="1992" height="1050"><rect width="100%" height="100%" fill="white"/><text x="42" y="854.0" text-anchor="end" font-size="20" fill="black">611</text><text x="42" y="787.3333333333334" text-anchor="end" font-size="20" fill="black">612</text><text x="42" y="720.6666666666667" text-anchor="end" font-size="20" fill="black">613</text><text x="42" y="654.0" text-anchor="end" font-size="20" fill="black">614</text><text x="42" y="587.3333333333334" text-anchor="end" font-size="20" fill="black">615</text><text x="42" y="520.6666666666666" text-anchor="end" font-size="20" fill="black">616</text><text x="42" y="454.0" text-anchor="end" font-size="20" fill="black">617</text><text x="42" y="387.3333333333333" text-anchor="end" font-size="20" fill="black">618</text><text x="42" y="320.66666666666674" text-anchor="end" font-size="20" fill="black">619</text><text x="42" y="254.0" text-anchor="end" font-size="20" fill="black">620</text><text x="42" y="187.33333333333326" text-anchor="end" font-size="20" fill="black">621</text><text x="42" y="120.66666666666674" text-anchor="end" font-size="20" fill="black">622</text><text x="42" y="54.0" text-anchor="end" font-size="20" fill="black">623</text><line x1="80" y1="171.33333333333667" x2="80" y2="294.666666666664" stroke="#ef5350" stroke-width="2"/><rect x="76" y="245.33333333333007" width="8" height="8.000000000000227" fill="#ef5350"/><line x1="92" y1="217.99999999999886" x2="92" y2="301.3333333333321" stroke="#ef5350" stroke-width="2"/><rect x="88" y="256.6666666666681" width="8" height="43.33333333333189" fill="#ef5350"/><line x1="104" y1="230.00000000000296" x2="104" y2="323.33333333333485" stroke="#26a69a" stroke-width="2"/><rect x="100" y="241.99999999999977" width="8" height="58.66666666666629" fill="#26a69a"/><line x1="116" y1="103.99999999999636" x2="116" y2="240.0000000000016" stroke="#26a69a" stroke-width="2"/><rect x="112" y="136.66666666666356" width="8" height="103.33333333333803" fill="#26a69a"/><line x1="128" y1="59.99999999999841" x2="128" y2="175.33333333333303" stroke="#ef5350" stroke-width="2"/><rect x="124" y="135.9999999999975" width="8" height="17.999999999998863" fill="#ef5350"/><line x1="140" y1="135.33333333333144" x2="140" y2="179.3333333333369" stroke="#ef5350" stroke-width="2"/><rect x="136" y="152.66666666666424" width="8" height="21.333333333336668" fill="#ef5350"/><line x1="152" y1="99.33333333333394" x2="152" y2="174.0000000000009" stroke="#26a69a" stroke-width="2"/><rect x="148" y="163.33333333333644" width="8" height="8.000000000000227" fill="#26a69a"/><line x1="164" y1="159.9999999999984" x2="164" y2="230.00000000000296" stroke="#ef5350" stroke-width="2"/><rect x="160" y="164.0000000000025" width="8" height="59.99999999999841" fill="#ef5350"/><line x1="176" y1="216.66666666666674" x2="176" y2="393.33333333333184" stroke="#ef5350" stroke-width="2"/><rect x="172" y="228.66666666666333" width="8" height="150.66666666667362" fill="#ef5350"/><line x1="188" y1="375.33333333333303" x2="188" y2="461.33333333333064" stroke="#ef5350" stroke-width="2"/><rect x="184" y="378.66666666666333" width="8" height="45.33333333333758" fill="#ef5350"/><line x1="200" y1="416.0000000000006" x2="200" y2="574.666666666667" stroke="#ef5350" stroke-width="2"/><rect x="196" y="417.9999999999988" width="8" height="147.66666666666873" fill="#ef5350"/><line x1="212" y1="527.9999999999973" x2="212" y2="609.3333333333325" stroke="#26a69a" stroke-width="2"/><rect x="208" y="553.9999999999964" width="8" height="11.333333333338146" fill="#26a69a"/><line x1="224" y1="465.3333333333345" x2="224" y2="589.3333333333354" stroke="#26a69a" stroke-width="2"/><rect x="220" y="479.333333333337" width="8" height="76.66666666666515" fill="#26a69a"/><line x1="236" y1="440.6666666666676" x2="236" y2="508.00000000000034" stroke="#26a69a" stroke-width="2"/><rect x="232" y="453.3333333333303" width="8" height="25.33333333333303" fill="#26a69a"/><line x1="248" y1="375.33333333333303" x2="248" y2="464.0000000000024" stroke="#26a69a" stroke-width="2"/><rect x="244" y="409.3333333333324" width="8" height="41.999999999999716" fill="#26a69a"/><line x1="260" y1="392.6666666666658" x2="260" y2="496.6666666666697" stroke="#ef5350" stroke-width="2"/><rect x="256" y="408.3333333333333" width="8" height="85.66666666666453" fill="#ef5350"/><line x1="272" y1="491.3333333333336" x2="272" y2="632.6666666666673" stroke="#ef5350" stroke-width="2"/><rect x="268" y="492.6666666666657" width="8" height="82.66666666666731" fill="#ef5350"/><line x1="284" y1="551.3333333333321" x2="284" y2="762.6666666666703" stroke="#ef5350" stroke-width="2"/><rect x="280" y="574.666666666667" width="8" height="164.0000000000024" fill="#ef5350"/><line x1="296" y1="733.9999999999994" x2="296" y2="804.66666666667" stroke="#ef5350" stroke-width="2"/><rect x="292" y="737.3333333333297" width="8" height="39.33333333333542" fill="#ef5350"/><line x1="308" y1="755.3333333333361" x2="308" y2="822.6666666666688" stroke="#26a69a" stroke-width="2"/><rect x="304" y="759.3333333333325" width="8" height="22.00000000000273" fill="#26a69a"/><line x1="320" y1="727.9999999999973" x2="320" y2="864.6666666666684" stroke="#26a69a" stroke-width="2"/><rect x="316" y="730.6666666666691" width="8" height="32.00000000000114" fill="#26a69a"/><line x1="332" y1="688.0000000000034" x2="332" y2="806.6666666666682" stroke="#ef5350" stroke-width="2"/><rect x="328" y="732.0000000000013" width="8" height="46.66666666666208" fill="#ef5350"/><line x1="344" y1="705.333333333336" x2="344" y2="810.6666666666646" stroke="#26a69a" stroke-width="2"/><rect x="340" y="714.0000000000025" width="8" height="63.33333333332871" fill="#26a69a"/><line x1="356" y1="685.9999999999975" x2="356" y2="750.0" stroke="#ef5350" stroke-width="2"/><rect x="352" y="717.3333333333328" width="8" height="14.666666666668448" fill="#ef5350"/><line x1="368" y1="655.333333333336" x2="368" y2="750.6666666666661" stroke="#26a69a" stroke-width="2"/><rect x="364" y="669.333333333331" width="8" height="65.33333333333451" fill="#26a69a"/><line x1="380" y1="656.000000000002" x2="380" y2="727.3333333333312" stroke="#ef5350" stroke-width="2"/><rect x="376" y="666.6666666666667" width="8" height="54.666666666669926" fill="#ef5350"/><line x1="392" y1="714.0000000000025" x2="392" y2="757.3333333333343" stroke="#ef5350" stroke-width="2"/><rect x="388" y="721.3333333333367" width="8" height="28.666666666663332" fill="#ef5350"/><line x1="404" y1="726.6666666666652" x2="404" y2="774.0000000000009" stroke="#ef5350" stroke-width="2"/><rect x="400" y="751.9999999999982" width="8" height="17.33333333333269" fill="#ef5350"/><line x1="416" y1="746.6666666666697" x2="416" y2="850.0" stroke="#ef5350" stroke-width="2"/><rect x="412" y="760.6666666666646" width="8" height="73.33333333333485" fill="#ef5350"/><line x1="428" y1="784.7333333333305" x2="428" y2="833.9999999999994" stroke="#26a69a" stroke-width="2"/><rect x="424" y="785.9999999999976" width="8" height="43.3333333333394" fill="#26a69a"/><line x1="440" y1="778.6666666666633" x2="440" y2="827.9999999999973" stroke="#ef5350" stroke-width="2"/><rect x="436" y="790.6666666666675" width="8" height="22.00000000000273" fill="#ef5350"/><line x1="452" y1="756.6666666666682" x2="452" y2="808.0000000000003" stroke="#26a69a" stroke-width="2"/><rect x="448" y="780.0000000000031" width="8" height="27.99999999999727" fill="#26a69a"/><line x1="464" y1="690.6666666666677" x2="464" y2="782.6666666666673" stroke="#26a69a" stroke-width="2"/><rect x="460" y="702.6666666666642" width="8" height="76.66666666667277" fill="#26a69a"/><line x1="476" y1="688.6666666666695" x2="476" y2="724.666666666667" stroke="#ef5350" stroke-width="2"/><rect x="472" y="701.3333333333321" width="8" height="22.00000000000273" fill="#ef5350"/><line x1="488" y1="714.0000000000025" x2="488" y2="748.0000000000018" stroke="#ef5350" stroke-width="2"/><rect x="484" y="724.666666666667" width="8" height="5.400000000001114" fill="#ef5350"/><line x1="500" y1="716.6666666666667" x2="500" y2="756.6666666666682" stroke="#26a69a" stroke-width="2"/><rect x="496" y="716.6666666666667" width="8" height="16.66666666666663" fill="#26a69a"/><line x1="512" y1="695.3333333333301" x2="512" y2="742.6666666666657" stroke="#ef5350" stroke-width="2"/><rect x="508" y="717.9999999999989" width="8" height="15.333333333334508" fill="#ef5350"/><line x1="524" y1="718.6666666666649" x2="524" y2="756.6666666666682" stroke="#ef5350" stroke-width="2"/><rect x="520" y="733.3333333333334" width="8" height="9.333333333332348" fill="#ef5350"/><line x1="536" y1="719.333333333331" x2="536" y2="756.6666666666682" stroke="#26a69a" stroke-width="2"/><rect x="532" y="738.6666666666694" width="8" height="2" fill="#26a69a"/><line x1="548" y1="721.3333333333367" x2="548" y2="819.9999999999969" stroke="#ef5350" stroke-width="2"/><rect x="544" y="744.6666666666639" width="8" height="58.6666666666664" fill="#ef5350"/><line x1="560" y1="788.0000000000033" x2="560" y2="822.6666666666688" stroke="#26a69a" stroke-width="2"/><rect x="556" y="795.33333333333" width="8" height="8.000000000000341" fill="#26a69a"/><line x1="572" y1="774.666666666667" x2="572" y2="832.6666666666673" stroke="#ef5350" stroke-width="2"/><rect x="568" y="796.6666666666697" width="8" height="16.66666666666663" fill="#ef5350"/><line x1="584" y1="769.9999999999969" x2="584" y2="817.9999999999987" stroke="#26a69a" stroke-width="2"/><rect x="580" y="782.0000000000013" width="8" height="35.9999999999975" fill="#26a69a"/><line x1="596" y1="775.333333333333" x2="596" y2="822.0000000000027" stroke="#ef5350" stroke-width="2"/><rect x="592" y="784.6666666666655" width="8" height="19.33333333333087" fill="#ef5350"/><line x1="608" y1="783.9999999999994" x2="608" y2="829.333333333337" stroke="#ef5350" stroke-width="2"/><rect x="604" y="804.5999999999973" width="8" height="20.733333333335736" fill="#ef5350"/><line x1="620" y1="769.9999999999969" x2="620" y2="840.0000000000015" stroke="#26a69a" stroke-width="2"/><rect x="616" y="777.3333333333312" width="8" height="50.66666666666606" fill="#26a69a"/><line x1="632" y1="750.6666666666661" x2="632" y2="796.6666666666697" stroke="#ef5350" stroke-width="2"/><rect x="628" y="777.6666666666642" width="8" height="16.3333333333336" fill="#ef5350"/><line x1="644" y1="782.0000000000013" x2="644" y2="816.0000000000006" stroke="#ef5350" stroke-width="2"/><rect x="640" y="790.6666666666675" width="8" height="11.999999999996703" fill="#ef5350"/><line x1="656" y1="796.0000000000036" x2="656" y2="824.666666666667" stroke="#ef5350" stroke-width="2"/><rect x="652" y="800.0" width="8" height="14.666666666668448" fill="#ef5350"/><line x1="668" y1="777.6666666666642" x2="668" y2="824.0000000000009" stroke="#26a69a" stroke-width="2"/><rect x="664" y="796.6666666666697" width="8" height="16.66666666666663" fill="#26a69a"/><line x1="680" y1="790.0000000000015" x2="680" y2="817.9999999999987" stroke="#26a69a" stroke-width="2"/><rect x="676" y="790.6666666666675" width="8" height="9.333333333332462" fill="#26a69a"/><line x1="692" y1="772.0000000000027" x2="692" y2="877.9999999999973" stroke="#ef5350" stroke-width="2"/><rect x="688" y="790.0000000000015" width="8" height="83.99999999999943" fill="#ef5350"/><line x1="704" y1="857.3333333333343" x2="704" y2="906.6666666666682" stroke="#26a69a" stroke-width="2"/><rect x="700" y="863.3333333333363" width="8" height="11.333333333330643" fill="#26a69a"/><line x1="716" y1="859.3333333333325" x2="716" y2="895.33333333333" stroke="#ef5350" stroke-width="2"/><rect x="712" y="859.3333333333325" width="8" height="2" fill="#ef5350"/><line x1="728" y1="817.3333333333327" x2="728" y2="868.6666666666648" stroke="#26a69a" stroke-width="2"/><rect x="724" y="821.3333333333367" width="8" height="37.33333333332973" fill="#26a69a"/><line x1="740" y1="753.9999999999964" x2="740" y2="819.9999999999969" stroke="#26a69a" stroke-width="2"/><rect x="736" y="759.9999999999985" width="8" height="59.99999999999841" fill="#26a69a"/><line x1="752" y1="703.3333333333303" x2="752" y2="771.3333333333367" stroke="#26a69a" stroke-width="2"/><rect x="748" y="716.0000000000007" width="8" height="45.99999999999602" fill="#26a69a"/><line x1="764" y1="701.9999999999982" x2="764" y2="741.3333333333336" stroke="#ef5350" stroke-width="2"/><rect x="760" y="713.6666666666695" width="8" height="21.66666666666208" fill="#ef5350"/><line x1="776" y1="677.3333333333312" x2="776" y2="751.9999999999982" stroke="#26a69a" stroke-width="2"/><rect x="772" y="682.6666666666672" width="8" height="51.333333333332234" fill="#26a69a"/><line x1="788" y1="663.3333333333364" x2="788" y2="701.9999999999982" stroke="#26a69a" stroke-width="2"/><rect x="784" y="677.3333333333312" width="8" height="2.0000000000056843" fill="#26a69a"/><line x1="800" y1="623.3333333333348" x2="800" y2="679.3333333333369" stroke="#26a69a" stroke-width="2"/><rect x="796" y="631.3333333333352" width="8" height="45.99999999999602" fill="#26a69a"/><line x1="812" y1="613.3333333333363" x2="812" y2="652.6666666666642" stroke="#26a69a" stroke-width="2"/><rect x="808" y="625.9999999999991" width="8" height="4.666666666670039" fill="#26a69a"/><line x1="824" y1="603.3333333333303" x2="824" y2="640.6666666666675" stroke="#ef5350" stroke-width="2"/><rect x="820" y="627.9999999999973" width="8" height="10.000000000006025" fill="#ef5350"/><line x1="836" y1="624.666666666667" x2="836" y2="658.6666666666663" stroke="#ef5350" stroke-width="2"/><rect x="832" y="639.3333333333354" width="8" height="2" fill="#ef5350"/><line x1="848" y1="635.9999999999976" x2="848" y2="682.0000000000011" stroke="#ef5350" stroke-width="2"/><rect x="844" y="638.0000000000033" width="8" height="24.666666666667084" fill="#ef5350"/><line x1="860" y1="659.9999999999984" x2="860" y2="711.9999999999966" stroke="#ef5350" stroke-width="2"/><rect x="856" y="661.9999999999966" width="8" height="30.666666666669244" fill="#ef5350"/><line x1="872" y1="660.6666666666645" x2="872" y2="710.6666666666645" stroke="#26a69a" stroke-width="2"/><rect x="868" y="677.9999999999973" width="8" height="15.333333333334622" fill="#26a69a"/><line x1="884" y1="665.3333333333346" x2="884" y2="691.9999999999998" stroke="#26a69a" stroke-width="2"/><rect x="880" y="669.333333333331" width="8" height="6.666666666668107" fill="#26a69a"/><line x1="896" y1="638.0000000000033" x2="896" y2="669.999999999997" stroke="#26a69a" stroke-width="2"/><rect x="892" y="658.6666666666663" width="8" height="10.666666666664696" fill="#26a69a"/><line x1="908" y1="622.6666666666688" x2="908" y2="667.3333333333328" stroke="#26a69a" stroke-width="2"/><rect x="904" y="623.3333333333348" width="8" height="34.66666666666538" fill="#26a69a"/><line x1="920" y1="614.0000000000024" x2="920" y2="643.3333333333318" stroke="#ef5350" stroke-width="2"/><rect x="916" y="623.3333333333348" width="8" height="14.666666666668448" fill="#ef5350"/><line x1="932" y1="622.0000000000027" x2="932" y2="659.9999999999984" stroke="#ef5350" stroke-width="2"/><rect x="928" y="638.0000000000033" width="8" height="3.999999999996362" fill="#ef5350"/><line x1="944" y1="630.6666666666691" x2="944" y2="669.333333333331" stroke="#ef5350" stroke-width="2"/><rect x="940" y="643.3333333333318" width="8" height="23.333333333334963" fill="#ef5350"/><line x1="956" y1="640.0000000000015" x2="956" y2="670.6666666666631" stroke="#ef5350" stroke-width="2"/><rect x="952" y="667.3333333333328" width="8" height="2" fill="#ef5350"/><line x1="968" y1="668.6666666666649" x2="968" y2="705.333333333336" stroke="#ef5350" stroke-width="2"/><rect x="964" y="668.6666666666649" width="8" height="33.39999999999827" fill="#ef5350"/><line x1="980" y1="691.3333333333337" x2="980" y2="741.3333333333336" stroke="#ef5350" stroke-width="2"/><rect x="976" y="702.6666666666642" width="8" height="22.00000000000273" fill="#ef5350"/><line x1="992" y1="686.6666666666636" x2="992" y2="734.6666666666655" stroke="#ef5350" stroke-width="2"/><rect x="988" y="722.0000000000027" width="8" height="2.6666666666642413" fill="#ef5350"/><line x1="1004" y1="695.3333333333301" x2="1004" y2="750.0" stroke="#26a69a" stroke-width="2"/><rect x="1000" y="709.9999999999984" width="8" height="16.666666666666742" fill="#26a69a"/><line x1="1016" y1="251.33333333333212" x2="1016" y2="397.33333333333576" stroke="#ef5350" stroke-width="2"/><rect x="1012" y="296.6666666666697" width="8" height="88.6666666666618" fill="#ef5350"/><line x1="1028" y1="359.99999999999847" x2="1028" y2="447.33333333333576" stroke="#ef5350" stroke-width="2"/><rect x="1024" y="384.66666666666544" width="8" height="33.99999999999943" fill="#ef5350"/><line x1="1040" y1="348.0000000000018" x2="1040" y2="468.6666666666648" stroke="#26a69a" stroke-width="2"/><rect x="1036" y="365.33333333333456" width="8" height="51.99999999999818" fill="#26a69a"/><line x1="1052" y1="316.0000000000007" x2="1052" y2="431.33333333333513" stroke="#ef5350" stroke-width="2"/><rect x="1048" y="365.33333333333456" width="8" height="8.000000000000284" fill="#ef5350"/><line x1="1064" y1="330.666666666669" x2="1064" y2="409.99999999999847" stroke="#26a69a" stroke-width="2"/><rect x="1060" y="356.66666666666816" width="8" height="16.666666666666686" fill="#26a69a"/><line x1="1076" y1="333.9999999999993" x2="1076" y2="419.3333333333309" stroke="#ef5350" stroke-width="2"/><rect x="1072" y="361.3333333333306" width="8" height="14.666666666668505" fill="#ef5350"/><line x1="1088" y1="306.00000000000205" x2="1088" y2="421.33333333333667" stroke="#26a69a" stroke-width="2"/><rect x="1084" y="314.0000000000025" width="8" height="56.66666666666055" fill="#26a69a"/><line x1="1100" y1="286.66666666666356" x2="1100" y2="340.6666666666676" stroke="#26a69a" stroke-width="2"/><rect x="1096" y="293.3333333333319" width="8" height="14.666666666668334" fill="#26a69a"/><line x1="1112" y1="285.9999999999975" x2="1112" y2="328.66666666666333" stroke="#ef5350" stroke-width="2"/><rect x="1108" y="291.9999999999998" width="8" height="15.333333333334394" fill="#ef5350"/><line x1="1124" y1="269.99999999999704" x2="1124" y2="326.66666666666515" stroke="#26a69a" stroke-width="2"/><rect x="1120" y="272.00000000000273" width="8" height="30.666666666661513" fill="#26a69a"/><line x1="1136" y1="266.66666666666674" x2="1136" y2="306.00000000000205" stroke="#26a69a" stroke-width="2"/><rect x="1132" y="267.99999999999886" width="8" height="2" fill="#26a69a"/><line x1="1148" y1="234.66666666666538" x2="1148" y2="312.6666666666704" stroke="#26a69a" stroke-width="2"/><rect x="1144" y="252.66666666666424" width="8" height="17.333333333332803" fill="#26a69a"/><line x1="1160" y1="224.0000000000009" x2="1160" y2="259.9999999999984" stroke="#26a69a" stroke-width="2"/><rect x="1156" y="234.66666666666538" width="8" height="14.666666666668561" fill="#26a69a"/><line x1="1172" y1="228.66666666666333" x2="1172" y2="287.3333333333296" stroke="#ef5350" stroke-width="2"/><rect x="1168" y="234.66666666666538" width="8" height="46.6666666666697" fill="#ef5350"/><line x1="1184" y1="253.99999999999636" x2="1184" y2="308.6666666666663" stroke="#ef5350" stroke-width="2"/><rect x="1180" y="282.00000000000114" width="8" height="21.333333333329165" fill="#ef5350"/><line x1="1196" y1="269.333333333331" x2="1196" y2="303.3333333333303" stroke="#26a69a" stroke-width="2"/><rect x="1192" y="277.3333333333312" width="8" height="25.99999999999909" fill="#26a69a"/><line x1="1208" y1="261.33333333333053" x2="1208" y2="298.6666666666679" stroke="#ef5350" stroke-width="2"/><rect x="1204" y="278.66666666666333" width="8" height="7.333333333334167" fill="#ef5350"/><line x1="1220" y1="254.66666666666993" x2="1220" y2="301.9999999999982" stroke="#26a69a" stroke-width="2"/><rect x="1216" y="264.0000000000025" width="8" height="17.999999999998636" fill="#26a69a"/><line x1="1232" y1="249.33333333333394" x2="1232" y2="285.66666666666447" stroke="#26a69a" stroke-width="2"/><rect x="1228" y="258.0000000000002" width="8" height="6.666666666668334" fill="#26a69a"/><line x1="1244" y1="221.33333333333667" x2="1244" y2="267.99999999999886" stroke="#26a69a" stroke-width="2"/><rect x="1240" y="229.3333333333369" width="8" height="26.66666666666515" fill="#26a69a"/><line x1="1256" y1="214.0000000000025" x2="1256" y2="252.66666666666424" stroke="#ef5350" stroke-width="2"/><rect x="1252" y="228.66666666666333" width="8" height="23.33333333333485" fill="#ef5350"/><line x1="1268" y1="232.00000000000114" x2="1268" y2="258.6666666666663" stroke="#26a69a" stroke-width="2"/><rect x="1264" y="246.00000000000364" width="8" height="5.999999999994543" fill="#26a69a"/><line x1="1280" y1="227.3333333333312" x2="1280" y2="250.0" stroke="#26a69a" stroke-width="2"/><rect x="1276" y="230.00000000000296" width="8" height="15.333333333327118" fill="#26a69a"/><line x1="1292" y1="224.66666666666697" x2="1292" y2="239.33333333333553" stroke="#ef5350" stroke-width="2"/><rect x="1288" y="231.00000000000205" width="8" height="2.6666666666642413" fill="#ef5350"/><line x1="1304" y1="214.0000000000025" x2="1304" y2="246.00000000000364" stroke="#ef5350" stroke-width="2"/><rect x="1300" y="233.99999999999932" width="8" height="9.999999999998636" fill="#ef5350"/><line x1="1316" y1="220.6666666666631" x2="1316" y2="248.66666666666788" stroke="#26a69a" stroke-width="2"/><rect x="1312" y="232.00000000000114" width="8" height="11.999999999996817" fill="#26a69a"/><line x1="1328" y1="228.99999999999636" x2="1328" y2="267.3333333333328" stroke="#ef5350" stroke-width="2"/><rect x="1324" y="230.00000000000296" width="8" height="11.333333333330756" fill="#ef5350"/><line x1="1340" y1="199.33333333333394" x2="1340" y2="241.3333333333337" stroke="#26a69a" stroke-width="2"/><rect x="1336" y="205.333333333336" width="8" height="34.666666666665606" fill="#26a69a"/><line x1="1352" y1="197.33333333333576" x2="1352" y2="243.3333333333319" stroke="#ef5350" stroke-width="2"/><rect x="1348" y="205.333333333336" width="8" height="32.666666666667425" fill="#ef5350"/><line x1="1364" y1="236.66666666666356" x2="1364" y2="275.9999999999991" stroke="#ef5350" stroke-width="2"/><rect x="1360" y="237.33333333332962" width="8" height="37.33333333333735" fill="#ef5350"/><line x1="1376" y1="250.66666666666606" x2="1376" y2="282.00000000000114" stroke="#26a69a" stroke-width="2"/><rect x="1372" y="263.33333333333644" width="8" height="8.666666666666288" fill="#26a69a"/><line x1="1388" y1="257.33333333333417" x2="1388" y2="288.0000000000034" stroke="#ef5350" stroke-width="2"/><rect x="1384" y="264.0000000000025" width="8" height="16.000000000000455" fill="#ef5350"/><line x1="1400" y1="250.66666666666606" x2="1400" y2="296.00000000000364" stroke="#26a69a" stroke-width="2"/><rect x="1396" y="253.3333333333303" width="8" height="26.000000000006594" fill="#26a69a"/><line x1="1412" y1="251.33333333333212" x2="1412" y2="296.6666666666697" stroke="#ef5350" stroke-width="2"/><rect x="1408" y="252.66666666666424" width="8" height="36.00000000000523" fill="#ef5350"/><line x1="1424" y1="287.3333333333296" x2="1424" y2="323.33333333333485" stroke="#ef5350" stroke-width="2"/><rect x="1420" y="291.9999999999998" width="8" height="25.0" fill="#ef5350"/><line x1="1436" y1="316.66666666666674" x2="1436" y2="341.9999999999997" stroke="#ef5350" stroke-width="2"/><rect x="1432" y="319.99999999999704" width="8" height="3.333333333337805" fill="#ef5350"/><line x1="1448" y1="319.333333333331" x2="1448" y2="354.66666666667" stroke="#ef5350" stroke-width="2"/><rect x="1444" y="320.6666666666631" width="8" height="20.00000000000449" fill="#ef5350"/><line x1="1460" y1="315.3333333333346" x2="1460" y2="343.9999999999979" stroke="#26a69a" stroke-width="2"/><rect x="1456" y="322.6666666666688" width="8" height="18.666666666664867" fill="#26a69a"/><line x1="1472" y1="316.0000000000007" x2="1472" y2="347.33333333333576" stroke="#ef5350" stroke-width="2"/><rect x="1468" y="322.6666666666688" width="8" height="21.99999999999517" fill="#ef5350"/><line x1="1484" y1="309.9999999999984" x2="1484" y2="348.0000000000018" stroke="#26a69a" stroke-width="2"/><rect x="1480" y="322.6666666666688" width="8" height="22.66666666666123" fill="#26a69a"/><line x1="1496" y1="320.6666666666631" x2="1496" y2="346.6666666666697" stroke="#ef5350" stroke-width="2"/><rect x="1492" y="322.6666666666688" width="8" height="10.666666666664469" fill="#ef5350"/><line x1="1508" y1="317.99999999999886" x2="1508" y2="340.6666666666676" stroke="#26a69a" stroke-width="2"/><rect x="1504" y="324.0000000000009" width="8" height="9.999999999998408" fill="#26a69a"/><line x1="1520" y1="315.3333333333346" x2="1520" y2="336.66666666666356" stroke="#26a69a" stroke-width="2"/><rect x="1516" y="324.0000000000009" width="8" height="2" fill="#26a69a"/><line x1="1532" y1="324.66666666666697" x2="1532" y2="383.3333333333333" stroke="#ef5350" stroke-width="2"/><rect x="1528" y="326.66666666666515" width="8" height="35.333333333331495" fill="#ef5350"/><line x1="1544" y1="353.3333333333303" x2="1544" y2="377.99999999999727" stroke="#ef5350" stroke-width="2"/><rect x="1540" y="361.3333333333306" width="8" height="9.333333333332462" fill="#ef5350"/><line x1="1556" y1="370.66666666666305" x2="1556" y2="435.3333333333315" stroke="#ef5350" stroke-width="2"/><rect x="1552" y="370.66666666666305" width="8" height="30.666666666669073" fill="#ef5350"/><line x1="1568" y1="366.6666666666667" x2="1568" y2="419.999999999997" stroke="#26a69a" stroke-width="2"/><rect x="1564" y="367.33333333333275" width="8" height="35.333333333331495" fill="#26a69a"/><line x1="1580" y1="354.66666666667" x2="1580" y2="380.000000000003" stroke="#26a69a" stroke-width="2"/><rect x="1576" y="357.3333333333342" width="8" height="9.999999999998522" fill="#26a69a"/><line x1="1592" y1="341.33333333333366" x2="1592" y2="364.00000000000244" stroke="#26a69a" stroke-width="2"/><rect x="1588" y="352.66666666666424" width="8" height="5.333333333336043" fill="#26a69a"/><line x1="1604" y1="350.0" x2="1604" y2="383.3333333333333" stroke="#ef5350" stroke-width="2"/><rect x="1600" y="353.99999999999636" width="8" height="2" fill="#ef5350"/><line x1="1616" y1="333.9999999999993" x2="1616" y2="358.66666666666634" stroke="#26a69a" stroke-width="2"/><rect x="1612" y="336.66666666666356" width="8" height="18.000000000006423" fill="#26a69a"/><line x1="1628" y1="325.33333333333303" x2="1628" y2="338.6666666666694" stroke="#ef5350" stroke-width="2"/><rect x="1624" y="335.9999999999975" width="8" height="2.666666666671915" fill="#ef5350"/><line x1="1640" y1="339.3333333333355" x2="1640" y2="352.66666666666424" stroke="#ef5350" stroke-width="2"/><rect x="1636" y="339.3333333333355" width="8" height="8.000000000000284" fill="#ef5350"/><line x1="1652" y1="341.9999999999997" x2="1652" y2="356.0000000000021" stroke="#26a69a" stroke-width="2"/><rect x="1648" y="345.33333333333" width="8" height="2.000000000005741" fill="#26a69a"/><line x1="1664" y1="336.66666666666356" x2="1664" y2="348.6666666666679" stroke="#26a69a" stroke-width="2"/><rect x="1660" y="340.6666666666676" width="8" height="3.3333333333303017" fill="#26a69a"/><line x1="1676" y1="341.0000000000006" x2="1676" y2="363.3333333333364" stroke="#ef5350" stroke-width="2"/><rect x="1672" y="341.33333333333366" width="8" height="14.000000000002387" fill="#ef5350"/><line x1="1688" y1="356.0000000000021" x2="1688" y2="378.66666666666333" stroke="#ef5350" stroke-width="2"/><rect x="1684" y="356.0000000000021" width="8" height="8.000000000000341" fill="#ef5350"/><line x1="1700" y1="360.6666666666645" x2="1700" y2="373.33333333333485" stroke="#ef5350" stroke-width="2"/><rect x="1696" y="364.00000000000244" width="8" height="3.3333333333303017" fill="#ef5350"/><line x1="1712" y1="364.00000000000244" x2="1712" y2="379.33333333333695" stroke="#ef5350" stroke-width="2"/><rect x="1708" y="366.0000000000006" width="8" height="11.999999999996646" fill="#ef5350"/><line x1="1724" y1="368.66666666666487" x2="1724" y2="392.6666666666658" stroke="#ef5350" stroke-width="2"/><rect x="1720" y="377.99999999999727" width="8" height="12.000000000004263" fill="#ef5350"/><line x1="1736" y1="382.0000000000012" x2="1736" y2="396.00000000000364" stroke="#26a69a" stroke-width="2"/><rect x="1732" y="389.3333333333355" width="8" height="2" fill="#26a69a"/><line x1="1748" y1="385.99999999999756" x2="1748" y2="423.33333333333485" stroke="#ef5350" stroke-width="2"/><rect x="1744" y="388.6666666666694" width="8" height="24.00000000000091" fill="#ef5350"/><line x1="1760" y1="412.6666666666703" x2="1760" y2="447.6666666666688" stroke="#ef5350" stroke-width="2"/><rect x="1756" y="412.6666666666703" width="8" height="13.333333333328767" fill="#ef5350"/><line x1="1772" y1="391.9999999999997" x2="1772" y2="426.66666666666515" stroke="#26a69a" stroke-width="2"/><rect x="1768" y="404.66666666667" width="8" height="21.99999999999517" fill="#26a69a"/><line x1="1784" y1="403.99999999999636" x2="1784" y2="420.66666666666305" stroke="#ef5350" stroke-width="2"/><rect x="1780" y="404.66666666667" width="8" height="4.666666666662422" fill="#ef5350"/><line x1="1796" y1="386.99999999999665" x2="1796" y2="411.3333333333306" stroke="#26a69a" stroke-width="2"/><rect x="1792" y="402.66666666666424" width="8" height="4.6666666666699825" fill="#26a69a"/><line x1="1808" y1="401.3333333333321" x2="1808" y2="419.999999999997" stroke="#ef5350" stroke-width="2"/><rect x="1804" y="403.3333333333303" width="8" height="9.333333333340022" fill="#ef5350"/><line x1="1820" y1="376.66666666666515" x2="1820" y2="417.33333333333275" stroke="#26a69a" stroke-width="2"/><rect x="1816" y="379.33333333333695" width="8" height="31.333333333327573" fill="#26a69a"/><line x1="1832" y1="361.3333333333306" x2="1832" y2="381.33333333333513" stroke="#26a69a" stroke-width="2"/><rect x="1828" y="366.0000000000006" width="8" height="11.999999999996646" fill="#26a69a"/><line x1="1844" y1="358.66666666666634" x2="1844" y2="373.33333333333485" stroke="#ef5350" stroke-width="2"/><rect x="1840" y="365.33333333333456" width="8" height="5.333333333328483" fill="#ef5350"/><line x1="1856" y1="366.6666666666667" x2="1856" y2="378.66666666666333" stroke="#26a69a" stroke-width="2"/><rect x="1852" y="367.9999999999988" width="8" height="3.333333333337862" fill="#26a69a"/><line x1="1868" y1="363.3333333333364" x2="1868" y2="375.33333333333303" stroke="#26a69a" stroke-width="2"/><rect x="1864" y="366.6666666666667" width="8" height="2" fill="#26a69a"/><line x1="1880" y1="359.3333333333324" x2="1880" y2="382.0000000000012" stroke="#ef5350" stroke-width="2"/><rect x="1876" y="366.0000000000006" width="8" height="6.6666666666681635" fill="#ef5350"/><line x1="1892" y1="361.3333333333306" x2="1892" y2="370.66666666666305" stroke="#26a69a" stroke-width="2"/><rect x="1888" y="364.6666666666685" width="8" height="5.333333333328483" fill="#26a69a"/><line x1="1904" y1="361.99999999999665" x2="1904" y2="376.66666666666515" stroke="#26a69a" stroke-width="2"/><rect x="1900" y="365.33333333333456" width="8" height="2" fill="#26a69a"/><line x1="1916" y1="345.33333333333" x2="1916" y2="367.9999999999988" stroke="#26a69a" stroke-width="2"/><rect x="1912" y="353.99999999999636" width="8" height="13.333333333336384" fill="#26a69a"/><line x1="1928" y1="345.33333333333" x2="1928" y2="414.6666666666685" stroke="#ef5350" stroke-width="2"/><rect x="1924" y="350.0" width="8" height="60.666666666664526" fill="#ef5350"/><line x1="1940" y1="383.9999999999994" x2="1940" y2="418.66666666666487" stroke="#26a69a" stroke-width="2"/><rect x="1936" y="385.3333333333315" width="8" height="25.33333333333303" fill="#26a69a"/><rect x="75" y="886.1845770745443" width="10" height="133.81542292545566" fill="#ef5350" opacity="0.9"/><rect x="87" y="957.2430430992154" width="10" height="62.756956900784644" fill="#ef5350" opacity="0.9"/><rect x="99" y="968.271747517361" width="10" height="51.72825248263905" fill="#26a69a" opacity="0.9"/><rect x="111" y="915.364103694648" width="10" height="104.63589630535205" fill="#26a69a" opacity="0.9"/><rect x="123" y="944.3053871514035" width="10" height="75.69461284859653" fill="#ef5350" opacity="0.9"/><rect x="135" y="987.8358702514205" width="10" height="32.16412974857951" fill="#ef5350" opacity="0.9"/><rect x="147" y="962.0747948252883" width="10" height="57.925205174711664" fill="#26a69a" opacity="0.9"/><rect x="159" y="980.0069143126271" width="10" height="39.993085687372854" fill="#ef5350" opacity="0.9"/><rect x="171" y="935.9698826571002" width="10" height="84.03011734289976" fill="#ef5350" opacity="0.9"/><rect x="183" y="950.5448027416753" width="10" height="69.45519725832469" fill="#ef5350" opacity="0.9"/><rect x="195" y="941.3420029460984" width="10" height="78.65799705390157" fill="#ef5350" opacity="0.9"/><rect x="207" y="964.9682843486016" width="10" height="55.03171565139837" fill="#26a69a" opacity="0.9"/><rect x="219" y="957.7161474251701" width="10" height="62.28385257482989" fill="#26a69a" opacity="0.9"/><rect x="231" y="989.9330864890323" width="10" height="30.06691351096765" fill="#26a69a" opacity="0.9"/><rect x="243" y="965.176465283136" width="10" height="54.823534716863946" fill="#26a69a" opacity="0.9"/><rect x="255" y="975.3266010642029" width="10" height="44.67339893579708" fill="#ef5350" opacity="0.9"/><rect x="267" y="971.1347990340004" width="10" height="48.865200965999634" fill="#ef5350" opacity="0.9"/><rect x="279" y="961.9203501247582" width="10" height="58.079649875241785" fill="#ef5350" opacity="0.9"/><rect x="291" y="964.5774753740243" width="10" height="55.42252462597571" fill="#ef5350" opacity="0.9"/><rect x="303" y="970.9878698906737" width="10" height="49.012130109326336" fill="#26a69a" opacity="0.9"/><rect x="315" y="959.079845279729" width="10" height="60.92015472027094" fill="#26a69a" opacity="0.9"/><rect x="327" y="966.8839998797511" width="10" height="53.11600012024894" fill="#ef5350" opacity="0.9"/><rect x="339" y="991.5707264036556" width="10" height="28.429273596344387" fill="#26a69a" opacity="0.9"/><rect x="351" y="988.2454681190063" width="10" height="31.75453188099368" fill="#ef5350" opacity="0.9"/><rect x="363" y="989.3382301363823" width="10" height="30.66176986361768" fill="#26a69a" opacity="0.9"/><rect x="375" y="989.9067820388203" width="10" height="30.093217961179676" fill="#ef5350" opacity="0.9"/><rect x="387" y="997.4020472377822" width="10" height="22.5979527622178" fill="#ef5350" opacity="0.9"/><rect x="399" y="995.7313388714639" width="10" height="24.26866112853611" fill="#ef5350" opacity="0.9"/><rect x="411" y="990.3351687994148" width="10" height="29.66483120058524" fill="#ef5350" opacity="0.9"/><rect x="423" y="994.4420450332187" width="10" height="25.557954966781267" fill="#26a69a" opacity="0.9"/><rect x="435" y="1001.9560991251891" width="10" height="18.0439008748109" fill="#ef5350" opacity="0.9"/><rect x="447" y="994.1237611856543" width="10" height="25.876238814345697" fill="#26a69a" opacity="0.9"/><rect x="459" y="993.1042758510116" width="10" height="26.895724148988393" fill="#26a69a" opacity="0.9"/><rect x="471" y="996.2792229915926" width="10" height="23.720777008407367" fill="#ef5350" opacity="0.9"/><rect x="483" y="1001.1105989398054" width="10" height="18.889401060194587" fill="#ef5350" opacity="0.9"/><rect x="495" y="996.1495796298337" width="10" height="23.850420370166262" fill="#26a69a" opacity="0.9"/><rect x="507" y="996.341977894241" width="10" height="23.65802210575896" fill="#ef5350" opacity="0.9"/><rect x="519" y="1003.3070205325023" width="10" height="16.692979467497707" fill="#ef5350" opacity="0.9"/><rect x="531" y="1006.2651438477649" width="10" height="13.734856152235125" fill="#26a69a" opacity="0.9"/><rect x="543" y="990.67712665217" width="10" height="29.322873347829955" fill="#ef5350" opacity="0.9"/><rect x="555" y="998.9096680127865" width="10" height="21.090331987213517" fill="#26a69a" opacity="0.9"/><rect x="567" y="995.949665808223" width="10" height="24.050334191776983" fill="#ef5350" opacity="0.9"/><rect x="579" y="1002.3307496517792" width="10" height="17.66925034822077" fill="#26a69a" opacity="0.9"/><rect x="591" y="1002.7294499614202" width="10" height="17.270550038579813" fill="#ef5350" opacity="0.9"/><rect x="603" y="1003.3893158838796" width="10" height="16.61068411612041" fill="#ef5350" opacity="0.9"/><rect x="615" y="999.3282845490164" width="10" height="20.671715450983584" fill="#26a69a" opacity="0.9"/><rect x="627" y="1004.985244456024" width="10" height="15.01475554397598" fill="#ef5350" opacity="0.9"/><rect x="639" y="1004.7383584018919" width="10" height="15.261641598108099" fill="#ef5350" opacity="0.9"/><rect x="651" y="1005.4688705620634" width="10" height="14.531129437936556" fill="#ef5350" opacity="0.9"/><rect x="663" y="1003.3246820919303" width="10" height="16.6753179080697" fill="#26a69a" opacity="0.9"/><rect x="675" y="1001.2244596314371" width="10" height="18.77554036856293" fill="#26a69a" opacity="0.9"/><rect x="687" y="990.7620524485685" width="10" height="29.23794755143149" fill="#ef5350" opacity="0.9"/><rect x="699" y="992.9479522611806" width="10" height="27.052047738819397" fill="#26a69a" opacity="0.9"/><rect x="711" y="996.6689046325895" width="10" height="23.331095367410512" fill="#ef5350" opacity="0.9"/><rect x="723" y="995.9797280370367" width="10" height="24.020271962963307" fill="#26a69a" opacity="0.9"/><rect x="735" y="980.9925796398545" width="10" height="39.00742036014549" fill="#26a69a" opacity="0.9"/><rect x="747" y="990.163814095177" width="10" height="29.83618590482297" fill="#26a69a" opacity="0.9"/><rect x="759" y="998.152851402403" width="10" height="21.84714859759697" fill="#ef5350" opacity="0.9"/><rect x="771" y="995.9267433587527" width="10" height="24.073256641247326" fill="#26a69a" opacity="0.9"/><rect x="783" y="996.8590482298357" width="10" height="23.140951770164293" fill="#26a69a" opacity="0.9"/><rect x="795" y="939.4555980880423" width="10" height="80.54440191195772" fill="#26a69a" opacity="0.9"/><rect x="807" y="989.2525527842635" width="10" height="30.747447215736543" fill="#26a69a" opacity="0.9"/><rect x="819" y="993.4011403605464" width="10" height="26.59885963945362" fill="#ef5350" opacity="0.9"/><rect x="831" y="992.223828324632" width="10" height="27.776171675368005" fill="#ef5350" opacity="0.9"/><rect x="843" y="988.9290080466566" width="10" height="31.070991953343423" fill="#ef5350" opacity="0.9"/><rect x="855" y="987.3221819165673" width="10" height="32.677818083432726" fill="#ef5350" opacity="0.9"/><rect x="867" y="1002.2074945136433" width="10" height="17.79250548635673" fill="#26a69a" opacity="0.9"/><rect x="879" y="1000.7667621977494" width="10" height="19.233237802250642" fill="#26a69a" opacity="0.9"/><rect x="891" y="995.6449099636247" width="10" height="24.35509003637526" fill="#26a69a" opacity="0.9"/><rect x="903" y="1005.1641147174652" width="10" height="14.835885282534832" fill="#26a69a" opacity="0.9"/><rect x="915" y="995.3856232401071" width="10" height="24.614376759892934" fill="#ef5350" opacity="0.9"/><rect x="927" y="1005.9374655536961" width="10" height="14.062534446303857" fill="#ef5350" opacity="0.9"/><rect x="939" y="998.9960969206257" width="10" height="21.003903079374254" fill="#ef5350" opacity="0.9"/><rect x="951" y="997.7718126521901" width="10" height="22.22818734780992" fill="#ef5350" opacity="0.9"/><rect x="963" y="989.941353601956" width="10" height="30.058646398043948" fill="#ef5350" opacity="0.9"/><rect x="975" y="971.8581714148287" width="10" height="48.14182858517131" fill="#ef5350" opacity="0.9"/><rect x="987" y="961.0680859378914" width="10" height="58.9319140621086" fill="#ef5350" opacity="0.9"/><rect x="999" y="864.0798202278717" width="10" height="155.92017977212834" fill="#26a69a" opacity="0.9"/><rect x="1011" y="860.160832924153" width="10" height="159.83916707584694" fill="#ef5350" opacity="0.9"/><rect x="1023" y="938.3012085015984" width="10" height="81.69879149840165" fill="#ef5350" opacity="0.9"/><rect x="1035" y="951.6187758660427" width="10" height="68.38122413395729" fill="#26a69a" opacity="0.9"/><rect x="1047" y="950.458373833836" width="10" height="69.54162616616395" fill="#ef5350" opacity="0.9"/><rect x="1059" y="976.0334392191837" width="10" height="43.96656078081628" fill="#26a69a" opacity="0.9"/><rect x="1071" y="974.9831401000071" width="10" height="45.01685989999294" fill="#ef5350" opacity="0.9"/><rect x="1083" y="968.4201797721283" width="10" height="51.579820227871664" fill="#26a69a" opacity="0.9"/><rect x="1095" y="975.3006723918511" width="10" height="44.699327608148906" fill="#26a69a" opacity="0.9"/><rect x="1107" y="987.9219233813994" width="10" height="32.07807661860056" fill="#ef5350" opacity="0.9"/><rect x="1119" y="971.3444830799756" width="10" height="48.65551692002441" fill="#26a69a" opacity="0.9"/><rect x="1131" y="987.0429789664606" width="10" height="32.95702103353938" fill="#26a69a" opacity="0.9"/><rect x="1143" y="954.6362720832122" width="10" height="65.36372791678775" fill="#26a69a" opacity="0.9"/><rect x="1155" y="970.7334682793382" width="10" height="49.26653172066176" fill="#26a69a" opacity="0.9"/><rect x="1167" y="988.7279668914654" width="10" height="31.27203310853463" fill="#ef5350" opacity="0.9"/><rect x="1179" y="993.8911546902087" width="10" height="26.108845309791263" fill="#ef5350" opacity="0.9"/><rect x="1191" y="1004.2731454110008" width="10" height="15.726854588999231" fill="#26a69a" opacity="0.9"/><rect x="1203" y="994.9042518012285" width="10" height="25.095748198771503" fill="#ef5350" opacity="0.9"/><rect x="1215" y="996.9796729229505" width="10" height="23.0203270770495" fill="#26a69a" opacity="0.9"/><rect x="1227" y="993.7761666649966" width="10" height="26.223833335003405" fill="#26a69a" opacity="0.9"/><rect x="1239" y="992.2422414397804" width="10" height="27.7577585602196" fill="#26a69a" opacity="0.9"/><rect x="1251" y="983.835714929905" width="10" height="36.16428507009505" fill="#ef5350" opacity="0.9"/><rect x="1263" y="989.3254536891366" width="10" height="30.674546310863434" fill="#26a69a" opacity="0.9"/><rect x="1275" y="993.7427224354414" width="10" height="26.25727756455865" fill="#26a69a" opacity="0.9"/><rect x="1287" y="993.4199292535549" width="10" height="26.58007074644513" fill="#ef5350" opacity="0.9"/><rect x="1299" y="986.4530077259928" width="10" height="33.54699227400715" fill="#ef5350" opacity="0.9"/><rect x="1311" y="988.4183259346848" width="10" height="31.581674065315156" fill="#26a69a" opacity="0.9"/><rect x="1323" y="993.2098694297196" width="10" height="26.79013057028044" fill="#ef5350" opacity="0.9"/><rect x="1335" y="989.0503842954917" width="10" height="30.949615704508346" fill="#26a69a" opacity="0.9"/><rect x="1347" y="978.7251360315854" width="10" height="41.27486396841459" fill="#ef5350" opacity="0.9"/><rect x="1359" y="985.115990099506" width="10" height="34.88400990049399" fill="#ef5350" opacity="0.9"/><rect x="1371" y="992.2155612117083" width="10" height="27.78443878829171" fill="#26a69a" opacity="0.9"/><rect x="1383" y="1000.1275640575992" width="10" height="19.872435942400784" fill="#ef5350" opacity="0.9"/><rect x="1395" y="995.3115950016535" width="10" height="24.688404998346527" fill="#26a69a" opacity="0.9"/><rect x="1407" y="999.3936698966861" width="10" height="20.606330103313894" fill="#ef5350" opacity="0.9"/><rect x="1419" y="995.359318789895" width="10" height="24.640681210104958" fill="#ef5350" opacity="0.9"/><rect x="1431" y="987.3856883749361" width="10" height="32.61431162506392" fill="#ef5350" opacity="0.9"/><rect x="1443" y="998.2817432084415" width="10" height="21.718256791558474" fill="#ef5350" opacity="0.9"/><rect x="1455" y="997.7868437665968" width="10" height="22.213156233403197" fill="#26a69a" opacity="0.9"/><rect x="1467" y="994.770850660868" width="10" height="25.22914933913205" fill="#ef5350" opacity="0.9"/><rect x="1479" y="1000.814485985991" width="10" height="19.18551401400896" fill="#26a69a" opacity="0.9"/><rect x="1491" y="996.1101229545159" width="10" height="23.889877045484127" fill="#ef5350" opacity="0.9"/><rect x="1503" y="1003.8237150902368" width="10" height="16.17628490976324" fill="#26a69a" opacity="0.9"/><rect x="1515" y="1002.8669846582426" width="10" height="17.133015341757414" fill="#26a69a" opacity="0.9"/><rect x="1527" y="989.7444460032267" width="10" height="30.2555539967733" fill="#ef5350" opacity="0.9"/><rect x="1539" y="992.4695870451835" width="10" height="27.530412954816484" fill="#ef5350" opacity="0.9"/><rect x="1551" y="958.9836461475254" width="10" height="61.016353852474595" fill="#ef5350" opacity="0.9"/><rect x="1563" y="979.4639153046807" width="10" height="40.536084695319346" fill="#26a69a" opacity="0.9"/><rect x="1575" y="991.9780696040805" width="10" height="28.021930395919526" fill="#26a69a" opacity="0.9"/><rect x="1587" y="994.4153648051466" width="10" height="25.584635194853377" fill="#26a69a" opacity="0.9"/><rect x="1599" y="997.2678945417014" width="10" height="22.732105458298633" fill="#ef5350" opacity="0.9"/><rect x="1611" y="996.1634834106601" width="10" height="23.836516589339908" fill="#26a69a" opacity="0.9"/><rect x="1623" y="990.2543765594781" width="10" height="29.745623440521854" fill="#ef5350" opacity="0.9"/><rect x="1635" y="989.7722535648793" width="10" height="30.227746435120707" fill="#ef5350" opacity="0.9"/><rect x="1647" y="995.9072029100238" width="10" height="24.092797089976216" fill="#26a69a" opacity="0.9"/><rect x="1659" y="1000.7622528634273" width="10" height="19.237747136572693" fill="#26a69a" opacity="0.9"/><rect x="1671" y="1000.1053931638492" width="10" height="19.894606836150842" fill="#ef5350" opacity="0.9"/><rect x="1683" y="996.8289860010221" width="10" height="23.171013998977855" fill="#ef5350" opacity="0.9"/><rect x="1695" y="1002.7170492920345" width="10" height="17.282950707965483" fill="#ef5350" opacity="0.9"/><rect x="1707" y="998.7819035403285" width="10" height="21.21809645967153" fill="#ef5350" opacity="0.9"/><rect x="1719" y="984.9296042808613" width="10" height="35.07039571913867" fill="#ef5350" opacity="0.9"/><rect x="1731" y="994.9106400248514" width="10" height="25.089359975148568" fill="#26a69a" opacity="0.9"/><rect x="1743" y="982.5321415329732" width="10" height="37.46785846702676" fill="#ef5350" opacity="0.9"/><rect x="1755" y="976.1052127904763" width="10" height="43.894787209523656" fill="#ef5350" opacity="0.9"/><rect x="1767" y="986.84344092271" width="10" height="33.15655907729001" fill="#26a69a" opacity="0.9"/><rect x="1779" y="997.9555680258135" width="10" height="22.044431974186523" fill="#ef5350" opacity="0.9"/><rect x="1791" y="993.5157526078983" width="10" height="26.48424739210168" fill="#26a69a" opacity="0.9"/><rect x="1803" y="994.2684356618199" width="10" height="25.73156433818008" fill="#ef5350" opacity="0.9"/><rect x="1815" y="988.0004609541752" width="10" height="31.999539045824804" fill="#26a69a" opacity="0.9"/><rect x="1827" y="984.7383333500346" width="10" height="35.26166664996538" fill="#26a69a" opacity="0.9"/><rect x="1839" y="1000.5574539296343" width="10" height="19.442546070365665" fill="#ef5350" opacity="0.9"/><rect x="1851" y="1002.0068291363121" width="10" height="17.99317086368785" fill="#26a69a" opacity="0.9"/><rect x="1863" y="999.893454450713" width="10" height="20.106545549287034" fill="#26a69a" opacity="0.9"/><rect x="1875" y="987.5848506408265" width="10" height="32.41514935917348" fill="#ef5350" opacity="0.9"/><rect x="1887" y="998.7574779794174" width="10" height="21.242522020582555" fill="#26a69a" opacity="0.9"/><rect x="1899" y="995.1605323018648" width="10" height="24.839467698135195" fill="#26a69a" opacity="0.9"/><rect x="1911" y="984.2858968063892" width="10" height="35.714103193610754" fill="#26a69a" opacity="0.9"/><rect x="1923" y="956.4478971470945" width="10" height="63.55210285290548" fill="#ef5350" opacity="0.9"/><rect x="1935" y="860.0" width="10" height="160.0" fill="#26a69a" opacity="0.9"/><rect x="1004" y="296.6666666666697" width="12" height="413.3333333333287" fill="#00ff00" opacity="0.60"/><polyline points="320,443.0880952380903,332,475.04795918366653,344,497.80529640426414,356,520.1095538895743,368,534.321342408028,380,552.132008210439,392,570.9765788570621,404,589.8676983309921,416,613.1183937280412,428,629.5833086110785,440,647.0198189020872,452,659.6845980542714,464,663.7781283983106,476,669.4500526778331,488,675.2230635339174,500,679.1700733560826,512,684.3284790681992,524,689.8844969347163,536,694.5304178615668,548,704.8926002874471,560,713.506003434668,572,723.0133681869196,584,728.6311426453116,596,735.8091290600441,608,744.3352437527361,620,747.4779189508885,632,751.9085933365204,644,756.7426955584324,656,762.2592642354069,668,765.5361597050538,680,767.9295413204424,692,778.0314897661204,704,786.1554748677614,716,793.1565407533753,728,795.8400448086119,740,792.4267072077934,752,785.147973188009,764,780.4037217732761,776,771.0954308107375,788,762.165707241464,800,749.7054811549788,812,737.9240067592642,824,728.4074346869526,836,719.9876790024821,848,714.5285349705016,860,712.446452274897,872,709.1658377725253,884,705.3722659211719,896,700.9241136112148,908,693.5345154895078,920,688.245514014314,932,683.8411793462835,944,682.2055114720342,956,680.8526056175576,968,682.8729923841365,980,686.8533423158094,992,690.4546113016067,1004,692.3160768919313,1016,663.0796251244419,1028,639.8022005094163,1040,613.6623083974124,1052,590.773834581781,1064,568.4779138279586,1076,550.1466839395789,1088,527.6565235643753,1100,505.340029256657,1112,486.4822486925277,1124,466.0553678646693,1136,447.19295187755205,1148,428.66663900032717,1160,410.19045115902674,1172,397.918344699436,1184,388.91024837885954,1196,378.2838755173846,1208,369.49493499191703,1220,359.44779832602006,1232,349.78610324735655,1244,338.31441087459854,1256,330.09399079130617,1268,322.0850392873747,1280,313.31503554571714,1292,305.72947660485465,1304,299.8504788329608,1316,293.3885284679111,1328,288.4308908360481,1340,280.5168377405532,1352,276.4676150985981,1364,276.29609620031874,1376,275.061547355843,1388,275.53187617909316,1400,273.41772924140355,1412,274.8700089961933,1424,278.8823890917911,1436,283.1158123528894,1448,288.59684609705414,1460,291.8415909132136,1472,296.8725505087757,1484,299.32913300000723,1496,302.56762826984414,1508,304.60880652985907,1520,306.4555868603445,1532,311.7455309688846,1544,317.3570677020127,1556,325.35480728595303,1568,329.3527621476112,1580,332.0175784510109,1592,333.9841582810702,1604,336.0174130479511,1616,336.0792467259291,1628,336.3256676726678,1640,337.3740167832011,1652,338.1320469308321,1664,338.3734392866245,1676,339.9886672910725,1688,342.2754608823955,1700,344.66192492534447,1712,347.8369796943601,1724,351.8525054377581,1736,355.4221080944823,1748,360.87397081563876,1760,367.07644978558466,1772,370.65647044092503,1784,374.33998119258075,1796,377.03776076154253,1808,380.43098989536094,1820,380.32645117516495,1832,378.9620272537225,1844,378.1719929120982,1856,377.2032316823773,1868,376.1997492999247,1880,375.8632652396197,1892,374.79692251838514,1904,373.895628310288,1916,372.00080656645395,1928,375.6832694331403,1940,376.60232313791465" fill="none" stroke="#0090ff" stroke-width="2"/><line x1="80" y1="50" x2="80" y2="900" stroke="#666666" stroke-width="0.5" stroke-dasharray="4,4" opacity="0.90"/><line x1="152" y1="50" x2="152" y2="900" stroke="#666666" stroke-width="0.5" stroke-dasharray="4,4" opacity="0.90"/><line x1="224" y1="50" x2="224" y2="900" stroke="#666666" stroke-width="0.5" stroke-dasharray="4,4" opacity="0.90"/><line x1="296" y1="50" x2="296" y2="900" stroke="#666666" stroke-width="0.5" stroke-dasharray="4,4" opacity="0.90"/><line x1="368" y1="50" x2="368" y2="900" stroke="#666666" stroke-width="0.5" stroke-dasharray="4,4" opacity="0.90"/><line x1="440" y1="50" x2="440" y2="900" stroke="#666666" stroke-width="0.5" stroke-dasharray="4,4" opacity="0.90"/><line x1="512" y1="50" x2="512" y2="900" stroke="#666666" stroke-width="0.5" stroke-dasharray="4,4" opacity="0.90"/><line x1="584" y1="50" x2="584" y2="900" stroke="#666666" stroke-width="0.5" stroke-dasharray="4,4" opacity="0.90"/><line x1="656" y1="50" x2="656" y2="900" stroke="#666666" stroke-width="0.5" stroke-dasharray="4,4" opacity="0.90"/><line x1="728" y1="50" x2="728" y2="900" stroke="#666666" stroke-width="0.5" stroke-dasharray="4,4" opacity="0.90"/><line x1="800" y1="50" x2="800" y2="900" stroke="#666666" stroke-width="0.5" stroke-dasharray="4,4" opacity="0.90"/><line x1="872" y1="50" x2="872" y2="900" stroke="#666666" stroke-width="0.5" stroke-dasharray="4,4" opacity="0.90"/><line x1="944" y1="50" x2="944" y2="900" stroke="#666666" stroke-width="0.5" stroke-dasharray="4,4" opacity="0.90"/><line x1="1010" y1="30" x2="1010" y2="950" stroke="black" stroke-width="0.7"/><line x1="1016" y1="50" x2="1016" y2="900" stroke="#666666" stroke-width="0.5" stroke-dasharray="4,4" opacity="0.90"/><line x1="1088" y1="50" x2="1088" y2="900" stroke="#666666" stroke-width="0.5" stroke-dasharray="4,4" opacity="0.90"/><line x1="1160" y1="50" x2="1160" y2="900" stroke="#666666" stroke-width="0.5" stroke-dasharray="4,4" opacity="0.90"/><line x1="1232" y1="50" x2="1232" y2="900" stroke="#666666" stroke-width="0.5" stroke-dasharray="4,4" opacity="0.90"/><line x1="1304" y1="50" x2="1304" y2="900" stroke="#666666" stroke-width="0.5" stroke-dasharray="4,4" opacity="0.90"/><line x1="1376" y1="50" x2="1376" y2="900" stroke="#666666" stroke-width="0.5" stroke-dasharray="4,4" opacity="0.90"/><line x1="1448" y1="50" x2="1448" y2="900" stroke="#666666" stroke-width="0.5" stroke-dasharray="4,4" opacity="0.90"/><line x1="1520" y1="50" x2="1520" y2="900" stroke="#666666" stroke-width="0.5" stroke-dasharray="4,4" opacity="0.90"/><line x1="1592" y1="50" x2="1592" y2="900" stroke="#666666" stroke-width="0.5" stroke-dasharray="4,4" opacity="0.90"/><line x1="1664" y1="50" x2="1664" y2="900" stroke="#666666" stroke-width="0.5" stroke-dasharray="4,4" opacity="0.90"/><line x1="1736" y1="50" x2="1736" y2="900" stroke="#666666" stroke-width="0.5" stroke-dasharray="4,4" opacity="0.90"/><line x1="1808" y1="50" x2="1808" y2="900" stroke="#666666" stroke-width="0.5" stroke-dasharray="4,4" opacity="0.90"/><line x1="1880" y1="50" x2="1880" y2="900" stroke="#666666" stroke-width="0.5" stroke-dasharray="4,4" opacity="0.90"/><line x1="1946" y1="30" x2="1946" y2="950" stroke="black" stroke-width="0.7"/><text x="80" y="1040" text-anchor="middle" font-size="20" fill="black">09:30</text><text x="152" y="1040" text-anchor="middle" font-size="20" fill="black">10:00</text><text x="224" y="1040" text-anchor="middle" font-size="20" fill="black">10:30</text><text x="296" y="1040" text-anchor="middle" font-size="20" fill="black">11:00</text><text x="368" y="1040" text-anchor="middle" font-size="20" fill="black">11:30</text><text x="440" y="1040" text-anchor="middle" font-size="20" fill="black">12:00</text><text x="512" y="1040" text-anchor="middle" font-size="20" fill="black">12:30</text><text x="584" y="1040" text-anchor="middle" font-size="20" fill="black">13:00</text><text x="656" y="1040" text-anchor="middle" font-size="20" fill="black">13:30</text><text x="728" y="1040" text-anchor="middle" font-size="20" fill="black">14:00</text><text x="800" y="1040" text-anchor="middle" font-size="20" fill="black">14:30</text><text x="872" y="1040" text-anchor="middle" font-size="20" fill="black">15:00</text><text x="944" y="1040" text-anchor="middle" font-size="20" fill="black">15:30</text><text x="1016" y="1040" text-anchor="middle" font-size="20" fill="black">09:30</text><text x="1088" y="1040" text-anchor="middle" font-size="20" fill="black">10:00</text><text x="1160" y="1040" text-anchor="middle" font-size="20" fill="black">10:30</text><text x="1232" y="1040" text-anchor="middle" font-size="20" fill="black">11:00</text><text x="1304" y="1040" text-anchor="middle" font-size="20" fill="black">11:30</text><text x="1376" y="1040" text-anchor="middle" font-size="20" fill="black">12:00</text><text x="1448" y="1040" text-anchor="middle" font-size="20" fill="black">12:30</text><text x="1520" y="1040" text-anchor="middle" font-size="20" fill="black">13:00</text><text x="1592" y="1040" text-anchor="middle" font-size="20" fill="black">13:30</text><text x="1664" y="1040" text-anchor="middle" font-size="20" fill="black">14:00</text><text x="1736" y="1040" text-anchor="middle" font-size="20" fill="black">14:30</text><text x="1808" y="1040" text-anchor="middle" font-size="20" fill="black">15:00</text><text x="1880" y="1040" text-anchor="middle" font-size="20" fill="black">15:30</text><text x="1942" y="50" text-anchor="end" font-size="40" fill="#ef5350" font-weight="bold"> -0.21% (Mon)</text></svg>